version 1
nodes
  0 "bone36"  -1
  1 "bone37"  -1
  2 "bone39"  -1
  3 "bone21"   2
  4 "bone20"   3
  5 "bone07"   4
  6 "bone22"   5
  7 "bone18"   6
  8 "bone25"   7
  9 "bone14"   4
 10 "bone16"   9
 11 "bone19"  10
 12 "bone24"  11
 13 "bone01"   4
 14 "bone15"  13
 15 "bone001"  14
 16 "bone17"  13
 17 "bone38"  16
 18 "bone03"   3
 19 "bone06"  18
 20 "bone13"  19
 21 "bone12"  20
 22 "bone26"  19
 23 "bone08"  18
 24 "bone05"  23
 25 "bone09"  24
 26 "bone11"  25
 27 "bone29"  26
 28 "bone30"  25
 29 "bone02"  18
 30 "bone04"  29
 31 "bone10"  30
 32 "bone31"  31
 33 "bone32"  18
 34 "bone34"   2
end
skeleton
time 0
  0 -2.629148 1.415440 -0.352036 0.000000 -0.000000 0.000000
  1 -2.629148 1.415440 -0.352036 0.000000 -0.000000 0.000000
  2 -2.629148 1.415440 -0.352036 0.000000 -0.000000 0.000000
  3 0.000000 -0.687185 97.839333 0.034907 0.000000 0.000000
  4 0.000000 0.440305 -2.731789 -0.034906 0.000000 -0.000000
  5 -8.065217 -1.301253 -17.282547 0.193792 0.001734 -0.105480
  6 -0.883780 2.065767 -34.200714 0.196239 0.086583 -0.047242
  7 -1.767050 1.039490 -33.503738 -0.189260 -0.031322 -0.002357
  8 0.410545 -3.053425 -6.308685 0.000000 -0.000000 0.000000
  9 8.638525 -0.139325 -16.633003 -0.261702 -0.069433 0.010939
 10 1.058087 0.932508 -35.061920 -0.014172 0.017255 0.056291
 11 1.221053 1.156221 -33.292126 0.276557 -0.002357 -0.044983
 12 0.085377 -3.198832 -6.249957 0.000000 -0.000000 0.000000
 13 0.213274 2.786515 7.572433 -0.017453 0.000000 0.000000
 14 -2.904730 0.818863 2.596077 -0.002471 0.006107 -0.382975
 15 3.765301 -0.266405 -105.303307 0.017445 -0.006626 0.385211
 16 1.233751 0.818863 2.596077 -0.001725 0.002901 -0.130544
 17 -2.736666 -0.542175 -105.309525 0.017471 0.007558 -0.441260
 18 0.000000 -0.179234 2.752571 -0.226892 0.000000 0.000001
 19 0.749370 -1.299137 28.624321 0.139626 -0.000000 0.000000
 20 -0.383533 17.841385 -5.153091 -0.174533 0.000000 0.000000
 21 0.341385 5.572281 -21.207764 -0.174532 0.000000 -0.000000
 22 -1.270981 0.784905 10.690918 0.000000 -0.000000 0.000000
 23 -8.160084 -0.723730 19.345650 0.366547 0.017132 0.003330
 24 -15.198606 0.466465 -18.278641 -0.639340 0.212496 0.456580
 25 -8.028435 -4.482513 -11.667107 -0.271619 0.244372 -0.041531
 26 -1.668774 -2.144661 -6.538006 0.052020 0.091792 0.093927
 27 35.457298 5.719467 -83.014801 0.000000 -0.000000 0.000000
 28 -3.175091 -2.066471 -5.742233 0.000000 -0.000000 0.000000
 29 9.450655 -0.516975 19.516205 0.675609 0.463080 -1.349524
 30 14.230839 0.232841 -18.395630 -0.241737 -0.410647 -0.453915
 31 8.015631 -4.458904 -11.817970 -0.088245 -0.076199 -0.105809
 32 2.087148 -1.667408 -5.327347 0.000000 -0.000000 0.000000
 33 0.319299 -0.756851 2.981499 0.000000 -0.000000 0.000000
 34 -2.465699 3.693841 194.748917 0.000000 -0.000000 0.000000
time 1
  0 -2.629148 1.415440 -0.352036 0.000000 -0.000000 0.000000
  1 -2.629148 1.415440 -0.352036 0.000000 -0.000000 0.000000
  2 -2.629148 1.415440 -0.352036 0.000000 -0.000000 0.000000
  3 0.000000 -0.687185 97.839333 0.034907 0.000000 0.000000
  4 0.000000 0.440305 -2.731789 -0.034906 0.000000 -0.000000
  5 -8.065217 -1.301253 -17.282547 0.129166 -0.012746 -0.112048
  6 -0.883780 2.065765 -34.200710 0.280368 0.086543 -0.031879
  7 -1.767050 1.039490 -33.503738 -0.276261 -0.045178 0.002083
  8 0.410544 -3.053425 -6.308688 0.000000 -0.000000 0.000000
  9 8.638525 -0.139325 -16.633003 -0.241547 -0.060646 0.007614
 10 1.058088 0.932507 -35.061901 -0.006020 0.010103 0.055200
 11 1.221052 1.156221 -33.292130 0.259209 -0.002538 -0.042825
 12 0.085377 -3.198831 -6.249958 0.000000 -0.000000 0.000000
 13 0.213274 2.786515 7.572433 -0.017453 0.000000 0.000000
 14 -2.904730 0.818863 2.596077 -0.002649 0.006292 -0.398060
 15 3.765301 -0.266405 -105.303299 0.017445 -0.006626 0.385211
 16 1.233751 0.818863 2.596077 -0.001816 0.002620 -0.113086
 17 -2.736666 -0.542176 -105.309532 0.017471 0.007558 -0.441260
 18 0.000000 -0.179234 2.752571 -0.243251 0.000000 0.000001
 19 0.749370 -1.299135 28.624321 0.141881 0.000000 0.000000
 20 -0.383533 17.841387 -5.153107 -0.174533 0.000000 0.000000
 21 0.341385 5.572279 -21.207756 -0.174532 0.000000 -0.000000
 22 -1.270981 0.784905 10.690903 0.000000 -0.000000 0.000000
 23 -8.160084 -0.723730 19.345657 0.388303 0.002833 0.007706
 24 -15.198607 0.466467 -18.278648 -0.663217 0.234859 0.450965
 25 -8.028435 -4.482513 -11.667107 -0.271619 0.244372 -0.041531
 26 -1.668766 -2.144657 -6.538006 0.052020 0.091792 0.093927
 27 35.457291 5.719467 -83.014786 0.000000 -0.000000 0.000000
 28 -3.175087 -2.066467 -5.742229 0.000000 -0.000000 0.000000
 29 9.450655 -0.516973 19.516205 0.675609 0.463080 -1.349524
 30 14.230843 0.232849 -18.395630 -0.266537 -0.405717 -0.450646
 31 8.015633 -4.458897 -11.817963 -0.088245 -0.076199 -0.105809
 32 2.087149 -1.667408 -5.327332 0.000000 -0.000000 0.000000
 33 0.319299 -0.756851 2.981506 0.000000 -0.000000 0.000000
 34 -2.465699 3.693841 194.748917 0.000000 -0.000000 0.000000
time 2
  0 -2.629148 1.415440 -0.352036 0.000000 -0.000000 0.000000
  1 -2.629148 1.415440 -0.352036 0.000000 -0.000000 0.000000
  2 -2.629148 1.415440 -0.352036 0.000000 -0.000000 0.000000
  3 0.000000 -0.687185 97.839333 0.034907 0.000000 0.000000
  4 0.000000 0.440305 -2.731789 -0.034906 0.000000 -0.000000
  5 -8.065217 -1.301253 -17.282547 -0.025786 -0.039768 -0.127795
  6 -0.883781 2.065766 -34.200722 0.482082 0.086372 0.004956
  7 -1.767047 1.039482 -33.503746 -0.484858 -0.078400 0.012646
  8 0.410546 -3.053424 -6.308689 0.000000 -0.000000 0.000000
  9 8.638525 -0.139325 -16.633003 -0.190749 -0.045022 -0.000732
 10 1.058085 0.932509 -35.061909 0.014524 0.000285 0.052459
 11 1.221053 1.156220 -33.292130 0.215987 -0.002696 -0.037451
 12 0.085377 -3.198829 -6.249957 0.000000 -0.000000 0.000000
 13 0.213274 2.786515 7.572433 -0.017453 0.000000 0.000000
 14 -2.904730 0.818863 2.596077 -0.003142 0.006804 -0.439765
 15 3.765302 -0.266405 -105.303322 0.017445 -0.006626 0.385211
 16 1.233751 0.818863 2.596077 -0.002067 0.001845 -0.064821
 17 -2.736666 -0.542175 -105.309540 0.017471 0.007558 -0.441260
 18 0.000000 -0.179234 2.752571 -0.257460 0.000000 0.000001
 19 0.749370 -1.299135 28.624321 0.148171 -0.000000 0.000000
 20 -0.383533 17.841383 -5.153099 -0.174533 0.000000 0.000000
 21 0.341385 5.572281 -21.207748 -0.174532 0.000000 -0.000000
 22 -1.270981 0.784904 10.690887 0.000000 -0.000000 0.000000
 23 -8.160083 -0.723732 19.345657 0.410032 -0.018329 0.013341
 24 -15.198609 0.466469 -18.278641 -0.688619 0.265737 0.444808
 25 -8.028435 -4.482517 -11.667107 -0.271619 0.244372 -0.041531
 26 -1.668770 -2.144657 -6.538010 0.052020 0.091792 0.093927
 27 35.457275 5.719452 -83.014778 0.000000 -0.000000 0.000000
 28 -3.175095 -2.066471 -5.742233 0.000000 -0.000000 0.000000
 29 9.450655 -0.516975 19.516205 0.675609 0.463080 -1.349524
 30 14.230843 0.232849 -18.395630 -0.297969 -0.391877 -0.441468
 31 8.015633 -4.458893 -11.817970 -0.088245 -0.076199 -0.105809
 32 2.087148 -1.667406 -5.327332 0.000000 -0.000000 0.000000
 33 0.319299 -0.756849 2.981506 0.000000 -0.000000 0.000000
 34 -2.465699 3.693841 194.748917 0.000000 -0.000000 0.000000
time 3
  0 -2.629148 1.415440 -0.352036 0.000000 -0.000000 0.000000
  1 -2.629148 1.415440 -0.352036 0.000000 -0.000000 0.000000
  2 -2.629148 1.415440 -0.352036 0.000000 -0.000000 0.000000
  3 0.000000 -0.687185 97.839333 0.034907 0.000000 0.000000
  4 0.000000 0.440305 -2.731789 -0.034906 0.000000 -0.000000
  5 -8.065217 -1.301253 -17.282547 -0.212671 -0.070553 -0.146788
  6 -0.883783 2.065765 -34.200718 0.725366 0.085993 0.049383
  7 -1.767050 1.039488 -33.503735 -0.736445 -0.118470 0.025367
  8 0.410548 -3.053423 -6.308688 0.000000 -0.000000 0.000000
  9 8.638525 -0.139325 -16.633003 -0.123807 -0.027456 -0.011662
 10 1.058086 0.932508 -35.061905 0.041597 -0.009838 0.048864
 11 1.221053 1.156222 -33.292126 0.160123 -0.002821 -0.030508
 12 0.085378 -3.198828 -6.249957 0.000000 -0.000000 0.000000
 13 0.213274 2.786515 7.572433 -0.017453 0.000000 0.000000
 14 -2.904730 0.818863 2.596077 -0.003886 0.007577 -0.502765
 15 3.765301 -0.266405 -105.303307 0.017445 -0.006626 0.385211
 16 1.233751 0.818863 2.596077 -0.002446 0.000673 0.008092
 17 -2.736666 -0.542174 -105.309540 0.017471 0.007558 -0.441260
 18 0.000000 -0.179234 2.752571 -0.269668 0.000000 0.000001
 19 0.749370 -1.299139 28.624336 0.157780 0.000000 0.000000
 20 -0.383533 17.841381 -5.153091 -0.174533 0.000000 0.000000
 21 0.341385 5.572283 -21.207748 -0.174532 0.000000 -0.000000
 22 -1.270981 0.784905 10.690903 0.000000 -0.000000 0.000000
 23 -8.160084 -0.723732 19.345657 0.431448 -0.044998 0.019963
 24 -15.198606 0.466465 -18.278641 -0.711787 0.297646 0.439096
 25 -8.028435 -4.482510 -11.667099 -0.271619 0.244372 -0.041531
 26 -1.668774 -2.144657 -6.538002 0.052020 0.091792 0.093927
 27 35.457302 5.719494 -83.014786 0.000000 -0.000000 0.000000
 28 -3.175091 -2.066463 -5.742229 0.000000 -0.000000 0.000000
 29 9.450655 -0.516977 19.516220 0.675609 0.463080 -1.349524
 30 14.230844 0.232849 -18.395638 -0.334744 -0.370548 -0.427323
 31 8.015633 -4.458895 -11.817970 -0.088245 -0.076199 -0.105809
 32 2.087149 -1.667405 -5.327332 0.000000 -0.000000 0.000000
 33 0.319299 -0.756851 2.981514 0.000000 -0.000000 0.000000
 34 -2.465699 3.693841 194.748917 0.000000 -0.000000 0.000000
time 4
  0 -2.629148 1.415440 -0.352036 0.000000 -0.000000 0.000000
  1 -2.629148 1.415440 -0.352036 0.000000 -0.000000 0.000000
  2 -2.629148 1.415440 -0.352036 0.000000 -0.000000 0.000000
  3 0.000000 -0.687185 97.839333 0.034907 0.000000 0.000000
  4 0.000000 0.440305 -2.731789 -0.034906 0.000000 -0.000000
  5 -8.065217 -1.301253 -17.282547 -0.373098 -0.096323 -0.163091
  6 -0.883780 2.065765 -34.200718 0.934205 0.085329 0.087519
  7 -1.767046 1.039481 -33.503738 -0.952412 -0.152866 0.036280
  8 0.410547 -3.053425 -6.308687 0.000000 -0.000000 0.000000
  9 8.638525 -0.139325 -16.633003 -0.055218 -0.012841 -0.022736
 10 1.058084 0.932509 -35.061913 0.069333 -0.017903 0.045213
 11 1.221052 1.156224 -33.292130 0.104852 -0.002904 -0.023643
 12 0.085376 -3.198828 -6.249958 0.000000 -0.000000 0.000000
 13 0.213274 2.786515 7.572433 -0.017453 0.000000 0.000000
 14 -2.904730 0.818863 2.596077 -0.004818 0.008545 -0.581738
 15 3.765301 -0.266406 -105.303322 0.017445 -0.006626 0.385211
 16 1.233751 0.818863 2.596077 -0.002921 -0.000795 0.099489
 17 -2.736667 -0.542175 -105.309540 0.017471 0.007558 -0.441260
 18 0.000000 -0.179234 2.752571 -0.280022 0.000000 0.000001
 19 0.749370 -1.299135 28.624313 0.169992 0.000000 0.000000
 20 -0.383533 17.841387 -5.153091 -0.174533 0.000000 0.000000
 21 0.341385 5.572281 -21.207756 -0.174532 0.000000 -0.000000
 22 -1.270981 0.784905 10.690903 0.000000 -0.000000 0.000000
 23 -8.160084 -0.723730 19.345642 0.452268 -0.075818 0.027300
 24 -15.198608 0.466467 -18.278641 -0.728959 0.323097 0.434816
 25 -8.028435 -4.482510 -11.667107 -0.271619 0.244372 -0.041531
 26 -1.668777 -2.144657 -6.538006 0.052020 0.091792 0.093927
 27 35.457291 5.719479 -83.014801 0.000000 -0.000000 0.000000
 28 -3.175095 -2.066467 -5.742233 0.000000 -0.000000 0.000000
 29 9.450655 -0.516975 19.516197 0.675609 0.463080 -1.349524
 30 14.230842 0.232841 -18.395638 -0.375572 -0.343152 -0.409156
 31 8.015635 -4.458895 -11.817963 -0.088245 -0.076199 -0.105809
 32 2.087149 -1.667407 -5.327332 0.000000 -0.000000 0.000000
 33 0.319299 -0.756849 2.981499 0.000000 -0.000000 0.000000
 34 -2.465699 3.693841 194.748917 0.000000 -0.000000 0.000000
time 5
  0 -2.629148 1.415440 -0.352036 0.000000 -0.000000 0.000000
  1 -2.629148 1.415440 -0.352036 0.000000 -0.000000 0.000000
  2 -2.629148 1.415440 -0.352036 0.000000 -0.000000 0.000000
  3 0.000000 -0.687185 97.839333 0.034907 0.000000 0.000000
  4 0.000000 0.440305 -2.731789 -0.034906 0.000000 -0.000000
  5 -8.065217 -1.301253 -17.282547 -0.448672 -0.108301 -0.170772
  6 -0.883781 2.065769 -34.200710 1.032587 0.084304 0.105485
  7 -1.767049 1.039486 -33.503746 -1.054151 -0.169070 0.041419
  8 0.410546 -3.053424 -6.308687 0.000000 -0.000000 0.000000
  9 8.638525 -0.139325 -16.633003 0.000518 -0.006071 -0.031513
 10 1.058086 0.932506 -35.061920 0.091869 -0.021547 0.042303
 11 1.221053 1.156219 -33.292130 0.063407 -0.002938 -0.018505
 12 0.085376 -3.198829 -6.249959 0.000000 -0.000000 0.000000
 13 0.213274 2.786515 7.572433 -0.017453 0.000000 0.000000
 14 -2.904730 0.818863 2.596077 -0.005877 0.009645 -0.671359
 15 3.765301 -0.266404 -105.303337 0.017445 -0.006626 0.385211
 16 1.233751 0.818863 2.596077 -0.003461 -0.002462 0.203209
 17 -2.736666 -0.542175 -105.309547 0.017471 0.007558 -0.441260
 18 0.000000 -0.179234 2.752571 -0.288670 0.000000 0.000001
 19 0.749370 -1.299135 28.624329 0.184093 0.000000 0.000000
 20 -0.383533 17.841385 -5.153107 -0.174533 0.000000 0.000000
 21 0.341385 5.572283 -21.207756 -0.174532 0.000000 -0.000000
 22 -1.270981 0.784905 10.690887 0.000000 -0.000000 0.000000
 23 -8.160084 -0.723730 19.345650 0.472207 -0.109433 0.035079
 24 -15.198605 0.466467 -18.278641 -0.736375 0.334606 0.432954
 25 -8.028435 -4.482513 -11.667107 -0.271619 0.244372 -0.041531
 26 -1.668770 -2.144665 -6.538010 0.052020 0.091792 0.093927
 27 35.457298 5.719471 -83.014801 0.000000 -0.000000 0.000000
 28 -3.175087 -2.066475 -5.742233 0.000000 -0.000000 0.000000
 29 9.450654 -0.516975 19.516212 0.675609 0.463080 -1.349524
 30 14.230844 0.232841 -18.395630 -0.419162 -0.311113 -0.387908
 31 8.015635 -4.458895 -11.817970 -0.088245 -0.076199 -0.105809
 32 2.087149 -1.667405 -5.327339 0.000000 -0.000000 0.000000
 33 0.319298 -0.756851 2.981506 0.000000 -0.000000 0.000000
 34 -2.465699 3.693841 194.748917 0.000000 -0.000000 0.000000
time 6
  0 -2.629148 1.415440 -0.352036 0.000000 -0.000000 0.000000
  1 -2.629148 1.415440 -0.352036 0.000000 -0.000000 0.000000
  2 -2.629148 1.415440 -0.352036 0.000000 -0.000000 0.000000
  3 0.000000 -0.687185 97.839333 0.034907 0.000000 0.000000
  4 0.000000 0.440305 -2.731789 -0.034906 0.000000 -0.000000
  5 -8.065217 -1.301253 -17.282547 -0.446508 -0.107704 -0.170692
  6 -0.883780 2.065765 -34.200706 0.997383 0.080851 0.102321
  7 -1.767049 1.039494 -33.503738 -1.005354 -0.161371 0.041451
  8 0.410547 -3.053427 -6.308687 0.000000 -0.000000 0.000000
  9 8.638525 -0.139325 -16.633003 0.044416 -0.006971 -0.038100
 10 1.058085 0.932509 -35.061916 0.105824 -0.019420 0.040556
 11 1.221053 1.156221 -33.292141 0.040613 -0.002921 -0.015692
 12 0.085377 -3.198828 -6.249960 0.000000 -0.000000 0.000000
 13 0.213274 2.786515 7.572433 -0.017453 0.000000 0.000000
 14 -2.904730 0.818863 2.596077 -0.006998 0.010810 -0.766304
 15 3.765301 -0.266405 -105.303329 0.017445 -0.006626 0.385211
 16 1.233751 0.818863 2.596077 -0.004032 -0.004227 0.313091
 17 -2.736666 -0.542175 -105.309555 0.017471 0.007558 -0.441260
 18 0.000000 -0.179234 2.752571 -0.295759 0.000000 0.000001
 19 0.749370 -1.299137 28.624329 0.199368 -0.000000 0.000000
 20 -0.383533 17.841383 -5.153091 -0.174533 0.000000 -0.000000
 21 0.341385 5.572283 -21.207756 -0.174532 0.000000 -0.000000
 22 -1.270981 0.784905 10.690903 0.000000 -0.000000 0.000000
 23 -8.160084 -0.723732 19.345657 0.490980 -0.144489 0.043030
 24 -15.198606 0.466469 -18.278641 -0.730177 0.331771 0.433314
 25 -8.028439 -4.482517 -11.667099 -0.271619 0.244372 -0.041531
 26 -1.668770 -2.144661 -6.538010 0.052020 0.091792 0.093927
 27 35.457283 5.719444 -83.014801 0.000000 -0.000000 0.000000
 28 -3.175091 -2.066467 -5.742233 0.000000 -0.000000 0.000000
 29 9.450655 -0.516977 19.516212 0.675609 0.463079 -1.349524
 30 14.230842 0.232841 -18.395630 -0.464226 -0.275851 -0.364525
 31 8.015632 -4.458893 -11.817970 -0.088245 -0.076199 -0.105809
 32 2.087149 -1.667406 -5.327332 0.000000 -0.000000 0.000000
 33 0.319299 -0.756851 2.981506 0.000000 -0.000000 0.000000
 34 -2.465699 3.693841 194.748917 0.000000 -0.000000 0.000000
time 7
  0 -2.629148 1.415440 -0.352036 0.000000 -0.000000 0.000000
  1 -2.629148 1.415440 -0.352036 0.000000 -0.000000 0.000000
  2 -2.629148 1.415440 -0.352036 0.000000 -0.000000 0.000000
  3 0.000000 -0.687185 97.839333 0.034907 0.000000 0.000000
  4 0.000000 0.440305 -2.731789 -0.034906 0.000000 -0.000000
  5 -8.065217 -1.301253 -17.282547 -0.437505 -0.105423 -0.170208
  6 -0.883780 2.065765 -34.200718 0.887970 0.072977 0.092099
  7 -1.767049 1.039486 -33.503731 -0.854589 -0.137583 0.041402
  8 0.410546 -3.053426 -6.308687 0.000000 -0.000000 0.000000
  9 8.638525 -0.139325 -16.633003 0.091294 -0.009877 -0.044958
 10 1.058086 0.932507 -35.061916 0.114096 -0.012829 0.039543
 11 1.221052 1.156218 -33.292133 0.027325 -0.002852 -0.014067
 12 0.085376 -3.198829 -6.249959 0.000000 -0.000000 0.000000
 13 0.213274 2.786515 7.572433 -0.017453 0.000000 0.000000
 14 -2.904730 0.818863 2.596077 -0.008119 0.011975 -0.861248
 15 3.765301 -0.266406 -105.303299 0.017445 -0.006626 0.385211
 16 1.233751 0.818863 2.596077 -0.004604 -0.005992 0.422973
 17 -2.736667 -0.542176 -105.309540 0.017471 0.007558 -0.441260
 18 0.000000 -0.179234 2.752571 -0.301437 0.000000 0.000001
 19 0.749370 -1.299135 28.624313 0.215100 -0.000000 0.000000
 20 -0.383533 17.841385 -5.153099 -0.174533 0.000000 -0.000000
 21 0.341385 5.572281 -21.207748 -0.174532 0.000000 -0.000000
 22 -1.270980 0.784905 10.690903 0.000000 -0.000000 0.000000
 23 -8.160084 -0.723732 19.345650 0.508304 -0.179628 0.050880
 24 -15.198614 0.466465 -18.278633 -0.709950 0.322294 0.434526
 25 -8.028437 -4.482513 -11.667099 -0.271619 0.244372 -0.041531
 26 -1.668774 -2.144661 -6.538006 0.052020 0.091792 0.093927
 27 35.457275 5.719482 -83.014786 0.000000 -0.000000 0.000000
 28 -3.175095 -2.066475 -5.742229 0.000000 -0.000000 0.000000
 29 9.450655 -0.516973 19.516205 0.675609 0.463080 -1.349524
 30 14.230842 0.232841 -18.395630 -0.509474 -0.238789 -0.339947
 31 8.015635 -4.458895 -11.817963 -0.088245 -0.076199 -0.105809
 32 2.087149 -1.667406 -5.327339 0.000000 -0.000000 0.000000
 33 0.319299 -0.756849 2.981499 0.000000 -0.000000 0.000000
 34 -2.465699 3.693841 194.748917 0.000000 -0.000000 0.000000
time 8
  0 -2.629148 1.415440 -0.352036 0.000000 -0.000000 0.000000
  1 -2.629148 1.415440 -0.352036 0.000000 -0.000000 0.000000
  2 -2.629148 1.415440 -0.352036 0.000000 -0.000000 0.000000
  3 0.000000 -0.687185 97.839333 0.034907 0.000000 0.000000
  4 0.000000 0.440305 -2.731789 -0.034906 0.000000 -0.000000
  5 -8.065217 -1.301253 -17.282547 -0.423298 -0.101734 -0.169411
  6 -0.883782 2.065767 -34.200714 0.727916 0.062102 0.076819
  7 -1.767049 1.039492 -33.503735 -0.634046 -0.102785 0.041299
  8 0.410546 -3.053427 -6.308686 0.000000 -0.000000 0.000000
  9 8.638525 -0.139325 -16.633003 0.138714 -0.014127 -0.051775
 10 1.058085 0.932508 -35.061905 0.119456 -0.003105 0.038916
 11 1.221052 1.156219 -33.292126 0.019536 -0.002709 -0.013129
 12 0.085376 -3.198827 -6.249958 0.000000 -0.000000 0.000000
 13 0.213274 2.786515 7.572433 -0.017453 0.000000 0.000000
 14 -2.904730 0.818863 2.596077 -0.009177 0.013074 -0.950870
 15 3.765301 -0.266404 -105.303314 0.017445 -0.006626 0.385211
 16 1.233751 0.818863 2.596077 -0.005143 -0.007659 0.526693
 17 -2.736666 -0.542175 -105.309540 0.017471 0.007558 -0.441260
 18 0.000000 -0.179234 2.752571 -0.305852 0.000000 0.000001
 19 0.749370 -1.299141 28.624329 0.230576 0.000000 0.000000
 20 -0.383533 17.841385 -5.153084 -0.174533 0.000000 0.000000
 21 0.341385 5.572281 -21.207756 -0.174532 0.000000 -0.000000
 22 -1.270981 0.784905 10.690918 0.000000 -0.000000 0.000000
 23 -8.160086 -0.723732 19.345650 0.523893 -0.213496 0.058356
 24 -15.198614 0.466465 -18.278641 -0.677671 0.307172 0.436459
 25 -8.028437 -4.482513 -11.667107 -0.271619 0.244372 -0.041531
 26 -1.668777 -2.144661 -6.538006 0.052020 0.091792 0.093927
 27 35.457275 5.719494 -83.014793 0.000000 -0.000000 0.000000
 28 -3.175095 -2.066475 -5.742229 0.000000 -0.000000 0.000000
 29 9.450655 -0.516979 19.516212 0.675609 0.463080 -1.349524
 30 14.230842 0.232849 -18.395638 -0.553615 -0.201349 -0.315119
 31 8.015634 -4.458892 -11.817970 -0.088245 -0.076199 -0.105809
 32 2.087150 -1.667405 -5.327339 0.000000 -0.000000 0.000000
 33 0.319298 -0.756853 2.981506 0.000000 -0.000000 0.000000
 34 -2.465699 3.693841 194.748917 0.000000 -0.000000 0.000000
time 9
  0 -2.629148 1.415440 -0.352036 0.000000 -0.000000 0.000000
  1 -2.629148 1.415440 -0.352036 0.000000 -0.000000 0.000000
  2 -2.629148 1.415440 -0.352036 0.000000 -0.000000 0.000000
  3 0.000000 -0.687185 97.839333 0.034907 0.000000 0.000000
  4 0.000000 0.440305 -2.731789 -0.034906 0.000000 -0.000000
  5 -8.065217 -1.301253 -17.282547 -0.404908 -0.096821 -0.168327
  6 -0.883782 2.065763 -34.200718 0.540372 0.049669 0.058364
  7 -1.767048 1.039483 -33.503742 -0.375623 -0.062010 0.041124
  8 0.410546 -3.053424 -6.308687 0.000000 -0.000000 0.000000
  9 8.638525 -0.139325 -16.633003 0.184092 -0.019108 -0.058213
 10 1.058086 0.932508 -35.061913 0.124664 0.008432 0.038327
 11 1.221052 1.156223 -33.292133 0.013307 -0.002474 -0.012386
 12 0.085377 -3.198824 -6.249960 0.000000 -0.000000 0.000000
 13 0.213274 2.786515 7.572433 -0.017453 0.000000 0.000000
 14 -2.904730 0.818863 2.596077 -0.010110 0.014043 -1.029842
 15 3.765301 -0.266407 -105.303322 0.017445 -0.006626 0.385211
 16 1.233751 0.818863 2.596077 -0.005619 -0.009127 0.618090
 17 -2.736666 -0.542175 -105.309547 0.017471 0.007558 -0.441260
 18 0.000000 -0.179234 2.752571 -0.309151 0.000000 0.000001
 19 0.749370 -1.299135 28.624329 0.245079 0.000000 0.000000
 20 -0.383533 17.841383 -5.153114 -0.174533 0.000000 0.000000
 21 0.341385 5.572279 -21.207756 -0.174532 0.000000 -0.000000
 22 -1.270981 0.784905 10.690887 0.000000 -0.000000 0.000000
 23 -8.160083 -0.723732 19.345657 0.537464 -0.244737 0.065188
 24 -15.198611 0.466469 -18.278641 -0.635330 0.287335 0.438996
 25 -8.028438 -4.482517 -11.667107 -0.271619 0.244372 -0.041531
 26 -1.668777 -2.144661 -6.538010 0.052020 0.091792 0.093927
 27 35.457275 5.719448 -83.014801 0.000000 -0.000000 0.000000
 28 -3.175098 -2.066479 -5.742233 0.000000 -0.000000 0.000000
 29 9.450655 -0.516975 19.516212 0.675609 0.463079 -1.349524
 30 14.230844 0.232849 -18.395638 -0.595360 -0.164954 -0.290983
 31 8.015634 -4.458892 -11.817970 -0.088245 -0.076199 -0.105809
 32 2.087149 -1.667404 -5.327339 0.000000 -0.000000 0.000000
 33 0.319299 -0.756851 2.981506 0.000000 -0.000000 0.000000
 34 -2.465699 3.693841 194.748917 0.000000 -0.000000 0.000000
time 10
  0 -2.629148 1.415440 -0.352036 0.000000 -0.000000 0.000000
  1 -2.629148 1.415440 -0.352036 0.000000 -0.000000 0.000000
  2 -2.629148 1.415440 -0.352036 0.000000 -0.000000 0.000000
  3 0.000000 -0.687185 97.839333 0.034907 0.000000 0.000000
  4 0.000000 0.440305 -2.731789 -0.034906 0.000000 -0.000000
  5 -8.065217 -1.301253 -17.282547 -0.383355 -0.090865 -0.166982
  6 -0.883782 2.065765 -34.200714 0.348488 0.037122 0.038618
  7 -1.767049 1.039484 -33.503742 -0.111219 -0.020291 0.040862
  8 0.410543 -3.053427 -6.308688 0.000000 -0.000000 0.000000
  9 8.638525 -0.139325 -16.633003 0.224844 -0.024204 -0.063938
 10 1.058086 0.932508 -35.061913 0.132476 0.020459 0.037431
 11 1.221051 1.156219 -33.292141 0.004695 -0.002126 -0.011348
 12 0.085376 -3.198832 -6.249961 0.000000 -0.000000 0.000000
 13 0.213274 2.786515 7.572433 -0.017453 0.000000 0.000000
 14 -2.904730 0.818863 2.596077 -0.010854 0.014816 -1.092843
 15 3.765301 -0.266405 -105.303307 0.017445 -0.006626 0.385211
 16 1.233751 0.818863 2.596077 -0.005998 -0.010299 0.691002
 17 -2.736665 -0.542175 -105.309532 0.017471 0.007558 -0.441260
 18 0.000000 -0.179234 2.752571 -0.311482 0.000000 0.000001
 19 0.749370 -1.299135 28.624313 0.257895 -0.000000 0.000000
 20 -0.383533 17.841383 -5.153099 -0.174533 0.000000 -0.000000
 21 0.341385 5.572279 -21.207748 -0.174532 0.000000 -0.000000
 22 -1.270981 0.784905 10.690903 0.000000 -0.000000 0.000000
 23 -8.160084 -0.723732 19.345650 0.548731 -0.271996 0.071103
 24 -15.198610 0.466461 -18.278641 -0.584913 0.263715 0.442017
 25 -8.028437 -4.482510 -11.667107 -0.271619 0.244372 -0.041531
 26 -1.668770 -2.144657 -6.538002 0.052020 0.091792 0.093927
 27 35.457279 5.719471 -83.014771 0.000000 -0.000000 0.000000
 28 -3.175095 -2.066471 -5.742226 0.000000 -0.000000 0.000000
 29 9.450655 -0.516977 19.516205 0.675609 0.463079 -1.349524
 30 14.230844 0.232849 -18.395630 -0.633419 -0.131026 -0.268483
 31 8.015631 -4.458895 -11.817970 -0.088245 -0.076199 -0.105809
 32 2.087148 -1.667405 -5.327339 0.000000 -0.000000 0.000000
 33 0.319299 -0.756849 2.981499 0.000000 -0.000000 0.000000
 34 -2.465699 3.693841 194.748917 0.000000 -0.000000 0.000000
time 11
  0 -2.629148 1.415440 -0.352036 0.000000 -0.000000 0.000000
  1 -2.629148 1.415440 -0.352036 0.000000 -0.000000 0.000000
  2 -2.629148 1.415440 -0.352036 0.000000 -0.000000 0.000000
  3 0.000000 -0.687185 97.839333 0.034907 0.000000 0.000000
  4 0.000000 0.440305 -2.731789 -0.034906 0.000000 -0.000000
  5 -8.065217 -1.301253 -17.282547 -0.359661 -0.084049 -0.165403
  6 -0.883780 2.065762 -34.200710 0.175413 0.025902 0.019465
  7 -1.767048 1.039486 -33.503731 0.127267 0.017338 0.040495
  8 0.410545 -3.053427 -6.308686 0.000000 -0.000000 0.000000
  9 8.638525 -0.139325 -16.633003 0.258384 -0.028800 -0.068613
 10 1.058085 0.932507 -35.061916 0.145651 0.031653 0.035882
 11 1.221049 1.156219 -33.292137 -0.010239 -0.001646 -0.009523
 12 0.085376 -3.198828 -6.249960 0.000000 -0.000000 0.000000
 13 0.213274 2.786515 7.572433 -0.017453 0.000000 0.000000
 14 -2.904730 0.818863 2.596077 -0.011347 0.015328 -1.134548
 15 3.765302 -0.266405 -105.303307 0.017445 -0.006626 0.385211
 16 1.233751 0.818863 2.596077 -0.006249 -0.011074 0.739268
 17 -2.736666 -0.542175 -105.309555 0.017471 0.007558 -0.441260
 18 0.000000 -0.179234 2.752571 -0.312993 0.000000 0.000001
 19 0.749370 -1.299137 28.624321 0.268309 0.000000 0.000000
 20 -0.383533 17.841383 -5.153091 -0.174533 0.000000 -0.000000
 21 0.341385 5.572279 -21.207748 -0.174532 0.000000 -0.000000
 22 -1.270981 0.784905 10.690903 0.000000 -0.000000 0.000000
 23 -8.160084 -0.723732 19.345650 0.557411 -0.293915 0.075828
 24 -15.198605 0.466469 -18.278641 -0.528408 0.237243 0.445403
 25 -8.028432 -4.482510 -11.667107 -0.271619 0.244372 -0.041531
 26 -1.668772 -2.144653 -6.538010 0.052020 0.091792 0.093927
 27 35.457298 5.719460 -83.014786 0.000000 -0.000000 0.000000
 28 -3.175093 -2.066471 -5.742233 0.000000 -0.000000 0.000000
 29 9.450655 -0.516975 19.516205 0.675609 0.463080 -1.349524
 30 14.230841 0.232841 -18.395630 -0.666502 -0.100986 -0.248562
 31 8.015631 -4.458895 -11.817970 -0.088245 -0.076199 -0.105809
 32 2.087147 -1.667406 -5.327332 0.000000 -0.000000 0.000000
 33 0.319299 -0.756849 2.981499 0.000000 -0.000000 0.000000
 34 -2.465699 3.693841 194.748917 0.000000 -0.000000 0.000000
time 12
  0 -2.629148 1.415440 -0.352036 0.000000 -0.000000 0.000000
  1 -2.629148 1.415440 -0.352036 0.000000 -0.000000 0.000000
  2 -2.629148 1.415440 -0.352036 0.000000 -0.000000 0.000000
  3 0.000000 -0.687185 97.839333 0.034907 0.000000 0.000000
  4 0.000000 0.440305 -2.731789 -0.034906 0.000000 -0.000000
  5 -8.065217 -1.301253 -17.282547 -0.334846 -0.076556 -0.163614
  6 -0.883781 2.065767 -34.200710 0.044296 0.017453 0.002787
  7 -1.767050 1.039490 -33.503742 0.307936 0.045845 0.040008
  8 0.410545 -3.053427 -6.308686 0.000000 -0.000000 0.000000
  9 8.638525 -0.139325 -16.633003 0.282128 -0.032282 -0.071901
 10 1.058085 0.932503 -35.061924 0.166947 0.040692 0.033332
 11 1.221050 1.156221 -33.292141 -0.035437 -0.001014 -0.006419
 12 0.085375 -3.198828 -6.249959 0.000000 -0.000000 0.000000
 13 0.213274 2.786515 7.572433 -0.017453 0.000000 0.000000
 14 -2.904730 0.818863 2.596077 -0.011525 0.015513 -1.149632
 15 3.765301 -0.266406 -105.303329 0.017445 -0.006626 0.385211
 16 1.233751 0.818863 2.596077 -0.006340 -0.011354 0.756726
 17 -2.736666 -0.542175 -105.309540 0.017471 0.007558 -0.441260
 18 0.000000 -0.179234 2.752571 -0.313832 0.000000 0.000001
 19 0.749370 -1.299135 28.624321 0.275604 0.000000 0.000000
 20 -0.383533 17.841381 -5.153091 -0.174533 0.000000 -0.000000
 21 0.341385 5.572281 -21.207748 -0.174532 0.000000 -0.000000
 22 -1.270981 0.784905 10.690903 0.000000 -0.000000 0.000000
 23 -8.160084 -0.723730 19.345642 0.563219 -0.309141 0.079093
 24 -15.198606 0.466469 -18.278648 -0.467804 0.208851 0.449034
 25 -8.028435 -4.482517 -11.667107 -0.271619 0.244372 -0.041531
 26 -1.668770 -2.144657 -6.538010 0.052020 0.091792 0.093927
 27 35.457291 5.719450 -83.014793 0.000000 -0.000000 0.000000
 28 -3.175093 -2.066471 -5.742233 0.000000 -0.000000 0.000000
 29 9.450655 -0.516973 19.516205 0.675609 0.463080 -1.349524
 30 14.230843 0.232849 -18.395630 -0.693321 -0.076257 -0.232163
 31 8.015633 -4.458892 -11.817970 -0.088245 -0.076199 -0.105809
 32 2.087149 -1.667406 -5.327332 0.000000 -0.000000 0.000000
 33 0.319299 -0.756851 2.981506 0.000000 -0.000000 0.000000
 34 -2.465699 3.693841 194.748917 0.000000 -0.000000 0.000000
time 13
  0 -2.629148 1.415440 -0.352036 0.000000 -0.000000 0.000000
  1 -2.629148 1.415440 -0.352036 0.000000 -0.000000 0.000000
  2 -2.629148 1.415440 -0.352036 0.000000 -0.000000 0.000000
  3 0.000000 -0.687185 97.839333 0.034907 0.000000 0.000000
  4 0.000000 0.440305 -2.731789 -0.034906 0.000000 -0.000000
  5 -8.065217 -1.301253 -17.282547 -0.309932 -0.068569 -0.161643
  6 -0.883782 2.065771 -34.200718 -0.021712 0.013217 -0.009531
  7 -1.767049 1.039492 -33.503738 0.398891 0.060196 0.039384
  8 0.410546 -3.053423 -6.308687 0.000000 -0.000000 0.000000
  9 8.638525 -0.139325 -16.633003 0.293491 -0.034035 -0.073467
 10 1.058085 0.932507 -35.061913 0.199122 0.046253 0.029436
 11 1.221049 1.156219 -33.292133 -0.074840 -0.000210 -0.001544
 12 0.085376 -3.198828 -6.249958 0.000000 -0.000000 0.000000
 13 0.213274 2.786515 7.572433 -0.017453 0.000000 0.000000
 14 -2.904730 0.818863 2.596077 -0.011372 0.015354 -1.136721
 15 3.765302 -0.266405 -105.303329 0.017445 -0.006626 0.385211
 16 1.233751 0.818863 2.596077 -0.006262 -0.011114 0.741783
 17 -2.736666 -0.542175 -105.309532 0.017471 0.007558 -0.441260
 18 0.000000 -0.179234 2.752571 -0.314145 0.000000 0.000001
 19 0.749370 -1.299135 28.624321 0.279067 -0.000000 0.000000
 20 -0.383533 17.841383 -5.153099 -0.174533 0.000000 0.000000
 21 0.341385 5.572279 -21.207748 -0.174532 0.000000 -0.000000
 22 -1.270981 0.784905 10.690903 0.000000 -0.000000 0.000000
 23 -8.160084 -0.723732 19.345650 0.565871 -0.316317 0.080625
 24 -15.198606 0.466465 -18.278641 -0.405087 0.179468 0.452792
 25 -8.028433 -4.482511 -11.667107 -0.271619 0.244372 -0.041531
 26 -1.668772 -2.144661 -6.538002 0.052020 0.091792 0.093927
 27 35.457291 5.719460 -83.014786 0.000000 -0.000000 0.000000
 28 -3.175093 -2.066471 -5.742226 0.000000 -0.000000 0.000000
 29 9.450655 -0.516977 19.516212 0.675609 0.463080 -1.349524
 30 14.230844 0.232841 -18.395638 -0.712584 -0.058261 -0.220230
 31 8.015635 -4.458894 -11.817970 -0.088245 -0.076199 -0.105809
 32 2.087149 -1.667407 -5.327339 0.000000 -0.000000 0.000000
 33 0.319299 -0.756851 2.981499 0.000000 -0.000000 0.000000
 34 -2.465699 3.693841 194.748917 0.000000 -0.000000 0.000000
time 14
  0 -2.629148 1.415440 -0.352036 0.000000 -0.000000 0.000000
  1 -2.629148 1.415440 -0.352036 0.000000 -0.000000 0.000000
  2 -2.629148 1.415440 -0.352036 0.000000 -0.000000 0.000000
  3 0.000000 -0.687185 97.839333 0.034907 0.000000 0.000000
  4 0.000000 0.440305 -2.731789 -0.034906 0.000000 -0.000000
  5 -8.065217 -1.301253 -17.282547 -0.285375 -0.059212 -0.159534
  6 -0.883782 2.065769 -34.200706 -0.023385 0.013779 -0.017198
  7 -1.767049 1.039490 -33.503738 0.396309 0.059857 0.038078
  8 0.410546 -3.053425 -6.308685 0.000000 -0.000000 0.000000
  9 8.638525 -0.139325 -16.633003 0.276877 -0.033632 -0.070915
 10 1.058086 0.932508 -35.061913 0.250889 0.048316 0.023315
 11 1.221048 1.156231 -33.292133 -0.143388 0.002414 0.006198
 12 0.085377 -3.198828 -6.249957 0.000000 -0.000000 0.000000
 13 0.213274 2.786515 7.572433 -0.017453 0.000000 0.000000
 14 -2.904730 0.818863 2.596077 -0.010948 0.014913 -1.100778
 15 3.765300 -0.266404 -105.303299 0.017445 -0.006626 0.385211
 16 1.233751 0.818863 2.596077 -0.006046 -0.010446 0.700186
 17 -2.736666 -0.542175 -105.309532 0.017471 0.007558 -0.441260
 18 0.000000 -0.179234 2.752571 -0.313214 0.000000 0.000001
 19 0.749370 -1.299133 28.624313 0.277740 -0.000000 0.000000
 20 -0.383533 17.841383 -5.153099 -0.174533 0.000000 -0.000000
 21 0.341385 5.572281 -21.207748 -0.174532 0.000000 -0.000000
 22 -1.270981 0.784905 10.690903 0.000000 -0.000000 0.000000
 23 -8.160084 -0.723730 19.345642 0.564444 -0.313888 0.079869
 24 -15.198610 0.466465 -18.278633 -0.342247 0.150028 0.456557
 25 -8.028432 -4.482512 -11.667114 -0.271619 0.244372 -0.041531
 26 -1.668768 -2.144661 -6.538002 0.052020 0.091792 0.093927
 27 35.457279 5.719450 -83.014786 0.000000 -0.000000 0.000000
 28 -3.175089 -2.066471 -5.742233 0.000000 -0.000000 0.000000
 29 9.450655 -0.516977 19.516205 0.675609 0.463080 -1.349524
 30 14.230844 0.232841 -18.395630 -0.723002 -0.048421 -0.213704
 31 8.015635 -4.458895 -11.817978 -0.088245 -0.076199 -0.105809
 32 2.087150 -1.667406 -5.327339 0.000000 -0.000000 0.000000
 33 0.319299 -0.756849 2.981499 0.000000 -0.000000 0.000000
 34 -2.465699 3.693841 194.748917 0.000000 -0.000000 0.000000
time 15
  0 -2.629148 1.415440 -0.352036 0.000000 -0.000000 0.000000
  1 -2.629148 1.415440 -0.352036 0.000000 -0.000000 0.000000
  2 -2.629148 1.415440 -0.352036 0.000000 -0.000000 0.000000
  3 0.000000 -0.687185 97.839333 0.034907 0.000000 0.000000
  4 0.000000 0.440305 -2.731789 -0.034906 0.000000 -0.000000
  5 -8.065217 -1.301253 -17.282547 -0.259949 -0.046427 -0.157313
  6 -0.883781 2.065769 -34.200706 -0.014599 0.017268 -0.023619
  7 -1.767047 1.039488 -33.503731 0.363430 0.054960 0.034901
  8 0.410544 -3.053423 -6.308684 0.000000 -0.000000 0.000000
  9 8.638525 -0.139325 -16.633003 0.204634 -0.031533 -0.059861
 10 1.058086 0.932505 -35.061905 0.333933 0.049770 0.013969
 11 1.221049 1.156223 -33.292122 -0.263553 0.010393 0.017932
 12 0.085376 -3.198826 -6.249958 0.000000 -0.000000 0.000000
 13 0.213274 2.786515 7.572433 -0.017453 0.000000 0.000000
 14 -2.904730 0.818863 2.596077 -0.010301 0.014241 -1.045992
 15 3.765302 -0.266405 -105.303314 0.017445 -0.006626 0.385211
 16 1.233751 0.818863 2.596077 -0.005716 -0.009427 0.636781
 17 -2.736666 -0.542175 -105.309547 0.017471 0.007558 -0.441260
 18 0.000000 -0.179234 2.752571 -0.309078 0.000000 0.000001
 19 0.749370 -1.299137 28.624329 0.271122 -0.000000 0.000000
 20 -0.383533 17.841385 -5.153084 -0.174533 0.000000 -0.000000
 21 0.341385 5.572281 -21.207748 -0.174532 0.000000 -0.000000
 22 -1.270981 0.784905 10.690918 0.000000 -0.000000 0.000000
 23 -8.160085 -0.723732 19.345650 0.557479 -0.301435 0.076201
 24 -15.198603 0.466469 -18.278641 -0.281269 0.121461 0.460210
 25 -8.028430 -4.482515 -11.667099 -0.271619 0.244372 -0.041531
 26 -1.668770 -2.144657 -6.538002 0.052020 0.091792 0.093927
 27 35.457310 5.719431 -83.014786 0.000000 -0.000000 0.000000
 28 -3.175091 -2.066471 -5.742233 0.000000 -0.000000 0.000000
 29 9.450655 -0.516977 19.516212 0.675609 0.463080 -1.349524
 30 14.230848 0.232841 -18.395630 -0.721680 -0.048868 -0.213772
 31 8.015635 -4.458896 -11.817970 -0.088245 -0.076199 -0.105809
 32 2.087150 -1.667405 -5.327332 0.000000 -0.000000 0.000000
 33 0.319299 -0.756851 2.981506 0.000000 -0.000000 0.000000
 34 -2.465699 3.693841 194.748917 0.000000 -0.000000 0.000000
time 16
  0 -2.629148 1.415440 -0.352036 0.000000 -0.000000 0.000000
  1 -2.629148 1.415440 -0.352036 0.000000 -0.000000 0.000000
  2 -2.629148 1.415440 -0.352036 0.000000 -0.000000 0.000000
  3 0.000000 -0.687185 97.839333 0.034907 0.000000 0.000000
  4 0.000000 0.440305 -2.731789 -0.034906 0.000000 -0.000000
  5 -8.065217 -1.301253 -17.282547 -0.233143 -0.031515 -0.154909
  6 -0.883781 2.065769 -34.200703 0.000085 0.023029 -0.029084
  7 -1.767048 1.039488 -33.503731 0.310377 0.047044 0.030270
  8 0.410545 -3.053426 -6.308685 0.000000 -0.000000 0.000000
  9 8.638525 -0.139325 -16.633003 0.092837 -0.028284 -0.042755
 10 1.058085 0.932507 -35.061920 0.437364 0.050851 0.002562
 11 1.221049 1.156214 -33.292130 -0.418169 0.022179 0.032207
 12 0.085376 -3.198824 -6.249959 0.000000 -0.000000 0.000000
 13 0.213274 2.786515 7.572433 -0.017453 0.000000 0.000000
 14 -2.904730 0.818863 2.596077 -0.009481 0.013389 -0.976550
 15 3.765301 -0.266405 -105.303299 0.017445 -0.006626 0.385211
 16 1.233751 0.818863 2.596077 -0.005298 -0.008136 0.556414
 17 -2.736666 -0.542175 -105.309555 0.017471 0.007558 -0.441260
 18 0.000000 -0.179234 2.752571 -0.302247 0.000000 0.000001
 19 0.749370 -1.299137 28.624336 0.260193 -0.000000 0.000000
 20 -0.383533 17.841385 -5.153091 -0.174533 0.000000 -0.000000
 21 0.341385 5.572281 -21.207748 -0.174532 0.000000 -0.000000
 22 -1.270981 0.784905 10.690903 0.000000 -0.000000 0.000000
 23 -8.160084 -0.723732 19.345657 0.545726 -0.280529 0.070145
 24 -15.198610 0.466465 -18.278648 -0.224144 0.094697 0.463633
 25 -8.028429 -4.482513 -11.667114 -0.271619 0.244372 -0.041531
 26 -1.668770 -2.144657 -6.538010 0.052020 0.091792 0.093927
 27 35.457306 5.719453 -83.014793 0.000000 -0.000000 0.000000
 28 -3.175091 -2.066469 -5.742233 0.000000 -0.000000 0.000000
 29 9.450655 -0.516975 19.516205 0.675609 0.463080 -1.349524
 30 14.230846 0.232841 -18.395630 -0.698656 -0.064237 -0.222178
 31 8.015636 -4.458896 -11.817978 -0.088245 -0.076199 -0.105809
 32 2.087150 -1.667404 -5.327339 0.000000 -0.000000 0.000000
 33 0.319299 -0.756849 2.981506 0.000000 -0.000000 0.000000
 34 -2.465699 3.693841 194.748917 0.000000 -0.000000 0.000000
time 17
  0 -2.629148 1.415440 -0.352036 0.000000 -0.000000 0.000000
  1 -2.629148 1.415440 -0.352036 0.000000 -0.000000 0.000000
  2 -2.629148 1.415440 -0.352036 0.000000 -0.000000 0.000000
  3 0.000000 -0.687185 97.839333 0.034907 0.000000 0.000000
  4 0.000000 0.440305 -2.731789 -0.034906 0.000000 -0.000000
  5 -8.065217 -1.301253 -17.282547 -0.204517 -0.015957 -0.152250
  6 -0.883780 2.065766 -34.200710 0.019445 0.030513 -0.033668
  7 -1.767049 1.039487 -33.503727 0.243476 0.037037 0.024691
  8 0.410545 -3.053424 -6.308685 0.000000 -0.000000 0.000000
  9 8.638525 -0.139325 -16.633003 -0.040170 -0.024419 -0.022404
 10 1.058086 0.932505 -35.061913 0.549184 0.051614 -0.009642
 11 1.221049 1.156216 -33.292122 -0.588083 0.035950 0.047450
 12 0.085378 -3.198827 -6.249956 0.000000 -0.000000 0.000000
 13 0.213274 2.786515 7.572433 -0.017453 0.000000 0.000000
 14 -2.904730 0.818863 2.596077 -0.008537 0.012409 -0.896639
 15 3.765301 -0.266406 -105.303307 0.017445 -0.006626 0.385211
 16 1.233751 0.818863 2.596077 -0.004817 -0.006650 0.463931
 17 -2.736666 -0.542175 -105.309540 0.017471 0.007558 -0.441260
 18 0.000000 -0.179234 2.752571 -0.293373 0.000000 0.000001
 19 0.749370 -1.299139 28.624336 0.245994 -0.000000 0.000000
 20 -0.383533 17.841387 -5.153099 -0.174533 0.000000 0.000000
 21 0.341385 5.572281 -21.207764 -0.174532 0.000000 -0.000000
 22 -1.270981 0.784905 10.690903 0.000000 -0.000000 0.000000
 23 -8.160085 -0.723730 19.345657 0.530045 -0.252812 0.062276
 24 -15.198612 0.466465 -18.278641 -0.172857 0.070670 0.466706
 25 -8.028435 -4.482518 -11.667107 -0.271619 0.244372 -0.041531
 26 -1.668770 -2.144660 -6.538002 0.052020 0.091792 0.093927
 27 35.457298 5.719440 -83.014816 0.000000 -0.000000 0.000000
 28 -3.175091 -2.066470 -5.742233 0.000000 -0.000000 0.000000
 29 9.450655 -0.516975 19.516212 0.675609 0.463080 -1.349524
 30 14.230843 0.232841 -18.395638 -0.656618 -0.092536 -0.237900
 31 8.015633 -4.458894 -11.817978 -0.088245 -0.076199 -0.105809
 32 2.087148 -1.667405 -5.327332 0.000000 -0.000000 0.000000
 33 0.319299 -0.756851 2.981506 0.000000 -0.000000 0.000000
 34 -2.465699 3.693841 194.748917 0.000000 -0.000000 0.000000
time 18
  0 -2.629148 1.415440 -0.352036 0.000000 -0.000000 0.000000
  1 -2.629148 1.415440 -0.352036 0.000000 -0.000000 0.000000
  2 -2.629148 1.415440 -0.352036 0.000000 -0.000000 0.000000
  3 0.000000 -0.687185 97.839333 0.034907 0.000000 0.000000
  4 0.000000 0.440305 -2.731789 -0.034906 0.000000 -0.000000
  5 -8.065217 -1.301253 -17.282547 -0.173628 -0.001232 -0.149260
  6 -0.883781 2.065768 -34.200703 0.042261 0.039173 -0.037440
  7 -1.767049 1.039491 -33.503731 0.169055 0.025869 0.018672
  8 0.410544 -3.053424 -6.308684 0.000000 -0.000000 0.000000
  9 8.638525 -0.139325 -16.633003 -0.176043 -0.020470 -0.001614
 10 1.058087 0.932505 -35.061909 0.657398 0.052112 -0.021376
 11 1.221050 1.156219 -33.292122 -0.754141 0.049883 0.062090
 12 0.085376 -3.198826 -6.249956 0.000000 -0.000000 0.000000
 13 0.213274 2.786515 7.572433 -0.017453 0.000000 0.000000
 14 -2.904730 0.818863 2.596077 -0.007519 0.011351 -0.810447
 15 3.765301 -0.266405 -105.303337 0.017445 -0.006626 0.385211
 16 1.233751 0.818863 2.596077 -0.004298 -0.005048 0.364179
 17 -2.736666 -0.542175 -105.309540 0.017471 0.007558 -0.441260
 18 0.000000 -0.179234 2.752571 -0.283106 0.000000 0.000001
 19 0.749370 -1.299133 28.624313 0.229567 0.000000 0.000000
 20 -0.383533 17.841381 -5.153107 -0.174533 0.000000 -0.000000
 21 0.341385 5.572283 -21.207748 -0.174532 0.000000 -0.000000
 22 -1.270981 0.784906 10.690887 0.000000 -0.000000 0.000000
 23 -8.160084 -0.723732 19.345657 0.511298 -0.219926 0.053172
 24 -15.198608 0.466465 -18.278633 -0.129397 0.050309 0.469310
 25 -8.028435 -4.482518 -11.667107 -0.271619 0.244372 -0.041531
 26 -1.668768 -2.144659 -6.538002 0.052020 0.091792 0.093927
 27 35.457291 5.719421 -83.014816 0.000000 -0.000000 0.000000
 28 -3.175091 -2.066471 -5.742226 0.000000 -0.000000 0.000000
 29 9.450655 -0.516975 19.516212 0.675609 0.463080 -1.349524
 30 14.230845 0.232849 -18.395638 -0.600616 -0.130652 -0.259497
 31 8.015635 -4.458893 -11.817970 -0.088245 -0.076199 -0.105809
 32 2.087150 -1.667404 -5.327339 0.000000 -0.000000 0.000000
 33 0.319299 -0.756849 2.981506 0.000000 -0.000000 0.000000
 34 -2.465699 3.693841 194.748917 0.000000 -0.000000 0.000000
time 19
  0 -2.629148 1.415440 -0.352036 0.000000 -0.000000 0.000000
  1 -2.629148 1.415440 -0.352036 0.000000 -0.000000 0.000000
  2 -2.629148 1.415440 -0.352036 0.000000 -0.000000 0.000000
  3 0.000000 -0.687185 97.839333 0.034907 0.000000 0.000000
  4 0.000000 0.440305 -2.731789 -0.034906 0.000000 -0.000000
  5 -8.065217 -1.301253 -17.282547 -0.140034 0.011178 -0.145867
  6 -0.883780 2.065768 -34.200714 0.067314 0.048458 -0.040475
  7 -1.767049 1.039491 -33.503738 0.093441 0.014468 0.012719
  8 0.410547 -3.053424 -6.308684 0.000000 -0.000000 0.000000
  9 8.638525 -0.139325 -16.633003 -0.296438 -0.016972 0.016808
 10 1.058087 0.932507 -35.061905 0.750009 0.052402 -0.031375
 11 1.221050 1.156219 -33.292130 -0.897190 0.062155 0.074555
 12 0.085375 -3.198825 -6.249955 0.000000 -0.000000 0.000000
 13 0.213274 2.786515 7.572433 -0.017453 0.000000 0.000000
 14 -2.904730 0.818863 2.596077 -0.006477 0.010268 -0.722161
 15 3.765301 -0.266405 -105.303314 0.017445 -0.006626 0.385211
 16 1.233751 0.818863 2.596077 -0.003767 -0.003406 0.262003
 17 -2.736667 -0.542175 -105.309547 0.017471 0.007558 -0.441260
 18 0.000000 -0.179234 2.752571 -0.272096 0.000000 0.000001
 19 0.749370 -1.299137 28.624329 0.211951 0.000000 0.000000
 20 -0.383533 17.841381 -5.153084 -0.174533 0.000000 0.000000
 21 0.341385 5.572281 -21.207756 -0.174532 0.000000 -0.000000
 22 -1.270981 0.784905 10.690918 0.000000 -0.000000 0.000000
 23 -8.160084 -0.723730 19.345657 0.490346 -0.183512 0.043411
 24 -15.198606 0.466469 -18.278641 -0.095753 0.034547 0.471325
 25 -8.028433 -4.482517 -11.667107 -0.271619 0.244372 -0.041531
 26 -1.668772 -2.144659 -6.538002 0.052020 0.091792 0.093927
 27 35.457291 5.719438 -83.014793 0.000000 -0.000000 0.000000
 28 -3.175093 -2.066471 -5.742233 0.000000 -0.000000 0.000000
 29 9.450655 -0.516975 19.516212 0.675609 0.463080 -1.349524
 30 14.230846 0.232849 -18.395622 -0.535699 -0.175469 -0.285525
 31 8.015633 -4.458897 -11.817978 -0.088245 -0.076199 -0.105809
 32 2.087148 -1.667406 -5.327339 0.000000 -0.000000 0.000000
 33 0.319299 -0.756851 2.981506 0.000000 -0.000000 0.000000
 34 -2.465699 3.693841 194.748917 0.000000 -0.000000 0.000000
time 20
  0 -2.629148 1.415440 -0.352036 0.000000 -0.000000 0.000000
  1 -2.629148 1.415440 -0.352036 0.000000 -0.000000 0.000000
  2 -2.629148 1.415440 -0.352036 0.000000 -0.000000 0.000000
  3 0.000000 -0.687185 97.839333 0.034907 0.000000 0.000000
  4 0.000000 0.440305 -2.731789 -0.034906 0.000000 -0.000000
  5 -8.065217 -1.301253 -17.282547 -0.103293 0.019795 -0.141996
  6 -0.883781 2.065767 -34.200714 0.093381 0.057821 -0.042844
  7 -1.767052 1.039489 -33.503735 0.022961 0.003763 0.007338
  8 0.410543 -3.053424 -6.308685 0.000000 -0.000000 0.000000
  9 8.638525 -0.139325 -16.633003 -0.383013 -0.014456 0.030054
 10 1.058086 0.932499 -35.061905 0.815020 0.052536 -0.038371
 11 1.221050 1.156222 -33.292122 -0.998075 0.070944 0.083273
 12 0.085376 -3.198828 -6.249956 0.000000 -0.000000 0.000000
 13 0.213274 2.786515 7.572433 -0.017453 0.000000 0.000000
 14 -2.904730 0.818863 2.596077 -0.005459 0.009211 -0.635969
 15 3.765301 -0.266405 -105.303307 0.017445 -0.006626 0.385211
 16 1.233751 0.818863 2.596077 -0.003248 -0.001804 0.162251
 17 -2.736666 -0.542175 -105.309555 0.017471 0.007558 -0.441260
 18 0.000000 -0.179234 2.752571 -0.260995 0.000000 0.000001
 19 0.749370 -1.299137 28.624321 0.194190 -0.000000 0.000000
 20 -0.383533 17.841387 -5.153091 -0.174533 0.000000 0.000000
 21 0.341385 5.572281 -21.207748 -0.174532 0.000000 -0.000000
 22 -1.270981 0.784905 10.690918 0.000000 -0.000000 0.000000
 23 -8.160084 -0.723730 19.345650 0.468050 -0.145211 0.033568
 24 -15.198605 0.466469 -18.278641 -0.073910 0.024314 0.472634
 25 -8.028432 -4.482515 -11.667107 -0.271619 0.244372 -0.041531
 26 -1.668770 -2.144660 -6.538002 0.052020 0.091792 0.093927
 27 35.457294 5.719440 -83.014801 0.000000 -0.000000 0.000000
 28 -3.175089 -2.066471 -5.742226 0.000000 -0.000000 0.000000
 29 9.450655 -0.516973 19.516205 0.675609 0.463079 -1.349524
 30 14.230844 0.232841 -18.395638 -0.466916 -0.223872 -0.314540
 31 8.015632 -4.458897 -11.817970 -0.088245 -0.076199 -0.105809
 32 2.087147 -1.667405 -5.327332 0.000000 -0.000000 0.000000
 33 0.319299 -0.756849 2.981499 0.000000 -0.000000 0.000000
 34 -2.465699 3.693841 194.748917 0.000000 -0.000000 0.000000
time 21
  0 -2.629148 1.415440 -0.352036 0.000000 -0.000000 0.000000
  1 -2.629148 1.415440 -0.352036 0.000000 -0.000000 0.000000
  2 -2.629148 1.415440 -0.352036 0.000000 -0.000000 0.000000
  3 0.000000 -0.687185 97.839333 0.034907 0.000000 0.000000
  4 0.000000 0.440305 -2.731789 -0.034906 0.000000 -0.000000
  5 -8.065217 -1.301253 -17.282547 -0.062964 0.023137 -0.137573
  6 -0.883781 2.065769 -34.200710 0.119244 0.066711 -0.044620
  7 -1.767052 1.039489 -33.503738 -0.036057 -0.005317 0.003036
  8 0.410549 -3.053424 -6.308685 0.000000 -0.000000 0.000000
  9 8.638525 -0.139325 -16.633003 -0.417422 -0.013456 0.035319
 10 1.058086 0.932503 -35.061905 0.840435 0.052569 -0.041101
 11 1.221051 1.156216 -33.292126 -1.037642 0.074428 0.086672
 12 0.085375 -3.198827 -6.249957 0.000000 -0.000000 0.000000
 13 0.213274 2.786515 7.572433 -0.017453 0.000000 0.000000
 14 -2.904730 0.818863 2.596077 -0.004515 0.008230 -0.556058
 15 3.765301 -0.266405 -105.303307 0.017445 -0.006626 0.385211
 16 1.233751 0.818863 2.596077 -0.002767 -0.000318 0.069768
 17 -2.736666 -0.542176 -105.309547 0.017471 0.007558 -0.441260
 18 0.000000 -0.179234 2.752571 -0.250453 0.000000 0.000001
 19 0.749370 -1.299135 28.624321 0.177323 -0.000000 0.000000
 20 -0.383533 17.841383 -5.153099 -0.174533 0.000000 0.000000
 21 0.341385 5.572283 -21.207756 -0.174532 0.000000 -0.000000
 22 -1.270981 0.784904 10.690903 0.000000 -0.000000 0.000000
 23 -8.160083 -0.723732 19.345657 0.445270 -0.106665 0.024221
 24 -15.198607 0.466469 -18.278641 -0.065859 0.020542 0.473116
 25 -8.028436 -4.482517 -11.667107 -0.271619 0.244372 -0.041531
 26 -1.668774 -2.144660 -6.538010 0.052020 0.091792 0.093927
 27 35.457272 5.719446 -83.014778 0.000000 -0.000000 0.000000
 28 -3.175095 -2.066472 -5.742233 0.000000 -0.000000 0.000000
 29 9.450655 -0.516975 19.516212 0.675609 0.463080 -1.349524
 30 14.230846 0.232841 -18.395638 -0.399316 -0.272746 -0.345099
 31 8.015632 -4.458897 -11.817963 -0.088245 -0.076199 -0.105809
 32 2.087148 -1.667408 -5.327347 0.000000 -0.000000 0.000000
 33 0.319299 -0.756851 2.981506 0.000000 -0.000000 0.000000
 34 -2.465699 3.693841 194.748917 0.000000 -0.000000 0.000000
time 22
  0 -2.629148 1.415440 -0.352036 0.000000 -0.000000 0.000000
  1 -2.629148 1.415440 -0.352036 0.000000 -0.000000 0.000000
  2 -2.629148 1.415440 -0.352036 0.000000 -0.000000 0.000000
  3 0.000000 -0.687185 97.839333 0.034907 0.000000 0.000000
  4 0.000000 0.440305 -2.731789 -0.034906 0.000000 -0.000000
  5 -8.065217 -1.301253 -17.282547 0.000055 0.019937 -0.130019
  6 -0.883781 2.065767 -34.200714 0.143682 0.074582 -0.045876
  7 -1.767050 1.039491 -33.503731 -0.087188 -0.013580 0.000183
  8 0.410545 -3.053425 -6.308686 0.000000 -0.000000 0.000000
  9 8.638525 -0.139325 -16.633003 -0.395749 -0.021179 0.031926
 10 1.058088 0.932505 -35.061916 0.712557 0.047284 -0.026527
 11 1.221051 1.156216 -33.292130 -0.840995 0.062939 0.066972
 12 0.085377 -3.198826 -6.249958 0.000000 -0.000000 0.000000
 13 0.213274 2.786515 7.572433 -0.017453 0.000000 0.000000
 14 -2.904730 0.818863 2.596077 -0.003695 0.007378 -0.486615
 15 3.765301 -0.266405 -105.303314 0.017445 -0.006626 0.385211
 16 1.233751 0.818863 2.596077 -0.002349 0.000974 -0.010599
 17 -2.736666 -0.542174 -105.309547 0.017471 0.007558 -0.441260
 18 0.000000 -0.179234 2.752571 -0.241122 0.000000 0.000001
 19 0.749370 -1.299137 28.624329 0.162392 -0.000000 0.000000
 20 -0.383533 17.841389 -5.153091 -0.174533 0.000000 -0.000000
 21 0.341385 5.572281 -21.207764 -0.174532 0.000000 -0.000000
 22 -1.270981 0.784905 10.690903 0.000000 -0.000000 0.000000
 23 -8.160085 -0.723730 19.345650 0.422869 -0.069517 0.015947
 24 -15.198604 0.466465 -18.278641 -0.151678 0.049266 0.470642
 25 -8.028431 -4.482513 -11.667107 -0.271619 0.244372 -0.041531
 26 -1.668770 -2.144661 -6.538010 0.052020 0.091792 0.093927
 27 35.457314 5.719443 -83.014809 0.000000 -0.000000 0.000000
 28 -3.175087 -2.066471 -5.742241 0.000000 -0.000000 0.000000
 29 9.450655 -0.516973 19.516205 0.675609 0.463080 -1.349524
 30 14.230848 0.232841 -18.395638 -0.337949 -0.318976 -0.375760
 31 8.015633 -4.458895 -11.817963 -0.088245 -0.076199 -0.105809
 32 2.087149 -1.667408 -5.327332 0.000000 -0.000000 0.000000
 33 0.319299 -0.756849 2.981499 0.000000 -0.000000 0.000000
 34 -2.465699 3.693841 194.748917 0.000000 -0.000000 0.000000
time 23
  0 -2.629148 1.415440 -0.352036 0.000000 -0.000000 0.000000
  1 -2.629148 1.415440 -0.352036 0.000000 -0.000000 0.000000
  2 -2.629148 1.415440 -0.352036 0.000000 -0.000000 0.000000
  3 0.000000 -0.687185 97.839333 0.034907 0.000000 0.000000
  4 0.000000 0.440305 -2.731789 -0.034906 0.000000 -0.000000
  5 -8.065217 -1.301253 -17.282547 0.085764 0.012563 -0.119270
  6 -0.883781 2.065767 -34.200718 0.165474 0.080883 -0.046683
  7 -1.767048 1.039489 -33.503742 -0.134647 -0.021678 -0.001426
  8 0.410545 -3.053424 -6.308686 0.000000 -0.000000 0.000000
  9 8.638525 -0.139325 -16.633003 -0.344912 -0.039313 0.023966
 10 1.058086 0.932503 -35.061909 0.418191 0.035121 0.007019
 11 1.221049 1.156220 -33.292122 -0.388323 0.036490 0.021624
 12 0.085376 -3.198828 -6.249957 0.000000 -0.000000 0.000000
 13 0.213274 2.786515 7.572433 -0.017453 0.000000 0.000000
 14 -2.904730 0.818863 2.596077 -0.003048 0.006706 -0.431829
 15 3.765302 -0.266405 -105.303314 0.017445 -0.006626 0.385211
 16 1.233751 0.818863 2.596077 -0.002019 0.001992 -0.074004
 17 -2.736666 -0.542175 -105.309540 0.017471 0.007558 -0.441260
 18 0.000000 -0.179234 2.752571 -0.233650 0.000000 0.000001
 19 0.749370 -1.299137 28.624321 0.150438 0.000000 0.000000
 20 -0.383533 17.841385 -5.153099 -0.174533 0.000000 0.000000
 21 0.341385 5.572279 -21.207764 -0.174532 0.000000 -0.000000
 22 -1.270981 0.784905 10.690903 0.000000 -0.000000 0.000000
 23 -8.160085 -0.723732 19.345657 0.401708 -0.035407 0.009322
 24 -15.198607 0.466469 -18.278641 -0.349209 0.115383 0.464946
 25 -8.028431 -4.482511 -11.667114 -0.271619 0.244372 -0.041531
 26 -1.668766 -2.144659 -6.538010 0.052020 0.091792 0.093927
 27 35.457302 5.719458 -83.014801 0.000000 -0.000000 0.000000
 28 -3.175091 -2.066469 -5.742233 0.000000 -0.000000 0.000000
 29 9.450655 -0.516975 19.516205 0.675609 0.463080 -1.349524
 30 14.230843 0.232841 -18.395622 -0.287864 -0.359446 -0.405078
 31 8.015635 -4.458900 -11.817978 -0.088245 -0.076199 -0.105809
 32 2.087149 -1.667410 -5.327332 0.000000 -0.000000 0.000000
 33 0.319299 -0.756851 2.981506 0.000000 -0.000000 0.000000
 34 -2.465699 3.693841 194.748917 0.000000 -0.000000 0.000000
time 24
  0 -2.629148 1.415440 -0.352036 0.000000 -0.000000 0.000000
  1 -2.629148 1.415440 -0.352036 0.000000 -0.000000 0.000000
  2 -2.629148 1.415440 -0.352036 0.000000 -0.000000 0.000000
  3 0.000000 -0.687185 97.839333 0.034907 0.000000 0.000000
  4 0.000000 0.440305 -2.731789 -0.034906 0.000000 -0.000000
  5 -8.065217 -1.301253 -17.282547 0.161305 0.005126 -0.109648
  6 -0.883782 2.065769 -34.200718 0.183400 0.085066 -0.047114
  7 -1.767050 1.039492 -33.503735 -0.171114 -0.028098 -0.002152
  8 0.410547 -3.053427 -6.308686 0.000000 -0.000000 0.000000
  9 8.638525 -0.139325 -16.633003 -0.291402 -0.058515 0.015588
 10 1.058087 0.932507 -35.061913 0.121262 0.022852 0.040857
 11 1.221051 1.156223 -33.292126 0.068290 0.009811 -0.024119
 12 0.085376 -3.198826 -6.249957 0.000000 -0.000000 0.000000
 13 0.213274 2.786515 7.572433 -0.017453 0.000000 0.000000
 14 -2.904730 0.818863 2.596077 -0.002623 0.006265 -0.395887
 15 3.765302 -0.266404 -105.303322 0.017445 -0.006626 0.385211
 16 1.233751 0.818863 2.596077 -0.001802 0.002661 -0.115602
 17 -2.736666 -0.542175 -105.309547 0.017471 0.007558 -0.441260
 18 0.000000 -0.179234 2.752571 -0.228690 0.000000 0.000001
 19 0.749370 -1.299137 28.624329 0.142502 -0.000000 0.000000
 20 -0.383533 17.841385 -5.153099 -0.174533 0.000000 0.000000
 21 0.341385 5.572281 -21.207756 -0.174532 0.000000 -0.000000
 22 -1.270981 0.784905 10.690903 0.000000 -0.000000 0.000000
 23 -8.160084 -0.723730 19.345650 0.382646 -0.005977 0.004924
 24 -15.198607 0.466469 -18.278633 -0.548459 0.182076 0.459201
 25 -8.028439 -4.482517 -11.667107 -0.271619 0.244372 -0.041531
 26 -1.668774 -2.144665 -6.538013 0.052020 0.091792 0.093927
 27 35.457275 5.719444 -83.014801 0.000000 -0.000000 0.000000
 28 -3.175095 -2.066471 -5.742233 0.000000 -0.000000 0.000000
 29 9.450655 -0.516973 19.516205 0.675609 0.463079 -1.349524
 30 14.230843 0.232841 -18.395630 -0.254110 -0.391041 -0.431611
 31 8.015628 -4.458899 -11.817970 -0.088245 -0.076199 -0.105809
 32 2.087147 -1.667408 -5.327339 0.000000 -0.000000 0.000000
 33 0.319299 -0.756849 2.981506 0.000000 -0.000000 0.000000
 34 -2.465699 3.693841 194.748917 0.000000 -0.000000 0.000000
time 25
  0 -2.629148 1.415440 -0.352036 0.000000 -0.000000 0.000000
  1 -2.629148 1.415440 -0.352036 0.000000 -0.000000 0.000000
  2 -2.629148 1.415440 -0.352036 0.000000 -0.000000 0.000000
  3 0.000000 -0.687185 97.839333 0.034907 0.000000 0.000000
  4 0.000000 0.440305 -2.731789 -0.034906 0.000000 -0.000000
  5 -8.065217 -1.301253 -17.282547 0.193792 0.001734 -0.105480
  6 -0.883780 2.065767 -34.200714 0.196239 0.086583 -0.047242
  7 -1.767050 1.039490 -33.503738 -0.189260 -0.031322 -0.002357
  8 0.410545 -3.053427 -6.308686 0.000000 -0.000000 0.000000
  9 8.638525 -0.139325 -16.633003 -0.261702 -0.069433 0.010939
 10 1.058086 0.932503 -35.061920 -0.014172 0.017255 0.056291
 11 1.221050 1.156223 -33.292130 0.276557 -0.002357 -0.044983
 12 0.085378 -3.198830 -6.249958 0.000000 -0.000000 0.000000
 13 0.213274 2.786515 7.572433 -0.017453 0.000000 0.000000
 14 -2.904730 0.818863 2.596077 -0.002471 0.006107 -0.382975
 15 3.765301 -0.266405 -105.303307 0.017445 -0.006626 0.385211
 16 1.233751 0.818863 2.596077 -0.001725 0.002901 -0.130544
 17 -2.736666 -0.542175 -105.309525 0.017471 0.007558 -0.441260
 18 0.000000 -0.179234 2.752571 -0.226892 0.000000 0.000001
 19 0.749370 -1.299137 28.624321 0.139626 -0.000000 0.000000
 20 -0.383533 17.841385 -5.153091 -0.174533 0.000000 0.000000
 21 0.341385 5.572281 -21.207764 -0.174532 0.000000 -0.000000
 22 -1.270981 0.784905 10.690918 0.000000 -0.000000 0.000000
 23 -8.160084 -0.723730 19.345650 0.366547 0.017132 0.003330
 24 -15.198605 0.466469 -18.278641 -0.639340 0.212496 0.456580
 25 -8.028431 -4.482510 -11.667099 -0.271619 0.244372 -0.041531
 26 -1.668774 -2.144661 -6.537998 0.052020 0.091792 0.093927
 27 35.457291 5.719475 -83.014771 0.000000 -0.000000 0.000000
 28 -3.175095 -2.066471 -5.742226 0.000000 -0.000000 0.000000
 29 9.450655 -0.516975 19.516205 0.675609 0.463080 -1.349524
 30 14.230843 0.232841 -18.395630 -0.241737 -0.410647 -0.453915
 31 8.015635 -4.458900 -11.817963 -0.088245 -0.076199 -0.105809
 32 2.087149 -1.667408 -5.327347 0.000000 -0.000000 0.000000
 33 0.319299 -0.756851 2.981499 0.000000 -0.000000 0.000000
 34 -2.465699 3.693841 194.748917 0.000000 -0.000000 0.000000
end
