version 1
nodes
  0 "bone33"  -1
  1 "bone34"  -1
  2 "bone35"  -1
  3 "bone36"  -1
  4 "bone24"  -1
  5 "bone19"  -1
  6 "bone18"   5
  7 "bone14"   6
  8 "bone15"   7
  9 "bone17"   8
 10 "bone26"   9
 11 "bone04"   6
 12 "bone20"  11
 13 "bone16"  12
 14 "bone27"  13
 15 "bone06"   5
 16 "bone07"  15
 17 "bone05"  16
 18 "bone11"  17
 19 "bone28"  18
 20 "bone02"  15
 21 "bone03"  20
 22 "bone09"  21
 23 "bone29"  22
 24 "bone01"  15
 25 "bone12"  24
 26 "bone30"  25
 27 "bone10"  24
 28 "bone31"  27
 29 "bone13"  24
 30 "bone08"  24
 31 "bone22"  24
 32 "bone23"  15
end
skeleton
time 0
  0 -5.180422 13.788269 -12.439880 0.000000 -0.000000 0.000000
  1 -5.180422 13.788269 -12.439880 0.000000 -0.000000 0.000000
  2 -5.180422 13.788269 -12.439880 0.000000 -0.000000 0.000000
  3 -5.180422 13.788269 -12.439880 0.000000 -0.000000 0.000000
  4 -4.455341 19.713478 299.953064 0.000000 -0.000000 0.000000
  5 -5.180422 18.668694 135.203812 0.087267 0.000000 -0.000000
  6 0.585070 4.634649 -15.754387 0.139627 0.000000 -0.000000
  7 44.000435 -0.454872 -14.063072 -0.279252 -0.000000 0.000000
  8 -1.648884 -14.263247 -46.038208 0.279253 0.000000 0.000000
  9 1.901329 0.000000 -35.274979 -0.191986 0.000000 0.000000
 10 1.220856 -0.000004 -27.561970 0.000000 -0.000000 0.000000
 11 -35.658199 -1.977135 -14.300331 -0.314159 -0.000000 0.000000
 12 2.095200 -12.740986 -45.800972 -0.052360 0.000000 0.000000
 13 -2.525253 -0.000000 -34.836559 0.139626 0.000000 0.000000
 14 -1.229671 -0.000004 -26.461926 0.000000 -0.000000 0.000000
 15 0.585070 -7.861071 40.912140 0.157080 0.000000 -0.000000
 16 -35.591049 -1.703068 41.085175 0.349065 0.000000 -0.087266
 17 -37.563431 14.762688 -50.295166 -0.279252 0.000000 -0.000000
 18 -10.963058 -41.811981 -33.818550 -0.366519 0.000001 -0.000000
 19 -3.816727 -34.078995 -25.402420 0.000000 -0.000000 0.000000
 20 41.148888 -1.371414 40.606613 0.000000 0.000000 0.104720
 21 39.457146 17.377464 -50.174316 -0.245372 -0.019946 -0.001911
 22 11.722168 -44.271454 -32.982788 -0.242925 0.024226 0.007891
 23 2.616646 -33.926437 -25.777016 0.000000 -0.000000 0.000000
 24 -0.737603 -0.369770 42.251770 0.000000 -0.000000 0.000000
 25 59.548912 38.000324 11.633072 -1.623153 -0.000000 -0.000000
 26 7.710041 -174.312256 82.914406 0.000000 -0.000000 0.000000
 27 -48.533001 39.089817 12.126022 -1.658062 -0.000000 -0.000000
 28 -11.661724 -173.988098 81.962120 0.000000 -0.000000 0.000000
 29 2.355416 41.099155 8.166306 -0.174533 0.000000 -0.000000
 30 3.826383 -29.401634 7.538559 0.139626 0.000000 0.000000
 31 -0.684172 -11.661072 48.858292 0.000000 -0.000000 0.000000
 32 -0.072890 -1.756195 2.960083 0.000000 -0.000000 0.000000
time 1
  0 -5.180422 13.788269 -12.439880 0.000000 -0.000000 0.000000
  1 -5.180422 13.788269 -12.439880 0.000000 -0.000000 0.000000
  2 -5.180422 13.788269 -12.439880 0.000000 -0.000000 0.000000
  3 -5.180422 13.788269 -12.439880 0.000000 -0.000000 0.000000
  4 -4.455341 19.713478 299.953064 0.000000 -0.000000 0.000000
  5 -5.180422 18.593927 135.203812 0.087267 0.000000 -0.000000
  6 0.585070 4.634649 -15.754387 0.139627 0.000000 -0.000000
  7 44.000435 -0.454872 -14.063072 -0.278459 -0.000000 -0.000000
  8 -1.648884 -14.263249 -46.038219 0.279253 0.000000 0.000000
  9 1.901329 -0.000004 -35.274986 -0.191986 -0.000000 -0.000000
 10 1.220856 -0.000004 -27.561974 0.000000 -0.000000 0.000000
 11 -35.658199 -1.977135 -14.300323 -0.313895 -0.000000 0.000000
 12 2.095200 -12.740986 -45.800968 -0.052360 0.000000 0.000000
 13 -2.525253 0.000000 -34.836563 0.139626 0.000000 0.000000
 14 -1.229671 -0.000004 -26.461926 0.000000 -0.000000 0.000000
 15 0.585070 -7.863155 40.888321 0.157080 0.000000 -0.000000
 16 -35.591049 -1.703068 41.085190 0.346797 -0.000195 -0.087234
 17 -37.563435 14.762688 -50.295166 -0.276914 0.000201 -0.000031
 18 -10.963051 -41.811977 -33.818535 -0.366520 0.000001 0.000000
 19 -3.816734 -34.079018 -25.402435 0.000000 -0.000000 0.000000
 20 41.148888 -1.371410 40.606613 0.001549 -0.000161 0.104701
 21 39.457134 17.377464 -50.174332 -0.244060 -0.020078 -0.001950
 22 11.722160 -44.271446 -32.982773 -0.242925 0.024226 0.007891
 23 2.616646 -33.926430 -25.777023 0.000000 -0.000000 0.000000
 24 -0.737603 -0.337620 42.243744 0.000000 -0.000000 0.000000
 25 59.548912 38.021946 11.627670 -1.623153 -0.000000 -0.000000
 26 7.710041 -174.312271 82.914398 0.000000 -0.000000 0.000000
 27 -48.533001 39.115314 12.119675 -1.658062 -0.000000 -0.000000
 28 -11.661724 -173.988113 81.962135 0.000000 -0.000000 0.000000
 29 2.355416 41.030766 8.183350 -0.175214 0.000000 0.000000
 30 3.826383 -29.374493 7.531769 0.139626 0.000000 0.000000
 31 -0.684172 -11.661072 48.858276 0.000000 -0.000000 0.000000
 32 -0.072890 -1.756191 2.960068 0.000000 -0.000000 0.000000
time 2
  0 -5.180422 13.788269 -12.439880 0.000000 -0.000000 0.000000
  1 -5.180422 13.788269 -12.439880 0.000000 -0.000000 0.000000
  2 -5.180422 13.788269 -12.439880 0.000000 -0.000000 0.000000
  3 -5.180422 13.788269 -12.439880 0.000000 -0.000000 0.000000
  4 -4.455341 19.713478 299.953064 0.000000 -0.000000 0.000000
  5 -5.180422 18.380653 135.203812 0.087267 0.000000 -0.000000
  6 0.585070 4.634651 -15.754402 0.139627 0.000000 -0.000000
  7 44.000435 -0.454872 -14.063080 -0.276192 -0.000000 -0.000000
  8 -1.648884 -14.263248 -46.038216 0.279253 0.000000 0.000000
  9 1.901329 -0.000002 -35.274986 -0.191986 -0.000000 -0.000000
 10 1.220856 0.000000 -27.561972 0.000000 -0.000000 0.000000
 11 -35.658199 -1.977131 -14.300331 -0.313139 -0.000000 0.000000
 12 2.095200 -12.740988 -45.800964 -0.052360 0.000000 0.000000
 13 -2.525253 -0.000000 -34.836563 0.139626 -0.000000 0.000000
 14 -1.229671 -0.000004 -26.461926 0.000000 -0.000000 0.000000
 15 0.585070 -7.869139 40.819916 0.157080 0.000000 -0.000000
 16 -35.591049 -1.703064 41.085175 0.340295 -0.000753 -0.087141
 17 -37.563438 14.762680 -50.295181 -0.270190 0.000779 -0.000118
 18 -10.963051 -41.811974 -33.818542 -0.366520 0.000001 -0.000000
 19 -3.816719 -34.078999 -25.402420 0.000000 -0.000000 0.000000
 20 41.148888 -1.371410 40.606628 0.005990 -0.000624 0.104649
 21 39.457146 17.377460 -50.174316 -0.240300 -0.020456 -0.002061
 22 11.722176 -44.271446 -32.982773 -0.242925 0.024226 0.007891
 23 2.616646 -33.926434 -25.777008 0.000000 -0.000000 0.000000
 24 -0.737603 -0.246105 42.220917 0.000000 -0.000000 0.000000
 25 59.548912 38.084560 11.612076 -1.623153 -0.000000 -0.000000
 26 7.710041 -174.312302 82.914406 0.000000 -0.000000 0.000000
 27 -48.533001 39.188900 12.101303 -1.658062 -0.000000 -0.000000
 28 -11.661724 -173.988113 81.962135 0.000000 -0.000000 0.000000
 29 2.355416 40.837116 8.231659 -0.177149 0.000000 0.000000
 30 3.826383 -29.296265 7.512283 0.139626 0.000000 0.000000
 31 -0.684172 -11.661068 48.858307 0.000000 -0.000000 0.000000
 32 -0.072890 -1.756191 2.960068 0.000000 -0.000000 0.000000
time 3
  0 -5.180422 13.788269 -12.439880 0.000000 -0.000000 0.000000
  1 -5.180422 13.788269 -12.439880 0.000000 -0.000000 0.000000
  2 -5.180422 13.788269 -12.439880 0.000000 -0.000000 0.000000
  3 -5.180422 13.788269 -12.439880 0.000000 -0.000000 0.000000
  4 -4.455341 19.713478 299.953064 0.000000 -0.000000 0.000000
  5 -5.180422 18.045410 135.203812 0.087267 0.000000 -0.000000
  6 0.585070 4.634649 -15.754387 0.139627 0.000000 -0.000000
  7 44.000435 -0.454872 -14.063072 -0.272619 -0.000000 -0.000000
  8 -1.648884 -14.263251 -46.038219 0.279253 0.000000 -0.000000
  9 1.901329 0.000000 -35.274979 -0.191986 -0.000000 0.000000
 10 1.220856 0.000002 -27.561968 0.000000 -0.000000 0.000000
 11 -35.658199 -1.977135 -14.300331 -0.311948 -0.000000 -0.000000
 12 2.095200 -12.740986 -45.800961 -0.052360 0.000000 0.000000
 13 -2.525253 0.000000 -34.836563 0.139627 0.000000 0.000000
 14 -1.229675 -0.000004 -26.461927 0.000000 -0.000000 0.000000
 15 0.585070 -7.878614 40.711609 0.157080 0.000000 -0.000000
 16 -35.591049 -1.703068 41.085175 0.330017 -0.001636 -0.086994
 17 -37.563435 14.762688 -50.295166 -0.259510 0.001697 -0.000255
 18 -10.963051 -41.811977 -33.818550 -0.366519 0.000001 -0.000000
 19 -3.816727 -34.078995 -25.402412 0.000000 -0.000000 0.000000
 20 41.148888 -1.371410 40.606613 0.013010 -0.001355 0.104566
 21 39.457138 17.377464 -50.174316 -0.234355 -0.021054 -0.002237
 22 11.722160 -44.271461 -32.982773 -0.242925 0.024226 0.007891
 23 2.616638 -33.926437 -25.777023 0.000000 -0.000000 0.000000
 24 -0.737603 -0.102657 42.185150 0.000000 -0.000000 0.000000
 25 59.548912 38.184753 11.587082 -1.623153 -0.000000 -0.000000
 26 7.710041 -174.312241 82.914413 0.000000 -0.000000 0.000000
 27 -48.533001 39.306206 12.072067 -1.658062 -0.000000 -0.000000
 28 -11.661724 -173.988083 81.962143 0.000000 -0.000000 0.000000
 29 2.355416 40.535439 8.306854 -0.180171 0.000000 0.000000
 30 3.826383 -29.171749 7.481232 0.139626 0.000000 0.000000
 31 -0.684172 -11.661072 48.858261 0.000000 -0.000000 0.000000
 32 -0.072890 -1.756191 2.960052 0.000000 -0.000000 0.000000
time 4
  0 -5.180422 13.788269 -12.439880 0.000000 -0.000000 0.000000
  1 -5.180422 13.788269 -12.439880 0.000000 -0.000000 0.000000
  2 -5.180422 13.788269 -12.439880 0.000000 -0.000000 0.000000
  3 -5.180422 13.788269 -12.439880 0.000000 -0.000000 0.000000
  4 -4.455341 19.713478 299.953064 0.000000 -0.000000 0.000000
  5 -5.180422 17.604738 135.203812 0.087267 0.000000 -0.000000
  6 0.585070 4.634649 -15.754387 0.139627 0.000000 -0.000000
  7 44.000435 -0.454872 -14.063072 -0.267908 -0.000000 -0.000000
  8 -1.648884 -14.263251 -46.038216 0.279253 0.000000 -0.000000
  9 1.901333 0.000002 -35.274990 -0.191986 0.000000 -0.000000
 10 1.220856 -0.000002 -27.561970 0.000000 -0.000000 0.000000
 11 -35.658199 -1.977135 -14.300323 -0.310378 -0.000000 -0.000000
 12 2.095200 -12.740987 -45.800964 -0.052360 0.000000 0.000000
 13 -2.525249 -0.000000 -34.836555 0.139626 0.000000 0.000000
 14 -1.229671 -0.000003 -26.461926 0.000000 -0.000000 0.000000
 15 0.585070 -7.891182 40.567978 0.157080 0.000000 -0.000000
 16 -35.591049 -1.703068 41.085190 0.316417 -0.002804 -0.086799
 17 -37.563427 14.762688 -50.295166 -0.245308 0.002918 -0.000439
 18 -10.963051 -41.811974 -33.818542 -0.366519 0.000001 -0.000000
 19 -3.816727 -34.079006 -25.402420 0.000000 -0.000000 0.000000
 20 41.148888 -1.371414 40.606628 0.022299 -0.002323 0.104456
 21 39.457130 17.377464 -50.174347 -0.226490 -0.021845 -0.002470
 22 11.722168 -44.271454 -32.982758 -0.242925 0.024226 0.007891
 23 2.616638 -33.926422 -25.777000 0.000000 -0.000000 0.000000
 24 -0.737603 0.085308 42.138290 0.000000 -0.000000 0.000000
 25 59.548912 38.319134 11.553589 -1.623153 -0.000000 -0.000000
 26 7.710041 -174.312271 82.914413 0.000000 -0.000000 0.000000
 27 -48.533001 39.462872 12.033020 -1.658062 -0.000000 -0.000000
 28 -11.661724 -173.988113 81.962143 0.000000 -0.000000 0.000000
 29 2.355416 40.142986 8.404709 -0.184117 0.000000 0.000000
 30 3.826383 -29.005760 7.439850 0.139626 0.000000 0.000000
 31 -0.684172 -11.661068 48.858276 0.000000 -0.000000 0.000000
 32 -0.072890 -1.756191 2.960068 0.000000 -0.000000 0.000000
time 5
  0 -5.180422 13.788269 -12.439880 0.000000 -0.000000 0.000000
  1 -5.180422 13.788269 -12.439880 0.000000 -0.000000 0.000000
  2 -5.180422 13.788269 -12.439880 0.000000 -0.000000 0.000000
  3 -5.180422 13.788269 -12.439880 0.000000 -0.000000 0.000000
  4 -4.455341 19.713478 299.953064 0.000000 -0.000000 0.000000
  5 -5.180422 17.075171 135.203812 0.087267 0.000000 -0.000000
  6 0.585070 4.634649 -15.754395 0.139627 0.000000 -0.000000
  7 44.000435 -0.454868 -14.063080 -0.262226 -0.000000 -0.000000
  8 -1.648888 -14.263248 -46.038216 0.279253 0.000000 0.000000
  9 1.901333 0.000004 -35.274979 -0.191986 0.000000 -0.000000
 10 1.220856 0.000000 -27.561968 0.000000 -0.000000 0.000000
 11 -35.658199 -1.977131 -14.300331 -0.308484 -0.000000 0.000000
 12 2.095200 -12.740985 -45.800968 -0.052360 0.000000 0.000000
 13 -2.525249 -0.000000 -34.836563 0.139626 0.000000 0.000000
 14 -1.229671 -0.000003 -26.461926 0.000000 -0.000000 0.000000
 15 0.585070 -7.906431 40.393692 0.157080 0.000000 -0.000000
 16 -35.591049 -1.703064 41.085190 0.299953 -0.004218 -0.086563
 17 -37.563442 14.762695 -50.295151 -0.228014 0.004404 -0.000662
 18 -10.963051 -41.811977 -33.818542 -0.366519 0.000001 0.000000
 19 -3.816719 -34.079006 -25.402420 0.000000 -0.000000 0.000000
 20 41.148888 -1.371410 40.606628 0.033544 -0.003495 0.104324
 21 39.457134 17.377468 -50.174301 -0.216968 -0.022803 -0.002753
 22 11.722168 -44.271450 -32.982773 -0.242925 0.024226 0.007891
 23 2.616638 -33.926430 -25.777023 0.000000 -0.000000 0.000000
 24 -0.737603 0.310387 42.082169 0.000000 -0.000000 0.000000
 25 59.548912 38.484314 11.512405 -1.623153 -0.000000 -0.000000
 26 7.710041 -174.312241 82.914413 0.000000 -0.000000 0.000000
 27 -48.533001 39.654526 11.985229 -1.658062 -0.000000 -0.000000
 28 -11.661724 -173.988098 81.962143 0.000000 -0.000000 0.000000
 29 2.355416 39.676971 8.520905 -0.188820 0.000000 0.000000
 30 3.826383 -28.803085 7.389313 0.139626 0.000000 0.000000
 31 -0.684172 -11.661072 48.858292 0.000000 -0.000000 0.000000
 32 -0.072890 -1.756191 2.960068 0.000000 -0.000000 0.000000
time 6
  0 -5.180422 13.788269 -12.439880 0.000000 -0.000000 0.000000
  1 -5.180422 13.788269 -12.439880 0.000000 -0.000000 0.000000
  2 -5.180422 13.788269 -12.439880 0.000000 -0.000000 0.000000
  3 -5.180422 13.788269 -12.439880 0.000000 -0.000000 0.000000
  4 -4.455341 19.713478 299.953064 0.000000 -0.000000 0.000000
  5 -5.180422 16.473251 135.203812 0.087267 0.000000 -0.000000
  6 0.585070 4.634649 -15.754387 0.139627 0.000000 -0.000000
  7 44.000435 -0.454872 -14.063072 -0.255742 -0.000000 -0.000000
  8 -1.648888 -14.263248 -46.038212 0.279253 0.000000 0.000000
  9 1.901333 0.000000 -35.274982 -0.191986 0.000000 -0.000000
 10 1.220852 -0.000002 -27.561970 0.000000 -0.000000 0.000000
 11 -35.658199 -1.977135 -14.300331 -0.306322 -0.000000 0.000000
 12 2.095200 -12.740987 -45.800972 -0.052360 0.000000 0.000000
 13 -2.525249 -0.000000 -34.836563 0.139627 0.000000 0.000000
 14 -1.229671 -0.000003 -26.461922 0.000000 -0.000000 0.000000
 15 0.585070 -7.923958 40.193344 0.157080 0.000000 -0.000000
 16 -35.591049 -1.703064 41.085190 0.281080 -0.005839 -0.086293
 17 -37.563442 14.762688 -50.295166 -0.208061 0.006119 -0.000920
 18 -10.963051 -41.811966 -33.818550 -0.366519 0.000001 -0.000000
 19 -3.816727 -34.078999 -25.402428 0.000000 -0.000000 0.000000
 20 41.148888 -1.371414 40.606628 0.046434 -0.004838 0.104171
 21 39.457142 17.377464 -50.174316 -0.206053 -0.023901 -0.003076
 22 11.722168 -44.271450 -32.982758 -0.242925 0.024226 0.007891
 23 2.616646 -33.926437 -25.777016 0.000000 -0.000000 0.000000
 24 -0.737603 0.565132 42.018677 0.000000 -0.000000 0.000000
 25 59.548912 38.676872 11.464371 -1.623153 -0.000000 -0.000000
 26 7.710041 -174.312271 82.914413 0.000000 -0.000000 0.000000
 27 -48.533001 39.876801 11.929810 -1.658062 -0.000000 -0.000000
 28 -11.661724 -173.988083 81.962143 0.000000 -0.000000 0.000000
 29 2.355417 39.154655 8.651108 -0.194116 0.000000 0.000000
 30 3.826383 -28.568523 7.330811 0.139626 0.000000 0.000000
 31 -0.684172 -11.661072 48.858276 0.000000 -0.000000 0.000000
 32 -0.072890 -1.756191 2.960068 0.000000 -0.000000 0.000000
time 7
  0 -5.180422 13.788269 -12.439880 0.000000 -0.000000 0.000000
  1 -5.180422 13.788269 -12.439880 0.000000 -0.000000 0.000000
  2 -5.180422 13.788269 -12.439880 0.000000 -0.000000 0.000000
  3 -5.180422 13.788269 -12.439880 0.000000 -0.000000 0.000000
  4 -4.455341 19.713478 299.953064 0.000000 -0.000000 0.000000
  5 -5.180422 15.815514 135.203812 0.087267 0.000000 -0.000000
  6 0.585070 4.634647 -15.754395 0.139627 0.000000 -0.000000
  7 44.000435 -0.454872 -14.063072 -0.248623 -0.000000 -0.000000
  8 -1.648880 -14.263248 -46.038212 0.279253 0.000000 0.000000
  9 1.901333 0.000000 -35.274979 -0.191986 0.000000 -0.000000
 10 1.220852 0.000000 -27.561968 0.000000 -0.000000 0.000000
 11 -35.658199 -1.977135 -14.300323 -0.303949 -0.000000 0.000000
 12 2.095196 -12.740986 -45.800964 -0.052360 0.000000 0.000000
 13 -2.525249 0.000000 -34.836563 0.139627 0.000000 0.000000
 14 -1.229671 -0.000004 -26.461926 0.000000 -0.000000 0.000000
 15 0.585070 -7.943363 39.971573 0.157080 0.000000 -0.000000
 16 -35.591049 -1.703068 41.085175 0.260255 -0.007627 -0.085995
 17 -37.563438 14.762703 -50.295135 -0.185881 0.008026 -0.001206
 18 -10.963058 -41.811966 -33.818542 -0.366519 0.000001 0.000000
 19 -3.816719 -34.079006 -25.402428 0.000000 -0.000000 0.000000
 20 41.148888 -1.371414 40.606613 0.060658 -0.006320 0.104003
 21 39.457134 17.377464 -50.174316 -0.194009 -0.025112 -0.003433
 22 11.722160 -44.271450 -32.982773 -0.242925 0.024226 0.007891
 23 2.616638 -33.926437 -25.777008 0.000000 -0.000000 0.000000
 24 -0.737603 0.842144 41.949600 0.000000 -0.000000 0.000000
 25 59.548912 38.893436 11.410400 -1.623153 -0.000000 -0.000000
 26 7.710041 -174.312271 82.914421 0.000000 -0.000000 0.000000
 27 -48.533005 40.125340 11.867844 -1.658062 -0.000000 -0.000000
 28 -11.661728 -173.988083 81.962143 0.000000 -0.000000 0.000000
 29 2.355417 38.593281 8.791092 -0.199840 0.000000 0.000000
 30 3.826383 -28.306889 7.265610 0.139626 0.000000 0.000000
 31 -0.684171 -11.661072 48.858307 0.000000 -0.000000 0.000000
 32 -0.072890 -1.756195 2.960083 0.000000 -0.000000 0.000000
time 8
  0 -5.180422 13.788269 -12.439880 0.000000 -0.000000 0.000000
  1 -5.180422 13.788269 -12.439880 0.000000 -0.000000 0.000000
  2 -5.180422 13.788269 -12.439880 0.000000 -0.000000 0.000000
  3 -5.180422 13.788269 -12.439880 0.000000 -0.000000 0.000000
  4 -4.455341 19.713478 299.953064 0.000000 -0.000000 0.000000
  5 -5.180422 15.118498 135.203812 0.087267 0.000000 -0.000000
  6 0.585070 4.634647 -15.754387 0.139627 0.000000 -0.000000
  7 44.000435 -0.454872 -14.063080 -0.241037 -0.000000 -0.000000
  8 -1.648880 -14.263248 -46.038204 0.279253 0.000000 0.000000
  9 1.901325 0.000000 -35.274979 -0.191986 0.000000 -0.000000
 10 1.220860 0.000000 -27.561966 0.000000 -0.000000 0.000000
 11 -35.658199 -1.977135 -14.300331 -0.301421 -0.000000 0.000000
 12 2.095196 -12.740986 -45.800968 -0.052360 0.000000 0.000000
 13 -2.525249 0.000000 -34.836563 0.139626 -0.000000 0.000000
 14 -1.229671 -0.000004 -26.461924 0.000000 -0.000000 0.000000
 15 0.585070 -7.964230 39.733047 0.157080 0.000000 -0.000000
 16 -35.591049 -1.703068 41.085175 0.237933 -0.009544 -0.085675
 17 -37.563431 14.762680 -50.295166 -0.161905 0.010086 -0.001516
 18 -10.963058 -41.811970 -33.818558 -0.366520 0.000001 -0.000000
 19 -3.816719 -34.079002 -25.402428 0.000000 -0.000000 0.000000
 20 41.148888 -1.371410 40.606628 0.075904 -0.007909 0.103823
 21 39.457134 17.377464 -50.174316 -0.181099 -0.026410 -0.003816
 22 11.722168 -44.271458 -32.982758 -0.242925 0.024226 0.007891
 23 2.616646 -33.926437 -25.777023 0.000000 -0.000000 0.000000
 24 -0.737604 1.133995 41.876846 0.000000 -0.000000 0.000000
 25 59.548912 39.130600 11.351257 -1.623153 -0.000000 -0.000000
 26 7.710037 -174.312271 82.914413 0.000000 -0.000000 0.000000
 27 -48.533005 40.395775 11.800415 -1.658062 -0.000000 -0.000000
 28 -11.661724 -173.988113 81.962143 0.000000 -0.000000 0.000000
 29 2.355417 38.010078 8.936493 -0.205828 0.000000 0.000000
 30 3.826383 -28.022976 7.194809 0.139626 0.000000 0.000000
 31 -0.684171 -11.661072 48.858292 0.000000 -0.000000 0.000000
 32 -0.072890 -1.756195 2.960083 0.000000 -0.000000 0.000000
time 9
  0 -5.180422 13.788269 -12.439880 0.000000 -0.000000 0.000000
  1 -5.180422 13.788269 -12.439880 0.000000 -0.000000 0.000000
  2 -5.180422 13.788269 -12.439880 0.000000 -0.000000 0.000000
  3 -5.180422 13.788269 -12.439880 0.000000 -0.000000 0.000000
  4 -4.455341 19.713478 299.953064 0.000000 -0.000000 0.000000
  5 -5.180422 14.398743 135.203812 0.087267 0.000000 -0.000000
  6 0.585070 4.634649 -15.754402 0.139627 0.000000 -0.000000
  7 44.000435 -0.454872 -14.063080 -0.233152 -0.000000 -0.000000
  8 -1.648884 -14.263248 -46.038212 0.279253 0.000000 0.000000
  9 1.901325 -0.000002 -35.274982 -0.191986 0.000000 0.000000
 10 1.220860 -0.000002 -27.561970 0.000000 -0.000000 0.000000
 11 -35.658199 -1.977131 -14.300331 -0.298792 -0.000000 0.000000
 12 2.095196 -12.740988 -45.800964 -0.052360 0.000000 0.000000
 13 -2.525249 0.000000 -34.836563 0.139627 -0.000000 0.000000
 14 -1.229671 -0.000003 -26.461926 0.000000 -0.000000 0.000000
 15 0.585070 -7.986164 39.482346 0.157080 0.000000 -0.000000
 16 -35.591049 -1.703068 41.085175 0.214570 -0.011551 -0.085341
 17 -37.563438 14.762688 -50.295151 -0.136566 0.012264 -0.001843
 18 -10.963051 -41.811970 -33.818527 -0.366519 0.000001 -0.000000
 19 -3.816719 -34.079010 -25.402435 0.000000 -0.000000 0.000000
 20 41.148888 -1.371410 40.606598 0.091861 -0.009571 0.103635
 21 39.457134 17.377464 -50.174316 -0.167587 -0.027769 -0.004216
 22 11.722160 -44.271450 -32.982773 -0.242925 0.024226 0.007891
 23 2.616646 -33.926430 -25.777016 0.000000 -0.000000 0.000000
 24 -0.737604 1.433262 41.802200 0.000000 -0.000000 0.000000
 25 59.548912 39.384964 11.287842 -1.623153 -0.000000 -0.000000
 26 7.710037 -174.312256 82.914413 0.000000 -0.000000 0.000000
 27 -48.533005 40.683739 11.728622 -1.658062 -0.000000 -0.000000
 28 -11.661724 -173.988159 81.962143 0.000000 -0.000000 0.000000
 29 2.355417 37.422310 9.083038 -0.211913 0.000000 0.000000
 30 3.826383 -27.721573 7.119675 0.139626 0.000000 0.000000
 31 -0.684171 -11.661072 48.858292 0.000000 -0.000000 0.000000
 32 -0.072890 -1.756191 2.960068 0.000000 -0.000000 0.000000
time 10
  0 -5.180422 13.788269 -12.439880 0.000000 -0.000000 0.000000
  1 -5.180422 13.788269 -12.439880 0.000000 -0.000000 0.000000
  2 -5.180422 13.788269 -12.439880 0.000000 -0.000000 0.000000
  3 -5.180422 13.788269 -12.439880 0.000000 -0.000000 0.000000
  4 -4.455341 19.713478 299.953064 0.000000 -0.000000 0.000000
  5 -5.180422 13.672786 135.203812 0.087267 0.000000 -0.000000
  6 0.585070 4.634649 -15.754395 0.139627 0.000000 -0.000000
  7 44.000435 -0.454872 -14.063072 -0.225136 -0.000000 -0.000000
  8 -1.648884 -14.263251 -46.038216 0.279253 0.000000 -0.000000
  9 1.901325 0.000000 -35.274979 -0.191986 0.000000 0.000000
 10 1.220860 -0.000006 -27.561970 0.000000 -0.000000 0.000000
 11 -35.658199 -1.977131 -14.300323 -0.296120 -0.000000 -0.000000
 12 2.095196 -12.740984 -45.800964 -0.052360 0.000000 0.000000
 13 -2.525249 0.000000 -34.836555 0.139627 -0.000000 0.000000
 14 -1.229671 -0.000003 -26.461920 0.000000 -0.000000 0.000000
 15 0.585070 -8.008757 39.224106 0.157080 0.000000 -0.000000
 16 -35.591049 -1.703068 41.085175 0.190624 -0.013607 -0.084998
 17 -37.563435 14.762680 -50.295166 -0.110296 0.014522 -0.002183
 18 -10.963051 -41.811974 -33.818550 -0.366520 0.000001 -0.000000
 19 -3.816727 -34.079006 -25.402435 0.000000 -0.000000 0.000000
 20 41.148888 -1.371414 40.606613 0.108217 -0.011275 0.103442
 21 39.457134 17.377460 -50.174332 -0.153738 -0.029162 -0.004627
 22 11.722168 -44.271454 -32.982765 -0.242925 0.024226 0.007891
 23 2.616646 -33.926430 -25.777008 0.000000 -0.000000 0.000000
 24 -0.737604 1.732533 41.727615 0.000000 -0.000000 0.000000
 25 59.548912 39.653126 11.220963 -1.623153 -0.000000 -0.000000
 26 7.710037 -174.312271 82.914406 0.000000 -0.000000 0.000000
 27 -48.533005 40.984867 11.653534 -1.658062 -0.000000 -0.000000
 28 -11.661724 -173.988144 81.962158 0.000000 -0.000000 0.000000
 29 2.355417 36.847195 9.226410 -0.217931 0.000000 0.000000
 30 3.826383 -27.407501 7.041336 0.139626 0.000000 0.000000
 31 -0.684171 -11.661068 48.858261 0.000000 -0.000000 0.000000
 32 -0.072890 -1.756191 2.960068 0.000000 -0.000000 0.000000
time 11
  0 -5.180422 13.788269 -12.439880 0.000000 -0.000000 0.000000
  1 -5.180422 13.788269 -12.439880 0.000000 -0.000000 0.000000
  2 -5.180422 13.788269 -12.439880 0.000000 -0.000000 0.000000
  3 -5.180422 13.788269 -12.439880 0.000000 -0.000000 0.000000
  4 -4.455341 19.713478 299.953064 0.000000 -0.000000 0.000000
  5 -5.180422 12.957166 135.203812 0.087267 0.000000 -0.000000
  6 0.585070 4.634649 -15.754402 0.139627 0.000000 -0.000000
  7 44.000435 -0.454872 -14.063072 -0.217157 -0.000000 -0.000000
  8 -1.648884 -14.263248 -46.038212 0.279253 0.000000 0.000000
  9 1.901325 0.000000 -35.274979 -0.191986 -0.000000 -0.000000
 10 1.220856 -0.000004 -27.561970 0.000000 -0.000000 0.000000
 11 -35.658195 -1.977131 -14.300323 -0.293461 -0.000000 0.000000
 12 2.095196 -12.740986 -45.800961 -0.052360 0.000000 0.000000
 13 -2.525249 0.000000 -34.836563 0.139626 0.000000 0.000000
 14 -1.229671 -0.000004 -26.461922 0.000000 -0.000000 0.000000
 15 0.585070 -8.031599 38.963013 0.157080 0.000000 -0.000000
 16 -35.591049 -1.703064 41.085190 0.166549 -0.015675 -0.084653
 17 -37.563435 14.762688 -50.295166 -0.083526 0.016823 -0.002528
 18 -10.963051 -41.811977 -33.818550 -0.366520 0.000001 0.000000
 19 -3.816711 -34.079002 -25.402420 0.000000 -0.000000 0.000000
 20 41.148888 -1.371414 40.606613 0.124660 -0.012989 0.103248
 21 39.457142 17.377457 -50.174332 -0.139814 -0.030563 -0.005040
 22 11.722160 -44.271450 -32.982765 -0.242925 0.024226 0.007891
 23 2.616646 -33.926430 -25.777016 0.000000 -0.000000 0.000000
 24 -0.737604 2.024380 41.654831 0.000000 -0.000000 0.000000
 25 59.548912 39.931694 11.151520 -1.623153 -0.000000 -0.000000
 26 7.710037 -174.312256 82.914421 0.000000 -0.000000 0.000000
 27 -48.533005 41.294785 11.576263 -1.658062 -0.000000 -0.000000
 28 -11.661724 -173.988113 81.962143 0.000000 -0.000000 0.000000
 29 2.355417 36.301971 9.362350 -0.223717 0.000000 0.000000
 30 3.826383 -27.085556 6.961075 0.139626 0.000000 0.000000
 31 -0.684171 -11.661072 48.858276 0.000000 -0.000000 0.000000
 32 -0.072890 -1.756191 2.960068 0.000000 -0.000000 0.000000
time 12
  0 -5.180422 13.788269 -12.439880 0.000000 -0.000000 0.000000
  1 -5.180422 13.788269 -12.439880 0.000000 -0.000000 0.000000
  2 -5.180422 13.788269 -12.439880 0.000000 -0.000000 0.000000
  3 -5.180422 13.788269 -12.439880 0.000000 -0.000000 0.000000
  4 -4.455341 19.713478 299.953064 0.000000 -0.000000 0.000000
  5 -5.180422 12.268419 135.203812 0.087267 0.000000 -0.000000
  6 0.585070 4.634647 -15.754402 0.139627 0.000000 -0.000000
  7 44.000435 -0.454872 -14.063080 -0.209382 -0.000000 -0.000000
  8 -1.648884 -14.263247 -46.038208 0.279253 0.000000 0.000000
  9 1.901325 0.000002 -35.274979 -0.191986 0.000000 0.000000
 10 1.220856 -0.000002 -27.561964 0.000000 -0.000000 0.000000
 11 -35.658195 -1.977135 -14.300331 -0.290869 -0.000000 -0.000000
 12 2.095196 -12.740985 -45.800964 -0.052360 0.000000 0.000000
 13 -2.525249 0.000000 -34.836563 0.139627 0.000000 0.000000
 14 -1.229671 -0.000003 -26.461924 0.000000 -0.000000 0.000000
 15 0.585070 -8.054296 38.703629 0.157080 0.000000 -0.000000
 16 -35.591049 -1.703068 41.085190 0.142801 -0.017714 -0.084313
 17 -37.563435 14.762695 -50.295166 -0.056689 0.019130 -0.002875
 18 -10.963043 -41.811970 -33.818542 -0.366519 0.000001 0.000000
 19 -3.816719 -34.079006 -25.402428 0.000000 -0.000000 0.000000
 20 41.148888 -1.371410 40.606628 0.140879 -0.014679 0.103056
 21 39.457130 17.377457 -50.174316 -0.126080 -0.031944 -0.005447
 22 11.722176 -44.271446 -32.982765 -0.242925 0.024226 0.007891
 23 2.616638 -33.926445 -25.777000 0.000000 -0.000000 0.000000
 24 -0.737604 2.301384 41.585770 0.000000 -0.000000 0.000000
 25 59.548912 40.217274 11.080322 -1.623153 -0.000000 -0.000000
 26 7.710037 -174.312286 82.914421 0.000000 -0.000000 0.000000
 27 -48.533005 41.609150 11.497894 -1.658062 -0.000000 -0.000000
 28 -11.661724 -173.988129 81.962143 0.000000 -0.000000 0.000000
 29 2.355417 35.803913 9.486542 -0.229106 0.000000 0.000000
 30 3.826382 -26.760532 6.880035 0.139626 0.000000 0.000000
 31 -0.684172 -11.661068 48.858276 0.000000 -0.000000 0.000000
 32 -0.072890 -1.756195 2.960083 0.000000 -0.000000 0.000000
time 13
  0 -5.180422 13.788269 -12.439880 0.000000 -0.000000 0.000000
  1 -5.180422 13.788269 -12.439880 0.000000 -0.000000 0.000000
  2 -5.180422 13.788269 -12.439880 0.000000 -0.000000 0.000000
  3 -5.180422 13.788269 -12.439880 0.000000 -0.000000 0.000000
  4 -4.455341 19.713478 299.953064 0.000000 -0.000000 0.000000
  5 -5.180422 11.623085 135.203812 0.087267 0.000000 -0.000000
  6 0.585070 4.634649 -15.754402 0.139627 0.000000 -0.000000
  7 44.000435 -0.454872 -14.063072 -0.201980 -0.000000 -0.000000
  8 -1.648884 -14.263248 -46.038219 0.279253 0.000000 -0.000000
  9 1.901333 0.000000 -35.274986 -0.191986 -0.000000 0.000000
 10 1.220856 -0.000002 -27.561974 0.000000 -0.000000 0.000000
 11 -35.658199 -1.977135 -14.300323 -0.288402 -0.000000 0.000000
 12 2.095196 -12.740984 -45.800964 -0.052360 0.000000 0.000000
 13 -2.525253 0.000000 -34.836563 0.139626 0.000000 0.000000
 14 -1.229671 -0.000003 -26.461924 0.000000 -0.000000 0.000000
 15 0.585070 -8.076429 38.450623 0.157080 0.000000 -0.000000
 16 -35.591049 -1.703064 41.085190 0.119838 -0.019687 -0.083984
 17 -37.563435 14.762695 -50.295181 -0.030216 0.021405 -0.003217
 18 -10.963058 -41.811974 -33.818527 -0.366519 0.000001 0.000000
 19 -3.816727 -34.079018 -25.402420 0.000000 -0.000000 0.000000
 20 41.148888 -1.371410 40.606628 0.156564 -0.016313 0.102871
 21 39.457127 17.377464 -50.174332 -0.112799 -0.033280 -0.005840
 22 11.722168 -44.271454 -32.982773 -0.242925 0.024226 0.007891
 23 2.616638 -33.926437 -25.777016 0.000000 -0.000000 0.000000
 24 -0.737604 2.556141 41.522232 0.000000 -0.000000 0.000000
 25 59.548912 40.506458 11.008240 -1.623153 -0.000000 -0.000000
 26 7.710037 -174.312271 82.914421 0.000000 -0.000000 0.000000
 27 -48.533009 41.923565 11.419495 -1.658062 -0.000000 -0.000000
 28 -11.661720 -173.988144 81.962135 0.000000 -0.000000 0.000000
 29 2.355417 35.370228 9.594696 -0.233933 0.000000 0.000000
 30 3.826382 -26.437229 6.799454 0.139626 0.000000 0.000000
 31 -0.684172 -11.661076 48.858292 0.000000 -0.000000 0.000000
 32 -0.072890 -1.756191 2.960068 0.000000 -0.000000 0.000000
time 14
  0 -5.180422 13.788269 -12.439880 0.000000 -0.000000 0.000000
  1 -5.180422 13.788269 -12.439880 0.000000 -0.000000 0.000000
  2 -5.180422 13.788269 -12.439880 0.000000 -0.000000 0.000000
  3 -5.180422 13.788269 -12.439880 0.000000 -0.000000 0.000000
  4 -4.455341 19.713478 299.953064 0.000000 -0.000000 0.000000
  5 -5.180422 11.037703 135.203812 0.087267 0.000000 -0.000000
  6 0.585070 4.634649 -15.754387 0.139627 0.000000 -0.000000
  7 44.000435 -0.454872 -14.063072 -0.195118 -0.000000 -0.000000
  8 -1.648884 -14.263248 -46.038212 0.279253 0.000000 0.000000
  9 1.901333 -0.000002 -35.274975 -0.191986 0.000000 0.000000
 10 1.220856 0.000000 -27.561970 0.000000 -0.000000 0.000000
 11 -35.658199 -1.977135 -14.300323 -0.286114 -0.000000 -0.000000
 12 2.095200 -12.740986 -45.800968 -0.052360 0.000000 0.000000
 13 -2.525253 0.000000 -34.836563 0.139627 0.000000 0.000000
 14 -1.229671 -0.000003 -26.461924 0.000000 -0.000000 0.000000
 15 0.585070 -8.097600 38.208633 0.157080 0.000000 -0.000000
 16 -35.591049 -1.703072 41.085175 0.098114 -0.021552 -0.083673
 17 -37.563435 14.762695 -50.295166 -0.004540 0.023612 -0.003548
 18 -10.963066 -41.811958 -33.818542 -0.366520 0.000001 0.000000
 19 -3.816727 -34.079006 -25.402420 0.000000 -0.000000 0.000000
 20 41.148888 -1.371410 40.606628 0.171401 -0.017859 0.102696
 21 39.457130 17.377449 -50.174316 -0.100236 -0.034543 -0.006213
 22 11.722168 -44.271458 -32.982773 -0.242925 0.024226 0.007891
 23 2.616653 -33.926422 -25.777008 0.000000 -0.000000 0.000000
 24 -0.737604 2.781212 41.466141 0.000000 -0.000000 0.000000
 25 59.548912 40.795853 10.936066 -1.623153 -0.000000 -0.000000
 26 7.710037 -174.312256 82.914413 0.000000 -0.000000 0.000000
 27 -48.533009 42.233704 11.342163 -1.658062 -0.000000 -0.000000
 28 -11.661720 -173.988129 81.962135 0.000000 -0.000000 0.000000
 29 2.355417 35.018173 9.682434 -0.238033 0.000000 0.000000
 30 3.826382 -26.120461 6.720459 0.139626 0.000000 0.000000
 31 -0.684172 -11.661068 48.858276 0.000000 -0.000000 0.000000
 32 -0.072890 -1.756191 2.960068 0.000000 -0.000000 0.000000
time 15
  0 -5.180422 13.788269 -12.439880 0.000000 -0.000000 0.000000
  1 -5.180422 13.788269 -12.439880 0.000000 -0.000000 0.000000
  2 -5.180422 13.788269 -12.439880 0.000000 -0.000000 0.000000
  3 -5.180422 13.788269 -12.439880 0.000000 -0.000000 0.000000
  4 -4.455341 19.713478 299.953064 0.000000 -0.000000 0.000000
  5 -5.180422 10.528809 135.203812 0.087267 0.000000 -0.000000
  6 0.585070 4.634649 -15.754395 0.139627 0.000000 -0.000000
  7 44.000435 -0.454872 -14.063072 -0.188964 -0.000000 -0.000000
  8 -1.648884 -14.263250 -46.038212 0.279253 0.000000 0.000000
  9 1.901333 -0.000004 -35.274979 -0.191986 0.000000 -0.000000
 10 1.220856 -0.000004 -27.561970 0.000000 -0.000000 0.000000
 11 -35.658199 -1.977135 -14.300331 -0.284063 -0.000000 -0.000000
 12 2.095200 -12.740983 -45.800968 -0.052360 0.000000 0.000000
 13 -2.525253 -0.000001 -34.836563 0.139626 0.000000 0.000000
 14 -1.229671 -0.000004 -26.461918 0.000000 -0.000000 0.000000
 15 0.585070 -8.117411 37.982208 0.157080 0.000000 -0.000000
 16 -35.591049 -1.703068 41.085175 0.078087 -0.023272 -0.083386
 17 -37.563435 14.762707 -50.295166 0.019908 0.025714 -0.003864
 18 -10.963058 -41.811962 -33.818527 -0.366520 0.000001 -0.000000
 19 -3.816727 -34.079006 -25.402420 0.000000 -0.000000 0.000000
 20 41.148888 -1.371410 40.606628 0.185080 -0.019284 0.102534
 21 39.457142 17.377464 -50.174316 -0.088653 -0.035708 -0.006556
 22 11.722176 -44.271450 -32.982773 -0.242925 0.024226 0.007891
 23 2.616646 -33.926422 -25.777008 0.000000 -0.000000 0.000000
 24 -0.737604 2.969185 41.419281 0.000000 -0.000000 0.000000
 25 59.548912 41.082069 10.864700 -1.623153 -0.000000 -0.000000
 26 7.710037 -174.312286 82.914413 0.000000 -0.000000 0.000000
 27 -48.533009 42.535164 11.267014 -1.658062 -0.000000 -0.000000
 28 -11.661720 -173.988144 81.962128 0.000000 -0.000000 0.000000
 29 2.355417 34.764984 9.745575 -0.241241 0.000000 0.000000
 30 3.826383 -25.815010 6.644302 0.139626 0.000000 0.000000
 31 -0.684172 -11.661072 48.858292 0.000000 -0.000000 0.000000
 32 -0.072890 -1.756191 2.960068 0.000000 -0.000000 0.000000
time 16
  0 -5.180422 13.788269 -12.439880 0.000000 -0.000000 0.000000
  1 -5.180422 13.788269 -12.439880 0.000000 -0.000000 0.000000
  2 -5.180422 13.788269 -12.439880 0.000000 -0.000000 0.000000
  3 -5.180422 13.788269 -12.439880 0.000000 -0.000000 0.000000
  4 -4.455341 19.713478 299.953064 0.000000 -0.000000 0.000000
  5 -5.180422 10.112944 135.203812 0.087267 0.000000 -0.000000
  6 0.585070 4.634647 -15.754387 0.139627 0.000000 -0.000000
  7 44.000435 -0.454872 -14.063080 -0.183686 -0.000000 -0.000000
  8 -1.648884 -14.263248 -46.038212 0.279253 0.000000 -0.000000
  9 1.901329 -0.000002 -35.274982 -0.191986 -0.000000 -0.000000
 10 1.220856 -0.000002 -27.561968 0.000000 -0.000000 0.000000
 11 -35.658199 -1.977135 -14.300331 -0.282304 -0.000000 -0.000000
 12 2.095200 -12.740985 -45.800964 -0.052360 0.000000 0.000000
 13 -2.525253 0.000000 -34.836563 0.139626 0.000000 0.000000
 14 -1.229671 -0.000003 -26.461924 0.000000 -0.000000 0.000000
 15 0.585071 -8.135445 37.776108 0.157080 0.000000 -0.000000
 16 -35.591049 -1.703068 41.085159 0.060212 -0.024807 -0.083130
 17 -37.563435 14.762695 -50.295166 0.042696 0.027673 -0.004158
 18 -10.963058 -41.811962 -33.818535 -0.366519 0.000001 -0.000000
 19 -3.816719 -34.079002 -25.402420 0.000000 -0.000000 0.000000
 20 41.148888 -1.371414 40.606613 0.197288 -0.020556 0.102390
 21 39.457134 17.377457 -50.174316 -0.078315 -0.036748 -0.006863
 22 11.722168 -44.271450 -32.982765 -0.242925 0.024226 0.007891
 23 2.616638 -33.926426 -25.777016 0.000000 -0.000000 0.000000
 24 -0.737604 3.112633 41.383514 0.000000 -0.000000 0.000000
 25 59.548912 41.361702 10.794983 -1.623153 -0.000000 -0.000000
 26 7.710037 -174.312241 82.914413 0.000000 -0.000000 0.000000
 27 -48.533009 42.823616 11.195068 -1.658062 -0.000000 -0.000000
 28 -11.661720 -173.988129 81.962143 0.000000 -0.000000 0.000000
 29 2.355417 34.627907 9.779755 -0.243392 0.000000 0.000000
 30 3.826383 -25.525688 6.572159 0.139626 0.000000 0.000000
 31 -0.684172 -11.661070 48.858276 0.000000 -0.000000 0.000000
 32 -0.072890 -1.756191 2.960068 0.000000 -0.000000 0.000000
time 17
  0 -5.180422 13.788269 -12.439880 0.000000 -0.000000 0.000000
  1 -5.180422 13.788269 -12.439880 0.000000 -0.000000 0.000000
  2 -5.180422 13.788269 -12.439880 0.000000 -0.000000 0.000000
  3 -5.180422 13.788269 -12.439880 0.000000 -0.000000 0.000000
  4 -4.455341 19.713478 299.953064 0.000000 -0.000000 0.000000
  5 -5.180422 9.806643 135.203812 0.087267 0.000000 -0.000000
  6 0.585070 4.634649 -15.754395 0.139627 0.000000 -0.000000
  7 44.000435 -0.454872 -14.063072 -0.179452 -0.000000 -0.000000
  8 -1.648884 -14.263249 -46.038212 0.279253 0.000000 0.000000
  9 1.901329 0.000002 -35.274982 -0.191986 0.000000 0.000000
 10 1.220856 -0.000004 -27.561970 0.000000 -0.000000 0.000000
 11 -35.658199 -1.977135 -14.300331 -0.280892 -0.000000 0.000000
 12 2.095200 -12.740986 -45.800964 -0.052360 0.000000 0.000000
 13 -2.525253 0.000000 -34.836563 0.139627 -0.000000 0.000000
 14 -1.229671 -0.000003 -26.461926 0.000000 -0.000000 0.000000
 15 0.585071 -8.151302 37.594833 0.157080 0.000000 -0.000000
 16 -35.591049 -1.703068 41.085175 0.044945 -0.026119 -0.082912
 17 -37.563431 14.762699 -50.295166 0.063391 0.029451 -0.004426
 18 -10.963066 -41.811954 -33.818535 -0.366520 0.000001 0.000000
 19 -3.816711 -34.078995 -25.402412 0.000000 -0.000000 0.000000
 20 41.148888 -1.371410 40.606628 0.207716 -0.021643 0.102267
 21 39.457138 17.377464 -50.174316 -0.069486 -0.037636 -0.007124
 22 11.722168 -44.271446 -32.982758 -0.242925 0.024226 0.007891
 23 2.616638 -33.926437 -25.777016 0.000000 -0.000000 0.000000
 24 -0.737604 3.204147 41.360703 0.000000 -0.000000 0.000000
 25 59.548912 41.631351 10.727737 -1.623153 -0.000000 -0.000000
 26 7.710037 -174.312256 82.914413 0.000000 -0.000000 0.000000
 27 -48.533009 43.094654 11.127502 -1.658062 -0.000000 -0.000000
 28 -11.661720 -173.988129 81.962151 0.000000 -0.000000 0.000000
 29 2.355417 34.615894 9.782745 -0.244321 0.000000 0.000000
 30 3.826383 -25.257305 6.505234 0.139626 0.000000 0.000000
 31 -0.684172 -11.661074 48.858261 0.000000 -0.000000 0.000000
 32 -0.072890 -1.756191 2.960068 0.000000 -0.000000 0.000000
time 18
  0 -5.180422 13.788269 -12.439880 0.000000 -0.000000 0.000000
  1 -5.180422 13.788269 -12.439880 0.000000 -0.000000 0.000000
  2 -5.180422 13.788269 -12.439880 0.000000 -0.000000 0.000000
  3 -5.180422 13.788269 -12.439880 0.000000 -0.000000 0.000000
  4 -4.455341 19.713478 299.953064 0.000000 -0.000000 0.000000
  5 -5.180422 9.626445 135.203812 0.087267 0.000000 -0.000000
  6 0.585070 4.634649 -15.754395 0.139627 0.000000 -0.000000
  7 44.000435 -0.454872 -14.063072 -0.176430 -0.000000 -0.000000
  8 -1.648884 -14.263249 -46.038216 0.279253 0.000000 0.000000
  9 1.901329 0.000000 -35.274979 -0.191986 0.000000 0.000000
 10 1.220856 0.000000 -27.561972 0.000000 -0.000000 0.000000
 11 -35.658199 -1.977135 -14.300331 -0.279885 -0.000000 0.000000
 12 2.095200 -12.740984 -45.800961 -0.052360 0.000000 0.000000
 13 -2.525253 0.000000 -34.836559 0.139627 0.000000 0.000000
 14 -1.229671 -0.000003 -26.461922 0.000000 -0.000000 0.000000
 15 0.585071 -8.164577 37.443130 0.157080 0.000000 -0.000000
 16 -35.591049 -1.703064 41.085190 0.032742 -0.027167 -0.082737
 17 -37.563435 14.762691 -50.295166 0.081562 0.031013 -0.004660
 18 -10.963058 -41.811966 -33.818527 -0.366520 0.000001 -0.000000
 19 -3.816727 -34.079002 -25.402428 0.000000 -0.000000 0.000000
 20 41.148888 -1.371410 40.606613 0.216050 -0.022511 0.102168
 21 39.457138 17.377464 -50.174316 -0.062428 -0.038346 -0.007334
 22 11.722168 -44.271461 -32.982765 -0.242925 0.024226 0.007891
 23 2.616638 -33.926426 -25.777016 0.000000 -0.000000 0.000000
 24 -0.737604 3.236298 41.352646 0.000000 -0.000000 0.000000
 25 59.548912 41.887627 10.663849 -1.623153 -0.000000 -0.000000
 26 7.710037 -174.312271 82.914413 0.000000 -0.000000 0.000000
 27 -48.533012 43.343941 11.065353 -1.658062 -0.000000 -0.000000
 28 -11.661724 -173.988144 81.962143 0.000000 -0.000000 0.000000
 29 2.355417 34.681313 9.766449 -0.244087 0.000000 0.000000
 30 3.826383 -25.014648 6.444763 0.139626 0.000000 0.000000
 31 -0.684172 -11.661072 48.858307 0.000000 -0.000000 0.000000
 32 -0.072890 -1.756191 2.960052 0.000000 -0.000000 0.000000
time 19
  0 -5.180422 13.788269 -12.439880 0.000000 -0.000000 0.000000
  1 -5.180422 13.788269 -12.439880 0.000000 -0.000000 0.000000
  2 -5.180422 13.788269 -12.439880 0.000000 -0.000000 0.000000
  3 -5.180422 13.788269 -12.439880 0.000000 -0.000000 0.000000
  4 -4.455341 19.713478 299.953064 0.000000 -0.000000 0.000000
  5 -5.180422 9.587744 135.203812 0.087267 0.000000 -0.000000
  6 0.585070 4.634647 -15.754395 0.139627 0.000000 -0.000000
  7 44.000435 -0.454872 -14.063072 -0.174787 -0.000000 -0.000000
  8 -1.648884 -14.263249 -46.038212 0.279253 0.000000 0.000000
  9 1.901329 0.000000 -35.274979 -0.191986 0.000000 -0.000000
 10 1.220856 -0.000002 -27.561972 0.000000 -0.000000 0.000000
 11 -35.658199 -1.977135 -14.300331 -0.279337 -0.000000 0.000000
 12 2.095200 -12.740986 -45.800957 -0.052360 0.000000 0.000000
 13 -2.525253 0.000000 -34.836563 0.139627 0.000000 0.000000
 14 -1.229671 -0.000003 -26.461924 0.000000 -0.000000 0.000000
 15 0.585071 -8.174864 37.325562 0.157080 0.000000 -0.000000
 16 -35.591049 -1.703068 41.085175 0.024060 -0.027912 -0.082613
 17 -37.563427 14.762703 -50.295166 0.096777 0.032321 -0.004857
 18 -10.963051 -41.811970 -33.818542 -0.366519 0.000001 -0.000000
 19 -3.816727 -34.079002 -25.402420 0.000000 -0.000000 0.000000
 20 41.148888 -1.371410 40.606628 0.221980 -0.023129 0.102098
 21 39.457138 17.377464 -50.174316 -0.057407 -0.038851 -0.007482
 22 11.722160 -44.271435 -32.982758 -0.242925 0.024226 0.007891
 23 2.616646 -33.926430 -25.777016 0.000000 -0.000000 0.000000
 24 -0.737604 3.214626 41.358093 0.000000 -0.000000 0.000000
 25 59.548912 42.127121 10.604141 -1.623153 -0.000000 -0.000000
 26 7.710037 -174.312286 82.914413 0.000000 -0.000000 0.000000
 27 -48.533012 43.567108 11.009720 -1.658062 -0.000000 -0.000000
 28 -11.661724 -173.988159 81.962151 0.000000 -0.000000 0.000000
 29 2.355417 34.808594 9.734711 -0.243094 0.000000 0.000000
 30 3.826383 -24.802521 6.391846 0.139626 0.000000 0.000000
 31 -0.684172 -11.661072 48.858276 0.000000 -0.000000 0.000000
 32 -0.072890 -1.756191 2.960083 0.000000 -0.000000 0.000000
time 20
  0 -5.180422 13.788269 -12.439880 0.000000 -0.000000 0.000000
  1 -5.180422 13.788269 -12.439880 0.000000 -0.000000 0.000000
  2 -5.180422 13.788269 -12.439880 0.000000 -0.000000 0.000000
  3 -5.180422 13.788269 -12.439880 0.000000 -0.000000 0.000000
  4 -4.455341 19.713478 299.953064 0.000000 -0.000000 0.000000
  5 -5.180422 9.674607 135.203812 0.087267 0.000000 0.000000
  6 0.585070 4.634649 -15.754395 0.139627 0.000000 -0.000000
  7 44.000435 -0.454872 -14.063072 -0.174674 -0.000000 -0.000000
  8 -1.648884 -14.263248 -46.038216 0.279253 0.000000 0.000000
  9 1.901329 0.000000 -35.274979 -0.191986 0.000000 0.000000
 10 1.220856 -0.000002 -27.561972 0.000000 -0.000000 0.000000
 11 -35.658199 -1.977135 -14.300331 -0.279300 -0.000000 0.000000
 12 2.095200 -12.740986 -45.800972 -0.052360 0.000000 0.000000
 13 -2.525253 -0.000000 -34.836563 0.139626 0.000000 0.000000
 14 -1.229671 -0.000003 -26.461927 0.000000 -0.000000 0.000000
 15 0.585071 -8.181760 37.246719 0.157080 0.000000 -0.000000
 16 -35.591049 -1.703068 41.085190 0.019354 -0.028316 -0.082545
 17 -37.563438 14.762684 -50.295151 0.108604 0.033338 -0.005010
 18 -10.963051 -41.811970 -33.818558 -0.366519 0.000001 -0.000000
 19 -3.816727 -34.078995 -25.402420 0.000000 -0.000000 0.000000
 20 41.148888 -1.371414 40.606628 0.225194 -0.023464 0.102060
 21 39.457130 17.377464 -50.174332 -0.054685 -0.039125 -0.007563
 22 11.722160 -44.271450 -32.982780 -0.242925 0.024226 0.007891
 23 2.616638 -33.926430 -25.777016 0.000000 -0.000000 0.000000
 24 -0.737604 3.152309 41.373611 0.000000 -0.000000 0.000000
 25 59.548912 42.346443 10.549454 -1.623153 -0.000000 -0.000000
 26 7.710037 -174.312256 82.914406 0.000000 -0.000000 0.000000
 27 -48.533012 43.759781 10.961670 -1.658062 -0.000000 0.000000
 28 -11.661724 -173.988129 81.962143 0.000000 -0.000000 0.000000
 29 2.355417 34.991707 9.689056 -0.241424 0.000000 0.000000
 30 3.826383 -24.625721 6.347763 0.139626 0.000000 0.000000
 31 -0.684172 -11.661076 48.858292 0.000000 -0.000000 0.000000
 32 -0.072890 -1.756191 2.960068 0.000000 -0.000000 0.000000
time 21
  0 -5.180422 13.788269 -12.439880 0.000000 -0.000000 0.000000
  1 -5.180422 13.788269 -12.439880 0.000000 -0.000000 0.000000
  2 -5.180422 13.788269 -12.439880 0.000000 -0.000000 0.000000
  3 -5.180422 13.788269 -12.439880 0.000000 -0.000000 0.000000
  4 -4.455341 19.713478 299.953064 0.000000 -0.000000 0.000000
  5 -5.180422 9.867980 135.203812 0.087267 0.000000 -0.000000
  6 0.585070 4.634647 -15.754402 0.139627 0.000000 -0.000000
  7 44.000435 -0.454872 -14.063072 -0.176014 -0.000000 -0.000000
  8 -1.648884 -14.263248 -46.038212 0.279253 0.000000 -0.000000
  9 1.901329 0.000002 -35.274979 -0.191986 0.000000 0.000000
 10 1.220856 0.000000 -27.561968 0.000000 -0.000000 0.000000
 11 -35.658199 -1.977131 -14.300323 -0.279746 -0.000000 0.000000
 12 2.095200 -12.740986 -45.800972 -0.052360 0.000000 0.000000
 13 -2.525253 0.000000 -34.836563 0.139626 0.000000 0.000000
 14 -1.229671 -0.000003 -26.461920 0.000000 -0.000000 0.000000
 15 0.585071 -8.184857 37.211319 0.157080 0.000000 -0.000000
 16 -35.591049 -1.703068 41.085175 0.019120 -0.028336 -0.082542
 17 -37.563442 14.762684 -50.295166 0.116611 0.034026 -0.005113
 18 -10.963051 -41.811958 -33.818550 -0.366519 0.000001 -0.000000
 19 -3.816727 -34.078995 -25.402420 0.000000 -0.000000 0.000000
 20 41.148888 -1.371410 40.606613 0.225354 -0.023481 0.102059
 21 39.457123 17.377464 -50.174332 -0.054550 -0.039138 -0.007567
 22 11.722153 -44.271461 -32.982765 -0.242925 0.024226 0.007891
 23 2.616638 -33.926437 -25.777016 0.000000 -0.000000 0.000000
 24 -0.737604 3.053425 41.398270 0.000000 -0.000000 0.000000
 25 59.548912 42.542194 10.500656 -1.623153 -0.000000 -0.000000
 26 7.710041 -174.312286 82.914413 0.000000 -0.000000 0.000000
 27 -48.533012 43.917606 10.922333 -1.658062 -0.000000 0.000000
 28 -11.661724 -173.988144 81.962143 0.000000 -0.000000 0.000000
 29 2.355417 35.224621 9.630981 -0.239148 0.000000 0.000000
 30 3.826383 -24.489052 6.313690 0.139626 0.000000 0.000000
 31 -0.684172 -11.661074 48.858276 0.000000 -0.000000 0.000000
 32 -0.072890 -1.756191 2.960068 0.000000 -0.000000 0.000000
time 22
  0 -5.180422 13.788269 -12.439880 0.000000 -0.000000 0.000000
  1 -5.180422 13.788269 -12.439880 0.000000 -0.000000 0.000000
  2 -5.180422 13.788269 -12.439880 0.000000 -0.000000 0.000000
  3 -5.180422 13.788269 -12.439880 0.000000 -0.000000 0.000000
  4 -4.455341 19.713478 299.953064 0.000000 -0.000000 0.000000
  5 -5.180422 10.156500 135.203812 0.087267 0.000000 -0.000000
  6 0.585070 4.634647 -15.754402 0.139627 0.000000 -0.000000
  7 44.000435 -0.454872 -14.063072 -0.178646 -0.000000 -0.000000
  8 -1.648880 -14.263247 -46.038216 0.279253 0.000000 -0.000000
  9 1.901329 0.000000 -35.274979 -0.191986 0.000000 0.000000
 10 1.220856 -0.000002 -27.561966 0.000000 -0.000000 0.000000
 11 -35.658199 -1.977135 -14.300323 -0.280624 -0.000000 -0.000000
 12 2.095200 -12.740986 -45.800964 -0.052360 0.000000 0.000000
 13 -2.525253 0.000000 -34.836559 0.139626 -0.000000 0.000000
 14 -1.229671 -0.000003 -26.461926 0.000000 -0.000000 0.000000
 15 0.585071 -8.183476 37.227097 0.157080 0.000000 -0.000000
 16 -35.591049 -1.703072 41.085175 0.023780 -0.027936 -0.082609
 17 -37.563431 14.762684 -50.295181 0.120366 0.034348 -0.005162
 18 -10.963058 -41.811966 -33.818550 -0.366519 0.000001 0.000000
 19 -3.816711 -34.079002 -25.402428 0.000000 -0.000000 0.000000
 20 41.148888 -1.371410 40.606628 0.222171 -0.023149 0.102096
 21 39.457130 17.377457 -50.174332 -0.057245 -0.038867 -0.007487
 22 11.722176 -44.271450 -32.982773 -0.242925 0.024226 0.007891
 23 2.616646 -33.926434 -25.777016 0.000000 -0.000000 0.000000
 24 -0.737604 2.922020 41.431030 0.000000 -0.000000 0.000000
 25 59.548912 42.710983 10.458572 -1.623153 -0.000000 -0.000000
 26 7.710041 -174.312271 82.914413 0.000000 -0.000000 0.000000
 27 -48.533012 44.036217 10.892746 -1.658062 -0.000000 0.000000
 28 -11.661724 -173.988129 81.962143 0.000000 -0.000000 0.000000
 29 2.355417 35.501328 9.561981 -0.236336 0.000000 0.000000
 30 3.826383 -24.397320 6.290833 0.139626 0.000000 0.000000
 31 -0.684172 -11.661070 48.858276 0.000000 -0.000000 0.000000
 32 -0.072890 -1.756191 2.960068 0.000000 -0.000000 0.000000
time 23
  0 -5.180422 13.788269 -12.439880 0.000000 -0.000000 0.000000
  1 -5.180422 13.788269 -12.439880 0.000000 -0.000000 0.000000
  2 -5.180422 13.788269 -12.439880 0.000000 -0.000000 0.000000
  3 -5.180422 13.788269 -12.439880 0.000000 -0.000000 0.000000
  4 -4.455341 19.713478 299.953064 0.000000 -0.000000 0.000000
  5 -5.180422 10.528808 135.203812 0.087267 0.000000 -0.000000
  6 0.585070 4.634647 -15.754395 0.139627 0.000000 -0.000000
  7 44.000435 -0.454872 -14.063072 -0.182423 -0.000000 -0.000000
  8 -1.648884 -14.263249 -46.038227 0.279253 0.000000 -0.000000
  9 1.901329 -0.000004 -35.274982 -0.191986 -0.000000 -0.000000
 10 1.220856 -0.000002 -27.561970 0.000000 -0.000000 0.000000
 11 -35.658199 -1.977131 -14.300331 -0.281883 -0.000000 -0.000000
 12 2.095200 -12.740984 -45.800957 -0.052360 0.000000 0.000000
 13 -2.525253 -0.000000 -34.836559 0.139626 -0.000000 0.000000
 14 -1.229671 -0.000003 -26.461920 0.000000 -0.000000 0.000000
 15 0.585071 -8.177052 37.300537 0.157080 0.000000 -0.000000
 16 -35.591049 -1.703068 41.085190 0.032912 -0.027152 -0.082739
 17 -37.563446 14.762695 -50.295181 0.118833 0.034217 -0.005142
 18 -10.963058 -41.811958 -33.818542 -0.366519 0.000001 0.000000
 19 -3.816719 -34.079002 -25.402420 0.000000 -0.000000 0.000000
 20 41.148888 -1.371418 40.606628 0.215935 -0.022499 0.102170
 21 39.457134 17.377472 -50.174316 -0.062526 -0.038336 -0.007331
 22 11.722160 -44.271442 -32.982773 -0.242925 0.024226 0.007891
 23 2.616638 -33.926430 -25.777016 0.000000 -0.000000 0.000000
 24 -0.737604 2.762169 41.470886 0.000000 -0.000000 0.000000
 25 59.548912 42.849392 10.424057 -1.623153 -0.000000 -0.000000
 26 7.710041 -174.312271 82.914421 0.000000 -0.000000 0.000000
 27 -48.533012 44.111233 10.874054 -1.658062 -0.000000 0.000000
 28 -11.661724 -173.988144 81.962143 0.000000 -0.000000 0.000000
 29 2.355417 35.815784 9.483582 -0.233059 0.000000 0.000000
 30 3.826383 -24.355328 6.280350 0.139626 0.000000 0.000000
 31 -0.684172 -11.661074 48.858276 0.000000 -0.000000 0.000000
 32 -0.072890 -1.756195 2.960068 0.000000 -0.000000 0.000000
time 24
  0 -5.180422 13.788269 -12.439880 0.000000 -0.000000 0.000000
  1 -5.180422 13.788269 -12.439880 0.000000 -0.000000 0.000000
  2 -5.180422 13.788269 -12.439880 0.000000 -0.000000 0.000000
  3 -5.180422 13.788269 -12.439880 0.000000 -0.000000 0.000000
  4 -4.455341 19.713478 299.953064 0.000000 -0.000000 0.000000
  5 -5.180422 10.973541 135.203812 0.087267 0.000000 -0.000000
  6 0.585070 4.634647 -15.754395 0.139627 0.000000 -0.000000
  7 44.000435 -0.454872 -14.063072 -0.187199 -0.000000 -0.000000
  8 -1.648884 -14.263250 -46.038216 0.279253 0.000000 0.000000
  9 1.901329 0.000000 -35.274982 -0.191986 0.000000 -0.000000
 10 1.220856 -0.000002 -27.561970 0.000000 -0.000000 0.000000
 11 -35.658199 -1.977131 -14.300331 -0.283475 -0.000000 0.000000
 12 2.095200 -12.740983 -45.800961 -0.052360 0.000000 0.000000
 13 -2.525253 0.000000 -34.836555 0.139626 0.000000 0.000000
 14 -1.229671 -0.000003 -26.461926 0.000000 -0.000000 0.000000
 15 0.585071 -8.166130 37.425369 0.157080 0.000000 -0.000000
 16 -35.591049 -1.703064 41.085190 0.045974 -0.026030 -0.082926
 17 -37.563435 14.762688 -50.295166 0.110375 0.033490 -0.005033
 18 -10.963058 -41.811974 -33.818527 -0.366520 0.000001 0.000000
 19 -3.816719 -34.079002 -25.402420 0.000000 -0.000000 0.000000
 20 41.148888 -1.371414 40.606628 0.207013 -0.021569 0.102275
 21 39.457123 17.377464 -50.174316 -0.070081 -0.037576 -0.007107
 22 11.722168 -44.271446 -32.982758 -0.242925 0.024226 0.007891
 23 2.616638 -33.926437 -25.777008 0.000000 -0.000000 0.000000
 24 -0.737604 2.577942 41.516815 0.000000 -0.000000 0.000000
 25 59.548912 42.954048 10.397964 -1.623153 -0.000000 -0.000000
 26 7.710041 -174.312256 82.914413 0.000000 -0.000000 0.000000
 27 -48.533012 44.138298 10.867310 -1.658062 -0.000000 0.000000
 28 -11.661724 -173.988144 81.962143 0.000000 -0.000000 0.000000
 29 2.355417 36.161972 9.397263 -0.229387 0.000000 0.000000
 30 3.826383 -24.380329 6.286591 0.139626 0.000000 0.000000
 31 -0.684172 -11.661072 48.858292 0.000000 -0.000000 0.000000
 32 -0.072890 -1.756191 2.960068 0.000000 -0.000000 0.000000
time 25
  0 -5.180422 13.788269 -12.439880 0.000000 -0.000000 0.000000
  1 -5.180422 13.788269 -12.439880 0.000000 -0.000000 0.000000
  2 -5.180422 13.788269 -12.439880 0.000000 -0.000000 0.000000
  3 -5.180422 13.788269 -12.439880 0.000000 -0.000000 0.000000
  4 -4.455341 19.713478 299.953064 0.000000 -0.000000 0.000000
  5 -5.180422 11.479341 135.203812 0.087267 0.000000 -0.000000
  6 0.585070 4.634649 -15.754395 0.139627 0.000000 -0.000000
  7 44.000435 -0.454868 -14.063080 -0.192826 -0.000000 -0.000000
  8 -1.648884 -14.263248 -46.038208 0.279253 0.000000 -0.000000
  9 1.901329 0.000002 -35.274979 -0.191986 -0.000000 -0.000000
 10 1.220860 -0.000004 -27.561966 0.000000 -0.000000 0.000000
 11 -35.658199 -1.977131 -14.300331 -0.285350 -0.000000 0.000000
 12 2.095196 -12.740986 -45.800968 -0.052360 0.000000 0.000000
 13 -2.525253 0.000000 -34.836563 0.139626 0.000000 0.000000
 14 -1.229671 -0.000003 -26.461922 0.000000 -0.000000 0.000000
 15 0.585071 -8.151300 37.594849 0.157080 0.000000 -0.000000
 16 -35.591049 -1.703068 41.085190 0.062429 -0.024617 -0.083162
 17 -37.563438 14.762688 -50.295151 0.095710 0.032229 -0.004843
 18 -10.963051 -41.811966 -33.818542 -0.366519 0.000001 -0.000000
 19 -3.816711 -34.079002 -25.402420 0.000000 -0.000000 0.000000
 20 41.148888 -1.371414 40.606628 0.195774 -0.020398 0.102408
 21 39.457130 17.377457 -50.174332 -0.079597 -0.036619 -0.006825
 22 11.722160 -44.271446 -32.982780 -0.242925 0.024226 0.007891
 23 2.616638 -33.926426 -25.777023 0.000000 -0.000000 0.000000
 24 -0.737604 2.373386 41.567810 0.000000 -0.000000 0.000000
 25 59.548912 43.021534 10.381134 -1.623153 -0.000000 -0.000000
 26 7.710041 -174.312271 82.914406 0.000000 -0.000000 0.000000
 27 -48.533012 44.084835 10.880630 -1.658062 -0.000000 0.000000
 28 -11.661724 -173.988113 81.962158 0.000000 -0.000000 0.000000
 29 2.355417 36.533863 9.304550 -0.225391 0.000000 0.000000
 30 3.826383 -24.502232 6.316986 0.139626 0.000000 0.000000
 31 -0.684172 -11.661076 48.858292 0.000000 -0.000000 0.000000
 32 -0.072890 -1.756191 2.960068 0.000000 -0.000000 0.000000
time 26
  0 -5.180422 13.788269 -12.439880 0.000000 -0.000000 0.000000
  1 -5.180422 13.788269 -12.439880 0.000000 -0.000000 0.000000
  2 -5.180422 13.788269 -12.439880 0.000000 -0.000000 0.000000
  3 -5.180422 13.788269 -12.439880 0.000000 -0.000000 0.000000
  4 -4.455341 19.713478 299.953064 0.000000 -0.000000 0.000000
  5 -5.180422 12.034843 135.203812 0.087267 0.000000 -0.000000
  6 0.585070 4.634647 -15.754395 0.139627 0.000000 -0.000000
  7 44.000431 -0.454872 -14.063080 -0.199157 -0.000000 -0.000000
  8 -1.648884 -14.263249 -46.038216 0.279253 0.000000 0.000000
  9 1.901333 0.000000 -35.274982 -0.191986 -0.000000 -0.000000
 10 1.220856 0.000000 -27.561968 0.000000 -0.000000 0.000000
 11 -35.658199 -1.977131 -14.300331 -0.287461 -0.000000 0.000000
 12 2.095196 -12.740984 -45.800957 -0.052360 0.000000 0.000000
 13 -2.525253 -0.000000 -34.836555 0.139626 -0.000000 0.000000
 14 -1.229671 -0.000003 -26.461922 0.000000 -0.000000 0.000000
 15 0.585071 -8.133159 37.802231 0.157080 0.000000 -0.000000
 16 -35.591049 -1.703068 41.085159 0.081735 -0.022959 -0.083438
 17 -37.563431 14.762684 -50.295166 0.075708 0.030510 -0.004585
 18 -10.963043 -41.811981 -33.818550 -0.366519 0.000001 0.000000
 19 -3.816727 -34.079002 -25.402428 0.000000 -0.000000 0.000000
 20 41.148888 -1.371414 40.606613 0.182588 -0.019025 0.102564
 21 39.457138 17.377464 -50.174332 -0.090763 -0.035496 -0.006494
 22 11.722176 -44.271454 -32.982773 -0.242925 0.024226 0.007891
 23 2.616646 -33.926437 -25.777016 0.000000 -0.000000 0.000000
 24 -0.737604 2.152584 41.622864 0.000000 -0.000000 0.000000
 25 59.548912 43.048473 10.374435 -1.623153 -0.000000 -0.000000
 26 7.710041 -174.312286 82.914413 0.000000 -0.000000 0.000000
 27 -48.533012 43.927036 10.919968 -1.658062 -0.000000 0.000000
 28 -11.661724 -173.988129 81.962158 0.000000 -0.000000 0.000000
 29 2.355417 36.925442 9.206940 -0.221141 0.000000 0.000000
 30 3.826383 -24.710226 6.368851 0.139626 0.000000 0.000000
 31 -0.684172 -11.661076 48.858307 0.000000 -0.000000 0.000000
 32 -0.072890 -1.756191 2.960068 0.000000 -0.000000 0.000000
time 27
  0 -5.180422 13.788269 -12.439880 0.000000 -0.000000 0.000000
  1 -5.180422 13.788269 -12.439880 0.000000 -0.000000 0.000000
  2 -5.180422 13.788269 -12.439880 0.000000 -0.000000 0.000000
  3 -5.180422 13.788269 -12.439880 0.000000 -0.000000 0.000000
  4 -4.455341 19.713478 299.953064 0.000000 -0.000000 0.000000
  5 -5.180422 12.628691 135.203812 0.087267 0.000000 -0.000000
  6 0.585070 4.634647 -15.754395 0.139627 0.000000 -0.000000
  7 44.000435 -0.454872 -14.063072 -0.206044 -0.000000 -0.000000
  8 -1.648884 -14.263248 -46.038219 0.279253 0.000000 -0.000000
  9 1.901329 0.000000 -35.274979 -0.191986 0.000000 -0.000000
 10 1.220856 -0.000002 -27.561970 0.000000 -0.000000 0.000000
 11 -35.658195 -1.977135 -14.300323 -0.289756 -0.000000 0.000000
 12 2.095196 -12.740985 -45.800961 -0.052360 0.000000 0.000000
 13 -2.525249 0.000000 -34.836563 0.139626 0.000000 0.000000
 14 -1.229671 -0.000003 -26.461926 0.000000 -0.000000 0.000000
 15 0.585070 -8.112286 38.040802 0.157080 0.000000 -0.000000
 16 -35.591049 -1.703068 41.085175 0.103352 -0.021102 -0.083748
 17 -37.563442 14.762695 -50.295181 0.051234 0.028406 -0.004269
 18 -10.963051 -41.811970 -33.818558 -0.366520 0.000001 -0.000000
 19 -3.816719 -34.079002 -25.402412 0.000000 -0.000000 0.000000
 20 41.148888 -1.371414 40.606613 0.167823 -0.017486 0.102738
 21 39.457138 17.377449 -50.174301 -0.103265 -0.034239 -0.006123
 22 11.722168 -44.271454 -32.982773 -0.242925 0.024226 0.007891
 23 2.616638 -33.926441 -25.777031 0.000000 -0.000000 0.000000
 24 -0.737604 1.919582 41.680969 0.000000 -0.000000 0.000000
 25 59.548912 42.991119 10.388718 -1.623153 -0.000000 -0.000000
 26 7.710041 -174.312256 82.914421 0.000000 -0.000000 0.000000
 27 -48.533012 43.679733 10.981628 -1.658062 -0.000000 0.000000
 28 -11.661724 -173.988129 81.962158 0.000000 -0.000000 0.000000
 29 2.355417 37.330658 9.105881 -0.216708 0.000000 0.000000
 30 3.826382 -24.991352 6.438950 0.139626 0.000000 0.000000
 31 -0.684172 -11.661072 48.858307 0.000000 -0.000000 0.000000
 32 -0.072890 -1.756191 2.960083 0.000000 -0.000000 0.000000
time 28
  0 -5.180422 13.788269 -12.439880 0.000000 -0.000000 0.000000
  1 -5.180422 13.788269 -12.439880 0.000000 -0.000000 0.000000
  2 -5.180422 13.788269 -12.439880 0.000000 -0.000000 0.000000
  3 -5.180422 13.788269 -12.439880 0.000000 -0.000000 0.000000
  4 -4.455341 19.713478 299.953064 0.000000 -0.000000 0.000000
  5 -5.180422 13.249519 135.203812 0.087267 0.000000 -0.000000
  6 0.585070 4.634647 -15.754395 0.139627 0.000000 -0.000000
  7 44.000435 -0.454872 -14.063072 -0.213341 -0.000000 -0.000000
  8 -1.648880 -14.263248 -46.038216 0.279253 0.000000 0.000000
  9 1.901325 0.000000 -35.274982 -0.191986 0.000000 0.000000
 10 1.220856 -0.000002 -27.561974 0.000000 -0.000000 0.000000
 11 -35.658195 -1.977135 -14.300323 -0.292188 -0.000000 -0.000000
 12 2.095196 -12.740984 -45.800968 -0.052360 0.000000 0.000000
 13 -2.525249 0.000000 -34.836563 0.139627 0.000000 0.000000
 14 -1.229671 -0.000003 -26.461926 0.000000 -0.000000 0.000000
 15 0.585070 -8.089275 38.303802 0.157080 0.000000 -0.000000
 16 -35.591049 -1.703072 41.085175 0.126742 -0.019094 -0.084083
 17 -37.563450 14.762680 -50.295151 0.023157 0.025993 -0.003906
 18 -10.963043 -41.811966 -33.818550 -0.366520 0.000001 -0.000000
 19 -3.816719 -34.079006 -25.402428 0.000000 -0.000000 0.000000
 20 41.148888 -1.371414 40.606628 0.151848 -0.015822 0.102927
 21 39.457130 17.377457 -50.174316 -0.116792 -0.032878 -0.005722
 22 11.722168 -44.271454 -32.982742 -0.242925 0.024226 0.007891
 23 2.616653 -33.926445 -25.777023 0.000000 -0.000000 0.000000
 24 -0.737603 1.678459 41.741089 0.000000 -0.000000 0.000000
 25 59.548912 42.797157 10.437073 -1.623153 -0.000000 -0.000000
 26 7.710041 -174.312286 82.914398 0.000000 -0.000000 0.000000
 27 -48.533012 43.357811 11.061890 -1.658062 -0.000000 0.000000
 28 -11.661724 -173.988113 81.962143 0.000000 -0.000000 0.000000
 29 2.355417 37.743507 9.002945 -0.212163 0.000000 0.000000
 30 3.826382 -25.332630 6.524033 0.139626 0.000000 0.000000
 31 -0.684172 -11.661079 48.858292 0.000000 -0.000000 0.000000
 32 -0.072890 -1.756191 2.960083 0.000000 -0.000000 0.000000
time 29
  0 -5.180422 13.788269 -12.439880 0.000000 -0.000000 0.000000
  1 -5.180422 13.788269 -12.439880 0.000000 -0.000000 0.000000
  2 -5.180422 13.788269 -12.439880 0.000000 -0.000000 0.000000
  3 -5.180422 13.788269 -12.439880 0.000000 -0.000000 0.000000
  4 -4.455341 19.713478 299.953064 0.000000 -0.000000 0.000000
  5 -5.180422 13.885970 135.203812 0.087267 0.000000 -0.000000
  6 0.585070 4.634647 -15.754387 0.139627 0.000000 -0.000000
  7 44.000435 -0.454868 -14.063072 -0.220899 -0.000000 -0.000000
  8 -1.648884 -14.263248 -46.038212 0.279253 0.000000 0.000000
  9 1.901325 -0.000004 -35.274986 -0.191986 -0.000000 -0.000000
 10 1.220856 0.000002 -27.561970 0.000000 -0.000000 0.000000
 11 -35.658199 -1.977131 -14.300323 -0.294708 -0.000000 -0.000000
 12 2.095196 -12.740984 -45.800961 -0.052360 0.000000 0.000000
 13 -2.525249 0.000000 -34.836555 0.139626 0.000000 0.000000
 14 -1.229671 -0.000003 -26.461922 0.000000 -0.000000 0.000000
 15 0.585070 -8.064718 38.584503 0.157080 0.000000 -0.000000
 16 -35.591049 -1.703064 41.085175 0.151363 -0.016979 -0.084435
 17 -37.563442 14.762688 -50.295181 -0.007658 0.023344 -0.003508
 18 -10.963051 -41.811977 -33.818565 -0.366520 0.000001 0.000000
 19 -3.816734 -34.079010 -25.402420 0.000000 -0.000000 0.000000
 20 41.148888 -1.371410 40.606613 0.135032 -0.014070 0.103125
 21 39.457134 17.377464 -50.174316 -0.131032 -0.031446 -0.005300
 22 11.722160 -44.271446 -32.982765 -0.242925 0.024226 0.007891
 23 2.616646 -33.926437 -25.777023 0.000000 -0.000000 0.000000
 24 -0.737603 1.433266 41.802216 0.000000 -0.000000 0.000000
 25 59.548912 42.488373 10.514069 -1.623153 -0.000000 -0.000000
 26 7.710041 -174.312286 82.914406 0.000000 -0.000000 0.000000
 27 -48.533009 42.976143 11.157059 -1.658062 -0.000000 0.000000
 28 -11.661720 -173.988129 81.962158 0.000000 -0.000000 0.000000
 29 2.355417 38.157959 8.899628 -0.207575 0.000000 0.000000
 30 3.826382 -25.721104 6.620880 0.139626 0.000000 0.000000
 31 -0.684172 -11.661072 48.858276 0.000000 -0.000000 0.000000
 32 -0.072890 -1.756191 2.960068 0.000000 -0.000000 0.000000
time 30
  0 -5.180422 13.788269 -12.439880 0.000000 -0.000000 0.000000
  1 -5.180422 13.788269 -12.439880 0.000000 -0.000000 0.000000
  2 -5.180422 13.788269 -12.439880 0.000000 -0.000000 0.000000
  3 -5.180422 13.788269 -12.439880 0.000000 -0.000000 0.000000
  4 -4.455341 19.713478 299.953064 0.000000 -0.000000 0.000000
  5 -5.180422 14.526681 135.203812 0.087267 0.000000 -0.000000
  6 0.585070 4.634649 -15.754395 0.139627 0.000000 -0.000000
  7 44.000435 -0.454872 -14.063072 -0.228573 -0.000000 -0.000000
  8 -1.648884 -14.263250 -46.038219 0.279253 0.000000 -0.000000
  9 1.901325 0.000000 -35.274986 -0.191986 0.000000 0.000000
 10 1.220860 -0.000002 -27.561970 0.000000 -0.000000 0.000000
 11 -35.658199 -1.977131 -14.300323 -0.297266 -0.000000 0.000000
 12 2.095196 -12.740987 -45.800968 -0.052360 0.000000 0.000000
 13 -2.525249 -0.000000 -34.836563 0.139627 -0.000000 0.000000
 14 -1.229671 -0.000004 -26.461926 0.000000 -0.000000 0.000000
 15 0.585070 -8.039202 38.876114 0.157080 0.000000 -0.000000
 16 -35.591049 -1.703068 41.085190 0.176676 -0.014805 -0.084798
 17 -37.563446 14.762688 -50.295166 -0.040342 0.020535 -0.003086
 18 -10.963058 -41.811974 -33.818550 -0.366519 0.000001 0.000000
 19 -3.816727 -34.078999 -25.402420 0.000000 -0.000000 0.000000
 20 41.148888 -1.371414 40.606628 0.117743 -0.012268 0.103329
 21 39.457134 17.377464 -50.174316 -0.145671 -0.029974 -0.004866
 22 11.722168 -44.271446 -32.982758 -0.242925 0.024226 0.007891
 23 2.616653 -33.926430 -25.777023 0.000000 -0.000000 0.000000
 24 -0.737603 1.188068 41.863358 0.000000 -0.000000 0.000000
 25 59.548912 42.087460 10.614029 -1.623153 -0.000000 -0.000000
 26 7.710041 -174.312271 82.914406 0.000000 -0.000000 0.000000
 27 -48.533009 42.549625 11.263397 -1.658062 -0.000000 0.000000
 28 -11.661720 -173.988159 81.962143 0.000000 -0.000000 0.000000
 29 2.355416 38.567982 8.797394 -0.203017 0.000000 0.000000
 30 3.826382 -26.143806 6.726273 0.139626 0.000000 0.000000
 31 -0.684172 -11.661072 48.858292 0.000000 -0.000000 0.000000
 32 -0.072890 -1.756195 2.960083 0.000000 -0.000000 0.000000
time 31
  0 -5.180422 13.788269 -12.439880 0.000000 -0.000000 0.000000
  1 -5.180422 13.788269 -12.439880 0.000000 -0.000000 0.000000
  2 -5.180422 13.788269 -12.439880 0.000000 -0.000000 0.000000
  3 -5.180422 13.788269 -12.439880 0.000000 -0.000000 0.000000
  4 -4.455341 19.713478 299.953064 0.000000 -0.000000 0.000000
  5 -5.180422 15.160291 135.203812 0.087267 0.000000 -0.000000
  6 0.585070 4.634649 -15.754402 0.139627 0.000000 -0.000000
  7 44.000435 -0.454872 -14.063072 -0.236215 -0.000000 -0.000000
  8 -1.648884 -14.263248 -46.038212 0.279253 0.000000 0.000000
  9 1.901325 0.000000 -35.274986 -0.191986 0.000000 -0.000000
 10 1.220860 -0.000004 -27.561974 0.000000 -0.000000 0.000000
 11 -35.658199 -1.977135 -14.300323 -0.299813 -0.000000 -0.000000
 12 2.095196 -12.740985 -45.800964 -0.052360 0.000000 0.000000
 13 -2.525249 0.000000 -34.836559 0.139627 -0.000000 0.000000
 14 -1.229671 -0.000004 -26.461920 0.000000 -0.000000 0.000000
 15 0.585070 -8.013317 39.171967 0.157080 0.000000 -0.000000
 16 -35.591049 -1.703072 41.085175 0.202140 -0.012618 -0.085163
 17 -37.563435 14.762695 -50.295181 -0.074029 0.017640 -0.002651
 18 -10.963058 -41.811974 -33.818527 -0.366519 0.000001 -0.000000
 19 -3.816727 -34.079010 -25.402435 0.000000 -0.000000 0.000000
 20 41.148888 -1.371418 40.606613 0.100351 -0.010456 0.103535
 21 39.457123 17.377468 -50.174332 -0.160399 -0.028492 -0.004429
 22 11.722168 -44.271454 -32.982773 -0.242925 0.024226 0.007891
 23 2.616646 -33.926437 -25.777023 0.000000 -0.000000 0.000000
 24 -0.737604 0.946941 41.923477 0.000000 -0.000000 0.000000
 25 59.548912 41.617085 10.731308 -1.623153 -0.000000 -0.000000
 26 7.710041 -174.312286 82.914406 0.000000 -0.000000 0.000000
 27 -48.533009 42.093113 11.377228 -1.658062 -0.000000 0.000000
 28 -11.661720 -173.988159 81.962143 0.000000 -0.000000 0.000000
 29 2.355417 38.967556 8.697769 -0.198558 0.000000 0.000000
 30 3.826383 -26.587782 6.836975 0.139626 0.000000 0.000000
 31 -0.684171 -11.661072 48.858292 0.000000 -0.000000 0.000000
 32 -0.072890 -1.756195 2.960068 0.000000 -0.000000 0.000000
time 32
  0 -5.180422 13.788269 -12.439880 0.000000 -0.000000 0.000000
  1 -5.180422 13.788269 -12.439880 0.000000 -0.000000 0.000000
  2 -5.180422 13.788269 -12.439880 0.000000 -0.000000 0.000000
  3 -5.180422 13.788269 -12.439880 0.000000 -0.000000 0.000000
  4 -4.455341 19.713478 299.953064 0.000000 -0.000000 0.000000
  5 -5.180422 15.775440 135.203812 0.087267 0.000000 -0.000000
  6 0.585070 4.634647 -15.754395 0.139627 0.000000 -0.000000
  7 44.000435 -0.454872 -14.063072 -0.243677 -0.000000 -0.000000
  8 -1.648880 -14.263249 -46.038208 0.279253 0.000000 0.000000
  9 1.901325 0.000000 -35.274979 -0.191986 -0.000000 -0.000000
 10 1.220860 -0.000004 -27.561968 0.000000 -0.000000 0.000000
 11 -35.658199 -1.977135 -14.300331 -0.302301 -0.000000 0.000000
 12 2.095196 -12.740986 -45.800964 -0.052360 0.000000 0.000000
 13 -2.525249 0.000000 -34.836563 0.139627 -0.000000 0.000000
 14 -1.229671 -0.000004 -26.461922 0.000000 -0.000000 0.000000
 15 0.585070 -7.987654 39.465302 0.157080 0.000000 -0.000000
 16 -35.591049 -1.703064 41.085190 0.227217 -0.010465 -0.085522
 17 -37.563435 14.762688 -50.295166 -0.107851 0.014733 -0.002214
 18 -10.963066 -41.811974 -33.818542 -0.366519 0.000001 0.000000
 19 -3.816727 -34.079010 -25.402428 0.000000 -0.000000 0.000000
 20 41.148888 -1.371410 40.606613 0.083223 -0.008671 0.103737
 21 39.457134 17.377464 -50.174316 -0.174902 -0.027034 -0.004000
 22 11.722176 -44.271454 -32.982758 -0.242925 0.024226 0.007891
 23 2.616646 -33.926437 -25.777031 0.000000 -0.000000 0.000000
 24 -0.737604 0.713943 41.981567 0.000000 -0.000000 0.000000
 25 59.548912 41.099930 10.860245 -1.623153 -0.000000 -0.000000
 26 7.710041 -174.312271 82.914413 0.000000 -0.000000 0.000000
 27 -48.533009 41.621483 11.494812 -1.658062 -0.000000 0.000000
 28 -11.661720 -173.988144 81.962151 0.000000 -0.000000 0.000000
 29 2.355417 39.350647 8.602234 -0.194268 0.000000 0.000000
 30 3.826383 -27.040058 6.949722 0.139626 0.000000 0.000000
 31 -0.684171 -11.661072 48.858261 0.000000 -0.000000 0.000000
 32 -0.072890 -1.756191 2.960068 0.000000 -0.000000 0.000000
time 33
  0 -5.180422 13.788269 -12.439880 0.000000 -0.000000 0.000000
  1 -5.180422 13.788269 -12.439880 0.000000 -0.000000 0.000000
  2 -5.180422 13.788269 -12.439880 0.000000 -0.000000 0.000000
  3 -5.180422 13.788269 -12.439880 0.000000 -0.000000 0.000000
  4 -4.455341 19.713478 299.953064 0.000000 -0.000000 0.000000
  5 -5.180422 16.360765 135.203812 0.087267 0.000000 -0.000000
  6 0.585070 4.634647 -15.754395 0.139627 0.000000 -0.000000
  7 44.000435 -0.454872 -14.063080 -0.250813 -0.000000 -0.000000
  8 -1.648884 -14.263248 -46.038219 0.279253 0.000000 -0.000000
  9 1.901333 0.000002 -35.274979 -0.191986 0.000000 0.000000
 10 1.220852 -0.000002 -27.561968 0.000000 -0.000000 0.000000
 11 -35.658199 -1.977135 -14.300331 -0.304679 -0.000000 -0.000000
 12 2.095200 -12.740984 -45.800968 -0.052360 0.000000 0.000000
 13 -2.525249 0.000000 -34.836563 0.139626 0.000000 0.000000
 14 -1.229671 -0.000004 -26.461927 0.000000 -0.000000 0.000000
 15 0.585070 -7.962803 39.749359 0.157080 0.000000 -0.000000
 16 -35.591049 -1.703068 41.085175 0.251366 -0.008391 -0.085867
 17 -37.563435 14.762695 -50.295181 -0.140941 0.011888 -0.001787
 18 -10.963051 -41.811981 -33.818535 -0.366520 0.000001 0.000000
 19 -3.816719 -34.079010 -25.402412 0.000000 -0.000000 0.000000
 20 41.148888 -1.371410 40.606613 0.066729 -0.006953 0.103932
 21 39.457134 17.377453 -50.174316 -0.188868 -0.025629 -0.003586
 22 11.722160 -44.271450 -32.982773 -0.242925 0.024226 0.007891
 23 2.616646 -33.926430 -25.777023 0.000000 -0.000000 0.000000
 24 -0.737604 0.493141 42.036606 0.000000 -0.000000 0.000000
 25 59.548912 40.558681 10.995209 -1.623153 -0.000000 -0.000000
 26 7.710041 -174.312256 82.914406 0.000000 -0.000000 0.000000
 27 -48.533005 41.149616 11.612473 -1.658062 -0.000000 0.000000
 28 -11.661724 -173.988144 81.962151 0.000000 -0.000000 0.000000
 29 2.355416 39.711239 8.512360 -0.190219 0.000000 0.000000
 30 3.826383 -27.487682 7.061356 0.139626 0.000000 0.000000
 31 -0.684171 -11.661072 48.858307 0.000000 -0.000000 0.000000
 32 -0.072890 -1.756191 2.960068 0.000000 -0.000000 0.000000
time 34
  0 -5.180422 13.788269 -12.439880 0.000000 -0.000000 0.000000
  1 -5.180422 13.788269 -12.439880 0.000000 -0.000000 0.000000
  2 -5.180422 13.788269 -12.439880 0.000000 -0.000000 0.000000
  3 -5.180422 13.788269 -12.439880 0.000000 -0.000000 0.000000
  4 -4.455341 19.713478 299.953064 0.000000 -0.000000 0.000000
  5 -5.180422 16.904907 135.203812 0.087267 0.000000 -0.000000
  6 0.585070 4.634645 -15.754395 0.139627 0.000000 -0.000000
  7 44.000435 -0.454872 -14.063080 -0.257475 -0.000000 -0.000000
  8 -1.648888 -14.263247 -46.038212 0.279253 0.000000 -0.000000
  9 1.901333 0.000000 -35.274979 -0.191986 -0.000000 0.000000
 10 1.220852 -0.000004 -27.561972 0.000000 -0.000000 0.000000
 11 -35.658199 -1.977135 -14.300331 -0.306900 -0.000000 -0.000000
 12 2.095200 -12.740988 -45.800968 -0.052360 0.000000 0.000000
 13 -2.525249 0.000000 -34.836559 0.139626 0.000000 0.000000
 14 -1.229671 -0.000003 -26.461924 0.000000 -0.000000 0.000000
 15 0.585070 -7.939350 40.017410 0.157080 0.000000 -0.000000
 16 -35.591049 -1.703072 41.085175 0.274046 -0.006443 -0.086192
 17 -37.563446 14.762680 -50.295166 -0.172433 0.009181 -0.001380
 18 -10.963058 -41.811974 -33.818535 -0.366519 0.000001 0.000000
 19 -3.816719 -34.079010 -25.402428 0.000000 -0.000000 0.000000
 20 41.148888 -1.371418 40.606628 0.051238 -0.005339 0.104115
 21 39.457142 17.377457 -50.174316 -0.201985 -0.024310 -0.003197
 22 11.722176 -44.271454 -32.982773 -0.242925 0.024226 0.007891
 23 2.616646 -33.926430 -25.777016 0.000000 -0.000000 0.000000
 24 -0.737603 0.288586 42.087646 0.000000 -0.000000 0.000000
 25 59.548912 40.016014 11.130493 -1.623153 -0.000000 -0.000000
 26 7.710041 -174.312271 82.914413 0.000000 -0.000000 0.000000
 27 -48.533005 40.692406 11.726456 -1.658062 -0.000000 0.000000
 28 -11.661728 -173.988098 81.962158 0.000000 -0.000000 0.000000
 29 2.355416 40.043304 8.429550 -0.186481 0.000000 0.000000
 30 3.826383 -27.917686 7.168533 0.139626 0.000000 0.000000
 31 -0.684171 -11.661072 48.858261 0.000000 -0.000000 0.000000
 32 -0.072890 -1.756195 2.960083 0.000000 -0.000000 0.000000
time 35
  0 -5.180422 13.788269 -12.439880 0.000000 -0.000000 0.000000
  1 -5.180422 13.788269 -12.439880 0.000000 -0.000000 0.000000
  2 -5.180422 13.788269 -12.439880 0.000000 -0.000000 0.000000
  3 -5.180422 13.788269 -12.439880 0.000000 -0.000000 0.000000
  4 -4.455341 19.713478 299.953064 0.000000 -0.000000 0.000000
  5 -5.180422 17.396505 135.203812 0.087267 0.000000 -0.000000
  6 0.585070 4.634649 -15.754395 0.139627 0.000000 -0.000000
  7 44.000435 -0.454872 -14.063072 -0.263516 -0.000000 -0.000000
  8 -1.648884 -14.263247 -46.038212 0.279253 0.000000 -0.000000
  9 1.901333 0.000000 -35.274975 -0.191986 -0.000000 0.000000
 10 1.220856 -0.000002 -27.561968 0.000000 -0.000000 0.000000
 11 -35.658199 -1.977135 -14.300331 -0.308913 -0.000000 0.000000
 12 2.095200 -12.740986 -45.800968 -0.052360 0.000000 0.000000
 13 -2.525249 0.000000 -34.836563 0.139626 -0.000000 0.000000
 14 -1.229671 -0.000003 -26.461926 0.000000 -0.000000 0.000000
 15 0.585070 -7.917887 40.262711 0.157080 0.000000 -0.000000
 16 -35.591049 -1.703064 41.085175 0.294719 -0.004667 -0.086488
 17 -37.563431 14.762680 -50.295181 -0.201459 0.006687 -0.001005
 18 -10.963043 -41.811977 -33.818558 -0.366520 0.000001 -0.000000
 19 -3.816727 -34.079010 -25.402428 0.000000 -0.000000 0.000000
 20 41.148888 -1.371410 40.606628 0.037119 -0.003868 0.104281
 21 39.457150 17.377464 -50.174316 -0.213941 -0.023107 -0.002842
 22 11.722176 -44.271446 -32.982773 -0.242925 0.024226 0.007891
 23 2.616638 -33.926422 -25.777016 0.000000 -0.000000 0.000000
 24 -0.737603 0.104359 42.133560 0.000000 -0.000000 0.000000
 25 59.548912 39.494602 11.260498 -1.623153 -0.000000 -0.000000
 26 7.710041 -174.312271 82.914413 0.000000 -0.000000 0.000000
 27 -48.533005 40.264713 11.833084 -1.658062 -0.000000 0.000000
 28 -11.661728 -173.988129 81.962143 0.000000 -0.000000 0.000000
 29 2.355416 40.340824 8.355377 -0.183124 0.000000 0.000000
 30 3.826383 -28.317101 7.268143 0.139626 0.000000 0.000000
 31 -0.684172 -11.661076 48.858292 0.000000 -0.000000 0.000000
 32 -0.072890 -1.756191 2.960083 0.000000 -0.000000 0.000000
time 36
  0 -5.180422 13.788269 -12.439880 0.000000 -0.000000 0.000000
  1 -5.180422 13.788269 -12.439880 0.000000 -0.000000 0.000000
  2 -5.180422 13.788269 -12.439880 0.000000 -0.000000 0.000000
  3 -5.180422 13.788269 -12.439880 0.000000 -0.000000 0.000000
  4 -4.455341 19.713478 299.953064 0.000000 -0.000000 0.000000
  5 -5.180422 17.824198 135.203812 0.087267 0.000000 -0.000000
  6 0.585070 4.634647 -15.754395 0.139627 0.000000 -0.000000
  7 44.000435 -0.454872 -14.063080 -0.268788 -0.000000 -0.000000
  8 -1.648884 -14.263247 -46.038219 0.279253 0.000000 -0.000000
  9 1.901333 0.000000 -35.274975 -0.191986 0.000000 0.000000
 10 1.220856 -0.000004 -27.561970 0.000000 -0.000000 0.000000
 11 -35.658199 -1.977135 -14.300331 -0.310671 -0.000000 -0.000000
 12 2.095200 -12.740986 -45.800961 -0.052360 0.000000 0.000000
 13 -2.525253 0.000000 -34.836559 0.139627 -0.000000 0.000000
 14 -1.229671 -0.000003 -26.461922 0.000000 -0.000000 0.000000
 15 0.585070 -7.899006 40.478531 0.157080 0.000000 -0.000000
 16 -35.591049 -1.703068 41.085175 0.312844 -0.003111 -0.086748
 17 -37.563450 14.762688 -50.295166 -0.227152 0.004478 -0.000673
 18 -10.963051 -41.811970 -33.818542 -0.366519 0.000001 0.000000
 19 -3.816719 -34.079006 -25.402435 0.000000 -0.000000 0.000000
 20 41.148888 -1.371414 40.606628 0.024740 -0.002578 0.104428
 21 39.457123 17.377464 -50.174316 -0.224423 -0.022053 -0.002532
 22 11.722168 -44.271446 -32.982773 -0.242925 0.024226 0.007891
 23 2.616638 -33.926422 -25.777023 0.000000 -0.000000 0.000000
 24 -0.737603 -0.055489 42.173431 0.000000 -0.000000 0.000000
 25 59.548912 39.017143 11.379547 -1.623153 -0.000000 -0.000000
 26 7.710041 -174.312271 82.914406 0.000000 -0.000000 0.000000
 27 -48.533001 39.881424 11.928635 -1.658062 -0.000000 0.000000
 28 -11.661724 -173.988144 81.962151 0.000000 -0.000000 0.000000
 29 2.355416 40.597740 8.291321 -0.180219 0.000000 0.000000
 30 3.826383 -28.672958 7.356857 0.139626 0.000000 0.000000
 31 -0.684172 -11.661072 48.858261 0.000000 -0.000000 0.000000
 32 -0.072890 -1.756191 2.960083 0.000000 -0.000000 0.000000
time 37
  0 -5.180422 13.788269 -12.439880 0.000000 -0.000000 0.000000
  1 -5.180422 13.788269 -12.439880 0.000000 -0.000000 0.000000
  2 -5.180422 13.788269 -12.439880 0.000000 -0.000000 0.000000
  3 -5.180422 13.788269 -12.439880 0.000000 -0.000000 0.000000
  4 -4.455341 19.713478 299.953064 0.000000 -0.000000 0.000000
  5 -5.180422 18.176622 135.203812 0.087267 0.000000 -0.000000
  6 0.585070 4.634645 -15.754395 0.139627 0.000000 -0.000000
  7 44.000435 -0.454872 -14.063072 -0.273145 -0.000000 -0.000000
  8 -1.648884 -14.263249 -46.038216 0.279253 0.000000 -0.000000
  9 1.901329 0.000000 -35.274982 -0.191986 -0.000000 -0.000000
 10 1.220856 -0.000002 -27.561970 0.000000 -0.000000 0.000000
 11 -35.658199 -1.977135 -14.300323 -0.312123 -0.000000 0.000000
 12 2.095200 -12.740988 -45.800964 -0.052360 0.000000 0.000000
 13 -2.525253 0.000001 -34.836559 0.139627 0.000000 0.000000
 14 -1.229671 -0.000004 -26.461922 0.000000 -0.000000 0.000000
 15 0.585070 -7.883295 40.658112 0.157080 0.000000 -0.000000
 16 -35.591049 -1.703072 41.085175 0.327881 -0.001819 -0.086963
 17 -37.563427 14.762703 -50.295151 -0.248645 0.002631 -0.000396
 18 -10.963043 -41.811985 -33.818558 -0.366519 0.000001 -0.000000
 19 -3.816719 -34.079014 -25.402435 0.000000 -0.000000 0.000000
 20 41.148888 -1.371418 40.606628 0.014469 -0.001508 0.104549
 21 39.457138 17.377460 -50.174316 -0.233120 -0.021178 -0.002274
 22 11.722168 -44.271446 -32.982773 -0.242925 0.024226 0.007891
 23 2.616638 -33.926430 -25.777016 0.000000 -0.000000 0.000000
 24 -0.737603 -0.186901 42.206161 0.000000 -0.000000 0.000000
 25 59.548912 38.606308 11.481979 -1.623153 -0.000000 -0.000000
 26 7.710041 -174.312317 82.914413 0.000000 -0.000000 0.000000
 27 -48.533001 39.557411 12.009430 -1.658062 -0.000000 0.000000
 28 -11.661724 -173.988144 81.962151 0.000000 -0.000000 0.000000
 29 2.355416 40.808075 8.238892 -0.177837 0.000000 0.000000
 30 3.826383 -28.972309 7.431503 0.139626 0.000000 0.000000
 31 -0.684172 -11.661064 48.858307 0.000000 -0.000000 0.000000
 32 -0.072890 -1.756199 2.960068 0.000000 -0.000000 0.000000
time 38
  0 -5.180422 13.788269 -12.439880 0.000000 -0.000000 0.000000
  1 -5.180422 13.788269 -12.439880 0.000000 -0.000000 0.000000
  2 -5.180422 13.788269 -12.439880 0.000000 -0.000000 0.000000
  3 -5.180422 13.788269 -12.439880 0.000000 -0.000000 0.000000
  4 -4.455341 19.713478 299.953064 0.000000 -0.000000 0.000000
  5 -5.180422 18.442423 135.203812 0.087267 0.000000 -0.000000
  6 0.585070 4.634649 -15.754402 0.139627 0.000000 -0.000000
  7 44.000435 -0.454872 -14.063072 -0.276440 -0.000000 -0.000000
  8 -1.648884 -14.263248 -46.038212 0.279253 0.000000 0.000000
  9 1.901329 -0.000002 -35.274982 -0.191986 -0.000000 -0.000000
 10 1.220856 0.000002 -27.561968 0.000000 -0.000000 0.000000
 11 -35.658199 -1.977135 -14.300323 -0.313222 -0.000000 -0.000000
 12 2.095200 -12.740984 -45.800957 -0.052360 0.000000 0.000000
 13 -2.525253 -0.000001 -34.836555 0.139626 0.000000 0.000000
 14 -1.229671 -0.000003 -26.461918 0.000000 -0.000000 0.000000
 15 0.585070 -7.871342 40.794739 0.157080 0.000000 -0.000000
 16 -35.591049 -1.703068 41.085175 0.339290 -0.000840 -0.087126
 17 -37.563446 14.762695 -50.295166 -0.265071 0.001219 -0.000184
 18 -10.963051 -41.811977 -33.818550 -0.366519 0.000001 -0.000000
 19 -3.816727 -34.079010 -25.402412 0.000000 -0.000000 0.000000
 20 41.148888 -1.371410 40.606613 0.006677 -0.000696 0.104641
 21 39.457134 17.377464 -50.174316 -0.239718 -0.020515 -0.002078
 22 11.722153 -44.271446 -32.982758 -0.242925 0.024226 0.007891
 23 2.616638 -33.926437 -25.777016 0.000000 -0.000000 0.000000
 24 -0.737603 -0.285782 42.230835 0.000000 -0.000000 0.000000
 25 59.548912 38.284767 11.562149 -1.623153 -0.000000 -0.000000
 26 7.710041 -174.312271 82.914413 0.000000 -0.000000 0.000000
 27 -48.533001 39.307556 12.071747 -1.658062 -0.000000 0.000000
 28 -11.661724 -173.988159 81.962143 0.000000 -0.000000 0.000000
 29 2.355416 40.965767 8.199570 -0.176049 0.000000 0.000000
 30 3.826383 -29.202179 7.488815 0.139626 0.000000 0.000000
 31 -0.684172 -11.661072 48.858276 0.000000 -0.000000 0.000000
 32 -0.072890 -1.756191 2.960068 0.000000 -0.000000 0.000000
time 39
  0 -5.180422 13.788269 -12.439880 0.000000 -0.000000 0.000000
  1 -5.180422 13.788269 -12.439880 0.000000 -0.000000 0.000000
  2 -5.180422 13.788269 -12.439880 0.000000 -0.000000 0.000000
  3 -5.180422 13.788269 -12.439880 0.000000 -0.000000 0.000000
  4 -4.455341 19.713478 299.953064 0.000000 -0.000000 0.000000
  5 -5.180422 18.610231 135.203812 0.087267 0.000000 -0.000000
  6 0.585070 4.634647 -15.754395 0.139627 0.000000 -0.000000
  7 44.000435 -0.454872 -14.063072 -0.278524 -0.000000 -0.000000
  8 -1.648884 -14.263248 -46.038216 0.279253 0.000000 -0.000000
  9 1.901329 0.000000 -35.274986 -0.191986 0.000000 0.000000
 10 1.220856 -0.000002 -27.561970 0.000000 -0.000000 0.000000
 11 -35.658199 -1.977131 -14.300323 -0.313916 -0.000000 0.000000
 12 2.095200 -12.740986 -45.800964 -0.052360 0.000000 0.000000
 13 -2.525253 -0.000000 -34.836563 0.139626 -0.000000 0.000000
 14 -1.229671 -0.000004 -26.461927 0.000000 -0.000000 0.000000
 15 0.585070 -7.863737 40.881668 0.157080 0.000000 -0.000000
 16 -35.591049 -1.703072 41.085175 0.346532 -0.000218 -0.087230
 17 -37.563438 14.762672 -50.295181 -0.275562 0.000317 -0.000048
 18 -10.963051 -41.811989 -33.818565 -0.366519 0.000001 0.000000
 19 -3.816727 -34.079014 -25.402435 0.000000 -0.000000 0.000000
 20 41.148888 -1.371418 40.606628 0.001731 -0.000180 0.104699
 21 39.457134 17.377464 -50.174316 -0.243906 -0.020093 -0.001954
 22 11.722168 -44.271446 -32.982773 -0.242925 0.024226 0.007891
 23 2.616638 -33.926437 -25.777008 0.000000 -0.000000 0.000000
 24 -0.737603 -0.348106 42.246368 0.000000 -0.000000 0.000000
 25 59.548912 38.075218 11.614395 -1.623153 -0.000000 -0.000000
 26 7.710041 -174.312286 82.914413 0.000000 -0.000000 0.000000
 27 -48.533001 39.146729 12.111816 -1.658062 -0.000000 0.000000
 28 -11.661724 -173.988113 81.962151 0.000000 -0.000000 0.000000
 29 2.355416 41.064804 8.174866 -0.174924 0.000000 0.000000
 30 3.826383 -29.349613 7.525558 0.139626 0.000000 0.000000
 31 -0.684172 -11.661072 48.858261 0.000000 -0.000000 0.000000
 32 -0.072890 -1.756199 2.960068 0.000000 -0.000000 0.000000
time 40
  0 -5.180422 13.788269 -12.439880 0.000000 -0.000000 0.000000
  1 -5.180422 13.788269 -12.439880 0.000000 -0.000000 0.000000
  2 -5.180422 13.788269 -12.439880 0.000000 -0.000000 0.000000
  3 -5.180422 13.788269 -12.439880 0.000000 -0.000000 0.000000
  4 -4.455341 19.713478 299.953064 0.000000 -0.000000 0.000000
  5 -5.180422 18.668694 135.203812 0.087267 0.000000 -0.000000
  6 0.585070 4.634647 -15.754387 0.139627 0.000000 -0.000000
  7 44.000435 -0.454868 -14.063072 -0.279252 -0.000000 0.000000
  8 -1.648884 -14.263247 -46.038212 0.279253 0.000000 0.000000
  9 1.901329 0.000002 -35.274979 -0.191986 0.000000 0.000000
 10 1.220856 -0.000004 -27.561970 0.000000 -0.000000 0.000000
 11 -35.658199 -1.977131 -14.300331 -0.314159 -0.000000 0.000000
 12 2.095200 -12.740984 -45.800972 -0.052360 0.000000 0.000000
 13 -2.525253 -0.000000 -34.836559 0.139626 0.000000 0.000000
 14 -1.229671 -0.000004 -26.461926 0.000000 -0.000000 0.000000
 15 0.585070 -7.861073 40.912140 0.157080 0.000000 -0.000000
 16 -35.591049 -1.703072 41.085175 0.349065 -0.000000 -0.087266
 17 -37.563442 14.762695 -50.295166 -0.279252 0.000000 -0.000000
 18 -10.963058 -41.811985 -33.818565 -0.366519 0.000001 0.000000
 19 -3.816727 -34.079014 -25.402420 0.000000 -0.000000 0.000000
 20 41.148888 -1.371414 40.606613 0.000000 -0.000000 0.104720
 21 39.457146 17.377464 -50.174316 -0.245372 -0.019946 -0.001911
 22 11.722160 -44.271454 -32.982773 -0.242925 0.024226 0.007891
 23 2.616638 -33.926437 -25.777016 0.000000 -0.000000 0.000000
 24 -0.737603 -0.369774 42.251770 0.000000 -0.000000 0.000000
 25 59.548912 38.000324 11.633072 -1.623153 -0.000000 -0.000000
 26 7.710041 -174.312256 82.914413 0.000000 -0.000000 0.000000
 27 -48.533001 39.089817 12.126022 -1.658062 -0.000000 0.000000
 28 -11.661724 -173.988144 81.962143 0.000000 -0.000000 0.000000
 29 2.355416 41.099155 8.166306 -0.174533 0.000000 0.000000
 30 3.826383 -29.401630 7.538559 0.139626 0.000000 0.000000
 31 -0.684172 -11.661068 48.858292 0.000000 -0.000000 0.000000
 32 -0.072890 -1.756191 2.960083 0.000000 -0.000000 0.000000
end
