version 1
nodes
  0 "bone24"  -1
  1 "bone25"  -1
  2 "bone35"  -1
  3 "bone21"   2
  4 "bone20"   3
  5 "bone16"   4
  6 "bone17"   5
  7 "bone19"   6
  8 "bone26"   7
  9 "bone05"   4
 10 "bone22"   9
 11 "bone18"  10
 12 "bone27"  11
 13 "bone14"   4
 14 "bone12"  13
 15 "bone15"  14
 16 "bone02"   3
 17 "bone03"  16
 18 "bone09"  17
 19 "bone28"  17
 20 "bone01"  16
 21 "bone08"  20
 22 "bone11"  21
 23 "bone10"  22
 24 "bone29"  22
 25 "bone07"  16
 26 "bone04"  25
 27 "bone06"  26
 28 "bone13"  27
 29 "bone30"  28
 30 "bone31"  27
 31 "bone32"  16
 32 "bone33"   2
 33 "bone34"   2
end
skeleton
time 0
  0 -1.005915 2.634505 0.937462 0.000000 -0.000000 0.000000
  1 -1.005915 2.634505 0.937462 0.000000 -0.000000 0.000000
  2 -1.005915 2.634505 0.937462 0.000000 -0.000000 0.000000
  3 0.000000 0.798765 74.257698 0.017453 -0.000000 0.000000
  4 0.325039 0.314665 -2.968964 -0.052360 0.000000 0.000000
  5 6.206746 -0.124160 -11.733646 -0.606304 -0.119753 0.113058
  6 2.955699 1.729830 -23.848042 0.651736 0.022488 0.061322
  7 0.292418 0.418318 -30.938549 0.099954 -0.062994 -0.043396
  8 0.025499 -3.137413 -3.970851 0.000000 -0.000000 0.000000
  9 -6.833119 -0.124160 -11.733646 -0.024251 0.140500 -0.187517
 10 -3.240685 1.520659 -23.848038 0.767945 0.000000 0.000000
 11 -0.355305 0.627474 -30.760895 -0.296706 -0.000000 0.000000
 12 0.209673 -3.137413 -4.537351 0.000000 -0.000000 0.000000
 13 -0.336471 18.320860 -10.789921 0.157080 0.000000 0.000000
 14 0.011432 14.669048 -0.377853 -0.296707 0.000000 0.000000
 15 0.210528 25.621655 6.087189 0.349066 0.000000 0.000000
 16 0.325039 0.314665 5.117516 -0.296617 -0.055029 -0.199427
 17 -0.409779 2.182661 26.434906 0.338783 0.012324 0.280882
 18 -2.968814 36.066559 32.693222 0.240593 0.003610 -0.042174
 19 -0.380096 -2.640913 16.751854 0.000000 -0.000000 0.000000
 20 7.187247 -0.460703 16.472282 -0.233362 -0.154832 0.309014
 21 12.896097 3.303360 -12.884903 -0.554064 -0.163431 -1.182623
 22 9.818138 -2.393089 -11.768448 -0.280533 0.016352 -0.156232
 23 11.684982 2.308931 -7.513321 -0.000000 -0.000000 0.000000
 24 3.667336 0.402565 -5.537415 0.000000 -0.000000 0.000000
 25 -8.155169 -0.644957 16.761314 -0.550301 0.443318 -1.113845
 26 -12.364454 3.544243 -13.402794 0.084819 0.476689 0.009933
 27 -10.403893 -2.206009 -11.274464 -1.383084 -0.855585 0.052537
 28 -3.567743 0.641579 -8.254745 0.014458 -0.004616 0.008585
 29 -16.088974 -105.559067 -25.635811 0.000000 -0.000000 0.000000
 30 -3.127523 0.571327 -6.062374 0.000000 -0.000000 0.000000
 31 -0.040495 -0.674467 8.862846 0.000000 -0.000000 0.000000
 32 0.289211 3.291785 167.749756 0.000000 -0.000000 0.000000
 33 0.000000 0.000000 0.000000 0.000000 -0.000000 0.000000
time 1
  0 -1.005915 2.634505 0.937462 0.000000 -0.000000 0.000000
  1 -1.005915 2.634505 0.937462 0.000000 -0.000000 0.000000
  2 -1.005915 2.634505 0.937462 0.000000 -0.000000 0.000000
  3 0.000000 1.427129 74.257698 0.010269 0.000000 0.000000
  4 0.325039 0.314665 -2.968956 -0.051797 -0.000000 -0.000000
  5 6.206746 -0.124160 -11.733639 -0.595496 -0.120864 0.111677
  6 2.955698 1.729828 -23.848036 0.634096 0.024327 0.063609
  7 0.292416 0.418325 -30.938557 0.099954 -0.062994 -0.043396
  8 0.025497 -3.137412 -3.970852 0.000000 -0.000000 0.000000
  9 -6.833119 -0.124160 -11.733639 -0.027898 0.139715 -0.189832
 10 -3.240685 1.520660 -23.848042 0.767945 0.000000 0.000000
 11 -0.355305 0.627474 -30.760899 -0.296706 -0.000000 0.000000
 12 0.209671 -3.137413 -4.537350 0.000000 -0.000000 0.000000
 13 -0.336471 18.320856 -10.789913 0.122856 0.000000 0.000000
 14 0.011432 14.669044 -0.377853 -0.290063 -0.000000 0.000000
 15 0.210528 25.621651 6.087189 0.352633 0.000000 0.000000
 16 0.325039 0.314665 5.117516 -0.316684 -0.058846 -0.199098
 17 -0.409779 2.182659 26.434906 0.318902 0.013937 0.280421
 18 -2.968820 36.066551 32.693207 0.240593 0.003610 -0.042174
 19 -0.380096 -2.640916 16.751854 0.000000 -0.000000 0.000000
 20 7.187248 -0.460705 16.472290 -0.314737 -0.202351 0.274880
 21 12.896103 3.303360 -12.884903 -0.517605 -0.189008 -1.136904
 22 9.818130 -2.393085 -11.768444 -0.339639 0.036067 -0.111514
 23 11.684990 2.308929 -7.513313 0.000000 -0.000000 0.000000
 24 3.667336 0.402563 -5.537411 0.000000 -0.000000 0.000000
 25 -8.155171 -0.644957 16.761322 -0.645900 0.490403 -1.018326
 26 -12.364452 3.544239 -13.402786 0.099936 0.430658 0.006357
 27 -10.403900 -2.206013 -11.274460 -1.362971 -0.833173 0.016006
 28 -3.567749 0.641579 -8.254745 0.025569 0.031789 0.028215
 29 -16.088989 -105.559013 -25.635796 0.000000 -0.000000 0.000000
 30 -3.127525 0.571335 -6.062374 0.000000 -0.000000 0.000000
 31 -0.040495 -0.674471 8.862854 0.000000 -0.000000 0.000000
 32 0.289211 3.291785 167.749756 0.000000 -0.000000 0.000000
 33 0.000000 0.000000 0.000000 0.000000 -0.000000 0.000000
time 2
  0 -1.005915 2.634505 0.937462 0.000000 -0.000000 0.000000
  1 -1.005915 2.634505 0.937462 0.000000 -0.000000 0.000000
  2 -1.005915 2.634505 0.937462 0.000000 -0.000000 0.000000
  3 0.000000 3.012110 74.257698 -0.007854 0.000000 0.000000
  4 0.325039 0.314665 -2.968971 -0.050378 -0.000000 -0.000000
  5 6.206747 -0.124160 -11.733643 -0.568233 -0.123664 0.108194
  6 2.955697 1.729832 -23.848042 0.589601 0.028967 0.069376
  7 0.292416 0.418315 -30.938553 0.099954 -0.062994 -0.043396
  8 0.025497 -3.137413 -3.970852 0.000000 -0.000000 0.000000
  9 -6.833119 -0.124160 -11.733643 -0.042097 0.136707 -0.195671
 10 -3.240685 1.520659 -23.848045 0.767945 -0.000000 0.000000
 11 -0.355307 0.627466 -30.760899 -0.296706 0.000000 0.000000
 12 0.209671 -3.137413 -4.537350 0.000000 -0.000000 0.000000
 13 -0.336471 18.320858 -10.789909 0.034455 -0.000000 0.000000
 14 0.011432 14.669043 -0.377853 -0.271250 -0.000000 0.000000
 15 0.210528 25.621656 6.087196 0.362812 0.000000 0.000000
 16 0.325039 0.314665 5.117508 -0.367302 -0.068473 -0.197888
 17 -0.409779 2.182657 26.434914 0.263872 0.018240 0.278995
 18 -2.968818 36.066540 32.693222 0.240593 0.003610 -0.042174
 19 -0.380095 -2.640916 16.751862 0.000000 -0.000000 0.000000
 20 7.187248 -0.460707 16.472298 -0.519996 -0.325329 0.182562
 21 12.896103 3.303356 -12.884903 -0.421473 -0.253523 -1.021583
 22 9.818130 -2.393084 -11.768442 -0.488729 0.085796 0.001284
 23 11.684975 2.308935 -7.513311 0.000000 -0.000000 0.000000
 24 3.667328 0.402565 -5.537411 0.000000 -0.000000 0.000000
 25 -8.155169 -0.644958 16.761337 -0.887037 0.609170 -0.775258
 26 -12.364449 3.544235 -13.402786 0.138067 0.314548 -0.002664
 27 -10.403893 -2.206017 -11.274452 -1.309154 -0.773662 -0.079429
 28 -3.567749 0.641571 -8.254753 0.053596 0.123618 0.077731
 29 -16.089020 -105.559052 -25.635818 0.000000 -0.000000 0.000000
 30 -3.127533 0.571327 -6.062370 0.000000 -0.000000 0.000000
 31 -0.040494 -0.674473 8.862862 0.000000 -0.000000 0.000000
 32 0.289211 3.291785 167.749756 0.000000 -0.000000 0.000000
 33 0.000000 0.000000 0.000000 0.000000 -0.000000 0.000000
time 3
  0 -1.005915 2.634505 0.937462 0.000000 -0.000000 0.000000
  1 -1.005915 2.634505 0.937462 0.000000 -0.000000 0.000000
  2 -1.005915 2.634505 0.937462 0.000000 -0.000000 0.000000
  3 0.000000 5.103539 74.257698 -0.031767 0.000000 0.000000
  4 0.325039 0.314665 -2.968971 -0.048506 -0.000000 -0.000000
  5 6.206746 -0.124160 -11.733650 -0.532260 -0.127360 0.103598
  6 2.955698 1.729836 -23.848038 0.530890 0.035089 0.076986
  7 0.292418 0.418323 -30.938553 0.099954 -0.062994 -0.043396
  8 0.025498 -3.137413 -3.970851 0.000000 -0.000000 0.000000
  9 -6.833118 -0.124160 -11.733650 -0.071730 0.130489 -0.203377
 10 -3.240685 1.520659 -23.848038 0.767945 -0.000000 0.000000
 11 -0.355307 0.627478 -30.760900 -0.296706 0.000000 0.000000
 12 0.209673 -3.137411 -4.537351 0.000000 -0.000000 0.000000
 13 -0.336471 18.320862 -10.789925 -0.086720 0.000000 0.000000
 14 0.011432 14.669047 -0.377850 -0.241947 -0.000000 0.000000
 15 0.210527 25.621647 6.087189 0.378815 0.000000 0.000000
 16 0.325039 0.314665 5.117508 -0.434094 -0.081175 -0.195458
 17 -0.409779 2.182663 26.434906 0.180609 0.024428 0.276541
 18 -2.968817 36.066536 32.693199 0.240593 0.003610 -0.042174
 19 -0.380095 -2.640915 16.751846 0.000000 -0.000000 0.000000
 20 7.187247 -0.460707 16.472298 -0.790840 -0.494398 0.047182
 21 12.896095 3.303352 -12.884903 -0.285535 -0.338653 -0.869414
 22 9.818130 -2.393089 -11.768451 -0.685457 0.151414 0.150124
 23 11.684982 2.308935 -7.513323 0.000000 -0.000000 0.000000
 24 3.667336 0.402565 -5.537413 0.000000 -0.000000 0.000000
 25 -8.155170 -0.644953 16.761314 -1.205224 0.765888 -0.449871
 26 -12.364449 3.544243 -13.402781 0.188383 0.161338 -0.014567
 27 -10.403900 -2.206009 -11.274452 -1.231413 -0.688639 -0.212533
 28 -3.567749 0.641575 -8.254753 0.090579 0.244788 0.143068
 29 -16.089012 -105.559044 -25.635811 0.000000 -0.000000 0.000000
 30 -3.127529 0.571335 -6.062386 0.000000 -0.000000 0.000000
 31 -0.040494 -0.674471 8.862854 0.000000 -0.000000 0.000000
 32 0.289211 3.291785 167.749756 0.000000 -0.000000 0.000000
 33 0.000000 0.000000 0.000000 0.000000 -0.000000 0.000000
time 4
  0 -1.005915 2.634505 0.937462 0.000000 -0.000000 0.000000
  1 -1.005915 2.634505 0.937462 0.000000 -0.000000 0.000000
  2 -1.005915 2.634505 0.937462 0.000000 -0.000000 0.000000
  3 0.000000 7.251238 74.257698 -0.056323 0.000000 0.000000
  4 0.325039 0.314666 -2.968964 -0.046583 0.000000 -0.000001
  5 6.206746 -0.124160 -11.733646 -0.495319 -0.131155 0.098878
  6 2.955698 1.729826 -23.848034 0.470599 0.041375 0.084801
  7 0.292416 0.418322 -30.938549 0.099954 -0.062994 -0.043396
  8 0.025498 -3.137413 -3.970851 0.000000 -0.000000 0.000000
  9 -6.833119 -0.124161 -11.733646 -0.121681 0.120077 -0.211290
 10 -3.240685 1.520660 -23.848038 0.767945 0.000000 0.000000
 11 -0.355307 0.627474 -30.760895 -0.296706 -0.000000 0.000000
 12 0.209675 -3.137411 -4.537350 0.000000 -0.000000 0.000000
 13 -0.336471 18.320856 -10.789917 -0.219266 0.000000 0.000000
 14 0.011432 14.669044 -0.377846 -0.203832 0.000000 0.000000
 15 0.210528 25.621645 6.087189 0.399856 0.000000 0.000000
 16 0.325039 0.314665 5.117508 -0.502682 -0.094220 -0.191469
 17 -0.409779 2.182663 26.434914 0.076031 0.031699 0.272996
 18 -2.968814 36.066551 32.693214 0.240593 0.003610 -0.042174
 19 -0.380095 -2.640915 16.751854 0.000000 -0.000000 0.000000
 20 7.187247 -0.460705 16.472298 -1.068972 -0.680190 -0.116135
 21 12.896103 3.303360 -12.884907 -0.129658 -0.426073 -0.713151
 22 9.818130 -2.393086 -11.768448 -0.887478 0.218798 0.302968
 23 11.684990 2.308935 -7.513325 0.000000 -0.000000 0.000000
 24 3.667343 0.402565 -5.537415 0.000000 -0.000000 0.000000
 25 -8.155169 -0.644955 16.761330 -1.531973 0.926822 -0.107400
 26 -12.364449 3.544243 -13.402786 0.240052 0.004006 -0.026790
 27 -10.403893 -2.206009 -11.274456 -1.139533 -0.589691 -0.362071
 28 -3.567749 0.641575 -8.254753 0.128556 0.369218 0.210164
 29 -16.088997 -105.559036 -25.635803 0.000000 -0.000000 0.000000
 30 -3.127525 0.571323 -6.062378 0.000000 -0.000000 0.000000
 31 -0.040495 -0.674469 8.862854 0.000000 -0.000000 0.000000
 32 0.289211 3.291785 167.749756 0.000000 -0.000000 0.000000
 33 0.000000 0.000000 0.000000 0.000000 -0.000000 0.000000
time 5
  0 -1.005915 2.634505 0.937462 0.000000 -0.000000 0.000000
  1 -1.005915 2.634505 0.937462 0.000000 -0.000000 0.000000
  2 -1.005915 2.634505 0.937462 0.000000 -0.000000 0.000000
  3 0.000000 9.005034 74.257698 -0.076376 0.000000 0.000000
  4 0.325039 0.314666 -2.968971 -0.045013 0.000000 -0.000001
  5 6.206746 -0.124159 -11.733646 -0.465153 -0.134254 0.095024
  6 2.955698 1.729832 -23.848038 0.421365 0.046509 0.091183
  7 0.292417 0.418327 -30.938557 0.099954 -0.062994 -0.043396
  8 0.025496 -3.137412 -3.970851 0.000000 -0.000000 0.000000
  9 -6.833119 -0.124159 -11.733646 -0.196832 0.104488 -0.217752
 10 -3.240685 1.520658 -23.848038 0.767945 0.000000 0.000000
 11 -0.355305 0.627470 -30.760895 -0.296706 -0.000000 0.000000
 12 0.209673 -3.137413 -4.537351 0.000000 -0.000000 0.000000
 13 -0.336471 18.320862 -10.789917 -0.341779 -0.000000 0.000000
 14 0.011432 14.669046 -0.377861 -0.158584 0.000000 0.000000
 15 0.210528 25.621649 6.087181 0.425148 0.000000 0.000000
 16 0.325039 0.314664 5.117508 -0.558691 -0.104872 -0.185582
 17 -0.409781 2.182659 26.434914 -0.042943 0.039248 0.268296
 18 -2.968818 36.066551 32.693207 0.240593 0.003610 -0.042174
 19 -0.380095 -2.640923 16.751846 0.000000 -0.000000 0.000000
 20 7.187247 -0.460705 16.472290 -1.296093 -0.853338 -0.292267
 21 12.896095 3.303356 -12.884907 0.026289 -0.497460 -0.585548
 22 9.818146 -2.393089 -11.768456 -1.052447 0.273823 0.427780
 23 11.684990 2.308929 -7.513321 -0.000000 -0.000000 0.000000
 24 3.667343 0.402561 -5.537415 0.000000 -0.000000 0.000000
 25 -8.155172 -0.644958 16.761322 -1.798793 1.058239 0.186924
 26 -12.364456 3.544235 -13.402782 0.282245 -0.124470 -0.036771
 27 -10.403900 -2.206009 -11.274464 -1.043293 -0.488404 -0.506807
 28 -3.567741 0.641575 -8.254745 0.159569 0.470827 0.264953
 29 -16.089027 -105.559067 -25.635818 0.000000 -0.000000 0.000000
 30 -3.127518 0.571331 -6.062378 0.000000 -0.000000 0.000000
 31 -0.040495 -0.674469 8.862854 0.000000 -0.000000 0.000000
 32 0.289211 3.291785 167.749756 0.000000 -0.000000 0.000000
 33 0.000000 0.000000 0.000000 0.000000 -0.000000 0.000000
time 6
  0 -1.005915 2.634505 0.937462 0.000000 -0.000000 0.000000
  1 -1.005915 2.634505 0.937462 0.000000 -0.000000 0.000000
  2 -1.005915 2.634505 0.937462 0.000000 -0.000000 0.000000
  3 0.000000 9.914757 74.257698 -0.086777 0.000000 0.000000
  4 0.325039 0.314665 -2.968964 -0.044198 0.000000 -0.000001
  5 6.206746 -0.124160 -11.733654 -0.449506 -0.135862 0.093025
  6 2.955698 1.729832 -23.848042 0.395827 0.049172 0.094493
  7 0.292417 0.418330 -30.938553 0.099954 -0.062994 -0.043396
  8 0.025498 -3.137411 -3.970851 0.000000 -0.000000 0.000000
  9 -6.833119 -0.124160 -11.733650 -0.302066 0.082735 -0.221103
 10 -3.240683 1.520659 -23.848042 0.767945 0.000000 0.000000
 11 -0.355307 0.627474 -30.760893 -0.296706 -0.000000 0.000000
 12 0.209675 -3.137414 -4.537350 0.000000 -0.000000 0.000000
 13 -0.336471 18.320862 -10.789925 -0.432855 -0.000000 0.000000
 14 0.011432 14.669044 -0.377853 -0.107881 -0.000000 0.000000
 15 0.210528 25.621656 6.087189 0.453906 0.000000 0.000000
 16 0.325039 0.314665 5.117508 -0.587744 -0.110397 -0.177461
 17 -0.409779 2.182659 26.434906 -0.169398 0.046273 0.262379
 18 -2.968814 36.066540 32.693199 0.240593 0.003610 -0.042174
 19 -0.380095 -2.640915 16.751846 0.000000 -0.000000 0.000000
 20 7.187247 -0.460712 16.472290 -1.413904 -0.984473 -0.466089
 21 12.896111 3.303352 -12.884907 0.162440 -0.534490 -0.519358
 22 9.818138 -2.393089 -11.768463 -1.138019 0.302365 0.492522
 23 11.684990 2.308941 -7.513329 -0.000000 -0.000000 0.000000
 24 3.667343 0.402561 -5.537418 0.000000 -0.000000 0.000000
 25 -8.155169 -0.644962 16.761322 -1.937197 1.126407 0.367869
 26 -12.364456 3.544235 -13.402790 0.304131 -0.191113 -0.041949
 27 -10.403893 -2.206013 -11.274452 -0.952477 -0.396367 -0.625505
 28 -3.567749 0.641571 -8.254745 0.175655 0.523534 0.293374
 29 -16.089035 -105.559052 -25.635826 0.000000 -0.000000 0.000000
 30 -3.127510 0.571327 -6.062363 0.000000 -0.000000 0.000000
 31 -0.040494 -0.674473 8.862854 0.000000 -0.000000 0.000000
 32 0.289211 3.291785 167.749756 0.000000 -0.000000 0.000000
 33 0.000000 0.000000 0.000000 0.000000 -0.000000 0.000000
time 7
  0 -1.005915 2.634505 0.937462 0.000000 -0.000000 0.000000
  1 -1.005915 2.634505 0.937462 0.000000 -0.000000 0.000000
  2 -1.005915 2.634505 0.937462 0.000000 -0.000000 0.000000
  3 0.000000 5.817563 74.257698 0.180049 0.000000 0.000000
  4 0.325039 0.314667 -2.968971 -0.161008 -0.000000 -0.000001
  5 6.206746 -0.124161 -11.733643 -0.449231 -0.135890 0.092990
  6 2.955697 1.729835 -23.848045 0.463950 0.043061 0.085047
  7 0.292418 0.418322 -30.938557 0.099954 -0.062994 -0.043396
  8 0.025497 -3.137412 -3.970851 0.000000 -0.000000 0.000000
  9 -6.833119 -0.124161 -11.733646 -0.567017 0.026500 -0.211004
 10 -3.240684 1.520658 -23.848036 0.767945 0.000000 0.000000
 11 -0.355305 0.627469 -30.760895 -0.296706 -0.000000 0.000000
 12 0.209671 -3.137414 -4.537351 0.000000 -0.000000 0.000000
 13 -0.336471 18.320858 -10.789917 -0.471092 -0.000000 0.000000
 14 0.011432 14.669043 -0.377853 -0.053401 -0.000000 0.000000
 15 0.210527 25.621653 6.087196 0.485342 0.000000 0.000000
 16 0.325039 0.314667 5.117508 -0.508386 -0.091838 -0.154478
 17 -0.409778 2.182657 26.434914 -0.353899 0.053732 0.251173
 18 -2.968814 36.066536 32.693192 0.240593 0.003610 -0.042174
 19 -0.380094 -2.640923 16.751854 0.000000 -0.000000 0.000000
 20 7.187246 -0.460705 16.472290 -1.297642 -1.055423 -0.682354
 21 12.896103 3.303352 -12.884901 0.278480 -0.519814 -0.517252
 22 9.818130 -2.393086 -11.768448 -1.139521 0.302866 0.493658
 23 11.684990 2.308935 -7.513325 0.000000 -0.000000 0.000000
 24 3.667351 0.402565 -5.537418 0.000000 -0.000000 0.000000
 25 -8.155169 -0.644958 16.761330 -1.931619 1.111758 0.412788
 26 -12.364449 3.544239 -13.402786 0.304515 -0.192283 -0.042040
 27 -10.403893 -2.206011 -11.274458 -0.851994 -0.305665 -0.700629
 28 -3.567741 0.641579 -8.254753 0.175937 0.524459 0.293872
 29 -16.089005 -105.559052 -25.635811 0.000000 -0.000000 0.000000
 30 -3.127525 0.571327 -6.062378 0.000000 -0.000000 0.000000
 31 -0.040494 -0.674469 8.862846 0.000000 -0.000000 0.000000
 32 0.289211 3.291785 167.749756 0.000000 -0.000000 0.000000
 33 0.000000 0.000000 0.000000 0.000000 -0.000000 0.000000
time 8
  0 -1.005915 2.634505 0.937462 0.000000 -0.000000 0.000000
  1 -1.005915 2.634505 0.937462 0.000000 -0.000000 0.000000
  2 -1.005915 2.634505 0.937462 0.000000 -0.000000 0.000000
  3 0.000000 -6.718375 74.257698 0.989486 0.000000 0.000000
  4 0.325039 0.314663 -2.968967 -0.514825 -0.000000 -0.000001
  5 6.206746 -0.124161 -11.733646 -0.451210 -0.135687 0.093243
  6 2.955698 1.729829 -23.848042 0.673866 0.024177 0.055972
  7 0.292416 0.418320 -30.938551 0.099954 -0.062994 -0.043396
  8 0.025497 -3.137413 -3.970851 0.000000 -0.000000 0.000000
  9 -6.833119 -0.124157 -11.733650 -1.090402 -0.086249 -0.179945
 10 -3.240684 1.520657 -23.848042 0.767945 0.000000 0.000000
 11 -0.355306 0.627467 -30.760895 -0.296706 0.000000 0.000000
 12 0.209673 -3.137414 -4.537351 0.000000 -0.000000 0.000000
 13 -0.336471 18.320862 -10.789913 -0.444181 -0.000000 0.000000
 14 0.011432 14.669046 -0.377861 0.003177 -0.000000 0.000000
 15 0.210528 25.621655 6.087189 0.518671 0.000000 0.000000
 16 0.325039 0.314663 5.117504 -0.245372 -0.031286 -0.106233
 17 -0.409779 2.182659 26.434902 -0.636684 0.062936 0.231942
 18 -2.968812 36.066547 32.693207 0.240593 0.003610 -0.042174
 19 -0.380093 -2.640920 16.751862 0.000000 -0.000000 0.000000
 20 7.187247 -0.460709 16.472286 -0.924469 -1.086997 -0.983991
 21 12.896095 3.303360 -12.884899 0.390348 -0.468060 -0.521194
 22 9.818138 -2.393086 -11.768454 -1.128701 0.299257 0.485472
 23 11.684998 2.308933 -7.513325 -0.000000 -0.000000 0.000000
 24 3.667343 0.402561 -5.537415 0.000000 -0.000000 0.000000
 25 -8.155170 -0.644962 16.761318 -1.886488 1.057688 0.418336
 26 -12.364449 3.544243 -13.402784 0.301748 -0.183856 -0.041385
 27 -10.403900 -2.206013 -11.274448 -0.723559 -0.201457 -0.737444
 28 -3.567749 0.641571 -8.254753 0.173903 0.517794 0.290279
 29 -16.089005 -105.559052 -25.635807 0.000000 -0.000000 0.000000
 30 -3.127531 0.571335 -6.062378 0.000000 -0.000000 0.000000
 31 -0.040494 -0.674477 8.862850 0.000000 -0.000000 0.000000
 32 0.289211 3.291785 167.749756 0.000000 -0.000000 0.000000
 33 0.000000 0.000000 0.000000 0.000000 -0.000000 0.000000
time 9
  0 -1.005915 2.634505 0.937462 0.000000 -0.000000 0.000000
  1 -1.005915 2.634505 0.937462 0.000000 -0.000000 0.000000
  2 -1.005915 2.634505 0.937462 0.000000 -0.000000 0.000000
  3 0.000000 -16.741127 74.257698 1.636648 0.000000 0.000001
  4 0.325039 0.314667 -2.968963 -0.797709 -0.000000 -0.000000
  5 6.206746 -0.124161 -11.733646 -0.454617 -0.135337 0.093678
  6 2.955700 1.729832 -23.848038 0.841698 0.009080 0.032725
  7 0.292419 0.418320 -30.938553 0.099954 -0.062994 -0.043396
  8 0.025497 -3.137417 -3.970848 0.000000 -0.000000 0.000000
  9 -6.833119 -0.124165 -11.733646 -1.481670 -0.170785 -0.155113
 10 -3.240684 1.520660 -23.848045 0.767945 -0.000000 0.000000
 11 -0.355306 0.627474 -30.760895 -0.296706 0.000000 0.000000
 12 0.209673 -3.137413 -4.537352 0.000000 -0.000000 0.000000
 13 -0.336471 18.320854 -10.789917 -0.368821 -0.000000 0.000000
 14 0.011432 14.669044 -0.377853 0.060174 -0.000000 0.000000
 15 0.210527 25.621651 6.087196 0.553106 0.000000 0.000000
 16 0.325039 0.314674 5.117510 0.023230 0.028325 -0.069740
 17 -0.409780 2.182663 26.434908 -0.836207 0.069020 0.217993
 18 -2.968813 36.066551 32.693207 0.240593 0.003610 -0.042174
 19 -0.380094 -2.640917 16.751854 0.000000 -0.000000 0.000000
 20 7.187248 -0.460709 16.472288 -0.612454 -1.095281 -1.191315
 21 12.896105 3.303356 -12.884903 0.457111 -0.420271 -0.527138
 22 9.818138 -2.393086 -11.768452 -1.110067 0.293042 0.471375
 23 11.684990 2.308937 -7.513326 -0.000000 -0.000000 0.000000
 24 3.667336 0.402565 -5.537416 0.000000 -0.000000 0.000000
 25 -8.155170 -0.644951 16.761324 -1.823638 1.014459 0.436055
 26 -12.364456 3.544239 -13.402782 0.296982 -0.169345 -0.040258
 27 -10.403894 -2.206009 -11.274456 -0.637657 -0.134351 -0.748976
 28 -3.567743 0.641571 -8.254745 0.170401 0.506318 0.284090
 29 -16.089005 -105.559067 -25.635811 0.000000 -0.000000 0.000000
 30 -3.127523 0.571327 -6.062374 0.000000 -0.000000 0.000000
 31 -0.040495 -0.674469 8.862854 0.000000 -0.000000 0.000000
 32 0.289211 3.291785 167.749756 0.000000 -0.000000 0.000000
 33 0.000000 0.000000 0.000000 0.000000 -0.000000 0.000000
time 10
  0 -1.005915 2.634505 0.937462 0.000000 -0.000000 0.000000
  1 -1.005915 2.634505 0.937462 0.000000 -0.000000 0.000000
  2 -1.005915 2.634505 0.937462 0.000000 -0.000000 0.000000
  3 0.000000 -17.541679 74.257698 1.688339 0.000000 0.000001
  4 0.325039 0.314659 -2.968963 -0.820304 -0.000000 -0.000000
  5 6.206746 -0.124161 -11.733650 -0.459312 -0.134854 0.094278
  6 2.955698 1.729837 -23.848042 0.855103 0.007874 0.030869
  7 0.292416 0.418312 -30.938553 0.099954 -0.062994 -0.043396
  8 0.025497 -3.137413 -3.970850 0.000000 -0.000000 0.000000
  9 -6.833118 -0.124165 -11.733650 -1.512236 -0.177395 -0.153130
 10 -3.240683 1.520660 -23.848042 0.767945 0.000000 0.000000
 11 -0.355306 0.627466 -30.760895 -0.296706 -0.000000 0.000000
 12 0.209672 -3.137415 -4.537351 0.000000 -0.000000 0.000000
 13 -0.336471 18.320862 -10.789917 -0.266041 -0.000000 0.000000
 14 0.011432 14.669048 -0.377850 0.115913 0.000000 0.000000
 15 0.210527 25.621651 6.087189 0.587861 0.000000 0.000000
 16 0.325039 0.314674 5.117508 0.165913 0.054687 -0.082165
 17 -0.409779 2.182648 26.434906 -0.847617 0.069288 0.217123
 18 -2.968817 36.066544 32.693207 0.240593 0.003610 -0.042174
 19 -0.380094 -2.640919 16.751854 0.000000 -0.000000 0.000000
 20 7.187248 -0.460709 16.472292 -0.556968 -1.092468 -1.202109
 21 12.896099 3.303355 -12.884899 0.458580 -0.401826 -0.535752
 22 9.818142 -2.393088 -11.768452 -1.084392 0.284478 0.451949
 23 11.684992 2.308933 -7.513324 -0.000000 -0.000000 0.000000
 24 3.667330 0.402565 -5.537416 0.000000 -0.000000 0.000000
 25 -8.155170 -0.644966 16.761324 -1.750201 1.017544 0.529752
 26 -12.364456 3.544239 -13.402779 0.290415 -0.149349 -0.038704
 27 -10.403893 -2.206011 -11.274456 -0.633655 -0.131753 -0.746847
 28 -3.567744 0.641567 -8.254749 0.165574 0.490503 0.275563
 29 -16.089031 -105.559067 -25.635811 0.000000 -0.000000 0.000000
 30 -3.127526 0.571327 -6.062376 0.000000 -0.000000 0.000000
 31 -0.040494 -0.674477 8.862854 0.000000 -0.000000 0.000000
 32 0.289211 3.291785 167.749756 0.000000 -0.000000 0.000000
 33 0.000000 0.000000 0.000000 0.000000 -0.000000 0.000000
time 11
  0 -1.005915 2.634505 0.937462 0.000000 -0.000000 0.000000
  1 -1.005915 2.634505 0.937462 0.000000 -0.000000 0.000000
  2 -1.005915 2.634505 0.937462 0.000000 -0.000000 0.000000
  3 0.000000 -17.541679 74.257698 1.688339 0.000000 0.000001
  4 0.325039 0.314659 -2.968963 -0.820304 -0.000000 -0.000000
  5 6.206746 -0.124161 -11.733650 -0.465153 -0.134254 0.095024
  6 2.955700 1.729834 -23.848034 0.855103 0.007874 0.030869
  7 0.292416 0.418312 -30.938557 0.099954 -0.062994 -0.043396
  8 0.025497 -3.137413 -3.970848 0.000000 -0.000000 0.000000
  9 -6.833118 -0.124165 -11.733650 -1.512236 -0.177395 -0.153130
 10 -3.240684 1.520660 -23.848042 0.767945 0.000000 0.000000
 11 -0.355304 0.627469 -30.760895 -0.296706 -0.000000 0.000000
 12 0.209672 -3.137411 -4.537350 0.000000 -0.000000 0.000000
 13 -0.336471 18.320862 -10.789917 -0.156859 -0.000000 0.000000
 14 0.011433 14.669048 -0.377857 0.168714 0.000000 0.000000
 15 0.210527 25.621651 6.087193 0.622148 0.000000 0.000000
 16 0.325039 0.314674 5.117508 0.254327 0.065704 -0.136524
 17 -0.409780 2.182655 26.434908 -0.829006 0.068395 0.218123
 18 -2.968814 36.066547 32.693199 0.240593 0.003610 -0.042174
 19 -0.380093 -2.640923 16.751846 0.000000 -0.000000 0.000000
 20 7.187248 -0.460716 16.472296 -0.525441 -1.077759 -1.178404
 21 12.896103 3.303356 -12.884899 0.442694 -0.385671 -0.551309
 22 9.818134 -2.393086 -11.768448 -1.052447 0.273823 0.427780
 23 11.684982 2.308929 -7.513321 0.000000 -0.000000 0.000000
 24 3.667339 0.402557 -5.537415 0.000000 -0.000000 0.000000
 25 -8.155169 -0.644966 16.761320 -1.657629 1.040774 0.712596
 26 -12.364454 3.544243 -13.402786 0.282245 -0.124470 -0.036771
 27 -10.403900 -2.206005 -11.274456 -0.645411 -0.143108 -0.734307
 28 -3.567746 0.641575 -8.254749 0.159569 0.470827 0.264953
 29 -16.089008 -105.559029 -25.635778 0.000000 -0.000000 0.000000
 30 -3.127527 0.571331 -6.062376 0.000000 -0.000000 0.000000
 31 -0.040494 -0.674477 8.862852 0.000000 -0.000000 0.000000
 32 0.289211 3.291785 167.749756 0.000000 -0.000000 0.000000
 33 0.000000 0.000000 0.000000 0.000000 -0.000000 0.000000
time 12
  0 -1.005915 2.634505 0.937462 0.000000 -0.000000 0.000000
  1 -1.005915 2.634505 0.937462 0.000000 -0.000000 0.000000
  2 -1.005915 2.634505 0.937462 0.000000 -0.000000 0.000000
  3 0.000000 -17.541679 74.257698 1.688339 0.000000 0.000001
  4 0.325039 0.314659 -2.968963 -0.820304 -0.000000 -0.000000
  5 6.206746 -0.124161 -11.733650 -0.472000 -0.133551 0.095899
  6 2.955696 1.729834 -23.848042 0.855103 0.007874 0.030869
  7 0.292416 0.418316 -30.938549 0.099954 -0.062994 -0.043396
  8 0.025497 -3.137413 -3.970852 0.000000 -0.000000 0.000000
  9 -6.833118 -0.124165 -11.733650 -1.512236 -0.177395 -0.153130
 10 -3.240684 1.520660 -23.848040 0.767945 0.000000 0.000000
 11 -0.355305 0.627472 -30.760895 -0.296706 -0.000000 0.000000
 12 0.209673 -3.137413 -4.537349 0.000000 -0.000000 0.000000
 13 -0.336471 18.320862 -10.789917 -0.062289 -0.000000 0.000000
 14 0.011432 14.669044 -0.377853 0.216900 0.000000 0.000000
 15 0.210527 25.621651 6.087185 0.655182 0.000000 0.000000
 16 0.325039 0.314674 5.117508 0.298035 0.068624 -0.186564
 17 -0.409779 2.182655 26.434910 -0.796431 0.066831 0.219873
 18 -2.968816 36.066536 32.693184 0.240593 0.003610 -0.042174
 19 -0.380094 -2.640926 16.751846 0.000000 -0.000000 0.000000
 20 7.187246 -0.460701 16.472290 -0.495528 -1.052014 -1.136912
 21 12.896105 3.303355 -12.884903 0.414889 -0.369255 -0.573371
 22 9.818134 -2.393084 -11.768448 -1.015003 0.261333 0.399451
 23 11.684984 2.308929 -7.513319 0.000000 -0.000000 0.000000
 24 3.667334 0.402565 -5.537413 0.000000 -0.000000 0.000000
 25 -8.155170 -0.644958 16.761324 -1.568989 1.062103 0.864488
 26 -12.364449 3.544239 -13.402782 0.272668 -0.095309 -0.034506
 27 -10.403894 -2.206011 -11.274456 -0.665989 -0.162983 -0.712358
 28 -3.567745 0.641575 -8.254747 0.152530 0.447765 0.252517
 29 -16.088999 -105.559052 -25.635817 0.000000 -0.000000 0.000000
 30 -3.127523 0.571327 -6.062374 0.000000 -0.000000 0.000000
 31 -0.040494 -0.674477 8.862858 0.000000 -0.000000 0.000000
 32 0.289211 3.291785 167.749756 0.000000 -0.000000 0.000000
 33 0.000000 0.000000 0.000000 0.000000 -0.000000 0.000000
time 13
  0 -1.005915 2.634505 0.937462 0.000000 -0.000000 0.000000
  1 -1.005915 2.634505 0.937462 0.000000 -0.000000 0.000000
  2 -1.005915 2.634505 0.937462 0.000000 -0.000000 0.000000
  3 0.000000 -17.497620 74.257698 1.684325 0.000000 0.000001
  4 0.325039 0.314667 -2.968964 -0.818460 -0.000000 -0.000000
  5 6.206747 -0.124161 -11.733650 -0.479712 -0.132758 0.096884
  6 2.955696 1.729832 -23.848042 0.854615 0.007909 0.030942
  7 0.292416 0.418312 -30.938549 0.099954 -0.062994 -0.043396
  8 0.025497 -3.137417 -3.970852 0.000000 -0.000000 0.000000
  9 -6.833118 -0.124161 -11.733646 -1.508661 -0.176632 -0.153212
 10 -3.240685 1.520664 -23.848038 0.767945 -0.000000 0.000000
 11 -0.355306 0.627476 -30.760897 -0.296706 -0.000000 0.000000
 12 0.209672 -3.137411 -4.537350 0.000000 -0.000000 0.000000
 13 -0.336471 18.320858 -10.789921 -0.003350 -0.000000 0.000000
 14 0.011432 14.669044 -0.377853 0.258791 0.000000 0.000000
 15 0.210527 25.621658 6.087187 0.686176 0.000000 0.000000
 16 0.325039 0.314667 5.117509 0.302008 0.068439 -0.195366
 17 -0.409781 2.182663 26.434906 -0.751504 0.064674 0.222288
 18 -2.968814 36.066536 32.693184 0.240593 0.003610 -0.042174
 19 -0.380093 -2.640923 16.751854 0.000000 -0.000000 0.000000
 20 7.187246 -0.460709 16.472290 -0.467227 -1.016507 -1.079688
 21 12.896101 3.303355 -12.884899 0.376542 -0.352696 -0.601149
 22 9.818136 -2.393087 -11.768452 -0.972833 0.247268 0.367546
 23 11.684985 2.308933 -7.513321 -0.000000 -0.000000 0.000000
 24 3.667336 0.402565 -5.537415 0.000000 -0.000000 0.000000
 25 -8.155169 -0.644958 16.761326 -1.503084 1.064224 0.884578
 26 -12.364445 3.544237 -13.402779 0.261883 -0.062467 -0.031954
 27 -10.403894 -2.206014 -11.274456 -0.694368 -0.190393 -0.682087
 28 -3.567745 0.641579 -8.254747 0.144602 0.421791 0.238512
 29 -16.089012 -105.559052 -25.635822 0.000000 -0.000000 0.000000
 30 -3.127525 0.571331 -6.062376 0.000000 -0.000000 0.000000
 31 -0.040495 -0.674469 8.862854 0.000000 -0.000000 0.000000
 32 0.289211 3.291785 167.749756 0.000000 -0.000000 0.000000
 33 0.000000 0.000000 0.000000 0.000000 -0.000000 0.000000
time 14
  0 -1.005915 2.634505 0.937462 0.000000 -0.000000 0.000000
  1 -1.005915 2.634505 0.937462 0.000000 -0.000000 0.000000
  2 -1.005915 2.634505 0.937462 0.000000 -0.000000 0.000000
  3 0.000000 -17.160542 74.257698 1.653616 0.000000 0.000001
  4 0.325039 0.314674 -2.968962 -0.804345 -0.000000 -0.000000
  5 6.206746 -0.124157 -11.733646 -0.488146 -0.131892 0.097962
  6 2.955700 1.729830 -23.848042 0.850877 0.008177 0.031501
  7 0.292418 0.418320 -30.938557 0.099954 -0.062994 -0.043396
  8 0.025497 -3.137409 -3.970854 0.000000 -0.000000 0.000000
  9 -6.833119 -0.124161 -11.733650 -1.481313 -0.170789 -0.153844
 10 -3.240683 1.520660 -23.848042 0.767945 -0.000000 0.000000
 11 -0.355306 0.627471 -30.760897 -0.296706 -0.000000 0.000000
 12 0.209673 -3.137413 -4.537351 0.000000 -0.000000 0.000000
 13 -0.336471 18.320862 -10.789917 0.020100 -0.000000 0.000000
 14 0.011432 14.669044 -0.377857 0.292710 -0.000000 0.000000
 15 0.210527 25.621651 6.087191 0.714344 0.000000 0.000000
 16 0.325039 0.314667 5.117510 0.290980 0.066164 -0.195739
 17 -0.409781 2.182655 26.434912 -0.695839 0.062001 0.225279
 18 -2.968819 36.066536 32.693184 0.240593 0.003610 -0.042174
 19 -0.380095 -2.640923 16.751854 0.000000 -0.000000 0.000000
 20 7.187246 -0.460716 16.472294 -0.440541 -0.972514 -1.008788
 21 12.896099 3.303357 -12.884903 0.329030 -0.336111 -0.633852
 22 9.818137 -2.393085 -11.768456 -0.926707 0.231883 0.332648
 23 11.684988 2.308933 -7.513321 -0.000000 -0.000000 0.000000
 24 3.667337 0.402565 -5.537415 0.000000 -0.000000 0.000000
 25 -8.155169 -0.644958 16.761326 -1.437648 1.052785 0.847760
 26 -12.364447 3.544241 -13.402786 0.250086 -0.026545 -0.029163
 27 -10.403894 -2.206008 -11.274460 -0.729531 -0.224355 -0.644580
 28 -3.567746 0.641567 -8.254751 0.135931 0.393381 0.223193
 29 -16.089008 -105.559013 -25.635794 0.000000 -0.000000 0.000000
 30 -3.127526 0.571327 -6.062376 0.000000 -0.000000 0.000000
 31 -0.040493 -0.674484 8.862858 0.000000 -0.000000 0.000000
 32 0.289211 3.291785 167.749756 0.000000 -0.000000 0.000000
 33 0.000000 0.000000 0.000000 0.000000 -0.000000 0.000000
time 15
  0 -1.005915 2.634505 0.937462 0.000000 -0.000000 0.000000
  1 -1.005915 2.634505 0.937462 0.000000 -0.000000 0.000000
  2 -1.005915 2.634505 0.937462 0.000000 -0.000000 0.000000
  3 0.000000 -16.525738 74.257698 1.595783 0.000000 0.000001
  4 0.325039 0.314674 -2.968963 -0.777765 -0.000000 -0.000000
  5 6.206746 -0.124161 -11.733646 -0.497162 -0.130966 0.099114
  6 2.955698 1.729830 -23.848034 0.843838 0.008683 0.032555
  7 0.292418 0.418316 -30.938553 0.099954 -0.062994 -0.043396
  8 0.025497 -3.137417 -3.970854 0.000000 -0.000000 0.000000
  9 -6.833119 -0.124157 -11.733650 -1.429811 -0.159786 -0.155034
 10 -3.240685 1.520660 -23.848034 0.767945 0.000000 0.000000
 11 -0.355306 0.627470 -30.760899 -0.296706 -0.000000 0.000000
 12 0.209672 -3.137414 -4.537351 0.000000 -0.000000 0.000000
 13 -0.336471 18.320854 -10.789921 0.040416 -0.000000 0.000000
 14 0.011432 14.669044 -0.377857 0.316978 -0.000000 0.000000
 15 0.210527 25.621651 6.087187 0.738899 0.000000 0.000000
 16 0.325039 0.314674 5.117508 0.270210 0.061880 -0.196105
 17 -0.409779 2.182663 26.434908 -0.631049 0.058890 0.228761
 18 -2.968824 36.066536 32.693176 0.240593 0.003610 -0.042174
 19 -0.380095 -2.640923 16.751846 0.000000 -0.000000 0.000000
 20 7.187248 -0.460709 16.472290 -0.415469 -0.921309 -0.926265
 21 12.896099 3.303358 -12.884895 0.273729 -0.319618 -0.670692
 22 9.818140 -2.393082 -11.768448 -0.877399 0.215436 0.295342
 23 11.684986 2.308933 -7.513317 -0.000000 -0.000000 0.000000
 24 3.667336 0.402563 -5.537415 0.000000 -0.000000 0.000000
 25 -8.155170 -0.644958 16.761320 -1.368305 1.031242 0.778424
 26 -12.364452 3.544241 -13.402786 0.237474 0.011856 -0.026180
 27 -10.403896 -2.206011 -11.274456 -0.770457 -0.263883 -0.600926
 28 -3.567745 0.641571 -8.254749 0.126662 0.363010 0.206816
 29 -16.089027 -105.559044 -25.635817 0.000000 -0.000000 0.000000
 30 -3.127523 0.571327 -6.062376 0.000000 -0.000000 0.000000
 31 -0.040495 -0.674469 8.862852 0.000000 -0.000000 0.000000
 32 0.289211 3.291785 167.749756 0.000000 -0.000000 0.000000
 33 0.000000 0.000000 0.000000 0.000000 -0.000000 0.000000
time 16
  0 -1.005915 2.634505 0.937462 0.000000 -0.000000 0.000000
  1 -1.005915 2.634505 0.937462 0.000000 -0.000000 0.000000
  2 -1.005915 2.634505 0.937462 0.000000 -0.000000 0.000000
  3 0.000000 -15.634274 74.257698 1.514567 0.000000 0.000001
  4 0.325039 0.314674 -2.968964 -0.740438 -0.000000 -0.000000
  5 6.206746 -0.124161 -11.733643 -0.506620 -0.129994 0.100322
  6 2.955698 1.729831 -23.848042 0.833953 0.009394 0.034036
  7 0.292418 0.418316 -30.938549 0.099954 -0.062994 -0.043396
  8 0.025497 -3.137413 -3.970850 0.000000 -0.000000 0.000000
  9 -6.833119 -0.124157 -11.733646 -1.357485 -0.144334 -0.156706
 10 -3.240685 1.520660 -23.848040 0.767945 -0.000000 0.000000
 11 -0.355306 0.627466 -30.760895 -0.296706 0.000000 0.000000
 12 0.209671 -3.137414 -4.537352 0.000000 -0.000000 0.000000
 13 -0.336471 18.320858 -10.789917 0.058700 -0.000000 0.000000
 14 0.011432 14.669044 -0.377850 0.329916 -0.000000 0.000000
 15 0.210527 25.621658 6.087189 0.759056 0.000000 0.000000
 16 0.325039 0.314659 5.117508 0.241043 0.055865 -0.196463
 17 -0.409779 2.182655 26.434912 -0.558747 0.055418 0.232647
 18 -2.968820 36.066551 32.693192 0.240593 0.003610 -0.042174
 19 -0.380098 -2.640923 16.751846 0.000000 -0.000000 0.000000
 20 7.187246 -0.460709 16.472294 -0.392011 -0.864168 -0.834174
 21 12.896101 3.303356 -12.884903 0.212017 -0.303336 -0.710878
 22 9.818134 -2.393087 -11.768444 -0.825678 0.198184 0.256212
 23 11.684982 2.308933 -7.513317 -0.000000 -0.000000 0.000000
 24 3.667336 0.402561 -5.537415 0.000000 -0.000000 0.000000
 25 -8.155169 -0.644951 16.761322 -1.296070 1.000990 0.681054
 26 -12.364450 3.544239 -13.402786 0.224246 0.052135 -0.023051
 27 -10.403900 -2.206010 -11.274460 -0.816129 -0.307995 -0.552210
 28 -3.567750 0.641571 -8.254749 0.116939 0.331154 0.189639
 29 -16.089031 -105.559074 -25.635809 0.000000 -0.000000 0.000000
 30 -3.127525 0.571327 -6.062374 0.000000 -0.000000 0.000000
 31 -0.040495 -0.674469 8.862857 0.000000 -0.000000 0.000000
 32 0.289211 3.291785 167.749756 0.000000 -0.000000 0.000000
 33 0.000000 0.000000 0.000000 0.000000 -0.000000 0.000000
time 17
  0 -1.005915 2.634505 0.937462 0.000000 -0.000000 0.000000
  1 -1.005915 2.634505 0.937462 0.000000 -0.000000 0.000000
  2 -1.005915 2.634505 0.937462 0.000000 -0.000000 0.000000
  3 0.000000 -14.527218 74.257698 1.413710 0.000000 0.000001
  4 0.325039 0.314667 -2.968964 -0.694084 -0.000000 -0.000000
  5 6.206746 -0.124161 -11.733643 -0.516377 -0.128992 0.101569
  6 2.955700 1.729830 -23.848042 0.821678 0.010276 0.035874
  7 0.292418 0.418320 -30.938553 0.099954 -0.062994 -0.043396
  8 0.025499 -3.137413 -3.970852 0.000000 -0.000000 0.000000
  9 -6.833119 -0.124165 -11.733646 -1.267668 -0.125146 -0.158782
 10 -3.240685 1.520657 -23.848042 0.767945 -0.000000 0.000000
 11 -0.355306 0.627472 -30.760897 -0.296706 0.000000 0.000000
 12 0.209672 -3.137412 -4.537351 0.000000 -0.000000 0.000000
 13 -0.336471 18.320858 -10.789917 0.075053 -0.000000 0.000000
 14 0.011432 14.669052 -0.377850 0.329090 0.000000 0.000000
 15 0.210527 25.621651 6.087185 0.774026 0.000000 0.000000
 16 0.325039 0.314667 5.117510 0.204822 0.048394 -0.196811
 17 -0.409779 2.182663 26.434908 -0.480547 0.051664 0.236850
 18 -2.968823 36.066544 32.693184 0.240593 0.003610 -0.042174
 19 -0.380097 -2.640923 16.751854 0.000000 -0.000000 0.000000
 20 7.187245 -0.460709 16.472292 -0.370168 -0.802365 -0.734570
 21 12.896095 3.303356 -12.884903 0.145269 -0.287382 -0.753620
 22 9.818130 -2.393084 -11.768440 -0.772318 0.180386 0.215841
 23 11.684980 2.308933 -7.513321 0.000000 -0.000000 0.000000
 24 3.667334 0.402561 -5.537415 0.000000 -0.000000 0.000000
 25 -8.155169 -0.644958 16.761328 -1.221961 0.963421 0.560136
 26 -12.364454 3.544240 -13.402786 0.210599 0.093691 -0.019822
 27 -10.403893 -2.206009 -11.274456 -0.865526 -0.355705 -0.499519
 28 -3.567743 0.641571 -8.254749 0.106908 0.298288 0.171917
 29 -16.089031 -105.559113 -25.635822 0.000000 -0.000000 0.000000
 30 -3.127525 0.571327 -6.062378 0.000000 -0.000000 0.000000
 31 -0.040495 -0.674469 8.862856 0.000000 -0.000000 0.000000
 32 0.289211 3.291785 167.749756 0.000000 -0.000000 0.000000
 33 0.000000 0.000000 0.000000 0.000000 -0.000000 0.000000
time 18
  0 -1.005915 2.634505 0.937462 0.000000 -0.000000 0.000000
  1 -1.005915 2.634505 0.937462 0.000000 -0.000000 0.000000
  2 -1.005915 2.634505 0.937462 0.000000 -0.000000 0.000000
  3 0.000000 -13.245632 74.257698 1.296952 0.000000 0.000000
  4 0.325039 0.314667 -2.968964 -0.640422 -0.000000 -0.000000
  5 6.206746 -0.124161 -11.733646 -0.526293 -0.127973 0.102836
  6 2.955698 1.729833 -23.848038 0.807467 0.011297 0.038002
  7 0.292416 0.418316 -30.938549 0.099954 -0.062994 -0.043396
  8 0.025499 -3.137413 -3.970852 0.000000 -0.000000 0.000000
  9 -6.833118 -0.124165 -11.733650 -1.163691 -0.102932 -0.161184
 10 -3.240685 1.520657 -23.848038 0.767945 -0.000000 0.000000
 11 -0.355307 0.627466 -30.760895 -0.296706 -0.000000 0.000000
 12 0.209673 -3.137414 -4.537352 0.000000 -0.000000 0.000000
 13 -0.336471 18.320858 -10.789917 0.089573 -0.000000 0.000000
 14 0.011432 14.669044 -0.377853 0.310064 0.000000 0.000000
 15 0.210527 25.621635 6.087189 0.783025 0.000000 0.000000
 16 0.325039 0.314667 5.117508 0.162891 0.039745 -0.197147
 17 -0.409779 2.182648 26.434906 -0.398062 0.047703 0.241283
 18 -2.968824 36.066544 32.693192 0.240593 0.003610 -0.042174
 19 -0.380096 -2.640915 16.751846 0.000000 -0.000000 0.000000
 20 7.187247 -0.460709 16.472290 -0.349940 -0.737176 -0.629509
 21 12.896101 3.303364 -12.884903 0.074865 -0.271874 -0.798130
 22 9.818132 -2.393084 -11.768436 -0.718090 0.162298 0.174813
 23 11.684980 2.308934 -7.513321 -0.000000 -0.000000 0.000000
 24 3.667336 0.402563 -5.537415 0.000000 -0.000000 0.000000
 25 -8.155170 -0.644958 16.761322 -1.146992 0.919929 0.420154
 26 -12.364452 3.544242 -13.402786 0.196729 0.135924 -0.016541
 27 -10.403900 -2.206009 -11.274456 -0.917631 -0.406030 -0.443942
 28 -3.567745 0.641579 -8.254745 0.096714 0.264887 0.153906
 29 -16.089001 -105.559044 -25.635838 0.000000 -0.000000 0.000000
 30 -3.127529 0.571335 -6.062370 0.000000 -0.000000 0.000000
 31 -0.040496 -0.674477 8.862854 0.000000 -0.000000 0.000000
 32 0.289211 3.291785 167.749756 0.000000 -0.000000 0.000000
 33 0.000000 0.000000 0.000000 0.000000 -0.000000 0.000000
time 19
  0 -1.005915 2.634505 0.937462 0.000000 -0.000000 0.000000
  1 -1.005915 2.634505 0.937462 0.000000 -0.000000 0.000000
  2 -1.005915 2.634505 0.937462 0.000000 -0.000000 0.000000
  3 0.000000 -11.830584 74.257698 1.168036 0.000000 0.000000
  4 0.325039 0.314667 -2.968964 -0.581172 -0.000000 -0.000000
  5 6.206746 -0.124157 -11.733646 -0.536227 -0.126953 0.104105
  6 2.955699 1.729833 -23.848045 0.791776 0.012424 0.040352
  7 0.292418 0.418318 -30.938557 0.099954 -0.062994 -0.043396
  8 0.025499 -3.137417 -3.970853 0.000000 -0.000000 0.000000
  9 -6.833119 -0.124157 -11.733643 -1.048887 -0.078405 -0.163838
 10 -3.240684 1.520660 -23.848038 0.767945 -0.000000 0.000000
 11 -0.355306 0.627475 -30.760897 -0.296706 -0.000000 0.000000
 12 0.209672 -3.137413 -4.537351 0.000000 -0.000000 0.000000
 13 -0.336471 18.320862 -10.789917 0.102360 -0.000000 0.000000
 14 0.011432 14.669044 -0.377850 0.274950 -0.000000 0.000000
 15 0.210527 25.621658 6.087187 0.785033 0.000000 0.000000
 16 0.325039 0.314674 5.117508 0.116593 0.030196 -0.197468
 17 -0.409780 2.182655 26.434910 -0.312905 0.043615 0.245859
 18 -2.968820 36.066544 32.693192 0.240593 0.003610 -0.042174
 19 -0.380095 -2.640923 16.751854 0.000000 -0.000000 0.000000
 20 7.187247 -0.460701 16.472294 -0.331329 -0.669874 -0.521044
 21 12.896099 3.303354 -12.884895 0.002180 -0.256929 -0.843617
 22 9.818130 -2.393089 -11.768448 -0.663765 0.144178 0.133712
 23 11.684977 2.308933 -7.513313 -0.000000 -0.000000 0.000000
 24 3.667334 0.402564 -5.537411 0.000000 -0.000000 0.000000
 25 -8.155169 -0.644951 16.761322 -1.072182 0.871908 0.265596
 26 -12.364456 3.544243 -13.402786 0.182835 0.178232 -0.013254
 27 -10.403900 -2.206009 -11.274456 -0.971423 -0.457985 -0.386564
 28 -3.567745 0.641575 -8.254753 0.086501 0.231427 0.135864
 29 -16.089005 -105.559074 -25.635780 0.000000 -0.000000 0.000000
 30 -3.127525 0.571327 -6.062376 0.000000 -0.000000 0.000000
 31 -0.040495 -0.674469 8.862854 0.000000 -0.000000 0.000000
 32 0.289211 3.291785 167.749756 0.000000 -0.000000 0.000000
 33 0.000000 0.000000 0.000000 0.000000 -0.000000 0.000000
time 20
  0 -1.005915 2.634505 0.937462 0.000000 -0.000000 0.000000
  1 -1.005915 2.634505 0.937462 0.000000 -0.000000 0.000000
  2 -1.005915 2.634505 0.937462 0.000000 -0.000000 0.000000
  3 0.000000 -10.323138 74.257698 1.030702 0.000000 0.000000
  4 0.325039 0.314667 -2.968964 -0.518052 -0.000000 -0.000000
  5 6.206746 -0.124159 -11.733643 -0.546037 -0.125945 0.105358
  6 2.955697 1.729832 -23.848034 0.775061 0.013626 0.042855
  7 0.292416 0.418312 -30.938557 0.099954 -0.062994 -0.043396
  8 0.025496 -3.137413 -3.970852 0.000000 -0.000000 0.000000
  9 -6.833119 -0.124161 -11.733646 -0.926586 -0.052276 -0.166664
 10 -3.240685 1.520660 -23.848034 0.767945 -0.000000 0.000000
 11 -0.355307 0.627476 -30.760900 -0.296706 0.000000 0.000000
 12 0.209673 -3.137414 -4.537351 0.000000 -0.000000 0.000000
 13 -0.336471 18.320858 -10.789917 0.113514 -0.000000 0.000000
 14 0.011432 14.669048 -0.377853 0.226812 0.000000 0.000000
 15 0.210527 25.621651 6.087185 0.771692 0.000000 0.000000
 16 0.325039 0.314659 5.117504 0.067272 0.020024 -0.197772
 17 -0.409779 2.182667 26.434914 -0.226690 0.039475 0.250492
 18 -2.968819 36.066559 32.693199 0.240593 0.003610 -0.042174
 19 -0.380096 -2.640923 16.751846 0.000000 -0.000000 0.000000
 20 7.187248 -0.460705 16.472294 -0.314333 -0.601736 -0.411231
 21 12.896102 3.303358 -12.884903 -0.071409 -0.242666 -0.889291
 22 9.818134 -2.393093 -11.768448 -0.610115 0.126284 0.093122
 23 11.684982 2.308933 -7.513329 -0.000000 -0.000000 0.000000
 24 3.667334 0.402563 -5.537418 0.000000 -0.000000 0.000000
 25 -8.155169 -0.644958 16.761322 -0.998544 0.820751 0.100945
 26 -12.364452 3.544240 -13.402779 0.169113 0.220013 -0.010008
 27 -10.403893 -2.206009 -11.274464 -1.025884 -0.510586 -0.328473
 28 -3.567749 0.641579 -8.254749 0.076416 0.198383 0.118046
 29 -16.089005 -105.559036 -25.635807 0.000000 -0.000000 0.000000
 30 -3.127533 0.571327 -6.062374 0.000000 -0.000000 0.000000
 31 -0.040494 -0.674473 8.862854 0.000000 -0.000000 0.000000
 32 0.289211 3.291785 167.749756 0.000000 -0.000000 0.000000
 33 0.000000 0.000000 0.000000 0.000000 -0.000000 0.000000
time 21
  0 -1.005915 2.634505 0.937462 0.000000 -0.000000 0.000000
  1 -1.005915 2.634505 0.937462 0.000000 -0.000000 0.000000
  2 -1.005915 2.634505 0.937462 0.000000 -0.000000 0.000000
  3 0.000000 -8.764359 74.257698 0.888691 0.000000 0.000000
  4 0.325039 0.314663 -2.968964 -0.452784 -0.000000 -0.000000
  5 6.206746 -0.124161 -11.733646 -0.555583 -0.124964 0.106578
  6 2.955700 1.729834 -23.848038 0.757776 0.014868 0.045443
  7 0.292416 0.418320 -30.938557 0.099954 -0.062994 -0.043396
  8 0.025497 -3.137413 -3.970852 0.000000 -0.000000 0.000000
  9 -6.833119 -0.124163 -11.733646 -0.800120 -0.025258 -0.169586
 10 -3.240685 1.520658 -23.848042 0.767945 0.000000 0.000000
 11 -0.355305 0.627474 -30.760897 -0.296706 0.000000 0.000000
 12 0.209672 -3.137413 -4.537350 0.000000 -0.000000 0.000000
 13 -0.336471 18.320862 -10.789917 0.123134 -0.000000 0.000000
 14 0.011432 14.669041 -0.377853 0.168714 -0.000000 0.000000
 15 0.210527 25.621651 6.087189 0.741874 0.000000 0.000000
 16 0.325039 0.314663 5.117508 0.016272 0.009505 -0.198058
 17 -0.409779 2.182655 26.434910 -0.141029 0.035362 0.255096
 18 -2.968820 36.066544 32.693199 0.240593 0.003610 -0.042174
 19 -0.380096 -2.640923 16.751846 0.000000 -0.000000 0.000000
 20 7.187247 -0.460705 16.472286 -0.298954 -0.534037 -0.302124
 21 12.896099 3.303364 -12.884895 -0.144525 -0.229201 -0.934363
 22 9.818134 -2.393089 -11.768448 -0.557913 0.108872 0.053627
 23 11.684988 2.308935 -7.513321 0.000000 -0.000000 0.000000
 24 3.667332 0.402563 -5.537415 0.000000 -0.000000 0.000000
 25 -8.155170 -0.644955 16.761333 -0.927097 0.767852 -0.069313
 26 -12.364441 3.544240 -13.402786 0.155762 0.260668 -0.006849
 27 -10.403900 -2.206015 -11.274456 -1.079995 -0.562849 -0.270755
 28 -3.567741 0.641563 -8.254749 0.066602 0.166230 0.100708
 29 -16.089050 -105.559052 -25.635838 0.000000 -0.000000 0.000000
 30 -3.127525 0.571320 -6.062374 0.000000 -0.000000 0.000000
 31 -0.040495 -0.674469 8.862858 0.000000 -0.000000 0.000000
 32 0.289211 3.291785 167.749756 0.000000 -0.000000 0.000000
 33 0.000000 0.000000 0.000000 0.000000 -0.000000 0.000000
time 22
  0 -1.005915 2.634505 0.937462 0.000000 -0.000000 0.000000
  1 -1.005915 2.634505 0.937462 0.000000 -0.000000 0.000000
  2 -1.005915 2.634505 0.937462 0.000000 -0.000000 0.000000
  3 0.000000 -7.195314 74.257698 0.745745 0.000000 0.000000
  4 0.325039 0.314663 -2.968964 -0.387085 -0.000000 -0.000000
  5 6.206746 -0.124161 -11.733650 -0.564723 -0.124025 0.107745
  6 2.955696 1.729834 -23.848042 0.740378 0.016118 0.048048
  7 0.292416 0.418320 -30.938557 0.099954 -0.062994 -0.043396
  8 0.025497 -3.137411 -3.970851 0.000000 -0.000000 0.000000
  9 -6.833119 -0.124161 -11.733650 -0.672821 0.001938 -0.172528
 10 -3.240686 1.520662 -23.848034 0.767945 0.000000 0.000000
 11 -0.355309 0.627474 -30.760893 -0.296706 0.000000 0.000000
 12 0.209673 -3.137413 -4.537349 0.000000 -0.000000 0.000000
 13 -0.336471 18.320858 -10.789925 0.131319 -0.000000 0.000000
 14 0.011432 14.669048 -0.377850 0.103721 0.000000 0.000000
 15 0.210527 25.621651 6.087185 0.699320 0.000000 0.000000
 16 0.325039 0.314671 5.117508 -0.035065 -0.001083 -0.198322
 17 -0.409780 2.182659 26.434906 -0.057535 0.031353 0.259583
 18 -2.968815 36.066544 32.693199 0.240593 0.003610 -0.042174
 19 -0.380096 -2.640923 16.751846 0.000000 -0.000000 0.000000
 20 7.187245 -0.460709 16.472290 -0.285192 -0.468050 -0.195778
 21 12.896099 3.303356 -12.884903 -0.215790 -0.216654 -0.978044
 22 9.818134 -2.393091 -11.768448 -0.507929 0.092200 0.015810
 23 11.684982 2.308929 -7.513321 0.000000 -0.000000 0.000000
 24 3.667336 0.402562 -5.537415 0.000000 -0.000000 0.000000
 25 -8.155169 -0.644955 16.761330 -0.858856 0.714605 -0.240691
 26 -12.364449 3.544240 -13.402779 0.142978 0.299595 -0.003825
 27 -10.403893 -2.206011 -11.274448 -1.132736 -0.613788 -0.214498
 28 -3.567749 0.641579 -8.254749 0.057206 0.135443 0.084108
 29 -16.089005 -105.559036 -25.635813 0.000000 -0.000000 0.000000
 30 -3.127533 0.571327 -6.062374 0.000000 -0.000000 0.000000
 31 -0.040495 -0.674469 8.862862 0.000000 -0.000000 0.000000
 32 0.289211 3.291785 167.749756 0.000000 -0.000000 0.000000
 33 0.000000 0.000000 0.000000 0.000000 -0.000000 0.000000
time 23
  0 -1.005915 2.634505 0.937462 0.000000 -0.000000 0.000000
  1 -1.005915 2.634505 0.937462 0.000000 -0.000000 0.000000
  2 -1.005915 2.634505 0.937462 0.000000 -0.000000 0.000000
  3 0.000000 -5.657072 74.257698 0.605605 0.000000 0.000000
  4 0.325039 0.314663 -2.968967 -0.322676 -0.000000 -0.000000
  5 6.206746 -0.124161 -11.733650 -0.573316 -0.123142 0.108843
  6 2.955698 1.729833 -23.848042 0.723321 0.017344 0.050602
  7 0.292414 0.418319 -30.938553 0.099954 -0.062994 -0.043396
  8 0.025497 -3.137411 -3.970851 0.000000 -0.000000 0.000000
  9 -6.833119 -0.124161 -11.733650 -0.548021 0.028601 -0.175412
 10 -3.240685 1.520658 -23.848042 0.767945 0.000000 0.000000
 11 -0.355307 0.627474 -30.760897 -0.296706 0.000000 0.000000
 12 0.209673 -3.137413 -4.537350 0.000000 -0.000000 0.000000
 13 -0.336471 18.320860 -10.789921 0.138168 -0.000000 0.000000
 14 0.011432 14.669048 -0.377853 0.034898 0.000000 0.000000
 15 0.210527 25.621651 6.087189 0.647767 0.000000 0.000000
 16 0.325039 0.314667 5.117512 -0.085394 -0.011464 -0.198564
 17 -0.409780 2.182663 26.434914 0.022177 0.027526 0.263867
 18 -2.968818 36.066563 32.693199 0.240593 0.003610 -0.042174
 19 -0.380096 -2.640919 16.751846 0.000000 -0.000000 0.000000
 20 7.187248 -0.460701 16.472298 -0.273048 -0.405052 -0.094248
 21 12.896103 3.303361 -12.884903 -0.283828 -0.205142 -1.019543
 22 9.818136 -2.393087 -11.768448 -0.460935 0.076525 -0.019744
 23 11.684980 2.308933 -7.513313 0.000000 -0.000000 0.000000
 24 3.667334 0.402563 -5.537407 0.000000 -0.000000 0.000000
 25 -8.155170 -0.644955 16.761330 -0.794838 0.662403 -0.408706
 26 -12.364441 3.544243 -13.402786 0.130959 0.336193 -0.000982
 27 -10.403908 -2.206011 -11.274456 -1.183089 -0.662422 -0.160789
 28 -3.567741 0.641571 -8.254750 0.048372 0.106499 0.068500
 29 -16.089005 -105.559052 -25.635813 0.000000 -0.000000 0.000000
 30 -3.127525 0.571320 -6.062377 0.000000 -0.000000 0.000000
 31 -0.040495 -0.674469 8.862862 0.000000 -0.000000 0.000000
 32 0.289211 3.291785 167.749756 0.000000 -0.000000 0.000000
 33 0.000000 0.000000 0.000000 0.000000 -0.000000 0.000000
time 24
  0 -1.005915 2.634505 0.937462 0.000000 -0.000000 0.000000
  1 -1.005915 2.634505 0.937462 0.000000 -0.000000 0.000000
  2 -1.005915 2.634505 0.937462 0.000000 -0.000000 0.000000
  3 0.000000 -4.190692 74.257698 0.472012 0.000000 0.000000
  4 0.325039 0.314667 -2.968964 -0.261277 -0.000000 -0.000000
  5 6.206746 -0.124160 -11.733643 -0.581221 -0.122330 0.109853
  6 2.955696 1.729836 -23.848042 0.707061 0.018512 0.053037
  7 0.292417 0.418314 -30.938553 0.099954 -0.062994 -0.043396
  8 0.025497 -3.137414 -3.970852 0.000000 -0.000000 0.000000
  9 -6.833118 -0.124160 -11.733643 -0.429052 0.054017 -0.178162
 10 -3.240686 1.520658 -23.848042 0.767945 -0.000000 0.000000
 11 -0.355305 0.627472 -30.760891 -0.296706 -0.000000 0.000000
 12 0.209673 -3.137413 -4.537350 0.000000 -0.000000 0.000000
 13 -0.336471 18.320862 -10.789909 0.143782 -0.000000 0.000000
 14 0.011432 14.669044 -0.377861 -0.034692 0.000000 0.000000
 15 0.210527 25.621651 6.087196 0.590956 0.000000 0.000000
 16 0.325039 0.314663 5.117508 -0.133371 -0.021359 -0.198780
 17 -0.409779 2.182663 26.434914 0.096495 0.023958 0.267861
 18 -2.968818 36.066559 32.693199 0.240593 0.003610 -0.042174
 19 -0.380096 -2.640923 16.751854 0.000000 -0.000000 0.000000
 20 7.187246 -0.460705 16.472290 -0.262522 -0.346317 0.000411
 21 12.896099 3.303357 -12.884911 -0.347261 -0.194783 -1.058071
 22 9.818134 -2.393089 -11.768440 -0.417703 0.062105 -0.052452
 23 11.684978 2.308935 -7.513317 -0.000000 -0.000000 0.000000
 24 3.667336 0.402559 -5.537407 0.000000 -0.000000 0.000000
 25 -8.155169 -0.644958 16.761322 -0.736058 0.612640 -0.568872
 26 -12.364433 3.544245 -13.402779 0.119902 0.369862 0.001634
 27 -10.403885 -2.206005 -11.274450 -1.230035 -0.707764 -0.110714
 28 -3.567734 0.641579 -8.254747 0.040244 0.079871 0.054142
 29 -16.089027 -105.559052 -25.635796 0.000000 -0.000000 0.000000
 30 -3.127518 0.571327 -6.062370 0.000000 -0.000000 0.000000
 31 -0.040494 -0.674469 8.862854 0.000000 -0.000000 0.000000
 32 0.289211 3.291785 167.749756 0.000000 -0.000000 0.000000
 33 0.000000 0.000000 0.000000 0.000000 -0.000000 0.000000
time 25
  0 -1.005915 2.634505 0.937462 0.000000 -0.000000 0.000000
  1 -1.005915 2.634505 0.937462 0.000000 -0.000000 0.000000
  2 -1.005915 2.634505 0.937462 0.000000 -0.000000 0.000000
  3 0.000000 -2.837240 74.257698 0.348707 0.000000 0.000000
  4 0.325039 0.314667 -2.968964 -0.204605 -0.000000 -0.000000
  5 6.206746 -0.124161 -11.733646 -0.588297 -0.121603 0.110757
  6 2.955697 1.729830 -23.848042 0.692054 0.019590 0.055285
  7 0.292417 0.418321 -30.938555 0.099954 -0.062994 -0.043396
  8 0.025498 -3.137413 -3.970852 0.000000 -0.000000 0.000000
  9 -6.833119 -0.124161 -11.733646 -0.319245 0.077477 -0.180699
 10 -3.240684 1.520659 -23.848038 0.767945 0.000000 0.000000
 11 -0.355305 0.627468 -30.760895 -0.296706 -0.000000 0.000000
 12 0.209673 -3.137412 -4.537351 0.000000 -0.000000 0.000000
 13 -0.336471 18.320860 -10.789921 0.148260 -0.000000 0.000000
 14 0.011432 14.669048 -0.377850 -0.101983 0.000000 0.000000
 15 0.210528 25.621655 6.087189 0.532626 0.000000 0.000000
 16 0.325039 0.314667 5.117508 -0.177653 -0.030493 -0.198968
 17 -0.409780 2.182661 26.434914 0.163806 0.020726 0.271478
 18 -2.968816 36.066551 32.693214 0.240593 0.003610 -0.042174
 19 -0.380095 -2.640915 16.751854 0.000000 -0.000000 0.000000
 20 7.187247 -0.460704 16.472298 -0.253614 -0.293120 0.086145
 21 12.896099 3.303360 -12.884911 -0.404714 -0.185694 -1.092838
 22 9.818134 -2.393090 -11.768448 -0.379006 0.049198 -0.081730
 23 11.684982 2.308931 -7.513317 -0.000000 -0.000000 0.000000
 24 3.667332 0.402565 -5.537418 0.000000 -0.000000 0.000000
 25 -8.155170 -0.644956 16.761322 -0.683533 0.566709 -0.716702
 26 -12.364456 3.544243 -13.402779 0.110004 0.399999 0.003975
 27 -10.403900 -2.206005 -11.274460 -1.272554 -0.748830 -0.065361
 28 -3.567749 0.641579 -8.254745 0.032970 0.056036 0.041290
 29 -16.089020 -105.559074 -25.635777 0.000000 -0.000000 0.000000
 30 -3.127518 0.571335 -6.062374 0.000000 -0.000000 0.000000
 31 -0.040494 -0.674471 8.862854 0.000000 -0.000000 0.000000
 32 0.289211 3.291785 167.749756 0.000000 -0.000000 0.000000
 33 0.000000 0.000000 0.000000 0.000000 -0.000000 0.000000
time 26
  0 -1.005915 2.634505 0.937462 0.000000 -0.000000 0.000000
  1 -1.005915 2.634505 0.937462 0.000000 -0.000000 0.000000
  2 -1.005915 2.634505 0.937462 0.000000 -0.000000 0.000000
  3 0.000000 -1.637786 74.257698 0.239433 0.000000 0.000000
  4 0.325039 0.314663 -2.968964 -0.154382 -0.000000 -0.000000
  5 6.206746 -0.124160 -11.733650 -0.594403 -0.120976 0.111538
  6 2.955700 1.729834 -23.848043 0.678753 0.020546 0.057276
  7 0.292418 0.418319 -30.938553 0.099954 -0.062994 -0.043396
  8 0.025497 -3.137413 -3.970852 0.000000 -0.000000 0.000000
  9 -6.833119 -0.124161 -11.733650 -0.221931 0.098267 -0.182948
 10 -3.240686 1.520660 -23.848042 0.767945 0.000000 0.000000
 11 -0.355307 0.627468 -30.760891 -0.296706 -0.000000 0.000000
 12 0.209673 -3.137413 -4.537349 0.000000 -0.000000 0.000000
 13 -0.336471 18.320862 -10.789917 0.151700 -0.000000 0.000000
 14 0.011432 14.669044 -0.377857 -0.163912 0.000000 0.000000
 15 0.210527 25.621651 6.087189 0.476516 0.000000 0.000000
 16 0.325039 0.314665 5.117508 -0.216897 -0.038587 -0.199128
 17 -0.409780 2.182660 26.434914 0.222495 0.017908 0.274632
 18 -2.968817 36.066559 32.693214 0.240593 0.003610 -0.042174
 19 -0.380095 -2.640913 16.751854 0.000000 -0.000000 0.000000
 20 7.187247 -0.460705 16.472290 -0.246324 -0.246737 0.160898
 21 12.896095 3.303360 -12.884903 -0.454808 -0.177994 -1.123055
 22 9.818130 -2.393089 -11.768444 -0.345613 0.038060 -0.106994
 23 11.684982 2.308929 -7.513317 0.000000 -0.000000 0.000000
 24 3.667336 0.402565 -5.537418 0.000000 -0.000000 0.000000
 25 -8.155169 -0.644956 16.761322 -0.638280 0.526004 -0.847713
 26 -12.364449 3.544243 -13.402786 0.101464 0.426005 0.005996
 27 -10.403900 -2.206005 -11.274456 -1.309627 -0.784637 -0.025816
 28 -3.567741 0.641571 -8.254749 0.026692 0.035469 0.030199
 29 -16.089012 -105.559052 -25.635807 0.000000 -0.000000 0.000000
 30 -3.127518 0.571327 -6.062374 0.000000 -0.000000 0.000000
 31 -0.040495 -0.674471 8.862862 0.000000 -0.000000 0.000000
 32 0.289211 3.291785 167.749756 0.000000 -0.000000 0.000000
 33 0.000000 0.000000 0.000000 0.000000 -0.000000 0.000000
time 27
  0 -1.005915 2.634505 0.937462 0.000000 -0.000000 0.000000
  1 -1.005915 2.634505 0.937462 0.000000 -0.000000 0.000000
  2 -1.005915 2.634505 0.937462 0.000000 -0.000000 0.000000
  3 0.000000 -0.633394 74.257698 0.147928 0.000000 0.000000
  4 0.325039 0.314666 -2.968964 -0.112327 -0.000000 -0.000000
  5 6.206746 -0.124160 -11.733643 -0.599398 -0.120463 0.112176
  6 2.955698 1.729830 -23.848042 0.667616 0.021347 0.058944
  7 0.292416 0.418311 -30.938553 0.099954 -0.062994 -0.043396
  8 0.025497 -3.137414 -3.970852 0.000000 -0.000000 0.000000
  9 -6.833119 -0.124160 -11.733643 -0.140443 0.115676 -0.184831
 10 -3.240684 1.520659 -23.848042 0.767945 0.000000 0.000000
 11 -0.355307 0.627474 -30.760895 -0.296706 0.000000 0.000000
 12 0.209671 -3.137415 -4.537350 0.000000 -0.000000 0.000000
 13 -0.336471 18.320858 -10.789917 0.154203 -0.000000 0.000000
 14 0.011432 14.669041 -0.377853 -0.217413 -0.000000 0.000000
 15 0.210527 25.621655 6.087189 0.426365 0.000000 0.000000
 16 0.325039 0.314665 5.117508 -0.249759 -0.045365 -0.199255
 17 -0.409779 2.182659 26.434906 0.270951 0.015581 0.277237
 18 -2.968817 36.066555 32.693207 0.240593 0.003610 -0.042174
 19 -0.380097 -2.640913 16.751854 0.000000 -0.000000 0.000000
 20 7.187245 -0.460705 16.472290 -0.240654 -0.208441 0.222617
 21 12.896099 3.303360 -12.884903 -0.496167 -0.171799 -1.147931
 22 9.818130 -2.393089 -11.768448 -0.318298 0.028949 -0.127660
 23 11.684982 2.308931 -7.513321 0.000000 -0.000000 0.000000
 24 3.667336 0.402561 -5.537411 0.000000 -0.000000 0.000000
 25 -8.155168 -0.644957 16.761322 -0.601313 0.491919 -0.957417
 26 -12.364449 3.544243 -13.402775 0.094478 0.447278 0.007649
 27 -10.403900 -2.206009 -11.274452 -1.340236 -0.814201 0.006833
 28 -3.567738 0.641579 -8.254745 0.021558 0.018644 0.021127
 29 -16.088997 -105.559052 -25.635796 0.000000 -0.000000 0.000000
 30 -3.127525 0.571327 -6.062374 0.000000 -0.000000 0.000000
 31 -0.040494 -0.674471 8.862854 0.000000 -0.000000 0.000000
 32 0.289211 3.291785 167.749756 0.000000 -0.000000 0.000000
 33 0.000000 0.000000 0.000000 0.000000 -0.000000 0.000000
time 28
  0 -1.005915 2.634505 0.937462 0.000000 -0.000000 0.000000
  1 -1.005915 2.634505 0.937462 0.000000 -0.000000 0.000000
  2 -1.005915 2.634505 0.937462 0.000000 -0.000000 0.000000
  3 0.000000 0.134874 74.257698 0.077936 0.000000 0.000000
  4 0.325039 0.314665 -2.968971 -0.080158 -0.000000 -0.000000
  5 6.206746 -0.124160 -11.733646 -0.603140 -0.120078 0.112654
  6 2.955698 1.729830 -23.848038 0.659097 0.021959 0.060220
  7 0.292417 0.418324 -30.938555 0.099954 -0.062994 -0.043396
  8 0.025498 -3.137412 -3.970851 0.000000 -0.000000 0.000000
  9 -6.833119 -0.124160 -11.733646 -0.078113 0.128992 -0.186272
 10 -3.240684 1.520660 -23.848042 0.767945 0.000000 0.000000
 11 -0.355307 0.627468 -30.760897 -0.296706 -0.000000 0.000000
 12 0.209675 -3.137411 -4.537350 0.000000 -0.000000 0.000000
 13 -0.336471 18.320860 -10.789913 0.155867 -0.000000 0.000000
 14 0.011432 14.669043 -0.377850 -0.259422 0.000000 0.000000
 15 0.210527 25.621649 6.087189 0.385914 0.000000 0.000000
 16 0.325039 0.314665 5.117508 -0.274896 -0.050549 -0.199349
 17 -0.409779 2.182659 26.434921 0.307560 0.013823 0.279204
 18 -2.968816 36.066559 32.693199 0.240593 0.003610 -0.042174
 19 -0.380095 -2.640911 16.751846 0.000000 -0.000000 0.000000
 20 7.187245 -0.460707 16.472305 -0.236603 -0.179508 0.269245
 21 12.896099 3.303364 -12.884918 -0.527414 -0.167229 -1.166678
 22 9.818134 -2.393091 -11.768444 -0.297832 0.022122 -0.143144
 23 11.684982 2.308931 -7.513317 0.000000 -0.000000 0.000000
 24 3.667336 0.402567 -5.537415 0.000000 -0.000000 0.000000
 25 -8.155169 -0.644957 16.761330 -0.573651 0.465847 -1.041332
 26 -12.364452 3.544247 -13.402779 0.089243 0.463217 0.008887
 27 -10.403900 -2.206009 -11.274452 -1.363361 -0.836536 0.031499
 28 -3.567745 0.641571 -8.254749 0.017710 0.006039 0.014330
 29 -16.089020 -105.559090 -25.635792 0.000000 -0.000000 0.000000
 30 -3.127525 0.571335 -6.062374 0.000000 -0.000000 0.000000
 31 -0.040494 -0.674472 8.862862 0.000000 -0.000000 0.000000
 32 0.289211 3.291785 167.749756 0.000000 -0.000000 0.000000
 33 0.000000 0.000000 0.000000 0.000000 -0.000000 0.000000
time 29
  0 -1.005915 2.634505 0.937462 0.000000 -0.000000 0.000000
  1 -1.005915 2.634505 0.937462 0.000000 -0.000000 0.000000
  2 -1.005915 2.634505 0.937462 0.000000 -0.000000 0.000000
  3 0.000000 0.625948 74.257698 0.033198 0.000000 0.000000
  4 0.325039 0.314665 -2.968956 -0.059596 -0.000000 -0.000000
  5 6.206746 -0.124160 -11.733646 -0.605489 -0.119837 0.112954
  6 2.955698 1.729828 -23.848040 0.653652 0.022350 0.061035
  7 0.292417 0.418317 -30.938559 0.099954 -0.062994 -0.043396
  8 0.025499 -3.137414 -3.970852 0.000000 -0.000000 0.000000
  9 -6.833119 -0.124160 -11.733646 -0.038271 0.137504 -0.187193
 10 -3.240685 1.520660 -23.848042 0.767945 -0.000000 0.000000
 11 -0.355307 0.627470 -30.760895 -0.296706 -0.000000 0.000000
 12 0.209671 -3.137411 -4.537351 0.000000 -0.000000 0.000000
 13 -0.336471 18.320860 -10.789913 0.156793 0.000000 -0.000000
 14 0.011432 14.669044 -0.377853 -0.286875 0.000000 0.000000
 15 0.210528 25.621653 6.087189 0.358901 0.000000 0.000000
 16 0.325039 0.314665 5.117508 -0.290963 -0.053863 -0.199407
 17 -0.409779 2.182661 26.434914 0.330708 0.012712 0.280448
 18 -2.968815 36.066559 32.693207 0.240593 0.003610 -0.042174
 19 -0.380095 -2.640915 16.751846 0.000000 -0.000000 0.000000
 20 7.187246 -0.460705 16.472290 -0.234173 -0.161214 0.298729
 21 12.896097 3.303364 -12.884911 -0.547172 -0.164400 -1.178505
 22 9.818134 -2.393093 -11.768440 -0.284986 0.017837 -0.152863
 23 11.684982 2.308931 -7.513317 0.000000 -0.000000 0.000000
 24 3.667328 0.402561 -5.537415 0.000000 -0.000000 0.000000
 25 -8.155169 -0.644957 16.761330 -0.556308 0.449182 -1.094969
 26 -12.364452 3.544250 -13.402790 0.085958 0.473220 0.009664
 27 -10.403896 -2.206005 -11.274458 -1.377983 -0.850659 0.047096
 28 -3.567745 0.641579 -8.254745 0.015295 -0.001873 0.010064
 29 -16.089027 -105.559052 -25.635780 0.000000 -0.000000 0.000000
 30 -3.127522 0.571327 -6.062370 0.000000 -0.000000 0.000000
 31 -0.040494 -0.674471 8.862862 0.000000 -0.000000 0.000000
 32 0.289211 3.291785 167.749756 0.000000 -0.000000 0.000000
 33 0.000000 0.000000 0.000000 0.000000 -0.000000 0.000000
time 30
  0 -1.005915 2.634505 0.937462 0.000000 -0.000000 0.000000
  1 -1.005915 2.634505 0.937462 0.000000 -0.000000 0.000000
  2 -1.005915 2.634505 0.937462 0.000000 -0.000000 0.000000
  3 0.000000 0.798765 74.257698 0.017453 -0.000000 0.000000
  4 0.325039 0.314665 -2.968964 -0.052360 0.000000 0.000000
  5 6.206746 -0.124160 -11.733646 -0.606304 -0.119753 0.113058
  6 2.955697 1.729832 -23.848038 0.651736 0.022488 0.061322
  7 0.292418 0.418318 -30.938549 0.099954 -0.062994 -0.043396
  8 0.025497 -3.137413 -3.970852 0.000000 -0.000000 0.000000
  9 -6.833119 -0.124160 -11.733646 -0.024251 0.140500 -0.187517
 10 -3.240686 1.520659 -23.848038 0.767945 0.000000 0.000000
 11 -0.355307 0.627470 -30.760899 -0.296706 -0.000000 0.000000
 12 0.209671 -3.137413 -4.537352 0.000000 -0.000000 0.000000
 13 -0.336471 18.320860 -10.789921 0.157080 0.000000 -0.000000
 14 0.011432 14.669044 -0.377853 -0.296707 -0.000000 0.000000
 15 0.210527 25.621655 6.087189 0.349066 0.000000 0.000000
 16 0.325039 0.314665 5.117516 -0.296617 -0.055029 -0.199427
 17 -0.409779 2.182661 26.434906 0.338783 0.012324 0.280882
 18 -2.968814 36.066559 32.693207 0.240593 0.003610 -0.042174
 19 -0.380095 -2.640913 16.751846 0.000000 -0.000000 0.000000
 20 7.187246 -0.460703 16.472290 -0.233362 -0.154832 0.309014
 21 12.896103 3.303356 -12.884903 -0.554064 -0.163431 -1.182623
 22 9.818130 -2.393093 -11.768448 -0.280533 0.016352 -0.156232
 23 11.684982 2.308937 -7.513321 -0.000000 -0.000000 0.000000
 24 3.667336 0.402561 -5.537418 0.000000 -0.000000 0.000000
 25 -8.155169 -0.644955 16.761322 -0.550301 0.443318 -1.113845
 26 -12.364452 3.544243 -13.402786 0.084819 0.476689 0.009933
 27 -10.403896 -2.206005 -11.274464 -1.383084 -0.855585 0.052537
 28 -3.567747 0.641579 -8.254745 0.014458 -0.004616 0.008585
 29 -16.088989 -105.559052 -25.635780 0.000000 -0.000000 0.000000
 30 -3.127527 0.571327 -6.062378 0.000000 -0.000000 0.000000
 31 -0.040495 -0.674471 8.862854 0.000000 -0.000000 0.000000
 32 0.289211 3.291785 167.749756 0.000000 -0.000000 0.000000
 33 0.000000 0.000000 0.000000 0.000000 -0.000000 0.000000
end
