version 1
nodes
  0 "bone33"  -1
  1 "bone36"  -1
  2 "bone24"  -1
  3 "bone19"  -1
  4 "bone18"   3
  5 "bone14"   4
  6 "bone15"   5
  7 "bone17"   6
  8 "bone26"   7
  9 "bone04"   4
 10 "bone20"   9
 11 "bone16"  10
 12 "bone27"  11
 13 "bone06"   3
 14 "bone07"  13
 15 "bone05"  14
 16 "bone11"  15
 17 "bone28"  16
 18 "bone02"  13
 19 "bone03"  18
 20 "bone09"  19
 21 "bone29"  20
 22 "bone01"  13
 23 "bone12"  22
 24 "bone30"  23
 25 "bone10"  22
 26 "bone31"  25
 27 "bone13"  22
 28 "bone08"  22
 29 "bone22"  22
 30 "bone23"  13
end
skeleton
time 0
  0 -5.180422 13.788269 -12.439880 0.000000 -0.000000 0.000000
  1 -5.180422 13.788269 -12.439880 0.000000 -0.000000 0.000000
  2 -4.455341 19.713478 299.953064 0.000000 -0.000000 0.000000
  3 -5.180422 24.449860 135.203812 0.000000 -0.000000 0.000000
  4 0.585070 4.634647 -15.754395 0.000000 -0.000000 0.000000
  5 44.000435 -0.454872 -14.063080 0.000000 -0.000000 0.000000
  6 -1.648884 -14.263249 -46.038212 0.000000 -0.000000 0.000000
  7 1.901329 0.000000 -35.274979 0.000000 -0.000000 0.000000
  8 1.220856 -0.000002 -27.561970 0.000000 -0.000000 0.000000
  9 -35.658195 -1.977135 -14.300323 0.000000 -0.000000 0.000000
 10 2.095196 -12.740984 -45.800964 0.000000 -0.000000 0.000000
 11 -2.525249 0.000000 -34.836559 0.000000 -0.000000 0.000000
 12 -1.229671 -0.000004 -26.461924 0.000000 -0.000000 0.000000
 13 0.585070 -7.537157 44.614456 0.000000 -0.000000 0.000000
 14 -35.591049 -1.703067 41.085190 0.000000 -0.000000 0.000000
 15 -37.563423 14.762664 -50.295151 0.000000 -0.000000 0.000000
 16 -10.963051 -41.811958 -33.818558 0.000000 -0.000000 0.000000
 17 -3.816719 -34.078979 -25.402420 0.000000 -0.000000 0.000000
 18 41.148888 -1.371414 40.606628 0.000000 -0.000000 0.000000
 19 39.457130 17.377466 -50.174316 0.000000 -0.000000 0.000000
 20 11.722168 -44.271454 -32.982773 0.000000 -0.000000 0.000000
 21 2.616638 -33.926411 -25.777000 0.000000 -0.000000 0.000000
 22 -0.737603 -1.090981 42.431580 0.000000 -0.000000 0.000000
 23 59.548912 34.465748 12.781494 0.000000 -0.000000 0.000000
 24 7.710041 -174.312286 82.914429 0.000000 -0.000000 0.000000
 25 -48.533001 34.141430 13.733841 0.000000 -0.000000 0.000000
 26 -11.661724 -173.987976 81.962082 0.000000 -0.000000 0.000000
 27 2.355417 34.156036 13.221283 0.000000 -0.000000 0.000000
 28 3.826381 -24.449577 13.181503 0.000000 -0.000000 0.000000
 29 -0.684172 -11.661072 48.858276 0.000000 -0.000000 0.000000
 30 -0.072890 -1.756191 2.960068 0.000000 -0.000000 0.000000
end
triangles
01_-_Default
  0 -20.135506 -38.631489 194.552338 -0.562222 -0.742072 -0.365015 0.454658 0.370640 1 28 1.000000
  0 15.748341 -38.631489 194.552338 0.562222 -0.742072 -0.365015 0.529985 0.370795 1 28 1.000000
  0 -28.635725 -19.452190 282.220001 -0.608425 -0.450896 0.653079 0.437078 0.469785 1 28 1.000000
01_-_Default
  0 -28.635725 -19.452190 282.220001 -0.608425 -0.450896 0.653079 0.437078 0.469785 1 28 1.000000
  0 15.748341 -38.631489 194.552338 0.562222 -0.742072 -0.365015 0.529985 0.370795 1 28 1.000000
  0 24.248569 -19.452190 282.220001 0.608425 -0.450896 0.653079 0.547857 0.469996 1 28 1.000000
01_-_Default
  0 -28.635725 -19.452190 282.220001 -0.608425 -0.450896 0.653079 0.437078 0.469785 1 28 1.000000
  0 24.248569 -19.452190 282.220001 0.608425 -0.450896 0.653079 0.547857 0.469996 1 28 1.000000
  0 -28.635725 29.095325 273.144379 -0.596010 0.702727 0.388518 0.437079 0.504595 1 28 1.000000
01_-_Default
  0 -28.635725 29.095325 273.144379 -0.596010 0.702727 0.388518 0.437079 0.504595 1 28 1.000000
  0 24.248569 -19.452190 282.220001 0.608425 -0.450896 0.653079 0.547857 0.469996 1 28 1.000000
  0 24.248569 29.095325 273.144379 0.596010 0.702727 0.388518 0.547705 0.504595 1 28 1.000000
01_-_Default
  0 -28.635725 29.095325 273.144379 -0.596010 0.702727 0.388518 0.437079 0.504595 1 28 1.000000
  0 24.248569 29.095325 273.144379 0.596010 0.702727 0.388518 0.547705 0.504595 1 28 1.000000
  0 -20.135506 -5.427029 177.374329 -0.545298 0.295998 -0.784242 0.454859 0.562136 2 28 0.999999 13 0.000001
01_-_Default
  0 -20.135506 -5.427029 177.374329 -0.545298 0.295998 -0.784242 0.454859 0.562136 2 28 0.999999 13 0.000001
  0 24.248569 29.095325 273.144379 0.596010 0.702727 0.388518 0.547705 0.504595 1 28 1.000000
  0 15.748341 -5.427029 177.374329 0.545298 0.295998 -0.784242 0.529923 0.562136 2 28 0.999999 13 0.000001
01_-_Default
  0 -20.135506 -5.427029 177.374329 -0.545298 0.295998 -0.784242 0.454809 0.316756 2 28 0.999999 13 0.000001
  0 15.748341 -5.427029 177.374329 0.545298 0.295998 -0.784242 0.529873 0.316756 2 28 0.999999 13 0.000001
  0 -20.135506 -38.631489 194.552338 -0.562222 -0.742072 -0.365015 0.454658 0.370640 1 28 1.000000
01_-_Default
  0 -20.135506 -38.631489 194.552338 -0.562222 -0.742072 -0.365015 0.454658 0.370640 1 28 1.000000
  0 15.748341 -5.427029 177.374329 0.545298 0.295998 -0.784242 0.529873 0.316756 2 28 0.999999 13 0.000001
  0 15.748341 -38.631489 194.552338 0.562222 -0.742072 -0.365015 0.529985 0.370795 1 28 1.000000
01_-_Default
  0 15.748341 -5.427029 177.374329 0.545298 0.295998 -0.784242 0.688723 0.031256 2 28 0.999999 13 0.000001
  0 24.248569 29.095325 273.144379 0.596010 0.702727 0.388518 0.761815 0.205335 1 28 1.000000
  0 15.748341 -38.631489 194.552338 0.562222 -0.742072 -0.365015 0.674745 0.048676 1 28 1.000000
01_-_Default
  0 15.748341 -38.631489 194.552338 0.562222 -0.742072 -0.365015 0.674745 0.048676 1 28 1.000000
  0 24.248569 29.095325 273.144379 0.596010 0.702727 0.388518 0.761815 0.205335 1 28 1.000000
  0 24.248569 -19.452190 282.220001 0.608425 -0.450896 0.653079 0.684272 0.225243 1 28 1.000000
01_-_Default
  0 -20.135506 -5.427029 177.374329 -0.545298 0.295998 -0.784242 0.688723 0.031256 2 28 0.999999 13 0.000001
  0 -20.135506 -38.631489 194.552338 -0.562222 -0.742072 -0.365015 0.674745 0.048854 1 28 1.000000
  0 -28.635725 29.095325 273.144379 -0.596010 0.702727 0.388518 0.761754 0.205335 1 28 1.000000
01_-_Default
  0 -28.635725 29.095325 273.144379 -0.596010 0.702727 0.388518 0.761754 0.205335 1 28 1.000000
  0 -20.135506 -38.631489 194.552338 -0.562222 -0.742072 -0.365015 0.674745 0.048854 1 28 1.000000
  0 -28.635725 -19.452190 282.220001 -0.608425 -0.450896 0.653079 0.684272 0.225339 1 28 1.000000
01_-_Default
  0 15.211246 -17.026169 202.346634 -0.330182 -0.943801 -0.014837 0.521231 0.597751 1 13 1.000000
  0 36.531887 -17.026169 202.346649 0.680231 -0.621471 -0.388665 0.480823 0.597751 1 13 1.000000
  0 14.097876 -26.201889 228.973846 -0.587234 -0.722346 0.365200 0.520686 0.638469 1 13 1.000000
01_-_Default
  0 14.097876 -26.201889 228.973846 -0.587234 -0.722346 0.365200 0.520686 0.638469 1 13 1.000000
  0 36.531887 -17.026169 202.346649 0.680231 -0.621471 -0.388665 0.480823 0.597751 1 13 1.000000
  0 43.522705 -26.201889 228.973846 0.646249 -0.695682 0.313670 0.480341 0.638469 1 13 1.000000
01_-_Default
  0 43.522705 53.218006 252.536133 0.654592 0.334938 0.677736 0.479894 0.749884 1 13 1.000000
  0 36.531887 68.634216 221.252655 0.686681 0.703341 0.183796 0.479927 0.790903 1 13 1.000000
  0 14.097876 53.218006 252.536133 -0.598213 0.325842 0.732099 0.520048 0.749884 1 13 1.000000
01_-_Default
  0 14.097876 53.218006 252.536133 -0.598213 0.325842 0.732099 0.520048 0.749884 1 13 1.000000
  0 36.531887 68.634216 221.252655 0.686681 0.703341 0.183796 0.479927 0.790903 1 13 1.000000
  0 15.211246 68.634216 221.252655 -0.248076 0.762204 0.597915 0.521694 0.787603 1 13 1.000000
01_-_Default
  0 13.841105 80.060982 187.405746 0.000000 0.806660 -0.591016 0.520170 0.810528 1 13 1.000000
  0 33.080437 80.060982 187.405746 0.533694 0.675986 -0.508147 0.479927 0.810528 1 13 1.000000
  0 13.841105 -12.497931 189.204132 0.000000 -0.588503 -0.808495 0.520170 0.896261 1 13 1.000000
01_-_Default
  0 13.841105 -12.497931 189.204132 0.000000 -0.588503 -0.808495 0.520170 0.896261 1 13 1.000000
  0 33.080437 80.060982 187.405746 0.533694 0.675986 -0.508147 0.479927 0.810528 1 13 1.000000
  0 33.080437 -12.497931 189.204132 0.521569 -0.465416 -0.715090 0.477643 0.898184 1 13 1.000000
01_-_Default
  0 36.531887 68.634216 221.252655 0.686681 0.703341 0.183796 0.352424 0.597751 1 13 1.000000
  0 43.522705 53.218006 252.536133 0.654592 0.334938 0.677736 0.352424 0.637842 1 13 1.000000
  0 36.531887 -17.026169 202.346649 0.680231 -0.621471 -0.388665 0.480823 0.597751 1 13 1.000000
01_-_Default
  0 36.531887 -17.026169 202.346649 0.680231 -0.621471 -0.388665 0.480823 0.597751 1 13 1.000000
  0 43.522705 53.218006 252.536133 0.654592 0.334938 0.677736 0.352424 0.637842 1 13 1.000000
  0 43.522705 -26.201889 228.973846 0.646249 -0.695682 0.313670 0.480341 0.638469 1 13 1.000000
01_-_Default
  0 -40.919060 68.634216 221.252655 -0.686674 0.703346 0.183802 0.352242 0.597751 1 13 1.000000
  0 -40.919060 -17.026169 202.346649 -0.680224 -0.621483 -0.388658 0.480823 0.597751 1 13 1.000000
  0 -47.910767 53.218006 252.536133 -0.654600 0.334940 0.677727 0.352242 0.637842 1 13 1.000000
01_-_Default
  0 -47.910767 53.218006 252.536133 -0.654600 0.334940 0.677727 0.352242 0.637842 1 13 1.000000
  0 -40.919060 -17.026169 202.346649 -0.680224 -0.621483 -0.388658 0.480823 0.597751 1 13 1.000000
  0 -47.910767 -26.201889 228.973846 -0.646257 -0.695678 0.313662 0.480341 0.638469 1 13 1.000000
01_-_Default
  0 14.097876 53.218006 252.536133 -0.598213 0.325842 0.732099 0.520048 0.749884 1 13 1.000000
  0 14.097876 -26.201889 228.973846 -0.587234 -0.722346 0.365200 0.520686 0.638469 1 13 1.000000
  0 43.522705 53.218006 252.536133 0.654592 0.334938 0.677736 0.479894 0.749884 1 13 1.000000
01_-_Default
  0 43.522705 53.218006 252.536133 0.654592 0.334938 0.677736 0.479894 0.749884 1 13 1.000000
  0 14.097876 -26.201889 228.973846 -0.587234 -0.722346 0.365200 0.520686 0.638469 1 13 1.000000
  0 43.522705 -26.201889 228.973846 0.646249 -0.695682 0.313670 0.480341 0.638469 1 13 1.000000
01_-_Default
  0 -20.947657 -17.026169 202.346649 0.331137 -0.943563 -0.006140 0.521231 0.597751 1 13 1.000000
  0 -20.499367 -26.201889 228.973846 0.580014 -0.725378 0.370690 0.520686 0.638469 1 13 1.000000
  0 -40.919060 -17.026169 202.346649 -0.680224 -0.621483 -0.388658 0.480823 0.597751 1 13 1.000000
01_-_Default
  0 -40.919060 -17.026169 202.346649 -0.680224 -0.621483 -0.388658 0.480823 0.597751 1 13 1.000000
  0 -20.499367 -26.201889 228.973846 0.580014 -0.725378 0.370690 0.520686 0.638469 1 13 1.000000
  0 -47.910767 -26.201889 228.973846 -0.646257 -0.695678 0.313662 0.480341 0.638469 1 13 1.000000
01_-_Default
  0 -37.468491 80.060982 187.405746 -0.533701 0.675984 -0.508143 0.479927 0.810528 1 13 1.000000
  0 -19.250229 80.060982 187.405746 0.000000 0.806660 -0.591016 0.520170 0.810528 1 13 1.000000
  0 -37.468491 -12.497931 189.204132 -0.521589 -0.465417 -0.715075 0.477643 0.898184 1 13 1.000000
01_-_Default
  0 -37.468491 -12.497931 189.204132 -0.521589 -0.465417 -0.715075 0.477643 0.898184 1 13 1.000000
  0 -19.250229 80.060982 187.405746 0.000000 0.806660 -0.591016 0.520170 0.810528 1 13 1.000000
  0 -19.250229 -12.497931 189.204132 -0.000000 -0.588503 -0.808495 0.520170 0.896261 1 13 1.000000
01_-_Default
  0 -47.910767 53.218006 252.536133 -0.654600 0.334940 0.677727 0.479894 0.749884 1 13 1.000000
  0 -20.499367 53.218006 252.536133 0.591410 0.324996 0.737978 0.520048 0.749884 1 13 1.000000
  0 -40.919060 68.634216 221.252655 -0.686674 0.703346 0.183802 0.479927 0.790903 1 13 1.000000
01_-_Default
  0 -40.919060 68.634216 221.252655 -0.686674 0.703346 0.183802 0.479927 0.790903 1 13 1.000000
  0 -20.499367 53.218006 252.536133 0.591410 0.324996 0.737978 0.520048 0.749884 1 13 1.000000
  0 -20.947657 68.634216 221.252655 0.248489 0.758945 0.601876 0.521694 0.787603 1 13 1.000000
01_-_Default
  0 -47.910767 53.218006 252.536133 -0.654600 0.334940 0.677727 0.479894 0.749884 1 13 1.000000
  0 -47.910767 -26.201889 228.973846 -0.646257 -0.695678 0.313662 0.480341 0.638469 1 13 1.000000
  0 -20.499367 53.218006 252.536133 0.591410 0.324996 0.737978 0.520048 0.749884 1 13 1.000000
01_-_Default
  0 -20.499367 53.218006 252.536133 0.591410 0.324996 0.737978 0.520048 0.749884 1 13 1.000000
  0 -47.910767 -26.201889 228.973846 -0.646257 -0.695678 0.313662 0.480341 0.638469 1 13 1.000000
  0 -20.499367 -26.201889 228.973846 0.580014 -0.725378 0.370690 0.520686 0.638469 1 13 1.000000
01_-_Default
  0 -19.250229 80.060982 187.405746 0.000000 0.806660 -0.591016 0.568704 0.810528 1 13 1.000000
  0 13.841105 80.060982 187.405746 0.000000 0.806660 -0.591016 0.520170 0.810528 1 13 1.000000
  0 -19.250229 -12.497931 189.204132 -0.000000 -0.588503 -0.808495 0.568704 0.896261 1 13 1.000000
01_-_Default
  0 -19.250229 -12.497931 189.204132 -0.000000 -0.588503 -0.808495 0.568704 0.896261 1 13 1.000000
  0 13.841105 80.060982 187.405746 0.000000 0.806660 -0.591016 0.520170 0.810528 1 13 1.000000
  0 13.841105 -12.497931 189.204132 0.000000 -0.588503 -0.808495 0.520170 0.896261 1 13 1.000000
01_-_Default
  0 13.841105 -12.497931 189.204132 0.000000 -0.588503 -0.808495 0.521231 0.577962 1 13 1.000000
  0 33.080437 -12.497931 189.204132 0.521569 -0.465416 -0.715090 0.480823 0.577962 1 13 1.000000
  0 15.211246 -17.026169 202.346634 -0.330182 -0.943801 -0.014837 0.521231 0.597751 1 13 1.000000
01_-_Default
  0 15.211246 -17.026169 202.346634 -0.330182 -0.943801 -0.014837 0.521231 0.597751 1 13 1.000000
  0 33.080437 -12.497931 189.204132 0.521569 -0.465416 -0.715090 0.480823 0.577962 1 13 1.000000
  0 36.531887 -17.026169 202.346649 0.680231 -0.621471 -0.388665 0.480823 0.597751 1 13 1.000000
01_-_Default
  0 33.080437 80.060982 187.405746 0.533694 0.675986 -0.508147 0.352424 0.577962 1 13 1.000000
  0 36.531887 68.634216 221.252655 0.686681 0.703341 0.183796 0.352424 0.597751 1 13 1.000000
  0 33.080437 -12.497931 189.204132 0.521569 -0.465416 -0.715090 0.480823 0.577962 1 13 1.000000
01_-_Default
  0 33.080437 -12.497931 189.204132 0.521569 -0.465416 -0.715090 0.480823 0.577962 1 13 1.000000
  0 36.531887 68.634216 221.252655 0.686681 0.703341 0.183796 0.352424 0.597751 1 13 1.000000
  0 36.531887 -17.026169 202.346649 0.680231 -0.621471 -0.388665 0.480823 0.597751 1 13 1.000000
01_-_Default
  0 36.531887 68.634216 221.252655 0.686681 0.703341 0.183796 0.479927 0.790903 1 13 1.000000
  0 33.080437 80.060982 187.405746 0.533694 0.675986 -0.508147 0.479927 0.810528 1 13 1.000000
  0 15.211246 68.634216 221.252655 -0.248076 0.762204 0.597915 0.521694 0.787603 1 13 1.000000
01_-_Default
  0 15.211246 68.634216 221.252655 -0.248076 0.762204 0.597915 0.521694 0.787603 1 13 1.000000
  0 33.080437 80.060982 187.405746 0.533694 0.675986 -0.508147 0.479927 0.810528 1 13 1.000000
  0 13.841105 80.060982 187.405746 0.000000 0.806660 -0.591016 0.520170 0.810528 1 13 1.000000
01_-_Default
  0 -20.947657 68.634216 221.252655 0.248489 0.758945 0.601876 0.568704 0.790903 1 13 1.000000
  0 15.211246 68.634216 221.252655 -0.248076 0.762204 0.597915 0.521694 0.787603 1 13 1.000000
  0 -19.250229 80.060982 187.405746 0.000000 0.806660 -0.591016 0.568704 0.810528 1 13 1.000000
01_-_Default
  0 -19.250229 80.060982 187.405746 0.000000 0.806660 -0.591016 0.568704 0.810528 1 13 1.000000
  0 15.211246 68.634216 221.252655 -0.248076 0.762204 0.597915 0.521694 0.787603 1 13 1.000000
  0 13.841105 80.060982 187.405746 0.000000 0.806660 -0.591016 0.520170 0.810528 1 13 1.000000
01_-_Default
  0 -40.919060 68.634216 221.252655 -0.686674 0.703346 0.183802 0.479927 0.790903 1 13 1.000000
  0 -20.947657 68.634216 221.252655 0.248489 0.758945 0.601876 0.521694 0.787603 1 13 1.000000
  0 -37.468491 80.060982 187.405746 -0.533701 0.675984 -0.508143 0.479927 0.810528 1 13 1.000000
01_-_Default
  0 -37.468491 80.060982 187.405746 -0.533701 0.675984 -0.508143 0.479927 0.810528 1 13 1.000000
  0 -20.947657 68.634216 221.252655 0.248489 0.758945 0.601876 0.521694 0.787603 1 13 1.000000
  0 -19.250229 80.060982 187.405746 0.000000 0.806660 -0.591016 0.520170 0.810528 1 13 1.000000
01_-_Default
  0 -37.468491 80.060982 187.405746 -0.533701 0.675984 -0.508143 0.352242 0.577962 1 13 1.000000
  0 -37.468491 -12.497931 189.204132 -0.521589 -0.465417 -0.715075 0.480823 0.577962 1 13 1.000000
  0 -40.919060 68.634216 221.252655 -0.686674 0.703346 0.183802 0.352242 0.597751 1 13 1.000000
01_-_Default
  0 -40.919060 68.634216 221.252655 -0.686674 0.703346 0.183802 0.352242 0.597751 1 13 1.000000
  0 -37.468491 -12.497931 189.204132 -0.521589 -0.465417 -0.715075 0.480823 0.577962 1 13 1.000000
  0 -40.919060 -17.026169 202.346649 -0.680224 -0.621483 -0.388658 0.480823 0.597751 1 13 1.000000
01_-_Default
  0 -19.250229 -12.497931 189.204132 -0.000000 -0.588503 -0.808495 0.521231 0.577962 1 13 1.000000
  0 -20.947657 -17.026169 202.346649 0.331137 -0.943563 -0.006140 0.521231 0.597751 1 13 1.000000
  0 -37.468491 -12.497931 189.204132 -0.521589 -0.465417 -0.715075 0.480823 0.577962 1 13 1.000000
01_-_Default
  0 -37.468491 -12.497931 189.204132 -0.521589 -0.465417 -0.715075 0.480823 0.577962 1 13 1.000000
  0 -20.947657 -17.026169 202.346649 0.331137 -0.943563 -0.006140 0.521231 0.597751 1 13 1.000000
  0 -40.919060 -17.026169 202.346649 -0.680224 -0.621483 -0.388658 0.480823 0.597751 1 13 1.000000
01_-_Default
  0 13.841105 -12.497931 189.204132 0.000000 -0.588503 -0.808495 0.521231 0.577962 1 13 1.000000
  0 15.211246 -17.026169 202.346634 -0.330182 -0.943801 -0.014837 0.521231 0.597751 1 13 1.000000
  0 -19.250229 -12.497931 189.204132 -0.000000 -0.588503 -0.808495 0.569342 0.577962 1 13 1.000000
01_-_Default
  0 -19.250229 -12.497931 189.204132 -0.000000 -0.588503 -0.808495 0.569342 0.577962 1 13 1.000000
  0 15.211246 -17.026169 202.346634 -0.330182 -0.943801 -0.014837 0.521231 0.597751 1 13 1.000000
  0 -20.947657 -17.026169 202.346649 0.331137 -0.943563 -0.006140 0.569342 0.597751 1 13 1.000000
01_-_Default
  0 15.211246 68.634216 221.252655 -0.248076 0.762204 0.597915 0.546877 0.829701 1 13 1.000000
  0 -20.947657 68.634216 221.252655 0.248489 0.758945 0.601876 0.596423 0.833120 1 13 1.000000
  0 15.211246 -17.026169 202.346634 -0.330182 -0.943801 -0.014837 0.552128 0.669284 1 13 1.000000
01_-_Default
  0 15.211246 -17.026169 202.346634 -0.330182 -0.943801 -0.014837 0.552128 0.669284 1 13 1.000000
  0 -20.947657 68.634216 221.252655 0.248489 0.758945 0.601876 0.596423 0.833120 1 13 1.000000
  0 -20.947657 -17.026169 202.346649 0.331137 -0.943563 -0.006140 0.596423 0.669284 1 13 1.000000
01_-_Default
  0 -20.947657 68.634216 221.252655 0.248489 0.758945 0.601876 0.377296 0.680252 1 13 1.000000
  0 -20.499367 53.218006 252.536133 0.591410 0.324996 0.737978 0.317590 0.674648 1 13 1.000000
  0 -20.947657 -17.026169 202.346649 0.331137 -0.943563 -0.006140 0.381175 0.798283 1 13 1.000000
01_-_Default
  0 -20.947657 -17.026169 202.346649 0.331137 -0.943563 -0.006140 0.381175 0.798283 1 13 1.000000
  0 -20.499367 53.218006 252.536133 0.591410 0.324996 0.737978 0.317590 0.674648 1 13 1.000000
  0 -20.499367 -26.201889 228.973846 0.580014 -0.725378 0.370690 0.347344 0.814459 1 13 1.000000
01_-_Default
  0 15.211246 68.634216 221.252655 -0.248076 0.762204 0.597915 0.377424 0.680351 1 13 1.000000
  0 15.211246 -17.026169 202.346634 -0.330182 -0.943801 -0.014837 0.381528 0.798785 1 13 1.000000
  0 14.097876 53.218006 252.536133 -0.598213 0.325842 0.732099 0.317388 0.674007 1 13 1.000000
01_-_Default
  0 14.097876 53.218006 252.536133 -0.598213 0.325842 0.732099 0.317388 0.674007 1 13 1.000000
  0 15.211246 -17.026169 202.346634 -0.330182 -0.943801 -0.014837 0.381528 0.798785 1 13 1.000000
  0 14.097876 -26.201889 228.973846 -0.587234 -0.722346 0.365200 0.347436 0.815101 1 13 1.000000
01_-_Default
  0 -26.764202 11.555173 136.259827 -0.765138 -0.621734 -0.167364 0.387869 0.131924 1 3 1.000000
  0 22.377037 11.555173 136.259827 0.765142 -0.621733 -0.167353 0.445974 0.131924 1 3 1.000000
  0 -25.982500 -11.101679 203.575775 -0.619912 -0.745826 -0.243828 0.368120 0.175937 1 13 1.000000
01_-_Default
  0 -25.982500 -11.101679 203.575775 -0.619912 -0.745826 -0.243828 0.368120 0.175937 1 13 1.000000
  0 22.377037 11.555173 136.259827 0.765142 -0.621733 -0.167353 0.445974 0.131924 1 3 1.000000
  0 21.593615 -11.101679 203.575775 0.619909 -0.745834 -0.243814 0.465722 0.175937 1 13 1.000000
01_-_Default
  0 -25.982500 66.516327 203.575775 -0.564575 0.791491 -0.234089 0.379894 0.981951 1 13 1.000000
  0 21.593615 58.544487 203.575775 0.693962 0.698850 -0.173280 0.286098 0.981951 1 13 1.000000
  0 -26.764202 46.049587 136.259827 -0.765397 0.637635 -0.087113 0.360916 0.943493 1 3 1.000000
01_-_Default
  0 -26.764202 46.049587 136.259827 -0.765397 0.637635 -0.087113 0.360916 0.943493 1 3 1.000000
  0 21.593615 58.544487 203.575775 0.693962 0.698850 -0.173280 0.286098 0.981951 1 13 1.000000
  0 22.377037 46.049587 136.259827 0.763340 0.641883 -0.072785 0.305076 0.943493 1 3 1.000000
01_-_Default
  0 -16.354994 56.104530 76.917404 -0.485985 0.462243 -0.741721 0.360916 0.904855 1 4 1.000000
  0 11.967817 56.104530 76.917404 0.485985 0.462243 -0.741721 0.305076 0.904855 1 4 1.000000
  0 -16.354994 8.874947 109.248749 -0.447599 -0.785910 -0.426614 0.360916 0.837994 1 4 1.000000
01_-_Default
  0 -16.354994 8.874947 109.248749 -0.447599 -0.785910 -0.426614 0.360916 0.837994 1 4 1.000000
  0 11.967817 56.104530 76.917404 0.485985 0.462243 -0.741721 0.305076 0.904855 1 4 1.000000
  0 11.967817 8.874947 109.248749 0.447599 -0.785910 -0.426614 0.305076 0.837994 1 4 1.000000
01_-_Default
  0 22.377037 46.049587 136.259827 0.763340 0.641883 -0.072785 0.283317 0.765209 1 3 1.000000
  0 21.593615 58.544487 203.575775 0.693962 0.698850 -0.173280 0.307949 0.803667 1 13 1.000000
  0 22.377037 11.555173 136.259827 0.765142 -0.621733 -0.167353 0.199594 0.765210 1 3 1.000000
01_-_Default
  0 22.377037 11.555173 136.259827 0.765142 -0.621733 -0.167353 0.199594 0.765210 1 3 1.000000
  0 21.593615 58.544487 203.575775 0.693962 0.698850 -0.173280 0.307949 0.803667 1 13 1.000000
  0 21.593615 -11.101679 203.575775 0.619909 -0.745834 -0.243814 0.154925 0.803668 1 13 1.000000
01_-_Default
  0 -26.764202 46.049587 136.259827 -0.765397 0.637635 -0.087113 0.283121 0.765246 1 3 1.000000
  0 -26.764202 11.555173 136.259827 -0.765138 -0.621734 -0.167364 0.199399 0.765246 1 3 1.000000
  0 -25.982500 66.516327 203.575775 -0.564575 0.791491 -0.234089 0.307754 0.803704 1 13 1.000000
01_-_Default
  0 -25.982500 66.516327 203.575775 -0.564575 0.791491 -0.234089 0.307754 0.803704 1 13 1.000000
  0 -26.764202 11.555173 136.259827 -0.765138 -0.621734 -0.167364 0.199399 0.765246 1 3 1.000000
  0 -25.982500 -11.101679 203.575775 -0.619912 -0.745826 -0.243828 0.154730 0.803704 1 13 1.000000
01_-_Default
  0 -26.764202 46.049587 136.259827 -0.765397 0.637635 -0.087113 0.360916 0.943493 1 3 1.000000
  0 22.377037 46.049587 136.259827 0.763340 0.641883 -0.072785 0.305076 0.943493 1 3 1.000000
  0 -16.354994 56.104530 76.917404 -0.485985 0.462243 -0.741721 0.360916 0.904855 1 4 1.000000
01_-_Default
  0 -16.354994 56.104530 76.917404 -0.485985 0.462243 -0.741721 0.360916 0.904855 1 4 1.000000
  0 22.377037 46.049587 136.259827 0.763340 0.641883 -0.072785 0.305076 0.943493 1 3 1.000000
  0 11.967817 56.104530 76.917404 0.485985 0.462243 -0.741721 0.305076 0.904855 1 4 1.000000
01_-_Default
  0 22.377037 46.049587 136.259827 0.763340 0.641883 -0.072785 0.283317 0.765209 1 3 1.000000
  0 22.377037 11.555173 136.259827 0.765142 -0.621733 -0.167353 0.199594 0.765210 1 3 1.000000
  0 11.967817 56.104530 76.917404 0.485985 0.462243 -0.741721 0.287423 0.726571 1 4 1.000000
01_-_Default
  0 11.967817 56.104530 76.917404 0.485985 0.462243 -0.741721 0.287423 0.726571 1 4 1.000000
  0 22.377037 11.555173 136.259827 0.765142 -0.621733 -0.167353 0.199594 0.765210 1 3 1.000000
  0 11.967817 8.874947 109.248749 0.447599 -0.785910 -0.426614 0.174229 0.659710 1 4 1.000000
01_-_Default
  0 22.377037 11.555173 136.259827 0.765142 -0.621733 -0.167353 0.445974 0.131924 1 3 1.000000
  0 -26.764202 11.555173 136.259827 -0.765138 -0.621734 -0.167364 0.387869 0.131924 1 3 1.000000
  0 11.967817 8.874947 109.248749 0.447599 -0.785910 -0.426614 0.445974 0.011187 1 4 1.000000
01_-_Default
  0 11.967817 8.874947 109.248749 0.447599 -0.785910 -0.426614 0.445974 0.011187 1 4 1.000000
  0 -26.764202 11.555173 136.259827 -0.765138 -0.621734 -0.167364 0.387869 0.131924 1 3 1.000000
  0 -16.354994 8.874947 109.248749 -0.447599 -0.785910 -0.426614 0.387869 0.011187 1 4 1.000000
01_-_Default
  0 -26.764202 46.049587 136.259827 -0.765397 0.637635 -0.087113 0.283121 0.765246 1 3 1.000000
  0 -16.354994 56.104530 76.917404 -0.485985 0.462243 -0.741721 0.287227 0.726608 1 4 1.000000
  0 -26.764202 11.555173 136.259827 -0.765138 -0.621734 -0.167364 0.199399 0.765246 1 3 1.000000
01_-_Default
  0 -26.764202 11.555173 136.259827 -0.765138 -0.621734 -0.167364 0.199399 0.765246 1 3 1.000000
  0 -16.354994 56.104530 76.917404 -0.485985 0.462243 -0.741721 0.287227 0.726608 1 4 1.000000
  0 -16.354994 8.874947 109.248749 -0.447599 -0.785910 -0.426614 0.174033 0.659747 1 4 1.000000
01_-_Default
  0 -47.754086 24.868248 102.351967 0.000000 -0.707107 -0.707107 0.026008 0.694570 1 4 1.000000
  0 43.366898 24.868248 102.351967 0.000000 -0.707107 -0.707107 0.148746 0.694570 1 4 1.000000
  0 -47.754086 24.868248 107.925575 0.000000 -0.707107 0.707107 0.026008 0.712064 1 4 1.000000
01_-_Default
  0 -47.754086 24.868248 107.925575 0.000000 -0.707107 0.707107 0.026008 0.712064 1 4 1.000000
  0 43.366898 24.868248 102.351967 0.000000 -0.707107 -0.707107 0.148746 0.694570 1 4 1.000000
  0 43.366898 24.868248 107.925575 0.000000 -0.707107 0.707107 0.148746 0.712064 1 4 1.000000
01_-_Default
  0 -47.754086 24.868248 107.925575 0.000000 -0.707107 0.707107 0.026008 0.712064 1 4 1.000000
  0 43.366898 24.868248 107.925575 0.000000 -0.707107 0.707107 0.148746 0.712064 1 4 1.000000
  0 -47.754086 30.441950 107.925575 0.000000 0.707107 0.707107 0.026008 0.729558 1 4 1.000000
01_-_Default
  0 -47.754086 30.441950 107.925575 0.000000 0.707107 0.707107 0.026008 0.729558 1 4 1.000000
  0 43.366898 24.868248 107.925575 0.000000 -0.707107 0.707107 0.148746 0.712064 1 4 1.000000
  0 43.366898 30.441950 107.925575 0.000000 0.707107 0.707107 0.148746 0.729558 1 4 1.000000
01_-_Default
  0 -47.754086 30.441950 107.925575 0.000000 0.707107 0.707107 0.026008 0.729558 1 4 1.000000
  0 43.366898 30.441950 107.925575 0.000000 0.707107 0.707107 0.148746 0.729558 1 4 1.000000
  0 -47.754086 30.441950 102.351967 0.000000 0.707107 -0.707107 0.026008 0.747052 1 4 1.000000
01_-_Default
  0 -47.754086 30.441950 102.351967 0.000000 0.707107 -0.707107 0.026008 0.747052 1 4 1.000000
  0 43.366898 30.441950 107.925575 0.000000 0.707107 0.707107 0.148746 0.729558 1 4 1.000000
  0 43.366898 30.441950 102.351967 0.000000 0.707107 -0.707107 0.148746 0.747052 1 4 1.000000
01_-_Default
  0 -47.754086 30.441950 102.351967 0.000000 0.707107 -0.707107 0.026008 0.747052 1 4 1.000000
  0 43.366898 30.441950 102.351967 0.000000 0.707107 -0.707107 0.148746 0.747052 1 4 1.000000
  0 -47.754086 24.868248 102.351967 0.000000 -0.707107 -0.707107 0.026008 0.764546 1 4 1.000000
01_-_Default
  0 -47.754086 24.868248 102.351967 0.000000 -0.707107 -0.707107 0.026008 0.764546 1 4 1.000000
  0 43.366898 30.441950 102.351967 0.000000 0.707107 -0.707107 0.148746 0.747052 1 4 1.000000
  0 43.366898 24.868248 102.351967 0.000000 -0.707107 -0.707107 0.148746 0.764546 1 4 1.000000
01_-_Default
  0 -26.055634 80.902763 144.137711 -0.659682 0.003096 -0.751538 0.874628 0.577286 1 27 1.000000
  0 21.667593 80.902763 144.137711 0.659683 0.003096 -0.751538 0.768349 0.577286 1 27 1.000000
  0 -26.055634 27.198538 267.021545 -0.621779 -0.694940 0.361177 0.875111 0.374417 1 27 1.000000
01_-_Default
  0 -26.055634 27.198538 267.021545 -0.621779 -0.694940 0.361177 0.875111 0.374417 1 27 1.000000
  0 21.667593 80.902763 144.137711 0.659683 0.003096 -0.751538 0.768349 0.577286 1 27 1.000000
  0 21.667593 27.198538 267.021545 0.621780 -0.694940 0.361177 0.768832 0.374417 1 27 1.000000
01_-_Default
  0 -26.055634 27.198538 267.021545 -0.621779 -0.694940 0.361177 0.687924 0.315763 1 27 1.000000
  0 21.667593 27.198538 267.021545 0.621780 -0.694940 0.361177 0.618034 0.315763 1 27 1.000000
  0 -17.574537 88.555138 281.615021 -0.526479 0.535780 0.660121 0.675606 0.226735 1 27 1.000000
01_-_Default
  0 -17.574537 88.555138 281.615021 -0.526479 0.535780 0.660121 0.675606 0.226735 1 27 1.000000
  0 21.667593 27.198538 267.021545 0.621780 -0.694940 0.361177 0.618034 0.315763 1 27 1.000000
  0 13.186491 88.555138 281.615021 0.526479 0.535780 0.660121 0.630574 0.226526 1 27 1.000000
01_-_Default
  0 -17.574537 88.555138 281.615021 -0.526479 0.535780 0.660121 0.675606 0.226735 1 27 1.000000
  0 13.186491 88.555138 281.615021 0.526479 0.535780 0.660121 0.630574 0.226526 1 27 1.000000
  0 -17.574537 89.824303 159.470291 -0.456421 0.881597 -0.120276 0.675891 0.049228 1 27 1.000000
01_-_Default
  0 -17.574537 89.824303 159.470291 -0.456421 0.881597 -0.120276 0.675891 0.049228 1 27 1.000000
  0 13.186491 88.555138 281.615021 0.526479 0.535780 0.660121 0.630574 0.226526 1 27 1.000000
  0 13.186491 89.824303 159.470291 0.456421 0.881597 -0.120276 0.629889 0.049861 1 27 1.000000
01_-_Default
  0 -17.574537 89.824303 159.470291 -0.456421 0.881597 -0.120276 0.675891 0.049228 1 27 1.000000
  0 13.186491 89.824303 159.470291 0.456421 0.881597 -0.120276 0.629889 0.049861 1 27 1.000000
  0 -26.055634 80.902763 144.137711 -0.659682 0.003096 -0.751538 0.688813 0.027073 1 27 1.000000
01_-_Default
  0 -26.055634 80.902763 144.137711 -0.659682 0.003096 -0.751538 0.688813 0.027073 1 27 1.000000
  0 13.186491 89.824303 159.470291 0.456421 0.881597 -0.120276 0.629889 0.049861 1 27 1.000000
  0 21.667593 80.902763 144.137711 0.659683 0.003096 -0.751538 0.617047 0.027836 1 27 1.000000
01_-_Default
  0 21.667593 80.902763 144.137711 0.659683 0.003096 -0.751538 0.688813 0.027073 1 27 1.000000
  0 13.186491 89.824303 159.470291 0.456421 0.881597 -0.120276 0.675891 0.049228 1 27 1.000000
  0 21.667593 27.198538 267.021545 0.621780 -0.694940 0.361177 0.765846 0.206814 1 27 1.000000
01_-_Default
  0 21.667593 27.198538 267.021545 0.621780 -0.694940 0.361177 0.765846 0.206814 1 27 1.000000
  0 13.186491 89.824303 159.470291 0.456421 0.881597 -0.120276 0.675891 0.049228 1 27 1.000000
  0 13.186491 88.555138 281.615021 0.526479 0.535780 0.660121 0.675918 0.226526 1 27 1.000000
01_-_Default
  0 -26.055634 80.902763 144.137711 -0.659682 0.003096 -0.751538 0.688813 0.027073 1 27 1.000000
  0 -26.055634 27.198538 267.021545 -0.621779 -0.694940 0.361177 0.765846 0.206814 1 27 1.000000
  0 -17.574537 89.824303 159.470291 -0.456421 0.881597 -0.120276 0.675891 0.049228 1 27 1.000000
01_-_Default
  0 -17.574537 89.824303 159.470291 -0.456421 0.881597 -0.120276 0.675891 0.049228 1 27 1.000000
  0 -26.055634 27.198538 267.021545 -0.621779 -0.694940 0.361177 0.765846 0.206814 1 27 1.000000
  0 -17.574537 88.555138 281.615021 -0.526479 0.535780 0.660121 0.675606 0.226735 1 27 1.000000
01_-_Default
  0 -57.764599 -5.086664 57.231323 -0.449627 -0.753989 0.478891 0.248479 0.266438 1 10 1.000000
  0 -74.022568 0.643688 16.241491 -0.675709 -0.525546 -0.516933 0.251432 0.194179 1 10 1.000000
  0 -14.339830 0.643688 16.241489 0.625799 -0.524171 -0.577599 0.178586 0.193837 1 10 1.000000
01_-_Default
  0 -57.764599 -5.086664 57.231323 -0.449627 -0.753989 0.478891 0.248479 0.266438 1 10 1.000000
  0 -14.339830 0.643688 16.241489 0.625799 -0.524171 -0.577599 0.178586 0.193837 1 10 1.000000
  0 -21.143515 -5.086664 57.231323 0.532851 -0.725844 0.434995 0.180397 0.266117 1 10 1.000000
01_-_Default
  0 -57.764599 -5.086664 57.231323 -0.449627 -0.753989 0.478891 0.248479 0.266438 1 10 1.000000
  0 -21.143515 -5.086664 57.231323 0.532851 -0.725844 0.434995 0.180397 0.266117 1 10 1.000000
  0 -21.143515 16.530785 66.722687 0.550863 0.094709 0.829205 0.182506 0.334506 1 10 1.000000
01_-_Default
  0 -57.764599 -5.086664 57.231323 -0.449627 -0.753989 0.478891 0.248479 0.266438 1 10 1.000000
  0 -21.143515 16.530785 66.722687 0.550863 0.094709 0.829205 0.182506 0.334506 1 10 1.000000
  0 -57.764599 16.530785 66.722687 -0.473464 0.079286 0.877238 0.245850 0.334506 1 10 1.000000
01_-_Default
  0 -57.764599 16.530785 66.722687 -0.473464 0.079286 0.877238 0.245850 0.334506 1 10 1.000000
  0 -21.143515 16.530785 66.722687 0.550863 0.094709 0.829205 0.182506 0.334506 1 10 1.000000
  0 -18.443298 36.084343 50.724472 0.633156 0.574336 0.518894 0.177836 0.394380 1 10 1.000000
01_-_Default
  0 -57.764599 16.530785 66.722687 -0.473464 0.079286 0.877238 0.245850 0.334506 1 10 1.000000
  0 -18.443298 36.084343 50.724472 0.633156 0.574336 0.518894 0.177836 0.394380 1 10 1.000000
  0 -64.103424 35.965996 51.126038 -0.584332 0.550428 0.596310 0.256815 0.394017 1 10 1.000000
01_-_Default
  0 -74.022568 51.213329 17.609015 -0.628538 0.676052 -0.384569 0.366429 0.017238 1 10 1.000000
  0 -14.339830 51.213329 17.609015 0.589790 0.691765 -0.416664 0.366429 0.176453 1 10 1.000000
  0 -14.339830 0.643688 16.241489 0.625799 -0.524171 -0.577599 0.457466 0.176453 1 10 1.000000
01_-_Default
  0 -74.022568 51.213329 17.609015 -0.628538 0.676052 -0.384569 0.366429 0.017238 1 10 1.000000
  0 -14.339830 0.643688 16.241489 0.625799 -0.524171 -0.577599 0.457466 0.176453 1 10 1.000000
  0 -74.022568 0.643688 16.241491 -0.675709 -0.525546 -0.516933 0.457466 0.017235 1 10 1.000000
01_-_Default
  0 -57.764599 16.530785 66.722687 -0.473464 0.079286 0.877238 0.322096 0.280785 1 10 1.000000
  0 -64.103424 35.965996 51.126038 -0.584332 0.550428 0.596310 0.383109 0.253847 1 10 1.000000
  0 -74.022568 0.643688 16.241491 -0.675709 -0.525546 -0.516933 0.251432 0.194179 1 10 1.000000
01_-_Default
  0 -57.764599 16.530785 66.722687 -0.473464 0.079286 0.877238 0.322096 0.280785 1 10 1.000000
  0 -74.022568 0.643688 16.241491 -0.675709 -0.525546 -0.516933 0.251432 0.194179 1 10 1.000000
  0 -57.764599 -5.086664 57.231323 -0.449627 -0.753989 0.478891 0.248479 0.266438 1 10 1.000000
01_-_Default
  0 -14.339830 0.643688 16.241489 0.625799 -0.524171 -0.577599 0.251203 0.193837 1 10 1.000000
  0 -18.443298 36.084343 50.724472 0.633156 0.574336 0.518894 0.383109 0.253847 1 10 1.000000
  0 -21.143515 16.530785 66.722687 0.550863 0.094709 0.829205 0.320996 0.280099 1 10 1.000000
01_-_Default
  0 -14.339830 0.643688 16.241489 0.625799 -0.524171 -0.577599 0.251203 0.193837 1 10 1.000000
  0 -21.143515 16.530785 66.722687 0.550863 0.094709 0.829205 0.320996 0.280099 1 10 1.000000
  0 -21.143515 -5.086664 57.231323 0.532851 -0.725844 0.434995 0.248479 0.266117 1 10 1.000000
01_-_Default
  0 -74.022568 51.213329 17.609015 -0.628538 0.676052 -0.384569 0.407872 0.197623 1 10 1.000000
  0 -74.022568 0.643688 16.241491 -0.675709 -0.525546 -0.516933 0.251432 0.194179 1 10 1.000000
  0 -64.103424 35.965996 51.126038 -0.584332 0.550428 0.596310 0.383109 0.253847 1 10 1.000000
01_-_Default
  0 -64.103424 35.965996 51.126038 -0.584332 0.550428 0.596310 0.383109 0.253847 1 10 1.000000
  0 -18.443298 36.084343 50.724472 0.633156 0.574336 0.518894 0.445569 0.302387 1 10 1.000000
  0 -14.339830 51.213329 17.609015 0.589790 0.691765 -0.416664 0.487270 0.262937 1 10 1.000000
01_-_Default
  0 -64.103424 35.965996 51.126038 -0.584332 0.550428 0.596310 0.383109 0.253847 1 10 1.000000
  0 -14.339830 51.213329 17.609015 0.589790 0.691765 -0.416664 0.487270 0.262937 1 10 1.000000
  0 -74.022568 51.213329 17.609015 -0.628538 0.676052 -0.384569 0.407872 0.197623 1 10 1.000000
01_-_Default
  0 -14.339830 0.643688 16.241489 0.625799 -0.524171 -0.577599 0.251203 0.193837 1 10 1.000000
  0 -14.339830 51.213329 17.609015 0.589790 0.691765 -0.416664 0.407872 0.197623 1 10 1.000000
  0 -18.443298 36.084343 50.724472 0.633156 0.574336 0.518894 0.383109 0.253847 1 10 1.000000
01_-_Default
  0 -48.133614 -7.906139 233.080841 0.365191 -0.854469 0.369483 0.549779 0.437658 1 14 1.000000
  0 -114.998688 19.383383 205.921692 -0.901605 -0.214910 -0.375395 0.435220 0.486298 1 14 1.000000
  0 -46.090588 2.487383 179.376389 0.299055 -0.509547 -0.806801 0.435220 0.437377 1 14 1.000000
01_-_Default
  0 -94.087151 6.582126 240.337097 -0.543955 -0.600530 0.586069 0.549779 0.486361 1 14 1.000000
  0 -114.998688 19.383383 205.921692 -0.901605 -0.214910 -0.375395 0.435220 0.486298 1 14 1.000000
  0 -48.133614 -7.906139 233.080841 0.365191 -0.854469 0.369483 0.549779 0.437658 1 14 1.000000
01_-_Default
  0 -36.936634 22.859213 242.567291 0.725504 0.135513 0.674745 0.733236 0.920152 1 14 1.000000
  0 -94.087151 6.582126 240.337097 -0.543955 -0.600530 0.586069 0.811489 0.866841 1 14 1.000000
  0 -48.133614 -7.906139 233.080841 0.365191 -0.854469 0.369483 0.733236 0.866841 1 14 1.000000
01_-_Default
  0 -82.889297 37.347389 249.823700 -0.177591 0.406019 0.896443 0.811489 0.920152 1 14 1.000000
  0 -94.087151 6.582126 240.337097 -0.543955 -0.600530 0.586069 0.811489 0.866841 1 14 1.000000
  0 -36.936634 22.859213 242.567291 0.725504 0.135513 0.674745 0.733236 0.920152 1 14 1.000000
01_-_Default
  0 -36.936634 22.859213 242.567291 0.725504 0.135513 0.674745 0.970323 0.868392 1 14 1.000000
  0 -100.586182 58.982319 218.132813 -0.510928 0.858476 -0.044399 0.889785 0.793562 1 14 1.000000
  0 -82.889297 37.347389 249.823700 -0.177591 0.406019 0.896443 0.889785 0.868393 1 14 1.000000
01_-_Default
  0 -31.677204 42.086311 191.587509 0.684209 0.548607 -0.480507 0.970323 0.793560 1 14 1.000000
  0 -100.586182 58.982319 218.132813 -0.510928 0.858476 -0.044399 0.889785 0.793562 1 14 1.000000
  0 -36.936634 22.859213 242.567291 0.725504 0.135513 0.674745 0.970323 0.868392 1 14 1.000000
01_-_Default
  0 -46.090588 2.487383 179.376389 0.299055 -0.509547 -0.806801 0.538486 0.833269 1 14 1.000000
  0 -100.586182 58.982319 218.132813 -0.510928 0.858476 -0.044399 0.600324 0.663842 1 14 1.000000
  0 -31.677204 42.086311 191.587509 0.684209 0.548607 -0.480507 0.538486 0.663842 1 14 1.000000
01_-_Default
  0 -114.998688 19.383383 205.921692 -0.901605 -0.214910 -0.375395 0.600324 0.833269 1 14 1.000000
  0 -100.586182 58.982319 218.132813 -0.510928 0.858476 -0.044399 0.600324 0.663842 1 14 1.000000
  0 -46.090588 2.487383 179.376389 0.299055 -0.509547 -0.806801 0.538486 0.833269 1 14 1.000000
01_-_Default
  0 -94.087151 6.582126 240.337097 -0.543955 -0.600530 0.586069 0.809246 0.868394 1 14 1.000000
  0 -100.586182 58.982319 218.132813 -0.510928 0.858476 -0.044399 0.889785 0.793562 1 14 1.000000
  0 -114.998688 19.383383 205.921692 -0.901605 -0.214910 -0.375395 0.809246 0.793564 1 14 1.000000
01_-_Default
  0 -82.889297 37.347389 249.823700 -0.177591 0.406019 0.896443 0.889785 0.868393 1 14 1.000000
  0 -100.586182 58.982319 218.132813 -0.510928 0.858476 -0.044399 0.889785 0.793562 1 14 1.000000
  0 -94.087151 6.582126 240.337097 -0.543955 -0.600530 0.586069 0.809246 0.868394 1 14 1.000000
01_-_Default
  0 -36.936634 22.859213 242.567291 0.725504 0.135513 0.674745 0.889785 0.868393 1 14 1.000000
  0 -46.090588 2.487383 179.376389 0.299055 -0.509547 -0.806801 0.970323 0.793564 1 14 1.000000
  0 -31.677204 42.086311 191.587509 0.684209 0.548607 -0.480507 0.889785 0.793564 1 14 1.000000
01_-_Default
  0 -48.133614 -7.906139 233.080841 0.365191 -0.854469 0.369483 0.970323 0.868394 1 14 1.000000
  0 -46.090588 2.487383 179.376389 0.299055 -0.509547 -0.806801 0.970323 0.793564 1 14 1.000000
  0 -36.936634 22.859213 242.567291 0.725504 0.135513 0.674745 0.889785 0.868393 1 14 1.000000
01_-_Default
  0 -59.144306 -28.276245 1.423423 -0.622022 -0.470981 0.625512 0.458426 0.059908 1 11 1.000000
  0 -59.287064 -35.600468 -11.960510 -0.558025 -0.714326 -0.422311 0.458567 0.017770 1 11 1.000000
  0 -30.357534 -35.600468 -11.960510 0.557454 -0.714550 -0.422686 0.368391 0.017770 1 11 1.000000
01_-_Default
  0 -59.144306 -28.276245 1.423423 -0.622022 -0.470981 0.625512 0.458426 0.059908 1 11 1.000000
  0 -30.357534 -35.600468 -11.960510 0.557454 -0.714550 -0.422686 0.368391 0.017770 1 11 1.000000
  0 -30.468100 -28.276245 1.423423 0.622822 -0.471034 0.624676 0.368375 0.059908 1 11 1.000000
01_-_Default
  0 -59.144306 -28.276245 1.423423 -0.622022 -0.470981 0.625512 0.458426 0.059908 1 11 1.000000
  0 -30.468100 -28.276245 1.423423 0.622822 -0.471034 0.624676 0.368375 0.059908 1 11 1.000000
  0 -30.468100 21.043394 12.811373 0.648615 -0.171237 0.741604 0.368376 0.174505 1 11 1.000000
01_-_Default
  0 -59.144306 -28.276245 1.423423 -0.622022 -0.470981 0.625512 0.458426 0.059908 1 11 1.000000
  0 -30.468100 21.043394 12.811373 0.648615 -0.171237 0.741604 0.368376 0.174505 1 11 1.000000
  0 -59.144306 21.043394 12.811373 -0.648186 -0.171319 0.741960 0.458426 0.174505 1 11 1.000000
01_-_Default
  0 -59.287064 21.043394 -11.960510 -0.709433 -0.000785 -0.704773 0.539981 0.066442 1 11 1.000000
  0 -30.357534 21.043394 -11.960510 0.708909 -0.000607 -0.705300 0.477981 0.066442 1 11 1.000000
  0 -30.357534 -35.600468 -11.960510 0.557454 -0.714550 -0.422686 0.477981 0.166562 1 11 1.000000
01_-_Default
  0 -59.287064 21.043394 -11.960510 -0.709433 -0.000785 -0.704773 0.539981 0.066442 1 11 1.000000
  0 -30.357534 -35.600468 -11.960510 0.557454 -0.714550 -0.422686 0.477981 0.166562 1 11 1.000000
  0 -59.287064 -35.600468 -11.960510 -0.558025 -0.714326 -0.422311 0.539981 0.166562 1 11 1.000000
01_-_Default
  0 -59.287064 21.043394 -11.960510 -0.709433 -0.000785 -0.704773 0.458309 0.017478 1 11 1.000000
  0 -59.287064 -35.600468 -11.960510 -0.558025 -0.714326 -0.422311 0.556798 0.017478 1 11 1.000000
  0 -59.144306 -28.276245 1.423423 -0.622022 -0.470981 0.625512 0.544064 0.040543 1 11 1.000000
01_-_Default
  0 -59.287064 21.043394 -11.960510 -0.709433 -0.000785 -0.704773 0.458309 0.017478 1 11 1.000000
  0 -59.144306 -28.276245 1.423423 -0.622022 -0.470981 0.625512 0.544064 0.040543 1 11 1.000000
  0 -59.144306 21.043394 12.811373 -0.648186 -0.171319 0.741960 0.458307 0.060167 1 11 1.000000
01_-_Default
  0 -30.468100 -28.276245 1.423423 0.622822 -0.471034 0.624676 0.543586 0.040778 1 11 1.000000
  0 -30.357534 -35.600468 -11.960510 0.557454 -0.714550 -0.422686 0.556320 0.017713 1 11 1.000000
  0 -30.357534 21.043394 -11.960510 0.708909 -0.000607 -0.705300 0.457829 0.017713 1 11 1.000000
01_-_Default
  0 -30.468100 -28.276245 1.423423 0.622822 -0.471034 0.624676 0.543586 0.040778 1 11 1.000000
  0 -30.357534 21.043394 -11.960510 0.708909 -0.000607 -0.705300 0.457829 0.017713 1 11 1.000000
  0 -30.468100 21.043394 12.811373 0.648615 -0.171237 0.741604 0.457829 0.060402 1 11 1.000000
01_-_Default
  0 -59.522961 5.542738 24.219532 -0.521157 -0.802437 0.290672 0.191803 0.059369 1 11 1.000000
  0 -80.488487 5.866560 -12.476428 -0.720368 -0.552781 -0.418932 0.219241 0.018719 1 11 1.000000
  0 -17.032242 5.866560 -12.476428 0.619055 -0.567969 -0.542386 0.136404 0.018506 1 11 1.000000
01_-_Default
  0 -59.522961 5.542738 24.219532 -0.521157 -0.802437 0.290672 0.191803 0.059369 1 11 1.000000
  0 -17.032242 5.866560 -12.476428 0.619055 -0.567969 -0.542386 0.136404 0.018506 1 11 1.000000
  0 -22.004427 5.542738 24.219532 0.669700 -0.737839 0.084231 0.142788 0.059245 1 11 1.000000
01_-_Default
  0 -59.522961 42.044533 24.219532 -0.540344 0.643293 0.542404 0.063155 -0.139000 1 11 1.000000
  0 -22.004427 42.044533 24.219532 0.725458 0.609504 0.319711 0.154192 -0.139000 1 11 1.000000
  0 -17.032242 55.375034 -12.476428 0.595974 0.666251 -0.448246 0.154192 -0.298210 1 11 1.000000
01_-_Default
  0 -59.522961 42.044533 24.219532 -0.540344 0.643293 0.542404 0.063155 -0.139000 1 11 1.000000
  0 -17.032242 55.375034 -12.476428 0.595974 0.666251 -0.448246 0.154192 -0.298210 1 11 1.000000
  0 -80.488487 55.375034 -12.476428 -0.686058 0.632736 -0.359123 0.063155 -0.298210 1 11 1.000000
01_-_Default
  0 -80.488487 55.375034 -12.476428 -0.686058 0.632736 -0.359123 0.366429 0.017238 1 11 1.000000
  0 -17.032242 55.375034 -12.476428 0.595974 0.666251 -0.448246 0.366429 0.176453 1 11 1.000000
  0 -17.032242 5.866560 -12.476428 0.619055 -0.567969 -0.542386 0.457466 0.176453 1 11 1.000000
01_-_Default
  0 -80.488487 55.375034 -12.476428 -0.686058 0.632736 -0.359123 0.366429 0.017238 1 11 1.000000
  0 -17.032242 5.866560 -12.476428 0.619055 -0.567969 -0.542386 0.457466 0.176453 1 11 1.000000
  0 -80.488487 5.866560 -12.476428 -0.720368 -0.552781 -0.418932 0.457466 0.017235 1 11 1.000000
01_-_Default
  0 -59.522961 42.044533 24.219532 -0.540344 0.643293 0.542404 0.058004 0.067756 1 11 1.000000
  0 -80.488487 55.375034 -12.476428 -0.686058 0.632736 -0.359123 0.021571 0.030199 1 11 1.000000
  0 -80.488487 5.866560 -12.476428 -0.720368 -0.552781 -0.418932 0.136404 0.018506 1 11 1.000000
01_-_Default
  0 -59.522961 42.044533 24.219532 -0.540344 0.643293 0.542404 0.058004 0.067756 1 11 1.000000
  0 -80.488487 5.866560 -12.476428 -0.720368 -0.552781 -0.418932 0.136404 0.018506 1 11 1.000000
  0 -59.522961 5.542738 24.219532 -0.521157 -0.802437 0.290672 0.142788 0.059245 1 11 1.000000
01_-_Default
  0 -17.032242 5.866560 -12.476428 0.619055 -0.567969 -0.542386 0.136404 0.018506 1 11 1.000000
  0 -17.032242 55.375034 -12.476428 0.595974 0.666251 -0.448246 0.021571 0.030199 1 11 1.000000
  0 -22.004427 42.044533 24.219532 0.725458 0.609504 0.319711 0.058004 0.067756 1 11 1.000000
01_-_Default
  0 -17.032242 5.866560 -12.476428 0.619055 -0.567969 -0.542386 0.136404 0.018506 1 11 1.000000
  0 -22.004427 42.044533 24.219532 0.725458 0.609504 0.319711 0.058004 0.067756 1 11 1.000000
  0 -22.004427 5.542738 24.219532 0.669700 -0.737839 0.084231 0.142788 0.059245 1 11 1.000000
01_-_Default
  0 -51.949806 5.716845 90.633514 -0.518299 -0.710743 -0.475617 0.152630 0.422179 1 9 1.000000
  0 -28.391996 5.716845 90.633514 0.581587 -0.687016 -0.435621 0.082753 0.421744 1 9 1.000000
  0 -30.893753 20.421844 127.098907 0.562796 -0.361317 0.743445 0.074744 0.501075 1 9 1.000000
01_-_Default
  0 -51.949806 5.716845 90.633514 -0.518299 -0.710743 -0.475617 0.152630 0.422179 1 9 1.000000
  0 -30.893753 20.421844 127.098907 0.562796 -0.361317 0.743445 0.074744 0.501075 1 9 1.000000
  0 -57.123932 20.421844 127.098907 -0.626202 -0.369294 0.686654 0.165709 0.501364 1 9 1.000000
01_-_Default
  0 -57.123932 20.421844 127.098907 -0.626202 -0.369294 0.686654 0.165709 0.501364 1 9 1.000000
  0 -30.893753 20.421844 127.098907 0.562796 -0.361317 0.743445 0.074744 0.501075 1 9 1.000000
  0 -30.893753 57.720093 117.225815 0.542287 0.788425 0.290363 0.074586 0.585906 1 9 1.000000
01_-_Default
  0 -57.123932 20.421844 127.098907 -0.626202 -0.369294 0.686654 0.165709 0.501364 1 9 1.000000
  0 -30.893753 57.720093 117.225815 0.542287 0.788425 0.290363 0.074586 0.585906 1 9 1.000000
  0 -57.123932 57.720093 117.225815 -0.596382 0.761388 0.254198 0.166286 0.585906 1 9 1.000000
01_-_Default
  0 -51.949810 37.649490 89.376579 -0.546705 0.341036 -0.764727 0.151188 0.634922 1 9 1.000000
  0 -57.123932 57.720093 117.225815 -0.596382 0.761388 0.254198 0.166286 0.585906 1 9 1.000000
  0 -30.893753 57.720093 117.225815 0.542287 0.788425 0.290363 0.074586 0.585906 1 9 1.000000
01_-_Default
  0 -51.949810 37.649490 89.376579 -0.546705 0.341036 -0.764727 0.151188 0.634922 1 9 1.000000
  0 -30.893753 57.720093 117.225815 0.542287 0.788425 0.290363 0.074586 0.585906 1 9 1.000000
  0 -28.391996 37.649490 89.376579 0.645532 0.349213 -0.679220 0.082460 0.634922 1 9 1.000000
01_-_Default
  0 -51.949810 37.649490 89.376579 -0.546705 0.341036 -0.764727 0.151787 0.368555 1 9 1.000000
  0 -28.391996 37.649490 89.376579 0.645532 0.349213 -0.679220 0.083059 0.368555 1 9 1.000000
  0 -28.391996 5.716845 90.633514 0.581587 -0.687016 -0.435621 0.082753 0.421744 1 9 1.000000
01_-_Default
  0 -51.949810 37.649490 89.376579 -0.546705 0.341036 -0.764727 0.151787 0.368555 1 9 1.000000
  0 -28.391996 5.716845 90.633514 0.581587 -0.687016 -0.435621 0.082753 0.421744 1 9 1.000000
  0 -51.949806 5.716845 90.633514 -0.518299 -0.710743 -0.475617 0.152630 0.422179 1 9 1.000000
01_-_Default
  0 -57.123932 57.720093 117.225815 -0.596382 0.761388 0.254198 0.235234 0.499806 1 9 1.000000
  0 -51.949810 37.649490 89.376579 -0.546705 0.341036 -0.764727 0.225569 0.445151 1 9 1.000000
  0 -51.949806 5.716845 90.633514 -0.518299 -0.710743 -0.475617 0.152630 0.422179 1 9 1.000000
01_-_Default
  0 -57.123932 57.720093 117.225815 -0.596382 0.761388 0.254198 0.235234 0.499806 1 9 1.000000
  0 -51.949806 5.716845 90.633514 -0.518299 -0.710743 -0.475617 0.152630 0.422179 1 9 1.000000
  0 -57.123932 20.421844 127.098907 -0.626202 -0.369294 0.686654 0.165709 0.501364 1 9 1.000000
01_-_Default
  0 -28.391996 5.716845 90.633514 0.581587 -0.687016 -0.435621 0.152630 0.421744 1 9 1.000000
  0 -28.391996 37.649490 89.376579 0.645532 0.349213 -0.679220 0.225569 0.445151 1 9 1.000000
  0 -30.893753 57.720093 117.225815 0.542287 0.788425 0.290363 0.235234 0.499806 1 9 1.000000
01_-_Default
  0 -28.391996 5.716845 90.633514 0.581587 -0.687016 -0.435621 0.152630 0.421744 1 9 1.000000
  0 -30.893753 57.720093 117.225815 0.542287 0.788425 0.290363 0.235234 0.499806 1 9 1.000000
  0 -30.893753 20.421844 127.098907 0.562796 -0.361317 0.743445 0.165583 0.501075 1 9 1.000000
01_-_Default
  0 -46.760845 3.567618 56.193367 -0.667323 -0.734855 0.121111 0.325386 0.455992 1 9 1.000000
  0 -32.865402 3.567618 56.193367 0.667323 -0.734855 0.121111 0.291298 0.455992 1 9 1.000000
  0 -32.865402 10.362580 97.422485 0.741150 -0.662404 0.109171 0.291298 0.547064 1 9 1.000000
01_-_Default
  0 -46.760845 3.567618 56.193367 -0.667323 -0.734855 0.121111 0.325386 0.455992 1 9 1.000000
  0 -32.865402 10.362580 97.422485 0.741150 -0.662404 0.109171 0.291298 0.547064 1 9 1.000000
  0 -46.760845 10.362580 97.422485 -0.741150 -0.662404 0.109171 0.325386 0.547064 1 9 1.000000
01_-_Default
  0 -46.760845 31.474331 97.422485 -0.667328 0.734853 -0.121096 0.359464 0.547059 1 9 1.000000
  0 -32.865402 31.474331 97.422485 0.667328 0.734853 -0.121096 0.393542 0.547054 1 9 1.000000
  0 -32.865402 24.680222 56.193367 0.741146 0.662410 -0.109158 0.393542 0.455983 1 9 1.000000
01_-_Default
  0 -46.760845 31.474331 97.422485 -0.667328 0.734853 -0.121096 0.359464 0.547059 1 9 1.000000
  0 -32.865402 24.680222 56.193367 0.741146 0.662410 -0.109158 0.393542 0.455983 1 9 1.000000
  0 -46.760845 24.680222 56.193367 -0.741146 0.662410 -0.109158 0.359464 0.455988 1 9 1.000000
01_-_Default
  0 -46.760845 24.680222 56.193367 -0.741146 0.662410 -0.109158 0.359464 0.455988 1 9 1.000000
  0 -46.760845 3.567618 56.193367 -0.667323 -0.734855 0.121111 0.325386 0.455992 1 9 1.000000
  0 -46.760845 10.362580 97.422485 -0.741150 -0.662404 0.109171 0.325386 0.547064 1 9 1.000000
01_-_Default
  0 -46.760845 24.680222 56.193367 -0.741146 0.662410 -0.109158 0.359464 0.455988 1 9 1.000000
  0 -46.760845 10.362580 97.422485 -0.741150 -0.662404 0.109171 0.325386 0.547064 1 9 1.000000
  0 -46.760845 31.474331 97.422485 -0.667328 0.734853 -0.121096 0.359464 0.547059 1 9 1.000000
01_-_Default
  0 -32.865402 3.567618 56.193367 0.667323 -0.734855 0.121111 0.291298 0.455992 1 9 1.000000
  0 -32.865402 24.680222 56.193367 0.741146 0.662410 -0.109158 0.257210 0.455992 1 9 1.000000
  0 -32.865402 31.474331 97.422485 0.667328 0.734853 -0.121096 0.257210 0.547064 1 9 1.000000
01_-_Default
  0 -32.865402 3.567618 56.193367 0.667323 -0.734855 0.121111 0.291298 0.455992 1 9 1.000000
  0 -32.865402 31.474331 97.422485 0.667328 0.734853 -0.121096 0.257210 0.547064 1 9 1.000000
  0 -32.865402 10.362580 97.422485 0.741150 -0.662404 0.109171 0.291298 0.547064 1 9 1.000000
01_-_Default
  0 -82.813576 27.329082 169.871674 -0.658175 -0.751536 -0.044726 0.664967 0.890855 1 14 1.000000
  0 -75.315231 28.802841 166.543839 0.614055 -0.501595 -0.609376 0.641654 0.890855 1 14 1.000000
  0 -59.627407 13.367476 195.056381 0.614078 -0.501564 -0.609378 0.641654 0.962159 1 14 1.000000
01_-_Default
  0 -82.813576 27.329082 169.871674 -0.658175 -0.751536 -0.044726 0.664967 0.890855 1 14 1.000000
  0 -59.627407 13.367476 195.056381 0.614078 -0.501564 -0.609378 0.641654 0.962159 1 14 1.000000
  0 -67.126617 11.894622 198.384201 -0.658191 -0.751523 -0.044691 0.664967 0.962159 1 14 1.000000
01_-_Default
  0 -66.866341 19.279781 202.238739 -0.614090 0.501552 0.609376 0.688265 0.962179 1 14 1.000000
  0 -59.368000 20.753519 198.910889 0.658177 0.751535 0.044705 0.711562 0.962200 1 14 1.000000
  0 -75.054092 36.187943 170.399155 0.658244 0.751478 0.044677 0.711562 0.890896 1 14 1.000000
01_-_Default
  0 -66.866341 19.279781 202.238739 -0.614090 0.501552 0.609376 0.688265 0.962179 1 14 1.000000
  0 -75.054092 36.187943 170.399155 0.658244 0.751478 0.044677 0.711562 0.890896 1 14 1.000000
  0 -82.553284 34.715103 173.727005 -0.614071 0.501565 0.609385 0.688265 0.890876 1 14 1.000000
01_-_Default
  0 -82.553284 34.715103 173.727005 -0.614071 0.501565 0.609385 0.688265 0.890876 1 14 1.000000
  0 -82.813576 27.329082 169.871674 -0.658175 -0.751536 -0.044726 0.664967 0.890855 1 14 1.000000
  0 -67.126617 11.894622 198.384201 -0.658191 -0.751523 -0.044691 0.664967 0.962159 1 14 1.000000
01_-_Default
  0 -82.553284 34.715103 173.727005 -0.614071 0.501565 0.609385 0.688265 0.890876 1 14 1.000000
  0 -67.126617 11.894622 198.384201 -0.658191 -0.751523 -0.044691 0.664967 0.962159 1 14 1.000000
  0 -66.866341 19.279781 202.238739 -0.614090 0.501552 0.609376 0.688265 0.962179 1 14 1.000000
01_-_Default
  0 -75.315231 28.802841 166.543839 0.614055 -0.501595 -0.609376 0.641654 0.890855 1 14 1.000000
  0 -75.054092 36.187943 170.399155 0.658244 0.751478 0.044677 0.618340 0.890855 1 14 1.000000
  0 -59.368000 20.753519 198.910889 0.658177 0.751535 0.044705 0.618340 0.962159 1 14 1.000000
01_-_Default
  0 -75.315231 28.802841 166.543839 0.614055 -0.501595 -0.609376 0.641654 0.890855 1 14 1.000000
  0 -59.368000 20.753519 198.910889 0.658177 0.751535 0.044705 0.618340 0.962159 1 14 1.000000
  0 -59.627407 13.367476 195.056381 0.614078 -0.501564 -0.609378 0.641654 0.962159 1 14 1.000000
01_-_Default
  0 56.046280 -5.086666 57.231323 0.449627 -0.753989 0.478891 0.248479 0.266438 1 6 1.000000
  0 12.621559 0.643687 16.241489 -0.625799 -0.524171 -0.577599 0.178586 0.193837 1 6 1.000000
  0 72.304237 0.643687 16.241491 0.675708 -0.525546 -0.516933 0.251432 0.194179 1 6 1.000000
01_-_Default
  0 56.046280 -5.086666 57.231323 0.449627 -0.753989 0.478891 0.248479 0.266438 1 6 1.000000
  0 19.425245 -5.086666 57.231323 -0.532851 -0.725844 0.434995 0.180397 0.266117 1 6 1.000000
  0 12.621559 0.643687 16.241489 -0.625799 -0.524171 -0.577599 0.178586 0.193837 1 6 1.000000
01_-_Default
  0 56.046280 -5.086666 57.231323 0.449627 -0.753989 0.478891 0.248479 0.266438 1 6 1.000000
  0 19.425245 16.530783 66.722687 -0.550863 0.094708 0.829205 0.182506 0.334506 1 6 1.000000
  0 19.425245 -5.086666 57.231323 -0.532851 -0.725844 0.434995 0.180397 0.266117 1 6 1.000000
01_-_Default
  0 56.046280 -5.086666 57.231323 0.449627 -0.753989 0.478891 0.248479 0.266438 1 6 1.000000
  0 56.046280 16.530783 66.722687 0.473464 0.079286 0.877238 0.245850 0.334506 1 6 1.000000
  0 19.425245 16.530783 66.722687 -0.550863 0.094708 0.829205 0.182506 0.334506 1 6 1.000000
01_-_Default
  0 56.046280 16.530783 66.722687 0.473464 0.079286 0.877238 0.245850 0.334506 1 6 1.000000
  0 16.725002 36.084343 50.724472 -0.633157 0.574336 0.518894 0.177836 0.394380 1 6 1.000000
  0 19.425245 16.530783 66.722687 -0.550863 0.094708 0.829205 0.182506 0.334506 1 6 1.000000
01_-_Default
  0 56.046280 16.530783 66.722687 0.473464 0.079286 0.877238 0.245850 0.334506 1 6 1.000000
  0 62.385120 35.965996 51.126038 0.584332 0.550428 0.596309 0.256815 0.394017 1 6 1.000000
  0 16.725002 36.084343 50.724472 -0.633157 0.574336 0.518894 0.177836 0.394380 1 6 1.000000
01_-_Default
  0 72.304237 51.213329 17.609015 0.628538 0.676052 -0.384570 0.366429 0.017238 1 6 1.000000
  0 12.621559 0.643687 16.241489 -0.625799 -0.524171 -0.577599 0.457466 0.176453 1 6 1.000000
  0 12.621559 51.213329 17.609015 -0.589790 0.691765 -0.416665 0.366429 0.176453 1 6 1.000000
01_-_Default
  0 72.304237 51.213329 17.609015 0.628538 0.676052 -0.384570 0.366429 0.017238 1 6 1.000000
  0 72.304237 0.643687 16.241491 0.675708 -0.525546 -0.516933 0.457466 0.017235 1 6 1.000000
  0 12.621559 0.643687 16.241489 -0.625799 -0.524171 -0.577599 0.457466 0.176453 1 6 1.000000
01_-_Default
  0 56.046280 16.530783 66.722687 0.473464 0.079286 0.877238 0.322096 0.280785 1 6 1.000000
  0 72.304237 0.643687 16.241491 0.675708 -0.525546 -0.516933 0.251432 0.194179 1 6 1.000000
  0 62.385120 35.965996 51.126038 0.584332 0.550428 0.596309 0.383109 0.253847 1 6 1.000000
01_-_Default
  0 56.046280 16.530783 66.722687 0.473464 0.079286 0.877238 0.322096 0.280785 1 6 1.000000
  0 56.046280 -5.086666 57.231323 0.449627 -0.753989 0.478891 0.248479 0.266438 1 6 1.000000
  0 72.304237 0.643687 16.241491 0.675708 -0.525546 -0.516933 0.251432 0.194179 1 6 1.000000
01_-_Default
  0 12.621559 0.643687 16.241489 -0.625799 -0.524171 -0.577599 0.251203 0.193837 1 6 1.000000
  0 19.425245 16.530783 66.722687 -0.550863 0.094708 0.829205 0.320996 0.280099 1 6 1.000000
  0 16.725002 36.084343 50.724472 -0.633157 0.574336 0.518894 0.383109 0.253847 1 6 1.000000
01_-_Default
  0 12.621559 0.643687 16.241489 -0.625799 -0.524171 -0.577599 0.251203 0.193837 1 6 1.000000
  0 19.425245 -5.086666 57.231323 -0.532851 -0.725844 0.434995 0.248479 0.266117 1 6 1.000000
  0 19.425245 16.530783 66.722687 -0.550863 0.094708 0.829205 0.320996 0.280099 1 6 1.000000
01_-_Default
  0 72.304237 51.213329 17.609015 0.628538 0.676052 -0.384570 0.407872 0.197623 1 6 1.000000
  0 62.385120 35.965996 51.126038 0.584332 0.550428 0.596309 0.383109 0.253847 1 6 1.000000
  0 72.304237 0.643687 16.241491 0.675708 -0.525546 -0.516933 0.251432 0.194179 1 6 1.000000
01_-_Default
  0 62.385120 35.965996 51.126038 0.584332 0.550428 0.596309 0.383109 0.253847 1 6 1.000000
  0 12.621559 51.213329 17.609015 -0.589790 0.691765 -0.416665 0.487270 0.262937 1 6 1.000000
  0 16.725002 36.084343 50.724472 -0.633157 0.574336 0.518894 0.445569 0.302387 1 6 1.000000
01_-_Default
  0 62.385120 35.965996 51.126038 0.584332 0.550428 0.596309 0.383109 0.253847 1 6 1.000000
  0 72.304237 51.213329 17.609015 0.628538 0.676052 -0.384570 0.407872 0.197623 1 6 1.000000
  0 12.621559 51.213329 17.609015 -0.589790 0.691765 -0.416665 0.487270 0.262937 1 6 1.000000
01_-_Default
  0 12.621559 0.643687 16.241489 -0.625799 -0.524171 -0.577599 0.251203 0.193837 1 6 1.000000
  0 16.725002 36.084343 50.724472 -0.633157 0.574336 0.518894 0.383109 0.253847 1 6 1.000000
  0 12.621559 51.213329 17.609015 -0.589790 0.691765 -0.416665 0.407872 0.197623 1 6 1.000000
01_-_Default
  0 46.415295 -7.906137 233.080841 -0.365177 -0.854474 0.369486 0.549779 0.437658 1 18 1.000000
  0 44.371422 2.487384 179.376389 -0.299058 -0.509547 -0.806800 0.435220 0.437377 1 18 1.000000
  0 113.280357 19.383383 205.921692 0.901605 -0.214909 -0.375396 0.435220 0.486298 1 18 1.000000
01_-_Default
  0 92.368774 6.582127 240.337097 0.543955 -0.600530 0.586069 0.549779 0.486361 1 18 1.000000
  0 46.415295 -7.906137 233.080841 -0.365177 -0.854474 0.369486 0.549779 0.437658 1 18 1.000000
  0 113.280357 19.383383 205.921692 0.901605 -0.214909 -0.375396 0.435220 0.486298 1 18 1.000000
01_-_Default
  0 35.217476 22.859215 242.567291 -0.725504 0.135509 0.674745 0.733236 0.920152 1 18 1.000000
  0 46.415295 -7.906137 233.080841 -0.365177 -0.854474 0.369486 0.733236 0.866841 1 18 1.000000
  0 92.368774 6.582127 240.337097 0.543955 -0.600530 0.586069 0.811489 0.866841 1 18 1.000000
01_-_Default
  0 81.170937 37.347389 249.823700 0.177594 0.406018 0.896443 0.811489 0.920152 1 18 1.000000
  0 35.217476 22.859215 242.567291 -0.725504 0.135509 0.674745 0.733236 0.920152 1 18 1.000000
  0 92.368774 6.582127 240.337097 0.543955 -0.600530 0.586069 0.811489 0.866841 1 18 1.000000
01_-_Default
  0 35.217476 22.859215 242.567291 -0.725504 0.135509 0.674745 0.970323 0.868392 1 18 1.000000
  0 81.170937 37.347389 249.823700 0.177594 0.406018 0.896443 0.889785 0.868393 1 18 1.000000
  0 98.867767 58.982319 218.132813 0.510928 0.858476 -0.044400 0.889785 0.793562 1 18 1.000000
01_-_Default
  0 29.958025 42.086311 191.587509 -0.684210 0.548608 -0.480506 0.970323 0.793560 1 18 1.000000
  0 35.217476 22.859215 242.567291 -0.725504 0.135509 0.674745 0.970323 0.868392 1 18 1.000000
  0 98.867767 58.982319 218.132813 0.510928 0.858476 -0.044400 0.889785 0.793562 1 18 1.000000
01_-_Default
  0 44.371422 2.487384 179.376389 -0.299058 -0.509547 -0.806800 0.538486 0.833269 1 18 1.000000
  0 29.958025 42.086311 191.587509 -0.684210 0.548608 -0.480506 0.538486 0.663842 1 18 1.000000
  0 98.867767 58.982319 218.132813 0.510928 0.858476 -0.044400 0.600324 0.663842 1 18 1.000000
01_-_Default
  0 113.280357 19.383383 205.921692 0.901605 -0.214909 -0.375396 0.600324 0.833269 1 18 1.000000
  0 44.371422 2.487384 179.376389 -0.299058 -0.509547 -0.806800 0.538486 0.833269 1 18 1.000000
  0 98.867767 58.982319 218.132813 0.510928 0.858476 -0.044400 0.600324 0.663842 1 18 1.000000
01_-_Default
  0 92.368774 6.582127 240.337097 0.543955 -0.600530 0.586069 0.809246 0.868394 1 18 1.000000
  0 113.280357 19.383383 205.921692 0.901605 -0.214909 -0.375396 0.809246 0.793564 1 18 1.000000
  0 98.867767 58.982319 218.132813 0.510928 0.858476 -0.044400 0.889785 0.793562 1 18 1.000000
01_-_Default
  0 81.170937 37.347389 249.823700 0.177594 0.406018 0.896443 0.889785 0.868393 1 18 1.000000
  0 92.368774 6.582127 240.337097 0.543955 -0.600530 0.586069 0.809246 0.868394 1 18 1.000000
  0 98.867767 58.982319 218.132813 0.510928 0.858476 -0.044400 0.889785 0.793562 1 18 1.000000
01_-_Default
  0 35.217476 22.859215 242.567291 -0.725504 0.135509 0.674745 0.889785 0.868393 1 18 1.000000
  0 29.958025 42.086311 191.587509 -0.684210 0.548608 -0.480506 0.889785 0.793564 1 18 1.000000
  0 44.371422 2.487384 179.376389 -0.299058 -0.509547 -0.806800 0.970323 0.793564 1 18 1.000000
01_-_Default
  0 46.415295 -7.906137 233.080841 -0.365177 -0.854474 0.369486 0.970323 0.868394 1 18 1.000000
  0 35.217476 22.859215 242.567291 -0.725504 0.135509 0.674745 0.889785 0.868393 1 18 1.000000
  0 44.371422 2.487384 179.376389 -0.299058 -0.509547 -0.806800 0.970323 0.793564 1 18 1.000000
01_-_Default
  0 57.425133 -28.276245 1.423419 0.622044 -0.470983 0.625489 0.458426 0.059908 1 7 1.000000
  0 28.638391 -35.600468 -11.960513 -0.557454 -0.714550 -0.422686 0.368391 0.017770 1 7 1.000000
  0 57.567020 -35.600468 -11.960513 0.558009 -0.714332 -0.422321 0.458567 0.017770 1 7 1.000000
01_-_Default
  0 57.425133 -28.276245 1.423419 0.622044 -0.470983 0.625489 0.458426 0.059908 1 7 1.000000
  0 28.748945 -28.276245 1.423419 -0.622822 -0.471034 0.624676 0.368375 0.059908 1 7 1.000000
  0 28.638391 -35.600468 -11.960513 -0.557454 -0.714550 -0.422686 0.368391 0.017770 1 7 1.000000
01_-_Default
  0 57.425133 -28.276245 1.423419 0.622044 -0.470983 0.625489 0.458426 0.059908 1 7 1.000000
  0 28.748945 21.043392 12.811371 -0.648615 -0.171237 0.741604 0.368376 0.174505 1 7 1.000000
  0 28.748945 -28.276245 1.423419 -0.622822 -0.471034 0.624676 0.368375 0.059908 1 7 1.000000
01_-_Default
  0 57.425133 -28.276245 1.423419 0.622044 -0.470983 0.625489 0.458426 0.059908 1 7 1.000000
  0 57.425133 21.043392 12.811371 0.648197 -0.171317 0.741951 0.458426 0.174505 1 7 1.000000
  0 28.748945 21.043392 12.811371 -0.648615 -0.171237 0.741604 0.368376 0.174505 1 7 1.000000
01_-_Default
  0 57.567020 21.043392 -11.960513 0.709418 -0.000780 -0.704787 0.539981 0.066442 1 7 1.000000
  0 28.638391 -35.600468 -11.960513 -0.557454 -0.714550 -0.422686 0.477981 0.166562 1 7 1.000000
  0 28.638391 21.043392 -11.960513 -0.708909 -0.000607 -0.705300 0.477981 0.066442 1 7 1.000000
01_-_Default
  0 57.567020 21.043392 -11.960513 0.709418 -0.000780 -0.704787 0.539981 0.066442 1 7 1.000000
  0 57.567020 -35.600468 -11.960513 0.558009 -0.714332 -0.422321 0.539981 0.166562 1 7 1.000000
  0 28.638391 -35.600468 -11.960513 -0.557454 -0.714550 -0.422686 0.477981 0.166562 1 7 1.000000
01_-_Default
  0 57.567020 21.043392 -11.960513 0.709418 -0.000780 -0.704787 0.458309 0.017478 1 7 1.000000
  0 57.425133 -28.276245 1.423419 0.622044 -0.470983 0.625489 0.544064 0.040543 1 7 1.000000
  0 57.567020 -35.600468 -11.960513 0.558009 -0.714332 -0.422321 0.556798 0.017478 1 7 1.000000
01_-_Default
  0 57.567020 21.043392 -11.960513 0.709418 -0.000780 -0.704787 0.458309 0.017478 1 7 1.000000
  0 57.425133 21.043392 12.811371 0.648197 -0.171317 0.741951 0.458307 0.060167 1 7 1.000000
  0 57.425133 -28.276245 1.423419 0.622044 -0.470983 0.625489 0.544064 0.040543 1 7 1.000000
01_-_Default
  0 28.748945 -28.276245 1.423419 -0.622822 -0.471034 0.624676 0.543586 0.040778 1 7 1.000000
  0 28.638391 21.043392 -11.960513 -0.708909 -0.000607 -0.705300 0.457829 0.017713 1 7 1.000000
  0 28.638391 -35.600468 -11.960513 -0.557454 -0.714550 -0.422686 0.556320 0.017713 1 7 1.000000
01_-_Default
  0 28.748945 -28.276245 1.423419 -0.622822 -0.471034 0.624676 0.543586 0.040778 1 7 1.000000
  0 28.748945 21.043392 12.811371 -0.648615 -0.171237 0.741604 0.457829 0.060402 1 7 1.000000
  0 28.638391 21.043392 -11.960513 -0.708909 -0.000607 -0.705300 0.457829 0.017713 1 7 1.000000
01_-_Default
  0 57.803787 5.542737 24.219528 0.521157 -0.802437 0.290672 0.191803 0.059369 1 7 1.000000
  0 15.313946 5.866560 -12.476432 -0.619055 -0.567969 -0.542386 0.136404 0.018506 1 7 1.000000
  0 78.769287 5.866560 -12.476432 0.720367 -0.552781 -0.418932 0.219241 0.018719 1 7 1.000000
01_-_Default
  0 57.803787 5.542737 24.219528 0.521157 -0.802437 0.290672 0.191803 0.059369 1 7 1.000000
  0 20.286140 5.542737 24.219528 -0.669700 -0.737840 0.084231 0.142788 0.059245 1 7 1.000000
  0 15.313946 5.866560 -12.476432 -0.619055 -0.567969 -0.542386 0.136404 0.018506 1 7 1.000000
01_-_Default
  0 57.803787 42.044533 24.219528 0.540345 0.643293 0.542403 0.063155 -0.139000 1 7 1.000000
  0 15.313946 55.375034 -12.476432 -0.595974 0.666251 -0.448246 0.154192 -0.298210 1 7 1.000000
  0 20.286140 42.044533 24.219528 -0.725458 0.609505 0.319711 0.154192 -0.139000 1 7 1.000000
01_-_Default
  0 57.803787 42.044533 24.219528 0.540345 0.643293 0.542403 0.063155 -0.139000 1 7 1.000000
  0 78.769287 55.375034 -12.476432 0.686058 0.632736 -0.359123 0.063155 -0.298210 1 7 1.000000
  0 15.313946 55.375034 -12.476432 -0.595974 0.666251 -0.448246 0.154192 -0.298210 1 7 1.000000
01_-_Default
  0 78.769287 55.375034 -12.476432 0.686058 0.632736 -0.359123 0.366429 0.017238 1 7 1.000000
  0 15.313946 5.866560 -12.476432 -0.619055 -0.567969 -0.542386 0.457466 0.176453 1 7 1.000000
  0 15.313946 55.375034 -12.476432 -0.595974 0.666251 -0.448246 0.366429 0.176453 1 7 1.000000
01_-_Default
  0 78.769287 55.375034 -12.476432 0.686058 0.632736 -0.359123 0.366429 0.017238 1 7 1.000000
  0 78.769287 5.866560 -12.476432 0.720367 -0.552781 -0.418932 0.457466 0.017235 1 7 1.000000
  0 15.313946 5.866560 -12.476432 -0.619055 -0.567969 -0.542386 0.457466 0.176453 1 7 1.000000
01_-_Default
  0 57.803787 42.044533 24.219528 0.540345 0.643293 0.542403 0.058004 0.067756 1 7 1.000000
  0 78.769287 5.866560 -12.476432 0.720367 -0.552781 -0.418932 0.136404 0.018506 1 7 1.000000
  0 78.769287 55.375034 -12.476432 0.686058 0.632736 -0.359123 0.021571 0.030199 1 7 1.000000
01_-_Default
  0 57.803787 42.044533 24.219528 0.540345 0.643293 0.542403 0.058004 0.067756 1 7 1.000000
  0 57.803787 5.542737 24.219528 0.521157 -0.802437 0.290672 0.142788 0.059245 1 7 1.000000
  0 78.769287 5.866560 -12.476432 0.720367 -0.552781 -0.418932 0.136404 0.018506 1 7 1.000000
01_-_Default
  0 15.313946 5.866560 -12.476432 -0.619055 -0.567969 -0.542386 0.136404 0.018506 1 7 1.000000
  0 20.286140 42.044533 24.219528 -0.725458 0.609505 0.319711 0.058004 0.067756 1 7 1.000000
  0 15.313946 55.375034 -12.476432 -0.595974 0.666251 -0.448246 0.021571 0.030199 1 7 1.000000
01_-_Default
  0 15.313946 5.866560 -12.476432 -0.619055 -0.567969 -0.542386 0.136404 0.018506 1 7 1.000000
  0 20.286140 5.542737 24.219528 -0.669700 -0.737840 0.084231 0.142788 0.059245 1 7 1.000000
  0 20.286140 42.044533 24.219528 -0.725458 0.609505 0.319711 0.058004 0.067756 1 7 1.000000
01_-_Default
  0 50.230602 5.716844 90.633514 0.518291 -0.710745 -0.475621 0.152630 0.422179 1 5 1.000000
  0 29.174601 20.421841 127.098907 -0.562796 -0.361317 0.743445 0.074744 0.501075 1 5 1.000000
  0 26.672853 5.716844 90.633514 -0.581587 -0.687016 -0.435621 0.082753 0.421744 1 5 1.000000
01_-_Default
  0 50.230602 5.716844 90.633514 0.518291 -0.710745 -0.475621 0.152630 0.422179 1 5 1.000000
  0 55.405609 20.421841 127.098907 0.626208 -0.369296 0.686647 0.165709 0.501364 1 5 1.000000
  0 29.174601 20.421841 127.098907 -0.562796 -0.361317 0.743445 0.074744 0.501075 1 5 1.000000
01_-_Default
  0 55.405609 20.421841 127.098907 0.626208 -0.369296 0.686647 0.165709 0.501364 1 5 1.000000
  0 29.174601 57.720093 117.225815 -0.542287 0.788425 0.290363 0.074586 0.585906 1 5 1.000000
  0 29.174601 20.421841 127.098907 -0.562796 -0.361317 0.743445 0.074744 0.501075 1 5 1.000000
01_-_Default
  0 55.405609 20.421841 127.098907 0.626208 -0.369296 0.686647 0.165709 0.501364 1 5 1.000000
  0 55.405609 57.720093 117.225815 0.596388 0.761385 0.254194 0.166286 0.585906 1 5 1.000000
  0 29.174601 57.720093 117.225815 -0.542287 0.788425 0.290363 0.074586 0.585906 1 5 1.000000
01_-_Default
  0 50.230602 37.649490 89.376579 0.546693 0.341036 -0.764736 0.151188 0.634922 1 5 1.000000
  0 29.174601 57.720093 117.225815 -0.542287 0.788425 0.290363 0.074586 0.585906 1 5 1.000000
  0 55.405609 57.720093 117.225815 0.596388 0.761385 0.254194 0.166286 0.585906 1 5 1.000000
01_-_Default
  0 50.230602 37.649490 89.376579 0.546693 0.341036 -0.764736 0.151188 0.634922 1 5 1.000000
  0 26.672853 37.649490 89.376579 -0.645532 0.349213 -0.679220 0.082460 0.634922 1 5 1.000000
  0 29.174601 57.720093 117.225815 -0.542287 0.788425 0.290363 0.074586 0.585906 1 5 1.000000
01_-_Default
  0 50.230602 37.649490 89.376579 0.546693 0.341036 -0.764736 0.151787 0.368555 1 5 1.000000
  0 26.672853 5.716844 90.633514 -0.581587 -0.687016 -0.435621 0.082753 0.421744 1 5 1.000000
  0 26.672853 37.649490 89.376579 -0.645532 0.349213 -0.679220 0.083059 0.368555 1 5 1.000000
01_-_Default
  0 50.230602 37.649490 89.376579 0.546693 0.341036 -0.764736 0.151787 0.368555 1 5 1.000000
  0 50.230602 5.716844 90.633514 0.518291 -0.710745 -0.475621 0.152630 0.422179 1 5 1.000000
  0 26.672853 5.716844 90.633514 -0.581587 -0.687016 -0.435621 0.082753 0.421744 1 5 1.000000
01_-_Default
  0 55.405609 57.720093 117.225815 0.596388 0.761385 0.254194 0.235234 0.499806 1 5 1.000000
  0 50.230602 5.716844 90.633514 0.518291 -0.710745 -0.475621 0.152630 0.422179 1 5 1.000000
  0 50.230602 37.649490 89.376579 0.546693 0.341036 -0.764736 0.225569 0.445151 1 5 1.000000
01_-_Default
  0 55.405609 57.720093 117.225815 0.596388 0.761385 0.254194 0.235234 0.499806 1 5 1.000000
  0 55.405609 20.421841 127.098907 0.626208 -0.369296 0.686647 0.165709 0.501364 1 5 1.000000
  0 50.230602 5.716844 90.633514 0.518291 -0.710745 -0.475621 0.152630 0.422179 1 5 1.000000
01_-_Default
  0 26.672853 5.716844 90.633514 -0.581587 -0.687016 -0.435621 0.152630 0.421744 1 5 1.000000
  0 29.174601 57.720093 117.225815 -0.542287 0.788425 0.290363 0.235234 0.499806 1 5 1.000000
  0 26.672853 37.649490 89.376579 -0.645532 0.349213 -0.679220 0.225569 0.445151 1 5 1.000000
01_-_Default
  0 26.672853 5.716844 90.633514 -0.581587 -0.687016 -0.435621 0.152630 0.421744 1 5 1.000000
  0 29.174601 20.421841 127.098907 -0.562796 -0.361317 0.743445 0.165583 0.501075 1 5 1.000000
  0 29.174601 57.720093 117.225815 -0.542287 0.788425 0.290363 0.235234 0.499806 1 5 1.000000
01_-_Default
  0 45.042553 3.567617 56.193367 0.667323 -0.734855 0.121111 0.325386 0.455992 1 5 1.000000
  0 31.146250 10.362579 97.422485 -0.741150 -0.662404 0.109171 0.291298 0.547064 1 5 1.000000
  0 31.146250 3.567617 56.193367 -0.667323 -0.734855 0.121111 0.291298 0.455992 1 5 1.000000
01_-_Default
  0 45.042553 3.567617 56.193367 0.667323 -0.734855 0.121111 0.325386 0.455992 1 5 1.000000
  0 45.042553 10.362579 97.422485 0.741150 -0.662404 0.109171 0.325386 0.547064 1 5 1.000000
  0 31.146250 10.362579 97.422485 -0.741150 -0.662404 0.109171 0.291298 0.547064 1 5 1.000000
01_-_Default
  0 45.042553 31.474329 97.422485 0.667328 0.734853 -0.121096 0.359464 0.547059 1 5 1.000000
  0 31.146250 24.680222 56.193367 -0.741146 0.662410 -0.109158 0.393542 0.455983 1 5 1.000000
  0 31.146250 31.474329 97.422485 -0.667328 0.734853 -0.121096 0.393542 0.547054 1 5 1.000000
01_-_Default
  0 45.042553 31.474329 97.422485 0.667328 0.734853 -0.121096 0.359464 0.547059 1 5 1.000000
  0 45.042553 24.680222 56.193367 0.741146 0.662410 -0.109158 0.359464 0.455988 1 5 1.000000
  0 31.146250 24.680222 56.193367 -0.741146 0.662410 -0.109158 0.393542 0.455983 1 5 1.000000
01_-_Default
  0 45.042553 24.680222 56.193367 0.741146 0.662410 -0.109158 0.359464 0.455988 1 5 1.000000
  0 45.042553 10.362579 97.422485 0.741150 -0.662404 0.109171 0.325386 0.547064 1 5 1.000000
  0 45.042553 3.567617 56.193367 0.667323 -0.734855 0.121111 0.325386 0.455992 1 5 1.000000
01_-_Default
  0 45.042553 24.680222 56.193367 0.741146 0.662410 -0.109158 0.359464 0.455988 1 5 1.000000
  0 45.042553 31.474329 97.422485 0.667328 0.734853 -0.121096 0.359464 0.547059 1 5 1.000000
  0 45.042553 10.362579 97.422485 0.741150 -0.662404 0.109171 0.325386 0.547064 1 5 1.000000
01_-_Default
  0 31.146250 3.567617 56.193367 -0.667323 -0.734855 0.121111 0.291298 0.455992 1 5 1.000000
  0 31.146250 31.474329 97.422485 -0.667328 0.734853 -0.121096 0.257210 0.547064 1 5 1.000000
  0 31.146250 24.680222 56.193367 -0.741146 0.662410 -0.109158 0.257210 0.455992 1 5 1.000000
01_-_Default
  0 31.146250 3.567617 56.193367 -0.667323 -0.734855 0.121111 0.291298 0.455992 1 5 1.000000
  0 31.146250 10.362579 97.422485 -0.741150 -0.662404 0.109171 0.291298 0.547064 1 5 1.000000
  0 31.146250 31.474329 97.422485 -0.667328 0.734853 -0.121096 0.257210 0.547064 1 5 1.000000
01_-_Default
  0 81.094353 27.329082 169.871674 0.658185 -0.751526 -0.044736 0.664967 0.890855 1 18 1.000000
  0 57.909115 13.367476 195.056381 -0.614060 -0.501613 -0.609356 0.641654 0.962159 1 18 1.000000
  0 73.595161 28.802845 166.543839 -0.614119 -0.501513 -0.609378 0.641654 0.890855 1 18 1.000000
01_-_Default
  0 81.094353 27.329082 169.871674 0.658185 -0.751526 -0.044736 0.664967 0.890855 1 18 1.000000
  0 65.408295 11.894623 198.384201 0.658230 -0.751491 -0.044656 0.664967 0.962159 1 18 1.000000
  0 57.909115 13.367476 195.056381 -0.614060 -0.501613 -0.609356 0.641654 0.962159 1 18 1.000000
01_-_Default
  0 65.147163 19.279783 202.238739 0.614051 0.501598 0.609378 0.688265 0.962179 1 18 1.000000
  0 73.335754 36.187946 170.399155 -0.658168 0.751541 0.044734 0.711562 0.890896 1 18 1.000000
  0 57.648834 20.753519 198.910889 -0.658199 0.751515 0.044713 0.711562 0.962200 1 18 1.000000
01_-_Default
  0 65.147163 19.279783 202.238739 0.614051 0.501598 0.609378 0.688265 0.962179 1 18 1.000000
  0 80.834076 34.715103 173.727005 0.614062 0.501588 0.609375 0.688265 0.890876 1 18 1.000000
  0 73.335754 36.187946 170.399155 -0.658168 0.751541 0.044734 0.711562 0.890896 1 18 1.000000
01_-_Default
  0 80.834076 34.715103 173.727005 0.614062 0.501588 0.609375 0.688265 0.890876 1 18 1.000000
  0 65.408295 11.894623 198.384201 0.658230 -0.751491 -0.044656 0.664967 0.962159 1 18 1.000000
  0 81.094353 27.329082 169.871674 0.658185 -0.751526 -0.044736 0.664967 0.890855 1 18 1.000000
01_-_Default
  0 80.834076 34.715103 173.727005 0.614062 0.501588 0.609375 0.688265 0.890876 1 18 1.000000
  0 65.147163 19.279783 202.238739 0.614051 0.501598 0.609378 0.688265 0.962179 1 18 1.000000
  0 65.408295 11.894623 198.384201 0.658230 -0.751491 -0.044656 0.664967 0.962159 1 18 1.000000
01_-_Default
  0 73.595161 28.802845 166.543839 -0.614119 -0.501513 -0.609378 0.641654 0.890855 1 18 1.000000
  0 57.648834 20.753519 198.910889 -0.658199 0.751515 0.044713 0.618340 0.962159 1 18 1.000000
  0 73.335754 36.187946 170.399155 -0.658168 0.751541 0.044734 0.618340 0.890855 1 18 1.000000
01_-_Default
  0 73.595161 28.802845 166.543839 -0.614119 -0.501513 -0.609378 0.641654 0.890855 1 18 1.000000
  0 57.909115 13.367476 195.056381 -0.614060 -0.501613 -0.609356 0.641654 0.962159 1 18 1.000000
  0 57.648834 20.753519 198.910889 -0.658199 0.751515 0.044713 0.618340 0.962159 1 18 1.000000
01_-_Default
  1 -36.349922 -72.236389 326.564880 0.524535 -0.385571 0.759077 0.824325 0.003193 1 25 1.000000
  1 -17.094038 104.934998 205.201767 0.751022 0.625497 -0.211470 0.821005 0.484284 1 25 1.000000
  1 -81.748100 -72.164993 325.887726 -0.592590 -0.366664 0.717213 0.838489 0.002961 1 25 1.000000
01_-_Default
  1 -17.094038 104.934998 205.201767 0.751022 0.625497 -0.211470 0.821005 0.484284 1 25 1.000000
  1 -59.854622 109.317009 202.091553 -0.459272 0.844152 -0.276543 0.856468 0.483704 1 25 1.000000
  1 -81.748100 -72.164993 325.887726 -0.592590 -0.366664 0.717213 0.838489 0.002961 1 25 1.000000
01_-_Default
  1 -17.094038 104.934998 205.201767 0.751022 0.625497 -0.211470 0.984013 0.481770 1 25 1.000000
  1 -32.424923 86.113449 204.386993 0.369431 -0.253485 -0.894017 0.984013 0.403968 1 25 1.000000
  1 -59.854622 109.317009 202.091553 -0.459272 0.844152 -0.276543 0.947360 0.481770 1 25 1.000000
01_-_Default
  1 -32.424923 86.113449 204.386993 0.369431 -0.253485 -0.894017 0.984013 0.403968 1 25 1.000000
  1 -56.706970 94.374283 201.275970 -0.227704 -0.059608 -0.971904 0.947360 0.403968 1 25 1.000000
  1 -59.854622 109.317009 202.091553 -0.459272 0.844152 -0.276543 0.947360 0.481770 1 25 1.000000
01_-_Default
  1 -32.424923 86.113449 204.386993 0.369431 -0.253485 -0.894017 0.959493 0.390397 1 25 1.000000
  1 -30.534248 -73.629135 238.200912 0.617312 -0.624712 -0.478185 0.956324 0.007167 1 25 1.000000
  1 -56.706970 94.374283 201.275970 -0.227704 -0.059608 -0.971904 0.935308 0.390397 1 25 1.000000
01_-_Default
  1 -30.534248 -73.629135 238.200912 0.617312 -0.624712 -0.478185 0.956324 0.007167 1 25 1.000000
  1 -78.725769 -73.557785 237.524567 -0.607795 -0.604333 -0.515138 0.938476 0.007167 1 25 1.000000
  1 -56.706970 94.374283 201.275970 -0.227704 -0.059608 -0.971904 0.935308 0.390397 1 25 1.000000
01_-_Default
  1 -30.534248 -73.629135 238.200912 0.617312 -0.624712 -0.478185 0.996998 0.494975 1 25 1.000000
  1 -36.349922 -72.236389 326.564880 0.524535 -0.385571 0.759077 0.996998 0.396004 1 25 1.000000
  1 -78.725769 -73.557785 237.524567 -0.607795 -0.604333 -0.515138 0.938399 0.494975 1 25 1.000000
01_-_Default
  1 -36.349922 -72.236389 326.564880 0.524535 -0.385571 0.759077 0.996998 0.396004 1 25 1.000000
  1 -81.748100 -72.164993 325.887726 -0.592590 -0.366664 0.717213 0.938399 0.396004 1 25 1.000000
  1 -78.725769 -73.557785 237.524567 -0.607795 -0.604333 -0.515138 0.938399 0.494975 1 25 1.000000
01_-_Default
  1 -81.748100 -72.164993 325.887726 -0.592590 -0.366664 0.717213 0.874472 0.002373 1 25 1.000000
  1 -59.854622 109.317009 202.091553 -0.459272 0.844152 -0.276543 0.859197 0.483660 1 25 1.000000
  1 -78.725769 -73.557785 237.524567 -0.607795 -0.604333 -0.515138 0.905125 0.040406 1 25 1.000000
01_-_Default
  1 -59.854622 109.317009 202.091553 -0.459272 0.844152 -0.276543 0.859197 0.483660 1 25 1.000000
  1 -56.706970 94.374283 201.275970 -0.227704 -0.059608 -0.971904 0.933508 0.419106 1 25 1.000000
  1 -78.725769 -73.557785 237.524567 -0.607795 -0.604333 -0.515138 0.905125 0.040406 1 25 1.000000
01_-_Default
  1 -30.534248 -73.629135 238.200912 0.617312 -0.624712 -0.478185 0.905264 0.040404 1 25 1.000000
  1 -32.424923 86.113449 204.386993 0.369431 -0.253485 -0.894017 0.933645 0.419104 1 25 1.000000
  1 -36.349922 -72.236389 326.564880 0.524535 -0.385571 0.759077 0.874610 0.002371 1 25 1.000000
01_-_Default
  1 -32.424923 86.113449 204.386993 0.369431 -0.253485 -0.894017 0.933645 0.419104 1 25 1.000000
  1 -17.094038 104.934998 205.201767 0.751022 0.625497 -0.211470 0.859336 0.483657 1 25 1.000000
  1 -36.349922 -72.236389 326.564880 0.524535 -0.385571 0.759077 0.874610 0.002371 1 25 1.000000
01_-_Default
  1 34.630772 -72.236389 326.564880 -0.524534 -0.385571 0.759078 0.824325 0.003193 1 23 1.000000
  1 80.029739 -72.164993 325.887726 0.592593 -0.366664 0.717210 0.838489 0.002961 1 23 1.000000
  1 15.374882 104.934998 205.201767 -0.751027 0.625490 -0.211472 0.821005 0.484284 1 23 1.000000
01_-_Default
  1 15.374882 104.934998 205.201767 -0.751027 0.625490 -0.211472 0.821005 0.484284 1 23 1.000000
  1 80.029739 -72.164993 325.887726 0.592593 -0.366664 0.717210 0.838489 0.002961 1 23 1.000000
  1 58.135445 109.317009 202.091553 0.459267 0.844155 -0.276542 0.856468 0.483704 1 23 1.000000
01_-_Default
  1 15.374882 104.934998 205.201767 -0.751027 0.625490 -0.211472 0.984013 0.481770 1 23 1.000000
  1 58.135445 109.317009 202.091553 0.459267 0.844155 -0.276542 0.947360 0.481770 1 23 1.000000
  1 30.706656 86.113449 204.386993 -0.369418 -0.253486 -0.894022 0.984013 0.403968 1 23 1.000000
01_-_Default
  1 30.706656 86.113449 204.386993 -0.369418 -0.253486 -0.894022 0.984013 0.403968 1 23 1.000000
  1 58.135445 109.317009 202.091553 0.459267 0.844155 -0.276542 0.947360 0.481770 1 23 1.000000
  1 54.988644 94.374283 201.275970 0.227750 -0.059605 -0.971894 0.947360 0.403968 1 23 1.000000
01_-_Default
  1 30.706656 86.113449 204.386993 -0.369418 -0.253486 -0.894022 0.959493 0.390397 1 23 1.000000
  1 54.988644 94.374283 201.275970 0.227750 -0.059605 -0.971894 0.935308 0.390397 1 23 1.000000
  1 28.814226 -73.629135 238.200912 -0.617319 -0.624708 -0.478182 0.956324 0.007167 1 23 1.000000
01_-_Default
  1 28.814226 -73.629135 238.200912 -0.617319 -0.624708 -0.478182 0.956324 0.007167 1 23 1.000000
  1 54.988644 94.374283 201.275970 0.227750 -0.059605 -0.971894 0.935308 0.390397 1 23 1.000000
  1 77.006569 -73.557785 237.524567 0.607791 -0.604335 -0.515140 0.938476 0.007167 1 23 1.000000
01_-_Default
  1 28.814226 -73.629135 238.200912 -0.617319 -0.624708 -0.478182 0.996998 0.494975 1 23 1.000000
  1 77.006569 -73.557785 237.524567 0.607791 -0.604335 -0.515140 0.938399 0.494975 1 23 1.000000
  1 34.630772 -72.236389 326.564880 -0.524534 -0.385571 0.759078 0.996998 0.396004 1 23 1.000000
01_-_Default
  1 34.630772 -72.236389 326.564880 -0.524534 -0.385571 0.759078 0.996998 0.396004 1 23 1.000000
  1 77.006569 -73.557785 237.524567 0.607791 -0.604335 -0.515140 0.938399 0.494975 1 23 1.000000
  1 80.029739 -72.164993 325.887726 0.592593 -0.366664 0.717210 0.938399 0.396004 1 23 1.000000
01_-_Default
  1 80.029739 -72.164993 325.887726 0.592593 -0.366664 0.717210 0.874472 0.002373 1 23 1.000000
  1 77.006569 -73.557785 237.524567 0.607791 -0.604335 -0.515140 0.905125 0.040406 1 23 1.000000
  1 58.135445 109.317009 202.091553 0.459267 0.844155 -0.276542 0.859197 0.483660 1 23 1.000000
01_-_Default
  1 58.135445 109.317009 202.091553 0.459267 0.844155 -0.276542 0.859197 0.483660 1 23 1.000000
  1 77.006569 -73.557785 237.524567 0.607791 -0.604335 -0.515140 0.905125 0.040406 1 23 1.000000
  1 54.988644 94.374283 201.275970 0.227750 -0.059605 -0.971894 0.933508 0.419106 1 23 1.000000
01_-_Default
  1 28.814226 -73.629135 238.200912 -0.617319 -0.624708 -0.478182 0.905264 0.040404 1 23 1.000000
  1 34.630772 -72.236389 326.564880 -0.524534 -0.385571 0.759078 0.874610 0.002371 1 23 1.000000
  1 30.706656 86.113449 204.386993 -0.369418 -0.253486 -0.894022 0.933645 0.419104 1 23 1.000000
01_-_Default
  1 30.706656 86.113449 204.386993 -0.369418 -0.253486 -0.894022 0.933645 0.419104 1 23 1.000000
  1 34.630772 -72.236389 326.564880 -0.524534 -0.385571 0.759078 0.874610 0.002371 1 23 1.000000
  1 15.374882 104.934998 205.201767 -0.751027 0.625490 -0.211472 0.859336 0.483657 1 23 1.000000
end
