version 1
nodes
  0 "bone33"  -1
  1 "bone34"  -1
  2 "bone35"  -1
  3 "bone36"  -1
  4 "bone24"  -1
  5 "bone19"  -1
  6 "bone18"   5
  7 "bone14"   6
  8 "bone15"   7
  9 "bone17"   8
 10 "bone26"   9
 11 "bone04"   6
 12 "bone20"  11
 13 "bone16"  12
 14 "bone27"  13
 15 "bone06"   5
 16 "bone07"  15
 17 "bone05"  16
 18 "bone11"  17
 19 "bone28"  18
 20 "bone02"  15
 21 "bone03"  20
 22 "bone09"  21
 23 "bone29"  22
 24 "bone01"  15
 25 "bone12"  24
 26 "bone30"  25
 27 "bone10"  24
 28 "bone31"  27
 29 "bone13"  24
 30 "bone08"  24
 31 "bone22"  24
 32 "bone23"  15
end
skeleton
time 0
  0 -5.180422 13.788269 -12.439880 0.000000 -0.000000 0.000000
  1 -5.180422 13.788269 -12.439880 0.000000 -0.000000 0.000000
  2 -5.180422 13.788269 -12.439880 0.000000 -0.000000 0.000000
  3 -5.180422 13.788269 -12.439880 0.000000 -0.000000 0.000000
  4 -4.455341 19.713478 299.953064 0.000000 -0.000000 0.000000
  5 -5.180422 18.668694 135.155258 0.087267 0.000000 -0.000000
  6 0.585070 4.634651 -15.754379 0.139627 0.000000 -0.000000
  7 44.000435 -0.454872 -14.063080 -1.483527 -0.000000 0.000000
  8 -1.648880 -14.263252 -46.038216 1.867497 0.000001 -0.000000
  9 1.901325 0.000004 -35.274979 -0.558504 -0.000000 0.000000
 10 1.220856 -0.000001 -27.561962 0.000000 -0.000000 0.000000
 11 -35.658199 -1.977135 -14.300331 -0.017453 -0.000000 -0.000000
 12 2.095200 -12.740986 -45.800964 -0.366519 0.000000 0.000000
 13 -2.525249 0.000001 -34.836563 0.104720 -0.000001 0.000000
 14 -1.229671 -0.000006 -26.461922 0.000000 -0.000000 0.000000
 15 0.585070 -7.861071 40.912140 0.157080 0.000000 -0.000000
 16 -35.591049 -1.703064 41.085175 0.349065 0.000000 -0.087266
 17 -37.563442 14.762711 -50.295212 -0.279252 0.000000 -0.000000
 18 -10.963066 -41.811989 -33.818535 -0.366519 0.000001 0.000000
 19 -3.816719 -34.079029 -25.402420 0.000000 -0.000000 0.000000
 20 41.148888 -1.371410 40.606628 0.000000 -0.000000 0.104720
 21 39.457150 17.377472 -50.174316 -0.245372 -0.019946 -0.001911
 22 11.722160 -44.271454 -32.982773 -0.242925 0.024226 0.007891
 23 2.616638 -33.926434 -25.777008 0.000000 -0.000000 0.000000
 24 -0.737603 -0.369766 42.251785 0.000000 -0.000000 0.000000
 25 59.548912 38.000320 11.633072 -1.623153 -0.000000 -0.000000
 26 7.710041 -174.312241 82.914413 0.000000 -0.000000 0.000000
 27 -48.533001 39.089813 12.126022 -1.658062 -0.000000 -0.000000
 28 -11.661724 -173.988205 81.962166 0.000000 -0.000000 0.000000
 29 2.355416 41.099152 8.166306 -0.174533 0.000000 -0.000000
 30 3.826383 -29.401634 7.538544 0.139626 0.000000 0.000000
 31 -0.684172 -11.661072 48.858276 0.000000 -0.000000 0.000000
 32 -0.072890 -1.756191 2.960083 0.000000 -0.000000 0.000000
time 1
  0 -5.180422 13.788269 -12.439880 0.000000 -0.000000 0.000000
  1 -5.180422 13.788269 -12.439880 0.000000 -0.000000 0.000000
  2 -5.180422 13.788269 -12.439880 0.000000 -0.000000 0.000000
  3 -5.180422 13.788269 -12.439880 0.000000 -0.000000 0.000000
  4 -4.455341 19.713478 299.953064 0.000000 -0.000000 0.000000
  5 -5.180422 18.668694 134.529160 0.087267 0.000000 -0.000000
  6 0.585070 4.634649 -15.754379 0.139627 0.000000 -0.000000
  7 44.000435 -0.454872 -14.063080 -1.468264 -0.000000 0.000000
  8 -1.648880 -14.263245 -46.038216 1.845122 0.000001 -0.000000
  9 1.901329 0.000000 -35.274982 -0.551913 -0.000000 0.000000
 10 1.220856 -0.000002 -27.561970 0.000000 -0.000000 0.000000
 11 -35.658199 -1.977135 -14.300331 -0.017602 -0.000000 0.000000
 12 2.095196 -12.740982 -45.800964 -0.343277 -0.000000 0.000000
 13 -2.525253 -0.000001 -34.836563 0.066141 -0.000001 0.000000
 14 -1.229671 -0.000004 -26.461926 0.000000 -0.000000 0.000000
 15 0.585070 -7.855320 40.977875 0.157080 0.000000 -0.000000
 16 -35.591049 -1.703068 41.085175 0.342798 -0.000535 -0.087163
 17 -37.563442 14.762711 -50.295197 -0.279252 0.000000 -0.000000
 18 -10.963058 -41.811989 -33.818550 -0.366520 0.000001 -0.000000
 19 -3.816734 -34.079021 -25.402435 0.000000 -0.000000 0.000000
 20 41.148888 -1.371414 40.606613 -0.007112 0.000724 0.104560
 21 39.457130 17.377468 -50.174332 -0.245372 -0.019946 -0.001911
 22 11.722168 -44.271454 -32.982773 -0.242925 0.024226 0.007891
 23 2.616638 -33.926422 -25.777023 0.000000 -0.000000 0.000000
 24 -0.737603 -0.369770 42.251770 0.000000 -0.000000 0.000000
 25 59.548912 37.945351 11.412613 -1.623153 -0.000000 -0.000000
 26 7.710041 -174.312225 82.914406 0.000000 -0.000000 0.000000
 27 -48.533001 39.027908 11.877731 -1.658062 -0.000000 -0.000000
 28 -11.661724 -173.988190 81.962173 0.000000 -0.000000 0.000000
 29 2.355416 41.099152 8.166306 -0.174533 0.000000 -0.000000
 30 3.826383 -29.437790 7.393539 0.139626 0.000000 0.000000
 31 -0.684172 -11.661072 48.858276 0.000000 -0.000000 0.000000
 32 -0.072890 -1.756191 2.960068 0.000000 -0.000000 0.000000
time 2
  0 -5.180422 13.788269 -12.439880 0.000000 -0.000000 0.000000
  1 -5.180422 13.788269 -12.439880 0.000000 -0.000000 0.000000
  2 -5.180422 13.788269 -12.439880 0.000000 -0.000000 0.000000
  3 -5.180422 13.788269 -12.439880 0.000000 -0.000000 0.000000
  4 -4.455341 19.713478 299.953064 0.000000 -0.000000 0.000000
  5 -5.180422 18.668694 132.863785 0.087267 0.000000 -0.000000
  6 0.585070 4.634647 -15.754387 0.139627 0.000000 -0.000000
  7 44.000439 -0.454868 -14.063080 -1.424962 -0.000000 0.000000
  8 -1.648884 -14.263252 -46.038216 1.781645 0.000001 -0.000000
  9 1.901325 0.000000 -35.274982 -0.533214 -0.000000 0.000000
 10 1.220860 -0.000001 -27.561966 0.000000 -0.000000 0.000000
 11 -35.658195 -1.977135 -14.300331 -0.018124 -0.000001 0.000000
 12 2.095196 -12.740982 -45.800972 -0.277340 -0.000000 0.000000
 13 -2.525246 0.000000 -34.836563 -0.033225 -0.000001 0.000000
 14 -1.229675 -0.000002 -26.461927 0.000000 -0.000000 0.000000
 15 0.585070 -7.839218 41.161911 0.157080 0.000000 -0.000000
 16 -35.591049 -1.703068 41.085175 0.325332 -0.002025 -0.086874
 17 -37.563450 14.762703 -50.295212 -0.279252 0.000000 -0.000000
 18 -10.963058 -41.811977 -33.818550 -0.366520 0.000001 -0.000000
 19 -3.816711 -34.079021 -25.402435 0.000000 -0.000000 0.000000
 20 41.148888 -1.371414 40.606628 -0.026933 0.002741 0.104115
 21 39.457134 17.377468 -50.174316 -0.245372 -0.019946 -0.001911
 22 11.722160 -44.271446 -32.982758 -0.242925 0.024226 0.007891
 23 2.616638 -33.926422 -25.777008 0.000000 -0.000000 0.000000
 24 -0.737603 -0.369770 42.251770 0.000000 -0.000000 0.000000
 25 59.548912 37.790073 10.789841 -1.623153 -0.000000 -0.000000
 26 7.710041 -174.312271 82.914413 0.000000 -0.000000 0.000000
 27 -48.533001 38.853474 11.178116 -1.658062 -0.000000 -0.000000
 28 -11.661720 -173.988190 81.962173 0.000000 -0.000000 0.000000
 29 2.355416 41.099155 8.166321 -0.174533 0.000000 -0.000000
 30 3.826383 -29.540619 6.981125 0.139626 0.000000 0.000000
 31 -0.684172 -11.661072 48.858307 0.000000 -0.000000 0.000000
 32 -0.072890 -1.756191 2.960083 0.000000 -0.000000 0.000000
time 3
  0 -5.180422 13.788269 -12.439880 0.000000 -0.000000 0.000000
  1 -5.180422 13.788269 -12.439880 0.000000 -0.000000 0.000000
  2 -5.180422 13.788269 -12.439880 0.000000 -0.000000 0.000000
  3 -5.180422 13.788269 -12.439880 0.000000 -0.000000 0.000000
  4 -4.455341 19.713478 299.953064 0.000000 -0.000000 0.000000
  5 -5.180422 18.668692 130.470047 0.087267 0.000000 -0.000000
  6 0.585070 4.634647 -15.754387 0.139627 0.000000 -0.000000
  7 44.000439 -0.454872 -14.063072 -1.357351 -0.000000 0.000000
  8 -1.648884 -14.263245 -46.038216 1.682534 0.000001 -0.000000
  9 1.901325 0.000000 -35.274975 -0.504019 -0.000000 0.000000
 10 1.220856 -0.000001 -27.561966 0.000000 -0.000000 0.000000
 11 -35.658195 -1.977135 -14.300331 -0.019128 -0.000001 -0.000000
 12 2.095192 -12.740982 -45.800972 -0.174387 -0.000000 0.000000
 13 -2.525246 0.000000 -34.836563 -0.175127 -0.000001 0.000001
 14 -1.229671 -0.000004 -26.461922 0.000000 -0.000000 0.000000
 15 0.585070 -7.814484 41.444611 0.157080 0.000000 -0.000000
 16 -35.591049 -1.703068 41.085175 0.298668 -0.004301 -0.086433
 17 -37.563446 14.762718 -50.295197 -0.279252 0.000000 -0.000000
 18 -10.963058 -41.811993 -33.818550 -0.366519 0.000001 -0.000000
 19 -3.816711 -34.079033 -25.402435 0.000000 -0.000000 0.000000
 20 41.148888 -1.371410 40.606628 -0.057191 0.005820 0.103436
 21 39.457134 17.377472 -50.174316 -0.245372 -0.019946 -0.001911
 22 11.722160 -44.271458 -32.982773 -0.242925 0.024226 0.007891
 23 2.616646 -33.926437 -25.777031 0.000000 -0.000000 0.000000
 24 -0.737603 -0.369770 42.251785 0.000000 -0.000000 0.000000
 25 59.548920 37.548904 9.822556 -1.623153 -0.000000 -0.000000
 26 7.710041 -174.312256 82.914406 0.000000 -0.000000 0.000000
 27 -48.533001 38.583412 10.094940 -1.658062 -0.000000 -0.000000
 28 -11.661720 -173.988205 81.962173 0.000000 -0.000000 0.000000
 29 2.355416 41.099152 8.166306 -0.174533 0.000000 -0.000000
 30 3.826383 -29.701668 6.335175 0.139626 0.000000 0.000000
 31 -0.684172 -11.661068 48.858276 0.000000 -0.000000 0.000000
 32 -0.072890 -1.756191 2.960083 0.000000 -0.000000 0.000000
time 4
  0 -5.180422 13.788269 -12.439880 0.000000 -0.000000 0.000000
  1 -5.180422 13.788269 -12.439880 0.000000 -0.000000 0.000000
  2 -5.180422 13.788269 -12.439880 0.000000 -0.000000 0.000000
  3 -5.180422 13.788269 -12.439880 0.000000 -0.000000 0.000000
  4 -4.455341 19.713478 299.953064 0.000000 -0.000000 0.000000
  5 -5.180422 18.668692 127.658844 0.087267 0.000000 -0.000000
  6 0.585070 4.634647 -15.754387 0.139627 0.000000 -0.000000
  7 44.000439 -0.454872 -14.063072 -1.269162 -0.000000 0.000000
  8 -1.648884 -14.263260 -46.038212 1.553257 0.000000 -0.000000
  9 1.901329 0.000000 -35.274982 -0.465937 -0.000000 0.000000
 10 1.220852 -0.000002 -27.561970 0.000000 -0.000000 0.000000
 11 -35.658195 -1.977139 -14.300331 -0.020727 -0.000001 0.000000
 12 2.095192 -12.740982 -45.800961 -0.040100 -0.000000 0.000000
 13 -2.525246 0.000000 -34.836563 -0.341312 -0.000000 0.000001
 14 -1.229671 -0.000006 -26.461924 0.000000 -0.000000 0.000000
 15 0.585070 -7.782841 41.806305 0.157080 0.000000 -0.000000
 16 -35.591049 -1.703068 41.085175 0.264808 -0.007190 -0.085874
 17 -37.563435 14.762718 -50.295166 -0.279252 0.000000 -0.000000
 18 -10.963058 -41.811996 -33.818542 -0.366520 0.000001 0.000000
 19 -3.816719 -34.079018 -25.402435 0.000000 -0.000000 0.000000
 20 41.148888 -1.371414 40.606628 -0.095615 0.009730 0.102573
 21 39.457130 17.377466 -50.174332 -0.245372 -0.019946 -0.001911
 22 11.722168 -44.271446 -32.982773 -0.242925 0.024226 0.007891
 23 2.616638 -33.926430 -25.777023 0.000000 -0.000000 0.000000
 24 -0.737603 -0.369770 42.251785 0.000000 -0.000000 0.000000
 25 59.548920 37.236275 8.568665 -1.623153 -0.000000 -0.000000
 26 7.710041 -174.312286 82.914406 0.000000 -0.000000 0.000000
 27 -48.533001 38.234619 8.696045 -1.658062 -0.000000 -0.000000
 28 -11.661728 -173.988174 81.962181 0.000000 -0.000000 0.000000
 29 2.355416 41.099152 8.166306 -0.174533 0.000000 -0.000000
 30 3.826384 -29.912502 5.489578 0.139626 0.000000 0.000000
 31 -0.684171 -11.661072 48.858276 0.000000 -0.000000 0.000000
 32 -0.072890 -1.756191 2.960083 0.000000 -0.000000 0.000000
time 5
  0 -5.180422 13.788269 -12.439880 0.000000 -0.000000 0.000000
  1 -5.180422 13.788269 -12.439880 0.000000 -0.000000 0.000000
  2 -5.180422 13.788269 -12.439880 0.000000 -0.000000 0.000000
  3 -5.180422 13.788269 -12.439880 0.000000 -0.000000 0.000000
  4 -4.455341 19.713478 299.953064 0.000000 -0.000000 0.000000
  5 -5.180422 18.668690 124.741096 0.087267 0.000000 -0.000000
  6 0.585070 4.634647 -15.754387 0.139627 0.000000 -0.000000
  7 44.000439 -0.454872 -14.063072 -1.164127 -0.000000 0.000000
  8 -1.648884 -14.263248 -46.038216 1.399285 0.000000 -0.000000
  9 1.901325 0.000000 -35.274982 -0.420581 -0.000000 0.000000
 10 1.220856 -0.000002 -27.561968 0.000000 -0.000000 0.000000
 11 -35.658195 -1.977135 -14.300331 -0.023030 -0.000001 0.000000
 12 2.095192 -12.740986 -45.800968 0.119840 -0.000000 0.000000
 13 -2.525249 0.000000 -34.836559 -0.513529 -0.000000 0.000001
 14 -1.229675 -0.000002 -26.461922 0.000000 -0.000000 0.000000
 15 0.585070 -7.746006 42.227341 0.157080 0.000000 -0.000000
 16 -35.591049 -1.703072 41.085175 0.225756 -0.010523 -0.085228
 17 -37.563438 14.762711 -50.295197 -0.279252 0.000000 -0.000000
 18 -10.963051 -41.812000 -33.818550 -0.366519 0.000001 0.000000
 19 -3.816719 -34.079025 -25.402435 0.000000 -0.000000 0.000000
 20 41.148888 -1.371414 40.606628 -0.139931 0.014240 0.101578
 21 39.457127 17.377466 -50.174316 -0.245372 -0.019946 -0.001911
 22 11.722153 -44.271446 -32.982742 -0.242925 0.024226 0.007891
 23 2.616638 -33.926430 -25.777008 0.000000 -0.000000 0.000000
 24 -0.737603 -0.369774 42.251785 0.000000 -0.000000 0.000000
 25 59.548923 36.866611 7.086044 -1.623153 -0.000000 -0.000000
 26 7.710041 -174.312271 82.914398 0.000000 -0.000000 0.000000
 27 -48.533001 37.824024 7.049225 -1.658062 -0.000000 -0.000000
 28 -11.661724 -173.988190 81.962173 0.000000 -0.000000 0.000000
 29 2.355416 41.099155 8.166306 -0.174533 0.000000 -0.000000
 30 3.826384 -30.164654 4.478241 0.139626 0.000000 0.000000
 31 -0.684172 -11.661068 48.858276 0.000000 -0.000000 0.000000
 32 -0.072890 -1.756195 2.960083 0.000000 -0.000000 0.000000
time 6
  0 -5.180422 13.788269 -12.439880 0.000000 -0.000000 0.000000
  1 -5.180422 13.788269 -12.439880 0.000000 -0.000000 0.000000
  2 -5.180422 13.788269 -12.439880 0.000000 -0.000000 0.000000
  3 -5.180422 13.788269 -12.439880 0.000000 -0.000000 0.000000
  4 -4.455341 19.713478 299.953064 0.000000 -0.000000 0.000000
  5 -5.180422 18.668690 122.027710 0.087267 0.000000 -0.000000
  6 0.585070 4.634651 -15.754395 0.139627 0.000000 -0.000000
  7 44.000439 -0.454872 -14.063072 -1.045975 -0.000000 0.000000
  8 -1.648884 -14.263248 -46.038216 1.226085 0.000000 -0.000000
  9 1.901325 0.000000 -35.274982 -0.369561 -0.000000 -0.000000
 10 1.220852 -0.000002 -27.561974 0.000000 -0.000000 0.000000
 11 -35.658195 -1.977139 -14.300331 -0.026148 -0.000001 0.000000
 12 2.095192 -12.740986 -45.800972 0.299752 -0.000000 -0.000000
 13 -2.525246 0.000000 -34.836563 -0.673527 0.000000 0.000001
 14 -1.229668 0.000000 -26.461924 0.000000 -0.000000 0.000000
 15 0.585070 -7.705700 42.688011 0.157080 0.000000 -0.000000
 16 -35.591049 -1.703064 41.085175 0.183513 -0.014128 -0.084530
 17 -37.563438 14.762718 -50.295181 -0.279252 0.000000 -0.000000
 18 -10.963058 -41.812000 -33.818573 -0.366519 0.000001 -0.000000
 19 -3.816727 -34.079033 -25.402451 0.000000 -0.000000 0.000000
 20 41.148888 -1.371410 40.606628 -0.187869 0.019119 0.100502
 21 39.457138 17.377466 -50.174316 -0.245372 -0.019946 -0.001911
 22 11.722168 -44.271454 -32.982758 -0.242925 0.024226 0.007891
 23 2.616646 -33.926445 -25.777008 0.000000 -0.000000 0.000000
 24 -0.737603 -0.369766 42.251785 0.000000 -0.000000 0.000000
 25 59.548931 36.454346 5.432526 -1.623153 -0.000000 -0.000000
 26 7.710041 -174.312271 82.914413 0.000000 -0.000000 0.000000
 27 -48.533001 37.368523 5.222290 -1.658062 -0.000000 -0.000000
 28 -11.661724 -173.988190 81.962173 0.000000 -0.000000 0.000000
 29 2.355416 41.099152 8.166306 -0.174533 0.000000 -0.000000
 30 3.826384 -30.449688 3.335052 0.139626 0.000000 0.000000
 31 -0.684172 -11.661072 48.858276 0.000000 -0.000000 0.000000
 32 -0.072890 -1.756191 2.960083 0.000000 -0.000000 0.000000
time 7
  0 -5.180422 13.788269 -12.439880 0.000000 -0.000000 0.000000
  1 -5.180422 13.788269 -12.439880 0.000000 -0.000000 0.000000
  2 -5.180422 13.788269 -12.439880 0.000000 -0.000000 0.000000
  3 -5.180422 13.788269 -12.439880 0.000000 -0.000000 0.000000
  4 -4.455341 19.713478 299.953064 0.000000 -0.000000 0.000000
  5 -5.180422 18.668688 119.829597 0.087267 0.000000 -0.000000
  6 0.585070 4.634649 -15.754387 0.139627 0.000000 -0.000000
  7 44.000435 -0.454872 -14.063072 -0.918437 -0.000000 0.000000
  8 -1.648880 -14.263256 -46.038223 1.039127 -0.000000 -0.000000
  9 1.901329 0.000000 -35.274979 -0.314489 -0.000000 -0.000000
 10 1.220856 -0.000002 -27.561972 0.000000 -0.000000 0.000000
 11 -35.658195 -1.977135 -14.300331 -0.030192 -0.000001 -0.000000
 12 2.095200 -12.740986 -45.800968 0.493956 -0.000000 -0.000000
 13 -2.525249 0.000000 -34.836563 -0.803053 0.000000 0.000001
 14 -1.229671 -0.000004 -26.461924 0.000000 -0.000000 0.000000
 15 0.585070 -7.663652 43.168655 0.157080 0.000000 -0.000000
 16 -35.591049 -1.703068 41.085175 0.140081 -0.017834 -0.083812
 17 -37.563435 14.762703 -50.295181 -0.279252 0.000000 -0.000000
 18 -10.963051 -41.811993 -33.818565 -0.366519 0.000001 -0.000000
 19 -3.816719 -34.079025 -25.402435 0.000000 -0.000000 0.000000
 20 41.148888 -1.371414 40.606628 -0.237156 0.024134 0.099395
 21 39.457142 17.377464 -50.174316 -0.245372 -0.019946 -0.001911
 22 11.722160 -44.271446 -32.982758 -0.242925 0.024226 0.007891
 23 2.616638 -33.926422 -25.777016 0.000000 -0.000000 0.000000
 24 -0.737604 -0.369770 42.251785 0.000000 -0.000000 0.000000
 25 59.548931 36.013908 3.666000 -1.623153 -0.000000 -0.000000
 26 7.710041 -174.312256 82.914406 0.000000 -0.000000 0.000000
 27 -48.533001 36.885010 3.283035 -1.658062 -0.000000 -0.000000
 28 -11.661720 -173.988190 81.962173 0.000000 -0.000000 0.000000
 29 2.355416 41.099152 8.166306 -0.174533 0.000000 -0.000000
 30 3.826384 -30.759140 2.093903 0.139626 0.000000 0.000000
 31 -0.684171 -11.661072 48.858276 0.000000 -0.000000 0.000000
 32 -0.072890 -1.756191 2.960083 0.000000 -0.000000 0.000000
time 8
  0 -5.180422 13.788269 -12.439880 0.000000 -0.000000 0.000000
  1 -5.180422 13.788269 -12.439880 0.000000 -0.000000 0.000000
  2 -5.180422 13.788269 -12.439880 0.000000 -0.000000 0.000000
  3 -5.180422 13.788269 -12.439880 0.000000 -0.000000 0.000000
  4 -4.455341 19.713478 299.953064 0.000000 -0.000000 0.000000
  5 -5.180422 18.668688 118.457657 0.087267 0.000000 -0.000000
  6 0.585070 4.634647 -15.754387 0.139627 0.000000 -0.000000
  7 44.000435 -0.454872 -14.063072 -0.785246 -0.000000 0.000000
  8 -1.648880 -14.263250 -46.038223 0.843881 -0.000000 -0.000000
  9 1.901325 -0.000001 -35.274982 -0.256974 -0.000000 -0.000000
 10 1.220856 -0.000002 -27.561970 0.000000 -0.000000 0.000000
 11 -35.658199 -1.977135 -14.300331 -0.035273 -0.000001 0.000000
 12 2.095196 -12.740986 -45.800968 0.696770 -0.000000 -0.000000
 13 -2.525249 0.000000 -34.836555 -0.883856 0.000000 0.000002
 14 -1.229668 0.000004 -26.461920 0.000000 -0.000000 0.000000
 15 0.585070 -7.621574 43.649605 0.157080 0.000000 -0.000000
 16 -35.591049 -1.703072 41.085175 0.097462 -0.021471 -0.083107
 17 -37.563442 14.762711 -50.295181 -0.279252 0.000000 -0.000000
 18 -10.963051 -41.811989 -33.818558 -0.366520 0.000001 -0.000000
 19 -3.816727 -34.079025 -25.402420 0.000000 -0.000000 0.000000
 20 41.148888 -1.371414 40.606628 -0.285519 0.029056 0.098309
 21 39.457138 17.377466 -50.174332 -0.245372 -0.019946 -0.001911
 22 11.722168 -44.271454 -32.982765 -0.242925 0.024226 0.007891
 23 2.616638 -33.926422 -25.777008 0.000000 -0.000000 0.000000
 24 -0.737603 -0.369770 42.251785 0.000000 -0.000000 0.000000
 25 59.548939 35.559711 1.844330 -1.623153 -0.000000 -0.000000
 26 7.710041 -174.312271 82.914398 0.000000 -0.000000 0.000000
 27 -48.533001 36.390408 1.299286 -1.658062 -0.000000 -0.000000
 28 -11.661720 -173.988190 81.962166 0.000000 -0.000000 0.000000
 29 2.355416 41.099155 8.166306 -0.174533 0.000000 -0.000000
 30 3.826384 -31.084579 0.788651 0.139626 0.000000 0.000000
 31 -0.684172 -11.661068 48.858276 0.000000 -0.000000 0.000000
 32 -0.072890 -1.756191 2.960083 0.000000 -0.000000 0.000000
time 9
  0 -5.180422 13.788269 -12.439880 0.000000 -0.000000 0.000000
  1 -5.180422 13.788269 -12.439880 0.000000 -0.000000 0.000000
  2 -5.180422 13.788269 -12.439880 0.000000 -0.000000 0.000000
  3 -5.180422 13.788269 -12.439880 0.000000 -0.000000 0.000000
  4 -4.455341 19.713478 299.953064 0.000000 -0.000000 0.000000
  5 -5.180422 18.668688 118.225014 0.087267 0.000000 -0.000000
  6 0.585070 4.634647 -15.754395 0.139627 0.000000 -0.000000
  7 44.000435 -0.454872 -14.063072 -0.650130 -0.000000 0.000000
  8 -1.648884 -14.263250 -46.038208 0.645814 -0.000000 0.000000
  9 1.901329 0.000000 -35.274979 -0.198629 -0.000000 -0.000000
 10 1.220860 -0.000002 -27.561970 0.000000 -0.000000 0.000000
 11 -35.658199 -1.977135 -14.300331 -0.047362 -0.000001 0.000000
 12 2.095196 -12.740986 -45.800972 0.902513 -0.000000 -0.000000
 13 -2.525249 0.000004 -34.836563 -0.901071 0.000001 0.000002
 14 -1.229668 -0.000008 -26.461926 0.000000 -0.000000 0.000000
 15 0.585070 -7.581190 44.111183 0.157080 0.000000 -0.000000
 16 -35.591049 -1.703068 41.085175 0.057659 -0.024868 -0.082449
 17 -37.563438 14.762711 -50.295197 -0.279252 0.000000 -0.000000
 18 -10.963066 -41.811989 -33.818550 -0.366519 0.000001 0.000000
 19 -3.816727 -34.079025 -25.402435 0.000000 -0.000000 0.000000
 20 41.148888 -1.371414 40.606628 -0.330688 0.033653 0.097295
 21 39.457150 17.377464 -50.174316 -0.245372 -0.019946 -0.001911
 22 11.722168 -44.271446 -32.982773 -0.242925 0.024226 0.007891
 23 2.616638 -33.926437 -25.777012 0.000000 -0.000000 0.000000
 24 -0.737603 -0.369770 42.251785 0.000000 -0.000000 0.000000
 25 59.548946 35.106194 0.025345 -1.623153 -0.000000 -0.000000
 26 7.710041 -174.312271 82.914398 0.000000 -0.000000 0.000000
 27 -48.533001 35.901619 -0.661148 -1.658062 -0.000000 -0.000000
 28 -11.661720 -173.988190 81.962173 0.000000 -0.000000 0.000000
 29 2.355416 41.099159 8.166306 -0.174533 0.000000 -0.000000
 30 3.826384 -31.417530 -0.546753 0.139626 0.000000 0.000000
 31 -0.684172 -11.661072 48.858276 0.000000 -0.000000 0.000000
 32 -0.072890 -1.756191 2.960083 0.000000 -0.000000 0.000000
time 10
  0 -5.180422 13.788269 -12.439880 0.000000 -0.000000 0.000000
  1 -5.180422 13.788269 -12.439880 0.000000 -0.000000 0.000000
  2 -5.180422 13.788269 -12.439880 0.000000 -0.000000 0.000000
  3 -5.180422 13.788269 -12.439880 0.000000 -0.000000 0.000000
  4 -4.455341 19.713478 299.953064 0.000000 -0.000000 0.000000
  5 -5.180422 18.668688 119.284882 0.087267 0.000000 -0.000000
  6 0.585070 4.634647 -15.754395 0.139627 0.000000 -0.000000
  7 44.000435 -0.454872 -14.063072 -0.516822 -0.000000 0.000000
  8 -1.648884 -14.263250 -46.038212 0.450396 -0.000001 0.000000
  9 1.901325 0.000000 -35.274982 -0.141064 -0.000000 -0.000000
 10 1.220856 -0.000001 -27.561966 0.000000 -0.000000 0.000000
 11 -35.658195 -1.977135 -14.300331 -0.143716 -0.000001 0.000000
 12 2.095196 -12.740982 -45.800961 1.105505 -0.000000 -0.000000
 13 -2.525246 -0.000004 -34.836563 -0.891713 0.000001 0.000002
 14 -1.229671 -0.000004 -26.461927 0.000000 -0.000000 0.000000
 15 0.585071 -7.544220 44.533745 0.157080 0.000000 -0.000000
 16 -35.591049 -1.703072 41.085175 0.022674 -0.027854 -0.081871
 17 -37.563446 14.762699 -50.295181 -0.279252 0.000000 -0.000000
 18 -10.963066 -41.811993 -33.818558 -0.366519 0.000001 0.000000
 19 -3.816719 -34.079018 -25.402435 0.000000 -0.000000 0.000000
 20 41.148888 -1.371414 40.606628 -0.370390 0.037693 0.096403
 21 39.457127 17.377466 -50.174316 -0.245372 -0.019946 -0.001911
 22 11.722160 -44.271454 -32.982758 -0.242925 0.024226 0.007891
 23 2.616638 -33.926422 -25.777023 0.000000 -0.000000 0.000000
 24 -0.737603 -0.369770 42.251785 0.000000 -0.000000 0.000000
 25 59.548954 34.667778 -1.733032 -1.623153 -0.000000 -0.000000
 26 7.710037 -174.312271 82.914406 0.000000 -0.000000 0.000000
 27 -48.533001 35.435547 -2.530457 -1.658062 -0.000000 -0.000000
 28 -11.661720 -173.988205 81.962166 0.000000 -0.000000 0.000000
 29 2.355416 41.099159 8.166306 -0.174533 0.000000 -0.000000
 30 3.826384 -31.749565 -1.878464 0.139626 0.000000 0.000000
 31 -0.684172 -11.661072 48.858276 0.000000 -0.000000 0.000000
 32 -0.072890 -1.756191 2.960083 0.000000 -0.000000 0.000000
time 11
  0 -5.180422 13.788269 -12.439880 0.000000 -0.000000 0.000000
  1 -5.180422 13.788269 -12.439880 0.000000 -0.000000 0.000000
  2 -5.180422 13.788269 -12.439880 0.000000 -0.000000 0.000000
  3 -5.180422 13.788269 -12.439880 0.000000 -0.000000 0.000000
  4 -4.455341 19.713478 299.953064 0.000000 -0.000000 0.000000
  5 -5.180422 18.668688 121.348938 0.087267 0.000000 -0.000000
  6 0.585070 4.634645 -15.754387 0.139627 0.000000 -0.000000
  7 44.000439 -0.454872 -14.063072 -0.389052 -0.000000 0.000000
  8 -1.648880 -14.263248 -46.038216 0.263097 -0.000001 0.000000
  9 1.901329 0.000000 -35.274979 -0.085891 -0.000000 -0.000000
 10 1.220860 -0.000001 -27.561970 0.000000 -0.000000 0.000000
 11 -35.658195 -1.977139 -14.300331 -0.325073 -0.000001 0.000000
 12 2.095192 -12.740986 -45.800968 1.300064 -0.000000 -0.000001
 13 -2.525249 0.000000 -34.836555 -0.872186 0.000001 0.000002
 14 -1.229671 0.000000 -26.461922 0.000000 -0.000000 0.000000
 15 0.585071 -7.512388 44.897606 0.157080 0.000000 -0.000000
 16 -35.591049 -1.703068 41.085190 -0.005492 -0.030257 -0.081405
 17 -37.563442 14.762707 -50.295181 -0.279252 0.000000 -0.000000
 18 -10.963066 -41.811996 -33.818542 -0.366519 0.000001 -0.000000
 19 -3.816711 -34.079025 -25.402435 0.000000 -0.000000 0.000000
 20 41.148888 -1.371414 40.606628 -0.402352 0.040946 0.095686
 21 39.457134 17.377462 -50.174316 -0.245372 -0.019946 -0.001911
 22 11.722160 -44.271458 -32.982788 -0.242925 0.024226 0.007891
 23 2.616631 -33.926430 -25.777012 0.000000 -0.000000 0.000000
 24 -0.737603 -0.369778 42.251755 0.000000 -0.000000 0.000000
 25 59.548954 34.258900 -3.372971 -1.623153 -0.000000 -0.000000
 26 7.710041 -174.312271 82.914406 0.000000 -0.000000 0.000000
 27 -48.533001 35.009098 -4.240814 -1.658062 -0.000000 -0.000000
 28 -11.661720 -173.988190 81.962173 0.000000 -0.000000 0.000000
 29 2.355416 41.099155 8.166321 -0.174533 0.000000 -0.000000
 30 3.826384 -32.072220 -3.172546 0.139626 0.000000 0.000000
 31 -0.684172 -11.661068 48.858292 0.000000 -0.000000 0.000000
 32 -0.072890 -1.756195 2.960083 0.000000 -0.000000 0.000000
time 12
  0 -5.180422 13.788269 -12.439880 0.000000 -0.000000 0.000000
  1 -5.180422 13.788269 -12.439880 0.000000 -0.000000 0.000000
  2 -5.180422 13.788269 -12.439880 0.000000 -0.000000 0.000000
  3 -5.180422 13.788269 -12.439880 0.000000 -0.000000 0.000000
  4 -4.455341 19.713478 299.953064 0.000000 -0.000000 0.000000
  5 -5.180422 18.668688 124.066002 0.087267 0.000000 -0.000000
  6 0.585070 4.634647 -15.754387 0.139627 0.000000 -0.000000
  7 44.000439 -0.454876 -14.063072 -0.270550 -0.000000 0.000000
  8 -1.648880 -14.263247 -46.038208 0.089384 -0.000001 0.000000
  9 1.901325 0.000000 -35.274979 -0.034720 -0.000000 -0.000000
 10 1.220856 -0.000002 -27.561966 0.000000 -0.000000 0.000000
 11 -35.658195 -1.977139 -14.300331 -0.561434 -0.000001 0.000000
 12 2.095196 -12.740986 -45.800964 1.480509 -0.000000 -0.000001
 13 -2.525249 -0.000004 -34.836563 -0.844067 0.000001 0.000001
 14 -1.229671 0.000000 -26.461926 0.000000 -0.000000 0.000000
 15 0.585071 -7.487411 45.183067 0.157080 0.000000 -0.000000
 16 -35.591053 -1.703068 41.085175 -0.024835 -0.031908 -0.081085
 17 -37.563442 14.762707 -50.295197 -0.279252 0.000000 -0.000000
 18 -10.963058 -41.811985 -33.818573 -0.366519 0.000001 0.000000
 19 -3.816711 -34.079018 -25.402435 0.000000 -0.000000 0.000000
 20 41.148884 -1.371414 40.606628 -0.424303 0.043180 0.095193
 21 39.457146 17.377464 -50.174316 -0.245372 -0.019946 -0.001911
 22 11.722168 -44.271446 -32.982758 -0.242925 0.024226 0.007891
 23 2.616638 -33.926422 -25.777016 0.000000 -0.000000 0.000000
 24 -0.737604 -0.369770 42.251770 0.000000 -0.000000 0.000000
 25 59.548958 33.893970 -4.836609 -1.623153 -0.000000 -0.000000
 26 7.710041 -174.312271 82.914413 0.000000 -0.000000 0.000000
 27 -48.533001 34.639179 -5.724472 -1.658062 -0.000000 -0.000000
 28 -11.661720 -173.988174 81.962166 0.000000 -0.000000 0.000000
 29 2.355416 41.099155 8.166306 -0.174533 0.000000 -0.000000
 30 3.826385 -32.377056 -4.395187 0.139626 0.000000 0.000000
 31 -0.684171 -11.661068 48.858292 0.000000 -0.000000 0.000000
 32 -0.072890 -1.756191 2.960083 0.000000 -0.000000 0.000000
time 13
  0 -5.180422 13.788269 -12.439880 0.000000 -0.000000 0.000000
  1 -5.180422 13.788269 -12.439880 0.000000 -0.000000 0.000000
  2 -5.180422 13.788269 -12.439880 0.000000 -0.000000 0.000000
  3 -5.180422 13.788269 -12.439880 0.000000 -0.000000 0.000000
  4 -4.455341 19.713478 299.953064 0.000000 -0.000000 0.000000
  5 -5.180422 18.668688 127.084869 0.087267 0.000000 -0.000000
  6 0.585070 4.634645 -15.754387 0.139627 0.000000 -0.000000
  7 44.000439 -0.454876 -14.063072 -0.165048 -0.000000 0.000000
  8 -1.648884 -14.263252 -46.038219 -0.065272 -0.000001 0.000000
  9 1.901325 -0.000001 -35.274975 0.010838 -0.000000 -0.000000
 10 1.220856 -0.000001 -27.561970 0.000000 -0.000000 0.000000
 11 -35.658195 -1.977139 -14.300331 -0.822801 -0.000000 0.000000
 12 2.095200 -12.740986 -45.800957 1.641159 -0.000000 -0.000001
 13 -2.525249 0.000004 -34.836555 -0.808933 0.000001 0.000001
 14 -1.229671 -0.000002 -26.461926 0.000000 -0.000000 0.000000
 15 0.585071 -7.471014 45.370499 0.157080 0.000000 -0.000000
 16 -35.591049 -1.703064 41.085190 -0.033355 -0.032635 -0.080945
 17 -37.563438 14.762707 -50.295181 -0.279252 0.000000 -0.000000
 18 -10.963066 -41.811996 -33.818558 -0.366519 0.000001 -0.000000
 19 -3.816727 -34.079033 -25.402443 0.000000 -0.000000 0.000000
 20 41.148888 -1.371410 40.606613 -0.433971 0.044164 0.094976
 21 39.457123 17.377464 -50.174316 -0.245372 -0.019946 -0.001911
 22 11.722168 -44.271446 -32.982773 -0.242925 0.024226 0.007891
 23 2.616638 -33.926422 -25.777023 0.000000 -0.000000 0.000000
 24 -0.737603 -0.369774 42.251755 0.000000 -0.000000 0.000000
 25 59.548958 33.587425 -6.066086 -1.623153 -0.000000 -0.000000
 26 7.710041 -174.312256 82.914406 0.000000 -0.000000 0.000000
 27 -48.533001 34.342697 -6.913605 -1.658062 -0.000000 -0.000000
 28 -11.661720 -173.988220 81.962173 0.000000 -0.000000 0.000000
 29 2.355416 41.099152 8.166306 -0.174533 0.000000 -0.000000
 30 3.826384 -32.655617 -5.512421 0.139626 0.000000 0.000000
 31 -0.684172 -11.661072 48.858276 0.000000 -0.000000 0.000000
 32 -0.072890 -1.756191 2.960068 0.000000 -0.000000 0.000000
time 14
  0 -5.180422 13.788269 -12.439880 0.000000 -0.000000 0.000000
  1 -5.180422 13.788269 -12.439880 0.000000 -0.000000 0.000000
  2 -5.180422 13.788269 -12.439880 0.000000 -0.000000 0.000000
  3 -5.180422 13.788269 -12.439880 0.000000 -0.000000 0.000000
  4 -4.455341 19.713478 299.953064 0.000000 -0.000000 0.000000
  5 -5.180422 18.668688 130.054352 0.087267 0.000000 -0.000000
  6 0.585070 4.634647 -15.754387 0.139627 0.000000 -0.000000
  7 44.000439 -0.454872 -14.063072 -0.076277 -0.000000 0.000000
  8 -1.648884 -14.263248 -46.038212 -0.195403 -0.000001 0.000000
  9 1.901325 0.000000 -35.274979 0.049171 -0.000000 -0.000000
 10 1.220856 -0.000002 -27.561970 0.000000 -0.000000 0.000000
 11 -35.658195 -1.977135 -14.300331 -1.079177 -0.000000 0.000000
 12 2.095192 -12.740978 -45.800968 1.776334 -0.000000 -0.000001
 13 -2.525249 -0.000004 -34.836563 -0.768362 0.000001 0.000001
 14 -1.229671 -0.000002 -26.461926 0.000000 -0.000000 0.000000
 15 0.585071 -7.464912 45.440224 0.157080 0.000000 -0.000000
 16 -35.591049 -1.703068 41.085175 -0.030990 -0.032433 -0.080984
 17 -37.563438 14.762711 -50.295166 -0.279252 0.000000 -0.000000
 18 -10.963066 -41.811989 -33.818558 -0.366519 0.000001 0.000000
 19 -3.816727 -34.079025 -25.402435 0.000000 -0.000000 0.000000
 20 41.148888 -1.371414 40.606613 -0.431287 0.043891 0.095036
 21 39.457134 17.377468 -50.174332 -0.245372 -0.019946 -0.001911
 22 11.722160 -44.271446 -32.982780 -0.242925 0.024226 0.007891
 23 2.616646 -33.926437 -25.777023 0.000000 -0.000000 0.000000
 24 -0.737603 -0.369770 42.251770 0.000000 -0.000000 0.000000
 25 59.548965 33.353699 -7.003510 -1.623153 -0.000000 -0.000000
 26 7.710041 -174.312271 82.914413 0.000000 -0.000000 0.000000
 27 -48.533001 34.136559 -7.740372 -1.658062 -0.000000 -0.000000
 28 -11.661724 -173.988174 81.962166 0.000000 -0.000000 0.000000
 29 2.355416 41.099152 8.166306 -0.174533 0.000000 -0.000000
 30 3.826385 -32.899456 -6.490402 0.139626 0.000000 0.000000
 31 -0.684172 -11.661072 48.858292 0.000000 -0.000000 0.000000
 32 -0.072890 -1.756191 2.960068 0.000000 -0.000000 0.000000
time 15
  0 -5.180422 13.788269 -12.439880 0.000000 -0.000000 0.000000
  1 -5.180422 13.788269 -12.439880 0.000000 -0.000000 0.000000
  2 -5.180422 13.788269 -12.439880 0.000000 -0.000000 0.000000
  3 -5.180422 13.788269 -12.439880 0.000000 -0.000000 0.000000
  4 -4.455341 19.713478 299.953064 0.000000 -0.000000 0.000000
  5 -5.180422 18.668688 132.623260 0.087267 0.000000 0.000000
  6 0.585070 4.634647 -15.754387 0.139627 0.000000 -0.000000
  7 44.000439 -0.454872 -14.063072 -0.007966 -0.000000 0.000000
  8 -1.648884 -14.263252 -46.038216 -0.295540 -0.000001 0.000000
  9 1.901329 0.000000 -35.274975 0.078669 -0.000000 -0.000000
 10 1.220860 -0.000004 -27.561970 0.000000 -0.000000 0.000000
 11 -35.658195 -1.977135 -14.300331 -1.300563 -0.000000 0.000001
 12 2.095196 -12.740974 -45.800972 1.880351 -0.000000 -0.000001
 13 -2.525249 0.000004 -34.836559 -0.723930 0.000001 0.000001
 14 -1.229671 -0.000004 -26.461926 0.000000 -0.000000 0.000000
 15 0.585071 -7.469109 45.392319 0.157080 0.000000 -0.000000
 16 -35.591049 -1.703072 41.085175 -0.021202 -0.031598 -0.081145
 17 -37.563438 14.762703 -50.295181 -0.279252 0.000000 -0.000000
 18 -10.963058 -41.811989 -33.818542 -0.366520 0.000001 -0.000000
 19 -3.816719 -34.079018 -25.402428 0.000000 -0.000000 0.000000
 20 41.148888 -1.371414 40.606628 -0.420180 0.042760 0.095285
 21 39.457138 17.377459 -50.174316 -0.245372 -0.019946 -0.001911
 22 11.722168 -44.271454 -32.982758 -0.242925 0.024226 0.007891
 23 2.616646 -33.926422 -25.777027 0.000000 -0.000000 0.000000
 24 -0.737603 -0.369774 42.251785 0.000000 -0.000000 0.000000
 25 59.548965 33.207214 -7.591034 -1.623153 -0.000000 -0.000000
 26 7.710041 -174.312256 82.914398 0.000000 -0.000000 0.000000
 27 -48.533001 34.037682 -8.136963 -1.658062 -0.000000 0.000000
 28 -11.661724 -173.988266 81.962189 0.000000 -0.000000 0.000000
 29 2.355416 41.099152 8.166306 -0.174533 0.000000 0.000000
 30 3.826385 -33.100117 -7.295227 0.139626 0.000000 0.000000
 31 -0.684172 -11.661068 48.858276 0.000000 -0.000000 0.000000
 32 -0.072890 -1.756191 2.960083 0.000000 -0.000000 0.000000
time 16
  0 -5.180422 13.788269 -12.439880 0.000000 -0.000000 0.000000
  1 -5.180422 13.788269 -12.439880 0.000000 -0.000000 0.000000
  2 -5.180422 13.788269 -12.439880 0.000000 -0.000000 0.000000
  3 -5.180422 13.788269 -12.439880 0.000000 -0.000000 0.000000
  4 -4.455341 19.713478 299.953064 0.000000 -0.000000 0.000000
  5 -5.180422 18.668688 134.440384 0.087267 0.000000 -0.000000
  6 0.585070 4.634647 -15.754379 0.139627 0.000000 -0.000000
  7 44.000435 -0.454872 -14.063072 0.036152 -0.000000 0.000000
  8 -1.648884 -14.263252 -46.038212 -0.360213 -0.000001 0.000000
  9 1.901329 -0.000002 -35.274979 0.097720 -0.000000 -0.000000
 10 1.220856 -0.000004 -27.561972 0.000000 -0.000000 0.000000
 11 -35.658199 -1.977139 -14.300331 -1.456961 -0.000000 0.000001
 12 2.095196 -12.740982 -45.800964 1.947532 -0.000000 -0.000001
 13 -2.525249 0.000008 -34.836552 -0.677215 0.000001 0.000001
 14 -1.229671 -0.000003 -26.461922 0.000000 -0.000000 0.000000
 15 0.585071 -7.481487 45.250793 0.157080 0.000000 -0.000000
 16 -35.591049 -1.703072 41.085175 -0.005042 -0.030219 -0.081413
 17 -37.563446 14.762711 -50.295212 -0.279252 0.000000 -0.000000
 18 -10.963051 -41.811996 -33.818542 -0.366519 0.000001 -0.000000
 19 -3.816719 -34.079041 -25.402428 0.000000 -0.000000 0.000000
 20 41.148888 -1.371414 40.606613 -0.401842 0.040894 0.095697
 21 39.457142 17.377464 -50.174332 -0.245372 -0.019946 -0.001911
 22 11.722176 -44.271446 -32.982758 -0.242925 0.024226 0.007891
 23 2.616653 -33.926422 -25.777023 0.000000 -0.000000 0.000000
 24 -0.737603 -0.369770 42.251770 0.000000 -0.000000 0.000000
 25 59.548965 33.162521 -7.770279 -1.623153 -0.000000 -0.000000
 26 7.710041 -174.312256 82.914406 0.000000 -0.000000 0.000000
 27 -48.533001 34.063660 -8.032791 -1.658062 -0.000000 0.000000
 28 -11.661724 -173.988251 81.962189 0.000000 -0.000000 0.000000
 29 2.355416 41.099152 8.166306 -0.174533 0.000000 0.000000
 30 3.826385 -33.249157 -7.892975 0.139626 0.000000 0.000000
 31 -0.684172 -11.661072 48.858292 0.000000 -0.000000 0.000000
 32 -0.072890 -1.756191 2.960068 0.000000 -0.000000 0.000000
time 17
  0 -5.180422 13.788269 -12.439880 0.000000 -0.000000 0.000000
  1 -5.180422 13.788269 -12.439880 0.000000 -0.000000 0.000000
  2 -5.180422 13.788269 -12.439880 0.000000 -0.000000 0.000000
  3 -5.180422 13.788269 -12.439880 0.000000 -0.000000 0.000000
  4 -4.455341 19.713478 299.953064 0.000000 -0.000000 0.000000
  5 -5.180422 18.668688 135.154541 0.087267 0.000000 -0.000000
  6 0.585070 4.634647 -15.754379 0.139627 0.000000 -0.000000
  7 44.000435 -0.454872 -14.063072 0.052348 -0.000000 0.000000
  8 -1.648880 -14.263248 -46.038204 -0.383955 -0.000001 0.000000
  9 1.901329 0.000002 -35.274982 0.104713 -0.000000 -0.000000
 10 1.220856 0.000000 -27.561970 0.000000 -0.000000 0.000000
 11 -35.658199 -1.977135 -14.300331 -1.518374 -0.000000 0.000001
 12 2.095200 -12.740990 -45.800961 1.972193 -0.000000 -0.000001
 13 -2.525249 0.000004 -34.836555 -0.629795 0.000001 0.000001
 14 -1.229671 -0.000003 -26.461918 0.000000 -0.000000 0.000000
 15 0.585071 -7.500896 45.028976 0.157080 0.000000 -0.000000
 16 -35.591049 -1.703064 41.085190 0.016522 -0.028379 -0.081769
 17 -37.563454 14.762718 -50.295181 -0.279252 0.000000 -0.000000
 18 -10.963051 -41.811989 -33.818558 -0.366519 0.000001 -0.000000
 19 -3.816719 -34.079033 -25.402435 0.000000 -0.000000 0.000000
 20 41.148888 -1.371414 40.606628 -0.377371 0.038404 0.096247
 21 39.457134 17.377466 -50.174332 -0.245372 -0.019946 -0.001911
 22 11.722176 -44.271454 -32.982750 -0.242925 0.024226 0.007891
 23 2.616631 -33.926422 -25.777016 0.000000 -0.000000 0.000000
 24 -0.737604 -0.369770 42.251755 0.000000 -0.000000 0.000000
 25 59.548965 33.244774 -7.440353 -1.623153 -0.000000 -0.000000
 26 7.710041 -174.312271 82.914398 0.000000 -0.000000 0.000000
 27 -48.533001 34.216415 -7.420074 -1.658062 -0.000000 0.000000
 28 -11.661724 -173.988235 81.962189 0.000000 -0.000000 0.000000
 29 2.355416 41.099152 8.166306 -0.174533 0.000000 0.000000
 30 3.826385 -33.338127 -8.249786 0.139626 0.000000 0.000000
 31 -0.684171 -11.661072 48.858307 0.000000 -0.000000 0.000000
 32 -0.072890 -1.756191 2.960083 0.000000 -0.000000 0.000000
time 18
  0 -5.180422 13.788269 -12.439880 0.000000 -0.000000 0.000000
  1 -5.180422 13.788269 -12.439880 0.000000 -0.000000 0.000000
  2 -5.180422 13.788269 -12.439880 0.000000 -0.000000 0.000000
  3 -5.180422 13.788269 -12.439880 0.000000 -0.000000 0.000000
  4 -4.455341 19.713478 299.953064 0.000000 -0.000000 0.000000
  5 -5.180422 18.668688 134.332565 0.087267 0.000000 -0.000000
  6 0.585070 4.634647 -15.754379 0.139627 0.000000 -0.000000
  7 44.000435 -0.454872 -14.063072 0.051534 0.000000 -0.000000
  8 -1.648880 -14.263248 -46.038216 -0.347331 -0.000001 0.000000
  9 1.901325 0.000002 -35.274979 0.053384 -0.000000 -0.000000
 10 1.220856 0.000000 -27.561968 0.000000 -0.000000 0.000000
 11 -35.658195 -1.977139 -14.300331 -1.494560 -0.000000 0.000001
 12 2.095200 -12.740990 -45.800961 1.935017 -0.000000 -0.000001
 13 -2.525249 -0.000004 -34.836563 -0.577656 0.000001 0.000001
 14 -1.229675 -0.000003 -26.461922 0.000000 -0.000000 0.000000
 15 0.585071 -7.526157 44.740234 0.157080 0.000000 -0.000000
 16 -35.591049 -1.703072 41.085175 0.042525 -0.026160 -0.082199
 17 -37.563450 14.762718 -50.295197 -0.279252 0.000000 -0.000000
 18 -10.963051 -41.811989 -33.818542 -0.366519 0.000001 -0.000000
 19 -3.816727 -34.079018 -25.402428 0.000000 -0.000000 0.000000
 20 41.148888 -1.371418 40.606628 -0.347862 0.035401 0.096909
 21 39.457130 17.377460 -50.174332 -0.245372 -0.019946 -0.001911
 22 11.722160 -44.271454 -32.982758 -0.242925 0.024226 0.007891
 23 2.616638 -33.926437 -25.777023 0.000000 -0.000000 0.000000
 24 -0.737603 -0.369770 42.251785 0.000000 -0.000000 0.000000
 25 59.548965 33.450508 -6.615234 -1.623153 -0.000000 -0.000000
 26 7.710041 -174.312271 82.914413 0.000000 -0.000000 0.000000
 27 -48.533001 34.477539 -6.372772 -1.658062 -0.000000 0.000000
 28 -11.661724 -173.988266 81.962196 0.000000 -0.000000 0.000000
 29 2.355416 41.099152 8.166306 -0.174533 0.000000 0.000000
 30 3.826385 -33.266014 -7.960587 0.139626 0.000000 0.000000
 31 -0.684172 -11.661072 48.858292 0.000000 -0.000000 0.000000
 32 -0.072890 -1.756195 2.960083 0.000000 -0.000000 0.000000
time 19
  0 -5.180422 13.788269 -12.439880 0.000000 -0.000000 0.000000
  1 -5.180422 13.788269 -12.439880 0.000000 -0.000000 0.000000
  2 -5.180422 13.788269 -12.439880 0.000000 -0.000000 0.000000
  3 -5.180422 13.788269 -12.439880 0.000000 -0.000000 0.000000
  4 -4.455341 19.713478 299.953064 0.000000 -0.000000 0.000000
  5 -5.180422 18.668688 132.098816 0.087267 0.000000 -0.000000
  6 0.585070 4.634645 -15.754379 0.139627 0.000000 -0.000000
  7 44.000439 -0.454872 -14.063072 0.048434 0.000000 0.000000
  8 -1.648884 -14.263248 -46.038216 -0.243186 -0.000001 0.000000
  9 1.901325 0.000000 -35.274986 -0.086000 -0.000000 -0.000000
 10 1.220856 0.000000 -27.561972 0.000000 -0.000000 0.000000
 11 -35.658195 -1.977135 -14.300331 -1.425165 -0.000000 0.000001
 12 2.095196 -12.740982 -45.800964 1.826889 -0.000000 -0.000001
 13 -2.525246 -0.000004 -34.836567 -0.516505 0.000001 0.000001
 14 -1.229671 -0.000004 -26.461933 0.000000 -0.000000 0.000000
 15 0.585071 -7.556105 44.397903 0.157080 0.000000 -0.000000
 16 -35.591049 -1.703060 41.085190 0.072000 -0.023644 -0.082686
 17 -37.563438 14.762726 -50.295197 -0.279252 0.000000 -0.000000
 18 -10.963051 -41.811981 -33.818542 -0.366519 0.000001 0.000000
 19 -3.816719 -34.079029 -25.402443 0.000000 -0.000000 0.000000
 20 41.148888 -1.371410 40.606613 -0.314414 0.031997 0.097660
 21 39.457146 17.377464 -50.174347 -0.245372 -0.019946 -0.001911
 22 11.722160 -44.271450 -32.982780 -0.242925 0.024226 0.007891
 23 2.616638 -33.926430 -25.777023 0.000000 -0.000000 0.000000
 24 -0.737603 -0.369770 42.251755 0.000000 -0.000000 0.000000
 25 59.548958 33.758957 -5.378113 -1.623153 -0.000000 -0.000000
 26 7.710041 -174.312241 82.914391 0.000000 -0.000000 0.000000
 27 -48.533001 34.827873 -4.967682 -1.658062 -0.000000 0.000000
 28 -11.661724 -173.988235 81.962189 0.000000 -0.000000 0.000000
 29 2.355416 41.099152 8.166306 -0.174533 0.000000 0.000000
 30 3.826384 -31.570213 -1.159088 0.139626 0.000000 0.000000
 31 -0.684172 -11.661072 48.858276 0.000000 -0.000000 0.000000
 32 -0.072890 -1.756191 2.960068 0.000000 -0.000000 0.000000
time 20
  0 -5.180422 13.788269 -12.439880 0.000000 -0.000000 0.000000
  1 -5.180422 13.788269 -12.439880 0.000000 -0.000000 0.000000
  2 -5.180422 13.788269 -12.439880 0.000000 -0.000000 0.000000
  3 -5.180422 13.788269 -12.439880 0.000000 -0.000000 0.000000
  4 -4.455341 19.713478 299.953064 0.000000 -0.000000 0.000000
  5 -5.180422 18.668688 128.981552 0.087267 0.000000 -0.000000
  6 0.585070 4.634647 -15.754395 0.139627 0.000000 -0.000000
  7 44.000439 -0.454872 -14.063072 0.042285 -0.000000 0.000000
  8 -1.648888 -14.263245 -46.038216 -0.087857 -0.000001 0.000000
  9 1.901325 0.000004 -35.274979 -0.280517 -0.000000 0.000000
 10 1.220856 -0.000002 -27.561968 0.000000 -0.000000 0.000000
 11 -35.658195 -1.977135 -14.300331 -1.318480 -0.000000 0.000001
 12 2.095192 -12.740982 -45.800964 1.660660 -0.000000 -0.000001
 13 -2.525246 0.000004 -34.836563 -0.448597 0.000001 0.000001
 14 -1.229675 -0.000004 -26.461926 0.000000 -0.000000 0.000000
 15 0.585070 -7.589575 44.015343 0.157080 0.000000 -0.000000
 16 -35.591049 -1.703060 41.085205 0.103982 -0.020915 -0.083215
 17 -37.563438 14.762718 -50.295197 -0.279252 0.000000 -0.000000
 18 -10.963043 -41.812000 -33.818558 -0.366519 0.000001 -0.000000
 19 -3.816719 -34.079033 -25.402435 0.000000 -0.000000 0.000000
 20 41.148888 -1.371410 40.606628 -0.278121 0.028303 0.098475
 21 39.457134 17.377462 -50.174316 -0.245372 -0.019946 -0.001911
 22 11.722168 -44.271446 -32.982758 -0.242925 0.024226 0.007891
 23 2.616646 -33.926453 -25.777023 0.000000 -0.000000 0.000000
 24 -0.737603 -0.369770 42.251770 0.000000 -0.000000 0.000000
 25 59.548954 34.149391 -3.812134 -1.623153 -0.000000 -0.000000
 26 7.710041 -174.312286 82.914413 0.000000 -0.000000 0.000000
 27 -48.533001 35.248245 -3.281647 -1.658062 -0.000000 0.000000
 28 -11.661724 -173.988251 81.962189 0.000000 -0.000000 0.000000
 29 2.355416 41.099152 8.166306 -0.174533 0.000000 0.000000
 30 3.826384 -30.767151 2.061813 0.139626 0.000000 0.000000
 31 -0.684172 -11.661072 48.858276 0.000000 -0.000000 0.000000
 32 -0.072890 -1.756191 2.960083 0.000000 -0.000000 0.000000
time 21
  0 -5.180422 13.788269 -12.439880 0.000000 -0.000000 0.000000
  1 -5.180422 13.788269 -12.439880 0.000000 -0.000000 0.000000
  2 -5.180422 13.788269 -12.439880 0.000000 -0.000000 0.000000
  3 -5.180422 13.788269 -12.439880 0.000000 -0.000000 0.000000
  4 -4.455341 19.713478 299.953064 0.000000 -0.000000 0.000000
  5 -5.180422 18.668688 125.509224 0.087267 0.000000 -0.000000
  6 0.585070 4.634649 -15.754387 0.139627 0.000000 -0.000000
  7 44.000439 -0.454872 -14.063072 0.032309 -0.000000 0.000000
  8 -1.648888 -14.263248 -46.038223 0.102303 -0.000001 -0.000000
  9 1.901329 0.000004 -35.274979 -0.497189 -0.000000 0.000001
 10 1.220856 0.000000 -27.561972 0.000000 -0.000000 0.000000
 11 -35.658195 -1.977135 -14.300331 -1.182765 -0.000000 0.000001
 12 2.095200 -12.740986 -45.800964 1.449196 -0.000000 -0.000001
 13 -2.525249 0.000000 -34.836563 -0.376192 0.000000 0.000001
 14 -1.229671 -0.000003 -26.461924 0.000000 -0.000000 0.000000
 15 0.585070 -7.625399 43.605873 0.157080 0.000000 -0.000000
 16 -35.591049 -1.703068 41.085190 0.137504 -0.018054 -0.083769
 17 -37.563450 14.762711 -50.295197 -0.279252 0.000000 -0.000000
 18 -10.963058 -41.811989 -33.818542 -0.366519 0.000001 -0.000000
 19 -3.816719 -34.079029 -25.402420 0.000000 -0.000000 0.000000
 20 41.148888 -1.371418 40.606628 -0.240081 0.024432 0.099329
 21 39.457138 17.377468 -50.174332 -0.245372 -0.019946 -0.001911
 22 11.722168 -44.271461 -32.982765 -0.242925 0.024226 0.007891
 23 2.616646 -33.926422 -25.777023 0.000000 -0.000000 0.000000
 24 -0.737604 -0.369778 42.251770 0.000000 -0.000000 0.000000
 25 59.548954 34.601089 -2.000534 -1.623153 -0.000000 -0.000000
 26 7.710041 -174.312256 82.914413 0.000000 -0.000000 0.000000
 27 -48.533001 35.719521 -1.391495 -1.658062 -0.000000 0.000000
 28 -11.661724 -173.988251 81.962204 0.000000 -0.000000 0.000000
 29 2.355416 41.099152 8.166306 -0.174533 0.000000 0.000000
 30 3.826384 -30.480988 3.209534 0.139626 0.000000 0.000000
 31 -0.684171 -11.661068 48.858276 0.000000 -0.000000 0.000000
 32 -0.072890 -1.756195 2.960083 0.000000 -0.000000 0.000000
time 22
  0 -5.180422 13.788269 -12.439880 0.000000 -0.000000 0.000000
  1 -5.180422 13.788269 -12.439880 0.000000 -0.000000 0.000000
  2 -5.180422 13.788269 -12.439880 0.000000 -0.000000 0.000000
  3 -5.180422 13.788269 -12.439880 0.000000 -0.000000 0.000000
  4 -4.455341 19.713478 299.953064 0.000000 -0.000000 0.000000
  5 -5.180422 18.668688 122.210297 0.087267 0.000000 -0.000000
  6 0.585070 4.634647 -15.754395 0.139627 0.000000 -0.000000
  7 44.000439 -0.454872 -14.063072 0.017727 0.000000 0.000000
  8 -1.648884 -14.263248 -46.038216 0.310940 -0.000001 -0.000000
  9 1.901329 0.000000 -35.274979 -0.703041 -0.000000 0.000001
 10 1.220860 -0.000004 -27.561972 0.000000 -0.000000 0.000000
 11 -35.658195 -1.977135 -14.300331 -1.026276 -0.000000 0.000000
 12 2.095196 -12.740990 -45.800976 1.205366 -0.000000 -0.000000
 13 -2.525253 0.000000 -34.836563 -0.301551 0.000000 0.000001
 14 -1.229675 -0.000004 -26.461927 0.000000 -0.000000 0.000000
 15 0.585070 -7.662411 43.182861 0.157080 0.000000 -0.000000
 16 -35.591049 -1.703068 41.085175 0.171599 -0.015145 -0.084333
 17 -37.563457 14.762711 -50.295181 -0.279252 0.000000 -0.000000
 18 -10.963066 -41.811993 -33.818550 -0.366519 0.000001 0.000000
 19 -3.816719 -34.079021 -25.402428 0.000000 -0.000000 0.000000
 20 41.148888 -1.371414 40.606628 -0.201389 0.020495 0.100198
 21 39.457134 17.377466 -50.174332 -0.245372 -0.019946 -0.001911
 22 11.722160 -44.271446 -32.982773 -0.242925 0.024226 0.007891
 23 2.616646 -33.926437 -25.777016 0.000000 -0.000000 0.000000
 24 -0.737603 -0.369766 42.251770 0.000000 -0.000000 0.000000
 25 59.548946 35.093277 -0.026443 -1.623153 -0.000000 -0.000000
 26 7.710041 -174.312256 82.914406 0.000000 -0.000000 0.000000
 27 -48.533001 36.222511 0.625916 -1.658062 -0.000000 0.000000
 28 -11.661720 -173.988235 81.962189 0.000000 -0.000000 0.000000
 29 2.355416 41.099152 8.166321 -0.174533 0.000000 0.000000
 30 3.826384 -30.233353 4.202759 0.139626 0.000000 0.000000
 31 -0.684172 -11.661072 48.858292 0.000000 -0.000000 0.000000
 32 -0.072890 -1.756191 2.960083 0.000000 -0.000000 0.000000
time 23
  0 -5.180422 13.788269 -12.439880 0.000000 -0.000000 0.000000
  1 -5.180422 13.788269 -12.439880 0.000000 -0.000000 0.000000
  2 -5.180422 13.788269 -12.439880 0.000000 -0.000000 0.000000
  3 -5.180422 13.788269 -12.439880 0.000000 -0.000000 0.000000
  4 -4.455341 19.713478 299.953064 0.000000 -0.000000 0.000000
  5 -5.180422 18.668688 119.613243 0.087267 0.000000 -0.000000
  6 0.585070 4.634647 -15.754387 0.139627 0.000000 -0.000000
  7 44.000435 -0.454872 -14.063072 -0.002238 -0.000000 -0.000000
  8 -1.648884 -14.263248 -46.038212 0.521701 -0.000001 -0.000000
  9 1.901329 0.000004 -35.274982 -0.865096 -0.000000 0.000001
 10 1.220856 -0.000004 -27.561968 0.000000 -0.000000 0.000000
 11 -35.658195 -1.977135 -14.300331 -0.857272 -0.000000 0.000000
 12 2.095192 -12.740990 -45.800968 0.942034 -0.000000 -0.000000
 13 -2.525249 0.000000 -34.836563 -0.226936 -0.000000 0.000001
 14 -1.229671 -0.000004 -26.461922 0.000000 -0.000000 0.000000
 15 0.585070 -7.699436 42.759628 0.157080 0.000000 -0.000000
 16 -35.591049 -1.703064 41.085190 0.205302 -0.012269 -0.084890
 17 -37.563450 14.762718 -50.295197 -0.279252 0.000000 -0.000000
 18 -10.963058 -41.811993 -33.818542 -0.366519 0.000001 0.000000
 19 -3.816719 -34.079037 -25.402435 0.000000 -0.000000 0.000000
 20 41.148888 -1.371410 40.606613 -0.163143 0.016603 0.101057
 21 39.457130 17.377466 -50.174332 -0.245372 -0.019946 -0.001911
 22 11.722168 -44.271446 -32.982758 -0.242925 0.024226 0.007891
 23 2.616646 -33.926430 -25.777016 0.000000 -0.000000 0.000000
 24 -0.737603 -0.369770 42.251755 0.000000 -0.000000 0.000000
 25 59.548939 35.605236 2.026917 -1.623153 -0.000000 -0.000000
 26 7.710041 -174.312271 82.914398 0.000000 -0.000000 0.000000
 27 -48.533001 36.738079 2.693741 -1.658062 -0.000000 0.000000
 28 -11.661720 -173.988251 81.962204 0.000000 -0.000000 0.000000
 29 2.355416 41.099155 8.166306 -0.174533 0.000000 0.000000
 30 3.826384 -30.022259 5.049408 0.139626 0.000000 0.000000
 31 -0.684172 -11.661072 48.858292 0.000000 -0.000000 0.000000
 32 -0.072890 -1.756191 2.960083 0.000000 -0.000000 0.000000
time 24
  0 -5.180422 13.788269 -12.439880 0.000000 -0.000000 0.000000
  1 -5.180422 13.788269 -12.439880 0.000000 -0.000000 0.000000
  2 -5.180422 13.788269 -12.439880 0.000000 -0.000000 0.000000
  3 -5.180422 13.788269 -12.439880 0.000000 -0.000000 0.000000
  4 -4.455341 19.713478 299.953064 0.000000 -0.000000 0.000000
  5 -5.180422 18.668688 118.246513 0.087267 0.000000 -0.000000
  6 0.585070 4.634647 -15.754395 0.139627 0.000000 -0.000000
  7 44.000435 -0.454872 -14.063072 -0.028366 -0.000000 0.000000
  8 -1.648884 -14.263252 -46.038223 0.718230 -0.000001 -0.000000
  9 1.901333 0.000004 -35.274986 -0.950380 -0.000000 0.000001
 10 1.220856 0.000000 -27.561968 0.000000 -0.000000 0.000000
 11 -35.658199 -1.977135 -14.300331 -0.684009 -0.000000 0.000000
 12 2.095192 -12.740982 -45.800964 0.672067 -0.000000 -0.000000
 13 -2.525249 0.000000 -34.836559 -0.154608 -0.000000 0.000001
 14 -1.229671 -0.000004 -26.461927 0.000000 -0.000000 0.000000
 15 0.585070 -7.735313 42.349548 0.157080 0.000000 -0.000000
 16 -35.591049 -1.703064 41.085190 0.237645 -0.009508 -0.085425
 17 -37.563450 14.762711 -50.295181 -0.279252 0.000000 -0.000000
 18 -10.963066 -41.812000 -33.818550 -0.366519 0.000001 -0.000000
 19 -3.816727 -34.079025 -25.402443 0.000000 -0.000000 0.000000
 20 41.148888 -1.371410 40.606613 -0.126439 0.012867 0.101881
 21 39.457138 17.377464 -50.174316 -0.245372 -0.019946 -0.001911
 22 11.722160 -44.271446 -32.982773 -0.242925 0.024226 0.007891
 23 2.616638 -33.926422 -25.777000 0.000000 -0.000000 0.000000
 24 -0.737603 -0.369770 42.251755 0.000000 -0.000000 0.000000
 25 59.548931 36.116222 4.076385 -1.623153 -0.000000 -0.000000
 26 7.710041 -174.312271 82.914413 0.000000 -0.000000 0.000000
 27 -48.533001 37.247059 4.735168 -1.658062 -0.000000 0.000000
 28 -11.661720 -173.988235 81.962189 0.000000 -0.000000 0.000000
 29 2.355416 41.099148 8.166306 -0.174533 0.000000 0.000000
 30 3.826384 -29.845734 5.757401 0.139626 0.000000 0.000000
 31 -0.684172 -11.661076 48.858292 0.000000 -0.000000 0.000000
 32 -0.072890 -1.756191 2.960083 0.000000 -0.000000 0.000000
time 25
  0 -5.180422 13.788269 -12.439880 0.000000 -0.000000 0.000000
  1 -5.180422 13.788269 -12.439880 0.000000 -0.000000 0.000000
  2 -5.180422 13.788269 -12.439880 0.000000 -0.000000 0.000000
  3 -5.180422 13.788269 -12.439880 0.000000 -0.000000 0.000000
  4 -4.455341 19.713478 299.953064 0.000000 -0.000000 0.000000
  5 -5.180422 18.668688 118.840218 0.087267 0.000000 -0.000000
  6 0.585070 4.634647 -15.754395 0.139627 0.000000 -0.000000
  7 44.000435 -0.454872 -14.063072 -0.113008 -0.000000 0.000000
  8 -1.648884 -14.263248 -46.038216 0.910450 -0.000001 -0.000000
  9 1.901333 0.000004 -35.274982 -0.941615 -0.000000 0.000001
 10 1.220856 -0.000008 -27.561970 0.000000 -0.000000 0.000000
 11 -35.658195 -1.977135 -14.300331 -0.514747 -0.000000 0.000000
 12 2.095196 -12.740985 -45.800961 0.408334 -0.000000 0.000000
 13 -2.525246 0.000000 -34.836559 -0.086827 -0.000000 0.000000
 14 -1.229675 -0.000004 -26.461926 0.000000 -0.000000 0.000000
 15 0.585070 -7.768873 41.965942 0.157080 0.000000 -0.000000
 16 -35.591049 -1.703068 41.085175 0.267664 -0.006947 -0.085921
 17 -37.563442 14.762726 -50.295204 -0.279252 0.000000 -0.000000
 18 -10.963043 -41.811989 -33.818558 -0.366519 0.000001 0.000000
 19 -3.816727 -34.079033 -25.402428 0.000000 -0.000000 0.000000
 20 41.148888 -1.371410 40.606613 -0.092374 0.009401 0.102646
 21 39.457138 17.377460 -50.174332 -0.245372 -0.019946 -0.001911
 22 11.722153 -44.271446 -32.982758 -0.242925 0.024226 0.007891
 23 2.616638 -33.926430 -25.777016 0.000000 -0.000000 0.000000
 24 -0.737603 -0.369766 42.251770 0.000000 -0.000000 0.000000
 25 59.548923 36.605503 6.038773 -1.623153 -0.000000 -0.000000
 26 7.710041 -174.312241 82.914406 0.000000 -0.000000 0.000000
 27 -48.533001 37.730297 6.673325 -1.658062 -0.000000 0.000000
 28 -11.661724 -173.988266 81.962204 0.000000 -0.000000 0.000000
 29 2.355416 41.099148 8.166306 -0.174533 0.000000 0.000000
 30 3.826384 -29.701790 6.334717 0.139626 0.000000 0.000000
 31 -0.684172 -11.661076 48.858276 0.000000 -0.000000 0.000000
 32 -0.072890 -1.756191 2.960068 0.000000 -0.000000 0.000000
time 26
  0 -5.180422 13.788269 -12.439880 0.000000 -0.000000 0.000000
  1 -5.180422 13.788269 -12.439880 0.000000 -0.000000 0.000000
  2 -5.180422 13.788269 -12.439880 0.000000 -0.000000 0.000000
  3 -5.180422 13.788269 -12.439880 0.000000 -0.000000 0.000000
  4 -4.455341 19.713478 299.953064 0.000000 -0.000000 0.000000
  5 -5.180422 18.668690 121.755981 0.087267 0.000000 -0.000000
  6 0.585070 4.634647 -15.754387 0.139627 0.000000 -0.000000
  7 44.000439 -0.454872 -14.063072 -0.370620 -0.000000 0.000000
  8 -1.648884 -14.263247 -46.038208 1.150685 -0.000001 -0.000000
  9 1.901329 0.000000 -35.274979 -0.879385 -0.000000 0.000001
 10 1.220856 0.000000 -27.561968 0.000000 -0.000000 0.000000
 11 -35.658195 -1.977135 -14.300331 -0.357742 -0.000000 0.000000
 12 2.095192 -12.740982 -45.800968 0.163698 -0.000000 0.000000
 13 -2.525249 0.000000 -34.836563 -0.025856 -0.000001 0.000000
 14 -1.229671 -0.000003 -26.461926 0.000000 -0.000000 0.000000
 15 0.585070 -7.798950 41.622162 0.157080 0.000000 -0.000000
 16 -35.591049 -1.703068 41.085190 0.294392 -0.004666 -0.086363
 17 -37.563446 14.762695 -50.295204 -0.279252 0.000000 -0.000000
 18 -10.963058 -41.811989 -33.818550 -0.366519 0.000001 -0.000000
 19 -3.816719 -34.079018 -25.402435 0.000000 -0.000000 0.000000
 20 41.148888 -1.371414 40.606628 -0.062043 0.006314 0.103327
 21 39.457130 17.377464 -50.174301 -0.245372 -0.019946 -0.001911
 22 11.722160 -44.271450 -32.982773 -0.242925 0.024226 0.007891
 23 2.616646 -33.926414 -25.777008 0.000000 -0.000000 0.000000
 24 -0.737604 -0.369778 42.251770 0.000000 -0.000000 0.000000
 25 59.548923 37.052334 7.830887 -1.623153 -0.000000 -0.000000
 26 7.710041 -174.312271 82.914406 0.000000 -0.000000 0.000000
 27 -48.533001 38.168644 8.431396 -1.658062 -0.000000 0.000000
 28 -11.661724 -173.988251 81.962181 0.000000 -0.000000 0.000000
 29 2.355416 41.099155 8.166306 -0.174533 0.000000 0.000000
 30 3.826384 -29.588455 6.789246 0.139626 0.000000 0.000000
 31 -0.684171 -11.661068 48.858276 0.000000 -0.000000 0.000000
 32 -0.072890 -1.756191 2.960083 0.000000 -0.000000 0.000000
time 27
  0 -5.180422 13.788269 -12.439880 0.000000 -0.000000 0.000000
  1 -5.180422 13.788269 -12.439880 0.000000 -0.000000 0.000000
  2 -5.180422 13.788269 -12.439880 0.000000 -0.000000 0.000000
  3 -5.180422 13.788269 -12.439880 0.000000 -0.000000 0.000000
  4 -4.455341 19.713478 299.953064 0.000000 -0.000000 0.000000
  5 -5.180422 18.668690 125.953758 0.087267 0.000000 -0.000000
  6 0.585070 4.634645 -15.754395 0.139627 0.000000 -0.000000
  7 44.000439 -0.454872 -14.063072 -0.724894 -0.000000 0.000000
  8 -1.648880 -14.263252 -46.038223 1.405621 -0.000000 -0.000000
  9 1.901333 0.000000 -35.274979 -0.787998 -0.000000 0.000001
 10 1.220856 -0.000004 -27.561968 0.000000 -0.000000 0.000000
 11 -35.658195 -1.977135 -14.300331 -0.221253 -0.000000 0.000000
 12 2.095192 -12.740984 -45.800964 -0.048971 -0.000000 0.000000
 13 -2.525249 0.000002 -34.836559 0.026046 -0.000001 0.000000
 14 -1.229671 -0.000003 -26.461927 0.000000 -0.000000 0.000000
 15 0.585070 -7.824377 41.331543 0.157080 0.000000 -0.000000
 16 -35.591049 -1.703072 41.085175 0.316862 -0.002748 -0.086734
 17 -37.563446 14.762703 -50.295189 -0.279252 0.000000 -0.000000
 18 -10.963066 -41.811993 -33.818565 -0.366519 0.000001 -0.000000
 19 -3.816719 -34.079033 -25.402435 0.000000 -0.000000 0.000000
 20 41.148888 -1.371418 40.606628 -0.036544 0.003719 0.103899
 21 39.457142 17.377468 -50.174332 -0.245372 -0.019946 -0.001911
 22 11.722160 -44.271454 -32.982765 -0.242925 0.024226 0.007891
 23 2.616653 -33.926430 -25.777023 0.000000 -0.000000 0.000000
 24 -0.737603 -0.369774 42.251785 0.000000 -0.000000 0.000000
 25 59.548920 37.435966 9.369568 -1.623153 -0.000000 -0.000000
 26 7.710041 -174.312256 82.914406 0.000000 -0.000000 0.000000
 27 -48.533001 38.542923 9.932541 -1.658062 -0.000000 0.000000
 28 -11.661724 -173.988251 81.962196 0.000000 -0.000000 0.000000
 29 2.355416 41.099152 8.166306 -0.174533 0.000000 0.000000
 30 3.826383 -29.503754 7.128967 0.139626 0.000000 0.000000
 31 -0.684172 -11.661072 48.858276 0.000000 -0.000000 0.000000
 32 -0.072890 -1.756195 2.960083 0.000000 -0.000000 0.000000
time 28
  0 -5.180422 13.788269 -12.439880 0.000000 -0.000000 0.000000
  1 -5.180422 13.788269 -12.439880 0.000000 -0.000000 0.000000
  2 -5.180422 13.788269 -12.439880 0.000000 -0.000000 0.000000
  3 -5.180422 13.788269 -12.439880 0.000000 -0.000000 0.000000
  4 -4.455341 19.713478 299.953064 0.000000 -0.000000 0.000000
  5 -5.180422 18.668692 130.325165 0.087267 0.000000 -0.000000
  6 0.585070 4.634647 -15.754387 0.139627 0.000000 -0.000000
  7 44.000439 -0.454872 -14.063065 -1.087415 -0.000000 0.000000
  8 -1.648880 -14.263245 -46.038223 1.636144 0.000000 -0.000000
  9 1.901329 -0.000004 -35.274986 -0.689415 -0.000000 0.000001
 10 1.220852 -0.000001 -27.561970 0.000000 -0.000000 0.000000
 11 -35.658195 -1.977139 -14.300331 -0.113536 -0.000000 0.000000
 12 2.095196 -12.740982 -45.800957 -0.216809 -0.000000 0.000000
 13 -2.525249 -0.000001 -34.836555 0.066617 -0.000001 0.000000
 14 -1.229671 -0.000004 -26.461922 0.000000 -0.000000 0.000000
 15 0.585070 -7.843983 41.107422 0.157080 0.000000 -0.000000
 16 -35.591049 -1.703064 41.085190 0.334109 -0.001276 -0.087019
 17 -37.563442 14.762718 -50.295166 -0.279252 0.000000 -0.000000
 18 -10.963058 -41.811996 -33.818550 -0.366519 0.000001 -0.000000
 19 -3.816719 -34.079033 -25.402443 0.000000 -0.000000 0.000000
 20 41.148888 -1.371410 40.606628 -0.016973 0.001727 0.104339
 21 39.457130 17.377464 -50.174316 -0.245372 -0.019946 -0.001911
 22 11.722160 -44.271446 -32.982742 -0.242925 0.024226 0.007891
 23 2.616638 -33.926430 -25.777023 0.000000 -0.000000 0.000000
 24 -0.737603 -0.369770 42.251770 0.000000 -0.000000 0.000000
 25 59.548912 37.735668 10.571625 -1.623153 -0.000000 -0.000000
 26 7.710041 -174.312241 82.914398 0.000000 -0.000000 0.000000
 27 -48.533001 38.833973 11.099930 -1.658062 -0.000000 0.000000
 28 -11.661720 -173.988266 81.962189 0.000000 -0.000000 0.000000
 29 2.355416 41.099148 8.166306 -0.174533 0.000000 0.000000
 30 3.826383 -29.445709 7.361801 0.139626 0.000000 0.000000
 31 -0.684172 -11.661072 48.858276 0.000000 -0.000000 0.000000
 32 -0.072890 -1.756191 2.960083 0.000000 -0.000000 0.000000
time 29
  0 -5.180422 13.788269 -12.439880 0.000000 -0.000000 0.000000
  1 -5.180422 13.788269 -12.439880 0.000000 -0.000000 0.000000
  2 -5.180422 13.788269 -12.439880 0.000000 -0.000000 0.000000
  3 -5.180422 13.788269 -12.439880 0.000000 -0.000000 0.000000
  4 -4.455341 19.713478 299.953064 0.000000 -0.000000 0.000000
  5 -5.180422 18.668694 133.761780 0.087267 0.000000 -0.000000
  6 0.585070 4.634647 -15.754387 0.139627 0.000000 -0.000000
  7 44.000439 -0.454872 -14.063072 -1.369764 -0.000000 0.000000
  8 -1.648884 -14.263260 -46.038216 1.803140 0.000000 -0.000000
  9 1.901329 0.000000 -35.274982 -0.605597 -0.000000 0.000000
 10 1.220852 -0.000002 -27.561966 0.000000 -0.000000 0.000000
 11 -35.658195 -1.977135 -14.300331 -0.042850 -0.000000 0.000000
 12 2.095200 -12.740982 -45.800961 -0.326947 -0.000000 0.000000
 13 -2.525249 0.000000 -34.836563 0.093595 -0.000001 0.000000
 14 -1.229668 -0.000004 -26.461924 0.000000 -0.000000 0.000000
 15 0.585070 -7.856602 40.963196 0.157080 0.000000 -0.000000
 16 -35.591049 -1.703072 41.085175 0.345165 -0.000333 -0.087202
 17 -37.563442 14.762695 -50.295181 -0.279252 0.000000 -0.000000
 18 -10.963051 -41.811989 -33.818565 -0.366520 0.000001 0.000000
 19 -3.816727 -34.079033 -25.402443 0.000000 -0.000000 0.000000
 20 41.148888 -1.371414 40.606628 -0.004426 0.000451 0.104620
 21 39.457130 17.377464 -50.174316 -0.245372 -0.019946 -0.001911
 22 11.722176 -44.271454 -32.982773 -0.242925 0.024226 0.007891
 23 2.616646 -33.926434 -25.777031 0.000000 -0.000000 0.000000
 24 -0.737604 -0.369774 42.251785 0.000000 -0.000000 0.000000
 25 59.548912 37.930702 11.353836 -1.623153 -0.000000 -0.000000
 26 7.710041 -174.312271 82.914406 0.000000 -0.000000 0.000000
 27 -48.533001 39.022667 11.856674 -1.658062 -0.000000 0.000000
 28 -11.661720 -173.988251 81.962189 0.000000 -0.000000 0.000000
 29 2.355416 41.099152 8.166306 -0.174533 0.000000 0.000000
 30 3.826383 -29.412315 7.495682 0.139626 0.000000 0.000000
 31 -0.684171 -11.661072 48.858292 0.000000 -0.000000 0.000000
 32 -0.072890 -1.756191 2.960083 0.000000 -0.000000 0.000000
time 30
  0 -5.180422 13.788269 -12.439880 0.000000 -0.000000 0.000000
  1 -5.180422 13.788269 -12.439880 0.000000 -0.000000 0.000000
  2 -5.180422 13.788269 -12.439880 0.000000 -0.000000 0.000000
  3 -5.180422 13.788269 -12.439880 0.000000 -0.000000 0.000000
  4 -4.455341 19.713478 299.953064 0.000000 -0.000000 0.000000
  5 -5.180422 18.668694 135.155258 0.087267 0.000000 -0.000000
  6 0.585070 4.634647 -15.754379 0.139627 0.000000 -0.000000
  7 44.000435 -0.454872 -14.063072 -1.483527 -0.000000 0.000000
  8 -1.648884 -14.263252 -46.038212 1.867497 0.000000 -0.000000
  9 1.901329 0.000000 -35.274979 -0.558504 -0.000000 0.000000
 10 1.220856 -0.000002 -27.561974 0.000000 -0.000000 0.000000
 11 -35.658199 -1.977135 -14.300331 -0.017453 -0.000000 -0.000000
 12 2.095200 -12.740982 -45.800964 -0.366519 -0.000000 0.000000
 13 -2.525249 0.000001 -34.836559 0.104720 -0.000001 0.000000
 14 -1.229671 -0.000002 -26.461922 0.000000 -0.000000 0.000000
 15 0.585070 -7.861073 40.912140 0.157080 0.000000 -0.000000
 16 -35.591049 -1.703072 41.085175 0.349065 0.000000 -0.087266
 17 -37.563446 14.762718 -50.295212 -0.279252 0.000000 -0.000000
 18 -10.963058 -41.811989 -33.818535 -0.366519 0.000001 -0.000000
 19 -3.816719 -34.079029 -25.402443 0.000000 -0.000000 0.000000
 20 41.148888 -1.371418 40.606628 -0.000000 0.000000 0.104720
 21 39.457146 17.377460 -50.174316 -0.245372 -0.019946 -0.001911
 22 11.722168 -44.271458 -32.982773 -0.242925 0.024226 0.007891
 23 2.616638 -33.926426 -25.777023 0.000000 -0.000000 0.000000
 24 -0.737603 -0.369774 42.251785 0.000000 -0.000000 0.000000
 25 59.548912 38.000328 11.633072 -1.623153 -0.000000 -0.000000
 26 7.710041 -174.312241 82.914413 0.000000 -0.000000 0.000000
 27 -48.533001 39.089821 12.126038 -1.658062 -0.000000 0.000000
 28 -11.661724 -173.988235 81.962196 0.000000 -0.000000 0.000000
 29 2.355416 41.099159 8.166306 -0.174533 0.000000 0.000000
 30 3.826383 -29.401630 7.538544 0.139626 0.000000 0.000000
 31 -0.684172 -11.661072 48.858276 0.000000 -0.000000 0.000000
 32 -0.072890 -1.756195 2.960083 0.000000 -0.000000 0.000000
end
