version 1
nodes
  0 "bone35"  -1
end
skeleton
time 0
  0 -2.353024 -5.184927 2.091171 0.000000 -0.000000 0.000000
end
triangles
01_-_Default
  0 -24.512997 -76.621269 -0.437469 -0.654724 -0.540547 -0.528342 0.817700 0.508137 1 0 1.000000
  0 -20.394726 -79.181496 34.866013 -0.512256 -0.591964 0.622231 0.738539 0.508137 1 0 1.000000
  0 -20.566372 9.261473 29.279907 -0.605670 0.550891 0.574180 0.738539 0.686869 1 0 1.000000
01_-_Default
  0 -24.512997 -76.621269 -0.437469 -0.654724 -0.540547 -0.528342 0.817700 0.508137 1 0 1.000000
  0 -20.566372 9.261473 29.279907 -0.605670 0.550891 0.574180 0.738539 0.686869 1 0 1.000000
  0 -23.716396 9.373329 -0.521164 -0.670440 0.531025 -0.518191 0.817700 0.686869 1 0 1.000000
01_-_Default
  0 -23.716396 9.373329 -0.521164 -0.670440 0.531025 -0.518191 0.447341 0.436868 1 0 1.000000
  0 -20.566372 9.261473 29.279907 -0.605670 0.550891 0.574180 0.532210 0.436954 1 0 1.000000
  0 36.298634 17.964432 33.079048 0.677237 0.587890 0.442420 0.532549 0.360744 1 0 1.000000
01_-_Default
  0 -23.716396 9.373329 -0.521164 -0.670440 0.531025 -0.518191 0.447341 0.436868 1 0 1.000000
  0 36.298634 17.964432 33.079048 0.677237 0.587890 0.442420 0.532549 0.360744 1 0 1.000000
  0 18.717796 15.939924 -4.981171 0.368262 0.624102 -0.689115 0.447680 0.360659 1 0 1.000000
01_-_Default
  0 18.717796 15.939924 -4.981171 0.368262 0.624102 -0.689115 0.896863 0.686927 1 0 1.000000
  0 36.298634 17.964432 33.079048 0.677237 0.587890 0.442420 0.976025 0.686986 1 0 1.000000
  0 26.377110 -78.677933 28.328354 0.652859 -0.595789 0.467772 0.976025 0.508254 1 0 1.000000
01_-_Default
  0 18.717796 15.939924 -4.981171 0.368262 0.624102 -0.689115 0.896863 0.686927 1 0 1.000000
  0 26.377110 -78.677933 28.328354 0.652859 -0.595789 0.467772 0.976025 0.508254 1 0 1.000000
  0 22.372322 -78.351944 -5.365295 0.517586 -0.565872 -0.641790 0.896863 0.508195 1 0 1.000000
01_-_Default
  0 22.372322 -78.351944 -5.365295 0.517586 -0.565872 -0.641790 0.689832 0.486734 1 0 1.000000
  0 26.377110 -78.677933 28.328354 0.652859 -0.595789 0.467772 0.689832 0.316316 1 0 1.000000
  0 -20.394726 -79.181496 34.866013 -0.512256 -0.591964 0.622231 0.621531 0.316316 1 0 1.000000
01_-_Default
  0 22.372322 -78.351944 -5.365295 0.517586 -0.565872 -0.641790 0.689832 0.486734 1 0 1.000000
  0 -20.394726 -79.181496 34.866013 -0.512256 -0.591964 0.622231 0.621531 0.316316 1 0 1.000000
  0 -24.512997 -76.621269 -0.437469 -0.654724 -0.540547 -0.528342 0.621531 0.486734 1 0 1.000000
01_-_Default
  0 22.372322 -78.351944 -5.365295 0.517586 -0.565872 -0.641790 0.896863 0.508195 1 0 1.000000
  0 -24.512997 -76.621269 -0.437469 -0.654724 -0.540547 -0.528342 0.817700 0.508137 1 0 1.000000
  0 -23.716396 9.373329 -0.521164 -0.670440 0.531025 -0.518191 0.817700 0.686869 1 0 1.000000
01_-_Default
  0 22.372322 -78.351944 -5.365295 0.517586 -0.565872 -0.641790 0.896863 0.508195 1 0 1.000000
  0 -23.716396 9.373329 -0.521164 -0.670440 0.531025 -0.518191 0.817700 0.686869 1 0 1.000000
  0 18.717796 15.939924 -4.981171 0.368262 0.624102 -0.689115 0.896863 0.686927 1 0 1.000000
01_-_Default
  0 -20.394726 -79.181496 34.866013 -0.512256 -0.591964 0.622231 0.817497 0.508137 1 0 1.000000
  0 26.377110 -78.677933 28.328354 0.652859 -0.595789 0.467772 0.896658 0.508137 1 0 1.000000
  0 36.298634 17.964432 33.079048 0.677237 0.587890 0.442420 0.896658 0.686869 1 0 1.000000
01_-_Default
  0 -20.394726 -79.181496 34.866013 -0.512256 -0.591964 0.622231 0.817497 0.508137 1 0 1.000000
  0 36.298634 17.964432 33.079048 0.677237 0.587890 0.442420 0.896658 0.686869 1 0 1.000000
  0 -20.566372 9.261473 29.279907 -0.605670 0.550891 0.574180 0.817497 0.686869 1 0 1.000000
01_-_Default
  0 -19.487240 -87.617401 4.233734 -0.965585 -0.231932 0.117702 0.770178 0.266675 1 0 1.000000
  0 -17.512157 -87.632996 23.966858 -0.959675 -0.269081 0.081357 0.722368 0.266675 1 0 1.000000
  0 -1.058545 -40.783577 20.862854 -0.387558 0.731901 0.560464 0.686423 0.114681 1 0 1.000000
01_-_Default
  0 -19.487240 -87.617401 4.233734 -0.965585 -0.231932 0.117702 0.770178 0.266675 1 0 1.000000
  0 -1.058545 -40.783577 20.862854 -0.387558 0.731901 0.560464 0.686423 0.114681 1 0 1.000000
  0 -1.856870 -40.792336 11.786041 -0.459880 0.749280 -0.476539 0.806124 0.114681 1 0 1.000000
01_-_Default
  0 -1.856870 -40.792336 11.786041 -0.459880 0.749280 -0.476539 0.851204 0.890787 1 0 1.000000
  0 -1.058545 -40.783577 20.862854 -0.387558 0.731901 0.560464 0.956343 0.890787 1 0 1.000000
  0 16.876453 -44.225533 21.951324 0.604073 0.544213 0.582175 0.956343 0.795691 1 0 1.000000
01_-_Default
  0 -1.856870 -40.792336 11.786041 -0.459880 0.749280 -0.476539 0.851204 0.890787 1 0 1.000000
  0 16.876453 -44.225533 21.951324 0.604073 0.544213 0.582175 0.956343 0.795691 1 0 1.000000
  0 15.475284 -44.234360 7.134308 0.454690 0.545733 -0.703869 0.851204 0.795691 1 0 1.000000
01_-_Default
  0 15.475284 -44.234360 7.134308 0.454690 0.545733 -0.703869 0.909913 0.296304 1 0 1.000000
  0 16.876453 -44.225533 21.951324 0.604073 0.544213 0.582175 0.985289 0.296304 1 0 1.000000
  0 22.296524 -81.261520 17.871292 0.805511 -0.115122 0.581291 0.975414 0.154569 1 0 1.000000
01_-_Default
  0 15.475284 -44.234360 7.134308 0.454690 0.545733 -0.703869 0.909913 0.296304 1 0 1.000000
  0 22.296524 -81.261520 17.871292 0.805511 -0.115122 0.581291 0.975414 0.154569 1 0 1.000000
  0 21.355991 -81.225197 6.728714 0.753093 -0.033109 -0.657080 0.919788 0.154569 1 0 1.000000
01_-_Default
  0 2.492953 -94.253166 3.184418 0.525681 -0.649383 0.549511 0.740268 0.608890 1 0 1.000000
  0 -11.112470 -96.700798 26.114563 -0.410329 -0.795531 -0.445827 0.817497 0.686869 1 0 1.000000
  0 -13.645368 -96.685280 1.008469 -0.250812 -0.753428 0.607816 0.738539 0.686869 1 0 1.000000
01_-_Default
  0 3.985766 -83.898300 2.923447 0.215737 -0.081393 -0.973053 0.868443 0.958287 1 0 1.000000
  0 -19.487240 -87.617401 4.233734 -0.965585 -0.231932 0.117702 0.897025 0.961179 1 0 1.000000
  0 -1.856870 -40.792336 11.786041 -0.459880 0.749280 -0.476539 0.922145 0.912227 1 0 1.000000
01_-_Default
  0 21.355991 -81.225197 6.728714 0.753093 -0.033109 -0.657080 0.824607 0.951817 1 0 1.000000
  0 -1.856870 -40.792336 11.786041 -0.459880 0.749280 -0.476539 0.922145 0.912227 1 0 1.000000
  0 15.475284 -44.234360 7.134308 0.454690 0.545733 -0.703869 0.821223 0.876755 1 0 1.000000
01_-_Default
  0 -17.512157 -87.632996 23.966858 -0.959675 -0.269081 0.081357 0.896702 0.961179 1 0 1.000000
  0 5.821033 -83.885071 19.584946 0.194708 -0.322071 0.926477 0.858201 0.957283 1 0 1.000000
  0 16.876453 -44.225533 21.951324 0.604073 0.544213 0.582175 0.821116 0.876755 1 0 1.000000
01_-_Default
  0 -17.512157 -87.632996 23.966858 -0.959675 -0.269081 0.081357 0.896702 0.961179 1 0 1.000000
  0 16.876453 -44.225533 21.951324 0.604073 0.544213 0.582175 0.821116 0.876755 1 0 1.000000
  0 -1.058545 -40.783577 20.862854 -0.387558 0.731901 0.560464 0.921821 0.912227 1 0 1.000000
01_-_Default
  0 4.329427 -94.235313 19.846252 0.425128 -0.672908 -0.605361 0.817497 0.608608 1 0 1.000000
  0 -11.112470 -96.700798 26.114563 -0.410329 -0.795531 -0.445827 0.817497 0.686869 1 0 1.000000
  0 2.492953 -94.253166 3.184418 0.525681 -0.649383 0.549511 0.740268 0.608890 1 0 1.000000
01_-_Default
  0 21.355991 -81.225197 6.728714 0.753093 -0.033109 -0.657080 0.824607 0.951817 1 0 1.000000
  0 3.985766 -83.898300 2.923447 0.215737 -0.081393 -0.973053 0.868443 0.958287 1 0 1.000000
  0 -1.856870 -40.792336 11.786041 -0.459880 0.749280 -0.476539 0.922145 0.912227 1 0 1.000000
01_-_Default
  0 18.301243 -91.899757 8.388443 0.577590 -0.664219 -0.474556 0.740268 0.608890 1 0 1.000000
  0 7.987689 -93.632469 17.671829 -0.394523 -0.719449 0.571616 0.817497 0.686869 1 0 1.000000
  0 6.631427 -93.649086 5.500717 -0.428128 -0.726201 -0.537901 0.738539 0.686869 1 0 1.000000
01_-_Default
  0 18.301243 -91.899757 8.388443 0.577590 -0.664219 -0.474556 0.740268 0.608890 1 0 1.000000
  0 19.002155 -91.923454 16.526794 0.581409 -0.650200 0.489083 0.817497 0.608608 1 0 1.000000
  0 7.987689 -93.632469 17.671829 -0.394523 -0.719449 0.571616 0.817497 0.686869 1 0 1.000000
01_-_Default
  0 5.821033 -83.885071 19.584946 0.194708 -0.322071 0.926477 0.858201 0.957283 1 0 1.000000
  0 22.296524 -81.261520 17.871292 0.805511 -0.115122 0.581291 0.824284 0.951817 1 0 1.000000
  0 16.876453 -44.225533 21.951324 0.604073 0.544213 0.582175 0.821116 0.876755 1 0 1.000000
01_-_Default
  0 -17.512157 -87.632996 23.966858 -0.959675 -0.269081 0.081357 0.024464 0.769939 1 0 1.000000
  0 -19.487240 -87.617401 4.233734 -0.965585 -0.231932 0.117702 0.024204 0.769972 1 0 1.000000
  0 -11.112470 -96.700798 26.114563 -0.410329 -0.795531 -0.445827 0.146943 0.769941 1 0 1.000000
01_-_Default
  0 -13.645368 -96.685280 1.008469 -0.250812 -0.753428 0.607816 0.146855 0.769983 1 0 1.000000
  0 -11.112470 -96.700798 26.114563 -0.410329 -0.795531 -0.445827 0.146943 0.769941 1 0 1.000000
  0 -19.487240 -87.617401 4.233734 -0.965585 -0.231932 0.117702 0.024204 0.769972 1 0 1.000000
01_-_Default
  0 3.985766 -83.898300 2.923447 0.215737 -0.081393 -0.973053 0.024464 0.693324 1 0 1.000000
  0 -19.487240 -87.617401 4.233734 -0.965585 -0.231932 0.117702 0.024204 0.769972 1 0 1.000000
  0 -13.645368 -96.685280 1.008469 -0.250812 -0.753428 0.607816 0.146855 0.769983 1 0 1.000000
01_-_Default
  0 -13.645368 -96.685280 1.008469 -0.250812 -0.753428 0.607816 0.146855 0.769983 1 0 1.000000
  0 2.492953 -94.253166 3.184418 0.525681 -0.649383 0.549511 0.147191 0.693379 1 0 1.000000
  0 3.985766 -83.898300 2.923447 0.215737 -0.081393 -0.973053 0.024464 0.693324 1 0 1.000000
01_-_Default
  0 -17.512157 -87.632996 23.966858 -0.959675 -0.269081 0.081357 0.024464 0.769939 1 0 1.000000
  0 5.821033 -83.885071 19.584946 0.194708 -0.322071 0.926477 0.024438 0.693324 1 0 1.000000
  0 4.329427 -94.235313 19.846252 0.425128 -0.672908 -0.605361 0.147205 0.693378 1 0 1.000000
01_-_Default
  0 4.329427 -94.235313 19.846252 0.425128 -0.672908 -0.605361 0.147205 0.693378 1 0 1.000000
  0 -11.112470 -96.700798 26.114563 -0.410329 -0.795531 -0.445827 0.146943 0.769941 1 0 1.000000
  0 -17.512157 -87.632996 23.966858 -0.959675 -0.269081 0.081357 0.024464 0.769939 1 0 1.000000
01_-_Default
  0 3.985766 -83.898300 2.923447 0.215737 -0.081393 -0.973053 0.024212 0.769965 1 0 1.000000
  0 5.821033 -83.885071 19.584946 0.194708 -0.322071 0.926477 0.146802 0.769944 1 0 1.000000
  0 2.492953 -94.253166 3.184418 0.525681 -0.649383 0.549511 0.024965 0.693255 1 0 1.000000
01_-_Default
  0 4.329427 -94.235313 19.846252 0.425128 -0.672908 -0.605361 0.147012 0.693058 1 0 1.000000
  0 2.492953 -94.253166 3.184418 0.525681 -0.649383 0.549511 0.024965 0.693255 1 0 1.000000
  0 5.821033 -83.885071 19.584946 0.194708 -0.322071 0.926477 0.146802 0.769944 1 0 1.000000
01_-_Default
  0 21.355991 -81.225197 6.728714 0.753093 -0.033109 -0.657080 0.380190 0.670187 1 0 1.000000
  0 22.296524 -81.261520 17.871292 0.805511 -0.115122 0.581291 0.317362 0.670187 1 0 1.000000
  0 18.301243 -91.899757 8.388443 0.577590 -0.664219 -0.474556 0.380190 0.670187 1 0 1.000000
01_-_Default
  0 19.002155 -91.923454 16.526794 0.581409 -0.650200 0.489083 0.317362 0.670187 1 0 1.000000
  0 18.301243 -91.899757 8.388443 0.577590 -0.664219 -0.474556 0.380190 0.670187 1 0 1.000000
  0 22.296524 -81.261520 17.871292 0.805511 -0.115122 0.581291 0.317362 0.670187 1 0 1.000000
01_-_Default
  0 3.985766 -83.898300 2.923447 0.215737 -0.081393 -0.973053 0.380190 0.804140 1 0 1.000000
  0 21.355991 -81.225197 6.728714 0.753093 -0.033109 -0.657080 0.380190 0.670187 1 0 1.000000
  0 6.631427 -93.649086 5.500717 -0.428128 -0.726201 -0.537901 0.380190 0.804140 1 0 1.000000
01_-_Default
  0 18.301243 -91.899757 8.388443 0.577590 -0.664219 -0.474556 0.380190 0.670187 1 0 1.000000
  0 6.631427 -93.649086 5.500717 -0.428128 -0.726201 -0.537901 0.380190 0.804140 1 0 1.000000
  0 21.355991 -81.225197 6.728714 0.753093 -0.033109 -0.657080 0.380190 0.670187 1 0 1.000000
01_-_Default
  0 5.821033 -83.885071 19.584946 0.194708 -0.322071 0.926477 0.347403 0.807702 1 0 1.000000
  0 3.985766 -83.898300 2.923447 0.215737 -0.081393 -0.973053 0.380190 0.804140 1 0 1.000000
  0 7.987689 -93.632469 17.671829 -0.394523 -0.719449 0.571616 0.347403 0.807702 1 0 1.000000
01_-_Default
  0 6.631427 -93.649086 5.500717 -0.428128 -0.726201 -0.537901 0.380190 0.804140 1 0 1.000000
  0 7.987689 -93.632469 17.671829 -0.394523 -0.719449 0.571616 0.347403 0.807702 1 0 1.000000
  0 3.985766 -83.898300 2.923447 0.215737 -0.081393 -0.973053 0.380190 0.804140 1 0 1.000000
01_-_Default
  0 22.296524 -81.261520 17.871292 0.805511 -0.115122 0.581291 0.317362 0.670187 1 0 1.000000
  0 5.821033 -83.885071 19.584946 0.194708 -0.322071 0.926477 0.347403 0.807702 1 0 1.000000
  0 19.002155 -91.923454 16.526794 0.581409 -0.650200 0.489083 0.317362 0.670187 1 0 1.000000
01_-_Default
  0 7.987689 -93.632469 17.671829 -0.394523 -0.719449 0.571616 0.347403 0.807702 1 0 1.000000
  0 19.002155 -91.923454 16.526794 0.581409 -0.650200 0.489083 0.317362 0.670187 1 0 1.000000
  0 5.821033 -83.885071 19.584946 0.194708 -0.322071 0.926477 0.347403 0.807702 1 0 1.000000
01_-_Default
  0 -13.209622 -70.166595 30.516037 -0.630809 -0.499571 0.593725 0.824325 0.003193 1 0 1.000000
  0 38.824398 37.597717 35.803719 0.188912 0.650877 0.735304 0.821005 0.484284 1 0 1.000000
  0 -15.482587 -70.068558 5.394791 -0.709400 -0.474347 -0.521293 0.838489 0.002961 1 0 1.000000
01_-_Default
  0 38.824398 37.597717 35.803719 0.188912 0.650877 0.735304 0.821005 0.484284 1 0 1.000000
  0 37.659763 40.272514 12.039391 0.092303 0.877020 -0.471503 0.856468 0.483704 1 0 1.000000
  0 -15.482587 -70.068558 5.394791 -0.709400 -0.474347 -0.521293 0.838489 0.002961 1 0 1.000000
01_-_Default
  0 38.824398 37.597717 35.803719 0.188912 0.650877 0.735304 0.984013 0.481770 1 0 1.000000
  0 40.005535 27.340845 27.115501 0.956225 -0.110509 0.270963 0.984013 0.403968 1 0 1.000000
  0 37.659763 40.272514 12.039391 0.092303 0.877020 -0.471503 0.947360 0.481770 1 0 1.000000
01_-_Default
  0 40.005535 27.340845 27.115501 0.956225 -0.110509 0.270963 0.984013 0.403968 1 0 1.000000
  0 39.579151 32.144073 13.595985 0.940152 0.093165 -0.327771 0.947360 0.403968 1 0 1.000000
  0 37.659763 40.272514 12.039391 0.092303 0.877020 -0.471503 0.947360 0.481770 1 0 1.000000
01_-_Default
  0 40.005535 27.340845 27.115501 0.956225 -0.110509 0.270963 0.959493 0.390397 1 0 1.000000
  0 35.469624 -63.251251 28.648376 0.631428 -0.542216 0.554346 0.956324 0.007167 1 0 1.000000
  0 39.579151 32.144073 13.595985 0.940152 0.093165 -0.327771 0.935308 0.390397 1 0 1.000000
01_-_Default
  0 35.469624 -63.251251 28.648376 0.631428 -0.542216 0.554346 0.956324 0.007167 1 0 1.000000
  0 33.034016 -63.153305 1.983826 0.536498 -0.516307 -0.667531 0.938476 0.007167 1 0 1.000000
  0 39.579151 32.144073 13.595985 0.940152 0.093165 -0.327771 0.935308 0.390397 1 0 1.000000
01_-_Default
  0 35.469624 -63.251251 28.648376 0.631428 -0.542216 0.554346 0.996998 0.494975 1 0 1.000000
  0 -13.209622 -70.166595 30.516037 -0.630809 -0.499571 0.593725 0.996998 0.396004 1 0 1.000000
  0 33.034016 -63.153305 1.983826 0.536498 -0.516307 -0.667531 0.938399 0.494975 1 0 1.000000
01_-_Default
  0 -13.209622 -70.166595 30.516037 -0.630809 -0.499571 0.593725 0.996998 0.396004 1 0 1.000000
  0 -15.482587 -70.068558 5.394791 -0.709400 -0.474347 -0.521293 0.938399 0.396004 1 0 1.000000
  0 33.034016 -63.153305 1.983826 0.536498 -0.516307 -0.667531 0.938399 0.494975 1 0 1.000000
01_-_Default
  0 -15.482587 -70.068558 5.394791 -0.709400 -0.474347 -0.521293 0.874472 0.002373 1 0 1.000000
  0 37.659763 40.272514 12.039391 0.092303 0.877020 -0.471503 0.859197 0.483660 1 0 1.000000
  0 33.034016 -63.153305 1.983826 0.536498 -0.516307 -0.667531 0.905125 0.040406 1 0 1.000000
01_-_Default
  0 37.659763 40.272514 12.039391 0.092303 0.877020 -0.471503 0.859197 0.483660 1 0 1.000000
  0 39.579151 32.144073 13.595985 0.940152 0.093165 -0.327771 0.933508 0.419106 1 0 1.000000
  0 33.034016 -63.153305 1.983826 0.536498 -0.516307 -0.667531 0.905125 0.040406 1 0 1.000000
01_-_Default
  0 35.469624 -63.251251 28.648376 0.631428 -0.542216 0.554346 0.905264 0.040404 1 0 1.000000
  0 40.005535 27.340845 27.115501 0.956225 -0.110509 0.270963 0.933645 0.419104 1 0 1.000000
  0 -13.209622 -70.166595 30.516037 -0.630809 -0.499571 0.593725 0.874610 0.002371 1 0 1.000000
01_-_Default
  0 40.005535 27.340845 27.115501 0.956225 -0.110509 0.270963 0.933645 0.419104 1 0 1.000000
  0 38.824398 37.597717 35.803719 0.188912 0.650877 0.735304 0.859336 0.483657 1 0 1.000000
  0 -13.209622 -70.166595 30.516037 -0.630809 -0.499571 0.593725 0.874610 0.002371 1 0 1.000000
end
