version 1
nodes
  0 "bone_27"  -1
  1 "bone_29"   0
  2 "bone_30"   1
  3 "bone_26"   0
  4 "bone_3"   3
  5 "bone_28"   3
  6 "bone_7"   5
  7 "bone_10"   5
  8 "bone_11"   5
  9 "bone_12"   5
 10 "bone_13"   5
 11 "bone_0"   3
 12 "bone_14"  11
 13 "bone_1"  12
 14 "bone_5"  13
 15 "bone_16"  14
 16 "bone_18"  13
 17 "bone_15"  13
 18 "bone_23"   3
 19 "bone_24"  18
 20 "bone_2"  19
 21 "bone_19"  20
 22 "bone_20"   3
 23 "bone_34"   0
 24 "bone_33"   0
 25 "bone_21"  -1
end
skeleton
time 0
  0 2.650860 -0.017416 127.640564 0.000000 0.000000 0.157080
  1 -0.186268 0.167365 -1.425583 0.209439 -0.000000 0.000000
  2 0.923380 -2.004173 -52.426407 -0.366519 -0.000000 0.000000
  3 0.209927 0.167365 2.417709 0.087267 0.000000 0.000000
  4 0.221454 70.430069 -54.272011 0.087266 0.000000 -0.000000
  5 -0.737603 -0.548837 40.203674 -0.070379 0.133015 -0.081757
  6 2.553314 7.297702 96.216125 0.000000 -0.000000 0.000000
  7 25.337776 -9.646731 2.086914 -0.000011 -0.139632 -0.000607
  8 -23.810328 -7.093720 2.086914 -0.226045 0.064723 0.026189
  9 -7.352507 52.005493 -48.397377 -0.168283 -0.043249 -0.051542
 10 -0.684170 -0.276030 30.967392 0.000000 -0.000000 0.000000
 11 -13.534457 -1.160922 22.015198 -2.730525 0.130520 -0.093935
 12 -20.972826 -0.005859 -27.595062 0.000000 0.209439 0.000000
 13 -18.070229 -6.045807 -20.586182 1.618406 -0.172146 -0.900554
 14 5.932728 -5.752609 0.181686 0.081626 0.974410 0.016749
 15 153.364624 62.139832 16.877594 1.078144 0.001989 0.109675
 16 0.671974 2.506058 -6.693916 0.000000 -0.000000 0.000000
 17 18.407452 -176.793915 8.075188 -0.009445 0.966446 0.010673
 18 12.176293 -0.829270 23.085022 -1.200580 -0.489028 -1.234559
 19 23.438766 1.362854 -28.210796 0.287996 0.520685 -0.354550
 20 17.520020 -4.855526 -21.387672 -0.559663 -0.318451 0.327741
 21 6.597046 5.855804 -9.931351 0.000000 -0.000000 0.000000
 22 -0.072890 -1.214047 9.388046 0.000000 -0.000000 0.000000
 23 0.000010 -5.381660 -154.110336 -0.034538 -0.005058 -0.145357
 24 0.000010 -5.381660 -154.110336 -0.034538 -0.005058 -0.145357
 25 2.650860 -0.017416 279.065491 0.000000 -0.000000 0.000000
time 1
  0 2.650860 -0.226135 127.640564 0.000000 0.000000 0.157080
  1 -0.186268 0.167365 -1.425583 0.208785 0.000101 -0.000006
  2 0.923381 -2.004171 -52.426399 -0.352447 -0.002183 -0.000203
  3 0.209926 0.167365 2.417709 0.087668 -0.000064 -0.000001
  4 0.015405 69.080780 -54.136024 0.087266 0.000000 0.000000
  5 -0.737603 -0.548838 40.203690 -0.070379 0.133015 -0.081757
  6 2.553307 7.297702 96.216141 0.000000 -0.000000 0.000000
  7 25.337772 -9.646730 2.086914 -0.000011 -0.139632 -0.000607
  8 -23.810326 -7.093720 2.086914 -0.226045 0.064723 0.026189
  9 -7.352507 52.005486 -48.397392 -0.195909 -0.043238 -0.054510
 10 -0.684174 -0.276030 30.967392 0.000000 -0.000000 0.000000
 11 -13.534458 -1.160922 22.015213 -2.716663 0.130393 -0.093662
 12 -20.972830 -0.005875 -27.595078 -0.000000 0.209439 -0.000000
 13 -18.070227 -6.045784 -20.586182 1.618406 -0.172146 -0.900554
 14 5.932732 -5.752625 0.181679 0.081626 0.974410 0.016749
 15 153.364594 62.139832 16.877571 1.078144 0.001989 0.109675
 16 0.671982 2.506042 -6.693916 0.000000 -0.000000 0.000000
 17 18.407475 -176.793961 8.075203 -0.009445 0.966446 0.010673
 18 12.176292 -0.829268 23.085037 -1.197373 -0.483100 -1.244121
 19 23.438766 1.362862 -28.210812 0.287996 0.520685 -0.354550
 20 17.520035 -4.855522 -21.387665 -0.559663 -0.318451 0.327741
 21 6.597031 5.855782 -9.931358 0.000000 -0.000000 0.000000
 22 -0.072890 -1.214047 9.388046 0.000000 -0.000000 0.000000
 23 0.000010 -5.381660 -154.110336 -0.034538 -0.005058 -0.145357
 24 0.000010 -5.381660 -154.110336 -0.034538 -0.005058 -0.145357
 25 2.650860 -0.017416 279.065491 0.000000 -0.000000 0.000000
time 2
  0 2.650860 -0.798427 127.640564 0.000000 0.000000 0.157080
  1 -0.186268 0.167365 -1.425583 0.206798 0.000411 -0.000023
  2 0.923380 -2.004173 -52.426407 -0.313861 -0.008167 -0.000759
  3 0.209926 0.167365 2.417709 0.088769 -0.000238 -0.000002
  4 -0.572772 65.342766 -53.757774 0.087266 0.000000 0.000000
  5 -0.737603 -0.548839 40.203674 -0.070379 0.133015 -0.081757
  6 2.553310 7.297702 96.216125 0.000000 -0.000000 0.000000
  7 25.337776 -9.646730 2.086914 -0.000011 -0.139632 -0.000607
  8 -23.810326 -7.093719 2.086914 -0.226045 0.064723 0.026189
  9 -7.352505 52.005493 -48.397377 -0.231387 -0.043208 -0.058244
 10 -0.684172 -0.276030 30.967377 0.000000 -0.000000 0.000000
 11 -13.534458 -1.160923 22.015182 -2.705168 0.130053 -0.092930
 12 -20.972832 -0.005867 -27.595093 0.000000 0.209439 0.000000
 13 -18.070229 -6.045807 -20.586182 1.618406 -0.172146 -0.900554
 14 5.932732 -5.752609 0.181686 0.081626 0.974410 0.016749
 15 153.364624 62.139832 16.877586 1.078144 0.001989 0.109675
 16 0.671982 2.506073 -6.693909 0.000000 -0.000000 0.000000
 17 18.407467 -176.793976 8.075211 -0.009445 0.966446 0.010673
 18 12.176291 -0.829270 23.085022 -1.188580 -0.466843 -1.252287
 19 23.438766 1.362869 -28.210808 0.287996 0.520685 -0.354550
 20 17.520035 -4.855530 -21.387665 -0.559663 -0.318451 0.327741
 21 6.597046 5.855804 -9.931355 0.000000 -0.000000 0.000000
 22 -0.072890 -1.214048 9.388031 0.000000 -0.000000 0.000000
 23 0.000010 -5.381660 -154.110336 -0.034538 -0.005058 -0.145357
 24 0.000010 -5.381660 -154.110336 -0.034538 -0.005058 -0.145357
 25 2.650860 -0.017416 279.065491 0.000000 -0.000000 0.000000
time 3
  0 2.650860 -1.653496 127.640564 0.000000 0.000000 0.157080
  1 -0.186268 0.167365 -1.425583 0.203444 0.000934 -0.000051
  2 0.923381 -2.004173 -52.426407 -0.256209 -0.017109 -0.001591
  3 0.209926 0.167365 2.417709 0.090414 -0.000498 -0.000004
  4 -1.498121 59.497379 -53.165817 0.087266 0.000000 -0.000000
  5 -0.737603 -0.548839 40.203659 -0.070379 0.133015 -0.081757
  6 2.553312 7.297702 96.216141 0.000000 -0.000000 0.000000
  7 25.337772 -9.646730 2.086914 -0.000011 -0.139632 -0.000607
  8 -23.810329 -7.093719 2.086899 -0.226045 0.064723 0.026189
  9 -7.352509 52.005489 -48.397377 -0.273386 -0.043161 -0.062610
 10 -0.684172 -0.276030 30.967392 0.000000 -0.000000 0.000000
 11 -13.534457 -1.160923 22.015182 -2.695844 0.129559 -0.091871
 12 -20.972830 -0.005859 -27.595078 -0.000000 0.209439 -0.000000
 13 -18.070232 -6.045807 -20.586182 1.618406 -0.172146 -0.900554
 14 5.932732 -5.752625 0.181686 0.081626 0.974410 0.016749
 15 153.364594 62.139839 16.877594 1.078144 0.001989 0.109675
 16 0.671974 2.506058 -6.693909 0.000000 -0.000000 0.000000
 17 18.407467 -176.793945 8.075203 -0.009445 0.966446 0.010673
 18 12.176293 -0.829270 23.085022 -1.175442 -0.442555 -1.259160
 19 23.438766 1.362854 -28.210804 0.287996 0.520685 -0.354550
 20 17.520027 -4.855526 -21.387665 -0.559663 -0.318451 0.327741
 21 6.597038 5.855797 -9.931355 0.000000 -0.000000 0.000000
 22 -0.072890 -1.214048 9.388016 0.000000 -0.000000 0.000000
 23 0.000010 -5.381660 -154.110336 -0.034538 -0.005058 -0.145357
 24 0.000010 -5.381660 -154.110336 -0.034538 -0.005058 -0.145357
 25 2.650860 -0.017416 279.065491 0.000000 -0.000000 0.000000
time 4
  0 2.650860 -2.710548 127.640564 0.000000 0.000000 0.157080
  1 -0.186268 0.167365 -1.425583 0.198688 0.001679 -0.000089
  2 0.923381 -2.004169 -52.426407 -0.184940 -0.028163 -0.002619
  3 0.209927 0.167365 2.417709 0.092447 -0.000821 -0.000007
  4 -2.715684 51.826073 -52.388603 0.087266 0.000000 0.000000
  5 -0.737603 -0.548840 40.203674 -0.070379 0.133015 -0.081757
  6 2.553310 7.297703 96.216141 0.000000 -0.000000 0.000000
  7 25.337770 -9.646731 2.086929 -0.000011 -0.139632 -0.000607
  8 -23.810328 -7.093720 2.086914 -0.226045 0.064723 0.026189
  9 -7.352507 52.005493 -48.397377 -0.320578 -0.043100 -0.067478
 10 -0.684172 -0.276029 30.967392 0.000000 -0.000000 0.000000
 11 -13.534457 -1.160923 22.015198 -2.688492 0.128975 -0.090616
 12 -20.972828 -0.005875 -27.595062 -0.000000 0.209439 -0.000000
 13 -18.070227 -6.045799 -20.586197 1.618406 -0.172146 -0.900554
 14 5.932724 -5.752625 0.181679 0.081626 0.974410 0.016749
 15 153.364609 62.139854 16.877556 1.078144 0.001989 0.109675
 16 0.671978 2.506073 -6.693916 0.000000 -0.000000 0.000000
 17 18.407471 -176.793961 8.075211 -0.009445 0.966446 0.010673
 18 12.176293 -0.829269 23.085037 -1.159200 -0.412528 -1.264842
 19 23.438782 1.362854 -28.210808 0.287996 0.520685 -0.354550
 20 17.520035 -4.855526 -21.387665 -0.559663 -0.318451 0.327741
 21 6.597046 5.855797 -9.931358 0.000000 -0.000000 0.000000
 22 -0.072891 -1.214048 9.388062 0.000000 -0.000000 0.000000
 23 0.000010 -5.381660 -154.110336 -0.034538 -0.005058 -0.145357
 24 0.000010 -5.381660 -154.110336 -0.034538 -0.005058 -0.145357
 25 2.650860 -0.017416 279.065491 0.000000 -0.000000 0.000000
time 5
  0 2.650860 -3.888790 127.640564 0.000000 0.000000 0.157080
  1 -0.186268 0.167366 -1.425583 0.192496 0.002652 -0.000137
  2 0.923381 -2.004173 -52.426414 -0.105499 -0.040484 -0.003765
  3 0.209926 0.167366 2.417709 0.094714 -0.001180 -0.000010
  4 -4.180509 42.610245 -51.454765 0.087266 0.000000 -0.000000
  5 -0.737603 -0.548839 40.203690 -0.070379 0.133015 -0.081757
  6 2.553305 7.297703 96.216125 0.000000 -0.000000 0.000000
  7 25.337772 -9.646732 2.086899 -0.000011 -0.139632 -0.000607
  8 -23.810326 -7.093722 2.086914 -0.226045 0.064723 0.026189
  9 -7.352507 52.005497 -48.397385 -0.371634 -0.043028 -0.072714
 10 -0.684174 -0.276031 30.967392 0.000000 -0.000000 0.000000
 11 -13.534456 -1.160922 22.015213 -2.682918 0.128359 -0.089295
 12 -20.972826 -0.005867 -27.595078 -0.000000 0.209439 -0.000000
 13 -18.070229 -6.045799 -20.586182 1.618406 -0.172146 -0.900554
 14 5.932728 -5.752625 0.181671 0.081626 0.974410 0.016749
 15 153.364594 62.139847 16.877571 1.078144 0.001989 0.109675
 16 0.671974 2.506058 -6.693916 0.000000 -0.000000 0.000000
 17 18.407455 -176.793976 8.075211 -0.009445 0.966446 0.010673
 18 12.176291 -0.829268 23.085037 -1.141096 -0.379060 -1.269434
 19 23.438782 1.362862 -28.210815 0.287996 0.520685 -0.354550
 20 17.520035 -4.855522 -21.387657 -0.559663 -0.318451 0.327741
 21 6.597038 5.855789 -9.931355 0.000000 -0.000000 0.000000
 22 -0.072891 -1.214048 9.388031 0.000000 -0.000000 0.000000
 23 0.000010 -5.381661 -154.110336 -0.034538 -0.005058 -0.145357
 24 0.000010 -5.381661 -154.110336 -0.034538 -0.005058 -0.145357
 25 2.650860 -0.017416 279.065491 0.000000 -0.000000 0.000000
time 6
  0 2.650860 -5.107428 127.640564 0.000000 0.000000 0.157080
  1 -0.186268 0.167365 -1.425583 0.184833 0.003858 -0.000193
  2 0.923381 -2.004176 -52.426407 -0.023335 -0.053228 -0.004950
  3 0.209926 0.167365 2.417709 0.097058 -0.001551 -0.000014
  4 -5.847640 32.131271 -50.392784 0.087266 0.000000 -0.000000
  5 -0.737603 -0.548838 40.203674 -0.070379 0.133015 -0.081757
  6 2.553312 7.297701 96.216125 0.000000 -0.000000 0.000000
  7 25.337774 -9.646732 2.086899 -0.000011 -0.139632 -0.000607
  8 -23.810329 -7.093722 2.086899 -0.226045 0.064723 0.026189
  9 -7.352507 52.005486 -48.397400 -0.425223 -0.042948 -0.078188
 10 -0.684170 -0.276030 30.967377 0.000000 -0.000000 0.000000
 11 -13.534457 -1.160922 22.015228 -2.678925 0.127775 -0.088040
 12 -20.972830 -0.005859 -27.595078 -0.000000 0.209439 0.000000
 13 -18.070230 -6.045792 -20.586182 1.618406 -0.172146 -0.900554
 14 5.932732 -5.752625 0.181679 0.081626 0.974410 0.016749
 15 153.364639 62.139824 16.877594 1.078144 0.001989 0.109675
 16 0.671978 2.506073 -6.693916 0.000000 -0.000000 0.000000
 17 18.407459 -176.793915 8.075195 -0.009445 0.966446 0.010673
 18 12.176292 -0.829270 23.085037 -1.122372 -0.344444 -1.273040
 19 23.438766 1.362846 -28.210804 0.287996 0.520685 -0.354550
 20 17.520027 -4.855537 -21.387665 -0.559663 -0.318451 0.327741
 21 6.597046 5.855797 -9.931358 0.000000 -0.000000 0.000000
 22 -0.072890 -1.214048 9.388046 0.000000 -0.000000 0.000000
 23 0.000011 -5.381660 -154.110336 -0.034538 -0.005058 -0.145357
 24 0.000011 -5.381660 -154.110336 -0.034538 -0.005058 -0.145357
 25 2.650860 -0.017416 279.065491 0.000000 -0.000000 0.000000
time 7
  0 2.650860 -6.285669 127.640564 0.000000 0.000000 0.157080
  1 -0.186268 0.167366 -1.425583 0.175665 0.005305 -0.000258
  2 0.923381 -2.004173 -52.426414 0.056106 -0.065549 -0.006096
  3 0.209926 0.167366 2.417709 0.099324 -0.001910 -0.000017
  4 -7.672117 20.670589 -49.231247 0.087266 0.000000 -0.000000
  5 -0.737603 -0.548838 40.203674 -0.070379 0.133015 -0.081757
  6 2.553308 7.297701 96.216141 0.000000 -0.000000 0.000000
  7 25.337770 -9.646732 2.086899 -0.000011 -0.139632 -0.000607
  8 -23.810324 -7.093720 2.086899 -0.226045 0.064723 0.026189
  9 -7.352507 52.005486 -48.397400 -0.480018 -0.042862 -0.083767
 10 -0.684172 -0.276031 30.967361 0.000000 -0.000000 0.000000
 11 -13.534456 -1.160923 22.015198 -2.676316 0.127282 -0.086981
 12 -20.972828 -0.005875 -27.595078 -0.000000 0.209439 0.000000
 13 -18.070232 -6.045792 -20.586182 1.618406 -0.172146 -0.900554
 14 5.932728 -5.752625 0.181671 0.081626 0.974410 0.016749
 15 153.364609 62.139847 16.877571 1.078144 0.001989 0.109675
 16 0.671982 2.506058 -6.693916 0.000000 -0.000000 0.000000
 17 18.407444 -176.793945 8.075188 -0.009445 0.966446 0.010673
 18 12.176291 -0.829268 23.085022 -1.104268 -0.310975 -1.275760
 19 23.438770 1.362862 -28.210808 0.287996 0.520685 -0.354550
 20 17.520035 -4.855526 -21.387672 -0.559663 -0.318451 0.327741
 21 6.597046 5.855789 -9.931355 0.000000 -0.000000 0.000000
 22 -0.072890 -1.214048 9.388031 0.000000 -0.000000 0.000000
 23 0.000011 -5.381660 -154.110336 -0.034538 -0.005058 -0.145357
 24 0.000011 -5.381660 -154.110336 -0.034538 -0.005058 -0.145357
 25 2.650860 -0.017416 279.065491 0.000000 -0.000000 0.000000
time 8
  0 2.650860 -7.342722 127.640564 0.000000 0.000000 0.157080
  1 -0.186268 0.167365 -1.425583 0.164956 0.007000 -0.000331
  2 0.923380 -2.004174 -52.426414 0.127376 -0.076603 -0.007124
  3 0.209926 0.167366 2.417709 0.101358 -0.002232 -0.000019
  4 -9.608987 8.509604 -47.998619 0.087266 0.000000 0.000000
  5 -0.737603 -0.548839 40.203674 -0.070379 0.133015 -0.081757
  6 2.553307 7.297703 96.216141 0.000000 -0.000000 0.000000
  7 25.337774 -9.646731 2.086914 -0.000011 -0.139632 -0.000607
  8 -23.810329 -7.093719 2.086914 -0.226045 0.064723 0.026189
  9 -7.352509 52.005489 -48.397385 -0.534688 -0.042773 -0.089319
 10 -0.684172 -0.276029 30.967392 0.000000 -0.000000 0.000000
 11 -13.534456 -1.160923 22.015198 -2.674895 0.126941 -0.086250
 12 -20.972832 -0.005867 -27.595093 -0.000000 0.209439 -0.000000
 13 -18.070234 -6.045799 -20.586182 1.618406 -0.172146 -0.900554
 14 5.932735 -5.752625 0.181679 0.081626 0.974410 0.016749
 15 153.364609 62.139801 16.877579 1.078144 0.001989 0.109675
 16 0.671978 2.506058 -6.693916 0.000000 -0.000000 0.000000
 17 18.407467 -176.793930 8.075188 -0.009445 0.966446 0.010673
 18 12.176291 -0.829270 23.085007 -1.088026 -0.280949 -1.277699
 19 23.438774 1.362869 -28.210815 0.287996 0.520685 -0.354550
 20 17.520039 -4.855534 -21.387672 -0.559663 -0.318451 0.327741
 21 6.597054 5.855789 -9.931358 0.000000 -0.000000 0.000000
 22 -0.072890 -1.214047 9.388031 0.000000 -0.000000 0.000000
 23 0.000011 -5.381660 -154.110336 -0.034538 -0.005058 -0.145357
 24 0.000011 -5.381660 -154.110336 -0.034538 -0.005058 -0.145357
 25 2.650860 -0.017416 279.065491 0.000000 -0.000000 0.000000
time 9
  0 2.650860 -8.197791 127.640564 0.000000 0.000000 0.157080
  1 -0.186268 0.167365 -1.425583 0.152673 0.008948 -0.000410
  2 0.923380 -2.004172 -52.426422 0.185027 -0.085545 -0.007956
  3 0.209927 0.167365 2.417709 0.103003 -0.002492 -0.000022
  4 -11.613293 -4.070281 -46.723473 0.087266 0.000000 0.000000
  5 -0.737603 -0.548839 40.203674 -0.070379 0.133015 -0.081757
  6 2.553310 7.297702 96.216141 0.000000 -0.000000 0.000000
  7 25.337772 -9.646728 2.086914 -0.000011 -0.139632 -0.000607
  8 -23.810331 -7.093719 2.086914 -0.226045 0.064723 0.026189
  9 -7.352509 52.005489 -48.397385 -0.587905 -0.042685 -0.094712
 10 -0.684174 -0.276030 30.967377 0.000000 -0.000000 0.000000
 11 -13.534458 -1.160922 22.015198 -2.674464 0.126814 -0.085977
 12 -20.972824 -0.005867 -27.595078 -0.000000 0.209439 -0.000000
 13 -18.070232 -6.045792 -20.586166 1.618406 -0.172146 -0.900554
 14 5.932732 -5.752625 0.181671 0.081626 0.974410 0.016749
 15 153.364578 62.139809 16.877594 1.078144 0.001989 0.109675
 16 0.671978 2.506058 -6.693916 0.000000 -0.000000 0.000000
 17 18.407452 -176.793945 8.075195 -0.009445 0.966446 0.010673
 18 12.176292 -0.829270 23.085022 -1.074888 -0.256660 -1.278957
 19 23.438766 1.362862 -28.210808 0.287996 0.520685 -0.354550
 20 17.520035 -4.855534 -21.387665 -0.559663 -0.318451 0.327741
 21 6.597046 5.855797 -9.931360 0.000000 -0.000000 0.000000
 22 -0.072890 -1.214047 9.388031 0.000000 -0.000000 0.000000
 23 0.000011 -5.381660 -154.110336 -0.034538 -0.005058 -0.145357
 24 0.000011 -5.381660 -154.110336 -0.034538 -0.005058 -0.145357
 25 2.650860 -0.017416 279.065491 0.000000 -0.000000 0.000000
time 10
  0 2.650860 -8.770083 127.640564 0.000000 0.000000 0.157080
  1 -0.186268 0.167365 -1.425583 0.138780 0.011157 -0.000497
  2 0.923381 -2.004173 -52.426407 0.223613 -0.091530 -0.008512
  3 0.209927 0.167365 2.417709 0.104104 -0.002667 -0.000023
  4 -13.640075 -16.787647 -45.434357 0.087266 0.000000 0.000000
  5 -0.737603 -0.548839 40.203674 -0.070379 0.133015 -0.081757
  6 2.553312 7.297701 96.216141 0.000000 -0.000000 0.000000
  7 25.337776 -9.646731 2.086899 -0.000011 -0.139632 -0.000607
  8 -23.810328 -7.093720 2.086899 -0.226045 0.064723 0.026189
  9 -7.352510 52.005486 -48.397392 -0.638338 -0.042599 -0.099814
 10 -0.684172 -0.276030 30.967377 0.000000 -0.000000 0.000000
 11 -13.534457 -1.160924 22.015198 -2.764475 0.127280 -0.099626
 12 -20.972832 -0.005871 -27.595078 0.000000 0.209439 0.000000
 13 -18.070232 -6.045799 -20.586166 1.618406 -0.172146 -0.900554
 14 5.932735 -5.752609 0.181671 0.081626 0.974410 0.016749
 15 153.364624 62.139862 16.877590 1.078144 0.001989 0.109675
 16 0.671982 2.506073 -6.693916 0.000000 -0.000000 0.000000
 17 18.407482 -176.793976 8.075211 -0.009445 0.966446 0.010673
 18 12.176292 -0.829269 23.085022 -1.066095 -0.240403 -1.279637
 19 23.438766 1.362862 -28.210808 0.287996 0.520685 -0.354550
 20 17.520027 -4.855537 -21.387665 -0.559663 -0.318451 0.327741
 21 6.597054 5.855789 -9.931353 0.000000 -0.000000 0.000000
 22 -0.072890 -1.214046 9.388046 0.000000 -0.000000 0.000000
 23 0.000011 -5.381660 -154.110336 -0.034538 -0.005058 -0.145357
 24 0.000011 -5.381660 -154.110336 -0.034538 -0.005058 -0.145357
 25 2.650860 -0.017416 279.065491 0.000000 -0.000000 0.000000
time 11
  0 2.650860 -8.978802 127.640564 0.000000 0.000000 0.157080
  1 -0.186268 0.167364 -1.425583 0.123243 0.013633 -0.000588
  2 0.923380 -2.004176 -52.426407 0.237685 -0.093712 -0.008715
  3 0.209927 0.167364 2.417709 0.104505 -0.002730 -0.000024
  4 -15.644380 -29.361111 -44.159775 0.087266 0.000000 -0.000000
  5 -0.737603 -0.548841 40.203659 -0.070379 0.133015 -0.081757
  6 2.553310 7.297702 96.216095 0.000000 -0.000000 0.000000
  7 25.337770 -9.646730 2.086899 -0.000011 -0.139632 -0.000607
  8 -23.810324 -7.093718 2.086884 -0.226045 0.064723 0.026189
  9 -7.352507 52.005493 -48.397392 -0.684660 -0.042518 -0.104493
 10 -0.684172 -0.276030 30.967361 0.000000 -0.000000 0.000000
 11 -13.534457 -1.160921 22.015182 -2.979115 0.128393 -0.132172
 12 -20.972828 -0.005867 -27.595078 -0.000000 0.209439 -0.000000
 13 -18.070232 -6.045794 -20.586197 1.618406 -0.172146 -0.900554
 14 5.932730 -5.752625 0.181675 0.081626 0.974410 0.016749
 15 153.364594 62.139816 16.877579 1.078144 0.001989 0.109675
 16 0.671972 2.506073 -6.693920 0.000000 -0.000000 0.000000
 17 18.407459 -176.793930 8.075191 -0.009445 0.966446 0.010673
 18 12.176291 -0.829269 23.085007 -1.062888 -0.234475 -1.279840
 19 23.438763 1.362862 -28.210800 0.287996 0.520685 -0.354550
 20 17.520031 -4.855526 -21.387665 -0.559663 -0.318451 0.327741
 21 6.597038 5.855797 -9.931355 0.000000 -0.000000 0.000000
 22 -0.072890 -1.214048 9.388031 0.000000 -0.000000 0.000000
 23 0.000010 -5.381661 -154.110336 -0.034538 -0.005058 -0.145357
 24 0.000010 -5.381661 -154.110336 -0.034538 -0.005058 -0.145357
 25 2.650860 -0.017416 279.065491 0.000000 -0.000000 0.000000
time 12
  0 2.650860 1.534227 127.640564 0.000000 0.000000 0.157080
  1 -0.186268 0.167365 -1.425583 0.015751 0.029924 -0.004976
  2 0.923380 -2.004174 -52.426407 0.108602 -0.073725 -0.005818
  3 0.209927 0.167365 2.417709 0.104367 -0.002708 -0.000024
  4 -17.581247 -41.509220 -42.928291 0.087266 0.000000 0.000000
  5 -0.737603 -0.548840 40.203659 -0.070379 0.133015 -0.081757
  6 2.553308 7.297703 96.216141 0.000000 -0.000000 0.000000
  7 25.337776 -9.646732 2.086914 -0.000011 -0.139632 -0.000607
  8 -23.810328 -7.093719 2.086914 -0.226045 0.064723 0.026189
  9 -7.352507 52.005486 -48.397385 -0.725540 -0.042446 -0.108618
 10 -0.684172 -0.276030 30.967392 0.000000 -0.000000 0.000000
 11 -13.534456 -1.160921 22.015198 3.047889 0.129720 -0.171018
 12 -20.972826 -0.005867 -27.595062 0.000000 0.209439 -0.000000
 13 -18.070225 -6.045795 -20.586197 1.618406 -0.172146 -0.900554
 14 5.932728 -5.752609 0.181679 0.081626 0.974410 0.016749
 15 153.364594 62.139832 16.877586 1.078144 0.001989 0.109675
 16 0.671974 2.506073 -6.693918 0.000000 -0.000000 0.000000
 17 18.407478 -176.793930 8.075211 -0.009445 0.966446 0.010673
 18 12.176291 -0.829268 23.085007 -1.399560 -0.469450 -1.029826
 19 23.438759 1.362869 -28.210810 0.287996 0.520685 -0.354550
 20 17.520035 -4.855530 -21.387680 -0.559663 -0.318451 0.327741
 21 6.597046 5.855789 -9.931353 0.000000 -0.000000 0.000000
 22 -0.072890 -1.214046 9.388031 0.000000 -0.000000 0.000000
 23 0.000010 -5.381660 -154.110336 -0.034538 -0.005058 -0.145357
 24 0.000010 -5.381660 -154.110336 -0.034538 -0.005058 -0.145357
 25 2.650860 -0.017416 279.065491 0.000000 -0.000000 0.000000
time 13
  0 2.650860 21.058422 127.640564 0.000000 0.000000 0.157080
  1 -0.186268 0.167366 -1.425583 -0.166728 0.057442 -0.013024
  2 0.923380 -2.004174 -52.426407 -0.133204 -0.036280 -0.000437
  3 0.209927 0.167366 2.417709 0.103972 -0.002646 -0.000023
  4 -19.405727 -52.950596 -41.768402 0.087266 0.000000 0.000000
  5 -0.737603 -0.548840 40.203667 -0.070379 0.133015 -0.081757
  6 2.553310 7.297705 96.216141 0.000000 -0.000000 0.000000
  7 25.337774 -9.646730 2.086914 -0.000011 -0.139632 -0.000607
  8 -23.810329 -7.093718 2.086914 -0.226045 0.064723 0.026189
  9 -7.352509 52.005493 -48.397400 -0.759649 -0.042386 -0.112055
 10 -0.684172 -0.276028 30.967377 0.000000 -0.000000 0.000000
 11 -13.534457 -1.160919 22.015205 2.833251 0.130832 -0.203565
 12 -20.972828 -0.005868 -27.595078 -0.000000 0.209439 -0.000000
 13 -18.070232 -6.045799 -20.586182 1.618406 -0.172146 -0.900554
 14 5.932724 -5.752640 0.181673 0.081626 0.974410 0.016749
 15 153.364624 62.139816 16.877558 1.078144 0.001989 0.109675
 16 0.671974 2.506058 -6.693922 0.000000 -0.000000 0.000000
 17 18.407467 -176.793976 8.075214 -0.009445 0.966446 0.010673
 18 12.176294 -0.829269 23.085030 -2.024810 -0.905834 -0.565513
 19 23.438766 1.362862 -28.210804 0.287996 0.520685 -0.354550
 20 17.520020 -4.855524 -21.387669 -0.559663 -0.318451 0.327741
 21 6.597061 5.855789 -9.931351 0.000000 -0.000000 0.000000
 22 -0.072890 -1.214046 9.388039 0.000000 -0.000000 0.000000
 23 0.000010 -5.381660 -154.110336 -0.034538 -0.005058 -0.145357
 24 0.000010 -5.381660 -154.110336 -0.034538 -0.005058 -0.145357
 25 2.650860 -0.017416 279.065491 0.000000 -0.000000 0.000000
time 14
  0 2.650860 31.571447 127.640564 0.000000 0.000000 0.157080
  1 -0.186268 0.167366 -1.425583 -0.263306 0.071992 -0.017348
  2 0.923381 -2.004176 -52.426407 -0.269570 -0.015153 0.002460
  3 0.209927 0.167366 2.417709 0.103351 -0.002548 -0.000022
  4 -21.072859 -63.403831 -40.708694 0.087266 0.000000 0.000000
  5 -0.737604 -0.548836 40.203667 -0.070379 0.133015 -0.081757
  6 2.553308 7.297703 96.216187 0.000000 -0.000000 0.000000
  7 25.337776 -9.646729 2.086914 -0.000011 -0.139632 -0.000607
  8 -23.810328 -7.093716 2.086899 -0.226045 0.064723 0.026189
  9 -7.352507 52.005497 -48.397392 -0.785659 -0.042339 -0.114674
 10 -0.684172 -0.276028 30.967392 0.000000 -0.000000 0.000000
 11 -13.534458 -1.160923 22.015190 2.743240 0.131299 -0.217214
 12 -20.972828 -0.005861 -27.595093 -0.000000 0.209439 0.000000
 13 -18.070232 -6.045795 -20.586182 1.618406 -0.172146 -0.900554
 14 5.932732 -5.752609 0.181683 0.081626 0.974410 0.016749
 15 153.364624 62.139832 16.877571 1.078144 0.001989 0.109675
 16 0.671982 2.506073 -6.693916 0.000000 -0.000000 0.000000
 17 18.407486 -176.793961 8.075203 -0.009445 0.966446 0.010673
 18 12.176291 -0.829269 23.085014 -2.361483 -1.140810 -0.315498
 19 23.438766 1.362854 -28.210812 0.287996 0.520685 -0.354550
 20 17.520035 -4.855531 -21.387669 -0.559663 -0.318451 0.327741
 21 6.597061 5.855789 -9.931358 0.000000 -0.000000 0.000000
 22 -0.072890 -1.214046 9.388039 0.000000 -0.000000 0.000000
 23 0.000010 -5.381659 -154.110336 -0.034538 -0.005058 -0.145357
 24 0.000010 -5.381659 -154.110336 -0.034538 -0.005058 -0.145357
 25 2.650860 -0.017416 279.065491 0.000000 -0.000000 0.000000
time 15
  0 2.650860 31.216692 127.640564 0.000000 0.000000 0.157080
  1 -0.186268 0.167366 -1.425583 -0.257997 0.071183 -0.017153
  2 0.923379 -2.004178 -52.426399 -0.280261 -0.013480 0.002433
  3 0.209926 0.167366 2.417709 0.102535 -0.002418 -0.000021
  4 -22.537680 -72.587502 -39.777657 0.087266 0.000000 -0.000000
  5 -0.737604 -0.548836 40.203667 -0.070379 0.133015 -0.081757
  6 2.553312 7.297705 96.216125 0.000000 -0.000000 0.000000
  7 25.337776 -9.646732 2.086899 -0.000011 -0.139632 -0.000607
  8 -23.810329 -7.093718 2.086899 -0.226045 0.064723 0.026189
  9 -7.352507 52.005493 -48.397385 -0.802239 -0.042309 -0.116342
 10 -0.684170 -0.276028 30.967377 0.000000 -0.000000 0.000000
 11 -13.534458 -1.160919 22.015190 2.747098 0.131293 -0.216623
 12 -20.972828 -0.005871 -27.595062 -0.000000 0.209439 -0.000000
 13 -18.070232 -6.045799 -20.586166 1.618406 -0.172146 -0.900554
 14 5.932728 -5.752609 0.181675 0.081626 0.974410 0.016749
 15 153.364578 62.139832 16.877548 1.078144 0.001989 0.109675
 16 0.671974 2.506073 -6.693916 0.000000 -0.000000 0.000000
 17 18.407486 -176.793900 8.075226 -0.009445 0.966446 0.010673
 18 12.176291 -0.829269 23.085030 -2.348445 -1.133490 -0.325819
 19 23.438766 1.362862 -28.210800 0.287996 0.520686 -0.354550
 20 17.520020 -4.855530 -21.387665 -0.559663 -0.318451 0.327741
 21 6.597046 5.855793 -9.931358 0.000000 -0.000000 0.000000
 22 -0.072890 -1.214046 9.388039 0.000000 -0.000000 0.000000
 23 0.000010 -5.381659 -154.110336 -0.034538 -0.005058 -0.145357
 24 0.000010 -5.381659 -154.110336 -0.034538 -0.005058 -0.145357
 25 2.650860 -0.017416 279.065491 0.000000 -0.000000 0.000000
time 16
  0 2.650860 30.214119 127.640564 0.000000 0.000000 0.157080
  1 -0.186268 0.167366 -1.425583 -0.242993 0.068899 -0.016603
  2 0.923381 -2.004174 -52.426399 -0.290465 -0.011883 0.002355
  3 0.209926 0.167366 2.417709 0.101552 -0.002263 -0.000020
  4 -23.755245 -80.220222 -39.003845 0.087266 0.000000 0.000000
  5 -0.737603 -0.548836 40.203674 -0.070379 0.133015 -0.081757
  6 2.553308 7.297701 96.216141 0.000000 -0.000000 0.000000
  7 25.337774 -9.646730 2.086914 -0.000011 -0.139632 -0.000607
  8 -23.810328 -7.093719 2.086914 -0.226045 0.064723 0.026189
  9 -7.352510 52.005493 -48.397362 -0.808062 -0.042298 -0.116928
 10 -0.684172 -0.276030 30.967392 0.000000 -0.000000 0.000000
 11 -13.534455 -1.160923 22.015198 2.758487 0.131276 -0.214880
 12 -20.972832 -0.005869 -27.595078 -0.000000 0.209439 -0.000000
 13 -18.070236 -6.045795 -20.586197 1.618406 -0.172146 -0.900554
 14 5.932724 -5.752609 0.181671 0.081626 0.974410 0.016749
 15 153.364624 62.139816 16.877586 1.078144 0.001989 0.109675
 16 0.671974 2.506073 -6.693916 0.000000 -0.000000 0.000000
 17 18.407494 -176.793915 8.075203 -0.009445 0.966446 0.010673
 18 12.176294 -0.829266 23.085022 -2.311600 -1.112803 -0.354989
 19 23.438766 1.362869 -28.210817 0.287996 0.520685 -0.354550
 20 17.520020 -4.855529 -21.387669 -0.559663 -0.318451 0.327741
 21 6.597031 5.855793 -9.931358 0.000000 -0.000000 0.000000
 22 -0.072890 -1.214046 9.388046 0.000000 -0.000000 0.000000
 23 0.000010 -5.381660 -154.110336 -0.034538 -0.005058 -0.145357
 24 0.000010 -5.381660 -154.110336 -0.034538 -0.005058 -0.145357
 25 2.650860 -0.017416 279.065491 0.000000 -0.000000 0.000000
time 17
  0 2.650860 28.656273 127.640564 0.000000 0.000000 0.157080
  1 -0.186268 0.167364 -1.425583 -0.219679 0.065348 -0.015747
  2 0.923381 -2.004173 -52.426407 -0.300153 -0.010368 0.002233
  3 0.209926 0.167366 2.417709 0.100434 -0.002085 -0.000018
  4 -24.680599 -86.020554 -38.415802 0.087266 0.000000 0.000000
  5 -0.737603 -0.548836 40.203674 -0.070379 0.133015 -0.081757
  6 2.553308 7.297699 96.216156 0.000000 -0.000000 0.000000
  7 25.337774 -9.646732 2.086914 -0.000011 -0.139632 -0.000607
  8 -23.810329 -7.093721 2.086914 -0.226045 0.064723 0.026189
  9 -7.352510 52.005486 -48.397385 -0.798735 -0.042312 -0.115974
 10 -0.684172 -0.276031 30.967377 0.000000 -0.000000 0.000000
 11 -13.534457 -1.160923 22.015198 2.777129 0.131249 -0.212029
 12 -20.972832 -0.005867 -27.595078 0.000000 0.209439 0.000000
 13 -18.070232 -6.045801 -20.586182 1.618406 -0.172146 -0.900554
 14 5.932724 -5.752609 0.181681 0.081626 0.974410 0.016749
 15 153.364609 62.139862 16.877571 1.078144 0.001989 0.109675
 16 0.671974 2.506073 -6.693916 0.000000 -0.000000 0.000000
 17 18.407463 -176.793945 8.075220 -0.009445 0.966446 0.010673
 18 12.176291 -0.829269 23.085022 -2.254349 -1.080660 -0.400314
 19 23.438766 1.362862 -28.210800 0.287996 0.520685 -0.354550
 20 17.520035 -4.855530 -21.387661 -0.559663 -0.318451 0.327741
 21 6.597046 5.855793 -9.931355 0.000000 -0.000000 0.000000
 22 -0.072890 -1.214046 9.388031 0.000000 -0.000000 0.000000
 23 0.000010 -5.381659 -154.110336 -0.034538 -0.005058 -0.145357
 24 0.000010 -5.381659 -154.110336 -0.034538 -0.005058 -0.145357
 25 2.650860 -0.017416 279.065491 0.000000 -0.000000 0.000000
time 18
  0 2.650860 26.635698 127.640564 0.000000 0.000000 0.157080
  1 -0.186267 0.167366 -1.425583 -0.189440 0.060743 -0.014638
  2 0.923379 -2.004177 -52.426392 -0.309300 -0.008938 0.002076
  3 0.209927 0.167368 2.417709 0.099210 -0.001892 -0.000017
  4 -25.268772 -89.707115 -38.042053 0.087266 0.000000 -0.000000
  5 -0.737603 -0.548840 40.203674 -0.070379 0.133015 -0.081757
  6 2.553310 7.297701 96.216125 0.000000 -0.000000 0.000000
  7 25.337774 -9.646730 2.086899 -0.000011 -0.139632 -0.000607
  8 -23.810326 -7.093719 2.086914 -0.226045 0.064723 0.026189
  9 -7.352507 52.005486 -48.397385 -0.772622 -0.042350 -0.113306
 10 -0.684170 -0.276030 30.967377 0.000000 -0.000000 0.000000
 11 -13.534456 -1.160923 22.015198 2.802744 0.131214 -0.208113
 12 -20.972832 -0.005865 -27.595093 0.000000 0.209439 -0.000000
 13 -18.070229 -6.045797 -20.586182 1.618406 -0.172146 -0.900554
 14 5.932735 -5.752609 0.181675 0.081626 0.974410 0.016749
 15 153.364624 62.139832 16.877579 1.078144 0.001989 0.109675
 16 0.671982 2.506073 -6.693916 0.000000 -0.000000 0.000000
 17 18.407478 -176.793991 8.075207 -0.009445 0.966446 0.010673
 18 12.176291 -0.829269 23.085037 -2.180092 -1.038969 -0.459101
 19 23.438751 1.362862 -28.210798 0.287996 0.520685 -0.354550
 20 17.520035 -4.855534 -21.387657 -0.559663 -0.318451 0.327741
 21 6.597046 5.855797 -9.931351 0.000000 -0.000000 0.000000
 22 -0.072891 -1.214050 9.388031 0.000000 -0.000000 0.000000
 23 0.000010 -5.381659 -154.110336 -0.034538 -0.005058 -0.145357
 24 0.000010 -5.381659 -154.110336 -0.034538 -0.005058 -0.145357
 25 2.650860 -0.017416 279.065491 0.000000 -0.000000 0.000000
time 19
  0 2.650860 24.244938 127.640564 0.000000 0.000000 0.157080
  1 -0.186268 0.167368 -1.425583 -0.153661 0.055295 -0.013325
  2 0.923380 -2.004177 -52.426392 -0.317875 -0.007597 0.001890
  3 0.209927 0.167366 2.417709 0.097910 -0.001686 -0.000015
  4 -25.474819 -90.998505 -37.911125 0.087266 0.000000 -0.000000
  5 -0.737603 -0.548836 40.203674 -0.070379 0.133015 -0.081757
  6 2.553307 7.297701 96.216141 0.000000 -0.000000 0.000000
  7 25.337774 -9.646732 2.086914 -0.000011 -0.139632 -0.000607
  8 -23.810329 -7.093719 2.086899 -0.226045 0.064723 0.026189
  9 -7.352509 52.005482 -48.397385 -0.732519 -0.042410 -0.109207
 10 -0.684172 -0.276030 30.967377 0.000000 -0.000000 0.000000
 11 -13.534458 -1.160919 22.015198 2.835054 0.131171 -0.203176
 12 -20.972828 -0.005871 -27.595078 -0.000000 0.209439 -0.000000
 13 -18.070230 -6.045797 -20.586197 1.618406 -0.172146 -0.900554
 14 5.932732 -5.752609 0.181679 0.081626 0.974410 0.016749
 15 153.364609 62.139832 16.877548 1.078144 0.001989 0.109675
 16 0.671974 2.506058 -6.693918 0.000000 -0.000000 0.000000
 17 18.407455 -176.793961 8.075199 -0.009445 0.966446 0.010673
 18 12.176291 -0.829269 23.085037 -2.092231 -0.989640 -0.528659
 19 23.438759 1.362869 -28.210804 0.287996 0.520685 -0.354550
 20 17.520035 -4.855526 -21.387665 -0.559663 -0.318451 0.327741
 21 6.597046 5.855789 -9.931355 0.000000 -0.000000 0.000000
 22 -0.072890 -1.214046 9.388046 0.000000 -0.000000 0.000000
 23 0.000010 -5.381659 -154.110336 -0.034538 -0.005058 -0.145357
 24 0.000010 -5.381659 -154.110336 -0.034538 -0.005058 -0.145357
 25 2.650860 -0.017416 279.065491 0.000000 -0.000000 0.000000
time 20
  0 2.650860 21.576542 127.640564 0.000000 0.000000 0.157080
  1 -0.186268 0.167368 -1.425583 -0.113727 0.049213 -0.011859
  2 0.923380 -2.004176 -52.426399 -0.325851 -0.006350 0.001682
  3 0.209927 0.167366 2.417709 0.096566 -0.001473 -0.000013
  4 -24.876331 -87.238678 -38.292191 0.087266 0.000000 -0.000000
  5 -0.737603 -0.548840 40.203674 -0.070379 0.133015 -0.081757
  6 2.553308 7.297701 96.216125 0.000000 -0.000000 0.000000
  7 25.337776 -9.646731 2.086914 -0.000011 -0.139632 -0.000607
  8 -23.810329 -7.093720 2.086914 -0.226045 0.064723 0.026189
  9 -7.352505 52.005493 -48.397369 -0.681225 -0.042486 -0.103965
 10 -0.684170 -0.276028 30.967392 0.000000 -0.000000 0.000000
 11 -13.534456 -1.160919 22.015198 2.873781 0.131122 -0.197261
 12 -20.972828 -0.005863 -27.595093 0.000000 0.209439 0.000000
 13 -18.070230 -6.045799 -20.586166 1.618406 -0.172146 -0.900554
 14 5.932728 -5.752625 0.181671 0.081626 0.974410 0.016749
 15 153.364624 62.139862 16.877563 1.078144 0.001989 0.109675
 16 0.671982 2.506073 -6.693918 0.000000 -0.000000 0.000000
 17 18.407452 -176.793961 8.075203 -0.009445 0.966446 0.010673
 18 12.176292 -0.829269 23.085022 -1.994166 -0.934582 -0.606294
 19 23.438766 1.362862 -28.210808 0.287996 0.520685 -0.354550
 20 17.520035 -4.855526 -21.387665 -0.559663 -0.318451 0.327741
 21 6.597061 5.855789 -9.931355 0.000000 -0.000000 0.000000
 22 -0.072890 -1.214050 9.388031 0.000000 -0.000000 0.000000
 23 0.000010 -5.381660 -154.110336 -0.034538 -0.005058 -0.145357
 24 0.000010 -5.381660 -154.110336 -0.034538 -0.005058 -0.145357
 25 2.650860 -0.017416 279.065491 0.000000 -0.000000 0.000000
time 21
  0 2.650860 18.723051 127.640564 0.000000 0.000000 0.157080
  1 -0.186268 0.167366 -1.425583 -0.071023 0.042710 -0.010292
  2 0.923380 -2.004174 -52.426422 -0.333200 -0.005202 0.001460
  3 0.209927 0.167366 2.417709 0.095206 -0.001258 -0.000011
  4 -23.235317 -76.929535 -39.337029 0.087266 0.000000 -0.000000
  5 -0.737604 -0.548840 40.203667 -0.070379 0.133015 -0.081757
  6 2.553308 7.297703 96.216141 0.000000 -0.000000 0.000000
  7 25.337776 -9.646731 2.086914 -0.000011 -0.139632 -0.000607
  8 -23.810329 -7.093721 2.086914 -0.226045 0.064723 0.026189
  9 -7.352505 52.005501 -48.397385 -0.621537 -0.042575 -0.097865
 10 -0.684170 -0.276030 30.967377 0.000000 -0.000000 0.000000
 11 -13.534456 -1.160923 22.015190 2.918646 0.131067 -0.190412
 12 -20.972828 -0.005868 -27.595062 -0.000000 0.209439 0.000000
 13 -18.070232 -6.045794 -20.586197 1.618406 -0.172146 -0.900554
 14 5.932728 -5.752625 0.181675 0.081626 0.974410 0.016749
 15 153.364624 62.139847 16.877573 1.078144 0.001989 0.109675
 16 0.671974 2.506058 -6.693916 0.000000 -0.000000 0.000000
 17 18.407463 -176.793961 8.075203 -0.009445 0.966446 0.010673
 18 12.176291 -0.829269 23.085030 -1.889299 -0.875705 -0.689315
 19 23.438766 1.362854 -28.210806 0.287996 0.520685 -0.354550
 20 17.520035 -4.855530 -21.387665 -0.559663 -0.318451 0.327741
 21 6.597046 5.855789 -9.931355 0.000000 -0.000000 0.000000
 22 -0.072890 -1.214050 9.388039 0.000000 -0.000000 0.000000
 23 0.000010 -5.381660 -154.110336 -0.034538 -0.005058 -0.145357
 24 0.000010 -5.381660 -154.110336 -0.034538 -0.005058 -0.145357
 25 2.650860 -0.017416 279.065491 0.000000 -0.000000 0.000000
time 22
  0 2.650860 15.777016 127.640564 0.000000 0.000000 0.157080
  1 -0.186268 0.167364 -1.425583 -0.026933 0.035996 -0.008674
  2 0.923380 -2.004173 -52.426399 -0.339895 -0.004156 0.001230
  3 0.209927 0.167364 2.417709 0.093861 -0.001045 -0.000009
  4 -20.783451 -61.526489 -40.898140 0.087266 0.000000 0.000000
  5 -0.737604 -0.548840 40.203674 -0.070379 0.133015 -0.081757
  6 2.553307 7.297704 96.216125 0.000000 -0.000000 0.000000
  7 25.337772 -9.646732 2.086914 -0.000011 -0.139632 -0.000607
  8 -23.810329 -7.093719 2.086914 -0.226045 0.064723 0.026189
  9 -7.352509 52.005493 -48.397369 -0.556253 -0.042672 -0.091193
 10 -0.684172 -0.276031 30.967392 0.000000 -0.000000 0.000000
 11 -13.534459 -1.160923 22.015198 2.969370 0.131008 -0.182673
 12 -20.972824 -0.005868 -27.595078 0.000000 0.209439 0.000000
 13 -18.070225 -6.045794 -20.586182 1.618406 -0.172146 -0.900554
 14 5.932728 -5.752625 0.181667 0.081626 0.974410 0.016749
 15 153.364639 62.139832 16.877579 1.078144 0.001989 0.109675
 16 0.671974 2.506042 -6.693922 0.000000 -0.000000 0.000000
 17 18.407463 -176.793976 8.075203 -0.009445 0.966446 0.010673
 18 12.176291 -0.829269 23.085037 -1.781031 -0.814919 -0.775028
 19 23.438759 1.362869 -28.210802 0.287996 0.520686 -0.354550
 20 17.520020 -4.855522 -21.387665 -0.559663 -0.318451 0.327741
 21 6.597046 5.855797 -9.931351 0.000000 -0.000000 0.000000
 22 -0.072890 -1.214050 9.388031 0.000000 -0.000000 0.000000
 23 0.000010 -5.381660 -154.110336 -0.034538 -0.005058 -0.145357
 24 0.000010 -5.381660 -154.110336 -0.034538 -0.005058 -0.145357
 25 2.650860 -0.017416 279.065491 0.000000 -0.000000 0.000000
time 23
  0 2.650860 12.830977 127.640564 0.000000 0.000000 0.157080
  1 -0.186268 0.167363 -1.425583 0.017156 0.029282 -0.007056
  2 0.923381 -2.004174 -52.426407 -0.345906 -0.003217 0.001001
  3 0.209927 0.167364 2.417709 0.092562 -0.000839 -0.000007
  4 -17.752415 -42.484962 -42.828018 0.087266 0.000000 -0.000000
  5 -0.737603 -0.548838 40.203674 -0.070379 0.133015 -0.081757
  6 2.553310 7.297703 96.216156 0.000000 -0.000000 0.000000
  7 25.337772 -9.646732 2.086899 -0.000011 -0.139632 -0.000607
  8 -23.810322 -7.093719 2.086899 -0.226045 0.064723 0.026189
  9 -7.352507 52.005493 -48.397392 -0.488172 -0.042773 -0.084235
 10 -0.684174 -0.276030 30.967377 0.000000 -0.000000 0.000000
 11 -13.534457 -1.160923 22.015198 3.025675 0.130946 -0.174087
 12 -20.972828 -0.005867 -27.595062 -0.000000 0.209439 -0.000000
 13 -18.070227 -6.045795 -20.586182 1.618406 -0.172146 -0.900554
 14 5.932732 -5.752609 0.181671 0.081626 0.974410 0.016749
 15 153.364609 62.139816 16.877569 1.078144 0.001989 0.109675
 16 0.671974 2.506073 -6.693920 0.000000 -0.000000 0.000000
 17 18.407467 -176.793930 8.075199 -0.009445 0.966446 0.010673
 18 12.176291 -0.829269 23.085022 -1.672763 -0.754133 -0.860741
 19 23.438766 1.362862 -28.210808 0.287996 0.520685 -0.354550
 20 17.520050 -4.855530 -21.387653 -0.559663 -0.318451 0.327741
 21 6.597046 5.855782 -9.931355 0.000000 -0.000000 0.000000
 22 -0.072890 -1.214046 9.388031 0.000000 -0.000000 0.000000
 23 0.000010 -5.381661 -154.110336 -0.034538 -0.005058 -0.145357
 24 0.000010 -5.381661 -154.110336 -0.034538 -0.005058 -0.145357
 25 2.650860 -0.017416 279.065491 0.000000 -0.000000 0.000000
time 24
  0 2.650860 9.977489 127.640564 0.000000 0.000000 0.157080
  1 -0.186268 0.167365 -1.425583 0.059860 0.022778 -0.005489
  2 0.923380 -2.004173 -52.426414 -0.351207 -0.002390 0.000779
  3 0.209927 0.167365 2.417709 0.091338 -0.000645 -0.000006
  4 -14.373871 -21.260361 -44.979134 0.087266 0.000000 -0.000000
  5 -0.737603 -0.548840 40.203659 -0.070379 0.133015 -0.081757
  6 2.553310 7.297699 96.216141 0.000000 -0.000000 0.000000
  7 25.337772 -9.646730 2.086914 -0.000011 -0.139632 -0.000607
  8 -23.810328 -7.093719 2.086914 -0.226045 0.064723 0.026189
  9 -7.352509 52.005489 -48.397377 -0.420091 -0.042874 -0.077277
 10 -0.684175 -0.276030 30.967392 0.000000 -0.000000 0.000000
 11 -13.534456 -1.160923 22.015198 3.087281 0.130882 -0.164697
 12 -20.972830 -0.005867 -27.595078 0.000000 0.209439 0.000000
 13 -18.070229 -6.045794 -20.586197 1.618406 -0.172146 -0.900554
 14 5.932732 -5.752625 0.181675 0.081626 0.974410 0.016749
 15 153.364624 62.139832 16.877583 1.078144 0.001989 0.109675
 16 0.671978 2.506058 -6.693916 0.000000 -0.000000 0.000000
 17 18.407473 -176.793976 8.075203 -0.009445 0.966446 0.010673
 18 12.176291 -0.829269 23.085022 -1.567897 -0.695256 -0.943762
 19 23.438766 1.362854 -28.210808 0.287996 0.520685 -0.354550
 20 17.520035 -4.855530 -21.387672 -0.559663 -0.318451 0.327741
 21 6.597031 5.855789 -9.931353 0.000000 -0.000000 0.000000
 22 -0.072891 -1.214050 9.388031 0.000000 -0.000000 0.000000
 23 0.000010 -5.381660 -154.110336 -0.034538 -0.005058 -0.145357
 24 0.000010 -5.381660 -154.110336 -0.034538 -0.005058 -0.145357
 25 2.650860 -0.017416 279.065491 0.000000 -0.000000 0.000000
time 25
  0 2.650860 7.309092 127.640564 0.000000 0.000000 0.157080
  1 -0.186268 0.167366 -1.425583 0.099794 0.016697 -0.004024
  2 0.923380 -2.004175 -52.426414 -0.355769 -0.001677 0.000571
  3 0.209926 0.167366 2.417709 0.090220 -0.000468 -0.000004
  4 -10.879496 0.691938 -47.204010 0.087266 0.000000 -0.000000
  5 -0.737603 -0.548838 40.203690 -0.070379 0.133015 -0.081757
  6 2.553314 7.297701 96.216110 0.000000 -0.000000 0.000000
  7 25.337774 -9.646731 2.086914 -0.000011 -0.139632 -0.000607
  8 -23.810326 -7.093720 2.086914 -0.226045 0.064723 0.026189
  9 -7.352507 52.005489 -48.397369 -0.354808 -0.042971 -0.070605
 10 -0.684174 -0.276030 30.967407 0.000000 -0.000000 0.000000
 11 -13.534458 -1.160921 22.015213 -3.129274 0.130817 -0.154548
 12 -20.972828 -0.005867 -27.595078 -0.000000 0.209439 -0.000000
 13 -18.070232 -6.045795 -20.586197 1.618406 -0.172146 -0.900554
 14 5.932732 -5.752609 0.181675 0.081626 0.974410 0.016749
 15 153.364639 62.139832 16.877592 1.078144 0.001989 0.109675
 16 0.671978 2.506073 -6.693920 0.000000 -0.000000 0.000000
 17 18.407463 -176.793961 8.075195 -0.009445 0.966446 0.010673
 18 12.176292 -0.829271 23.085022 -1.469832 -0.640198 -1.021397
 19 23.438766 1.362877 -28.210808 0.287996 0.520685 -0.354550
 20 17.520027 -4.855522 -21.387665 -0.559663 -0.318451 0.327741
 21 6.597061 5.855782 -9.931358 0.000000 -0.000000 0.000000
 22 -0.072890 -1.214048 9.388031 0.000000 -0.000000 0.000000
 23 0.000010 -5.381660 -154.110336 -0.034538 -0.005058 -0.145357
 24 0.000010 -5.381660 -154.110336 -0.034538 -0.005058 -0.145357
 25 2.650860 -0.017416 279.065491 0.000000 -0.000000 0.000000
time 26
  0 2.650860 4.918333 127.640564 0.000000 0.000000 0.157080
  1 -0.186268 0.167366 -1.425583 0.135573 0.011248 -0.002711
  2 0.923381 -2.004175 -52.426414 -0.359565 -0.001085 0.000385
  3 0.209926 0.167365 2.417709 0.089237 -0.000312 -0.000003
  4 -7.500953 21.916536 -49.355133 0.087266 0.000000 -0.000000
  5 -0.737603 -0.548839 40.203674 -0.070379 0.133015 -0.081757
  6 2.553303 7.297703 96.216156 0.000000 -0.000000 0.000000
  7 25.337772 -9.646732 2.086914 -0.000011 -0.139632 -0.000607
  8 -23.810324 -7.093720 2.086929 -0.226045 0.064723 0.026189
  9 -7.352507 52.005493 -48.397385 -0.295120 -0.043060 -0.064505
 10 -0.684172 -0.276030 30.967392 0.000000 -0.000000 0.000000
 11 -13.534457 -1.160922 22.015198 -3.057899 0.130753 -0.143683
 12 -20.972828 -0.005867 -27.595078 0.000000 0.209439 0.000000
 13 -18.070227 -6.045797 -20.586182 1.618406 -0.172146 -0.900554
 14 5.932732 -5.752625 0.181679 0.081626 0.974410 0.016749
 15 153.364594 62.139832 16.877565 1.078144 0.001989 0.109675
 16 0.671978 2.506058 -6.693916 0.000000 -0.000000 0.000000
 17 18.407463 -176.793961 8.075211 -0.009445 0.966446 0.010673
 18 12.176291 -0.829269 23.085037 -1.381971 -0.590869 -1.090955
 19 23.438774 1.362854 -28.210812 0.287996 0.520685 -0.354550
 20 17.520027 -4.855526 -21.387665 -0.559663 -0.318451 0.327741
 21 6.597054 5.855789 -9.931355 0.000000 -0.000000 0.000000
 22 -0.072890 -1.214048 9.388046 0.000000 -0.000000 0.000000
 23 0.000010 -5.381660 -154.110336 -0.034538 -0.005058 -0.145357
 24 0.000010 -5.381660 -154.110336 -0.034538 -0.005058 -0.145357
 25 2.650860 -0.017416 279.065491 0.000000 -0.000000 0.000000
time 27
  0 2.650860 2.897760 127.640564 0.000000 0.000000 0.157080
  1 -0.186268 0.167365 -1.425583 0.165812 0.006643 -0.001601
  2 0.923380 -2.004171 -52.426407 -0.362565 -0.000617 0.000227
  3 0.209927 0.167365 2.417709 0.088420 -0.000183 -0.000002
  4 -4.469912 40.958073 -51.285019 0.087266 0.000000 0.000000
  5 -0.737603 -0.548839 40.203659 -0.070379 0.133015 -0.081757
  6 2.553307 7.297700 96.216141 0.000000 -0.000000 0.000000
  7 25.337778 -9.646730 2.086914 -0.000011 -0.139632 -0.000607
  8 -23.810329 -7.093719 2.086914 -0.226045 0.064723 0.026189
  9 -7.352507 52.005489 -48.397385 -0.243825 -0.043136 -0.059262
 10 -0.684172 -0.276030 30.967392 0.000000 -0.000000 0.000000
 11 -13.534458 -1.160922 22.015182 -2.982058 0.130690 -0.132145
 12 -20.972826 -0.005863 -27.595062 0.000000 0.209439 0.000000
 13 -18.070234 -6.045795 -20.586182 1.618406 -0.172146 -0.900554
 14 5.932728 -5.752625 0.181671 0.081626 0.974410 0.016749
 15 153.364594 62.139847 16.877579 1.078144 0.001989 0.109675
 16 0.671974 2.506058 -6.693916 0.000000 -0.000000 0.000000
 17 18.407461 -176.793991 8.075211 -0.009445 0.966446 0.010673
 18 12.176292 -0.829269 23.085022 -1.307714 -0.549178 -1.149742
 19 23.438766 1.362869 -28.210814 0.287996 0.520685 -0.354550
 20 17.520035 -4.855530 -21.387657 -0.559663 -0.318451 0.327741
 21 6.597054 5.855797 -9.931355 0.000000 -0.000000 0.000000
 22 -0.072890 -1.214048 9.388031 0.000000 -0.000000 0.000000
 23 0.000010 -5.381660 -154.110336 -0.034538 -0.005058 -0.145357
 24 0.000010 -5.381660 -154.110336 -0.034538 -0.005058 -0.145357
 25 2.650860 -0.017416 279.065491 0.000000 -0.000000 0.000000
time 28
  0 2.650860 1.339912 127.640564 0.000000 0.000000 0.157080
  1 -0.186268 0.167365 -1.425583 0.189126 0.003093 -0.000745
  2 0.923381 -2.004175 -52.426407 -0.364743 -0.000277 0.000106
  3 0.209927 0.167365 2.417709 0.087799 -0.000084 -0.000001
  4 -2.018050 56.361107 -52.846107 0.087266 0.000000 -0.000000
  5 -0.737603 -0.548838 40.203690 -0.070379 0.133015 -0.081757
  6 2.553312 7.297702 96.216125 0.000000 -0.000000 0.000000
  7 25.337776 -9.646731 2.086899 -0.000011 -0.139632 -0.000607
  8 -23.810331 -7.093721 2.086914 -0.226045 0.064723 0.026189
  9 -7.352510 52.005489 -48.397385 -0.203723 -0.043196 -0.055164
 10 -0.684170 -0.276030 30.967377 0.000000 -0.000000 0.000000
 11 -13.534457 -1.160921 22.015198 -2.902030 0.130629 -0.119979
 12 -20.972832 -0.005867 -27.595093 -0.000000 0.209439 -0.000000
 13 -18.070232 -6.045795 -20.586182 1.618406 -0.172146 -0.900554
 14 5.932730 -5.752609 0.181671 0.081626 0.974410 0.016749
 15 153.364609 62.139816 16.877579 1.078144 0.001989 0.109675
 16 0.671974 2.506073 -6.693924 0.000000 -0.000000 0.000000
 17 18.407476 -176.793915 8.075195 -0.009445 0.966446 0.010673
 18 12.176293 -0.829269 23.085022 -1.250463 -0.517035 -1.195068
 19 23.438766 1.362862 -28.210808 0.287996 0.520685 -0.354550
 20 17.520042 -4.855530 -21.387665 -0.559663 -0.318451 0.327741
 21 6.597046 5.855804 -9.931358 0.000000 -0.000000 0.000000
 22 -0.072890 -1.214048 9.388046 0.000000 -0.000000 0.000000
 23 0.000011 -5.381660 -154.110336 -0.034538 -0.005058 -0.145357
 24 0.000011 -5.381660 -154.110336 -0.034538 -0.005058 -0.145357
 25 2.650860 -0.017416 279.065491 0.000000 -0.000000 0.000000
time 29
  0 2.650860 0.337338 127.640564 0.000000 0.000000 0.157080
  1 -0.186268 0.167365 -1.425583 0.204130 0.000808 -0.000195
  2 0.923381 -2.004175 -52.426407 -0.366070 -0.000070 0.000028
  3 0.209926 0.167365 2.417709 0.087405 -0.000022 -0.000000
  4 -0.377033 66.670273 -53.890968 0.087266 0.000000 -0.000000
  5 -0.737603 -0.548838 40.203674 -0.070379 0.133015 -0.081757
  6 2.553308 7.297702 96.216125 0.000000 -0.000000 0.000000
  7 25.337774 -9.646731 2.086899 -0.000011 -0.139632 -0.000607
  8 -23.810328 -7.093720 2.086899 -0.226045 0.064723 0.026189
  9 -7.352509 52.005489 -48.397392 -0.177609 -0.043235 -0.052495
 10 -0.684170 -0.276030 30.967361 0.000000 -0.000000 0.000000
 11 -13.534456 -1.160921 22.015198 -2.818092 0.130572 -0.107228
 12 -20.972828 -0.005867 -27.595078 0.000000 0.209439 0.000000
 13 -18.070234 -6.045795 -20.586182 1.618406 -0.172146 -0.900554
 14 5.932732 -5.752625 0.181686 0.081626 0.974410 0.016749
 15 153.364594 62.139832 16.877579 1.078144 0.001989 0.109675
 16 0.671974 2.506073 -6.693916 0.000000 -0.000000 0.000000
 17 18.407482 -176.793945 8.075233 -0.009445 0.966446 0.010673
 18 12.176291 -0.829268 23.085022 -1.213617 -0.496348 -1.224237
 19 23.438774 1.362862 -28.210808 0.287996 0.520686 -0.354550
 20 17.520035 -4.855530 -21.387665 -0.559663 -0.318451 0.327741
 21 6.597046 5.855789 -9.931355 0.000000 -0.000000 0.000000
 22 -0.072890 -1.214048 9.388031 0.000000 -0.000000 0.000000
 23 0.000010 -5.381660 -154.110336 -0.034538 -0.005058 -0.145357
 24 0.000010 -5.381660 -154.110336 -0.034538 -0.005058 -0.145357
 25 2.650860 -0.017416 279.065491 0.000000 -0.000000 0.000000
time 30
  0 2.650860 -0.017416 127.640564 0.000000 0.000000 0.157080
  1 -0.186268 0.167365 -1.425583 0.209439 -0.000000 0.000000
  2 0.923380 -2.004173 -52.426407 -0.366519 -0.000000 0.000000
  3 0.209927 0.167365 2.417709 0.087267 0.000000 0.000000
  4 0.221454 70.430069 -54.272011 0.087266 0.000000 -0.000000
  5 -0.737603 -0.548837 40.203674 -0.070379 0.133015 -0.081757
  6 2.553314 7.297702 96.216125 0.000000 -0.000000 0.000000
  7 25.337776 -9.646731 2.086914 -0.000011 -0.139632 -0.000607
  8 -23.810328 -7.093720 2.086914 -0.226045 0.064723 0.026189
  9 -7.352507 52.005493 -48.397377 -0.168283 -0.043249 -0.051542
 10 -0.684170 -0.276030 30.967392 0.000000 -0.000000 0.000000
 11 -13.534457 -1.160922 22.015198 -2.730525 0.130520 -0.093935
 12 -20.972826 -0.005859 -27.595062 0.000000 0.209439 0.000000
 13 -18.070229 -6.045807 -20.586182 1.618406 -0.172146 -0.900554
 14 5.932732 -5.752609 0.181686 0.081626 0.974410 0.016749
 15 153.364624 62.139832 16.877602 1.078144 0.001989 0.109675
 16 0.671974 2.506058 -6.693916 0.000000 -0.000000 0.000000
 17 18.407452 -176.793915 8.075188 -0.009445 0.966446 0.010673
 18 12.176293 -0.829270 23.085022 -1.200580 -0.489028 -1.234559
 19 23.438766 1.362854 -28.210796 0.287996 0.520685 -0.354550
 20 17.520020 -4.855526 -21.387672 -0.559663 -0.318451 0.327741
 21 6.597046 5.855797 -9.931351 0.000000 -0.000000 0.000000
 22 -0.072890 -1.214047 9.388046 0.000000 -0.000000 0.000000
 23 0.000010 -5.381660 -154.110336 -0.034538 -0.005058 -0.145357
 24 0.000010 -5.381660 -154.110336 -0.034538 -0.005058 -0.145357
 25 2.650860 -0.017416 279.065491 0.000000 -0.000000 0.000000
end
