version 1
nodes
  0 "bone33"  -1
  1 "bone21"  -1
  2 "bone20"   1
  3 "bone07"   2
  4 "bone22"   3
  5 "bone18"   4
  6 "bone14"   2
  7 "bone16"   6
  8 "bone19"   7
  9 "bone03"   1
 10 "bone06"   9
 11 "bone08"   9
 12 "bone05"  11
 13 "bone09"  12
 14 "bone11"  13
 15 "BOX001"  14
 16 "bone02"   9
 17 "bone04"  16
 18 "bone10"  17
end
skeleton
time 0
  0 1.089372 -2.364846 -2.772400 0.000000 -0.000000 0.000000
  1 -0.114210 -4.321804 92.531555 0.000000 -0.000000 0.000000
  2 0.000000 0.426100 -2.643661 -0.034906 0.000000 0.000000
  3 -7.805030 -1.259274 -16.725006 0.193211 0.007232 -0.105289
  4 -0.855271 1.999126 -33.097385 0.204945 0.028728 -0.037417
  5 -1.710044 1.005959 -32.422890 -0.189260 -0.031322 -0.002357
  6 8.359842 -0.134830 -16.096420 -0.260641 0.015979 0.013895
  7 1.023951 0.902424 -33.930801 -0.014172 0.017255 0.056291
  8 1.181661 1.118925 -32.218117 0.276557 -0.002357 -0.044983
  9 0.000000 -0.173451 2.663780 -0.226893 0.000000 0.000001
 10 0.725195 -1.257227 27.700890 0.139626 -0.000000 0.000000
 11 -7.896836 -0.700382 18.721550 0.366547 0.017132 0.003330
 12 -14.708297 0.451417 -17.688965 -0.639340 0.212496 0.456580
 13 -7.769436 -4.337902 -11.290726 -0.271619 0.244372 -0.041531
 14 -1.614941 -2.075470 -6.327099 0.052019 0.091792 0.093927
 15 34.313511 6.017456 -79.785110 -0.000000 0.000000 0.000000
 16 9.145774 -0.500296 18.886604 0.675609 0.463080 -1.349524
 17 13.771746 0.225342 -17.802177 -0.241737 -0.410647 -0.453915
 18 7.757045 -4.315052 -11.436714 -0.088245 -0.076199 -0.105809
time 1
  0 1.089372 -2.364846 -2.772400 0.000000 -0.000000 0.000000
  1 -0.114210 -4.267220 92.531555 0.000000 -0.000000 0.000000
  2 0.000000 0.426100 -2.643661 -0.034906 0.000000 0.000000
  3 -7.805030 -1.259274 -16.724998 0.171176 -0.000537 -0.107537
  4 -0.855271 1.999122 -33.097389 0.233357 0.031511 -0.032511
  5 -1.710044 1.005950 -32.422897 -0.218950 -0.036050 -0.000802
  6 8.359842 -0.134830 -16.096420 -0.255458 0.019744 0.012960
  7 1.023952 0.902424 -33.930798 -0.012076 0.012301 0.055926
  8 1.181662 1.118923 -32.218121 0.271874 -0.002493 -0.044400
  9 0.000000 -0.173451 2.663780 -0.243251 0.000000 0.000001
 10 0.725195 -1.257225 27.700890 0.141881 -0.000000 0.000000
 11 -7.896836 -0.700384 18.721550 0.388303 0.002833 0.007706
 12 -14.708295 0.451418 -17.688972 -0.658409 0.227925 0.452158
 13 -7.769436 -4.337914 -11.290726 -0.271619 0.244372 -0.041531
 14 -1.614941 -2.075474 -6.327099 0.052019 0.091792 0.093927
 15 34.313515 6.017433 -79.785141 0.000000 -0.000000 -0.000000
 16 9.145774 -0.500298 18.886604 0.675609 0.463080 -1.349524
 17 13.771749 0.225334 -17.802185 -0.266537 -0.405717 -0.450646
 18 7.757044 -4.315052 -11.436699 -0.088245 -0.076199 -0.105809
time 2
  0 1.089372 -2.364846 -2.772400 0.000000 -0.000000 0.000000
  1 -0.114210 -4.117555 92.531555 0.000000 -0.000000 0.000000
  2 0.000000 0.426100 -2.643661 -0.034906 0.000000 0.000000
  3 -7.805030 -1.259274 -16.725006 0.112123 -0.013185 -0.113561
  4 -0.855270 1.999121 -33.097385 0.309500 0.037076 -0.019363
  5 -1.710043 1.005946 -32.422897 -0.298519 -0.048723 0.003253
  6 8.359842 -0.134830 -16.096420 -0.240871 0.022553 0.010346
  7 1.023953 0.902420 -33.930794 -0.006173 0.006808 0.054925
  8 1.181661 1.118921 -32.218117 0.258832 -0.002607 -0.042775
  9 0.000000 -0.173451 2.663780 -0.257460 0.000000 0.000001
 10 0.725195 -1.257227 27.700890 0.148171 0.000000 0.000000
 11 -7.896836 -0.700382 18.721550 0.410032 -0.018329 0.013341
 12 -14.708293 0.451418 -17.688965 -0.675694 0.245127 0.448067
 13 -7.769432 -4.337906 -11.290718 -0.271619 0.244372 -0.041531
 14 -1.614944 -2.075470 -6.327099 0.052019 0.091792 0.093927
 15 34.313522 6.017467 -79.785133 -0.000000 0.000000 -0.000000
 16 9.145774 -0.500296 18.886604 0.675609 0.463080 -1.349524
 17 13.771748 0.225327 -17.802185 -0.297969 -0.391877 -0.441467
 18 7.757044 -4.315050 -11.436714 -0.088245 -0.076199 -0.105809
time 3
  0 1.089372 -2.364846 -2.772400 0.000000 -0.000000 0.000000
  1 -0.114210 -3.893938 92.531555 0.000000 -0.000000 0.000000
  2 0.000000 0.426100 -2.643661 -0.034906 0.000000 0.000000
  3 -7.805030 -1.259274 -16.725006 0.026629 -0.029166 -0.122283
  4 -0.855270 1.999124 -33.097389 0.419737 0.044593 -0.000328
  5 -1.710042 1.005955 -32.422897 -0.413716 -0.067070 0.009092
  6 8.359842 -0.134830 -16.096420 -0.218325 0.024626 0.006341
  7 1.023952 0.902420 -33.930801 0.002963 0.001075 0.053432
  8 1.181662 1.118921 -32.218113 0.238946 -0.002703 -0.040300
  9 0.000000 -0.173451 2.663780 -0.269668 0.000000 0.000001
 10 0.725195 -1.257227 27.700897 0.157780 -0.000000 0.000000
 11 -7.896836 -0.700384 18.721558 0.431448 -0.044998 0.019963
 12 -14.708294 0.451418 -17.688965 -0.691072 0.263144 0.444357
 13 -7.769440 -4.337910 -11.290718 -0.271619 0.244372 -0.041531
 14 -1.614937 -2.075466 -6.327095 0.052019 0.091792 0.093927
 15 34.313492 6.017433 -79.785126 0.000000 -0.000000 -0.000000
 16 9.145773 -0.500299 18.886612 0.675609 0.463080 -1.349524
 17 13.771749 0.225327 -17.802185 -0.334744 -0.370548 -0.427323
 18 7.757046 -4.315052 -11.436722 -0.088245 -0.076199 -0.105809
time 4
  0 1.089372 -2.364846 -2.772400 0.000000 -0.000000 0.000000
  1 -0.114210 -3.617497 92.531555 0.000000 -0.000000 0.000000
  2 0.000000 0.426100 -2.643661 -0.034906 0.000000 0.000000
  3 -7.805030 -1.259274 -16.725006 -0.074730 -0.046932 -0.132623
  4 -0.855270 1.999125 -33.097389 0.550430 0.053231 0.022239
  5 -1.710043 1.005946 -32.422894 -0.550290 -0.088822 0.015998
  6 8.359842 -0.134830 -16.096420 -0.189261 0.026187 0.001235
  7 1.023952 0.902422 -33.930809 0.014758 -0.004598 0.051587
  8 1.181662 1.118923 -32.218124 0.213731 -0.002780 -0.037163
  9 0.000000 -0.173451 2.663780 -0.280022 0.000000 0.000001
 10 0.725195 -1.257223 27.700890 0.169992 0.000000 0.000000
 11 -7.896836 -0.700382 18.721550 0.452268 -0.075818 0.027300
 12 -14.708298 0.451418 -17.688965 -0.704421 0.281017 0.441079
 13 -7.769436 -4.337902 -11.290718 -0.271619 0.244372 -0.041531
 14 -1.614937 -2.075466 -6.327099 0.052019 0.091792 0.093927
 15 34.313496 6.017445 -79.785110 0.000000 -0.000000 0.000000
 16 9.145775 -0.500294 18.886597 0.675609 0.463080 -1.349524
 17 13.771749 0.225319 -17.802177 -0.375572 -0.343152 -0.409156
 18 7.757046 -4.315050 -11.436714 -0.088245 -0.076199 -0.105809
time 5
  0 1.089372 -2.364846 -2.772400 0.000000 -0.000000 0.000000
  1 -0.114210 -3.309363 92.531555 0.000000 -0.000000 0.000000
  2 0.000000 0.426100 -2.643661 -0.034906 0.000000 0.000000
  3 -7.805030 -1.259274 -16.725006 -0.181377 -0.064936 -0.143503
  4 -0.855270 1.999123 -33.097382 0.687942 0.062161 0.045983
  5 -1.710043 1.005947 -32.422897 -0.693990 -0.111708 0.023255
  6 8.359842 -0.134830 -16.096420 -0.155123 0.027458 -0.004686
  7 1.023952 0.902426 -33.930801 0.028638 -0.009912 0.049535
  8 1.181663 1.118923 -32.218109 0.184700 -0.002840 -0.033553
  9 0.000000 -0.173451 2.663780 -0.288670 0.000000 0.000001
 10 0.725195 -1.257225 27.700890 0.184093 0.000000 0.000000
 11 -7.896835 -0.700382 18.721550 0.472207 -0.109433 0.035079
 12 -14.708293 0.451418 -17.688972 -0.715619 0.297789 0.438283
 13 -7.769434 -4.337906 -11.290710 -0.271619 0.244372 -0.041531
 14 -1.614941 -2.075470 -6.327099 0.052019 0.091792 0.093927
 15 34.313519 6.017448 -79.785141 0.000000 -0.000000 -0.000000
 16 9.145774 -0.500298 18.886612 0.675609 0.463080 -1.349524
 17 13.771749 0.225327 -17.802177 -0.419162 -0.311113 -0.387908
 18 7.757048 -4.315050 -11.436707 -0.088245 -0.076199 -0.105809
time 6
  0 1.089372 -2.364846 -2.772400 0.000000 -0.000000 0.000000
  1 -0.114210 -2.990663 92.531555 0.000000 -0.000000 0.000000
  2 0.000000 0.426100 -2.643661 -0.034906 0.000000 0.000000
  3 -7.805030 -1.259274 -16.725006 -0.282737 -0.081632 -0.153843
  4 -0.855270 1.999125 -33.097385 0.818636 0.070552 0.068550
  5 -1.710043 1.005953 -32.422897 -0.830564 -0.133460 0.030146
  6 8.359842 -0.134830 -16.096420 -0.117354 0.028659 -0.011133
  7 1.023952 0.902425 -33.930805 0.044026 -0.014566 0.047418
  8 1.181663 1.118921 -32.218124 0.153367 -0.002885 -0.029659
  9 0.000000 -0.173451 2.663780 -0.295759 0.000000 0.000001
 10 0.725195 -1.257225 27.700897 0.199368 -0.000000 0.000000
 11 -7.896836 -0.700382 18.721558 0.490980 -0.144489 0.043030
 12 -14.708294 0.451416 -17.688965 -0.724542 0.312502 0.436021
 13 -7.769436 -4.337910 -11.290718 -0.271619 0.244372 -0.041531
 14 -1.614941 -2.075474 -6.327099 0.052019 0.091792 0.093927
 15 34.313488 6.017422 -79.785110 -0.000000 0.000000 -0.000000
 16 9.145773 -0.500296 18.886604 0.675609 0.463080 -1.349524
 17 13.771751 0.225334 -17.802185 -0.464226 -0.275851 -0.364525
 18 7.757046 -4.315046 -11.436722 -0.088245 -0.076199 -0.105809
time 7
  0 1.089372 -2.364846 -2.772400 0.000000 -0.000000 0.000000
  1 -0.114210 -2.682528 92.531555 0.000000 -0.000000 0.000000
  2 0.000000 0.426100 -2.643661 -0.034906 0.000000 0.000000
  3 -7.805030 -1.259274 -16.724998 -0.368231 -0.095473 -0.162565
  4 -0.855270 1.999126 -33.097382 0.928873 0.077573 0.087585
  5 -1.710042 1.005948 -32.422894 -0.945761 -0.151807 0.035956
  6 8.359842 -0.134830 -16.096420 -0.077398 0.030013 -0.017818
  7 1.023953 0.902424 -33.930801 0.060350 -0.018262 0.045377
  8 1.181662 1.118921 -32.218117 0.121248 -0.002915 -0.025671
  9 0.000000 -0.173451 2.663780 -0.301437 0.000000 0.000001
 10 0.725195 -1.257223 27.700890 0.215100 -0.000000 0.000000
 11 -7.896837 -0.700382 18.721558 0.508304 -0.179628 0.050880
 12 -14.708300 0.451420 -17.688972 -0.731067 0.324197 0.434342
 13 -7.769440 -4.337910 -11.290710 -0.271619 0.244372 -0.041531
 14 -1.614941 -2.075474 -6.327095 0.052019 0.091792 0.093927
 15 34.313492 6.017448 -79.785110 0.000000 -0.000000 0.000000
 16 9.145774 -0.500296 18.886604 0.675609 0.463079 -1.349524
 17 13.771749 0.225334 -17.802185 -0.509474 -0.238789 -0.339947
 18 7.757045 -4.315046 -11.436714 -0.088245 -0.076199 -0.105809
time 8
  0 1.089372 -2.364846 -2.772400 0.000000 -0.000000 0.000000
  1 -0.114210 -2.406088 92.531555 0.000000 -0.000000 0.000000
  2 0.000000 0.426100 -2.643661 -0.034906 0.000000 0.000000
  3 -7.805030 -1.259274 -16.725006 -0.427283 -0.104912 -0.168590
  4 -0.855269 1.999123 -33.097389 1.005016 0.082395 0.100733
  5 -1.710042 1.005953 -32.422890 -1.025330 -0.164479 0.039967
  6 8.359842 -0.134830 -16.096420 -0.036697 0.031742 -0.024452
  7 1.023952 0.902424 -33.930809 0.077035 -0.020699 0.043556
  8 1.181663 1.118919 -32.218124 0.089855 -0.002933 -0.021779
  9 0.000000 -0.173451 2.663780 -0.305852 0.000000 0.000001
 10 0.725195 -1.257229 27.700897 0.230576 0.000000 0.000000
 11 -7.896835 -0.700382 18.721550 0.523893 -0.213496 0.058356
 12 -14.708293 0.451416 -17.688957 -0.735073 0.331916 0.433298
 13 -7.769434 -4.337906 -11.290718 -0.271619 0.244372 -0.041531
 14 -1.614941 -2.075474 -6.327095 0.052019 0.091792 0.093927
 15 34.313499 6.017456 -79.785141 0.000000 -0.000000 0.000000
 16 9.145775 -0.500298 18.886604 0.675609 0.463080 -1.349524
 17 13.771748 0.225334 -17.802185 -0.553615 -0.201349 -0.315119
 18 7.757046 -4.315046 -11.436714 -0.088245 -0.076199 -0.105809
time 9
  0 1.089372 -2.364846 -2.772400 0.000000 -0.000000 0.000000
  1 -0.114210 -2.182471 92.531555 0.000000 -0.000000 0.000000
  2 0.000000 0.426100 -2.643661 -0.034906 0.000000 0.000000
  3 -7.805030 -1.259274 -16.725006 -0.449318 -0.108402 -0.170837
  4 -0.855270 1.999123 -33.097389 1.033428 0.084187 0.105638
  5 -1.710044 1.005953 -32.422901 -1.055020 -0.169208 0.041463
  6 8.359842 -0.134830 -16.096420 0.003305 0.034068 -0.030748
  7 1.023953 0.902423 -33.930801 0.093505 -0.021578 0.042097
  8 1.181663 1.118918 -32.218117 0.060704 -0.002938 -0.018170
  9 0.000000 -0.173451 2.663780 -0.309151 0.000000 0.000001
 10 0.725195 -1.257225 27.700890 0.245079 -0.000000 0.000000
 11 -7.896836 -0.700382 18.721550 0.537464 -0.244737 0.065188
 12 -14.708296 0.451418 -17.688972 -0.736435 0.334702 0.432939
 13 -7.769434 -4.337902 -11.290726 -0.271619 0.244372 -0.041531
 14 -1.614944 -2.075470 -6.327091 0.052019 0.091792 0.093927
 15 34.313507 6.017456 -79.785133 -0.000000 0.000000 -0.000000
 16 9.145774 -0.500299 18.886612 0.675609 0.463079 -1.349524
 17 13.771748 0.225334 -17.802185 -0.595360 -0.164954 -0.290983
 18 7.757048 -4.315048 -11.436722 -0.088245 -0.076199 -0.105809
time 10
  0 1.089372 -2.364846 -2.772400 0.000000 -0.000000 0.000000
  1 -0.114210 -2.032806 92.531555 0.000000 -0.000000 0.000000
  2 0.000000 0.426100 -2.643661 -0.034906 0.000000 0.000000
  3 -7.805030 -1.259274 -16.724998 -0.441177 -0.099777 -0.170129
  4 -0.855270 1.999126 -33.097389 0.924402 0.070981 0.091683
  5 -1.710043 1.005949 -32.422897 -0.853410 -0.137397 0.041411
  6 8.359842 -0.134830 -16.096420 0.057958 0.037507 -0.038745
  7 1.023952 0.902423 -33.930809 0.105338 -0.019878 0.041255
  8 1.181663 1.118914 -32.218117 0.040188 -0.002863 -0.015191
  9 0.000000 -0.173451 2.663780 -0.311482 0.000000 0.000001
 10 0.725195 -1.257229 27.700897 0.257895 0.000000 0.000000
 11 -7.896836 -0.700386 18.721558 0.548731 -0.271996 0.071103
 12 -14.708296 0.451416 -17.688965 -0.723307 0.328552 0.433725
 13 -7.769432 -4.337902 -11.290710 -0.271619 0.244372 -0.041531
 14 -1.614937 -2.075466 -6.327095 0.052019 0.091792 0.093927
 15 34.313515 6.017456 -79.785110 -0.000000 0.000000 -0.000000
 16 9.145773 -0.500296 18.886604 0.675609 0.463079 -1.349524
 17 13.771749 0.225334 -17.802170 -0.633419 -0.131026 -0.268483
 18 7.757045 -4.315045 -11.436714 -0.088245 -0.076199 -0.105809
time 11
  0 1.089372 -2.364846 -2.772400 0.000000 -0.000000 0.000000
  1 -0.114210 -1.978222 92.531555 0.000000 -0.000000 0.000000
  2 0.000000 0.426100 -2.643661 -0.034906 0.000000 0.000000
  3 -7.805030 -1.259274 -16.725006 -0.419348 -0.078958 -0.168241
  4 -0.855270 1.999123 -33.097389 0.664417 0.039490 0.058322
  5 -1.710043 1.005957 -32.422890 -0.397321 -0.065434 0.041168
  6 8.359842 -0.134830 -16.096420 0.131637 0.041936 -0.049095
  7 1.023952 0.902423 -33.930809 0.114347 -0.015410 0.040927
  8 1.181662 1.118917 -32.218121 0.023027 -0.002531 -0.012289
  9 0.000000 -0.173451 2.663780 -0.312993 0.000000 0.000001
 10 0.725195 -1.257225 27.700882 0.268309 -0.000000 0.000000
 11 -7.896835 -0.700382 18.721542 0.557411 -0.293915 0.075828
 12 -14.708294 0.451422 -17.688965 -0.687004 0.311544 0.435900
 13 -7.769433 -4.337910 -11.290710 -0.271619 0.244372 -0.041531
 14 -1.614937 -2.075470 -6.327095 0.052019 0.091792 0.093927
 15 34.313484 6.017464 -79.785103 0.000000 -0.000000 -0.000000
 16 9.145774 -0.500294 18.886597 0.675609 0.463079 -1.349524
 17 13.771749 0.225327 -17.802177 -0.666502 -0.100986 -0.248562
 18 7.757044 -4.315046 -11.436722 -0.088245 -0.076199 -0.105809
time 12
  0 1.089372 -2.364846 -2.772400 0.000000 -0.000000 0.000000
  1 -0.114210 -2.012385 92.531555 0.000000 -0.000000 0.000000
  2 0.000000 0.426100 -2.643661 -0.034906 0.000000 0.000000
  3 -7.805030 -1.259274 -16.725006 -0.387722 -0.053534 -0.165531
  4 -0.855271 1.999123 -33.097393 0.354111 0.001904 0.018316
  5 -1.710042 1.005953 -32.422890 0.090143 0.011480 0.040599
  6 8.359842 -0.134830 -16.096420 0.206435 0.046613 -0.059424
  7 1.023952 0.902422 -33.930805 0.129312 -0.009120 0.040716
  8 1.181660 1.118919 -32.218113 -0.006779 -0.001780 -0.008309
  9 0.000000 -0.173451 2.663780 -0.313832 0.000000 0.000001
 10 0.725195 -1.257223 27.700890 0.275604 -0.000000 0.000000
 11 -7.896835 -0.700384 18.721558 0.563219 -0.309141 0.079093
 12 -14.708290 0.451422 -17.688965 -0.632146 0.285844 0.439187
 13 -7.769435 -4.337914 -11.290718 -0.271619 0.244372 -0.041531
 14 -1.614943 -2.075474 -6.327095 0.052019 0.091792 0.093927
 15 34.313492 6.017437 -79.785126 0.000000 -0.000000 -0.000000
 16 9.145774 -0.500296 18.886604 0.675609 0.463080 -1.349524
 17 13.771750 0.225327 -17.802185 -0.693321 -0.076257 -0.232163
 18 7.757049 -4.315047 -11.436722 -0.088245 -0.076199 -0.105809
time 13
  0 1.089372 -2.364846 -2.772400 0.000000 -0.000000 0.000000
  1 -0.114210 -2.108041 92.531555 0.000000 -0.000000 0.000000
  2 0.000000 0.426100 -2.643661 -0.034906 0.000000 0.000000
  3 -7.805030 -1.259274 -16.725006 -0.350191 -0.031090 -0.162356
  4 -0.855271 1.999126 -33.097385 0.094126 -0.029587 -0.015577
  5 -1.710043 1.005955 -32.422897 0.385876 0.058142 0.039571
  6 8.359842 -0.134830 -16.096420 0.264446 0.050798 -0.067361
  7 1.023953 0.902422 -33.930805 0.159014 -0.001956 0.040227
  8 1.181662 1.118921 -32.218117 -0.065229 -0.000450 -0.002096
  9 0.000000 -0.173451 2.663780 -0.314145 0.000000 0.000001
 10 0.725195 -1.257229 27.700890 0.279067 0.000000 0.000000
 11 -7.896836 -0.700382 18.721550 0.565871 -0.316317 0.080625
 12 -14.708294 0.451418 -17.688965 -0.563354 0.253615 0.443309
 13 -7.769433 -4.337912 -11.290726 -0.271619 0.244372 -0.041531
 14 -1.614941 -2.075474 -6.327095 0.052019 0.091792 0.093927
 15 34.313499 6.017452 -79.785126 0.000000 -0.000000 0.000000
 16 9.145774 -0.500298 18.886604 0.675609 0.463079 -1.349524
 17 13.771752 0.225334 -17.802185 -0.712584 -0.058262 -0.220230
 18 7.757045 -4.315047 -11.436722 -0.088245 -0.076199 -0.105809
time 14
  0 1.089372 -2.364846 -2.772400 0.000000 -0.000000 0.000000
  1 -0.114210 -2.254942 92.531555 0.000000 -0.000000 0.000000
  2 0.000000 0.426100 -2.643661 -0.034906 0.000000 0.000000
  3 -7.805030 -1.259274 -16.725006 -0.310648 -0.019214 -0.159071
  4 -0.855270 1.999125 -33.097389 -0.014899 -0.042793 -0.030595
  5 -1.710043 1.005955 -32.422894 0.396309 0.059857 0.037646
  6 8.359842 -0.134830 -16.096420 0.287762 0.053751 -0.070534
  7 1.023953 0.902422 -33.930809 0.212233 0.005137 0.039063
  8 1.181660 1.118916 -32.218117 -0.165998 0.002968 0.007461
  9 0.000000 -0.173451 2.663780 -0.313214 0.000000 0.000001
 10 0.725195 -1.257221 27.700890 0.277740 0.000000 0.000000
 11 -7.896835 -0.700382 18.721550 0.564444 -0.313888 0.079869
 12 -14.708294 0.451420 -17.688965 -0.485248 0.217023 0.447989
 13 -7.769430 -4.337900 -11.290718 -0.271619 0.244372 -0.041531
 14 -1.614941 -2.075474 -6.327095 0.052019 0.091792 0.093927
 15 34.313507 6.017460 -79.785110 -0.000000 0.000000 0.000000
 16 9.145773 -0.500298 18.886604 0.675609 0.463079 -1.349524
 17 13.771749 0.225334 -17.802185 -0.723002 -0.048421 -0.213704
 18 7.757045 -4.315052 -11.436714 -0.088245 -0.076199 -0.105809
time 15
  0 1.089372 -2.364846 -2.772400 0.000000 -0.000000 0.000000
  1 -0.114210 -2.442838 92.531555 0.000000 -0.000000 0.000000
  2 0.000000 0.426100 -2.643661 -0.034906 0.000000 0.000000
  3 -7.805030 -1.259274 -16.725006 -0.266453 -0.016227 -0.155666
  4 -0.855269 1.999123 -33.097385 -0.010590 -0.041127 -0.031852
  5 -1.710042 1.005953 -32.422894 0.363430 0.054960 0.034140
  6 8.359842 -0.134830 -16.096420 0.235717 0.055515 -0.062504
  7 1.023952 0.902423 -33.930801 0.305925 0.013331 0.031991
  8 1.181660 1.118921 -32.218117 -0.303334 0.011368 0.020155
  9 0.000000 -0.173451 2.663780 -0.309078 0.000000 0.000001
 10 0.725195 -1.257225 27.700890 0.271122 -0.000000 0.000000
 11 -7.896835 -0.700378 18.721550 0.557479 -0.301435 0.076201
 12 -14.708290 0.451418 -17.688957 -0.402449 0.178232 0.452950
 13 -7.769433 -4.337904 -11.290726 -0.271619 0.244372 -0.041531
 14 -1.614939 -2.075470 -6.327095 0.052019 0.091792 0.093927
 15 34.313507 6.017445 -79.785126 -0.000000 -0.000000 -0.000000
 16 9.145775 -0.500298 18.886612 0.675609 0.463079 -1.349524
 17 13.771749 0.225327 -17.802185 -0.721680 -0.048868 -0.213772
 18 7.757047 -4.315053 -11.436714 -0.088245 -0.076199 -0.105809
time 16
  0 1.089372 -2.364846 -2.772400 0.000000 -0.000000 0.000000
  1 -0.114210 -2.661482 92.531555 0.000000 -0.000000 0.000000
  2 0.000000 0.426100 -2.643661 -0.034906 0.000000 0.000000
  3 -7.805030 -1.259274 -16.725006 -0.215014 -0.014833 -0.151903
  4 -0.855269 1.999121 -33.097385 0.001340 -0.036560 -0.032969
  5 -1.710043 1.005953 -32.422897 0.310377 0.047044 0.029432
  6 8.359842 -0.134830 -16.096420 0.105606 0.056705 -0.042427
  7 1.023952 0.902424 -33.930798 0.435467 0.023426 0.016828
  8 1.181659 1.118912 -32.218109 -0.461959 0.023252 0.034654
  9 0.000000 -0.173451 2.663780 -0.302247 0.000000 0.000001
 10 0.725195 -1.257225 27.700890 0.260193 -0.000000 0.000000
 11 -7.896836 -0.700382 18.721542 0.545726 -0.280529 0.070145
 12 -14.708292 0.451422 -17.688965 -0.319578 0.139408 0.457915
 13 -7.769430 -4.337907 -11.290726 -0.271619 0.244372 -0.041531
 14 -1.614939 -2.075472 -6.327103 0.052019 0.091792 0.093927
 15 34.313515 6.017427 -79.785126 0.000000 -0.000000 -0.000000
 16 9.145775 -0.500298 18.886604 0.675609 0.463080 -1.349524
 17 13.771749 0.225334 -17.802177 -0.698656 -0.064237 -0.222178
 18 7.757046 -4.315047 -11.436707 -0.088245 -0.076199 -0.105809
time 17
  0 1.089372 -2.364846 -2.772400 0.000000 -0.000000 0.000000
  1 -0.114210 -2.900623 92.531555 0.000000 -0.000000 0.000000
  2 0.000000 0.426100 -2.643661 -0.034906 0.000000 0.000000
  3 -7.805030 -1.259274 -16.725006 -0.160285 -0.014192 -0.147799
  4 -0.855270 1.999125 -33.097382 0.019397 -0.029735 -0.033949
  5 -1.710042 1.005954 -32.422897 0.243476 0.037037 0.023956
  6 8.359842 -0.134830 -16.096420 -0.063539 0.057432 -0.016327
  7 1.023952 0.902422 -33.930801 0.577276 0.033908 -0.002245
  8 1.181658 1.118912 -32.218113 -0.626536 0.036892 0.049599
  9 0.000000 -0.173451 2.663780 -0.293373 0.000000 0.000001
 10 0.725195 -1.257225 27.700897 0.245994 0.000000 0.000000
 11 -7.896835 -0.700384 18.721558 0.530045 -0.252812 0.062276
 12 -14.708298 0.451416 -17.688972 -0.241256 0.102714 0.462607
 13 -7.769432 -4.337909 -11.290718 -0.271619 0.244372 -0.041531
 14 -1.614935 -2.075472 -6.327095 0.052019 0.091792 0.093927
 15 34.313515 6.017448 -79.785156 0.000000 -0.000000 -0.000000
 16 9.145774 -0.500294 18.886612 0.675609 0.463080 -1.349524
 17 13.771753 0.225327 -17.802185 -0.656618 -0.092536 -0.237900
 18 7.757044 -4.315048 -11.436714 -0.088245 -0.076199 -0.105809
time 18
  0 1.089372 -2.364846 -2.772400 0.000000 -0.000000 0.000000
  1 -0.114210 -3.150013 92.531555 0.000000 -0.000000 0.000000
  2 0.000000 0.426100 -2.643661 -0.034906 0.000000 0.000000
  3 -7.805030 -1.259274 -16.725006 -0.106224 -0.013462 -0.143370
  4 -0.855270 1.999123 -33.097382 0.042084 -0.021299 -0.034797
  5 -1.710042 1.005953 -32.422897 0.169055 0.025869 0.018145
  6 8.359842 -0.134830 -16.096420 -0.232684 0.057811 0.009773
  7 1.023952 0.902424 -33.930801 0.707767 0.043268 -0.021045
  8 1.181659 1.118906 -32.218113 -0.781729 0.050558 0.063632
  9 0.000000 -0.173451 2.663780 -0.283106 0.000000 0.000001
 10 0.725195 -1.257225 27.700897 0.229567 -0.000000 0.000000
 11 -7.896836 -0.700382 18.721550 0.511298 -0.219926 0.053172
 12 -14.708295 0.451420 -17.688965 -0.172103 0.070317 0.466751
 13 -7.769430 -4.337910 -11.290718 -0.271619 0.244372 -0.041531
 14 -1.614941 -2.075474 -6.327103 0.052019 0.091792 0.093927
 15 34.313503 6.017426 -79.785126 0.000000 -0.000000 -0.000000
 16 9.145774 -0.500296 18.886612 0.675609 0.463080 -1.349524
 17 13.771749 0.225334 -17.802177 -0.600616 -0.130652 -0.259497
 18 7.757047 -4.315049 -11.436714 -0.088245 -0.076199 -0.105809
time 19
  0 1.089372 -2.364846 -2.772400 0.000000 -0.000000 0.000000
  1 -0.114210 -3.399403 92.531555 0.000000 -0.000000 0.000000
  2 0.000000 0.426100 -2.643661 -0.034906 0.000000 0.000000
  3 -7.805030 -1.259274 -16.725006 -0.056787 -0.011803 -0.138630
  4 -0.855270 1.999125 -33.097397 0.067906 -0.011896 -0.035519
  5 -1.710042 1.005953 -32.422897 0.093441 0.014468 0.012432
  6 8.359842 -0.134830 -16.096420 -0.362796 0.057956 0.029849
  7 1.023953 0.902426 -33.930801 0.803356 0.049992 -0.035392
  8 1.181660 1.118912 -32.218124 -0.912203 0.062522 0.075394
  9 0.000000 -0.173451 2.663780 -0.272096 0.000000 0.000001
 10 0.725195 -1.257227 27.700882 0.211951 -0.000000 0.000000
 11 -7.896836 -0.700384 18.721550 0.490346 -0.183512 0.043411
 12 -14.708291 0.451416 -17.688965 -0.116739 0.044379 0.470068
 13 -7.769431 -4.337908 -11.290718 -0.271619 0.244372 -0.041531
 14 -1.614941 -2.075471 -6.327095 0.052019 0.091792 0.093927
 15 34.313511 6.017428 -79.785141 0.000000 -0.000000 -0.000000
 16 9.145775 -0.500299 18.886612 0.675609 0.463079 -1.349524
 17 13.771751 0.225342 -17.802185 -0.535698 -0.175469 -0.285524
 18 7.757045 -4.315048 -11.436714 -0.088245 -0.076199 -0.105809
time 20
  0 1.089372 -2.364846 -2.772400 0.000000 -0.000000 0.000000
  1 -0.114210 -3.638544 92.531555 0.000000 -0.000000 0.000000
  2 0.000000 0.426100 -2.643661 -0.034906 0.000000 0.000000
  3 -7.805030 -1.259274 -16.725006 -0.006460 -0.009114 -0.132765
  4 -0.855271 1.999123 -33.097385 0.095369 -0.002170 -0.036117
  5 -1.710043 1.005951 -32.422901 0.022961 0.003763 0.007251
  6 8.359842 -0.134830 -16.096420 -0.414841 0.057979 0.037880
  7 1.023952 0.902424 -33.930805 0.840460 0.052569 -0.041103
  8 1.181659 1.118911 -32.218113 -1.002621 0.071055 0.083527
  9 0.000000 -0.173451 2.663780 -0.260995 0.000000 0.000001
 10 0.725195 -1.257225 27.700897 0.194190 0.000000 0.000000
 11 -7.896836 -0.700380 18.721550 0.468049 -0.145211 0.033568
 12 -14.708298 0.451420 -17.688957 -0.079786 0.027067 0.472282
 13 -7.769430 -4.337908 -11.290726 -0.271619 0.244372 -0.041531
 14 -1.614941 -2.075470 -6.327087 0.052019 0.091792 0.093927
 15 34.313507 6.017422 -79.785126 -0.000000 0.000000 0.000000
 16 9.145773 -0.500298 18.886604 0.675609 0.463080 -1.349524
 17 13.771751 0.225334 -17.802177 -0.466916 -0.223872 -0.314540
 18 7.757044 -4.315054 -11.436729 -0.088245 -0.076199 -0.105809
time 21
  0 1.089372 -2.364846 -2.772400 0.000000 -0.000000 0.000000
  1 -0.114210 -3.857188 92.531555 0.000000 -0.000000 0.000000
  2 0.000000 0.426100 -2.643661 -0.034906 0.000000 0.000000
  3 -7.805030 -1.259274 -16.725006 0.048743 -0.005981 -0.125640
  4 -0.855270 1.999124 -33.097385 0.122976 0.007234 -0.036597
  5 -1.710043 1.005953 -32.422897 -0.036057 -0.005317 0.003036
  6 8.359842 -0.134830 -16.096420 -0.400191 0.054467 0.035615
  7 1.023953 0.902424 -33.930801 0.751579 0.048897 -0.030974
  8 1.181660 1.118911 -32.218109 -1.037647 0.074428 0.086673
  9 0.000000 -0.173452 2.663780 -0.250453 0.000000 0.000001
 10 0.725195 -1.257225 27.700897 0.177323 -0.000000 0.000000
 11 -7.896835 -0.700382 18.721558 0.445270 -0.106665 0.024221
 12 -14.708296 0.451418 -17.688957 -0.065864 0.020545 0.473116
 13 -7.769434 -4.337906 -11.290710 -0.271619 0.244372 -0.041531
 14 -1.614939 -2.075472 -6.327095 0.052019 0.091792 0.093927
 15 34.313484 6.017420 -79.785110 -0.000000 0.000000 0.000000
 16 9.145774 -0.500299 18.886612 0.675609 0.463080 -1.349524
 17 13.771749 0.225327 -17.802177 -0.399316 -0.272746 -0.345099
 18 7.757046 -4.315054 -11.436722 -0.088245 -0.076199 -0.105809
time 22
  0 1.089372 -2.364846 -2.772400 0.000000 -0.000000 0.000000
  1 -0.114210 -4.045084 92.531555 0.000000 -0.000000 0.000000
  2 0.000000 0.426100 -2.643661 -0.034906 0.000000 0.000000
  3 -7.805030 -1.259274 -16.725006 0.102566 -0.002591 -0.118293
  4 -0.855270 1.999123 -33.097385 0.149233 0.015670 -0.036962
  5 -1.710043 1.005952 -32.422894 -0.087188 -0.013580 0.000183
  6 8.359842 -0.134830 -16.096420 -0.364724 0.045763 0.030124
  7 1.023953 0.902428 -33.930805 0.539630 0.040139 -0.006821
  8 1.181658 1.118908 -32.218109 -0.840995 0.062939 0.066972
  9 0.000000 -0.173451 2.663780 -0.241122 0.000000 0.000001
 10 0.725195 -1.257227 27.700897 0.162392 -0.000000 0.000000
 11 -7.896834 -0.700382 18.721558 0.422869 -0.069517 0.015947
 12 -14.708294 0.451422 -17.688965 -0.151678 0.049266 0.470642
 13 -7.769435 -4.337907 -11.290726 -0.271619 0.244372 -0.041531
 14 -1.614937 -2.075474 -6.327095 0.052019 0.091792 0.093927
 15 34.313515 6.017406 -79.785141 -0.000000 0.000000 -0.000000
 16 9.145774 -0.500298 18.886604 0.675609 0.463080 -1.349524
 17 13.771750 0.225327 -17.802177 -0.337949 -0.318976 -0.375760
 18 7.757045 -4.315050 -11.436722 -0.088245 -0.076199 -0.105809
time 23
  0 1.089372 -2.364846 -2.772400 0.000000 -0.000000 0.000000
  1 -0.114210 -4.191985 92.531555 0.000000 -0.000000 0.000000
  2 0.000000 0.426100 -2.643661 -0.034906 0.000000 0.000000
  3 -7.805030 -1.259274 -16.725006 0.148754 0.000866 -0.111760
  4 -0.855270 1.999125 -33.097382 0.172643 0.022494 -0.037218
  5 -1.710043 1.005953 -32.422894 -0.134647 -0.021678 -0.001426
  6 8.359842 -0.134830 -16.096420 -0.321161 0.034616 0.023368
  7 1.023952 0.902420 -33.930809 0.286659 0.029686 0.022008
  8 1.181658 1.118919 -32.218113 -0.388323 0.036490 0.021624
  9 0.000000 -0.173451 2.663780 -0.233650 0.000000 0.000001
 10 0.725195 -1.257223 27.700882 0.150438 0.000000 0.000000
 11 -7.896835 -0.700380 18.721550 0.401708 -0.035407 0.009322
 12 -14.708296 0.451420 -17.688972 -0.349209 0.115383 0.464946
 13 -7.769428 -4.337902 -11.290718 -0.271619 0.244372 -0.041531
 14 -1.614941 -2.075470 -6.327099 0.052019 0.091792 0.093927
 15 34.313511 6.017471 -79.785133 -0.000000 -0.000000 -0.000000
 16 9.145775 -0.500296 18.886604 0.675609 0.463080 -1.349524
 17 13.771751 0.225334 -17.802185 -0.287864 -0.359446 -0.405078
 18 7.757049 -4.315056 -11.436714 -0.088245 -0.076199 -0.105809
time 24
  0 1.089372 -2.364846 -2.772400 0.000000 -0.000000 0.000000
  1 -0.114210 -4.287642 92.531555 0.000000 -0.000000 0.000000
  2 0.000000 0.426100 -2.643661 -0.034906 0.000000 0.000000
  3 -7.805030 -1.259274 -16.725006 0.181054 0.004203 -0.107080
  4 -0.855270 1.999125 -33.097385 0.191713 0.027062 -0.037368
  5 -1.710044 1.005952 -32.422901 -0.171114 -0.028098 -0.002152
  6 8.359842 -0.134830 -16.096420 -0.282226 0.023771 0.017305
  7 1.023952 0.902430 -33.930809 0.074710 0.020928 0.046162
  8 1.181659 1.118923 -32.218124 0.068290 0.009811 -0.024119
  9 0.000000 -0.173451 2.663780 -0.228690 0.000000 0.000001
 10 0.725195 -1.257225 27.700890 0.142502 -0.000000 0.000000
 11 -7.896837 -0.700382 18.721550 0.382646 -0.005977 0.004924
 12 -14.708296 0.451420 -17.688957 -0.548459 0.182076 0.459201
 13 -7.769428 -4.337904 -11.290726 -0.271619 0.244372 -0.041531
 14 -1.614941 -2.075466 -6.327099 0.052019 0.091792 0.093927
 15 34.313484 6.017437 -79.785110 0.000000 -0.000000 -0.000000
 16 9.145774 -0.500298 18.886604 0.675609 0.463079 -1.349524
 17 13.771751 0.225334 -17.802185 -0.254110 -0.391041 -0.431611
 18 7.757042 -4.315048 -11.436707 -0.088245 -0.076199 -0.105809
time 25
  0 1.089372 -2.364846 -2.772400 0.000000 -0.000000 0.000000
  1 -0.114210 -4.321804 92.531555 0.000000 -0.000000 0.000000
  2 0.000000 0.426100 -2.643661 -0.034906 0.000000 0.000000
  3 -7.805030 -1.259274 -16.725006 0.193211 0.007232 -0.105289
  4 -0.855271 1.999126 -33.097385 0.204945 0.028728 -0.037417
  5 -1.710044 1.005959 -32.422890 -0.189260 -0.031322 -0.002357
  6 8.359842 -0.134830 -16.096420 -0.260641 0.015979 0.013895
  7 1.023951 0.902424 -33.930801 -0.014172 0.017255 0.056291
  8 1.181661 1.118925 -32.218117 0.276557 -0.002357 -0.044983
  9 0.000000 -0.173451 2.663780 -0.226893 0.000000 0.000001
 10 0.725195 -1.257227 27.700890 0.139626 -0.000000 0.000000
 11 -7.896836 -0.700382 18.721550 0.366547 0.017132 0.003330
 12 -14.708290 0.451420 -17.688965 -0.639340 0.212496 0.456580
 13 -7.769432 -4.337902 -11.290718 -0.271619 0.244372 -0.041531
 14 -1.614937 -2.075470 -6.327095 0.052019 0.091792 0.093927
 15 34.313511 6.017464 -79.785103 0.000000 -0.000000 -0.000000
 16 9.145774 -0.500296 18.886604 0.675609 0.463080 -1.349524
 17 13.771749 0.225334 -17.802177 -0.241737 -0.410647 -0.453915
 18 7.757044 -4.315056 -11.436707 -0.088245 -0.076199 -0.105809
end
