version 1
nodes
  0 "bone33"  -1
  1 "bone21"  -1
  2 "bone20"   1
  3 "bone07"   2
  4 "bone22"   3
  5 "bone18"   4
  6 "bone14"   2
  7 "bone16"   6
  8 "bone19"   7
  9 "bone03"   1
 10 "bone06"   9
 11 "bone08"   9
 12 "bone05"  11
 13 "bone09"  12
 14 "bone11"  13
 15 "BOX001"  14
 16 "bone02"   9
 17 "bone04"  16
 18 "bone10"  17
end
skeleton
time 0
  0 1.089372 -2.364846 -2.772400 0.000000 -0.000000 0.000000
  1 -0.114210 -4.321804 92.531555 0.000000 -0.000000 0.000000
  2 0.000000 0.426100 -2.643661 -0.034906 0.000000 0.000000
  3 -7.805030 -1.259274 -16.725006 -0.117611 0.103397 -0.142897
  4 -0.855268 1.999125 -33.097389 0.436331 -0.000000 0.000000
  5 -1.710042 1.005950 -32.422897 -0.292388 -0.049164 -0.003695
  6 8.359842 -0.134830 -16.096420 -0.068305 -0.155899 -0.019300
  7 1.023947 0.902419 -33.930801 0.349312 0.031101 0.015853
  8 1.181652 1.118927 -32.218086 -0.260399 0.006793 0.020443
  9 0.000000 -0.173451 2.663780 -0.226893 0.000000 0.000001
 10 0.725195 -1.257227 27.700890 0.244345 -0.000000 0.000000
 11 -7.896836 -0.700382 18.721550 -0.103099 0.589055 1.342894
 12 -14.708305 0.451422 -17.688972 -0.639340 0.212496 0.456580
 13 -7.769440 -4.337912 -11.290718 -0.271619 0.244372 -0.041531
 14 -1.614937 -2.075474 -6.327097 0.052019 0.091792 0.093927
 15 34.313499 6.017460 -79.785118 -0.000000 0.000000 0.000000
 16 9.145774 -0.500296 18.886604 0.184047 -0.253896 0.183938
 17 13.771744 0.225332 -17.802177 -1.073499 -0.618246 -1.108256
 18 7.757050 -4.315052 -11.436714 -0.088245 -0.076199 -0.105809
time 1
  0 1.089372 -2.364846 -2.772400 0.000000 -0.000000 0.000000
  1 -0.114210 -3.868883 92.602524 -0.002439 -0.000000 -0.000000
  2 0.000000 0.426100 -2.643661 -0.039838 -0.000000 0.000000
  3 -7.805030 -1.259274 -16.724998 -0.118704 0.102117 -0.143175
  4 -0.855270 1.999125 -33.097382 0.439465 0.000454 0.000197
  5 -1.710042 1.005956 -32.422897 -0.283355 -0.047676 -0.003634
  6 8.359842 -0.134830 -16.096413 -0.060939 -0.152753 -0.018910
  7 1.023945 0.902420 -33.930805 0.351420 0.030473 0.015533
  8 1.181654 1.118921 -32.218090 -0.254087 0.006656 0.020031
  9 0.000000 -0.173452 2.663780 -0.226824 0.000524 0.016903
 10 0.725195 -1.257227 27.700890 0.248762 0.002731 -0.016396
 11 -7.896835 -0.700382 18.721550 -0.179296 0.581524 1.338675
 12 -14.708298 0.451421 -17.688965 -0.630194 0.209028 0.454955
 13 -7.769424 -4.337904 -11.290722 -0.264098 0.245200 -0.041331
 14 -1.614937 -2.075472 -6.327095 0.052019 0.091792 0.093927
 15 34.313522 6.017483 -79.785110 -0.000000 0.000000 -0.000000
 16 9.145772 -0.500298 18.886604 0.184047 -0.253896 0.183938
 17 13.771749 0.225334 -17.802170 -1.073499 -0.618246 -1.108255
 18 7.757057 -4.315052 -11.436714 -0.088245 -0.076199 -0.105809
time 2
  0 1.089372 -2.364846 -2.772400 0.000000 -0.000000 0.000000
  1 -0.114210 -2.627001 92.797112 -0.009127 -0.000000 -0.000000
  2 0.000000 0.426100 -2.643669 -0.053456 -0.000000 0.000000
  3 -7.805030 -1.259274 -16.724998 -0.121960 0.098505 -0.143945
  4 -0.855270 1.999126 -33.097385 0.448118 0.001709 0.000742
  5 -1.710042 1.005954 -32.422897 -0.258413 -0.043569 -0.003465
  6 8.359842 -0.134830 -16.096413 -0.040595 -0.144064 -0.017835
  7 1.023947 0.902421 -33.930805 0.357243 0.028740 0.014649
  8 1.181658 1.118921 -32.218090 -0.236656 0.006278 0.018891
  9 0.000000 -0.173451 2.663773 -0.226613 0.001969 0.063576
 10 0.725195 -1.257225 27.700882 0.260959 0.010273 -0.061671
 11 -7.896837 -0.700382 18.721542 -0.275682 0.560728 1.325457
 12 -14.708305 0.451420 -17.688957 -0.603958 0.199113 0.450383
 13 -7.769424 -4.337896 -11.290718 -0.243330 0.247486 -0.040782
 14 -1.614944 -2.075468 -6.327097 0.052019 0.091792 0.093927
 15 34.313522 6.017500 -79.785126 -0.000000 -0.000000 0.000000
 16 9.145773 -0.500296 18.886597 0.184047 -0.253896 0.183938
 17 13.771751 0.225333 -17.802170 -1.073499 -0.618246 -1.108256
 18 7.757057 -4.315052 -11.436718 -0.088245 -0.076199 -0.105809
time 3
  0 1.089372 -2.364846 -2.772400 0.000000 -0.000000 0.000000
  1 -0.114210 -0.771484 93.087852 -0.019119 -0.000000 -0.000000
  2 0.000000 0.426100 -2.643661 -0.073996 0.000000 0.000000
  3 -7.805030 -1.259274 -16.724998 -0.127347 0.092906 -0.145105
  4 -0.855270 1.999123 -33.097385 0.461170 0.003602 0.001563
  5 -1.710042 1.005953 -32.422894 -0.220793 -0.037373 -0.003210
  6 8.359841 -0.134830 -16.096420 -0.009912 -0.130959 -0.016212
  7 1.023949 0.902420 -33.930805 0.366025 0.026125 0.013317
  8 1.181652 1.118919 -32.218086 -0.210365 0.005707 0.017173
  9 0.000000 -0.173451 2.663773 -0.226252 0.004150 0.133973
 10 0.725195 -1.257225 27.700890 0.279355 0.021648 -0.129958
 11 -7.896834 -0.700386 18.721558 -0.387827 0.529363 1.302399
 12 -14.708305 0.451418 -17.688969 -0.562436 0.183486 0.443317
 13 -7.769432 -4.337900 -11.290720 -0.212006 0.250933 -0.039952
 14 -1.614944 -2.075472 -6.327094 0.052019 0.091792 0.093927
 15 34.313522 6.017479 -79.785118 0.000000 0.000000 0.000000
 16 9.145774 -0.500299 18.886612 0.184047 -0.253896 0.183938
 17 13.771748 0.225331 -17.802162 -1.073499 -0.618246 -1.108256
 18 7.757050 -4.315052 -11.436718 -0.088245 -0.076199 -0.105809
time 4
  0 1.089372 -2.364846 -2.772400 0.000000 -0.000000 0.000000
  1 -0.114210 1.522345 93.447273 -0.031471 -0.000000 -0.000000
  2 -0.000000 0.426101 -2.643669 -0.099693 0.000000 0.000000
  3 -7.805030 -1.259274 -16.725014 -0.134832 0.085662 -0.146557
  4 -0.855270 1.999123 -33.097389 0.477498 0.005971 0.002590
  5 -1.710044 1.005955 -32.422894 -0.173728 -0.029622 -0.002892
  6 8.359843 -0.134830 -16.096428 0.028475 -0.114564 -0.014183
  7 1.023945 0.902420 -33.930809 0.377012 0.022855 0.011649
  8 1.181652 1.118920 -32.218086 -0.177474 0.004992 0.015023
  9 -0.000000 -0.173451 2.663773 -0.225734 0.006877 0.222043
 10 0.725195 -1.257227 27.700890 0.302370 0.035879 -0.215390
 11 -7.896835 -0.700382 18.721550 -0.511297 0.490122 1.268659
 12 -14.708313 0.451416 -17.688961 -0.507432 0.162878 0.434210
 13 -7.769432 -4.337906 -11.290722 -0.172818 0.255247 -0.038915
 14 -1.614937 -2.075472 -6.327096 0.052019 0.091792 0.093927
 15 34.313522 6.017452 -79.785133 0.000000 0.000000 0.000000
 16 9.145771 -0.500298 18.886604 0.184047 -0.253896 0.183938
 17 13.771748 0.225334 -17.802177 -1.073499 -0.618246 -1.108256
 18 7.757042 -4.315056 -11.436722 -0.088245 -0.076199 -0.105809
time 5
  0 1.089372 -2.364846 -2.772400 0.000000 -0.000000 0.000000
  1 -0.114210 4.079162 93.847900 -0.045239 -0.000000 -0.000000
  2 -0.000000 0.426101 -2.643661 -0.128781 0.000000 0.000000
  3 -7.805030 -1.259275 -16.725006 -0.144385 0.077118 -0.148201
  4 -0.855269 1.999125 -33.097385 0.495982 0.008652 0.003753
  5 -1.710042 1.005955 -32.422897 -0.120451 -0.020848 -0.002531
  6 8.359843 -0.134831 -16.096413 0.071928 -0.096004 -0.011885
  7 1.023947 0.902421 -33.930817 0.389449 0.019152 0.009762
  8 1.181655 1.118921 -32.218090 -0.140241 0.004184 0.012590
  9 0.000000 -0.173451 2.663780 -0.225051 0.009965 0.321739
 10 0.725195 -1.257225 27.700890 0.328422 0.051989 -0.312098
 11 -7.896836 -0.700384 18.721558 -0.641661 0.445702 1.223396
 12 -14.708305 0.451420 -17.688965 -0.440749 0.138024 0.423516
 13 -7.769432 -4.337900 -11.290720 -0.128457 0.260129 -0.037740
 14 -1.614937 -2.075470 -6.327097 0.052019 0.091792 0.093927
 15 34.313507 6.017490 -79.785118 0.000000 0.000000 -0.000000
 16 9.145773 -0.500296 18.886604 0.184047 -0.253896 0.183938
 17 13.771751 0.225336 -17.802170 -1.073499 -0.618246 -1.108256
 18 7.757042 -4.315056 -11.436718 -0.088245 -0.076199 -0.105809
time 6
  0 1.089372 -2.364846 -2.772400 0.000000 -0.000000 0.000000
  1 -0.114210 6.723641 94.262268 -0.059480 -0.000000 -0.000000
  2 0.000000 0.426100 -2.643669 -0.159497 0.000000 0.000000
  3 -7.805030 -1.259274 -16.724998 -0.155971 0.067616 -0.149937
  4 -0.855269 1.999121 -33.097385 0.515499 0.011483 0.004981
  5 -1.710043 1.005955 -32.422890 -0.064193 -0.011583 -0.002151
  6 8.359842 -0.134830 -16.096413 0.117812 -0.076407 -0.009459
  7 1.023947 0.902421 -33.930801 0.402582 0.015243 0.007769
  8 1.181655 1.118920 -32.218086 -0.100926 0.003330 0.010020
  9 -0.000000 -0.173451 2.663773 -0.224196 0.013226 0.427010
 10 0.725195 -1.257225 27.700897 0.355932 0.069000 -0.414216
 11 -7.896836 -0.700382 18.721550 -0.774488 0.398798 1.165768
 12 -14.708305 0.451416 -17.688965 -0.364191 0.109657 0.411689
 13 -7.769432 -4.337902 -11.290718 -0.081615 0.265285 -0.036500
 14 -1.614937 -2.075466 -6.327097 0.052019 0.091792 0.093927
 15 34.313507 6.017479 -79.785110 -0.000000 0.000000 -0.000000
 16 9.145773 -0.500296 18.886604 0.184047 -0.253896 0.183937
 17 13.771755 0.225331 -17.802170 -1.073499 -0.618246 -1.108255
 18 7.757050 -4.315044 -11.436718 -0.088245 -0.076199 -0.105809
time 7
  0 1.089372 -2.364846 -2.772400 0.000000 -0.000000 0.000000
  1 -0.114210 9.280457 94.662895 -0.073248 -0.000000 -0.000000
  2 0.000000 0.426101 -2.643654 -0.190075 -0.000000 0.000000
  3 -7.805030 -1.259274 -16.725006 -0.169558 0.057501 -0.151664
  4 -0.855269 1.999123 -33.097389 0.534929 0.014301 0.006203
  5 -1.710043 1.005958 -32.422894 -0.008189 -0.002360 -0.001772
  6 8.359841 -0.134832 -16.096405 0.163490 -0.056897 -0.007044
  7 1.023948 0.902421 -33.930805 0.415656 0.011351 0.005786
  8 1.181656 1.118917 -32.218082 -0.061787 0.002480 0.007462
  9 0.000000 -0.173452 2.663780 -0.223160 0.016472 0.531810
 10 0.725194 -1.257229 27.700897 0.383318 0.085934 -0.515875
 11 -7.896836 -0.700386 18.721550 -0.905345 0.352103 1.094934
 12 -14.708302 0.451416 -17.688961 -0.279561 0.078510 0.399181
 13 -7.769424 -4.337902 -11.290714 -0.034983 0.270417 -0.035265
 14 -1.614937 -2.075474 -6.327093 0.052019 0.091792 0.093927
 15 34.313515 6.017464 -79.785095 -0.000000 0.000000 0.000000
 16 9.145775 -0.500298 18.886604 0.184047 -0.253896 0.183938
 17 13.771748 0.225335 -17.802177 -1.073499 -0.618246 -1.108256
 18 7.757050 -4.315048 -11.436714 -0.088245 -0.076199 -0.105809
time 8
  0 1.089372 -2.364846 -2.772400 0.000000 -0.000000 0.000000
  1 -0.114210 11.574286 95.022316 -0.085601 -0.000000 -0.000000
  2 -0.000000 0.426100 -2.643654 -0.218750 0.000000 0.000000
  3 -7.805029 -1.259274 -16.724998 -0.185115 0.047116 -0.153285
  4 -0.855270 1.999126 -33.097393 0.553150 0.016944 0.007350
  5 -1.710043 1.005956 -32.422894 0.044331 0.006289 -0.001416
  6 8.359842 -0.134830 -16.096413 0.206326 -0.038602 -0.004779
  7 1.023947 0.902419 -33.930801 0.427917 0.007701 0.003925
  8 1.181656 1.118927 -32.218086 -0.025083 0.001683 0.005063
  9 -0.000000 -0.173452 2.663788 -0.221936 0.019516 0.630087
 10 0.725193 -1.257225 27.700897 0.409000 0.101815 -0.611209
 11 -7.896835 -0.700382 18.721558 -1.029801 0.308315 1.010052
 12 -14.708294 0.451416 -17.688972 -0.188663 0.045318 0.386447
 13 -7.769440 -4.337898 -11.290720 0.008747 0.275230 -0.034107
 14 -1.614937 -2.075470 -6.327095 0.052019 0.091792 0.093927
 15 34.313507 6.017471 -79.785103 -0.000000 0.000000 0.000000
 16 9.145772 -0.500298 18.886604 0.184047 -0.253896 0.183938
 17 13.771744 0.225328 -17.802170 -1.073499 -0.618246 -1.108255
 18 7.757050 -4.315044 -11.436718 -0.088245 -0.076199 -0.105809
time 9
  0 1.089372 -2.364846 -2.772400 0.000000 -0.000000 0.000000
  1 -0.114210 13.429804 95.313057 -0.095593 -0.000001 -0.000000
  2 0.000000 0.426101 -2.643661 -0.243757 -0.000000 0.000000
  3 -7.805030 -1.259275 -16.724998 -0.202608 0.036804 -0.154698
  4 -0.855270 1.999123 -33.097389 0.569040 0.019249 0.008350
  5 -1.710043 1.005951 -32.422894 0.090133 0.013832 -0.001106
  6 8.359842 -0.134829 -16.096420 0.243683 -0.022647 -0.002804
  7 1.023948 0.902420 -33.930805 0.438609 0.004518 0.002303
  8 1.181656 1.118919 -32.218086 0.006926 0.000987 0.002970
  9 0.000000 -0.173452 2.663780 -0.220517 0.022170 0.715795
 10 0.725193 -1.257227 27.700882 0.431397 0.115664 -0.694348
 11 -7.896836 -0.700386 18.721550 -1.143425 0.270128 0.910281
 12 -14.708302 0.451424 -17.688967 -0.093301 0.010813 0.373939
 13 -7.769432 -4.337898 -11.290716 0.046884 0.279428 -0.033097
 14 -1.614929 -2.075462 -6.327095 0.052019 0.091792 0.093927
 15 34.313499 6.017487 -79.785080 -0.000000 -0.000000 0.000000
 16 9.145771 -0.500298 18.886604 0.184047 -0.253896 0.183938
 17 13.771748 0.225333 -17.802177 -1.073499 -0.618246 -1.108255
 18 7.757050 -4.315048 -11.436718 -0.088245 -0.076199 -0.105809
time 10
  0 1.089372 -2.364846 -2.772400 0.000000 -0.000000 0.000000
  1 -0.114210 14.671687 95.507645 -0.102280 -0.000001 -0.000000
  2 0.000000 0.426100 -2.643654 -0.263332 0.000000 0.000000
  3 -7.805030 -1.259275 -16.724998 -0.222007 0.026909 -0.155804
  4 -0.855270 1.999123 -33.097389 0.581478 0.021053 0.009132
  5 -1.710043 1.005953 -32.422897 0.125985 0.019736 -0.000864
  6 8.359842 -0.134830 -16.096413 0.272924 -0.010157 -0.001258
  7 1.023947 0.902420 -33.930805 0.446978 0.002027 0.001033
  8 1.181655 1.118916 -32.218090 0.031981 0.000443 0.001333
  9 0.000000 -0.173451 2.663780 -0.218896 0.024248 0.782883
 10 0.725196 -1.257223 27.700897 0.448929 0.126505 -0.759427
 11 -7.896835 -0.700382 18.721550 -1.241782 0.240236 0.794780
 12 -14.708305 0.451416 -17.688969 0.004721 -0.024272 0.362111
 13 -7.769432 -4.337898 -11.290719 0.076736 0.282714 -0.032307
 14 -1.614929 -2.075462 -6.327093 0.052019 0.091792 0.093927
 15 34.313515 6.017494 -79.785110 0.000000 0.000000 0.000000
 16 9.145774 -0.500298 18.886612 0.184047 -0.253896 0.183938
 17 13.771748 0.225332 -17.802177 -1.073499 -0.618246 -1.108255
 18 7.757042 -4.315048 -11.436722 -0.088245 -0.076199 -0.105809
time 11
  0 1.089372 -2.364846 -2.772400 0.000000 -0.000000 0.000000
  1 -0.114210 15.124607 95.578613 -0.104719 -0.000001 -0.000000
  2 -0.000000 0.426102 -2.643661 -0.275709 0.000000 0.000000
  3 -7.805030 -1.259272 -16.725006 -0.243277 0.017775 -0.156503
  4 -0.855269 1.999126 -33.097382 0.589343 0.022194 0.009627
  5 -1.710043 1.005955 -32.422897 0.148655 0.023470 -0.000710
  6 8.359842 -0.134827 -16.096420 0.291414 -0.002260 -0.000280
  7 1.023947 0.902419 -33.930805 0.452270 0.000452 0.000230
  8 1.181656 1.118935 -32.218086 0.047823 0.000099 0.000297
  9 -0.000000 -0.173450 2.663773 -0.217063 0.025562 0.825304
 10 0.725193 -1.257225 27.700897 0.460014 0.133360 -0.800576
 11 -7.896837 -0.700384 18.721558 -1.320444 0.221335 0.662707
 12 -14.708302 0.451424 -17.688967 0.103601 -0.059202 0.351417
 13 -7.769432 -4.337906 -11.290718 0.095612 0.284791 -0.031807
 14 -1.614937 -2.075470 -6.327095 0.052019 0.091792 0.093927
 15 34.313507 6.017471 -79.785103 -0.000000 0.000000 0.000000
 16 9.145771 -0.500299 18.886604 0.184047 -0.253896 0.183938
 17 13.771751 0.225331 -17.802170 -1.073499 -0.618246 -1.108256
 18 7.757057 -4.315056 -11.436714 -0.088245 -0.076199 -0.105809
time 12
  0 1.089372 -2.364846 -2.772400 0.000000 -0.000000 0.000000
  1 -0.114210 12.047509 95.578613 -0.082177 -0.000001 -0.000000
  2 -0.000000 0.426100 -2.643661 -0.279219 -0.000000 0.000000
  3 -7.805030 -1.259277 -16.724991 -0.266706 0.009704 -0.156700
  4 -0.855272 1.999126 -33.097389 0.591573 0.022517 0.009767
  5 -1.710043 1.005956 -32.422897 0.155084 0.024529 -0.000667
  6 8.359843 -0.134832 -16.096413 0.296446 0.000000 -0.000000
  7 1.023948 0.902420 -33.930805 0.453771 0.000005 0.000002
  8 1.181657 1.118925 -32.218094 0.051571 0.000000 0.000000
  9 0.000000 -0.173451 2.663765 -0.214468 0.025819 0.834908
 10 0.725194 -1.257225 27.700897 0.462281 0.135114 -0.809579
 11 -7.896836 -0.700380 18.721558 -1.375146 0.215936 0.510568
 12 -14.708305 0.451424 -17.688965 0.201535 -0.093244 0.342311
 13 -7.769432 -4.337898 -11.290716 0.100965 0.285380 -0.031665
 14 -1.614944 -2.075478 -6.327095 0.052019 0.091792 0.093927
 15 34.313507 6.017487 -79.785110 0.000000 -0.000000 0.000000
 16 9.145771 -0.500298 18.886612 0.184047 -0.253896 0.183938
 17 13.771751 0.225335 -17.802177 -1.073499 -0.618246 -1.108255
 18 7.757050 -4.315052 -11.436722 -0.088245 -0.076199 -0.105809
time 13
  0 1.089372 -2.364846 -2.772400 0.000000 -0.000000 0.000000
  1 -0.114210 4.709806 95.578613 -0.024640 -0.000000 -0.000000
  2 0.000000 0.426101 -2.643661 -0.277486 0.000000 0.000000
  3 -7.805029 -1.259274 -16.724998 -0.306488 0.001058 -0.156512
  4 -0.855269 1.999126 -33.097382 0.590472 0.022358 0.009698
  5 -1.710042 1.005955 -32.422897 0.151909 0.024006 -0.000688
  6 8.359843 -0.134829 -16.096420 0.283761 0.000000 0.000000
  7 1.023948 0.902420 -33.930801 0.453030 0.000225 0.000115
  8 1.181655 1.118923 -32.218086 0.014259 0.000000 0.000000
  9 0.000000 -0.173451 2.663780 -0.186455 0.020202 0.714623
 10 0.725195 -1.257227 27.700890 0.419359 0.125198 -0.678095
 11 -7.896836 -0.700386 18.721550 -1.411724 0.216740 0.221053
 12 -14.708305 0.451424 -17.688969 0.296718 -0.125666 0.335244
 13 -7.769440 -4.337906 -11.290718 0.098322 0.285089 -0.031735
 14 -1.614944 -2.075470 -6.327093 0.052019 0.091792 0.093927
 15 34.313538 6.017479 -79.785133 -0.000000 -0.000000 -0.000000
 16 9.145774 -0.500298 18.886604 0.184047 -0.253896 0.183938
 17 13.771751 0.225332 -17.802170 -1.073499 -0.618246 -1.108255
 18 7.757050 -4.315048 -11.436714 -0.088245 -0.076199 -0.105809
time 14
  0 1.089372 -2.364846 -2.772400 0.000000 -0.000000 0.000000
  1 -0.114210 -4.048104 95.578613 0.052759 -0.000000 -0.000000
  2 0.000000 0.426100 -2.643669 -0.273291 0.000000 0.000000
  3 -7.805029 -1.259274 -16.725006 -0.362818 -0.008412 -0.156091
  4 -0.855270 1.999123 -33.097385 0.587806 0.021971 0.009530
  5 -1.710042 1.005953 -32.422894 0.144226 0.022740 -0.000740
  6 8.359841 -0.134830 -16.096413 0.256448 0.000000 0.000000
  7 1.023947 0.902421 -33.930801 0.451237 0.000759 0.000387
  8 1.181655 1.118928 -32.218079 -0.062512 0.000000 0.000000
  9 0.000000 -0.173451 2.663773 -0.131179 0.008643 0.467130
 10 0.725195 -1.257225 27.700897 0.331045 0.104576 -0.407559
 11 -7.896837 -0.700381 18.721550 -1.436571 0.219247 -0.201817
 12 -14.708305 0.451424 -17.688965 0.387347 -0.155732 0.330672
 13 -7.769432 -4.337906 -11.290718 0.091925 0.284385 -0.031905
 14 -1.614952 -2.075478 -6.327091 0.052019 0.091792 0.093927
 15 34.313515 6.017471 -79.785095 0.000000 -0.000000 0.000000
 16 9.145774 -0.500297 18.886612 0.184047 -0.253896 0.183937
 17 13.771751 0.225333 -17.802177 -1.073499 -0.618246 -1.108256
 18 7.757050 -4.315052 -11.436718 -0.088245 -0.076199 -0.105809
time 15
  0 1.089372 -2.364846 -2.772400 0.000000 -0.000000 0.000000
  1 -0.114210 -11.385807 95.578613 0.134888 -0.000000 -0.000000
  2 0.000000 0.426101 -2.643661 -0.266871 0.000000 0.000000
  3 -7.805030 -1.259274 -16.724998 -0.425362 -0.017671 -0.155506
  4 -0.855270 1.999126 -33.097382 0.583727 0.021379 0.009274
  5 -1.710042 1.005955 -32.422897 0.132469 0.020804 -0.000820
  6 8.359842 -0.134830 -16.096420 0.220657 0.000000 0.000000
  7 1.023947 0.902420 -33.930801 0.448492 0.001576 0.000803
  8 1.181655 1.118920 -32.218090 -0.155990 0.000000 0.000000
  9 0.000000 -0.173450 2.663780 -0.064571 -0.005431 0.165775
 10 0.725195 -1.257226 27.700897 0.223512 0.079006 -0.078145
 11 -7.896836 -0.700383 18.721558 -1.451922 0.224082 -0.665629
 12 -14.708305 0.451424 -17.688971 0.471620 -0.182711 0.329047
 13 -7.769440 -4.337898 -11.290718 0.082135 0.283308 -0.032164
 14 -1.614929 -2.075470 -6.327095 0.052019 0.091792 0.093927
 15 34.313522 6.017487 -79.785133 -0.000000 0.000000 0.000000
 16 9.145774 -0.500298 18.886604 0.184047 -0.253896 0.183937
 17 13.771751 0.225336 -17.802177 -1.073499 -0.618246 -1.108256
 18 7.757042 -4.315052 -11.436722 -0.088245 -0.076199 -0.105809
time 16
  0 1.089372 -2.364846 -2.772400 0.000000 -0.000000 0.000000
  1 -0.114210 -14.462904 95.578613 0.206612 -0.000000 -0.000000
  2 0.000000 0.426100 -2.643654 -0.258463 -0.000000 0.000000
  3 -7.805030 -1.259274 -16.725006 -0.483785 -0.025684 -0.154829
  4 -0.855271 1.999126 -33.097382 0.578384 0.020604 0.008937
  5 -1.710043 1.005953 -32.422890 0.117068 0.018268 -0.000924
  6 8.359843 -0.134830 -16.096413 0.182536 0.000000 0.000000
  7 1.023947 0.902421 -33.930798 0.444897 0.002647 0.001349
  8 1.181656 1.118927 -32.218086 -0.243425 0.000000 0.000000
  9 0.000000 -0.173452 2.663788 -0.002563 -0.018595 -0.116098
 10 0.725195 -1.257228 27.700897 0.122930 0.054245 0.229972
 11 -7.896836 -0.700383 18.721550 -1.460015 0.231870 -1.077975
 12 -14.708302 0.451416 -17.688967 0.602413 -0.208205 0.341444
 13 -7.769432 -4.337898 -11.290718 0.069311 0.281897 -0.032503
 14 -1.614937 -2.075462 -6.327099 0.052019 0.091792 0.093927
 15 34.313515 6.017487 -79.785149 -0.000000 0.000000 0.000000
 16 9.145774 -0.500299 18.886604 0.184047 -0.253896 0.183937
 17 13.771748 0.225330 -17.802170 -1.073499 -0.618246 -1.108256
 18 7.757050 -4.315052 -11.436707 -0.088245 -0.076199 -0.105809
time 17
  0 1.089372 -2.364846 -2.772400 0.000000 -0.000000 0.000000
  1 -0.114210 -14.381586 95.554176 0.252800 -0.000000 -0.000000
  2 0.000000 0.426103 -2.643654 -0.248302 -0.000000 0.000000
  3 -7.805029 -1.259274 -16.724991 -0.527753 -0.031416 -0.154128
  4 -0.855271 1.999123 -33.097385 0.571928 0.019668 0.008531
  5 -1.710043 1.005955 -32.422901 0.098457 0.015203 -0.001050
  6 8.359842 -0.134830 -16.096413 0.148233 0.000000 0.000000
  7 1.023945 0.902419 -33.930805 0.440552 0.003940 0.002008
  8 1.181654 1.118923 -32.218086 -0.302066 0.000000 0.000000
  9 0.000000 -0.173452 2.663773 0.038915 -0.027424 -0.305144
 10 0.725195 -1.257226 27.700897 0.055472 0.036053 0.436620
 11 -7.896835 -0.700383 18.721565 -1.463085 0.243237 -1.346445
 12 -14.708305 0.451416 -17.688967 0.744436 -0.227359 0.366710
 13 -7.769432 -4.337898 -11.290718 0.053815 0.280191 -0.032914
 14 -1.614944 -2.075466 -6.327095 0.052019 0.091792 0.093927
 15 34.313499 6.017494 -79.785133 0.000000 -0.000000 -0.000000
 16 9.145772 -0.500299 18.886612 0.184047 -0.253896 0.183937
 17 13.771751 0.225330 -17.802177 -1.073499 -0.618246 -1.108255
 18 7.757053 -4.315048 -11.436722 -0.088245 -0.076199 -0.105809
time 18
  0 1.089372 -2.364846 -2.772400 0.000000 -0.000000 0.000000
  1 -0.114210 -14.149460 95.484436 0.261614 -0.000000 -0.000000
  2 -0.000000 0.426098 -2.643661 -0.236624 -0.000000 0.000000
  3 -7.805030 -1.259274 -16.724998 -0.546932 -0.033832 -0.153474
  4 -0.855269 1.999123 -33.097382 0.564508 0.018592 0.008064
  5 -1.710042 1.005955 -32.422897 0.077069 0.011681 -0.001195
  6 8.359842 -0.134831 -16.096420 0.123899 0.000000 0.000000
  7 1.023946 0.902420 -33.930809 0.435559 0.005426 0.002766
  8 1.181654 1.118917 -32.218098 -0.313912 0.000009 0.000028
  9 -0.000000 -0.173453 2.663773 0.046955 -0.029178 -0.343096
 10 0.725195 -1.257227 27.700890 0.042040 0.029041 0.477963
 11 -7.896835 -0.700384 18.721550 -1.461573 0.258684 -1.396337
 12 -14.708298 0.451424 -17.688971 0.774175 -0.230212 0.388730
 13 -7.769432 -4.337902 -11.290722 0.036007 0.278231 -0.033385
 14 -1.614937 -2.075474 -6.327101 0.052019 0.091792 0.093927
 15 34.313492 6.017460 -79.785126 0.000000 -0.000000 0.000000
 16 9.145772 -0.500298 18.886604 0.184047 -0.253896 0.183937
 17 13.771751 0.225334 -17.802170 -1.073499 -0.618246 -1.108256
 18 7.757050 -4.315044 -11.436722 -0.088245 -0.076199 -0.105809
time 19
  0 1.089372 -2.364846 -2.772400 0.000000 -0.000000 0.000000
  1 -0.114210 -13.784267 95.374702 0.257312 -0.000000 -0.000000
  2 0.000000 0.426102 -2.643654 -0.223666 0.000000 0.000000
  3 -7.805030 -1.259275 -16.725006 -0.543519 -0.032710 -0.152846
  4 -0.855270 1.999123 -33.097385 0.556274 0.017397 0.007546
  5 -1.710042 1.005957 -32.422897 0.053336 0.007772 -0.001355
  6 8.359841 -0.134831 -16.096420 0.107969 -0.001296 -0.000160
  7 1.023947 0.902420 -33.930805 0.430019 0.007076 0.003606
  8 1.181656 1.118923 -32.218094 -0.313032 0.000121 0.000364
  9 0.000000 -0.173452 2.663780 0.042452 -0.028698 -0.337454
 10 0.725195 -1.257224 27.700890 0.045366 0.025181 0.470104
 11 -7.896835 -0.700383 18.721542 -1.439238 0.277215 -1.351299
 12 -14.708302 0.451424 -17.688967 0.717633 -0.216152 0.412307
 13 -7.769432 -4.337902 -11.290718 0.016246 0.276056 -0.033908
 14 -1.614937 -2.075470 -6.327099 0.052019 0.091792 0.093927
 15 34.313499 6.017479 -79.785126 0.000000 -0.000000 -0.000000
 16 9.145774 -0.500300 18.886604 0.184047 -0.253896 0.183937
 17 13.771755 0.225330 -17.802170 -1.073499 -0.618246 -1.108256
 18 7.757046 -4.315052 -11.436722 -0.088245 -0.076199 -0.105809
time 20
  0 1.089372 -2.364846 -2.772400 0.000000 -0.000000 0.000000
  1 -0.114210 -13.303752 95.230324 0.248628 -0.000000 -0.000000
  2 0.000000 0.426099 -2.643661 -0.209664 0.000000 0.000000
  3 -7.805030 -1.259274 -16.724991 -0.531940 -0.029010 -0.152152
  4 -0.855271 1.999123 -33.097389 0.547376 0.016107 0.006987
  5 -1.710042 1.005955 -32.422894 0.027691 0.003549 -0.001529
  6 8.359842 -0.134830 -16.096405 0.091969 -0.005499 -0.000681
  7 1.023947 0.902420 -33.930798 0.424032 0.008858 0.004515
  8 1.181656 1.118919 -32.218090 -0.311255 0.000346 0.001042
  9 0.000000 -0.173453 2.663773 0.033362 -0.027730 -0.326066
 10 0.725195 -1.257226 27.700905 0.052081 0.021654 0.454239
 11 -7.896836 -0.700381 18.721558 -1.394144 0.298108 -1.260373
 12 -14.708302 0.451416 -17.688969 0.618165 -0.190935 0.436918
 13 -7.769440 -4.337902 -11.290714 -0.005108 0.273706 -0.034474
 14 -1.614944 -2.075470 -6.327093 0.052019 0.091792 0.093927
 15 34.313484 6.017448 -79.785095 -0.000000 0.000000 -0.000000
 16 9.145774 -0.500299 18.886612 0.184047 -0.253896 0.183937
 17 13.771751 0.225338 -17.802177 -1.073499 -0.618246 -1.108255
 18 7.757042 -4.315052 -11.436722 -0.088245 -0.076199 -0.105809
time 21
  0 1.089372 -2.364846 -2.772400 0.000000 -0.000000 0.000000
  1 -0.114210 -12.725655 95.056625 0.236161 -0.000000 -0.000000
  2 0.000000 0.426100 -2.643661 -0.194854 0.000000 0.000000
  3 -7.805030 -1.259275 -16.725006 -0.513378 -0.023078 -0.151403
  4 -0.855270 1.999126 -33.097385 0.537966 0.014742 0.006394
  5 -1.710042 1.005951 -32.422901 0.000565 -0.000919 -0.001712
  6 8.359841 -0.134830 -16.096413 0.075968 -0.012237 -0.001515
  7 1.023947 0.902421 -33.930805 0.417700 0.010743 0.005476
  8 1.181656 1.118927 -32.218098 -0.308705 0.000669 0.002014
  9 -0.000000 -0.173451 2.663780 0.020312 -0.026339 -0.309715
 10 0.725194 -1.257228 27.700897 0.061722 0.018447 0.431461
 11 -7.896836 -0.700383 18.721550 -1.329405 0.320913 -1.129834
 12 -14.708305 0.451416 -17.688967 0.500151 -0.160078 0.457991
 13 -7.769440 -4.337906 -11.290718 -0.027694 0.271219 -0.035072
 14 -1.614937 -2.075474 -6.327099 0.052019 0.091792 0.093927
 15 34.313507 6.017460 -79.785126 -0.000000 0.000000 0.000000
 16 9.145773 -0.500299 18.886604 0.184047 -0.253896 0.183937
 17 13.771751 0.225330 -17.802177 -1.073499 -0.618246 -1.108256
 18 7.757050 -4.315052 -11.436714 -0.088245 -0.076199 -0.105809
time 22
  0 1.089372 -2.364846 -2.772400 0.000000 -0.000000 0.000000
  1 -0.114210 -12.067718 94.858940 0.220510 -0.000000 -0.000000
  2 0.000000 0.426100 -2.643661 -0.179472 0.000000 0.000000
  3 -7.805030 -1.259274 -16.725006 -0.488900 -0.015256 -0.150615
  4 -0.855270 1.999123 -33.097389 0.528191 0.013324 0.005780
  5 -1.710043 1.005955 -32.422897 -0.027608 -0.005558 -0.001903
  6 8.359841 -0.134830 -16.096413 0.060110 -0.021122 -0.002615
  7 1.023949 0.902420 -33.930813 0.411123 0.012701 0.006474
  8 1.181657 1.118923 -32.218098 -0.305504 0.001075 0.003236
  9 0.000000 -0.173450 2.663780 0.003929 -0.024594 -0.289189
 10 0.725195 -1.257226 27.700897 0.073825 0.015547 0.402866
 11 -7.896835 -0.700383 18.721558 -1.248134 0.345180 -0.965957
 12 -14.708305 0.451416 -17.688965 0.387968 -0.129100 0.470954
 13 -7.769440 -4.337906 -11.290718 -0.051152 0.268638 -0.035693
 14 -1.614944 -2.075478 -6.327095 0.052019 0.091792 0.093927
 15 34.313499 6.017460 -79.785110 0.000000 -0.000000 -0.000000
 16 9.145775 -0.500299 18.886612 0.184047 -0.253896 0.183937
 17 13.771748 0.225334 -17.802170 -1.073499 -0.618246 -1.108256
 18 7.757053 -4.315041 -11.436722 -0.088245 -0.076199 -0.105809
time 23
  0 1.089372 -2.364846 -2.772400 0.000000 -0.000000 0.000000
  1 -0.114210 -11.347683 94.642593 0.202274 -0.000000 -0.000000
  2 -0.000000 0.426102 -2.643661 -0.163754 0.000000 0.000000
  3 -7.805030 -1.259275 -16.725006 -0.459573 -0.005884 -0.149800
  4 -0.855270 1.999123 -33.097393 0.518204 0.011875 0.005151
  5 -1.710042 1.005955 -32.422901 -0.056396 -0.010299 -0.002098
  6 8.359843 -0.134830 -16.096420 0.044535 -0.031768 -0.003933
  7 1.023948 0.902421 -33.930801 0.404402 0.014701 0.007493
  8 1.181655 1.118921 -32.218094 -0.301774 0.001548 0.004659
  9 0.000000 -0.173451 2.663780 -0.015160 -0.022560 -0.265274
 10 0.725195 -1.257225 27.700890 0.087927 0.012942 0.369550
 11 -7.896835 -0.700382 18.721558 -1.153441 0.370460 -0.775018
 12 -14.708302 0.451416 -17.688967 0.299615 -0.102042 0.472905
 13 -7.769440 -4.337902 -11.290710 -0.075123 0.265999 -0.036328
 14 -1.614944 -2.075474 -6.327095 0.052019 0.091792 0.093927
 15 34.313484 6.017464 -79.785126 0.000000 -0.000000 -0.000000
 16 9.145772 -0.500298 18.886612 0.184047 -0.253896 0.183937
 17 13.771744 0.225336 -17.802177 -1.073499 -0.618246 -1.108255
 18 7.757046 -4.315044 -11.436714 -0.088245 -0.076199 -0.105809
time 24
  0 1.089372 -2.364846 -2.772400 0.000000 -0.000000 0.000000
  1 -0.114210 -10.583294 94.412918 0.182053 -0.000000 -0.000000
  2 0.000000 0.426101 -2.643669 -0.147936 -0.000000 0.000000
  3 -7.805030 -1.259274 -16.725006 -0.426463 0.004697 -0.148972
  4 -0.855269 1.999126 -33.097389 0.508153 0.010417 0.004519
  5 -1.710043 1.005953 -32.422890 -0.085367 -0.015070 -0.002294
  6 8.359843 -0.134830 -16.096413 0.029387 -0.043787 -0.005421
  7 1.023947 0.902420 -33.930798 0.397639 0.016714 0.008519
  8 1.181655 1.118931 -32.218090 -0.297638 0.002073 0.006237
  9 0.000000 -0.173451 2.663780 -0.036326 -0.020304 -0.238754
 10 0.725195 -1.257226 27.700890 0.103564 0.010618 0.332606
 11 -7.896836 -0.700382 18.721550 -1.048439 0.396303 -0.563292
 12 -14.708305 0.451424 -17.688969 0.208244 -0.072736 0.472344
 13 -7.769432 -4.337902 -11.290722 -0.099245 0.263344 -0.036966
 14 -1.614937 -2.075470 -6.327095 0.052019 0.091792 0.093927
 15 34.313499 6.017464 -79.785126 0.000000 0.000000 0.000000
 16 9.145773 -0.500296 18.886604 0.184047 -0.253896 0.183937
 17 13.771751 0.225334 -17.802177 -1.073499 -0.618246 -1.108256
 18 7.757050 -4.315048 -11.436714 -0.088245 -0.076199 -0.105809
time 25
  0 1.089372 -2.364846 -2.772400 0.000000 -0.000000 0.000000
  1 -0.114210 -9.792291 94.175255 0.160446 -0.000000 -0.000000
  2 0.000000 0.426102 -2.643661 -0.132255 -0.000000 0.000000
  3 -7.805030 -1.259274 -16.725006 -0.390636 0.016146 -0.148144
  4 -0.855270 1.999126 -33.097385 0.498189 0.008972 0.003892
  5 -1.710043 1.005956 -32.422890 -0.114088 -0.019800 -0.002488
  6 8.359843 -0.134830 -16.096413 0.014808 -0.056792 -0.007031
  7 1.023949 0.902418 -33.930813 0.390935 0.018710 0.009537
  8 1.181656 1.118910 -32.218090 -0.293218 0.002633 0.007923
  9 0.000000 -0.173451 2.663773 -0.058944 -0.017895 -0.210418
 10 0.725195 -1.257225 27.700897 0.120273 0.008563 0.293131
 11 -7.896837 -0.700382 18.721550 -0.936240 0.422258 -0.337055
 12 -14.708294 0.451431 -17.688965 0.109572 -0.040533 0.471299
 13 -7.769440 -4.337906 -11.290722 -0.123159 0.260712 -0.037600
 14 -1.614937 -2.075474 -6.327099 0.052019 0.091792 0.093927
 15 34.313515 6.017448 -79.785156 0.000000 0.000000 0.000000
 16 9.145775 -0.500298 18.886604 0.184047 -0.253896 0.183937
 17 13.771751 0.225336 -17.802177 -1.073499 -0.618246 -1.108256
 18 7.757050 -4.315056 -11.436707 -0.088245 -0.076199 -0.105809
time 26
  0 1.089372 -2.364846 -2.772400 0.000000 -0.000000 0.000000
  1 -0.114210 -8.992416 93.934914 0.138052 -0.000000 -0.000000
  2 0.000000 0.426101 -2.643661 -0.116947 0.000000 0.000000
  3 -7.805030 -1.259275 -16.724998 -0.353160 0.028123 -0.147331
  4 -0.855271 1.999119 -33.097382 0.488462 0.007561 0.003280
  5 -1.710043 1.005955 -32.422890 -0.142126 -0.024418 -0.002678
  6 8.359842 -0.134831 -16.096413 0.000941 -0.070396 -0.008715
  7 1.023948 0.902420 -33.930805 0.384390 0.020659 0.010530
  8 1.181654 1.118926 -32.218098 -0.288637 0.003214 0.009670
  9 0.000000 -0.173451 2.663780 -0.082385 -0.015397 -0.181049
 10 0.725195 -1.257225 27.700897 0.137590 0.006764 0.252218
 11 -7.896836 -0.700383 18.721558 -0.819957 0.447877 -0.102581
 12 -14.708309 0.451424 -17.688961 0.006507 -0.006470 0.469872
 13 -7.769432 -4.337902 -11.290726 -0.146504 0.258143 -0.038218
 14 -1.614944 -2.075470 -6.327095 0.052019 0.091792 0.093927
 15 34.313507 6.017479 -79.785133 0.000000 0.000000 0.000000
 16 9.145774 -0.500297 18.886604 0.184047 -0.253896 0.183937
 17 13.771748 0.225333 -17.802185 -1.073499 -0.618246 -1.108255
 18 7.757050 -4.315048 -11.436714 -0.088245 -0.076199 -0.105809
time 27
  0 1.089372 -2.364846 -2.772400 0.000000 -0.000000 0.000000
  1 -0.114210 -8.201414 93.697250 0.115471 -0.000000 -0.000000
  2 -0.000000 0.426101 -2.643669 -0.102248 -0.000000 0.000000
  3 -7.805029 -1.259275 -16.724998 -0.315100 0.040285 -0.146545
  4 -0.855270 1.999125 -33.097385 0.479121 0.006206 0.002692
  5 -1.710041 1.005954 -32.422890 -0.169049 -0.028852 -0.002860
  6 8.359842 -0.134830 -16.096405 -0.012072 -0.084211 -0.010425
  7 1.023949 0.902420 -33.930801 0.378105 0.022530 0.011484
  8 1.181657 1.118926 -32.218086 -0.284019 0.003799 0.011432
  9 0.000000 -0.173450 2.663773 -0.106022 -0.012879 -0.151435
 10 0.725195 -1.257225 27.700890 0.155052 0.005208 0.210963
 11 -7.896836 -0.700383 18.721558 -0.702701 0.472709 0.133854
 12 -14.708309 0.451424 -17.688965 -0.098046 0.028414 0.468165
 13 -7.769432 -4.337906 -11.290714 -0.168922 0.255675 -0.038811
 14 -1.614937 -2.075474 -6.327095 0.052019 0.091792 0.093927
 15 34.313507 6.017475 -79.785126 -0.000000 0.000000 0.000000
 16 9.145773 -0.500297 18.886604 0.184047 -0.253896 0.183937
 17 13.771751 0.225332 -17.802170 -1.073499 -0.618246 -1.108256
 18 7.757050 -4.315044 -11.436714 -0.088245 -0.076199 -0.105809
time 28
  0 1.089372 -2.364846 -2.772400 0.000000 -0.000000 0.000000
  1 -0.114210 -7.437025 93.467575 0.093302 -0.000000 -0.000000
  2 0.000000 0.426101 -2.643661 -0.088393 -0.000000 0.000000
  3 -7.805029 -1.259274 -16.724998 -0.277524 0.052294 -0.145801
  4 -0.855270 1.999126 -33.097385 0.470318 0.004929 0.002138
  5 -1.710043 1.005952 -32.422897 -0.194424 -0.033031 -0.003032
  6 8.359842 -0.134830 -16.096413 -0.024087 -0.097851 -0.012114
  7 1.023947 0.902420 -33.930805 0.372181 0.024293 0.012383
  8 1.181654 1.118912 -32.218094 -0.279484 0.004374 0.013162
  9 0.000000 -0.173451 2.663780 -0.129227 -0.010406 -0.122361
 10 0.725195 -1.257227 27.700890 0.172195 0.003884 0.170461
 11 -7.896836 -0.700384 18.721550 -0.587585 0.496304 0.365975
 12 -14.708305 0.451424 -17.688965 -0.201181 0.063081 0.466279
 13 -7.769424 -4.337902 -11.290718 -0.190050 0.253350 -0.039371
 14 -1.614937 -2.075474 -6.327095 0.052019 0.091792 0.093927
 15 34.313507 6.017466 -79.785126 -0.000000 0.000000 0.000000
 16 9.145774 -0.500298 18.886604 0.184047 -0.253896 0.183937
 17 13.771748 0.225334 -17.802177 -1.073499 -0.618246 -1.108256
 18 7.757057 -4.315056 -11.436714 -0.088245 -0.076199 -0.105809
time 29
  0 1.089372 -2.364846 -2.772400 0.000000 -0.000000 0.000000
  1 -0.114210 -6.716991 93.251228 0.072144 -0.000000 -0.000000
  2 0.000000 0.426100 -2.643654 -0.075620 -0.000000 0.000000
  3 -7.805030 -1.259274 -16.725006 -0.241497 0.063807 -0.145112
  4 -0.855269 1.999125 -33.097393 0.462201 0.003752 0.001628
  5 -1.710043 1.005953 -32.422897 -0.217819 -0.036883 -0.003190
  6 8.359842 -0.134830 -16.096420 -0.034963 -0.110929 -0.013733
  7 1.023945 0.902421 -33.930820 0.366719 0.025919 0.013211
  8 1.181654 1.118924 -32.218102 -0.275156 0.004923 0.014813
  9 0.000000 -0.173451 2.663788 -0.151374 -0.008046 -0.094614
 10 0.725195 -1.257225 27.700882 0.188556 0.002777 0.131806
 11 -7.896835 -0.700382 18.721542 -0.477721 0.518212 0.587505
 12 -14.708305 0.451416 -17.688980 -0.299993 0.096494 0.464314
 13 -7.769432 -4.337900 -11.290726 -0.209530 0.251206 -0.039887
 14 -1.614944 -2.075470 -6.327097 0.052019 0.091792 0.093927
 15 34.313507 6.017467 -79.785164 -0.000000 0.000000 -0.000000
 16 9.145772 -0.500297 18.886604 0.184047 -0.253896 0.183937
 17 13.771744 0.225337 -17.802177 -1.073499 -0.618246 -1.108255
 18 7.757050 -4.315048 -11.436718 -0.088245 -0.076199 -0.105809
time 30
  0 1.089372 -2.364846 -2.772400 0.000000 -0.000000 0.000000
  1 -0.114210 -6.059053 93.053543 0.052597 -0.000000 -0.000000
  2 0.000000 0.426101 -2.643661 -0.064163 -0.000000 0.000000
  3 -7.805030 -1.259274 -16.725014 -0.208087 0.074484 -0.144492
  4 -0.855271 1.999125 -33.097382 0.454922 0.002696 0.001170
  5 -1.710044 1.005956 -32.422894 -0.238802 -0.040339 -0.003332
  6 8.359842 -0.134830 -16.096420 -0.044557 -0.123057 -0.015234
  7 1.023947 0.902420 -33.930809 0.361821 0.027377 0.013954
  8 1.181656 1.118924 -32.218094 -0.271158 0.005429 0.016339
  9 0.000000 -0.173451 2.663780 -0.171835 -0.005866 -0.068979
 10 0.725195 -1.257227 27.700882 0.203672 0.001875 0.096094
 11 -7.896835 -0.700384 18.721542 -0.376220 0.537984 0.792172
 12 -14.708298 0.451424 -17.688972 -0.391575 0.127614 0.462374
 13 -7.769440 -4.337904 -11.290722 -0.227001 0.249283 -0.040349
 14 -1.614929 -2.075472 -6.327097 0.052019 0.091792 0.093927
 15 34.313515 6.017456 -79.785141 -0.000000 -0.000000 0.000000
 16 9.145773 -0.500298 18.886604 0.184047 -0.253896 0.183937
 17 13.771744 0.225332 -17.802170 -1.073499 -0.618246 -1.108256
 18 7.757050 -4.315048 -11.436714 -0.088245 -0.076199 -0.105809
time 31
  0 1.089372 -2.364846 -2.772400 0.000000 -0.000000 0.000000
  1 -0.114210 -5.480956 92.879845 0.035261 -0.000000 -0.000000
  2 0.000000 0.426101 -2.643661 -0.054261 0.000000 0.000000
  3 -7.805030 -1.259274 -16.725006 -0.178360 0.083983 -0.143954
  4 -0.855269 1.999123 -33.097382 0.448629 0.001783 0.000774
  5 -1.710042 1.005950 -32.422894 -0.256939 -0.043326 -0.003455
  6 8.359842 -0.134830 -16.096420 -0.052726 -0.133848 -0.016570
  7 1.023949 0.902420 -33.930805 0.357587 0.028637 0.014597
  8 1.181656 1.118915 -32.218086 -0.267612 0.005879 0.017692
  9 -0.000000 -0.173451 2.663780 -0.189983 -0.003933 -0.046242
 10 0.725195 -1.257225 27.700890 0.217078 0.001166 0.064420
 11 -7.896836 -0.700384 18.721550 -0.286195 0.555170 0.973698
 12 -14.708305 0.451420 -17.688965 -0.473021 0.155403 0.460559
 13 -7.769432 -4.337904 -11.290714 -0.242103 0.247621 -0.040749
 14 -1.614944 -2.075470 -6.327099 0.052019 0.091792 0.093927
 15 34.313484 6.017466 -79.785126 0.000000 -0.000000 0.000000
 16 9.145773 -0.500298 18.886604 0.184047 -0.253896 0.183937
 17 13.771748 0.225335 -17.802162 -1.073499 -0.618246 -1.108255
 18 7.757050 -4.315048 -11.436714 -0.088245 -0.076199 -0.105809
time 32
  0 1.089372 -2.364846 -2.772400 0.000000 -0.000000 0.000000
  1 -0.114210 -5.000440 92.735466 0.020733 -0.000000 -0.000000
  2 0.000000 0.426101 -2.643661 -0.046147 -0.000000 0.000000
  3 -7.805030 -1.259274 -16.724991 -0.153382 0.091966 -0.143512
  4 -0.855269 1.999125 -33.097382 0.443474 0.001036 0.000449
  5 -1.710043 1.005955 -32.422897 -0.271799 -0.045773 -0.003556
  6 8.359842 -0.134830 -16.096413 -0.059328 -0.142914 -0.017692
  7 1.023945 0.902420 -33.930805 0.354118 0.029670 0.015123
  8 1.181656 1.118924 -32.218086 -0.264640 0.006256 0.018825
  9 -0.000000 -0.173451 2.663780 -0.205190 -0.002312 -0.027190
 10 0.725195 -1.257225 27.700890 0.228313 0.000637 0.037879
 11 -7.896837 -0.700382 18.721542 -0.210759 0.569320 1.125808
 12 -14.708305 0.451422 -17.688969 -0.541427 0.178824 0.458970
 13 -7.769447 -4.337908 -11.290726 -0.254476 0.246259 -0.041077
 14 -1.614944 -2.075472 -6.327095 0.052019 0.091792 0.093927
 15 34.313507 6.017437 -79.785126 -0.000000 0.000000 0.000000
 16 9.145775 -0.500298 18.886604 0.184047 -0.253896 0.183937
 17 13.771755 0.225333 -17.802177 -1.073499 -0.618246 -1.108255
 18 7.757050 -4.315048 -11.436722 -0.088245 -0.076199 -0.105809
time 33
  0 1.089372 -2.364846 -2.772400 0.000000 -0.000000 0.000000
  1 -0.114210 -4.635248 92.625732 0.009614 -0.000000 -0.000000
  2 -0.000000 0.426100 -2.643661 -0.040060 0.000000 0.000000
  3 -7.805030 -1.259274 -16.724991 -0.134221 0.098089 -0.143179
  4 -0.855270 1.999125 -33.097393 0.439606 0.000475 0.000206
  5 -1.710042 1.005954 -32.422894 -0.282949 -0.047609 -0.003631
  6 8.359842 -0.134830 -16.096420 -0.064221 -0.149870 -0.018554
  7 1.023947 0.902421 -33.930798 0.351515 0.030445 0.015518
  8 1.181658 1.118922 -32.218086 -0.262366 0.006544 0.019693
  9 0.000000 -0.173451 2.663780 -0.216829 -0.001072 -0.012608
 10 0.725195 -1.257225 27.700882 0.236911 0.000274 0.017565
 11 -7.896836 -0.700382 18.721550 -0.153023 0.579984 1.242228
 12 -14.708305 0.451421 -17.688965 -0.593886 0.196839 0.457710
 13 -7.769424 -4.337904 -11.290718 -0.263760 0.245237 -0.041322
 14 -1.614944 -2.075474 -6.327095 0.052019 0.091792 0.093927
 15 34.313507 6.017429 -79.785141 0.000000 -0.000000 -0.000000
 16 9.145773 -0.500298 18.886597 0.184047 -0.253896 0.183937
 17 13.771748 0.225332 -17.802170 -1.073499 -0.618246 -1.108256
 18 7.757050 -4.315044 -11.436710 -0.088245 -0.076199 -0.105809
time 34
  0 1.089372 -2.364846 -2.772400 0.000000 -0.000000 0.000000
  1 -0.114210 -4.403123 92.555992 0.002503 -0.000000 -0.000000
  2 0.000000 0.426100 -2.643661 -0.036234 -0.000000 0.000000
  3 -7.805030 -1.259274 -16.725006 -0.121941 0.102013 -0.142970
  4 -0.855269 1.999125 -33.097393 0.437175 0.000122 0.000053
  5 -1.710042 1.005950 -32.422901 -0.289956 -0.048763 -0.003679
  6 8.359842 -0.134830 -16.096420 -0.067261 -0.154327 -0.019105
  7 1.023947 0.902419 -33.930805 0.349880 0.030932 0.015766
  8 1.181660 1.118923 -32.218082 -0.260911 0.006728 0.020248
  9 0.000000 -0.173451 2.663780 -0.224272 -0.000279 -0.003283
 10 0.725195 -1.257223 27.700890 0.242409 0.000066 0.004574
 11 -7.896834 -0.700382 18.721550 -0.116098 0.586712 1.316682
 12 -14.708305 0.451422 -17.688961 -0.627492 0.208408 0.456880
 13 -7.769440 -4.337902 -11.290726 -0.269594 0.244595 -0.041477
 14 -1.614937 -2.075468 -6.327097 0.052019 0.091792 0.093927
 15 34.313530 6.017456 -79.785149 -0.000000 0.000000 0.000000
 16 9.145772 -0.500296 18.886604 0.184047 -0.253896 0.183937
 17 13.771753 0.225334 -17.802177 -1.073499 -0.618246 -1.108256
 18 7.757042 -4.315048 -11.436718 -0.088245 -0.076199 -0.105809
time 35
  0 1.089372 -2.364846 -2.772400 0.000000 -0.000000 0.000000
  1 -0.114210 -4.321804 92.531555 0.000000 -0.000000 0.000000
  2 0.000000 0.426100 -2.643661 -0.034906 0.000000 0.000000
  3 -7.805030 -1.259274 -16.725006 -0.117611 0.103397 -0.142897
  4 -0.855268 1.999125 -33.097389 0.436331 -0.000000 0.000000
  5 -1.710041 1.005951 -32.422897 -0.292388 -0.049164 -0.003695
  6 8.359842 -0.134830 -16.096420 -0.068305 -0.155899 -0.019300
  7 1.023949 0.902421 -33.930798 0.349312 0.031101 0.015853
  8 1.181656 1.118923 -32.218094 -0.260399 0.006793 0.020443
  9 0.000000 -0.173451 2.663780 -0.226893 -0.000000 0.000000
 10 0.725195 -1.257227 27.700890 0.244345 -0.000000 0.000000
 11 -7.896835 -0.700382 18.721550 -0.103099 0.589055 1.342894
 12 -14.708305 0.451421 -17.688972 -0.639340 0.212496 0.456580
 13 -7.769432 -4.337908 -11.290726 -0.271619 0.244372 -0.041531
 14 -1.614929 -2.075470 -6.327099 0.052019 0.091792 0.093927
 15 34.313522 6.017426 -79.785172 -0.000000 0.000000 0.000000
 16 9.145774 -0.500296 18.886604 0.184047 -0.253896 0.183937
 17 13.771751 0.225331 -17.802177 -1.073499 -0.618246 -1.108256
 18 7.757042 -4.315048 -11.436722 -0.088245 -0.076199 -0.105809
end
