version 1
nodes
  0 "bone_16"  -1
end
skeleton
time 0
  0 -55.502945 3.855354 -153.171219 -1.830863 1.477282 -1.329867
end
triangles
Soldiers_Siege_red_2.TGA
  0 -9.474182 -46.857510 11.341415 -0.997174 -0.075118 0.001254 0.131229 0.160251 1 0 1.000000
  0 -7.276035 -54.314777 12.197266 -0.835313 -0.547121 0.053960 0.131229 0.163110 1 0 1.000000
  0 -7.283710 -53.924568 16.034973 -0.831750 -0.552158 0.057561 0.132076 0.163128 1 0 1.000000
Soldiers_Siege_red_2.TGA
  0 -7.283710 -53.924568 16.034973 -0.831750 -0.552158 0.057561 0.132076 0.163128 1 0 1.000000
  0 -9.502518 -46.459290 15.371384 -0.958855 -0.283100 0.021235 0.132076 0.160251 1 0 1.000000
  0 -9.474182 -46.857510 11.341415 -0.997174 -0.075118 0.001254 0.131229 0.160251 1 0 1.000000
Soldiers_Siege_red_2.TGA
  0 -0.816708 -1.863512 8.941315 -0.838859 -0.538358 -0.080531 0.131794 0.147296 1 0 1.000000
  0 -4.138699 3.384012 8.464981 -0.831831 -0.538722 -0.133551 0.131794 0.144754 1 0 1.000000
  0 -3.601990 3.195257 4.136246 -0.838859 -0.538358 -0.080531 0.130523 0.144754 1 0 1.000000
Soldiers_Siege_red_2.TGA
  0 -3.601990 3.195257 4.136246 -0.866685 -0.498357 -0.022289 0.130523 0.144754 1 0 1.000000
  0 18.654213 -35.688976 8.134247 -0.866685 -0.498357 -0.022289 0.130523 0.161769 1 0 1.000000
  0 -0.816708 -1.863512 8.941315 -0.866685 -0.498357 -0.022289 0.131794 0.147296 1 0 1.000000
Soldiers_Siege_red_2.TGA
  0 -39.707706 6.900408 5.832809 -0.980712 -0.193544 0.027298 0.131229 0.136847 1 0 1.000000
  0 -37.444870 -4.097776 6.920425 -0.817317 -0.573929 0.050967 0.132076 0.140942 1 0 1.000000
  0 -37.473412 -3.699265 10.950348 -0.818403 -0.572538 0.049159 0.132782 0.140942 1 0 1.000000
Soldiers_Siege_red_2.TGA
  0 -37.473412 -3.699265 10.950348 -0.818403 -0.572538 0.049159 0.132782 0.140942 1 0 1.000000
  0 -39.665066 7.335482 9.829376 -0.980963 -0.191650 0.031331 0.132217 0.136847 1 0 1.000000
  0 -39.707706 6.900408 5.832809 -0.980712 -0.193544 0.027298 0.131229 0.136847 1 0 1.000000
Soldiers_Siege_red_2.TGA
  0 13.461517 -38.878609 15.748047 -0.336840 -0.215876 0.916481 0.150009 0.188103 1 0 1.000000
  0 18.890884 -48.197132 15.548553 -0.336840 -0.215876 0.916481 0.151421 0.210271 1 0 1.000000
  0 26.907402 -49.334518 18.227005 -0.336840 -0.215876 0.916481 0.162434 0.219873 1 0 1.000000
Soldiers_Siege_red_2.TGA
  0 26.907402 -49.334518 18.227005 -0.314136 -0.183105 0.931553 0.162434 0.219873 1 0 1.000000
  0 18.208282 -35.937874 17.926743 -0.314136 -0.183105 0.931553 0.162434 0.188103 1 0 1.000000
  0 13.461517 -38.878609 15.748047 -0.314136 -0.183105 0.931553 0.150009 0.188103 1 0 1.000000
Soldiers_Siege_red_2.TGA
  0 18.606712 -34.831238 16.736588 -0.606370 0.790922 -0.082211 0.133629 0.131482 1 0 1.000000
  0 18.654213 -35.688976 8.134247 -0.606300 0.790983 -0.082138 0.132076 0.131199 1 0 1.000000
  0 13.461517 -38.878609 15.748047 -0.606311 0.790973 -0.082149 0.132076 0.133600 1 0 1.000000
Soldiers_Siege_red_2.TGA
  0 13.488770 -39.502831 9.529388 -0.612701 0.777010 -0.144404 0.131370 0.133600 1 0 1.000000
  0 13.461517 -38.878609 15.748047 -0.606311 0.790973 -0.082149 0.132076 0.133600 1 0 1.000000
  0 18.654213 -35.688976 8.134247 -0.606300 0.790983 -0.082138 0.132076 0.131199 1 0 1.000000
Soldiers_Siege_red_2.TGA
  0 18.933716 -48.567772 11.695389 -0.180232 -0.317625 -0.930930 0.112873 0.210271 1 0 1.000000
  0 13.488770 -39.502831 9.529388 -0.124353 -0.300637 -0.945597 0.114144 0.188103 1 0 1.000000
  0 18.254967 -37.020657 7.134735 -0.272446 -0.367261 -0.889321 0.101683 0.188103 1 0 1.000000
Soldiers_Siege_red_2.TGA
  0 18.254967 -37.020657 7.134735 -0.272446 -0.367261 -0.889321 0.101683 0.188103 1 0 1.000000
  0 26.955681 -50.191956 9.625534 -0.301247 -0.365547 -0.880696 0.101683 0.219873 1 0 1.000000
  0 18.933716 -48.567772 11.695389 -0.180232 -0.317625 -0.930930 0.112873 0.210271 1 0 1.000000
Soldiers_Siege_red_2.TGA
  0 26.955681 -50.191956 9.625534 -0.173475 -0.980077 0.096725 0.133629 0.131199 1 0 1.000000
  0 26.907402 -49.334518 18.227005 -0.172502 -0.980368 0.095503 0.132217 0.131199 1 0 1.000000
  0 18.933716 -48.567772 11.695389 -0.171810 -0.980574 0.094634 0.132217 0.133600 1 0 1.000000
Soldiers_Siege_red_2.TGA
  0 18.890884 -48.197132 15.548553 -0.170096 -0.981078 0.092482 0.131511 0.133600 1 0 1.000000
  0 18.933716 -48.567772 11.695389 -0.171810 -0.980574 0.094634 0.132217 0.133600 1 0 1.000000
  0 26.907402 -49.334518 18.227005 -0.172502 -0.980368 0.095503 0.132217 0.131199 1 0 1.000000
Soldiers_Siege_red_2.TGA
  0 13.488770 -39.502831 9.529388 -0.124353 -0.300637 -0.945597 0.114144 0.188103 1 0 1.000000
  0 18.933716 -48.567772 11.695389 -0.180232 -0.317625 -0.930930 0.112873 0.210271 1 0 1.000000
  0 -4.395195 -53.079391 12.066040 0.026507 -0.217228 -0.975761 0.127558 0.205753 1 0 1.000000
Soldiers_Siege_red_2.TGA
  0 -4.395195 -53.079391 12.066040 -0.045106 -0.125749 -0.991036 0.127558 0.205753 1 0 1.000000
  0 -9.054676 -43.840622 11.105850 -0.045106 -0.125749 -0.991036 0.128546 0.183867 1 0 1.000000
  0 13.488770 -39.502831 9.529388 -0.045106 -0.125749 -0.991036 0.114144 0.188103 1 0 1.000000
Soldiers_Siege_red_2.TGA
  0 -9.083065 -43.442532 15.134933 -0.003975 0.063439 0.997978 0.105601 0.174548 1 0 1.000000
  0 -4.352676 -52.644276 16.062607 0.002559 0.101610 0.994821 0.101718 0.194174 1 0 1.000000
  0 18.890884 -48.197132 15.548553 -0.013772 0.005964 0.999887 0.121769 0.201093 1 0 1.000000
Soldiers_Siege_red_2.TGA
  0 18.890884 -48.197132 15.548553 -0.013772 0.005964 0.999887 0.121769 0.201093 1 0 1.000000
  0 13.461517 -38.878609 15.748047 -0.020435 -0.033297 0.999237 0.120498 0.178925 1 0 1.000000
  0 -9.083065 -43.442532 15.134933 -0.003975 0.063439 0.997978 0.105601 0.174548 1 0 1.000000
Soldiers_Siege_red_2.TGA
  0 -9.054676 -43.840622 11.105850 -0.194872 0.975924 -0.097968 0.131370 0.141366 1 0 1.000000
  0 -9.083065 -43.442532 15.134933 -0.194908 0.975933 -0.097801 0.132076 0.141366 1 0 1.000000
  0 13.461517 -38.878609 15.748047 -0.194712 0.975882 -0.098696 0.132076 0.138542 1 0 1.000000
Soldiers_Siege_red_2.TGA
  0 13.461517 -38.878609 15.748047 -0.194712 0.975882 -0.098696 0.132076 0.138542 1 0 1.000000
  0 13.488770 -39.502831 9.529388 -0.194687 0.975876 -0.098811 0.131370 0.138542 1 0 1.000000
  0 -9.054676 -43.840622 11.105850 -0.194872 0.975924 -0.097968 0.131370 0.141366 1 0 1.000000
Soldiers_Siege_red_2.TGA
  0 -4.352676 -52.644276 16.062607 0.190299 -0.976264 0.103415 0.131511 0.142213 1 0 1.000000
  0 -4.395195 -53.079391 12.066040 0.190435 -0.976149 0.104249 0.132217 0.142213 1 0 1.000000
  0 18.933716 -48.567772 11.695389 0.189244 -0.977129 0.096982 0.132217 0.138542 1 0 1.000000
Soldiers_Siege_red_2.TGA
  0 18.933716 -48.567772 11.695389 0.189244 -0.977129 0.096982 0.132217 0.138542 1 0 1.000000
  0 18.890884 -48.197132 15.548553 0.189100 -0.977244 0.096106 0.131511 0.138542 1 0 1.000000
  0 -4.352676 -52.644276 16.062607 0.190299 -0.976264 0.103415 0.131511 0.142213 1 0 1.000000
Soldiers_Siege_red_2.TGA
  0 -9.083065 -43.442532 15.134933 -0.034733 0.085101 0.995767 0.121769 0.159369 1 0 1.000000
  0 -4.671570 -55.997688 16.361801 -0.044227 0.079633 0.995843 0.120780 0.164346 1 0 1.000000
  0 -4.352676 -52.644276 16.062607 -0.018957 0.090638 0.995703 0.121486 0.163340 1 0 1.000000
Soldiers_Siege_red_2.TGA
  0 -9.054676 -43.840622 11.105850 0.023984 -0.091371 -0.995528 0.141819 0.159404 1 0 1.000000
  0 -4.395195 -53.079391 12.066040 0.023984 -0.091371 -0.995528 0.142666 0.163340 1 0 1.000000
  0 -4.714489 -56.432213 12.366104 0.023984 -0.091371 -0.995528 0.143513 0.164346 1 0 1.000000
Soldiers_Siege_red_2.TGA
  0 -4.671570 -55.997688 16.361801 0.995500 -0.094757 -0.000326 0.131511 0.164346 1 0 1.000000
  0 -4.714489 -56.432213 12.366104 0.995493 -0.094837 -0.000381 0.132217 0.164346 1 0 1.000000
  0 -4.395195 -53.079391 12.066040 0.995499 -0.094773 -0.000337 0.132217 0.163340 1 0 1.000000
Soldiers_Siege_red_2.TGA
  0 -4.395195 -53.079391 12.066040 0.995499 -0.094773 -0.000337 0.132217 0.163340 1 0 1.000000
  0 -4.352676 -52.644276 16.062607 0.995506 -0.094694 -0.000282 0.131511 0.163340 1 0 1.000000
  0 -4.671570 -55.997688 16.361801 0.995500 -0.094757 -0.000326 0.131511 0.164346 1 0 1.000000
Soldiers_Siege_red_2.TGA
  0 -9.502518 -46.459290 15.371384 -0.041368 0.082440 0.995737 0.121062 0.160251 1 0 1.000000
  0 -7.283710 -53.924568 16.034973 -0.071070 0.067341 0.995196 0.120357 0.163110 1 0 1.000000
  0 -4.671570 -55.997688 16.361801 -0.044227 0.079633 0.995843 0.120780 0.164346 1 0 1.000000
Soldiers_Siege_red_2.TGA
  0 -4.671570 -55.997688 16.361801 -0.044227 0.079633 0.995843 0.120780 0.164346 1 0 1.000000
  0 -9.083065 -43.442532 15.134933 -0.034733 0.085101 0.995767 0.121769 0.159369 1 0 1.000000
  0 -9.502518 -46.459290 15.371384 -0.041368 0.082440 0.995737 0.121062 0.160251 1 0 1.000000
Soldiers_Siege_red_2.TGA
  0 -9.474182 -46.857510 11.341415 -0.997174 -0.075118 0.001254 0.131229 0.160251 1 0 1.000000
  0 -9.502518 -46.459290 15.371384 -0.990482 0.136117 -0.020412 0.132076 0.160251 1 0 1.000000
  0 -9.083065 -43.442532 15.134933 -0.990481 0.136124 -0.020419 0.132076 0.159369 1 0 1.000000
Soldiers_Siege_red_2.TGA
  0 -9.083065 -43.442532 15.134933 -0.990481 0.136124 -0.020419 0.132076 0.159369 1 0 1.000000
  0 -9.054676 -43.840622 11.105850 -0.990480 0.136135 -0.020429 0.131229 0.159369 1 0 1.000000
  0 -9.474182 -46.857510 11.341415 -0.997174 -0.075118 0.001254 0.131229 0.160251 1 0 1.000000
Soldiers_Siege_red_2.TGA
  0 -7.276035 -54.314777 12.197266 0.083923 -0.089165 -0.992475 0.143796 0.163110 1 0 1.000000
  0 -9.474182 -46.857510 11.341415 0.083923 -0.089165 -0.992475 0.143231 0.160251 1 0 1.000000
  0 -9.054676 -43.840622 11.105850 0.083923 -0.089165 -0.992475 0.142384 0.159369 1 0 1.000000
Soldiers_Siege_red_2.TGA
  0 -9.054676 -43.840622 11.105850 -0.023386 -0.107538 -0.993926 0.142384 0.159369 1 0 1.000000
  0 -4.714489 -56.432213 12.366104 -0.023386 -0.107538 -0.993926 0.143513 0.164346 1 0 1.000000
  0 -7.276035 -54.314777 12.197266 -0.023386 -0.107538 -0.993926 0.143796 0.163110 1 0 1.000000
Soldiers_Siege_red_2.TGA
  0 -7.283710 -53.924568 16.034973 -0.831750 -0.552158 0.057561 0.132076 0.163128 1 0 1.000000
  0 -7.276035 -54.314777 12.197266 -0.835313 -0.547121 0.053960 0.131229 0.163110 1 0 1.000000
  0 -4.714489 -56.432213 12.366104 -0.632724 -0.769901 0.083142 0.131229 0.164346 1 0 1.000000
Soldiers_Siege_red_2.TGA
  0 -4.714489 -56.432213 12.366104 -0.632724 -0.769901 0.083142 0.131229 0.164346 1 0 1.000000
  0 -4.671570 -55.997688 16.361801 -0.626038 -0.774470 0.090946 0.132076 0.164346 1 0 1.000000
  0 -7.283710 -53.924568 16.034973 -0.831750 -0.552158 0.057561 0.132076 0.163128 1 0 1.000000
Soldiers_Siege_red_2.TGA
  0 26.907402 -49.334518 18.227005 0.649738 0.435866 0.622785 0.130523 0.168161 1 0 1.000000
  0 18.606712 -34.831238 16.736588 0.649738 0.435866 0.622785 0.130523 0.161769 1 0 1.000000
  0 18.208282 -35.937874 17.926743 0.649738 0.435866 0.622785 0.130099 0.162122 1 0 1.000000
Soldiers_Siege_red_2.TGA
  0 13.461517 -38.878609 15.748047 -0.609432 0.671961 0.420786 0.133065 0.133741 1 0 1.000000
  0 18.208282 -35.937874 17.926743 -0.609432 0.671961 0.420786 0.134194 0.131623 1 0 1.000000
  0 18.606712 -34.831238 16.736588 -0.609432 0.671961 0.420786 0.133629 0.131482 1 0 1.000000
Soldiers_Siege_red_2.TGA
  0 26.955681 -50.191956 9.625534 0.664755 0.310641 -0.679415 0.134194 0.167404 1 0 1.000000
  0 18.254967 -37.020657 7.134735 0.664755 0.310641 -0.679415 0.134194 0.162122 1 0 1.000000
  0 18.654213 -35.688976 8.134247 0.664755 0.310641 -0.679415 0.133629 0.161769 1 0 1.000000
Soldiers_Siege_red_2.TGA
  0 13.488770 -39.502831 9.529388 -0.612701 0.777010 -0.144404 0.131370 0.133600 1 0 1.000000
  0 18.654213 -35.688976 8.134247 -0.586200 0.591372 -0.553757 0.130523 0.131199 1 0 1.000000
  0 18.254967 -37.020657 7.134735 -0.586200 0.591372 -0.553757 0.130099 0.131623 1 0 1.000000
Soldiers_Siege_red_2.TGA
  0 -15.843437 12.124719 9.411911 -0.305755 -0.074205 0.949215 0.149444 0.056363 1 0 1.000000
  0 -15.498661 0.585055 8.683533 -0.302724 -0.069044 0.950574 0.150856 0.078391 1 0 1.000000
  0 -3.614189 4.070715 12.721497 -0.304911 -0.072766 0.949597 0.162152 0.080650 1 0 1.000000
Soldiers_Siege_red_2.TGA
  0 -3.614189 4.070715 12.721497 -0.304911 -0.072766 0.949597 0.162152 0.080650 1 0 1.000000
  0 -9.942291 15.125324 11.584778 -0.308711 -0.079254 0.947849 0.162152 0.057493 1 0 1.000000
  0 -15.843437 12.124719 9.411911 -0.305755 -0.074205 0.949215 0.149444 0.056363 1 0 1.000000
Soldiers_Siege_red_2.TGA
  0 -15.868011 11.699183 5.407669 -0.514118 0.761923 -0.393899 0.131370 0.133741 1 0 1.000000
  0 -15.843437 12.124719 9.411911 -0.423816 0.900947 -0.093143 0.132076 0.133600 1 0 1.000000
  0 -9.942291 15.125324 11.584778 -0.424212 0.900807 -0.092685 0.132076 0.131199 1 0 1.000000
Soldiers_Siege_red_2.TGA
  0 -9.942291 15.125324 11.584778 -0.424212 0.900807 -0.092685 0.132076 0.131199 1 0 1.000000
  0 -9.930134 14.249943 2.999527 -0.490824 0.784224 -0.379585 0.130523 0.131199 1 0 1.000000
  0 -15.868011 11.699183 5.407669 -0.514118 0.761923 -0.393899 0.131370 0.133741 1 0 1.000000
Soldiers_Siege_red_2.TGA
  0 -15.498661 0.585055 8.683533 -0.009027 -0.393235 -0.919394 0.113508 0.078391 1 0 1.000000
  0 -15.471333 10.530276 4.486160 -0.140143 -0.342162 -0.929131 0.114850 0.056363 1 0 1.000000
  0 -10.435558 12.649320 1.920883 -0.269205 -0.382479 -0.883877 0.102142 0.057493 1 0 1.000000
Soldiers_Siege_red_2.TGA
  0 -10.435558 12.649320 1.920883 -0.269205 -0.382479 -0.883877 0.102142 0.057493 1 0 1.000000
  0 -3.601990 3.195257 4.136246 -0.252799 -0.390190 -0.885350 0.102142 0.080650 1 0 1.000000
  0 -15.498661 0.585055 8.683533 -0.009027 -0.393235 -0.919394 0.113508 0.078391 1 0 1.000000
Soldiers_Siege_red_2.TGA
  0 -15.471333 10.530276 4.486160 -0.140143 -0.342162 -0.929131 0.114850 0.056363 1 0 1.000000
  0 -15.498661 0.585055 8.683533 -0.009027 -0.393235 -0.919394 0.113508 0.078391 1 0 1.000000
  0 -31.616196 -2.709897 6.943436 0.020111 -0.206090 -0.978326 0.135888 0.071048 1 0 1.000000
Soldiers_Siege_red_2.TGA
  0 -31.616196 -2.709897 6.943436 0.020111 -0.206090 -0.978326 0.135888 0.071048 1 0 1.000000
  0 -34.284409 8.300096 5.792328 -0.054976 -0.116995 -0.991610 0.133629 0.047892 1 0 1.000000
  0 -15.471333 10.530276 4.486160 -0.140143 -0.342162 -0.929131 0.114850 0.056363 1 0 1.000000
Soldiers_Siege_red_2.TGA
  0 -34.327644 8.671532 9.646347 0.074937 0.055949 0.995617 0.111390 0.043373 1 0 1.000000
  0 -31.694950 -2.356386 10.813629 0.106104 0.129682 0.985862 0.105601 0.063141 1 0 1.000000
  0 -15.498661 0.585055 8.683533 0.052506 0.003361 0.998615 0.115697 0.066530 1 0 1.000000
Soldiers_Siege_red_2.TGA
  0 -15.498661 0.585055 8.683533 0.052506 0.003361 0.998615 0.115697 0.066530 1 0 1.000000
  0 -15.843437 12.124719 9.411911 0.024283 -0.062253 0.997765 0.122616 0.046762 1 0 1.000000
  0 -34.327644 8.671532 9.646347 0.074937 0.055949 0.995617 0.111390 0.043373 1 0 1.000000
Soldiers_Siege_red_2.TGA
  0 -34.284409 8.300096 5.792328 -0.447985 0.889378 -0.091190 0.131370 0.140519 1 0 1.000000
  0 -34.327644 8.671532 9.646347 -0.452426 0.887394 -0.088560 0.132076 0.140377 1 0 1.000000
  0 -15.843437 12.124719 9.411911 -0.182794 0.977851 -0.101949 0.132076 0.138118 1 0 1.000000
Soldiers_Siege_red_2.TGA
  0 -15.843437 12.124719 9.411911 -0.182794 0.977851 -0.101949 0.132076 0.138118 1 0 1.000000
  0 -15.868011 11.699183 5.407669 -0.182618 0.977796 -0.102790 0.131370 0.138118 1 0 1.000000
  0 -34.284409 8.300096 5.792328 -0.447985 0.889378 -0.091190 0.131370 0.140519 1 0 1.000000
Soldiers_Siege_red_2.TGA
  0 -35.971355 7.150565 9.843918 0.000416 0.103556 0.994623 0.122333 0.137553 1 0 1.000000
  0 -34.571339 -5.474514 11.101044 -0.001237 0.100109 0.994976 0.120498 0.142072 1 0 1.000000
  0 -31.694950 -2.356386 10.813629 -0.004937 0.099275 0.995048 0.122051 0.141507 1 0 1.000000
Soldiers_Siege_red_2.TGA
  0 -31.694950 -2.356386 10.813629 -0.004937 0.099275 0.995048 0.122051 0.141507 1 0 1.000000
  0 -34.327644 8.671532 9.646347 0.018112 0.109518 0.993820 0.123181 0.137412 1 0 1.000000
  0 -35.971355 7.150565 9.843918 0.000416 0.103556 0.994623 0.122333 0.137553 1 0 1.000000
Soldiers_Siege_red_2.TGA
  0 -36.013954 6.715415 5.847366 -0.469807 0.877912 -0.092477 0.131370 0.141224 1 0 1.000000
  0 -35.971355 7.150565 9.843918 -0.482157 0.871803 -0.086507 0.132076 0.141224 1 0 1.000000
  0 -34.327644 8.671532 9.646347 -0.452426 0.887394 -0.088560 0.132076 0.140377 1 0 1.000000
Soldiers_Siege_red_2.TGA
  0 -34.327644 8.671532 9.646347 -0.452426 0.887394 -0.088560 0.132076 0.140377 1 0 1.000000
  0 -34.284409 8.300096 5.792328 -0.447985 0.889378 -0.091190 0.131370 0.140519 1 0 1.000000
  0 -36.013954 6.715415 5.847366 -0.469807 0.877912 -0.092477 0.131370 0.141224 1 0 1.000000
Soldiers_Siege_red_2.TGA
  0 -34.492989 -5.826913 7.230728 0.028105 -0.096847 -0.994902 0.143796 0.142072 1 0 1.000000
  0 -36.013954 6.715415 5.847366 0.018987 -0.107338 -0.994041 0.141819 0.137553 1 0 1.000000
  0 -34.284409 8.300096 5.792328 0.038223 -0.054479 -0.997783 0.140972 0.137412 1 0 1.000000
Soldiers_Siege_red_2.TGA
  0 -34.284409 8.300096 5.792328 0.038223 -0.054479 -0.997783 0.140972 0.137412 1 0 1.000000
  0 -31.616196 -2.709897 6.943436 0.010564 -0.101444 -0.994785 0.142101 0.141507 1 0 1.000000
  0 -34.492989 -5.826913 7.230728 0.028105 -0.096847 -0.994902 0.143796 0.142072 1 0 1.000000
Soldiers_Siege_red_2.TGA
  0 -34.571339 -5.474514 11.101044 0.736289 -0.672357 0.076252 0.131511 0.142919 1 0 1.000000
  0 -34.492989 -5.826913 7.230728 0.736211 -0.672456 0.076132 0.132217 0.142919 1 0 1.000000
  0 -31.616196 -2.709897 6.943436 0.736299 -0.672345 0.076267 0.132217 0.141648 1 0 1.000000
Soldiers_Siege_red_2.TGA
  0 -31.616196 -2.709897 6.943436 0.736299 -0.672345 0.076267 0.132217 0.141648 1 0 1.000000
  0 -31.694950 -2.356386 10.813629 0.736376 -0.672246 0.076388 0.131511 0.141648 1 0 1.000000
  0 -34.571339 -5.474514 11.101044 0.736289 -0.672357 0.076252 0.131511 0.142919 1 0 1.000000
Soldiers_Siege_red_2.TGA
  0 -34.571339 -5.474514 11.101044 -0.001237 0.100109 0.994976 0.120498 0.142072 1 0 1.000000
  0 -35.971355 7.150565 9.843918 0.000416 0.103556 0.994623 0.122333 0.137553 1 0 1.000000
  0 -37.916786 6.638638 9.851517 -0.021551 0.096695 0.995081 0.121627 0.137412 1 0 1.000000
Soldiers_Siege_red_2.TGA
  0 -37.837910 6.285097 5.981323 -0.240847 0.965406 -0.099926 0.131229 0.142072 1 0 1.000000
  0 -37.916786 6.638638 9.851517 -0.253715 0.962786 -0.093121 0.132076 0.141930 1 0 1.000000
  0 -35.971355 7.150565 9.843918 -0.482157 0.871803 -0.086507 0.132076 0.141224 1 0 1.000000
Soldiers_Siege_red_2.TGA
  0 -35.971355 7.150565 9.843918 -0.482157 0.871803 -0.086507 0.132076 0.141224 1 0 1.000000
  0 -36.013954 6.715415 5.847366 -0.469807 0.877912 -0.092477 0.131370 0.141224 1 0 1.000000
  0 -37.837910 6.285097 5.981323 -0.240847 0.965406 -0.099926 0.131229 0.142072 1 0 1.000000
Soldiers_Siege_red_2.TGA
  0 -34.492989 -5.826913 7.230728 0.028105 -0.096847 -0.994902 0.143796 0.142072 1 0 1.000000
  0 -37.837910 6.285097 5.981323 0.010377 -0.099396 -0.994994 0.142666 0.137412 1 0 1.000000
  0 -36.013954 6.715415 5.847366 0.018987 -0.107338 -0.994041 0.141819 0.137553 1 0 1.000000
Soldiers_Siege_red_2.TGA
  0 -39.665066 7.335482 9.829376 0.011562 0.103331 0.994580 0.121204 0.136847 1 0 1.000000
  0 -37.473412 -3.699265 10.950348 0.011562 0.103331 0.994580 0.119933 0.140942 1 0 1.000000
  0 -34.571339 -5.474514 11.101044 -0.001237 0.100109 0.994976 0.120498 0.142072 1 0 1.000000
Soldiers_Siege_red_2.TGA
  0 -34.571339 -5.474514 11.101044 0.031759 0.111233 0.993287 0.120498 0.142072 1 0 1.000000
  0 -37.916786 6.638638 9.851517 0.031759 0.111233 0.993287 0.121627 0.137412 1 0 1.000000
  0 -39.665066 7.335482 9.829376 0.031759 0.111233 0.993287 0.121204 0.136847 1 0 1.000000
Soldiers_Siege_red_2.TGA
  0 -39.707706 6.900408 5.832809 0.332544 0.939064 -0.087029 0.133065 0.136847 1 0 1.000000
  0 -39.665066 7.335482 9.829376 0.369374 0.923391 -0.104463 0.132217 0.136847 1 0 1.000000
  0 -37.916786 6.638638 9.851517 0.354521 0.929959 -0.097416 0.132217 0.137412 1 0 1.000000
Soldiers_Siege_red_2.TGA
  0 -37.916786 6.638638 9.851517 0.354521 0.929959 -0.097416 0.132217 0.137412 1 0 1.000000
  0 -37.837910 6.285097 5.981323 0.317307 0.944955 -0.079855 0.133065 0.137412 1 0 1.000000
  0 -39.707706 6.900408 5.832809 0.332544 0.939064 -0.087029 0.133065 0.136847 1 0 1.000000
Soldiers_Siege_red_2.TGA
  0 -37.444870 -4.097776 6.920425 0.052831 -0.087969 -0.994721 0.144361 0.140942 1 0 1.000000
  0 -39.707706 6.900408 5.832809 0.050028 -0.088087 -0.994856 0.142948 0.136847 1 0 1.000000
  0 -37.837910 6.285097 5.981323 0.010377 -0.099396 -0.994994 0.142666 0.137412 1 0 1.000000
Soldiers_Siege_red_2.TGA
  0 -37.837910 6.285097 5.981323 0.010377 -0.099396 -0.994994 0.142666 0.137412 1 0 1.000000
  0 -34.492989 -5.826913 7.230728 0.028105 -0.096847 -0.994902 0.143796 0.142072 1 0 1.000000
  0 -37.444870 -4.097776 6.920425 0.052831 -0.087969 -0.994721 0.144361 0.140942 1 0 1.000000
Soldiers_Siege_red_2.TGA
  0 -37.473412 -3.699265 10.950348 -0.818403 -0.572538 0.049159 0.132782 0.140942 1 0 1.000000
  0 -37.444870 -4.097776 6.920425 -0.817317 -0.573929 0.050967 0.132076 0.140942 1 0 1.000000
  0 -34.492989 -5.826913 7.230728 -0.515950 -0.853355 0.074710 0.132076 0.142072 1 0 1.000000
Soldiers_Siege_red_2.TGA
  0 -34.492989 -5.826913 7.230728 -0.515950 -0.853355 0.074710 0.132076 0.142072 1 0 1.000000
  0 -34.571339 -5.474514 11.101044 -0.523183 -0.849601 0.066767 0.132782 0.142072 1 0 1.000000
  0 -37.473412 -3.699265 10.950348 -0.818403 -0.572538 0.049159 0.132782 0.140942 1 0 1.000000
Soldiers_Siege_red_2.TGA
  0 -3.601990 3.195257 4.136246 0.630618 0.286838 -0.721142 0.134194 0.144190 1 0 1.000000
  0 -10.435558 12.649320 1.920883 0.630618 0.286838 -0.721142 0.134194 0.140236 1 0 1.000000
  0 -9.930134 14.249943 2.999527 0.630618 0.286838 -0.721142 0.133629 0.139954 1 0 1.000000
Soldiers_Siege_red_2.TGA
  0 -34.284409 8.300096 5.792328 0.038223 -0.054479 -0.997783 0.140972 0.137412 1 0 1.000000
  0 -15.868011 11.699183 5.407669 -0.125164 0.587683 -0.799351 0.138713 0.138118 1 0 1.000000
  0 -15.471333 10.530276 4.486160 -0.125164 0.587683 -0.799351 0.138713 0.138542 1 0 1.000000
Soldiers_Siege_red_2.TGA
  0 -10.435558 12.649320 1.920883 -0.513742 0.563628 -0.646833 0.130099 0.131623 1 0 1.000000
  0 -15.471333 10.530276 4.486160 -0.543826 0.397920 -0.738859 0.130946 0.133741 1 0 1.000000
  0 -15.868011 11.699183 5.407669 -0.514118 0.761923 -0.393899 0.131370 0.133741 1 0 1.000000
Soldiers_Siege_red_2.TGA
  0 -15.868011 11.699183 5.407669 -0.514118 0.761923 -0.393899 0.131370 0.133741 1 0 1.000000
  0 -9.930134 14.249943 2.999527 -0.490824 0.784224 -0.379585 0.130523 0.131199 1 0 1.000000
  0 -10.435558 12.649320 1.920883 -0.513742 0.563628 -0.646833 0.130099 0.131623 1 0 1.000000
Soldiers_Siege_red_2.TGA
  0 -31.694950 -2.356386 10.813629 0.189758 -0.977403 0.093139 0.131511 0.137412 1 0 1.000000
  0 -31.616196 -2.709897 6.943436 0.189758 -0.977403 0.093139 0.132217 0.137412 1 0 1.000000
  0 -15.498661 0.585055 8.683533 0.189758 -0.977403 0.093139 0.132217 0.135859 1 0 1.000000
Soldiers_Siege_red_2.TGA
  0 -5.603176 -13.425549 9.814957 -0.569785 -0.807655 -0.151785 0.135606 0.149908 1 0 1.000000
  0 -5.635262 -13.459080 10.113785 -0.569785 -0.807655 -0.151785 0.135606 0.150049 1 0 1.000000
  0 -8.853127 -11.140125 9.854065 -0.569785 -0.807655 -0.151785 0.135888 0.149626 1 0 1.000000
Soldiers_Siege_red_2.TGA
  0 -5.635262 -13.459080 10.113785 -0.399865 -0.466505 0.788975 0.128546 0.150049 1 0 1.000000
  0 -4.264084 -13.521130 10.772034 -0.399865 -0.466505 0.788975 0.128687 0.149908 1 0 1.000000
  0 -8.853127 -11.140125 9.854065 -0.399865 -0.466505 0.788975 0.128405 0.149555 1 0 1.000000
Soldiers_Siege_red_2.TGA
  0 -5.635262 -13.459080 10.113785 -0.451918 -0.879826 -0.147230 0.132217 0.150473 1 0 1.000000
  0 -8.853127 -11.140125 9.854065 -0.569784 -0.807655 -0.151785 0.131935 0.150473 1 0 1.000000
  0 -5.603176 -13.425549 9.814957 -0.451491 -0.880048 -0.147209 0.131935 0.150826 1 0 1.000000
Soldiers_Siege_red_2.TGA
  0 -5.603176 -13.425549 9.814957 -0.451491 -0.880048 -0.147209 0.131935 0.150826 1 0 1.000000
  0 -1.830379 -14.790552 10.176468 -0.325000 -0.935319 -0.139832 0.132217 0.150826 1 0 1.000000
  0 -5.635262 -13.459080 10.113785 -0.451918 -0.879826 -0.147230 0.132217 0.150473 1 0 1.000000
Soldiers_Siege_red_2.TGA
  0 -5.635262 -13.459080 10.113785 0.371001 0.589876 -0.717220 0.132217 0.150261 1 0 1.000000
  0 -8.853127 -11.140125 9.854065 0.399865 0.466505 -0.788975 0.132076 0.150261 1 0 1.000000
  0 -4.264084 -13.521130 10.772034 0.191445 0.930914 -0.311044 0.131935 0.150614 1 0 1.000000
Soldiers_Siege_red_2.TGA
  0 -4.264084 -13.521130 10.772034 0.191445 0.930914 -0.311044 0.131935 0.150614 1 0 1.000000
  0 -0.495049 -14.284601 9.612473 0.137085 0.971378 -0.193992 0.132217 0.150614 1 0 1.000000
  0 -5.635262 -13.459080 10.113785 0.371001 0.589876 -0.717220 0.132217 0.150261 1 0 1.000000
Soldiers_Siege_red_2.TGA
  0 -5.603176 -13.425549 9.814957 0.166707 0.985725 0.023573 0.135041 0.150826 1 0 1.000000
  0 -5.635262 -13.459080 10.113785 0.169409 0.977220 0.127831 0.135041 0.150614 1 0 1.000000
  0 -0.495049 -14.284601 9.612473 -0.119297 -0.508368 -0.852836 0.134477 0.150967 1 0 1.000000
Soldiers_Siege_red_2.TGA
  0 -0.495049 -14.284601 9.612473 -0.119297 -0.508368 -0.852836 0.134477 0.150967 1 0 1.000000
  0 -1.830379 -14.790552 10.176468 -0.127822 -0.568528 -0.812673 0.134759 0.151179 1 0 1.000000
  0 -5.603176 -13.425549 9.814957 0.166707 0.985725 0.023573 0.135041 0.150826 1 0 1.000000
Soldiers_Siege_red_2.TGA
  0 -4.264084 -13.521130 10.772034 -0.310042 -0.820071 0.480998 0.129676 0.150967 1 0 1.000000
  0 -5.603176 -13.425549 9.814957 -0.345553 -0.849515 0.398644 0.129676 0.150967 1 0 1.000000
  0 -1.830379 -14.790552 10.176468 -0.099868 -0.611684 0.784774 0.129958 0.151462 1 0 1.000000
Soldiers_Siege_red_2.TGA
  0 -1.830379 -14.790552 10.176468 -0.099868 -0.611684 0.784774 0.129958 0.151462 1 0 1.000000
  0 0.787445 -14.122660 10.852173 0.008586 -0.727615 0.685932 0.130099 0.151250 1 0 1.000000
  0 -4.264084 -13.521130 10.772034 -0.310042 -0.820071 0.480998 0.129676 0.150967 1 0 1.000000
Soldiers_Siege_red_2.TGA
  0 -0.495049 -14.284601 9.612473 0.025967 0.987439 -0.155854 0.131935 0.134023 1 0 1.000000
  0 -4.264084 -13.521130 10.772034 0.118427 0.961465 -0.248113 0.132217 0.134023 1 0 1.000000
  0 0.787445 -14.122660 10.852173 -0.136973 0.990498 0.012312 0.132217 0.133600 1 0 1.000000
Soldiers_Siege_red_2.TGA
  0 0.787445 -14.122660 10.852173 -0.136973 0.990498 0.012312 0.132217 0.133600 1 0 1.000000
  0 5.728634 -12.844532 9.682953 -0.225291 0.968447 0.106560 0.131935 0.133600 1 0 1.000000
  0 -0.495049 -14.284601 9.612473 0.025967 0.987439 -0.155854 0.131935 0.134023 1 0 1.000000
Soldiers_Siege_red_2.TGA
  0 0.787445 -14.122660 10.852173 0.008586 -0.727615 0.685932 0.130099 0.151250 1 0 1.000000
  0 -1.830379 -14.790552 10.176468 -0.099868 -0.611684 0.784774 0.129958 0.151462 1 0 1.000000
  0 2.181633 -14.585949 10.262085 0.024683 -0.757157 0.652767 0.130382 0.151673 1 0 1.000000
Soldiers_Siege_red_2.TGA
  0 -1.830379 -14.790552 10.176468 0.160526 -0.777676 -0.607826 0.133912 0.151673 1 0 1.000000
  0 -0.495049 -14.284601 9.612473 0.217382 -0.924094 -0.314319 0.133629 0.151462 1 0 1.000000
  0 5.728634 -12.844532 9.682953 0.092539 -0.567014 -0.818494 0.133347 0.151603 1 0 1.000000
Soldiers_Siege_red_2.TGA
  0 5.728634 -12.844532 9.682953 0.092539 -0.567014 -0.818494 0.133347 0.151603 1 0 1.000000
  0 2.181633 -14.585949 10.262085 0.039380 -0.386621 -0.921397 0.133347 0.151885 1 0 1.000000
  0 -1.830379 -14.790552 10.176468 0.160526 -0.777676 -0.607826 0.133912 0.151673 1 0 1.000000
Soldiers_Siege_red_2.TGA
  0 5.728634 -12.844532 9.682953 -0.213684 0.965025 0.151875 0.131935 0.132188 1 0 1.000000
  0 0.787445 -14.122660 10.852173 -0.213684 0.965025 0.151875 0.132217 0.132188 1 0 1.000000
  0 5.824539 -12.941109 10.431519 -0.213684 0.965025 0.151875 0.132217 0.131764 1 0 1.000000
Soldiers_Siege_red_2.TGA
  0 0.787445 -14.122660 10.852173 0.148156 -0.295623 0.943746 0.131511 0.151744 1 0 1.000000
  0 2.181633 -14.585949 10.262085 0.188761 -0.504835 0.842325 0.131370 0.152026 1 0 1.000000
  0 5.824539 -12.941109 10.431519 -0.195481 0.936732 0.290380 0.131935 0.152097 1 0 1.000000
Soldiers_Siege_red_2.TGA
  0 5.824539 -12.941109 10.431519 -0.195481 0.936732 0.290380 0.131935 0.152097 1 0 1.000000
  0 5.728634 -12.844532 9.682953 -0.213684 0.965025 0.151875 0.131935 0.151814 1 0 1.000000
  0 0.787445 -14.122660 10.852173 0.148156 -0.295623 0.943746 0.131511 0.151744 1 0 1.000000
Soldiers_Siege_red_2.TGA
  0 5.824539 -12.941109 10.431519 0.412138 -0.895438 -0.168324 0.131935 0.131764 1 0 1.000000
  0 2.181633 -14.585949 10.262085 0.412138 -0.895438 -0.168324 0.132217 0.131764 1 0 1.000000
  0 5.728634 -12.844532 9.682953 0.412138 -0.895438 -0.168324 0.132217 0.131199 1 0 1.000000
Soldiers_Siege_red_2.TGA
  0 5.824539 -12.941109 10.431519 -0.412138 0.895438 0.168324 0.131794 0.151885 1 0 1.000000
  0 5.728634 -12.844532 9.682953 -0.412138 0.895438 0.168324 0.131794 0.152097 1 0 1.000000
  0 2.181633 -14.585949 10.262085 -0.412138 0.895438 0.168324 0.132217 0.152097 1 0 1.000000
Soldiers_Siege_red_2.TGA
  0 -0.816708 -1.863512 8.941315 -0.862390 -0.490536 0.125131 0.132217 0.147296 1 0 1.000000
  0 18.654213 -35.688976 8.134247 -0.865328 -0.499181 0.044996 0.132076 0.161769 1 0 1.000000
  0 18.606712 -34.831238 16.736588 -0.865641 -0.498147 0.050153 0.133629 0.161769 1 0 1.000000
Soldiers_Siege_red_2.TGA
  0 -0.816708 -1.863512 8.941315 -0.862390 -0.490536 0.125131 0.132217 0.147296 1 0 1.000000
  0 18.606712 -34.831238 16.736588 -0.865641 -0.498147 0.050153 0.133629 0.161769 1 0 1.000000
  0 -3.614189 4.070715 12.721497 -0.849992 -0.502146 0.159255 0.133629 0.144754 1 0 1.000000
Soldiers_Siege_red_2.TGA
  0 -0.816708 -1.863512 8.941315 -0.862390 -0.490536 0.125131 0.132217 0.147296 1 0 1.000000
  0 -3.614189 4.070715 12.721497 -0.849992 -0.502146 0.159255 0.133629 0.144754 1 0 1.000000
  0 -4.138699 3.384012 8.464981 -0.837716 -0.513434 0.186060 0.132217 0.144754 1 0 1.000000
Soldiers_Siege_red_2.TGA
  0 -4.138699 3.384012 8.464981 0.239614 -0.962686 0.125784 0.132076 0.131482 1 0 1.000000
  0 -3.614189 4.070715 12.721497 0.239614 -0.962686 0.125784 0.130523 0.131199 1 0 1.000000
  0 -15.498661 0.585055 8.683533 0.239614 -0.962686 0.125784 0.131511 0.133741 1 0 1.000000
Soldiers_Siege_red_2.TGA
  0 -4.138699 3.384012 8.464981 0.239918 -0.968122 0.071962 0.132217 0.131482 1 0 1.000000
  0 -15.498661 0.585055 8.683533 0.239918 -0.968122 0.071962 0.132782 0.133741 1 0 1.000000
  0 -3.601990 3.195257 4.136246 0.239918 -0.968122 0.071962 0.133629 0.131199 1 0 1.000000
Soldiers_Siege_red_2.TGA
  0 -4.138699 3.384012 8.464981 -0.831831 -0.538722 -0.133551 0.131794 0.144754 1 0 1.000000
  0 -0.816708 -1.863512 8.941315 -0.059245 -0.127381 -0.990083 0.131935 0.147014 1 0 1.000000
  0 -1.588024 -1.523026 8.943680 -0.040716 -0.117469 -0.992241 0.132076 0.146731 1 0 1.000000
Soldiers_Siege_red_2.TGA
  0 -1.588024 -1.523026 8.943680 0.059245 0.127381 0.990083 0.132217 0.147014 1 0 1.000000
  0 -0.816708 -1.863512 8.941315 0.059245 0.127381 0.990083 0.132500 0.147296 1 0 1.000000
  0 -4.138699 3.384012 8.464981 0.059245 0.127381 0.990083 0.132500 0.144754 1 0 1.000000
Soldiers_Siege_red_2.TGA
  0 -4.954159 -0.123346 8.822220 -0.212025 0.179952 0.960554 0.130805 0.145884 1 0 1.000000
  0 -6.914684 -2.951717 8.919342 -0.205319 0.198052 0.958447 0.130099 0.146166 1 0 1.000000
  0 -6.428856 -3.255844 9.083557 0.207382 -0.172575 -0.962918 0.130099 0.146308 1 0 1.000000
Soldiers_Siege_red_2.TGA
  0 -7.274181 -5.411160 9.402863 -0.259422 0.176342 0.949529 0.129535 0.146872 1 0 1.000000
  0 -6.428856 -3.255844 9.083557 0.207382 -0.172575 -0.962918 0.130099 0.146308 1 0 1.000000
  0 -6.914684 -2.951717 8.919342 -0.205319 0.198052 0.958447 0.130099 0.146166 1 0 1.000000
Soldiers_Siege_red_2.TGA
  0 -6.914684 -2.951717 8.919342 -0.205319 0.198052 0.958447 0.130099 0.146166 1 0 1.000000
  0 -7.951832 -4.953089 9.132660 -0.246052 0.195953 0.949243 0.129393 0.146731 1 0 1.000000
  0 -7.274181 -5.411160 9.402863 -0.259422 0.176342 0.949529 0.129535 0.146872 1 0 1.000000
Soldiers_Siege_red_2.TGA
  0 -7.857105 -7.310128 9.534760 -0.276516 0.150803 0.949104 0.129111 0.147437 1 0 1.000000
  0 -7.274181 -5.411160 9.402863 -0.259422 0.176342 0.949529 0.129535 0.146872 1 0 1.000000
  0 -7.951832 -4.953089 9.132660 -0.246052 0.195953 0.949243 0.129393 0.146731 1 0 1.000000
Soldiers_Siege_red_2.TGA
  0 -7.274181 -5.411160 9.402863 -0.188652 0.215918 0.958014 0.129535 0.147155 1 0 1.000000
  0 -6.428856 -3.255844 9.083557 -0.131817 0.299630 0.944905 0.130382 0.146731 1 0 1.000000
  0 -6.914684 -2.951717 8.919342 0.970101 0.216785 0.109122 0.130241 0.146590 1 0 1.000000
Soldiers_Siege_red_2.TGA
  0 -4.834385 -2.469307 8.910202 -0.029111 0.061941 0.997655 0.130946 0.146449 1 0 1.000000
  0 -6.914684 -2.951717 8.919342 0.970101 0.216785 0.109122 0.130241 0.146590 1 0 1.000000
  0 -6.428856 -3.255844 9.083557 -0.131817 0.299630 0.944905 0.130382 0.146731 1 0 1.000000
Soldiers_Siege_red_2.TGA
  0 -3.139317 -1.807213 8.977310 0.016214 0.029835 0.999423 0.131511 0.146590 1 0 1.000000
  0 -0.816708 -1.863512 8.941315 0.016214 0.029835 0.999423 0.132076 0.146872 1 0 1.000000
  0 -1.588024 -1.523026 8.943680 0.012450 0.052694 0.998533 0.132217 0.146731 1 0 1.000000
Soldiers_Siege_red_2.TGA
  0 -4.834385 -2.469307 8.910202 0.081608 -0.369446 -0.925662 0.133347 0.146590 1 0 1.000000
  0 -6.428856 -3.255844 9.083557 0.138206 -0.296644 -0.944935 0.133912 0.146731 1 0 1.000000
  0 -6.914684 -2.951717 8.919342 0.155812 -0.264915 -0.951600 0.133912 0.146590 1 0 1.000000
Soldiers_Siege_red_2.TGA
  0 -7.951832 -4.953089 9.132660 0.239644 -0.198913 -0.950266 0.134759 0.147014 1 0 1.000000
  0 -6.914684 -2.951717 8.919342 0.155812 -0.264915 -0.951600 0.133912 0.146590 1 0 1.000000
  0 -6.428856 -3.255844 9.083557 0.138206 -0.296644 -0.944935 0.133912 0.146731 1 0 1.000000
Soldiers_Siege_red_2.TGA
  0 -6.428856 -3.255844 9.083557 0.138206 -0.296644 -0.944935 0.133912 0.146731 1 0 1.000000
  0 -7.274181 -5.411160 9.402863 0.254943 -0.182947 -0.949492 0.134759 0.147155 1 0 1.000000
  0 -7.951832 -4.953089 9.132660 0.239644 -0.198913 -0.950266 0.134759 0.147014 1 0 1.000000
Soldiers_Siege_red_2.TGA
  0 -7.857105 -7.310128 9.534760 0.276516 -0.150803 -0.949104 0.135041 0.147437 1 0 1.000000
  0 -7.951832 -4.953089 9.132660 0.239644 -0.198913 -0.950266 0.134759 0.147014 1 0 1.000000
  0 -7.274181 -5.411160 9.402863 0.254943 -0.182947 -0.949492 0.134759 0.147155 1 0 1.000000
Soldiers_Siege_red_2.TGA
  0 -7.857105 -7.310128 9.534760 -0.276516 0.150803 0.949104 0.135324 0.147437 1 0 1.000000
  0 -7.274181 -5.411160 9.402863 -0.254330 0.179262 0.950359 0.134759 0.146731 1 0 1.000000
  0 -7.951832 -4.953089 9.132660 -0.246052 0.195953 0.949243 0.134759 0.146872 1 0 1.000000
Soldiers_Siege_red_2.TGA
  0 -6.914684 -2.951717 8.919342 -0.198226 0.216893 0.955858 0.134194 0.146308 1 0 1.000000
  0 -7.951832 -4.953089 9.132660 -0.246052 0.195953 0.949243 0.134759 0.146872 1 0 1.000000
  0 -7.274181 -5.411160 9.402863 -0.254330 0.179262 0.950359 0.134759 0.146731 1 0 1.000000
Soldiers_Siege_red_2.TGA
  0 -7.274181 -5.411160 9.402863 -0.254330 0.179262 0.950359 0.134759 0.146731 1 0 1.000000
  0 -6.428856 -3.255844 9.083557 -0.188652 0.215918 0.958014 0.134194 0.146166 1 0 1.000000
  0 -6.914684 -2.951717 8.919342 -0.198226 0.216893 0.955858 0.134194 0.146308 1 0 1.000000
Soldiers_Siege_red_2.TGA
  0 -4.954159 -0.123346 8.822220 0.003558 -0.033618 -0.999428 0.132782 0.145884 1 0 1.000000
  0 -6.914684 -2.951717 8.919342 -0.382726 0.295351 0.875380 0.133347 0.146166 1 0 1.000000
  0 -6.428856 -3.255844 9.083557 -0.212025 0.179952 0.960554 0.133347 0.145884 1 0 1.000000
Soldiers_Siege_red_2.TGA
  0 -4.138699 3.384012 8.464981 0.005688 0.100019 0.994969 0.131794 0.145319 1 0 1.000000
  0 -4.954159 -0.123346 8.822220 -0.010349 0.082005 0.996578 0.131370 0.145884 1 0 1.000000
  0 -1.588024 -1.523026 8.943680 0.012450 0.052694 0.998533 0.132217 0.146731 1 0 1.000000
Soldiers_Siege_red_2.TGA
  0 -4.834385 -2.469307 8.910202 -0.029111 0.061941 0.997655 0.130946 0.146449 1 0 1.000000
  0 -3.139317 -1.807213 8.977310 -0.015202 0.075458 0.997033 0.131653 0.146449 1 0 1.000000
  0 -4.954159 -0.123346 8.822220 -0.010349 0.082005 0.996578 0.131370 0.145884 1 0 1.000000
Soldiers_Siege_red_2.TGA
  0 -3.139317 -1.807213 8.977310 -0.015202 0.075458 0.997033 0.131653 0.146449 1 0 1.000000
  0 -1.588024 -1.523026 8.943680 0.012450 0.052694 0.998533 0.132217 0.146731 1 0 1.000000
  0 -4.954159 -0.123346 8.822220 -0.010349 0.082005 0.996578 0.131370 0.145884 1 0 1.000000
Soldiers_Siege_red_2.TGA
  0 -6.914684 -2.951717 8.919342 0.970101 0.216785 0.109122 0.130241 0.146590 1 0 1.000000
  0 -6.428856 -3.255844 9.083557 0.207382 -0.172575 -0.962918 0.130099 0.146308 1 0 1.000000
  0 -7.274181 -5.411160 9.402863 -0.259422 0.176342 0.949529 0.129535 0.146872 1 0 1.000000
Soldiers_Siege_red_2.TGA
  0 -4.954159 -0.123346 8.822220 0.068652 -0.013332 0.997552 0.130805 0.146166 1 0 1.000000
  0 -6.428856 -3.255844 9.083557 0.207382 -0.172575 -0.962918 0.130099 0.146308 1 0 1.000000
  0 -6.914684 -2.951717 8.919342 0.970101 0.216785 0.109122 0.130241 0.146590 1 0 1.000000
Soldiers_Siege_red_2.TGA
  0 -6.914684 -2.951717 8.919342 0.970101 0.216785 0.109122 0.130241 0.146590 1 0 1.000000
  0 -4.834385 -2.469307 8.910202 -0.029111 0.061941 0.997655 0.130946 0.146449 1 0 1.000000
  0 -4.954159 -0.123346 8.822220 0.068652 -0.013332 0.997552 0.130805 0.146166 1 0 1.000000
Soldiers_Siege_red_2.TGA
  0 -1.588024 -1.523026 8.943680 -0.040716 -0.117469 -0.992241 0.132076 0.146731 1 0 1.000000
  0 -3.139317 -1.807213 8.977310 0.015202 -0.075458 -0.997033 0.132500 0.146449 1 0 1.000000
  0 -4.954159 -0.123346 8.822220 0.003558 -0.033618 -0.999428 0.132782 0.145884 1 0 1.000000
Soldiers_Siege_red_2.TGA
  0 -4.834385 -2.469307 8.910202 0.024633 -0.036213 -0.999040 0.133347 0.146449 1 0 1.000000
  0 -6.914684 -2.951717 8.919342 -0.382726 0.295351 0.875380 0.133347 0.146166 1 0 1.000000
  0 -4.954159 -0.123346 8.822220 0.003558 -0.033618 -0.999428 0.132782 0.145884 1 0 1.000000
Soldiers_Siege_red_2.TGA
  0 -4.954159 -0.123346 8.822220 0.003558 -0.033618 -0.999428 0.132782 0.145884 1 0 1.000000
  0 -3.139317 -1.807213 8.977310 0.015202 -0.075458 -0.997033 0.132500 0.146449 1 0 1.000000
  0 -4.834385 -2.469307 8.910202 0.024633 -0.036213 -0.999040 0.133347 0.146449 1 0 1.000000
Soldiers_Siege_red_2.TGA
  0 -1.588024 -1.523026 8.943680 -0.040716 -0.117469 -0.992241 0.132076 0.146731 1 0 1.000000
  0 -4.954159 -0.123346 8.822220 -0.005688 -0.100019 -0.994969 0.132500 0.145319 1 0 1.000000
  0 -4.138699 3.384012 8.464981 -0.005688 -0.100019 -0.994969 0.132217 0.144896 1 0 1.000000
Soldiers_Siege_red_2.TGA
  0 97.631729 -99.016571 17.098618 0.742325 0.655787 -0.137466 0.223788 0.723922 1 0 1.000000
  0 120.477676 -140.980560 27.072296 0.962205 0.112161 0.248156 0.327042 0.977856 1 0 1.000000
  0 120.605377 -124.588066 19.168076 0.847101 0.516567 -0.124812 0.041511 0.975085 1 0 1.000000
Soldiers_Siege_red_2.TGA
  0 85.060959 -139.244080 7.452942 0.229527 0.020664 -0.973083 0.692236 0.990709 1 0 1.000000
  0 -44.752892 119.231750 -10.611877 0.607562 0.632123 -0.480926 0.552696 0.641869 1 0 1.000000
  0 93.726883 -133.001068 16.167282 0.812353 0.398927 -0.425370 0.558314 0.991147 1 0 1.000000
Soldiers_Siege_red_2.TGA
  0 -44.752892 119.231750 -10.611877 0.607562 0.632123 -0.480926 0.552696 0.641869 1 0 1.000000
  0 -44.274204 120.465942 5.352341 0.619818 0.710456 0.333281 0.564236 0.642318 1 0 1.000000
  0 93.726883 -133.001068 16.167282 0.812353 0.398927 -0.425370 0.558314 0.991147 1 0 1.000000
Soldiers_Siege_red_2.TGA
  0 93.726883 -133.001068 16.167282 0.812353 0.398927 -0.425370 0.558314 0.991147 1 0 1.000000
  0 -44.274204 120.465942 5.352341 0.619818 0.710456 0.333281 0.564236 0.642318 1 0 1.000000
  0 93.523773 -132.423859 30.208618 0.772833 0.461566 0.435528 0.580826 0.991474 1 0 1.000000
Soldiers_Siege_red_2.TGA
  0 -44.274204 120.465942 5.352341 0.619818 0.710456 0.333281 0.564236 0.642318 1 0 1.000000
  0 -53.882221 114.709000 16.148392 0.061842 0.432040 0.899732 0.720185 0.642664 1 0 1.000000
  0 93.523773 -132.423859 30.208618 0.772833 0.461566 0.435528 0.580826 0.991474 1 0 1.000000
Soldiers_Siege_red_2.TGA
  0 93.523773 -132.423859 30.208618 0.772833 0.461566 0.435528 0.580826 0.991474 1 0 1.000000
  0 -53.882221 114.709000 16.148392 0.061842 0.432040 0.899732 0.720185 0.642664 1 0 1.000000
  0 84.513260 -137.791779 39.007751 0.143097 0.164974 0.975862 0.742937 0.991317 1 0 1.000000
Soldiers_Siege_red_2.TGA
  0 -53.882221 114.709000 16.148392 0.061842 0.432040 0.899732 0.720185 0.642664 1 0 1.000000
  0 -66.402451 106.243721 13.460037 -0.651295 -0.010735 0.758750 0.903810 0.642640 1 0 1.000000
  0 84.513260 -137.791779 39.007751 0.143097 0.164974 0.975862 0.742937 0.991317 1 0 1.000000
Soldiers_Siege_red_2.TGA
  0 84.513260 -137.791779 39.007751 0.143097 0.164974 0.975862 0.742937 0.991317 1 0 1.000000
  0 -66.402451 106.243721 13.460037 -0.651295 -0.010735 0.758750 0.903810 0.642640 1 0 1.000000
  0 73.570938 -145.216553 35.933075 -0.587423 -0.260340 0.766263 0.922459 0.990921 1 0 1.000000
Soldiers_Siege_red_2.TGA
  0 -66.402451 106.243721 13.460037 -0.651295 -0.010735 0.758750 0.903810 0.642640 1 0 1.000000
  0 -72.346146 101.495682 -0.501236 -0.963324 -0.264499 0.045234 0.976141 0.642271 1 0 1.000000
  0 73.570938 -145.216553 35.933075 -0.587423 -0.260340 0.766263 0.922459 0.990921 1 0 1.000000
Soldiers_Siege_red_2.TGA
  0 73.570938 -145.216553 35.933075 -0.587423 -0.260340 0.766263 0.922459 0.990921 1 0 1.000000
  0 -72.346146 101.495682 -0.501236 -0.963324 -0.264499 0.045234 0.976141 0.642271 1 0 1.000000
  0 68.898102 -149.040131 23.303528 -0.870785 -0.491399 0.016138 0.984254 0.990527 1 0 1.000000
Soldiers_Siege_red_2.TGA
  0 -72.346146 101.495682 -0.501236 -0.963324 -0.264499 0.045234 0.976141 0.642271 1 0 1.000000
  0 -67.264832 104.018242 -15.306458 -0.675266 -0.153785 -0.721363 0.883020 0.641830 1 0 1.000000
  0 68.898102 -149.040131 23.303528 -0.870785 -0.491399 0.016138 0.984254 0.990527 1 0 1.000000
Soldiers_Siege_red_2.TGA
  0 68.898102 -149.040131 23.303528 -0.870785 -0.491399 0.016138 0.984254 0.990527 1 0 1.000000
  0 -67.264832 104.018242 -15.306458 -0.675266 -0.153785 -0.721363 0.883020 0.641830 1 0 1.000000
  0 74.011124 -146.382477 10.628418 -0.534233 -0.381484 -0.754363 0.881796 0.990433 1 0 1.000000
Soldiers_Siege_red_2.TGA
  0 -67.264832 104.018242 -15.306458 -0.675266 -0.153785 -0.721363 0.883020 0.641830 1 0 1.000000
  0 -54.984074 111.911263 -19.805679 0.034955 0.253343 -0.966745 0.694569 0.641651 1 0 1.000000
  0 74.011124 -146.382477 10.628418 -0.534233 -0.381484 -0.754363 0.881796 0.990433 1 0 1.000000
Soldiers_Siege_red_2.TGA
  0 74.011124 -146.382477 10.628418 -0.534233 -0.381484 -0.754363 0.881796 0.990433 1 0 1.000000
  0 -54.984074 111.911263 -19.805679 0.034955 0.253343 -0.966745 0.694569 0.641651 1 0 1.000000
  0 85.060959 -139.244080 7.452942 0.229527 0.020664 -0.973083 0.692236 0.990709 1 0 1.000000
Soldiers_Siege_red_2.TGA
  0 -54.984074 111.911263 -19.805679 0.034955 0.253343 -0.966745 0.694569 0.641651 1 0 1.000000
  0 -44.752892 119.231750 -10.611877 0.607562 0.632123 -0.480926 0.552696 0.641869 1 0 1.000000
  0 85.060959 -139.244080 7.452942 0.229527 0.020664 -0.973083 0.692236 0.990709 1 0 1.000000
Soldiers_Siege_red_2.TGA
  0 -29.916328 72.409149 25.455704 0.516235 -0.853440 0.071699 0.011502 0.306601 1 0 1.000000
  0 -48.722652 60.504112 21.168228 0.516944 -0.850754 0.094796 0.011778 0.307795 1 0 1.000000
  0 -56.185863 53.857758 2.218658 0.541776 -0.838588 0.057010 0.304230 0.307652 1 0 1.000000
Soldiers_Siege_red_2.TGA
  0 -29.916328 72.409149 25.455704 0.516235 -0.853440 0.071699 0.011502 0.306601 1 0 1.000000
  0 -56.185863 53.857758 2.218658 0.541776 -0.838588 0.057010 0.304230 0.307652 1 0 1.000000
  0 -47.311871 58.641209 -16.464447 0.529932 -0.846417 0.052434 0.160761 0.312064 1 0 1.000000
Soldiers_Siege_red_2.TGA
  0 -29.916328 72.409149 25.455704 0.516235 -0.853440 0.071699 0.011502 0.306601 1 0 1.000000
  0 -47.311871 58.641209 -16.464447 0.529932 -0.846417 0.052434 0.160761 0.312064 1 0 1.000000
  0 -14.006947 80.680794 12.657974 0.516339 -0.854293 0.059822 0.279591 0.306478 1 0 1.000000
Soldiers_Siege_red_2.TGA
  0 -47.311871 58.641209 -16.464447 0.529932 -0.846417 0.052434 0.160761 0.312064 1 0 1.000000
  0 -28.157459 70.086426 -21.472321 0.525177 -0.849748 0.046030 0.160355 0.311449 1 0 1.000000
  0 -14.006947 80.680794 12.657974 0.516339 -0.854293 0.059822 0.279591 0.306478 1 0 1.000000
Soldiers_Siege_red_2.TGA
  0 -28.157459 70.086426 -21.472321 0.525177 -0.849748 0.046030 0.160355 0.311449 1 0 1.000000
  0 -13.424000 80.093590 -8.739792 0.538920 -0.841510 0.037775 0.305837 0.309051 1 0 1.000000
  0 -14.006947 80.680794 12.657974 0.516339 -0.854293 0.059822 0.279591 0.306478 1 0 1.000000
Soldiers_Siege_red_2.TGA
  0 -72.038994 133.859131 -3.583008 -0.537946 0.840377 -0.066186 0.771578 0.641736 1 0 1.000000
  0 -54.984074 111.911263 -19.805679 0.034955 0.253343 -0.966745 0.694569 0.641651 1 0 1.000000
  0 -67.264832 104.018242 -15.306458 -0.675266 -0.153785 -0.721363 0.883020 0.641830 1 0 1.000000
Soldiers_Siege_red_2.TGA
  0 -72.038994 133.859131 -3.583008 -0.537946 0.840377 -0.066186 0.771578 0.641736 1 0 1.000000
  0 -67.264832 104.018242 -15.306458 -0.675266 -0.153785 -0.721363 0.883020 0.641830 1 0 1.000000
  0 -72.346146 101.495682 -0.501236 -0.963324 -0.264499 0.045234 0.976141 0.642271 1 0 1.000000
Soldiers_Siege_red_2.TGA
  0 -72.038994 133.859131 -3.583008 -0.537946 0.840377 -0.066186 0.771578 0.641736 1 0 1.000000
  0 -72.346146 101.495682 -0.501236 -0.963324 -0.264499 0.045234 0.976141 0.642271 1 0 1.000000
  0 -66.402451 106.243721 13.460037 -0.651295 -0.010735 0.758750 0.903810 0.642640 1 0 1.000000
Soldiers_Siege_red_2.TGA
  0 -72.038994 133.859131 -3.583008 -0.537946 0.840377 -0.066186 0.771578 0.641736 1 0 1.000000
  0 -44.752892 119.231750 -10.611877 0.607562 0.632123 -0.480926 0.552696 0.641869 1 0 1.000000
  0 -54.984074 111.911263 -19.805679 0.034955 0.253343 -0.966745 0.694569 0.641651 1 0 1.000000
Soldiers_Siege_red_2.TGA
  0 -72.038994 133.859131 -3.583008 -0.537946 0.840377 -0.066186 0.771578 0.641736 1 0 1.000000
  0 -44.274204 120.465942 5.352341 0.619818 0.710456 0.333281 0.564236 0.642318 1 0 1.000000
  0 -44.752892 119.231750 -10.611877 0.607562 0.632123 -0.480926 0.552696 0.641869 1 0 1.000000
Soldiers_Siege_red_2.TGA
  0 -72.038994 133.859131 -3.583008 -0.537946 0.840377 -0.066186 0.771578 0.641736 1 0 1.000000
  0 -53.882221 114.709000 16.148392 0.061842 0.432040 0.899732 0.720185 0.642664 1 0 1.000000
  0 -44.274204 120.465942 5.352341 0.619818 0.710456 0.333281 0.564236 0.642318 1 0 1.000000
Soldiers_Siege_red_2.TGA
  0 -72.038994 133.859131 -3.583008 -0.537946 0.840377 -0.066186 0.771578 0.641736 1 0 1.000000
  0 -66.402451 106.243721 13.460037 -0.651295 -0.010735 0.758750 0.903810 0.642640 1 0 1.000000
  0 -53.882221 114.709000 16.148392 0.061842 0.432040 0.899732 0.720185 0.642664 1 0 1.000000
Soldiers_Siege_red_2.TGA
  0 119.778671 -142.499420 16.050903 0.921959 0.024710 -0.386500 0.327042 0.977856 1 0 1.000000
  0 97.631729 -99.016571 17.098618 0.742325 0.655787 -0.137466 0.223788 0.723922 1 0 1.000000
  0 120.605377 -124.588066 19.168076 0.847101 0.516567 -0.124812 0.041511 0.975085 1 0 1.000000
Soldiers_Siege_red_2.TGA
  0 120.477676 -140.980560 27.072296 0.962205 0.112161 0.248156 0.327042 0.977856 1 0 1.000000
  0 119.778671 -142.499420 16.050903 0.921959 0.024710 -0.386500 0.327042 0.977856 1 0 1.000000
  0 120.605377 -124.588066 19.168076 0.847101 0.516567 -0.124812 0.041511 0.975085 1 0 1.000000
Soldiers_Siege_red_2.TGA
  0 -28.017260 68.883995 -24.079651 0.231441 0.020810 -0.972627 0.587305 0.010126 1 0 1.000000
  0 -40.458649 127.701431 -15.480591 0.595613 0.645587 -0.477978 0.657445 0.200249 1 0 1.000000
  0 -13.293884 79.105446 -9.822906 0.810442 0.390440 -0.436739 0.654767 0.008694 1 0 1.000000
Soldiers_Siege_red_2.TGA
  0 -40.458649 127.701431 -15.480591 0.595613 0.645587 -0.477978 0.657445 0.200249 1 0 1.000000
  0 -39.739876 129.556274 8.501114 0.612680 0.716272 0.334030 0.651167 0.197526 1 0 1.000000
  0 -13.293884 79.105446 -9.822906 0.810442 0.390440 -0.436739 0.654767 0.008694 1 0 1.000000
Soldiers_Siege_red_2.TGA
  0 -13.293884 79.105446 -9.822906 0.810442 0.390440 -0.436739 0.654767 0.008694 1 0 1.000000
  0 -39.739876 129.556274 8.501114 0.612680 0.716272 0.334030 0.651167 0.197526 1 0 1.000000
  0 -14.006947 80.680794 12.657974 0.792596 0.439606 0.422537 0.642618 0.006692 1 0 1.000000
Soldiers_Siege_red_2.TGA
  0 -39.739876 129.556274 8.501114 0.612680 0.716272 0.334030 0.651167 0.197526 1 0 1.000000
  0 -54.172916 120.907349 24.718979 0.071209 0.425660 0.902077 0.518984 0.194371 1 0 1.000000
  0 -14.006947 80.680794 12.657974 0.792596 0.439606 0.422537 0.642618 0.006692 1 0 1.000000
Soldiers_Siege_red_2.TGA
  0 -14.006947 80.680794 12.657974 0.792596 0.439606 0.422537 0.642618 0.006692 1 0 1.000000
  0 -54.172916 120.907349 24.718979 0.071209 0.425660 0.902077 0.518984 0.194371 1 0 1.000000
  0 -29.377438 71.757210 27.615265 0.170874 0.134547 0.976063 0.519668 0.006329 1 0 1.000000
Soldiers_Siege_red_2.TGA
  0 -54.172916 120.907349 24.718979 0.071209 0.425660 0.902077 0.518984 0.194371 1 0 1.000000
  0 -72.981842 108.190453 20.681656 -0.639668 -0.021257 0.768358 0.585715 0.198881 1 0 1.000000
  0 -29.377438 71.757210 27.615265 0.170874 0.134547 0.976063 0.519668 0.006329 1 0 1.000000
Soldiers_Siege_red_2.TGA
  0 -29.377438 71.757210 27.615265 0.170874 0.134547 0.976063 0.519668 0.006329 1 0 1.000000
  0 -72.981842 108.190453 20.681656 -0.639668 -0.021257 0.768358 0.585715 0.198881 1 0 1.000000
  0 -48.073174 59.720711 22.604614 -0.572686 -0.271655 0.773457 0.521585 0.007571 1 0 1.000000
Soldiers_Siege_red_2.TGA
  0 -72.981842 108.190453 20.681656 -0.639668 -0.021257 0.768358 0.585715 0.198881 1 0 1.000000
  0 -81.910980 101.057991 -0.292145 -0.960944 -0.272390 0.048887 0.657800 0.200529 1 0 1.000000
  0 -48.073174 59.720711 22.604614 -0.572686 -0.271655 0.773457 0.521585 0.007571 1 0 1.000000
Soldiers_Siege_red_2.TGA
  0 -48.073174 59.720711 22.604614 -0.572686 -0.271655 0.773457 0.521585 0.007571 1 0 1.000000
  0 -81.910980 101.057991 -0.292145 -0.960944 -0.272390 0.048887 0.657800 0.200529 1 0 1.000000
  0 -56.185863 53.857758 2.218658 -0.872392 -0.488579 0.014903 0.654317 0.007264 1 0 1.000000
Soldiers_Siege_red_2.TGA
  0 -81.910980 101.057991 -0.292145 -0.960944 -0.272390 0.048887 0.657800 0.200529 1 0 1.000000
  0 -74.277237 104.846832 -22.533615 -0.672608 -0.152108 -0.724197 0.518897 0.194292 1 0 1.000000
  0 -56.185863 53.857758 2.218658 -0.872392 -0.488579 0.014903 0.654317 0.007264 1 0 1.000000
Soldiers_Siege_red_2.TGA
  0 -56.185863 53.857758 2.218658 -0.872392 -0.488579 0.014903 0.654317 0.007264 1 0 1.000000
  0 -74.277237 104.846832 -22.533615 -0.672608 -0.152108 -0.724197 0.518897 0.194292 1 0 1.000000
  0 -46.981564 57.416679 -18.852173 -0.525122 -0.374405 -0.764242 0.588223 0.010363 1 0 1.000000
Soldiers_Siege_red_2.TGA
  0 -74.277237 104.846832 -22.533615 -0.672608 -0.152108 -0.724197 0.518897 0.194292 1 0 1.000000
  0 -55.829422 116.705078 -29.292557 0.033496 0.264214 -0.963882 0.585524 0.200499 1 0 1.000000
  0 -46.981564 57.416679 -18.852173 -0.525122 -0.374405 -0.764242 0.588223 0.010363 1 0 1.000000
Soldiers_Siege_red_2.TGA
  0 -46.981564 57.416679 -18.852173 -0.525122 -0.374405 -0.764242 0.588223 0.010363 1 0 1.000000
  0 -55.829422 116.705078 -29.292557 0.033496 0.264214 -0.963882 0.585524 0.200499 1 0 1.000000
  0 -28.017260 68.883995 -24.079651 0.231441 0.020810 -0.972627 0.587305 0.010126 1 0 1.000000
Soldiers_Siege_red_2.TGA
  0 -55.829422 116.705078 -29.292557 0.033496 0.264214 -0.963882 0.585524 0.200499 1 0 1.000000
  0 -40.458649 127.701431 -15.480591 0.595613 0.645587 -0.477978 0.657445 0.200249 1 0 1.000000
  0 -28.017260 68.883995 -24.079651 0.231441 0.020810 -0.972627 0.587305 0.010126 1 0 1.000000
Soldiers_Siege_red_2.TGA
  0 -83.354446 148.657959 -4.660706 -0.570316 0.819136 -0.061295 0.518936 0.283877 1 0 1.000000
  0 -55.829422 116.705078 -29.292557 0.033496 0.264214 -0.963882 0.585524 0.200499 1 0 1.000000
  0 -74.277237 104.846832 -22.533615 -0.672608 -0.152108 -0.724197 0.518897 0.194292 1 0 1.000000
Soldiers_Siege_red_2.TGA
  0 -83.354446 148.657959 -4.660706 -0.570316 0.819136 -0.061295 0.518936 0.283877 1 0 1.000000
  0 -74.277237 104.846832 -22.533615 -0.672608 -0.152108 -0.724197 0.518897 0.194292 1 0 1.000000
  0 -81.910980 101.057991 -0.292145 -0.960944 -0.272390 0.048887 0.657800 0.200529 1 0 1.000000
Soldiers_Siege_red_2.TGA
  0 -83.354446 148.657959 -4.660706 -0.570316 0.819136 -0.061295 0.518936 0.283877 1 0 1.000000
  0 -81.910980 101.057991 -0.292145 -0.960944 -0.272390 0.048887 0.657800 0.200529 1 0 1.000000
  0 -72.981842 108.190453 20.681656 -0.639668 -0.021257 0.768358 0.585715 0.198881 1 0 1.000000
Soldiers_Siege_red_2.TGA
  0 -83.354446 148.657959 -4.660706 -0.570316 0.819136 -0.061295 0.518936 0.283877 1 0 1.000000
  0 -40.458649 127.701431 -15.480591 0.595613 0.645587 -0.477978 0.657445 0.200249 1 0 1.000000
  0 -55.829422 116.705078 -29.292557 0.033496 0.264214 -0.963882 0.585524 0.200499 1 0 1.000000
Soldiers_Siege_red_2.TGA
  0 -83.354446 148.657959 -4.660706 -0.570316 0.819136 -0.061295 0.518936 0.283877 1 0 1.000000
  0 -39.739876 129.556274 8.501114 0.612680 0.716272 0.334030 0.651167 0.197526 1 0 1.000000
  0 -40.458649 127.701431 -15.480591 0.595613 0.645587 -0.477978 0.657445 0.200249 1 0 1.000000
Soldiers_Siege_red_2.TGA
  0 -83.354446 148.657959 -4.660706 -0.570316 0.819136 -0.061295 0.518936 0.283877 1 0 1.000000
  0 -54.172916 120.907349 24.718979 0.071209 0.425660 0.902077 0.518984 0.194371 1 0 1.000000
  0 -39.739876 129.556274 8.501114 0.612680 0.716272 0.334030 0.651167 0.197526 1 0 1.000000
Soldiers_Siege_red_2.TGA
  0 -83.354446 148.657959 -4.660706 -0.570316 0.819136 -0.061295 0.518936 0.283877 1 0 1.000000
  0 -72.981842 108.190453 20.681656 -0.639668 -0.021257 0.768358 0.585715 0.198881 1 0 1.000000
  0 -54.172916 120.907349 24.718979 0.071209 0.425660 0.902077 0.518984 0.194371 1 0 1.000000
Soldiers_Siege_red_2.TGA
  0 84.513260 -137.791779 39.007751 0.548911 -0.834416 0.049469 0.769246 0.539041 1 0 1.000000
  0 73.570938 -145.216553 35.933075 0.551556 -0.832753 0.048044 0.777701 0.515444 1 0 1.000000
  0 68.898102 -149.040131 23.303528 0.551623 -0.832714 0.047949 0.801445 0.507323 1 0 1.000000
Soldiers_Siege_red_2.TGA
  0 84.513260 -137.791779 39.007751 0.548911 -0.834416 0.049469 0.769246 0.539041 1 0 1.000000
  0 68.898102 -149.040131 23.303528 0.551623 -0.832714 0.047949 0.801445 0.507323 1 0 1.000000
  0 74.011124 -146.382477 10.628418 0.550529 -0.833485 0.047124 0.822598 0.520792 1 0 1.000000
Soldiers_Siege_red_2.TGA
  0 84.513260 -137.791779 39.007751 0.548911 -0.834416 0.049469 0.769246 0.539041 1 0 1.000000
  0 74.011124 -146.382477 10.628418 0.550529 -0.833485 0.047124 0.822598 0.520792 1 0 1.000000
  0 93.523773 -132.423859 30.208618 0.549536 -0.834104 0.047771 0.782463 0.560349 1 0 1.000000
Soldiers_Siege_red_2.TGA
  0 74.011124 -146.382477 10.628418 0.550529 -0.833485 0.047124 0.822598 0.520792 1 0 1.000000
  0 85.060959 -139.244080 7.452942 0.552053 -0.832634 0.044245 0.825232 0.545708 1 0 1.000000
  0 93.523773 -132.423859 30.208618 0.549536 -0.834104 0.047771 0.782463 0.560349 1 0 1.000000
Soldiers_Siege_red_2.TGA
  0 85.060959 -139.244080 7.452942 0.552053 -0.832634 0.044245 0.825232 0.545708 1 0 1.000000
  0 93.726883 -133.001068 16.167282 0.555741 -0.830286 0.042170 0.807363 0.563310 1 0 1.000000
  0 93.523773 -132.423859 30.208618 0.549536 -0.834104 0.047771 0.782463 0.560349 1 0 1.000000
Soldiers_Siege_red_2.TGA
  0 101.743912 -163.692596 -11.933762 0.217437 0.021693 -0.975834 0.979384 0.327676 1 0 1.000000
  0 87.490768 -79.606590 1.115143 0.786510 0.383460 -0.484109 0.631307 0.608302 1 0 1.000000
  0 125.523682 -148.398529 9.588745 0.800083 0.384453 -0.460505 0.981416 0.607160 1 0 1.000000
Soldiers_Siege_red_2.TGA
  0 87.490768 -79.606590 1.115143 0.786510 0.383460 -0.484109 0.631307 0.608302 1 0 1.000000
  0 87.896713 -76.119652 34.604965 0.794727 0.482254 0.368564 0.632029 0.611633 1 0 1.000000
  0 125.523682 -148.398529 9.588745 0.800083 0.384453 -0.460505 0.981416 0.607160 1 0 1.000000
Soldiers_Siege_red_2.TGA
  0 125.523682 -148.398529 9.588745 0.800083 0.384453 -0.460505 0.981416 0.607160 1 0 1.000000
  0 87.896713 -76.119652 34.604965 0.794727 0.482254 0.368564 0.632029 0.611633 1 0 1.000000
  0 125.777908 -145.057190 42.906631 0.788859 0.476637 0.387966 0.982692 0.606358 1 0 1.000000
Soldiers_Siege_red_2.TGA
  0 87.896713 -76.119652 34.604965 0.794727 0.482254 0.368564 0.632029 0.611633 1 0 1.000000
  0 65.308159 -86.633774 57.240280 0.201949 0.217557 0.954927 0.631234 0.308007 1 0 1.000000
  0 125.777908 -145.057190 42.906631 0.788859 0.476637 0.387966 0.982692 0.606358 1 0 1.000000
Soldiers_Siege_red_2.TGA
  0 125.777908 -145.057190 42.906631 0.788859 0.476637 0.387966 0.982692 0.606358 1 0 1.000000
  0 65.308159 -86.633774 57.240280 0.201949 0.217557 0.954927 0.631234 0.308007 1 0 1.000000
  0 103.259293 -155.441162 64.638382 0.179714 0.190832 0.965031 0.980605 0.308703 1 0 1.000000
Soldiers_Siege_red_2.TGA
  0 65.308159 -86.633774 57.240280 0.201949 0.217557 0.954927 0.631234 0.308007 1 0 1.000000
  0 36.601845 -103.341492 51.587219 -0.540082 -0.223748 0.811326 0.632647 0.609743 1 0 1.000000
  0 103.259293 -155.441162 64.638382 0.179714 0.190832 0.965031 0.980605 0.308703 1 0 1.000000
Soldiers_Siege_red_2.TGA
  0 103.259293 -155.441162 64.638382 0.179714 0.190832 0.965031 0.980605 0.308703 1 0 1.000000
  0 36.601845 -103.341492 51.587219 -0.540082 -0.223748 0.811326 0.632647 0.609743 1 0 1.000000
  0 74.788528 -172.203949 57.000336 -0.555058 -0.245283 0.794826 0.982162 0.607557 1 0 1.000000
Soldiers_Siege_red_2.TGA
  0 36.601845 -103.341492 51.587219 -0.540082 -0.223748 0.811326 0.632647 0.609743 1 0 1.000000
  0 23.525711 -113.551483 22.292221 -0.878792 -0.472157 0.069224 0.630283 0.308132 1 0 1.000000
  0 74.788528 -172.203949 57.000336 -0.555058 -0.245283 0.794826 0.982162 0.607557 1 0 1.000000
Soldiers_Siege_red_2.TGA
  0 74.788528 -172.203949 57.000336 -0.555058 -0.245283 0.794826 0.982162 0.607557 1 0 1.000000
  0 23.525711 -113.551483 22.292221 -0.878792 -0.472157 0.069224 0.630283 0.308132 1 0 1.000000
  0 61.086136 -182.872192 26.340607 -0.878917 -0.474480 0.048725 0.979054 0.306864 1 0 1.000000
Soldiers_Siege_red_2.TGA
  0 23.525711 -113.551483 22.292221 -0.878792 -0.472157 0.069224 0.630283 0.308132 1 0 1.000000
  0 35.868088 -109.623116 -8.760223 -0.570414 -0.355290 -0.740538 0.631345 0.605940 1 0 1.000000
  0 61.086136 -182.872192 26.340607 -0.878917 -0.474480 0.048725 0.979054 0.306864 1 0 1.000000
Soldiers_Siege_red_2.TGA
  0 61.086136 -182.872192 26.340607 -0.878917 -0.474480 0.048725 0.979054 0.306864 1 0 1.000000
  0 35.868088 -109.623116 -8.760223 -0.570414 -0.355290 -0.740538 0.631345 0.605940 1 0 1.000000
  0 73.463333 -178.879181 -4.391068 -0.547563 -0.355937 -0.757286 0.980526 0.610621 1 0 1.000000
Soldiers_Siege_red_2.TGA
  0 35.868088 -109.623116 -8.760223 -0.570414 -0.355290 -0.740538 0.631345 0.605940 1 0 1.000000
  0 64.335266 -94.517464 -18.184052 0.187548 0.023209 -0.981981 0.629609 0.329291 1 0 1.000000
  0 73.463333 -178.879181 -4.391068 -0.547563 -0.355937 -0.757286 0.980526 0.610621 1 0 1.000000
Soldiers_Siege_red_2.TGA
  0 73.463333 -178.879181 -4.391068 -0.547563 -0.355937 -0.757286 0.980526 0.610621 1 0 1.000000
  0 64.335266 -94.517464 -18.184052 0.187548 0.023209 -0.981981 0.629609 0.329291 1 0 1.000000
  0 101.743912 -163.692596 -11.933762 0.217437 0.021693 -0.975834 0.979384 0.327676 1 0 1.000000
Soldiers_Siege_red_2.TGA
  0 64.335266 -94.517464 -18.184052 0.187548 0.023209 -0.981981 0.629609 0.329291 1 0 1.000000
  0 87.490768 -79.606590 1.115143 0.786510 0.383460 -0.484109 0.631307 0.608302 1 0 1.000000
  0 101.743912 -163.692596 -11.933762 0.217437 0.021693 -0.975834 0.979384 0.327676 1 0 1.000000
Soldiers_Siege_red_2.TGA
  0 104.088211 -155.475494 62.717300 0.490419 -0.867547 0.082773 0.769246 0.539041 1 0 1.000000
  0 76.781219 -171.544739 55.459488 0.488798 -0.868383 0.083588 0.777701 0.515444 1 0 1.000000
  0 63.430511 -181.868530 26.278519 0.488588 -0.868473 0.083887 0.801445 0.507323 1 0 1.000000
Soldiers_Siege_red_2.TGA
  0 104.088211 -155.475494 62.717300 0.490419 -0.867547 0.082773 0.769246 0.539041 1 0 1.000000
  0 63.430511 -181.868530 26.278519 0.488588 -0.868473 0.083887 0.801445 0.507323 1 0 1.000000
  0 75.474319 -177.928406 -3.046371 0.489261 -0.868051 0.084331 0.822598 0.520792 1 0 1.000000
Soldiers_Siege_red_2.TGA
  0 104.088211 -155.475494 62.717300 0.490419 -0.867547 0.082773 0.769246 0.539041 1 0 1.000000
  0 75.474319 -177.928406 -3.046371 0.489261 -0.868051 0.084331 0.822598 0.520792 1 0 1.000000
  0 125.777908 -145.057190 42.906631 0.491379 -0.866981 0.083017 0.782463 0.560349 1 0 1.000000
Soldiers_Siege_red_2.TGA
  0 75.474319 -177.928406 -3.046371 0.489261 -0.868051 0.084331 0.822598 0.520792 1 0 1.000000
  0 102.689270 -163.313629 -10.272812 0.489788 -0.867667 0.085220 0.825232 0.545708 1 0 1.000000
  0 125.777908 -145.057190 42.906631 0.491379 -0.866981 0.083017 0.782463 0.560349 1 0 1.000000
Soldiers_Siege_red_2.TGA
  0 102.689270 -163.313629 -10.272812 0.489788 -0.867667 0.085220 0.825232 0.545708 1 0 1.000000
  0 125.523682 -148.398529 9.588745 0.493320 -0.865872 0.083071 0.807363 0.563310 1 0 1.000000
  0 125.777908 -145.057190 42.906631 0.491379 -0.866981 0.083017 0.782463 0.560349 1 0 1.000000
Soldiers_Siege_red_2.TGA
  0 65.298828 -97.308861 -18.773529 -0.018190 0.389647 -0.920785 0.979384 0.327676 1 0 1.000000
  0 51.728264 -51.590538 7.385529 0.509232 0.716736 -0.476416 0.631307 0.608302 1 0 1.000000
  0 89.065445 -81.892097 2.429993 0.524469 0.717772 -0.457968 0.981416 0.607160 1 0 1.000000
Soldiers_Siege_red_2.TGA
  0 51.728264 -51.590538 7.385529 0.509232 0.716736 -0.476416 0.631307 0.608302 1 0 1.000000
  0 51.919998 -49.948215 23.158264 0.512824 0.806891 0.293151 0.632029 0.611633 1 0 1.000000
  0 89.065445 -81.892097 2.429993 0.524469 0.717772 -0.457968 0.981416 0.607160 1 0 1.000000
Soldiers_Siege_red_2.TGA
  0 89.065445 -81.892097 2.429993 0.524469 0.717772 -0.457968 0.981416 0.607160 1 0 1.000000
  0 51.919998 -49.948215 23.158264 0.512824 0.806891 0.293151 0.632029 0.611633 1 0 1.000000
  0 89.028168 -78.629677 36.586868 0.504369 0.799620 0.325912 0.982692 0.606358 1 0 1.000000
Soldiers_Siege_red_2.TGA
  0 51.919998 -49.948215 23.158264 0.512824 0.806891 0.293151 0.632029 0.611633 1 0 1.000000
  0 41.281174 -54.899956 33.819672 -0.029072 0.564762 0.824742 0.631234 0.308007 1 0 1.000000
  0 89.028168 -78.629677 36.586868 0.504369 0.799620 0.325912 0.982692 0.606358 1 0 1.000000
Soldiers_Siege_red_2.TGA
  0 89.028168 -78.629677 36.586868 0.504369 0.799620 0.325912 0.982692 0.606358 1 0 1.000000
  0 41.281174 -54.899956 33.819672 -0.029072 0.564762 0.824742 0.631234 0.308007 1 0 1.000000
  0 66.813614 -89.056343 57.798508 -0.047006 0.542712 0.838603 0.980605 0.308703 1 0 1.000000
Soldiers_Siege_red_2.TGA
  0 41.281174 -54.899956 33.819672 -0.029072 0.564762 0.824742 0.631234 0.308007 1 0 1.000000
  0 27.760185 -62.769608 31.157364 -0.696175 0.152967 0.701386 0.632647 0.609743 1 0 1.000000
  0 66.813614 -89.056343 57.798508 -0.047006 0.542712 0.838603 0.980605 0.308703 1 0 1.000000
Soldiers_Siege_red_2.TGA
  0 66.813614 -89.056343 57.798508 -0.047006 0.542712 0.838603 0.980605 0.308703 1 0 1.000000
  0 27.760185 -62.769608 31.157364 -0.696175 0.152967 0.701386 0.632647 0.609743 1 0 1.000000
  0 38.342819 -105.818993 50.161636 -0.707158 0.132814 0.694470 0.982162 0.607557 1 0 1.000000
Soldiers_Siege_red_2.TGA
  0 27.760185 -62.769608 31.157364 -0.696175 0.152967 0.701386 0.632647 0.609743 1 0 1.000000
  0 21.602196 -67.578049 17.359055 -0.997509 -0.060485 0.036295 0.630283 0.308132 1 0 1.000000
  0 38.342819 -105.818993 50.161636 -0.707158 0.132814 0.694470 0.982162 0.607557 1 0 1.000000
Soldiers_Siege_red_2.TGA
  0 38.342819 -105.818993 50.161636 -0.707158 0.132814 0.694470 0.982162 0.607557 1 0 1.000000
  0 21.602196 -67.578049 17.359055 -0.997509 -0.060485 0.036295 0.630283 0.308132 1 0 1.000000
  0 24.639900 -116.486343 19.500626 -0.998035 -0.062488 0.004511 0.979054 0.306864 1 0 1.000000
Soldiers_Siege_red_2.TGA
  0 21.602196 -67.578049 17.359055 -0.997509 -0.060485 0.036295 0.630283 0.308132 1 0 1.000000
  0 27.415276 -65.728638 2.732849 -0.720547 0.059497 -0.690849 0.631345 0.605940 1 0 1.000000
  0 24.639900 -116.486343 19.500626 -0.998035 -0.062488 0.004511 0.979054 0.306864 1 0 1.000000
Soldiers_Siege_red_2.TGA
  0 24.639900 -116.486343 19.500626 -0.998035 -0.062488 0.004511 0.979054 0.306864 1 0 1.000000
  0 27.415276 -65.728638 2.732849 -0.720547 0.059497 -0.690849 0.631345 0.605940 1 0 1.000000
  0 37.018188 -112.495262 -11.229584 -0.699034 0.061917 -0.712402 0.980526 0.610621 1 0 1.000000
Soldiers_Siege_red_2.TGA
  0 27.415276 -65.728638 2.732849 -0.720547 0.059497 -0.690849 0.631345 0.605940 1 0 1.000000
  0 40.822556 -58.612297 -1.705826 -0.034693 0.396717 -0.917285 0.629609 0.329291 1 0 1.000000
  0 37.018188 -112.495262 -11.229584 -0.699034 0.061917 -0.712402 0.980526 0.610621 1 0 1.000000
Soldiers_Siege_red_2.TGA
  0 37.018188 -112.495262 -11.229584 -0.699034 0.061917 -0.712402 0.980526 0.610621 1 0 1.000000
  0 40.822556 -58.612297 -1.705826 -0.034693 0.396717 -0.917285 0.629609 0.329291 1 0 1.000000
  0 65.298828 -97.308861 -18.773529 -0.018190 0.389647 -0.920785 0.979384 0.327676 1 0 1.000000
Soldiers_Siege_red_2.TGA
  0 40.822556 -58.612297 -1.705826 -0.034693 0.396717 -0.917285 0.629609 0.329291 1 0 1.000000
  0 51.728264 -51.590538 7.385529 0.509232 0.716736 -0.476416 0.631307 0.608302 1 0 1.000000
  0 65.298828 -97.308861 -18.773529 -0.018190 0.389647 -0.920785 0.979384 0.327676 1 0 1.000000
end
