version 1
nodes
  0 "bone36"  -1
  1 "bone37"  -1
  2 "bone39"  -1
  3 "bone21"   2
  4 "bone20"   3
  5 "bone07"   4
  6 "bone22"   5
  7 "bone18"   6
  8 "bone25"   7
  9 "bone14"   4
 10 "bone16"   9
 11 "bone19"  10
 12 "bone24"  11
 13 "bone01"   4
 14 "bone15"  13
 15 "bone001"  14
 16 "bone17"  13
 17 "bone38"  16
 18 "bone03"   3
 19 "bone06"  18
 20 "bone13"  19
 21 "bone12"  20
 22 "bone26"  19
 23 "bone08"  18
 24 "bone05"  23
 25 "bone09"  24
 26 "bone11"  25
 27 "bone29"  26
 28 "bone30"  25
 29 "bone02"  18
 30 "bone04"  29
 31 "bone10"  30
 32 "bone31"  31
 33 "bone32"  18
 34 "bone34"   2
end
skeleton
time 0
  0 -2.629148 1.415440 -0.352036 0.000000 -0.000000 0.000000
  1 -2.629148 1.415440 -0.352036 0.000000 -0.000000 0.000000
  2 -2.629148 1.415440 -0.352036 0.000000 -0.000000 0.000000
  3 0.000000 -0.687185 97.839333 0.034907 0.000000 0.000000
  4 0.000000 0.440305 -2.731789 -0.034906 0.000000 -0.000000
  5 -8.065217 -1.301253 -17.282547 -0.117611 0.103397 -0.142897
  6 -0.883780 2.065766 -34.200714 0.436331 -0.000000 0.000000
  7 -1.767050 1.039484 -33.503738 -0.292387 -0.049164 -0.003695
  8 0.410545 -3.053427 -6.308688 0.000000 -0.000000 0.000000
  9 8.638525 -0.139325 -16.633003 -0.068305 -0.155899 -0.019300
 10 1.058083 0.932504 -35.061916 0.349312 0.031101 0.015853
 11 1.221048 1.156210 -33.292137 -0.260399 0.006793 0.020443
 12 0.085377 -3.198824 -6.249958 0.000000 -0.000000 0.000000
 13 0.213274 2.786515 7.572433 -0.017453 0.000000 0.000000
 14 -2.904730 0.818863 2.596077 -0.002471 0.006107 -0.382975
 15 3.765302 -0.266406 -105.303322 0.017445 -0.006626 0.385211
 16 1.233751 0.818863 2.596077 -0.003229 -0.006785 0.438678
 17 -2.736666 -0.542175 -105.309525 0.017471 0.007558 -0.441260
 18 0.000000 -0.179234 2.752571 -0.226892 0.000000 0.000001
 19 0.749370 -1.299137 28.624321 0.244345 -0.000000 0.000000
 20 -0.383533 17.841385 -5.153099 -0.174533 0.000000 -0.000000
 21 0.341385 5.572280 -21.207748 -0.174532 0.000000 -0.000000
 22 -1.270981 0.784905 10.690918 0.000000 -0.000000 0.000000
 23 -8.160084 -0.723730 19.345650 0.366547 0.017132 0.003330
 24 -15.198604 0.466465 -18.278641 -0.639340 0.212496 0.456580
 25 -8.028439 -4.482513 -11.667114 -0.271619 0.244372 -0.041531
 26 -1.668770 -2.144657 -6.538006 0.052020 0.091792 0.093927
 27 35.457291 5.719498 -83.014801 0.000000 -0.000000 0.000000
 28 -3.175091 -2.066471 -5.742229 0.000000 -0.000000 0.000000
 29 9.450655 -0.516975 19.516205 0.297948 0.295893 -0.150448
 30 14.230843 0.232841 -18.395638 -1.073499 -0.618246 -1.108255
 31 8.015636 -4.458885 -11.817966 -0.088245 -0.076199 -0.105809
 32 2.087151 -1.667404 -5.327336 0.000000 -0.000000 0.000000
 33 0.319299 -0.756851 2.981499 0.000000 -0.000000 0.000000
 34 -2.465699 3.693841 194.748917 0.000000 -0.000000 0.000000
time 1
  0 -2.629148 1.415440 -0.352036 0.000000 -0.000000 0.000000
  1 -2.629148 1.415440 -0.352036 0.000000 -0.000000 0.000000
  2 -2.629148 1.415440 -0.343089 0.000000 -0.000000 0.000000
  3 0.000000 -0.687185 96.287323 0.034907 0.000000 0.000000
  4 0.000000 0.440305 -2.731789 -0.057873 0.000000 -0.000000
  5 -8.065216 -1.301253 -17.282547 -0.117611 0.103397 -0.142897
  6 -0.883781 2.065766 -34.200718 0.545345 0.000765 0.017344
  7 -1.767048 1.039487 -33.503742 -0.292388 -0.049164 -0.003695
  8 0.410545 -3.053428 -6.308687 0.000000 -0.000000 0.000000
  9 8.638525 -0.139325 -16.633003 -0.068305 -0.155899 -0.019300
 10 1.058084 0.932506 -35.061913 0.464028 0.041423 0.008338
 11 1.221048 1.156211 -33.292130 -0.260399 0.006793 0.020443
 12 0.085375 -3.198827 -6.249960 0.000000 -0.000000 0.000000
 13 0.213274 2.786516 7.572433 -0.017453 0.000000 0.000000
 14 -2.904730 0.818863 2.596069 -0.002471 0.006107 -0.382975
 15 3.765301 -0.266404 -105.303329 0.017445 -0.006626 0.385211
 16 1.233752 0.818863 2.596077 -0.003229 -0.006785 0.438678
 17 -2.736667 -0.542176 -105.309540 0.017471 0.007558 -0.441260
 18 0.000000 -0.179234 2.752571 -0.161619 0.000000 0.000001
 19 0.749370 -1.299136 28.624321 0.275773 -0.000001 0.000000
 20 -0.383533 17.841385 -5.153099 -0.174533 0.000000 0.000000
 21 0.341385 5.572281 -21.207756 -0.174532 0.000000 -0.000000
 22 -1.270981 0.784904 10.690910 0.000000 -0.000000 0.000000
 23 -8.160084 -0.723731 19.345650 0.307882 0.028841 -0.003535
 24 -15.198610 0.466465 -18.278648 -0.585363 0.177615 0.468870
 25 -8.028442 -4.482515 -11.667114 -0.271619 0.244372 -0.041531
 26 -1.668774 -2.144657 -6.538017 0.052020 0.091792 0.093927
 27 35.457272 5.719475 -83.014816 0.000000 -0.000000 0.000000
 28 -3.175095 -2.066471 -5.742245 0.000000 -0.000000 0.000000
 29 9.450654 -0.516975 19.516212 0.235892 0.280012 -0.162497
 30 14.230841 0.232841 -18.395638 -0.977104 -0.584343 -1.025438
 31 8.015640 -4.458885 -11.817963 -0.088245 -0.076199 -0.105809
 32 2.087154 -1.667412 -5.327333 0.000000 -0.000000 0.000000
 33 0.319299 -0.756850 2.981506 0.000000 -0.000000 0.000000
 34 -2.465699 3.693841 194.748917 0.000000 -0.000000 0.000000
time 2
  0 -2.629148 1.415440 -0.352036 0.000000 -0.000000 0.000000
  1 -2.629148 1.415440 -0.352036 0.000000 -0.000000 0.000000
  2 -2.629148 1.415440 -0.317061 0.000000 -0.000000 0.000000
  3 0.000000 -0.687185 92.060410 0.034907 0.000000 0.000000
  4 0.000000 0.440305 -2.731789 -0.115742 0.000000 -0.000000
  5 -8.065218 -1.301253 -17.282547 -0.117611 0.103397 -0.142897
  6 -0.883780 2.065766 -34.200706 0.820028 0.002694 0.061047
  7 -1.767048 1.039492 -33.503738 -0.292387 -0.049164 -0.003695
  8 0.410543 -3.053426 -6.308687 0.000000 -0.000000 0.000000
  9 8.638525 -0.139325 -16.632996 -0.068305 -0.155899 -0.019300
 10 1.058086 0.932504 -35.061909 0.753081 0.067431 -0.010597
 11 1.221048 1.156218 -33.292126 -0.260399 0.006793 0.020443
 12 0.085377 -3.198826 -6.249957 0.000000 -0.000000 0.000000
 13 0.213274 2.786515 7.572433 -0.017453 0.000000 0.000000
 14 -2.904730 0.818864 2.596077 -0.002471 0.006107 -0.382975
 15 3.765302 -0.266407 -105.303337 0.017445 -0.006626 0.385211
 16 1.233752 0.818864 2.596085 -0.003229 -0.006785 0.438678
 17 -2.736666 -0.542174 -105.309555 0.017471 0.007558 -0.441260
 18 0.000000 -0.179234 2.752571 0.002852 0.000000 0.000001
 19 0.749370 -1.299137 28.624329 0.354963 -0.000001 0.000000
 20 -0.383533 17.841389 -5.153099 -0.174533 0.000000 -0.000000
 21 0.341385 5.572281 -21.207764 -0.174532 0.000000 -0.000000
 22 -1.270981 0.784904 10.690903 0.000000 -0.000000 0.000000
 23 -8.160084 -0.723731 19.345657 0.160064 0.058345 -0.020834
 24 -15.198608 0.466469 -18.278633 -0.449356 0.089727 0.499838
 25 -8.028439 -4.482517 -11.667099 -0.271619 0.244372 -0.041531
 26 -1.668770 -2.144661 -6.537998 0.052020 0.091792 0.093927
 27 35.457283 5.719465 -83.014816 0.000000 -0.000000 0.000000
 28 -3.175091 -2.066475 -5.742226 0.000000 -0.000000 0.000000
 29 9.450655 -0.516975 19.516220 0.079531 0.239998 -0.192855
 30 14.230843 0.232844 -18.395630 -0.734217 -0.498918 -0.816761
 31 8.015638 -4.458893 -11.817970 -0.088245 -0.076199 -0.105809
 32 2.087151 -1.667400 -5.327332 0.000000 -0.000000 0.000000
 33 0.319298 -0.756850 2.981506 0.000000 -0.000000 0.000000
 34 -2.465699 3.693841 194.748917 0.000000 -0.000000 0.000000
time 3
  0 -2.629148 1.415440 -0.352036 0.000000 -0.000000 0.000000
  1 -2.629148 1.415440 -0.352036 0.000000 -0.000000 0.000000
  2 -2.629148 1.415440 -0.275174 0.000000 -0.000000 0.000000
  3 0.000000 -0.687185 85.802383 0.034907 0.000000 0.000000
  4 0.000000 0.440305 -2.731789 -0.191968 0.000000 -0.000000
  5 -8.065216 -1.301253 -17.282547 -0.117611 0.103397 -0.142897
  6 -0.883780 2.065767 -34.200722 1.181842 0.005235 0.118612
  7 -1.767048 1.039488 -33.503746 -0.292387 -0.049164 -0.003695
  8 0.410545 -3.053425 -6.308688 0.000000 -0.000000 0.000000
  9 8.638526 -0.139325 -16.633003 -0.068305 -0.155899 -0.019300
 10 1.058083 0.932505 -35.061916 1.133821 0.101689 -0.035537
 11 1.221046 1.156218 -33.292130 -0.260399 0.006793 0.020443
 12 0.085375 -3.198824 -6.249957 0.000000 -0.000000 0.000000
 13 0.213274 2.786514 7.572433 -0.017453 0.000000 0.000000
 14 -2.904729 0.818863 2.596077 -0.002471 0.006107 -0.382975
 15 3.765302 -0.266413 -105.303345 0.017445 -0.006626 0.385211
 16 1.233751 0.818863 2.596077 -0.003229 -0.006785 0.438678
 17 -2.736665 -0.542178 -105.309525 0.017471 0.007558 -0.441260
 18 0.000000 -0.179234 2.752571 0.219492 0.000000 0.000001
 19 0.749370 -1.299137 28.624321 0.459272 -0.000001 0.000000
 20 -0.383533 17.841385 -5.153099 -0.174533 0.000000 0.000000
 21 0.341385 5.572281 -21.207756 -0.174532 0.000000 -0.000000
 22 -1.270981 0.784904 10.690903 0.000000 -0.000000 0.000000
 23 -8.160085 -0.723732 19.345642 -0.034644 0.097207 -0.043620
 24 -15.198610 0.466469 -18.278648 -0.270207 -0.026040 0.540628
 25 -8.028439 -4.482515 -11.667114 -0.271619 0.244372 -0.041531
 26 -1.668774 -2.144657 -6.538010 0.052020 0.091792 0.093927
 27 35.457268 5.719453 -83.014816 0.000000 -0.000000 0.000000
 28 -3.175091 -2.066469 -5.742233 0.000000 -0.000000 0.000000
 29 9.450655 -0.516975 19.516205 -0.126428 0.187292 -0.232843
 30 14.230843 0.232841 -18.395638 -0.414285 -0.386396 -0.541891
 31 8.015633 -4.458897 -11.817970 -0.088245 -0.076199 -0.105809
 32 2.087151 -1.667404 -5.327335 0.000000 -0.000000 0.000000
 33 0.319299 -0.756849 2.981499 0.000000 -0.000000 0.000000
 34 -2.465699 3.693841 194.748917 0.000000 -0.000000 0.000000
time 4
  0 -2.629148 1.415440 -0.352036 0.000000 -0.000000 0.000000
  1 -2.629148 1.415440 -0.352036 0.000000 -0.000000 0.000000
  2 -2.629148 1.415440 -0.218646 0.000000 -0.000000 0.000000
  3 0.000000 -0.687185 78.157005 0.034907 0.000000 0.000000
  4 0.000000 0.440305 -2.731789 -0.270003 0.000000 -0.000000
  5 -8.065217 -1.301252 -17.282539 -0.117611 0.103397 -0.142897
  6 -0.883780 2.065765 -34.200714 1.552246 0.007836 0.177544
  7 -1.767048 1.039490 -33.503738 -0.292388 -0.049164 -0.003695
  8 0.410547 -3.053427 -6.308689 0.000000 -0.000000 0.000000
  9 8.638526 -0.139324 -16.633003 -0.068306 -0.155899 -0.019300
 10 1.058083 0.932507 -35.061913 1.523601 0.136760 -0.061070
 11 1.221052 1.156221 -33.292126 -0.260399 0.006793 0.020443
 12 0.085377 -3.198828 -6.249957 0.000000 -0.000000 0.000000
 13 0.213274 2.786515 7.572433 -0.017453 0.000000 0.000000
 14 -2.904729 0.818864 2.596069 -0.002471 0.006107 -0.382975
 15 3.765301 -0.266404 -105.303329 0.017445 -0.006626 0.385211
 16 1.233751 0.818864 2.596069 -0.003229 -0.006785 0.438678
 17 -2.736667 -0.542174 -105.309547 0.017471 0.007558 -0.441260
 18 0.000000 -0.179234 2.752571 0.441277 0.000000 0.000001
 19 0.749370 -1.299133 28.624329 0.566057 -0.000001 0.000001
 20 -0.383533 17.841385 -5.153095 -0.174533 0.000000 0.000000
 21 0.341385 5.572281 -21.207756 -0.174532 0.000000 -0.000000
 22 -1.270981 0.784904 10.690910 0.000000 -0.000000 0.000000
 23 -8.160084 -0.723728 19.345657 -0.233973 0.136992 -0.066947
 24 -15.198612 0.466470 -18.278641 -0.086805 -0.144556 0.582387
 25 -8.028438 -4.482517 -11.667107 -0.271619 0.244372 -0.041531
 26 -1.668770 -2.144659 -6.538006 0.052020 0.091792 0.093927
 27 35.457291 5.719443 -83.014832 0.000000 -0.000000 0.000000
 28 -3.175091 -2.066472 -5.742229 0.000000 -0.000000 0.000000
 29 9.450655 -0.516972 19.516212 -0.337278 0.133334 -0.273781
 30 14.230841 0.232841 -18.395630 -0.086758 -0.271202 -0.260495
 31 8.015629 -4.458895 -11.817978 -0.088245 -0.076199 -0.105809
 32 2.087147 -1.667406 -5.327339 0.000000 -0.000000 0.000000
 33 0.319299 -0.756847 2.981506 0.000000 -0.000000 0.000000
 34 -2.465699 3.693841 194.748917 0.000000 -0.000000 0.000000
time 5
  0 -2.629148 1.415440 -0.352036 0.000000 -0.000000 0.000000
  1 -2.629148 1.415440 -0.352036 0.000000 -0.000000 0.000000
  2 -2.629148 1.415440 -0.148698 0.000000 -0.000000 0.000000
  3 0.000000 -0.687185 69.768036 0.034907 0.000000 0.000000
  4 0.000000 0.440305 -2.731789 -0.333301 0.000000 -0.000000
  5 -8.065216 -1.301254 -17.282547 -0.117611 0.103397 -0.142897
  6 -0.883780 2.065765 -34.200714 1.852701 0.009945 0.225347
  7 -1.767050 1.039494 -33.503738 -0.292388 -0.049164 -0.003695
  8 0.410545 -3.053429 -6.308687 0.000000 -0.000000 0.000000
  9 8.638525 -0.139326 -16.633007 -0.068305 -0.155899 -0.019300
 10 1.058084 0.932507 -35.061916 1.839772 0.165209 -0.081781
 11 1.221051 1.156221 -33.292130 -0.260399 0.006793 0.020443
 12 0.085375 -3.198826 -6.249958 0.000000 -0.000000 0.000000
 13 0.213274 2.786515 7.572433 -0.017453 0.000000 0.000000
 14 -2.904730 0.818863 2.596077 -0.002471 0.006107 -0.382975
 15 3.765300 -0.266405 -105.303329 0.017445 -0.006626 0.385211
 16 1.233752 0.818863 2.596077 -0.003229 -0.006785 0.438678
 17 -2.736664 -0.542173 -105.309540 0.017471 0.007558 -0.441260
 18 0.000000 -0.179234 2.752571 0.621178 0.000000 0.000001
 19 0.749370 -1.299133 28.624325 0.652676 -0.000001 0.000001
 20 -0.383533 17.841393 -5.153099 -0.174533 0.000000 0.000000
 21 0.341385 5.572289 -21.207756 -0.174532 0.000000 -0.000000
 22 -1.270981 0.784904 10.690903 0.000000 -0.000000 0.000000
 23 -8.160084 -0.723732 19.345654 -0.395660 0.169264 -0.085869
 24 -15.198608 0.466472 -18.278633 0.061962 -0.240691 0.616260
 25 -8.028440 -4.482525 -11.667114 -0.271619 0.244372 -0.041531
 26 -1.668774 -2.144661 -6.538013 0.052020 0.091792 0.093927
 27 35.457279 5.719431 -83.014816 0.000000 -0.000000 0.000000
 28 -3.175095 -2.066477 -5.742237 0.000000 -0.000000 0.000000
 29 9.450655 -0.516975 19.516209 -0.508309 0.089566 -0.306988
 30 14.230842 0.232843 -18.395638 0.178917 -0.177762 -0.032240
 31 8.015629 -4.458894 -11.817970 -0.088245 -0.076199 -0.105809
 32 2.087149 -1.667404 -5.327335 0.000000 -0.000000 0.000000
 33 0.319299 -0.756847 2.981503 0.000000 -0.000000 0.000000
 34 -2.465699 3.693841 194.748917 0.000000 -0.000000 0.000000
time 6
  0 -2.629148 1.415440 -0.352036 0.000000 -0.000000 0.000000
  1 -2.629148 1.415440 -0.352036 0.000000 -0.000000 0.000000
  2 -2.629148 1.415440 -0.066550 0.000000 -0.000000 0.000000
  3 0.000000 -0.687185 61.279266 0.034907 0.000000 0.000000
  4 0.000000 0.440305 -2.731789 -0.365317 0.000000 -0.000000
  5 -8.065217 -1.301252 -17.282547 -0.117611 0.103397 -0.142897
  6 -0.883780 2.065769 -34.200718 2.004666 0.011013 0.249525
  7 -1.767050 1.039494 -33.503735 -0.292388 -0.049164 -0.003695
  8 0.410545 -3.053426 -6.308687 0.000000 -0.000000 0.000000
  9 8.638525 -0.139324 -16.633007 -0.068305 -0.155899 -0.019300
 10 1.058085 0.932505 -35.061913 1.999686 0.179597 -0.092257
 11 1.221057 1.156225 -33.292130 -0.260399 0.006793 0.020443
 12 0.085377 -3.198825 -6.249957 0.000000 -0.000000 0.000000
 13 0.213274 2.786516 7.572430 -0.017453 0.000000 0.000000
 14 -2.904730 0.818863 2.596077 -0.002471 0.006107 -0.382975
 15 3.765301 -0.266411 -105.303314 0.017445 -0.006626 0.385211
 16 1.233751 0.818862 2.596077 -0.003229 -0.006785 0.438678
 17 -2.736670 -0.542178 -105.309547 0.017471 0.007558 -0.441260
 18 0.000000 -0.179234 2.752579 0.712169 0.000000 0.000001
 19 0.749370 -1.299137 28.624329 0.696487 -0.000001 0.000001
 20 -0.383533 17.841385 -5.153097 -0.174533 0.000000 0.000000
 21 0.341385 5.572281 -21.207754 -0.174532 0.000000 -0.000000
 22 -1.270981 0.784904 10.690905 0.000000 -0.000000 0.000000
 23 -8.160084 -0.723732 19.345650 -0.477439 0.185587 -0.095440
 24 -15.198605 0.466469 -18.278648 0.137207 -0.289314 0.633393
 25 -8.028435 -4.482521 -11.667114 -0.271619 0.244372 -0.041531
 26 -1.668770 -2.144663 -6.538006 0.052020 0.091792 0.093927
 27 35.457264 5.719431 -83.014809 0.000000 -0.000000 0.000000
 28 -3.175091 -2.066473 -5.742233 0.000000 -0.000000 0.000000
 29 9.450655 -0.516979 19.516212 -0.594814 0.067429 -0.323783
 30 14.230839 0.232842 -18.395630 0.313292 -0.130502 0.083208
 31 8.015630 -4.458893 -11.817966 -0.088245 -0.076199 -0.105809
 32 2.087149 -1.667405 -5.327335 0.000000 -0.000000 0.000000
 33 0.319299 -0.756851 2.981503 0.000000 -0.000000 0.000000
 34 -2.465699 3.693841 194.748917 0.000000 -0.000000 0.000000
time 7
  0 -2.629148 1.415440 -0.352036 0.000000 -0.000000 0.000000
  1 -2.629148 1.415440 -0.352036 0.000000 -0.000000 0.000000
  2 -2.629148 1.415440 0.026579 0.000000 -0.000000 0.000000
  3 0.000000 -0.687185 52.766201 0.034907 0.000000 0.000000
  4 0.000000 0.440305 -2.731792 -0.366519 0.000000 -0.000000
  5 -8.065216 -1.301252 -17.282543 -0.117611 0.103397 -0.142897
  6 -0.883781 2.065767 -34.200710 2.010372 0.011053 0.250433
  7 -1.767048 1.039489 -33.503738 -0.292388 -0.049164 -0.003695
  8 0.410545 -3.053426 -6.308687 0.000000 -0.000000 0.000000
  9 8.638525 -0.139324 -16.633005 -0.068305 -0.155899 -0.019300
 10 1.058086 0.932503 -35.061920 2.005691 0.180137 -0.092650
 11 1.221058 1.156224 -33.292130 -0.260399 0.006793 0.020443
 12 0.085376 -3.198825 -6.249958 0.000000 -0.000000 0.000000
 13 0.213274 2.786516 7.572437 -0.017453 0.000000 0.000000
 14 -2.904730 0.818865 2.596073 -0.002471 0.006107 -0.382975
 15 3.765299 -0.266402 -105.303345 0.017445 -0.006626 0.385211
 16 1.233752 0.818864 2.596073 -0.003229 -0.006785 0.438678
 17 -2.736666 -0.542171 -105.309532 0.017471 0.007558 -0.441260
 18 -0.000000 -0.179234 2.752575 0.715586 0.000000 0.000001
 19 0.749370 -1.299133 28.624332 0.698132 -0.000001 0.000001
 20 -0.383533 17.841385 -5.153099 -0.174533 0.000000 0.000000
 21 0.341385 5.572273 -21.207756 -0.174532 0.000000 -0.000000
 22 -1.270981 0.784904 10.690903 0.000000 -0.000000 0.000000
 23 -8.160085 -0.723732 19.345650 -0.480510 0.186200 -0.095799
 24 -15.198608 0.466468 -18.278645 0.140032 -0.291140 0.634036
 25 -8.028440 -4.482521 -11.667114 -0.271619 0.244372 -0.041531
 26 -1.419079 -2.159477 -5.870724 0.046814 0.122685 0.090429
 27 35.457268 5.719437 -83.014801 0.000000 -0.000000 0.000000
 28 -3.175095 -2.066473 -5.742233 0.000000 -0.000000 0.000000
 29 9.450655 -0.516972 19.516205 -0.598062 0.066598 -0.324414
 30 14.230843 0.232841 -18.395630 0.318337 -0.128727 0.087543
 31 8.015633 -4.458892 -11.817970 -0.088245 -0.076199 -0.105809
 32 2.087151 -1.667406 -5.327339 0.000000 -0.000000 0.000000
 33 0.319299 -0.756847 2.981503 0.000000 -0.000000 0.000000
 34 -2.465699 3.693841 194.748917 0.000000 -0.000000 0.000000
time 8
  0 -2.629148 1.415440 -0.352036 0.000000 -0.000000 0.000000
  1 -2.629148 1.415440 -0.352036 0.000000 -0.000000 0.000000
  2 -2.629148 1.415440 0.129468 0.000000 -0.000000 0.000000
  3 0.000000 -0.687185 43.416332 0.034907 0.000000 0.000000
  4 0.000000 0.440305 -2.731789 -0.366519 0.000000 -0.000000
  5 -8.065216 -1.301252 -17.282545 -0.117611 0.103397 -0.142897
  6 -0.883781 2.065768 -34.200714 2.010372 0.011053 0.250433
  7 -1.767049 1.039489 -33.503738 -0.292388 -0.049164 -0.003695
  8 0.410545 -3.053426 -6.308687 0.000000 -0.000000 0.000000
  9 8.638525 -0.139324 -16.633003 -0.068306 -0.155899 -0.019300
 10 1.058088 0.932504 -35.061909 2.005691 0.180138 -0.092650
 11 1.221058 1.156224 -33.292122 -0.260399 0.006793 0.020443
 12 0.085376 -3.198826 -6.249956 0.000000 -0.000000 0.000000
 13 0.213274 2.786514 7.572437 -0.017453 0.000000 0.000000
 14 -2.904730 0.818865 2.596077 -0.002471 0.006107 -0.382975
 15 3.765304 -0.266412 -105.303314 0.017445 -0.006626 0.385211
 16 1.233752 0.818864 2.596077 -0.003229 -0.006785 0.438678
 17 -2.736664 -0.542170 -105.309540 0.017471 0.007558 -0.441260
 18 0.000000 -0.179234 2.752579 0.715586 0.000000 0.000001
 19 0.749370 -1.299137 28.624329 0.698132 -0.000001 0.000001
 20 -0.383533 17.841385 -5.153097 -0.174533 0.000000 0.000000
 21 0.341385 5.572273 -21.207756 -0.174532 0.000000 -0.000000
 22 -1.270981 0.784904 10.690903 0.000000 -0.000000 0.000000
 23 -8.160084 -0.723730 19.345650 -0.480510 0.186200 -0.095799
 24 -15.198610 0.466470 -18.278641 0.140032 -0.291140 0.634036
 25 -8.028440 -4.482525 -11.667109 -0.271619 0.244372 -0.041531
 26 -0.446968 -2.215927 -3.261318 0.026980 0.240387 0.077104
 27 35.457264 5.719429 -83.014793 0.000000 -0.000000 0.000000
 28 -3.175098 -2.066475 -5.742233 0.000000 -0.000000 0.000000
 29 9.450655 -0.516975 19.516209 -0.598062 0.066598 -0.324414
 30 14.230840 0.232841 -18.395626 0.318337 -0.128727 0.087543
 31 8.015630 -4.458890 -11.817966 -0.088245 -0.076199 -0.105809
 32 2.087149 -1.667405 -5.327339 0.000000 -0.000000 0.000000
 33 0.319299 -0.756851 2.981503 0.000000 -0.000000 0.000000
 34 -2.465699 3.693841 194.748917 0.000000 -0.000000 0.000000
time 9
  0 -2.629148 1.415440 -0.352036 0.000000 -0.000000 0.000000
  1 -2.629148 1.415440 -0.352036 0.000000 -0.000000 0.000000
  2 -2.629148 1.415440 0.240897 0.000000 -0.000000 0.000000
  3 0.000000 -0.687185 33.440357 0.034907 0.000000 0.000000
  4 0.000000 0.440305 -2.731791 -0.366519 0.000000 -0.000000
  5 -8.065216 -1.301253 -17.282547 -0.117611 0.103397 -0.142897
  6 -0.883781 2.065768 -34.200714 2.010372 0.011053 0.250433
  7 -1.767048 1.039488 -33.503738 -0.292388 -0.049164 -0.003695
  8 0.410546 -3.053425 -6.308687 0.000000 -0.000000 0.000000
  9 8.638525 -0.139325 -16.633003 -0.068305 -0.155899 -0.019300
 10 1.058087 0.932503 -35.061913 2.005691 0.180137 -0.092650
 11 1.221056 1.156225 -33.292122 -0.260399 0.006793 0.020443
 12 0.085380 -3.198826 -6.249956 0.000000 -0.000000 0.000000
 13 0.213274 2.786515 7.572437 -0.017453 0.000000 0.000000
 14 -2.904730 0.818864 2.596073 -0.002471 0.006107 -0.382975
 15 3.765300 -0.266405 -105.303314 0.017445 -0.006626 0.385211
 16 1.233752 0.818863 2.596073 -0.003229 -0.006785 0.438678
 17 -2.736668 -0.542173 -105.309540 0.017471 0.007558 -0.441260
 18 0.000000 -0.179234 2.752575 0.715586 0.000000 0.000001
 19 0.749370 -1.299143 28.624325 0.698132 -0.000001 0.000001
 20 -0.383533 17.841381 -5.153099 -0.174533 0.000000 0.000000
 21 0.341385 5.572281 -21.207752 -0.174532 0.000000 -0.000000
 22 -1.270981 0.784904 10.690903 0.000000 -0.000000 0.000000
 23 -8.160085 -0.723732 19.345650 -0.480510 0.186200 -0.095799
 24 -15.198612 0.466469 -18.278641 0.140032 -0.291140 0.634036
 25 -8.028440 -4.482517 -11.667110 -0.271619 0.244372 -0.041531
 26 1.124216 -2.304359 0.982105 -0.004093 0.424803 0.056227
 27 35.457264 5.719446 -83.014801 0.000000 -0.000000 0.000000
 28 -3.175098 -2.066471 -5.742235 0.000000 -0.000000 0.000000
 29 9.450655 -0.516977 19.516205 -0.598062 0.066598 -0.324414
 30 14.230843 0.232841 -18.395626 0.318337 -0.128727 0.087543
 31 8.015633 -4.458892 -11.817966 -0.088245 -0.076199 -0.105809
 32 2.087151 -1.667405 -5.327335 0.000000 -0.000000 0.000000
 33 0.319299 -0.756853 2.981503 0.000000 -0.000000 0.000000
 34 -2.465699 3.693841 194.748917 0.000000 -0.000000 0.000000
time 10
  0 -2.629148 1.415440 -0.352036 0.000000 -0.000000 0.000000
  1 -2.629148 1.415440 -0.352036 0.000000 -0.000000 0.000000
  2 -2.629148 1.415440 0.359646 0.000000 -0.000000 0.000000
  3 0.000000 -0.687185 23.090376 0.034907 0.000000 0.000000
  4 0.000000 0.440305 -2.731791 -0.366519 0.000000 -0.000000
  5 -8.065216 -1.301253 -17.282545 -0.117611 0.103397 -0.142897
  6 -0.883781 2.065768 -34.200714 2.010372 0.011053 0.250433
  7 -1.767049 1.039490 -33.503738 -0.292388 -0.049164 -0.003695
  8 0.410545 -3.053425 -6.308685 0.000000 -0.000000 0.000000
  9 8.638525 -0.139325 -16.633003 -0.068305 -0.155899 -0.019300
 10 1.058087 0.932505 -35.061909 2.005691 0.180138 -0.092650
 11 1.221055 1.156225 -33.292122 -0.260399 0.006793 0.020443
 12 0.085378 -3.198828 -6.249954 0.000000 -0.000000 0.000000
 13 0.213274 2.786515 7.572435 -0.017453 0.000000 0.000000
 14 -2.904730 0.818862 2.596079 -0.002471 0.006107 -0.382975
 15 3.765299 -0.266403 -105.303322 0.017445 -0.006626 0.385211
 16 1.233752 0.818862 2.596077 -0.003229 -0.006785 0.438678
 17 -2.736666 -0.542171 -105.309540 0.017471 0.007558 -0.441260
 18 0.000000 -0.179234 2.752575 0.715586 0.000000 0.000001
 19 0.749370 -1.299139 28.624325 0.698132 -0.000001 0.000001
 20 -0.383533 17.841385 -5.153099 -0.174533 0.000000 -0.000000
 21 0.341385 5.572281 -21.207756 -0.174532 0.000000 -0.000000
 22 -1.270981 0.784904 10.690903 0.000000 -0.000000 0.000000
 23 -8.160084 -0.723730 19.345650 -0.480510 0.186200 -0.095799
 24 -15.198608 0.466470 -18.278641 0.140032 -0.291140 0.634036
 25 -8.028440 -4.482521 -11.667112 -0.271619 0.244372 -0.041531
 26 3.150366 -2.413894 6.496239 -0.042580 0.653239 0.030369
 27 35.457302 5.719457 -83.014862 0.000000 -0.000000 0.000000
 28 -3.175095 -2.066472 -5.742235 0.000000 -0.000000 0.000000
 29 9.450655 -0.516973 19.516209 -0.598062 0.066598 -0.324414
 30 14.230842 0.232841 -18.395626 0.318337 -0.128727 0.087543
 31 8.015633 -4.458891 -11.817968 -0.088245 -0.076199 -0.105809
 32 2.087149 -1.667405 -5.327336 0.000000 -0.000000 0.000000
 33 0.319299 -0.756851 2.981504 0.000000 -0.000000 0.000000
 34 -2.465699 3.693841 194.748917 0.000000 -0.000000 0.000000
time 11
  0 -2.629148 1.415440 -0.352036 0.000000 -0.000000 0.000000
  1 -2.629148 1.415440 -0.352036 0.000000 -0.000000 0.000000
  2 -2.629148 1.415440 0.484495 0.000000 -0.000000 0.000000
  3 0.000000 -0.687185 12.618483 0.034907 0.000000 0.000000
  4 0.000000 0.440305 -2.731789 -0.366519 0.000000 -0.000000
  5 -8.065217 -1.301253 -17.282545 -0.117611 0.103397 -0.142897
  6 -0.883782 2.065768 -34.200710 2.010372 0.011053 0.250433
  7 -1.767048 1.039490 -33.503738 -0.292387 -0.049164 -0.003695
  8 0.410545 -3.053425 -6.308689 0.000000 -0.000000 0.000000
  9 8.638525 -0.139325 -16.633003 -0.068306 -0.155899 -0.019300
 10 1.058085 0.932507 -35.061913 2.005691 0.180137 -0.092650
 11 1.221056 1.156227 -33.292122 -0.260399 0.006793 0.020443
 12 0.085378 -3.198828 -6.249954 0.000000 -0.000000 0.000000
 13 0.213274 2.786515 7.572434 -0.017453 0.000000 0.000000
 14 -2.904730 0.818863 2.596073 -0.002471 0.006107 -0.382975
 15 3.765301 -0.266400 -105.303314 0.017445 -0.006626 0.385211
 16 1.233752 0.818862 2.596075 -0.003229 -0.006785 0.438678
 17 -2.736664 -0.542163 -105.309547 0.017471 0.007558 -0.441260
 18 0.000000 -0.179234 2.752577 0.715586 0.000000 0.000001
 19 0.749370 -1.299140 28.624325 0.698132 -0.000001 0.000001
 20 -0.383533 17.841385 -5.153097 -0.174533 0.000000 -0.000000
 21 0.341385 5.572281 -21.207754 -0.174532 0.000000 -0.000000
 22 -1.270981 0.784904 10.690903 0.000000 -0.000000 0.000000
 23 -8.160084 -0.723732 19.345650 -0.480510 0.186200 -0.095799
 24 -15.198608 0.466470 -18.278643 0.140032 -0.291140 0.634036
 25 -8.028442 -4.482522 -11.667112 -0.271619 0.244372 -0.041531
 26 5.487408 -2.533636 12.917776 -0.084654 0.903000 0.002101
 27 35.457321 5.719455 -83.014847 0.000000 -0.000000 0.000000
 28 -3.175102 -2.066472 -5.742235 0.000000 -0.000000 0.000000
 29 9.450655 -0.516975 19.516205 -0.598062 0.066598 -0.324414
 30 14.230843 0.232841 -18.395634 0.318337 -0.128727 0.087543
 31 8.015631 -4.458891 -11.817966 -0.088245 -0.076199 -0.105809
 32 2.087151 -1.667405 -5.327336 0.000000 -0.000000 0.000000
 33 0.319299 -0.756850 2.981504 0.000000 -0.000000 0.000000
 34 -2.465699 3.693841 194.748917 0.000000 -0.000000 0.000000
time 12
  0 -2.629148 1.415440 -0.352036 0.000000 -0.000000 0.000000
  1 -2.629148 1.415440 -0.352036 0.000000 -0.000000 0.000000
  2 -2.629148 1.415440 0.614224 0.000000 -0.000000 0.000000
  3 0.000000 -0.687185 2.276779 0.034907 0.000000 0.000000
  4 0.000000 0.440305 -2.731789 -0.366519 0.000000 -0.000000
  5 -8.065217 -1.301253 -17.282545 -0.117611 0.103397 -0.142897
  6 -0.883781 2.065768 -34.200714 2.010372 0.011053 0.250433
  7 -1.767048 1.039490 -33.503735 -0.292387 -0.049164 -0.003695
  8 0.410543 -3.053425 -6.308689 0.000000 -0.000000 0.000000
  9 8.638525 -0.139325 -16.633003 -0.068305 -0.155899 -0.019300
 10 1.058085 0.932504 -35.061913 2.005691 0.180137 -0.092650
 11 1.221054 1.156219 -33.292122 -0.260399 0.006793 0.020443
 12 0.085378 -3.198826 -6.249958 0.000000 -0.000000 0.000000
 13 0.213274 2.786515 7.572435 -0.017453 0.000000 0.000000
 14 -2.904730 0.818863 2.596076 -0.002471 0.006107 -0.382975
 15 3.765304 -0.266408 -105.303337 0.017445 -0.006626 0.385211
 16 1.233752 0.818863 2.596077 -0.003229 -0.006785 0.438678
 17 -2.736668 -0.542172 -105.309525 0.017471 0.007558 -0.441260
 18 -0.000000 -0.179234 2.752576 0.715586 0.000000 0.000001
 19 0.749370 -1.299138 28.624327 0.698132 -0.000001 0.000001
 20 -0.383533 17.841385 -5.153097 -0.174533 0.000000 -0.000000
 21 0.341385 5.572281 -21.207756 -0.174532 0.000000 -0.000000
 22 -1.270981 0.784904 10.690901 0.000000 -0.000000 0.000000
 23 -8.160084 -0.723731 19.345652 -0.480510 0.186200 -0.095799
 24 -15.198611 0.466470 -18.278641 0.140032 -0.291140 0.634036
 25 -8.028439 -4.482523 -11.667110 -0.271619 0.244372 -0.041531
 26 7.991251 -2.652698 19.883408 -0.126489 1.151389 -0.026007
 27 35.457333 5.719460 -83.014854 0.000000 -0.000000 0.000000
 28 -3.175095 -2.066475 -5.742236 0.000000 -0.000000 0.000000
 29 9.450655 -0.516974 19.516207 -0.598062 0.066598 -0.324414
 30 14.230844 0.232843 -18.395626 0.318337 -0.128727 0.087543
 31 8.015633 -4.458893 -11.817966 -0.088245 -0.076199 -0.105809
 32 2.087149 -1.667406 -5.327337 0.000000 -0.000000 0.000000
 33 0.319299 -0.756850 2.981504 0.000000 -0.000000 0.000000
 34 -2.465699 3.693841 194.748917 0.000000 -0.000000 0.000000
time 13
  0 -2.629148 1.415440 -0.352036 0.000000 -0.000000 0.000000
  1 -2.629148 1.415440 -0.352036 0.000000 -0.000000 0.000000
  2 -2.629148 1.415440 0.747614 0.000000 -0.000000 0.000000
  3 0.000000 -0.687185 -7.682642 0.034907 0.000000 0.000000
  4 0.000000 0.440305 -2.731790 -0.366519 0.000000 -0.000000
  5 -8.065216 -1.301253 -17.282545 -0.117611 0.103397 -0.142897
  6 -0.883781 2.065768 -34.200710 2.010372 0.011053 0.250433
  7 -1.767049 1.039490 -33.503738 -0.292388 -0.049164 -0.003695
  8 0.410546 -3.053425 -6.308689 0.000000 -0.000000 0.000000
  9 8.638525 -0.139325 -16.633003 -0.068306 -0.155899 -0.019300
 10 1.058086 0.932505 -35.061909 2.005691 0.180137 -0.092650
 11 1.221054 1.156219 -33.292122 -0.260399 0.006793 0.020443
 12 0.085379 -3.198822 -6.249958 0.000000 -0.000000 0.000000
 13 0.213274 2.786515 7.572436 -0.017453 0.000000 0.000000
 14 -2.904730 0.818863 2.596076 -0.002471 0.006107 -0.382975
 15 3.765301 -0.266403 -105.303345 0.017445 -0.006626 0.385211
 16 1.233752 0.818863 2.596076 -0.003229 -0.006785 0.438678
 17 -2.736671 -0.542177 -105.309540 0.017471 0.007558 -0.441260
 18 0.000000 -0.179234 2.752576 0.715586 0.000000 0.000001
 19 0.749370 -1.299138 28.624327 0.698132 -0.000001 0.000001
 20 -0.383533 17.841385 -5.153097 -0.174533 0.000000 0.000000
 21 0.341385 5.572281 -21.207756 -0.174532 0.000000 -0.000000
 22 -1.270981 0.784907 10.690901 0.000000 -0.000000 0.000000
 23 -8.160084 -0.723731 19.345652 -0.480510 0.186200 -0.095799
 24 -15.198611 0.466471 -18.278641 0.140032 -0.291140 0.634036
 25 -8.028440 -4.482521 -11.667114 -0.271619 0.244372 -0.041531
 26 10.517828 -2.760192 27.029846 -0.164259 1.375712 -0.051382
 27 35.457336 5.719477 -83.014847 0.000000 -0.000000 0.000000
 28 -3.175095 -2.066475 -5.742237 0.000000 -0.000000 0.000000
 29 9.450655 -0.516975 19.516209 -0.598062 0.066598 -0.324414
 30 14.230841 0.232841 -18.395632 0.318337 -0.128727 0.087543
 31 8.015633 -4.458892 -11.817970 -0.088245 -0.076199 -0.105809
 32 2.087151 -1.667406 -5.327337 0.000000 -0.000000 0.000000
 33 0.319299 -0.756850 2.981504 0.000000 -0.000000 0.000000
 34 -2.465699 3.693841 194.748917 0.000000 -0.000000 0.000000
time 14
  0 -2.629148 1.415440 -0.352036 0.000000 -0.000000 0.000000
  1 -2.629148 1.415440 -0.352036 0.000000 -0.000000 0.000000
  2 -2.629148 1.415440 0.883443 0.000000 -0.000000 0.000000
  3 0.000000 -0.687185 -17.007675 0.034907 0.000000 0.000000
  4 0.000000 0.440305 -2.731791 -0.366519 0.000000 -0.000000
  5 -8.065217 -1.301253 -17.282543 -0.117611 0.103397 -0.142897
  6 -0.883781 2.065769 -34.200710 2.010372 0.011053 0.250433
  7 -1.767048 1.039490 -33.503738 -0.292388 -0.049164 -0.003695
  8 0.410546 -3.053425 -6.308689 0.000000 -0.000000 0.000000
  9 8.638525 -0.139325 -16.633003 -0.068305 -0.155899 -0.019300
 10 1.058084 0.932507 -35.061916 2.005691 0.180138 -0.092650
 11 1.221053 1.156227 -33.292122 -0.260399 0.006793 0.020443
 12 0.085379 -3.198826 -6.249956 0.000000 -0.000000 0.000000
 13 0.213274 2.786515 7.572436 -0.017453 0.000000 0.000000
 14 -2.904730 0.818864 2.596077 -0.002471 0.006107 -0.382975
 15 3.765303 -0.266408 -105.303307 0.017445 -0.006626 0.385211
 16 1.233751 0.818863 2.596077 -0.003229 -0.006785 0.438678
 17 -2.736667 -0.542170 -105.309532 0.017471 0.007558 -0.441260
 18 0.000000 -0.179234 2.752575 0.715586 0.000000 0.000001
 19 0.749370 -1.299137 28.624327 0.698132 -0.000001 0.000001
 20 -0.383533 17.841385 -5.153099 -0.174533 0.000000 0.000000
 21 0.341385 5.572283 -21.207756 -0.174532 0.000000 -0.000000
 22 -1.270981 0.784906 10.690901 0.000000 -0.000000 0.000000
 23 -8.160084 -0.723731 19.345650 -0.480510 0.186200 -0.095799
 24 -15.198612 0.466471 -18.278643 0.140032 -0.291140 0.634036
 25 -8.028439 -4.482522 -11.667112 -0.271619 0.244372 -0.041531
 26 12.923029 -2.845224 33.993767 -0.194136 1.553272 -0.071455
 27 35.457333 5.719481 -83.014832 0.000000 -0.000000 0.000000
 28 -3.175095 -2.066475 -5.742239 0.000000 -0.000000 0.000000
 29 9.450655 -0.516974 19.516209 -0.598062 0.066598 -0.324414
 30 14.230841 0.232841 -18.395628 0.318337 -0.128727 0.087543
 31 8.015631 -4.458893 -11.817966 -0.088245 -0.076199 -0.105809
 32 2.087147 -1.667404 -5.327333 0.000000 -0.000000 0.000000
 33 0.319299 -0.756849 2.981504 0.000000 -0.000000 0.000000
 34 -2.465699 3.693841 194.748917 0.000000 -0.000000 0.000000
time 15
  0 -2.629148 1.415440 -0.352036 0.000000 -0.000000 0.000000
  1 -2.629148 1.415440 -0.352036 0.000000 -0.000000 0.000000
  2 -2.629148 1.415440 1.020493 0.000000 -0.000000 0.000000
  3 0.000000 -0.687185 -25.446224 0.034907 0.000000 0.000000
  4 0.000000 0.440305 -2.731791 -0.366519 0.000000 -0.000000
  5 -8.065217 -1.301252 -17.282543 -0.117611 0.103397 -0.142897
  6 -0.883781 2.065767 -34.200714 2.010372 0.011053 0.250433
  7 -1.767048 1.039490 -33.503738 -0.292388 -0.049164 -0.003695
  8 0.410546 -3.053429 -6.308689 0.000000 -0.000000 0.000000
  9 8.638525 -0.139325 -16.632999 -0.068305 -0.155899 -0.019300
 10 1.058086 0.932507 -35.061913 2.005691 0.180138 -0.092650
 11 1.221056 1.156227 -33.292126 -0.260399 0.006793 0.020443
 12 0.085378 -3.198822 -6.249954 0.000000 -0.000000 0.000000
 13 0.213274 2.786515 7.572437 -0.017453 0.000000 0.000000
 14 -2.904730 0.818865 2.596076 -0.002471 0.006107 -0.382975
 15 3.765305 -0.266411 -105.303314 0.017445 -0.006626 0.385211
 16 1.233752 0.818863 2.596077 -0.003229 -0.006785 0.438678
 17 -2.736669 -0.542180 -105.309532 0.017471 0.007558 -0.441260
 18 0.000000 -0.179234 2.752575 0.715586 0.000000 0.000001
 19 0.749370 -1.299138 28.624325 0.698132 -0.000001 0.000001
 20 -0.383533 17.841385 -5.153097 -0.174533 0.000000 0.000000
 21 0.341385 5.572279 -21.207756 -0.174532 0.000000 -0.000000
 22 -1.270981 0.784905 10.690903 0.000000 -0.000000 0.000000
 23 -8.160084 -0.723731 19.345650 -0.480510 0.186199 -0.095799
 24 -15.198608 0.466470 -18.278645 0.140032 -0.291140 0.634036
 25 -8.028439 -4.482519 -11.667112 -0.271619 0.244372 -0.041531
 26 15.062790 -2.896902 40.411880 -0.212296 1.661379 -0.083657
 27 35.457333 5.719505 -83.014832 0.000000 -0.000000 0.000000
 28 -3.175087 -2.066476 -5.742237 0.000000 -0.000000 0.000000
 29 9.450655 -0.516975 19.516207 -0.598062 0.066598 -0.324414
 30 14.230842 0.232842 -18.395634 0.318337 -0.128727 0.087543
 31 8.015631 -4.458889 -11.817968 -0.088245 -0.076199 -0.105809
 32 2.087151 -1.667406 -5.327339 0.000000 -0.000000 0.000000
 33 0.319299 -0.756850 2.981503 0.000000 -0.000000 0.000000
 34 -2.465699 3.693841 194.748917 0.000000 -0.000000 0.000000
time 16
  0 -2.629148 1.415440 -0.352036 0.000000 -0.000000 0.000000
  1 -2.629148 1.415440 -0.352036 0.000000 -0.000000 0.000000
  2 -2.629148 1.415440 1.157542 0.000000 -0.000000 0.000000
  3 0.000000 -0.687185 -32.843513 0.034907 0.000000 0.000000
  4 0.000000 0.440305 -2.731794 -0.366519 0.000000 -0.000000
  5 -8.065216 -1.301253 -17.282547 -0.117611 0.103397 -0.142897
  6 -0.883781 2.065765 -34.200706 2.010372 0.011053 0.250433
  7 -1.767048 1.039482 -33.503738 -0.292388 -0.049164 -0.003695
  8 0.410547 -3.053429 -6.308689 0.000000 -0.000000 0.000000
  9 8.638525 -0.139325 -16.633003 -0.068305 -0.155899 -0.019300
 10 1.058086 0.932508 -35.061913 2.005691 0.180137 -0.092650
 11 1.221057 1.156227 -33.292126 -0.260399 0.006793 0.020443
 12 0.085378 -3.198830 -6.249958 0.000000 -0.000000 0.000000
 13 0.213274 2.786514 7.572433 -0.017453 0.000000 0.000000
 14 -2.904730 0.818865 2.596075 -0.002471 0.006107 -0.382975
 15 3.765306 -0.266416 -105.303314 0.017445 -0.006626 0.385211
 16 1.233752 0.818863 2.596075 -0.003229 -0.006785 0.438678
 17 -2.736667 -0.542176 -105.309570 0.017471 0.007558 -0.441260
 18 -0.000000 -0.179234 2.752575 0.715586 0.000000 0.000001
 19 0.749370 -1.299139 28.624327 0.698132 -0.000001 0.000001
 20 -0.383533 17.841385 -5.153097 -0.174533 0.000000 0.000000
 21 0.341385 5.572279 -21.207756 -0.174532 0.000000 -0.000000
 22 -1.270981 0.784906 10.690903 0.000000 -0.000000 0.000000
 23 -8.160084 -0.723730 19.345652 -0.480510 0.186200 -0.095799
 24 -15.198609 0.466471 -18.278645 0.140032 -0.291140 0.634036
 25 -8.028439 -4.482522 -11.667114 -0.271619 0.244372 -0.041531
 26 16.833269 -2.851560 46.033791 -0.215297 1.683805 -0.085442
 27 35.457336 5.719501 -83.014839 0.000000 -0.000000 0.000000
 28 -3.175098 -2.066476 -5.742241 0.000000 -0.000000 0.000000
 29 9.450655 -0.516975 19.516209 -0.598062 0.066598 -0.324414
 30 14.230843 0.232842 -18.395622 0.318337 -0.128727 0.087543
 31 8.015633 -4.458891 -11.817963 -0.088245 -0.076199 -0.105809
 32 2.087147 -1.667404 -5.327335 0.000000 -0.000000 0.000000
 33 0.319299 -0.756849 2.981504 0.000000 -0.000000 0.000000
 34 -2.465699 3.693841 194.748917 0.000000 -0.000000 0.000000
time 17
  0 -2.629148 1.415440 -0.352036 0.000000 -0.000000 0.000000
  1 -2.629148 1.415440 -0.352036 0.000000 -0.000000 0.000000
  2 -2.629148 1.415440 1.293371 0.000000 -0.000000 0.000000
  3 0.000000 -0.687185 -40.184162 0.034907 0.000000 0.000000
  4 0.000000 0.440305 -2.731789 -0.366519 0.000000 -0.000000
  5 -8.065217 -1.301253 -17.282543 -0.117611 0.103397 -0.142897
  6 -0.883781 2.065767 -34.200710 2.010372 0.011053 0.250433
  7 -1.767048 1.039482 -33.503738 -0.292387 -0.049164 -0.003695
  8 0.410545 -3.053429 -6.308685 0.000000 -0.000000 0.000000
  9 8.638525 -0.139325 -16.632999 -0.068306 -0.155899 -0.019300
 10 1.058085 0.932508 -35.061916 2.005691 0.180137 -0.092650
 11 1.221061 1.156227 -33.292122 -0.260399 0.006793 0.020443
 12 0.085376 -3.198822 -6.249958 0.000000 -0.000000 0.000000
 13 0.213274 2.786514 7.572437 -0.017453 0.000000 0.000000
 14 -2.904730 0.818865 2.596073 -0.002471 0.006107 -0.382975
 15 3.765303 -0.266411 -105.303314 0.017445 -0.006626 0.385211
 16 1.233752 0.818863 2.596075 -0.003229 -0.006785 0.438678
 17 -2.736670 -0.542175 -105.309540 0.017471 0.007558 -0.441260
 18 0.000000 -0.179234 2.752579 0.715586 0.000000 0.000001
 19 0.749370 -1.299139 28.624327 0.698132 -0.000001 0.000001
 20 -0.383533 17.841385 -5.153097 -0.174533 0.000000 0.000000
 21 0.341385 5.572280 -21.207756 -0.174532 0.000000 -0.000000
 22 -1.270981 0.784904 10.690903 0.000000 -0.000000 0.000000
 23 -8.160084 -0.723732 19.345650 -0.480510 0.186200 -0.095799
 24 -15.198609 0.466471 -18.278643 0.140032 -0.291140 0.634036
 25 -8.028439 -4.482523 -11.667118 -0.271619 0.244372 -0.041531
 26 18.616411 -2.093775 51.945568 -0.205717 1.684216 -0.075874
 27 35.457321 5.719514 -83.014816 0.000000 -0.000000 0.000000
 28 -3.175095 -2.066474 -5.742237 0.000000 -0.000000 0.000000
 29 9.450655 -0.516975 19.516209 -0.598062 0.066598 -0.324414
 30 14.230844 0.232842 -18.395634 0.318337 -0.128727 0.087543
 31 8.015629 -4.458895 -11.817963 -0.088245 -0.076199 -0.105809
 32 2.087147 -1.667408 -5.327335 0.000000 -0.000000 0.000000
 33 0.319299 -0.756851 2.981503 0.000000 -0.000000 0.000000
 34 -2.465699 3.693841 194.748917 0.000000 -0.000000 0.000000
time 18
  0 -2.629148 1.415440 -0.352036 0.000000 -0.000000 0.000000
  1 -2.629148 1.415440 -0.352036 0.000000 -0.000000 0.000000
  2 -2.629148 1.415440 1.426761 0.000000 -0.000000 0.000000
  3 0.000000 -0.687185 -47.698280 0.034907 0.000000 0.000000
  4 0.000000 0.440305 -2.731792 -0.366519 0.000000 -0.000000
  5 -8.065216 -1.301255 -17.282543 -0.117611 0.103397 -0.142897
  6 -0.883781 2.065769 -34.200714 2.010372 0.011053 0.250433
  7 -1.767047 1.039482 -33.503738 -0.292388 -0.049164 -0.003695
  8 0.410547 -3.053429 -6.308689 0.000000 -0.000000 0.000000
  9 8.638525 -0.139328 -16.632999 -0.068305 -0.155899 -0.019300
 10 1.058087 0.932507 -35.061909 2.005691 0.180137 -0.092650
 11 1.221057 1.156227 -33.292122 -0.260399 0.006793 0.020443
 12 0.085379 -3.198822 -6.249958 0.000000 -0.000000 0.000000
 13 0.213274 2.786512 7.572433 -0.017453 0.000000 0.000000
 14 -2.904730 0.818865 2.596077 -0.002471 0.006107 -0.382975
 15 3.765302 -0.266403 -105.303329 0.017445 -0.006626 0.385211
 16 1.233752 0.818863 2.596077 -0.003229 -0.006785 0.438678
 17 -2.736665 -0.542171 -105.309540 0.017471 0.007558 -0.441260
 18 0.000000 -0.179234 2.752579 0.715586 0.000000 0.000001
 19 0.749370 -1.299139 28.624325 0.698132 -0.000001 0.000001
 20 -0.383533 17.841385 -5.153097 -0.174533 0.000000 0.000000
 21 0.341385 5.572280 -21.207756 -0.174532 0.000000 -0.000000
 22 -1.270981 0.784906 10.690903 0.000000 -0.000000 0.000000
 23 -8.160084 -0.723730 19.345650 -0.480510 0.186200 -0.095799
 24 -15.198605 0.466469 -18.278641 0.140032 -0.291140 0.634036
 25 -8.028442 -4.482525 -11.667118 -0.271619 0.244372 -0.041531
 26 20.512257 -0.554832 58.388702 -0.186260 1.684588 -0.056443
 27 35.457336 5.719511 -83.014824 0.000000 -0.000000 0.000000
 28 -3.175095 -2.066472 -5.742237 0.000000 -0.000000 0.000000
 29 9.450655 -0.516975 19.516205 -0.598062 0.066598 -0.324414
 30 14.230843 0.232841 -18.395634 0.318337 -0.128727 0.087543
 31 8.015629 -4.458893 -11.817966 -0.088245 -0.076199 -0.105809
 32 2.087149 -1.667404 -5.327335 0.000000 -0.000000 0.000000
 33 0.319299 -0.756851 2.981501 0.000000 -0.000000 0.000000
 34 -2.465699 3.693841 194.748917 0.000000 -0.000000 0.000000
time 19
  0 -2.629148 1.415440 -0.352036 0.000000 -0.000000 0.000000
  1 -2.629148 1.415440 -0.352036 0.000000 -0.000000 0.000000
  2 -2.629148 1.415440 1.556490 0.000000 -0.000000 0.000000
  3 0.000000 -0.687185 -55.271049 0.034907 0.000000 0.000000
  4 0.000000 0.440305 -2.731792 -0.366519 0.000000 -0.000000
  5 -8.065216 -1.301254 -17.282543 -0.117611 0.103397 -0.142897
  6 -0.883781 2.065769 -34.200714 2.010372 0.011053 0.250433
  7 -1.767048 1.039490 -33.503738 -0.292388 -0.049164 -0.003695
  8 0.410545 -3.053413 -6.308685 0.000000 -0.000000 0.000000
  9 8.638525 -0.139324 -16.633007 -0.068306 -0.155899 -0.019300
 10 1.058087 0.932505 -35.061913 2.005691 0.180137 -0.092650
 11 1.221057 1.156219 -33.292122 -0.260399 0.006793 0.020443
 12 0.085379 -3.198822 -6.249954 0.000000 -0.000000 0.000000
 13 0.213274 2.786516 7.572433 -0.017453 0.000000 0.000000
 14 -2.904730 0.818865 2.596077 -0.002471 0.006107 -0.382975
 15 3.765305 -0.266407 -105.303322 0.017445 -0.006626 0.385211
 16 1.233752 0.818863 2.596077 -0.003229 -0.006785 0.438678
 17 -2.736666 -0.542166 -105.309555 0.017471 0.007558 -0.441260
 18 -0.000000 -0.179234 2.752575 0.715586 0.000000 0.000001
 19 0.749370 -1.299141 28.624325 0.698132 -0.000001 0.000001
 20 -0.383533 17.841385 -5.153099 -0.174533 0.000000 0.000000
 21 0.341385 5.572281 -21.207756 -0.174532 0.000000 -0.000000
 22 -1.270981 0.784904 10.690901 0.000000 -0.000000 0.000000
 23 -8.160084 -0.723732 19.345650 -0.480510 0.186200 -0.095799
 24 -15.198604 0.466467 -18.278641 0.140032 -0.291140 0.634036
 25 -8.028442 -4.482528 -11.667118 -0.271619 0.244372 -0.041531
 26 22.481602 1.631249 65.208008 -0.158622 1.684919 -0.028840
 27 35.457333 5.719510 -83.014816 0.000000 -0.000000 0.000000
 28 -3.175091 -2.066471 -5.742241 0.000000 -0.000000 0.000000
 29 9.450655 -0.516975 19.516209 -0.598062 0.066598 -0.324414
 30 14.230843 0.232841 -18.395634 0.318337 -0.128727 0.087543
 31 8.015633 -4.458893 -11.817970 -0.088245 -0.076199 -0.105809
 32 2.087147 -1.667402 -5.327335 0.000000 -0.000000 0.000000
 33 0.319298 -0.756855 2.981503 0.000000 -0.000000 0.000000
 34 -2.465699 3.693841 194.748917 0.000000 -0.000000 0.000000
time 20
  0 -2.629148 1.415440 -0.352036 0.000000 -0.000000 0.000000
  1 -2.629148 1.415440 -0.352036 0.000000 -0.000000 0.000000
  2 -2.629148 1.415440 1.681340 0.000000 -0.000000 0.000000
  3 0.000000 -0.687185 -62.787663 0.034907 0.000000 0.000000
  4 0.000000 0.440305 -2.731792 -0.366519 0.000000 -0.000000
  5 -8.065217 -1.301252 -17.282551 -0.117611 0.103397 -0.142897
  6 -0.883782 2.065773 -34.200722 2.010372 0.011053 0.250433
  7 -1.767048 1.039490 -33.503738 -0.292388 -0.049164 -0.003695
  8 0.410545 -3.053421 -6.308685 0.000000 -0.000000 0.000000
  9 8.638525 -0.139322 -16.633007 -0.068305 -0.155899 -0.019300
 10 1.058087 0.932503 -35.061905 2.005691 0.180137 -0.092650
 11 1.221060 1.156227 -33.292130 -0.260399 0.006793 0.020443
 12 0.085377 -3.198822 -6.249954 0.000000 -0.000000 0.000000
 13 0.213274 2.786516 7.572433 -0.017453 0.000000 0.000000
 14 -2.904730 0.818865 2.596073 -0.002471 0.006107 -0.382975
 15 3.765304 -0.266411 -105.303314 0.017445 -0.006626 0.385211
 16 1.233752 0.818865 2.596073 -0.003229 -0.006785 0.438678
 17 -2.736666 -0.542168 -105.309547 0.017471 0.007558 -0.441260
 18 -0.000000 -0.179234 2.752579 0.715586 0.000000 0.000001
 19 0.749370 -1.299141 28.624329 0.698132 -0.000001 0.000001
 20 -0.383533 17.841381 -5.153098 -0.174533 0.000000 0.000000
 21 0.341385 5.572277 -21.207756 -0.174532 0.000000 -0.000000
 22 -1.270981 0.784901 10.690901 0.000000 -0.000000 0.000000
 23 -8.160084 -0.723736 19.345654 -0.480510 0.186200 -0.095799
 24 -15.198610 0.466467 -18.278645 0.140032 -0.291140 0.634036
 25 -8.028439 -4.482521 -11.667118 -0.271619 0.244372 -0.041531
 26 24.485268 4.330415 72.248337 -0.124498 1.685212 0.005241
 27 35.457325 5.719507 -83.014824 0.000000 -0.000000 0.000000
 28 -3.175095 -2.066472 -5.742233 0.000000 -0.000000 0.000000
 29 9.450655 -0.516979 19.516209 -0.598062 0.066598 -0.324414
 30 14.230843 0.232841 -18.395630 0.318337 -0.128727 0.087543
 31 8.015631 -4.458893 -11.817966 -0.088245 -0.076199 -0.105809
 32 2.087151 -1.667412 -5.327339 0.000000 -0.000000 0.000000
 33 0.319299 -0.756855 2.981503 0.000000 -0.000000 0.000000
 34 -2.465699 3.693841 194.748917 0.000000 -0.000000 0.000000
time 21
  0 -2.629148 1.415440 -0.352036 0.000000 -0.000000 0.000000
  1 -2.629148 1.415440 -0.352036 0.000000 -0.000000 0.000000
  2 -2.629148 1.415440 1.800088 0.000000 -0.000000 0.000000
  3 0.000000 -0.687185 -70.133316 0.034907 0.000000 0.000000
  4 0.000000 0.440305 -2.731789 -0.366519 0.000000 -0.000000
  5 -8.065216 -1.301250 -17.282555 -0.117611 0.103397 -0.142897
  6 -0.883781 2.065769 -34.200714 2.010372 0.011053 0.250433
  7 -1.767048 1.039482 -33.503738 -0.292388 -0.049164 -0.003695
  8 0.410547 -3.053429 -6.308689 0.000000 -0.000000 0.000000
  9 8.638525 -0.139324 -16.633011 -0.068306 -0.155899 -0.019300
 10 1.058087 0.932508 -35.061913 2.005691 0.180137 -0.092650
 11 1.221057 1.156227 -33.292137 -0.260399 0.006793 0.020443
 12 0.085377 -3.198814 -6.249954 0.000000 -0.000000 0.000000
 13 0.213274 2.786516 7.572433 -0.017453 0.000000 0.000000
 14 -2.904730 0.818863 2.596077 -0.002471 0.006107 -0.382975
 15 3.765302 -0.266397 -105.303322 0.017445 -0.006626 0.385211
 16 1.233752 0.818863 2.596077 -0.003229 -0.006785 0.438678
 17 -2.736666 -0.542170 -105.309555 0.017471 0.007558 -0.441260
 18 0.000000 -0.179234 2.752571 0.715586 0.000000 0.000001
 19 0.749370 -1.299141 28.624325 0.698132 -0.000001 0.000001
 20 -0.383533 17.841381 -5.153099 -0.174533 0.000000 0.000000
 21 0.341385 5.572279 -21.207756 -0.174532 0.000000 -0.000000
 22 -1.270981 0.784901 10.690901 0.000000 -0.000000 0.000000
 23 -8.160084 -0.723732 19.345650 -0.480510 0.186200 -0.095799
 24 -15.198610 0.466469 -18.278641 0.140032 -0.291140 0.634036
 25 -8.028442 -4.482523 -11.667114 -0.271619 0.244372 -0.041531
 26 26.484089 7.408665 79.354546 -0.085580 1.685470 0.044109
 27 35.457333 5.719505 -83.014839 0.000000 -0.000000 0.000000
 28 -3.175091 -2.066475 -5.742226 0.000000 -0.000000 0.000000
 29 9.450655 -0.516979 19.516205 -0.598062 0.066598 -0.324414
 30 14.230839 0.232841 -18.395626 0.318337 -0.128727 0.087543
 31 8.015631 -4.458893 -11.817963 -0.088245 -0.076199 -0.105809
 32 2.087147 -1.667404 -5.327339 0.000000 -0.000000 0.000000
 33 0.319299 -0.756855 2.981503 0.000000 -0.000000 0.000000
 34 -2.465699 3.693841 194.748917 0.000000 -0.000000 0.000000
time 22
  0 -2.629148 1.415440 -0.352036 0.000000 -0.000000 0.000000
  1 -2.629148 1.415440 -0.352036 0.000000 -0.000000 0.000000
  2 -2.629148 1.415440 1.911517 0.000000 -0.000000 0.000000
  3 0.000000 -0.687185 -77.193176 0.034907 0.000000 0.000000
  4 0.000000 0.440305 -2.731789 -0.366519 0.000000 -0.000000
  5 -8.065217 -1.301250 -17.282555 -0.117611 0.103397 -0.142897
  6 -0.883782 2.065769 -34.200722 2.010372 0.011053 0.250433
  7 -1.767048 1.039490 -33.503738 -0.292388 -0.049164 -0.003695
  8 0.410545 -3.053421 -6.308689 0.000000 -0.000000 0.000000
  9 8.638525 -0.139324 -16.633011 -0.068306 -0.155899 -0.019300
 10 1.058086 0.932503 -35.061905 2.005691 0.180137 -0.092650
 11 1.221058 1.156219 -33.292126 -0.260399 0.006793 0.020443
 12 0.085379 -3.198822 -6.249954 0.000000 -0.000000 0.000000
 13 0.213274 2.786516 7.572426 -0.017453 0.000000 0.000000
 14 -2.904730 0.818863 2.596077 -0.002471 0.006107 -0.382975
 15 3.765305 -0.266409 -105.303329 0.017445 -0.006626 0.385211
 16 1.233751 0.818863 2.596077 -0.003229 -0.006785 0.438678
 17 -2.736665 -0.542173 -105.309547 0.017471 0.007558 -0.441260
 18 -0.000000 -0.179234 2.752571 0.715586 0.000000 0.000001
 19 0.749370 -1.299141 28.624325 0.698132 -0.000001 0.000001
 20 -0.383533 17.841385 -5.153097 -0.174533 0.000000 0.000000
 21 0.341385 5.572281 -21.207756 -0.174532 0.000000 -0.000000
 22 -1.270981 0.784901 10.690903 0.000000 -0.000000 0.000000
 23 -8.160084 -0.723732 19.345650 -0.480510 0.186200 -0.095799
 24 -15.198609 0.466471 -18.278645 0.140032 -0.291140 0.634036
 25 -8.028439 -4.482523 -11.667122 -0.271619 0.244372 -0.041531
 26 28.438858 10.731915 86.371452 -0.043565 1.685693 0.086070
 27 35.457325 5.719524 -83.014809 0.000000 -0.000000 0.000000
 28 -3.175091 -2.066474 -5.742226 0.000000 -0.000000 0.000000
 29 9.450655 -0.516979 19.516209 -0.598062 0.066598 -0.324414
 30 14.230841 0.232841 -18.395634 0.318337 -0.128727 0.087543
 31 8.015629 -4.458893 -11.817970 -0.088245 -0.076199 -0.105809
 32 2.087151 -1.667404 -5.327332 0.000000 -0.000000 0.000000
 33 0.319299 -0.756855 2.981503 0.000000 -0.000000 0.000000
 34 -2.465699 3.693841 194.748917 0.000000 -0.000000 0.000000
time 23
  0 -2.629148 1.415440 -0.352036 0.000000 -0.000000 0.000000
  1 -2.629148 1.415440 -0.352036 0.000000 -0.000000 0.000000
  2 -2.629148 1.415440 2.014406 0.000000 -0.000000 0.000000
  3 0.000000 -0.687185 -83.852448 0.034907 0.000000 0.000000
  4 0.000000 0.440305 -2.731789 -0.366519 0.000000 -0.000000
  5 -8.065216 -1.301250 -17.282555 -0.117611 0.103397 -0.142897
  6 -0.883781 2.065769 -34.200706 2.010372 0.011053 0.250433
  7 -1.767050 1.039505 -33.503738 -0.292387 -0.049164 -0.003695
  8 0.410547 -3.053429 -6.308689 0.000000 -0.000000 0.000000
  9 8.638525 -0.139324 -16.633011 -0.068306 -0.155899 -0.019300
 10 1.058086 0.932507 -35.061913 2.005691 0.180137 -0.092650
 11 1.221057 1.156235 -33.292130 -0.260399 0.006793 0.020443
 12 0.085377 -3.198822 -6.249962 0.000000 -0.000000 0.000000
 13 0.213274 2.786516 7.572426 -0.017453 0.000000 0.000000
 14 -2.904730 0.818863 2.596077 -0.002471 0.006107 -0.382975
 15 3.765307 -0.266405 -105.303314 0.017445 -0.006626 0.385211
 16 1.233751 0.818863 2.596077 -0.003229 -0.006785 0.438678
 17 -2.736665 -0.542168 -105.309532 0.017471 0.007558 -0.441260
 18 0.000000 -0.179234 2.752571 0.715586 0.000000 0.000001
 19 0.749370 -1.299141 28.624325 0.698132 -0.000001 0.000001
 20 -0.383533 17.841385 -5.153099 -0.174533 0.000000 0.000000
 21 0.341385 5.572281 -21.207756 -0.174532 0.000000 -0.000000
 22 -1.270981 0.784901 10.690901 0.000000 -0.000000 0.000000
 23 -8.160085 -0.723740 19.345650 -0.480510 0.186200 -0.095799
 24 -15.198610 0.466469 -18.278645 0.140032 -0.291140 0.634036
 25 -8.028439 -4.482521 -11.667110 -0.271619 0.244372 -0.041531
 26 30.310421 14.166178 93.143936 -0.000147 1.685883 0.129432
 27 35.457340 5.719513 -83.014824 0.000000 -0.000000 0.000000
 28 -3.175102 -2.066473 -5.742233 0.000000 -0.000000 0.000000
 29 9.450655 -0.516979 19.516209 -0.598062 0.066598 -0.324414
 30 14.230843 0.232843 -18.395622 0.318337 -0.128727 0.087543
 31 8.015629 -4.458893 -11.817963 -0.088245 -0.076199 -0.105809
 32 2.087147 -1.667404 -5.327332 0.000000 -0.000000 0.000000
 33 0.319298 -0.756855 2.981503 0.000000 -0.000000 0.000000
 34 -2.465699 3.693841 194.748917 0.000000 -0.000000 0.000000
time 24
  0 -2.629148 1.415440 -0.352036 0.000000 -0.000000 0.000000
  1 -2.629148 1.415440 -0.352036 0.000000 -0.000000 0.000000
  2 -2.629148 1.415440 2.107535 0.000000 -0.000000 0.000000
  3 0.000000 -0.687185 -89.996323 0.034907 0.000000 0.000000
  4 0.000000 0.440305 -2.731789 -0.366519 0.000000 -0.000000
  5 -8.065216 -1.301252 -17.282555 -0.117611 0.103397 -0.142897
  6 -0.883782 2.065765 -34.200699 2.010372 0.011053 0.250433
  7 -1.767050 1.039505 -33.503738 -0.292388 -0.049164 -0.003695
  8 0.410547 -3.053421 -6.308693 0.000000 -0.000000 0.000000
  9 8.638525 -0.139326 -16.633011 -0.068306 -0.155899 -0.019300
 10 1.058084 0.932507 -35.061920 2.005691 0.180137 -0.092650
 11 1.221058 1.156219 -33.292122 -0.260399 0.006793 0.020443
 12 0.085375 -3.198837 -6.249958 0.000000 -0.000000 0.000000
 13 0.213274 2.786512 7.572433 -0.017453 0.000000 0.000000
 14 -2.904730 0.818859 2.596069 -0.002471 0.006107 -0.382975
 15 3.765299 -0.266405 -105.303322 0.017445 -0.006626 0.385211
 16 1.233751 0.818859 2.596069 -0.003229 -0.006785 0.438678
 17 -2.736666 -0.542168 -105.309547 0.017471 0.007558 -0.441260
 18 0.000000 -0.179234 2.752571 0.715586 0.000000 0.000001
 19 0.749370 -1.299141 28.624329 0.698132 -0.000001 0.000001
 20 -0.383533 17.841389 -5.153097 -0.174533 0.000000 0.000000
 21 0.341385 5.572281 -21.207756 -0.174532 0.000000 -0.000000
 22 -1.270981 0.784904 10.690903 0.000000 -0.000000 0.000000
 23 -8.160084 -0.723732 19.345654 -0.480510 0.186200 -0.095799
 24 -15.198606 0.466471 -18.278641 0.140032 -0.291140 0.634036
 25 -8.028442 -4.482525 -11.667114 -0.271619 0.244372 -0.041531
 26 32.059547 17.577393 99.516808 0.042981 1.686043 0.172504
 27 35.457333 5.719521 -83.014824 0.000000 -0.000000 0.000000
 28 -3.175091 -2.066473 -5.742226 0.000000 -0.000000 0.000000
 29 9.450655 -0.516975 19.516209 -0.598062 0.066598 -0.324414
 30 14.230844 0.232843 -18.395630 0.318337 -0.128727 0.087543
 31 8.015633 -4.458893 -11.817963 -0.088245 -0.076199 -0.105809
 32 2.087147 -1.667404 -5.327339 0.000000 -0.000000 0.000000
 33 0.319299 -0.756851 2.981503 0.000000 -0.000000 0.000000
 34 -2.465699 3.693841 194.748917 0.000000 -0.000000 0.000000
time 25
  0 -2.629148 1.415440 -0.352036 0.000000 -0.000000 0.000000
  1 -2.629148 1.415440 -0.352036 0.000000 -0.000000 0.000000
  2 -2.629148 1.415440 2.189683 0.000000 -0.000000 0.000000
  3 0.000000 -0.687185 -95.509979 0.034907 0.000000 0.000000
  4 0.000000 0.440305 -2.731789 -0.366519 0.000000 -0.000000
  5 -8.065217 -1.301254 -17.282555 -0.117611 0.103397 -0.142897
  6 -0.883782 2.065769 -34.200714 2.010372 0.011053 0.250433
  7 -1.767048 1.039490 -33.503738 -0.292388 -0.049164 -0.003695
  8 0.410545 -3.053421 -6.308689 0.000000 -0.000000 0.000000
  9 8.638525 -0.139328 -16.633011 -0.068306 -0.155899 -0.019300
 10 1.058086 0.932507 -35.061913 2.005691 0.180137 -0.092650
 11 1.221054 1.156235 -33.292133 -0.260399 0.006793 0.020443
 12 0.085377 -3.198837 -6.249958 0.000000 -0.000000 0.000000
 13 0.213274 2.786510 7.572433 -0.017453 0.000000 0.000000
 14 -2.904730 0.818863 2.596077 -0.002471 0.006107 -0.382975
 15 3.765302 -0.266403 -105.303322 0.017445 -0.006626 0.385211
 16 1.233751 0.818859 2.596077 -0.003229 -0.006785 0.438678
 17 -2.736667 -0.542171 -105.309547 0.017471 0.007558 -0.441260
 18 -0.000000 -0.179234 2.752571 0.715586 0.000000 0.000001
 19 0.749370 -1.299137 28.624321 0.698132 -0.000001 0.000001
 20 -0.383533 17.841385 -5.153098 -0.174533 0.000000 0.000000
 21 0.341385 5.572281 -21.207756 -0.174532 0.000000 -0.000000
 22 -1.270981 0.784904 10.690904 0.000000 -0.000000 0.000000
 23 -8.160084 -0.723732 19.345646 -0.480510 0.186200 -0.095799
 24 -15.198610 0.466469 -18.278641 0.140032 -0.291140 0.634036
 25 -8.028439 -4.482519 -11.667107 -0.271619 0.244372 -0.041531
 26 33.647099 20.831566 105.334953 0.084122 1.686173 0.213593
 27 35.457333 5.719505 -83.014824 0.000000 -0.000000 0.000000
 28 -3.175091 -2.066475 -5.742233 0.000000 -0.000000 0.000000
 29 9.450655 -0.516975 19.516201 -0.598062 0.066598 -0.324414
 30 14.230839 0.232841 -18.395630 0.318337 -0.128727 0.087543
 31 8.015629 -4.458893 -11.817970 -0.088245 -0.076199 -0.105809
 32 2.087151 -1.667404 -5.327339 0.000000 -0.000000 0.000000
 33 0.319299 -0.756851 2.981495 0.000000 -0.000000 0.000000
 34 -2.465699 3.693841 194.748917 0.000000 -0.000000 0.000000
time 26
  0 -2.629148 1.415440 -0.352036 0.000000 -0.000000 0.000000
  1 -2.629148 1.415440 -0.352036 0.000000 -0.000000 0.000000
  2 -2.629148 1.415440 2.259631 0.000000 -0.000000 0.000000
  3 0.000000 -0.687185 -100.278603 0.034907 0.000000 0.000000
  4 0.000000 0.440305 -2.731789 -0.366519 0.000000 -0.000000
  5 -8.065217 -1.301254 -17.282555 -0.117611 0.103397 -0.142897
  6 -0.883782 2.065765 -34.200706 2.010372 0.011053 0.250433
  7 -1.767050 1.039490 -33.503738 -0.292388 -0.049164 -0.003695
  8 0.410547 -3.053421 -6.308689 0.000000 -0.000000 0.000000
  9 8.638525 -0.139328 -16.633011 -0.068306 -0.155899 -0.019300
 10 1.058085 0.932510 -35.061905 2.005691 0.180137 -0.092650
 11 1.221058 1.156235 -33.292130 -0.260399 0.006793 0.020443
 12 0.085377 -3.198822 -6.249954 0.000000 -0.000000 0.000000
 13 0.213274 2.786510 7.572433 -0.017453 0.000000 0.000000
 14 -2.904730 0.818863 2.596085 -0.002471 0.006107 -0.382975
 15 3.765303 -0.266399 -105.303322 0.017445 -0.006626 0.385211
 16 1.233751 0.818863 2.596085 -0.003229 -0.006785 0.438678
 17 -2.736665 -0.542175 -105.309540 0.017471 0.007558 -0.441260
 18 0.000000 -0.179234 2.752571 0.715586 0.000000 0.000001
 19 0.749370 -1.299141 28.624321 0.698132 -0.000001 0.000001
 20 -0.383533 17.841389 -5.153098 -0.174533 0.000000 0.000000
 21 0.341385 5.572281 -21.207756 -0.174532 0.000000 -0.000000
 22 -1.270981 0.784904 10.690902 0.000000 -0.000000 0.000000
 23 -8.160085 -0.723732 19.345646 -0.480510 0.186200 -0.095799
 24 -15.198610 0.466465 -18.278648 0.140032 -0.291140 0.634036
 25 -8.028439 -4.482529 -11.667114 -0.271619 0.244372 -0.041531
 26 35.033852 23.794609 110.443130 0.121584 1.686277 0.251006
 27 35.457333 5.719527 -83.014824 0.000000 -0.000000 0.000000
 28 -3.175095 -2.066473 -5.742241 0.000000 -0.000000 0.000000
 29 9.450655 -0.516975 19.516205 -0.598062 0.066598 -0.324414
 30 14.230841 0.232841 -18.395630 0.318337 -0.128727 0.087543
 31 8.015625 -4.458893 -11.817955 -0.088245 -0.076199 -0.105809
 32 2.087143 -1.667404 -5.327339 0.000000 -0.000000 0.000000
 33 0.319299 -0.756851 2.981499 0.000000 -0.000000 0.000000
 34 -2.465699 3.693841 194.748917 0.000000 -0.000000 0.000000
time 27
  0 -2.629148 1.415440 -0.352036 0.000000 -0.000000 0.000000
  1 -2.629148 1.415440 -0.352036 0.000000 -0.000000 0.000000
  2 -2.629148 1.415440 2.316159 0.000000 -0.000000 0.000000
  3 0.000000 -0.687185 -104.187393 0.034907 0.000000 0.000000
  4 0.000000 0.440305 -2.731789 -0.366519 0.000000 -0.000000
  5 -8.065216 -1.301254 -17.282555 -0.117611 0.103397 -0.142897
  6 -0.883782 2.065769 -34.200714 2.010372 0.011053 0.250433
  7 -1.767048 1.039490 -33.503738 -0.292387 -0.049164 -0.003695
  8 0.410545 -3.053436 -6.308689 0.000000 -0.000000 0.000000
  9 8.638525 -0.139328 -16.633011 -0.068305 -0.155899 -0.019300
 10 1.058087 0.932507 -35.061913 2.005691 0.180137 -0.092650
 11 1.221060 1.156235 -33.292130 -0.260399 0.006793 0.020443
 12 0.085377 -3.198837 -6.249962 0.000000 -0.000000 0.000000
 13 0.213274 2.786510 7.572433 -0.017453 0.000000 0.000000
 14 -2.904730 0.818863 2.596077 -0.002471 0.006107 -0.382975
 15 3.765297 -0.266407 -105.303337 0.017445 -0.006626 0.385211
 16 1.233751 0.818863 2.596077 -0.003229 -0.006785 0.438678
 17 -2.736667 -0.542168 -105.309563 0.017471 0.007558 -0.441260
 18 0.000000 -0.179234 2.752571 0.715586 0.000000 0.000001
 19 0.749370 -1.299141 28.624321 0.698132 -0.000001 0.000001
 20 -0.383533 17.841385 -5.153098 -0.174533 0.000000 0.000000
 21 0.341385 5.572281 -21.207756 -0.174532 0.000000 -0.000000
 22 -1.270981 0.784904 10.690902 0.000000 -0.000000 0.000000
 23 -8.160084 -0.723732 19.345646 -0.480510 0.186200 -0.095799
 24 -15.198606 0.466469 -18.278648 0.140032 -0.291140 0.634036
 25 -8.028439 -4.482521 -11.667114 -0.271619 0.244372 -0.041531
 26 36.180653 26.332504 114.686272 0.153669 1.686353 0.283051
 27 35.457333 5.719509 -83.014824 0.000000 -0.000000 0.000000
 28 -3.175095 -2.066471 -5.742233 0.000000 -0.000000 0.000000
 29 9.450655 -0.516975 19.516201 -0.598062 0.066598 -0.324414
 30 14.230843 0.232841 -18.395630 0.318337 -0.128727 0.087543
 31 8.015631 -4.458893 -11.817970 -0.088245 -0.076199 -0.105809
 32 2.087147 -1.667400 -5.327339 0.000000 -0.000000 0.000000
 33 0.319298 -0.756851 2.981499 0.000000 -0.000000 0.000000
 34 -2.465699 3.693841 194.748917 0.000000 -0.000000 0.000000
time 28
  0 -2.629148 1.415440 -0.352036 0.000000 -0.000000 0.000000
  1 -2.629148 1.415440 -0.352036 0.000000 -0.000000 0.000000
  2 -2.629148 1.415440 2.358047 0.000000 -0.000000 0.000000
  3 0.000000 -0.687185 -107.121536 0.034907 0.000000 0.000000
  4 0.000000 0.440305 -2.731796 -0.366519 0.000000 -0.000000
  5 -8.065216 -1.301250 -17.282555 -0.117611 0.103397 -0.142897
  6 -0.883781 2.065769 -34.200714 2.010372 0.011053 0.250433
  7 -1.767050 1.039490 -33.503738 -0.292388 -0.049164 -0.003695
  8 0.410547 -3.053421 -6.308693 0.000000 -0.000000 0.000000
  9 8.638525 -0.139324 -16.633011 -0.068306 -0.155899 -0.019300
 10 1.058085 0.932514 -35.061920 2.005691 0.180137 -0.092650
 11 1.221060 1.156235 -33.292122 -0.260399 0.006793 0.020443
 12 0.085377 -3.198837 -6.249958 0.000000 -0.000000 0.000000
 13 0.213274 2.786514 7.572426 -0.017453 0.000000 0.000000
 14 -2.904730 0.818867 2.596077 -0.002471 0.006107 -0.382975
 15 3.765308 -0.266411 -105.303314 0.017445 -0.006626 0.385211
 16 1.233752 0.818867 2.596077 -0.003229 -0.006785 0.438678
 17 -2.736669 -0.542175 -105.309540 0.017471 0.007558 -0.441260
 18 0.000000 -0.179234 2.752571 0.715586 0.000000 0.000001
 19 0.749370 -1.299133 28.624325 0.698132 -0.000001 0.000001
 20 -0.383533 17.841385 -5.153098 -0.174533 0.000000 0.000000
 21 0.341385 5.572281 -21.207756 -0.174532 0.000000 -0.000000
 22 -1.270981 0.784904 10.690903 0.000000 -0.000000 0.000000
 23 -8.160084 -0.723732 19.345646 -0.480510 0.186200 -0.095799
 24 -15.198610 0.466469 -18.278641 0.140032 -0.291140 0.634036
 25 -8.028450 -4.482521 -11.667122 -0.271619 0.244372 -0.041531
 26 37.048328 28.311260 117.909203 0.178686 1.686406 0.308036
 27 35.457344 5.719510 -83.014832 0.000000 -0.000000 0.000000
 28 -3.175087 -2.066476 -5.742233 0.000000 -0.000000 0.000000
 29 9.450655 -0.516975 19.516205 -0.598062 0.066598 -0.324414
 30 14.230839 0.232841 -18.395638 0.318337 -0.128728 0.087543
 31 8.015631 -4.458893 -11.817970 -0.088245 -0.076199 -0.105809
 32 2.087147 -1.667412 -5.327339 0.000000 -0.000000 0.000000
 33 0.319299 -0.756851 2.981506 0.000000 -0.000000 0.000000
 34 -2.465699 3.693841 194.748917 0.000000 -0.000000 0.000000
time 29
  0 -2.629148 1.415440 -0.352036 0.000000 -0.000000 0.000000
  1 -2.629148 1.415440 -0.352036 0.000000 -0.000000 0.000000
  2 -2.629148 1.415440 2.384074 0.000000 -0.000000 0.000000
  3 0.000000 -0.687185 -108.966217 0.034907 0.000000 0.000000
  4 0.000000 0.440305 -2.731789 -0.366519 0.000000 -0.000000
  5 -8.065216 -1.301254 -17.282555 -0.117611 0.103397 -0.142897
  6 -0.883782 2.065765 -34.200706 2.010372 0.011053 0.250433
  7 -1.767050 1.039505 -33.503738 -0.292387 -0.049164 -0.003695
  8 0.410545 -3.053421 -6.308689 0.000000 -0.000000 0.000000
  9 8.638525 -0.139328 -16.633011 -0.068306 -0.155899 -0.019300
 10 1.058085 0.932507 -35.061913 2.005691 0.180137 -0.092650
 11 1.221056 1.156235 -33.292126 -0.260399 0.006793 0.020443
 12 0.085376 -3.198837 -6.249958 0.000000 -0.000000 0.000000
 13 0.213274 2.786514 7.572426 -0.017453 0.000000 0.000000
 14 -2.904730 0.818867 2.596069 -0.002471 0.006107 -0.382975
 15 3.765306 -0.266415 -105.303314 0.017445 -0.006626 0.385211
 16 1.233751 0.818867 2.596069 -0.003229 -0.006785 0.438678
 17 -2.736668 -0.542175 -105.309547 0.017471 0.007558 -0.441260
 18 0.000000 -0.179234 2.752571 0.715586 0.000000 0.000001
 19 0.749370 -1.299141 28.624321 0.698132 -0.000001 0.000001
 20 -0.383533 17.841385 -5.153098 -0.174533 0.000000 0.000000
 21 0.341385 5.572277 -21.207756 -0.174532 0.000000 -0.000000
 22 -1.270981 0.784904 10.690902 0.000000 -0.000000 0.000000
 23 -8.160084 -0.723732 19.345646 -0.480510 0.186200 -0.095799
 24 -15.198612 0.466469 -18.278648 0.140032 -0.291140 0.634036
 25 -8.028439 -4.482521 -11.667114 -0.271619 0.244372 -0.041531
 26 37.597652 29.596762 119.956718 0.194939 1.686437 0.324268
 27 35.457336 5.719528 -83.014816 0.000000 -0.000000 0.000000
 28 -3.175098 -2.066473 -5.742233 0.000000 -0.000000 0.000000
 29 9.450655 -0.516975 19.516205 -0.598062 0.066598 -0.324414
 30 14.230843 0.232841 -18.395630 0.318337 -0.128727 0.087543
 31 8.015631 -4.458889 -11.817970 -0.088245 -0.076199 -0.105809
 32 2.087151 -1.667404 -5.327332 0.000000 -0.000000 0.000000
 33 0.319299 -0.756859 2.981499 0.000000 -0.000000 0.000000
 34 -2.465699 3.693841 194.748917 0.000000 -0.000000 0.000000
time 30
  0 -2.629148 1.415440 -0.352036 0.000000 -0.000000 0.000000
  1 -2.629148 1.415440 -0.352036 0.000000 -0.000000 0.000000
  2 -2.629148 1.415440 2.393021 0.000000 -0.000000 0.000000
  3 0.000000 -0.687185 -109.606628 0.034907 0.000000 0.000000
  4 0.000000 0.440305 -2.731789 -0.366519 0.000000 -0.000000
  5 -8.065217 -1.301254 -17.282555 -0.117611 0.103397 -0.142897
  6 -0.883781 2.065769 -34.200706 2.010372 0.011053 0.250433
  7 -1.767050 1.039505 -33.503738 -0.292387 -0.049164 -0.003695
  8 0.410547 -3.053421 -6.308689 0.000000 -0.000000 0.000000
  9 8.638525 -0.139328 -16.633011 -0.068305 -0.155899 -0.019300
 10 1.058086 0.932507 -35.061905 2.005691 0.180137 -0.092650
 11 1.221056 1.156235 -33.292130 -0.260399 0.006793 0.020443
 12 0.085377 -3.198837 -6.249958 0.000000 -0.000000 0.000000
 13 0.213274 2.786510 7.572433 -0.017453 0.000000 0.000000
 14 -2.904730 0.818867 2.596069 -0.002471 0.006107 -0.382975
 15 3.765306 -0.266403 -105.303322 0.017445 -0.006626 0.385211
 16 1.233751 0.818867 2.596069 -0.003229 -0.006785 0.438678
 17 -2.736666 -0.542171 -105.309555 0.017471 0.007558 -0.441260
 18 -0.000000 -0.179234 2.752571 0.715586 0.000000 0.000001
 19 0.749370 -1.299141 28.624321 0.698132 -0.000001 0.000001
 20 -0.383533 17.841385 -5.153098 -0.174533 0.000000 0.000000
 21 0.341385 5.572285 -21.207756 -0.174532 0.000000 -0.000000
 22 -1.270981 0.784904 10.690903 0.000000 -0.000000 0.000000
 23 -8.160084 -0.723732 19.345646 -0.480510 0.186200 -0.095799
 24 -15.198608 0.466469 -18.278648 0.140032 -0.291140 0.634036
 25 -8.028442 -4.482521 -11.667114 -0.271619 0.244372 -0.041531
 26 37.789490 30.055094 120.673706 0.200733 1.686447 0.330054
 27 35.457336 5.719488 -83.014832 0.000000 -0.000000 0.000000
 28 -3.175091 -2.066473 -5.742233 0.000000 -0.000000 0.000000
 29 9.450655 -0.516983 19.516205 -0.598062 0.066598 -0.324414
 30 14.230843 0.232841 -18.395630 0.318337 -0.128727 0.087543
 31 8.015629 -4.458897 -11.817970 -0.088245 -0.076199 -0.105809
 32 2.087147 -1.667408 -5.327339 0.000000 -0.000000 0.000000
 33 0.319299 -0.756851 2.981499 0.000000 -0.000000 0.000000
 34 -2.465699 3.693841 194.748917 0.000000 -0.000000 0.000000
end
