version 1
nodes
  0 "bone_21"  -1
  1 "bone_27"  -1
  2 "bone_29"   1
  3 "bone_30"   2
  4 "bone_26"   1
  5 "bone_3"   4
  6 "bone_28"   4
  7 "bone_7"   6
  8 "bone_10"   6
  9 "bone_11"   6
 10 "bone_12"   6
 11 "bone_13"   6
 12 "bone_0"   4
 13 "bone_14"  12
 14 "bone_1"  13
 15 "bone_5"  14
 16 "bons_041"  15
 17 "bons_40"  16
 18 "bone_23"   4
 19 "bone_24"  18
 20 "bone_2"  19
 21 "bone_19"  20
 22 "bone_20"   4
 23 "bone_34"   1
end
skeleton
time 0
  0 4.103849 8.412075 291.691650 0.000000 -0.000000 0.000000
  1 4.103849 9.021107 140.955078 0.000000 0.000000 0.000000
  2 -0.186268 0.167365 -1.425583 -0.104720 0.000000 0.000000
  3 0.923381 -2.004175 -52.426407 0.209440 -0.000000 -0.000000
  4 0.209927 0.167365 2.417709 0.087267 0.000000 -0.000000
  5 -0.585070 71.233536 -54.342323 0.087266 0.000000 -0.000000
  6 -0.737603 -0.548838 40.203674 -0.069813 0.000000 0.000000
  7 2.553308 7.297702 96.216110 0.000000 -0.000000 0.000000
  8 25.337776 -9.646732 2.086899 -0.000011 -0.139632 -0.000607
  9 -23.810329 -7.093720 2.086914 -0.226045 0.064723 0.026189
 10 -7.352507 52.005493 -48.397385 0.261799 0.000000 0.000000
 11 -0.684172 -0.276031 30.967361 0.000000 -0.000000 0.000000
 12 -13.534458 -1.160923 22.015198 3.019416 0.000000 0.000000
 13 -20.972830 -0.005867 -27.595062 -0.000000 0.209439 -0.000000
 14 -18.070223 -6.045795 -20.586182 2.577424 0.599609 -0.374444
 15 5.932709 -5.752609 0.181641 -1.147836 0.866904 -0.065273
 16 0.492668 -33.874725 19.443865 0.000000 -0.000000 0.000000
 17 0.000023 -0.000015 -0.000013 -0.000000 0.000000 -0.000000
 18 12.176293 -0.829271 23.085022 -0.330962 0.156863 0.008289
 19 23.438763 1.362873 -28.210815 0.622483 0.147093 -0.046223
 20 17.520041 -4.855556 -21.387672 -0.559663 -0.318451 0.327741
 21 6.597038 5.855774 -9.931335 0.000000 -0.000000 0.000000
 22 -0.072890 -1.214048 9.388031 0.000000 -0.000000 0.000000
 23 0.000010 -5.381660 -154.110336 -0.034538 -0.005058 -0.145357
time 1
  0 4.103849 8.412075 291.691650 0.000000 -0.000000 0.000000
  1 4.103849 10.102935 141.257004 0.000000 0.000000 0.000000
  2 -0.186268 0.167365 -1.425583 -0.117661 -0.000000 0.000000
  3 0.923381 -2.004176 -52.426407 0.202775 -0.000000 0.000000
  4 0.209927 0.167365 2.573303 0.086167 0.000000 -0.000000
  5 -1.654552 63.613487 -53.636299 0.087266 0.000000 0.000000
  6 -0.737603 -0.548840 40.203659 -0.067198 0.000000 0.000000
  7 2.553308 7.297702 96.216141 0.000000 -0.000000 0.000000
  8 25.337776 -9.646733 2.086899 -0.031063 -0.138543 0.003524
  9 -23.810329 -7.093721 2.086914 -0.269074 0.066125 0.024870
 10 -7.352507 52.005493 -48.397385 0.211603 0.000000 0.000000
 11 -0.684172 -0.276031 30.967377 0.000000 -0.000000 0.000000
 12 -13.534458 -1.160923 22.015198 3.019416 0.000000 0.000000
 13 -20.972830 -0.005867 -27.595093 -0.000000 0.209439 -0.000000
 14 -18.070225 -6.045795 -20.586182 2.577424 0.599609 -0.374444
 15 5.932701 -5.752602 0.181625 -1.147836 0.866904 -0.065273
 16 0.492664 -33.874710 19.443865 0.000000 -0.000000 0.000000
 17 0.000015 -0.000015 -0.000011 -0.000000 0.000000 -0.000000
 18 12.176291 -0.829269 23.085022 -0.330962 0.156863 0.008289
 19 23.438763 1.362869 -28.210831 0.622482 0.147093 -0.046223
 20 17.520042 -4.855556 -21.387650 -0.594685 -0.317402 0.330597
 21 6.597042 5.855774 -9.931335 0.000000 -0.000000 0.000000
 22 -0.072890 -1.214050 9.388016 0.000000 -0.000000 0.000000
 23 0.000010 -5.381660 -154.110336 -0.034538 -0.005058 -0.145357
time 2
  0 4.103849 8.412075 291.691650 0.000000 -0.000000 0.000000
  1 4.103849 11.465106 142.110809 0.000000 0.000000 0.000000
  2 -0.186268 0.167365 -1.425583 -0.134310 -0.000000 0.000000
  3 0.923381 -2.004175 -52.426407 0.184092 -0.000000 0.000000
  4 0.209927 0.167365 2.785400 0.083054 0.000000 -0.000000
  5 -4.474094 44.930939 -51.774948 0.087266 0.000000 0.000000
  6 -0.737604 -0.548840 40.203659 -0.059835 0.000000 0.000000
  7 2.553308 7.297703 96.216141 0.000000 -0.000000 0.000000
  8 25.337774 -9.646732 2.086914 -0.110676 -0.135753 0.014118
  9 -23.810331 -7.093722 2.086914 -0.331988 0.067219 0.021370
 10 -7.352507 52.005501 -48.397385 0.079912 0.000000 0.000000
 11 -0.684172 -0.276031 30.967377 0.000000 -0.000000 0.000000
 12 -13.534458 -1.160923 22.015198 3.019416 0.000000 0.000000
 13 -20.972830 -0.005867 -27.595078 0.000000 0.209439 0.000000
 14 -18.070225 -6.045795 -20.586182 2.577424 0.599609 -0.374444
 15 5.932701 -5.752602 0.181641 -1.147836 0.866904 -0.065273
 16 0.492672 -33.874710 19.443869 0.000000 -0.000000 0.000000
 17 0.000015 0.000000 -0.000010 -0.000000 -0.000000 -0.000000
 18 12.176292 -0.829269 23.085022 -0.330962 0.156863 0.008289
 19 23.438766 1.362875 -28.210815 0.622483 0.147093 -0.046223
 20 17.520037 -4.855553 -21.387650 -0.632013 -0.314472 0.333081
 21 6.597038 5.855776 -9.931328 0.000000 -0.000000 0.000000
 22 -0.072890 -1.214050 9.388031 0.000000 -0.000000 0.000000
 23 0.000011 -5.381660 -154.110336 -0.034538 -0.005058 -0.145357
time 3
  0 4.103849 8.412075 291.691650 0.000000 -0.000000 0.000000
  1 4.103849 13.059916 143.438507 0.000000 0.000000 0.000000
  2 -0.186268 0.167365 -1.425583 -0.153627 -0.000000 0.000000
  3 0.923381 -2.004177 -52.426399 0.155358 -0.000000 0.000000
  4 0.209927 0.167365 3.043808 0.078204 0.000000 -0.000000
  5 -8.460343 18.908714 -49.143394 0.087266 0.000000 -0.000000
  6 -0.737603 -0.548840 40.203674 -0.048445 0.000000 0.000000
  7 2.553308 7.297699 96.216110 0.000000 -0.000000 0.000000
  8 25.337776 -9.646732 2.086929 -0.218536 -0.131972 0.028471
  9 -23.810329 -7.093721 2.086914 -0.407403 0.068042 0.016374
 10 -7.352507 52.005493 -48.397369 -0.104929 -0.000000 0.000000
 11 -0.684172 -0.276031 30.967392 0.000000 -0.000000 0.000000
 12 -13.534458 -1.160923 22.015213 3.019416 0.000000 0.000000
 13 -20.972828 -0.005866 -27.595093 0.000000 0.209439 -0.000000
 14 -18.070227 -6.045794 -20.586166 2.577424 0.599609 -0.374444
 15 5.932716 -5.752609 0.181641 -1.147836 0.866904 -0.065273
 16 0.492664 -33.874710 19.443869 0.000000 -0.000000 0.000000
 17 0.000023 -0.000015 -0.000011 -0.000000 -0.000000 0.000000
 18 12.176293 -0.829269 23.085022 -0.330962 0.156863 0.008289
 19 23.438761 1.362867 -28.210831 0.622483 0.147093 -0.046223
 20 17.520046 -4.855556 -21.387665 -0.670820 -0.309986 0.335218
 21 6.597038 5.855776 -9.931335 0.000000 -0.000000 0.000000
 22 -0.072890 -1.214048 9.388031 0.000000 -0.000000 0.000000
 23 0.000011 -5.381660 -154.110336 -0.034538 -0.005058 -0.145357
time 4
  0 4.103849 8.412075 291.691650 0.000000 -0.000000 0.000000
  1 4.103849 14.839664 145.162155 0.000000 0.000000 0.000000
  2 -0.186268 0.167365 -1.425583 -0.174569 -0.000000 0.000000
  3 0.923381 -2.004178 -52.426407 0.118541 -0.000000 0.000000
  4 0.209927 0.167365 3.338333 0.071893 0.000000 -0.000000
  5 -13.029945 -10.730349 -46.126717 0.087266 0.000000 0.000000
  6 -0.737603 -0.548840 40.203674 -0.033749 0.000000 0.000000
  7 2.553308 7.297701 96.216156 0.000000 -0.000000 0.000000
  8 25.337776 -9.646732 2.086914 -0.334330 -0.127914 0.043879
  9 -23.810329 -7.093720 2.086914 -0.487932 0.068632 0.010564
 10 -7.352508 52.005493 -48.397385 -0.314572 -0.000000 0.000000
 11 -0.684172 -0.276031 30.967377 0.000000 -0.000000 0.000000
 12 -13.534458 -1.160923 22.015198 3.019416 0.000000 0.000000
 13 -20.972830 -0.005868 -27.595078 -0.000000 0.209439 -0.000000
 14 -18.070225 -6.045794 -20.586166 2.577424 0.599609 -0.374444
 15 5.932709 -5.752594 0.181625 -1.147836 0.866904 -0.065273
 16 0.492661 -33.874695 19.443867 0.000000 -0.000000 -0.000000
 17 0.000023 0.000000 -0.000008 -0.000000 -0.000000 -0.000000
 18 12.176294 -0.829269 23.085022 -0.330962 0.156863 0.008289
 19 23.438761 1.362869 -28.210815 0.622483 0.147093 -0.046223
 20 17.520050 -4.855553 -21.387657 -0.710279 -0.304271 0.337033
 21 6.597042 5.855780 -9.931335 0.000000 -0.000000 0.000000
 22 -0.072890 -1.214048 9.388031 0.000000 -0.000000 0.000000
 23 0.000011 -5.381660 -154.110336 -0.034538 -0.005058 -0.145357
time 5
  0 4.103849 8.412075 291.691650 0.000000 -0.000000 0.000000
  1 4.103849 16.756649 147.203751 0.000000 0.000000 0.000000
  2 -0.186268 0.167366 -1.425583 -0.196096 -0.000000 0.000000
  3 0.923380 -2.004179 -52.426399 0.075607 -0.000000 0.000000
  4 0.209927 0.167364 3.658813 0.064398 0.000000 -0.000000
  5 -17.599548 -40.263432 -43.110069 0.087266 0.000000 -0.000000
  6 -0.737603 -0.548840 40.203674 -0.016471 0.000000 0.000000
  7 2.553308 7.297701 96.216125 0.000000 -0.000000 0.000000
  8 25.337776 -9.646731 2.086929 -0.437746 -0.124289 0.057641
  9 -23.810329 -7.093720 2.086929 -0.566189 0.069028 0.004626
 10 -7.352508 52.005501 -48.397385 -0.520672 -0.000000 0.000000
 11 -0.684172 -0.276031 30.967392 0.000000 -0.000000 0.000000
 12 -13.534458 -1.160923 22.015198 3.019416 0.000000 0.000000
 13 -20.972830 -0.005869 -27.595093 -0.000000 0.209439 -0.000000
 14 -18.070225 -6.045795 -20.586166 2.577424 0.599609 -0.374444
 15 5.932701 -5.752594 0.181625 -1.147836 0.866904 -0.065273
 16 0.492668 -33.874710 19.443871 0.000000 -0.000000 -0.000000
 17 0.000019 0.000000 -0.000011 -0.000000 0.000000 -0.000000
 18 12.176294 -0.829269 23.085022 -0.330962 0.156863 0.008289
 19 23.438765 1.362871 -28.210846 0.622483 0.147093 -0.046223
 20 17.520042 -4.855556 -21.387650 -0.749563 -0.297650 0.338552
 21 6.597038 5.855774 -9.931335 0.000000 -0.000000 0.000000
 22 -0.072890 -1.214048 9.388031 0.000000 -0.000000 0.000000
 23 0.000010 -5.381660 -154.110336 -0.034538 -0.005058 -0.145357
time 6
  0 4.103849 8.412075 291.691650 0.000000 -0.000000 0.000000
  1 4.103849 18.763165 149.485352 0.000000 0.000000 0.000000
  2 -0.186268 0.167366 -1.425583 -0.217168 -0.000000 0.000000
  3 0.923380 -2.004179 -52.426407 0.028523 -0.000000 0.000000
  4 0.209927 0.167364 3.995056 0.055995 0.000000 -0.000000
  5 -21.585796 -65.967697 -40.478493 0.087266 0.000000 0.000000
  6 -0.737603 -0.548836 40.203674 0.002668 0.000000 0.000000
  7 2.553308 7.297703 96.216141 0.000000 -0.000000 0.000000
  8 25.337776 -9.646732 2.086899 -0.508471 -0.121810 0.067052
  9 -23.810329 -7.093719 2.086914 -0.634789 0.069267 -0.000756
 10 -7.352507 52.005501 -48.397385 -0.694883 -0.000000 0.000000
 11 -0.684172 -0.276030 30.967392 0.000000 -0.000000 0.000000
 12 -13.534459 -1.160919 22.015213 3.019416 0.000000 0.000000
 13 -20.972832 -0.005869 -27.595078 0.000000 0.209439 0.000000
 14 -18.070227 -6.045797 -20.586182 2.577424 0.599609 -0.374444
 15 5.932724 -5.752602 0.181625 -1.147836 0.866904 -0.065273
 16 0.492668 -33.874695 19.443874 0.000000 -0.000000 -0.000000
 17 0.000015 0.000000 -0.000011 0.000000 -0.000000 0.000000
 18 12.176293 -0.829269 23.085022 -0.330962 0.156863 0.008289
 19 23.438763 1.362865 -28.210831 0.622483 0.147093 -0.046223
 20 17.520050 -4.855560 -21.387665 -0.787844 -0.290450 0.339801
 21 6.597038 5.855778 -9.931343 0.000000 -0.000000 0.000000
 22 -0.072890 -1.214046 9.388031 0.000000 -0.000000 0.000000
 23 0.000010 -5.381660 -154.110336 -0.034538 -0.005058 -0.145357
time 7
  0 4.103849 8.412075 291.691650 0.000000 -0.000000 0.000000
  1 4.103849 20.811512 151.928986 0.000000 0.000000 0.000000
  2 -0.186268 0.167366 -1.425583 -0.236743 -0.000000 0.000000
  3 0.923381 -2.004177 -52.426414 -0.020743 -0.000000 0.000000
  4 0.209927 0.167364 4.336899 0.046961 0.000000 -0.000000
  5 -24.405340 -84.120346 -38.617149 0.087266 0.000000 -0.000000
  6 -0.737603 -0.548840 40.203674 0.022946 0.000000 0.000000
  7 2.553308 7.297699 96.216125 0.000000 -0.000000 0.000000
  8 25.337774 -9.646734 2.086884 -0.527781 -0.121133 0.069621
  9 -23.810329 -7.093721 2.086914 -0.686345 0.069388 -0.004897
 10 -7.352507 52.005493 -48.397400 -0.808858 -0.000000 0.000000
 11 -0.684172 -0.276031 30.967377 0.000000 -0.000000 0.000000
 12 -13.534458 -1.160925 22.015198 3.019416 0.000000 0.000000
 13 -20.972830 -0.005870 -27.595093 -0.000000 0.209439 0.000000
 14 -18.070223 -6.045794 -20.586182 2.577424 0.599609 -0.374444
 15 5.932709 -5.752602 0.181641 -1.147836 0.866904 -0.065273
 16 0.492664 -33.874680 19.443867 0.000000 -0.000000 -0.000000
 17 0.000015 0.000000 -0.000011 -0.000000 0.000000 -0.000000
 18 12.176294 -0.829269 23.085037 -0.330962 0.156863 0.008289
 19 23.438766 1.362873 -28.210831 0.622482 0.147093 -0.046223
 20 17.520046 -4.855556 -21.387672 -0.824294 -0.282995 0.340805
 21 6.597038 5.855778 -9.931343 0.000000 -0.000000 0.000000
 22 -0.072890 -1.214050 9.388046 0.000000 -0.000000 0.000000
 23 0.000010 -5.381660 -154.110336 -0.034538 -0.005058 -0.145357
time 8
  0 4.103849 8.412075 291.691650 0.000000 -0.000000 0.000000
  1 4.103849 22.853989 154.456680 0.000000 0.000000 0.000000
  2 -0.186268 0.167366 -1.425583 -0.253779 -0.000000 0.000000
  3 0.923381 -2.004175 -52.426414 -0.070224 -0.000000 0.000000
  4 0.209927 0.167364 4.674149 0.037573 0.000000 -0.000000
  5 -25.474823 -90.998512 -37.911140 0.087266 0.000000 -0.000000
  6 -0.737603 -0.548840 40.203659 0.043642 0.000000 0.000000
  7 2.553309 7.297699 96.216110 0.000000 -0.000000 0.000000
  8 25.337774 -9.646734 2.086899 -0.525007 -0.121231 0.069252
  9 -23.810329 -7.093721 2.086899 -0.713471 0.069429 -0.007114
 10 -7.352507 52.005501 -48.397385 -0.837482 -0.000000 0.000000
 11 -0.684172 -0.276031 30.967377 0.000000 -0.000000 0.000000
 12 -13.534458 -1.160923 22.015198 3.019416 -0.000000 0.000000
 13 -20.972828 -0.005868 -27.595078 -0.000000 0.209439 -0.000000
 14 -18.070230 -6.045797 -20.586166 2.577424 0.599609 -0.374444
 15 5.932724 -5.752609 0.181625 -1.147836 0.866904 -0.065273
 16 0.492664 -33.874680 19.443871 0.000000 -0.000000 -0.000000
 17 0.000015 0.000000 -0.000011 0.000000 0.000000 -0.000000
 18 12.176293 -0.829268 23.085022 -0.330962 0.156863 0.008289
 19 23.438763 1.362869 -28.210831 0.622482 0.147093 -0.046223
 20 17.520039 -4.855560 -21.387657 -0.858086 -0.275612 0.341590
 21 6.597038 5.855774 -9.931335 0.000000 -0.000000 0.000000
 22 -0.072890 -1.214050 9.388031 0.000000 -0.000000 0.000000
 23 0.000011 -5.381660 -154.110336 -0.034538 -0.005058 -0.145357
time 9
  0 4.103849 8.412075 291.691650 0.000000 -0.000000 0.000000
  1 4.103849 24.842892 156.990479 0.000000 0.000000 0.000000
  2 -0.186268 0.167366 -1.425583 -0.267237 -0.000000 0.000000
  3 0.923380 -2.004179 -52.426414 -0.117953 -0.000000 0.000000
  4 0.209927 0.167364 4.996643 0.028107 0.000000 -0.000000
  5 -25.474821 -84.981850 -37.911118 0.087266 0.000000 0.000000
  6 -0.737603 -0.548840 40.203690 0.064033 0.000000 0.000000
  7 2.553308 7.297699 96.216156 0.000000 -0.000000 0.000000
  8 25.337774 -9.646732 2.086929 -0.518599 -0.121455 0.068400
  9 -23.810333 -7.093723 2.086914 -0.715041 0.069423 -0.007255
 10 -7.352507 52.005493 -48.397385 -0.831029 -0.000000 0.000000
 11 -0.684172 -0.276031 30.967392 0.000000 -0.000000 0.000000
 12 -13.534458 -1.160921 22.015213 3.019416 -0.000000 0.000000
 13 -20.972830 -0.005869 -27.595062 0.000000 0.209439 -0.000000
 14 -18.070225 -6.045797 -20.586182 2.577425 0.599609 -0.374444
 15 5.932709 -5.752602 0.181641 -1.147836 0.866904 -0.065273
 16 0.492664 -33.874725 19.443871 0.000000 -0.000000 0.000000
 17 0.000015 0.000000 -0.000011 -0.000000 0.000000 0.000000
 18 12.176292 -0.829271 23.085037 -0.330962 0.156863 0.008289
 19 23.438766 1.362869 -28.210831 0.622482 0.147093 -0.046223
 20 17.520039 -4.855560 -21.387657 -0.888393 -0.268625 0.342180
 21 6.597038 5.855778 -9.931335 0.000000 -0.000000 0.000000
 22 -0.072890 -1.214048 9.388046 0.000000 -0.000000 0.000000
 23 0.000011 -5.381660 -154.110336 -0.034538 -0.005058 -0.145357
time 10
  0 4.103849 8.412075 291.691650 0.000000 -0.000000 0.000000
  1 4.103849 26.730518 159.452377 0.000000 0.000000 0.000000
  2 -0.186268 0.167366 -1.425583 -0.276075 -0.000000 0.000000
  3 0.923381 -2.004179 -52.426399 -0.161963 -0.000000 0.000000
  4 0.209927 0.167364 5.294174 0.018840 0.000000 -0.000000
  5 -25.474821 -68.857178 -37.911133 0.087266 0.000000 0.000000
  6 -0.737603 -0.548838 40.203690 0.083398 0.000000 0.000000
  7 2.553308 7.297703 96.216125 0.000000 -0.000000 0.000000
  8 25.337776 -9.646732 2.086899 -0.508839 -0.121797 0.067101
  9 -23.810329 -7.093719 2.086914 -0.710587 0.069380 -0.006950
 10 -7.352507 52.005501 -48.397400 -0.816506 -0.000000 0.000000
 11 -0.684172 -0.276031 30.967377 0.000000 -0.000000 0.000000
 12 -13.534459 -1.160923 22.015198 3.019416 0.000000 0.000000
 13 -20.972828 -0.005871 -27.595062 -0.000000 0.209439 -0.000000
 14 -18.070221 -6.045799 -20.586166 2.577424 0.599609 -0.374444
 15 5.932709 -5.752594 0.181625 -1.147836 0.866904 -0.065273
 16 0.492668 -33.874725 19.443865 0.000000 0.000000 0.000000
 17 0.000023 0.000000 -0.000011 -0.000000 0.000000 0.000000
 18 12.176292 -0.829273 23.085037 -0.330962 0.156863 0.008289
 19 23.438765 1.362873 -28.210815 0.622482 0.147093 -0.046223
 20 17.520042 -4.855560 -21.387665 -0.914388 -0.262360 0.342603
 21 6.597046 5.855782 -9.931343 0.000000 -0.000000 0.000000
 22 -0.072890 -1.214050 9.388031 0.000000 -0.000000 0.000000
 23 0.000010 -5.381660 -154.110336 -0.034538 -0.005058 -0.145357
time 11
  0 4.103849 8.412075 291.691650 0.000000 -0.000000 0.000000
  1 4.103849 28.469168 161.764435 0.000000 0.000000 0.000000
  2 -0.186268 0.167366 -1.425583 -0.279253 -0.000000 0.000000
  3 0.923380 -2.004177 -52.426414 -0.200287 -0.000000 0.000000
  4 0.209927 0.167364 5.556595 0.010048 0.000000 -0.000000
  5 -25.474823 -45.512531 -37.911118 0.087266 0.000000 -0.000000
  6 -0.737603 -0.548840 40.203674 0.101014 0.000000 0.000000
  7 2.553308 7.297707 96.216141 0.000000 -0.000000 0.000000
  8 25.337776 -9.646729 2.086899 -0.496009 -0.122247 0.065394
  9 -23.810329 -7.093719 2.086914 -0.702494 0.069303 -0.006397
 10 -7.352507 52.005501 -48.397400 -0.794567 -0.000000 0.000000
 11 -0.684172 -0.276028 30.967392 0.000000 -0.000000 0.000000
 12 -13.534458 -1.160923 22.015198 3.019416 0.000000 0.000000
 13 -20.972832 -0.005867 -27.595078 -0.000000 0.209439 -0.000000
 14 -18.070225 -6.045797 -20.586166 2.577424 0.599609 -0.374444
 15 5.932693 -5.752602 0.181641 -1.147836 0.866904 -0.065273
 16 0.492661 -33.874710 19.443872 0.000000 -0.000000 -0.000000
 17 0.000015 0.000031 -0.000008 0.000000 -0.000000 -0.000000
 18 12.176293 -0.829269 23.085022 -0.330962 0.156863 0.008289
 19 23.438766 1.362865 -28.210815 0.622483 0.147093 -0.046223
 20 17.520050 -4.855560 -21.387665 -0.935242 -0.257143 0.342882
 21 6.597038 5.855782 -9.931335 0.000000 -0.000000 0.000000
 22 -0.072891 -1.214048 9.388046 0.000000 -0.000000 0.000000
 23 0.000010 -5.381660 -154.110336 -0.034538 -0.005058 -0.145357
time 12
  0 4.103849 8.412075 291.691650 0.000000 -0.000000 0.000000
  1 4.103849 30.011135 163.848679 0.000000 0.000000 0.000000
  2 -0.186268 0.167366 -1.425583 -0.278943 -0.000000 0.000000
  3 0.923381 -2.004181 -52.426414 -0.230957 -0.000000 0.000000
  4 0.209927 0.167364 5.773712 0.002009 0.000000 -0.000000
  5 -25.474823 -17.835876 -37.911118 0.087266 0.000000 0.000000
  6 -0.737603 -0.548838 40.203659 0.116161 0.000000 0.000000
  7 2.553308 7.297695 96.216095 0.000000 -0.000000 0.000000
  8 25.337778 -9.646732 2.086914 -0.480390 -0.122794 0.063315
  9 -23.810328 -7.093719 2.086914 -0.691072 0.069193 -0.005616
 10 -7.352507 52.005501 -48.397385 -0.765862 -0.000000 0.000000
 11 -0.684172 -0.276031 30.967377 0.000000 -0.000000 0.000000
 12 -13.534457 -1.160925 22.015213 3.019416 -0.000000 0.000000
 13 -20.972832 -0.005869 -27.595062 -0.000000 0.209439 0.000000
 14 -18.070229 -6.045799 -20.586166 2.577424 0.599609 -0.374444
 15 5.932709 -5.752609 0.181625 -1.147836 0.866904 -0.065273
 16 0.492664 -33.874710 19.443872 0.000000 -0.000000 -0.000000
 17 0.000015 0.000000 -0.000008 -0.000000 -0.000000 0.000000
 18 12.176293 -0.829269 23.085022 -0.330962 0.156863 0.008289
 19 23.438759 1.362873 -28.210815 0.622483 0.147093 -0.046223
 20 17.520042 -4.855560 -21.387650 -0.950129 -0.253298 0.343045
 21 6.597038 5.855778 -9.931343 0.000000 -0.000000 0.000000
 22 -0.072890 -1.214050 9.388031 0.000000 -0.000000 0.000000
 23 0.000010 -5.381660 -154.110336 -0.034538 -0.005058 -0.145357
time 13
  0 4.103849 8.412075 291.691650 0.000000 -0.000000 0.000000
  1 4.103849 31.308722 165.627151 0.000000 0.000000 0.000000
  2 -0.186268 0.167366 -1.425583 -0.278014 -0.000000 0.000000
  3 0.923380 -2.004181 -52.426392 -0.252006 -0.000000 0.000000
  4 0.209927 0.167364 5.935349 -0.005003 0.000000 -0.000000
  5 -25.474821 11.284784 -37.911133 0.087266 0.000000 0.000000
  6 -0.737603 -0.548836 40.203674 0.128115 0.000000 0.000000
  7 2.553308 7.297691 96.216110 0.000000 -0.000000 0.000000
  8 25.337774 -9.646736 2.086899 -0.462266 -0.123430 0.060904
  9 -23.810329 -7.093719 2.086914 -0.676634 0.069054 -0.004628
 10 -7.352507 52.005493 -48.397385 -0.731044 -0.000000 0.000000
 11 -0.684172 -0.276035 30.967377 0.000000 -0.000000 0.000000
 12 -13.534457 -1.160923 22.015198 3.019416 -0.000000 0.000000
 13 -20.972828 -0.005871 -27.595078 0.000000 0.209439 0.000000
 14 -18.070227 -6.045795 -20.586166 2.577424 0.599609 -0.374444
 15 5.932709 -5.752617 0.181625 -1.147836 0.866904 -0.065273
 16 0.492668 -33.874710 19.443872 0.000000 -0.000000 -0.000000
 17 0.000015 0.000000 -0.000011 -0.000000 0.000000 -0.000000
 18 12.176292 -0.829269 23.085022 -0.330962 0.156863 0.008289
 19 23.438765 1.362873 -28.210846 0.622483 0.147093 -0.046223
 20 17.520039 -4.855553 -21.387665 -0.958221 -0.251151 0.343115
 21 6.597031 5.855778 -9.931335 0.000000 -0.000000 0.000000
 22 -0.072890 -1.214048 9.388046 0.000000 -0.000000 0.000000
 23 0.000010 -5.381660 -154.110336 -0.034538 -0.005058 -0.145357
time 14
  0 4.103849 8.412075 291.691650 0.000000 -0.000000 0.000000
  1 4.103849 32.314224 167.021851 0.000000 0.000000 0.000000
  2 -0.186268 0.167366 -1.425583 -0.276469 -0.000000 0.000000
  3 0.923381 -2.004179 -52.426392 -0.261468 -0.000000 0.000000
  4 0.209927 0.167366 6.031311 -0.010709 0.000000 -0.000000
  5 -25.474823 38.961449 -37.911118 0.087266 0.000000 -0.000000
  6 -0.737603 -0.548840 40.203674 0.136155 0.000000 0.000000
  7 2.553308 7.297699 96.216141 0.000000 -0.000000 0.000000
  8 25.337774 -9.646732 2.086914 -0.441917 -0.124143 0.058196
  9 -23.810328 -7.093719 2.086914 -0.659491 0.068889 -0.003456
 10 -7.352508 52.005493 -48.397369 -0.690764 -0.000000 0.000000
 11 -0.684172 -0.276031 30.967392 0.000000 -0.000000 0.000000
 12 -13.534458 -1.160921 22.015198 3.019416 0.000000 0.000000
 13 -20.972830 -0.005865 -27.595078 -0.000000 0.209439 0.000000
 14 -18.070230 -6.045799 -20.586166 2.577424 0.599609 -0.374444
 15 5.932724 -5.752617 0.181641 -1.147836 0.866904 -0.065273
 16 0.492661 -33.874725 19.443874 0.000000 -0.000000 0.000000
 17 0.000015 0.000000 -0.000004 0.000000 0.000000 0.000000
 18 12.176292 -0.829268 23.085022 -0.330962 0.156863 0.008289
 19 23.438765 1.362869 -28.210831 0.622483 0.147093 -0.046223
 20 17.520039 -4.855560 -21.387665 -0.958983 -0.250894 0.343105
 21 6.597038 5.855774 -9.931343 0.000000 -0.000000 0.000000
 22 -0.072890 -1.214046 9.388031 0.000000 -0.000000 0.000000
 23 0.000011 -5.381660 -154.110336 -0.034538 -0.005058 -0.145357
time 15
  0 4.103849 8.412075 291.691650 0.000000 -0.000000 0.000000
  1 4.103849 32.979939 167.954834 0.000000 0.000000 0.000000
  2 -0.186268 0.167366 -1.425583 -0.274309 -0.000000 0.000000
  3 0.923381 -2.004179 -52.426414 -0.259851 -0.000000 0.000000
  4 0.209927 0.167366 6.052429 -0.014833 0.000000 -0.000000
  5 -25.474823 62.306076 -37.911133 0.087266 0.000000 0.000000
  6 -0.737603 -0.548838 40.203674 0.139560 0.000000 0.000000
  7 2.553308 7.297707 96.216156 0.000000 -0.000000 0.000000
  8 25.337776 -9.646729 2.086914 -0.419626 -0.124924 0.055230
  9 -23.810329 -7.093716 2.086914 -0.639953 0.068701 -0.002119
 10 -7.352507 52.005501 -48.397385 -0.645676 -0.000000 0.000000
 11 -0.684172 -0.276028 30.967377 0.000000 -0.000000 0.000000
 12 -13.534458 -1.160919 22.015198 3.019416 0.000000 0.000000
 13 -20.972830 -0.005865 -27.595078 -0.000000 0.209439 0.000000
 14 -18.070227 -6.045801 -20.586166 2.577424 0.599609 -0.374444
 15 5.932693 -5.752609 0.181625 -1.147836 0.866904 -0.065273
 16 0.492672 -33.874741 19.443880 0.000000 -0.000000 0.000000
 17 0.000015 0.000000 -0.000008 -0.000000 0.000000 -0.000000
 18 12.176294 -0.829268 23.085022 -0.330962 0.156863 0.008289
 19 23.438766 1.362865 -28.210815 0.622483 0.147093 -0.046223
 20 17.520039 -4.855560 -21.387650 -0.954324 -0.251683 0.342926
 21 6.597034 5.855778 -9.931335 0.000000 -0.000000 0.000000
 22 -0.072890 -1.214046 9.388046 0.000000 -0.000000 0.000000
 23 0.000011 -5.381660 -154.110336 -0.034538 -0.005058 -0.145357
time 16
  0 4.103849 8.412075 291.691650 0.000000 -0.000000 0.000000
  1 4.103849 33.258167 168.348129 0.000000 0.000000 0.000000
  2 -0.186268 0.167366 -1.425583 -0.271536 -0.000000 0.000000
  3 0.923381 -2.004179 -52.426414 -0.252006 -0.000000 0.000000
  4 0.209927 0.167366 6.014206 -0.017099 0.000000 -0.000000
  5 -25.474823 78.430740 -37.911133 0.087266 0.000000 0.000000
  6 -0.737603 -0.548836 40.203674 0.138527 0.000000 0.000000
  7 2.553308 7.297703 96.216110 0.000000 -0.000000 0.000000
  8 25.337776 -9.646725 2.086899 -0.395675 -0.125764 0.052042
  9 -23.810328 -7.093719 2.086899 -0.618334 0.068494 -0.000641
 10 -7.352507 52.005497 -48.397385 -0.596430 -0.000000 0.000000
 11 -0.684172 -0.276028 30.967361 0.000000 -0.000000 0.000000
 12 -13.534458 -1.160919 22.015198 3.019416 0.000000 0.000000
 13 -20.972828 -0.005867 -27.595078 -0.000000 0.209439 0.000000
 14 -18.070227 -6.045795 -20.586182 2.577424 0.599609 -0.374444
 15 5.932709 -5.752602 0.181625 -1.147836 0.866904 -0.065273
 16 0.492672 -33.874695 19.443869 0.000000 -0.000000 -0.000000
 17 0.000015 0.000000 -0.000004 0.000000 0.000000 0.000000
 18 12.176295 -0.829266 23.085022 -0.330962 0.156863 0.008289
 19 23.438765 1.362873 -28.210815 0.622482 0.147093 -0.046223
 20 17.520037 -4.855553 -21.387650 -0.945145 -0.253236 0.342573
 21 6.597046 5.855770 -9.931335 0.000000 -0.000000 0.000000
 22 -0.072890 -1.214050 9.388046 0.000000 -0.000000 0.000000
 23 0.000011 -5.381660 -154.110336 -0.034538 -0.005058 -0.145357
time 17
  0 4.103849 8.412075 291.691650 0.000000 -0.000000 0.000000
  1 4.103849 33.122082 168.195892 0.000000 0.000000 0.000000
  2 -0.186268 0.167366 -1.425583 -0.268152 -0.000000 0.000000
  3 0.923381 -2.004179 -52.426407 -0.238737 -0.000000 0.000000
  4 0.209927 0.167366 5.929367 -0.017279 0.000000 -0.000000
  5 -25.474819 84.447403 -37.911118 0.087266 0.000000 -0.000000
  6 -0.737603 -0.548838 40.203674 0.134561 0.000000 0.000000
  7 2.553308 7.297699 96.216110 0.000000 -0.000000 0.000000
  8 25.337776 -9.646729 2.086899 -0.370344 -0.126652 0.048672
  9 -23.810328 -7.093719 2.086914 -0.594943 0.068269 0.000959
 10 -7.352508 52.005501 -48.397369 -0.543680 -0.000000 0.000000
 11 -0.684172 -0.276024 30.967377 0.000000 -0.000000 0.000000
 12 -13.534458 -1.160915 22.015198 3.019416 0.000000 0.000000
 13 -20.972828 -0.005869 -27.595078 -0.000000 0.209439 -0.000000
 14 -18.070230 -6.045797 -20.586166 2.577424 0.599609 -0.374444
 15 5.932693 -5.752602 0.181641 -1.147836 0.866904 -0.065273
 16 0.492672 -33.874756 19.443865 0.000000 -0.000000 -0.000000
 17 0.000015 0.000000 -0.000008 0.000000 0.000000 -0.000000
 18 12.176295 -0.829266 23.085022 -0.330962 0.156863 0.008289
 19 23.438763 1.362869 -28.210815 0.622483 0.147093 -0.046223
 20 17.520039 -4.855560 -21.387650 -0.931933 -0.255471 0.342065
 21 6.597042 5.855778 -9.931343 0.000000 -0.000000 0.000000
 22 -0.072890 -1.214048 9.388031 0.000000 -0.000000 0.000000
 23 0.000011 -5.381660 -154.110336 -0.034538 -0.005058 -0.145357
time 18
  0 4.103849 8.412075 291.691650 0.000000 -0.000000 0.000000
  1 4.103849 32.612701 167.620148 0.000000 0.000000 0.000000
  2 -0.186268 0.167366 -1.425583 -0.264158 -0.000000 0.000000
  3 0.923381 -2.004173 -52.426414 -0.220672 -0.000000 0.000000
  4 0.209927 0.167366 5.803131 -0.015643 0.000000 -0.000000
  5 -25.474823 79.534927 -37.911118 0.087266 0.000000 -0.000000
  6 -0.737603 -0.548834 40.203674 0.128006 0.000000 0.000000
  7 2.553309 7.297699 96.216141 0.000000 -0.000000 0.000000
  8 25.337778 -9.646732 2.086899 -0.343917 -0.127578 0.045155
  9 -23.810328 -7.093719 2.086914 -0.570092 0.068030 0.002659
 10 -7.352507 52.005501 -48.397369 -0.488077 -0.000000 0.000000
 11 -0.684172 -0.276031 30.967392 0.000000 -0.000000 0.000000
 12 -13.534458 -1.160919 22.015213 3.019416 -0.000000 0.000000
 13 -20.972828 -0.005863 -27.595078 -0.000000 0.209439 0.000000
 14 -18.070227 -6.045795 -20.586166 2.577424 0.599609 -0.374444
 15 5.932709 -5.752625 0.181641 -1.147836 0.866904 -0.065273
 16 0.492672 -33.874710 19.443878 0.000000 -0.000000 -0.000000
 17 0.000015 0.000000 -0.000008 -0.000000 0.000000 -0.000000
 18 12.176294 -0.829268 23.085022 -0.330962 0.156863 0.008289
 19 23.438765 1.362869 -28.210846 0.622483 0.147093 -0.046223
 20 17.520041 -4.855560 -21.387665 -0.915175 -0.258306 0.341420
 21 6.597034 5.855774 -9.931343 0.000000 -0.000000 0.000000
 22 -0.072890 -1.214045 9.388046 0.000000 -0.000000 0.000000
 23 0.000011 -5.381660 -154.110336 -0.034538 -0.005058 -0.145357
time 19
  0 4.103849 8.412075 291.691650 0.000000 -0.000000 0.000000
  1 4.103849 31.773853 166.672012 0.000000 0.000000 0.000000
  2 -0.186268 0.167366 -1.425583 -0.259556 -0.000000 0.000000
  3 0.923381 -2.004179 -52.426414 -0.198443 -0.000000 0.000000
  4 0.209927 0.167364 5.640778 -0.012446 0.000000 -0.000000
  5 -25.474823 66.201035 -37.911133 0.087266 0.000000 0.000000
  6 -0.737604 -0.548838 40.203674 0.119183 0.000000 0.000000
  7 2.553308 7.297695 96.216125 0.000000 -0.000000 0.000000
  8 25.337776 -9.646736 2.086914 -0.316675 -0.128533 0.041530
  9 -23.810329 -7.093727 2.086914 -0.544093 0.067780 0.004437
 10 -7.352508 52.005493 -48.397369 -0.430273 -0.000000 0.000000
 11 -0.684172 -0.276031 30.967377 0.000000 -0.000000 0.000000
 12 -13.534458 -1.160923 22.015198 3.019416 -0.000000 0.000000
 13 -20.972828 -0.005863 -27.595078 -0.000000 0.209439 0.000000
 14 -18.070225 -6.045801 -20.586166 2.577424 0.599609 -0.374444
 15 5.932709 -5.752594 0.181610 -1.147836 0.866904 -0.065273
 16 0.492676 -33.874741 19.443888 0.000000 -0.000000 -0.000000
 17 0.000019 0.000000 -0.000008 -0.000000 0.000000 -0.000000
 18 12.176292 -0.829268 23.085007 -0.330962 0.156863 0.008289
 19 23.438770 1.362869 -28.210831 0.622483 0.147093 -0.046223
 20 17.520046 -4.855553 -21.387665 -0.895358 -0.261658 0.340657
 21 6.597038 5.855785 -9.931351 0.000000 -0.000000 0.000000
 22 -0.072890 -1.214048 9.388031 0.000000 -0.000000 0.000000
 23 0.000010 -5.381660 -154.110336 -0.034538 -0.005058 -0.145357
time 20
  0 4.103849 8.412075 291.691650 0.000000 -0.000000 0.000000
  1 4.103849 30.649010 165.400635 0.000000 0.000000 0.000000
  2 -0.186268 0.167366 -1.425583 -0.254348 -0.000000 0.000000
  3 0.923381 -2.004177 -52.426407 -0.172680 -0.000000 0.000000
  4 0.209927 0.167364 5.447556 -0.007890 0.000000 -0.000000
  5 -25.474823 46.551102 -37.911118 0.087266 0.000000 0.000000
  6 -0.737603 -0.548836 40.203659 0.108412 0.000000 0.000000
  7 2.553308 7.297695 96.216125 0.000000 -0.000000 0.000000
  8 25.337774 -9.646736 2.086899 -0.288900 -0.129506 0.037834
  9 -23.810328 -7.093727 2.086914 -0.517257 0.067522 0.006272
 10 -7.352508 52.005493 -48.397385 -0.370920 -0.000000 0.000000
 11 -0.684172 -0.276035 30.967377 0.000000 -0.000000 0.000000
 12 -13.534458 -1.160921 22.015198 3.019416 0.000000 0.000000
 13 -20.972828 -0.005865 -27.595062 0.000000 0.209439 0.000000
 14 -18.070225 -6.045795 -20.586197 2.577424 0.599609 -0.374444
 15 5.932693 -5.752625 0.181625 -1.147836 0.866904 -0.065273
 16 0.492680 -33.874756 19.443884 -0.000000 -0.000000 -0.000000
 17 0.000015 0.000000 -0.000011 -0.000000 0.000000 0.000000
 18 12.176292 -0.829269 23.085022 -0.330962 0.156863 0.008289
 19 23.438768 1.362873 -28.210831 0.622483 0.147093 -0.046223
 20 17.520042 -4.855553 -21.387650 -0.872970 -0.265446 0.339796
 21 6.597042 5.855774 -9.931335 0.000000 -0.000000 0.000000
 22 -0.072890 -1.214046 9.388031 0.000000 -0.000000 0.000000
 23 0.000010 -5.381660 -154.110336 -0.034538 -0.005058 -0.145357
time 21
  0 4.103849 8.412075 291.691650 0.000000 -0.000000 0.000000
  1 4.103849 29.281649 163.855133 0.000000 0.000000 0.000000
  2 -0.186268 0.167366 -1.425583 -0.248536 -0.000000 0.000000
  3 0.923381 -2.004175 -52.426407 -0.144012 -0.000000 0.000000
  4 0.209927 0.167364 5.228699 -0.002175 0.000000 -0.000000
  5 -25.474823 22.690449 -37.911118 0.087266 0.000000 0.000000
  6 -0.737603 -0.548836 40.203659 0.096011 0.000000 0.000000
  7 2.553308 7.297699 96.216110 0.000000 -0.000000 0.000000
  8 25.337774 -9.646732 2.086899 -0.260874 -0.130488 0.034105
  9 -23.810329 -7.093719 2.086899 -0.489895 0.067259 0.008144
 10 -7.352508 52.005508 -48.397385 -0.310671 -0.000000 0.000000
 11 -0.684172 -0.276031 30.967377 0.000000 -0.000000 0.000000
 12 -13.534458 -1.160923 22.015182 3.019416 0.000000 0.000000
 13 -20.972830 -0.005867 -27.595078 0.000000 0.209439 -0.000000
 14 -18.070227 -6.045797 -20.586182 2.577424 0.599609 -0.374444
 15 5.932709 -5.752602 0.181641 -1.147836 0.866904 -0.065273
 16 0.492676 -33.874771 19.443882 0.000000 -0.000000 -0.000000
 17 0.000019 0.000000 -0.000011 0.000000 0.000000 0.000000
 18 12.176294 -0.829269 23.085007 -0.330962 0.156863 0.008289
 19 23.438770 1.362869 -28.210815 0.622482 0.147093 -0.046223
 20 17.520042 -4.855553 -21.387665 -0.848496 -0.269587 0.338854
 21 6.597042 5.855778 -9.931328 0.000000 -0.000000 0.000000
 22 -0.072890 -1.214046 9.388031 0.000000 -0.000000 0.000000
 23 0.000010 -5.381660 -154.110336 -0.034538 -0.005058 -0.145357
time 22
  0 4.103849 8.412075 291.691650 0.000000 -0.000000 0.000000
  1 4.103849 27.715246 162.084656 0.000000 0.000000 0.000000
  2 -0.186268 0.167366 -1.425583 -0.242121 -0.000000 0.000000
  3 0.923380 -2.004176 -52.426422 -0.113070 -0.000000 0.000000
  4 0.209927 0.167364 4.989487 0.004499 0.000000 -0.000000
  5 -25.474821 -3.275553 -37.911133 0.087266 0.000000 0.000000
  6 -0.737603 -0.548838 40.203659 0.082300 0.000000 0.000000
  7 2.553308 7.297699 96.216110 0.000000 -0.000000 0.000000
  8 25.337776 -9.646732 2.086884 -0.232879 -0.131470 0.030380
  9 -23.810329 -7.093719 2.086884 -0.462320 0.066994 0.010030
 10 -7.352508 52.005501 -48.397385 -0.250177 -0.000000 0.000000
 11 -0.684172 -0.276031 30.967377 0.000000 -0.000000 0.000000
 12 -13.534458 -1.160925 22.015182 3.019416 0.000000 0.000000
 13 -20.972828 -0.005867 -27.595078 -0.000000 0.209439 -0.000000
 14 -18.070223 -6.045795 -20.586182 2.577424 0.599609 -0.374444
 15 5.932709 -5.752602 0.181625 -1.147836 0.866904 -0.065273
 16 0.492683 -33.874725 19.443893 0.000000 0.000000 0.000000
 17 0.000015 0.000000 -0.000011 0.000000 -0.000000 -0.000000
 18 12.176292 -0.829269 23.085022 -0.330962 0.156863 0.008289
 19 23.438772 1.362873 -28.210831 0.622482 0.147093 -0.046223
 20 17.520046 -4.855560 -21.387665 -0.822425 -0.273997 0.337851
 21 6.597046 5.855774 -9.931335 0.000000 -0.000000 0.000000
 22 -0.072891 -1.214048 9.388031 0.000000 -0.000000 0.000000
 23 0.000010 -5.381660 -154.110336 -0.034538 -0.005058 -0.145357
time 23
  0 4.103849 8.412075 291.691650 0.000000 -0.000000 0.000000
  1 4.103849 25.993279 160.138351 0.000000 0.000000 0.000000
  2 -0.186268 0.167366 -1.425583 -0.235106 -0.000000 0.000000
  3 0.923380 -2.004178 -52.426422 -0.080484 -0.000000 0.000000
  4 0.209927 0.167364 4.735168 0.011930 0.000000 -0.000000
  5 -25.474823 -29.241549 -37.911118 0.087266 0.000000 -0.000000
  6 -0.737603 -0.548840 40.203674 0.067599 0.000000 0.000000
  7 2.553308 7.297703 96.216110 0.000000 -0.000000 0.000000
  8 25.337776 -9.646729 2.086899 -0.205197 -0.132440 0.026696
  9 -23.810329 -7.093719 2.086899 -0.434842 0.066730 0.011909
 10 -7.352507 52.005493 -48.397400 -0.190091 -0.000000 0.000000
 11 -0.684172 -0.276031 30.967377 0.000000 -0.000000 0.000000
 12 -13.534458 -1.160923 22.015198 3.019416 0.000000 0.000000
 13 -20.972830 -0.005869 -27.595062 -0.000000 0.209439 -0.000000
 14 -18.070223 -6.045795 -20.586182 2.577424 0.599609 -0.374444
 15 5.932724 -5.752609 0.181625 -1.147836 0.866904 -0.065273
 16 0.492676 -33.874710 19.443886 0.000000 -0.000000 -0.000000
 17 0.000015 0.000000 -0.000008 0.000000 0.000000 -0.000000
 18 12.176294 -0.829269 23.085022 -0.330962 0.156863 0.008289
 19 23.438766 1.362869 -28.210831 0.622483 0.147093 -0.046223
 20 17.520042 -4.855553 -21.387642 -0.795242 -0.278596 0.336805
 21 6.597038 5.855774 -9.931328 0.000000 -0.000000 0.000000
 22 -0.072890 -1.214048 9.388031 0.000000 -0.000000 0.000000
 23 0.000011 -5.381660 -154.110336 -0.034538 -0.005058 -0.145357
time 24
  0 4.103849 8.412075 291.691650 0.000000 -0.000000 0.000000
  1 4.103849 24.159224 158.065369 0.000000 0.000000 0.000000
  2 -0.186268 0.167366 -1.425583 -0.227492 -0.000000 0.000000
  3 0.923380 -2.004178 -52.426399 -0.046883 -0.000000 0.000000
  4 0.209927 0.167364 4.470993 0.019920 0.000000 -0.000000
  5 -25.474823 -53.102196 -37.911110 0.087266 0.000000 0.000000
  6 -0.737603 -0.548841 40.203690 0.052227 0.000000 0.000000
  7 2.553308 7.297703 96.216156 0.000000 -0.000000 0.000000
  8 25.337778 -9.646730 2.086914 -0.178109 -0.133389 0.023092
  9 -23.810329 -7.093719 2.086914 -0.407772 0.066470 0.013760
 10 -7.352508 52.005489 -48.397369 -0.131064 -0.000000 0.000000
 11 -0.684172 -0.276028 30.967392 0.000000 -0.000000 0.000000
 12 -13.534459 -1.160923 22.015213 3.019416 -0.000000 0.000000
 13 -20.972828 -0.005869 -27.595078 0.000000 0.209439 0.000000
 14 -18.070225 -6.045795 -20.586182 2.577424 0.599609 -0.374444
 15 5.932693 -5.752609 0.181625 -1.147836 0.866904 -0.065273
 16 0.492680 -33.874741 19.443890 0.000000 -0.000000 -0.000000
 17 0.000015 0.000000 -0.000004 0.000000 0.000000 -0.000000
 18 12.176292 -0.829269 23.085022 -0.330962 0.156863 0.008289
 19 23.438763 1.362865 -28.210815 0.622483 0.147093 -0.046223
 20 17.520042 -4.855553 -21.387657 -0.767436 -0.283300 0.335735
 21 6.597042 5.855774 -9.931328 0.000000 -0.000000 0.000000
 22 -0.072891 -1.214048 9.388046 0.000000 -0.000000 0.000000
 23 0.000011 -5.381660 -154.110336 -0.034538 -0.005058 -0.145357
time 25
  0 4.103849 8.412075 291.691650 0.000000 -0.000000 0.000000
  1 4.103849 22.256557 155.914825 0.000000 0.000000 0.000000
  2 -0.186268 0.167366 -1.425583 -0.219281 -0.000000 0.000000
  3 0.923381 -2.004181 -52.426407 -0.012899 -0.000000 0.000000
  4 0.209927 0.167364 4.202225 0.028267 0.000000 -0.000000
  5 -25.474821 -72.752151 -37.911133 0.087266 0.000000 -0.000000
  6 -0.737603 -0.548840 40.203674 0.036502 0.000000 0.000000
  7 2.553308 7.297699 96.216156 0.000000 -0.000000 0.000000
  8 25.337774 -9.646734 2.086929 -0.151898 -0.134308 0.019604
  9 -23.810331 -7.093723 2.086914 -0.381423 0.066216 0.015562
 10 -7.352507 52.005486 -48.397385 -0.073749 -0.000000 0.000000
 11 -0.684172 -0.276031 30.967392 0.000000 -0.000000 0.000000
 12 -13.534458 -1.160921 22.015198 3.019416 0.000000 0.000000
 13 -20.972832 -0.005867 -27.595078 -0.000000 0.209439 -0.000000
 14 -18.070227 -6.045797 -20.586166 2.577425 0.599609 -0.374444
 15 5.932709 -5.752602 0.181625 -1.147836 0.866904 -0.065273
 16 0.492687 -33.874741 19.443893 0.000000 -0.000000 -0.000000
 17 0.000015 0.000000 -0.000011 0.000000 -0.000000 -0.000000
 18 12.176294 -0.829268 23.085037 -0.330962 0.156863 0.008289
 19 23.438765 1.362869 -28.210815 0.622483 0.147093 -0.046223
 20 17.520046 -4.855553 -21.387650 -0.739493 -0.288028 0.334660
 21 6.597042 5.855772 -9.931343 0.000000 -0.000000 0.000000
 22 -0.072890 -1.214048 9.388031 0.000000 -0.000000 0.000000
 23 0.000011 -5.381660 -154.110336 -0.034538 -0.005058 -0.145357
time 26
  0 4.103849 8.412075 291.691650 0.000000 -0.000000 0.000000
  1 4.103849 20.328756 153.735870 0.000000 0.000000 0.000000
  2 -0.186268 0.167366 -1.425583 -0.210474 -0.000000 0.000000
  3 0.923381 -2.004179 -52.426399 0.020839 -0.000000 0.000000
  4 0.209927 0.167364 3.934113 0.036770 0.000000 -0.000000
  5 -25.474823 -86.086037 -37.911140 0.087266 0.000000 -0.000000
  6 -0.737603 -0.548838 40.203659 0.020746 0.000000 0.000000
  7 2.553308 7.297699 96.216141 0.000000 -0.000000 0.000000
  8 25.337774 -9.646732 2.086899 -0.126845 -0.135186 0.016270
  9 -23.810329 -7.093719 2.086929 -0.356105 0.065973 0.017294
 10 -7.352507 52.005489 -48.397385 -0.018798 -0.000000 0.000000
 11 -0.684172 -0.276030 30.967407 0.000000 -0.000000 0.000000
 12 -13.534458 -1.160921 22.015182 3.019416 -0.000000 0.000000
 13 -20.972828 -0.005866 -27.595093 0.000000 0.209439 0.000000
 14 -18.070229 -6.045797 -20.586197 2.577424 0.599609 -0.374444
 15 5.932739 -5.752602 0.181625 -1.147836 0.866904 -0.065273
 16 0.492683 -33.874741 19.443890 0.000000 -0.000000 -0.000000
 17 0.000015 0.000000 -0.000011 -0.000000 0.000000 -0.000000
 18 12.176292 -0.829266 23.085022 -0.330962 0.156863 0.008289
 19 23.438763 1.362869 -28.210815 0.622483 0.147093 -0.046223
 20 17.520042 -4.855549 -21.387650 -0.711899 -0.292696 0.333598
 21 6.597038 5.855776 -9.931335 0.000000 -0.000000 0.000000
 22 -0.072890 -1.214045 9.388031 0.000000 -0.000000 0.000000
 23 0.000010 -5.381660 -154.110336 -0.034538 -0.005058 -0.145357
time 27
  0 4.103849 8.412075 291.691650 0.000000 -0.000000 0.000000
  1 4.103849 18.419294 151.577652 0.000000 0.000000 0.000000
  2 -0.186268 0.167366 -1.425583 -0.201074 -0.000000 0.000000
  3 0.923381 -2.004177 -52.426422 0.053701 -0.000000 0.000000
  4 0.209927 0.167364 3.671906 0.045229 0.000000 -0.000000
  5 -25.474823 -90.998505 -37.911125 0.087266 0.000000 0.000000
  6 -0.737603 -0.548840 40.203674 0.005277 0.000000 0.000000
  7 2.553308 7.297703 96.216171 0.000000 -0.000000 0.000000
  8 25.337778 -9.646732 2.086914 -0.103232 -0.136014 0.013128
  9 -23.810328 -7.093719 2.086914 -0.332130 0.065743 0.018934
 10 -7.352508 52.005501 -48.397385 0.033137 -0.000000 0.000000
 11 -0.684172 -0.276031 30.967392 0.000000 -0.000000 0.000000
 12 -13.534458 -1.160923 22.015213 3.019416 0.000000 0.000000
 13 -20.972830 -0.005867 -27.595078 -0.000000 0.209439 -0.000000
 14 -18.070227 -6.045794 -20.586166 2.577424 0.599609 -0.374444
 15 5.932716 -5.752609 0.181625 -1.147836 0.866904 -0.065273
 16 0.492695 -33.874771 19.443897 0.000000 -0.000000 -0.000000
 17 0.000015 0.000000 -0.000008 0.000000 0.000000 -0.000000
 18 12.176294 -0.829269 23.085022 -0.330962 0.156863 0.008289
 19 23.438768 1.362873 -28.210815 0.622482 0.147093 -0.046223
 20 17.520042 -4.855556 -21.387657 -0.685143 -0.297222 0.332569
 21 6.597038 5.855774 -9.931335 0.000000 -0.000000 0.000000
 22 -0.072890 -1.214048 9.388046 0.000000 -0.000000 0.000000
 23 0.000010 -5.381660 -154.110336 -0.034538 -0.005058 -0.145357
time 28
  0 4.103849 8.412075 291.691650 0.000000 -0.000000 0.000000
  1 4.103849 16.571653 149.489304 0.000000 0.000000 0.000000
  2 -0.186268 0.167366 -1.425583 -0.191082 -0.000000 0.000000
  3 0.923381 -2.004175 -52.426407 0.085056 -0.000000 0.000000
  4 0.209927 0.167364 3.420868 0.053444 0.000000 -0.000000
  5 -24.427364 -84.027588 -38.617149 0.087266 0.000000 0.000000
  6 -0.737603 -0.548840 40.203659 -0.009586 0.000000 0.000000
  7 2.553308 7.297703 96.216125 0.000000 -0.000000 0.000000
  8 25.337778 -9.646730 2.086884 -0.081342 -0.136781 0.010215
  9 -23.810328 -7.093718 2.086899 -0.309809 0.065528 0.020460
 10 -7.352507 52.005497 -48.397385 0.081405 -0.000000 0.000000
 11 -0.684172 -0.276028 30.967377 0.000000 -0.000000 0.000000
 12 -13.534459 -1.160923 22.015213 3.019416 -0.000000 0.000000
 13 -20.972830 -0.005869 -27.595062 -0.000000 0.209439 0.000000
 14 -18.070230 -6.045794 -20.586182 2.577424 0.599609 -0.374444
 15 5.932724 -5.752609 0.181641 -1.147836 0.866904 -0.065273
 16 0.492683 -33.874741 19.443893 0.000000 -0.000000 0.000000
 17 0.000023 0.000000 -0.000008 0.000000 0.000000 -0.000000
 18 12.176293 -0.829268 23.085022 -0.330962 0.156863 0.008289
 19 23.438772 1.362865 -28.210846 0.622482 0.147093 -0.046223
 20 17.520042 -4.855560 -21.387657 -0.659711 -0.301525 0.331590
 21 6.597046 5.855780 -9.931335 0.000000 -0.000000 0.000000
 22 -0.072890 -1.214048 9.388046 0.000000 -0.000000 0.000000
 23 0.000010 -5.381660 -154.110336 -0.034538 -0.005058 -0.145357
time 29
  0 4.103849 8.412075 291.691650 0.000000 -0.000000 0.000000
  1 4.103849 14.829306 147.519958 0.000000 0.000000 0.000000
  2 -0.186268 0.167365 -1.425583 -0.180500 -0.000000 0.000000
  3 0.923380 -2.004178 -52.426399 0.114275 -0.000000 0.000000
  4 0.209927 0.167365 3.186249 0.061215 0.000000 -0.000000
  5 -21.661312 -65.649750 -40.478516 0.087266 0.000000 0.000000
  6 -0.737604 -0.548840 40.203659 -0.023523 0.000000 0.000000
  7 2.553308 7.297699 96.216110 0.000000 -0.000000 0.000000
  8 25.337776 -9.646732 2.086899 -0.061456 -0.137478 0.007569
  9 -23.810329 -7.093720 2.086899 -0.289454 0.065332 0.021852
 10 -7.352507 52.005489 -48.397385 0.125352 -0.000000 0.000000
 11 -0.684172 -0.276031 30.967377 0.000000 -0.000000 0.000000
 12 -13.534458 -1.160923 22.015182 3.019416 0.000000 0.000000
 13 -20.972828 -0.005867 -27.595078 0.000000 0.209439 -0.000000
 14 -18.070223 -6.045795 -20.586182 2.577424 0.599609 -0.374444
 15 5.932716 -5.752609 0.181610 -1.147836 0.866904 -0.065273
 16 0.492680 -33.874741 19.443893 0.000000 0.000000 0.000000
 17 0.000015 0.000000 -0.000011 -0.000000 -0.000000 0.000000
 18 12.176294 -0.829269 23.085022 -0.330962 0.156863 0.008289
 19 23.438765 1.362877 -28.210831 0.622482 0.147093 -0.046223
 20 17.520039 -4.855553 -21.387650 -0.636090 -0.305521 0.330682
 21 6.597034 5.855778 -9.931335 0.000000 -0.000000 0.000000
 22 -0.072890 -1.214046 9.388031 0.000000 -0.000000 0.000000
 23 0.000011 -5.381660 -154.110336 -0.034538 -0.005058 -0.145357
time 30
  0 4.103849 8.412075 291.691650 0.000000 -0.000000 0.000000
  1 4.103849 13.235731 145.718781 0.000000 0.000000 0.000000
  2 -0.186268 0.167365 -1.425583 -0.169330 -0.000000 0.000000
  3 0.923380 -2.004175 -52.426399 0.140728 -0.000000 0.000000
  4 0.209927 0.167365 2.973312 0.068339 0.000000 -0.000000
  5 -17.741135 -39.667267 -43.110054 0.087266 0.000000 -0.000000
  6 -0.737603 -0.548840 40.203659 -0.036215 0.000000 0.000000
  7 2.553308 7.297701 96.216125 0.000000 -0.000000 0.000000
  8 25.337776 -9.646731 2.086899 -0.043855 -0.138095 0.005227
  9 -23.810329 -7.093719 2.086914 -0.271377 0.065159 0.023089
 10 -7.352507 52.005489 -48.397369 0.164327 -0.000000 0.000000
 11 -0.684172 -0.276030 30.967377 0.000000 -0.000000 0.000000
 12 -13.534458 -1.160923 22.015198 3.019416 -0.000000 0.000000
 13 -20.972828 -0.005865 -27.595078 -0.000000 0.209439 0.000000
 14 -18.070229 -6.045796 -20.586166 2.577424 0.599609 -0.374444
 15 5.932701 -5.752594 0.181610 -1.147836 0.866904 -0.065273
 16 0.492691 -33.874756 19.443909 0.000000 -0.000000 0.000000
 17 0.000015 -0.000031 -0.000013 -0.000000 0.000000 0.000000
 18 12.176295 -0.829269 23.085022 -0.330962 0.156863 0.008289
 19 23.438768 1.362873 -28.210831 0.622482 0.147093 -0.046223
 20 17.520039 -4.855553 -21.387650 -0.614766 -0.309129 0.329861
 21 6.597038 5.855778 -9.931343 0.000000 -0.000000 0.000000
 22 -0.072890 -1.214048 9.388031 0.000000 -0.000000 0.000000
 23 0.000011 -5.381660 -154.110336 -0.034538 -0.005058 -0.145357
time 31
  0 4.103849 8.412075 291.691650 0.000000 -0.000000 0.000000
  1 4.103849 11.834405 144.134888 0.000000 0.000000 0.000000
  2 -0.186268 0.167365 -1.425583 -0.157574 -0.000000 0.000000
  3 0.923381 -2.004177 -52.426399 0.163784 -0.000000 0.000000
  4 0.209927 0.167365 2.787308 0.074618 0.000000 -0.000000
  5 -13.231318 -9.882485 -46.126724 0.087266 0.000000 0.000000
  6 -0.737603 -0.548840 40.203674 -0.047342 0.000000 0.000000
  7 2.553308 7.297703 96.216141 0.000000 -0.000000 0.000000
  8 25.337778 -9.646732 2.086884 -0.028823 -0.138622 0.003226
  9 -23.810328 -7.093721 2.086899 -0.255888 0.065010 0.024148
 10 -7.352507 52.005497 -48.397415 0.197678 -0.000000 0.000000
 11 -0.684172 -0.276031 30.967361 0.000000 -0.000000 0.000000
 12 -13.534458 -1.160921 22.015213 3.019416 -0.000000 0.000000
 13 -20.972830 -0.005867 -27.595078 -0.000000 0.209439 -0.000000
 14 -18.070227 -6.045796 -20.586182 2.577424 0.599609 -0.374444
 15 5.932716 -5.752609 0.181625 -1.147836 0.866904 -0.065273
 16 0.492687 -33.874771 19.443905 0.000000 -0.000000 0.000000
 17 0.000015 0.000000 -0.000010 -0.000000 -0.000000 0.000000
 18 12.176292 -0.829269 23.085037 -0.330962 0.156863 0.008289
 19 23.438763 1.362869 -28.210815 0.622482 0.147093 -0.046223
 20 17.520046 -4.855553 -21.387650 -0.596228 -0.312265 0.329148
 21 6.597034 5.855777 -9.931335 0.000000 -0.000000 0.000000
 22 -0.072890 -1.214046 9.388046 0.000000 -0.000000 0.000000
 23 0.000011 -5.381660 -154.110336 -0.034538 -0.005058 -0.145357
time 32
  0 4.103849 8.412075 291.691650 0.000000 -0.000000 0.000000
  1 4.103849 10.668802 142.817429 0.000000 0.000000 0.000000
  2 -0.186268 0.167365 -1.425583 -0.145233 -0.000000 0.000000
  3 0.923380 -2.004175 -52.426407 0.182813 -0.000000 0.000000
  4 0.209927 0.167365 2.633484 0.079851 0.000000 -0.000000
  5 -8.696326 19.902309 -49.143379 0.087266 0.000000 -0.000000
  6 -0.737603 -0.548838 40.203674 -0.056584 0.000000 0.000000
  7 2.553308 7.297703 96.216141 0.000000 -0.000000 0.000000
  8 25.337776 -9.646732 2.086899 -0.016641 -0.139049 0.001605
  9 -23.810329 -7.093721 2.086914 -0.243298 0.064889 0.025009
 10 -7.352508 52.005497 -48.397400 0.224753 -0.000000 0.000000
 11 -0.684172 -0.276030 30.967377 0.000000 -0.000000 0.000000
 12 -13.534458 -1.160921 22.015213 3.019416 0.000000 0.000000
 13 -20.972828 -0.005867 -27.595093 0.000000 0.209439 0.000000
 14 -18.070223 -6.045796 -20.586166 2.577425 0.599609 -0.374444
 15 5.932701 -5.752609 0.181641 -1.147836 0.866904 -0.065273
 16 0.492683 -33.874756 19.443901 0.000000 -0.000000 0.000000
 17 0.000015 -0.000015 -0.000013 -0.000000 0.000000 0.000000
 18 12.176292 -0.829269 23.085037 -0.330962 0.156863 0.008289
 19 23.438761 1.362862 -28.210831 0.622482 0.147093 -0.046223
 20 17.520041 -4.855556 -21.387657 -0.580961 -0.314848 0.328561
 21 6.597042 5.855775 -9.931335 0.000000 -0.000000 0.000000
 22 -0.072890 -1.214046 9.388031 0.000000 -0.000000 0.000000
 23 0.000010 -5.381660 -154.110336 -0.034538 -0.005058 -0.145357
time 33
  0 4.103849 8.412075 291.691650 0.000000 -0.000000 0.000000
  1 4.103849 9.782397 141.815552 0.000000 0.000000 0.000000
  2 -0.186268 0.167365 -1.425583 -0.132309 -0.000000 0.000000
  3 0.923381 -2.004176 -52.426407 0.197186 -0.000000 0.000000
  4 0.209927 0.167365 2.517120 0.083837 0.000000 -0.000000
  5 -4.700637 45.884781 -51.774956 0.087266 0.000000 -0.000000
  6 -0.737603 -0.548840 40.203674 -0.063623 0.000000 0.000000
  7 2.553308 7.297703 96.216171 0.000000 -0.000000 0.000000
  8 25.337776 -9.646731 2.086914 -0.007590 -0.139366 0.000401
  9 -23.810329 -7.093720 2.086914 -0.233921 0.064799 0.025651
 10 -7.352507 52.005486 -48.397369 0.244900 -0.000000 0.000000
 11 -0.684172 -0.276030 30.967392 0.000000 -0.000000 0.000000
 12 -13.534458 -1.160923 22.015198 3.019416 -0.000000 0.000000
 13 -20.972828 -0.005869 -27.595078 -0.000000 0.209439 -0.000000
 14 -18.070225 -6.045796 -20.586166 2.577424 0.599609 -0.374444
 15 5.932709 -5.752594 0.181641 -1.147836 0.866904 -0.065273
 16 0.492683 -33.874756 19.443903 0.000000 -0.000000 0.000000
 17 0.000019 -0.000015 -0.000011 -0.000000 0.000000 -0.000000
 18 12.176292 -0.829271 23.085007 -0.330962 0.156863 0.008289
 19 23.438763 1.362865 -28.210815 0.622483 0.147093 -0.046223
 20 17.520048 -4.855556 -21.387657 -0.569454 -0.316795 0.328118
 21 6.597038 5.855775 -9.931335 0.000000 -0.000000 0.000000
 22 -0.072890 -1.214048 9.388031 0.000000 -0.000000 0.000000
 23 0.000010 -5.381660 -154.110336 -0.034538 -0.005058 -0.145357
time 34
  0 4.103849 8.412075 291.691650 0.000000 -0.000000 0.000000
  1 4.103849 9.218677 141.178391 0.000000 0.000000 0.000000
  2 -0.186268 0.167365 -1.425583 -0.118804 -0.000000 0.000000
  3 0.923380 -2.004177 -52.426399 0.206271 -0.000000 0.000000
  4 0.209927 0.167365 2.443436 0.086376 0.000000 -0.000000
  5 -1.808727 64.262634 -53.636292 0.087266 0.000000 0.000000
  6 -0.737603 -0.548840 40.203674 -0.068140 0.000000 0.000000
  7 2.553308 7.297702 96.216125 0.000000 -0.000000 0.000000
  8 25.337774 -9.646732 2.086899 -0.001953 -0.139564 -0.000349
  9 -23.810331 -7.093720 2.086914 -0.228066 0.064742 0.026051
 10 -7.352507 52.005497 -48.397369 0.257466 -0.000000 0.000000
 11 -0.684172 -0.276031 30.967377 0.000000 -0.000000 0.000000
 12 -13.534458 -1.160921 22.015213 3.019416 -0.000000 0.000000
 13 -20.972830 -0.005867 -27.595062 -0.000000 0.209439 -0.000000
 14 -18.070227 -6.045796 -20.586182 2.577424 0.599609 -0.374444
 15 5.932693 -5.752602 0.181641 -1.147836 0.866904 -0.065273
 16 0.492691 -33.874756 19.443903 0.000000 -0.000000 -0.000000
 17 0.000015 -0.000015 -0.000011 -0.000000 0.000000 -0.000000
 18 12.176291 -0.829268 23.085037 -0.330962 0.156863 0.008289
 19 23.438765 1.362869 -28.210831 0.622482 0.147093 -0.046223
 20 17.520042 -4.855556 -21.387657 -0.562192 -0.318023 0.327838
 21 6.597042 5.855776 -9.931343 0.000000 -0.000000 0.000000
 22 -0.072890 -1.214046 9.388031 0.000000 -0.000000 0.000000
 23 0.000010 -5.381660 -154.110336 -0.034538 -0.005058 -0.145357
time 35
  0 4.103849 8.412075 291.691650 0.000000 -0.000000 0.000000
  1 4.103849 9.021107 140.955078 0.000000 0.000000 0.000000
  2 -0.186268 0.167365 -1.425583 -0.104720 0.000000 0.000000
  3 0.923381 -2.004175 -52.426407 0.209440 -0.000000 0.000000
  4 0.209927 0.167365 2.417709 0.087266 0.000000 -0.000000
  5 -0.585070 71.233551 -54.342323 0.087266 0.000000 -0.000000
  6 -0.737603 -0.548840 40.203674 -0.069813 0.000000 -0.000000
  7 2.553308 7.297702 96.216095 0.000000 -0.000000 0.000000
  8 25.337776 -9.646732 2.086899 -0.000011 -0.139632 -0.000607
  9 -23.810329 -7.093720 2.086884 -0.226045 0.064723 0.026189
 10 -7.352507 52.005493 -48.397385 0.261799 0.000000 0.000000
 11 -0.684172 -0.276030 30.967392 0.000000 -0.000000 0.000000
 12 -13.534458 -1.160923 22.015198 3.019416 -0.000000 0.000000
 13 -20.972830 -0.005867 -27.595062 -0.000000 0.209439 0.000000
 14 -18.070223 -6.045796 -20.586166 2.577424 0.599609 -0.374444
 15 5.932701 -5.752602 0.181641 -1.147836 0.866904 -0.065273
 16 0.492680 -33.874741 19.443903 0.000000 -0.000000 -0.000000
 17 0.000015 -0.000015 -0.000015 -0.000000 0.000000 -0.000000
 18 12.176293 -0.829271 23.085022 -0.330962 0.156863 0.008289
 19 23.438774 1.362869 -28.210831 0.622482 0.147093 -0.046223
 20 17.520044 -4.855553 -21.387650 -0.559663 -0.318451 0.327741
 21 6.597046 5.855778 -9.931335 0.000000 -0.000000 0.000000
 22 -0.072890 -1.214048 9.388046 0.000000 -0.000000 0.000000
 23 0.000010 -5.381660 -154.110336 -0.034538 -0.005058 -0.145357
end
