version 1
nodes
  0 "bone34"  -1
  1 "bone31"  -1
  2 "bone17"  -1
  3 "bone16"   2
  4 "bone12"   3
  5 "bone13"   4
  6 "bone15"   5
  7 "bone19"   6
  8 "bone05"   3
  9 "bone18"   8
 10 "bone14"   9
 11 "bone20"  10
 12 "bone02"   2
 13 "bone01"  12
 14 "bone03"  13
 15 "bone10"  14
 16 "bone08"  15
 17 "bone22"  16
 18 "bone24"  16
 19 "bone25"  15
 20 "bone09"  12
 21 "bone04"  20
 22 "bone07"  21
 23 "bone26"  22
 24 "bone06"  12
 25 "bone27"  24
 26 "bone28"  12
 27 "bone29"  12
 28 "bone30"  12
end
skeleton
time 0
  0 -5.113562 -3.392895 0.796835 0.000000 -0.000000 0.000000
  1 -7.310884 -0.101110 174.348495 0.000000 -0.000000 0.000000
  2 -5.113562 -3.392895 63.890411 0.052360 -0.000000 0.000000
  3 0.325039 1.113430 -5.098995 -0.079827 0.000000 -0.000000
  4 6.206746 -0.124160 -11.733643 0.401425 -0.000001 0.000000
  5 2.376919 1.428909 -19.463915 0.698132 0.000001 0.000000
  6 1.646508 1.612122 -34.692955 0.000000 -0.000000 0.000000
  7 0.219322 -4.030296 -4.600571 0.000000 -0.000000 0.000000
  8 -6.833119 -0.124160 -11.733643 -1.174288 -0.191929 -0.399324
  9 -2.998633 1.160213 -19.583820 1.058922 -0.058546 0.245969
 10 -1.356795 1.880819 -34.573063 0.097549 0.155153 -0.039225
 11 -0.258572 -4.030293 -4.908826 0.000000 -0.000000 0.000000
 12 0.325039 1.113430 0.809025 -0.052232 0.003652 0.069720
 13 7.054492 1.815097 15.713707 0.048885 -0.072318 -0.664994
 14 12.909769 -0.165818 -12.867264 0.058706 -0.086767 -0.002549
 15 11.504263 -9.735166 -11.778587 -0.114160 0.138026 -0.699164
 16 -4.990952 -20.855862 -11.972145 0.107342 -0.124349 -0.503130
 17 1.952604 -90.186752 -0.924717 0.000000 -0.000000 0.000000
 18 -35.001930 9.597200 -70.247513 0.000000 -0.000000 0.000000
 19 3.759453 -1.898641 -3.541325 0.000000 -0.000000 0.000000
 20 -7.698016 1.934286 15.877953 -0.431614 -0.136398 -0.316946
 21 -12.721179 -0.083347 -12.838245 0.350879 -0.485336 0.230535
 22 -9.167521 -10.101498 -11.648903 0.579793 0.809829 1.024413
 23 -3.642090 -2.032094 -4.543644 0.000000 -0.000000 0.000000
 24 -0.409780 2.428936 22.341393 -0.000001 0.000000 -0.122176
 25 -0.380095 -2.887196 20.845375 0.000000 -0.000000 0.000000
 26 -0.040495 -0.674471 8.862854 0.000000 -0.000000 0.000000
 27 -0.325040 -1.113431 -83.015976 0.000000 -0.000000 0.000000
 28 -0.325040 -1.113431 -83.015976 0.000000 -0.000000 0.000000
time 1
  0 -5.113562 -3.392895 0.796835 0.000000 -0.000000 0.000000
  1 -7.310884 -0.101110 174.348495 0.000000 -0.000000 0.000000
  2 -5.113562 -3.392895 63.890411 0.052360 -0.000000 0.000000
  3 0.325039 1.113430 -5.098995 -0.079825 0.000000 -0.000000
  4 6.206746 -0.124160 -11.733646 0.401425 -0.000001 0.000000
  5 2.376919 1.428907 -19.463915 0.698132 0.000001 0.000000
  6 1.646508 1.612120 -34.692955 0.000000 -0.000000 0.000000
  7 0.219322 -4.030298 -4.600573 0.000000 -0.000000 0.000000
  8 -6.833119 -0.124160 -11.733650 -1.174288 -0.191929 -0.399324
  9 -2.998634 1.160221 -19.583817 1.058922 -0.058547 0.245969
 10 -1.356794 1.880825 -34.573063 0.097549 0.155153 -0.039225
 11 -0.258572 -4.030293 -4.908826 0.000000 -0.000000 0.000000
 12 0.325039 1.113430 0.809025 -0.052232 0.003652 0.069720
 13 7.054491 1.815096 15.713707 0.048885 -0.072318 -0.664994
 14 12.909765 -0.165820 -12.867264 0.058706 -0.086767 -0.002549
 15 11.504257 -9.735168 -11.778587 -0.114160 0.138026 -0.699164
 16 -4.990942 -20.855856 -11.972141 0.107342 -0.124349 -0.503130
 17 1.952621 -90.186729 -0.924725 0.000000 -0.000000 0.000000
 18 -35.001930 9.597198 -70.247498 0.000000 -0.000000 0.000000
 19 3.759457 -1.898643 -3.541325 0.000000 -0.000000 0.000000
 20 -7.698015 1.934285 15.877953 -0.431614 -0.136398 -0.316947
 21 -12.721180 -0.083347 -12.838249 0.350879 -0.485336 0.230535
 22 -9.167519 -10.101496 -11.648899 0.579793 0.809828 1.024413
 23 -3.642086 -2.032094 -4.543638 0.000000 -0.000000 0.000000
 24 -0.409780 2.428936 22.341393 -0.000001 0.000000 -0.122176
 25 -0.380095 -2.887196 20.845375 0.000000 -0.000000 0.000000
 26 -0.040494 -0.674471 8.862854 0.000000 -0.000000 0.000000
 27 -0.325040 -1.113431 -83.015968 0.000000 -0.000000 0.000000
 28 -0.325040 -1.113431 -83.015968 0.000000 -0.000000 0.000000
time 2
  0 -5.113562 -3.392895 0.796835 0.000000 -0.000000 0.000000
  1 -7.310884 -0.101110 174.348495 0.000000 -0.000000 0.000000
  2 -5.113562 -3.392895 64.878578 0.052360 -0.000000 0.000000
  3 0.325039 1.113430 -5.099003 -0.079823 0.000000 -0.000000
  4 6.206746 -0.124160 -11.733654 0.387868 -0.000001 0.000000
  5 2.376919 1.428907 -19.463917 0.699638 0.000001 -0.000000
  6 1.646508 1.612118 -34.692963 0.000000 -0.000000 0.000000
  7 0.219322 -4.030296 -4.600569 0.000000 -0.000000 0.000000
  8 -6.833120 -0.124160 -11.733650 -1.161395 -0.186645 -0.398002
  9 -2.998633 1.160221 -19.583817 1.055577 -0.058974 0.245209
 10 -1.356791 1.880827 -34.573063 0.097549 0.155153 -0.039225
 11 -0.258573 -4.030291 -4.908826 0.000000 -0.000000 0.000000
 12 0.325039 1.113430 0.809013 -0.052232 0.003652 0.069720
 13 7.054492 1.815097 15.713699 0.048885 -0.072318 -0.664994
 14 12.909766 -0.165818 -12.867264 0.058706 -0.086767 -0.002549
 15 11.504259 -9.735165 -11.778587 -0.114160 0.138026 -0.699164
 16 -4.990946 -20.855856 -11.972145 0.107342 -0.124349 -0.503130
 17 1.952621 -90.186737 -0.924713 0.000000 -0.000000 0.000000
 18 -35.001923 9.597208 -70.247490 0.000000 -0.000000 0.000000
 19 3.759455 -1.898640 -3.541325 0.000000 -0.000000 0.000000
 20 -7.698016 1.934286 15.877953 -0.431614 -0.136398 -0.316947
 21 -12.721179 -0.083347 -12.838249 0.350879 -0.485336 0.230535
 22 -9.167522 -10.101496 -11.648899 0.579793 0.809829 1.024414
 23 -3.642090 -2.032094 -4.543642 0.000000 -0.000000 0.000000
 24 -0.409780 2.428936 22.341393 0.003229 0.000167 -0.122152
 25 -0.380095 -2.887196 20.845383 0.000000 -0.000000 0.000000
 26 -0.040495 -0.674471 8.862854 0.000000 -0.000000 0.000000
 27 -0.325040 -1.113431 -83.015968 0.000000 -0.000000 0.000000
 28 -0.325040 -1.113431 -83.015968 0.000000 -0.000000 0.000000
time 3
  0 -5.113562 -3.392895 0.796835 0.000000 -0.000000 0.000000
  1 -7.310884 -0.101110 174.348495 0.000000 -0.000000 0.000000
  2 -5.113562 -3.392895 67.556923 0.052360 -0.000000 0.000000
  3 0.325039 1.113430 -5.099003 -0.079821 0.000000 0.000000
  4 6.206746 -0.124160 -11.733646 0.349364 -0.000001 0.000000
  5 2.376919 1.428907 -19.463915 0.703917 0.000001 0.000000
  6 1.646507 1.612118 -34.692955 0.000000 -0.000000 0.000000
  7 0.219322 -4.030296 -4.600571 0.000000 -0.000000 0.000000
  8 -6.833119 -0.124160 -11.733646 -1.124776 -0.171639 -0.394248
  9 -2.998632 1.160221 -19.583818 1.046075 -0.060187 0.243051
 10 -1.356787 1.880831 -34.573059 0.097549 0.155153 -0.039225
 11 -0.258572 -4.030293 -4.908823 0.000000 -0.000000 0.000000
 12 0.325039 1.113430 0.809013 -0.052232 0.003652 0.069720
 13 7.054492 1.815097 15.713699 0.048885 -0.072318 -0.664994
 14 12.909769 -0.165819 -12.867264 0.058706 -0.086767 -0.002549
 15 11.504263 -9.735167 -11.778587 -0.114160 0.138026 -0.699164
 16 -4.990948 -20.855860 -11.972145 0.107342 -0.124349 -0.503130
 17 1.952602 -90.186745 -0.924713 0.000000 -0.000000 0.000000
 18 -35.001934 9.597199 -70.247490 0.000000 -0.000000 0.000000
 19 3.759455 -1.898643 -3.541325 0.000000 -0.000000 0.000000
 20 -7.698015 1.934286 15.877953 -0.431614 -0.136398 -0.316947
 21 -12.721182 -0.083347 -12.838245 0.350879 -0.485336 0.230535
 22 -9.167521 -10.101500 -11.648903 0.579793 0.809829 1.024413
 23 -3.642094 -2.032096 -4.543644 0.000000 -0.000000 0.000000
 24 -0.409780 2.428936 22.341393 0.012348 0.000639 -0.122086
 25 -0.380095 -2.887197 20.845375 0.000000 -0.000000 0.000000
 26 -0.040494 -0.674471 8.862854 0.000000 -0.000000 0.000000
 27 -0.325039 -1.113431 -83.015968 0.000000 -0.000000 0.000000
 28 -0.325039 -1.113431 -83.015968 0.000000 -0.000000 0.000000
time 4
  0 -5.113562 -3.392895 0.796835 0.000000 -0.000000 0.000000
  1 -7.310884 -0.101110 174.348495 0.000000 -0.000000 0.000000
  2 -5.113562 -3.392895 71.496201 0.052360 -0.000000 0.000000
  3 0.325039 1.113430 -5.099007 -0.079819 0.000000 0.000000
  4 6.206747 -0.124160 -11.733650 0.289164 -0.000001 0.000000
  5 2.376919 1.428907 -19.463917 0.710606 0.000001 -0.000000
  6 1.646507 1.612118 -34.692955 0.000000 -0.000000 0.000000
  7 0.219322 -4.030296 -4.600569 0.000000 -0.000000 0.000000
  8 -6.833119 -0.124160 -11.733650 -1.067524 -0.148176 -0.388377
  9 -2.998634 1.160221 -19.583818 1.031220 -0.062083 0.239678
 10 -1.356796 1.880827 -34.573059 0.097549 0.155153 -0.039225
 11 -0.258574 -4.030293 -4.908825 0.000000 -0.000000 0.000000
 12 0.325039 1.113430 0.809013 -0.052232 0.003652 0.069720
 13 7.054492 1.815097 15.713707 0.048885 -0.072318 -0.664994
 14 12.909765 -0.165817 -12.867264 0.058706 -0.086767 -0.002549
 15 11.504261 -9.735168 -11.778584 -0.114160 0.138026 -0.699164
 16 -4.990944 -20.855854 -11.972145 0.107342 -0.124349 -0.503130
 17 1.952608 -90.186737 -0.924717 0.000000 -0.000000 0.000000
 18 -35.001930 9.597199 -70.247505 0.000000 -0.000000 0.000000
 19 3.759453 -1.898642 -3.541328 0.000000 -0.000000 0.000000
 20 -7.698016 1.934285 15.877953 -0.431614 -0.136398 -0.316947
 21 -12.721180 -0.083347 -12.838257 0.350879 -0.485336 0.230535
 22 -9.167519 -10.101496 -11.648903 0.579793 0.809829 1.024413
 23 -3.642090 -2.032094 -4.543644 0.000000 -0.000000 0.000000
 24 -0.409780 2.428936 22.341393 0.026500 0.001371 -0.121983
 25 -0.380095 -2.887196 20.845375 0.000000 -0.000000 0.000000
 26 -0.040494 -0.674471 8.862854 0.000000 -0.000000 0.000000
 27 -0.325039 -1.113431 -83.015968 0.000000 -0.000000 0.000000
 28 -0.325039 -1.113431 -83.015968 0.000000 -0.000000 0.000000
time 5
  0 -5.113562 -3.392895 0.796835 0.000000 -0.000000 0.000000
  1 -7.310884 -0.101110 174.348495 0.000000 -0.000000 0.000000
  2 -5.113562 -3.392895 76.267159 0.052360 -0.000000 0.000000
  3 0.325039 1.113430 -5.099007 -0.079818 0.000000 -0.000000
  4 6.206746 -0.124160 -11.733646 0.210522 -0.000001 0.000000
  5 2.376919 1.428908 -19.463913 0.719344 0.000001 0.000000
  6 1.646507 1.612118 -34.692963 0.000000 -0.000000 0.000000
  7 0.219322 -4.030296 -4.600569 0.000000 -0.000000 0.000000
  8 -6.833120 -0.124160 -11.733646 -0.992731 -0.117525 -0.380709
  9 -2.998635 1.160221 -19.583818 1.011814 -0.064560 0.235271
 10 -1.356794 1.880821 -34.573051 0.097549 0.155153 -0.039225
 11 -0.258572 -4.030293 -4.908823 0.000000 -0.000000 0.000000
 12 0.325039 1.113430 0.809013 -0.052232 0.003652 0.069720
 13 7.054491 1.815097 15.713707 0.048885 -0.072318 -0.664994
 14 12.909767 -0.165820 -12.867279 0.058706 -0.086767 -0.002549
 15 11.504253 -9.735166 -11.778580 -0.114160 0.138026 -0.699164
 16 -4.990940 -20.855850 -11.972149 0.107342 -0.124349 -0.503130
 17 1.952627 -90.186737 -0.924721 0.000000 -0.000000 0.000000
 18 -35.001930 9.597202 -70.247505 0.000000 -0.000000 0.000000
 19 3.759455 -1.898640 -3.541328 0.000000 -0.000000 0.000000
 20 -7.698015 1.934285 15.877953 -0.431614 -0.136398 -0.316947
 21 -12.721181 -0.083347 -12.838249 0.350879 -0.485336 0.230535
 22 -9.167519 -10.101498 -11.648911 0.579793 0.809828 1.024413
 23 -3.642097 -2.032094 -4.543640 0.000000 -0.000000 0.000000
 24 -0.409780 2.428936 22.341393 0.044827 0.002319 -0.121850
 25 -0.380095 -2.887195 20.845375 0.000000 -0.000000 0.000000
 26 -0.040494 -0.674471 8.862854 0.000000 -0.000000 0.000000
 27 -0.325040 -1.113431 -83.015976 0.000000 -0.000000 0.000000
 28 -0.325040 -1.113431 -83.015976 0.000000 -0.000000 0.000000
time 6
  0 -5.113562 -3.392895 0.796835 0.000000 -0.000000 0.000000
  1 -7.310884 -0.101110 174.348495 0.000000 -0.000000 0.000000
  2 -5.113562 -3.392895 81.440536 0.052360 -0.000000 0.000000
  3 0.325039 1.113430 -5.099007 -0.079817 0.000000 -0.000000
  4 6.206746 -0.124160 -11.733643 0.116687 -0.000001 0.000000
  5 2.376919 1.428908 -19.463905 0.729770 0.000001 0.000000
  6 1.646508 1.612118 -34.692955 0.000000 -0.000000 0.000000
  7 0.219322 -4.030298 -4.600570 0.000000 -0.000000 0.000000
  8 -6.833119 -0.124160 -11.733650 -0.903491 -0.080954 -0.371558
  9 -2.998632 1.160217 -19.583817 0.988659 -0.067516 0.230013
 10 -1.356791 1.880825 -34.573063 0.097549 0.155153 -0.039225
 11 -0.258574 -4.030292 -4.908826 0.000000 -0.000000 0.000000
 12 0.325039 1.113430 0.809013 -0.052232 0.003652 0.069720
 13 7.054491 1.815096 15.713707 0.048885 -0.072318 -0.664994
 14 12.909766 -0.165820 -12.867271 0.058706 -0.086767 -0.002549
 15 11.504255 -9.735169 -11.778587 -0.114160 0.138026 -0.699164
 16 -4.990940 -20.855858 -11.972145 0.107342 -0.124349 -0.503130
 17 1.952631 -90.186729 -0.924721 0.000000 -0.000000 0.000000
 18 -35.001938 9.597199 -70.247505 0.000000 -0.000000 0.000000
 19 3.759455 -1.898643 -3.541321 0.000000 -0.000000 0.000000
 20 -7.698016 1.934285 15.877953 -0.431614 -0.136398 -0.316946
 21 -12.721180 -0.083344 -12.838249 0.350879 -0.485336 0.230535
 22 -9.167522 -10.101498 -11.648903 0.579793 0.809829 1.024413
 23 -3.642090 -2.032097 -4.543640 0.000000 -0.000000 0.000000
 24 -0.409780 2.428936 22.341393 0.066474 0.003439 -0.121693
 25 -0.380095 -2.887196 20.845375 0.000000 -0.000000 0.000000
 26 -0.040494 -0.674471 8.862854 0.000000 -0.000000 0.000000
 27 -0.325039 -1.113431 -83.015976 0.000000 -0.000000 0.000000
 28 -0.325039 -1.113431 -83.015976 0.000000 -0.000000 0.000000
time 7
  0 -5.113562 -3.392895 0.796835 0.000000 -0.000000 0.000000
  1 -7.310884 -0.101110 174.348495 0.000000 -0.000000 0.000000
  2 -5.113562 -3.392895 86.587090 0.052360 -0.000000 0.000000
  3 0.325039 1.113430 -5.099007 -0.079816 0.000000 0.000000
  4 6.206746 -0.124160 -11.733650 0.010913 -0.000001 0.000000
  5 2.376919 1.428908 -19.463913 0.741523 0.000001 0.000000
  6 1.646507 1.612122 -34.692951 0.000000 -0.000000 0.000000
  7 0.219322 -4.030296 -4.600570 0.000000 -0.000000 0.000000
  8 -6.833120 -0.124160 -11.733650 -0.802895 -0.039729 -0.361244
  9 -2.998632 1.160217 -19.583817 0.962558 -0.070848 0.224086
 10 -1.356792 1.880823 -34.573059 0.097549 0.155153 -0.039225
 11 -0.258575 -4.030292 -4.908826 0.000000 -0.000000 0.000000
 12 0.325039 1.113430 0.809021 -0.052232 0.003652 0.069720
 13 7.054492 1.815096 15.713699 0.048885 -0.072318 -0.664994
 14 12.909765 -0.165817 -12.867264 0.058706 -0.086767 -0.002549
 15 11.504261 -9.735164 -11.778595 -0.114160 0.138026 -0.699164
 16 -4.990945 -20.855858 -11.972137 0.107342 -0.124349 -0.503130
 17 1.952625 -90.186745 -0.924721 0.000000 -0.000000 0.000000
 18 -35.001938 9.597207 -70.247505 0.000000 -0.000000 0.000000
 19 3.759451 -1.898640 -3.541328 0.000000 -0.000000 0.000000
 20 -7.698016 1.934285 15.877953 -0.431614 -0.136398 -0.316947
 21 -12.721179 -0.083347 -12.838249 0.350879 -0.485336 0.230535
 22 -9.167519 -10.101500 -11.648903 0.579793 0.809828 1.024413
 23 -3.642090 -2.032096 -4.543640 0.000000 -0.000000 0.000000
 24 -0.409780 2.428936 22.341393 0.090583 0.004686 -0.121518
 25 -0.380095 -2.887196 20.845375 0.000000 -0.000000 0.000000
 26 -0.040494 -0.674471 8.862854 0.000000 -0.000000 0.000000
 27 -0.325039 -1.113431 -83.015968 0.000000 -0.000000 0.000000
 28 -0.325039 -1.113431 -83.015968 0.000000 -0.000000 0.000000
time 8
  0 -5.113562 -3.392895 0.796835 0.000000 -0.000000 0.000000
  1 -7.310884 -0.101110 174.348495 0.000000 -0.000000 0.000000
  2 -5.113562 -3.392895 91.277557 0.052360 -0.000000 0.000000
  3 0.325039 1.113430 -5.099007 -0.079815 0.000000 -0.000000
  4 6.206746 -0.124160 -11.733643 -0.103550 -0.000001 0.000000
  5 2.376919 1.428907 -19.463913 0.754241 0.000001 0.000000
  6 1.646508 1.612120 -34.692951 0.000000 -0.000000 0.000000
  7 0.219322 -4.030300 -4.600571 0.000000 -0.000000 0.000000
  8 -6.833119 -0.124160 -11.733643 -0.694036 0.004883 -0.350082
  9 -2.998634 1.160221 -19.583820 0.934313 -0.074454 0.217672
 10 -1.356794 1.880816 -34.573059 0.097549 0.155153 -0.039225
 11 -0.258574 -4.030293 -4.908825 0.000000 -0.000000 0.000000
 12 0.325039 1.113430 0.809013 -0.052232 0.003652 0.069720
 13 7.054492 1.815096 15.713707 0.048885 -0.072318 -0.664994
 14 12.909767 -0.165818 -12.867264 0.058706 -0.086767 -0.002549
 15 11.504257 -9.735168 -11.778587 -0.114160 0.138026 -0.699164
 16 -4.990944 -20.855856 -11.972137 0.107342 -0.124349 -0.503130
 17 1.952623 -90.186745 -0.924721 0.000000 -0.000000 0.000000
 18 -35.001930 9.597207 -70.247490 0.000000 -0.000000 0.000000
 19 3.759453 -1.898642 -3.541321 0.000000 -0.000000 0.000000
 20 -7.698016 1.934285 15.877953 -0.431614 -0.136398 -0.316947
 21 -12.721179 -0.083347 -12.838249 0.350879 -0.485336 0.230535
 22 -9.167519 -10.101498 -11.648903 0.579793 0.809828 1.024413
 23 -3.642090 -2.032095 -4.543633 0.000000 -0.000000 0.000000
 24 -0.409780 2.428936 22.341393 0.116299 0.006016 -0.121331
 25 -0.380095 -2.887198 20.845367 0.000000 -0.000000 0.000000
 26 -0.040494 -0.674471 8.862854 0.000000 -0.000000 0.000000
 27 -0.325039 -1.113431 -83.015968 0.000000 -0.000000 0.000000
 28 -0.325039 -1.113431 -83.015968 0.000000 -0.000000 0.000000
time 9
  0 -5.113562 -3.392895 0.796835 0.000000 -0.000000 0.000000
  1 -7.310884 -0.101110 174.348495 0.000000 -0.000000 0.000000
  2 -5.113562 -3.392895 95.082695 0.052360 -0.000000 0.000000
  3 0.325039 1.113430 -5.099007 -0.079814 0.000000 0.000000
  4 6.206746 -0.124160 -11.733643 -0.223449 -0.000001 0.000000
  5 2.376919 1.428907 -19.463909 0.767563 0.000001 0.000000
  6 1.646507 1.612118 -34.692955 0.000000 -0.000000 0.000000
  7 0.219322 -4.030296 -4.600571 0.000000 -0.000000 0.000000
  8 -6.833119 -0.124160 -11.733650 -0.580007 0.051613 -0.338390
  9 -2.998634 1.160221 -19.583820 0.904726 -0.078231 0.210953
 10 -1.356794 1.880816 -34.573051 0.097549 0.155153 -0.039225
 11 -0.258574 -4.030293 -4.908823 0.000000 -0.000000 0.000000
 12 0.325039 1.113430 0.809013 -0.052232 0.003652 0.069720
 13 7.054491 1.815096 15.713707 0.048885 -0.072318 -0.664994
 14 12.909764 -0.165820 -12.867271 0.058706 -0.086767 -0.002549
 15 11.504255 -9.735167 -11.778587 -0.114160 0.138026 -0.699164
 16 -4.990940 -20.855850 -11.972145 0.107342 -0.124349 -0.503130
 17 1.952621 -90.186722 -0.924721 0.000000 -0.000000 0.000000
 18 -35.001930 9.597195 -70.247490 0.000000 -0.000000 0.000000
 19 3.759457 -1.898642 -3.541328 0.000000 -0.000000 0.000000
 20 -7.698013 1.934285 15.877953 -0.431614 -0.136398 -0.316947
 21 -12.721178 -0.083347 -12.838249 0.350879 -0.485336 0.230535
 22 -9.167521 -10.101498 -11.648903 0.579793 0.809829 1.024413
 23 -3.642097 -2.032097 -4.543640 0.000000 -0.000000 0.000000
 24 -0.409780 2.428936 22.341393 0.142764 0.007385 -0.121139
 25 -0.380095 -2.887195 20.845367 0.000000 -0.000000 0.000000
 26 -0.040494 -0.674471 8.862854 0.000000 -0.000000 0.000000
 27 -0.325040 -1.113431 -83.015976 0.000000 -0.000000 0.000000
 28 -0.325040 -1.113431 -83.015976 0.000000 -0.000000 0.000000
time 10
  0 -5.113562 -3.392895 0.796835 0.000000 -0.000000 0.000000
  1 -7.310884 -0.101110 174.348495 0.000000 -0.000000 0.000000
  2 -5.113562 -3.392895 97.573242 0.052360 -0.000000 0.000000
  3 0.325039 1.113430 -5.099007 -0.079813 0.000000 0.000000
  4 6.206747 -0.124160 -11.733643 -0.345533 -0.000001 0.000000
  5 2.376919 1.428907 -19.463902 0.781128 0.000000 0.000000
  6 1.646507 1.612120 -34.692955 0.000000 -0.000000 0.000000
  7 0.219322 -4.030297 -4.600569 0.000000 -0.000000 0.000000
  8 -6.833119 -0.124160 -11.733643 -0.463901 0.099194 -0.326485
  9 -2.998634 1.160217 -19.583820 0.874600 -0.082077 0.204112
 10 -1.356792 1.880826 -34.573055 0.097549 0.155153 -0.039225
 11 -0.258572 -4.030292 -4.908824 0.000000 -0.000000 0.000000
 12 0.325039 1.113430 0.809013 -0.052232 0.003652 0.069720
 13 7.054492 1.815096 15.713707 0.048885 -0.072318 -0.664994
 14 12.909765 -0.165817 -12.867264 0.058706 -0.086767 -0.002549
 15 11.504257 -9.735168 -11.778587 -0.114160 0.138026 -0.699164
 16 -4.990942 -20.855852 -11.972137 0.107342 -0.124349 -0.503130
 17 1.952618 -90.186729 -0.924728 0.000000 -0.000000 0.000000
 18 -35.001926 9.597197 -70.247505 0.000000 -0.000000 0.000000
 19 3.759457 -1.898642 -3.541321 0.000000 -0.000000 0.000000
 20 -7.698014 1.934285 15.877953 -0.431614 -0.136398 -0.316947
 21 -12.721181 -0.083347 -12.838249 0.350879 -0.485336 0.230535
 22 -9.167524 -10.101501 -11.648903 0.579793 0.809828 1.024413
 23 -3.642090 -2.032097 -4.543640 0.000000 -0.000000 0.000000
 24 -0.409780 2.428936 22.341393 0.169122 0.008748 -0.120948
 25 -0.380096 -2.887197 20.845367 0.000000 -0.000000 0.000000
 26 -0.040494 -0.674471 8.862854 0.000000 -0.000000 0.000000
 27 -0.325040 -1.113431 -83.015976 0.000000 -0.000000 0.000000
 28 -0.325040 -1.113431 -83.015976 0.000000 -0.000000 0.000000
time 11
  0 -5.113562 -3.392895 0.796835 0.000000 -0.000000 0.000000
  1 -7.310884 -0.101110 174.348495 0.000000 -0.000000 0.000000
  2 -5.113562 -3.392895 98.311836 0.052360 -0.000000 0.000000
  3 0.325039 1.113430 -5.099007 -0.079813 0.000000 0.000000
  4 6.206746 -0.124160 -11.733643 -0.466550 -0.000001 0.000001
  5 2.376919 1.428913 -19.463921 0.794575 0.000000 0.000000
  6 1.646507 1.612120 -34.692955 0.000000 -0.000000 0.000000
  7 0.219322 -4.030297 -4.600571 0.000000 -0.000000 0.000000
  8 -6.833119 -0.124160 -11.733643 -0.348809 0.146360 -0.314685
  9 -2.998634 1.160221 -19.583824 0.844738 -0.085889 0.197331
 10 -1.356794 1.880829 -34.573051 0.097549 0.155153 -0.039225
 11 -0.258575 -4.030291 -4.908823 0.000000 -0.000000 0.000000
 12 0.325039 1.113430 0.809013 -0.052232 0.003652 0.069720
 13 7.054491 1.815097 15.713707 0.048885 -0.072318 -0.664994
 14 12.909767 -0.165818 -12.867264 0.058706 -0.086767 -0.002549
 15 11.504261 -9.735168 -11.778595 -0.114160 0.138026 -0.699164
 16 -4.990940 -20.855852 -11.972145 0.107342 -0.124349 -0.503130
 17 1.952621 -90.186729 -0.924721 0.000000 -0.000000 0.000000
 18 -35.001934 9.597201 -70.247490 0.000000 -0.000000 0.000000
 19 3.759457 -1.898640 -3.541321 0.000000 -0.000000 0.000000
 20 -7.698015 1.934286 15.877953 -0.431614 -0.136398 -0.316947
 21 -12.721178 -0.083347 -12.838257 0.350879 -0.485336 0.230535
 22 -9.167522 -10.101498 -11.648903 0.579793 0.809828 1.024413
 23 -3.642090 -2.032096 -4.543640 0.000000 -0.000000 0.000000
 24 -0.409780 2.428936 22.341393 0.194516 0.010062 -0.120763
 25 -0.380095 -2.887194 20.845383 0.000000 -0.000000 0.000000
 26 -0.040494 -0.674471 8.862854 0.000000 -0.000000 0.000000
 27 -0.325040 -1.113431 -83.015976 0.000000 -0.000000 0.000000
 28 -0.325040 -1.113431 -83.015976 0.000000 -0.000000 0.000000
time 12
  0 -5.113562 -3.392895 0.796835 0.000000 -0.000000 0.000000
  1 -7.310884 -0.101110 174.348495 0.000000 -0.000000 0.000000
  2 -5.113562 -3.392895 96.507629 0.052360 -0.000000 0.000000
  3 0.325039 1.113430 -5.099007 -0.079812 0.000000 -0.000000
  4 6.206746 -0.124160 -11.733650 -0.583248 -0.000000 0.000001
  5 2.376919 1.428905 -19.463913 0.807541 0.000000 -0.000000
  6 1.646507 1.612119 -34.692955 0.000000 -0.000000 0.000000
  7 0.219323 -4.030297 -4.600571 0.000000 -0.000000 0.000000
  8 -6.833120 -0.124160 -11.733650 -0.237824 0.191843 -0.303305
  9 -2.998632 1.160217 -19.583817 0.815941 -0.089566 0.190792
 10 -1.356796 1.880829 -34.573055 0.097549 0.155153 -0.039225
 11 -0.258572 -4.030293 -4.908823 0.000000 -0.000000 0.000000
 12 0.325039 1.113430 0.809013 -0.052232 0.003652 0.069720
 13 7.054492 1.815097 15.713707 0.048885 -0.072318 -0.664994
 14 12.909767 -0.165815 -12.867264 0.058706 -0.086767 -0.002549
 15 11.504253 -9.735164 -11.778595 -0.114160 0.138026 -0.699164
 16 -4.990944 -20.855858 -11.972153 0.107342 -0.124349 -0.503130
 17 1.952631 -90.186745 -0.924721 0.000000 -0.000000 0.000000
 18 -35.001930 9.597211 -70.247505 0.000000 -0.000000 0.000000
 19 3.759453 -1.898643 -3.541328 0.000000 -0.000000 0.000000
 20 -7.698016 1.934286 15.877953 -0.431614 -0.136398 -0.316947
 21 -12.721179 -0.083347 -12.838249 0.350879 -0.485336 0.230535
 22 -9.167521 -10.101498 -11.648903 0.579793 0.809828 1.024413
 23 -3.642090 -2.032095 -4.543636 0.000000 -0.000000 0.000000
 24 -0.409780 2.428936 22.341393 0.218090 0.011281 -0.120592
 25 -0.380095 -2.887196 20.845375 0.000000 -0.000000 0.000000
 26 -0.040494 -0.674471 8.862854 0.000000 -0.000000 0.000000
 27 -0.325039 -1.113431 -83.015968 0.000000 -0.000000 0.000000
 28 -0.325039 -1.113431 -83.015968 0.000000 -0.000000 0.000000
time 13
  0 -5.113562 -3.392895 0.796835 0.000000 -0.000000 0.000000
  1 -7.310884 -0.101110 174.348495 0.000000 -0.000000 0.000000
  2 -5.113562 -3.392895 92.458397 0.052360 -0.000000 0.000000
  3 0.325039 1.113430 -5.098999 -0.079812 0.000000 -0.000000
  4 6.206747 -0.124160 -11.733650 -0.692375 -0.000000 0.000001
  5 2.376919 1.428905 -19.463913 0.819667 0.000000 -0.000000
  6 1.646507 1.612119 -34.692955 0.000000 -0.000000 0.000000
  7 0.219322 -4.030298 -4.600571 0.000000 -0.000000 0.000000
  8 -6.833119 -0.124160 -11.733650 -0.134039 0.234375 -0.292663
  9 -2.998632 1.160218 -19.583828 0.789012 -0.093003 0.184677
 10 -1.356796 1.880827 -34.573059 0.097549 0.155153 -0.039225
 11 -0.258572 -4.030293 -4.908823 0.000000 -0.000000 0.000000
 12 0.325039 1.113430 0.809021 -0.052232 0.003652 0.069720
 13 7.054492 1.815096 15.713699 0.048885 -0.072318 -0.664994
 14 12.909765 -0.165816 -12.867264 0.058706 -0.086767 -0.002549
 15 11.504255 -9.735164 -11.778587 -0.114160 0.138026 -0.699164
 16 -4.990944 -20.855858 -11.972145 0.107342 -0.124349 -0.503130
 17 1.952627 -90.186752 -0.924713 0.000000 -0.000000 0.000000
 18 -35.001930 9.597206 -70.247498 0.000000 -0.000000 0.000000
 19 3.759457 -1.898642 -3.541328 0.000000 -0.000000 0.000000
 20 -7.698017 1.934285 15.877953 -0.431614 -0.136398 -0.316947
 21 -12.721182 -0.083347 -12.838249 0.350879 -0.485336 0.230535
 22 -9.167517 -10.101496 -11.648903 0.579793 0.809829 1.024413
 23 -3.642090 -2.032096 -4.543640 0.000000 -0.000000 0.000000
 24 -0.409780 2.428936 22.341393 0.238987 0.012362 -0.120440
 25 -0.380096 -2.887197 20.845367 0.000000 -0.000000 0.000000
 26 -0.040494 -0.674471 8.862854 0.000000 -0.000000 0.000000
 27 -0.325040 -1.113431 -83.015968 0.000000 -0.000000 0.000000
 28 -0.325040 -1.113431 -83.015968 0.000000 -0.000000 0.000000
time 14
  0 -5.113562 -3.392895 0.796835 0.000000 -0.000000 0.000000
  1 -7.310884 -0.101110 174.348495 0.000000 -0.000000 0.000000
  2 -5.113562 -3.392895 87.024521 0.052360 -0.000000 0.000000
  3 0.325039 1.113430 -5.099007 -0.079812 0.000000 -0.000000
  4 6.206747 -0.124160 -11.733643 -0.790681 -0.000000 0.000001
  5 2.376919 1.428909 -19.463913 0.830590 0.000000 0.000000
  6 1.646507 1.612119 -34.692955 0.000000 -0.000000 0.000000
  7 0.219322 -4.030299 -4.600571 0.000000 -0.000000 0.000000
  8 -6.833119 -0.124160 -11.733650 -0.040546 0.272689 -0.283077
  9 -2.998631 1.160219 -19.583828 0.764754 -0.096100 0.179168
 10 -1.356796 1.880823 -34.573063 0.097549 0.155153 -0.039225
 11 -0.258572 -4.030291 -4.908827 0.000000 -0.000000 0.000000
 12 0.325039 1.113430 0.809013 -0.052232 0.003652 0.069720
 13 7.054492 1.815096 15.713707 0.048885 -0.072318 -0.664994
 14 12.909765 -0.165817 -12.867264 0.058706 -0.086767 -0.002549
 15 11.504257 -9.735163 -11.778595 -0.114160 0.138026 -0.699164
 16 -4.990945 -20.855854 -11.972145 0.107342 -0.124349 -0.503130
 17 1.952623 -90.186729 -0.924721 0.000000 -0.000000 0.000000
 18 -35.001930 9.597200 -70.247505 0.000000 -0.000000 0.000000
 19 3.759453 -1.898640 -3.541321 0.000000 -0.000000 0.000000
 20 -7.698016 1.934285 15.877953 -0.431614 -0.136398 -0.316946
 21 -12.721184 -0.083344 -12.838257 0.350879 -0.485336 0.230535
 22 -9.167524 -10.101499 -11.648903 0.579793 0.809829 1.024413
 23 -3.642090 -2.032094 -4.543633 0.000000 -0.000000 0.000000
 24 -0.409780 2.428936 22.341393 0.256351 0.013260 -0.120314
 25 -0.380095 -2.887197 20.845383 0.000000 -0.000000 0.000000
 26 -0.040494 -0.674471 8.862854 0.000000 -0.000000 0.000000
 27 -0.325039 -1.113431 -83.015976 0.000000 -0.000000 0.000000
 28 -0.325039 -1.113431 -83.015976 0.000000 -0.000000 0.000000
time 15
  0 -5.113562 -3.392895 0.796835 0.000000 -0.000000 0.000000
  1 -7.310884 -0.101110 174.348495 0.000000 -0.000000 0.000000
  2 -5.113562 -3.392895 81.066353 0.052360 -0.000000 0.000000
  3 0.325039 1.113430 -5.099007 -0.079811 0.000000 -0.000000
  4 6.206746 -0.124160 -11.733643 -0.874913 -0.000000 0.000001
  5 2.376919 1.428905 -19.463915 0.839949 0.000000 -0.000000
  6 1.646507 1.612118 -34.692955 0.000000 -0.000000 0.000000
  7 0.219322 -4.030296 -4.600570 0.000000 -0.000000 0.000000
  8 -6.833119 -0.124160 -11.733643 0.039561 0.305518 -0.274863
  9 -2.998636 1.160218 -19.583820 0.743969 -0.098754 0.174448
 10 -1.356798 1.880817 -34.573059 0.097549 0.155153 -0.039225
 11 -0.258570 -4.030294 -4.908826 0.000000 -0.000000 0.000000
 12 0.325039 1.113430 0.809013 -0.052232 0.003652 0.069720
 13 7.054492 1.815096 15.713707 0.048885 -0.072318 -0.664994
 14 12.909763 -0.165815 -12.867271 0.058706 -0.086767 -0.002549
 15 11.504257 -9.735165 -11.778587 -0.114160 0.138026 -0.699164
 16 -4.990945 -20.855858 -11.972141 0.107342 -0.124349 -0.503130
 17 1.952633 -90.186745 -0.924717 0.000000 -0.000000 0.000000
 18 -35.001930 9.597207 -70.247498 0.000000 -0.000000 0.000000
 19 3.759453 -1.898642 -3.541321 0.000000 -0.000000 0.000000
 20 -7.698016 1.934285 15.877953 -0.431614 -0.136398 -0.316947
 21 -12.721179 -0.083347 -12.838249 0.350879 -0.485336 0.230535
 22 -9.167522 -10.101497 -11.648911 0.579793 0.809829 1.024413
 23 -3.642090 -2.032097 -4.543640 0.000000 -0.000000 0.000000
 24 -0.409780 2.428936 22.341393 0.269325 0.013932 -0.120220
 25 -0.380096 -2.887197 20.845375 0.000000 -0.000000 0.000000
 26 -0.040494 -0.674471 8.862854 0.000000 -0.000000 0.000000
 27 -0.325039 -1.113431 -83.015976 0.000000 -0.000000 0.000000
 28 -0.325039 -1.113431 -83.015976 0.000000 -0.000000 0.000000
time 16
  0 -5.113562 -3.392895 0.796835 0.000000 -0.000000 0.000000
  1 -7.310884 -0.101110 174.348495 0.000000 -0.000000 0.000000
  2 -5.113562 -3.392895 75.444275 0.052360 -0.000000 0.000000
  3 0.325039 1.113430 -5.099007 -0.079811 0.000000 0.000000
  4 6.206746 -0.124160 -11.733646 -0.941819 -0.000000 0.000001
  5 2.376919 1.428909 -19.463917 0.847383 0.000000 0.000000
  6 1.646508 1.612118 -34.692959 0.000000 -0.000000 0.000000
  7 0.219323 -4.030296 -4.600570 0.000000 -0.000000 0.000000
  8 -6.833120 -0.124160 -11.733646 0.103192 0.331594 -0.268339
  9 -2.998632 1.160220 -19.583820 0.727459 -0.100861 0.170699
 10 -1.356796 1.880825 -34.573055 0.097549 0.155153 -0.039225
 11 -0.258572 -4.030293 -4.908825 0.000000 -0.000000 0.000000
 12 0.325039 1.113430 0.809013 -0.052232 0.003652 0.069720
 13 7.054492 1.815097 15.713707 0.048885 -0.072318 -0.664994
 14 12.909766 -0.165815 -12.867264 0.058706 -0.086767 -0.002549
 15 11.504257 -9.735163 -11.778587 -0.114160 0.138026 -0.699164
 16 -4.990946 -20.855858 -11.972137 0.107342 -0.124349 -0.503130
 17 1.952627 -90.186737 -0.924713 0.000000 -0.000000 0.000000
 18 -35.001930 9.597210 -70.247498 0.000000 -0.000000 0.000000
 19 3.759451 -1.898642 -3.541321 0.000000 -0.000000 0.000000
 20 -7.698016 1.934286 15.877953 -0.431614 -0.136398 -0.316947
 21 -12.721180 -0.083347 -12.838249 0.350879 -0.485336 0.230535
 22 -9.167517 -10.101498 -11.648911 0.579793 0.809829 1.024413
 23 -3.642090 -2.032094 -4.543640 0.000000 -0.000000 0.000000
 24 -0.409780 2.428936 22.341393 0.277052 0.014331 -0.120164
 25 -0.380095 -2.887196 20.845367 0.000000 -0.000000 0.000000
 26 -0.040494 -0.674471 8.862854 0.000000 -0.000000 0.000000
 27 -0.325039 -1.113431 -83.015968 0.000000 -0.000000 0.000000
 28 -0.325039 -1.113431 -83.015968 0.000000 -0.000000 0.000000
time 17
  0 -5.113562 -3.392895 0.796835 0.000000 -0.000000 0.000000
  1 -7.310884 -0.101110 174.348495 0.000000 -0.000000 0.000000
  2 -5.113562 -3.392895 71.018631 0.052360 -0.000000 0.000000
  3 0.325039 1.113430 -5.099007 -0.079811 0.000000 0.000000
  4 6.206746 -0.124160 -11.733650 -0.988147 -0.000000 0.000001
  5 2.376919 1.428909 -19.463913 0.852531 0.000000 0.000000
  6 1.646507 1.612118 -34.692959 0.000000 -0.000000 0.000000
  7 0.219322 -4.030298 -4.600570 0.000000 -0.000000 0.000000
  8 -6.833119 -0.124160 -11.733650 0.147252 0.349651 -0.263821
  9 -2.998634 1.160219 -19.583815 0.716026 -0.102321 0.168103
 10 -1.356792 1.880821 -34.573055 0.097549 0.155153 -0.039225
 11 -0.258568 -4.030293 -4.908825 0.000000 -0.000000 0.000000
 12 0.325039 1.113430 0.809013 -0.052232 0.003652 0.069720
 13 7.054492 1.815096 15.713707 0.048885 -0.072318 -0.664994
 14 12.909765 -0.165817 -12.867264 0.058706 -0.086767 -0.002549
 15 11.504255 -9.735165 -11.778591 -0.114160 0.138026 -0.699164
 16 -4.990940 -20.855852 -11.972145 0.107342 -0.124349 -0.503130
 17 1.952629 -90.186722 -0.924717 0.000000 -0.000000 0.000000
 18 -35.001930 9.597204 -70.247498 0.000000 -0.000000 0.000000
 19 3.759455 -1.898640 -3.541328 0.000000 -0.000000 0.000000
 20 -7.698016 1.934285 15.877953 -0.431614 -0.136398 -0.316947
 21 -12.721180 -0.083347 -12.838249 0.350879 -0.485336 0.230535
 22 -9.167521 -10.101499 -11.648911 0.579793 0.809829 1.024413
 23 -3.642090 -2.032095 -4.543644 0.000000 -0.000000 0.000000
 24 -0.409780 2.428936 22.341393 0.278733 0.014418 -0.120151
 25 -0.380095 -2.887197 20.845375 0.000000 -0.000000 0.000000
 26 -0.040494 -0.674471 8.862854 0.000000 -0.000000 0.000000
 27 -0.325039 -1.113431 -83.015968 0.000000 -0.000000 0.000000
 28 -0.325039 -1.113431 -83.015968 0.000000 -0.000000 0.000000
time 18
  0 -5.113562 -3.392895 0.796835 0.000000 -0.000000 0.000000
  1 -7.310884 -0.101110 174.348495 0.000000 -0.000000 0.000000
  2 -5.113562 -3.392895 68.649803 0.052360 -0.000000 0.000000
  3 0.325039 1.113430 -5.098999 -0.079811 0.000000 0.000000
  4 6.206746 -0.124160 -11.733646 -1.010647 -0.000000 0.000001
  5 2.376919 1.428905 -19.463911 0.855031 0.000000 -0.000000
  6 1.646507 1.612120 -34.692955 0.000000 -0.000000 0.000000
  7 0.219322 -4.030298 -4.600570 0.000000 -0.000000 0.000000
  8 -6.833119 -0.124160 -11.733643 0.168650 0.358420 -0.261627
  9 -2.998634 1.160219 -19.583817 0.710474 -0.103029 0.166842
 10 -1.356796 1.880825 -34.573055 0.097549 0.155153 -0.039225
 11 -0.258570 -4.030293 -4.908825 0.000000 -0.000000 0.000000
 12 0.325039 1.113430 0.809021 -0.052232 0.003652 0.069720
 13 7.054492 1.815096 15.713699 0.048885 -0.072318 -0.664994
 14 12.909767 -0.165814 -12.867264 0.058706 -0.086767 -0.002549
 15 11.504253 -9.735163 -11.778584 -0.114160 0.138026 -0.699164
 16 -4.990946 -20.855854 -11.972141 0.107342 -0.124349 -0.503130
 17 1.952631 -90.186745 -0.924713 0.000000 -0.000000 0.000000
 18 -35.001934 9.597212 -70.247513 0.000000 -0.000000 0.000000
 19 3.759451 -1.898639 -3.541325 0.000000 -0.000000 0.000000
 20 -7.698017 1.934285 15.877953 -0.431614 -0.136398 -0.316947
 21 -12.721182 -0.083347 -12.838249 0.350879 -0.485336 0.230535
 22 -9.167521 -10.101501 -11.648903 0.579793 0.809828 1.024413
 23 -3.642094 -2.032096 -4.543644 0.000000 -0.000000 0.000000
 24 -0.409780 2.428936 22.341393 0.275143 0.014232 -0.120155
 25 -0.380095 -2.887196 20.845375 0.000000 -0.000000 0.000000
 26 -0.040494 -0.674471 8.862854 0.000000 -0.000000 0.000000
 27 -0.325040 -1.113431 -83.015968 0.000000 -0.000000 0.000000
 28 -0.325040 -1.113431 -83.015968 0.000000 -0.000000 0.000000
time 19
  0 -5.113562 -3.392895 0.796835 0.000000 -0.000000 0.000000
  1 -7.310884 -0.101110 174.348495 0.000000 -0.000000 0.000000
  2 -5.113562 -3.392895 69.375710 0.052360 -0.000000 0.000000
  3 0.325039 1.113430 -5.099007 -0.079810 0.000000 0.000000
  4 6.206746 -0.124160 -11.733650 -1.005880 -0.000000 0.000001
  5 2.376919 1.428905 -19.463917 0.854501 0.000000 0.000000
  6 1.646507 1.612118 -34.692955 0.000000 -0.000000 0.000000
  7 0.219322 -4.030294 -4.600570 0.000000 -0.000000 0.000000
  8 -6.833119 -0.124160 -11.733646 0.164117 0.356562 -0.262092
  9 -2.998631 1.160219 -19.583820 0.711651 -0.102879 0.167109
 10 -1.356796 1.880817 -34.573051 0.097549 0.155153 -0.039225
 11 -0.258574 -4.030293 -4.908823 0.000000 -0.000000 0.000000
 12 0.325039 1.113430 0.809013 -0.052232 0.003652 0.069720
 13 7.054492 1.815097 15.713699 0.048885 -0.072318 -0.664994
 14 12.909767 -0.165815 -12.867264 0.058706 -0.086767 -0.002549
 15 11.504255 -9.735161 -11.778580 -0.114160 0.138026 -0.699164
 16 -4.990950 -20.855860 -11.972137 0.107342 -0.124349 -0.503130
 17 1.952620 -90.186760 -0.924721 0.000000 -0.000000 0.000000
 18 -35.001930 9.597210 -70.247498 0.000000 -0.000000 0.000000
 19 3.759451 -1.898639 -3.541325 0.000000 -0.000000 0.000000
 20 -7.698016 1.934286 15.877953 -0.431614 -0.136398 -0.316946
 21 -12.721182 -0.083344 -12.838249 0.350879 -0.485336 0.230535
 22 -9.167519 -10.101500 -11.648903 0.579793 0.809828 1.024413
 23 -3.642094 -2.032094 -4.543644 0.000000 -0.000000 0.000000
 24 -0.409780 2.428936 22.341393 0.267217 0.013822 -0.120165
 25 -0.380095 -2.887197 20.845367 0.000000 -0.000000 0.000000
 26 -0.040494 -0.674471 8.862854 0.000000 -0.000000 0.000000
 27 -0.325040 -1.113431 -83.015968 0.000000 -0.000000 0.000000
 28 -0.325040 -1.113431 -83.015968 0.000000 -0.000000 0.000000
time 20
  0 -5.113562 -3.392895 0.796835 0.000000 -0.000000 0.000000
  1 -7.310884 -0.101110 174.348495 0.000000 -0.000000 0.000000
  2 -5.113562 -3.392895 73.570808 0.052360 -0.000000 0.000000
  3 0.325039 1.113430 -5.099007 -0.079810 0.000000 -0.000000
  4 6.206746 -0.124160 -11.733650 -0.973136 -0.000000 0.000001
  5 2.376919 1.428913 -19.463913 0.850863 0.000000 0.000000
  6 1.646508 1.612118 -34.692955 0.000000 -0.000000 0.000000
  7 0.219322 -4.030296 -4.600570 0.000000 -0.000000 0.000000
  8 -6.833119 -0.124160 -11.733646 0.132975 0.343800 -0.265285
  9 -2.998634 1.160220 -19.583817 0.719731 -0.101848 0.168944
 10 -1.356792 1.880821 -34.573059 0.097549 0.155153 -0.039225
 11 -0.258574 -4.030293 -4.908827 0.000000 -0.000000 0.000000
 12 0.325039 1.113430 0.809021 -0.052232 0.003652 0.069720
 13 7.054491 1.815096 15.713707 0.048885 -0.072318 -0.664994
 14 12.909763 -0.165816 -12.867271 0.058706 -0.086767 -0.002549
 15 11.504253 -9.735157 -11.778591 -0.114160 0.138026 -0.699164
 16 -4.990946 -20.855856 -11.972153 0.107342 -0.124349 -0.503130
 17 1.952625 -90.186722 -0.924725 0.000000 -0.000000 0.000000
 18 -35.001930 9.597202 -70.247505 0.000000 -0.000000 0.000000
 19 3.759451 -1.898642 -3.541328 0.000000 -0.000000 0.000000
 20 -7.698015 1.934285 15.877953 -0.431614 -0.136398 -0.316947
 21 -12.721181 -0.083344 -12.838249 0.350879 -0.485336 0.230535
 22 -9.167521 -10.101498 -11.648903 0.579793 0.809829 1.024413
 23 -3.642094 -2.032097 -4.543640 0.000000 -0.000000 0.000000
 24 -0.409780 2.428936 22.341393 0.255505 0.013217 -0.120182
 25 -0.380095 -2.887194 20.845367 0.000000 -0.000000 0.000000
 26 -0.040494 -0.674471 8.862854 0.000000 -0.000000 0.000000
 27 -0.325040 -1.113431 -83.015976 0.000000 -0.000000 0.000000
 28 -0.325040 -1.113431 -83.015976 0.000000 -0.000000 0.000000
time 21
  0 -5.113562 -3.392895 0.796835 0.000000 -0.000000 0.000000
  1 -7.310884 -0.101110 174.348495 0.000000 -0.000000 0.000000
  2 -5.113562 -3.392895 79.819710 0.052360 -0.000000 0.000000
  3 0.325039 1.113431 -5.099007 -0.079810 0.000000 0.000000
  4 6.206746 -0.124160 -11.733643 -0.915897 -0.000000 0.000001
  5 2.376919 1.428909 -19.463917 0.844503 0.000000 0.000000
  6 1.646508 1.612118 -34.692955 0.000000 -0.000000 0.000000
  7 0.219322 -4.030298 -4.600571 0.000000 -0.000000 0.000000
  8 -6.833119 -0.124160 -11.733643 0.078539 0.321491 -0.270867
  9 -2.998638 1.160219 -19.583824 0.733855 -0.100045 0.172152
 10 -1.356800 1.880827 -34.573059 0.097549 0.155153 -0.039225
 11 -0.258574 -4.030293 -4.908826 0.000000 -0.000000 0.000000
 12 0.325039 1.113430 0.809013 -0.052232 0.003652 0.069720
 13 7.054492 1.815096 15.713699 0.048885 -0.072318 -0.664994
 14 12.909766 -0.165814 -12.867264 0.058706 -0.086767 -0.002549
 15 11.504253 -9.735164 -11.778587 -0.114160 0.138026 -0.699164
 16 -4.990941 -20.855858 -11.972145 0.107342 -0.124349 -0.503130
 17 1.952650 -90.186752 -0.924717 0.000000 -0.000000 0.000000
 18 -35.001934 9.597219 -70.247505 0.000000 -0.000000 0.000000
 19 3.759453 -1.898643 -3.541328 0.000000 -0.000000 0.000000
 20 -7.698016 1.934285 15.877953 -0.431614 -0.136398 -0.316947
 21 -12.721184 -0.083351 -12.838257 0.350879 -0.485336 0.230535
 22 -9.167517 -10.101500 -11.648903 0.579793 0.809829 1.024413
 23 -3.642090 -2.032094 -4.543640 0.000000 -0.000000 0.000000
 24 -0.409780 2.428936 22.341393 0.240559 0.012444 -0.120208
 25 -0.380096 -2.887196 20.845367 0.000000 -0.000000 0.000000
 26 -0.040494 -0.674471 8.862854 0.000000 -0.000000 0.000000
 27 -0.325040 -1.113431 -83.015968 0.000000 -0.000000 0.000000
 28 -0.325040 -1.113431 -83.015968 0.000000 -0.000000 0.000000
time 22
  0 -5.113562 -3.392895 0.796835 0.000000 -0.000000 0.000000
  1 -7.310884 -0.101110 174.348495 0.000000 -0.000000 0.000000
  2 -5.113562 -3.392895 86.611572 0.052360 -0.000000 0.000000
  3 0.325039 1.113430 -5.099007 -0.079809 0.000000 0.000000
  4 6.206746 -0.124160 -11.733643 -0.837835 -0.000000 0.000001
  5 2.376919 1.428905 -19.463913 0.835829 0.000000 -0.000000
  6 1.646508 1.612120 -34.692955 0.000000 -0.000000 0.000000
  7 0.219322 -4.030298 -4.600569 0.000000 -0.000000 0.000000
  8 -6.833120 -0.124160 -11.733643 0.004299 0.291067 -0.278479
  9 -2.998634 1.160219 -19.583817 0.753118 -0.097586 0.176526
 10 -1.356796 1.880821 -34.573059 0.097549 0.155153 -0.039225
 11 -0.258574 -4.030293 -4.908823 0.000000 -0.000000 0.000000
 12 0.325039 1.113430 0.809013 -0.052232 0.003652 0.069720
 13 7.054492 1.815097 15.713707 0.048885 -0.072318 -0.664994
 14 12.909765 -0.165816 -12.867264 0.058706 -0.086767 -0.002549
 15 11.504257 -9.735162 -11.778587 -0.114160 0.138026 -0.699164
 16 -4.990946 -20.855854 -11.972145 0.107342 -0.124349 -0.503130
 17 1.952623 -90.186722 -0.924728 0.000000 -0.000000 0.000000
 18 -35.001934 9.597198 -70.247505 0.000000 -0.000000 0.000000
 19 3.759451 -1.898642 -3.541321 0.000000 -0.000000 0.000000
 20 -7.698015 1.934285 15.877953 -0.431614 -0.136398 -0.316947
 21 -12.721181 -0.083347 -12.838249 0.350879 -0.485336 0.230535
 22 -9.167521 -10.101500 -11.648903 0.579793 0.809829 1.024413
 23 -3.642090 -2.032096 -4.543640 0.000000 -0.000000 0.000000
 24 -0.409780 2.428936 22.341393 0.222929 0.011532 -0.120244
 25 -0.380095 -2.887196 20.845367 0.000000 -0.000000 0.000000
 26 -0.040494 -0.674471 8.862854 0.000000 -0.000000 0.000000
 27 -0.325040 -1.113431 -83.015976 0.000000 -0.000000 0.000000
 28 -0.325040 -1.113431 -83.015976 0.000000 -0.000000 0.000000
time 23
  0 -5.113562 -3.392895 0.796835 0.000000 -0.000000 0.000000
  1 -7.310884 -0.101110 174.348495 0.000000 -0.000000 0.000000
  2 -5.113562 -3.392895 92.435547 0.052360 -0.000000 0.000000
  3 0.325039 1.113430 -5.099007 -0.079809 0.000000 0.000000
  4 6.206747 -0.124160 -11.733635 -0.742622 -0.000000 0.000001
  5 2.376919 1.428905 -19.463909 0.825250 0.000000 -0.000000
  6 1.646507 1.612119 -34.692955 0.000000 -0.000000 0.000000
  7 0.219322 -4.030297 -4.600571 0.000000 -0.000000 0.000000
  8 -6.833119 -0.124160 -11.733643 -0.086252 0.253958 -0.287763
  9 -2.998638 1.160219 -19.583809 0.776613 -0.094586 0.181861
 10 -1.356796 1.880825 -34.573067 0.097549 0.155153 -0.039225
 11 -0.258570 -4.030293 -4.908827 0.000000 -0.000000 0.000000
 12 0.325039 1.113430 0.809013 -0.052232 0.003652 0.069720
 13 7.054491 1.815097 15.713707 0.048885 -0.072318 -0.664994
 14 12.909767 -0.165815 -12.867271 0.058706 -0.086767 -0.002549
 15 11.504253 -9.735164 -11.778595 -0.114160 0.138026 -0.699164
 16 -4.990942 -20.855854 -11.972145 0.107342 -0.124349 -0.503130
 17 1.952635 -90.186737 -0.924713 0.000000 -0.000000 0.000000
 18 -35.001938 9.597205 -70.247490 0.000000 -0.000000 0.000000
 19 3.759455 -1.898640 -3.541321 0.000000 -0.000000 0.000000
 20 -7.698015 1.934285 15.877953 -0.431614 -0.136398 -0.316946
 21 -12.721178 -0.083347 -12.838249 0.350879 -0.485336 0.230535
 22 -9.167517 -10.101501 -11.648903 0.579793 0.809828 1.024413
 23 -3.642090 -2.032096 -4.543640 0.000000 -0.000000 0.000000
 24 -0.409780 2.428936 22.341393 0.203165 0.010509 -0.120291
 25 -0.380095 -2.887196 20.845367 0.000000 -0.000000 0.000000
 26 -0.040494 -0.674471 8.862854 0.000000 -0.000000 0.000000
 27 -0.325040 -1.113431 -83.015968 0.000000 -0.000000 0.000000
 28 -0.325040 -1.113431 -83.015968 0.000000 -0.000000 0.000000
time 24
  0 -5.113562 -3.392895 0.796835 0.000000 -0.000000 0.000000
  1 -7.310884 -0.101110 174.348495 0.000000 -0.000000 0.000000
  2 -5.113562 -3.392895 95.780807 0.052360 -0.000000 0.000000
  3 0.325039 1.113430 -5.099007 -0.079808 0.000000 -0.000000
  4 6.206746 -0.124160 -11.733643 -0.633929 -0.000000 0.000001
  5 2.376919 1.428909 -19.463921 0.813173 0.000000 0.000000
  6 1.646507 1.612120 -34.692955 0.000000 -0.000000 0.000000
  7 0.219323 -4.030297 -4.600571 0.000000 -0.000000 0.000000
  8 -6.833119 -0.124160 -11.733643 -0.189624 0.211596 -0.298363
  9 -2.998632 1.160219 -19.583817 0.803435 -0.091162 0.187952
 10 -1.356792 1.880812 -34.573059 0.097549 0.155153 -0.039225
 11 -0.258568 -4.030294 -4.908825 0.000000 -0.000000 0.000000
 12 0.325039 1.113430 0.809013 -0.052232 0.003652 0.069720
 13 7.054492 1.815096 15.713707 0.048885 -0.072318 -0.664994
 14 12.909764 -0.165816 -12.867264 0.058706 -0.086767 -0.002549
 15 11.504255 -9.735162 -11.778595 -0.114160 0.138026 -0.699164
 16 -4.990942 -20.855856 -11.972145 0.107342 -0.124349 -0.503130
 17 1.952620 -90.186722 -0.924713 0.000000 -0.000000 0.000000
 18 -35.001930 9.597200 -70.247498 0.000000 -0.000000 0.000000
 19 3.759455 -1.898642 -3.541328 0.000000 -0.000000 0.000000
 20 -7.698016 1.934285 15.877953 -0.431614 -0.136398 -0.316946
 21 -12.721181 -0.083351 -12.838249 0.350879 -0.485336 0.230535
 22 -9.167517 -10.101498 -11.648903 0.579793 0.809828 1.024413
 23 -3.642090 -2.032094 -4.543640 0.000000 -0.000000 0.000000
 24 -0.409780 2.428936 22.341393 0.181819 0.009405 -0.120350
 25 -0.380096 -2.887196 20.845360 0.000000 -0.000000 0.000000
 26 -0.040494 -0.674471 8.862854 0.000000 -0.000000 0.000000
 27 -0.325040 -1.113431 -83.015968 0.000000 -0.000000 0.000000
 28 -0.325040 -1.113431 -83.015968 0.000000 -0.000000 0.000000
time 25
  0 -5.113562 -3.392895 0.796835 0.000000 -0.000000 0.000000
  1 -7.310884 -0.101110 174.348495 0.000000 -0.000000 0.000000
  2 -5.113562 -3.392895 95.766754 0.052360 -0.000000 0.000000
  3 0.325039 1.113430 -5.099007 -0.079808 0.000000 0.000000
  4 6.206746 -0.124160 -11.733650 -0.515426 -0.000001 0.000001
  5 2.376919 1.428905 -19.463917 0.800005 0.000000 0.000000
  6 1.646508 1.612119 -34.692959 0.000000 -0.000000 0.000000
  7 0.219322 -4.030296 -4.600569 0.000000 -0.000000 0.000000
  8 -6.833119 -0.124161 -11.733643 -0.302325 0.165410 -0.309918
  9 -2.998634 1.160219 -19.583813 0.832677 -0.087429 0.194592
 10 -1.356798 1.880817 -34.573059 0.097549 0.155153 -0.039225
 11 -0.258574 -4.030291 -4.908826 0.000000 -0.000000 0.000000
 12 0.325039 1.113430 0.809021 -0.052232 0.003652 0.069720
 13 7.054492 1.815097 15.713707 0.048885 -0.072318 -0.664994
 14 12.909766 -0.165814 -12.867264 0.058706 -0.086767 -0.002549
 15 11.504253 -9.735161 -11.778595 -0.114160 0.138026 -0.699164
 16 -4.990946 -20.855860 -11.972145 0.107342 -0.124349 -0.503130
 17 1.952629 -90.186737 -0.924721 0.000000 -0.000000 0.000000
 18 -35.001930 9.597202 -70.247490 0.000000 -0.000000 0.000000
 19 3.759453 -1.898643 -3.541321 0.000000 -0.000000 0.000000
 20 -7.698016 1.934286 15.877953 -0.431614 -0.136398 -0.316946
 21 -12.721182 -0.083351 -12.838257 0.350879 -0.485336 0.230535
 22 -9.167515 -10.101500 -11.648895 0.579793 0.809829 1.024413
 23 -3.642090 -2.032098 -4.543640 0.000000 -0.000000 0.000000
 24 -0.409780 2.428936 22.341393 0.159439 0.008248 -0.120423
 25 -0.380095 -2.887196 20.845360 0.000000 -0.000000 0.000000
 26 -0.040494 -0.674471 8.862854 0.000000 -0.000000 0.000000
 27 -0.325040 -1.113431 -83.015968 0.000000 -0.000000 0.000000
 28 -0.325040 -1.113431 -83.015968 0.000000 -0.000000 0.000000
time 26
  0 -5.113562 -3.392895 0.796835 0.000000 -0.000000 0.000000
  1 -7.310884 -0.101110 174.348495 0.000000 -0.000000 0.000000
  2 -5.113562 -3.392895 94.058853 0.052360 -0.000000 0.000000
  3 0.325039 1.113430 -5.099007 -0.079807 0.000000 -0.000000
  4 6.206746 -0.124160 -11.733650 -0.390786 -0.000001 0.000001
  5 2.376919 1.428905 -19.463909 0.786156 0.000000 0.000000
  6 1.646508 1.612120 -34.692955 0.000000 -0.000000 0.000000
  7 0.219322 -4.030296 -4.600571 0.000000 -0.000000 0.000000
  8 -6.833119 -0.124160 -11.733643 -0.420863 0.116832 -0.322073
  9 -2.998634 1.160221 -19.583824 0.863433 -0.083503 0.201577
 10 -1.356796 1.880828 -34.573059 0.097549 0.155153 -0.039225
 11 -0.258572 -4.030291 -4.908824 0.000000 -0.000000 0.000000
 12 0.325039 1.113430 0.809013 -0.052232 0.003652 0.069720
 13 7.054492 1.815096 15.713707 0.048885 -0.072318 -0.664994
 14 12.909766 -0.165815 -12.867264 0.058706 -0.086767 -0.002549
 15 11.504253 -9.735161 -11.778595 -0.114160 0.138026 -0.699164
 16 -4.990944 -20.855858 -11.972145 0.107342 -0.124349 -0.503130
 17 1.952623 -90.186722 -0.924721 0.000000 -0.000000 0.000000
 18 -35.001926 9.597202 -70.247505 0.000000 -0.000000 0.000000
 19 3.759455 -1.898642 -3.541321 0.000000 -0.000000 0.000000
 20 -7.698016 1.934285 15.877953 -0.431614 -0.136398 -0.316947
 21 -12.721183 -0.083344 -12.838249 0.350879 -0.485336 0.230535
 22 -9.167521 -10.101498 -11.648903 0.579793 0.809829 1.024413
 23 -3.642090 -2.032095 -4.543640 0.000000 -0.000000 0.000000
 24 -0.409780 2.428936 22.341393 0.136579 0.007065 -0.120511
 25 -0.380095 -2.887196 20.845367 0.000000 -0.000000 0.000000
 26 -0.040494 -0.674471 8.862854 0.000000 -0.000000 0.000000
 27 -0.325040 -1.113431 -83.015976 0.000000 -0.000000 0.000000
 28 -0.325040 -1.113431 -83.015976 0.000000 -0.000000 0.000000
time 27
  0 -5.113562 -3.392895 0.796835 0.000000 -0.000000 0.000000
  1 -7.310884 -0.101110 174.348495 0.000000 -0.000000 0.000000
  2 -5.113562 -3.392895 91.163147 0.052360 -0.000000 0.000000
  3 0.325039 1.113430 -5.099007 -0.079806 0.000000 0.000000
  4 6.206746 -0.124160 -11.733650 -0.263679 -0.000001 0.000000
  5 2.376919 1.428909 -19.463917 0.772033 0.000001 0.000000
  6 1.646507 1.612120 -34.692955 0.000000 -0.000000 0.000000
  7 0.219322 -4.030296 -4.600570 0.000000 -0.000000 0.000000
  8 -6.833119 -0.124160 -11.733650 -0.541746 0.067293 -0.334467
  9 -2.998632 1.160217 -19.583820 0.894799 -0.079499 0.208699
 10 -1.356792 1.880816 -34.573067 0.097549 0.155153 -0.039225
 11 -0.258572 -4.030293 -4.908826 0.000000 -0.000000 0.000000
 12 0.325039 1.113430 0.809021 -0.052232 0.003652 0.069720
 13 7.054492 1.815096 15.713707 0.048885 -0.072318 -0.664994
 14 12.909769 -0.165819 -12.867264 0.058706 -0.086767 -0.002549
 15 11.504261 -9.735165 -11.778595 -0.114160 0.138026 -0.699164
 16 -4.990948 -20.855854 -11.972145 0.107342 -0.124349 -0.503130
 17 1.952602 -90.186729 -0.924728 0.000000 -0.000000 0.000000
 18 -35.001923 9.597191 -70.247505 0.000000 -0.000000 0.000000
 19 3.759453 -1.898638 -3.541328 0.000000 -0.000000 0.000000
 20 -7.698015 1.934285 15.877953 -0.431614 -0.136398 -0.316946
 21 -12.721181 -0.083347 -12.838249 0.350879 -0.485336 0.230535
 22 -9.167521 -10.101500 -11.648903 0.579793 0.809829 1.024413
 23 -3.642097 -2.032098 -4.543636 0.000000 -0.000000 0.000000
 24 -0.409780 2.428936 22.341393 0.113787 0.005886 -0.120615
 25 -0.380095 -2.887197 20.845367 0.000000 -0.000000 0.000000
 26 -0.040494 -0.674471 8.862854 0.000000 -0.000000 0.000000
 27 -0.325040 -1.113431 -83.015976 0.000000 -0.000000 0.000000
 28 -0.325040 -1.113431 -83.015976 0.000000 -0.000000 0.000000
time 28
  0 -5.113562 -3.392895 0.796835 0.000000 -0.000000 0.000000
  1 -7.310884 -0.101110 174.348495 0.000000 -0.000000 0.000000
  2 -5.113562 -3.392895 87.401733 0.052360 -0.000000 0.000000
  3 0.325039 1.113430 -5.099007 -0.079805 0.000000 -0.000000
  4 6.206747 -0.124160 -11.733643 -0.137777 -0.000001 0.000000
  5 2.376919 1.428907 -19.463913 0.758044 0.000001 0.000000
  6 1.646507 1.612120 -34.692959 0.000000 -0.000000 0.000000
  7 0.219323 -4.030296 -4.600569 0.000000 -0.000000 0.000000
  8 -6.833119 -0.124160 -11.733643 -0.661484 0.018223 -0.346744
  9 -2.998632 1.160225 -19.583822 0.925867 -0.075532 0.215754
 10 -1.356794 1.880817 -34.573067 0.097549 0.155153 -0.039225
 11 -0.258572 -4.030292 -4.908827 0.000000 -0.000000 0.000000
 12 0.325039 1.113430 0.809013 -0.052232 0.003652 0.069720
 13 7.054492 1.815097 15.713707 0.048885 -0.072318 -0.664994
 14 12.909766 -0.165814 -12.867264 0.058706 -0.086767 -0.002549
 15 11.504257 -9.735161 -11.778595 -0.114160 0.138026 -0.699164
 16 -4.990948 -20.855858 -11.972145 0.107342 -0.124349 -0.503130
 17 1.952623 -90.186737 -0.924713 0.000000 -0.000000 0.000000
 18 -35.001926 9.597205 -70.247490 0.000000 -0.000000 0.000000
 19 3.759453 -1.898642 -3.541321 0.000000 -0.000000 0.000000
 20 -7.698016 1.934285 15.877953 -0.431614 -0.136398 -0.316947
 21 -12.721178 -0.083347 -12.838257 0.350879 -0.485336 0.230535
 22 -9.167522 -10.101499 -11.648903 0.579793 0.809829 1.024413
 23 -3.642090 -2.032094 -4.543636 0.000000 -0.000000 0.000000
 24 -0.409780 2.428936 22.341393 0.091614 0.004739 -0.120737
 25 -0.380095 -2.887195 20.845360 0.000000 -0.000000 0.000000
 26 -0.040494 -0.674471 8.862854 0.000000 -0.000000 0.000000
 27 -0.325040 -1.113431 -83.015968 0.000000 -0.000000 0.000000
 28 -0.325040 -1.113431 -83.015968 0.000000 -0.000000 0.000000
time 29
  0 -5.113562 -3.392895 0.796835 0.000000 -0.000000 0.000000
  1 -7.310884 -0.101110 174.348495 0.000000 -0.000000 0.000000
  2 -5.113562 -3.392895 83.096748 0.052360 -0.000000 0.000000
  3 0.325039 1.113430 -5.099007 -0.079804 0.000000 0.000000
  4 6.206746 -0.124160 -11.733650 -0.016751 -0.000001 0.000000
  5 2.376919 1.428908 -19.463913 0.744596 0.000001 0.000000
  6 1.646507 1.612120 -34.692955 0.000000 -0.000000 0.000000
  7 0.219322 -4.030296 -4.600570 0.000000 -0.000000 0.000000
  8 -6.833119 -0.124160 -11.733650 -0.776585 -0.028947 -0.358546
  9 -2.998631 1.160221 -19.583820 0.955731 -0.071720 0.222536
 10 -1.356789 1.880813 -34.573063 0.097549 0.155153 -0.039225
 11 -0.258572 -4.030293 -4.908829 0.000000 -0.000000 0.000000
 12 0.325039 1.113430 0.809021 -0.052232 0.003652 0.069720
 13 7.054492 1.815097 15.713707 0.048885 -0.072318 -0.664994
 14 12.909765 -0.165819 -12.867271 0.058706 -0.086767 -0.002549
 15 11.504255 -9.735165 -11.778595 -0.114160 0.138026 -0.699164
 16 -4.990949 -20.855856 -11.972145 0.107342 -0.124349 -0.503130
 17 1.952608 -90.186722 -0.924721 0.000000 -0.000000 0.000000
 18 -35.001923 9.597197 -70.247513 0.000000 -0.000000 0.000000
 19 3.759451 -1.898640 -3.541328 0.000000 -0.000000 0.000000
 20 -7.698014 1.934285 15.877953 -0.431614 -0.136398 -0.316947
 21 -12.721180 -0.083347 -12.838249 0.350879 -0.485336 0.230535
 22 -9.167517 -10.101500 -11.648903 0.579793 0.809828 1.024413
 23 -3.642090 -2.032094 -4.543640 0.000000 -0.000000 0.000000
 24 -0.409780 2.428936 22.341393 0.070612 0.003653 -0.120877
 25 -0.380095 -2.887196 20.845383 0.000000 -0.000000 0.000000
 26 -0.040494 -0.674471 8.862854 0.000000 -0.000000 0.000000
 27 -0.325039 -1.113431 -83.015976 0.000000 -0.000000 0.000000
 28 -0.325039 -1.113431 -83.015976 0.000000 -0.000000 0.000000
time 30
  0 -5.113562 -3.392895 0.796835 0.000000 -0.000000 0.000000
  1 -7.310884 -0.101110 174.348495 0.000000 -0.000000 0.000000
  2 -5.113562 -3.392895 78.570305 0.052360 -0.000000 0.000000
  3 0.325039 1.113430 -5.099007 -0.079803 0.000000 0.000000
  4 6.206746 -0.124160 -11.733646 0.095728 -0.000001 0.000000
  5 2.376919 1.428908 -19.463909 0.732099 0.000001 0.000000
  6 1.646507 1.612120 -34.692959 0.000000 -0.000000 0.000000
  7 0.219322 -4.030296 -4.600571 0.000000 -0.000000 0.000000
  8 -6.833119 -0.124160 -11.733646 -0.883558 -0.072785 -0.369515
  9 -2.998637 1.160229 -19.583820 0.983487 -0.068177 0.228839
 10 -1.356789 1.880817 -34.573063 0.097549 0.155153 -0.039225
 11 -0.258572 -4.030293 -4.908827 0.000000 -0.000000 0.000000
 12 0.325039 1.113430 0.809021 -0.052232 0.003652 0.069720
 13 7.054492 1.815097 15.713699 0.048885 -0.072318 -0.664994
 14 12.909769 -0.165818 -12.867264 0.058706 -0.086767 -0.002549
 15 11.504257 -9.735163 -11.778595 -0.114160 0.138026 -0.699164
 16 -4.990946 -20.855858 -11.972145 0.107342 -0.124349 -0.503130
 17 1.952629 -90.186737 -0.924717 0.000000 -0.000000 0.000000
 18 -35.001926 9.597205 -70.247490 0.000000 -0.000000 0.000000
 19 3.759449 -1.898642 -3.541321 0.000000 -0.000000 0.000000
 20 -7.698016 1.934286 15.877953 -0.431614 -0.136398 -0.316947
 21 -12.721181 -0.083347 -12.838249 0.350879 -0.485336 0.230535
 22 -9.167515 -10.101500 -11.648903 0.579793 0.809829 1.024413
 23 -3.642090 -2.032094 -4.543640 0.000000 -0.000000 0.000000
 24 -0.409780 2.428936 22.341393 0.051330 0.002655 -0.121036
 25 -0.380095 -2.887197 20.845375 0.000000 -0.000000 0.000000
 26 -0.040494 -0.674471 8.862854 0.000000 -0.000000 0.000000
 27 -0.325040 -1.113431 -83.015968 0.000000 -0.000000 0.000000
 28 -0.325040 -1.113431 -83.015968 0.000000 -0.000000 0.000000
time 31
  0 -5.113562 -3.392895 0.796835 0.000000 -0.000000 0.000000
  1 -7.310884 -0.101110 174.348495 0.000000 -0.000000 0.000000
  2 -5.113562 -3.392895 74.144524 0.052360 -0.000000 0.000000
  3 0.325039 1.113430 -5.099007 -0.079802 0.000000 0.000000
  4 6.206746 -0.124160 -11.733643 0.195989 -0.000001 0.000000
  5 2.376919 1.428908 -19.463913 0.720959 0.000001 0.000000
  6 1.646507 1.612116 -34.692955 0.000000 -0.000000 0.000000
  7 0.219322 -4.030296 -4.600570 0.000000 -0.000000 0.000000
  8 -6.833119 -0.124160 -11.733643 -0.978910 -0.111861 -0.379291
  9 -2.998632 1.160225 -19.583820 1.008228 -0.065018 0.234457
 10 -1.356794 1.880817 -34.573063 0.097549 0.155153 -0.039225
 11 -0.258572 -4.030294 -4.908826 0.000000 -0.000000 0.000000
 12 0.325039 1.113430 0.809021 -0.052232 0.003652 0.069720
 13 7.054493 1.815096 15.713699 0.048885 -0.072318 -0.664994
 14 12.909768 -0.165817 -12.867256 0.058706 -0.086767 -0.002549
 15 11.504253 -9.735167 -11.778595 -0.114160 0.138026 -0.699164
 16 -4.990942 -20.855854 -11.972141 0.107342 -0.124349 -0.503130
 17 1.952629 -90.186737 -0.924713 0.000000 -0.000000 0.000000
 18 -35.001938 9.597207 -70.247490 0.000000 -0.000000 0.000000
 19 3.759453 -1.898640 -3.541321 0.000000 -0.000000 0.000000
 20 -7.698016 1.934285 15.877953 -0.431614 -0.136398 -0.316946
 21 -12.721182 -0.083347 -12.838249 0.350879 -0.485336 0.230535
 22 -9.167521 -10.101496 -11.648911 0.579793 0.809828 1.024413
 23 -3.642086 -2.032093 -4.543636 0.000000 -0.000000 0.000000
 24 -0.409780 2.428936 22.341393 0.034319 0.001776 -0.121217
 25 -0.380096 -2.887195 20.845367 0.000000 -0.000000 0.000000
 26 -0.040494 -0.674471 8.862854 0.000000 -0.000000 0.000000
 27 -0.325039 -1.113431 -83.015968 0.000000 -0.000000 0.000000
 28 -0.325039 -1.113431 -83.015968 0.000000 -0.000000 0.000000
time 32
  0 -5.113562 -3.392895 0.796835 0.000000 -0.000000 0.000000
  1 -7.310884 -0.101110 174.348495 0.000000 -0.000000 0.000000
  2 -5.113562 -3.392895 70.141525 0.052360 -0.000000 0.000000
  3 0.325039 1.113430 -5.098999 -0.079800 0.000000 -0.000000
  4 6.206746 -0.124160 -11.733650 0.280361 -0.000001 0.000000
  5 2.376919 1.428908 -19.463917 0.711584 0.000001 -0.000000
  6 1.646507 1.612118 -34.692955 0.000000 -0.000000 0.000000
  7 0.219322 -4.030296 -4.600573 0.000000 -0.000000 0.000000
  8 -6.833119 -0.124160 -11.733650 -1.059151 -0.144745 -0.387519
  9 -2.998634 1.160221 -19.583820 1.029048 -0.062360 0.239185
 10 -1.356796 1.880819 -34.573067 0.097549 0.155153 -0.039225
 11 -0.258572 -4.030291 -4.908827 0.000000 -0.000000 0.000000
 12 0.325039 1.113430 0.809021 -0.052232 0.003652 0.069720
 13 7.054492 1.815096 15.713707 0.048885 -0.072318 -0.664994
 14 12.909765 -0.165817 -12.867264 0.058706 -0.086767 -0.002549
 15 11.504255 -9.735168 -11.778587 -0.114160 0.138026 -0.699164
 16 -4.990940 -20.855852 -11.972145 0.107342 -0.124349 -0.503130
 17 1.952625 -90.186729 -0.924721 0.000000 -0.000000 0.000000
 18 -35.001930 9.597200 -70.247482 0.000000 -0.000000 0.000000
 19 3.759457 -1.898640 -3.541328 0.000000 -0.000000 0.000000
 20 -7.698014 1.934285 15.877953 -0.431614 -0.136398 -0.316946
 21 -12.721181 -0.083347 -12.838249 0.350879 -0.485336 0.230535
 22 -9.167517 -10.101500 -11.648903 0.579793 0.809829 1.024414
 23 -3.642086 -2.032094 -4.543640 0.000000 -0.000000 0.000000
 24 -0.409780 2.428936 22.341393 0.020130 0.001042 -0.121420
 25 -0.380095 -2.887196 20.845375 0.000000 -0.000000 0.000000
 26 -0.040494 -0.674471 8.862854 0.000000 -0.000000 0.000000
 27 -0.325040 -1.113431 -83.015968 0.000000 -0.000000 0.000000
 28 -0.325040 -1.113431 -83.015968 0.000000 -0.000000 0.000000
time 33
  0 -5.113562 -3.392895 0.796835 0.000000 -0.000000 0.000000
  1 -7.310884 -0.101110 174.348495 0.000000 -0.000000 0.000000
  2 -5.113562 -3.392895 66.883423 0.052360 -0.000000 0.000000
  3 0.325039 1.113430 -5.099003 -0.079799 0.000000 -0.000000
  4 6.206746 -0.124160 -11.733643 0.345171 -0.000001 0.000000
  5 2.376919 1.428907 -19.463917 0.704382 0.000001 0.000000
  6 1.646507 1.612118 -34.692955 0.000000 -0.000000 0.000000
  7 0.219322 -4.030294 -4.600569 0.000000 -0.000000 0.000000
  8 -6.833119 -0.124160 -11.733646 -1.120788 -0.170005 -0.393839
  9 -2.998635 1.160217 -19.583820 1.045041 -0.060319 0.242816
 10 -1.356791 1.880816 -34.573071 0.097549 0.155153 -0.039225
 11 -0.258572 -4.030293 -4.908828 0.000000 -0.000000 0.000000
 12 0.325039 1.113430 0.809013 -0.052232 0.003652 0.069720
 13 7.054492 1.815097 15.713707 0.048885 -0.072318 -0.664994
 14 12.909768 -0.165817 -12.867264 0.058706 -0.086767 -0.002549
 15 11.504257 -9.735167 -11.778584 -0.114160 0.138026 -0.699164
 16 -4.990946 -20.855864 -11.972145 0.107342 -0.124349 -0.503130
 17 1.952629 -90.186775 -0.924709 0.000000 -0.000000 0.000000
 18 -35.001930 9.597215 -70.247490 0.000000 -0.000000 0.000000
 19 3.759457 -1.898644 -3.541325 0.000000 -0.000000 0.000000
 20 -7.698017 1.934286 15.877953 -0.431614 -0.136398 -0.316947
 21 -12.721182 -0.083347 -12.838253 0.350879 -0.485336 0.230535
 22 -9.167519 -10.101499 -11.648903 0.579793 0.809829 1.024413
 23 -3.642094 -2.032096 -4.543640 0.000000 -0.000000 0.000000
 24 -0.409780 2.428936 22.341393 0.009313 0.000482 -0.121647
 25 -0.380095 -2.887196 20.845367 0.000000 -0.000000 0.000000
 26 -0.040494 -0.674471 8.862854 0.000000 -0.000000 0.000000
 27 -0.325039 -1.113431 -83.015968 0.000000 -0.000000 0.000000
 28 -0.325039 -1.113431 -83.015968 0.000000 -0.000000 0.000000
time 34
  0 -5.113562 -3.392895 0.796835 0.000000 -0.000000 0.000000
  1 -7.310884 -0.101110 174.348495 0.000000 -0.000000 0.000000
  2 -5.113562 -3.392895 64.692352 0.052360 -0.000000 0.000000
  3 0.325039 1.113430 -5.098999 -0.079797 0.000000 0.000000
  4 6.206746 -0.124160 -11.733643 0.386750 -0.000001 0.000000
  5 2.376919 1.428908 -19.463913 0.699763 0.000001 0.000000
  6 1.646507 1.612120 -34.692955 0.000000 -0.000000 0.000000
  7 0.219323 -4.030298 -4.600571 0.000000 -0.000000 0.000000
  8 -6.833120 -0.124160 -11.733643 -1.160331 -0.186210 -0.397893
  9 -2.998632 1.160221 -19.583820 1.055301 -0.059009 0.245146
 10 -1.356794 1.880817 -34.573067 0.097549 0.155153 -0.039225
 11 -0.258572 -4.030294 -4.908827 0.000000 -0.000000 0.000000
 12 0.325039 1.113430 0.809021 -0.052232 0.003652 0.069720
 13 7.054492 1.815096 15.713707 0.048885 -0.072318 -0.664994
 14 12.909769 -0.165815 -12.867264 0.058706 -0.086767 -0.002549
 15 11.504257 -9.735162 -11.778595 -0.114160 0.138026 -0.699164
 16 -4.990948 -20.855858 -11.972145 0.107342 -0.124349 -0.503130
 17 1.952608 -90.186737 -0.924713 0.000000 -0.000000 0.000000
 18 -35.001930 9.597202 -70.247505 0.000000 -0.000000 0.000000
 19 3.759455 -1.898640 -3.541328 0.000000 -0.000000 0.000000
 20 -7.698016 1.934286 15.877953 -0.431614 -0.136398 -0.316947
 21 -12.721180 -0.083347 -12.838249 0.350879 -0.485336 0.230535
 22 -9.167517 -10.101499 -11.648907 0.579793 0.809829 1.024413
 23 -3.642090 -2.032095 -4.543644 0.000000 -0.000000 0.000000
 24 -0.409780 2.428936 22.341393 0.002419 0.000125 -0.121898
 25 -0.380095 -2.887195 20.845375 0.000000 -0.000000 0.000000
 26 -0.040494 -0.674471 8.862854 0.000000 -0.000000 0.000000
 27 -0.325040 -1.113431 -83.015976 0.000000 -0.000000 0.000000
 28 -0.325040 -1.113431 -83.015976 0.000000 -0.000000 0.000000
time 35
  0 -5.113562 -3.392895 0.796835 0.000000 -0.000000 0.000000
  1 -7.310884 -0.101110 174.348495 0.000000 -0.000000 0.000000
  2 -5.113562 -3.392895 63.890411 0.052360 -0.000000 0.000000
  3 0.325039 1.113430 -5.098995 -0.079794 0.000000 -0.000000
  4 6.206746 -0.124160 -11.733643 0.401425 -0.000001 0.000000
  5 2.376919 1.428909 -19.463913 0.698132 0.000001 -0.000000
  6 1.646508 1.612120 -34.692959 0.000000 -0.000000 0.000000
  7 0.219322 -4.030296 -4.600573 0.000000 -0.000000 0.000000
  8 -6.833119 -0.124160 -11.733643 -1.174288 -0.191929 -0.399324
  9 -2.998633 1.160221 -19.583820 1.058922 -0.058547 0.245969
 10 -1.356792 1.880812 -34.573067 0.097549 0.155153 -0.039225
 11 -0.258571 -4.030294 -4.908828 0.000000 -0.000000 0.000000
 12 0.325039 1.113430 0.809025 -0.052232 0.003652 0.069720
 13 7.054492 1.815096 15.713707 0.048885 -0.072318 -0.664994
 14 12.909767 -0.165817 -12.867264 0.058706 -0.086767 -0.002549
 15 11.504261 -9.735168 -11.778587 -0.114160 0.138026 -0.699164
 16 -4.990946 -20.855858 -11.972141 0.107342 -0.124349 -0.503130
 17 1.952604 -90.186722 -0.924725 0.000000 -0.000000 0.000000
 18 -35.001926 9.597196 -70.247498 0.000000 -0.000000 0.000000
 19 3.759457 -1.898642 -3.541325 0.000000 -0.000000 0.000000
 20 -7.698016 1.934285 15.877953 -0.431614 -0.136398 -0.316947
 21 -12.721182 -0.083347 -12.838253 0.350879 -0.485336 0.230535
 22 -9.167519 -10.101498 -11.648903 0.579793 0.809828 1.024413
 23 -3.642086 -2.032096 -4.543642 0.000000 -0.000000 0.000000
 24 -0.409780 2.428936 22.341393 -0.000001 0.000000 -0.122176
 25 -0.380096 -2.887196 20.845375 0.000000 -0.000000 0.000000
 26 -0.040494 -0.674471 8.862854 0.000000 -0.000000 0.000000
 27 -0.325039 -1.113431 -83.015968 0.000000 -0.000000 0.000000
 28 -0.325039 -1.113431 -83.015968 0.000000 -0.000000 0.000000
end
