version 1
nodes
  0 "bone36"  -1
  1 "bone37"  -1
  2 "bone39"  -1
  3 "bone21"   2
  4 "bone20"   3
  5 "bone07"   4
  6 "bone22"   5
  7 "bone18"   6
  8 "bone25"   7
  9 "bone14"   4
 10 "bone16"   9
 11 "bone19"  10
 12 "bone24"  11
 13 "bone01"   4
 14 "bone15"  13
 15 "bone001"  14
 16 "bone17"  13
 17 "bone38"  16
 18 "bone03"   3
 19 "bone06"  18
 20 "bone13"  19
 21 "bone12"  20
 22 "bone26"  19
 23 "bone08"  18
 24 "bone05"  23
 25 "bone09"  24
 26 "bone11"  25
 27 "bone29"  26
 28 "bone30"  25
 29 "bone02"  18
 30 "bone04"  29
 31 "bone10"  30
 32 "bone31"  31
 33 "bone32"  18
 34 "bone34"   2
end
skeleton
time 0
  0 -2.629148 1.415440 -0.352036 0.000000 -0.000000 0.000000
  1 -2.629148 1.415440 -0.352036 0.000000 -0.000000 0.000000
  2 -2.629148 1.415440 -0.352036 0.000000 -0.000000 0.000000
  3 0.000000 -0.687185 97.839333 0.034907 0.000000 0.000000
  4 0.000000 0.440305 -2.731789 -0.034906 0.000000 -0.000000
  5 -8.065217 -1.301253 -17.282547 -0.117611 0.103397 -0.142897
  6 -0.883780 2.065766 -34.200714 0.436331 -0.000000 0.000000
  7 -1.767050 1.039484 -33.503738 -0.292388 -0.049164 -0.003695
  8 0.410545 -3.053424 -6.308685 0.000000 -0.000000 0.000000
  9 8.638525 -0.139325 -16.633003 -0.068305 -0.155899 -0.019300
 10 1.058083 0.932503 -35.061913 0.349312 0.031101 0.015853
 11 1.221045 1.156221 -33.292107 -0.260399 0.006793 0.020443
 12 0.085375 -3.198825 -6.249953 0.000000 -0.000000 0.000000
 13 0.213274 2.786515 7.572433 -0.017453 0.000000 0.000000
 14 -2.904730 0.818863 2.596077 -0.001952 0.004631 -0.293297
 15 3.765303 -0.266405 -105.303329 0.017445 -0.006626 0.385211
 16 1.233751 0.818863 2.596077 -0.001760 -0.001893 0.144948
 17 -2.736665 -0.542175 -105.309509 0.017471 0.007558 -0.441260
 18 0.000000 -0.179234 2.752571 -0.226892 0.000000 0.000001
 19 0.749370 -1.299137 28.624321 0.244345 -0.000000 0.000000
 20 -0.383533 17.841385 -5.153099 -0.174533 0.000000 -0.000000
 21 0.341385 5.572280 -21.207748 -0.174532 0.000000 -0.000000
 22 -1.270981 0.784905 10.690918 0.000000 -0.000000 0.000000
 23 -8.160084 -0.723730 19.345650 -0.103099 0.589055 1.342894
 24 -15.198616 0.466467 -18.278648 -0.639340 0.212496 0.456580
 25 -8.028442 -4.482512 -11.667107 -0.271619 0.244372 -0.041531
 26 -1.668770 -2.144661 -6.538008 0.052020 0.091792 0.093927
 27 35.457283 5.719499 -83.014793 0.000000 -0.000000 0.000000
 28 -3.175095 -2.066469 -5.742231 0.000000 -0.000000 0.000000
 29 9.450655 -0.516975 19.516205 0.184047 -0.253896 0.183938
 30 14.230835 0.232845 -18.395622 -1.073499 -0.618246 -1.108255
 31 8.015633 -4.458897 -11.817974 -0.088245 -0.076199 -0.105809
 32 2.087151 -1.667404 -5.327335 0.000000 -0.000000 0.000000
 33 0.319299 -0.756851 2.981499 0.000000 -0.000000 0.000000
 34 -2.465699 3.693841 194.748917 0.000000 -0.000000 0.000000
time 1
  0 -2.629148 1.415440 -0.352036 0.000000 -0.000000 0.000000
  1 -2.629148 1.415440 -0.352036 0.000000 -0.000000 0.000000
  2 -2.629148 1.415440 -0.352036 0.000000 -0.000000 0.000000
  3 0.000000 -0.110292 97.873840 0.032793 0.000000 -0.000000
  4 0.000000 0.440305 -2.731789 -0.039838 -0.000000 0.000000
  5 -8.065217 -1.301253 -17.282547 -0.118704 0.102117 -0.143175
  6 -0.883780 2.065766 -34.200714 0.439465 0.000454 0.000197
  7 -1.767048 1.039487 -33.503738 -0.283355 -0.047676 -0.003634
  8 0.410547 -3.053423 -6.308685 0.000000 -0.000000 0.000000
  9 8.638525 -0.139325 -16.633003 -0.060939 -0.152753 -0.018910
 10 1.058081 0.932504 -35.061916 0.351420 0.030473 0.015533
 11 1.221046 1.156219 -33.292110 -0.254087 0.006656 0.020031
 12 0.085373 -3.198826 -6.249954 0.000000 -0.000000 0.000000
 13 0.213274 2.786515 7.572441 -0.017453 0.000000 0.000000
 14 -2.904730 0.818863 2.596077 -0.002735 0.005555 -0.302754
 15 3.765303 -0.266407 -105.303322 0.017445 -0.006626 0.385211
 16 1.233752 0.818863 2.596077 -0.002033 -0.002356 0.151941
 17 -2.736665 -0.542176 -105.309509 0.017471 0.007558 -0.441260
 18 0.000000 -0.179234 2.752571 -0.226824 0.000524 0.016903
 19 0.749370 -1.299137 28.624329 0.248762 0.002731 -0.016396
 20 -0.383533 17.841379 -5.153099 -0.166820 -0.000690 -0.000505
 21 0.341385 5.572279 -21.207756 -0.166079 0.000000 -0.000000
 22 -1.270981 0.784904 10.690887 0.000000 -0.000000 0.000000
 23 -8.160084 -0.723732 19.345657 -0.179296 0.581524 1.338675
 24 -15.198608 0.466469 -18.278648 -0.630194 0.209028 0.454956
 25 -8.028435 -4.482510 -11.667103 -0.264098 0.245200 -0.041331
 26 -1.668770 -2.144657 -6.538005 0.052020 0.091792 0.093927
 27 35.457306 5.719509 -83.014778 0.000000 -0.000000 0.000000
 28 -3.175087 -2.066469 -5.742230 0.000000 -0.000000 0.000000
 29 9.450653 -0.516975 19.516212 0.184047 -0.253896 0.183938
 30 14.230839 0.232844 -18.395630 -1.073499 -0.618246 -1.108256
 31 8.015648 -4.458897 -11.817963 -0.088245 -0.076199 -0.105809
 32 2.087143 -1.667408 -5.327332 0.000000 -0.000000 0.000000
 33 0.319298 -0.756851 2.981514 0.000000 -0.000000 0.000000
 34 -2.465699 3.693841 194.748917 0.000000 -0.000000 0.000000
time 2
  0 -2.629148 1.415440 -0.352036 0.000000 -0.000000 0.000000
  1 -2.629148 1.415440 -0.352036 0.000000 -0.000000 0.000000
  2 -2.629148 1.415440 -0.352036 0.000000 -0.000000 0.000000
  3 0.000000 1.482749 97.969124 0.026957 0.000000 -0.000000
  4 0.000000 0.440305 -2.731789 -0.053456 0.000000 0.000000
  5 -8.065216 -1.301253 -17.282539 -0.121960 0.098505 -0.143945
  6 -0.883780 2.065766 -34.200718 0.448118 0.001709 0.000742
  7 -1.767048 1.039487 -33.503738 -0.258413 -0.043569 -0.003465
  8 0.410545 -3.053423 -6.308687 0.000000 -0.000000 0.000000
  9 8.638525 -0.139325 -16.633011 -0.040595 -0.144064 -0.017835
 10 1.058083 0.932503 -35.061913 0.357243 0.028740 0.014649
 11 1.221045 1.156226 -33.292107 -0.236656 0.006278 0.018891
 12 0.085375 -3.198828 -6.249952 0.000000 -0.000000 0.000000
 13 0.213274 2.786515 7.572426 -0.017453 0.000000 0.000000
 14 -2.904730 0.818864 2.596077 -0.004940 0.008154 -0.329366
 15 3.765303 -0.266407 -105.303314 0.017445 -0.006626 0.385211
 16 1.233752 0.818864 2.596077 -0.002802 -0.003658 0.171618
 17 -2.736665 -0.542176 -105.309502 0.017471 0.007558 -0.441260
 18 0.000000 -0.179234 2.752571 -0.226613 0.001969 0.063576
 19 0.749370 -1.299135 28.624321 0.260959 0.010273 -0.061671
 20 -0.383533 17.841383 -5.153099 -0.144679 -0.002672 -0.001956
 21 0.341385 5.572277 -21.207748 -0.142124 0.000000 -0.000000
 22 -1.270981 0.784905 10.690903 0.000000 -0.000000 0.000000
 23 -8.160084 -0.723730 19.345650 -0.275682 0.560728 1.325457
 24 -15.198624 0.466469 -18.278633 -0.603958 0.199113 0.450383
 25 -8.028435 -4.482504 -11.667103 -0.243330 0.247486 -0.040782
 26 -1.668762 -2.144659 -6.538005 0.052020 0.091792 0.093927
 27 35.457321 5.719509 -83.014786 0.000000 -0.000000 0.000000
 28 -3.175087 -2.066473 -5.742229 0.000000 -0.000000 0.000000
 29 9.450655 -0.516975 19.516205 0.184047 -0.253896 0.183938
 30 14.230839 0.232843 -18.395615 -1.073499 -0.618246 -1.108255
 31 8.015633 -4.458893 -11.817963 -0.088245 -0.076199 -0.105809
 32 2.087158 -1.667400 -5.327335 0.000000 -0.000000 0.000000
 33 0.319299 -0.756851 2.981506 0.000000 -0.000000 0.000000
 34 -2.465699 3.693841 194.748917 0.000000 -0.000000 0.000000
time 3
  0 -2.629148 1.415440 -0.352036 0.000000 -0.000000 0.000000
  1 -2.629148 1.415440 -0.352036 0.000000 -0.000000 0.000000
  2 -2.629148 1.415440 -0.352036 0.000000 -0.000000 0.000000
  3 0.000000 3.885486 98.112831 0.018154 0.000000 -0.000000
  4 0.000000 0.440305 -2.731789 -0.073996 -0.000000 0.000000
  5 -8.065218 -1.301253 -17.282555 -0.127347 0.092906 -0.145105
  6 -0.883781 2.065766 -34.200714 0.461170 0.003602 0.001563
  7 -1.767048 1.039489 -33.503746 -0.220793 -0.037373 -0.003210
  8 0.410545 -3.053425 -6.308686 0.000000 -0.000000 0.000000
  9 8.638525 -0.139324 -16.633011 -0.009912 -0.130959 -0.016212
 10 1.058079 0.932503 -35.061924 0.366025 0.026125 0.013317
 11 1.221046 1.156218 -33.292114 -0.210365 0.005707 0.017173
 12 0.085375 -3.198827 -6.249954 0.000000 -0.000000 0.000000
 13 0.213274 2.786516 7.572433 -0.017453 0.000000 0.000000
 14 -2.904730 0.818864 2.596077 -0.008348 0.012172 -0.370493
 15 3.765303 -0.266404 -105.303337 0.017445 -0.006626 0.385211
 16 1.233751 0.818864 2.596077 -0.003990 -0.005670 0.202029
 17 -2.736665 -0.542174 -105.309532 0.017471 0.007558 -0.441260
 18 0.000000 -0.179234 2.752586 -0.226252 0.004150 0.133973
 19 0.749370 -1.299137 28.624313 0.279355 0.021648 -0.129958
 20 -0.383533 17.841385 -5.153099 -0.109606 -0.005811 -0.004255
 21 0.341385 5.572275 -21.207764 -0.104773 0.000000 -0.000001
 22 -1.270981 0.784904 10.690903 0.000000 -0.000000 0.000000
 23 -8.160085 -0.723734 19.345650 -0.387827 0.529363 1.302399
 24 -15.198616 0.466469 -18.278648 -0.562436 0.183486 0.443317
 25 -8.028435 -4.482513 -11.667107 -0.212006 0.250933 -0.039952
 26 -1.668762 -2.144661 -6.538006 0.052020 0.091792 0.093927
 27 35.457298 5.719490 -83.014793 0.000000 -0.000000 0.000000
 28 -3.175087 -2.066473 -5.742231 0.000000 -0.000000 0.000000
 29 9.450656 -0.516977 19.516205 0.184047 -0.253896 0.183938
 30 14.230843 0.232844 -18.395622 -1.073499 -0.618246 -1.108256
 31 8.015640 -4.458893 -11.817970 -0.088245 -0.076199 -0.105809
 32 2.087143 -1.667404 -5.327335 0.000000 -0.000000 0.000000
 33 0.319298 -0.756851 2.981506 0.000000 -0.000000 0.000000
 34 -2.465699 3.693841 194.748917 0.000000 -0.000000 0.000000
time 4
  0 -2.629148 1.415440 -0.352036 0.000000 -0.000000 0.000000
  1 -2.629148 1.415440 -0.352036 0.000000 -0.000000 0.000000
  2 -2.629148 1.415440 -0.352036 0.000000 -0.000000 0.000000
  3 0.000000 6.891460 98.292625 0.007141 -0.000000 -0.000000
  4 0.000000 0.440305 -2.731796 -0.099693 -0.000000 0.000000
  5 -8.065218 -1.301252 -17.282539 -0.134833 0.085662 -0.146557
  6 -0.883783 2.065767 -34.200718 0.477498 0.005971 0.002590
  7 -1.767052 1.039491 -33.503738 -0.173728 -0.029622 -0.002892
  8 0.410547 -3.053424 -6.308684 0.000000 -0.000000 0.000000
  9 8.638524 -0.139324 -16.633003 0.028475 -0.114564 -0.014183
 10 1.058080 0.932503 -35.061916 0.377012 0.022855 0.011649
 11 1.221045 1.156227 -33.292110 -0.177474 0.004992 0.015023
 12 0.085375 -3.198827 -6.249953 0.000000 -0.000000 0.000000
 13 0.213274 2.786515 7.572441 -0.017453 0.000000 0.000000
 14 -2.904730 0.818864 2.596069 -0.012740 0.017349 -0.423496
 15 3.765302 -0.266407 -105.303322 0.017445 -0.006626 0.385211
 16 1.233752 0.818864 2.596077 -0.005522 -0.008264 0.241221
 17 -2.736664 -0.542172 -105.309517 0.017471 0.007558 -0.441260
 18 -0.000000 -0.179234 2.752571 -0.225734 0.006877 0.222043
 19 0.749370 -1.299135 28.624321 0.302370 0.035879 -0.215390
 20 -0.383533 17.841385 -5.153099 -0.063098 -0.009973 -0.007303
 21 0.341385 5.572277 -21.207764 -0.056134 0.000000 -0.000001
 22 -1.270981 0.784906 10.690910 0.000000 -0.000000 0.000000
 23 -8.160084 -0.723731 19.345642 -0.511297 0.490122 1.268659
 24 -15.198608 0.466469 -18.278641 -0.507432 0.162878 0.434210
 25 -8.028427 -4.482510 -11.667107 -0.172818 0.255247 -0.038915
 26 -1.668777 -2.144661 -6.538006 0.052020 0.091792 0.093927
 27 35.457298 5.719501 -83.014786 0.000000 -0.000000 0.000000
 28 -3.175102 -2.066475 -5.742231 0.000000 -0.000000 0.000000
 29 9.450656 -0.516973 19.516197 0.184047 -0.253896 0.183938
 30 14.230843 0.232847 -18.395630 -1.073499 -0.618246 -1.108256
 31 8.015640 -4.458893 -11.817970 -0.088245 -0.076199 -0.105809
 32 2.087151 -1.667404 -5.327335 0.000000 -0.000000 0.000000
 33 0.319298 -0.756849 2.981499 0.000000 -0.000000 0.000000
 34 -2.465699 3.693841 194.748917 0.000000 -0.000000 0.000000
time 5
  0 -2.629148 1.415440 -0.352036 0.000000 -0.000000 0.000000
  1 -2.629148 1.415440 -0.352036 0.000000 -0.000000 0.000000
  2 -2.629148 1.415440 -0.352036 0.000000 -0.000000 0.000000
  3 0.000000 10.294218 98.496147 -0.005325 -0.000000 -0.000000
  4 0.000000 0.440305 -2.731781 -0.128781 0.000000 0.000000
  5 -8.065218 -1.301252 -17.282547 -0.144385 0.077118 -0.148201
  6 -0.883781 2.065764 -34.200710 0.495982 0.008652 0.003753
  7 -1.767048 1.039492 -33.503735 -0.120451 -0.020848 -0.002531
  8 0.410547 -3.053424 -6.308685 0.000000 -0.000000 0.000000
  9 8.638525 -0.139325 -16.633003 0.071928 -0.096004 -0.011885
 10 1.058082 0.932502 -35.061909 0.389449 0.019152 0.009762
 11 1.221045 1.156227 -33.292099 -0.140241 0.004184 0.012590
 12 0.085376 -3.198826 -6.249951 0.000000 -0.000000 0.000000
 13 0.213274 2.786514 7.572433 -0.017453 0.000000 0.000000
 14 -2.904730 0.818864 2.596085 -0.017897 0.023429 -0.485737
 15 3.765301 -0.266405 -105.303314 0.017445 -0.006626 0.385211
 16 1.233752 0.818864 2.596085 -0.007321 -0.011309 0.287244
 17 -2.736663 -0.542172 -105.309486 0.017471 0.007558 -0.441260
 18 0.000000 -0.179234 2.752586 -0.225051 0.009965 0.321739
 19 0.749370 -1.299136 28.624321 0.328422 0.051989 -0.312098
 20 -0.383531 17.841383 -5.153099 -0.006652 -0.015025 -0.011002
 21 0.341387 5.572281 -21.207748 0.001689 0.000000 -0.000001
 22 -1.270981 0.784908 10.690895 0.000000 -0.000000 0.000000
 23 -8.160085 -0.723731 19.345650 -0.641661 0.445702 1.223396
 24 -15.198616 0.466465 -18.278648 -0.440749 0.138024 0.423516
 25 -8.028435 -4.482510 -11.667110 -0.128457 0.260129 -0.037740
 26 -1.668770 -2.144657 -6.538008 0.052020 0.091792 0.093927
 27 35.457298 5.719475 -83.014809 0.000000 -0.000000 0.000000
 28 -3.175087 -2.066471 -5.742234 0.000000 -0.000000 0.000000
 29 9.450658 -0.516974 19.516212 0.184047 -0.253896 0.183938
 30 14.230846 0.232842 -18.395622 -1.073499 -0.618246 -1.108255
 31 8.015640 -4.458897 -11.817970 -0.088245 -0.076199 -0.105809
 32 2.087151 -1.667404 -5.327339 0.000000 -0.000000 0.000000
 33 0.319299 -0.756849 2.981499 0.000000 -0.000000 0.000000
 34 -2.465699 3.693841 194.748917 0.000000 -0.000000 0.000000
time 6
  0 -2.629148 1.415440 -0.352036 0.000000 -0.000000 0.000000
  1 -2.629148 1.415440 -0.352036 0.000000 -0.000000 0.000000
  2 -2.629148 1.415440 -0.352036 0.000000 -0.000000 0.000000
  3 0.000000 13.887302 98.711060 -0.018489 -0.000000 -0.000000
  4 0.000000 0.440305 -2.731789 -0.159497 -0.000000 0.000000
  5 -8.065217 -1.301251 -17.282547 -0.155970 0.067616 -0.149937
  6 -0.883781 2.065763 -34.200714 0.515499 0.011483 0.004981
  7 -1.767052 1.039489 -33.503738 -0.064193 -0.011583 -0.002151
  8 0.410545 -3.053424 -6.308684 0.000000 -0.000000 0.000000
  9 8.638526 -0.139323 -16.633003 0.117812 -0.076407 -0.009459
 10 1.058082 0.932504 -35.061913 0.402582 0.015243 0.007769
 11 1.221046 1.156223 -33.292110 -0.100926 0.003330 0.010020
 12 0.085376 -3.198826 -6.249953 0.000000 -0.000000 0.000000
 13 0.213274 2.786516 7.572441 -0.017453 0.000000 0.000000
 14 -2.904730 0.818865 2.596077 -0.023601 0.030153 -0.554575
 15 3.765305 -0.266406 -105.303307 0.017445 -0.006626 0.385211
 16 1.233751 0.818865 2.596077 -0.009310 -0.014677 0.338145
 17 -2.736666 -0.542177 -105.309509 0.017471 0.007558 -0.441260
 18 0.000000 -0.179235 2.752571 -0.224196 0.013226 0.427010
 19 0.749369 -1.299138 28.624336 0.355932 0.069000 -0.414216
 20 -0.383533 17.841389 -5.153091 0.058236 -0.020832 -0.015254
 21 0.341385 5.572281 -21.207756 0.066587 0.000000 -0.000001
 22 -1.270981 0.784908 10.690903 0.000000 -0.000000 0.000000
 23 -8.160086 -0.723731 19.345657 -0.774488 0.398798 1.165768
 24 -15.198624 0.466461 -18.278641 -0.364191 0.109657 0.411689
 25 -8.028435 -4.482513 -11.667109 -0.081615 0.265285 -0.036500
 26 -1.668770 -2.144665 -6.538008 0.052020 0.091792 0.093927
 27 35.457283 5.719490 -83.014771 0.000000 -0.000000 0.000000
 28 -3.175079 -2.066471 -5.742231 0.000000 -0.000000 0.000000
 29 9.450655 -0.516974 19.516212 0.184047 -0.253896 0.183938
 30 14.230843 0.232841 -18.395638 -1.073499 -0.618246 -1.108255
 31 8.015640 -4.458900 -11.817970 -0.088245 -0.076199 -0.105809
 32 2.087151 -1.667404 -5.327335 0.000000 -0.000000 0.000000
 33 0.319299 -0.756849 2.981506 0.000000 -0.000000 0.000000
 34 -2.465699 3.693841 194.748917 0.000000 -0.000000 0.000000
time 7
  0 -2.629148 1.415440 -0.352036 0.000000 -0.000000 0.000000
  1 -2.629148 1.415440 -0.352036 0.000000 -0.000000 0.000000
  2 -2.629148 1.415440 -0.352036 0.000000 -0.000000 0.000000
  3 0.000000 17.464256 98.924995 -0.031594 -0.000000 -0.000000
  4 0.000000 0.440306 -2.731789 -0.190075 -0.000000 0.000000
  5 -8.065218 -1.301254 -17.282539 -0.169558 0.057501 -0.151664
  6 -0.883783 2.065767 -34.200710 0.534929 0.014301 0.006203
  7 -1.767046 1.039488 -33.503738 -0.008189 -0.002360 -0.001772
  8 0.410549 -3.053425 -6.308687 0.000000 -0.000000 0.000000
  9 8.638525 -0.139327 -16.632996 0.163490 -0.056897 -0.007044
 10 1.058080 0.932503 -35.061920 0.415656 0.011351 0.005786
 11 1.221046 1.156223 -33.292095 -0.061787 0.002480 0.007462
 12 0.085374 -3.198828 -6.249952 0.000000 -0.000000 0.000000
 13 0.213274 2.786516 7.572433 -0.017453 0.000000 0.000000
 14 -2.904730 0.818865 2.596085 -0.029633 0.037265 -0.627372
 15 3.765299 -0.266408 -105.303307 0.017445 -0.006626 0.385211
 16 1.233751 0.818865 2.596085 -0.011414 -0.018239 0.391974
 17 -2.736661 -0.542175 -105.309502 0.017471 0.007558 -0.441260
 18 0.000000 -0.179233 2.752586 -0.223160 0.016472 0.531810
 19 0.749369 -1.299133 28.624329 0.383318 0.085934 -0.515875
 20 -0.383532 17.841385 -5.153099 0.130069 -0.027261 -0.019961
 21 0.341386 5.572289 -21.207748 0.136456 0.000000 -0.000001
 22 -1.270981 0.784904 10.690903 0.000000 -0.000000 0.000000
 23 -8.160084 -0.723728 19.345657 -0.905345 0.352104 1.094934
 24 -15.198612 0.466469 -18.278648 -0.279561 0.078510 0.399181
 25 -8.028427 -4.482506 -11.667105 -0.034983 0.270417 -0.035265
 26 -1.668777 -2.144661 -6.538004 0.052020 0.091792 0.093927
 27 35.457275 5.719498 -83.014778 0.000000 -0.000000 0.000000
 28 -3.175102 -2.066467 -5.742231 0.000000 -0.000000 0.000000
 29 9.450653 -0.516973 19.516212 0.184047 -0.253896 0.183938
 30 14.230843 0.232847 -18.395615 -1.073499 -0.618245 -1.108255
 31 8.015633 -4.458893 -11.817978 -0.088245 -0.076199 -0.105809
 32 2.087151 -1.667404 -5.327335 0.000000 -0.000000 0.000000
 33 0.319299 -0.756849 2.981514 0.000000 -0.000000 0.000000
 34 -2.465699 3.693841 194.748917 0.000000 -0.000000 0.000000
time 8
  0 -2.629148 1.415440 -0.352036 0.000000 -0.000000 0.000000
  1 -2.629148 1.415440 -0.352036 0.000000 -0.000000 0.000000
  2 -2.629148 1.415440 -0.352036 0.000000 -0.000000 0.000000
  3 0.000000 20.818626 99.125626 -0.043883 -0.000000 -0.000000
  4 0.000000 0.440306 -2.731789 -0.218750 0.000000 0.000000
  5 -8.065217 -1.301252 -17.282539 -0.185115 0.047116 -0.153285
  6 -0.883781 2.065765 -34.200722 0.553150 0.016944 0.007350
  7 -1.767051 1.039492 -33.503742 0.044331 0.006289 -0.001416
  8 0.410547 -3.053423 -6.308687 0.000000 -0.000000 0.000000
  9 8.638525 -0.139326 -16.633011 0.206326 -0.038602 -0.004779
 10 1.058080 0.932501 -35.061916 0.427917 0.007701 0.003925
 11 1.221045 1.156216 -33.292107 -0.025083 0.001683 0.005063
 12 0.085376 -3.198826 -6.249954 0.000000 -0.000000 0.000000
 13 0.213274 2.786514 7.572441 -0.017453 0.000000 0.000000
 14 -2.904730 0.818863 2.596077 -0.035775 0.044505 -0.701489
 15 3.765305 -0.266411 -105.303337 0.017445 -0.006626 0.385211
 16 1.233751 0.818863 2.596077 -0.013556 -0.021866 0.446778
 17 -2.736668 -0.542184 -105.309494 0.017471 0.007558 -0.441260
 18 0.000000 -0.179234 2.752579 -0.221936 0.019516 0.630087
 19 0.749371 -1.299133 28.624321 0.409000 0.101815 -0.611209
 20 -0.383533 17.841385 -5.153099 0.207351 -0.034177 -0.025026
 21 0.341385 5.572281 -21.207748 0.209188 0.000000 -0.000001
 22 -1.270980 0.784904 10.690903 0.000000 -0.000000 0.000000
 23 -8.160084 -0.723730 19.345642 -1.029801 0.308315 1.010052
 24 -15.198608 0.466484 -18.278641 -0.188663 0.045318 0.386447
 25 -8.028427 -4.482513 -11.667101 0.008748 0.275230 -0.034107
 26 -1.668762 -2.144646 -6.538006 0.052020 0.091792 0.093927
 27 35.457253 5.719498 -83.014763 0.000000 -0.000000 0.000000
 28 -3.175087 -2.066467 -5.742229 0.000000 -0.000000 0.000000
 29 9.450656 -0.516973 19.516205 0.184047 -0.253896 0.183938
 30 14.230843 0.232845 -18.395630 -1.073499 -0.618246 -1.108256
 31 8.015633 -4.458889 -11.817970 -0.088245 -0.076199 -0.105809
 32 2.087143 -1.667400 -5.327335 0.000000 -0.000000 0.000000
 33 0.319299 -0.756849 2.981499 0.000000 -0.000000 0.000000
 34 -2.465699 3.693841 194.748917 0.000000 -0.000000 0.000000
time 9
  0 -2.629148 1.415440 -0.352036 0.000000 -0.000000 0.000000
  1 -2.629148 1.415440 -0.352036 0.000000 -0.000000 0.000000
  2 -2.629148 1.415440 -0.352036 0.000000 -0.000000 0.000000
  3 0.000000 23.743956 99.300598 -0.054600 -0.000000 -0.000000
  4 0.000000 0.440304 -2.731789 -0.243757 -0.000000 0.000000
  5 -8.065218 -1.301250 -17.282547 -0.202608 0.036804 -0.154698
  6 -0.883780 2.065765 -34.200710 0.569040 0.019249 0.008350
  7 -1.767050 1.039490 -33.503738 0.090133 0.013832 -0.001106
  8 0.410547 -3.053425 -6.308686 0.000000 -0.000000 0.000000
  9 8.638525 -0.139326 -16.633003 0.243683 -0.022647 -0.002804
 10 1.058080 0.932505 -35.061913 0.438609 0.004518 0.002303
 11 1.221046 1.156219 -33.292107 0.006926 0.000987 0.002970
 12 0.085376 -3.198830 -6.249953 0.000000 -0.000000 0.000000
 13 0.213274 2.786514 7.572433 -0.017453 0.000000 0.000000
 14 -2.904730 0.818861 2.596077 -0.041807 0.051616 -0.774286
 15 3.765308 -0.266410 -105.303307 0.017445 -0.006626 0.385211
 16 1.233751 0.818863 2.596077 -0.015660 -0.025428 0.500607
 17 -2.736671 -0.542186 -105.309494 0.017471 0.007558 -0.441260
 18 -0.000000 -0.179234 2.752579 -0.220517 0.022170 0.715795
 19 0.749369 -1.299137 28.624329 0.431397 0.115664 -0.694348
 20 -0.383533 17.841377 -5.153099 0.288585 -0.041448 -0.030349
 21 0.341384 5.572273 -21.207748 0.282676 0.000000 -0.000001
 22 -1.270981 0.784904 10.690895 0.000000 -0.000000 0.000000
 23 -8.160084 -0.723730 19.345650 -1.143425 0.270128 0.910281
 24 -15.198616 0.466476 -18.278643 -0.093301 0.010813 0.373939
 25 -8.028435 -4.482506 -11.667103 0.046884 0.279428 -0.033097
 26 -1.668762 -2.144653 -6.538006 0.052020 0.091792 0.093927
 27 35.457291 5.719498 -83.014786 0.000000 -0.000000 0.000000
 28 -3.175087 -2.066467 -5.742229 0.000000 -0.000000 0.000000
 29 9.450653 -0.516977 19.516212 0.184047 -0.253896 0.183938
 30 14.230843 0.232844 -18.395622 -1.073499 -0.618246 -1.108256
 31 8.015640 -4.458889 -11.817978 -0.088245 -0.076199 -0.105809
 32 2.087143 -1.667400 -5.327335 0.000000 -0.000000 0.000000
 33 0.319300 -0.756849 2.981506 0.000000 -0.000000 0.000000
 34 -2.465699 3.693841 194.748917 0.000000 -0.000000 0.000000
time 10
  0 -2.629148 1.415440 -0.352036 0.000000 -0.000000 0.000000
  1 -2.629148 1.415440 -0.352036 0.000000 -0.000000 0.000000
  2 -2.629148 1.415440 -0.352036 0.000000 -0.000000 0.000000
  3 0.000000 26.033785 99.437561 -0.062990 -0.000000 -0.000000
  4 0.000000 0.440306 -2.731789 -0.263332 0.000000 0.000000
  5 -8.065217 -1.301252 -17.282539 -0.222006 0.026909 -0.155804
  6 -0.883781 2.065767 -34.200718 0.581478 0.021053 0.009132
  7 -1.767048 1.039487 -33.503738 0.125985 0.019736 -0.000864
  8 0.410545 -3.053424 -6.308686 0.000000 -0.000000 0.000000
  9 8.638525 -0.139324 -16.632996 0.272924 -0.010157 -0.001258
 10 1.058082 0.932501 -35.061920 0.446978 0.002027 0.001033
 11 1.221047 1.156227 -33.292110 0.031981 0.000443 0.001333
 12 0.085376 -3.198826 -6.249955 0.000000 -0.000000 0.000000
 13 0.213274 2.786514 7.572441 -0.017453 0.000000 0.000000
 14 -2.904730 0.818863 2.596069 -0.047510 0.058340 -0.843125
 15 3.765300 -0.266405 -105.303322 0.017445 -0.006626 0.385211
 16 1.233751 0.818859 2.596077 -0.017649 -0.028796 0.551508
 17 -2.736669 -0.542183 -105.309494 0.017471 0.007558 -0.441260
 18 0.000000 -0.179234 2.752579 -0.218896 0.024248 0.782883
 19 0.749372 -1.299139 28.624321 0.448929 0.126505 -0.759427
 20 -0.383533 17.841393 -5.153099 0.372274 -0.048937 -0.035833
 21 0.341385 5.572281 -21.207745 0.354816 0.000000 -0.000001
 22 -1.270980 0.784908 10.690903 0.000000 -0.000000 0.000000
 23 -8.160081 -0.723730 19.345642 -1.241782 0.240236 0.794780
 24 -15.198620 0.466469 -18.278643 0.004721 -0.024272 0.362111
 25 -8.028435 -4.482513 -11.667097 0.076736 0.282714 -0.032307
 26 -1.668777 -2.144653 -6.538004 0.052020 0.091792 0.093927
 27 35.457260 5.719505 -83.014748 0.000000 -0.000000 0.000000
 28 -3.175087 -2.066460 -5.742229 0.000000 -0.000000 0.000000
 29 9.450657 -0.516975 19.516205 0.184047 -0.253896 0.183938
 30 14.230850 0.232843 -18.395615 -1.073499 -0.618245 -1.108255
 31 8.015640 -4.458897 -11.817970 -0.088245 -0.076199 -0.105809
 32 2.087143 -1.667408 -5.327332 0.000000 -0.000000 0.000000
 33 0.319301 -0.756849 2.981499 0.000000 -0.000000 0.000000
 34 -2.465699 3.693841 194.748917 0.000000 -0.000000 0.000000
time 11
  0 -2.629148 1.415440 -0.352036 0.000000 -0.000000 0.000000
  1 -2.629148 1.415440 -0.352036 0.000000 -0.000000 0.000000
  2 -2.629148 1.415440 -0.352036 0.000000 -0.000000 0.000000
  3 0.000000 27.481661 99.524155 -0.068294 -0.000000 -0.000000
  4 0.000000 0.440306 -2.731789 -0.275709 -0.000000 0.000000
  5 -8.065216 -1.301252 -17.282547 -0.243277 0.017775 -0.156503
  6 -0.883781 2.065769 -34.200718 0.589343 0.022194 0.009627
  7 -1.767047 1.039485 -33.503738 0.148655 0.023470 -0.000710
  8 0.410545 -3.053425 -6.308685 0.000000 -0.000000 0.000000
  9 8.638525 -0.139324 -16.633003 0.291414 -0.002260 -0.000280
 10 1.058082 0.932503 -35.061916 0.452270 0.000452 0.000230
 11 1.221046 1.156219 -33.292107 0.047823 0.000099 0.000297
 12 0.085376 -3.198826 -6.249954 0.000000 -0.000000 0.000000
 13 0.213274 2.786520 7.572441 -0.017453 0.000000 0.000000
 14 -2.904730 0.818859 2.596085 -0.052668 0.064420 -0.905366
 15 3.765304 -0.266406 -105.303299 0.017445 -0.006626 0.385211
 16 1.233751 0.818859 2.596077 -0.019448 -0.031841 0.597531
 17 -2.736670 -0.542178 -105.309494 0.017471 0.007558 -0.441260
 18 0.000000 -0.179234 2.752579 -0.217063 0.025562 0.825304
 19 0.749374 -1.299133 28.624321 0.460014 0.133360 -0.800576
 20 -0.383531 17.841377 -5.153091 0.456922 -0.056513 -0.041380
 21 0.341387 5.572273 -21.207748 0.423500 0.000000 -0.000001
 22 -1.270981 0.784901 10.690903 0.000000 -0.000000 0.000000
 23 -8.160083 -0.723732 19.345642 -1.320444 0.221335 0.662707
 24 -15.198606 0.466469 -18.278641 0.103601 -0.059202 0.351417
 25 -8.028442 -4.482513 -11.667109 0.095612 0.284791 -0.031807
 26 -1.668770 -2.144661 -6.538006 0.052020 0.091792 0.093927
 27 35.457302 5.719482 -83.014793 0.000000 -0.000000 0.000000
 28 -3.175095 -2.066475 -5.742231 0.000000 -0.000000 0.000000
 29 9.450656 -0.516975 19.516205 0.184047 -0.253896 0.183938
 30 14.230843 0.232844 -18.395615 -1.073499 -0.618246 -1.108256
 31 8.015633 -4.458893 -11.817963 -0.088245 -0.076199 -0.105809
 32 2.087143 -1.667408 -5.327339 0.000000 -0.000000 0.000000
 33 0.319300 -0.756851 2.981499 0.000000 -0.000000 0.000000
 34 -2.465699 3.693841 194.748917 0.000000 -0.000000 0.000000
time 12
  0 -2.629148 1.415440 -0.352036 0.000000 -0.000000 0.000000
  1 -2.629148 1.415440 -0.352036 0.000000 -0.000000 0.000000
  2 -2.629148 1.415440 -0.352036 0.000000 -0.000000 0.000000
  3 0.000000 27.747692 99.548950 -0.069024 -0.000000 -0.000000
  4 -0.000000 0.440304 -2.731796 -0.279219 0.000000 0.000000
  5 -8.065216 -1.301252 -17.282547 -0.266706 0.009704 -0.156700
  6 -0.883780 2.065769 -34.200714 0.591573 0.022517 0.009767
  7 -1.767049 1.039484 -33.503731 0.155084 0.024529 -0.000667
  8 0.410546 -3.053424 -6.308686 0.000000 -0.000000 0.000000
  9 8.638525 -0.139322 -16.633003 0.296446 0.000000 -0.000000
 10 1.058080 0.932501 -35.061909 0.453771 0.000005 0.000002
 11 1.221046 1.156227 -33.292099 0.051571 0.000000 0.000000
 12 0.085375 -3.198830 -6.249950 0.000000 -0.000000 0.000000
 13 0.213274 2.786518 7.572426 -0.017453 0.000000 0.000000
 14 -2.904731 0.818859 2.596077 -0.057060 0.069598 -0.958369
 15 3.765298 -0.266405 -105.303299 0.017445 -0.006626 0.385211
 16 1.233751 0.818863 2.596077 -0.020979 -0.034435 0.636723
 17 -2.736667 -0.542178 -105.309486 0.017471 0.007558 -0.441260
 18 0.000000 -0.179234 2.752571 -0.214468 0.025819 0.834908
 19 0.749369 -1.299139 28.624336 0.462281 0.135114 -0.809579
 20 -0.383534 17.841385 -5.153107 0.541032 -0.064041 -0.046892
 21 0.341384 5.572266 -21.207752 0.486621 0.000001 -0.000001
 22 -1.270980 0.784904 10.690903 0.000000 -0.000000 0.000000
 23 -8.160083 -0.723732 19.345657 -1.375146 0.215936 0.510568
 24 -15.198618 0.466469 -18.278645 0.201535 -0.093244 0.342311
 25 -8.028435 -4.482506 -11.667105 0.100965 0.285380 -0.031665
 26 -1.668770 -2.144653 -6.538008 0.052020 0.091792 0.093927
 27 35.457291 5.719505 -83.014793 0.000000 -0.000000 0.000000
 28 -3.175095 -2.066467 -5.742231 0.000000 -0.000000 0.000000
 29 9.450652 -0.516975 19.516212 0.184047 -0.253896 0.183938
 30 14.230846 0.232844 -18.395622 -1.073499 -0.618246 -1.108255
 31 8.015640 -4.458897 -11.817978 -0.088245 -0.076199 -0.105809
 32 2.087151 -1.667406 -5.327335 0.000000 -0.000000 0.000000
 33 0.319300 -0.756851 2.981506 0.000000 -0.000000 0.000000
 34 -2.465699 3.693841 194.748917 0.000000 -0.000000 0.000000
time 13
  0 -2.629148 1.415440 -0.352036 0.000000 -0.000000 0.000000
  1 -2.629148 1.415440 -0.352036 0.000000 -0.000000 0.000000
  2 -2.629148 1.415440 -0.352036 0.000000 -0.000000 0.000000
  3 0.000000 20.900772 99.548950 -0.031677 -0.000000 -0.000000
  4 0.000000 0.440304 -2.731796 -0.277486 -0.000000 0.000000
  5 -8.065217 -1.301252 -17.282539 -0.306488 0.001058 -0.156512
  6 -0.883782 2.065769 -34.200714 0.590472 0.022358 0.009698
  7 -1.767049 1.039490 -33.503738 0.151909 0.024006 -0.000688
  8 0.410546 -3.053424 -6.308685 0.000000 -0.000000 0.000000
  9 8.638525 -0.139326 -16.633003 0.283761 0.000000 0.000000
 10 1.058081 0.932503 -35.061920 0.453030 0.000225 0.000115
 11 1.221046 1.156219 -33.292107 0.014259 0.000000 0.000000
 12 0.085376 -3.198826 -6.249955 0.000000 -0.000000 0.000000
 13 0.213274 2.786512 7.572441 -0.017453 0.000000 0.000000
 14 -2.904730 0.818863 2.596069 -0.060467 0.073615 -0.999496
 15 3.765306 -0.266418 -105.303284 0.017445 -0.006626 0.385211
 16 1.233751 0.818863 2.596069 -0.022168 -0.036447 0.667134
 17 -2.736659 -0.542172 -105.309494 0.017471 0.007558 -0.441260
 18 0.000000 -0.179235 2.752579 -0.186455 0.020202 0.714623
 19 0.749371 -1.299135 28.624329 0.419359 0.125198 -0.678095
 20 -0.383535 17.841389 -5.153099 0.623107 -0.071386 -0.052271
 21 0.341383 5.572281 -21.207752 0.542074 0.000001 -0.000001
 22 -1.270980 0.784901 10.690903 0.000000 -0.000000 0.000000
 23 -8.160082 -0.723730 19.345657 -1.411724 0.216740 0.221053
 24 -15.198612 0.466476 -18.278641 0.296718 -0.125666 0.335244
 25 -8.028435 -4.482513 -11.667107 0.098322 0.285089 -0.031735
 26 -1.668762 -2.144653 -6.538004 0.052020 0.091792 0.093927
 27 35.457283 5.719490 -83.014793 0.000000 -0.000000 0.000000
 28 -3.175079 -2.066460 -5.742231 0.000000 -0.000000 0.000000
 29 9.450655 -0.516973 19.516205 0.184047 -0.253896 0.183937
 30 14.230843 0.232845 -18.395630 -1.073499 -0.618246 -1.108255
 31 8.015640 -4.458897 -11.817963 -0.088245 -0.076199 -0.105809
 32 2.087151 -1.667408 -5.327339 0.000000 -0.000000 0.000000
 33 0.319299 -0.756849 2.981506 0.000000 -0.000000 0.000000
 34 -2.465699 3.693841 194.748917 0.000000 -0.000000 0.000000
time 14
  0 -2.629148 1.415440 -0.352036 0.000000 -0.000000 0.000000
  1 -2.629148 1.415440 -0.352036 0.000000 -0.000000 0.000000
  2 -2.629148 1.415440 -0.352036 0.000000 -0.000000 0.000000
  3 0.000000 7.519857 99.548950 0.045167 -0.000000 -0.000000
  4 0.000000 0.440306 -2.731796 -0.273291 0.000000 0.000000
  5 -8.065217 -1.301251 -17.282539 -0.362818 -0.008412 -0.156091
  6 -0.883782 2.065762 -34.200718 0.587806 0.021971 0.009530
  7 -1.767048 1.039489 -33.503738 0.144226 0.022740 -0.000740
  8 0.410545 -3.053425 -6.308687 0.000000 -0.000000 0.000000
  9 8.638525 -0.139323 -16.633003 0.256448 0.000000 -0.000000
 10 1.058082 0.932504 -35.061920 0.451237 0.000759 0.000387
 11 1.221047 1.156229 -33.292107 -0.062511 0.000000 0.000000
 12 0.085376 -3.198828 -6.249952 0.000000 -0.000000 0.000000
 13 0.213274 2.786517 7.572433 -0.017453 0.000000 0.000000
 14 -2.904730 0.818864 2.596077 -0.062672 0.076215 -1.026108
 15 3.765306 -0.266409 -105.303329 0.017445 -0.006626 0.385211
 16 1.233751 0.818864 2.596077 -0.022937 -0.037749 0.686811
 17 -2.736668 -0.542178 -105.309517 0.017471 0.007558 -0.441260
 18 0.000000 -0.179235 2.752579 -0.131179 0.008643 0.467130
 19 0.749370 -1.299136 28.624321 0.331045 0.104576 -0.407559
 20 -0.383536 17.841381 -5.153091 0.701652 -0.078416 -0.057418
 21 0.341382 5.572273 -21.207760 0.587751 0.000001 -0.000001
 22 -1.270981 0.784908 10.690903 0.000000 -0.000000 0.000000
 23 -8.160083 -0.723730 19.345650 -1.436571 0.219247 -0.201817
 24 -15.198616 0.466476 -18.278641 0.387347 -0.155732 0.330672
 25 -8.028435 -4.482506 -11.667099 0.091925 0.284385 -0.031905
 26 -1.668777 -2.144661 -6.538008 0.052020 0.091792 0.093927
 27 35.457291 5.719521 -83.014778 0.000000 -0.000000 0.000000
 28 -3.175095 -2.066475 -5.742228 0.000000 -0.000000 0.000000
 29 9.450653 -0.516975 19.516212 0.184047 -0.253896 0.183937
 30 14.230839 0.232845 -18.395622 -1.073499 -0.618246 -1.108256
 31 8.015629 -4.458893 -11.817970 -0.088245 -0.076199 -0.105809
 32 2.087143 -1.667408 -5.327335 0.000000 -0.000000 0.000000
 33 0.319299 -0.756850 2.981506 0.000000 -0.000000 0.000000
 34 -2.465699 3.693841 194.748917 0.000000 -0.000000 0.000000
time 15
  0 -2.629148 1.415440 -0.352036 0.000000 -0.000000 0.000000
  1 -2.629148 1.415440 -0.352036 0.000000 -0.000000 0.000000
  2 -2.629148 1.415440 -0.352036 0.000000 -0.000000 0.000000
  3 0.000000 -7.295352 99.548950 0.138735 -0.000000 -0.000000
  4 -0.000000 0.440305 -2.731789 -0.266871 -0.000000 0.000000
  5 -8.065217 -1.301252 -17.282547 -0.425362 -0.017671 -0.155506
  6 -0.883781 2.065762 -34.200706 0.583727 0.021379 0.009274
  7 -1.767049 1.039490 -33.503738 0.132469 0.020804 -0.000820
  8 0.410546 -3.053425 -6.308685 0.000000 -0.000000 0.000000
  9 8.638526 -0.139324 -16.633003 0.220657 0.000000 0.000000
 10 1.058082 0.932503 -35.061913 0.448492 0.001576 0.000803
 11 1.221047 1.156225 -33.292095 -0.155990 0.000000 0.000000
 12 0.085376 -3.198828 -6.249952 0.000000 -0.000000 0.000000
 13 0.213274 2.786516 7.572426 -0.017453 0.000000 0.000000
 14 -2.904730 0.818864 2.596077 -0.063456 0.077139 -1.035565
 15 3.765304 -0.266409 -105.303299 0.017445 -0.006626 0.385211
 16 1.233751 0.818864 2.596069 -0.023210 -0.038212 0.693804
 17 -2.736666 -0.542176 -105.309494 0.017471 0.007558 -0.441260
 18 0.000000 -0.179234 2.752571 -0.064571 -0.005431 0.165775
 19 0.749370 -1.299137 28.624329 0.223512 0.079006 -0.078145
 20 -0.383533 17.841381 -5.153084 0.775169 -0.084995 -0.062236
 21 0.341386 5.572281 -21.207748 0.621547 0.000001 -0.000001
 22 -1.270981 0.784904 10.690903 0.000000 -0.000000 0.000000
 23 -8.160084 -0.723732 19.345650 -1.451922 0.224082 -0.665629
 24 -15.198616 0.466476 -18.278643 0.471620 -0.182711 0.329047
 25 -8.028435 -4.482513 -11.667099 0.082134 0.283308 -0.032164
 26 -1.668770 -2.144661 -6.538010 0.052020 0.091792 0.093927
 27 35.457298 5.719521 -83.014801 0.000000 -0.000000 0.000000
 28 -3.175087 -2.066467 -5.742233 0.000000 -0.000000 0.000000
 29 9.450655 -0.516975 19.516212 0.184047 -0.253896 0.183937
 30 14.230839 0.232843 -18.395630 -1.073499 -0.618246 -1.108255
 31 8.015633 -4.458897 -11.817978 -0.088245 -0.076199 -0.105809
 32 2.087151 -1.667408 -5.327335 0.000000 -0.000000 0.000000
 33 0.319298 -0.756850 2.981506 0.000000 -0.000000 0.000000
 34 -2.465699 3.693841 194.748917 0.000000 -0.000000 0.000000
time 16
  0 -2.629148 1.415440 -0.352036 0.000000 -0.000000 0.000000
  1 -2.629148 1.415440 -0.352036 0.000000 -0.000000 0.000000
  2 -2.629148 1.415440 -0.352036 0.000000 -0.000000 0.000000
  3 0.000000 -18.445147 99.548950 0.226254 -0.000000 -0.000000
  4 0.000000 0.440305 -2.731796 -0.258463 0.000000 0.000000
  5 -8.065217 -1.301252 -17.282539 -0.483785 -0.025684 -0.154829
  6 -0.883781 2.065765 -34.200718 0.578384 0.020604 0.008937
  7 -1.767049 1.039488 -33.503738 0.117068 0.018268 -0.000924
  8 0.410546 -3.053425 -6.308689 0.000000 -0.000000 0.000000
  9 8.638525 -0.139324 -16.633003 0.182535 0.000000 0.000000
 10 1.058081 0.932502 -35.061924 0.444897 0.002647 0.001349
 11 1.221047 1.156219 -33.292107 -0.243425 0.000000 0.000000
 12 0.085376 -3.198827 -6.249955 0.000000 -0.000000 0.000000
 13 0.213274 2.786516 7.572441 -0.017453 0.000000 0.000000
 14 -2.904730 0.818865 2.596077 -0.063010 0.076613 -1.030183
 15 3.765304 -0.266403 -105.303314 0.017445 -0.006626 0.385211
 16 1.233751 0.818863 2.596077 -0.023055 -0.037949 0.689825
 17 -2.736666 -0.542175 -105.309509 0.017471 0.007558 -0.441260
 18 0.000000 -0.179234 2.752579 -0.002563 -0.018595 -0.116098
 19 0.749370 -1.299137 28.624329 0.122930 0.054245 0.229972
 20 -0.383533 17.841379 -5.153099 0.842161 -0.090991 -0.066626
 21 0.341384 5.572273 -21.207760 0.641355 0.000001 -0.000001
 22 -1.270981 0.784904 10.690903 0.000000 -0.000000 0.000000
 23 -8.160084 -0.723732 19.345657 -1.460015 0.231870 -1.077975
 24 -15.198616 0.466469 -18.278643 0.602413 -0.208205 0.341444
 25 -8.028435 -4.482506 -11.667099 0.069311 0.281896 -0.032503
 26 -1.668770 -2.144653 -6.538002 0.052020 0.091792 0.093927
 27 35.457306 5.719521 -83.014809 0.000000 -0.000000 0.000000
 28 -3.175095 -2.066467 -5.742226 0.000000 -0.000000 0.000000
 29 9.450657 -0.516977 19.516212 0.184047 -0.253896 0.183937
 30 14.230839 0.232845 -18.395622 -1.073499 -0.618245 -1.108255
 31 8.015640 -4.458893 -11.817963 -0.088245 -0.076199 -0.105809
 32 2.087158 -1.667408 -5.327335 0.000000 -0.000000 0.000000
 33 0.319299 -0.756849 2.981506 0.000000 -0.000000 0.000000
 34 -2.465699 3.693841 194.748917 0.000000 -0.000000 0.000000
time 17
  0 -2.629148 1.415440 -0.352036 0.000000 -0.000000 0.000000
  1 -2.629148 1.415440 -0.352036 0.000000 -0.000000 0.000000
  2 -2.629148 1.415440 -0.352036 0.000000 -0.000000 0.000000
  3 0.000000 -21.325857 99.547752 0.284951 -0.000000 -0.000000
  4 -0.000000 0.440306 -2.731789 -0.248302 -0.000000 0.000000
  5 -8.065216 -1.301254 -17.282547 -0.527753 -0.031416 -0.154128
  6 -0.883781 2.065765 -34.200710 0.571928 0.019668 0.008531
  7 -1.767049 1.039488 -33.503738 0.098457 0.015203 -0.001050
  8 0.410546 -3.053425 -6.308685 0.000000 -0.000000 0.000000
  9 8.638525 -0.139326 -16.633003 0.148233 0.000000 0.000000
 10 1.058081 0.932503 -35.061913 0.440552 0.003940 0.002008
 11 1.221047 1.156223 -33.292107 -0.302066 0.000000 0.000000
 12 0.085374 -3.198826 -6.249954 0.000000 -0.000000 0.000000
 13 0.213274 2.786514 7.572433 -0.017453 0.000000 0.000000
 14 -2.904730 0.818864 2.596069 -0.061734 0.075108 -1.014781
 15 3.765301 -0.266407 -105.303314 0.017445 -0.006626 0.385211
 16 1.233751 0.818864 2.596069 -0.022609 -0.037195 0.678436
 17 -2.736663 -0.542175 -105.309502 0.017471 0.007558 -0.441260
 18 0.000000 -0.179232 2.752571 0.038915 -0.027424 -0.305144
 19 0.749371 -1.299143 28.624313 0.055472 0.036053 0.436620
 20 -0.383533 17.841383 -5.153107 0.901133 -0.096269 -0.070490
 21 0.341385 5.572273 -21.207756 0.645196 0.000001 -0.000001
 22 -1.270980 0.784908 10.690903 0.000000 -0.000000 0.000000
 23 -8.160084 -0.723732 19.345642 -1.463085 0.243237 -1.346445
 24 -15.198616 0.466469 -18.278645 0.744436 -0.227359 0.366710
 25 -8.028435 -4.482506 -11.667114 0.053815 0.280191 -0.032914
 26 -1.668762 -2.144653 -6.538006 0.052020 0.091792 0.093927
 27 35.457275 5.719513 -83.014801 0.000000 -0.000000 0.000000
 28 -3.175087 -2.066467 -5.742233 0.000000 -0.000000 0.000000
 29 9.450657 -0.516975 19.516205 0.184047 -0.253896 0.183937
 30 14.230846 0.232843 -18.395638 -1.073499 -0.618246 -1.108256
 31 8.015636 -4.458897 -11.817978 -0.088245 -0.076199 -0.105809
 32 2.087143 -1.667404 -5.327332 0.000000 -0.000000 0.000000
 33 0.319299 -0.756849 2.981499 0.000000 -0.000000 0.000000
 34 -2.465699 3.693841 194.748917 0.000000 -0.000000 0.000000
time 18
  0 -2.629148 1.415440 -0.352036 0.000000 -0.000000 0.000000
  1 -2.629148 1.415440 -0.352036 0.000000 -0.000000 0.000000
  2 -2.629148 1.415440 -0.352036 0.000000 -0.000000 0.000000
  3 0.000000 -21.050249 99.524933 0.296520 0.000000 0.000000
  4 0.000000 0.440304 -2.731781 -0.236624 0.000000 0.000000
  5 -8.065217 -1.301254 -17.282539 -0.546932 -0.033832 -0.153474
  6 -0.883781 2.065773 -34.200714 0.564507 0.018592 0.008064
  7 -1.767047 1.039488 -33.503738 0.077069 0.011681 -0.001195
  8 0.410545 -3.053425 -6.308685 0.000000 -0.000000 0.000000
  9 8.638525 -0.139325 -16.633003 0.123899 0.000000 0.000000
 10 1.058080 0.932503 -35.061916 0.435559 0.005426 0.002766
 11 1.221046 1.156221 -33.292099 -0.313911 0.000009 0.000028
 12 0.085375 -3.198826 -6.249953 0.000000 -0.000000 0.000000
 13 0.213274 2.786516 7.572433 -0.017453 0.000000 0.000000
 14 -2.904730 0.818864 2.596077 -0.059720 0.072734 -0.990472
 15 3.765304 -0.266403 -105.303314 0.017445 -0.006626 0.385211
 16 1.233752 0.818864 2.596077 -0.021907 -0.036005 0.660461
 17 -2.736663 -0.542175 -105.309502 0.017471 0.007558 -0.441260
 18 0.000000 -0.179235 2.752579 0.046955 -0.029178 -0.343096
 19 0.749370 -1.299133 28.624321 0.042040 0.029041 0.477963
 20 -0.383534 17.841379 -5.153107 0.950587 -0.100695 -0.073731
 21 0.341385 5.572281 -21.207752 0.634250 0.000001 -0.000001
 22 -1.270981 0.784904 10.690903 0.000000 -0.000000 0.000000
 23 -8.160082 -0.723730 19.345650 -1.461573 0.258684 -1.396337
 24 -15.198612 0.466484 -18.278645 0.774175 -0.230212 0.388730
 25 -8.028442 -4.482513 -11.667107 0.036007 0.278231 -0.033385
 26 -1.668770 -2.144661 -6.538008 0.052020 0.091792 0.093927
 27 35.457283 5.719482 -83.014801 0.000000 -0.000000 0.000000
 28 -3.175087 -2.066475 -5.742235 0.000000 -0.000000 0.000000
 29 9.450657 -0.516977 19.516197 0.184047 -0.253896 0.183937
 30 14.230846 0.232845 -18.395622 -1.073499 -0.618246 -1.108256
 31 8.015636 -4.458900 -11.817963 -0.088245 -0.076199 -0.105809
 32 2.087143 -1.667404 -5.327339 0.000000 -0.000000 0.000000
 33 0.319299 -0.756849 2.981499 0.000000 -0.000000 0.000000
 34 -2.465699 3.693841 194.748917 0.000000 -0.000000 0.000000
time 19
  0 -2.629148 1.415440 -0.352036 0.000000 -0.000000 0.000000
  1 -2.629148 1.415440 -0.352036 0.000000 -0.000000 0.000000
  2 -2.629148 1.415440 -0.352036 0.000000 -0.000000 0.000000
  3 0.000000 -20.455824 99.475723 0.292219 0.000000 0.000000
  4 0.000000 0.440306 -2.731789 -0.223666 -0.000000 0.000000
  5 -8.065217 -1.301253 -17.282539 -0.543519 -0.032710 -0.152846
  6 -0.883782 2.065765 -34.200714 0.556274 0.017397 0.007546
  7 -1.767047 1.039490 -33.503735 0.053336 0.007772 -0.001355
  8 0.410545 -3.053425 -6.308684 0.000000 -0.000000 0.000000
  9 8.638525 -0.139324 -16.633003 0.107969 -0.001296 -0.000160
 10 1.058082 0.932505 -35.061916 0.430019 0.007076 0.003606
 11 1.221047 1.156227 -33.292114 -0.313032 0.000121 0.000364
 12 0.085375 -3.198827 -6.249952 0.000000 -0.000000 0.000000
 13 0.213274 2.786516 7.572433 -0.017453 0.000000 0.000000
 14 -2.904730 0.818863 2.596077 -0.057060 0.069598 -0.958369
 15 3.765302 -0.266405 -105.303307 0.017445 -0.006626 0.385211
 16 1.233751 0.818863 2.596077 -0.020979 -0.034435 0.636723
 17 -2.736662 -0.542175 -105.309486 0.017471 0.007558 -0.441260
 18 -0.000000 -0.179235 2.752579 0.042452 -0.028698 -0.337454
 19 0.749369 -1.299133 28.624329 0.045366 0.025181 0.470104
 20 -0.383533 17.841383 -5.153084 0.989028 -0.104135 -0.076250
 21 0.341385 5.572273 -21.207752 0.610640 0.000001 -0.000001
 22 -1.270980 0.784908 10.690918 0.000000 -0.000000 0.000000
 23 -8.160084 -0.723730 19.345642 -1.439238 0.277215 -1.351299
 24 -15.198616 0.466469 -18.278643 0.717633 -0.216152 0.412307
 25 -8.028435 -4.482506 -11.667107 0.016246 0.276056 -0.033908
 26 -1.668770 -2.144657 -6.538006 0.052020 0.091792 0.093927
 27 35.457275 5.719524 -83.014786 0.000000 -0.000000 0.000000
 28 -3.175095 -2.066467 -5.742233 0.000000 -0.000000 0.000000
 29 9.450656 -0.516977 19.516205 0.184047 -0.253896 0.183937
 30 14.230843 0.232845 -18.395630 -1.073499 -0.618246 -1.108256
 31 8.015633 -4.458893 -11.817970 -0.088245 -0.076199 -0.105809
 32 2.087151 -1.667404 -5.327332 0.000000 -0.000000 0.000000
 33 0.319298 -0.756853 2.981499 0.000000 -0.000000 0.000000
 34 -2.465699 3.693841 194.748917 0.000000 -0.000000 0.000000
time 20
  0 -2.629148 1.415440 -0.352036 0.000000 -0.000000 0.000000
  1 -2.629148 1.415440 -0.352036 0.000000 -0.000000 0.000000
  2 -2.629148 1.415440 -0.352036 0.000000 -0.000000 0.000000
  3 0.000000 -19.583149 99.403496 0.283535 0.000000 0.000000
  4 0.000000 0.440306 -2.731789 -0.209664 -0.000000 0.000000
  5 -8.065216 -1.301254 -17.282555 -0.531939 -0.029010 -0.152152
  6 -0.883781 2.065769 -34.200718 0.547376 0.016107 0.006987
  7 -1.767049 1.039490 -33.503742 0.027691 0.003549 -0.001529
  8 0.410545 -3.053423 -6.308686 0.000000 -0.000000 0.000000
  9 8.638525 -0.139323 -16.633003 0.091969 -0.005499 -0.000681
 10 1.058081 0.932504 -35.061916 0.424032 0.008858 0.004515
 11 1.221047 1.156221 -33.292107 -0.311255 0.000346 0.001042
 12 0.085375 -3.198827 -6.249953 0.000000 -0.000000 0.000000
 13 0.213274 2.786515 7.572433 -0.017453 0.000000 0.000000
 14 -2.904730 0.818863 2.596077 -0.053846 0.065809 -0.919586
 15 3.765304 -0.266402 -105.303322 0.017445 -0.006626 0.385211
 16 1.233751 0.818863 2.596077 -0.019858 -0.032537 0.608045
 17 -2.736666 -0.542176 -105.309525 0.017471 0.007558 -0.441260
 18 0.000000 -0.179234 2.752579 0.033362 -0.027730 -0.326066
 19 0.749368 -1.299133 28.624313 0.052081 0.021654 0.454239
 20 -0.383532 17.841381 -5.153114 1.014957 -0.106456 -0.077949
 21 0.341387 5.572281 -21.207754 0.575979 0.000001 -0.000001
 22 -1.270981 0.784904 10.690903 0.000000 -0.000000 0.000000
 23 -8.160083 -0.723732 19.345642 -1.394144 0.298108 -1.260373
 24 -15.198616 0.466469 -18.278641 0.618165 -0.190935 0.436918
 25 -8.028442 -4.482506 -11.667107 -0.005108 0.273706 -0.034474
 26 -1.668777 -2.144661 -6.538008 0.052020 0.091792 0.093927
 27 35.457260 5.719486 -83.014771 0.000000 -0.000000 0.000000
 28 -3.175095 -2.066475 -5.742231 0.000000 -0.000000 0.000000
 29 9.450655 -0.516973 19.516205 0.184047 -0.253896 0.183937
 30 14.230843 0.232845 -18.395630 -1.073499 -0.618246 -1.108255
 31 8.015640 -4.458897 -11.817963 -0.088245 -0.076199 -0.105809
 32 2.087151 -1.667404 -5.327332 0.000000 -0.000000 0.000000
 33 0.319298 -0.756847 2.981506 0.000000 -0.000000 0.000000
 34 -2.465699 3.693841 194.748917 0.000000 -0.000000 0.000000
time 21
  0 -2.629148 1.415440 -0.352036 0.000000 -0.000000 0.000000
  1 -2.629148 1.415440 -0.352036 0.000000 -0.000000 0.000000
  2 -2.629148 1.415440 -0.352036 0.000000 -0.000000 0.000000
  3 0.000000 -18.472790 99.311577 0.271068 0.000000 0.000000
  4 0.000000 0.440306 -2.731789 -0.194854 -0.000000 0.000000
  5 -8.065218 -1.301252 -17.282547 -0.513378 -0.023078 -0.151404
  6 -0.883781 2.065769 -34.200722 0.537966 0.014742 0.006395
  7 -1.767049 1.039488 -33.503742 0.000565 -0.000919 -0.001712
  8 0.410546 -3.053425 -6.308685 0.000000 -0.000000 0.000000
  9 8.638525 -0.139324 -16.633003 0.075968 -0.012237 -0.001515
 10 1.058080 0.932500 -35.061920 0.417700 0.010743 0.005476
 11 1.221046 1.156221 -33.292107 -0.308705 0.000669 0.002014
 12 0.085375 -3.198828 -6.249955 0.000000 -0.000000 0.000000
 13 0.213274 2.786514 7.572433 -0.017453 0.000000 0.000000
 14 -2.904730 0.818865 2.596077 -0.050171 0.061477 -0.875235
 15 3.765301 -0.266404 -105.303322 0.017445 -0.006626 0.385211
 16 1.233751 0.818865 2.596077 -0.018577 -0.030367 0.575251
 17 -2.736666 -0.542176 -105.309509 0.017471 0.007558 -0.441260
 18 0.000000 -0.179234 2.752579 0.020312 -0.026339 -0.309715
 19 0.749370 -1.299131 28.624329 0.061722 0.018447 0.431461
 20 -0.383534 17.841385 -5.153107 1.026879 -0.107523 -0.078731
 21 0.341384 5.572281 -21.207756 0.531878 0.000001 -0.000001
 22 -1.270981 0.784904 10.690903 0.000000 -0.000000 0.000000
 23 -8.160084 -0.723732 19.345657 -1.329405 0.320913 -1.129834
 24 -15.198612 0.466461 -18.278646 0.500151 -0.160078 0.457991
 25 -8.028435 -4.482513 -11.667107 -0.027694 0.271220 -0.035072
 26 -1.668770 -2.144657 -6.538002 0.052020 0.091792 0.093927
 27 35.457268 5.719490 -83.014801 0.000000 -0.000000 0.000000
 28 -3.175095 -2.066471 -5.742226 0.000000 -0.000000 0.000000
 29 9.450655 -0.516973 19.516205 0.184047 -0.253896 0.183937
 30 14.230843 0.232845 -18.395630 -1.073499 -0.618246 -1.108256
 31 8.015640 -4.458893 -11.817963 -0.088245 -0.076199 -0.105809
 32 2.087143 -1.667408 -5.327339 0.000000 -0.000000 0.000000
 33 0.319299 -0.756847 2.981506 0.000000 -0.000000 0.000000
 34 -2.465699 3.693841 194.748917 0.000000 -0.000000 0.000000
time 22
  0 -2.629148 1.415440 -0.352036 0.000000 -0.000000 0.000000
  1 -2.629148 1.415440 -0.352036 0.000000 -0.000000 0.000000
  2 -2.629148 1.415440 -0.352036 0.000000 -0.000000 0.000000
  3 0.000000 -17.165312 99.203346 0.255416 0.000000 0.000000
  4 0.000000 0.440307 -2.731789 -0.179472 -0.000000 0.000000
  5 -8.065218 -1.301253 -17.282539 -0.488900 -0.015256 -0.150615
  6 -0.883780 2.065762 -34.200714 0.528191 0.013324 0.005780
  7 -1.767048 1.039486 -33.503731 -0.027608 -0.005558 -0.001903
  8 0.410546 -3.053425 -6.308686 0.000000 -0.000000 0.000000
  9 8.638525 -0.139324 -16.633003 0.060109 -0.021122 -0.002615
 10 1.058082 0.932503 -35.061920 0.411123 0.012701 0.006474
 11 1.221048 1.156225 -33.292118 -0.305504 0.001075 0.003236
 12 0.085376 -3.198826 -6.249954 0.000000 -0.000000 0.000000
 13 0.213274 2.786515 7.572441 -0.017453 0.000000 0.000000
 14 -2.904730 0.818864 2.596069 -0.046127 0.056710 -0.826431
 15 3.765301 -0.266406 -105.303322 0.017445 -0.006626 0.385211
 16 1.233751 0.818863 2.596069 -0.017166 -0.027979 0.539164
 17 -2.736664 -0.542175 -105.309502 0.017471 0.007558 -0.441260
 18 0.000000 -0.179233 2.752571 0.003929 -0.024594 -0.289189
 19 0.749370 -1.299137 28.624329 0.073825 0.015547 0.402867
 20 -0.383533 17.841389 -5.153099 1.017951 -0.106724 -0.078146
 21 0.341385 5.572289 -21.207756 0.479948 0.000001 -0.000001
 22 -1.270981 0.784903 10.690887 0.000000 -0.000000 0.000000
 23 -8.160084 -0.723732 19.345650 -1.248134 0.345181 -0.965957
 24 -15.198608 0.466476 -18.278645 0.387968 -0.129100 0.470954
 25 -8.028435 -4.482513 -11.667107 -0.051152 0.268638 -0.035693
 26 -1.668770 -2.144661 -6.538006 0.052020 0.091792 0.093927
 27 35.457268 5.719490 -83.014771 0.000000 -0.000000 0.000000
 28 -3.175095 -2.066475 -5.742226 0.000000 -0.000000 0.000000
 29 9.450655 -0.516975 19.516212 0.184047 -0.253896 0.183937
 30 14.230846 0.232845 -18.395622 -1.073499 -0.618246 -1.108255
 31 8.015633 -4.458893 -11.817978 -0.088245 -0.076199 -0.105809
 32 2.087151 -1.667404 -5.327332 0.000000 -0.000000 0.000000
 33 0.319298 -0.756849 2.981506 0.000000 -0.000000 0.000000
 34 -2.465699 3.693841 194.748917 0.000000 -0.000000 0.000000
time 23
  0 -2.629148 1.415440 -0.352036 0.000000 -0.000000 0.000000
  1 -2.629148 1.415440 -0.352036 0.000000 -0.000000 0.000000
  2 -2.629148 1.415440 -0.352036 0.000000 -0.000000 0.000000
  3 0.000000 -15.701277 99.082161 0.237181 0.000000 0.000000
  4 0.000000 0.440305 -2.731789 -0.163754 0.000000 0.000000
  5 -8.065217 -1.301253 -17.282547 -0.459573 -0.005884 -0.149800
  6 -0.883782 2.065769 -34.200714 0.518204 0.011875 0.005151
  7 -1.767049 1.039488 -33.503731 -0.056396 -0.010299 -0.002098
  8 0.410546 -3.053425 -6.308685 0.000000 -0.000000 0.000000
  9 8.638526 -0.139325 -16.633003 0.044535 -0.031768 -0.003933
 10 1.058082 0.932503 -35.061909 0.404402 0.014701 0.007493
 11 1.221046 1.156221 -33.292099 -0.301774 0.001548 0.004659
 12 0.085376 -3.198828 -6.249954 0.000000 -0.000000 0.000000
 13 0.213274 2.786516 7.572433 -0.017453 0.000000 0.000000
 14 -2.904730 0.818864 2.596077 -0.041807 0.051616 -0.774287
 15 3.765299 -0.266405 -105.303299 0.017445 -0.006626 0.385211
 16 1.233752 0.818863 2.596069 -0.015659 -0.025428 0.500607
 17 -2.736665 -0.542175 -105.309494 0.017471 0.007558 -0.441260
 18 0.000000 -0.179235 2.752571 -0.015160 -0.022560 -0.265274
 19 0.749370 -1.299139 28.624329 0.087927 0.012942 0.369550
 20 -0.383533 17.841385 -5.153091 0.975629 -0.102936 -0.075372
 21 0.341386 5.572281 -21.207745 0.421799 0.000000 -0.000001
 22 -1.270981 0.784904 10.690887 0.000000 -0.000000 0.000000
 23 -8.160082 -0.723732 19.345657 -1.153441 0.370460 -0.775018
 24 -15.198612 0.466469 -18.278641 0.299615 -0.102042 0.472905
 25 -8.028435 -4.482510 -11.667103 -0.075123 0.265999 -0.036328
 26 -1.668777 -2.144653 -6.538006 0.052020 0.091792 0.093927
 27 35.457268 5.719490 -83.014771 0.000000 -0.000000 0.000000
 28 -3.175095 -2.066467 -5.742229 0.000000 -0.000000 0.000000
 29 9.450653 -0.516975 19.516205 0.184047 -0.253896 0.183937
 30 14.230839 0.232851 -18.395615 -1.073499 -0.618246 -1.108255
 31 8.015640 -4.458889 -11.817963 -0.088245 -0.076199 -0.105809
 32 2.087143 -1.667404 -5.327339 0.000000 -0.000000 0.000000
 33 0.319299 -0.756851 2.981506 0.000000 -0.000000 0.000000
 34 -2.465699 3.693841 194.748917 0.000000 -0.000000 0.000000
time 24
  0 -2.629148 1.415440 -0.352036 0.000000 -0.000000 0.000000
  1 -2.629148 1.415440 -0.352036 0.000000 -0.000000 0.000000
  2 -2.629148 1.415440 -0.352036 0.000000 -0.000000 0.000000
  3 0.000000 -14.121252 98.951370 0.216959 0.000000 0.000000
  4 0.000000 0.440306 -2.731796 -0.147936 0.000000 0.000000
  5 -8.065218 -1.301252 -17.282539 -0.426463 0.004697 -0.148972
  6 -0.883780 2.065769 -34.200714 0.508153 0.010417 0.004519
  7 -1.767048 1.039484 -33.503735 -0.085367 -0.015070 -0.002294
  8 0.410544 -3.053425 -6.308687 0.000000 -0.000000 0.000000
  9 8.638525 -0.139324 -16.633003 0.029387 -0.043787 -0.005421
 10 1.058083 0.932503 -35.061916 0.397639 0.016714 0.008519
 11 1.221047 1.156223 -33.292107 -0.297638 0.002073 0.006237
 12 0.085377 -3.198827 -6.249953 0.000000 -0.000000 0.000000
 13 0.213274 2.786515 7.572433 -0.017453 0.000000 0.000000
 14 -2.904730 0.818865 2.596077 -0.037301 0.046305 -0.719915
 15 3.765300 -0.266405 -105.303307 0.017445 -0.006626 0.385211
 16 1.233752 0.818864 2.596077 -0.014088 -0.022767 0.460403
 17 -2.736664 -0.542175 -105.309494 0.017471 0.007558 -0.441260
 18 0.000000 -0.179233 2.752579 -0.036326 -0.020304 -0.238754
 19 0.749371 -1.299139 28.624321 0.103564 0.010618 0.332606
 20 -0.383533 17.841385 -5.153091 0.904588 -0.096578 -0.070717
 21 0.341385 5.572289 -21.207756 0.359043 0.000000 -0.000001
 22 -1.270981 0.784904 10.690903 0.000000 -0.000000 0.000000
 23 -8.160084 -0.723734 19.345650 -1.048439 0.396303 -0.563292
 24 -15.198620 0.466469 -18.278645 0.208243 -0.072736 0.472344
 25 -8.028435 -4.482513 -11.667107 -0.099245 0.263344 -0.036966
 26 -1.668777 -2.144653 -6.538006 0.052020 0.091792 0.093927
 27 35.457291 5.719490 -83.014793 0.000000 -0.000000 0.000000
 28 -3.175087 -2.066467 -5.742229 0.000000 -0.000000 0.000000
 29 9.450656 -0.516977 19.516205 0.184047 -0.253896 0.183937
 30 14.230846 0.232847 -18.395622 -1.073499 -0.618245 -1.108255
 31 8.015640 -4.458897 -11.817970 -0.088245 -0.076199 -0.105809
 32 2.087151 -1.667404 -5.327339 0.000000 -0.000000 0.000000
 33 0.319299 -0.756852 2.981506 0.000000 -0.000000 0.000000
 34 -2.465699 3.693841 194.748917 0.000000 -0.000000 0.000000
time 25
  0 -2.629148 1.415440 -0.352036 0.000000 -0.000000 0.000000
  1 -2.629148 1.415440 -0.352036 0.000000 -0.000000 0.000000
  2 -2.629148 1.415440 -0.352036 0.000000 -0.000000 0.000000
  3 0.000000 -12.465803 98.814331 0.195352 0.000000 0.000000
  4 0.000000 0.440307 -2.731789 -0.132255 -0.000000 0.000000
  5 -8.065216 -1.301253 -17.282547 -0.390636 0.016146 -0.148144
  6 -0.883782 2.065762 -34.200710 0.498189 0.008972 0.003892
  7 -1.767048 1.039488 -33.503731 -0.114088 -0.019800 -0.002488
  8 0.410546 -3.053424 -6.308686 0.000000 -0.000000 0.000000
  9 8.638525 -0.139324 -16.633003 0.014808 -0.056792 -0.007031
 10 1.058082 0.932503 -35.061913 0.390935 0.018710 0.009537
 11 1.221046 1.156216 -33.292114 -0.293218 0.002633 0.007923
 12 0.085375 -3.198825 -6.249954 0.000000 -0.000000 0.000000
 13 0.213274 2.786515 7.572433 -0.017453 0.000000 0.000000
 14 -2.904730 0.818864 2.596085 -0.032704 0.040885 -0.664431
 15 3.765302 -0.266407 -105.303307 0.017445 -0.006626 0.385211
 16 1.233751 0.818863 2.596085 -0.012485 -0.020052 0.419376
 17 -2.736664 -0.542175 -105.309479 0.017471 0.007558 -0.441260
 18 0.000000 -0.179232 2.752571 -0.058944 -0.017895 -0.210418
 19 0.749370 -1.299137 28.624321 0.120273 0.008563 0.293131
 20 -0.383532 17.841383 -5.153099 0.810414 -0.088150 -0.064545
 21 0.341387 5.572281 -21.207756 0.293292 0.000000 -0.000001
 22 -1.270981 0.784904 10.690887 0.000000 -0.000000 0.000000
 23 -8.160084 -0.723731 19.345650 -0.936240 0.422258 -0.337055
 24 -15.198608 0.466469 -18.278645 0.109572 -0.040533 0.471299
 25 -8.028435 -4.482510 -11.667107 -0.123159 0.260712 -0.037600
 26 -1.668777 -2.144661 -6.538006 0.052020 0.091792 0.093927
 27 35.457298 5.719479 -83.014801 0.000000 -0.000000 0.000000
 28 -3.175095 -2.066467 -5.742229 0.000000 -0.000000 0.000000
 29 9.450656 -0.516974 19.516205 0.184047 -0.253896 0.183937
 30 14.230843 0.232843 -18.395622 -1.073499 -0.618246 -1.108256
 31 8.015640 -4.458897 -11.817970 -0.088245 -0.076199 -0.105809
 32 2.087151 -1.667408 -5.327335 0.000000 -0.000000 0.000000
 33 0.319299 -0.756851 2.981506 0.000000 -0.000000 0.000000
 34 -2.465699 3.693841 194.748917 0.000000 -0.000000 0.000000
time 26
  0 -2.629148 1.415440 -0.352036 0.000000 -0.000000 0.000000
  1 -2.629148 1.415440 -0.352036 0.000000 -0.000000 0.000000
  2 -2.629148 1.415440 -0.352036 0.000000 -0.000000 0.000000
  3 0.000000 -10.775492 98.674416 0.172958 0.000000 0.000000
  4 0.000000 0.440305 -2.731789 -0.116947 0.000000 0.000000
  5 -8.065217 -1.301252 -17.282547 -0.353160 0.028123 -0.147331
  6 -0.883780 2.065763 -34.200718 0.488462 0.007561 0.003280
  7 -1.767049 1.039492 -33.503735 -0.142126 -0.024418 -0.002678
  8 0.410546 -3.053424 -6.308687 0.000000 -0.000000 0.000000
  9 8.638525 -0.139324 -16.633003 0.000941 -0.070396 -0.008715
 10 1.058083 0.932502 -35.061916 0.384390 0.020659 0.010530
 11 1.221047 1.156220 -33.292107 -0.288637 0.003214 0.009670
 12 0.085375 -3.198827 -6.249955 0.000000 -0.000000 0.000000
 13 0.213274 2.786515 7.572433 -0.017453 0.000000 0.000000
 14 -2.904730 0.818864 2.596077 -0.028106 0.035465 -0.608946
 15 3.765302 -0.266406 -105.303314 0.017445 -0.006626 0.385211
 16 1.233751 0.818863 2.596069 -0.010881 -0.017338 0.378349
 17 -2.736665 -0.542176 -105.309532 0.017471 0.007558 -0.441260
 18 0.000000 -0.179233 2.752579 -0.082385 -0.015397 -0.181049
 19 0.749370 -1.299137 28.624329 0.137590 0.006764 0.252218
 20 -0.383532 17.841381 -5.153099 0.698694 -0.078151 -0.057224
 21 0.341385 5.572289 -21.207752 0.226156 0.000000 -0.000001
 22 -1.270981 0.784905 10.690887 0.000000 -0.000000 0.000000
 23 -8.160084 -0.723730 19.345657 -0.819957 0.447877 -0.102581
 24 -15.198620 0.466469 -18.278645 0.006507 -0.006470 0.469872
 25 -8.028427 -4.482513 -11.667110 -0.146504 0.258143 -0.038218
 26 -1.668770 -2.144661 -6.538002 0.052020 0.091792 0.093927
 27 35.457283 5.719496 -83.014801 0.000000 -0.000000 0.000000
 28 -3.175095 -2.066471 -5.742229 0.000000 -0.000000 0.000000
 29 9.450655 -0.516976 19.516212 0.184047 -0.253896 0.183937
 30 14.230850 0.232845 -18.395630 -1.073499 -0.618246 -1.108256
 31 8.015640 -4.458897 -11.817970 -0.088245 -0.076199 -0.105809
 32 2.087151 -1.667404 -5.327335 0.000000 -0.000000 0.000000
 33 0.319299 -0.756851 2.981506 0.000000 -0.000000 0.000000
 34 -2.465699 3.693841 194.748917 0.000000 -0.000000 0.000000
time 27
  0 -2.629148 1.415440 -0.352036 0.000000 -0.000000 0.000000
  1 -2.629148 1.415440 -0.352036 0.000000 -0.000000 0.000000
  2 -2.629148 1.415440 -0.352036 0.000000 -0.000000 0.000000
  3 0.000000 -9.090885 98.534973 0.150377 0.000000 0.000000
  4 0.000000 0.440305 -2.731789 -0.102248 -0.000000 0.000000
  5 -8.065217 -1.301253 -17.282547 -0.315100 0.040285 -0.146545
  6 -0.883781 2.065767 -34.200714 0.479121 0.006206 0.002692
  7 -1.767049 1.039489 -33.503735 -0.169049 -0.028852 -0.002860
  8 0.410545 -3.053425 -6.308686 0.000000 -0.000000 0.000000
  9 8.638525 -0.139324 -16.633003 -0.012072 -0.084211 -0.010425
 10 1.058083 0.932503 -35.061916 0.378105 0.022530 0.011484
 11 1.221048 1.156219 -33.292114 -0.284019 0.003799 0.011432
 12 0.085375 -3.198827 -6.249955 0.000000 -0.000000 0.000000
 13 0.213274 2.786515 7.572433 -0.017453 0.000000 0.000000
 14 -2.904729 0.818863 2.596069 -0.023601 0.030153 -0.554575
 15 3.765302 -0.266406 -105.303307 0.017445 -0.006626 0.385211
 16 1.233752 0.818864 2.596069 -0.009310 -0.014677 0.338145
 17 -2.736664 -0.542174 -105.309502 0.017471 0.007558 -0.441260
 18 0.000000 -0.179234 2.752586 -0.106022 -0.012879 -0.151435
 19 0.749370 -1.299137 28.624321 0.155052 0.005208 0.210963
 20 -0.383533 17.841387 -5.153099 0.575016 -0.067082 -0.049119
 21 0.341384 5.572273 -21.207748 0.159247 0.000000 -0.000001
 22 -1.270981 0.784906 10.690903 0.000000 -0.000000 0.000000
 23 -8.160083 -0.723732 19.345650 -0.702701 0.472709 0.133854
 24 -15.198616 0.466469 -18.278641 -0.098046 0.028414 0.468165
 25 -8.028427 -4.482506 -11.667103 -0.168922 0.255675 -0.038811
 26 -1.668770 -2.144661 -6.538006 0.052020 0.091792 0.093927
 27 35.457291 5.719488 -83.014801 0.000000 -0.000000 0.000000
 28 -3.175087 -2.066471 -5.742229 0.000000 -0.000000 0.000000
 29 9.450655 -0.516976 19.516212 0.184047 -0.253896 0.183937
 30 14.230843 0.232841 -18.395630 -1.073499 -0.618246 -1.108256
 31 8.015629 -4.458900 -11.817970 -0.088245 -0.076199 -0.105809
 32 2.087151 -1.667412 -5.327335 0.000000 -0.000000 0.000000
 33 0.319299 -0.756851 2.981506 0.000000 -0.000000 0.000000
 34 -2.465699 3.693841 194.748917 0.000000 -0.000000 0.000000
time 28
  0 -2.629148 1.415440 -0.352036 0.000000 -0.000000 0.000000
  1 -2.629148 1.415440 -0.352036 0.000000 -0.000000 0.000000
  2 -2.629148 1.415440 -0.352036 0.000000 -0.000000 0.000000
  3 0.000000 -7.452548 98.399353 0.128209 0.000000 0.000000
  4 0.000000 0.440304 -2.731796 -0.088393 -0.000000 0.000000
  5 -8.065217 -1.301253 -17.282555 -0.277524 0.052294 -0.145801
  6 -0.883780 2.065767 -34.200718 0.470318 0.004929 0.002138
  7 -1.767047 1.039489 -33.503746 -0.194424 -0.033031 -0.003032
  8 0.410547 -3.053424 -6.308687 0.000000 -0.000000 0.000000
  9 8.638525 -0.139324 -16.633003 -0.024087 -0.097851 -0.012114
 10 1.058080 0.932503 -35.061928 0.372181 0.024293 0.012383
 11 1.221045 1.156212 -33.292114 -0.279484 0.004374 0.013162
 12 0.085375 -3.198826 -6.249955 0.000000 -0.000000 0.000000
 13 0.213274 2.786516 7.572433 -0.017453 0.000000 0.000000
 14 -2.904730 0.818864 2.596077 -0.019281 0.025060 -0.502431
 15 3.765303 -0.266406 -105.303337 0.017445 -0.006626 0.385211
 16 1.233752 0.818864 2.596077 -0.007803 -0.012126 0.299588
 17 -2.736665 -0.542175 -105.309532 0.017471 0.007558 -0.441260
 18 -0.000000 -0.179234 2.752579 -0.129227 -0.010406 -0.122361
 19 0.749370 -1.299137 28.624336 0.172195 0.003884 0.170461
 20 -0.383533 17.841381 -5.153107 0.444965 -0.055443 -0.040597
 21 0.341385 5.572281 -21.207756 0.094175 0.000000 -0.000001
 22 -1.270981 0.784904 10.690903 0.000000 -0.000000 0.000000
 23 -8.160084 -0.723732 19.345650 -0.587585 0.496304 0.365975
 24 -15.198616 0.466473 -18.278648 -0.201181 0.063081 0.466279
 25 -8.028435 -4.482513 -11.667099 -0.190050 0.253350 -0.039371
 26 -1.668770 -2.144657 -6.538006 0.052020 0.091792 0.093927
 27 35.457306 5.719486 -83.014801 0.000000 -0.000000 0.000000
 28 -3.175095 -2.066475 -5.742229 0.000000 -0.000000 0.000000
 29 9.450655 -0.516976 19.516212 0.184047 -0.253896 0.183937
 30 14.230843 0.232842 -18.395622 -1.073499 -0.618246 -1.108256
 31 8.015633 -4.458897 -11.817978 -0.088245 -0.076199 -0.105809
 32 2.087151 -1.667404 -5.327335 0.000000 -0.000000 0.000000
 33 0.319299 -0.756851 2.981506 0.000000 -0.000000 0.000000
 34 -2.465699 3.693841 194.748917 0.000000 -0.000000 0.000000
time 29
  0 -2.629148 1.415440 -0.352036 0.000000 -0.000000 0.000000
  1 -2.629148 1.415440 -0.352036 0.000000 -0.000000 0.000000
  2 -2.629148 1.415440 -0.352036 0.000000 -0.000000 0.000000
  3 0.000000 -5.901045 98.270927 0.107051 0.000000 0.000000
  4 0.000000 0.440306 -2.731789 -0.075620 0.000000 0.000000
  5 -8.065217 -1.301253 -17.282539 -0.241497 0.063807 -0.145112
  6 -0.883783 2.065765 -34.200714 0.462201 0.003752 0.001628
  7 -1.767046 1.039489 -33.503738 -0.217819 -0.036883 -0.003190
  8 0.410547 -3.053424 -6.308686 0.000000 -0.000000 0.000000
  9 8.638525 -0.139325 -16.633003 -0.034963 -0.110929 -0.013733
 10 1.058083 0.932503 -35.061913 0.366719 0.025919 0.013211
 11 1.221048 1.156221 -33.292107 -0.275156 0.004923 0.014813
 12 0.085377 -3.198826 -6.249954 0.000000 -0.000000 0.000000
 13 0.213274 2.786515 7.572433 -0.017453 0.000000 0.000000
 14 -2.904730 0.818863 2.596069 -0.015237 0.020292 -0.453627
 15 3.765302 -0.266406 -105.303314 0.017445 -0.006626 0.385211
 16 1.233752 0.818863 2.596069 -0.006393 -0.009738 0.263501
 17 -2.736664 -0.542175 -105.309502 0.017471 0.007558 -0.441260
 18 0.000000 -0.179234 2.752579 -0.151374 -0.008046 -0.094614
 19 0.749370 -1.299136 28.624329 0.188556 0.002777 0.131806
 20 -0.383533 17.841385 -5.153084 0.314129 -0.043733 -0.032023
 21 0.341386 5.572273 -21.207748 0.032553 0.000000 -0.000001
 22 -1.270981 0.784904 10.690918 0.000000 -0.000000 0.000000
 23 -8.160084 -0.723731 19.345657 -0.477721 0.518212 0.587506
 24 -15.198608 0.466465 -18.278648 -0.299992 0.096494 0.464314
 25 -8.028427 -4.482512 -11.667110 -0.209530 0.251206 -0.039887
 26 -1.668770 -2.144661 -6.538010 0.052020 0.091792 0.093927
 27 35.457268 5.719482 -83.014801 0.000000 -0.000000 0.000000
 28 -3.175087 -2.066475 -5.742237 0.000000 -0.000000 0.000000
 29 9.450655 -0.516975 19.516212 0.184047 -0.253896 0.183937
 30 14.230839 0.232847 -18.395622 -1.073499 -0.618246 -1.108256
 31 8.015633 -4.458893 -11.817970 -0.088245 -0.076199 -0.105809
 32 2.087151 -1.667400 -5.327335 0.000000 -0.000000 0.000000
 33 0.319299 -0.756851 2.981506 0.000000 -0.000000 0.000000
 34 -2.465699 3.693841 194.748917 0.000000 -0.000000 0.000000
time 30
  0 -2.629148 1.415440 -0.352036 0.000000 -0.000000 0.000000
  1 -2.629148 1.415440 -0.352036 0.000000 -0.000000 0.000000
  2 -2.629148 1.415440 -0.352036 0.000000 -0.000000 0.000000
  3 0.000000 -4.476942 98.153038 0.087504 0.000000 0.000000
  4 0.000000 0.440305 -2.731789 -0.064163 -0.000000 0.000000
  5 -8.065217 -1.301253 -17.282539 -0.208087 0.074484 -0.144492
  6 -0.883780 2.065765 -34.200714 0.454922 0.002696 0.001170
  7 -1.767046 1.039491 -33.503735 -0.238802 -0.040339 -0.003332
  8 0.410547 -3.053426 -6.308685 0.000000 -0.000000 0.000000
  9 8.638525 -0.139325 -16.632996 -0.044557 -0.123057 -0.015234
 10 1.058081 0.932503 -35.061913 0.361821 0.027377 0.013954
 11 1.221046 1.156222 -33.292107 -0.271158 0.005429 0.016339
 12 0.085377 -3.198827 -6.249953 0.000000 -0.000000 0.000000
 13 0.213274 2.786515 7.572433 -0.017453 0.000000 0.000000
 14 -2.904730 0.818864 2.596077 -0.011562 0.015960 -0.409276
 15 3.765302 -0.266406 -105.303337 0.017445 -0.006626 0.385211
 16 1.233751 0.818864 2.596077 -0.005111 -0.007568 0.230707
 17 -2.736665 -0.542176 -105.309509 0.017471 0.007558 -0.441260
 18 0.000000 -0.179234 2.752571 -0.171835 -0.005866 -0.068979
 19 0.749370 -1.299137 28.624321 0.203672 0.001875 0.096094
 20 -0.383533 17.841385 -5.153099 0.188093 -0.032454 -0.023764
 21 0.341386 5.572285 -21.207756 -0.024010 0.000000 -0.000001
 22 -1.270981 0.784904 10.690903 0.000000 -0.000000 0.000000
 23 -8.160085 -0.723731 19.345650 -0.376220 0.537984 0.792172
 24 -15.198624 0.466469 -18.278641 -0.391575 0.127614 0.462374
 25 -8.028442 -4.482510 -11.667110 -0.227001 0.249283 -0.040349
 26 -1.668762 -2.144655 -6.538010 0.052020 0.091792 0.093927
 27 35.457275 5.719501 -83.014816 0.000000 -0.000000 0.000000
 28 -3.175087 -2.066469 -5.742235 0.000000 -0.000000 0.000000
 29 9.450655 -0.516974 19.516205 0.184047 -0.253896 0.183937
 30 14.230843 0.232846 -18.395622 -1.073499 -0.618246 -1.108255
 31 8.015640 -4.458897 -11.817974 -0.088245 -0.076199 -0.105809
 32 2.087151 -1.667408 -5.327335 0.000000 -0.000000 0.000000
 33 0.319299 -0.756849 2.981506 0.000000 -0.000000 0.000000
 34 -2.465699 3.693841 194.748917 0.000000 -0.000000 0.000000
time 31
  0 -2.629148 1.415440 -0.352036 0.000000 -0.000000 0.000000
  1 -2.629148 1.415440 -0.352036 0.000000 -0.000000 0.000000
  2 -2.629148 1.415440 -0.352036 0.000000 -0.000000 0.000000
  3 0.000000 -3.220803 98.049065 0.070167 0.000000 0.000000
  4 0.000000 0.440305 -2.731789 -0.054261 -0.000000 0.000000
  5 -8.065216 -1.301253 -17.282547 -0.178360 0.083983 -0.143954
  6 -0.883781 2.065765 -34.200714 0.448629 0.001783 0.000774
  7 -1.767048 1.039486 -33.503742 -0.256939 -0.043326 -0.003455
  8 0.410545 -3.053424 -6.308686 0.000000 -0.000000 0.000000
  9 8.638525 -0.139325 -16.633003 -0.052726 -0.133848 -0.016570
 10 1.058083 0.932503 -35.061913 0.357587 0.028637 0.014597
 11 1.221043 1.156218 -33.292107 -0.267612 0.005879 0.017692
 12 0.085375 -3.198826 -6.249953 0.000000 -0.000000 0.000000
 13 0.213274 2.786515 7.572433 -0.017453 0.000000 0.000000
 14 -2.904730 0.818863 2.596085 -0.008348 0.012172 -0.370493
 15 3.765303 -0.266405 -105.303322 0.017445 -0.006626 0.385211
 16 1.233752 0.818864 2.596085 -0.003990 -0.005670 0.202029
 17 -2.736665 -0.542176 -105.309502 0.017471 0.007558 -0.441260
 18 0.000000 -0.179234 2.752579 -0.189983 -0.003933 -0.046242
 19 0.749370 -1.299137 28.624313 0.217078 0.001166 0.064420
 20 -0.383533 17.841377 -5.153107 0.072446 -0.022103 -0.016185
 21 0.341385 5.572277 -21.207748 -0.073902 0.000000 -0.000001
 22 -1.270981 0.784905 10.690887 0.000000 -0.000000 0.000000
 23 -8.160084 -0.723730 19.345650 -0.286195 0.555170 0.973698
 24 -15.198608 0.466473 -18.278648 -0.473021 0.155403 0.460559
 25 -8.028435 -4.482508 -11.667107 -0.242103 0.247621 -0.040749
 26 -1.668777 -2.144663 -6.538008 0.052020 0.091792 0.093927
 27 35.457283 5.719496 -83.014793 0.000000 -0.000000 0.000000
 28 -3.175095 -2.066471 -5.742233 0.000000 -0.000000 0.000000
 29 9.450656 -0.516974 19.516197 0.184047 -0.253896 0.183937
 30 14.230839 0.232846 -18.395630 -1.073499 -0.618246 -1.108255
 31 8.015640 -4.458897 -11.817966 -0.088245 -0.076199 -0.105809
 32 2.087151 -1.667408 -5.327335 0.000000 -0.000000 0.000000
 33 0.319298 -0.756850 2.981499 0.000000 -0.000000 0.000000
 34 -2.465699 3.693841 194.748917 0.000000 -0.000000 0.000000
time 32
  0 -2.629148 1.415440 -0.352036 0.000000 -0.000000 0.000000
  1 -2.629148 1.415440 -0.352036 0.000000 -0.000000 0.000000
  2 -2.629148 1.415440 -0.352036 0.000000 -0.000000 0.000000
  3 0.000000 -2.173192 97.962341 0.055640 0.000000 0.000000
  4 0.000000 0.440304 -2.731796 -0.046147 0.000000 0.000000
  5 -8.065216 -1.301253 -17.282539 -0.153382 0.091966 -0.143512
  6 -0.883781 2.065767 -34.200714 0.443474 0.001036 0.000449
  7 -1.767048 1.039491 -33.503738 -0.271799 -0.045773 -0.003556
  8 0.410545 -3.053425 -6.308685 0.000000 -0.000000 0.000000
  9 8.638525 -0.139325 -16.632996 -0.059328 -0.142914 -0.017692
 10 1.058084 0.932503 -35.061920 0.354118 0.029670 0.015123
 11 1.221048 1.156222 -33.292110 -0.264640 0.006256 0.018825
 12 0.085377 -3.198826 -6.249954 0.000000 -0.000000 0.000000
 13 0.213274 2.786515 7.572433 -0.017453 0.000000 0.000000
 14 -2.904730 0.818864 2.596077 -0.005688 0.009036 -0.338390
 15 3.765303 -0.266405 -105.303337 0.017445 -0.006626 0.385211
 16 1.233752 0.818864 2.596077 -0.003063 -0.004099 0.178291
 17 -2.736665 -0.542175 -105.309517 0.017471 0.007558 -0.441260
 18 0.000000 -0.179234 2.752579 -0.205190 -0.002312 -0.027190
 19 0.749370 -1.299137 28.624336 0.228313 0.000637 0.037879
 20 -0.383533 17.841383 -5.153099 -0.027227 -0.013183 -0.009653
 21 0.341385 5.572277 -21.207756 -0.115511 0.000000 -0.000001
 22 -1.270981 0.784905 10.690903 0.000000 -0.000000 0.000000
 23 -8.160085 -0.723730 19.345650 -0.210759 0.569320 1.125808
 24 -15.198624 0.466470 -18.278656 -0.541427 0.178824 0.458970
 25 -8.028435 -4.482508 -11.667107 -0.254476 0.246259 -0.041077
 26 -1.668762 -2.144655 -6.538010 0.052020 0.091792 0.093927
 27 35.457283 5.719500 -83.014816 0.000000 -0.000000 0.000000
 28 -3.175095 -2.066467 -5.742233 0.000000 -0.000000 0.000000
 29 9.450657 -0.516975 19.516205 0.184047 -0.253896 0.183937
 30 14.230839 0.232846 -18.395638 -1.073499 -0.618246 -1.108256
 31 8.015640 -4.458897 -11.817970 -0.088245 -0.076199 -0.105809
 32 2.087151 -1.667404 -5.327335 0.000000 -0.000000 0.000000
 33 0.319299 -0.756849 2.981499 0.000000 -0.000000 0.000000
 34 -2.465699 3.693841 194.748917 0.000000 -0.000000 0.000000
time 33
  0 -2.629148 1.415440 -0.352036 0.000000 -0.000000 0.000000
  1 -2.629148 1.415440 -0.352036 0.000000 -0.000000 0.000000
  2 -2.629148 1.415440 -0.352036 0.000000 -0.000000 0.000000
  3 0.000000 -1.374676 97.896240 0.044521 0.000000 0.000000
  4 0.000000 0.440304 -2.731789 -0.040060 -0.000000 0.000000
  5 -8.065217 -1.301253 -17.282547 -0.134221 0.098089 -0.143179
  6 -0.883780 2.065766 -34.200718 0.439606 0.000475 0.000206
  7 -1.767050 1.039489 -33.503735 -0.282949 -0.047609 -0.003631
  8 0.410547 -3.053424 -6.308687 0.000000 -0.000000 0.000000
  9 8.638525 -0.139325 -16.633003 -0.064221 -0.149870 -0.018554
 10 1.058081 0.932502 -35.061913 0.351515 0.030445 0.015518
 11 1.221045 1.156224 -33.292110 -0.262366 0.006544 0.019693
 12 0.085375 -3.198827 -6.249953 0.000000 -0.000000 0.000000
 13 0.213274 2.786515 7.572433 -0.017453 0.000000 0.000000
 14 -2.904730 0.818863 2.596085 -0.003674 0.006661 -0.314080
 15 3.765302 -0.266405 -105.303329 0.017445 -0.006626 0.385211
 16 1.233751 0.818863 2.596085 -0.002360 -0.002910 0.160316
 17 -2.736665 -0.542175 -105.309517 0.017471 0.007558 -0.441260
 18 -0.000000 -0.179234 2.752579 -0.216829 -0.001072 -0.012608
 19 0.749370 -1.299133 28.624321 0.236911 0.000274 0.017565
 20 -0.383533 17.841381 -5.153091 -0.105339 -0.006192 -0.004534
 21 0.341385 5.572279 -21.207748 -0.147226 0.000000 -0.000000
 22 -1.270981 0.784905 10.690903 0.000000 -0.000000 0.000000
 23 -8.160084 -0.723730 19.345650 -0.153023 0.579984 1.242228
 24 -15.198616 0.466469 -18.278641 -0.593886 0.196839 0.457710
 25 -8.028442 -4.482515 -11.667099 -0.263760 0.245237 -0.041323
 26 -1.668770 -2.144659 -6.538008 0.052020 0.091792 0.093927
 27 35.457275 5.719450 -83.014801 0.000000 -0.000000 0.000000
 28 -3.175095 -2.066473 -5.742229 0.000000 -0.000000 0.000000
 29 9.450655 -0.516975 19.516205 0.184047 -0.253896 0.183937
 30 14.230839 0.232844 -18.395622 -1.073499 -0.618246 -1.108255
 31 8.015633 -4.458897 -11.817963 -0.088245 -0.076199 -0.105809
 32 2.087143 -1.667408 -5.327335 0.000000 -0.000000 0.000000
 33 0.319299 -0.756851 2.981506 0.000000 -0.000000 0.000000
 34 -2.465699 3.693841 194.748917 0.000000 -0.000000 0.000000
time 34
  0 -2.629148 1.415440 -0.352036 0.000000 -0.000000 0.000000
  1 -2.629148 1.415440 -0.352036 0.000000 -0.000000 0.000000
  2 -2.629148 1.415440 -0.352036 0.000000 -0.000000 0.000000
  3 0.000000 -0.865818 97.854118 0.037410 0.000000 0.000000
  4 0.000000 0.440305 -2.731789 -0.036234 0.000000 0.000000
  5 -8.065217 -1.301253 -17.282555 -0.121941 0.102013 -0.142970
  6 -0.883781 2.065767 -34.200714 0.437175 0.000122 0.000053
  7 -1.767050 1.039484 -33.503746 -0.289956 -0.048763 -0.003679
  8 0.410542 -3.053424 -6.308686 0.000000 -0.000000 0.000000
  9 8.638525 -0.139325 -16.633011 -0.067261 -0.154327 -0.019105
 10 1.058081 0.932502 -35.061916 0.349880 0.030932 0.015766
 11 1.221043 1.156223 -33.292110 -0.260911 0.006729 0.020248
 12 0.085377 -3.198826 -6.249954 0.000000 -0.000000 0.000000
 13 0.213274 2.786515 7.572433 -0.017453 0.000000 0.000000
 14 -2.904730 0.818863 2.596077 -0.002398 0.005156 -0.298678
 15 3.765302 -0.266405 -105.303329 0.017445 -0.006626 0.385211
 16 1.233751 0.818863 2.596077 -0.001915 -0.002156 0.148927
 17 -2.736665 -0.542175 -105.309509 0.017471 0.007558 -0.441260
 18 0.000000 -0.179234 2.752571 -0.224272 -0.000279 -0.003283
 19 0.749370 -1.299135 28.624321 0.242409 0.000066 0.004574
 20 -0.383533 17.841385 -5.153099 -0.156303 -0.001631 -0.001195
 21 0.341385 5.572280 -21.207756 -0.167437 0.000000 -0.000000
 22 -1.270981 0.784904 10.690903 0.000000 -0.000000 0.000000
 23 -8.160084 -0.723730 19.345657 -0.116098 0.586712 1.316682
 24 -15.198616 0.466467 -18.278648 -0.627492 0.208409 0.456880
 25 -8.028442 -4.482513 -11.667107 -0.269594 0.244595 -0.041477
 26 -1.668770 -2.144657 -6.538008 0.052020 0.091792 0.093927
 27 35.457283 5.719473 -83.014816 0.000000 -0.000000 0.000000
 28 -3.175087 -2.066469 -5.742233 0.000000 -0.000000 0.000000
 29 9.450655 -0.516973 19.516212 0.184047 -0.253896 0.183937
 30 14.230839 0.232847 -18.395622 -1.073499 -0.618246 -1.108255
 31 8.015633 -4.458897 -11.817963 -0.088245 -0.076199 -0.105809
 32 2.087158 -1.667404 -5.327335 0.000000 -0.000000 0.000000
 33 0.319299 -0.756851 2.981514 0.000000 -0.000000 0.000000
 34 -2.465699 3.693841 194.748917 0.000000 -0.000000 0.000000
time 35
  0 -2.629148 1.415440 -0.352036 0.000000 -0.000000 0.000000
  1 -2.629148 1.415440 -0.352036 0.000000 -0.000000 0.000000
  2 -2.629148 1.415440 -0.352036 0.000000 -0.000000 0.000000
  3 0.000000 -0.687185 97.839333 0.034907 0.000000 0.000000
  4 0.000000 0.440305 -2.731789 -0.034906 0.000000 -0.000000
  5 -8.065217 -1.301253 -17.282547 -0.117611 0.103397 -0.142897
  6 -0.883781 2.065766 -34.200722 0.436331 -0.000000 0.000000
  7 -1.767050 1.039485 -33.503738 -0.292388 -0.049164 -0.003695
  8 0.410545 -3.053424 -6.308687 0.000000 -0.000000 0.000000
  9 8.638525 -0.139325 -16.633003 -0.068306 -0.155899 -0.019300
 10 1.058083 0.932503 -35.061913 0.349312 0.031101 0.015853
 11 1.221050 1.156221 -33.292103 -0.260399 0.006793 0.020443
 12 0.085379 -3.198827 -6.249953 0.000000 -0.000000 0.000000
 13 0.213274 2.786515 7.572433 -0.017453 0.000000 0.000000
 14 -2.904730 0.818863 2.596077 -0.001952 0.004631 -0.293297
 15 3.765303 -0.266405 -105.303329 0.017445 -0.006626 0.385211
 16 1.233751 0.818863 2.596077 -0.001760 -0.001893 0.144948
 17 -2.736665 -0.542175 -105.309509 0.017471 0.007558 -0.441260
 18 0.000000 -0.179234 2.752571 -0.226892 -0.000000 0.000000
 19 0.749370 -1.299137 28.624321 0.244345 -0.000000 0.000000
 20 -0.383533 17.841385 -5.153091 -0.174533 0.000000 0.000000
 21 0.341385 5.572280 -21.207748 -0.174532 0.000000 -0.000000
 22 -1.270981 0.784904 10.690918 0.000000 -0.000000 0.000000
 23 -8.160084 -0.723732 19.345650 -0.103099 0.589055 1.342894
 24 -15.198616 0.466469 -18.278641 -0.639340 0.212496 0.456580
 25 -8.028435 -4.482515 -11.667110 -0.271619 0.244372 -0.041531
 26 -1.668777 -2.144663 -6.538010 0.052020 0.091792 0.093927
 27 35.457298 5.719455 -83.014824 0.000000 -0.000000 0.000000
 28 -3.175102 -2.066475 -5.742235 0.000000 -0.000000 0.000000
 29 9.450654 -0.516975 19.516205 0.184047 -0.253896 0.183937
 30 14.230843 0.232842 -18.395622 -1.073499 -0.618246 -1.108256
 31 8.015633 -4.458893 -11.817966 -0.088245 -0.076199 -0.105809
 32 2.087151 -1.667404 -5.327332 0.000000 -0.000000 0.000000
 33 0.319299 -0.756851 2.981499 0.000000 -0.000000 0.000000
 34 -2.465699 3.693841 194.748917 0.000000 -0.000000 0.000000
end
