version 1
nodes
  0 "bone_21"  -1
  1 "bone_27"  -1
  2 "bone_29"   1
  3 "bone_30"   2
  4 "bone_26"   1
  5 "bone_3"   4
  6 "bone_28"   4
  7 "bone_7"   6
  8 "bone_10"   6
  9 "bone_11"   6
 10 "bone_12"   6
 11 "bone_13"   6
 12 "bone_0"   4
 13 "bone_14"  12
 14 "bone_1"  13
 15 "bone_5"  14
 16 "bons_041"  15
 17 "bons_40"  16
 18 "bone_23"   4
 19 "bone_24"  18
 20 "bone_2"  19
 21 "bone_19"  20
 22 "bone_20"   4
 23 "bone_34"   1
end
skeleton
time 0
  0 4.103849 8.412075 291.691650 0.000000 -0.000000 0.000000
  1 4.103849 9.021107 140.955078 0.000000 0.000000 0.157080
  2 -0.186267 0.167364 -1.425583 0.209439 -0.000000 0.000000
  3 0.923380 -2.004169 -52.426399 -0.366519 0.000000 0.000000
  4 0.209927 0.167364 2.417709 0.087267 0.000000 0.000000
  5 0.221455 70.430084 -54.272018 0.087266 0.000000 -0.000000
  6 -0.737603 -0.548840 40.203674 -0.070379 0.133015 -0.081757
  7 2.553314 7.297703 96.216141 0.000000 -0.000000 0.000000
  8 25.337776 -9.646730 2.086914 -0.000011 -0.139632 -0.000607
  9 -23.810326 -7.093720 2.086899 -0.226045 0.064723 0.026189
 10 -7.352507 52.005493 -48.397369 -0.168283 -0.043249 -0.051542
 11 -0.684170 -0.276030 30.967392 0.000000 -0.000000 0.000000
 12 -13.534457 -1.160923 22.015213 -1.658075 0.000000 -0.000000
 13 -20.972828 -0.005859 -27.595078 -0.000000 0.209439 0.000000
 14 -18.070225 -6.045792 -20.586172 1.618406 -0.172146 -0.900554
 15 5.932724 -5.752605 0.181641 0.081625 0.974410 0.016749
 16 0.492607 -33.874798 19.443939 0.000000 -0.000000 -0.000000
 17 0.000015 -0.000008 -0.000015 -0.000000 -0.000000 -0.000000
 18 12.176294 -0.829269 23.085022 -1.200580 -0.489028 -1.234559
 19 23.438759 1.362869 -28.210831 0.287996 0.520685 -0.354551
 20 17.520050 -4.855556 -21.387665 -0.559663 -0.318451 0.327741
 21 6.597038 5.855782 -9.931339 0.000000 -0.000000 0.000000
 22 -0.072890 -1.214046 9.388046 0.000000 -0.000000 0.000000
 23 0.000010 -5.381661 -154.110336 -0.034538 -0.005058 -0.145357
time 1
  0 4.103849 8.412075 291.691650 0.000000 -0.000000 0.000000
  1 4.103849 8.696720 140.955078 0.000000 0.000000 0.157080
  2 -0.186268 0.167364 -1.425583 0.208607 0.000128 -0.000008
  3 0.923381 -2.004177 -52.426407 -0.344648 -0.003392 -0.000315
  4 0.209926 0.167365 2.417709 0.087891 -0.000099 -0.000001
  5 -0.137338 67.993057 -54.027580 0.087266 0.000000 -0.000000
  6 -0.737603 -0.548836 40.203690 -0.070379 0.133015 -0.081757
  7 2.553307 7.297702 96.216156 0.000000 -0.000000 0.000000
  8 25.337774 -9.646733 2.086899 -0.000011 -0.139632 -0.000607
  9 -23.810329 -7.093721 2.086899 -0.226045 0.064723 0.026189
 10 -7.352510 52.005497 -48.397385 -0.219412 -0.043232 -0.057050
 11 -0.684172 -0.276030 30.967377 0.000000 -0.000000 0.000000
 12 -13.534458 -1.160921 22.015213 -1.645475 -0.000263 0.000016
 13 -20.972826 -0.005859 -27.595078 -0.000000 0.209439 -0.000000
 14 -18.070227 -6.045807 -20.586184 1.618406 -0.172146 -0.900554
 15 5.932716 -5.752602 0.181641 0.081625 0.974410 0.016749
 16 0.492607 -33.874794 19.443939 0.000000 0.000000 -0.000000
 17 0.000019 -0.000008 -0.000015 -0.000000 0.000000 0.000000
 18 12.176293 -0.829269 23.085037 -1.195596 -0.479814 -1.247052
 19 23.438759 1.362885 -28.210831 0.287996 0.520685 -0.354550
 20 17.520050 -4.855568 -21.387650 -0.559663 -0.318451 0.327741
 21 6.597038 5.855797 -9.931339 0.000000 -0.000000 0.000000
 22 -0.072890 -1.214046 9.388031 0.000000 -0.000000 0.000000
 23 0.000010 -5.381661 -154.110336 -0.034538 -0.005058 -0.145357
time 2
  0 4.103849 8.412075 291.691650 0.000000 -0.000000 0.000000
  1 4.103849 7.830575 140.955078 0.000000 0.000000 0.157080
  2 -0.186268 0.167366 -1.425583 0.205958 0.000539 -0.000032
  3 0.923381 -2.004169 -52.426414 -0.286250 -0.012450 -0.001158
  4 0.209927 0.167366 2.417709 0.089557 -0.000363 -0.000003
  5 -1.143607 61.541389 -53.375504 0.087266 0.000000 0.000000
  6 -0.737603 -0.548840 40.203674 -0.070379 0.133015 -0.081757
  7 2.553307 7.297700 96.216141 0.000000 -0.000000 0.000000
  8 25.337774 -9.646732 2.086914 -0.000011 -0.139632 -0.000607
  9 -23.810326 -7.093719 2.086929 -0.226045 0.064723 0.026189
 10 -7.352509 52.005489 -48.397385 -0.277432 -0.043186 -0.063171
 11 -0.684174 -0.276030 30.967392 0.000000 -0.000000 0.000000
 12 -13.534458 -1.160923 22.015198 -1.635376 -0.000965 0.000062
 13 -20.972828 -0.005875 -27.595076 -0.000000 0.209439 -0.000000
 14 -18.070219 -6.045792 -20.586182 1.618406 -0.172146 -0.900554
 15 5.932709 -5.752605 0.181625 0.081625 0.974409 0.016749
 16 0.492611 -33.874790 19.443939 0.000000 -0.000000 0.000000
 17 0.000015 -0.000008 -0.000015 -0.000000 0.000000 -0.000000
 18 12.176291 -0.829269 23.085022 -1.182287 -0.455211 -1.257042
 19 23.438763 1.362869 -28.210838 0.287996 0.520685 -0.354550
 20 17.520042 -4.855556 -21.387665 -0.559663 -0.318451 0.327741
 21 6.597031 5.855774 -9.931335 0.000000 -0.000000 0.000000
 22 -0.072889 -1.214048 9.388046 0.000000 -0.000000 0.000000
 23 0.000010 -5.381660 -154.110336 -0.034538 -0.005058 -0.145357
time 3
  0 4.103849 8.412075 291.691650 0.000000 -0.000000 0.000000
  1 4.103849 6.583192 140.955078 0.000000 0.000000 0.157080
  2 -0.186267 0.167365 -1.425583 0.201266 0.001271 -0.000072
  3 0.923381 -2.004171 -52.426414 -0.202147 -0.025494 -0.002371
  4 0.209927 0.167365 2.417709 0.091956 -0.000743 -0.000006
  5 -2.692173 51.729656 -52.382248 0.087266 0.000000 -0.000000
  6 -0.737603 -0.548840 40.203659 -0.070379 0.133015 -0.081757
  7 2.553314 7.297701 96.216110 0.000000 -0.000000 0.000000
  8 25.337774 -9.646732 2.086899 -0.000011 -0.139632 -0.000607
  9 -23.810329 -7.093719 2.086914 -0.226045 0.064723 0.026189
 10 -7.352512 52.005497 -48.397385 -0.340376 -0.043116 -0.069715
 11 -0.684172 -0.276030 30.967392 0.000000 -0.000000 0.000000
 12 -13.534456 -1.160923 22.015182 -1.627509 -0.001976 0.000127
 13 -20.972830 -0.005859 -27.595074 -0.000000 0.209439 -0.000000
 14 -18.070229 -6.045807 -20.586170 1.618406 -0.172146 -0.900554
 15 5.932716 -5.752605 0.181641 0.081625 0.974410 0.016749
 16 0.492615 -33.874786 19.443924 0.000000 -0.000000 -0.000000
 17 0.000011 -0.000008 -0.000015 -0.000000 0.000000 -0.000000
 18 12.176294 -0.829269 23.085022 -1.163121 -0.419778 -1.264802
 19 23.438766 1.362869 -28.210823 0.287996 0.520686 -0.354550
 20 17.520042 -4.855556 -21.387657 -0.559663 -0.318451 0.327741
 21 6.597046 5.855782 -9.931339 0.000000 -0.000000 0.000000
 22 -0.072889 -1.214048 9.388031 0.000000 -0.000000 0.000000
 23 0.000011 -5.381660 -154.110336 -0.034538 -0.005058 -0.145357
time 4
  0 4.103849 8.412075 291.691650 0.000000 -0.000000 0.000000
  1 4.103849 5.115092 140.955078 0.000000 0.000000 0.157080
  2 -0.186268 0.167365 -1.425583 0.194303 0.002363 -0.000127
  3 0.923381 -2.004173 -52.426414 -0.103163 -0.040847 -0.003799
  4 0.209927 0.167365 2.417709 0.094780 -0.001190 -0.000010
  5 -4.677865 39.212349 -51.114197 0.087266 0.000000 0.000000
  6 -0.737603 -0.548840 40.203674 -0.070379 0.133015 -0.081757
  7 2.553310 7.297703 96.216110 0.000000 -0.000000 0.000000
  8 25.337778 -9.646732 2.086899 -0.000011 -0.139632 -0.000607
  9 -23.810329 -7.093720 2.086899 -0.226045 0.064723 0.026189
 10 -7.352509 52.005493 -48.397385 -0.406274 -0.043027 -0.076493
 11 -0.684170 -0.276030 30.967377 0.000000 -0.000000 0.000000
 12 -13.534458 -1.160923 22.015198 -1.621606 -0.003166 0.000204
 13 -20.972836 -0.005875 -27.595079 0.000000 0.209439 0.000000
 14 -18.070227 -6.045792 -20.586174 1.618406 -0.172146 -0.900554
 15 5.932693 -5.752605 0.181641 0.081626 0.974410 0.016749
 16 0.492622 -33.874798 19.443924 0.000000 -0.000000 0.000000
 17 0.000015 -0.000008 -0.000015 -0.000000 0.000000 0.000000
 18 12.176292 -0.829269 23.085022 -1.140564 -0.378076 -1.270605
 19 23.438766 1.362869 -28.210827 0.287996 0.520685 -0.354550
 20 17.520035 -4.855560 -21.387657 -0.559663 -0.318451 0.327741
 21 6.597031 5.855766 -9.931339 0.000000 -0.000000 0.000000
 22 -0.072890 -1.214048 9.388031 0.000000 -0.000000 0.000000
 23 0.000010 -5.381660 -154.110336 -0.034538 -0.005058 -0.145357
time 5
  0 4.103849 8.412075 291.691650 0.000000 -0.000000 0.000000
  1 4.103849 3.586796 140.955078 0.000000 0.000000 0.157080
  2 -0.186267 0.167365 -1.425583 0.184842 0.003852 -0.000197
  3 0.923380 -2.004171 -52.426407 -0.000121 -0.056828 -0.005285
  4 0.209927 0.167365 2.417709 0.097720 -0.001656 -0.000014
  5 -6.995506 24.644016 -49.637810 0.087266 0.000000 -0.000000
  6 -0.737603 -0.548838 40.203674 -0.070379 0.133015 -0.081757
  7 2.553310 7.297702 96.216141 0.000000 -0.000000 0.000000
  8 25.337776 -9.646731 2.086914 -0.000011 -0.139632 -0.000607
  9 -23.810333 -7.093719 2.086899 -0.226045 0.064723 0.026189
 10 -7.352512 52.005486 -48.397385 -0.473159 -0.042925 -0.083316
 11 -0.684172 -0.276029 30.967392 0.000000 -0.000000 0.000000
 12 -13.534458 -1.160923 22.015182 -1.617396 -0.004405 0.000284
 13 -20.972828 -0.005875 -27.595074 -0.000000 0.209439 -0.000000
 14 -18.070221 -6.045807 -20.586174 1.618406 -0.172146 -0.900554
 15 5.932709 -5.752602 0.181625 0.081625 0.974410 0.016749
 16 0.492619 -33.874790 19.443939 0.000000 -0.000000 0.000000
 17 0.000019 -0.000008 -0.000015 -0.000000 -0.000000 0.000000
 18 12.176294 -0.829269 23.085022 -1.117082 -0.334663 -1.274725
 19 23.438766 1.362869 -28.210831 0.287996 0.520685 -0.354550
 20 17.520042 -4.855553 -21.387657 -0.559663 -0.318451 0.327741
 21 6.597046 5.855782 -9.931339 0.000000 -0.000000 0.000000
 22 -0.072890 -1.214048 9.388031 0.000000 -0.000000 0.000000
 23 0.000011 -5.381660 -154.110336 -0.034538 -0.005058 -0.145357
time 6
  0 4.103849 8.412075 291.691650 0.000000 -0.000000 0.000000
  1 4.103849 2.158825 140.955078 0.000000 0.000000 0.157080
  2 -0.186268 0.167365 -1.425583 0.172657 0.005777 -0.000282
  3 0.923381 -2.004173 -52.426399 0.096157 -0.071761 -0.006674
  4 0.209927 0.167365 2.417709 0.100467 -0.002091 -0.000018
  5 -9.539930 8.679144 -48.019485 0.087266 0.000000 0.000000
  6 -0.737604 -0.548840 40.203674 -0.070379 0.133015 -0.081757
  7 2.553310 7.297701 96.216141 0.000000 -0.000000 0.000000
  8 25.337778 -9.646731 2.086929 -0.000011 -0.139632 -0.000607
  9 -23.810329 -7.093721 2.086914 -0.226045 0.064723 0.026189
 10 -7.352509 52.005489 -48.397400 -0.539063 -0.042815 -0.089997
 11 -0.684170 -0.276030 30.967392 0.000000 -0.000000 0.000000
 12 -13.534457 -1.160923 22.015198 -1.614612 -0.005563 0.000358
 13 -20.972828 -0.005859 -27.595078 -0.000000 0.209439 -0.000000
 14 -18.070223 -6.045792 -20.586174 1.618406 -0.172146 -0.900554
 15 5.932716 -5.752609 0.181641 0.081625 0.974410 0.016749
 16 0.492619 -33.874802 19.443954 0.000000 -0.000000 0.000000
 17 0.000015 -0.000008 0.000000 -0.000000 0.000000 -0.000000
 18 12.176292 -0.829268 23.085022 -1.095141 -0.294101 -1.277434
 19 23.438763 1.362885 -28.210831 0.287996 0.520685 -0.354550
 20 17.520035 -4.855560 -21.387657 -0.559663 -0.318451 0.327741
 21 6.597031 5.855782 -9.931337 0.000000 -0.000000 0.000000
 22 -0.072891 -1.214046 9.388046 0.000000 -0.000000 0.000000
 23 0.000010 -5.381660 -154.110336 -0.034538 -0.005058 -0.145357
time 7
  0 4.103849 8.412075 291.691650 0.000000 -0.000000 0.000000
  1 4.103849 0.991703 140.955078 0.000000 0.000000 0.157080
  2 -0.186268 0.167365 -1.425583 0.157519 0.008177 -0.000381
  3 0.923380 -2.004171 -52.426399 0.174848 -0.083966 -0.007809
  4 0.209927 0.167365 2.417709 0.102712 -0.002446 -0.000021
  5 -12.205960 -8.027730 -46.325638 0.087266 0.000000 0.000000
  6 -0.737603 -0.548839 40.203690 -0.070379 0.133015 -0.081757
  7 2.553316 7.297701 96.216141 0.000000 -0.000000 0.000000
  8 25.337774 -9.646733 2.086914 -0.000011 -0.139632 -0.000607
  9 -23.810333 -7.093721 2.086914 -0.226045 0.064723 0.026189
 10 -7.352510 52.005497 -48.397369 -0.602015 -0.042704 -0.096344
 11 -0.684170 -0.276031 30.967377 0.000000 -0.000000 0.000000
 12 -13.534458 -1.160923 22.015213 -1.612983 -0.006509 0.000420
 13 -20.972834 -0.005859 -27.595081 0.000000 0.209439 0.000000
 14 -18.070229 -6.045807 -20.586174 1.618406 -0.172146 -0.900554
 15 5.932709 -5.752609 0.181625 0.081626 0.974409 0.016749
 16 0.492630 -33.874798 19.443939 0.000000 -0.000000 -0.000000
 17 0.000015 -0.000008 -0.000015 -0.000000 0.000000 0.000000
 18 12.176292 -0.829269 23.085037 -1.077208 -0.260948 -1.279005
 19 23.438766 1.362869 -28.210823 0.287996 0.520685 -0.354550
 20 17.520050 -4.855568 -21.387657 -0.559663 -0.318451 0.327741
 21 6.597031 5.855774 -9.931341 0.000000 -0.000000 0.000000
 22 -0.072890 -1.214047 9.388046 0.000000 -0.000000 0.000000
 23 0.000011 -5.381660 -154.110336 -0.034538 -0.005058 -0.145357
time 8
  0 4.103849 8.412075 291.691650 0.000000 -0.000000 0.000000
  1 4.103849 0.245949 140.955078 0.000000 0.000000 0.157080
  2 -0.186268 0.167365 -1.425583 0.139203 0.011089 -0.000494
  3 0.923381 -2.004171 -52.426399 0.225129 -0.091765 -0.008534
  4 0.209927 0.167365 2.417709 0.104147 -0.002674 -0.000023
  5 -14.888423 -24.822104 -44.622726 0.087266 0.000000 -0.000000
  6 -0.737603 -0.548840 40.203690 -0.070379 0.133015 -0.081757
  7 2.553305 7.297701 96.216156 0.000000 -0.000000 0.000000
  8 25.337776 -9.646733 2.086914 -0.000011 -0.139632 -0.000607
  9 -23.810329 -7.093720 2.086914 -0.226045 0.064723 0.026189
 10 -7.352509 52.005497 -48.397369 -0.660050 -0.042595 -0.102171
 11 -0.684172 -0.276030 30.967392 0.000000 -0.000000 0.000000
 12 -13.534459 -1.160923 22.015198 -1.612242 -0.007114 0.000459
 13 -20.972828 -0.005890 -27.595076 0.000000 0.209439 0.000000
 14 -18.070223 -6.045776 -20.586174 1.618406 -0.172146 -0.900554
 15 5.932709 -5.752605 0.181625 0.081625 0.974410 0.016749
 16 0.492626 -33.874790 19.443939 0.000000 -0.000000 0.000000
 17 0.000015 -0.000008 -0.000015 -0.000000 0.000000 0.000000
 18 12.176293 -0.829270 23.085022 -1.065749 -0.239765 -1.279713
 19 23.438766 1.362869 -28.210823 0.287996 0.520685 -0.354550
 20 17.520031 -4.855560 -21.387665 -0.559663 -0.318451 0.327741
 21 6.597031 5.855782 -9.931339 0.000000 -0.000000 0.000000
 22 -0.072890 -1.214049 9.388031 0.000000 -0.000000 0.000000
 23 0.000010 -5.381660 -154.110336 -0.034538 -0.005058 -0.145357
time 9
  0 4.103849 8.412075 291.691650 0.000000 -0.000000 0.000000
  1 4.103849 0.796758 140.955078 0.000000 0.000000 0.157080
  2 -0.186268 0.167365 -1.425583 0.111435 0.015457 -0.000921
  3 0.923380 -2.004173 -52.426407 0.228592 -0.092304 -0.008512
  4 0.209927 0.167365 2.417709 0.104500 -0.002730 -0.000024
  5 -17.482143 -41.049423 -42.977165 0.087266 0.000000 -0.000000
  6 -0.737604 -0.548840 40.203674 -0.070379 0.133015 -0.081757
  7 2.553308 7.297703 96.216125 0.000000 -0.000000 0.000000
  8 25.337774 -9.646732 2.086899 -0.000011 -0.139632 -0.000607
  9 -23.810329 -7.093720 2.086899 -0.226045 0.064723 0.026189
 10 -7.352507 52.005486 -48.397400 -0.711197 -0.042496 -0.107288
 11 -0.684170 -0.276030 30.967377 0.000000 -0.000000 0.000000
 12 -13.534456 -1.160922 22.015182 -1.631566 -0.004818 -0.001124
 13 -20.972826 -0.005875 -27.595070 -0.000000 0.209439 -0.000000
 14 -18.070219 -6.045776 -20.586170 1.618406 -0.172146 -0.900554
 15 5.932709 -5.752605 0.181641 0.081626 0.974410 0.016749
 16 0.492638 -33.874786 19.443939 0.000000 -0.000000 -0.000000
 17 0.000015 -0.000008 -0.000015 0.000000 0.000000 -0.000000
 18 12.176291 -0.829269 23.085007 -1.086491 -0.250948 -1.262313
 19 23.438759 1.362885 -28.210838 0.287996 0.520685 -0.354550
 20 17.520039 -4.855568 -21.387650 -0.559663 -0.318451 0.327741
 21 6.597038 5.855782 -9.931334 0.000000 -0.000000 0.000000
 22 -0.072891 -1.214049 9.388016 0.000000 -0.000000 0.000000
 23 0.000010 -5.381661 -154.110336 -0.034538 -0.005058 -0.145357
time 10
  0 4.103849 8.412075 291.691650 0.000000 -0.000000 0.000000
  1 4.103849 14.333405 140.955078 0.000000 0.000000 0.157080
  2 -0.186268 0.167364 -1.425583 -0.022992 0.035798 -0.006547
  3 0.923380 -2.004174 -52.426392 0.061201 -0.066383 -0.004781
  4 0.209927 0.167365 2.417709 0.104392 -0.002712 -0.000024
  5 -19.881956 -56.055202 -41.455322 0.087266 0.000000 -0.000000
  6 -0.737603 -0.548836 40.203674 -0.070379 0.133015 -0.081757
  7 2.553308 7.297703 96.216125 0.000000 -0.000000 0.000000
  8 25.337774 -9.646730 2.086914 -0.000011 -0.139632 -0.000607
  9 -23.810328 -7.093719 2.086899 -0.226045 0.064723 0.026189
 10 -7.352512 52.005489 -48.397385 -0.753489 -0.042411 -0.111505
 11 -0.684172 -0.276030 30.967377 0.000000 -0.000000 0.000000
 12 -13.534458 -1.160919 22.015198 -1.988988 0.040135 -0.030373
 13 -20.972834 -0.005859 -27.595070 -0.000000 0.209439 -0.000000
 14 -18.070225 -6.045807 -20.586174 1.618406 -0.172146 -0.900554
 15 5.932716 -5.752617 0.181641 0.081625 0.974409 0.016749
 16 0.492630 -33.874786 19.443939 0.000000 -0.000000 0.000000
 17 0.000019 0.000000 -0.000015 0.000000 -0.000000 -0.000000
 18 12.176292 -0.829269 23.085022 -1.519993 -0.553505 -0.940392
 19 23.438766 1.362885 -28.210831 0.287996 0.520685 -0.354550
 20 17.520050 -4.855568 -21.387657 -0.559663 -0.318451 0.327741
 21 6.597046 5.855797 -9.931341 0.000000 -0.000000 0.000000
 22 -0.072890 -1.214046 9.388046 0.000000 -0.000000 0.000000
 23 0.000010 -5.381660 -154.110336 -0.034538 -0.005058 -0.145357
time 11
  0 4.103849 8.412075 291.691650 0.000000 -0.000000 0.000000
  1 4.103849 32.852879 140.955078 0.000000 0.000000 0.157080
  2 -0.186267 0.167362 -1.425583 -0.193348 0.061464 -0.014165
  3 0.923380 -2.004175 -52.426399 -0.169405 -0.030671 0.000323
  4 0.209927 0.167362 2.417709 0.104147 -0.002674 -0.000023
  5 -21.982677 -69.184921 -40.123680 0.087266 0.000000 -0.000000
  6 -0.737602 -0.548843 40.203690 -0.070379 0.133015 -0.081757
  7 2.553305 7.297703 96.216156 0.000000 -0.000000 0.000000
  8 25.337774 -9.646736 2.086914 -0.000011 -0.139632 -0.000607
  9 -23.810326 -7.093719 2.086914 -0.226045 0.064723 0.026189
 10 -7.352509 52.005486 -48.397385 -0.784957 -0.042347 -0.114635
 11 -0.684174 -0.276031 30.967392 0.000000 -0.000000 0.000000
 12 -13.534458 -1.160923 22.015198 -2.477976 0.101634 -0.070388
 13 -20.972832 -0.005859 -27.595085 0.000000 0.209439 0.000000
 14 -18.070225 -6.045792 -20.586166 1.618406 -0.172146 -0.900554
 15 5.932709 -5.752609 0.181633 0.081625 0.974409 0.016749
 16 0.492622 -33.874802 19.443939 0.000000 -0.000000 0.000000
 17 0.000015 0.000000 -0.000015 0.000000 0.000000 0.000000
 18 12.176293 -0.829273 23.085022 -2.113067 -0.967431 -0.499973
 19 23.438751 1.362877 -28.210823 0.287996 0.520685 -0.354550
 20 17.520035 -4.855562 -21.387665 -0.559663 -0.318451 0.327741
 21 6.597046 5.855782 -9.931339 0.000000 -0.000000 0.000000
 22 -0.072889 -1.214050 9.388031 0.000000 -0.000000 0.000000
 23 0.000011 -5.381662 -154.110336 -0.034538 -0.005058 -0.145357
time 12
  0 4.103849 8.412075 291.691650 0.000000 -0.000000 0.000000
  1 4.103849 40.607216 140.955078 0.000000 0.000000 0.157080
  2 -0.186267 0.167366 -1.425583 -0.263265 0.071986 -0.017347
  3 0.923379 -2.004173 -52.426407 -0.270431 -0.015018 0.002460
  4 0.209927 0.167366 2.417709 0.103778 -0.002615 -0.000023
  5 -23.679146 -79.784027 -39.048630 0.087266 0.000000 0.000000
  6 -0.737602 -0.548840 40.203674 -0.070379 0.133015 -0.081757
  7 2.553314 7.297703 96.216156 0.000000 -0.000000 0.000000
  8 25.337780 -9.646725 2.086899 -0.000011 -0.139632 -0.000607
  9 -23.810331 -7.093716 2.086899 -0.226045 0.064723 0.026189
 10 -7.352509 52.005489 -48.397400 -0.803634 -0.042307 -0.116489
 11 -0.684172 -0.276028 30.967377 0.000000 -0.000000 0.000000
 12 -13.534458 -1.160923 22.015213 -2.682705 0.127383 -0.087141
 13 -20.972832 -0.005859 -27.595062 -0.000000 0.209439 -0.000000
 14 -18.070229 -6.045792 -20.586182 1.618406 -0.172146 -0.900554
 15 5.932713 -5.752594 0.181641 0.081626 0.974410 0.016749
 16 0.492630 -33.874786 19.443947 0.000000 -0.000000 0.000000
 17 0.000023 -0.000015 -0.000015 -0.000000 0.000000 0.000000
 18 12.176293 -0.829273 23.085037 -2.361389 -1.140758 -0.315579
 19 23.438751 1.362877 -28.210827 0.287996 0.520685 -0.354550
 20 17.520020 -4.855560 -21.387661 -0.559663 -0.318451 0.327741
 21 6.597031 5.855778 -9.931335 0.000000 -0.000000 0.000000
 22 -0.072890 -1.214046 9.388046 0.000000 -0.000000 0.000000
 23 0.000011 -5.381657 -154.110336 -0.034538 -0.005058 -0.145357
time 13
  0 4.103849 8.412075 291.691650 0.000000 -0.000000 0.000000
  1 4.103849 40.392963 140.955078 0.000000 0.000000 0.157080
  2 -0.186268 0.167362 -1.425583 -0.260058 0.071497 -0.017229
  3 0.923380 -2.004173 -52.426414 -0.277260 -0.013949 0.002444
  4 0.209927 0.167362 2.417709 0.103296 -0.002539 -0.000022
  5 -24.866180 -87.198044 -38.296623 0.087266 0.000000 0.000000
  6 -0.737603 -0.548840 40.203659 -0.070379 0.133015 -0.081757
  7 2.553312 7.297703 96.216171 0.000000 -0.000000 0.000000
  8 25.337778 -9.646734 2.086914 -0.000011 -0.139632 -0.000607
  9 -23.810328 -7.093723 2.086899 -0.226045 0.064723 0.026189
 10 -7.352507 52.005501 -48.397385 -0.807838 -0.042298 -0.116905
 11 -0.684170 -0.276031 30.967377 0.000000 -0.000000 0.000000
 12 -13.534458 -1.160923 22.015198 -2.675755 0.126519 -0.086550
 13 -20.972828 -0.005867 -27.595085 0.000000 0.209439 0.000000
 14 -18.070225 -6.045792 -20.586182 1.618406 -0.172146 -0.900554
 15 5.932709 -5.752609 0.181633 0.081626 0.974409 0.016749
 16 0.492638 -33.874802 19.443924 0.000000 -0.000000 0.000000
 17 0.000015 -0.000015 -0.000015 0.000000 0.000000 0.000000
 18 12.176292 -0.829266 23.085022 -2.354101 -1.136711 -0.321812
 19 23.438751 1.362892 -28.210823 0.287996 0.520685 -0.354550
 20 17.520035 -4.855556 -21.387661 -0.559663 -0.318451 0.327741
 21 6.597031 5.855778 -9.931335 0.000000 -0.000000 0.000000
 22 -0.072889 -1.214046 9.388046 0.000000 -0.000000 0.000000
 23 0.000010 -5.381660 -154.110336 -0.034538 -0.005058 -0.145357
time 14
  0 4.103849 8.412075 291.691650 0.000000 -0.000000 0.000000
  1 4.103849 39.858776 140.955078 0.000000 0.000000 0.157080
  2 -0.186268 0.167362 -1.425583 -0.252064 0.070280 -0.016936
  3 0.923379 -2.004179 -52.426407 -0.283965 -0.012900 0.002402
  4 0.209927 0.167362 2.417709 0.102712 -0.002446 -0.000021
  5 -25.438608 -90.772400 -37.934059 0.087266 0.000000 0.000000
  6 -0.737603 -0.548836 40.203674 -0.070379 0.133015 -0.081757
  7 2.553316 7.297703 96.216125 0.000000 -0.000000 0.000000
  8 25.337774 -9.646729 2.086914 -0.000011 -0.139632 -0.000607
  9 -23.810333 -7.093716 2.086914 -0.226045 0.064723 0.026189
 10 -7.352510 52.005489 -48.397369 -0.802631 -0.042307 -0.116375
 11 -0.684170 -0.276028 30.967377 0.000000 -0.000000 0.000000
 12 -13.534460 -1.160923 22.015198 -2.658426 0.124365 -0.085076
 13 -20.972832 -0.005859 -27.595078 0.000000 0.209439 -0.000000
 14 -18.070221 -6.045799 -20.586182 1.618406 -0.172146 -0.900554
 15 5.932705 -5.752594 0.181625 0.081625 0.974409 0.016749
 16 0.492630 -33.874802 19.443939 0.000000 -0.000000 0.000000
 17 0.000015 -0.000015 -0.000015 0.000000 -0.000000 0.000000
 18 12.176292 -0.829269 23.085037 -2.335898 -1.126602 -0.337354
 19 23.438766 1.362877 -28.210823 0.287996 0.520686 -0.354550
 20 17.520035 -4.855558 -21.387661 -0.559663 -0.318451 0.327741
 21 6.597031 5.855778 -9.931335 0.000000 -0.000000 0.000000
 22 -0.072890 -1.214043 9.388046 0.000000 -0.000000 0.000000
 23 0.000010 -5.381660 -154.110336 -0.034538 -0.005058 -0.145357
time 15
  0 4.103849 8.412075 291.691650 0.000000 -0.000000 0.000000
  1 4.103849 39.035301 140.955078 0.000000 0.000000 0.157080
  2 -0.186268 0.167362 -1.425583 -0.239740 0.068403 -0.016484
  3 0.923380 -2.004177 -52.426399 -0.290528 -0.011873 0.002338
  4 0.209927 0.167362 2.417709 0.102039 -0.002340 -0.000020
  5 -25.391571 -90.475670 -37.964119 0.087266 0.000000 0.000000
  6 -0.737604 -0.548843 40.203659 -0.070379 0.133015 -0.081757
  7 2.553312 7.297703 96.216141 0.000000 -0.000000 0.000000
  8 25.337774 -9.646732 2.086914 -0.000011 -0.139632 -0.000607
  9 -23.810329 -7.093716 2.086914 -0.226045 0.064723 0.026189
 10 -7.352509 52.005497 -48.397369 -0.790992 -0.042325 -0.115192
 11 -0.684172 -0.276031 30.967392 0.000000 -0.000000 0.000000
 12 -13.534457 -1.160919 22.015213 -2.631713 0.121044 -0.082804
 13 -20.972828 -0.005859 -27.595070 -0.000000 0.209439 0.000000
 14 -18.070221 -6.045799 -20.586166 1.618406 -0.172146 -0.900554
 15 5.932701 -5.752609 0.181641 0.081625 0.974409 0.016749
 16 0.492622 -33.874817 19.443939 0.000000 -0.000000 -0.000000
 17 0.000015 0.000000 0.000000 -0.000000 0.000000 0.000000
 18 12.176293 -0.829269 23.085022 -2.307777 -1.110980 -0.361313
 19 23.438751 1.362877 -28.210819 0.287996 0.520685 -0.354550
 20 17.520035 -4.855561 -21.387661 -0.559663 -0.318451 0.327741
 21 6.597015 5.855778 -9.931335 0.000000 -0.000000 0.000000
 22 -0.072889 -1.214046 9.388031 0.000000 -0.000000 0.000000
 23 0.000010 -5.381660 -154.110336 -0.034538 -0.005058 -0.145357
time 16
  0 4.103849 8.412075 291.691650 0.000000 -0.000000 0.000000
  1 4.103849 37.953194 140.955078 0.000000 0.000000 0.157080
  2 -0.186268 0.167366 -1.425583 -0.223546 0.065937 -0.015889
  3 0.923380 -2.004179 -52.426407 -0.296934 -0.010872 0.002254
  4 0.209926 0.167366 2.417709 0.101287 -0.002221 -0.000019
  5 -24.989782 -87.952301 -38.219887 0.087266 0.000000 0.000000
  6 -0.737604 -0.548843 40.203659 -0.070379 0.133015 -0.081757
  7 2.553308 7.297703 96.216156 0.000000 -0.000000 0.000000
  8 25.337778 -9.646732 2.086914 -0.000011 -0.139632 -0.000607
  9 -23.810335 -7.093719 2.086914 -0.226045 0.064723 0.026189
 10 -7.352510 52.005486 -48.397400 -0.773546 -0.042353 -0.113417
 11 -0.684172 -0.276031 30.967377 0.000000 -0.000000 0.000000
 12 -13.534459 -1.160923 22.015198 -2.596610 0.116680 -0.079819
 13 -20.972832 -0.005867 -27.595078 -0.000000 0.209439 -0.000000
 14 -18.070225 -6.045799 -20.586166 1.618406 -0.172146 -0.900554
 15 5.932713 -5.752609 0.181625 0.081625 0.974410 0.016749
 16 0.492638 -33.874802 19.443947 0.000000 -0.000000 0.000000
 17 0.000015 0.000000 0.000000 0.000000 -0.000000 0.000000
 18 12.176293 -0.829277 23.085007 -2.270738 -1.090397 -0.392796
 19 23.438766 1.362877 -28.210823 0.287996 0.520685 -0.354550
 20 17.520035 -4.855564 -21.387657 -0.559663 -0.318451 0.327741
 21 6.597031 5.855774 -9.931335 0.000000 -0.000000 0.000000
 22 -0.072889 -1.214050 9.388016 0.000000 -0.000000 0.000000
 23 0.000010 -5.381664 -154.110336 -0.034538 -0.005058 -0.145357
time 17
  0 4.103849 8.412075 291.691650 0.000000 -0.000000 0.000000
  1 4.103849 36.643105 140.955078 0.000000 0.000000 0.157080
  2 -0.186268 0.167366 -1.425583 -0.203940 0.062951 -0.015170
  3 0.923380 -2.004177 -52.426399 -0.303166 -0.009897 0.002152
  4 0.209927 0.167366 2.417709 0.100467 -0.002091 -0.000018
  5 -24.286510 -83.535492 -38.667542 0.087267 0.000000 0.000000
  6 -0.737604 -0.548836 40.203659 -0.070379 0.133015 -0.081757
  7 2.553310 7.297699 96.216156 0.000000 -0.000000 0.000000
  8 25.337776 -9.646734 2.086914 -0.000011 -0.139632 -0.000607
  9 -23.810328 -7.093721 2.086914 -0.226045 0.064723 0.026189
 10 -7.352510 52.005505 -48.397400 -0.750916 -0.042389 -0.111115
 11 -0.684172 -0.276031 30.967377 0.000000 -0.000000 0.000000
 12 -13.534458 -1.160919 22.015198 -2.554112 0.111396 -0.076204
 13 -20.972828 -0.005859 -27.595078 -0.000000 0.209439 -0.000000
 14 -18.070221 -6.045792 -20.586166 1.618406 -0.172146 -0.900554
 15 5.932705 -5.752625 0.181641 0.081625 0.974409 0.016749
 16 0.492630 -33.874771 19.443939 0.000000 -0.000000 0.000000
 17 0.000015 0.000000 -0.000015 -0.000000 -0.000000 -0.000000
 18 12.176291 -0.829269 23.085007 -2.225779 -1.065402 -0.430912
 19 23.438751 1.362877 -28.210819 0.287996 0.520685 -0.354550
 20 17.520035 -4.855556 -21.387657 -0.559663 -0.318451 0.327741
 21 6.597046 5.855782 -9.931335 0.000000 -0.000000 0.000000
 22 -0.072891 -1.214043 9.388031 0.000000 -0.000000 0.000000
 23 0.000010 -5.381664 -154.110336 -0.034538 -0.005058 -0.145357
time 18
  0 4.103849 8.412075 291.691650 0.000000 -0.000000 0.000000
  1 4.103849 35.135689 140.955078 0.000000 0.000000 0.157080
  2 -0.186268 0.167366 -1.425583 -0.181380 0.059516 -0.014342
  3 0.923380 -2.004177 -52.426407 -0.309206 -0.008953 0.002034
  4 0.209927 0.167366 2.417709 0.099592 -0.001952 -0.000017
  5 -23.316589 -77.443977 -39.284943 0.087266 0.000000 0.000000
  6 -0.737603 -0.548840 40.203674 -0.070379 0.133015 -0.081757
  7 2.553312 7.297703 96.216156 0.000000 -0.000000 0.000000
  8 25.337776 -9.646734 2.086899 -0.000011 -0.139632 -0.000608
  9 -23.810329 -7.093723 2.086899 -0.226045 0.064723 0.026189
 10 -7.352507 52.005501 -48.397400 -0.723726 -0.042432 -0.108349
 11 -0.684170 -0.276031 30.967377 0.000000 -0.000000 0.000000
 12 -13.534458 -1.160923 22.015213 -2.505212 0.105317 -0.072046
 13 -20.972828 -0.005859 -27.595085 0.000000 0.209439 0.000000
 14 -18.070225 -6.045792 -20.586166 1.618406 -0.172146 -0.900554
 15 5.932709 -5.752609 0.181648 0.081625 0.974410 0.016749
 16 0.492615 -33.874817 19.443939 0.000000 -0.000000 0.000000
 17 0.000015 -0.000015 -0.000015 -0.000000 -0.000000 -0.000000
 18 12.176294 -0.829273 23.085022 -2.173898 -1.036547 -0.474770
 19 23.438751 1.362885 -28.210823 0.287996 0.520685 -0.354550
 20 17.520035 -4.855557 -21.387657 -0.559663 -0.318451 0.327741
 21 6.597031 5.855789 -9.931335 0.000000 -0.000000 0.000000
 22 -0.072889 -1.214046 9.388031 0.000000 -0.000000 0.000000
 23 0.000010 -5.381662 -154.110336 -0.034538 -0.005058 -0.145357
time 19
  0 4.103849 8.412075 291.691650 0.000000 -0.000000 0.000000
  1 4.103849 33.461601 140.955078 0.000000 0.000000 0.157080
  2 -0.186268 0.167366 -1.425583 -0.156327 0.055701 -0.013422
  3 0.923380 -2.004176 -52.426407 -0.315039 -0.008041 0.001904
  4 0.209927 0.167366 2.417709 0.098673 -0.001807 -0.000016
  5 -22.114847 -69.896431 -40.049927 0.087266 0.000000 0.000000
  6 -0.737602 -0.548840 40.203674 -0.070379 0.133015 -0.081757
  7 2.553314 7.297699 96.216171 0.000000 -0.000000 0.000000
  8 25.337780 -9.646734 2.086899 -0.000011 -0.139632 -0.000607
  9 -23.810331 -7.093723 2.086914 -0.226045 0.064723 0.026189
 10 -7.352507 52.005493 -48.397385 -0.692600 -0.042481 -0.105181
 11 -0.684170 -0.276031 30.967407 0.000000 -0.000000 0.000000
 12 -13.534459 -1.160923 22.015182 -2.450906 0.098566 -0.067427
 13 -20.972832 -0.005875 -27.595078 -0.000000 0.209439 -0.000000
 14 -18.070227 -6.045792 -20.586166 1.618406 -0.172146 -0.900554
 15 5.932709 -5.752609 0.181625 0.081626 0.974409 0.016749
 16 0.492615 -33.874817 19.443939 0.000000 -0.000000 0.000000
 17 0.000015 -0.000015 -0.000015 0.000000 -0.000000 0.000000
 18 12.176295 -0.829273 23.085007 -2.116095 -1.004383 -0.523476
 19 23.438751 1.362885 -28.210814 0.287996 0.520685 -0.354550
 20 17.520035 -4.855553 -21.387650 -0.559663 -0.318451 0.327741
 21 6.597031 5.855782 -9.931332 0.000000 -0.000000 0.000000
 22 -0.072889 -1.214046 9.388031 0.000000 -0.000000 0.000000
 23 0.000010 -5.381662 -154.110336 -0.034538 -0.005058 -0.145357
time 20
  0 4.103849 8.412075 291.691650 0.000000 -0.000000 0.000000
  1 4.103849 31.651489 140.955078 0.000000 0.000000 0.157080
  2 -0.186267 0.167364 -1.425583 -0.129237 0.051575 -0.012428
  3 0.923379 -2.004174 -52.426407 -0.320648 -0.007164 0.001763
  4 0.209928 0.167366 2.417709 0.097720 -0.001656 -0.000014
  5 -20.716106 -61.111534 -40.940300 0.087266 0.000000 -0.000000
  6 -0.737603 -0.548840 40.203690 -0.070379 0.133015 -0.081757
  7 2.553314 7.297699 96.216141 0.000000 -0.000000 0.000000
  8 25.337780 -9.646732 2.086899 -0.000011 -0.139632 -0.000607
  9 -23.810329 -7.093723 2.086899 -0.226045 0.064723 0.026189
 10 -7.352512 52.005486 -48.397385 -0.658161 -0.042535 -0.101676
 11 -0.684172 -0.276030 30.967377 0.000000 -0.000000 0.000000
 12 -13.534459 -1.160919 22.015198 -2.392187 0.091266 -0.062433
 13 -20.972830 -0.005875 -27.595070 -0.000000 0.209439 0.000000
 14 -18.070225 -6.045807 -20.586174 1.618406 -0.172146 -0.900554
 15 5.932701 -5.752594 0.181633 0.081626 0.974410 0.016749
 16 0.492615 -33.874817 19.443939 0.000000 -0.000000 0.000000
 17 0.000015 -0.000015 0.000000 -0.000000 -0.000000 -0.000000
 18 12.176295 -0.829269 23.085037 -2.053367 -0.969459 -0.576141
 19 23.438751 1.362877 -28.210825 0.287996 0.520685 -0.354550
 20 17.520035 -4.855566 -21.387669 -0.559663 -0.318451 0.327741
 21 6.597031 5.855782 -9.931343 0.000000 -0.000000 0.000000
 22 -0.072889 -1.214046 9.388046 0.000000 -0.000000 0.000000
 23 0.000010 -5.381660 -154.110336 -0.034538 -0.005058 -0.145357
time 21
  0 4.103849 8.412075 291.691650 0.000000 -0.000000 0.000000
  1 4.103849 29.736010 140.955078 0.000000 0.000000 0.157080
  2 -0.186268 0.167364 -1.425583 -0.100571 0.047210 -0.011376
  3 0.923380 -2.004176 -52.426392 -0.326015 -0.006325 0.001614
  4 0.209927 0.167366 2.417709 0.096746 -0.001502 -0.000013
  5 -19.155195 -51.307995 -41.933937 0.087266 0.000000 0.000000
  6 -0.737602 -0.548840 40.203659 -0.070379 0.133015 -0.081757
  7 2.553310 7.297703 96.216141 0.000000 -0.000000 0.000000
  8 25.337778 -9.646736 2.086899 -0.000011 -0.139632 -0.000607
  9 -23.810333 -7.093719 2.086899 -0.226045 0.064723 0.026189
 10 -7.352510 52.005497 -48.397385 -0.621034 -0.042593 -0.097896
 11 -0.684170 -0.276030 30.967377 0.000000 -0.000000 0.000000
 12 -13.534458 -1.160923 22.015182 -2.330051 0.083541 -0.057149
 13 -20.972828 -0.005844 -27.595070 -0.000000 0.209439 -0.000000
 14 -18.070227 -6.045792 -20.586166 1.618406 -0.172146 -0.900554
 15 5.932701 -5.752609 0.181641 0.081626 0.974409 0.016749
 16 0.492615 -33.874802 19.443939 -0.000000 -0.000000 -0.000000
 17 0.000015 -0.000015 -0.000015 -0.000000 -0.000000 0.000000
 18 12.176294 -0.829273 23.085007 -1.986714 -0.932328 -0.631871
 19 23.438759 1.362869 -28.210815 0.287996 0.520685 -0.354550
 20 17.520050 -4.855564 -21.387650 -0.559663 -0.318451 0.327741
 21 6.597031 5.855774 -9.931335 0.000000 -0.000000 0.000000
 22 -0.072889 -1.214046 9.388016 0.000000 -0.000000 0.000000
 23 0.000010 -5.381660 -154.110336 -0.034538 -0.005058 -0.145357
time 22
  0 4.103849 8.412075 291.691650 0.000000 -0.000000 0.000000
  1 4.103849 27.745813 140.955078 0.000000 0.000000 0.157080
  2 -0.186268 0.167364 -1.425583 -0.070787 0.042674 -0.010283
  3 0.923381 -2.004169 -52.426399 -0.331125 -0.005527 0.001459
  4 0.209927 0.167366 2.417709 0.095763 -0.001346 -0.000012
  5 -17.466953 -40.704517 -43.008644 0.087266 0.000000 0.000000
  6 -0.737604 -0.548840 40.203659 -0.070379 0.133015 -0.081757
  7 2.553312 7.297703 96.216125 0.000000 -0.000000 0.000000
  8 25.337776 -9.646732 2.086914 -0.000011 -0.139632 -0.000607
  9 -23.810333 -7.093719 2.086899 -0.226045 0.064723 0.026189
 10 -7.352510 52.005497 -48.397385 -0.581841 -0.042654 -0.093904
 11 -0.684170 -0.276028 30.967377 0.000000 -0.000000 0.000000
 12 -13.534459 -1.160923 22.015182 -2.265490 0.075515 -0.051658
 13 -20.972834 -0.005859 -27.595078 -0.000000 0.209439 -0.000000
 14 -18.070221 -6.045776 -20.586174 1.618406 -0.172146 -0.900554
 15 5.932701 -5.752609 0.181641 0.081626 0.974410 0.016749
 16 0.492615 -33.874802 19.443954 0.000000 0.000000 0.000000
 17 0.000015 -0.000015 0.000000 -0.000000 -0.000000 -0.000000
 18 12.176294 -0.829269 23.085022 -1.917134 -0.893539 -0.689774
 19 23.438766 1.362885 -28.210827 0.287996 0.520685 -0.354550
 20 17.520050 -4.855556 -21.387657 -0.559663 -0.318451 0.327741
 21 6.597031 5.855789 -9.931335 0.000000 -0.000000 0.000000
 22 -0.072891 -1.214046 9.388031 0.000000 -0.000000 0.000000
 23 0.000010 -5.381660 -154.110336 -0.034538 -0.005058 -0.145357
time 23
  0 4.103849 8.412075 291.691650 0.000000 -0.000000 0.000000
  1 4.103849 25.711552 140.955078 0.000000 0.000000 0.157080
  2 -0.186267 0.167364 -1.425583 -0.040343 0.038038 -0.009166
  3 0.923380 -2.004175 -52.426414 -0.335961 -0.004771 0.001300
  4 0.209927 0.167366 2.417709 0.094780 -0.001190 -0.000010
  5 -15.686193 -29.519773 -44.142242 0.087266 0.000000 0.000000
  6 -0.737603 -0.548840 40.203674 -0.070379 0.133015 -0.081757
  7 2.553312 7.297705 96.216125 0.000000 -0.000000 0.000000
  8 25.337776 -9.646732 2.086914 -0.000011 -0.139632 -0.000607
  9 -23.810331 -7.093721 2.086899 -0.226045 0.064723 0.026189
 10 -7.352510 52.005486 -48.397385 -0.541208 -0.042717 -0.089764
 11 -0.684172 -0.276030 30.967377 0.000000 -0.000000 0.000000
 12 -13.534458 -1.160919 22.015198 -2.199500 0.067311 -0.046046
 13 -20.972832 -0.005875 -27.595062 -0.000000 0.209439 0.000000
 14 -18.070229 -6.045792 -20.586166 1.618406 -0.172146 -0.900554
 15 5.932693 -5.752594 0.181641 0.081626 0.974410 0.016749
 16 0.492607 -33.874802 19.443939 0.000000 -0.000000 -0.000000
 17 0.000015 -0.000015 0.000000 -0.000000 0.000000 -0.000000
 18 12.176293 -0.829266 23.085022 -1.845625 -0.853643 -0.748960
 19 23.438766 1.362885 -28.210825 0.287996 0.520685 -0.354550
 20 17.520035 -4.855556 -21.387657 -0.559663 -0.318451 0.327741
 21 6.597046 5.855782 -9.931335 0.000000 -0.000000 0.000000
 22 -0.072890 -1.214046 9.388031 0.000000 -0.000000 0.000000
 23 0.000010 -5.381660 -154.110336 -0.034538 -0.005058 -0.145357
time 24
  0 4.103849 8.412075 291.691650 0.000000 -0.000000 0.000000
  1 4.103849 23.663885 140.955078 0.000000 0.000000 0.157080
  2 -0.186268 0.167364 -1.425583 -0.009698 0.033371 -0.008042
  3 0.923380 -2.004175 -52.426414 -0.340505 -0.004061 0.001141
  4 0.209927 0.167366 2.417709 0.093811 -0.001037 -0.000009
  5 -13.847751 -17.972477 -45.312599 0.087266 0.000000 0.000000
  6 -0.737604 -0.548843 40.203659 -0.070379 0.133015 -0.081757
  7 2.553310 7.297699 96.216110 0.000000 -0.000000 0.000000
  8 25.337776 -9.646734 2.086899 -0.000011 -0.139632 -0.000607
  9 -23.810329 -7.093723 2.086884 -0.226045 0.064723 0.026189
 10 -7.352509 52.005497 -48.397385 -0.499758 -0.042781 -0.085539
 11 -0.684170 -0.276031 30.967377 0.000000 -0.000000 0.000000
 12 -13.534459 -1.160923 22.015198 -2.133075 0.059053 -0.040397
 13 -20.972828 -0.005859 -27.595070 0.000000 0.209439 -0.000000
 14 -18.070225 -6.045807 -20.586174 1.618406 -0.172146 -0.900554
 15 5.932693 -5.752594 0.181641 0.081626 0.974410 0.016749
 16 0.492596 -33.874794 19.443939 0.000000 0.000000 0.000000
 17 0.000008 -0.000015 -0.000015 -0.000000 -0.000000 -0.000000
 18 12.176293 -0.829269 23.085022 -1.773186 -0.813191 -0.808536
 19 23.438751 1.362869 -28.210817 0.287996 0.520685 -0.354550
 20 17.520035 -4.855553 -21.387657 -0.559663 -0.318451 0.327741
 21 6.597031 5.855782 -9.931335 0.000000 -0.000000 0.000000
 22 -0.072890 -1.214050 9.388031 0.000000 -0.000000 0.000000
 23 0.000011 -5.381662 -154.110336 -0.034538 -0.005058 -0.145357
time 25
  0 4.103849 8.412075 291.691650 0.000000 -0.000000 0.000000
  1 4.103849 21.633453 140.955078 0.000000 0.000000 0.157080
  2 -0.186267 0.167366 -1.425583 0.020688 0.028744 -0.006927
  3 0.923381 -2.004173 -52.426414 -0.344742 -0.003400 0.000983
  4 0.209928 0.167366 2.417709 0.092866 -0.000887 -0.000008
  5 -11.986454 -6.281334 -46.497536 0.087266 0.000000 -0.000000
  6 -0.737603 -0.548840 40.203659 -0.070379 0.133015 -0.081757
  7 2.553314 7.297699 96.216110 0.000000 -0.000000 0.000000
  8 25.337778 -9.646732 2.086884 -0.000011 -0.139632 -0.000607
  9 -23.810329 -7.093720 2.086884 -0.226045 0.064723 0.026189
 10 -7.352509 52.005489 -48.397400 -0.458114 -0.042845 -0.081293
 11 -0.684170 -0.276030 30.967361 0.000000 -0.000000 0.000000
 12 -13.534456 -1.160923 22.015198 -2.067210 0.050864 -0.034796
 13 -20.972828 -0.005859 -27.595085 0.000000 0.209439 -0.000000
 14 -18.070227 -6.045792 -20.586174 1.618406 -0.172146 -0.900554
 15 5.932693 -5.752602 0.181641 0.081626 0.974409 0.016749
 16 0.492603 -33.874802 19.443924 0.000000 -0.000000 -0.000000
 17 0.000015 -0.000015 -0.000015 0.000000 -0.000000 0.000000
 18 12.176291 -0.829269 23.085007 -1.700816 -0.772734 -0.867610
 19 23.438759 1.362885 -28.210823 0.287996 0.520685 -0.354550
 20 17.520035 -4.855560 -21.387665 -0.559663 -0.318451 0.327741
 21 6.597015 5.855782 -9.931339 0.000000 -0.000000 0.000000
 22 -0.072890 -1.214050 9.388046 0.000000 -0.000000 0.000000
 23 0.000011 -5.381660 -154.110336 -0.034538 -0.005058 -0.145357
time 26
  0 4.103849 8.412075 291.691650 0.000000 -0.000000 0.000000
  1 4.103849 19.650921 140.955078 0.000000 0.000000 0.157080
  2 -0.186267 0.167362 -1.425583 0.050358 0.024225 -0.005838
  3 0.923381 -2.004177 -52.426414 -0.348655 -0.002789 0.000828
  4 0.209927 0.167366 2.417709 0.091956 -0.000743 -0.000006
  5 -10.137128 5.335014 -47.674889 0.087266 0.000000 -0.000000
  6 -0.737604 -0.548840 40.203659 -0.070379 0.133015 -0.081757
  7 2.553312 7.297701 96.216095 0.000000 -0.000000 0.000000
  8 25.337774 -9.646732 2.086899 -0.000011 -0.139632 -0.000607
  9 -23.810329 -7.093719 2.086914 -0.226045 0.064723 0.026189
 10 -7.352512 52.005493 -48.397385 -0.416901 -0.042908 -0.077087
 11 -0.684170 -0.276031 30.967377 0.000000 -0.000000 0.000000
 12 -13.534457 -1.160923 22.015182 -2.002898 0.042869 -0.029326
 13 -20.972828 -0.005875 -27.595074 0.000000 0.209439 -0.000000
 14 -18.070230 -6.045792 -20.586166 1.618406 -0.172146 -0.900554
 15 5.932716 -5.752609 0.181641 0.081626 0.974410 0.016749
 16 0.492599 -33.874802 19.443924 -0.000000 0.000000 0.000000
 17 0.000015 -0.000015 -0.000015 -0.000000 -0.000000 0.000000
 18 12.176291 -0.829269 23.085022 -1.629514 -0.732823 -0.925290
 19 23.438759 1.362900 -28.210817 0.287996 0.520685 -0.354550
 20 17.520035 -4.855549 -21.387665 -0.559663 -0.318451 0.327741
 21 6.597031 5.855782 -9.931332 0.000000 -0.000000 0.000000
 22 -0.072890 -1.214048 9.388031 0.000000 -0.000000 0.000000
 23 0.000010 -5.381661 -154.110336 -0.034538 -0.005058 -0.145357
time 27
  0 4.103849 8.412075 291.691650 0.000000 -0.000000 0.000000
  1 4.103849 17.746935 140.955078 0.000000 0.000000 0.157080
  2 -0.186268 0.167364 -1.425583 0.078852 0.019886 -0.004792
  3 0.923380 -2.004171 -52.426414 -0.352226 -0.002231 0.000680
  4 0.209926 0.167368 2.417709 0.091094 -0.000606 -0.000005
  5 -8.334602 16.657825 -48.822487 0.087266 0.000000 -0.000000
  6 -0.737603 -0.548838 40.203674 -0.070379 0.133015 -0.081757
  7 2.553314 7.297703 96.216141 0.000000 -0.000000 0.000000
  8 25.337774 -9.646733 2.086914 -0.000011 -0.139632 -0.000607
  9 -23.810333 -7.093720 2.086899 -0.226045 0.064723 0.026189
 10 -7.352512 52.005489 -48.397385 -0.376742 -0.042968 -0.072987
 11 -0.684172 -0.276030 30.967392 0.000000 -0.000000 0.000000
 12 -13.534458 -1.160923 22.015182 -1.941134 0.035191 -0.024073
 13 -20.972832 -0.005875 -27.595078 -0.000000 0.209439 -0.000000
 14 -18.070221 -6.045792 -20.586174 1.618406 -0.172146 -0.900554
 15 5.932716 -5.752609 0.181641 0.081626 0.974410 0.016749
 16 0.492603 -33.874809 19.443924 0.000000 -0.000000 0.000000
 17 0.000015 -0.000015 -0.000015 0.000000 -0.000000 -0.000000
 18 12.176294 -0.829269 23.085007 -1.560277 -0.694007 -0.980686
 19 23.438759 1.362885 -28.210825 0.287996 0.520685 -0.354550
 20 17.520035 -4.855556 -21.387672 -0.559663 -0.318451 0.327741
 21 6.597031 5.855789 -9.931337 0.000000 -0.000000 0.000000
 22 -0.072890 -1.214046 9.388031 0.000000 -0.000000 0.000000
 23 0.000010 -5.381659 -154.110336 -0.034538 -0.005058 -0.145357
time 28
  0 4.103849 8.412075 291.691650 0.000000 -0.000000 0.000000
  1 4.103849 15.952151 140.955078 0.000000 0.000000 0.157080
  2 -0.186267 0.167365 -1.425583 0.105712 0.015796 -0.003806
  3 0.923381 -2.004173 -52.426407 -0.355440 -0.001729 0.000540
  4 0.209927 0.167364 2.417709 0.090290 -0.000479 -0.000004
  5 -6.613705 27.468409 -49.918144 0.087266 0.000000 0.000000
  6 -0.737603 -0.548838 40.203674 -0.070379 0.133015 -0.081757
  7 2.553316 7.297702 96.216125 0.000000 -0.000000 0.000000
  8 25.337778 -9.646732 2.086929 -0.000011 -0.139632 -0.000607
  9 -23.810329 -7.093721 2.086914 -0.226045 0.064723 0.026189
 10 -7.352509 52.005493 -48.397385 -0.338261 -0.043026 -0.069054
 11 -0.684172 -0.276030 30.967392 0.000000 -0.000000 0.000000
 12 -13.534458 -1.160923 22.015198 -1.882913 0.027952 -0.019122
 13 -20.972828 -0.005875 -27.595078 0.000000 0.209439 -0.000000
 14 -18.070225 -6.045776 -20.586178 1.618406 -0.172146 -0.900554
 15 5.932693 -5.752609 0.181625 0.081626 0.974410 0.016749
 16 0.492615 -33.874809 19.443924 0.000000 -0.000000 0.000000
 17 0.000011 -0.000015 -0.000015 -0.000000 0.000000 0.000000
 18 12.176291 -0.829271 23.085022 -1.494104 -0.656838 -1.032904
 19 23.438759 1.362869 -28.210823 0.287996 0.520685 -0.354550
 20 17.520027 -4.855564 -21.387665 -0.559663 -0.318451 0.327741
 21 6.597031 5.855774 -9.931335 0.000000 -0.000000 0.000000
 22 -0.072890 -1.214048 9.388031 0.000000 -0.000000 0.000000
 23 0.000010 -5.381660 -154.110336 -0.034538 -0.005058 -0.145357
time 29
  0 4.103849 8.412075 291.691650 0.000000 -0.000000 0.000000
  1 4.103849 14.297221 140.955078 0.000000 0.000000 0.157080
  2 -0.186267 0.167364 -1.425583 0.130479 0.012024 -0.002898
  3 0.923381 -2.004173 -52.426414 -0.358279 -0.001286 0.000411
  4 0.209927 0.167365 2.417709 0.089557 -0.000363 -0.000003
  5 -5.009265 37.548080 -50.939713 0.087266 0.000000 0.000000
  6 -0.737603 -0.548836 40.203659 -0.070379 0.133015 -0.081757
  7 2.553310 7.297702 96.216156 0.000000 -0.000000 0.000000
  8 25.337774 -9.646732 2.086914 -0.000011 -0.139632 -0.000607
  9 -23.810324 -7.093720 2.086929 -0.226045 0.064723 0.026189
 10 -7.352509 52.005489 -48.397385 -0.302083 -0.043079 -0.065353
 11 -0.684172 -0.276029 30.967392 0.000000 -0.000000 0.000000
 12 -13.534458 -1.160919 22.015182 -1.829228 0.021278 -0.014556
 13 -20.972828 -0.005859 -27.595078 0.000000 0.209439 0.000000
 14 -18.070223 -6.045807 -20.586174 1.618406 -0.172146 -0.900554
 15 5.932716 -5.752609 0.181641 0.081626 0.974410 0.016749
 16 0.492603 -33.874794 19.443954 0.000000 -0.000000 -0.000000
 17 0.000015 -0.000015 -0.000015 0.000000 -0.000000 0.000000
 18 12.176290 -0.829266 23.085007 -1.431995 -0.621867 -1.081053
 19 23.438759 1.362854 -28.210823 0.287996 0.520685 -0.354550
 20 17.520035 -4.855553 -21.387665 -0.559663 -0.318451 0.327741
 21 6.597046 5.855789 -9.931335 0.000000 -0.000000 0.000000
 22 -0.072890 -1.214046 9.388031 0.000000 -0.000000 0.000000
 23 0.000010 -5.381660 -154.110336 -0.034538 -0.005058 -0.145357
time 30
  0 4.103849 8.412075 291.691650 0.000000 -0.000000 0.000000
  1 4.103849 12.812796 140.955078 0.000000 0.000000 0.157080
  2 -0.186268 0.167364 -1.425583 0.152695 0.008641 -0.002082
  3 0.923380 -2.004173 -52.426414 -0.360727 -0.000904 0.000296
  4 0.209926 0.167365 2.417709 0.088905 -0.000259 -0.000002
  5 -3.556104 46.678154 -51.865036 0.087266 0.000000 0.000000
  6 -0.737603 -0.548840 40.203674 -0.070379 0.133015 -0.081757
  7 2.553312 7.297703 96.216125 0.000000 -0.000000 0.000000
  8 25.337774 -9.646734 2.086914 -0.000011 -0.139632 -0.000607
  9 -23.810329 -7.093721 2.086914 -0.226045 0.064723 0.026189
 10 -7.352510 52.005501 -48.397369 -0.268829 -0.043126 -0.061946
 11 -0.684170 -0.276030 30.967392 0.000000 -0.000000 0.000000
 12 -13.534457 -1.160923 22.015198 -1.781074 0.015292 -0.010461
 13 -20.972828 -0.005875 -27.595074 -0.000000 0.209439 -0.000000
 14 -18.070215 -6.045792 -20.586170 1.618406 -0.172146 -0.900554
 15 5.932709 -5.752602 0.181641 0.081626 0.974410 0.016749
 16 0.492607 -33.874809 19.443939 0.000000 -0.000000 -0.000000
 17 0.000019 -0.000015 -0.000031 0.000000 -0.000000 0.000000
 18 12.176291 -0.829271 23.085007 -1.374946 -0.589644 -1.124242
 19 23.438766 1.362869 -28.210823 0.287996 0.520685 -0.354550
 20 17.520042 -4.855553 -21.387657 -0.559663 -0.318451 0.327741
 21 6.597038 5.855782 -9.931337 0.000000 -0.000000 0.000000
 22 -0.072890 -1.214048 9.388031 0.000000 -0.000000 0.000000
 23 0.000010 -5.381660 -154.110336 -0.034538 -0.005058 -0.145357
time 31
  0 4.103849 8.412075 291.691650 0.000000 -0.000000 0.000000
  1 4.103849 11.529529 140.955078 0.000000 0.000000 0.157080
  2 -0.186267 0.167365 -1.425583 0.171899 0.005716 -0.001378
  3 0.923380 -2.004173 -52.426414 -0.362768 -0.000585 0.000196
  4 0.209927 0.167364 2.417709 0.088345 -0.000171 -0.000001
  5 -2.289058 54.639919 -52.671936 0.087266 0.000000 0.000000
  6 -0.737603 -0.548840 40.203690 -0.070379 0.133015 -0.081757
  7 2.553316 7.297701 96.216156 0.000000 -0.000000 0.000000
  8 25.337774 -9.646732 2.086929 -0.000011 -0.139632 -0.000607
  9 -23.810331 -7.093721 2.086899 -0.226045 0.064723 0.026189
 10 -7.352510 52.005493 -48.397385 -0.239126 -0.043168 -0.058897
 11 -0.684170 -0.276031 30.967392 0.000000 -0.000000 0.000000
 12 -13.534460 -1.160923 22.015213 -1.739446 0.010117 -0.006921
 13 -20.972828 -0.005875 -27.595074 0.000000 0.209439 0.000000
 14 -18.070221 -6.045792 -20.586174 1.618406 -0.172146 -0.900554
 15 5.932701 -5.752609 0.181641 0.081626 0.974409 0.016749
 16 0.492607 -33.874802 19.443909 0.000000 -0.000000 0.000000
 17 0.000011 -0.000015 -0.000015 0.000000 0.000000 0.000000
 18 12.176294 -0.829271 23.085022 -1.323959 -0.560720 -1.161578
 19 23.438759 1.362885 -28.210823 0.287996 0.520686 -0.354550
 20 17.520035 -4.855553 -21.387665 -0.559663 -0.318451 0.327741
 21 6.597038 5.855774 -9.931339 0.000000 -0.000000 0.000000
 22 -0.072890 -1.214050 9.388031 0.000000 -0.000000 0.000000
 23 0.000010 -5.381660 -154.110336 -0.034538 -0.005058 -0.145357
time 32
  0 4.103849 8.412075 291.691650 0.000000 -0.000000 0.000000
  1 4.103849 10.478075 140.955078 0.000000 0.000000 0.157080
  2 -0.186268 0.167364 -1.425583 0.187635 0.003320 -0.000800
  3 0.923380 -2.004177 -52.426399 -0.364384 -0.000333 0.000114
  4 0.209926 0.167364 2.417709 0.087891 -0.000099 -0.000001
  5 -1.242951 61.214691 -53.338257 0.087266 0.000000 -0.000000
  6 -0.737603 -0.548838 40.203690 -0.070379 0.133015 -0.081757
  7 2.553307 7.297703 96.216141 0.000000 -0.000000 0.000000
  8 25.337776 -9.646733 2.086899 -0.000011 -0.139632 -0.000607
  9 -23.810328 -7.093721 2.086899 -0.226045 0.064723 0.026189
 10 -7.352510 52.005501 -48.397385 -0.213595 -0.043201 -0.056269
 11 -0.684172 -0.276030 30.967377 0.000000 -0.000000 0.000000
 12 -13.534458 -1.160921 22.015213 -1.705338 0.005876 -0.004020
 13 -20.972832 -0.005875 -27.595076 0.000000 0.209439 -0.000000
 14 -18.070221 -6.045792 -20.586174 1.618406 -0.172146 -0.900554
 15 5.932716 -5.752602 0.181625 0.081625 0.974409 0.016749
 16 0.492615 -33.874802 19.443939 -0.000000 0.000000 0.000000
 17 0.000015 -0.000008 -0.000015 -0.000000 0.000000 0.000000
 18 12.176294 -0.829269 23.085022 -1.280030 -0.535646 -1.192169
 19 23.438759 1.362885 -28.210831 0.287996 0.520685 -0.354550
 20 17.520042 -4.855568 -21.387665 -0.559663 -0.318451 0.327741
 21 6.597031 5.855782 -9.931341 0.000000 -0.000000 0.000000
 22 -0.072890 -1.214046 9.388031 0.000000 -0.000000 0.000000
 23 0.000010 -5.381660 -154.110336 -0.034538 -0.005058 -0.145357
time 33
  0 4.103849 8.412075 291.691650 0.000000 -0.000000 0.000000
  1 4.103849 9.689083 140.955078 0.000000 0.000000 0.157080
  2 -0.186267 0.167364 -1.425583 0.199443 0.001522 -0.000367
  3 0.923381 -2.004169 -52.426422 -0.365559 -0.000150 0.000052
  4 0.209927 0.167364 2.417709 0.087552 -0.000045 -0.000000
  5 -0.452609 66.183792 -53.841812 0.087266 0.000000 -0.000000
  6 -0.737603 -0.548840 40.203690 -0.070379 0.133015 -0.081757
  7 2.553314 7.297702 96.216141 0.000000 -0.000000 0.000000
  8 25.337776 -9.646733 2.086914 -0.000011 -0.139632 -0.000607
  9 -23.810329 -7.093720 2.086914 -0.226045 0.064723 0.026189
 10 -7.352512 52.005497 -48.397369 -0.192862 -0.043227 -0.054125
 11 -0.684170 -0.276031 30.967392 0.000000 -0.000000 0.000000
 12 -13.534458 -1.160923 22.015213 -1.679743 0.002694 -0.001843
 13 -20.972828 -0.005875 -27.595076 0.000000 0.209439 -0.000000
 14 -18.070225 -6.045792 -20.586172 1.618406 -0.172146 -0.900554
 15 5.932709 -5.752609 0.181641 0.081626 0.974410 0.016749
 16 0.492611 -33.874798 19.443954 0.000000 -0.000000 -0.000000
 17 0.000011 -0.000015 -0.000015 0.000000 -0.000000 -0.000000
 18 12.176294 -0.829271 23.085037 -1.244158 -0.514972 -1.215125
 19 23.438759 1.362869 -28.210819 0.287996 0.520686 -0.354550
 20 17.520042 -4.855568 -21.387657 -0.559663 -0.318451 0.327741
 21 6.597038 5.855774 -9.931337 0.000000 -0.000000 0.000000
 22 -0.072890 -1.214050 9.388046 0.000000 -0.000000 0.000000
 23 0.000010 -5.381660 -154.110336 -0.034538 -0.005058 -0.145357
time 34
  0 4.103849 8.412075 291.691650 0.000000 -0.000000 0.000000
  1 4.103849 9.193208 140.955078 0.000000 0.000000 0.157080
  2 -0.186268 0.167364 -1.425583 0.206864 0.000392 -0.000095
  3 0.923379 -2.004177 -52.426414 -0.366276 -0.000038 0.000014
  4 0.209927 0.167364 2.417709 0.087340 -0.000012 -0.000000
  5 0.047133 69.328476 -54.160469 0.087266 0.000000 0.000000
  6 -0.737602 -0.548840 40.203674 -0.070379 0.133015 -0.081757
  7 2.553312 7.297703 96.216125 0.000000 -0.000000 0.000000
  8 25.337774 -9.646731 2.086899 -0.000011 -0.139632 -0.000607
  9 -23.810328 -7.093720 2.086899 -0.226045 0.064723 0.026189
 10 -7.352507 52.005489 -48.397400 -0.177550 -0.043243 -0.052528
 11 -0.684172 -0.276030 30.967377 0.000000 -0.000000 0.000000
 12 -13.534458 -1.160923 22.015198 -1.663658 0.000694 -0.000475
 13 -20.972832 -0.005859 -27.595078 -0.000000 0.209439 0.000000
 14 -18.070223 -6.045792 -20.586174 1.618406 -0.172146 -0.900554
 15 5.932701 -5.752602 0.181625 0.081626 0.974409 0.016749
 16 0.492611 -33.874802 19.443939 0.000000 -0.000000 0.000000
 17 0.000015 0.000000 -0.000015 0.000000 0.000000 -0.000000
 18 12.176292 -0.829269 23.085022 -1.217342 -0.499249 -1.229552
 19 23.438766 1.362854 -28.210815 0.287996 0.520685 -0.354550
 20 17.520035 -4.855549 -21.387680 -0.559663 -0.318451 0.327741
 21 6.597031 5.855789 -9.931339 0.000000 -0.000000 0.000000
 22 -0.072890 -1.214046 9.388031 0.000000 -0.000000 0.000000
 23 0.000010 -5.381661 -154.110336 -0.034538 -0.005058 -0.145357
time 35
  0 4.103849 8.412075 291.691650 0.000000 -0.000000 0.000000
  1 4.103849 9.021107 140.955078 0.000000 0.000000 0.157080
  2 -0.186267 0.167364 -1.425583 0.209439 -0.000000 0.000000
  3 0.923380 -2.004173 -52.426399 -0.366519 0.000000 0.000000
  4 0.209927 0.167364 2.417709 0.087267 -0.000000 0.000000
  5 0.221455 70.430084 -54.272018 0.087266 0.000000 -0.000000
  6 -0.737603 -0.548840 40.203674 -0.070379 0.133015 -0.081757
  7 2.553312 7.297703 96.216141 0.000000 -0.000000 0.000000
  8 25.337776 -9.646731 2.086914 -0.000011 -0.139632 -0.000607
  9 -23.810326 -7.093721 2.086899 -0.226045 0.064723 0.026189
 10 -7.352507 52.005493 -48.397369 -0.168283 -0.043249 -0.051542
 11 -0.684170 -0.276031 30.967392 0.000000 -0.000000 0.000000
 12 -13.534458 -1.160923 22.015213 -1.658075 0.000000 -0.000000
 13 -20.972830 -0.005859 -27.595078 -0.000000 0.209439 0.000000
 14 -18.070223 -6.045792 -20.586172 1.618406 -0.172146 -0.900554
 15 5.932709 -5.752602 0.181625 0.081626 0.974410 0.016749
 16 0.492615 -33.874786 19.443924 0.000000 -0.000000 -0.000000
 17 0.000015 -0.000008 -0.000015 -0.000000 -0.000000 -0.000000
 18 12.176293 -0.829269 23.085022 -1.200580 -0.489028 -1.234559
 19 23.438751 1.362869 -28.210819 0.287996 0.520685 -0.354550
 20 17.520035 -4.855553 -21.387665 -0.559663 -0.318451 0.327741
 21 6.597031 5.855782 -9.931339 0.000000 -0.000000 0.000000
 22 -0.072890 -1.214046 9.388046 0.000000 -0.000000 0.000000
 23 0.000010 -5.381661 -154.110336 -0.034538 -0.005058 -0.145357
end
