version 1
nodes
  0 "bone_27"  -1
  1 "bone_29"   0
  2 "bone_30"   1
  3 "bone_26"   0
  4 "bone_3"   3
  5 "bone_28"   3
  6 "bone_7"   5
  7 "bone_10"   5
  8 "bone_11"   5
  9 "bone_12"   5
 10 "bone_13"   5
 11 "bone_0"   3
 12 "bone_14"  11
 13 "bone_1"  12
 14 "bone_5"  13
 15 "bone_16"  14
 16 "bone_18"  13
 17 "bone_15"  13
 18 "bone_23"   3
 19 "bone_24"  18
 20 "bone_2"  19
 21 "bone_19"  20
 22 "bone_20"   3
 23 "bone_34"   0
 24 "bone_33"   0
 25 "bone_21"  -1
end
skeleton
time 0
  0 2.650860 -0.017416 127.640564 0.000000 -0.000000 0.000000
  1 -0.186268 0.167365 -1.425583 -0.104720 -0.000000 0.000000
  2 0.923380 -2.004174 -52.426414 0.209440 0.000000 -0.000000
  3 0.209927 0.167365 2.417709 0.087267 0.000000 0.000000
  4 -0.585070 71.233528 -54.342323 0.087266 0.000000 0.000000
  5 -0.737603 -0.548838 40.203674 -0.069813 0.000000 0.000000
  6 2.553308 7.297700 96.216095 0.000000 -0.000000 0.000000
  7 25.337772 -9.646730 2.086899 -0.000011 -0.139632 -0.000607
  8 -23.810328 -7.093719 2.086884 -0.226045 0.064723 0.026189
  9 -7.352506 52.005478 -48.397385 0.261799 0.000000 -0.000000
 10 -0.684172 -0.276031 30.967361 0.000000 -0.000000 0.000000
 11 -13.534456 -1.160922 22.015198 3.019416 -0.000000 0.000000
 12 -20.972828 -0.005868 -27.595047 0.000000 0.209439 -0.000000
 13 -18.070229 -6.045794 -20.586197 2.577424 0.599609 -0.374444
 14 5.932732 -5.752617 0.181671 -1.147835 0.866904 -0.065273
 15 153.364700 62.140045 16.877798 1.078144 0.001989 0.109675
 16 0.671982 2.506058 -6.693924 0.000000 -0.000000 0.000000
 17 18.407478 -176.793945 8.075241 -0.009445 0.966446 0.010673
 18 12.176291 -0.829270 23.085007 -0.330962 0.156863 0.008289
 19 23.438763 1.362865 -28.210815 0.622482 0.147093 -0.046223
 20 17.520044 -4.855526 -21.387657 -0.559663 -0.318451 0.327741
 21 6.597050 5.855791 -9.931351 0.000000 -0.000000 0.000000
 22 -0.072890 -1.214047 9.388031 0.000000 -0.000000 0.000000
 23 0.000011 -5.381660 -154.110336 -0.034538 -0.005058 -0.145357
 24 0.000011 -5.381660 -154.110336 -0.034538 -0.005058 -0.145357
 25 2.650860 -0.017416 279.065491 0.000000 -0.000000 0.000000
time 1
  0 2.650860 -0.017416 126.650154 0.000000 -0.000000 0.000000
  1 -0.186268 0.167365 -1.425583 -0.128317 0.000000 0.000000
  2 0.923381 -2.004173 -52.426407 0.250923 -0.000000 0.000000
  3 0.209927 0.167365 2.417702 0.097386 0.000000 0.000000
  4 -0.585070 71.233536 -54.342300 0.087266 0.000000 0.000000
  5 -0.737603 -0.548839 40.203690 -0.069813 0.000000 -0.000000
  6 2.553308 7.297701 96.216141 0.000000 -0.000000 0.000000
  7 25.337772 -9.646730 2.086899 -0.000011 -0.139632 -0.000607
  8 -23.810328 -7.093719 2.086899 -0.226045 0.064723 0.026189
  9 -7.352506 52.005486 -48.397369 0.247010 -0.000000 0.000000
 10 -0.684172 -0.276030 30.967392 0.000000 -0.000000 0.000000
 11 -13.534456 -1.160922 22.015213 3.019416 -0.000000 0.000000
 12 -20.972828 -0.005867 -27.595078 0.000000 0.209439 0.000000
 13 -18.070234 -6.045794 -20.586182 2.577424 0.599609 -0.374444
 14 6.438797 -5.757103 0.793716 -1.147416 0.899154 -0.061775
 15 153.364761 62.140076 16.877789 1.078144 0.001989 0.109675
 16 0.671989 2.506065 -6.693909 0.000000 -0.000000 0.000000
 17 18.407455 -176.794006 8.075211 -0.009445 0.966446 0.010673
 18 12.176291 -0.829269 23.085037 -0.330962 0.156863 0.008289
 19 23.438763 1.362862 -28.210808 0.622482 0.147093 -0.046223
 20 17.520044 -4.855530 -21.387657 -0.559663 -0.318451 0.327741
 21 6.597046 5.855790 -9.931351 0.000000 -0.000000 0.000000
 22 -0.072890 -1.214047 9.388062 0.000000 -0.000000 0.000000
 23 0.000011 -5.381660 -154.110336 -0.034538 -0.005058 -0.145357
 24 0.000011 -5.381660 -154.110336 -0.034538 -0.005058 -0.145357
 25 2.650860 -0.017416 279.065491 0.000000 -0.000000 0.000000
time 2
  0 2.650860 -0.017416 123.768951 0.000000 -0.000000 0.000000
  1 -0.186268 0.167365 -1.425583 -0.189343 0.000000 0.000000
  2 0.923381 -2.004171 -52.426407 0.357837 -0.000000 0.000000
  3 0.209927 0.167365 2.417709 0.125193 0.000000 -0.000000
  4 -0.585070 71.233528 -54.342323 0.087266 0.000000 0.000000
  5 -0.737603 -0.548838 40.203674 -0.069813 0.000000 0.000000
  6 2.553308 7.297702 96.216125 0.000000 -0.000000 0.000000
  7 25.337772 -9.646730 2.086914 -0.000011 -0.139632 -0.000607
  8 -23.810328 -7.093720 2.086929 -0.226045 0.064723 0.026189
  9 -7.352507 52.005489 -48.397385 0.206369 -0.000000 0.000000
 10 -0.684172 -0.276030 30.967392 0.000000 -0.000000 0.000000
 11 -13.534456 -1.160922 22.015198 3.019416 -0.000000 0.000000
 12 -20.972828 -0.005867 -27.595078 -0.000000 0.209439 0.000000
 13 -18.070229 -6.045794 -20.586182 2.577424 0.599609 -0.374444
 14 7.866638 -5.773674 2.478851 -1.146262 0.987877 -0.052160
 15 153.364716 62.140060 16.877840 1.078144 0.001989 0.109675
 16 0.671982 2.506065 -6.693924 0.000000 -0.000000 0.000000
 17 18.407440 -176.793945 8.075226 -0.009445 0.966446 0.010673
 18 12.176291 -0.829270 23.085007 -0.330962 0.156863 0.008289
 19 23.438763 1.362865 -28.210808 0.622482 0.147093 -0.046223
 20 17.520044 -4.855526 -21.387657 -0.559663 -0.318451 0.327741
 21 6.597057 5.855791 -9.931351 0.000000 -0.000000 0.000000
 22 -0.072890 -1.214049 9.388031 0.000000 -0.000000 0.000000
 23 0.000011 -5.381660 -154.110336 -0.034538 -0.005058 -0.145357
 24 0.000011 -5.381660 -154.110336 -0.034538 -0.005058 -0.145357
 25 2.650860 -0.017416 279.065491 0.000000 -0.000000 0.000000
time 3
  0 2.650860 -0.017416 119.132019 0.000000 -0.000000 0.000000
  1 -0.186268 0.167365 -1.425583 -0.279663 0.000000 0.000000
  2 0.923381 -2.004173 -52.426403 0.515957 -0.000000 0.000000
  3 0.209927 0.167365 2.417709 0.166864 0.000000 0.000000
  4 -0.585070 71.233536 -54.342323 0.087266 0.000000 -0.000000
  5 -0.737603 -0.548838 40.203667 -0.069813 0.000000 -0.000000
  6 2.553308 7.297702 96.216156 0.000000 -0.000000 0.000000
  7 25.337774 -9.646730 2.086914 -0.000011 -0.139632 -0.000607
  8 -23.810326 -7.093719 2.086914 -0.226045 0.064723 0.026189
  9 -7.352507 52.005482 -48.397385 0.145465 0.000000 0.000000
 10 -0.684172 -0.276031 30.967377 0.000000 -0.000000 0.000000
 11 -13.534456 -1.160923 22.015205 3.019416 -0.000000 0.000000
 12 -20.972828 -0.005867 -27.595078 0.000000 0.209439 0.000000
 13 -18.070230 -6.045795 -20.586166 2.577424 0.599609 -0.374444
 14 10.080780 -5.806984 5.010437 -1.144533 1.121035 -0.037752
 15 153.364746 62.140045 16.877840 1.078144 0.001989 0.109675
 16 0.671974 2.506065 -6.693939 0.000000 -0.000000 0.000000
 17 18.407471 -176.793945 8.075256 -0.009445 0.966446 0.010673
 18 12.176291 -0.829271 23.085014 -0.330962 0.156863 0.008289
 19 23.438763 1.362864 -28.210808 0.622482 0.147093 -0.046223
 20 17.520041 -4.855526 -21.387657 -0.559663 -0.318451 0.327741
 21 6.597050 5.855795 -9.931358 0.000000 -0.000000 0.000000
 22 -0.072890 -1.214048 9.388039 0.000000 -0.000000 0.000000
 23 0.000011 -5.381660 -154.110336 -0.034538 -0.005058 -0.145357
 24 0.000011 -5.381660 -154.110336 -0.034538 -0.005058 -0.145357
 25 2.650860 -0.017416 279.065491 0.000000 -0.000000 0.000000
time 4
  0 2.650860 -0.017416 112.874413 0.000000 -0.000000 0.000000
  1 -0.186268 0.167365 -1.425583 -0.391143 0.000000 0.000000
  2 0.923380 -2.004173 -52.426399 0.711058 -0.000000 0.000000
  3 0.209927 0.167365 2.417709 0.218574 0.000000 0.000000
  4 -0.585070 71.233528 -54.342316 0.087266 0.000000 -0.000000
  5 -0.737603 -0.548840 40.203667 -0.069813 0.000000 -0.000000
  6 2.553308 7.297697 96.216125 0.000000 -0.000000 0.000000
  7 25.337772 -9.646730 2.086914 -0.000011 -0.139632 -0.000607
  8 -23.810328 -7.093721 2.086914 -0.226045 0.064723 0.026189
  9 -7.352507 52.005486 -48.397385 0.069888 -0.000000 0.000000
 10 -0.684172 -0.276030 30.967377 0.000000 -0.000000 0.000000
 11 -13.534456 -1.160921 22.015205 3.019416 -0.000000 0.000000
 12 -20.972828 -0.005867 -27.595078 -0.000000 0.209439 0.000000
 13 -18.070230 -6.045795 -20.586166 2.577424 0.599609 -0.374444
 14 12.945679 -5.861687 8.161942 -1.142389 1.286592 -0.019873
 15 153.364731 62.140030 16.877815 1.078144 0.001989 0.109675
 16 0.671982 2.506065 -6.693909 0.000000 -0.000000 0.000000
 17 18.407471 -176.794006 8.075226 -0.009445 0.966446 0.010673
 18 12.176291 -0.829271 23.085014 -0.330962 0.156863 0.008289
 19 23.438759 1.362864 -28.210808 0.622482 0.147093 -0.046223
 20 17.520044 -4.855530 -21.387665 -0.559663 -0.318451 0.327741
 21 6.597050 5.855791 -9.931358 0.000000 -0.000000 0.000000
 22 -0.072890 -1.214048 9.388031 0.000000 -0.000000 0.000000
 23 0.000011 -5.381660 -154.110336 -0.034538 -0.005058 -0.145357
 24 0.000011 -5.381660 -154.110336 -0.034538 -0.005058 -0.145357
 25 2.650860 -0.017416 279.065491 0.000000 -0.000000 0.000000
time 5
  0 2.650860 -0.017416 105.131187 0.000000 -0.000000 0.000000
  1 -0.186268 0.167365 -1.425583 -0.515649 0.000000 0.000000
  2 0.923380 -2.004173 -52.426399 0.928916 -0.000000 0.000000
  3 0.209927 0.167365 2.417709 0.276499 0.000000 0.000000
  4 -0.585070 71.233528 -54.342316 0.087266 0.000000 -0.000000
  5 -0.737603 -0.548836 40.203674 -0.069813 0.000000 -0.000000
  6 2.553308 7.297701 96.216125 0.000000 -0.000000 0.000000
  7 25.337772 -9.646732 2.086899 -0.000011 -0.139632 -0.000607
  8 -23.810328 -7.093721 2.086899 -0.226045 0.064723 0.026189
  9 -7.352507 52.005478 -48.397385 -0.014772 0.000000 0.000000
 10 -0.684172 -0.276031 30.967377 0.000000 -0.000000 0.000000
 11 -13.534456 -1.160919 22.015205 3.019416 0.000000 0.000000
 12 -20.972830 -0.005869 -27.595085 0.000000 0.209439 0.000000
 13 -18.070230 -6.045793 -20.586166 2.577424 0.599609 -0.374444
 14 16.325859 -5.942451 11.706757 -1.139986 1.472509 0.000155
 15 153.364761 62.139954 16.877831 1.078144 0.001989 0.109675
 16 0.671989 2.506062 -6.693924 0.000000 -0.000000 0.000000
 17 18.407471 -176.793945 8.075226 -0.009445 0.966446 0.010673
 18 12.176291 -0.829268 23.085022 -0.330962 0.156863 0.008289
 19 23.438765 1.362864 -28.210808 0.622482 0.147093 -0.046223
 20 17.520048 -4.855526 -21.387665 -0.559663 -0.318451 0.327741
 21 6.597042 5.855791 -9.931343 0.000000 -0.000000 0.000000
 22 -0.072890 -1.214046 9.388031 0.000000 -0.000000 0.000000
 23 0.000011 -5.381660 -154.110336 -0.034538 -0.005058 -0.145357
 24 0.000011 -5.381660 -154.110336 -0.034538 -0.005058 -0.145357
 25 2.650860 -0.017416 279.065491 0.000000 -0.000000 0.000000
time 6
  0 2.650860 -0.017416 96.037399 0.000000 -0.000000 0.000000
  1 -0.186268 0.167365 -1.425583 -0.645046 0.000000 0.000000
  2 0.923381 -2.004177 -52.426407 1.155307 -0.000000 0.000000
  3 0.209927 0.167365 2.417709 0.336815 0.000000 -0.000000
  4 -0.585070 71.233536 -54.342323 0.087266 0.000000 -0.000000
  5 -0.737603 -0.548840 40.203682 -0.069813 0.000000 -0.000000
  6 2.553308 7.297699 96.216125 0.000000 -0.000000 0.000000
  7 25.337774 -9.646729 2.086914 -0.000011 -0.139632 -0.000607
  8 -23.810326 -7.093716 2.086929 -0.226045 0.064723 0.026189
  9 -7.352507 52.005493 -48.397377 -0.102925 0.000000 0.000000
 10 -0.684172 -0.276028 30.967392 0.000000 -0.000000 0.000000
 11 -13.534456 -1.160923 22.015198 3.019416 0.000000 0.000000
 12 -20.972828 -0.005869 -27.595085 0.000000 0.209439 0.000000
 13 -18.070229 -6.045797 -20.586182 2.577424 0.599609 -0.374444
 14 20.085785 -6.053944 15.418335 -1.137484 1.666750 0.021010
 15 153.364746 62.139908 16.877855 1.078144 0.001989 0.109675
 16 0.671982 2.506069 -6.693924 0.000000 -0.000000 0.000000
 17 18.407471 -176.793976 8.075241 -0.009445 0.966446 0.010673
 18 12.176291 -0.829269 23.085022 -0.330962 0.156863 0.008289
 19 23.438763 1.362864 -28.210815 0.622483 0.147093 -0.046223
 20 17.520044 -4.855522 -21.387650 -0.559663 -0.318451 0.327741
 21 6.597054 5.855790 -9.931355 0.000000 -0.000000 0.000000
 22 -0.072890 -1.214050 9.388031 0.000000 -0.000000 0.000000
 23 0.000011 -5.381660 -154.110336 -0.034538 -0.005058 -0.145357
 24 0.000011 -5.381660 -154.110336 -0.034538 -0.005058 -0.145357
 25 2.650860 -0.017416 279.065491 0.000000 -0.000000 0.000000
time 7
  0 2.650860 -0.017416 85.728104 0.000000 -0.000000 0.000000
  1 -0.186268 0.167365 -1.425583 -0.771199 0.000000 0.000000
  2 0.923381 -2.004173 -52.426414 1.376005 -0.000000 0.000000
  3 0.209927 0.167365 2.417709 0.395696 0.000000 -0.000000
  4 -0.585070 71.233536 -54.342312 0.087267 0.000000 0.000000
  5 -0.737603 -0.548840 40.203674 -0.069813 0.000000 -0.000000
  6 2.553308 7.297697 96.216125 0.000000 -0.000000 0.000000
  7 25.337772 -9.646730 2.086914 -0.000011 -0.139632 -0.000607
  8 -23.810328 -7.093718 2.086914 -0.226045 0.064723 0.026189
  9 -7.352506 52.005486 -48.397385 -0.188982 0.000000 0.000000
 10 -0.684172 -0.276030 30.967392 0.000000 -0.000000 0.000000
 11 -13.534456 -1.160923 22.015205 3.019416 -0.000000 0.000000
 12 -20.972830 -0.005867 -27.595070 -0.000000 0.209439 -0.000000
 13 -18.070227 -6.045795 -20.586182 2.577424 0.599609 -0.374444
 14 24.089989 -6.200813 19.070084 -1.135041 1.857276 0.041370
 15 153.364700 62.139854 16.877850 1.078144 0.001989 0.109675
 16 0.671974 2.506065 -6.693909 0.000000 -0.000000 0.000000
 17 18.407440 -176.793991 8.075241 -0.009445 0.966446 0.010673
 18 12.176291 -0.829269 23.085030 -0.330962 0.156863 0.008289
 19 23.438766 1.362864 -28.210800 0.622482 0.147093 -0.046223
 20 17.520048 -4.855522 -21.387661 -0.559663 -0.318451 0.327741
 21 6.597046 5.855792 -9.931351 0.000000 -0.000000 0.000000
 22 -0.072890 -1.214046 9.388046 0.000000 -0.000000 0.000000
 23 0.000011 -5.381660 -154.110336 -0.034538 -0.005058 -0.145357
 24 0.000011 -5.381660 -154.110336 -0.034538 -0.005058 -0.145357
 25 2.650860 -0.017416 279.065491 0.000000 -0.000000 0.000000
time 8
  0 2.650860 -0.017416 74.338356 0.000000 -0.000000 0.000000
  1 -0.186268 0.167365 -1.425583 -0.885974 0.000000 0.000000
  2 0.923381 -2.004177 -52.426407 1.576787 -0.000000 0.000000
  3 0.209927 0.167365 2.417709 0.449319 0.000000 0.000000
  4 -0.585070 71.233521 -54.342312 0.087266 0.000000 -0.000000
  5 -0.737603 -0.548836 40.203674 -0.069813 0.000000 0.000000
  6 2.553308 7.297701 96.216110 0.000000 -0.000000 0.000000
  7 25.337774 -9.646730 2.086899 -0.000011 -0.139632 -0.000607
  8 -23.810326 -7.093719 2.086899 -0.226045 0.064723 0.026189
  9 -7.352506 52.005486 -48.397392 -0.267354 0.000000 0.000000
 10 -0.684172 -0.276028 30.967377 0.000000 -0.000000 0.000000
 11 -13.534456 -1.160919 22.015205 3.019416 -0.000000 0.000000
 12 -20.972828 -0.005867 -27.595070 -0.000000 0.209439 -0.000000
 13 -18.070232 -6.045795 -20.586174 2.577424 0.599609 -0.374444
 14 28.202934 -6.387726 22.435440 -1.132817 2.032049 0.059910
 15 153.364700 62.139851 16.877880 1.078144 0.001989 0.109675
 16 0.671982 2.506065 -6.693916 0.000000 -0.000000 0.000000
 17 18.407455 -176.793976 8.075226 -0.009445 0.966446 0.010673
 18 12.176291 -0.829269 23.085022 -0.330962 0.156863 0.008289
 19 23.438763 1.362863 -28.210808 0.622482 0.147093 -0.046223
 20 17.520042 -4.855530 -21.387657 -0.559663 -0.318451 0.327741
 21 6.597050 5.855788 -9.931355 0.000000 -0.000000 0.000000
 22 -0.072890 -1.214050 9.388039 0.000000 -0.000000 0.000000
 23 0.000011 -5.381660 -154.110336 -0.034538 -0.005058 -0.145357
 24 0.000011 -5.381660 -154.110336 -0.034538 -0.005058 -0.145357
 25 2.650860 -0.017416 279.065491 0.000000 -0.000000 0.000000
time 9
  0 2.650860 -0.017416 62.003223 0.000000 -0.000000 0.000000
  1 -0.186268 0.167365 -1.425587 -0.981238 0.000000 0.000000
  2 0.923381 -2.004177 -52.426407 1.743428 -0.000000 0.000000
  3 0.209927 0.167365 2.417706 0.493858 0.000000 -0.000000
  4 -0.585070 71.233521 -54.342319 0.087266 0.000000 -0.000000
  5 -0.737603 -0.548838 40.203663 -0.069813 0.000000 0.000000
  6 2.553308 7.297705 96.216125 0.000000 -0.000000 0.000000
  7 25.337772 -9.646730 2.086906 -0.000011 -0.139632 -0.000607
  8 -23.810329 -7.093721 2.086899 -0.226045 0.064723 0.026189
  9 -7.352506 52.005478 -48.397385 -0.332450 0.000000 0.000000
 10 -0.684172 -0.276030 30.967377 0.000000 -0.000000 0.000000
 11 -13.534456 -1.160923 22.015194 3.019416 0.000000 0.000000
 12 -20.972828 -0.005869 -27.595078 0.000000 0.209439 -0.000000
 13 -18.070230 -6.045794 -20.586189 2.577424 0.599609 -0.374444
 14 32.289112 -6.619343 25.287781 -1.130969 2.179032 0.075310
 15 153.364639 62.139835 16.877851 1.078144 0.001989 0.109675
 16 0.671978 2.506062 -6.693916 0.000000 -0.000000 0.000000
 17 18.407459 -176.793976 8.075211 -0.009445 0.966446 0.010673
 18 12.176291 -0.829268 23.085026 -0.330962 0.156863 0.008289
 19 23.438765 1.362863 -28.210815 0.622482 0.147093 -0.046223
 20 17.520046 -4.855522 -21.387661 -0.559663 -0.318451 0.327741
 21 6.597050 5.855795 -9.931353 0.000000 -0.000000 0.000000
 22 -0.072890 -1.214048 9.388035 0.000000 -0.000000 0.000000
 23 0.000011 -5.381660 -154.110336 -0.034538 -0.005058 -0.145357
 24 0.000011 -5.381660 -154.110336 -0.034538 -0.005058 -0.145357
 25 2.650860 -0.017416 279.065491 0.000000 -0.000000 0.000000
time 10
  0 2.650860 -0.017416 48.857742 0.000000 -0.000000 0.000000
  1 -0.186268 0.167365 -1.425587 -1.048854 0.000000 0.000000
  2 0.923380 -2.004173 -52.426407 1.861703 -0.000000 0.000000
  3 0.209927 0.167365 2.417706 0.525490 0.000000 0.000000
  4 -0.585070 71.233528 -54.342316 0.087266 0.000000 0.000000
  5 -0.737603 -0.548840 40.203667 -0.069813 0.000000 -0.000000
  6 2.553308 7.297712 96.216125 0.000000 -0.000000 0.000000
  7 25.337774 -9.646729 2.086906 -0.000011 -0.139632 -0.000607
  8 -23.810328 -7.093719 2.086899 -0.226045 0.064723 0.026189
  9 -7.352506 52.005486 -48.397388 -0.378681 -0.000000 0.000000
 10 -0.684172 -0.276031 30.967377 0.000000 -0.000000 0.000000
 11 -13.534456 -1.160919 22.015198 3.019416 -0.000000 0.000000
 12 -20.972828 -0.005863 -27.595062 0.000000 0.209439 0.000000
 13 -18.070229 -6.045795 -20.586182 2.577424 0.599609 -0.374444
 14 36.213047 -6.900318 27.400581 -1.129657 2.286187 0.086247
 15 153.364639 62.139839 16.877811 1.078144 0.001989 0.109675
 16 0.671986 2.506063 -6.693916 0.000000 -0.000000 0.000000
 17 18.407452 -176.793991 8.075195 -0.009445 0.966446 0.010673
 18 12.176291 -0.829269 23.085014 -0.330962 0.156863 0.008289
 19 23.438763 1.362864 -28.210808 0.622482 0.147093 -0.046223
 20 17.520044 -4.855534 -21.387665 -0.559663 -0.318451 0.327741
 21 6.597046 5.855787 -9.931353 0.000000 -0.000000 0.000000
 22 -0.072890 -1.214046 9.388031 0.000000 -0.000000 0.000000
 23 0.000011 -5.381660 -154.110336 -0.034538 -0.005058 -0.145357
 24 0.000011 -5.381660 -154.110336 -0.034538 -0.005058 -0.145357
 25 2.650860 -0.017416 279.065491 0.000000 -0.000000 0.000000
time 11
  0 2.650860 -0.017416 35.036991 0.000000 -0.000000 0.000000
  1 -0.186268 0.167365 -1.425587 -1.080689 0.000000 0.000000
  2 0.923380 -2.004175 -52.426407 1.917388 -0.000000 0.000000
  3 0.209927 0.167365 2.417706 0.540390 0.000000 0.000000
  4 -0.585070 71.233528 -54.342319 0.087267 0.000000 0.000000
  5 -0.737603 -0.548834 40.203678 -0.069813 0.000000 0.000000
  6 2.553308 7.297703 96.216110 0.000000 -0.000000 0.000000
  7 25.337774 -9.646727 2.086906 -0.000011 -0.139632 -0.000607
  8 -23.810328 -7.093718 2.086906 -0.226045 0.064723 0.026189
  9 -7.352506 52.005486 -48.397385 -0.400457 0.000000 0.000000
 10 -0.684172 -0.276030 30.967377 0.000000 -0.000000 0.000000
 11 -13.534456 -1.160921 22.015205 3.019416 -0.000000 0.000000
 12 -20.972828 -0.005867 -27.595081 0.000000 0.209439 0.000000
 13 -18.070229 -6.045795 -20.586189 2.577424 0.599609 -0.374444
 14 39.839191 -7.235321 28.547249 -1.129039 2.341476 0.091399
 15 153.364609 62.139816 16.877857 1.078144 0.001989 0.109675
 16 0.671986 2.506063 -6.693916 0.000000 -0.000000 0.000000
 17 18.407448 -176.794022 8.075195 -0.009445 0.966446 0.010673
 18 12.176291 -0.829269 23.085026 -0.330962 0.156863 0.008289
 19 23.438765 1.362865 -28.210812 0.622482 0.147093 -0.046223
 20 17.520044 -4.855528 -21.387657 -0.559663 -0.318451 0.327741
 21 6.597046 5.855787 -9.931351 0.000000 -0.000000 0.000000
 22 -0.072890 -1.214048 9.388039 0.000000 -0.000000 0.000000
 23 0.000011 -5.381660 -154.110336 -0.034538 -0.005058 -0.145357
 24 0.000011 -5.381660 -154.110336 -0.034538 -0.005058 -0.145357
 25 2.650860 -0.017416 279.065491 0.000000 -0.000000 0.000000
time 12
  0 2.650860 -0.017416 20.676003 0.000000 -0.000000 0.000000
  1 -0.186268 0.167365 -1.425587 -1.077538 0.000000 0.000000
  2 0.923380 -2.004171 -52.426411 1.911871 -0.000000 0.000000
  3 0.209927 0.167365 2.417706 0.538932 0.000000 -0.000000
  4 -0.585070 71.233536 -54.342319 0.087266 0.000000 0.000000
  5 -0.737603 -0.548837 40.203674 -0.069813 0.000000 0.000000
  6 2.553308 7.297697 96.216118 0.000000 -0.000000 0.000000
  7 25.337774 -9.646729 2.086906 -0.000011 -0.139632 -0.000607
  8 -23.810328 -7.093718 2.086906 -0.226045 0.064723 0.026189
  9 -7.352506 52.005478 -48.397377 -0.398326 0.000000 0.000000
 10 -0.684172 -0.276031 30.967369 0.000000 -0.000000 0.000000
 11 -13.534456 -1.160922 22.015202 3.019416 0.000000 0.000000
 12 -20.972828 -0.005868 -27.595074 0.000000 0.209439 0.000000
 13 -18.070229 -6.045794 -20.586174 2.577424 0.599609 -0.374444
 14 43.280708 -7.810389 28.862167 -1.132992 2.352335 0.088609
 15 153.364594 62.139801 16.877846 1.078144 0.001989 0.109675
 16 0.671980 2.506063 -6.693909 0.000000 -0.000000 0.000000
 17 18.407444 -176.793915 8.075195 -0.009445 0.966446 0.010673
 18 12.176291 -0.829268 23.085022 -0.330962 0.156863 0.008289
 19 23.438763 1.362864 -28.210808 0.622482 0.147093 -0.046223
 20 17.520041 -4.855526 -21.387659 -0.559663 -0.318451 0.327741
 21 6.597054 5.855791 -9.931355 0.000000 -0.000000 0.000000
 22 -0.072890 -1.214047 9.388039 0.000000 -0.000000 0.000000
 23 0.000011 -5.381660 -154.110321 -0.034538 -0.005058 -0.145357
 24 0.000011 -5.381660 -154.110321 -0.034538 -0.005058 -0.145357
 25 2.650860 -0.017416 279.065491 0.000000 -0.000000 0.000000
time 13
  0 2.650860 -0.017416 5.909855 0.000000 -0.000000 0.000000
  1 -0.186268 0.167365 -1.425586 -1.058151 0.000000 0.000000
  2 0.923380 -2.004173 -52.426411 1.877944 -0.000000 0.000000
  3 0.209927 0.167365 2.417706 0.529931 0.000000 0.000000
  4 -0.585070 71.233543 -54.342323 0.087266 0.000000 0.000000
  5 -0.737603 -0.548840 40.203674 -0.069813 0.000000 -0.000000
  6 2.553308 7.297707 96.216141 0.000000 -0.000000 0.000000
  7 25.337774 -9.646734 2.086906 -0.000011 -0.139632 -0.000607
  8 -23.810328 -7.093723 2.086906 -0.226045 0.064723 0.026189
  9 -7.352506 52.005489 -48.397392 -0.385171 0.000000 0.000000
 10 -0.684172 -0.276031 30.967381 0.000000 -0.000000 0.000000
 11 -13.534456 -1.160921 22.015203 3.019416 -0.000000 0.000000
 12 -20.972828 -0.005868 -27.595074 -0.000000 0.209439 -0.000000
 13 -18.070229 -6.045792 -20.586178 2.577424 0.599609 -0.374444
 14 47.047722 -9.030598 29.117233 -1.149889 2.360483 0.075794
 15 153.364624 62.139809 16.877846 1.078144 0.001989 0.109675
 16 0.671980 2.506063 -6.693924 0.000000 -0.000000 0.000000
 17 18.407455 -176.793976 8.075195 -0.009445 0.966446 0.010673
 18 12.176291 -0.829270 23.085020 -0.330962 0.156863 0.008289
 19 23.438763 1.362864 -28.210812 0.622482 0.147093 -0.046223
 20 17.520046 -4.855525 -21.387661 -0.559663 -0.318451 0.327741
 21 6.597050 5.855793 -9.931358 0.000000 -0.000000 0.000000
 22 -0.072890 -1.214048 9.388037 0.000000 -0.000000 0.000000
 23 0.000011 -5.381660 -154.110336 -0.034538 -0.005058 -0.145357
 24 0.000011 -5.381660 -154.110336 -0.034538 -0.005058 -0.145357
 25 2.650860 -0.017416 279.065491 0.000000 -0.000000 0.000000
time 14
  0 2.650860 -0.017416 -9.126399 0.000000 -0.000000 0.000000
  1 -0.186268 0.167365 -1.425586 -1.025197 0.000000 0.000000
  2 0.923381 -2.004172 -52.426407 1.820276 -0.000000 0.000000
  3 0.209927 0.167365 2.417706 0.514631 0.000000 0.000000
  4 -0.585070 71.233528 -54.342323 0.087266 0.000000 0.000000
  5 -0.737603 -0.548836 40.203671 -0.069813 0.000000 -0.000000
  6 2.553308 7.297698 96.216141 0.000000 -0.000000 0.000000
  7 25.337772 -9.646731 2.086906 -0.000011 -0.139632 -0.000607
  8 -23.810329 -7.093721 2.086906 -0.226045 0.064723 0.026189
  9 -7.352506 52.005482 -48.397381 -0.362810 0.000000 0.000000
 10 -0.684172 -0.276031 30.967377 0.000000 -0.000000 0.000000
 11 -13.534456 -1.160921 22.015202 3.019416 0.000000 0.000000
 12 -20.972828 -0.005868 -27.595078 -0.000000 0.209439 0.000000
 13 -18.070229 -6.045791 -20.586182 2.577424 0.599609 -0.374444
 14 51.105671 -10.837378 29.350998 -1.178612 2.367980 0.054009
 15 153.364624 62.139801 16.877834 1.078144 0.001989 0.109675
 16 0.671982 2.506065 -6.693924 0.000000 -0.000000 0.000000
 17 18.407463 -176.793961 8.075195 -0.009445 0.966446 0.010673
 18 12.176291 -0.829269 23.085022 -0.330962 0.156863 0.008289
 19 23.438766 1.362864 -28.210812 0.622482 0.147093 -0.046223
 20 17.520050 -4.855526 -21.387661 -0.559663 -0.318451 0.327741
 21 6.597042 5.855792 -9.931355 0.000000 -0.000000 0.000000
 22 -0.072890 -1.214047 9.388037 0.000000 -0.000000 0.000000
 23 0.000011 -5.381660 -154.110336 -0.034538 -0.005058 -0.145357
 24 0.000011 -5.381660 -154.110336 -0.034538 -0.005058 -0.145357
 25 2.650860 -0.017416 279.065491 0.000000 -0.000000 0.000000
time 15
  0 2.650860 -0.017416 -24.297722 0.000000 -0.000000 0.000000
  1 -0.186268 0.167365 -1.425587 -0.980456 0.000000 0.000000
  2 0.923381 -2.004173 -52.426407 1.741978 -0.000000 0.000000
  3 0.209927 0.167365 2.417706 0.493858 0.000000 0.000000
  4 -0.585070 71.233528 -54.342323 0.087266 0.000000 0.000000
  5 -0.737603 -0.548836 40.203674 -0.069813 0.000000 -0.000000
  6 2.553308 7.297705 96.216133 0.000000 -0.000000 0.000000
  7 25.337774 -9.646729 2.086908 -0.000011 -0.139632 -0.000607
  8 -23.810328 -7.093719 2.086910 -0.226045 0.064723 0.026189
  9 -7.352506 52.005486 -48.397385 -0.332450 0.000000 0.000000
 10 -0.684172 -0.276030 30.967384 0.000000 -0.000000 0.000000
 11 -13.534456 -1.160921 22.015200 3.019416 0.000000 0.000000
 12 -20.972828 -0.005868 -27.595076 -0.000000 0.209439 -0.000000
 13 -18.070230 -6.045794 -20.586185 2.577424 0.599609 -0.374444
 14 55.393208 -13.151167 29.564278 -1.217609 2.374849 0.024433
 15 153.364609 62.139812 16.877838 1.078144 0.001989 0.109675
 16 0.671980 2.506062 -6.693913 0.000000 -0.000000 0.000000
 17 18.407463 -176.793976 8.075188 -0.009445 0.966446 0.010673
 18 12.176291 -0.829268 23.085020 -0.330962 0.156863 0.008289
 19 23.438766 1.362867 -28.210804 0.622482 0.147093 -0.046223
 20 17.520039 -4.855524 -21.387655 -0.559663 -0.318451 0.327741
 21 6.597050 5.855788 -9.931355 0.000000 -0.000000 0.000000
 22 -0.072890 -1.214046 9.388036 0.000000 -0.000000 0.000000
 23 0.000011 -5.381660 -154.110321 -0.034538 -0.005058 -0.145357
 24 0.000011 -5.381660 -154.110321 -0.034538 -0.005058 -0.145357
 25 2.650860 -0.017416 279.065491 0.000000 -0.000000 0.000000
time 16
  0 2.650860 -0.017416 -39.469059 0.000000 -0.000000 0.000000
  1 -0.186268 0.167365 -1.425587 -0.925706 0.000000 0.000000
  2 0.923381 -2.004175 -52.426407 1.646166 -0.000000 0.000000
  3 0.209927 0.167365 2.417706 0.468439 0.000000 0.000000
  4 -0.585070 71.233536 -54.342327 0.087266 0.000000 0.000000
  5 -0.737603 -0.548838 40.203674 -0.069813 0.000000 0.000000
  6 2.553308 7.297697 96.216125 0.000000 -0.000000 0.000000
  7 25.337774 -9.646730 2.086908 -0.000011 -0.139632 -0.000607
  8 -23.810328 -7.093719 2.086908 -0.226045 0.064723 0.026189
  9 -7.352506 52.005478 -48.397377 -0.295298 0.000000 0.000000
 10 -0.684172 -0.276030 30.967377 0.000000 -0.000000 0.000000
 11 -13.534456 -1.160921 22.015202 3.019416 -0.000000 0.000000
 12 -20.972828 -0.005865 -27.595078 -0.000000 0.209439 0.000000
 13 -18.070230 -6.045795 -20.586180 2.577424 0.599609 -0.374444
 14 59.848938 -15.892382 29.757885 -1.265329 2.381112 -0.011759
 15 153.364624 62.139767 16.877882 1.078144 0.001989 0.109675
 16 0.671980 2.506062 -6.693920 0.000000 -0.000000 0.000000
 17 18.407455 -176.793961 8.075207 -0.009445 0.966446 0.010673
 18 12.176291 -0.829271 23.085022 -0.330962 0.156863 0.008289
 19 23.438770 1.362867 -28.210812 0.622482 0.147093 -0.046223
 20 17.520050 -4.855522 -21.387659 -0.559663 -0.318451 0.327741
 21 6.597050 5.855791 -9.931351 0.000000 -0.000000 0.000000
 22 -0.072890 -1.214048 9.388037 0.000000 -0.000000 0.000000
 23 0.000011 -5.381660 -154.110336 -0.034538 -0.005058 -0.145357
 24 0.000011 -5.381660 -154.110336 -0.034538 -0.005058 -0.145357
 25 2.650860 -0.017416 279.065491 0.000000 -0.000000 0.000000
time 17
  0 2.650860 -0.017416 -54.505302 0.000000 -0.000000 0.000000
  1 -0.186268 0.167365 -1.425587 -0.862727 0.000000 0.000000
  2 0.923380 -2.004166 -52.426414 1.535953 -0.000000 0.000000
  3 0.209927 0.167365 2.417706 0.439198 0.000000 0.000000
  4 -0.585070 71.233536 -54.342319 0.087266 0.000000 -0.000000
  5 -0.737603 -0.548838 40.203667 -0.069813 0.000000 -0.000000
  6 2.553308 7.297705 96.216133 0.000000 -0.000000 0.000000
  7 25.337772 -9.646729 2.086906 -0.000011 -0.139632 -0.000607
  8 -23.810328 -7.093721 2.086907 -0.226045 0.064723 0.026189
  9 -7.352506 52.005482 -48.397385 -0.252562 0.000000 0.000000
 10 -0.684172 -0.276030 30.967381 0.000000 -0.000000 0.000000
 11 -13.534456 -1.160921 22.015198 3.019416 0.000000 0.000000
 12 -20.972828 -0.005865 -27.595078 -0.000000 0.209439 0.000000
 13 -18.070229 -6.045794 -20.586180 2.577424 0.599609 -0.374444
 14 64.411499 -18.981459 29.932640 -1.320222 2.386791 -0.053392
 15 153.364655 62.139759 16.877871 1.078144 0.001989 0.109675
 16 0.671978 2.506063 -6.693916 0.000000 -0.000000 0.000000
 17 18.407463 -176.793961 8.075191 -0.009445 0.966446 0.010673
 18 12.176291 -0.829268 23.085022 -0.330962 0.156863 0.008289
 19 23.438765 1.362864 -28.210806 0.622482 0.147093 -0.046223
 20 17.520050 -4.855526 -21.387661 -0.559663 -0.318451 0.327741
 21 6.597046 5.855789 -9.931358 0.000000 -0.000000 0.000000
 22 -0.072890 -1.214046 9.388035 0.000000 -0.000000 0.000000
 23 0.000011 -5.381660 -154.110321 -0.034538 -0.005058 -0.145357
 24 0.000011 -5.381660 -154.110321 -0.034538 -0.005058 -0.145357
 25 2.650860 -0.017416 279.065491 0.000000 -0.000000 0.000000
time 18
  0 2.650860 -0.017416 -69.271454 0.000000 -0.000000 0.000000
  1 -0.186268 0.167365 -1.425583 -0.793298 0.000000 0.000000
  2 0.923380 -2.004181 -52.426414 1.414453 -0.000000 0.000000
  3 0.209927 0.167365 2.417709 0.406964 0.000000 0.000000
  4 -0.585070 71.233536 -54.342316 0.087266 0.000000 0.000000
  5 -0.737603 -0.548840 40.203667 -0.069813 0.000000 0.000000
  6 2.553308 7.297701 96.216141 0.000000 -0.000000 0.000000
  7 25.337774 -9.646732 2.086908 -0.000011 -0.139632 -0.000607
  8 -23.810326 -7.093719 2.086908 -0.226045 0.064723 0.026189
  9 -7.352506 52.005493 -48.397392 -0.205450 0.000000 0.000000
 10 -0.684172 -0.276031 30.967386 0.000000 -0.000000 0.000000
 11 -13.534456 -1.160923 22.015202 3.019416 0.000000 0.000000
 12 -20.972830 -0.005869 -27.595076 -0.000000 0.209439 0.000000
 13 -18.070229 -6.045794 -20.586182 2.577424 0.599609 -0.374444
 14 69.019508 -22.338818 30.089340 -1.380737 2.391910 -0.099288
 15 153.364624 62.139786 16.877872 1.078144 0.001989 0.109675
 16 0.671978 2.506062 -6.693920 0.000000 -0.000000 0.000000
 17 18.407463 -176.793991 8.075203 -0.009445 0.966446 0.010673
 18 12.176291 -0.829269 23.085022 -0.330962 0.156863 0.008289
 19 23.438772 1.362864 -28.210808 0.622482 0.147093 -0.046223
 20 17.520050 -4.855530 -21.387661 -0.559663 -0.318451 0.327741
 21 6.597050 5.855788 -9.931358 0.000000 -0.000000 0.000000
 22 -0.072890 -1.214048 9.388039 0.000000 -0.000000 0.000000
 23 0.000011 -5.381660 -154.110336 -0.034538 -0.005058 -0.145357
 24 0.000011 -5.381660 -154.110336 -0.034538 -0.005058 -0.145357
 25 2.650860 -0.017416 279.065491 0.000000 -0.000000 0.000000
time 19
  0 2.650860 -0.017416 -83.632431 0.000000 -0.000000 0.000000
  1 -0.186268 0.167365 -1.425583 -0.719199 0.000000 0.000000
  2 0.923381 -2.004181 -52.426407 1.284779 -0.000000 0.000000
  3 0.209927 0.167365 2.417709 0.372561 0.000000 0.000000
  4 -0.585070 71.233536 -54.342316 0.087266 0.000000 0.000000
  5 -0.737603 -0.548840 40.203671 -0.069813 0.000000 -0.000000
  6 2.553308 7.297699 96.216125 0.000000 -0.000000 0.000000
  7 25.337772 -9.646732 2.086903 -0.000011 -0.139632 -0.000607
  8 -23.810328 -7.093719 2.086906 -0.226045 0.064723 0.026189
  9 -7.352506 52.005486 -48.397385 -0.155168 0.000000 0.000000
 10 -0.684172 -0.276031 30.967377 0.000000 -0.000000 0.000000
 11 -13.534456 -1.160921 22.015202 3.019416 0.000000 0.000000
 12 -20.972828 -0.005867 -27.595076 -0.000000 0.209439 -0.000000
 13 -18.070229 -6.045795 -20.586182 2.577424 0.599609 -0.374444
 14 73.611580 -25.884878 30.228817 -1.445322 2.396490 -0.148271
 15 153.364624 62.139782 16.877871 1.078144 0.001989 0.109675
 16 0.671974 2.506063 -6.693916 0.000000 -0.000000 0.000000
 17 18.407463 -176.793991 8.075203 -0.009445 0.966446 0.010673
 18 12.176291 -0.829271 23.085022 -0.330962 0.156863 0.008289
 19 23.438770 1.362863 -28.210808 0.622482 0.147093 -0.046223
 20 17.520058 -4.855530 -21.387657 -0.559663 -0.318451 0.327741
 21 6.597054 5.855792 -9.931358 0.000000 -0.000000 0.000000
 22 -0.072890 -1.214048 9.388039 0.000000 -0.000000 0.000000
 23 0.000011 -5.381660 -154.110336 -0.034538 -0.005058 -0.145357
 24 0.000011 -5.381660 -154.110336 -0.034538 -0.005058 -0.145357
 25 2.650860 -0.017416 279.065491 0.000000 -0.000000 0.000000
time 20
  0 2.650860 -0.017416 -97.453201 0.000000 -0.000000 0.000000
  1 -0.186268 0.167365 -1.425583 -0.642209 0.000000 0.000000
  2 0.923381 -2.004177 -52.426399 1.150045 -0.000000 0.000000
  3 0.209927 0.167365 2.417709 0.336815 0.000000 -0.000000
  4 -0.585070 71.233536 -54.342323 0.087266 0.000000 0.000000
  5 -0.737603 -0.548838 40.203671 -0.069813 0.000000 -0.000000
  6 2.553308 7.297701 96.216133 0.000000 -0.000000 0.000000
  7 25.337774 -9.646727 2.086906 -0.000011 -0.139632 -0.000607
  8 -23.810326 -7.093718 2.086906 -0.226045 0.064723 0.026189
  9 -7.352507 52.005489 -48.397385 -0.102925 0.000000 0.000000
 10 -0.684172 -0.276030 30.967379 0.000000 -0.000000 0.000000
 11 -13.534456 -1.160921 22.015198 3.019416 -0.000000 0.000000
 12 -20.972828 -0.005865 -27.595078 -0.000000 0.209439 0.000000
 13 -18.070232 -6.045795 -20.586182 2.577424 0.599609 -0.374444
 14 78.126366 -29.540064 30.351871 -1.512428 2.400554 -0.199166
 15 153.364670 62.139824 16.877872 1.078144 0.001989 0.109675
 16 0.671978 2.506063 -6.693914 0.000000 -0.000000 0.000000
 17 18.407471 -176.793976 8.075209 -0.009445 0.966446 0.010673
 18 12.176291 -0.829268 23.085022 -0.330962 0.156863 0.008289
 19 23.438770 1.362863 -28.210808 0.622482 0.147093 -0.046223
 20 17.520039 -4.855518 -21.387650 -0.559663 -0.318451 0.327741
 21 6.597055 5.855789 -9.931351 0.000000 -0.000000 0.000000
 22 -0.072890 -1.214048 9.388031 0.000000 -0.000000 0.000000
 23 0.000011 -5.381660 -154.110336 -0.034538 -0.005058 -0.145357
 24 0.000011 -5.381660 -154.110336 -0.034538 -0.005058 -0.145357
 25 2.650860 -0.017416 279.065491 0.000000 -0.000000 0.000000
time 21
  0 2.650860 -0.017416 -110.598656 0.000000 -0.000000 0.000000
  1 -0.186268 0.167365 -1.425583 -0.564106 0.000000 0.000000
  2 0.923381 -2.004169 -52.426399 1.013366 -0.000000 0.000000
  3 0.209927 0.167365 2.417709 0.300553 0.000000 0.000000
  4 -0.585070 71.233528 -54.342323 0.087266 0.000000 -0.000000
  5 -0.737603 -0.548836 40.203671 -0.069813 0.000000 -0.000000
  6 2.553308 7.297699 96.216125 0.000000 -0.000000 0.000000
  7 25.337772 -9.646729 2.086914 -0.000011 -0.139632 -0.000607
  8 -23.810328 -7.093716 2.086914 -0.226045 0.064723 0.026189
  9 -7.352507 52.005486 -48.397377 -0.049927 0.000000 0.000000
 10 -0.684172 -0.276028 30.967384 0.000000 -0.000000 0.000000
 11 -13.534456 -1.160919 22.015205 3.019416 0.000000 0.000000
 12 -20.972828 -0.005865 -27.595070 -0.000000 0.209439 0.000000
 13 -18.070229 -6.045795 -20.586184 2.577424 0.599609 -0.374444
 14 82.502457 -33.224804 30.459379 1.561090 0.737469 2.890796
 15 153.364624 62.139774 16.877865 1.078144 0.001989 0.109675
 16 0.671982 2.506063 -6.693914 0.000000 -0.000000 0.000000
 17 18.407478 -176.793961 8.075214 -0.009445 0.966446 0.010673
 18 12.176291 -0.829266 23.085022 -0.330962 0.156863 0.008289
 19 23.438768 1.362863 -28.210808 0.622483 0.147093 -0.046223
 20 17.520042 -4.855534 -21.387657 -0.559663 -0.318451 0.327741
 21 6.597052 5.855787 -9.931351 0.000000 -0.000000 0.000000
 22 -0.072890 -1.214046 9.388039 0.000000 -0.000000 0.000000
 23 0.000011 -5.381660 -154.110321 -0.034538 -0.005058 -0.145357
 24 0.000011 -5.381660 -154.110321 -0.034538 -0.005058 -0.145357
 25 2.650860 -0.017416 279.065491 0.000000 -0.000000 0.000000
time 22
  0 2.650860 -0.017416 -122.933807 0.000000 -0.000000 0.000000
  1 -0.186268 0.167365 -1.425583 -0.486670 0.000000 0.000000
  2 0.923380 -2.004169 -52.426407 0.877854 -0.000000 0.000000
  3 0.209927 0.167365 2.417709 0.264601 0.000000 -0.000000
  4 -0.585070 71.233528 -54.342316 0.087266 0.000000 0.000000
  5 -0.737603 -0.548838 40.203667 -0.069813 0.000000 0.000000
  6 2.553308 7.297703 96.216125 0.000000 -0.000000 0.000000
  7 25.337774 -9.646729 2.086899 -0.000011 -0.139632 -0.000607
  8 -23.810326 -7.093716 2.086906 -0.226045 0.064723 0.026189
  9 -7.352506 52.005486 -48.397385 0.002619 0.000000 0.000000
 10 -0.684172 -0.276030 30.967373 0.000000 -0.000000 0.000000
 11 -13.534456 -1.160921 22.015198 3.019416 0.000000 0.000000
 12 -20.972828 -0.005869 -27.595078 0.000000 0.209439 -0.000000
 13 -18.070232 -6.045794 -20.586185 2.577424 0.599609 -0.374444
 14 86.678482 -36.859524 30.552059 1.493596 0.734369 2.839607
 15 153.364685 62.139805 16.877846 1.078144 0.001989 0.109675
 16 0.671982 2.506063 -6.693913 0.000000 -0.000000 0.000000
 17 18.407475 -176.793945 8.075212 -0.009445 0.966446 0.010673
 18 12.176291 -0.829268 23.085022 -0.330962 0.156863 0.008289
 19 23.438763 1.362864 -28.210808 0.622482 0.147093 -0.046223
 20 17.520050 -4.855530 -21.387657 -0.559663 -0.318451 0.327741
 21 6.597048 5.855788 -9.931351 0.000000 -0.000000 0.000000
 22 -0.072890 -1.214045 9.388039 0.000000 -0.000000 0.000000
 23 0.000011 -5.381660 -154.110321 -0.034538 -0.005058 -0.145357
 24 0.000011 -5.381660 -154.110321 -0.034538 -0.005058 -0.145357
 25 2.650860 -0.017416 279.065491 0.000000 -0.000000 0.000000
time 23
  0 2.650860 -0.017416 -134.323532 0.000000 -0.000000 0.000000
  1 -0.186268 0.167365 -1.425583 -0.411681 0.000000 0.000000
  2 0.923381 -2.004169 -52.426422 0.746623 -0.000000 0.000000
  3 0.209927 0.167365 2.417709 0.229784 0.000000 0.000000
  4 -0.585070 71.233536 -54.342331 0.087267 0.000000 0.000000
  5 -0.737603 -0.548840 40.203667 -0.069813 0.000000 0.000000
  6 2.553308 7.297703 96.216141 0.000000 -0.000000 0.000000
  7 25.337772 -9.646730 2.086906 -0.000011 -0.139632 -0.000607
  8 -23.810326 -7.093721 2.086906 -0.226045 0.064723 0.026189
  9 -7.352507 52.005493 -48.397385 0.053504 0.000000 0.000000
 10 -0.684172 -0.276030 30.967381 0.000000 -0.000000 0.000000
 11 -13.534456 -1.160923 22.015198 3.019416 0.000000 0.000000
 12 -20.972830 -0.005867 -27.595078 -0.000000 0.209439 0.000000
 13 -18.070232 -6.045794 -20.586182 2.577424 0.599609 -0.374444
 14 90.593094 -40.364655 30.630806 1.428235 0.731719 2.790036
 15 153.364670 62.139801 16.877884 1.078144 0.001989 0.109675
 16 0.671982 2.506063 -6.693913 0.000000 -0.000000 0.000000
 17 18.407478 -176.793945 8.075223 -0.009445 0.966446 0.010673
 18 12.176291 -0.829269 23.085022 -0.330962 0.156863 0.008289
 19 23.438770 1.362864 -28.210793 0.622482 0.147093 -0.046223
 20 17.520050 -4.855530 -21.387657 -0.559663 -0.318451 0.327741
 21 6.597050 5.855789 -9.931335 0.000000 -0.000000 0.000000
 22 -0.072890 -1.214048 9.388031 0.000000 -0.000000 0.000000
 23 0.000011 -5.381660 -154.110336 -0.034538 -0.005058 -0.145357
 24 0.000011 -5.381660 -154.110336 -0.034538 -0.005058 -0.145357
 25 2.650860 -0.017416 279.065491 0.000000 -0.000000 0.000000
time 24
  0 2.650860 -0.017416 -144.632874 0.000000 -0.000000 0.000000
  1 -0.186268 0.167365 -1.425583 -0.340918 0.000000 0.000000
  2 0.923381 -2.004177 -52.426407 0.622787 -0.000000 0.000000
  3 0.209927 0.167365 2.417709 0.196930 0.000000 0.000000
  4 -0.585070 71.233528 -54.342316 0.087266 0.000000 -0.000000
  5 -0.737603 -0.548836 40.203667 -0.069813 0.000000 -0.000000
  6 2.553308 7.297701 96.216118 0.000000 -0.000000 0.000000
  7 25.337772 -9.646729 2.086906 -0.000011 -0.139632 -0.000607
  8 -23.810328 -7.093719 2.086914 -0.226045 0.064723 0.026189
  9 -7.352507 52.005478 -48.397377 0.101522 0.000000 0.000000
 10 -0.684172 -0.276030 30.967384 0.000000 -0.000000 0.000000
 11 -13.534456 -1.160919 22.015198 3.019416 0.000000 0.000000
 12 -20.972828 -0.005867 -27.595070 0.000000 0.209439 0.000000
 13 -18.070229 -6.045794 -20.586189 2.577425 0.599609 -0.374444
 14 94.184853 -43.660591 30.696369 1.366557 0.729494 2.743258
 15 153.364670 62.139809 16.877857 1.078144 0.001989 0.109675
 16 0.671974 2.506062 -6.693920 0.000000 -0.000000 0.000000
 17 18.407448 -176.793976 8.075201 -0.009445 0.966446 0.010673
 18 12.176291 -0.829268 23.085022 -0.330962 0.156863 0.008289
 19 23.438763 1.362863 -28.210808 0.622482 0.147093 -0.046223
 20 17.520042 -4.855522 -21.387650 -0.559663 -0.318451 0.327741
 21 6.597050 5.855790 -9.931351 0.000000 -0.000000 0.000000
 22 -0.072890 -1.214046 9.388031 0.000000 -0.000000 0.000000
 23 0.000011 -5.381660 -154.110352 -0.034538 -0.005058 -0.145357
 24 0.000011 -5.381660 -154.110352 -0.034538 -0.005058 -0.145357
 25 2.650860 -0.017416 279.065491 0.000000 -0.000000 0.000000
time 25
  0 2.650860 -0.017416 -153.726639 0.000000 -0.000000 0.000000
  1 -0.186268 0.167365 -1.425583 -0.276160 0.000000 0.000000
  2 0.923380 -2.004173 -52.426407 0.509460 -0.000000 0.000000
  3 0.209927 0.167365 2.417709 0.166864 0.000000 -0.000000
  4 -0.585070 71.233536 -54.342331 0.087267 0.000000 0.000000
  5 -0.737603 -0.548838 40.203674 -0.069813 0.000000 0.000000
  6 2.553308 7.297701 96.216141 0.000000 -0.000000 0.000000
  7 25.337774 -9.646730 2.086914 -0.000011 -0.139632 -0.000607
  8 -23.810326 -7.093721 2.086906 -0.226045 0.064723 0.026189
  9 -7.352507 52.005486 -48.397385 0.145465 0.000000 0.000000
 10 -0.684172 -0.276030 30.967384 0.000000 -0.000000 0.000000
 11 -13.534456 -1.160923 22.015198 3.019416 -0.000000 0.000000
 12 -20.972828 -0.005867 -27.595085 0.000000 0.209439 0.000000
 13 -18.070229 -6.045795 -20.586182 2.577424 0.599609 -0.374444
 14 97.392448 -46.667801 30.749649 1.310114 0.727674 2.700449
 15 153.364670 62.139793 16.877865 1.078144 0.001989 0.109675
 16 0.671974 2.506062 -6.693913 0.000000 -0.000000 0.000000
 17 18.407455 -176.793961 8.075205 -0.009445 0.966446 0.010673
 18 12.176291 -0.829269 23.085022 -0.330962 0.156863 0.008289
 19 23.438770 1.362865 -28.210808 0.622482 0.147093 -0.046223
 20 17.520050 -4.855522 -21.387657 -0.559663 -0.318451 0.327741
 21 6.597046 5.855789 -9.931366 0.000000 -0.000000 0.000000
 22 -0.072890 -1.214046 9.388046 0.000000 -0.000000 0.000000
 23 0.000011 -5.381660 -154.110336 -0.034538 -0.005058 -0.145357
 24 0.000011 -5.381660 -154.110336 -0.034538 -0.005058 -0.145357
 25 2.650860 -0.017416 279.065491 0.000000 -0.000000 0.000000
time 26
  0 2.650860 -0.017416 -161.469864 0.000000 -0.000000 0.000000
  1 -0.186268 0.167365 -1.425583 -0.219186 0.000000 0.000000
  2 0.923381 -2.004177 -52.426407 0.409756 -0.000000 0.000000
  3 0.209927 0.167365 2.417709 0.140412 0.000000 0.000000
  4 -0.585070 71.233521 -54.342316 0.087266 0.000000 -0.000000
  5 -0.737603 -0.548840 40.203659 -0.069813 0.000000 0.000000
  6 2.553308 7.297701 96.216125 0.000000 -0.000000 0.000000
  7 25.337772 -9.646729 2.086914 -0.000011 -0.139632 -0.000607
  8 -23.810326 -7.093719 2.086914 -0.226045 0.064723 0.026189
  9 -7.352506 52.005482 -48.397385 0.184126 0.000000 0.000000
 10 -0.684172 -0.276030 30.967384 0.000000 -0.000000 0.000000
 11 -13.534456 -1.160921 22.015182 3.019416 0.000000 0.000000
 12 -20.972828 -0.005867 -27.595070 0.000000 0.209439 0.000000
 13 -18.070236 -6.045794 -20.586182 2.577424 0.599609 -0.374444
 14 100.154480 -49.306679 30.791384 1.260455 0.726235 2.662786
 15 153.364670 62.139816 16.877865 1.078144 0.001989 0.109675
 16 0.671974 2.506062 -6.693920 0.000000 -0.000000 0.000000
 17 18.407455 -176.793945 8.075215 -0.009445 0.966446 0.010673
 18 12.176291 -0.829269 23.085022 -0.330962 0.156863 0.008289
 19 23.438770 1.362864 -28.210800 0.622482 0.147093 -0.046223
 20 17.520050 -4.855530 -21.387665 -0.559663 -0.318451 0.327741
 21 6.597044 5.855788 -9.931366 0.000000 -0.000000 0.000000
 22 -0.072890 -1.214048 9.388031 0.000000 -0.000000 0.000000
 23 0.000011 -5.381660 -154.110336 -0.034538 -0.005058 -0.145357
 24 0.000011 -5.381660 -154.110336 -0.034538 -0.005058 -0.145357
 25 2.650860 -0.017416 279.065491 0.000000 -0.000000 0.000000
time 27
  0 2.650860 -0.017416 -167.727463 0.000000 -0.000000 0.000000
  1 -0.186268 0.167365 -1.425583 -0.171776 0.000000 0.000000
  2 0.923381 -2.004173 -52.426392 0.326788 -0.000000 0.000000
  3 0.209927 0.167365 2.417709 0.118400 0.000000 0.000000
  4 -0.585070 71.233521 -54.342316 0.087266 0.000000 -0.000000
  5 -0.737603 -0.548838 40.203674 -0.069813 0.000000 -0.000000
  6 2.553308 7.297699 96.216118 0.000000 -0.000000 0.000000
  7 25.337772 -9.646729 2.086914 -0.000011 -0.139632 -0.000607
  8 -23.810328 -7.093719 2.086906 -0.226045 0.064723 0.026189
  9 -7.352506 52.005478 -48.397377 0.216297 0.000000 0.000000
 10 -0.684172 -0.276031 30.967377 0.000000 -0.000000 0.000000
 11 -13.534456 -1.160921 22.015213 3.019416 0.000000 0.000000
 12 -20.972828 -0.005867 -27.595085 0.000000 0.209439 -0.000000
 13 -18.070236 -6.045794 -20.586182 2.577424 0.599609 -0.374444
 14 102.409561 -51.497677 30.822435 1.219132 0.725155 2.631446
 15 153.364655 62.139816 16.877859 1.078144 0.001989 0.109675
 16 0.671982 2.506062 -6.693920 0.000000 -0.000000 0.000000
 17 18.407478 -176.793945 8.075214 -0.009445 0.966446 0.010673
 18 12.176291 -0.829268 23.085022 -0.330962 0.156863 0.008289
 19 23.438766 1.362864 -28.210800 0.622482 0.147093 -0.046223
 20 17.520035 -4.855522 -21.387650 -0.559663 -0.318451 0.327741
 21 6.597048 5.855791 -9.931366 0.000000 -0.000000 0.000000
 22 -0.072890 -1.214045 9.388046 0.000000 -0.000000 0.000000
 23 0.000011 -5.381660 -154.110336 -0.034538 -0.005058 -0.145357
 24 0.000011 -5.381660 -154.110336 -0.034538 -0.005058 -0.145357
 25 2.650860 -0.017416 279.065491 0.000000 -0.000000 0.000000
time 28
  0 2.650860 -0.017416 -172.364380 0.000000 -0.000000 0.000000
  1 -0.186268 0.167365 -1.425583 -0.135709 0.000000 0.000000
  2 0.923381 -2.004177 -52.426422 0.263671 -0.000000 0.000000
  3 0.209927 0.167365 2.417709 0.101654 0.000000 0.000000
  4 -0.585070 71.233528 -54.342316 0.087266 0.000000 -0.000000
  5 -0.737603 -0.548840 40.203674 -0.069813 0.000000 0.000000
  6 2.553308 7.297701 96.216133 0.000000 -0.000000 0.000000
  7 25.337772 -9.646730 2.086914 -0.000011 -0.139632 -0.000607
  8 -23.810328 -7.093719 2.086906 -0.226045 0.064723 0.026189
  9 -7.352507 52.005486 -48.397385 0.240771 0.000000 0.000000
 10 -0.684172 -0.276030 30.967392 0.000000 -0.000000 0.000000
 11 -13.534456 -1.160923 22.015213 3.019416 0.000000 0.000000
 12 -20.972828 -0.005867 -27.595070 0.000000 0.209439 0.000000
 13 -18.070229 -6.045794 -20.586189 2.577424 0.599609 -0.374444
 14 104.096329 -53.161179 30.843607 1.187695 0.724411 2.607603
 15 153.364655 62.139805 16.877851 1.078144 0.001989 0.109675
 16 0.671982 2.506062 -6.693913 0.000000 -0.000000 0.000000
 17 18.407471 -176.793930 8.075225 -0.009445 0.966446 0.010673
 18 12.176291 -0.829269 23.085022 -0.330962 0.156863 0.008289
 19 23.438766 1.362871 -28.210815 0.622483 0.147093 -0.046223
 20 17.520050 -4.855522 -21.387665 -0.559663 -0.318451 0.327741
 21 6.597046 5.855789 -9.931351 0.000000 -0.000000 0.000000
 22 -0.072890 -1.214050 9.388031 0.000000 -0.000000 0.000000
 23 0.000011 -5.381660 -154.110352 -0.034538 -0.005058 -0.145357
 24 0.000011 -5.381660 -154.110352 -0.034538 -0.005058 -0.145357
 25 2.650860 -0.017416 279.065491 0.000000 -0.000000 0.000000
time 29
  0 2.650860 -0.017416 -175.245605 0.000000 -0.000000 0.000000
  1 -0.186268 0.167365 -1.425583 -0.112763 0.000000 0.000000
  2 0.923380 -2.004173 -52.426422 0.223516 -0.000000 0.000000
  3 0.209927 0.167365 2.417709 0.091001 0.000000 0.000000
  4 -0.585070 71.233521 -54.342316 0.087266 0.000000 -0.000000
  5 -0.737603 -0.548837 40.203674 -0.069813 0.000000 0.000000
  6 2.553308 7.297700 96.216110 0.000000 -0.000000 0.000000
  7 25.337772 -9.646729 2.086914 -0.000011 -0.139632 -0.000607
  8 -23.810328 -7.093719 2.086914 -0.226045 0.064723 0.026189
  9 -7.352506 52.005478 -48.397385 0.256341 0.000000 0.000000
 10 -0.684172 -0.276031 30.967377 0.000000 -0.000000 0.000000
 11 -13.534456 -1.160922 22.015182 3.019416 -0.000000 0.000000
 12 -20.972824 -0.005867 -27.595070 0.000000 0.209439 -0.000000
 13 -18.070229 -6.045794 -20.586197 2.577424 0.599609 -0.374444
 14 105.153404 -54.217644 30.855740 1.167696 0.723981 2.592435
 15 153.364670 62.139816 16.877869 1.078144 0.001989 0.109675
 16 0.671982 2.506058 -6.693913 0.000000 -0.000000 0.000000
 17 18.407486 -176.793945 8.075251 -0.009445 0.966446 0.010673
 18 12.176291 -0.829268 23.085007 -0.330962 0.156863 0.008289
 19 23.438766 1.362864 -28.210800 0.622482 0.147093 -0.046223
 20 17.520050 -4.855522 -21.387650 -0.559663 -0.318451 0.327741
 21 6.597050 5.855791 -9.931351 0.000000 -0.000000 0.000000
 22 -0.072890 -1.214047 9.388031 0.000000 -0.000000 0.000000
 23 0.000011 -5.381660 -154.110352 -0.034538 -0.005058 -0.145357
 24 0.000011 -5.381660 -154.110352 -0.034538 -0.005058 -0.145357
 25 2.650860 -0.017416 279.065491 0.000000 -0.000000 0.000000
time 30
  0 2.650860 -0.017416 -176.236008 0.000000 -0.000000 0.000000
  1 -0.186268 0.167365 -1.425583 -0.104720 0.000000 0.000000
  2 0.923380 -2.004175 -52.426407 0.209440 -0.000000 0.000000
  3 0.209927 0.167365 2.417709 0.087267 0.000000 0.000000
  4 -0.585070 71.233528 -54.342331 0.087266 0.000000 -0.000000
  5 -0.737603 -0.548839 40.203659 -0.069813 0.000000 0.000000
  6 2.553308 7.297701 96.216118 0.000000 -0.000000 0.000000
  7 25.337772 -9.646729 2.086899 -0.000011 -0.139632 -0.000607
  8 -23.810328 -7.093719 2.086884 -0.226045 0.064723 0.026189
  9 -7.352507 52.005478 -48.397385 0.261799 0.000000 0.000000
 10 -0.684172 -0.276030 30.967377 0.000000 -0.000000 0.000000
 11 -13.534456 -1.160922 22.015198 3.019416 0.000000 0.000000
 12 -20.972826 -0.005867 -27.595062 0.000000 0.209439 -0.000000
 13 -18.070236 -6.045793 -20.586174 2.577425 0.599609 -0.374444
 14 105.519371 -54.587452 30.859552 1.160685 0.723843 2.587118
 15 153.364609 62.139778 16.877825 1.078144 0.001989 0.109675
 16 0.671967 2.506062 -6.693916 0.000000 -0.000000 0.000000
 17 18.407448 -176.793930 8.075209 -0.009445 0.966446 0.010673
 18 12.176291 -0.829269 23.085007 -0.330962 0.156863 0.008289
 19 23.438766 1.362869 -28.210800 0.622482 0.147093 -0.046223
 20 17.520050 -4.855530 -21.387665 -0.559663 -0.318451 0.327741
 21 6.597048 5.855791 -9.931351 0.000000 -0.000000 0.000000
 22 -0.072890 -1.214047 9.388031 0.000000 -0.000000 0.000000
 23 0.000011 -5.381660 -154.110336 -0.034538 -0.005058 -0.145357
 24 0.000011 -5.381660 -154.110336 -0.034538 -0.005058 -0.145357
 25 2.650860 -0.017416 279.065491 0.000000 -0.000000 0.000000
end
