version 1
nodes
  0 "bone_27"  -1
  1 "bone_29"   0
  2 "bone_30"   1
  3 "bone_26"   0
  4 "bone_3"   3
  5 "bone_28"   3
  6 "bone_7"   5
  7 "bone_10"   5
  8 "bone_11"   5
  9 "bone_12"   5
 10 "bone_13"   5
 11 "bone_0"   3
 12 "bone_14"  11
 13 "bone_1"  12
 14 "bone_5"  13
 15 "bone_16"  14
 16 "bone_18"  13
 17 "bone_15"  13
 18 "bone_23"   3
 19 "bone_24"  18
 20 "bone_2"  19
 21 "bone_19"  20
 22 "bone_20"   3
 23 "bone_34"   0
 24 "bone_33"   0
 25 "bone_21"  -1
end
skeleton
time 0
  0 2.650860 -0.017416 127.640564 0.000000 -0.000000 0.000000
  1 -0.186268 0.167365 -1.425583 -0.104720 0.000000 0.000000
  2 0.923380 -2.004174 -52.426407 0.209440 0.000000 0.000000
  3 0.209927 0.167365 2.417709 0.087267 0.000000 0.000000
  4 -0.585070 71.233528 -54.342323 0.087266 0.000000 0.000000
  5 -0.737603 -0.548838 40.203674 -0.069813 0.000000 0.000000
  6 2.553308 7.297700 96.216095 0.000000 -0.000000 0.000000
  7 25.337772 -9.646730 2.086899 -0.000011 -0.139632 -0.000607
  8 -23.810328 -7.093719 2.086884 -0.226045 0.064723 0.026189
  9 -7.352506 52.005478 -48.397385 0.261799 0.000000 0.000000
 10 -0.684172 -0.276031 30.967361 0.000000 -0.000000 0.000000
 11 -13.534456 -1.160922 22.015198 3.019416 -0.000000 0.000000
 12 -20.972826 -0.005867 -27.595047 0.000000 0.209439 -0.000000
 13 -18.070240 -6.045795 -20.586197 2.577424 0.599609 -0.374444
 14 5.932732 -5.752617 0.181671 -1.147835 0.866904 -0.065273
 15 153.364685 62.139908 16.877747 1.078144 0.001989 0.109675
 16 0.671982 2.506065 -6.693924 0.000000 -0.000000 0.000000
 17 18.407455 -176.793884 8.075180 -0.009445 0.966446 0.010673
 18 12.176291 -0.829270 23.085007 -0.330962 0.156863 0.008289
 19 23.438766 1.362873 -28.210831 0.622483 0.147093 -0.046223
 20 17.520041 -4.855564 -21.387657 -0.559663 -0.318451 0.327741
 21 6.597042 5.855774 -9.931328 0.000000 -0.000000 0.000000
 22 -0.072890 -1.214047 9.388031 0.000000 -0.000000 0.000000
 23 0.000011 -5.381660 -154.110336 -0.034538 -0.005058 -0.145357
 24 0.000011 -5.381660 -154.110336 -0.034538 -0.005058 -0.145357
 25 2.650860 -0.017416 279.065491 0.000000 -0.000000 0.000000
time 1
  0 2.650860 1.064412 127.942490 0.000000 -0.000000 0.000000
  1 -0.186268 0.167365 -1.425583 -0.117661 -0.000000 0.000000
  2 0.923380 -2.004174 -52.426414 0.202775 -0.000000 0.000000
  3 0.209927 0.167365 2.573303 0.086167 0.000000 -0.000000
  4 -1.654551 63.613480 -53.636292 0.087266 0.000000 -0.000000
  5 -0.737603 -0.548838 40.203674 -0.067198 0.000000 0.000000
  6 2.553308 7.297701 96.216125 0.000000 -0.000000 0.000000
  7 25.337772 -9.646732 2.086884 -0.031063 -0.138543 0.003524
  8 -23.810328 -7.093720 2.086899 -0.269074 0.066125 0.024870
  9 -7.352507 52.005493 -48.397392 0.211603 0.000000 0.000000
 10 -0.684172 -0.276030 30.967377 0.000000 -0.000000 0.000000
 11 -13.534456 -1.160921 22.015198 3.019416 0.000000 0.000000
 12 -20.972826 -0.005867 -27.595078 -0.000000 0.209439 -0.000000
 13 -18.070232 -6.045796 -20.586166 2.577424 0.599609 -0.374444
 14 5.932739 -5.752625 0.181671 -1.147835 0.866904 -0.065273
 15 153.364655 62.139893 16.877735 1.078144 0.001989 0.109675
 16 0.671974 2.506058 -6.693909 0.000000 -0.000000 0.000000
 17 18.407486 -176.793915 8.075226 -0.009445 0.966446 0.010673
 18 12.176291 -0.829268 23.085022 -0.330962 0.156863 0.008289
 19 23.438761 1.362873 -28.210815 0.622483 0.147093 -0.046223
 20 17.520039 -4.855560 -21.387657 -0.594685 -0.317402 0.330597
 21 6.597034 5.855774 -9.931328 0.000000 -0.000000 0.000000
 22 -0.072890 -1.214047 9.388016 0.000000 -0.000000 0.000000
 23 0.000011 -5.381660 -154.110336 -0.034538 -0.005058 -0.145357
 24 0.000011 -5.381660 -154.110336 -0.034538 -0.005058 -0.145357
 25 2.650860 -0.017416 279.065491 0.000000 -0.000000 0.000000
time 2
  0 2.650860 2.426583 128.796295 0.000000 -0.000000 0.000000
  1 -0.186268 0.167365 -1.425583 -0.134310 -0.000000 0.000000
  2 0.923380 -2.004174 -52.426422 0.184092 -0.000000 0.000000
  3 0.209927 0.167365 2.785400 0.083054 0.000000 -0.000000
  4 -4.474093 44.930923 -51.774933 0.087266 0.000000 -0.000000
  5 -0.737603 -0.548837 40.203674 -0.059835 0.000000 0.000000
  6 2.553308 7.297701 96.216110 0.000000 -0.000000 0.000000
  7 25.337772 -9.646732 2.086899 -0.110676 -0.135753 0.014118
  8 -23.810328 -7.093719 2.086914 -0.331988 0.067219 0.021370
  9 -7.352506 52.005489 -48.397385 0.079912 0.000000 0.000000
 10 -0.684172 -0.276030 30.967377 0.000000 -0.000000 0.000000
 11 -13.534456 -1.160923 22.015198 3.019416 0.000000 0.000000
 12 -20.972828 -0.005867 -27.595093 -0.000000 0.209439 -0.000000
 13 -18.070236 -6.045795 -20.586166 2.577424 0.599609 -0.374444
 14 5.932716 -5.752617 0.181671 -1.147835 0.866904 -0.065273
 15 153.364685 62.139893 16.877739 1.078144 0.001989 0.109675
 16 0.671982 2.506058 -6.693909 0.000000 -0.000000 0.000000
 17 18.407471 -176.793884 8.075195 -0.009445 0.966446 0.010673
 18 12.176291 -0.829269 23.085007 -0.330962 0.156863 0.008289
 19 23.438765 1.362877 -28.210815 0.622483 0.147093 -0.046223
 20 17.520041 -4.855553 -21.387650 -0.632013 -0.314472 0.333081
 21 6.597038 5.855774 -9.931328 0.000000 -0.000000 0.000000
 22 -0.072890 -1.214048 9.388031 0.000000 -0.000000 0.000000
 23 0.000011 -5.381660 -154.110336 -0.034538 -0.005058 -0.145357
 24 0.000011 -5.381660 -154.110336 -0.034538 -0.005058 -0.145357
 25 2.650860 -0.017416 279.065491 0.000000 -0.000000 0.000000
time 3
  0 2.650860 4.021393 130.123993 0.000000 -0.000000 0.000000
  1 -0.186268 0.167365 -1.425583 -0.153627 -0.000000 0.000000
  2 0.923381 -2.004173 -52.426407 0.155358 -0.000000 0.000000
  3 0.209927 0.167365 3.043808 0.078204 0.000000 -0.000000
  4 -8.460341 18.908709 -49.143394 0.087266 0.000000 -0.000000
  5 -0.737603 -0.548839 40.203659 -0.048445 0.000000 0.000000
  6 2.553308 7.297700 96.216095 0.000000 -0.000000 0.000000
  7 25.337772 -9.646731 2.086899 -0.218536 -0.131972 0.028471
  8 -23.810328 -7.093719 2.086884 -0.407403 0.068042 0.016374
  9 -7.352506 52.005486 -48.397400 -0.104929 -0.000000 0.000000
 10 -0.684172 -0.276030 30.967377 0.000000 -0.000000 0.000000
 11 -13.534456 -1.160922 22.015198 3.019416 -0.000000 0.000000
 12 -20.972828 -0.005866 -27.595078 -0.000000 0.209439 -0.000000
 13 -18.070229 -6.045797 -20.586182 2.577424 0.599609 -0.374444
 14 5.932739 -5.752617 0.181671 -1.147835 0.866904 -0.065273
 15 153.364685 62.139877 16.877743 1.078144 0.001989 0.109675
 16 0.671997 2.506058 -6.693909 0.000000 -0.000000 0.000000
 17 18.407486 -176.793869 8.075180 -0.009445 0.966446 0.010673
 18 12.176291 -0.829269 23.085007 -0.330962 0.156863 0.008289
 19 23.438765 1.362869 -28.210815 0.622483 0.147093 -0.046223
 20 17.520041 -4.855556 -21.387665 -0.670820 -0.309986 0.335218
 21 6.597042 5.855776 -9.931335 0.000000 -0.000000 0.000000
 22 -0.072890 -1.214049 9.388031 0.000000 -0.000000 0.000000
 23 0.000011 -5.381660 -154.110336 -0.034538 -0.005058 -0.145357
 24 0.000011 -5.381660 -154.110336 -0.034538 -0.005058 -0.145357
 25 2.650860 -0.017416 279.065491 0.000000 -0.000000 0.000000
time 4
  0 2.650860 5.801141 131.847641 0.000000 -0.000000 0.000000
  1 -0.186268 0.167365 -1.425583 -0.174569 -0.000000 0.000000
  2 0.923380 -2.004173 -52.426407 0.118541 -0.000000 0.000000
  3 0.209927 0.167365 3.338333 0.071893 0.000000 -0.000000
  4 -13.029944 -10.730347 -46.126717 0.087266 0.000000 0.000000
  5 -0.737603 -0.548838 40.203674 -0.033749 0.000000 0.000000
  6 2.553308 7.297702 96.216141 0.000000 -0.000000 0.000000
  7 25.337772 -9.646731 2.086899 -0.334330 -0.127914 0.043879
  8 -23.810328 -7.093720 2.086914 -0.487932 0.068632 0.010564
  9 -7.352507 52.005486 -48.397377 -0.314572 -0.000000 0.000000
 10 -0.684172 -0.276031 30.967392 0.000000 -0.000000 0.000000
 11 -13.534456 -1.160922 22.015198 3.019416 -0.000000 0.000000
 12 -20.972828 -0.005867 -27.595078 -0.000000 0.209439 -0.000000
 13 -18.070232 -6.045794 -20.586182 2.577424 0.599609 -0.374444
 14 5.932739 -5.752625 0.181686 -1.147835 0.866904 -0.065273
 15 153.364670 62.139893 16.877745 1.078144 0.001989 0.109675
 16 0.671982 2.506058 -6.693909 0.000000 -0.000000 0.000000
 17 18.407455 -176.793884 8.075180 -0.009445 0.966446 0.010673
 18 12.176291 -0.829268 23.085022 -0.330962 0.156863 0.008289
 19 23.438765 1.362873 -28.210815 0.622483 0.147093 -0.046223
 20 17.520042 -4.855560 -21.387657 -0.710279 -0.304271 0.337033
 21 6.597038 5.855778 -9.931335 0.000000 -0.000000 0.000000
 22 -0.072890 -1.214047 9.388046 0.000000 -0.000000 0.000000
 23 0.000011 -5.381660 -154.110336 -0.034538 -0.005058 -0.145357
 24 0.000011 -5.381660 -154.110336 -0.034538 -0.005058 -0.145357
 25 2.650860 -0.017416 279.065491 0.000000 -0.000000 0.000000
time 5
  0 2.650860 7.718124 133.889236 0.000000 -0.000000 0.000000
  1 -0.186268 0.167365 -1.425583 -0.196096 -0.000000 0.000000
  2 0.923381 -2.004175 -52.426399 0.075607 -0.000000 0.000000
  3 0.209927 0.167365 3.658813 0.064398 0.000000 -0.000000
  4 -17.599546 -40.263435 -43.110054 0.087266 0.000000 0.000000
  5 -0.737603 -0.548838 40.203690 -0.016471 0.000000 0.000000
  6 2.553308 7.297701 96.216110 0.000000 -0.000000 0.000000
  7 25.337772 -9.646730 2.086914 -0.437746 -0.124289 0.057641
  8 -23.810328 -7.093719 2.086914 -0.566189 0.069028 0.004626
  9 -7.352507 52.005486 -48.397385 -0.520672 -0.000000 0.000000
 10 -0.684172 -0.276031 30.967361 0.000000 -0.000000 0.000000
 11 -13.534457 -1.160923 22.015198 3.019416 -0.000000 0.000000
 12 -20.972828 -0.005867 -27.595093 -0.000000 0.209439 -0.000000
 13 -18.070229 -6.045795 -20.586182 2.577424 0.599609 -0.374444
 14 5.932724 -5.752617 0.181671 -1.147835 0.866904 -0.065273
 15 153.364685 62.139908 16.877743 1.078144 0.001989 0.109675
 16 0.671974 2.506065 -6.693924 0.000000 -0.000000 0.000000
 17 18.407455 -176.793915 8.075180 -0.009445 0.966446 0.010673
 18 12.176291 -0.829269 23.085037 -0.330962 0.156863 0.008289
 19 23.438763 1.362873 -28.210831 0.622483 0.147093 -0.046223
 20 17.520041 -4.855560 -21.387657 -0.749563 -0.297650 0.338552
 21 6.597038 5.855776 -9.931343 0.000000 -0.000000 0.000000
 22 -0.072891 -1.214048 9.388046 0.000000 -0.000000 0.000000
 23 0.000011 -5.381660 -154.110336 -0.034538 -0.005058 -0.145357
 24 0.000011 -5.381660 -154.110336 -0.034538 -0.005058 -0.145357
 25 2.650860 -0.017416 279.065491 0.000000 -0.000000 0.000000
time 6
  0 2.650860 9.724641 136.170837 0.000000 -0.000000 0.000000
  1 -0.186268 0.167365 -1.425583 -0.217168 -0.000000 0.000000
  2 0.923380 -2.004175 -52.426407 0.028523 -0.000000 0.000000
  3 0.209927 0.167365 3.995056 0.055995 0.000000 -0.000000
  4 -21.585796 -65.967697 -40.478485 0.087266 0.000000 -0.000000
  5 -0.737603 -0.548838 40.203674 0.002668 0.000000 0.000000
  6 2.553308 7.297703 96.216171 0.000000 -0.000000 0.000000
  7 25.337772 -9.646732 2.086899 -0.508471 -0.121810 0.067052
  8 -23.810326 -7.093720 2.086899 -0.634789 0.069267 -0.000756
  9 -7.352506 52.005489 -48.397385 -0.694883 -0.000000 0.000000
 10 -0.684172 -0.276030 30.967377 0.000000 -0.000000 0.000000
 11 -13.534456 -1.160921 22.015213 3.019416 0.000000 0.000000
 12 -20.972826 -0.005868 -27.595062 0.000000 0.209439 -0.000000
 13 -18.070229 -6.045796 -20.586166 2.577424 0.599609 -0.374444
 14 5.932724 -5.752625 0.181671 -1.147835 0.866904 -0.065273
 15 153.364639 62.139908 16.877745 1.078144 0.001989 0.109675
 16 0.671982 2.506065 -6.693924 0.000000 -0.000000 0.000000
 17 18.407440 -176.793930 8.075165 -0.009445 0.966446 0.010673
 18 12.176292 -0.829269 23.085037 -0.330962 0.156863 0.008289
 19 23.438765 1.362873 -28.210815 0.622482 0.147093 -0.046223
 20 17.520039 -4.855564 -21.387665 -0.787844 -0.290450 0.339801
 21 6.597038 5.855778 -9.931335 0.000000 -0.000000 0.000000
 22 -0.072890 -1.214046 9.388031 0.000000 -0.000000 0.000000
 23 0.000011 -5.381660 -154.110336 -0.034538 -0.005058 -0.145357
 24 0.000011 -5.381660 -154.110336 -0.034538 -0.005058 -0.145357
 25 2.650860 -0.017416 279.065491 0.000000 -0.000000 0.000000
time 7
  0 2.650860 11.772987 138.614471 0.000000 -0.000000 0.000000
  1 -0.186268 0.167365 -1.425583 -0.236742 -0.000000 0.000000
  2 0.923380 -2.004175 -52.426422 -0.020743 -0.000000 0.000000
  3 0.209927 0.167365 4.336899 0.046961 0.000000 -0.000000
  4 -24.405338 -84.120331 -38.617149 0.087266 0.000000 -0.000000
  5 -0.737603 -0.548840 40.203674 0.022946 0.000000 0.000000
  6 2.553308 7.297701 96.216141 0.000000 -0.000000 0.000000
  7 25.337770 -9.646730 2.086884 -0.527781 -0.121133 0.069621
  8 -23.810329 -7.093719 2.086914 -0.686345 0.069388 -0.004897
  9 -7.352507 52.005478 -48.397385 -0.808858 -0.000000 0.000000
 10 -0.684172 -0.276030 30.967377 0.000000 -0.000000 0.000000
 11 -13.534456 -1.160923 22.015198 3.019416 0.000000 0.000000
 12 -20.972828 -0.005867 -27.595093 -0.000000 0.209439 0.000000
 13 -18.070229 -6.045798 -20.586182 2.577424 0.599609 -0.374444
 14 5.932739 -5.752625 0.181686 -1.147835 0.866904 -0.065273
 15 153.364655 62.139923 16.877741 1.078144 0.001989 0.109675
 16 0.671982 2.506058 -6.693909 0.000000 -0.000000 0.000000
 17 18.407463 -176.793915 8.075195 -0.009445 0.966446 0.010673
 18 12.176291 -0.829269 23.085037 -0.330962 0.156863 0.008289
 19 23.438765 1.362877 -28.210831 0.622483 0.147093 -0.046223
 20 17.520041 -4.855556 -21.387657 -0.824294 -0.282995 0.340805
 21 6.597038 5.855782 -9.931335 0.000000 -0.000000 0.000000
 22 -0.072890 -1.214048 9.388046 0.000000 -0.000000 0.000000
 23 0.000011 -5.381660 -154.110336 -0.034538 -0.005058 -0.145357
 24 0.000011 -5.381660 -154.110336 -0.034538 -0.005058 -0.145357
 25 2.650860 -0.017416 279.065491 0.000000 -0.000000 0.000000
time 8
  0 2.650860 13.815464 141.142166 0.000000 -0.000000 0.000000
  1 -0.186268 0.167365 -1.425583 -0.253779 -0.000000 0.000000
  2 0.923380 -2.004173 -52.426399 -0.070224 -0.000000 0.000000
  3 0.209927 0.167365 4.674149 0.037573 0.000000 -0.000000
  4 -25.474819 -90.998505 -37.911118 0.087266 0.000000 -0.000000
  5 -0.737603 -0.548836 40.203674 0.043642 0.000000 0.000000
  6 2.553308 7.297701 96.216141 0.000000 -0.000000 0.000000
  7 25.337774 -9.646730 2.086914 -0.525007 -0.121231 0.069252
  8 -23.810326 -7.093719 2.086914 -0.713471 0.069429 -0.007114
  9 -7.352506 52.005486 -48.397385 -0.837482 -0.000000 0.000000
 10 -0.684172 -0.276030 30.967392 0.000000 -0.000000 0.000000
 11 -13.534456 -1.160921 22.015213 3.019416 0.000000 0.000000
 12 -20.972828 -0.005867 -27.595093 -0.000000 0.209439 -0.000000
 13 -18.070229 -6.045795 -20.586182 2.577424 0.599609 -0.374444
 14 5.932732 -5.752625 0.181671 -1.147835 0.866904 -0.065273
 15 153.364655 62.139893 16.877758 1.078144 0.001989 0.109675
 16 0.671982 2.506058 -6.693909 0.000000 -0.000000 0.000000
 17 18.407478 -176.793961 8.075195 -0.009445 0.966446 0.010673
 18 12.176291 -0.829268 23.085037 -0.330962 0.156863 0.008289
 19 23.438765 1.362869 -28.210815 0.622483 0.147093 -0.046223
 20 17.520046 -4.855560 -21.387665 -0.858086 -0.275612 0.341590
 21 6.597034 5.855778 -9.931335 0.000000 -0.000000 0.000000
 22 -0.072890 -1.214046 9.388046 0.000000 -0.000000 0.000000
 23 0.000011 -5.381660 -154.110336 -0.034538 -0.005058 -0.145357
 24 0.000011 -5.381660 -154.110336 -0.034538 -0.005058 -0.145357
 25 2.650860 -0.017416 279.065491 0.000000 -0.000000 0.000000
time 9
  0 2.650860 15.804367 143.675964 0.000000 -0.000000 0.000000
  1 -0.186268 0.167365 -1.425583 -0.267237 -0.000000 0.000000
  2 0.923381 -2.004171 -52.426399 -0.117953 -0.000000 0.000000
  3 0.209927 0.167365 4.996643 0.028107 0.000000 -0.000000
  4 -25.474817 -84.981842 -37.911125 0.087266 0.000000 -0.000000
  5 -0.737603 -0.548838 40.203674 0.064033 0.000000 0.000000
  6 2.553308 7.297699 96.216125 0.000000 -0.000000 0.000000
  7 25.337772 -9.646732 2.086914 -0.518599 -0.121455 0.068400
  8 -23.810328 -7.093721 2.086914 -0.715041 0.069423 -0.007255
  9 -7.352507 52.005486 -48.397385 -0.831029 -0.000000 0.000000
 10 -0.684172 -0.276031 30.967392 0.000000 -0.000000 0.000000
 11 -13.534456 -1.160921 22.015198 3.019416 -0.000000 0.000000
 12 -20.972828 -0.005870 -27.595062 0.000000 0.209439 -0.000000
 13 -18.070229 -6.045795 -20.586197 2.577424 0.599609 -0.374444
 14 5.932739 -5.752625 0.181671 -1.147835 0.866904 -0.065273
 15 153.364639 62.139908 16.877739 1.078144 0.001989 0.109675
 16 0.671974 2.506065 -6.693924 0.000000 -0.000000 0.000000
 17 18.407471 -176.793900 8.075195 -0.009445 0.966446 0.010673
 18 12.176291 -0.829269 23.085022 -0.330962 0.156863 0.008289
 19 23.438763 1.362877 -28.210831 0.622483 0.147093 -0.046223
 20 17.520041 -4.855560 -21.387657 -0.888393 -0.268625 0.342180
 21 6.597031 5.855778 -9.931335 0.000000 -0.000000 0.000000
 22 -0.072890 -1.214048 9.388046 0.000000 -0.000000 0.000000
 23 0.000011 -5.381660 -154.110336 -0.034538 -0.005058 -0.145357
 24 0.000011 -5.381660 -154.110336 -0.034538 -0.005058 -0.145357
 25 2.650860 -0.017416 279.065491 0.000000 -0.000000 0.000000
time 10
  0 2.650860 17.691994 146.137863 0.000000 -0.000000 0.000000
  1 -0.186268 0.167366 -1.425583 -0.276075 -0.000000 0.000000
  2 0.923380 -2.004179 -52.426407 -0.161963 -0.000000 0.000000
  3 0.209927 0.167364 5.294174 0.018840 0.000000 -0.000000
  4 -25.474821 -68.857178 -37.911125 0.087266 0.000000 -0.000000
  5 -0.737603 -0.548838 40.203674 0.083398 0.000000 0.000000
  6 2.553308 7.297699 96.216110 0.000000 -0.000000 0.000000
  7 25.337772 -9.646730 2.086914 -0.508839 -0.121797 0.067101
  8 -23.810328 -7.093719 2.086914 -0.710587 0.069380 -0.006950
  9 -7.352507 52.005486 -48.397385 -0.816506 -0.000000 0.000000
 10 -0.684172 -0.276028 30.967392 0.000000 -0.000000 0.000000
 11 -13.534456 -1.160921 22.015198 3.019416 0.000000 0.000000
 12 -20.972830 -0.005867 -27.595078 -0.000000 0.209439 0.000000
 13 -18.070230 -6.045795 -20.586166 2.577424 0.599609 -0.374444
 14 5.932739 -5.752625 0.181671 -1.147835 0.866904 -0.065273
 15 153.364655 62.139908 16.877745 1.078144 0.001989 0.109675
 16 0.671982 2.506065 -6.693909 0.000000 -0.000000 0.000000
 17 18.407486 -176.793915 8.075211 -0.009445 0.966446 0.010673
 18 12.176292 -0.829269 23.085022 -0.330962 0.156863 0.008289
 19 23.438763 1.362877 -28.210846 0.622483 0.147093 -0.046223
 20 17.520039 -4.855560 -21.387672 -0.914388 -0.262360 0.342603
 21 6.597038 5.855774 -9.931343 0.000000 -0.000000 0.000000
 22 -0.072890 -1.214048 9.388031 0.000000 -0.000000 0.000000
 23 0.000011 -5.381660 -154.110336 -0.034538 -0.005058 -0.145357
 24 0.000011 -5.381660 -154.110336 -0.034538 -0.005058 -0.145357
 25 2.650860 -0.017416 279.065491 0.000000 -0.000000 0.000000
time 11
  0 2.650860 19.430641 148.449921 0.000000 -0.000000 0.000000
  1 -0.186268 0.167366 -1.425583 -0.279253 -0.000000 0.000000
  2 0.923380 -2.004173 -52.426407 -0.200287 -0.000000 0.000000
  3 0.209927 0.167364 5.556595 0.010048 0.000000 -0.000000
  4 -25.474817 -45.512527 -37.911125 0.087266 0.000000 0.000000
  5 -0.737603 -0.548841 40.203674 0.101014 0.000000 0.000000
  6 2.553308 7.297699 96.216125 0.000000 -0.000000 0.000000
  7 25.337774 -9.646729 2.086899 -0.496009 -0.122247 0.065394
  8 -23.810328 -7.093719 2.086899 -0.702494 0.069303 -0.006397
  9 -7.352507 52.005493 -48.397400 -0.794567 -0.000000 0.000000
 10 -0.684172 -0.276031 30.967392 0.000000 -0.000000 0.000000
 11 -13.534456 -1.160925 22.015198 3.019416 0.000000 0.000000
 12 -20.972828 -0.005863 -27.595078 0.000000 0.209439 -0.000000
 13 -18.070229 -6.045795 -20.586182 2.577424 0.599609 -0.374444
 14 5.932724 -5.752617 0.181671 -1.147835 0.866904 -0.065273
 15 153.364624 62.139893 16.877745 1.078144 0.001989 0.109675
 16 0.671974 2.506065 -6.693909 0.000000 -0.000000 0.000000
 17 18.407440 -176.793945 8.075180 -0.009445 0.966446 0.010673
 18 12.176291 -0.829271 23.085022 -0.330962 0.156863 0.008289
 19 23.438759 1.362873 -28.210831 0.622483 0.147093 -0.046223
 20 17.520046 -4.855560 -21.387657 -0.935242 -0.257143 0.342882
 21 6.597034 5.855782 -9.931343 0.000000 -0.000000 0.000000
 22 -0.072890 -1.214050 9.388046 0.000000 -0.000000 0.000000
 23 0.000011 -5.381660 -154.110336 -0.034538 -0.005058 -0.145357
 24 0.000011 -5.381660 -154.110336 -0.034538 -0.005058 -0.145357
 25 2.650860 -0.017416 279.065491 0.000000 -0.000000 0.000000
time 12
  0 2.650860 20.972610 150.534164 0.000000 -0.000000 0.000000
  1 -0.186268 0.167366 -1.425583 -0.278904 -0.000000 0.000000
  2 0.923381 -2.004175 -52.426392 -0.230957 -0.000000 0.000000
  3 0.209927 0.167364 5.773712 0.002009 0.000000 -0.000000
  4 -25.474821 -17.835876 -37.911110 0.087266 0.000000 0.000000
  5 -0.737603 -0.548841 40.203674 0.116161 0.000000 0.000000
  6 2.553308 7.297703 96.216125 0.000000 -0.000000 0.000000
  7 25.337772 -9.646729 2.086914 -0.480390 -0.122794 0.063315
  8 -23.810326 -7.093716 2.086914 -0.691072 0.069193 -0.005616
  9 -7.352506 52.005493 -48.397385 -0.765862 -0.000000 0.000000
 10 -0.684172 -0.276028 30.967377 0.000000 -0.000000 0.000000
 11 -13.534456 -1.160921 22.015213 3.019416 0.000000 0.000000
 12 -20.972826 -0.005865 -27.595078 0.000000 0.209439 -0.000000
 13 -18.070230 -6.045795 -20.586166 2.577424 0.599609 -0.374444
 14 5.932739 -5.752617 0.181656 -1.147835 0.866904 -0.065273
 15 153.364685 62.139893 16.877743 1.078144 0.001989 0.109675
 16 0.671997 2.506058 -6.693924 0.000000 -0.000000 0.000000
 17 18.407486 -176.793915 8.075180 -0.009445 0.966446 0.010673
 18 12.176292 -0.829271 23.085037 -0.330962 0.156863 0.008289
 19 23.438759 1.362869 -28.210831 0.622483 0.147093 -0.046223
 20 17.520050 -4.855560 -21.387665 -0.950129 -0.253298 0.343045
 21 6.597034 5.855778 -9.931335 0.000000 -0.000000 0.000000
 22 -0.072890 -1.214048 9.388046 0.000000 -0.000000 0.000000
 23 0.000011 -5.381660 -154.110336 -0.034538 -0.005058 -0.145357
 24 0.000011 -5.381660 -154.110336 -0.034538 -0.005058 -0.145357
 25 2.650860 -0.017416 279.065491 0.000000 -0.000000 0.000000
time 13
  0 2.650860 22.270197 152.312637 0.000000 -0.000000 0.000000
  1 -0.186268 0.167366 -1.425583 -0.277866 -0.000000 0.000000
  2 0.923381 -2.004173 -52.426399 -0.252006 -0.000000 0.000000
  3 0.209927 0.167364 5.935349 -0.005003 0.000000 -0.000000
  4 -25.474819 11.284781 -37.911118 0.087266 0.000000 0.000000
  5 -0.737603 -0.548840 40.203674 0.128115 0.000000 0.000000
  6 2.553308 7.297699 96.216110 0.000000 -0.000000 0.000000
  7 25.337774 -9.646729 2.086914 -0.462266 -0.123430 0.060904
  8 -23.810326 -7.093719 2.086914 -0.676634 0.069054 -0.004628
  9 -7.352506 52.005486 -48.397400 -0.731044 -0.000000 0.000000
 10 -0.684172 -0.276031 30.967377 0.000000 -0.000000 0.000000
 11 -13.534456 -1.160921 22.015213 3.019416 -0.000000 0.000000
 12 -20.972828 -0.005869 -27.595093 0.000000 0.209439 0.000000
 13 -18.070229 -6.045797 -20.586182 2.577424 0.599609 -0.374444
 14 5.932724 -5.752617 0.181671 -1.147835 0.866904 -0.065273
 15 153.364655 62.139908 16.877735 1.078144 0.001989 0.109675
 16 0.671982 2.506065 -6.693909 0.000000 -0.000000 0.000000
 17 18.407455 -176.793915 8.075165 -0.009445 0.966446 0.010673
 18 12.176291 -0.829271 23.085022 -0.330962 0.156863 0.008289
 19 23.438763 1.362873 -28.210831 0.622482 0.147093 -0.046223
 20 17.520042 -4.855560 -21.387665 -0.958221 -0.251151 0.343115
 21 6.597034 5.855778 -9.931343 0.000000 -0.000000 0.000000
 22 -0.072890 -1.214050 9.388046 0.000000 -0.000000 0.000000
 23 0.000011 -5.381659 -154.110336 -0.034538 -0.005058 -0.145357
 24 0.000011 -5.381659 -154.110336 -0.034538 -0.005058 -0.145357
 25 2.650860 -0.017416 279.065491 0.000000 -0.000000 0.000000
time 14
  0 2.650860 23.275698 153.707336 0.000000 -0.000000 0.000000
  1 -0.186268 0.167366 -1.425583 -0.276150 -0.000000 0.000000
  2 0.923381 -2.004173 -52.426414 -0.261468 -0.000000 0.000000
  3 0.209927 0.167364 6.031311 -0.010709 0.000000 -0.000000
  4 -25.474819 38.961430 -37.911125 0.087266 0.000000 -0.000000
  5 -0.737603 -0.548840 40.203674 0.136155 0.000000 0.000000
  6 2.553308 7.297699 96.216171 0.000000 -0.000000 0.000000
  7 25.337772 -9.646732 2.086929 -0.441917 -0.124143 0.058196
  8 -23.810326 -7.093719 2.086929 -0.659491 0.068889 -0.003456
  9 -7.352506 52.005493 -48.397354 -0.690764 -0.000000 0.000000
 10 -0.684172 -0.276031 30.967377 0.000000 -0.000000 0.000000
 11 -13.534456 -1.160921 22.015198 3.019416 -0.000000 0.000000
 12 -20.972828 -0.005867 -27.595078 -0.000000 0.209439 -0.000000
 13 -18.070229 -6.045795 -20.586182 2.577424 0.599609 -0.374444
 14 5.932724 -5.752625 0.181671 -1.147835 0.866904 -0.065273
 15 153.364639 62.139847 16.877750 1.078144 0.001989 0.109675
 16 0.671967 2.506065 -6.693924 0.000000 -0.000000 0.000000
 17 18.407440 -176.793900 8.075165 -0.009445 0.966446 0.010673
 18 12.176291 -0.829268 23.085022 -0.330962 0.156863 0.008289
 19 23.438763 1.362869 -28.210815 0.622483 0.147093 -0.046223
 20 17.520044 -4.855560 -21.387665 -0.958983 -0.250894 0.343105
 21 6.597046 5.855770 -9.931335 0.000000 -0.000000 0.000000
 22 -0.072890 -1.214046 9.388031 0.000000 -0.000000 0.000000
 23 0.000011 -5.381659 -154.110336 -0.034538 -0.005058 -0.145357
 24 0.000011 -5.381659 -154.110336 -0.034538 -0.005058 -0.145357
 25 2.650860 -0.017416 279.065491 0.000000 -0.000000 0.000000
time 15
  0 2.650860 23.941414 154.640320 0.000000 -0.000000 0.000000
  1 -0.186268 0.167366 -1.425583 -0.273769 -0.000000 0.000000
  2 0.923380 -2.004175 -52.426407 -0.259851 -0.000000 0.000000
  3 0.209927 0.167364 6.052429 -0.014833 0.000000 -0.000000
  4 -25.474819 62.306076 -37.911133 0.087266 0.000000 0.000000
  5 -0.737603 -0.548838 40.203674 0.139560 0.000000 0.000000
  6 2.553308 7.297703 96.216141 0.000000 -0.000000 0.000000
  7 25.337772 -9.646729 2.086899 -0.419626 -0.124924 0.055230
  8 -23.810328 -7.093719 2.086899 -0.639953 0.068701 -0.002119
  9 -7.352506 52.005493 -48.397400 -0.645676 -0.000000 0.000000
 10 -0.684172 -0.276031 30.967377 0.000000 -0.000000 0.000000
 11 -13.534456 -1.160923 22.015198 3.019416 0.000000 0.000000
 12 -20.972828 -0.005869 -27.595078 -0.000000 0.209439 -0.000000
 13 -18.070230 -6.045792 -20.586182 2.577424 0.599609 -0.374444
 14 5.932724 -5.752625 0.181671 -1.147835 0.866904 -0.065273
 15 153.364624 62.139893 16.877733 1.078144 0.001989 0.109675
 16 0.671967 2.506065 -6.693909 0.000000 -0.000000 0.000000
 17 18.407471 -176.793945 8.075195 -0.009445 0.966446 0.010673
 18 12.176291 -0.829268 23.085022 -0.330962 0.156863 0.008289
 19 23.438765 1.362877 -28.210815 0.622483 0.147093 -0.046223
 20 17.520041 -4.855556 -21.387657 -0.954324 -0.251683 0.342926
 21 6.597042 5.855766 -9.931343 0.000000 -0.000000 0.000000
 22 -0.072890 -1.214048 9.388046 0.000000 -0.000000 0.000000
 23 0.000011 -5.381660 -154.110336 -0.034538 -0.005058 -0.145357
 24 0.000011 -5.381660 -154.110336 -0.034538 -0.005058 -0.145357
 25 2.650860 -0.017416 279.065491 0.000000 -0.000000 0.000000
time 16
  0 2.650860 24.219639 155.033615 0.000000 -0.000000 0.000000
  1 -0.186268 0.167366 -1.425583 -0.270734 -0.000000 0.000000
  2 0.923380 -2.004175 -52.426407 -0.252006 -0.000000 0.000000
  3 0.209927 0.167364 6.014206 -0.017099 0.000000 -0.000000
  4 -25.474817 78.430733 -37.911125 0.087266 0.000000 -0.000000
  5 -0.737603 -0.548838 40.203674 0.138526 0.000000 0.000000
  6 2.553308 7.297703 96.216141 0.000000 -0.000000 0.000000
  7 25.337774 -9.646729 2.086914 -0.395675 -0.125764 0.052042
  8 -23.810329 -7.093719 2.086914 -0.618334 0.068494 -0.000641
  9 -7.352506 52.005493 -48.397385 -0.596430 -0.000000 0.000000
 10 -0.684172 -0.276028 30.967392 0.000000 -0.000000 0.000000
 11 -13.534456 -1.160921 22.015198 3.019416 0.000000 0.000000
 12 -20.972828 -0.005865 -27.595078 0.000000 0.209439 0.000000
 13 -18.070230 -6.045797 -20.586166 2.577424 0.599609 -0.374444
 14 5.932739 -5.752617 0.181671 -1.147835 0.866904 -0.065273
 15 153.364655 62.139877 16.877731 1.078144 0.001989 0.109675
 16 0.671982 2.506058 -6.693909 0.000000 -0.000000 0.000000
 17 18.407486 -176.793915 8.075195 -0.009445 0.966446 0.010673
 18 12.176291 -0.829268 23.085022 -0.330962 0.156863 0.008289
 19 23.438763 1.362873 -28.210815 0.622482 0.147093 -0.046223
 20 17.520042 -4.855553 -21.387642 -0.945145 -0.253236 0.342573
 21 6.597042 5.855774 -9.931335 0.000000 -0.000000 0.000000
 22 -0.072890 -1.214048 9.388031 0.000000 -0.000000 0.000000
 23 0.000011 -5.381660 -154.110336 -0.034538 -0.005058 -0.145357
 24 0.000011 -5.381660 -154.110336 -0.034538 -0.005058 -0.145357
 25 2.650860 -0.017416 279.065491 0.000000 -0.000000 0.000000
time 17
  0 2.650860 24.083553 154.881378 0.000000 -0.000000 0.000000
  1 -0.186268 0.167366 -1.425583 -0.267057 -0.000000 0.000000
  2 0.923381 -2.004173 -52.426414 -0.238737 -0.000000 0.000000
  3 0.209927 0.167364 5.929367 -0.017279 0.000000 -0.000000
  4 -25.474819 84.447411 -37.911118 0.087266 0.000000 -0.000000
  5 -0.737603 -0.548838 40.203690 0.134556 0.000000 0.000000
  6 2.553308 7.297699 96.216110 0.000000 -0.000000 0.000000
  7 25.337772 -9.646736 2.086914 -0.370344 -0.126651 0.048672
  8 -23.810329 -7.093719 2.086914 -0.594943 0.068269 0.000959
  9 -7.352506 52.005493 -48.397369 -0.543680 -0.000000 0.000000
 10 -0.684172 -0.276031 30.967377 0.000000 -0.000000 0.000000
 11 -13.534456 -1.160923 22.015213 3.019416 0.000000 0.000000
 12 -20.972828 -0.005867 -27.595078 -0.000000 0.209439 -0.000000
 13 -18.070229 -6.045794 -20.586166 2.577424 0.599609 -0.374444
 14 5.932724 -5.752609 0.181671 -1.147835 0.866904 -0.065273
 15 153.364655 62.139908 16.877758 1.078144 0.001989 0.109675
 16 0.671982 2.506073 -6.693924 0.000000 -0.000000 0.000000
 17 18.407471 -176.793915 8.075195 -0.009445 0.966446 0.010673
 18 12.176291 -0.829269 23.085022 -0.330962 0.156863 0.008289
 19 23.438765 1.362877 -28.210831 0.622483 0.147093 -0.046223
 20 17.520042 -4.855556 -21.387665 -0.931933 -0.255471 0.342065
 21 6.597038 5.855774 -9.931335 0.000000 -0.000000 0.000000
 22 -0.072890 -1.214048 9.388046 0.000000 -0.000000 0.000000
 23 0.000011 -5.381660 -154.110336 -0.034538 -0.005058 -0.145357
 24 0.000011 -5.381660 -154.110336 -0.034538 -0.005058 -0.145357
 25 2.650860 -0.017416 279.065491 0.000000 -0.000000 0.000000
time 18
  0 2.650860 23.574175 154.305634 0.000000 -0.000000 0.000000
  1 -0.186268 0.167366 -1.425583 -0.262750 -0.000000 0.000000
  2 0.923380 -2.004177 -52.426414 -0.220672 -0.000000 0.000000
  3 0.209927 0.167364 5.803131 -0.015643 0.000000 -0.000000
  4 -25.474819 79.534920 -37.911125 0.087266 0.000000 -0.000000
  5 -0.737603 -0.548836 40.203674 0.127997 0.000000 0.000000
  6 2.553308 7.297699 96.216141 0.000000 -0.000000 0.000000
  7 25.337772 -9.646732 2.086899 -0.343917 -0.127578 0.045155
  8 -23.810328 -7.093719 2.086914 -0.570092 0.068030 0.002659
  9 -7.352507 52.005493 -48.397385 -0.488077 -0.000000 0.000000
 10 -0.684172 -0.276031 30.967377 0.000000 -0.000000 0.000000
 11 -13.534456 -1.160923 22.015198 3.019416 0.000000 0.000000
 12 -20.972828 -0.005867 -27.595062 -0.000000 0.209439 -0.000000
 13 -18.070230 -6.045794 -20.586182 2.577424 0.599609 -0.374444
 14 5.932739 -5.752625 0.181671 -1.147835 0.866904 -0.065273
 15 153.364624 62.139877 16.877737 1.078144 0.001989 0.109675
 16 0.671982 2.506058 -6.693909 0.000000 -0.000000 0.000000
 17 18.407471 -176.793915 8.075180 -0.009445 0.966446 0.010673
 18 12.176292 -0.829269 23.085022 -0.330962 0.156863 0.008289
 19 23.438763 1.362873 -28.210815 0.622483 0.147093 -0.046223
 20 17.520039 -4.855556 -21.387657 -0.915175 -0.258306 0.341420
 21 6.597038 5.855782 -9.931343 0.000000 -0.000000 0.000000
 22 -0.072890 -1.214048 9.388046 0.000000 -0.000000 0.000000
 23 0.000011 -5.381659 -154.110336 -0.034538 -0.005058 -0.145357
 24 0.000011 -5.381659 -154.110336 -0.034538 -0.005058 -0.145357
 25 2.650860 -0.017416 279.065491 0.000000 -0.000000 0.000000
time 19
  0 2.650860 22.735327 153.357498 0.000000 -0.000000 0.000000
  1 -0.186268 0.167366 -1.425583 -0.257826 -0.000000 0.000000
  2 0.923381 -2.004175 -52.426407 -0.198443 -0.000000 0.000000
  3 0.209927 0.167364 5.640778 -0.012446 0.000000 -0.000000
  4 -25.474819 66.201050 -37.911133 0.087266 0.000000 0.000000
  5 -0.737603 -0.548838 40.203659 0.119167 0.000000 0.000000
  6 2.553308 7.297703 96.216141 0.000000 -0.000000 0.000000
  7 25.337772 -9.646729 2.086899 -0.316675 -0.128533 0.041530
  8 -23.810326 -7.093716 2.086914 -0.544093 0.067780 0.004437
  9 -7.352506 52.005497 -48.397385 -0.430273 -0.000000 0.000000
 10 -0.684172 -0.276028 30.967377 0.000000 -0.000000 0.000000
 11 -13.534455 -1.160923 22.015182 3.019416 -0.000000 0.000000
 12 -20.972828 -0.005867 -27.595078 0.000000 0.209439 0.000000
 13 -18.070230 -6.045799 -20.586182 2.577424 0.599609 -0.374444
 14 5.932724 -5.752625 0.181671 -1.147835 0.866904 -0.065273
 15 153.364655 62.139893 16.877726 1.078144 0.001989 0.109675
 16 0.671967 2.506058 -6.693924 0.000000 -0.000000 0.000000
 17 18.407471 -176.793915 8.075195 -0.009445 0.966446 0.010673
 18 12.176291 -0.829268 23.085022 -0.330962 0.156863 0.008289
 19 23.438766 1.362873 -28.210846 0.622482 0.147093 -0.046223
 20 17.520042 -4.855560 -21.387650 -0.895358 -0.261658 0.340657
 21 6.597046 5.855782 -9.931351 0.000000 -0.000000 0.000000
 22 -0.072890 -1.214048 9.388031 0.000000 -0.000000 0.000000
 23 0.000011 -5.381659 -154.110336 -0.034538 -0.005058 -0.145357
 24 0.000011 -5.381659 -154.110336 -0.034538 -0.005058 -0.145357
 25 2.650860 -0.017416 279.065491 0.000000 -0.000000 0.000000
time 20
  0 2.650860 21.610483 152.086121 0.000000 -0.000000 0.000000
  1 -0.186268 0.167366 -1.425583 -0.252295 -0.000000 0.000000
  2 0.923380 -2.004175 -52.426392 -0.172680 -0.000000 0.000000
  3 0.209927 0.167364 5.447556 -0.007890 0.000000 -0.000000
  4 -25.474819 46.551086 -37.911125 0.087266 0.000000 0.000000
  5 -0.737603 -0.548840 40.203659 0.108388 0.000000 0.000000
  6 2.553308 7.297699 96.216125 0.000000 -0.000000 0.000000
  7 25.337774 -9.646729 2.086899 -0.288900 -0.129506 0.037834
  8 -23.810326 -7.093719 2.086914 -0.517257 0.067522 0.006272
  9 -7.352507 52.005486 -48.397400 -0.370920 -0.000000 0.000000
 10 -0.684172 -0.276031 30.967377 0.000000 -0.000000 0.000000
 11 -13.534455 -1.160923 22.015213 3.019416 -0.000000 0.000000
 12 -20.972828 -0.005867 -27.595078 0.000000 0.209439 0.000000
 13 -18.070229 -6.045795 -20.586166 2.577424 0.599609 -0.374444
 14 5.932739 -5.752609 0.181656 -1.147835 0.866904 -0.065273
 15 153.364639 62.139938 16.877737 1.078144 0.001989 0.109675
 16 0.671982 2.506058 -6.693924 0.000000 -0.000000 0.000000
 17 18.407501 -176.793900 8.075195 -0.009445 0.966446 0.010673
 18 12.176291 -0.829273 23.085037 -0.330962 0.156863 0.008289
 19 23.438766 1.362877 -28.210831 0.622482 0.147093 -0.046223
 20 17.520042 -4.855556 -21.387657 -0.872970 -0.265446 0.339796
 21 6.597042 5.855774 -9.931335 0.000000 -0.000000 0.000000
 22 -0.072890 -1.214050 9.388046 0.000000 -0.000000 0.000000
 23 0.000011 -5.381659 -154.110336 -0.034538 -0.005058 -0.145357
 24 0.000011 -5.381659 -154.110336 -0.034538 -0.005058 -0.145357
 25 2.650860 -0.017416 279.065491 0.000000 -0.000000 0.000000
time 21
  0 2.650860 20.243122 150.540619 0.000000 -0.000000 0.000000
  1 -0.186268 0.167366 -1.425583 -0.246171 -0.000000 0.000000
  2 0.923381 -2.004175 -52.426414 -0.144012 -0.000000 0.000000
  3 0.209927 0.167364 5.228699 -0.002175 0.000000 -0.000000
  4 -25.474817 22.690445 -37.911140 0.087266 0.000000 0.000000
  5 -0.737603 -0.548840 40.203659 0.095979 0.000000 0.000000
  6 2.553308 7.297703 96.216110 0.000000 -0.000000 0.000000
  7 25.337772 -9.646729 2.086899 -0.260874 -0.130488 0.034105
  8 -23.810326 -7.093719 2.086914 -0.489895 0.067259 0.008144
  9 -7.352506 52.005478 -48.397400 -0.310671 -0.000000 0.000000
 10 -0.684172 -0.276031 30.967377 0.000000 -0.000000 0.000000
 11 -13.534456 -1.160921 22.015182 3.019416 -0.000000 0.000000
 12 -20.972828 -0.005867 -27.595093 0.000000 0.209439 -0.000000
 13 -18.070229 -6.045797 -20.586166 2.577424 0.599609 -0.374444
 14 5.932732 -5.752617 0.181671 -1.147835 0.866904 -0.065273
 15 153.364624 62.139908 16.877745 1.078144 0.001989 0.109675
 16 0.671974 2.506065 -6.693924 0.000000 -0.000000 0.000000
 17 18.407478 -176.793915 8.075211 -0.009445 0.966446 0.010673
 18 12.176291 -0.829271 23.085007 -0.330962 0.156863 0.008289
 19 23.438770 1.362877 -28.210846 0.622483 0.147093 -0.046223
 20 17.520042 -4.855553 -21.387650 -0.848496 -0.269587 0.338854
 21 6.597046 5.855778 -9.931343 0.000000 -0.000000 0.000000
 22 -0.072890 -1.214048 9.388016 0.000000 -0.000000 0.000000
 23 0.000011 -5.381660 -154.110336 -0.034538 -0.005058 -0.145357
 24 0.000011 -5.381660 -154.110336 -0.034538 -0.005058 -0.145357
 25 2.650860 -0.017416 279.065491 0.000000 -0.000000 0.000000
time 22
  0 2.650860 18.676720 148.770142 0.000000 -0.000000 0.000000
  1 -0.186268 0.167366 -1.425583 -0.239464 -0.000000 0.000000
  2 0.923380 -2.004173 -52.426414 -0.113070 -0.000000 0.000000
  3 0.209927 0.167364 4.989487 0.004499 0.000000 -0.000000
  4 -25.474819 -3.275549 -37.911125 0.087266 0.000000 0.000000
  5 -0.737603 -0.548838 40.203674 0.082259 0.000000 0.000000
  6 2.553308 7.297707 96.216171 0.000000 -0.000000 0.000000
  7 25.337772 -9.646729 2.086899 -0.232879 -0.131470 0.030380
  8 -23.810328 -7.093718 2.086914 -0.462320 0.066994 0.010030
  9 -7.352506 52.005493 -48.397385 -0.250177 -0.000000 0.000000
 10 -0.684172 -0.276028 30.967377 0.000000 -0.000000 0.000000
 11 -13.534456 -1.160921 22.015198 3.019416 -0.000000 0.000000
 12 -20.972830 -0.005867 -27.595078 -0.000000 0.209439 -0.000000
 13 -18.070227 -6.045795 -20.586182 2.577424 0.599609 -0.374444
 14 5.932739 -5.752609 0.181671 -1.147835 0.866904 -0.065273
 15 153.364670 62.139923 16.877747 1.078144 0.001989 0.109675
 16 0.671982 2.506065 -6.693909 0.000000 -0.000000 0.000000
 17 18.407471 -176.793854 8.075211 -0.009445 0.966446 0.010673
 18 12.176292 -0.829269 23.085037 -0.330962 0.156863 0.008289
 19 23.438770 1.362881 -28.210831 0.622483 0.147093 -0.046223
 20 17.520041 -4.855560 -21.387665 -0.822425 -0.273997 0.337851
 21 6.597038 5.855782 -9.931335 0.000000 -0.000000 0.000000
 22 -0.072890 -1.214046 9.388046 0.000000 -0.000000 0.000000
 23 0.000011 -5.381660 -154.110336 -0.034538 -0.005058 -0.145357
 24 0.000011 -5.381660 -154.110336 -0.034538 -0.005058 -0.145357
 25 2.650860 -0.017416 279.065491 0.000000 -0.000000 0.000000
time 23
  0 2.650860 16.954754 146.823837 0.000000 -0.000000 0.000000
  1 -0.186268 0.167366 -1.425583 -0.232187 -0.000000 0.000000
  2 0.923381 -2.004173 -52.426422 -0.080484 -0.000000 0.000000
  3 0.209927 0.167364 4.735168 0.011930 0.000000 -0.000000
  4 -25.474819 -29.241543 -37.911118 0.087266 0.000000 0.000000
  5 -0.737603 -0.548838 40.203674 0.067549 0.000000 0.000000
  6 2.553308 7.297701 96.216125 0.000000 -0.000000 0.000000
  7 25.337774 -9.646730 2.086914 -0.205197 -0.132440 0.026696
  8 -23.810326 -7.093721 2.086899 -0.434842 0.066730 0.011909
  9 -7.352507 52.005493 -48.397400 -0.190091 -0.000000 0.000000
 10 -0.684172 -0.276030 30.967392 0.000000 -0.000000 0.000000
 11 -13.534457 -1.160921 22.015213 3.019416 -0.000000 0.000000
 12 -20.972828 -0.005868 -27.595078 -0.000000 0.209439 -0.000000
 13 -18.070229 -6.045794 -20.586182 2.577424 0.599609 -0.374444
 14 5.932724 -5.752617 0.181671 -1.147835 0.866904 -0.065273
 15 153.364639 62.139923 16.877769 1.078144 0.001989 0.109675
 16 0.671989 2.506058 -6.693924 0.000000 -0.000000 0.000000
 17 18.407455 -176.793884 8.075195 -0.009445 0.966446 0.010673
 18 12.176291 -0.829269 23.085037 -0.330962 0.156863 0.008289
 19 23.438763 1.362869 -28.210831 0.622483 0.147093 -0.046223
 20 17.520039 -4.855560 -21.387657 -0.795242 -0.278596 0.336805
 21 6.597038 5.855778 -9.931335 0.000000 -0.000000 0.000000
 22 -0.072890 -1.214048 9.388031 0.000000 -0.000000 0.000000
 23 0.000011 -5.381660 -154.110336 -0.034538 -0.005058 -0.145357
 24 0.000011 -5.381660 -154.110336 -0.034538 -0.005058 -0.145357
 25 2.650860 -0.017416 279.065491 0.000000 -0.000000 0.000000
time 24
  0 2.650860 15.120699 144.750854 0.000000 -0.000000 0.000000
  1 -0.186268 0.167365 -1.425583 -0.224352 -0.000000 0.000000
  2 0.923381 -2.004175 -52.426407 -0.046883 -0.000000 0.000000
  3 0.209927 0.167365 4.470993 0.019920 0.000000 -0.000000
  4 -25.474819 -53.102188 -37.911125 0.087266 0.000000 -0.000000
  5 -0.737603 -0.548838 40.203674 0.052168 0.000000 0.000000
  6 2.553307 7.297699 96.216110 0.000000 -0.000000 0.000000
  7 25.337770 -9.646730 2.086914 -0.178109 -0.133389 0.023092
  8 -23.810329 -7.093719 2.086914 -0.407772 0.066470 0.013760
  9 -7.352506 52.005486 -48.397385 -0.131064 -0.000000 0.000000
 10 -0.684172 -0.276031 30.967377 0.000000 -0.000000 0.000000
 11 -13.534456 -1.160923 22.015213 3.019416 -0.000000 0.000000
 12 -20.972828 -0.005867 -27.595093 0.000000 0.209439 -0.000000
 13 -18.070230 -6.045797 -20.586182 2.577424 0.599609 -0.374444
 14 5.932739 -5.752617 0.181686 -1.147835 0.866904 -0.065273
 15 153.364655 62.139923 16.877754 1.078144 0.001989 0.109675
 16 0.671967 2.506065 -6.693909 0.000000 -0.000000 0.000000
 17 18.407501 -176.793945 8.075211 -0.009445 0.966446 0.010673
 18 12.176291 -0.829269 23.085022 -0.330962 0.156863 0.008289
 19 23.438759 1.362869 -28.210815 0.622483 0.147093 -0.046223
 20 17.520042 -4.855556 -21.387642 -0.767436 -0.283300 0.335735
 21 6.597042 5.855778 -9.931335 0.000000 -0.000000 0.000000
 22 -0.072890 -1.214048 9.388031 0.000000 -0.000000 0.000000
 23 0.000011 -5.381660 -154.110336 -0.034538 -0.005058 -0.145357
 24 0.000011 -5.381660 -154.110336 -0.034538 -0.005058 -0.145357
 25 2.650860 -0.017416 279.065491 0.000000 -0.000000 0.000000
time 25
  0 2.650860 13.218032 142.600311 0.000000 -0.000000 0.000000
  1 -0.186268 0.167365 -1.425583 -0.215970 -0.000000 0.000000
  2 0.923380 -2.004175 -52.426407 -0.012899 -0.000000 0.000000
  3 0.209927 0.167365 4.202225 0.028267 0.000000 -0.000000
  4 -25.474821 -72.752136 -37.911133 0.087266 0.000000 0.000000
  5 -0.737603 -0.548838 40.203674 0.036436 0.000000 0.000000
  6 2.553308 7.297703 96.216125 0.000000 -0.000000 0.000000
  7 25.337772 -9.646730 2.086914 -0.151898 -0.134308 0.019604
  8 -23.810329 -7.093719 2.086899 -0.381423 0.066216 0.015562
  9 -7.352507 52.005486 -48.397385 -0.073749 -0.000000 0.000000
 10 -0.684172 -0.276030 30.967377 0.000000 -0.000000 0.000000
 11 -13.534456 -1.160923 22.015182 3.019416 0.000000 0.000000
 12 -20.972828 -0.005866 -27.595062 -0.000000 0.209439 -0.000000
 13 -18.070232 -6.045796 -20.586182 2.577424 0.599609 -0.374444
 14 5.932724 -5.752625 0.181671 -1.147835 0.866904 -0.065273
 15 153.364655 62.139862 16.877728 1.078144 0.001989 0.109675
 16 0.671967 2.506065 -6.693924 0.000000 -0.000000 0.000000
 17 18.407471 -176.793884 8.075180 -0.009445 0.966446 0.010673
 18 12.176291 -0.829269 23.085022 -0.330962 0.156863 0.008289
 19 23.438759 1.362865 -28.210815 0.622482 0.147093 -0.046223
 20 17.520041 -4.855556 -21.387650 -0.739493 -0.288028 0.334660
 21 6.597038 5.855778 -9.931335 0.000000 -0.000000 0.000000
 22 -0.072890 -1.214046 9.388031 0.000000 -0.000000 0.000000
 23 0.000011 -5.381660 -154.110336 -0.034538 -0.005058 -0.145357
 24 0.000011 -5.381660 -154.110336 -0.034538 -0.005058 -0.145357
 25 2.650860 -0.017416 279.065491 0.000000 -0.000000 0.000000
time 26
  0 2.650860 11.290232 140.421356 0.000000 -0.000000 0.000000
  1 -0.186268 0.167365 -1.425583 -0.207053 -0.000000 0.000000
  2 0.923381 -2.004173 -52.426414 0.020839 -0.000000 0.000000
  3 0.209927 0.167365 3.934113 0.036770 0.000000 -0.000000
  4 -25.474817 -86.086014 -37.911125 0.087266 0.000000 -0.000000
  5 -0.737603 -0.548836 40.203659 0.020674 0.000000 0.000000
  6 2.553308 7.297703 96.216125 0.000000 -0.000000 0.000000
  7 25.337772 -9.646730 2.086914 -0.126845 -0.135186 0.016270
  8 -23.810329 -7.093719 2.086914 -0.356105 0.065973 0.017294
  9 -7.352507 52.005493 -48.397385 -0.018798 -0.000000 0.000000
 10 -0.684172 -0.276030 30.967377 0.000000 -0.000000 0.000000
 11 -13.534455 -1.160921 22.015198 3.019416 0.000000 0.000000
 12 -20.972830 -0.005866 -27.595062 -0.000000 0.209439 -0.000000
 13 -18.070227 -6.045795 -20.586182 2.577424 0.599609 -0.374444
 14 5.932724 -5.752617 0.181671 -1.147835 0.866904 -0.065273
 15 153.364655 62.139908 16.877769 1.078144 0.001989 0.109675
 16 0.671982 2.506065 -6.693909 0.000000 -0.000000 0.000000
 17 18.407440 -176.793945 8.075180 -0.009445 0.966446 0.010673
 18 12.176292 -0.829268 23.085022 -0.330962 0.156863 0.008289
 19 23.438763 1.362873 -28.210815 0.622483 0.147093 -0.046223
 20 17.520041 -4.855556 -21.387650 -0.711899 -0.292696 0.333599
 21 6.597042 5.855780 -9.931335 0.000000 -0.000000 0.000000
 22 -0.072890 -1.214046 9.388046 0.000000 -0.000000 0.000000
 23 0.000011 -5.381660 -154.110336 -0.034538 -0.005058 -0.145357
 24 0.000011 -5.381660 -154.110336 -0.034538 -0.005058 -0.145357
 25 2.650860 -0.017416 279.065491 0.000000 -0.000000 0.000000
time 27
  0 2.650860 9.380771 138.263138 0.000000 -0.000000 0.000000
  1 -0.186268 0.167365 -1.425583 -0.197614 -0.000000 0.000000
  2 0.923381 -2.004175 -52.426392 0.053701 -0.000000 0.000000
  3 0.209927 0.167365 3.671906 0.045229 0.000000 -0.000000
  4 -25.474819 -90.998497 -37.911140 0.087266 0.000000 0.000000
  5 -0.737603 -0.548839 40.203659 0.005200 0.000000 0.000000
  6 2.553308 7.297701 96.216125 0.000000 -0.000000 0.000000
  7 25.337772 -9.646731 2.086899 -0.103232 -0.136014 0.013128
  8 -23.810326 -7.093719 2.086899 -0.332130 0.065743 0.018934
  9 -7.352506 52.005482 -48.397385 0.033137 -0.000000 0.000000
 10 -0.684172 -0.276031 30.967377 0.000000 -0.000000 0.000000
 11 -13.534456 -1.160921 22.015182 3.019416 0.000000 0.000000
 12 -20.972828 -0.005867 -27.595078 0.000000 0.209439 0.000000
 13 -18.070229 -6.045795 -20.586197 2.577424 0.599609 -0.374444
 14 5.932732 -5.752617 0.181671 -1.147835 0.866904 -0.065273
 15 153.364670 62.139923 16.877743 1.078144 0.001989 0.109675
 16 0.671982 2.506058 -6.693909 0.000000 -0.000000 0.000000
 17 18.407486 -176.793884 8.075195 -0.009445 0.966446 0.010673
 18 12.176291 -0.829269 23.085007 -0.330962 0.156863 0.008289
 19 23.438768 1.362869 -28.210815 0.622483 0.147093 -0.046223
 20 17.520046 -4.855560 -21.387657 -0.685143 -0.297222 0.332569
 21 6.597034 5.855776 -9.931343 0.000000 -0.000000 0.000000
 22 -0.072890 -1.214048 9.388031 0.000000 -0.000000 0.000000
 23 0.000011 -5.381660 -154.110336 -0.034538 -0.005058 -0.145357
 24 0.000011 -5.381660 -154.110336 -0.034538 -0.005058 -0.145357
 25 2.650860 -0.017416 279.065491 0.000000 -0.000000 0.000000
time 28
  0 2.650860 7.533129 136.174789 0.000000 -0.000000 0.000000
  1 -0.186268 0.167365 -1.425583 -0.187665 -0.000000 0.000000
  2 0.923381 -2.004173 -52.426414 0.085056 -0.000000 0.000000
  3 0.209927 0.167365 3.420868 0.053444 0.000000 -0.000000
  4 -24.421988 -84.027596 -38.617165 0.087266 0.000000 -0.000000
  5 -0.737603 -0.548838 40.203659 -0.009665 0.000000 0.000000
  6 2.553308 7.297701 96.216171 0.000000 -0.000000 0.000000
  7 25.337770 -9.646730 2.086929 -0.081342 -0.136781 0.010215
  8 -23.810328 -7.093720 2.086914 -0.309809 0.065528 0.020460
  9 -7.352506 52.005486 -48.397369 0.081405 -0.000000 0.000000
 10 -0.684172 -0.276031 30.967377 0.000000 -0.000000 0.000000
 11 -13.534456 -1.160921 22.015198 3.019416 -0.000000 0.000000
 12 -20.972826 -0.005867 -27.595078 0.000000 0.209439 -0.000000
 13 -18.070229 -6.045797 -20.586182 2.577424 0.599609 -0.374444
 14 5.932747 -5.752617 0.181686 -1.147835 0.866904 -0.065273
 15 153.364655 62.139923 16.877756 1.078144 0.001989 0.109675
 16 0.671989 2.506065 -6.693909 0.000000 -0.000000 0.000000
 17 18.407478 -176.793915 8.075180 -0.009445 0.966446 0.010673
 18 12.176291 -0.829268 23.085022 -0.330962 0.156863 0.008289
 19 23.438766 1.362869 -28.210815 0.622482 0.147093 -0.046223
 20 17.520042 -4.855560 -21.387657 -0.659711 -0.301525 0.331590
 21 6.597046 5.855778 -9.931335 0.000000 -0.000000 0.000000
 22 -0.072890 -1.214046 9.388031 0.000000 -0.000000 0.000000
 23 0.000011 -5.381660 -154.110336 -0.034538 -0.005058 -0.145357
 24 0.000011 -5.381660 -154.110336 -0.034538 -0.005058 -0.145357
 25 2.650860 -0.017416 279.065491 0.000000 -0.000000 0.000000
time 29
  0 2.650860 5.790782 134.205444 0.000000 -0.000000 0.000000
  1 -0.186268 0.167365 -1.425583 -0.177216 -0.000000 0.000000
  2 0.923381 -2.004173 -52.426407 0.114275 -0.000000 0.000000
  3 0.209927 0.167365 3.186249 0.061215 0.000000 -0.000000
  4 -21.642879 -65.649742 -40.478493 0.087266 0.000000 -0.000000
  5 -0.737603 -0.548838 40.203674 -0.023602 0.000000 0.000000
  6 2.553308 7.297702 96.216141 0.000000 -0.000000 0.000000
  7 25.337772 -9.646730 2.086899 -0.061456 -0.137478 0.007569
  8 -23.810326 -7.093720 2.086914 -0.289454 0.065332 0.021852
  9 -7.352506 52.005486 -48.397369 0.125352 -0.000000 0.000000
 10 -0.684172 -0.276031 30.967392 0.000000 -0.000000 0.000000
 11 -13.534456 -1.160922 22.015213 3.019416 0.000000 0.000000
 12 -20.972828 -0.005868 -27.595078 -0.000000 0.209439 -0.000000
 13 -18.070227 -6.045796 -20.586182 2.577424 0.599609 -0.374444
 14 5.932724 -5.752625 0.181671 -1.147835 0.866904 -0.065273
 15 153.364655 62.139877 16.877758 1.078144 0.001989 0.109675
 16 0.671974 2.506058 -6.693924 0.000000 -0.000000 0.000000
 17 18.407455 -176.793915 8.075195 -0.009445 0.966446 0.010673
 18 12.176292 -0.829268 23.085037 -0.330962 0.156863 0.008289
 19 23.438766 1.362877 -28.210815 0.622482 0.147093 -0.046223
 20 17.520039 -4.855556 -21.387657 -0.636090 -0.305521 0.330682
 21 6.597046 5.855776 -9.931335 0.000000 -0.000000 0.000000
 22 -0.072890 -1.214046 9.388046 0.000000 -0.000000 0.000000
 23 0.000011 -5.381660 -154.110336 -0.034538 -0.005058 -0.145357
 24 0.000011 -5.381660 -154.110336 -0.034538 -0.005058 -0.145357
 25 2.650860 -0.017416 279.065491 0.000000 -0.000000 0.000000
time 30
  0 2.650860 4.197208 132.404266 0.000000 -0.000000 0.000000
  1 -0.186268 0.167365 -1.425583 -0.166281 -0.000000 0.000000
  2 0.923381 -2.004175 -52.426414 0.140728 -0.000000 0.000000
  3 0.209927 0.167365 2.973312 0.068339 0.000000 -0.000000
  4 -17.706577 -39.667255 -43.110054 0.087266 0.000000 -0.000000
  5 -0.737603 -0.548839 40.203659 -0.036290 0.000000 0.000000
  6 2.553308 7.297701 96.216141 0.000000 -0.000000 0.000000
  7 25.337772 -9.646731 2.086914 -0.043855 -0.138095 0.005227
  8 -23.810328 -7.093721 2.086899 -0.271377 0.065159 0.023089
  9 -7.352506 52.005489 -48.397392 0.164327 -0.000000 0.000000
 10 -0.684172 -0.276031 30.967377 0.000000 -0.000000 0.000000
 11 -13.534456 -1.160922 22.015213 3.019416 -0.000000 0.000000
 12 -20.972828 -0.005867 -27.595062 -0.000000 0.209439 -0.000000
 13 -18.070229 -6.045794 -20.586182 2.577424 0.599609 -0.374444
 14 5.932732 -5.752609 0.181671 -1.147835 0.866904 -0.065273
 15 153.364655 62.139893 16.877777 1.078144 0.001989 0.109675
 16 0.671974 2.506073 -6.693924 0.000000 -0.000000 0.000000
 17 18.407455 -176.793854 8.075180 -0.009445 0.966446 0.010673
 18 12.176291 -0.829268 23.085022 -0.330962 0.156863 0.008289
 19 23.438766 1.362873 -28.210823 0.622482 0.147093 -0.046223
 20 17.520041 -4.855556 -21.387657 -0.614766 -0.309129 0.329861
 21 6.597038 5.855776 -9.931328 0.000000 -0.000000 0.000000
 22 -0.072890 -1.214047 9.388031 0.000000 -0.000000 0.000000
 23 0.000011 -5.381660 -154.110336 -0.034538 -0.005058 -0.145357
 24 0.000011 -5.381660 -154.110336 -0.034538 -0.005058 -0.145357
 25 2.650860 -0.017416 279.065491 0.000000 -0.000000 0.000000
time 31
  0 2.650860 2.795882 130.820374 0.000000 -0.000000 0.000000
  1 -0.186268 0.167365 -1.425583 -0.154871 -0.000000 0.000000
  2 0.923381 -2.004171 -52.426407 0.163784 -0.000000 0.000000
  3 0.209927 0.167365 2.787308 0.074618 0.000000 -0.000000
  4 -13.182169 -9.882484 -46.126724 0.087266 0.000000 0.000000
  5 -0.737603 -0.548838 40.203674 -0.047410 0.000000 0.000000
  6 2.553308 7.297701 96.216141 0.000000 -0.000000 0.000000
  7 25.337772 -9.646731 2.086914 -0.028823 -0.138622 0.003226
  8 -23.810328 -7.093719 2.086914 -0.255888 0.065010 0.024148
  9 -7.352507 52.005486 -48.397377 0.197678 -0.000000 0.000000
 10 -0.684172 -0.276030 30.967392 0.000000 -0.000000 0.000000
 11 -13.534456 -1.160921 22.015198 3.019416 -0.000000 0.000000
 12 -20.972828 -0.005867 -27.595093 0.000000 0.209439 0.000000
 13 -18.070229 -6.045796 -20.586182 2.577424 0.599609 -0.374444
 14 5.932739 -5.752617 0.181686 -1.147835 0.866904 -0.065273
 15 153.364655 62.139969 16.877769 1.078144 0.001989 0.109675
 16 0.671989 2.506065 -6.693909 0.000000 -0.000000 0.000000
 17 18.407471 -176.793915 8.075195 -0.009445 0.966446 0.010673
 18 12.176291 -0.829268 23.085022 -0.330962 0.156863 0.008289
 19 23.438766 1.362873 -28.210831 0.622482 0.147093 -0.046223
 20 17.520044 -4.855556 -21.387657 -0.596228 -0.312265 0.329148
 21 6.597038 5.855778 -9.931343 0.000000 -0.000000 0.000000
 22 -0.072890 -1.214047 9.388046 0.000000 -0.000000 0.000000
 23 0.000011 -5.381660 -154.110336 -0.034538 -0.005058 -0.145357
 24 0.000011 -5.381660 -154.110336 -0.034538 -0.005058 -0.145357
 25 2.650860 -0.017416 279.065491 0.000000 -0.000000 0.000000
time 32
  0 2.650860 1.630279 129.502914 0.000000 -0.000000 0.000000
  1 -0.186268 0.167365 -1.425583 -0.142998 -0.000000 0.000000
  2 0.923381 -2.004173 -52.426407 0.182813 -0.000000 0.000000
  3 0.209927 0.167365 2.633484 0.079851 0.000000 -0.000000
  4 -8.638730 19.902302 -49.143394 0.087266 0.000000 -0.000000
  5 -0.737603 -0.548838 40.203659 -0.056642 0.000000 0.000000
  6 2.553308 7.297703 96.216171 0.000000 -0.000000 0.000000
  7 25.337772 -9.646731 2.086914 -0.016641 -0.139049 0.001605
  8 -23.810328 -7.093720 2.086914 -0.243298 0.064889 0.025009
  9 -7.352506 52.005493 -48.397377 0.224753 -0.000000 0.000000
 10 -0.684172 -0.276030 30.967392 0.000000 -0.000000 0.000000
 11 -13.534456 -1.160921 22.015182 3.019416 0.000000 0.000000
 12 -20.972828 -0.005867 -27.595078 0.000000 0.209439 0.000000
 13 -18.070229 -6.045797 -20.586166 2.577424 0.599609 -0.374444
 14 5.932747 -5.752625 0.181671 -1.147835 0.866904 -0.065273
 15 153.364685 62.139923 16.877750 1.078144 0.001989 0.109675
 16 0.671989 2.506065 -6.693924 0.000000 -0.000000 0.000000
 17 18.407478 -176.793915 8.075180 -0.009445 0.966446 0.010673
 18 12.176291 -0.829268 23.085007 -0.330962 0.156863 0.008289
 19 23.438763 1.362865 -28.210831 0.622482 0.147093 -0.046223
 20 17.520042 -4.855556 -21.387657 -0.580961 -0.314848 0.328561
 21 6.597042 5.855776 -9.931335 0.000000 -0.000000 0.000000
 22 -0.072890 -1.214048 9.388031 0.000000 -0.000000 0.000000
 23 0.000011 -5.381660 -154.110336 -0.034538 -0.005058 -0.145357
 24 0.000011 -5.381660 -154.110336 -0.034538 -0.005058 -0.145357
 25 2.650860 -0.017416 279.065491 0.000000 -0.000000 0.000000
time 33
  0 2.650860 0.743875 128.501038 0.000000 -0.000000 0.000000
  1 -0.186268 0.167365 -1.425583 -0.130674 -0.000000 0.000000
  2 0.923381 -2.004175 -52.426407 0.197186 -0.000000 0.000000
  3 0.209927 0.167365 2.517120 0.083837 0.000000 -0.000000
  4 -4.645346 45.884781 -51.774948 0.087266 0.000000 -0.000000
  5 -0.737603 -0.548837 40.203674 -0.063667 0.000000 0.000000
  6 2.553308 7.297701 96.216156 0.000000 -0.000000 0.000000
  7 25.337772 -9.646731 2.086914 -0.007590 -0.139366 0.000401
  8 -23.810328 -7.093719 2.086929 -0.233921 0.064799 0.025651
  9 -7.352506 52.005489 -48.397377 0.244900 -0.000000 0.000000
 10 -0.684172 -0.276030 30.967407 0.000000 -0.000000 0.000000
 11 -13.534456 -1.160920 22.015213 3.019416 -0.000000 0.000000
 12 -20.972826 -0.005867 -27.595078 0.000000 0.209439 -0.000000
 13 -18.070229 -6.045796 -20.586197 2.577424 0.599609 -0.374444
 14 5.932724 -5.752617 0.181671 -1.147835 0.866904 -0.065273
 15 153.364700 62.139938 16.877773 1.078144 0.001989 0.109675
 16 0.671967 2.506058 -6.693909 0.000000 -0.000000 0.000000
 17 18.407440 -176.793915 8.075195 -0.009445 0.966446 0.010673
 18 12.176291 -0.829268 23.085022 -0.330962 0.156863 0.008289
 19 23.438766 1.362869 -28.210823 0.622482 0.147093 -0.046223
 20 17.520041 -4.855560 -21.387657 -0.569454 -0.316795 0.328118
 21 6.597046 5.855776 -9.931335 0.000000 -0.000000 0.000000
 22 -0.072890 -1.214047 9.388046 0.000000 -0.000000 0.000000
 23 0.000011 -5.381660 -154.110336 -0.034538 -0.005058 -0.145357
 24 0.000011 -5.381660 -154.110336 -0.034538 -0.005058 -0.145357
 25 2.650860 -0.017416 279.065491 0.000000 -0.000000 0.000000
time 34
  0 2.650860 0.180154 127.863876 0.000000 -0.000000 0.000000
  1 -0.186268 0.167365 -1.425583 -0.117910 -0.000000 0.000000
  2 0.923381 -2.004173 -52.426407 0.206271 -0.000000 0.000000
  3 0.209927 0.167365 2.443436 0.086376 0.000000 -0.000000
  4 -1.771098 64.262627 -53.636299 0.087266 0.000000 -0.000000
  5 -0.737603 -0.548839 40.203674 -0.068164 0.000000 0.000000
  6 2.553308 7.297701 96.216125 0.000000 -0.000000 0.000000
  7 25.337772 -9.646730 2.086914 -0.001953 -0.139564 -0.000349
  8 -23.810328 -7.093720 2.086899 -0.228066 0.064742 0.026051
  9 -7.352507 52.005489 -48.397392 0.257466 -0.000000 0.000000
 10 -0.684172 -0.276030 30.967377 0.000000 -0.000000 0.000000
 11 -13.534456 -1.160922 22.015213 3.019416 0.000000 0.000000
 12 -20.972826 -0.005867 -27.595078 -0.000000 0.209439 -0.000000
 13 -18.070232 -6.045796 -20.586182 2.577424 0.599609 -0.374444
 14 5.932724 -5.752617 0.181671 -1.147835 0.866904 -0.065273
 15 153.364670 62.139893 16.877766 1.078144 0.001989 0.109675
 16 0.671974 2.506058 -6.693909 0.000000 -0.000000 0.000000
 17 18.407455 -176.793884 8.075195 -0.009445 0.966446 0.010673
 18 12.176291 -0.829268 23.085037 -0.330962 0.156863 0.008289
 19 23.438765 1.362865 -28.210808 0.622483 0.147093 -0.046223
 20 17.520039 -4.855564 -21.387657 -0.562192 -0.318023 0.327838
 21 6.597038 5.855778 -9.931335 0.000000 -0.000000 0.000000
 22 -0.072890 -1.214047 9.388031 0.000000 -0.000000 0.000000
 23 0.000011 -5.381660 -154.110336 -0.034538 -0.005058 -0.145357
 24 0.000011 -5.381660 -154.110336 -0.034538 -0.005058 -0.145357
 25 2.650860 -0.017416 279.065491 0.000000 -0.000000 0.000000
time 35
  0 2.650860 -0.017416 127.640564 0.000000 -0.000000 0.000000
  1 -0.186268 0.167365 -1.425583 -0.104720 -0.000000 0.000000
  2 0.923380 -2.004174 -52.426414 0.209440 0.000000 0.000000
  3 0.209927 0.167365 2.417709 0.087266 0.000000 0.000000
  4 -0.585070 71.233528 -54.342331 0.087266 0.000000 -0.000000
  5 -0.737603 -0.548838 40.203674 -0.069813 0.000000 -0.000000
  6 2.553308 7.297701 96.216110 0.000000 -0.000000 0.000000
  7 25.337772 -9.646730 2.086899 -0.000011 -0.139632 -0.000607
  8 -23.810328 -7.093720 2.086884 -0.226045 0.064723 0.026189
  9 -7.352506 52.005486 -48.397392 0.261799 0.000000 0.000000
 10 -0.684172 -0.276030 30.967377 0.000000 -0.000000 0.000000
 11 -13.534456 -1.160922 22.015198 3.019416 0.000000 0.000000
 12 -20.972826 -0.005867 -27.595062 -0.000000 0.209439 -0.000000
 13 -18.070232 -6.045796 -20.586182 2.577424 0.599609 -0.374444
 14 5.932732 -5.752617 0.181671 -1.147835 0.866904 -0.065273
 15 153.364655 62.139908 16.877762 1.078144 0.001989 0.109675
 16 0.671982 2.506065 -6.693909 0.000000 -0.000000 0.000000
 17 18.407486 -176.793915 8.075180 -0.009445 0.966446 0.010673
 18 12.176291 -0.829269 23.085007 -0.330962 0.156863 0.008289
 19 23.438766 1.362869 -28.210831 0.622482 0.147093 -0.046223
 20 17.520044 -4.855556 -21.387657 -0.559663 -0.318451 0.327741
 21 6.597042 5.855777 -9.931335 0.000000 -0.000000 0.000000
 22 -0.072890 -1.214047 9.388031 0.000000 -0.000000 0.000000
 23 0.000011 -5.381660 -154.110336 -0.034538 -0.005058 -0.145357
 24 0.000011 -5.381660 -154.110336 -0.034538 -0.005058 -0.145357
 25 2.650860 -0.017416 279.065491 0.000000 -0.000000 0.000000
end
