version 1
nodes
  0 "bone33"  -1
  1 "bone21"  -1
  2 "bone20"   1
  3 "bone07"   2
  4 "bone22"   3
  5 "bone18"   4
  6 "bone14"   2
  7 "bone16"   6
  8 "bone19"   7
  9 "bone03"   1
 10 "bone06"   9
 11 "bone08"   9
 12 "bone05"  11
 13 "bone09"  12
 14 "bone11"  13
 15 "BOX001"  14
 16 "bone02"   9
 17 "bone04"  16
 18 "bone10"  17
end
skeleton
time 0
  0 1.089372 -2.364846 -2.772400 0.000000 -0.000000 0.000000
  1 -0.114210 -4.321804 92.531555 0.000000 0.000000 0.000000
  2 0.000000 0.426100 -2.643661 -0.034906 -0.000000 -0.000000
  3 -7.805030 -1.259274 -16.725006 -0.117611 0.103397 -0.142897
  4 -0.855268 1.999126 -33.097389 0.436331 -0.000000 0.000000
  5 -1.710042 1.005950 -32.422897 -0.292387 -0.049164 -0.003695
  6 8.359842 -0.134830 -16.096420 -0.068305 -0.155899 -0.019300
  7 1.023952 0.902420 -33.930801 0.349312 0.031101 0.015853
  8 1.181658 1.118915 -32.218105 -0.260399 0.006793 0.020443
  9 0.000000 -0.173451 2.663780 -0.226893 0.000000 0.000001
 10 0.725195 -1.257227 27.700890 0.244345 -0.000000 0.000000
 11 -7.896836 -0.700382 18.721550 -0.103099 0.589055 1.342894
 12 -14.708313 0.451421 -17.688965 -0.639340 0.212496 0.456580
 13 -7.769432 -4.337909 -11.290722 -0.271619 0.244372 -0.041531
 14 -1.614937 -2.075470 -6.327101 0.052019 0.091792 0.093927
 15 34.313530 6.017438 -79.785133 0.000000 -0.000000 -0.000000
 16 9.145774 -0.500296 18.886604 0.184047 -0.253896 0.183937
 17 13.771748 0.225330 -17.802193 -1.073499 -0.618246 -1.108256
 18 7.757050 -4.315041 -11.436714 -0.088245 -0.076199 -0.105809
time 1
  0 1.089372 -2.364846 -2.772400 0.000000 -0.000000 0.000000
  1 -0.114210 -4.321804 92.531555 0.000000 0.000000 0.000000
  2 0.000000 0.426100 -2.643661 -0.034906 -0.000000 -0.000000
  3 -7.805030 -1.259274 -16.725006 -0.117611 0.103397 -0.142897
  4 -0.855268 1.999125 -33.097389 0.436331 -0.000000 0.000000
  5 -1.710042 1.005950 -32.422897 -0.292387 -0.049164 -0.003695
  6 8.359842 -0.134830 -16.096420 -0.068305 -0.155899 -0.019300
  7 1.023951 0.902421 -33.930801 0.349312 0.031101 0.015853
  8 1.181656 1.118917 -32.218113 -0.260399 0.006793 0.020443
  9 0.000000 -0.173451 2.663780 -0.226893 0.000000 0.000001
 10 0.725195 -1.257227 27.700890 0.244345 -0.000000 0.000000
 11 -7.896836 -0.700382 18.721550 -0.103099 0.589055 1.342894
 12 -14.708305 0.451419 -17.688957 -0.639340 0.212496 0.456580
 13 -7.769440 -4.337910 -11.290722 -0.271619 0.244372 -0.041531
 14 -1.614937 -2.075474 -6.327101 0.052019 0.091792 0.093927
 15 34.313499 6.017420 -79.785141 -0.000000 -0.000000 0.000000
 16 9.145774 -0.500296 18.886604 0.184047 -0.253896 0.183937
 17 13.771748 0.225329 -17.802193 -1.073499 -0.618246 -1.108256
 18 7.757042 -4.315044 -11.436714 -0.088245 -0.076199 -0.105809
time 2
  0 1.089372 -2.364846 -2.772400 0.000000 -0.000000 0.000000
  1 -0.114210 -4.321804 92.531555 0.000000 -0.000000 0.000000
  2 0.000000 0.426100 -2.643661 -0.034906 0.000000 0.000000
  3 -7.805030 -1.259274 -16.725006 -0.117611 0.103397 -0.142897
  4 -0.855268 1.999125 -33.097389 0.436331 -0.000000 0.000000
  5 -1.710042 1.005950 -32.422897 -0.292388 -0.049164 -0.003695
  6 8.359842 -0.134830 -16.096420 -0.068305 -0.155899 -0.019300
  7 1.023952 0.902420 -33.930798 0.349312 0.031101 0.015853
  8 1.181658 1.118916 -32.218109 -0.260399 0.006793 0.020443
  9 0.000000 -0.173451 2.663780 -0.226893 0.000000 0.000001
 10 0.725195 -1.257227 27.700890 0.244345 -0.000000 0.000000
 11 -7.896836 -0.700382 18.721550 -0.103099 0.589055 1.342894
 12 -14.708305 0.451421 -17.688969 -0.639340 0.212496 0.456580
 13 -7.769440 -4.337912 -11.290722 -0.271619 0.244372 -0.041531
 14 -1.614937 -2.075476 -6.327097 0.052019 0.091792 0.093927
 15 34.313515 6.017430 -79.785141 -0.000000 0.000000 -0.000000
 16 9.145774 -0.500296 18.886604 0.184047 -0.253896 0.183937
 17 13.771748 0.225330 -17.802185 -1.073499 -0.618246 -1.108256
 18 7.757050 -4.315044 -11.436707 -0.088245 -0.076199 -0.105809
time 3
  0 1.089372 -2.364846 -2.772400 0.000000 -0.000000 0.000000
  1 -0.114210 -3.746899 92.636047 0.000000 -0.000000 0.000000
  2 0.000000 0.426100 -2.643661 -0.034906 0.000000 0.000000
  3 -7.805030 -1.259274 -16.725006 -0.087773 0.100539 -0.142351
  4 -0.855270 1.999123 -33.097389 0.420203 -0.002472 -0.000642
  5 -1.710043 1.005952 -32.422897 -0.249430 -0.042066 -0.003399
  6 8.359842 -0.134830 -16.096420 -0.104765 -0.139686 -0.017293
  7 1.023949 0.902419 -33.930801 0.354732 0.027866 0.014204
  8 1.181658 1.118915 -32.218105 -0.211536 0.006087 0.018317
  9 0.000000 -0.173451 2.663780 -0.230209 -0.021743 -0.005365
 10 0.725195 -1.257225 27.700890 0.257350 0.014879 0.008514
 11 -7.896836 -0.700382 18.721550 -0.146880 0.609651 1.093382
 12 -14.708298 0.451420 -17.688976 -0.554000 0.183738 0.323181
 13 -7.769432 -4.337904 -11.290724 -0.157815 0.267786 0.092287
 14 -1.614944 -2.075470 -6.327099 0.157845 0.035763 0.031022
 15 34.313538 6.017462 -79.785118 0.000000 -0.000000 0.000000
 16 9.145774 -0.500298 18.886612 0.196932 -0.263151 0.179057
 17 13.771751 0.225331 -17.802177 -1.075576 -0.603300 -1.090202
 18 7.757050 -4.315044 -11.436718 -0.088245 -0.076199 -0.105809
time 4
  0 1.089372 -2.364846 -2.772400 0.000000 -0.000000 0.000000
  1 -0.114210 -2.206152 92.916092 0.000000 -0.000000 0.000000
  2 0.000000 0.426100 -2.643661 -0.034906 0.000000 0.000000
  3 -7.805030 -1.259274 -16.724998 -0.016620 0.093723 -0.141050
  4 -0.855269 1.999125 -33.097389 0.381743 -0.008364 -0.002172
  5 -1.710043 1.005955 -32.422897 -0.146993 -0.025141 -0.002693
  6 8.359842 -0.134830 -16.096420 -0.191708 -0.101023 -0.012506
  7 1.023950 0.902420 -33.930809 0.367656 0.020153 0.010272
  8 1.181658 1.118914 -32.218109 -0.095016 0.004402 0.013247
  9 0.000000 -0.173451 2.663780 -0.238118 -0.073592 -0.018161
 10 0.725194 -1.257225 27.700890 0.288362 0.050361 0.028817
 11 -7.896836 -0.700382 18.721542 -0.251282 0.658765 0.498394
 12 -14.708298 0.451420 -17.688969 -0.350498 0.115161 0.005076
 13 -7.769432 -4.337917 -11.290720 0.113564 0.323620 0.411390
 14 -1.614944 -2.075474 -6.327095 0.410198 -0.097844 -0.118983
 15 34.313515 6.017464 -79.785095 0.000000 -0.000000 0.000000
 16 9.145773 -0.500298 18.886604 0.229227 -0.286059 0.166642
 17 13.771748 0.225333 -17.802185 -1.080530 -0.566084 -1.045349
 18 7.757050 -4.315050 -11.436710 -0.088245 -0.076199 -0.105809
time 5
  0 1.089372 -2.364846 -2.772400 0.000000 -0.000000 0.000000
  1 -0.114210 0.024482 93.321533 0.000000 -0.000000 0.000000
  2 0.000000 0.426101 -2.643661 -0.034906 0.000000 0.000000
  3 -7.805030 -1.259274 -16.725006 0.068305 0.085587 -0.139497
  4 -0.855269 1.999124 -33.097393 0.335840 -0.015397 -0.003998
  5 -1.710042 1.005953 -32.422894 -0.024730 -0.004941 -0.001850
  6 8.359842 -0.134830 -16.096420 -0.295477 -0.054877 -0.006794
  7 1.023952 0.902420 -33.930805 0.383082 0.010948 0.005580
  8 1.181660 1.118918 -32.218109 0.044056 0.002391 0.007196
  9 0.000000 -0.173452 2.663780 -0.247557 -0.135476 -0.033433
 10 0.725195 -1.257227 27.700890 0.325377 0.092711 0.053049
 11 -7.896834 -0.700384 18.721558 -0.375889 0.717384 -0.211753
 12 -14.708305 0.451420 -17.688965 -0.107608 0.033311 -0.374598
 13 -7.769447 -4.337906 -11.290718 0.437467 0.390260 0.792255
 14 -1.614944 -2.075468 -6.327099 0.711393 -0.257311 -0.298020
 15 34.313522 6.017519 -79.785110 0.000000 -0.000000 -0.000000
 16 9.145773 -0.500298 18.886604 0.271395 -0.315338 0.150030
 17 13.771751 0.225330 -17.802177 -1.086443 -0.518033 -0.987656
 18 7.757042 -4.315050 -11.436714 -0.088245 -0.076199 -0.105809
time 6
  0 1.089372 -2.364846 -2.772400 0.000000 -0.000000 0.000000
  1 -0.114210 2.669047 93.802208 0.000000 -0.000000 0.000000
  2 0.000000 0.426100 -2.643661 -0.034906 0.000000 0.000000
  3 -7.805030 -1.259274 -16.725006 0.139458 0.078771 -0.138195
  4 -0.855270 1.999125 -33.097385 0.297380 -0.021289 -0.005529
  5 -1.710045 1.005959 -32.422897 0.077707 0.011984 -0.001144
  6 8.359842 -0.134830 -16.096413 -0.382420 -0.016214 -0.002007
  7 1.023948 0.902422 -33.930809 0.396006 0.003235 0.001649
  8 1.181658 1.118912 -32.218102 0.160576 0.000707 0.002126
  9 0.000000 -0.173451 2.663780 -0.255466 -0.187326 -0.046229
 10 0.725197 -1.257227 27.700897 0.356389 0.128193 0.073351
 11 -7.896837 -0.700384 18.721558 -0.480291 0.766497 -0.806741
 12 -14.708305 0.451416 -17.688965 0.095894 -0.035266 -0.692703
 13 -7.769438 -4.337906 -11.290718 0.708845 0.446094 1.111358
 14 -1.614944 -2.075472 -6.327099 0.963746 -0.390918 -0.448024
 15 34.313507 6.017550 -79.785110 -0.000000 0.000000 0.000000
 16 9.145777 -0.500298 18.886604 0.313897 -0.343705 0.132559
 17 13.771751 0.225329 -17.802185 -1.091397 -0.470578 -0.931082
 18 7.757050 -4.315046 -11.436722 -0.088245 -0.076199 -0.105809
time 7
  0 1.089372 -2.364846 -2.772400 0.000000 -0.000000 0.000000
  1 -0.114210 5.451590 94.307961 0.000000 -0.000000 0.000000
  2 0.000000 0.426101 -2.643661 -0.034906 0.000000 0.000000
  3 -7.805030 -1.259274 -16.724998 0.169296 0.075913 -0.137650
  4 -0.855270 1.999124 -33.097397 0.281252 -0.023760 -0.006170
  5 -1.710042 1.005951 -32.422897 0.120665 0.019082 -0.000848
  6 8.359842 -0.134830 -16.096413 -0.418880 -0.000000 -0.000000
  7 1.023949 0.902420 -33.930801 0.401426 0.000000 0.000000
  8 1.181659 1.118913 -32.218105 0.209439 -0.000000 0.000000
  9 0.000000 -0.173451 2.663780 -0.258783 -0.209069 -0.051595
 10 0.725197 -1.257225 27.700890 0.369394 0.143072 0.081865
 11 -7.896835 -0.700382 18.721550 -0.524072 0.787093 -1.056253
 12 -14.708290 0.451420 -17.688965 0.181234 -0.064024 -0.826103
 13 -7.769436 -4.337898 -11.290718 0.822649 0.469508 1.245175
 14 -1.614944 -2.075468 -6.327095 1.069572 -0.446947 -0.510929
 15 34.313522 6.017559 -79.785095 0.000000 -0.000000 -0.000000
 16 9.145777 -0.500298 18.886604 0.347194 -0.363877 0.117568
 17 13.771751 0.225328 -17.802185 -1.093474 -0.435152 -0.889588
 18 7.757050 -4.315042 -11.436729 -0.088245 -0.076199 -0.105809
time 8
  0 1.089372 -2.364846 -2.772400 0.000000 -0.000000 0.000000
  1 -0.114210 8.096155 94.788635 -0.000000 0.000000 0.006504
  2 -0.000000 0.426101 -2.643661 -0.034906 -0.000000 -0.000000
  3 -7.805030 -1.259274 -16.725006 0.169296 0.075913 -0.137650
  4 -0.855268 1.999123 -33.097397 0.281252 -0.023760 -0.006170
  5 -1.710043 1.005949 -32.422897 0.120665 0.019082 -0.000848
  6 8.359844 -0.134830 -16.096420 -0.418880 -0.000000 0.000000
  7 1.023949 0.902418 -33.930801 0.401426 0.000000 0.000000
  8 1.181658 1.118912 -32.218105 0.209439 0.000000 0.000000
  9 -0.000000 -0.173451 2.663780 -0.258783 -0.209069 -0.051595
 10 0.725195 -1.257227 27.700897 0.369394 0.143072 0.081865
 11 -7.896837 -0.700384 18.721550 -0.524072 0.787093 -1.056253
 12 -14.708298 0.451412 -17.688965 0.181234 -0.064025 -0.826103
 13 -7.769436 -4.337906 -11.290726 0.822649 0.469508 1.245175
 14 -1.614929 -2.075466 -6.327091 1.069485 -0.433625 -0.483378
 15 34.313530 6.017548 -79.785095 0.000000 0.000000 0.000000
 16 9.145773 -0.500298 18.886604 0.373797 -0.377857 0.104231
 17 13.771751 0.225328 -17.802185 -1.092584 -0.408675 -0.859381
 18 7.757042 -4.315046 -11.436714 -0.088245 -0.076199 -0.105809
time 9
  0 1.089372 -2.364846 -2.772400 0.000000 -0.000000 0.000000
  1 -0.114210 10.326787 95.194077 -0.000000 0.000000 0.024338
  2 0.000000 0.426101 -2.643661 -0.034906 -0.000000 0.000000
  3 -7.805030 -1.259274 -16.725006 0.169296 0.075913 -0.137650
  4 -0.855269 1.999123 -33.097389 0.281252 -0.023760 -0.006170
  5 -1.710043 1.005951 -32.422897 0.120665 0.019082 -0.000848
  6 8.359843 -0.134830 -16.096420 -0.418880 -0.000000 0.000000
  7 1.023950 0.902420 -33.930801 0.401426 0.000000 -0.000000
  8 1.181659 1.118913 -32.218117 0.209439 0.000000 0.000000
  9 0.000000 -0.173450 2.663780 -0.258783 -0.209069 -0.051595
 10 0.725195 -1.257227 27.700897 0.369394 0.143072 0.081865
 11 -7.896836 -0.700384 18.721550 -0.524072 0.787093 -1.056253
 12 -14.708298 0.451420 -17.688972 0.181234 -0.064024 -0.826103
 13 -7.769438 -4.337906 -11.290741 0.822649 0.469508 1.245175
 14 -1.614944 -2.075468 -6.327095 1.069169 -0.398176 -0.411232
 15 34.313511 6.017574 -79.785126 0.000000 0.000000 0.000000
 16 9.145773 -0.500299 18.886612 0.402253 -0.392373 0.089688
 17 13.771759 0.225330 -17.802185 -1.090065 -0.380727 -0.827672
 18 7.757057 -4.315044 -11.436722 -0.088245 -0.076199 -0.105809
time 10
  0 1.089372 -2.364846 -2.772400 0.000000 -0.000000 0.000000
  1 -0.114210 11.867535 95.474121 -0.000000 0.000000 0.050983
  2 0.000000 0.426100 -2.643661 -0.034906 -0.000000 -0.000000
  3 -7.805029 -1.259274 -16.725006 0.169296 0.075913 -0.137650
  4 -0.855269 1.999123 -33.097389 0.281252 -0.023760 -0.006170
  5 -1.710043 1.005955 -32.422897 0.120665 0.019082 -0.000848
  6 8.359842 -0.134830 -16.096420 -0.418880 -0.000000 0.000000
  7 1.023949 0.902420 -33.930813 0.401426 0.000000 -0.000000
  8 1.181658 1.118915 -32.218105 0.209439 -0.000000 0.000000
  9 0.000000 -0.173451 2.663780 -0.258783 -0.209069 -0.051595
 10 0.725195 -1.257226 27.700897 0.369394 0.143072 0.081865
 11 -7.896833 -0.700383 18.721550 -0.524072 0.787093 -1.056253
 12 -14.708298 0.451424 -17.688965 0.181234 -0.064024 -0.826103
 13 -7.769440 -4.337898 -11.290726 0.822649 0.469508 1.245176
 14 -1.614937 -2.075470 -6.327103 1.068538 -0.347375 -0.310251
 15 34.313499 6.017563 -79.785095 0.000000 -0.000000 -0.000000
 16 9.145773 -0.500299 18.886604 0.432080 -0.407232 0.074218
 17 13.771751 0.225332 -17.802177 -1.086146 -0.351736 -0.794927
 18 7.757050 -4.315050 -11.436714 -0.088245 -0.076199 -0.105809
time 11
  0 1.089372 -2.364846 -2.772400 0.000000 -0.000000 0.000000
  1 -0.114210 12.442440 95.578613 -0.000000 0.000000 0.083923
  2 0.000000 0.426100 -2.643661 -0.034906 0.000000 0.000000
  3 -7.805030 -1.259274 -16.724998 0.167677 0.076068 -0.137679
  4 -0.855271 1.999125 -33.097385 0.282127 -0.023626 -0.006135
  5 -1.710042 1.005955 -32.422897 0.118333 0.018696 -0.000864
  6 8.359842 -0.134830 -16.096420 -0.416901 -0.000880 -0.000109
  7 1.023949 0.902424 -33.930805 0.429825 0.000764 -0.000516
  8 1.181658 1.118914 -32.218105 0.206787 0.000038 0.000116
  9 0.000000 -0.173451 2.663780 -0.244183 -0.186931 -0.011787
 10 0.725197 -1.257227 27.700890 0.368744 0.143173 0.076026
 11 -7.896835 -0.700382 18.721558 -0.655296 0.627171 -0.696100
 12 -14.708302 0.451420 -17.688957 0.211649 -0.056638 -0.715262
 13 -7.769440 -4.337906 -11.290718 0.823422 0.467839 1.246832
 14 -1.614944 -2.075469 -6.327099 1.067508 -0.287997 -0.196194
 15 34.313465 6.017563 -79.785095 -0.000000 0.000000 0.000000
 16 9.145775 -0.500298 18.886612 0.462797 -0.422240 0.058099
 17 13.771744 0.225336 -17.802185 -1.081057 -0.322132 -0.761610
 18 7.757057 -4.315048 -11.436722 -0.088245 -0.076199 -0.105809
time 12
  0 1.089372 -2.364846 -2.772400 0.000000 -0.000000 0.000000
  1 -0.114210 7.709992 95.578613 -0.000000 0.000000 0.120639
  2 0.000000 0.426101 -2.643661 -0.034906 -0.000000 -0.000000
  3 -7.805029 -1.259274 -16.725006 0.162118 0.076601 -0.137781
  4 -0.855270 1.999123 -33.097382 0.285132 -0.023166 -0.006016
  5 -1.710042 1.005949 -32.422894 0.110330 0.017374 -0.000919
  6 8.359842 -0.134831 -16.096420 -0.410108 -0.003901 -0.000483
  7 1.023950 0.902420 -33.930794 0.514260 0.003100 -0.002051
  8 1.181659 1.118913 -32.218102 0.197683 0.000170 0.000512
  9 -0.000000 -0.173451 2.663780 -0.199026 -0.118461 0.111335
 10 0.725195 -1.257226 27.700890 0.366524 0.143512 0.056479
 11 -7.896838 -0.700383 18.721542 -0.953721 0.267503 0.125546
 12 -14.708302 0.451424 -17.688969 0.279703 -0.040111 -0.462291
 13 -7.769438 -4.337914 -11.290722 0.826011 0.462170 1.252376
 14 -1.614929 -2.075470 -6.327095 1.065995 -0.226818 -0.084821
 15 34.313499 6.017570 -79.785080 0.000000 -0.000000 -0.000000
 16 9.145772 -0.500296 18.886597 0.493921 -0.437203 0.041611
 17 13.771759 0.225330 -17.802177 -1.075027 -0.292344 -0.728188
 18 7.757057 -4.315048 -11.436714 -0.088245 -0.076199 -0.105809
time 13
  0 1.089372 -2.364846 -2.772400 0.000000 -0.000000 0.000000
  1 -0.114210 -2.701424 95.578613 -0.000000 0.000000 0.158614
  2 0.000000 0.426100 -2.643661 -0.034906 -0.000000 -0.000000
  3 -7.805030 -1.259275 -16.725006 0.153023 0.077472 -0.137947
  4 -0.855270 1.999125 -33.097382 0.290048 -0.022413 -0.005820
  5 -1.710042 1.005955 -32.422897 0.097236 0.015211 -0.001009
  6 8.359842 -0.134830 -16.096420 -0.398995 -0.008843 -0.001095
  7 1.023949 0.902412 -33.930805 0.625402 0.006336 -0.004072
  8 1.181657 1.118911 -32.218105 0.182789 0.000385 0.001160
  9 0.000000 -0.173452 2.663780 -0.135414 -0.022009 0.284773
 10 0.725195 -1.257225 27.700890 0.362916 0.144047 0.025539
 11 -7.896835 -0.700384 18.721550 -1.127895 0.070116 0.613193
 12 -14.708302 0.451416 -17.688969 0.315793 -0.031308 -0.311854
 13 -7.769436 -4.337906 -11.290722 0.830108 0.453026 1.261152
 14 -1.614944 -2.075466 -6.327103 1.063915 -0.170612 0.008109
 15 34.313477 6.017572 -79.785103 0.000000 0.000000 0.000000
 16 9.145773 -0.500298 18.886612 0.524970 -0.451928 0.025034
 17 13.771755 0.225330 -17.802185 -1.068284 -0.262801 -0.695125
 18 7.757053 -4.315048 -11.436722 -0.088245 -0.076199 -0.105809
time 14
  0 1.089372 -2.364846 -2.772400 0.000000 -0.000000 0.000000
  1 -0.114210 -13.112841 95.578613 -0.000000 0.000000 0.195330
  2 0.000000 0.426101 -2.643661 -0.034906 0.000000 0.000000
  3 -7.805029 -1.259275 -16.725006 0.140831 0.078640 -0.138170
  4 -0.855270 1.999125 -33.097389 0.296638 -0.021403 -0.005558
  5 -1.710044 1.005955 -32.422897 0.079683 0.012310 -0.001130
  6 8.359841 -0.134831 -16.096420 -0.384097 -0.015468 -0.001915
  7 1.023952 0.902420 -33.930798 0.733264 0.009779 -0.006033
  8 1.181658 1.118916 -32.218102 0.162823 0.000674 0.002028
  9 0.000000 -0.173451 2.663780 -0.065781 0.083574 0.474631
 10 0.725195 -1.257225 27.700890 0.358112 0.144738 -0.014356
 11 -7.896837 -0.700382 18.721558 -1.152719 0.060469 0.690424
 12 -14.708298 0.451416 -17.688974 0.205458 -0.031847 -0.301974
 13 -7.769436 -4.337906 -11.290730 0.835390 0.440966 1.272468
 14 -1.614944 -2.075472 -6.327099 1.061183 -0.126155 0.066836
 15 34.313477 6.017595 -79.785126 0.000000 -0.000000 -0.000000
 16 9.145775 -0.500296 18.886604 0.555462 -0.466220 0.008648
 17 13.771748 0.225330 -17.802185 -1.061059 -0.233931 -0.662887
 18 7.757046 -4.315048 -11.436722 -0.088245 -0.076199 -0.105809
time 15
  0 1.089372 -2.364846 -2.772400 0.000000 -0.000000 0.000000
  1 -0.114210 -17.845287 95.578613 -0.000000 0.000000 0.228270
  2 0.000000 0.426102 -2.643661 -0.034906 -0.000000 -0.000000
  3 -7.805030 -1.259274 -16.725006 0.125980 0.080062 -0.138442
  4 -0.855270 1.999125 -33.097393 0.304665 -0.020173 -0.005239
  5 -1.710043 1.005955 -32.422897 0.058303 0.008778 -0.001278
  6 8.359844 -0.134832 -16.096420 -0.365951 -0.023538 -0.002914
  7 1.023951 0.902420 -33.930805 0.807859 0.012738 -0.007390
  8 1.181658 1.118914 -32.218105 0.138504 0.001026 0.003087
  9 0.000000 -0.173450 2.663780 -0.002558 0.179438 0.647010
 10 0.725197 -1.257226 27.700897 0.352308 0.145541 -0.060766
 11 -7.896835 -0.700384 18.721558 -1.174715 0.051615 0.751984
 12 -14.708302 0.451424 -17.688965 0.117538 -0.039692 -0.287312
 13 -7.769436 -4.337898 -11.290730 0.841536 0.426547 1.285632
 14 -1.614952 -2.075468 -6.327099 1.056067 -0.098635 0.079933
 15 34.313477 6.017551 -79.785103 -0.000000 -0.000000 0.000000
 16 9.145777 -0.500299 18.886612 0.584916 -0.479885 -0.007270
 17 13.771748 0.225323 -17.802185 -1.053579 -0.206164 -0.631940
 18 7.757050 -4.315052 -11.436722 -0.088245 -0.076199 -0.105809
time 16
  0 1.089372 -2.364846 -2.772400 0.000000 -0.000000 0.000000
  1 -0.114210 -17.514343 95.578613 -0.000000 0.000000 0.254915
  2 0.000000 0.426100 -2.643661 -0.034906 0.000000 0.000000
  3 -7.805029 -1.259274 -16.725006 0.108909 0.081698 -0.138754
  4 -0.855268 1.999123 -33.097393 0.313892 -0.018759 -0.004872
  5 -1.710041 1.005950 -32.422901 0.033727 0.004717 -0.001447
  6 8.359843 -0.134830 -16.096420 -0.345092 -0.032813 -0.004062
  7 1.023952 0.902420 -33.930805 0.823500 0.014624 -0.007649
  8 1.181657 1.118907 -32.218109 0.110549 0.001430 0.004303
  9 0.000000 -0.173449 2.663780 0.041822 0.246729 0.768013
 10 0.725197 -1.257226 27.700897 0.345699 0.146416 -0.111254
 11 -7.896839 -0.700383 18.721558 -1.193947 0.043599 0.800663
 12 -14.708302 0.451424 -17.688972 0.073795 -0.115241 -0.251523
 13 -7.769442 -4.337898 -11.290730 0.848221 0.410329 1.299953
 14 -1.614937 -2.075470 -6.327099 1.032323 -0.076148 0.081859
 15 34.313461 6.017556 -79.785110 0.000000 -0.000000 -0.000000
 16 9.145775 -0.500299 18.886612 0.612850 -0.492731 -0.022439
 17 13.771749 0.225334 -17.802185 -1.046074 -0.179928 -0.602748
 18 7.757052 -4.315052 -11.436722 -0.088245 -0.076199 -0.105809
time 17
  0 1.089372 -2.364846 -2.772400 0.000000 -0.000000 0.000000
  1 -0.114210 -16.613356 95.578613 -0.000000 0.000000 0.272749
  2 0.000000 0.426101 -2.643661 -0.034906 0.000000 0.000000
  3 -7.805031 -1.259274 -16.725006 0.090057 0.083504 -0.139099
  4 -0.855270 1.999126 -33.097382 0.324082 -0.017198 -0.004466
  5 -1.710046 1.005956 -32.422897 0.006586 0.000233 -0.001634
  6 8.359842 -0.134830 -16.096420 -0.322056 -0.043057 -0.005330
  7 1.023950 0.902420 -33.930801 0.812580 0.016230 -0.007107
  8 1.181656 1.118908 -32.218102 0.079676 0.001876 0.005646
  9 -0.000000 -0.173452 2.663780 0.054956 0.266961 0.804791
 10 0.725197 -1.257227 27.700890 0.338479 0.147318 -0.163381
 11 -7.896835 -0.700385 18.721550 -1.210476 0.036467 0.839251
 12 -14.708305 0.451416 -17.688972 0.035489 -0.255647 -0.200434
 13 -7.769444 -4.337906 -11.290726 0.855124 0.392870 1.314738
 14 -1.614944 -2.075470 -6.327103 0.988390 -0.054787 0.083627
 15 34.313461 6.017559 -79.785118 -0.000000 -0.000000 -0.000000
 16 9.145775 -0.500296 18.886604 0.638781 -0.504562 -0.036579
 17 13.771753 0.225334 -17.802193 -1.038773 -0.155653 -0.575778
 18 7.757053 -4.315048 -11.436722 -0.088245 -0.076199 -0.105809
time 18
  0 1.089372 -2.364846 -2.772400 0.000000 -0.000000 0.000000
  1 -0.114210 -15.280094 95.578613 -0.000000 0.000000 0.279253
  2 0.000000 0.426102 -2.643661 -0.034906 -0.000000 -0.000000
  3 -7.805031 -1.259274 -16.725006 0.069861 0.085438 -0.139468
  4 -0.855268 1.999125 -33.097385 0.334998 -0.015526 -0.004032
  5 -1.710043 1.005955 -32.422897 -0.022489 -0.004571 -0.001835
  6 8.359842 -0.134830 -16.096420 -0.297379 -0.054031 -0.006689
  7 1.023951 0.902420 -33.930801 0.790404 0.017865 -0.006008
  8 1.181657 1.118908 -32.218105 0.046604 0.002354 0.007085
  9 0.000000 -0.173452 2.663780 0.031524 0.246629 0.786671
 10 0.725197 -1.257226 27.700890 0.330841 0.148207 -0.214707
 11 -7.896839 -0.700384 18.721558 -1.224367 0.030265 0.870537
 12 -14.708305 0.451416 -17.688965 0.000743 -0.438654 -0.138098
 13 -7.769442 -4.337906 -11.290726 0.861920 0.374729 1.329296
 14 -1.614944 -2.075467 -6.327103 0.927505 -0.034615 0.085241
 15 34.313438 6.017538 -79.785110 0.000000 0.000000 0.000000
 16 9.145773 -0.500299 18.886604 0.662228 -0.515185 -0.049412
 17 13.771751 0.225327 -17.802177 -1.031905 -0.133767 -0.551494
 18 7.757052 -4.315048 -11.436714 -0.088245 -0.076199 -0.105809
time 19
  0 1.089372 -2.364846 -2.772400 0.000000 -0.000000 0.000000
  1 -0.114210 -13.652329 95.578613 -0.000000 0.000000 0.273758
  2 0.000000 0.426099 -2.643661 -0.034906 0.000000 -0.000000
  3 -7.805030 -1.259273 -16.725006 0.048762 0.087459 -0.139854
  4 -0.855270 1.999125 -33.097385 0.346403 -0.013778 -0.003578
  5 -1.710041 1.005954 -32.422894 -0.052865 -0.009590 -0.002044
  6 8.359842 -0.134830 -16.096420 -0.271598 -0.065496 -0.008108
  7 1.023951 0.902420 -33.930794 0.758902 0.019503 -0.004447
  8 1.181658 1.118918 -32.218102 0.012051 0.002854 0.008589
  9 -0.000000 -0.173452 2.663780 -0.017909 0.203521 0.745865
 10 0.725197 -1.257226 27.700890 0.322982 0.149039 -0.262795
 11 -7.896835 -0.700384 18.721558 -1.235681 0.025040 0.897310
 12 -14.708302 0.451424 -17.688972 -0.032322 -0.642007 -0.068570
 13 -7.769442 -4.337898 -11.290730 0.868288 0.356466 1.342936
 14 -1.614952 -2.075468 -6.327097 0.852903 -0.015695 0.086704
 15 34.313461 6.017509 -79.785126 0.000000 0.000000 0.000000
 16 9.145775 -0.500298 18.886620 0.682708 -0.524407 -0.060659
 17 13.771751 0.225323 -17.802185 -1.025700 -0.114699 -0.530362
 18 7.757055 -4.315050 -11.436722 -0.088245 -0.076199 -0.105809
time 20
  0 1.089372 -2.364846 -2.772400 0.000000 -0.000000 0.000000
  1 -0.114210 -11.867830 95.578613 -0.000000 0.000000 0.258567
  2 0.000000 0.426100 -2.643661 -0.034906 0.000000 -0.000000
  3 -7.805030 -1.259275 -16.725006 0.027196 0.089525 -0.140248
  4 -0.855270 1.999125 -33.097385 0.358060 -0.011992 -0.003114
  5 -1.710043 1.005950 -32.422894 -0.083913 -0.014719 -0.002258
  6 8.359842 -0.134831 -16.096420 -0.245246 -0.077214 -0.009559
  7 1.023951 0.902424 -33.930801 0.720007 0.021123 -0.002519
  8 1.181657 1.118911 -32.218105 -0.023264 0.003365 0.010125
  9 0.000000 -0.173452 2.663780 -0.080653 0.148370 0.688816
 10 0.725195 -1.257225 27.700897 0.315095 0.149773 -0.305205
 11 -7.896835 -0.700384 18.721550 -1.244481 0.020837 0.922360
 12 -14.708298 0.451416 -17.688961 -0.065586 -0.843451 0.004098
 13 -7.769436 -4.337898 -11.290726 0.873904 0.338638 1.354965
 14 -1.614944 -2.075470 -6.327101 0.767818 0.001911 0.088020
 15 34.313454 6.017510 -79.785110 -0.000000 -0.000000 -0.000000
 16 9.145775 -0.500298 18.886612 0.699740 -0.532033 -0.070038
 17 13.771748 0.225327 -17.802177 -1.020385 -0.098878 -0.512846
 18 7.757053 -4.315046 -11.436722 -0.088245 -0.076199 -0.105809
time 21
  0 1.089372 -2.364846 -2.772400 0.000000 -0.000000 0.000000
  1 -0.114210 -10.064365 95.578613 -0.000000 0.000000 0.235620
  2 0.000000 0.426100 -2.643661 -0.034906 0.000000 -0.000000
  3 -7.805029 -1.259274 -16.725006 0.005603 0.091594 -0.140643
  4 -0.855271 1.999125 -33.097385 0.369731 -0.010204 -0.002650
  5 -1.710042 1.005951 -32.422901 -0.115000 -0.019856 -0.002472
  6 8.359843 -0.134830 -16.096420 -0.218861 -0.088948 -0.011011
  7 1.023950 0.902424 -33.930805 0.675649 0.022701 -0.000321
  8 1.181657 1.118902 -32.218105 -0.058625 0.003876 0.011664
  9 0.000000 -0.173452 2.663780 -0.144017 0.091908 0.621966
 10 0.725195 -1.257227 27.700897 0.307374 0.150367 -0.339498
 11 -7.896833 -0.700382 18.721550 -1.250830 0.017702 0.948477
 12 -14.708305 0.451408 -17.688967 -0.100927 -1.020729 0.075851
 13 -7.769445 -4.337906 -11.290730 0.878445 0.321805 1.364692
 14 -1.614937 -2.075468 -6.327099 0.675484 0.018138 0.089193
 15 34.313446 6.017467 -79.785141 -0.000000 0.000000 -0.000000
 16 9.145774 -0.500298 18.886612 0.712842 -0.537870 -0.077273
 17 13.771744 0.225334 -17.802185 -1.016191 -0.086733 -0.499414
 18 7.757050 -4.315048 -11.436714 -0.088245 -0.076199 -0.105809
time 22
  0 1.089372 -2.364846 -2.772400 0.000000 -0.000000 0.000000
  1 -0.114210 -8.379706 95.578613 -0.000000 0.000000 0.206854
  2 0.000000 0.426101 -2.643661 -0.034906 -0.000000 -0.000000
  3 -7.805030 -1.259275 -16.725006 -0.015579 0.093623 -0.141031
  4 -0.855269 1.999124 -33.097389 0.381181 -0.008450 -0.002194
  5 -1.710041 1.005955 -32.422901 -0.145495 -0.024894 -0.002682
  6 8.359843 -0.134830 -16.096420 -0.192979 -0.100457 -0.012436
  7 1.023951 0.902422 -33.930801 0.627761 0.024213 0.002052
  8 1.181657 1.118916 -32.218105 -0.093313 0.004378 0.013173
  9 0.000000 -0.173451 2.663780 -0.195310 0.044867 0.551757
 10 0.725196 -1.257225 27.700890 0.300015 0.150778 -0.363236
 11 -7.896835 -0.700382 18.721550 -1.254791 0.015681 0.978451
 12 -14.708294 0.451416 -17.688969 -0.140226 -1.151587 0.142637
 13 -7.769445 -4.337914 -11.290726 0.881589 0.306525 1.371426
 14 -1.614937 -2.075470 -6.327101 0.579136 0.032925 0.090226
 15 34.313477 6.017486 -79.785141 0.000000 -0.000000 0.000000
 16 9.145775 -0.500296 18.886604 0.721531 -0.541724 -0.082082
 17 13.771744 0.225327 -17.802185 -1.013346 -0.078694 -0.490529
 18 7.757053 -4.315044 -11.436722 -0.088245 -0.076199 -0.105809
time 23
  0 1.089372 -2.364846 -2.772400 0.000000 -0.000000 0.000000
  1 -0.114210 -6.951619 95.578613 -0.000000 0.000000 0.174210
  2 0.000000 0.426101 -2.643661 -0.034906 0.000000 -0.000000
  3 -7.805030 -1.259274 -16.725006 -0.035912 0.095571 -0.141402
  4 -0.855271 1.999123 -33.097393 0.392171 -0.006766 -0.001757
  5 -1.710043 1.005956 -32.422894 -0.174767 -0.029730 -0.002884
  6 8.359842 -0.134830 -16.096420 -0.168135 -0.111506 -0.013804
  7 1.023951 0.902422 -33.930809 0.578273 0.025634 0.004505
  8 1.181658 1.118912 -32.218105 -0.126609 0.004859 0.014622
  9 0.000000 -0.173451 2.663780 -0.221840 0.017981 0.484631
 10 0.725196 -1.257223 27.700890 0.293212 0.150964 -0.373980
 11 -7.896836 -0.700382 18.721550 -1.256427 0.014821 1.015071
 12 -14.708294 0.451416 -17.688965 -0.185360 -1.213768 0.200402
 13 -7.769445 -4.337898 -11.290726 0.883011 0.293357 1.374473
 14 -1.614944 -2.075466 -6.327101 0.482010 0.046207 0.091124
 15 34.313461 6.017488 -79.785156 -0.000000 -0.000000 -0.000000
 16 9.145775 -0.500296 18.886604 0.725327 -0.543400 -0.084187
 17 13.771755 0.225334 -17.802177 -1.012080 -0.075188 -0.486658
 18 7.757050 -4.315052 -11.436729 -0.088245 -0.076199 -0.105809
time 24
  0 1.089372 -2.364846 -2.772400 0.000000 -0.000000 0.000000
  1 -0.114210 -5.917876 95.578613 -0.000000 0.000000 0.139626
  2 0.000000 0.426100 -2.643661 -0.034906 0.000000 -0.000000
  3 -7.805030 -1.259274 -16.725006 -0.054956 0.097395 -0.141751
  4 -0.855269 1.999125 -33.097382 0.402465 -0.005189 -0.001347
  5 -1.710043 1.005954 -32.422894 -0.202185 -0.034260 -0.003073
  6 8.359842 -0.134830 -16.096420 -0.144864 -0.121854 -0.015085
  7 1.023951 0.902420 -33.930801 0.529116 0.026943 0.006941
  8 1.181658 1.118914 -32.218109 -0.157795 0.005310 0.015979
  9 0.000000 -0.173451 2.663780 -0.224101 0.011459 0.416250
 10 0.725195 -1.257225 27.700897 0.286224 0.145421 -0.360597
 11 -7.896835 -0.700382 18.721550 -1.216902 0.035902 1.062257
 12 -14.708294 0.451416 -17.688965 -0.243318 -1.163509 0.250383
 13 -7.769443 -4.337898 -11.290730 0.840615 0.282178 1.322524
 14 -1.614944 -2.075472 -6.327099 0.387338 0.057923 0.091890
 15 34.313469 6.017478 -79.785156 0.000000 0.000000 -0.000000
 16 9.145773 -0.500296 18.886612 0.705555 -0.534632 -0.074400
 17 13.771748 0.225330 -17.802177 -1.014295 -0.095035 -0.509380
 18 7.757042 -4.315050 -11.436729 -0.088245 -0.076199 -0.105809
time 25
  0 1.089372 -2.364846 -2.772400 0.000000 -0.000000 0.000000
  1 -0.114210 -5.250587 95.352905 -0.000000 0.000000 0.105043
  2 -0.000000 0.426101 -2.643661 -0.034906 0.000000 0.000000
  3 -7.805030 -1.259275 -16.725006 -0.072274 0.099054 -0.142067
  4 -0.855270 1.999124 -33.097389 0.411825 -0.003755 -0.000975
  5 -1.710043 1.005952 -32.422897 -0.227116 -0.038380 -0.003245
  6 8.359843 -0.134830 -16.096420 -0.123704 -0.131264 -0.016250
  7 1.023949 0.902422 -33.930801 0.482224 0.028115 0.009265
  8 1.181656 1.118912 -32.218117 -0.186154 0.005720 0.017213
  9 -0.000000 -0.173451 2.663780 -0.225118 0.007118 0.331310
 10 0.725195 -1.257229 27.700897 0.277619 0.125193 -0.310439
 11 -7.896836 -0.700386 18.721558 -1.071762 0.112843 1.120293
 12 -14.708294 0.451424 -17.688965 -0.320677 -0.972112 0.300691
 13 -7.769442 -4.337906 -11.290733 0.685907 0.271914 1.132789
 14 -1.614944 -2.075470 -6.327105 0.298357 0.068010 0.092528
 15 34.313454 6.017492 -79.785141 0.000000 -0.000000 -0.000000
 16 9.145773 -0.500298 18.886612 0.633015 -0.501896 -0.038466
 17 13.771751 0.225330 -17.802177 -1.022530 -0.167812 -0.592682
 18 7.757057 -4.315050 -11.436722 -0.088245 -0.076199 -0.105809
time 26
  0 1.089372 -2.364846 -2.772400 0.000000 -0.000000 0.000000
  1 -0.114210 -4.801280 94.788635 -0.000000 0.000000 0.072399
  2 -0.000000 0.426100 -2.643661 -0.034906 0.000000 0.000000
  3 -7.805031 -1.259274 -16.725006 -0.087426 0.100505 -0.142345
  4 -0.855270 1.999122 -33.097382 0.420015 -0.002500 -0.000649
  5 -1.710043 1.005955 -32.422897 -0.248930 -0.041984 -0.003395
  6 8.359842 -0.134830 -16.096420 -0.105189 -0.139497 -0.017269
  7 1.023952 0.902420 -33.930801 0.439526 0.029127 0.011381
  8 1.181658 1.118916 -32.218105 -0.210968 0.006079 0.018292
  9 0.000000 -0.173452 2.663780 -0.225862 0.004018 0.239077
 10 0.725195 -1.257223 27.700882 0.268323 0.095616 -0.237097
 11 -7.896837 -0.700380 18.721542 -0.857404 0.225350 1.182693
 12 -14.708294 0.451416 -17.688972 -0.407461 -0.692243 0.348685
 13 -7.769444 -4.337906 -11.290733 0.459688 0.262824 0.855351
 14 -1.614944 -2.075472 -6.327101 0.218301 0.076403 0.093042
 15 34.313438 6.017469 -79.785156 -0.000000 -0.000000 -0.000000
 16 9.145775 -0.500294 18.886597 0.526944 -0.452655 0.014078
 17 13.771755 0.225330 -17.802185 -1.034572 -0.274228 -0.714488
 18 7.757053 -4.315046 -11.436714 -0.088245 -0.076199 -0.105809
time 27
  0 1.089372 -2.364846 -2.772400 0.000000 -0.000000 0.000000
  1 -0.114210 -4.526854 94.055084 -0.000000 0.000000 0.043633
  2 -0.000000 0.426100 -2.643661 -0.034906 -0.000000 -0.000000
  3 -7.805030 -1.259274 -16.725006 -0.099974 0.101707 -0.142574
  4 -0.855269 1.999125 -33.097389 0.426798 -0.001461 -0.000379
  5 -1.710043 1.005955 -32.422897 -0.266996 -0.044969 -0.003520
  6 8.359842 -0.134830 -16.096420 -0.089857 -0.146315 -0.018114
  7 1.023951 0.902422 -33.930805 0.402954 0.029955 0.013194
  8 1.181658 1.118913 -32.218102 -0.231517 0.006376 0.019186
  9 -0.000000 -0.173453 2.663780 -0.226372 0.001958 0.149690
 10 0.725195 -1.257227 27.700890 0.259341 0.062498 -0.154976
 11 -7.896837 -0.700384 18.721550 -0.613595 0.351324 1.242804
 12 -14.708298 0.451424 -17.688957 -0.493195 -0.378877 0.391318
 13 -7.769440 -4.337902 -11.290726 0.206392 0.255215 0.544706
 14 -1.614944 -2.075470 -6.327095 0.150405 0.083041 0.093434
 15 34.313469 6.017467 -79.785126 -0.000000 -0.000000 -0.000000
 16 9.145774 -0.500296 18.886604 0.408178 -0.395072 0.072910
 17 13.771751 0.225332 -17.802177 -1.048055 -0.393383 -0.850873
 18 7.757053 -4.315046 -11.436714 -0.088245 -0.076199 -0.105809
time 28
  0 1.089372 -2.364846 -2.772400 0.000000 -0.000000 0.000000
  1 -0.114210 -4.384201 93.321533 -0.000000 0.000000 0.020685
  2 -0.000000 0.426100 -2.643661 -0.034906 0.000000 -0.000000
  3 -7.805029 -1.259274 -16.724998 -0.109480 0.102618 -0.142748
  4 -0.855270 1.999125 -33.097378 0.431936 -0.000674 -0.000175
  5 -1.710043 1.005955 -32.422894 -0.280681 -0.047230 -0.003614
  6 8.359842 -0.134830 -16.096420 -0.078241 -0.151481 -0.018753
  7 1.023952 0.902421 -33.930794 0.374441 0.030576 0.014607
  8 1.181660 1.118912 -32.218102 -0.247084 0.006601 0.019864
  9 -0.000000 -0.173451 2.663780 -0.226687 0.000736 0.073289
 10 0.725195 -1.257227 27.700890 0.251681 0.031650 -0.078482
 11 -7.896837 -0.700382 18.721550 -0.380097 0.468664 1.293976
 12 -14.708298 0.451424 -17.688969 -0.567403 -0.086984 0.425543
 13 -7.769432 -4.337906 -11.290726 -0.029547 0.249397 0.255348
 14 -1.614944 -2.075472 -6.327095 0.097902 0.087861 0.093710
 15 34.313446 6.017441 -79.785095 -0.000000 0.000000 -0.000000
 16 9.145773 -0.500296 18.886612 0.297550 -0.337309 0.127712
 17 13.771748 0.225332 -17.802185 -1.060614 -0.504372 -0.977913
 18 7.757050 -4.315041 -11.436714 -0.088245 -0.076199 -0.105809
time 29
  0 1.089372 -2.364846 -2.772400 0.000000 -0.000000 0.000000
  1 -0.114210 -4.330219 92.757263 -0.000000 0.000000 0.005495
  2 0.000000 0.426100 -2.643661 -0.034906 -0.000000 -0.000000
  3 -7.805030 -1.259274 -16.724998 -0.115506 0.103195 -0.142858
  4 -0.855271 1.999123 -33.097389 0.435193 -0.000175 -0.000045
  5 -1.710044 1.005955 -32.422897 -0.289356 -0.048663 -0.003674
  6 8.359842 -0.134830 -16.096420 -0.070879 -0.154755 -0.019158
  7 1.023951 0.902420 -33.930801 0.355916 0.030966 0.015525
  8 1.181658 1.118922 -32.218102 -0.256951 0.006744 0.020293
  9 0.000000 -0.173451 2.663780 -0.226848 0.000150 0.020013
 10 0.725195 -1.257227 27.700897 0.246347 0.008880 -0.022021
 11 -7.896837 -0.700386 18.721558 -0.196677 0.555274 1.329556
 12 -14.708290 0.451420 -17.688965 -0.619610 0.128464 0.448313
 13 -7.769432 -4.337912 -11.290730 -0.203696 0.245680 0.041771
 14 -1.614944 -2.075474 -6.327099 0.064029 0.090798 0.093873
 15 34.313484 6.017421 -79.785110 -0.000000 -0.000000 0.000000
 16 9.145773 -0.500298 18.886612 0.215895 -0.287529 0.168161
 17 13.771748 0.225329 -17.802177 -1.069883 -0.586294 -1.071682
 18 7.757042 -4.315044 -11.436714 -0.088245 -0.076199 -0.105809
time 30
  0 1.089372 -2.364846 -2.772400 0.000000 -0.000000 0.000000
  1 -0.114210 -4.321804 92.531555 0.000000 -0.000000 0.000000
  2 0.000000 0.426100 -2.643661 -0.034906 0.000000 0.000000
  3 -7.805030 -1.259274 -16.725006 -0.117611 0.103397 -0.142897
  4 -0.855268 1.999125 -33.097389 0.436331 -0.000000 0.000000
  5 -1.710041 1.005951 -32.422897 -0.292388 -0.049164 -0.003695
  6 8.359842 -0.134830 -16.096420 -0.068305 -0.155899 -0.019300
  7 1.023951 0.902421 -33.930798 0.349312 0.031101 0.015852
  8 1.181658 1.118914 -32.218113 -0.260399 0.006793 0.020443
  9 0.000000 -0.173451 2.663780 -0.226893 0.000000 0.000001
 10 0.725195 -1.257227 27.700890 0.244345 -0.000000 0.000000
 11 -7.896836 -0.700382 18.721550 -0.103099 0.589055 1.342894
 12 -14.708305 0.451420 -17.688957 -0.639340 0.212496 0.456580
 13 -7.769447 -4.337914 -11.290726 -0.271619 0.244372 -0.041531
 14 -1.614937 -2.075474 -6.327101 0.052019 0.091792 0.093927
 15 34.313477 6.017409 -79.785126 -0.000000 0.000000 0.000000
 16 9.145774 -0.500296 18.886604 0.184047 -0.253896 0.183938
 17 13.771749 0.225330 -17.802185 -1.073499 -0.618246 -1.108255
 18 7.757050 -4.315048 -11.436714 -0.088245 -0.076199 -0.105809
end
