version 1
nodes
  0 "bone38"  -1
  1 "bone36"  -1
  2 "bone34"  -1
  3 "bone33"  -1
  4 "bone01"  -1
  5 "bone19"   4
  6 "bone15"   5
  7 "bone16"   6
  8 "bone18"   7
  9 "bone21"   8
 10 "bone07"   5
 11 "bone20"  10
 12 "bone17"  11
 13 "bone22"  12
 14 "bone03"   4
 15 "bone08"  14
 16 "bone05"  15
 17 "bone09"  16
 18 "bone11"  17
 19 "bone23"  18
 20 "bone24"  18
 21 "bone27"  18
 22 "bone28"  17
 23 "bone02"  14
 24 "bone04"  23
 25 "bone10"  24
 26 "bone29"  25
 27 "bone06"  14
 28 "bone12"  27
 29 "bone14"  27
 30 "bone30"  27
 31 "bone13"  14
 32 "bone32"  14
end
skeleton
time 0
  0 -2.437624 -1.142060 2.887016 0.000000 -0.000000 0.000000
  1 -2.437624 -1.142060 2.887016 0.000000 -0.000000 0.000000
  2 -2.437624 -1.142060 2.887016 0.000000 -0.000000 0.000000
  3 -4.744596 2.314000 171.985855 0.000000 -0.000000 0.000000
  4 -2.437624 -2.038301 81.382927 -0.069813 0.000000 0.000000
  5 0.000000 1.168599 -4.970116 0.070005 0.000000 0.000000
  6 9.220941 -0.130356 -8.947067 -0.052505 -0.000000 0.000000
  7 -0.379086 1.818013 -27.433559 -0.035002 0.000000 -0.000000
  8 0.656837 1.037760 -26.380829 0.122505 -0.000000 -0.000000
  9 0.796035 -3.894976 -5.943809 -0.000000 0.000000 -0.000000
 10 -8.723413 -0.130356 -8.508430 -0.105003 -0.000000 -0.000000
 11 0.166782 1.557050 -27.561691 0.017500 -0.000001 0.000000
 12 -0.000001 1.297750 -26.881956 0.140003 0.000000 0.000000
 13 -1.085476 -3.894565 -4.939403 -0.000000 0.000000 -0.000000
 14 0.000000 1.168600 2.657310 0.052515 0.017459 0.001220
 15 -8.954399 1.659625 23.005516 -0.232255 0.139671 1.241455
 16 -8.944324 1.465904 -13.462570 -0.219019 0.343564 0.616341
 17 -9.561539 -1.357556 -17.790230 -0.464149 -0.137384 -0.687520
 18 -2.070080 2.970741 -6.216936 -0.294278 1.155330 2.767118
 19 1.360771 127.032784 -0.873520 0.000000 0.000000 0.000000
 20 81.101501 57.934669 -5.855022 0.000000 0.000000 0.000000
 21 81.101501 57.934669 -5.855022 0.000000 0.000000 0.000000
 22 -2.234226 -0.237762 -4.714933 -0.000000 -0.000000 0.000000
 23 10.123167 1.597977 23.100113 -0.459405 0.089633 -0.135530
 24 8.001968 1.546467 -13.734177 -0.630416 0.388552 -0.476947
 25 9.941503 -2.349922 -18.208992 -0.657410 0.391780 0.630562
 26 2.344059 0.208721 -5.340519 0.000000 0.000000 0.000000
 27 0.245637 0.395494 37.922539 0.122503 -0.000000 -0.000000
 28 -1.052340 10.164507 41.856911 0.204731 0.000000 0.000000
 29 -0.811197 20.080648 -10.518127 0.139958 0.000000 0.000000
 30 -0.733660 -0.875966 4.161781 0.000000 -0.000000 0.000000
 31 0.212572 6.769419 15.607132 0.034998 -0.000022 0.000609
 32 0.298738 -0.708116 8.635887 0.000000 0.000000 -0.000000
time 1
  0 -2.437624 -1.142060 2.887016 0.000000 -0.000000 0.000000
  1 -2.437624 -1.142060 2.887016 0.000000 -0.000000 0.000000
  2 -2.437624 -1.142060 2.887016 0.000000 -0.000000 0.000000
  3 -4.744596 2.314000 171.985855 0.000000 -0.000000 0.000000
  4 -2.437624 -1.314967 81.878929 -0.069105 0.000000 0.000000
  5 0.000000 1.168600 -4.970123 0.070005 0.000000 0.000000
  6 9.220941 -0.130357 -8.947060 -0.054454 -0.000000 0.000000
  7 -0.379086 1.817987 -27.434021 -0.025771 0.000000 -0.000000
  8 0.656837 1.037848 -26.378262 0.122505 -0.000000 -0.000000
  9 0.796035 -3.894825 -5.944077 -0.000000 -0.000000 -0.000000
 10 -8.723413 -0.130357 -8.508438 -0.124881 0.000000 -0.000000
 11 0.166782 1.556562 -27.571667 0.047321 -0.000001 0.000000
 12 -0.000001 1.297897 -26.878437 0.132194 0.000000 0.000000
 13 -1.085475 -3.894504 -4.939491 0.000000 0.000000 -0.000000
 14 0.000000 1.168600 2.657303 0.043992 0.017438 0.001074
 15 -8.954400 1.659583 23.006187 -0.257788 0.171465 1.220539
 16 -8.935486 1.464687 -13.490486 -0.218451 0.342419 0.615102
 17 -9.530006 -1.357927 -17.846077 -0.466714 -0.142004 -0.702258
 18 -2.068768 2.965958 -6.230240 -0.294334 1.155335 2.767055
 19 1.364332 126.740234 -0.873116 0.000000 -0.000000 -0.000000
 20 81.313889 57.801254 -5.852402 0.000000 -0.000000 -0.000000
 21 81.313889 57.801254 -5.852402 0.000000 -0.000000 -0.000000
 22 -2.232807 -0.237381 -4.725018 0.000000 -0.000000 0.000000
 23 10.123167 1.597935 23.100800 -0.493695 0.086978 -0.124903
 24 8.002369 1.542526 -13.771454 -0.625868 0.399434 -0.486190
 25 9.947829 -2.344757 -18.233723 -0.657412 0.391789 0.630575
 26 2.348595 0.208572 -5.334602 -0.000000 -0.000000 0.000000
 27 0.245637 0.395483 37.923653 0.117890 -0.000008 -0.000080
 28 -1.052340 10.166310 41.848335 0.204742 0.000000 0.000000
 29 -0.811197 20.084206 -10.515961 0.139964 0.000000 0.000000
 30 -0.733660 -0.876122 4.160927 -0.000000 -0.000000 0.000000
 31 0.212571 6.769244 15.607597 0.034998 -0.000022 0.000609
 32 0.298738 -0.708098 8.636131 -0.000000 0.000000 0.000000
time 2
  0 -2.437624 -1.142060 2.887016 0.000000 -0.000000 0.000000
  1 -2.437624 -1.142060 2.887016 0.000000 -0.000000 0.000000
  2 -2.437624 -1.142060 2.887016 0.000000 -0.000000 0.000000
  3 -4.744596 2.314000 171.985855 0.000000 -0.000000 0.000000
  4 -2.437624 0.681976 83.248260 -0.067150 0.000000 0.000000
  5 0.000000 1.168600 -4.970116 0.070005 0.000000 0.000000
  6 9.220941 -0.130357 -8.947067 -0.060101 -0.000000 0.000000
  7 -0.379086 1.817906 -27.435432 -0.000287 0.000000 -0.000000
  8 0.656837 1.038047 -26.372391 0.122506 -0.000000 -0.000000
  9 0.796035 -3.894269 -5.945060 0.000000 0.000000 0.000000
 10 -8.723414 -0.130357 -8.508438 -0.179745 0.000000 -0.000000
 11 0.166782 1.554790 -27.607922 0.129636 -0.000001 0.000000
 12 0.000001 1.298210 -26.870918 0.110634 0.000000 0.000000
 13 -1.085475 -3.894321 -4.939758 0.000000 0.000000 -0.000000
 14 0.000000 1.168600 2.657303 0.020465 0.017382 0.000670
 15 -8.954399 1.659379 23.009460 -0.328221 0.259168 1.162803
 16 -8.902016 1.460846 -13.587502 -0.216794 0.339152 0.611513
 17 -9.439064 -1.359013 -18.004765 -0.473842 -0.154751 -0.742939
 18 -2.064468 2.955284 -6.263939 -0.294483 1.155331 2.766891
 19 1.373053 126.008911 -0.872227 0.000000 0.000000 0.000000
 20 81.833191 57.467728 -5.846390 0.000000 0.000000 0.000000
 21 81.833191 57.467728 -5.846390 0.000000 0.000000 0.000000
 22 -2.228168 -0.236534 -4.750576 0.000000 0.000000 -0.000000
 23 10.123166 1.597740 23.104080 -0.588291 0.079655 -0.095557
 24 8.003311 1.530590 -13.883476 -0.613374 0.429452 -0.511745
 25 9.962915 -2.332169 -18.294401 -0.657394 0.391792 0.630646
 26 2.362389 0.208168 -5.315834 0.000000 -0.000000 0.000000
 27 0.245637 0.395435 37.929039 0.105153 -0.000029 -0.000300
 28 -1.052340 10.170053 41.830490 0.204768 0.000000 0.000000
 29 -0.811197 20.091599 -10.511467 0.139979 0.000000 -0.000000
 30 -0.733660 -0.876445 4.159157 0.000000 -0.000000 0.000000
 31 0.212571 6.768414 15.609810 0.034998 -0.000022 0.000609
 32 0.298738 -0.708011 8.637367 0.000000 -0.000000 0.000000
time 3
  0 -2.437624 -1.142060 2.887016 0.000000 -0.000000 0.000000
  1 -2.437624 -1.142060 2.887016 0.000000 -0.000000 0.000000
  2 -2.437624 -1.142060 2.887016 0.000000 -0.000000 0.000000
  3 -4.744596 2.314000 171.985855 0.000000 -0.000000 0.000000
  4 -2.437624 3.692940 85.312920 -0.064202 0.000000 0.000000
  5 0.000000 1.168600 -4.970123 0.070005 0.000000 0.000000
  6 9.220941 -0.130357 -8.947067 -0.069141 -0.000000 0.000000
  7 -0.379085 1.817760 -27.437992 0.038139 0.000000 -0.000000
  8 0.656837 1.038239 -26.366722 0.122504 -0.000000 -0.000000
  9 0.796035 -3.893060 -5.947200 0.000000 -0.000000 0.000000
 10 -8.723413 -0.130357 -8.508430 -0.262426 0.000000 -0.000000
 11 0.166782 1.550973 -27.685680 0.253692 -0.000001 0.000000
 12 0.000001 1.298428 -26.865685 0.078122 0.000000 0.000000
 13 -1.085476 -3.894013 -4.940213 0.000000 -0.000000 -0.000000
 14 -0.000000 1.168601 2.657303 -0.015010 0.017296 0.000062
 15 -8.954403 1.658833 23.018211 -0.434277 0.391201 1.075798
 16 -8.830177 1.454536 -13.772835 -0.214140 0.334102 0.605777
 17 -9.303032 -1.360769 -18.234619 -0.484687 -0.173974 -0.804302
 18 -2.056744 2.948112 -6.301096 -0.294646 1.155303 2.766720
 19 1.382076 125.227913 -0.871368 -0.000000 -0.000000 0.000000
 20 82.370964 57.111534 -5.840702 -0.000000 -0.000000 0.000000
 21 82.370964 57.111534 -5.840702 -0.000000 -0.000000 0.000000
 22 -2.219830 -0.235954 -4.778757 -0.000000 0.000000 0.000000
 23 10.123169 1.597215 23.112877 -0.730792 0.068632 -0.051307
 24 8.004351 1.510910 -14.065437 -0.594666 0.474665 -0.550377
 25 9.975847 -2.318680 -18.364548 -0.657312 0.391751 0.630837
 26 2.385239 0.207512 -5.283218 0.000000 -0.000000 -0.000000
 27 0.245637 0.395305 37.943466 0.085943 -0.000062 -0.000632
 28 -1.052341 10.172217 41.820114 0.204798 0.000000 0.000000
 29 -0.811197 20.095871 -10.508873 0.139995 0.000000 -0.000000
 30 -0.733661 -0.876632 4.158127 -0.000000 -0.000000 0.000000
 31 0.212572 6.766191 15.615746 0.034997 -0.000022 0.000609
 32 0.298738 -0.707779 8.640656 0.000000 0.000000 0.000000
time 4
  0 -2.437624 -1.142060 2.887016 0.000000 -0.000000 0.000000
  1 -2.437624 -1.142060 2.887016 0.000000 -0.000000 0.000000
  2 -2.437624 -1.142060 2.887016 0.000000 -0.000000 0.000000
  3 -4.744596 2.314000 171.985855 0.000000 -0.000000 0.000000
  4 -2.437624 7.458333 87.894905 -0.060516 0.000000 0.000000
  5 -0.000000 1.168600 -4.970131 0.070005 0.000000 0.000000
  6 9.220942 -0.130357 -8.947067 -0.081272 -0.000000 0.000000
  7 -0.379086 1.817533 -27.441986 0.086191 0.000000 -0.000000
  8 0.656837 1.038307 -26.364750 0.122500 -0.000000 -0.000000
  9 0.796035 -3.890964 -5.950910 0.000000 0.000000 0.000000
 10 -8.723413 -0.130357 -8.508438 -0.365730 0.000000 -0.000000
 11 0.166783 1.544394 -27.818726 0.408683 -0.000001 -0.000000
 12 -0.000001 1.298269 -26.869493 0.037461 -0.000000 0.000000
 13 -1.085476 -3.893567 -4.940868 0.000000 -0.000000 0.000000
 14 -0.000000 1.168601 2.657303 -0.059368 0.017188 -0.000699
 15 -8.954409 1.657754 23.035576 -0.566754 0.556076 0.967111
 16 -8.716873 1.448059 -14.023170 -0.210577 0.327633 0.598122
 17 -9.163971 -1.362821 -18.459364 -0.498244 -0.198096 -0.881189
 18 -2.046104 2.956573 -6.317138 -0.294668 1.155287 2.766716
 19 1.385101 124.990265 -0.870934 0.000000 -0.000000 -0.000000
 20 82.550995 57.003174 -5.837696 0.000000 -0.000000 -0.000000
 21 82.550995 57.003174 -5.837696 0.000000 -0.000000 -0.000000
 22 -2.208351 -0.236633 -4.790925 -0.000000 0.000000 0.000000
 23 10.123176 1.596174 23.130302 -0.909016 0.054874 0.004016
 24 8.005136 1.486839 -14.282593 -0.571312 0.531197 -0.598760
 25 9.968388 -2.312881 -18.418568 -0.657164 0.391653 0.631131
 26 2.413712 0.206711 -5.241615 0.000000 -0.000000 -0.000000
 27 0.245637 0.395047 37.972099 0.061916 -0.000102 -0.001048
 28 -1.052341 10.169026 41.835312 0.204818 0.000000 0.000000
 29 -0.811198 20.089577 -10.512688 0.140003 0.000000 -0.000000
 30 -0.733661 -0.876358 4.159622 0.000000 0.000000 -0.000000
 31 0.212572 6.761783 15.627525 0.034994 -0.000022 0.000609
 32 0.298738 -0.707316 8.647163 0.000000 -0.000000 0.000000
time 5
  0 -2.437624 -1.142060 2.887016 0.000000 -0.000000 0.000000
  1 -2.437624 -1.142060 2.887016 0.000000 -0.000000 0.000000
  2 -2.437624 -1.142060 2.887016 0.000000 -0.000000 0.000000
  3 -4.744596 2.314000 171.985855 0.000000 -0.000000 0.000000
  4 -2.437624 11.718569 90.816208 -0.056345 0.000000 0.000000
  5 -0.000000 1.168600 -4.970123 0.070005 0.000000 0.000000
  6 9.220941 -0.130358 -8.947067 -0.096192 -0.000000 0.000000
  7 -0.379086 1.817200 -27.447769 0.140552 0.000000 -0.000000
  8 0.656837 1.038167 -26.368849 0.122491 -0.000000 -0.000000
  9 0.796036 -3.887882 -5.956347 0.000000 0.000000 0.000000
 10 -8.723413 -0.130358 -8.508430 -0.482470 0.000000 -0.000000
 11 0.166783 1.534840 -28.009758 0.583815 -0.000001 -0.000000
 12 0.000000 1.297513 -26.887632 -0.008542 0.000000 0.000000
 13 -1.085476 -3.892985 -4.941725 0.000000 0.000000 -0.000000
 14 0.000000 1.168601 2.657303 -0.109547 0.017066 -0.001560
 15 -8.954410 1.656005 23.063614 -0.716667 0.742583 0.844218
 16 -8.581963 1.445812 -14.259014 -0.206163 0.319868 0.588762
 17 -9.083893 -1.363939 -18.586695 -0.513330 -0.225561 -0.968432
 18 -2.033493 2.986526 -6.297783 -0.294489 1.155325 2.766943
 19 1.378269 125.740730 -0.870583 0.000000 -0.000000 -0.000000
 20 82.144638 57.345421 -5.835411 0.000000 -0.000000 -0.000000
 21 82.144638 57.345421 -5.835411 0.000000 -0.000000 -0.000000
 22 -2.194740 -0.239021 -4.776249 0.000000 0.000000 -0.000000
 23 10.123179 1.594489 23.158463 -1.111035 0.039316 0.066578
 24 8.005491 1.466003 -14.465672 -0.544652 0.595296 -0.653348
 25 9.921413 -2.321869 -18.442982 -0.657035 0.391538 0.631360
 26 2.440161 0.205902 -5.203247 -0.000000 -0.000000 -0.000000
 27 0.245637 0.394628 38.018326 0.034733 -0.000147 -0.001517
 28 -1.052342 10.157585 41.889801 0.204817 0.000000 0.000000
 29 -0.811199 20.066967 -10.526375 0.139995 0.000000 0.000000
 30 -0.733662 -0.875370 4.165054 0.000000 0.000000 -0.000000
 31 0.212572 6.754643 15.646553 0.034989 -0.000022 0.000609
 32 0.298739 -0.706571 8.657692 -0.000000 0.000000 0.000000
time 6
  0 -2.437624 -1.142060 2.887016 0.000000 -0.000000 0.000000
  1 -2.437624 -1.142060 2.887016 0.000000 -0.000000 0.000000
  2 -2.437624 -1.142060 2.887016 0.000000 -0.000000 0.000000
  3 -4.744596 2.314000 171.985855 0.000000 -0.000000 0.000000
  4 -2.437624 16.214060 93.898827 -0.051944 0.000000 0.000000
  5 0.000000 1.168600 -4.970116 0.070005 0.000000 0.000000
  6 9.220942 -0.130356 -8.947060 -0.113596 -0.000000 0.000000
  7 -0.379086 1.816745 -27.455730 0.197903 0.000000 -0.000000
  8 0.656837 1.037800 -26.379677 0.122478 -0.000000 -0.000000
  9 0.796035 -3.883953 -5.963273 0.000000 -0.000000 0.000000
 10 -8.723413 -0.130356 -8.508430 -0.605506 0.000000 -0.000000
 11 0.166783 1.522858 -28.246056 0.768408 -0.000000 -0.000000
 12 0.000000 1.296064 -26.922375 -0.057078 -0.000000 0.000000
 13 -1.085476 -3.892280 -4.942760 -0.000000 -0.000000 -0.000000
 14 0.000000 1.168603 2.657318 -0.162480 0.016937 -0.002468
 15 -8.954414 1.653568 23.102554 -0.875093 0.939607 0.714435
 16 -8.462715 1.450474 -14.397514 -0.200971 0.310698 0.577759
 17 -9.101952 -1.362158 -18.579052 -0.528958 -0.254653 -1.060614
 18 -2.019356 3.029724 -6.256233 -0.294278 1.155385 2.767200
 19 1.364113 127.318192 -0.869602 -0.000000 0.000000 -0.000000
 20 81.300896 58.064835 -5.828793 -0.000000 0.000000 -0.000000
 21 81.300896 58.064835 -5.828793 -0.000000 0.000000 -0.000000
 22 -2.179474 -0.242485 -4.744736 -0.000000 -0.000000 0.000000
 23 10.123184 1.592144 23.197548 -1.324755 0.022880 0.132571
 24 8.005348 1.457115 -14.542803 -0.516087 0.663186 -0.710535
 25 9.829071 -2.346634 -18.439396 -0.657019 0.391462 0.631343
 26 2.455998 0.205376 -5.181007 0.000000 0.000000 0.000000
 27 0.245638 0.394051 38.082489 0.006057 -0.000195 -0.002013
 28 -1.052343 10.136765 41.988617 0.204788 0.000000 0.000000
 29 -0.811200 20.025835 -10.551216 0.139967 0.000000 0.000000
 30 -0.733663 -0.873573 4.174881 -0.000000 0.000000 -0.000000
 31 0.212572 6.744713 15.672958 0.034982 -0.000022 0.000609
 32 0.298739 -0.705534 8.672302 0.000000 -0.000000 -0.000000
time 7
  0 -2.437624 -1.142060 2.887016 0.000000 -0.000000 0.000000
  1 -2.437624 -1.142060 2.887016 0.000000 -0.000000 0.000000
  2 -2.437624 -1.142060 2.887016 0.000000 -0.000000 0.000000
  3 -4.744596 2.314000 171.985855 0.000000 -0.000000 0.000000
  4 -2.437624 20.685209 96.964752 -0.047567 0.000000 0.000000
  5 -0.000000 1.168600 -4.970123 0.070005 0.000000 0.000000
  6 9.220941 -0.130356 -8.947052 -0.133182 -0.000000 0.000000
  7 -0.379086 1.816144 -27.466236 0.254928 0.000000 -0.000000
  8 0.656837 1.037251 -26.395853 0.122462 -0.000000 -0.000000
  9 0.796035 -3.879547 -5.971020 0.000000 -0.000000 -0.000000
 10 -8.723413 -0.130356 -8.508430 -0.727767 0.000000 -0.000000
 11 0.166783 1.509651 -28.501835 0.951921 -0.000000 -0.000000
 12 0.000000 1.293974 -26.972260 -0.105335 -0.000000 0.000000
 13 -1.085476 -3.891488 -4.943926 -0.000000 0.000000 -0.000000
 14 -0.000000 1.168600 2.657303 -0.215104 0.016808 -0.003371
 15 -8.954417 1.650568 23.150322 -1.032871 1.135861 0.585185
 16 -8.391121 1.459488 -14.418400 -0.195114 0.300187 0.565087
 17 -9.201981 -1.356075 -18.483395 -0.544471 -0.283538 -1.152176
 18 -2.003929 3.070190 -6.222191 -0.294205 1.155425 2.767289
 19 1.349953 129.064301 -0.867317 0.000000 -0.000000 -0.000000
 20 80.455254 58.861160 -5.813538 0.000000 -0.000000 -0.000000
 21 80.455254 58.861160 -5.813538 0.000000 -0.000000 -0.000000
 22 -2.162834 -0.245728 -4.718918 0.000000 -0.000000 0.000000
 23 10.123186 1.589260 23.245522 -1.537547 0.006509 0.198216
 24 8.004650 1.463951 -14.484926 -0.487414 0.730839 -0.767066
 25 9.708412 -2.380760 -18.417082 -0.657096 0.391443 0.631123
 26 2.456690 0.205383 -5.179352 0.000000 -0.000000 0.000000
 27 0.245638 0.393335 38.161232 -0.022447 -0.000242 -0.002507
 28 -1.052344 10.107622 42.126190 0.204733 0.000000 0.000000
 29 -0.811201 19.968267 -10.585785 0.139923 0.000000 0.000000
 30 -0.733664 -0.871067 4.188553 -0.000000 -0.000000 0.000000
 31 0.212572 6.732483 15.705368 0.034973 -0.000022 0.000609
 32 0.298739 -0.704254 8.690247 -0.000000 -0.000000 0.000000
time 8
  0 -2.437624 -1.142060 2.887016 0.000000 -0.000000 0.000000
  1 -2.437624 -1.142060 2.887016 0.000000 -0.000000 0.000000
  2 -2.437624 -1.142060 2.887016 0.000000 -0.000000 0.000000
  3 -4.744596 2.314000 171.985855 0.000000 -0.000000 0.000000
  4 -2.437624 24.872435 99.835991 -0.043468 0.000000 0.000000
  5 -0.000000 1.168600 -4.970116 0.070005 0.000000 0.000000
  6 9.220942 -0.130358 -8.947067 -0.154646 -0.000000 0.000000
  7 -0.379086 1.815377 -27.479607 0.308313 0.000000 -0.000000
  8 0.656837 1.036625 -26.414200 0.122447 -0.000000 -0.000000
  9 0.796036 -3.875252 -5.978554 0.000000 -0.000000 0.000000
 10 -8.723413 -0.130356 -8.508430 -0.842229 0.000000 -0.000000
 11 0.166783 1.496811 -28.746258 1.123848 -0.000000 -0.000000
 12 0.000000 1.291462 -27.032085 -0.150509 -0.000000 0.000000
 13 -1.085476 -3.890663 -4.945137 -0.000000 0.000000 -0.000000
 14 -0.000000 1.168600 2.657295 -0.264364 0.016687 -0.004216
 15 -8.954424 1.647268 23.202713 -1.180654 1.319883 0.464108
 16 -8.373978 1.467340 -14.367512 -0.188647 0.288654 0.550906
 17 -9.331444 -1.346321 -18.381023 -0.559138 -0.310502 -1.237746
 18 -1.988411 3.097862 -6.212791 -0.294226 1.155444 2.767257
 19 1.341637 130.418610 -0.863686 0.000000 -0.000000 -0.000000
 20 79.961349 59.478813 -5.789185 0.000000 -0.000000 -0.000000
 21 79.961349 59.478813 -5.789185 0.000000 -0.000000 -0.000000
 22 -2.146080 -0.247948 -4.711792 -0.000000 0.000000 0.000000
 23 10.123194 1.586077 23.298126 -1.736614 -0.008821 0.259718
 24 8.003345 1.482506 -14.324329 -0.460628 0.794081 -0.820006
 25 9.591530 -2.414513 -18.384375 -0.657167 0.391476 0.630925
 26 2.444286 0.205978 -5.192276 0.000000 0.000000 -0.000000
 27 0.245638 0.392546 38.247589 -0.049122 -0.000287 -0.002968
 28 -1.052345 10.073338 42.287018 0.204664 0.000000 0.000000
 29 -0.811201 19.900524 -10.626205 0.139871 0.000000 0.000000
 30 -0.733664 -0.868103 4.204544 -0.000000 -0.000000 -0.000000
 31 0.212572 6.719011 15.740913 0.034964 -0.000021 0.000609
 32 0.298739 -0.702845 8.709900 0.000000 0.000000 -0.000000
time 9
  0 -2.437624 -1.142060 2.887016 0.000000 -0.000000 0.000000
  1 -2.437624 -1.142060 2.887016 0.000000 -0.000000 0.000000
  2 -2.437624 -1.142060 2.887016 0.000000 -0.000000 0.000000
  3 -4.744596 2.314000 171.985855 0.000000 -0.000000 0.000000
  4 -2.437624 28.516148 102.334541 -0.039901 0.000000 0.000000
  5 0.000000 1.168600 -4.970123 0.070005 0.000000 0.000000
  6 9.220941 -0.130352 -8.947067 -0.177685 -0.000000 0.000000
  7 -0.379086 1.814434 -27.496101 0.354752 0.000000 -0.000000
  8 0.656837 1.036076 -26.430256 0.122435 -0.000000 -0.000000
  9 0.796035 -3.871803 -5.984594 -0.000000 0.000000 0.000000
 10 -8.723413 -0.130352 -8.508430 -0.941858 0.000000 -0.000000
 11 0.166782 1.485802 -28.952583 1.273583 -0.000000 -0.000000
 12 0.000000 1.288860 -27.093800 -0.189800 -0.000000 0.000000
 13 -1.085475 -3.889879 -4.946285 -0.000000 -0.000000 -0.000000
 14 -0.000000 1.168598 2.657303 -0.307209 0.016581 -0.004951
 15 -8.954426 1.644032 23.253914 -1.309171 1.480118 0.358819
 16 -8.394272 1.470583 -14.304813 -0.181563 0.276417 0.535586
 17 -9.444160 -1.335434 -18.320305 -0.571996 -0.333952 -1.312125
 18 -1.974976 3.112671 -6.222534 -0.294236 1.155440 2.767227
 19 1.339905 131.231812 -0.859436 0.000000 0.000000 -0.000000
 20 79.856918 59.849686 -5.760590 0.000000 0.000000 -0.000000
 21 79.856918 59.849686 -5.760590 0.000000 0.000000 -0.000000
 22 -2.131584 -0.249130 -4.719177 0.000000 -0.000000 0.000000
 23 10.123198 1.582958 23.349525 -1.909523 -0.022138 0.313252
 24 8.001514 1.504395 -14.130554 -0.437524 0.848919 -0.866284
 25 9.505142 -2.440773 -18.346743 -0.657175 0.391544 0.630885
 26 2.425522 0.206932 -5.209709 -0.000000 0.000000 0.000000
 27 0.245638 0.391773 38.331993 -0.072319 -0.000325 -0.003370
 28 -1.052346 10.038551 42.448990 0.204595 0.000000 0.000000
 29 -0.811202 19.831806 -10.666901 0.139821 0.000000 -0.000000
 30 -0.733665 -0.865108 4.220657 0.000000 -0.000000 0.000000
 31 0.212572 6.705803 15.775642 0.034956 -0.000021 0.000609
 32 0.298739 -0.701456 8.729118 0.000000 0.000000 0.000000
time 10
  0 -2.437624 -1.142060 2.887016 0.000000 -0.000000 0.000000
  1 -2.437624 -1.142060 2.887016 0.000000 -0.000000 0.000000
  2 -2.437624 -1.142060 2.887016 0.000000 -0.000000 0.000000
  3 -4.744596 2.314000 171.985855 0.000000 -0.000000 0.000000
  4 -2.437624 31.356752 104.282379 -0.037120 0.000000 0.000000
  5 0.000000 1.168602 -4.970116 0.070005 0.000000 0.000000
  6 9.220941 -0.130352 -8.947067 -0.201995 -0.000000 0.000000
  7 -0.379086 1.813301 -27.515862 0.390945 0.000000 -0.000000
  8 0.656837 1.035774 -26.439247 0.122428 -0.000000 -0.000000
  9 0.796035 -3.869946 -5.987831 -0.000000 -0.000000 -0.000000
 10 -8.723413 -0.130356 -8.508446 -1.019570 0.000000 -0.000000
 11 0.166783 1.477631 -29.103897 1.390407 -0.000000 -0.000000
 12 0.000000 1.286572 -27.147678 -0.220419 -0.000000 0.000000
 13 -1.085476 -3.889229 -4.947243 0.000000 0.000000 0.000000
 14 0.000000 1.168596 2.657303 -0.340598 0.016499 -0.005524
 15 -8.954428 1.641279 23.297134 -1.409305 1.605033 0.276797
 16 -8.427124 1.469799 -14.262444 -0.173887 0.263687 0.519471
 17 -9.519745 -1.326401 -18.301018 -0.582039 -0.352258 -1.370104
 18 -1.965698 3.119034 -6.236893 -0.294211 1.155415 2.767235
 19 1.341599 131.619049 -0.855774 -0.000000 0.000000 -0.000000
 20 79.958458 60.026276 -5.736137 -0.000000 0.000000 -0.000000
 21 79.958458 60.026276 -5.736137 -0.000000 0.000000 -0.000000
 22 -2.121567 -0.249634 -4.730072 0.000000 -0.000000 0.000000
 23 10.123198 1.580317 23.392944 -2.044164 -0.032501 0.354985
 24 7.999507 1.522430 -13.967575 -0.419646 0.891571 -0.902524
 25 9.456619 -2.457436 -18.310064 -0.657142 0.391617 0.630960
 26 2.407753 0.207916 -5.224274 -0.000000 0.000000 -0.000000
 27 0.245638 0.391123 38.403244 -0.090393 -0.000356 -0.003684
 28 -1.052348 10.008617 42.587418 0.204538 0.000000 0.000000
 29 -0.811203 19.772675 -10.701706 0.139782 0.000000 0.000000
 30 -0.733666 -0.862534 4.234406 -0.000000 0.000000 -0.000000
 31 0.212572 6.694601 15.804977 0.034950 -0.000021 0.000609
 32 0.298739 -0.700289 8.745354 -0.000000 0.000000 -0.000000
time 11
  0 -2.437624 -1.142060 2.887016 0.000000 -0.000000 0.000000
  1 -2.437624 -1.142060 2.887016 0.000000 -0.000000 0.000000
  2 -2.437624 -1.142060 2.887016 0.000000 -0.000000 0.000000
  3 -4.744596 2.314000 171.985855 0.000000 -0.000000 0.000000
  4 -2.437624 33.134670 105.501526 -0.035379 0.000000 0.000000
  5 0.000000 1.168604 -4.970116 0.070005 0.000000 0.000000
  6 9.220942 -0.130352 -8.947067 -0.227273 -0.000000 0.000000
  7 -0.379086 1.811970 -27.538925 0.413591 0.000000 -0.000000
  8 0.656837 1.035835 -26.437233 0.122430 -0.000000 -0.000000
  9 0.796035 -3.870361 -5.987114 0.000000 0.000000 -0.000000
 10 -8.723413 -0.130356 -8.508430 -1.068237 0.000000 -0.000000
 11 0.166783 1.472794 -29.192585 1.463563 -0.000000 -0.000000
 12 0.000000 1.285034 -27.183804 -0.239577 -0.000000 0.000000
 13 -1.085476 -3.888802 -4.947865 -0.000000 0.000000 -0.000000
 14 0.000000 1.168598 2.657310 -0.361489 0.016448 -0.005882
 15 -8.954430 1.639475 23.325584 -1.471958 1.683187 0.225477
 16 -8.452896 1.467754 -14.243198 -0.165684 0.250631 0.502782
 17 -9.556015 -1.321350 -18.300423 -0.588321 -0.363726 -1.406407
 18 -1.961548 3.120796 -6.245438 -0.294186 1.155392 2.767253
 19 1.343330 131.737183 -0.853897 -0.000000 0.000000 -0.000000
 20 80.061760 60.080147 -5.723480 -0.000000 0.000000 -0.000000
 21 80.061760 60.080147 -5.723480 -0.000000 0.000000 -0.000000
 22 -2.117081 -0.249771 -4.736542 -0.000000 -0.000000 -0.000000
 23 10.123199 1.578569 23.421501 -2.128408 -0.038980 0.381100
 24 7.997934 1.533195 -13.868980 -0.408498 0.918254 -0.925262
 25 9.436752 -2.465809 -18.283010 -0.657109 0.391665 0.631044
 26 2.396034 0.208595 -5.232933 -0.000000 -0.000000 0.000000
 27 0.245637 0.390692 38.450157 -0.101701 -0.000374 -0.003880
 28 -1.052348 9.988766 42.678772 0.204502 0.000000 0.000000
 29 -0.811203 19.733459 -10.724640 0.139758 0.000000 0.000000
 30 -0.733666 -0.860821 4.243484 0.000000 -0.000000 0.000000
 31 0.212572 6.687204 15.824287 0.034946 -0.000021 0.000609
 32 0.298739 -0.699514 8.756035 0.000000 -0.000000 0.000000
time 12
  0 -2.437624 -1.142060 2.887016 0.000000 -0.000000 0.000000
  1 -2.437624 -1.142060 2.887016 0.000000 -0.000000 0.000000
  2 -2.437624 -1.142060 2.887016 0.000000 -0.000000 0.000000
  3 -4.744596 2.314000 171.985855 0.000000 -0.000000 0.000000
  4 -2.437624 33.617538 105.832634 -0.034906 -0.000000 0.000000
  5 0.000000 1.168594 -4.970116 0.070005 0.000000 0.000000
  6 9.220942 -0.130356 -8.947060 -0.253639 -0.000000 0.000000
  7 -0.379086 1.810431 -27.565643 0.419736 -0.000000 -0.000000
  8 0.656837 1.036343 -26.422497 0.122441 -0.000000 -0.000000
  9 0.796035 -3.873440 -5.981726 -0.000000 0.000000 -0.000000
 10 -8.723413 -0.130356 -8.508430 -1.081458 0.000000 -0.000000
 11 0.166782 1.471542 -29.215740 1.483435 -0.000000 -0.000000
 12 0.000001 1.284607 -27.193920 -0.244779 -0.000000 0.000000
 13 -1.085475 -3.888687 -4.948040 0.000000 -0.000000 -0.000000
 14 0.000000 1.168594 2.657303 -0.367162 0.016434 -0.005979
 15 -8.954430 1.638968 23.333473 -1.488972 1.704406 0.211539
 16 -8.460358 1.466999 -14.239151 -0.156909 0.237165 0.485422
 17 -9.554832 -1.321609 -18.299202 -0.590021 -0.366828 -1.416278
 18 -1.962845 3.119965 -6.243294 -0.294193 1.155399 2.767249
 19 1.342987 131.684265 -0.854462 -0.000000 0.000000 -0.000000
 20 80.041641 60.056038 -5.727303 -0.000000 0.000000 -0.000000
 21 80.041641 60.056038 -5.727303 -0.000000 0.000000 -0.000000
 22 -2.118484 -0.249702 -4.734917 -0.000000 0.000000 -0.000000
 23 10.123199 1.578085 23.429451 -2.151289 -0.040740 0.388192
 24 7.997467 1.535995 -13.843346 -0.405473 0.925502 -0.931443
 25 9.432877 -2.467800 -18.275043 -0.657100 0.391678 0.631070
 26 2.392845 0.208771 -5.235168 0.000000 0.000000 -0.000000
 27 0.245638 0.390574 38.463173 -0.104772 -0.000380 -0.003933
 28 -1.052348 9.983246 42.704102 0.204493 0.000000 0.000000
 29 -0.811203 19.722538 -10.731003 0.139751 0.000000 -0.000000
 30 -0.733666 -0.860344 4.246017 0.000000 -0.000000 -0.000000
 31 0.212572 6.685144 15.829628 0.034945 -0.000021 0.000609
 32 0.298739 -0.699301 8.759003 0.000000 0.000000 0.000000
time 13
  0 -2.437624 -1.142060 2.887016 0.000000 -0.000000 0.000000
  1 -2.437624 -1.142060 2.887016 0.000000 -0.000000 0.000000
  2 -2.437624 -1.142060 2.887016 0.000000 -0.000000 0.000000
  3 -4.744596 2.314000 171.985855 0.000000 -0.000000 0.000000
  4 -2.437624 33.617538 105.832634 -0.034906 -0.000000 0.000000
  5 0.000000 1.168594 -4.970116 0.070005 0.000000 0.000000
  6 9.220942 -0.130356 -8.947060 -0.295939 -0.000000 0.000000
  7 -0.379086 1.807644 -27.613998 0.419713 -0.000000 -0.000000
  8 0.656837 1.037212 -26.396954 0.122462 -0.000000 -0.000000
  9 0.796035 -3.879272 -5.971495 -0.000000 -0.000000 -0.000000
 10 -8.723413 -0.130356 -8.508430 -1.081458 0.000000 -0.000000
 11 0.166782 1.471542 -29.215740 1.483435 -0.000000 -0.000000
 12 0.000001 1.284607 -27.193920 -0.244779 -0.000000 0.000000
 13 -1.085475 -3.888687 -4.948040 0.000000 -0.000000 -0.000000
 14 0.000000 1.168594 2.657303 -0.367162 0.016434 -0.005979
 15 -8.954428 1.638960 23.333496 -1.488973 1.704406 0.211538
 16 -8.460358 1.466999 -14.239147 -0.143010 0.215065 0.457928
 17 -9.531921 -1.325073 -18.295979 -0.590010 -0.366801 -1.416296
 18 -1.968102 3.117294 -6.233383 -0.294218 1.155422 2.767233
 19 1.341209 131.511902 -0.856735 -0.000000 0.000000 -0.000000
 20 79.935059 59.977417 -5.742569 -0.000000 0.000000 -0.000000
 21 79.935059 59.977417 -5.742569 -0.000000 0.000000 -0.000000
 22 -2.124153 -0.249496 -4.727402 -0.000000 -0.000000 0.000000
 23 10.123198 1.578081 23.429443 -2.151288 -0.040740 0.388192
 24 7.997465 1.535988 -13.843338 -0.405473 0.925502 -0.931442
 25 9.432877 -2.467800 -18.275051 -0.657100 0.391678 0.631070
 26 2.392838 0.208778 -5.235176 0.000000 -0.000000 0.000000
 27 0.245638 0.390574 38.463181 -0.104772 -0.000380 -0.003933
 28 -1.052348 9.983238 42.704117 0.204493 0.000000 0.000000
 29 -0.811203 19.722542 -10.731003 0.139751 0.000000 0.000000
 30 -0.733666 -0.860340 4.246017 0.000000 -0.000000 0.000000
 31 0.212572 6.685148 15.829636 0.034945 -0.000021 0.000609
 32 0.298738 -0.699301 8.758995 -0.000000 -0.000000 0.000000
time 14
  0 -2.437624 -1.142060 2.887016 0.000000 -0.000000 0.000000
  1 -2.437624 -1.142060 2.887016 0.000000 -0.000000 0.000000
  2 -2.437624 -1.142060 2.887016 0.000000 -0.000000 0.000000
  3 -4.744596 2.314000 171.985855 0.000000 -0.000000 0.000000
  4 -2.437624 33.617538 105.832634 -0.034906 0.000000 0.000000
  5 0.000000 1.168594 -4.970116 0.070005 0.000000 0.000000
  6 9.220942 -0.130356 -8.947060 -0.359627 -0.000000 0.000000
  7 -0.379086 1.802725 -27.698814 0.419653 -0.000000 -0.000000
  8 0.656837 1.038048 -26.372311 0.122486 -0.000000 -0.000000
  9 0.796035 -3.886429 -5.958912 -0.000000 0.000000 0.000000
 10 -8.723413 -0.130356 -8.508430 -1.081458 0.000000 -0.000000
 11 0.166782 1.471542 -29.215740 1.483435 -0.000000 -0.000000
 12 0.000001 1.284607 -27.193920 -0.244779 -0.000000 0.000000
 13 -1.085475 -3.888687 -4.948040 0.000000 -0.000000 -0.000000
 14 0.000000 1.168594 2.657303 -0.367162 0.016434 -0.005979
 15 -8.954428 1.638962 23.333496 -1.488972 1.704406 0.211539
 16 -8.460358 1.466999 -14.239147 -0.120485 0.183193 0.415800
 17 -9.496803 -1.330215 -18.292561 -0.589993 -0.366767 -1.416318
 18 -1.976372 3.113052 -6.217651 -0.294246 1.155446 2.767218
 19 1.338684 131.247650 -0.860077 0.000000 -0.000000 0.000000
 20 79.784042 59.856895 -5.765015 0.000000 -0.000000 0.000000
 21 79.784042 59.856895 -5.765015 0.000000 -0.000000 0.000000
 22 -2.133072 -0.249153 -4.715469 -0.000000 0.000000 -0.000000
 23 10.123199 1.578083 23.429443 -2.151288 -0.040740 0.388192
 24 7.997467 1.535995 -13.843338 -0.405473 0.925502 -0.931442
 25 9.432877 -2.467804 -18.275051 -0.657100 0.391678 0.631070
 26 2.392838 0.208771 -5.235168 0.000000 0.000000 -0.000000
 27 0.245638 0.390575 38.463181 -0.104772 -0.000380 -0.003933
 28 -1.052348 9.983238 42.704117 0.204493 0.000000 0.000000
 29 -0.811203 19.722542 -10.731018 0.139751 0.000000 -0.000000
 30 -0.733666 -0.860340 4.246002 0.000000 0.000000 0.000000
 31 0.212573 6.685154 15.829636 0.034945 -0.000021 0.000609
 32 0.298739 -0.699299 8.759003 -0.000000 0.000000 -0.000000
time 15
  0 -2.437624 -1.142060 2.887016 0.000000 -0.000000 0.000000
  1 -2.437624 -1.142060 2.887016 0.000000 -0.000000 0.000000
  2 -2.437624 -1.142060 2.887016 0.000000 -0.000000 0.000000
  3 -4.744596 2.314000 171.985855 0.000000 -0.000000 0.000000
  4 -2.437624 33.617538 105.832634 -0.034906 -0.000000 0.000000
  5 0.000000 1.168594 -4.970116 0.070005 0.000000 0.000000
  6 9.220942 -0.130356 -8.947060 -0.441921 -0.000000 0.000000
  7 -0.379085 1.795200 -27.827553 0.419536 -0.000000 -0.000000
  8 0.656837 1.038271 -26.365753 0.122504 -0.000000 -0.000000
  9 0.796035 -3.892620 -5.947981 -0.000000 0.000000 -0.000000
 10 -8.723413 -0.130356 -8.508430 -1.081458 0.000000 -0.000000
 11 0.166782 1.471542 -29.215740 1.483435 -0.000000 -0.000000
 12 0.000001 1.284607 -27.193920 -0.244779 -0.000000 0.000000
 13 -1.085475 -3.888687 -4.948040 0.000000 -0.000000 -0.000000
 14 0.000000 1.168594 2.657303 -0.367162 0.016434 -0.005979
 15 -8.954431 1.638960 23.333496 -1.488972 1.704406 0.211538
 16 -8.460358 1.466995 -14.239151 -0.087806 0.145531 0.359470
 17 -9.451195 -1.336754 -18.289402 -0.589973 -0.366737 -1.416334
 18 -1.987640 3.107437 -6.195694 -0.294260 1.155453 2.767215
 19 1.335602 130.910568 -0.864235 0.000000 -0.000000 -0.000000
 20 79.601105 59.703140 -5.792786 0.000000 -0.000000 -0.000000
 21 79.601105 59.703140 -5.792786 0.000000 -0.000000 -0.000000
 22 -2.145248 -0.248711 -4.698822 -0.000000 0.000000 -0.000000
 23 10.123201 1.578081 23.429443 -2.151288 -0.040740 0.388192
 24 7.997467 1.535988 -13.843338 -0.405473 0.925502 -0.931442
 25 9.432861 -2.467804 -18.275051 -0.657100 0.391678 0.631070
 26 2.392853 0.208771 -5.235168 -0.000000 -0.000000 0.000000
 27 0.245638 0.390570 38.463181 -0.104772 -0.000380 -0.003933
 28 -1.052348 9.983238 42.704102 0.204493 0.000000 0.000000
 29 -0.811203 19.722542 -10.731018 0.139751 0.000000 -0.000000
 30 -0.733666 -0.860340 4.246017 -0.000000 0.000000 -0.000000
 31 0.212572 6.685148 15.829636 0.034945 -0.000021 0.000609
 32 0.298738 -0.699301 8.758995 -0.000000 -0.000000 0.000000
time 16
  0 -2.437624 -1.142060 2.887016 0.000000 -0.000000 0.000000
  1 -2.437624 -1.142060 2.887016 0.000000 -0.000000 0.000000
  2 -2.437624 -1.142060 2.887016 0.000000 -0.000000 0.000000
  3 -4.744596 2.314000 171.985855 0.000000 -0.000000 0.000000
  4 -2.437624 16.266245 96.905205 0.028520 0.000000 0.000000
  5 -0.000000 1.168602 -4.970123 0.070005 0.000000 0.000000
  6 9.220942 -0.130356 -8.947075 -0.572223 0.000000 0.000000
  7 -0.379086 1.781046 -28.066879 0.428495 -0.000000 -0.000000
  8 0.656837 1.036832 -26.408167 0.122497 -0.000000 -0.000000
  9 0.796035 -3.895181 -5.943445 0.000000 -0.000000 0.000000
 10 -8.723413 -0.130356 -8.508438 -0.869135 0.000000 -0.000000
 11 0.166783 1.493809 -28.802959 1.240125 -0.000000 -0.000000
 12 0.000001 1.286545 -27.148304 -0.310070 -0.000000 0.000000
 13 -1.085475 -3.894287 -4.939808 0.000000 -0.000000 -0.000000
 14 0.000000 1.168602 2.657303 -0.252314 0.016591 -0.004006
 15 -8.954424 1.648117 23.189232 -1.008795 1.363958 0.291399
 16 -8.380241 1.465019 -14.380850 -0.030152 0.091814 0.267426
 17 -9.139847 -1.363840 -18.488613 -0.589177 -0.365175 -1.411176
 18 -2.062889 3.039864 -6.102631 -0.294018 1.155241 2.767416
 19 1.345284 127.764694 -0.878523 -0.000000 -0.000000 -0.000000
 20 80.177658 58.268463 -5.888602 -0.000000 -0.000000 -0.000000
 21 80.177658 58.268463 -5.888602 -0.000000 -0.000000 -0.000000
 22 -2.226463 -0.243294 -4.628242 0.000000 0.000000 0.000000
 23 10.123195 1.586897 23.284592 -1.866796 0.015582 0.145714
 24 8.004735 1.495232 -14.207878 -0.436641 0.852105 -0.882297
 25 9.506790 -2.433311 -18.398388 -0.657247 0.391482 0.630823
 26 2.433407 0.205551 -5.226959 0.000000 0.000000 0.000000
 27 0.245638 0.392752 38.225395 -0.152339 -0.000641 -0.004718
 28 -1.052347 10.024237 42.515259 0.204567 0.000000 0.000000
 29 -0.811203 19.803534 -10.683540 0.139802 0.000000 -0.000000
 30 -0.733665 -0.863880 4.227249 0.000000 -0.000000 -0.000000
 31 0.212572 6.722485 15.731758 0.034967 -0.000022 0.000609
 32 0.298739 -0.703205 8.704849 0.000000 -0.000000 -0.000000
time 17
  0 -2.437624 -1.142060 2.887016 0.000000 -0.000000 0.000000
  1 -2.437624 -1.142060 2.887016 0.000000 -0.000000 0.000000
  2 -2.437624 -1.142060 2.887016 0.000000 -0.000000 0.000000
  3 -4.744596 2.314000 171.985855 0.000000 -0.000000 0.000000
  4 -2.437624 -19.699194 78.400604 0.159990 -0.000000 0.000000
  5 0.000000 1.168599 -4.970116 0.070005 0.000000 0.000000
  6 9.220941 -0.130356 -8.947060 -0.730507 0.000000 0.000000
  7 -0.379086 1.761314 -28.393864 0.447243 -0.000000 -0.000000
  8 0.656837 1.032667 -26.530022 0.122443 -0.000000 -0.000000
  9 0.796035 -3.888353 -5.955521 -0.000000 0.000000 -0.000000
 10 -8.723413 -0.130358 -8.508430 -0.429092 0.000000 -0.000000
 11 0.166783 1.539463 -27.917660 0.731514 -0.000001 -0.000000
 12 0.000000 1.290422 -27.056740 -0.445337 -0.000000 0.000000
 13 -1.085475 -3.889878 -4.946286 -0.000000 0.000000 0.000000
 14 0.000000 1.168601 2.657318 -0.013889 0.016919 0.000092
 15 -8.954412 1.658854 23.017853 -0.013556 0.660213 0.464764
 16 -8.691795 1.470065 -13.842117 0.041957 0.028189 0.153472
 17 -9.464279 -1.363665 -17.891171 -0.586520 -0.360538 -1.396510
 18 -2.072472 2.929733 -6.287998 -0.294551 1.155312 2.766777
 19 1.368607 125.441681 -0.878564 0.000000 0.000000 -0.000000
 20 81.568520 57.209015 -5.888857 0.000000 0.000000 -0.000000
 21 81.568520 57.209015 -5.888857 0.000000 0.000000 -0.000000
 22 -2.236803 -0.234482 -4.768826 -0.000000 -0.000000 -0.000000
 23 10.123179 1.597235 23.112511 -1.269526 0.132553 -0.356678
 24 8.000249 1.463440 -14.497450 -0.504042 0.695226 -0.778559
 25 9.904896 -2.328026 -18.430609 -0.657167 0.391612 0.631338
 26 2.441509 0.204674 -5.230995 0.000000 -0.000000 -0.000000
 27 0.245637 0.395309 37.942879 -0.251035 -0.001182 -0.006343
 28 -1.052345 10.095976 42.180923 0.204710 0.000000 0.000000
 29 -0.811201 19.945255 -10.599533 0.139905 0.000000 -0.000000
 30 -0.733665 -0.870064 4.194008 0.000000 0.000000 -0.000000
 31 0.212572 6.766279 15.615509 0.034997 -0.000022 0.000609
 32 0.298739 -0.707788 8.640518 0.000000 -0.000000 0.000000
time 18
  0 -2.437624 -1.142060 2.887016 0.000000 -0.000000 0.000000
  1 -2.437624 -1.142060 2.887016 0.000000 -0.000000 0.000000
  2 -2.437624 -1.142060 2.887016 0.000000 -0.000000 0.000000
  3 -4.744596 2.314000 171.985855 0.000000 -0.000000 0.000000
  4 -2.437624 -45.902462 64.918739 0.255774 0.000000 0.000000
  5 0.000000 1.168598 -4.970116 0.070005 0.000000 0.000000
  6 9.220941 -0.130360 -8.947060 -0.831324 0.000000 0.000000
  7 -0.379085 1.748119 -28.608454 0.460958 -0.000000 -0.000000
  8 0.656837 1.028820 -26.641571 0.122392 -0.000000 -0.000000
  9 0.796035 -3.878956 -5.972059 -0.000000 0.000000 0.000000
 10 -8.723413 -0.130360 -8.508430 -0.107422 0.000000 -0.000000
 11 0.166783 1.556997 -27.562809 0.345821 -0.000001 -0.000000
 12 0.000000 1.293419 -26.985462 -0.543740 -0.000000 0.000001
 13 -1.085476 -3.870871 -4.974040 0.000000 -0.000000 0.000000
 14 0.000000 1.168598 2.657310 0.159924 0.017167 0.003079
 15 -8.954402 1.658743 23.019791 0.711519 0.147037 0.613260
 16 -8.953053 1.418327 -13.929558 0.088331 -0.011800 0.080918
 17 -9.779663 -1.305862 -18.078568 -0.582699 -0.352923 -1.372821
 18 -2.037174 3.106266 -6.047005 -0.294289 1.155447 2.767195
 19 1.352785 132.272675 -0.844238 0.000000 -0.000000 0.000000
 20 80.625237 60.324379 -5.658772 0.000000 -0.000000 0.000000
 21 80.625237 60.324379 -5.658772 0.000000 -0.000000 0.000000
 22 -2.198711 -0.248619 -4.586052 -0.000000 0.000000 -0.000000
 23 10.123169 1.597124 23.114449 -0.820027 0.217474 -0.722873
 24 7.962698 1.521072 -14.049389 -0.555752 0.571777 -0.691314
 25 9.947456 -2.323952 -18.380560 -0.657303 0.391743 0.630586
 26 2.358192 0.209686 -5.286835 0.000000 0.000000 -0.000000
 27 0.245637 0.395285 37.946060 -0.322925 -0.001576 -0.007527
 28 -1.052342 10.134644 41.998703 0.204784 0.000000 0.000000
 29 -0.811199 20.021648 -10.553741 0.139964 0.000000 0.000000
 30 -0.733662 -0.873398 4.175873 -0.000000 -0.000000 -0.000000
 31 0.212572 6.765799 15.616814 0.034994 -0.000022 0.000609
 32 0.298738 -0.707735 8.641235 -0.000000 -0.000000 -0.000000
time 19
  0 -2.437624 -1.142060 2.887016 0.000000 -0.000000 0.000000
  1 -2.437624 -1.142060 2.887016 0.000000 -0.000000 0.000000
  2 -2.437624 -1.142060 2.887016 0.000000 -0.000000 0.000000
  3 -4.744596 2.314000 171.985855 0.000000 -0.000000 0.000000
  4 -2.437624 -47.376854 64.127274 0.260274 0.000000 0.000000
  5 0.000000 1.168596 -4.970123 0.070005 0.000000 0.000000
  6 9.220941 -0.130356 -8.947063 -0.833395 0.000000 0.000000
  7 -0.379086 1.747852 -28.612825 0.459192 -0.000000 -0.000000
  8 0.656837 1.028629 -26.647043 0.122389 -0.000000 -0.000000
  9 0.796035 -3.878456 -5.972936 -0.000000 0.000000 -0.000000
 10 -8.723413 -0.130356 -8.508430 -0.086381 0.000000 -0.000000
 11 0.166783 1.557432 -27.553867 0.289185 -0.000001 -0.000000
 12 -0.000001 1.294794 -26.952785 -0.546466 -0.000000 0.000001
 13 -1.085475 -3.864574 -4.983165 0.000000 -0.000000 -0.000000
 14 0.000000 1.168596 2.657310 0.170689 0.017213 0.003264
 15 -8.954401 1.658504 23.023544 0.753643 0.113455 0.671522
 16 -8.957855 1.412857 -13.974998 0.089576 -0.012357 0.079307
 17 -9.780903 -1.301254 -18.137848 -0.577287 -0.343013 -1.341442
 18 -2.031944 3.119034 -6.036667 -0.294328 1.155466 2.767148
 19 1.354197 132.730164 -0.840187 -0.000000 0.000000 0.000000
 20 80.708824 60.533035 -5.631737 -0.000000 0.000000 0.000000
 21 80.708824 60.533035 -5.631737 -0.000000 0.000000 0.000000
 22 -2.193062 -0.249630 -4.578213 0.000000 0.000000 0.000000
 23 10.123167 1.596893 23.118233 -0.757232 0.222539 -0.743647
 24 7.958511 1.528549 -13.987385 -0.567538 0.542754 -0.664638
 25 9.930241 -2.329529 -18.373447 -0.657319 0.391761 0.630524
 26 2.348331 0.210167 -5.295395 0.000000 -0.000000 0.000000
 27 0.245637 0.395226 37.952278 -0.325218 -0.001593 -0.007564
 28 -1.052342 10.137280 41.986183 0.204789 0.000000 0.000000
 29 -0.811198 20.026867 -10.550598 0.139967 0.000000 0.000000
 30 -0.733662 -0.873619 4.174629 0.000000 -0.000000 0.000000
 31 0.212572 6.764835 15.619362 0.034993 -0.000022 0.000609
 32 0.298738 -0.707638 8.642654 -0.000000 0.000000 -0.000000
time 20
  0 -2.437624 -1.142060 2.887016 0.000000 -0.000000 0.000000
  1 -2.437624 -1.142060 2.887016 0.000000 -0.000000 0.000000
  2 -2.437624 -1.142060 2.887016 0.000000 -0.000000 0.000000
  3 -4.744596 2.314000 171.985855 0.000000 -0.000000 0.000000
  4 -2.437624 -46.276127 64.546204 0.252260 0.000000 0.000000
  5 0.000000 1.168602 -4.970123 0.070005 0.000000 0.000000
  6 9.220941 -0.130358 -8.947060 -0.814482 0.000000 0.000000
  7 -0.379086 1.750328 -28.572752 0.447225 0.000000 -0.000000
  8 0.656837 1.028980 -26.637154 0.122394 -0.000000 -0.000000
  9 0.796035 -3.879360 -5.971353 0.000000 0.000000 -0.000000
 10 -8.723413 -0.130358 -8.508430 -0.086833 0.000000 -0.000000
 11 0.166781 1.557423 -27.554050 0.257508 -0.000001 -0.000000
 12 0.000000 1.295844 -26.927586 -0.529814 -0.000000 0.000001
 13 -1.085475 -3.861856 -4.987093 0.000000 -0.000000 -0.000000
 14 0.000000 1.168602 2.657303 0.167821 0.017244 0.003214
 15 -8.954398 1.658569 23.022499 0.729795 0.114089 0.723599
 16 -8.958010 1.415863 -13.945404 0.082086 -0.003718 0.092352
 17 -9.780870 -1.304726 -18.091553 -0.570767 -0.331046 -1.303455
 18 -2.036240 3.121841 -6.017338 -0.294360 1.155460 2.767119
 19 1.350624 132.855789 -0.841637 -0.000000 -0.000000 0.000000
 20 80.497017 60.590317 -5.641365 -0.000000 -0.000000 0.000000
 21 80.497017 60.590317 -5.641365 -0.000000 -0.000000 0.000000
 22 -2.197701 -0.249859 -4.563557 0.000000 -0.000000 0.000000
 23 10.123164 1.596958 23.117180 -0.724971 0.220199 -0.728899
 24 7.960136 1.531525 -13.956306 -0.575848 0.522107 -0.643987
 25 9.924522 -2.332016 -18.366577 -0.657329 0.391770 0.630508
 26 2.344971 0.210266 -5.300064 -0.000000 -0.000000 -0.000000
 27 0.245637 0.395241 37.950554 -0.314360 -0.001555 -0.007380
 28 -1.052342 10.139702 41.974770 0.204793 0.000000 0.000000
 29 -0.811198 20.031633 -10.547729 0.139971 0.000000 -0.000000
 30 -0.733662 -0.873829 4.173500 -0.000000 -0.000000 0.000000
 31 0.212571 6.765106 15.618660 0.034993 -0.000022 0.000609
 32 0.298738 -0.707663 8.642265 0.000000 -0.000000 -0.000000
time 21
  0 -2.437624 -1.142060 2.887016 0.000000 -0.000000 0.000000
  1 -2.437624 -1.142060 2.887016 0.000000 -0.000000 0.000000
  2 -2.437624 -1.142060 2.887016 0.000000 -0.000000 0.000000
  3 -4.744596 2.314000 171.985855 0.000000 -0.000000 0.000000
  4 -2.437624 -44.398102 65.260971 0.238587 0.000000 0.000000
  5 0.000000 1.168604 -4.970123 0.070005 0.000000 0.000000
  6 9.220941 -0.130350 -8.947060 -0.782214 0.000000 0.000000
  7 -0.379085 1.754566 -28.504078 0.426807 0.000000 -0.000000
  8 0.656837 1.029549 -26.620615 0.122401 -0.000000 -0.000000
  9 0.796035 -3.880844 -5.968744 0.000000 0.000000 -0.000000
 10 -8.723414 -0.130360 -8.508430 -0.087605 0.000000 -0.000000
 11 0.166782 1.557409 -27.554344 0.227635 -0.000001 -0.000000
 12 0.000000 1.296690 -26.907436 -0.501415 -0.000000 0.000000
 13 -1.085476 -3.861465 -4.987664 0.000000 -0.000000 0.000000
 14 0.000000 1.168598 2.657303 0.162927 0.017272 0.003130
 15 -8.954399 1.658670 23.020805 0.689100 0.115171 0.775598
 16 -8.958002 1.420822 -13.896805 0.069312 0.011026 0.114605
 17 -9.780853 -1.310562 -18.013042 -0.563321 -0.317367 -1.259958
 18 -2.043045 3.123398 -5.992603 -0.294387 1.155427 2.767098
 19 1.345066 132.942719 -0.844620 0.000000 0.000000 -0.000000
 20 80.165543 60.629959 -5.661362 0.000000 0.000000 -0.000000
 21 80.165543 60.629959 -5.661362 0.000000 0.000000 -0.000000
 22 -2.205040 -0.249985 -4.544796 0.000000 -0.000000 -0.000000
 23 10.123166 1.597059 23.115471 -0.695900 0.216147 -0.703721
 24 7.962835 1.533989 -13.927917 -0.583488 0.503171 -0.625010
 25 9.920803 -2.334251 -18.357872 -0.657340 0.391777 0.630497
 26 2.342461 0.210285 -5.304718 0.000000 0.000000 0.000000
 27 0.245637 0.395266 37.947746 -0.295831 -0.001489 -0.007067
 28 -1.052341 10.143620 41.956184 0.204799 0.000000 0.000000
 29 -0.811198 20.039375 -10.543060 0.139976 0.000000 -0.000000
 30 -0.733662 -0.874165 4.171646 -0.000000 -0.000000 -0.000000
 31 0.212571 6.765535 15.617508 0.034994 -0.000022 0.000609
 32 0.298738 -0.707714 8.641624 0.000000 -0.000000 0.000000
time 22
  0 -2.437624 -1.142060 2.887016 0.000000 -0.000000 0.000000
  1 -2.437624 -1.142060 2.887016 0.000000 -0.000000 0.000000
  2 -2.437624 -1.142060 2.887016 0.000000 -0.000000 0.000000
  3 -4.744596 2.314000 171.985855 0.000000 -0.000000 0.000000
  4 -2.437624 -41.859818 66.227036 0.220107 0.000000 0.000000
  5 0.000000 1.168600 -4.970116 0.070005 0.000000 0.000000
  6 9.220941 -0.130354 -8.947060 -0.738601 -0.000000 0.000000
  7 -0.379086 1.760265 -28.411085 0.399208 0.000000 -0.000000
  8 0.656837 1.030293 -26.598974 0.122411 -0.000000 -0.000000
  9 0.796035 -3.882744 -5.965408 0.000000 -0.000000 0.000000
 10 -8.723413 -0.130358 -8.508434 -0.088647 0.000000 -0.000000
 11 0.166782 1.557386 -27.554741 0.199600 -0.000001 -0.000000
 12 0.000000 1.297335 -26.891903 -0.463035 -0.000000 0.000000
 13 -1.085475 -3.863129 -4.985257 0.000000 -0.000000 0.000000
 14 0.000000 1.168598 2.657303 0.156312 0.017299 0.003015
 15 -8.954396 1.658810 23.018639 0.634087 0.116638 0.827067
 16 -8.957806 1.427361 -13.832611 0.052055 0.030959 0.144675
 17 -9.780888 -1.318382 -17.906471 -0.555142 -0.302338 -1.212041
 18 -2.051086 3.123478 -5.966892 -0.294392 1.155355 2.767099
 19 1.337990 132.983002 -0.848862 -0.000000 0.000000 -0.000000
 20 79.743385 60.648323 -5.689789 -0.000000 0.000000 -0.000000
 21 79.743385 60.648323 -5.689789 -0.000000 0.000000 -0.000000
 22 -2.213730 -0.249992 -4.525299 -0.000000 -0.000000 -0.000000
 23 10.123163 1.597191 23.113289 -0.669725 0.210578 -0.669684
 24 7.966326 1.536018 -13.902206 -0.590476 0.485896 -0.607601
 25 9.919048 -2.336159 -18.347710 -0.657352 0.391782 0.630491
 26 2.340736 0.210255 -5.309143 -0.000000 0.000000 -0.000000
 27 0.245637 0.395294 37.944160 -0.270783 -0.001400 -0.006644
 28 -1.052341 10.148521 41.932854 0.204806 0.000000 0.000000
 29 -0.811198 20.049080 -10.537201 0.139983 0.000000 -0.000000
 30 -0.733662 -0.874588 4.169334 -0.000000 -0.000000 0.000000
 31 0.212571 6.766083 15.616028 0.034994 -0.000022 0.000609
 32 0.298738 -0.707767 8.640808 0.000000 0.000000 0.000000
time 23
  0 -2.437624 -1.142060 2.887016 0.000000 -0.000000 0.000000
  1 -2.437624 -1.142060 2.887016 0.000000 -0.000000 0.000000
  2 -2.437624 -1.142060 2.887016 0.000000 -0.000000 0.000000
  3 -4.744596 2.314000 171.985855 0.000000 -0.000000 0.000000
  4 -2.437624 -38.778336 67.399834 0.197672 0.000000 0.000000
  5 0.000000 1.168598 -4.970116 0.070005 0.000000 0.000000
  6 9.220941 -0.130356 -8.947067 -0.685650 -0.000000 0.000000
  7 -0.379086 1.767094 -28.298893 0.365696 0.000000 -0.000000
  8 0.656837 1.031162 -26.573814 0.122423 -0.000000 -0.000000
  9 0.796035 -3.884872 -5.961659 0.000000 0.000000 -0.000000
 10 -8.723413 -0.130358 -8.508434 -0.089913 0.000000 -0.000000
 11 0.166783 1.557362 -27.555241 0.173437 -0.000001 -0.000000
 12 -0.000001 1.297813 -26.880499 -0.416435 -0.000000 0.000000
 13 -1.085476 -3.866432 -4.980474 -0.000000 0.000000 0.000000
 14 0.000000 1.168598 2.657318 0.148281 0.017323 0.002877
 15 -8.954397 1.658964 23.016212 0.567277 0.118423 0.877551
 16 -8.957439 1.434959 -13.757332 0.031108 0.055169 0.181174
 17 -9.780882 -1.327591 -17.779579 -0.546416 -0.286309 -1.160799
 18 -2.058949 3.121712 -5.945469 -0.294364 1.155243 2.767132
 19 1.330191 132.967590 -0.853882 -0.000000 0.000000 -0.000000
 20 79.278320 60.641304 -5.723473 -0.000000 0.000000 -0.000000
 21 79.278320 60.641304 -5.723473 -0.000000 0.000000 -0.000000
 22 -2.222206 -0.249855 -4.509048 -0.000000 -0.000000 -0.000000
 23 10.123165 1.597336 23.110855 -0.646152 0.203688 -0.628358
 24 7.970331 1.537636 -13.879211 -0.596832 0.470228 -0.591656
 25 9.919064 -2.337753 -18.336571 -0.657363 0.391786 0.630489
 26 2.339775 0.210175 -5.313194 -0.000000 -0.000000 -0.000000
 27 0.245637 0.395332 37.940163 -0.240370 -0.001292 -0.006130
 28 -1.052342 10.153893 41.907402 0.204813 0.000000 0.000000
 29 -0.811198 20.059668 -10.530800 0.139990 0.000000 0.000000
 30 -0.733662 -0.875053 4.166809 0.000000 0.000000 0.000000
 31 0.212571 6.766706 15.614395 0.034995 -0.000022 0.000609
 32 0.298738 -0.707830 8.639900 0.000000 -0.000000 -0.000000
time 24
  0 -2.437624 -1.142060 2.887016 0.000000 -0.000000 0.000000
  1 -2.437624 -1.142060 2.887016 0.000000 -0.000000 0.000000
  2 -2.437624 -1.142060 2.887016 0.000000 -0.000000 0.000000
  3 -4.744596 2.314000 171.985855 0.000000 -0.000000 0.000000
  4 -2.437624 -35.270706 68.734818 0.172135 0.000000 0.000000
  5 0.000000 1.168596 -4.970123 0.070005 0.000000 0.000000
  6 9.220941 -0.130352 -8.947060 -0.625360 -0.000000 0.000000
  7 -0.379086 1.774658 -28.173641 0.327537 0.000000 -0.000000
  8 0.656837 1.032093 -26.546715 0.122435 -0.000000 -0.000000
  9 0.796035 -3.887062 -5.957794 0.000000 -0.000000 0.000000
 10 -8.723414 -0.130354 -8.508430 -0.091354 0.000000 -0.000000
 11 0.166782 1.557333 -27.555813 0.149181 -0.000001 -0.000000
 12 0.000000 1.298134 -26.872709 -0.363377 -0.000000 0.000000
 13 -1.085476 -3.870867 -4.974045 -0.000000 0.000000 -0.000000
 14 -0.000000 1.168598 2.657310 0.139140 0.017345 0.002718
 15 -8.954397 1.659117 23.013741 0.491179 0.120462 0.926593
 16 -8.956871 1.443047 -13.676758 0.007257 0.082743 0.222716
 17 -9.780319 -1.337299 -17.644852 -0.537311 -0.269610 -1.107335
 18 -2.065434 3.117516 -5.933506 -0.294302 1.155114 2.767196
 19 1.322794 132.879211 -0.859085 0.000000 -0.000000 -0.000000
 20 78.837708 60.600994 -5.758339 0.000000 -0.000000 -0.000000
 21 78.837708 60.600994 -5.758339 0.000000 -0.000000 -0.000000
 22 -2.229210 -0.249512 -4.499977 0.000000 -0.000000 -0.000000
 23 10.123164 1.597488 23.108376 -0.624888 0.195674 -0.581314
 24 7.974558 1.538925 -13.858994 -0.602573 0.456116 -0.577071
 25 9.920528 -2.339020 -18.324932 -0.657372 0.391788 0.630491
 26 2.339500 0.210064 -5.316776 0.000000 -0.000000 0.000000
 27 0.245637 0.395370 37.936089 -0.205743 -0.001168 -0.005544
 28 -1.052341 10.159166 41.882263 0.204819 0.000000 0.000000
 29 -0.811199 20.070101 -10.524483 0.139996 0.000000 0.000000
 30 -0.733662 -0.875504 4.164307 -0.000000 -0.000000 -0.000000
 31 0.212571 6.767332 15.612701 0.034996 -0.000022 0.000609
 32 0.298738 -0.707895 8.638962 -0.000000 0.000000 0.000000
time 25
  0 -2.437624 -1.142060 2.887016 0.000000 -0.000000 0.000000
  1 -2.437624 -1.142060 2.887016 0.000000 -0.000000 0.000000
  2 -2.437624 -1.142060 2.887016 0.000000 -0.000000 0.000000
  3 -4.744596 2.314000 171.985855 0.000000 -0.000000 0.000000
  4 -2.437624 -31.453983 70.187447 0.144347 0.000000 0.000000
  5 0.000000 1.168602 -4.970123 0.070005 0.000000 0.000000
  6 9.220941 -0.130357 -8.947063 -0.559730 -0.000000 0.000000
  7 -0.379086 1.782497 -28.042419 0.285996 0.000000 -0.000000
  8 0.656837 1.033039 -26.519163 0.122448 -0.000000 -0.000000
  9 0.796035 -3.889164 -5.954090 0.000000 0.000000 -0.000000
 10 -8.723413 -0.130354 -8.508434 -0.092921 0.000000 -0.000000
 11 0.166783 1.557304 -27.556450 0.126863 -0.000001 -0.000000
 12 0.000000 1.298332 -26.867996 -0.305623 -0.000000 0.000000
 13 -1.085475 -3.875876 -4.966757 0.000000 -0.000000 -0.000000
 14 0.000000 1.168602 2.657310 0.129192 0.017365 0.002546
 15 -8.954399 1.659264 23.011406 0.408304 0.122685 0.973738
 16 -8.956104 1.450935 -13.597557 -0.018720 0.112764 0.267918
 17 -9.778051 -1.346500 -17.518936 -0.527977 -0.252554 -1.052759
 18 -2.069901 3.110077 -5.934879 -0.294215 1.155006 2.767282
 19 1.317104 132.687637 -0.863869 -0.000000 -0.000000 -0.000000
 20 78.498932 60.513630 -5.790409 -0.000000 -0.000000 -0.000000
 21 78.498932 60.513630 -5.790409 -0.000000 -0.000000 -0.000000
 22 -2.234032 -0.248920 -4.501022 -0.000000 -0.000000 -0.000000
 23 10.123165 1.597624 23.106033 -0.605639 0.186732 -0.530121
 24 7.978775 1.539906 -13.841530 -0.607717 0.443507 -0.563743
 25 9.923077 -2.340012 -18.313259 -0.657381 0.391788 0.630495
 26 2.339775 0.209908 -5.319874 -0.000000 0.000000 0.000000
 27 0.245637 0.395407 37.932243 -0.168057 -0.001034 -0.004908
 28 -1.052342 10.163914 41.859695 0.204821 0.000000 0.000000
 29 -0.811198 20.079473 -10.518814 0.140001 0.000000 0.000000
 30 -0.733662 -0.875916 4.162048 -0.000000 -0.000000 0.000000
 31 0.212572 6.767929 15.611122 0.034996 -0.000022 0.000609
 32 0.298738 -0.707960 8.638092 0.000000 0.000000 0.000000
time 26
  0 -2.437624 -1.142060 2.887016 0.000000 -0.000000 0.000000
  1 -2.437624 -1.142060 2.887016 0.000000 -0.000000 0.000000
  2 -2.437624 -1.142060 2.887016 0.000000 -0.000000 0.000000
  3 -4.744596 2.314000 171.985855 0.000000 -0.000000 0.000000
  4 -2.437624 -27.445219 71.713165 0.115162 0.000000 0.000000
  5 0.000000 1.168598 -4.970123 0.070005 0.000000 0.000000
  6 9.220941 -0.130358 -8.947067 -0.490757 -0.000000 0.000000
  7 -0.379086 1.790184 -27.912807 0.242338 0.000000 -0.000000
  8 0.656837 1.033958 -26.492453 0.122460 -0.000000 -0.000000
  9 0.796035 -3.891045 -5.950771 -0.000000 0.000000 0.000000
 10 -8.723413 -0.130356 -8.508434 -0.094568 0.000000 -0.000000
 11 0.166782 1.557272 -27.557121 0.106517 -0.000001 -0.000000
 12 0.000000 1.298422 -26.865826 -0.244941 -0.000000 0.000000
 13 -1.085475 -3.880937 -4.959377 0.000000 -0.000000 0.000000
 14 0.000000 1.168598 2.657310 0.118743 0.017384 0.002366
 15 -8.954401 1.659389 23.009331 0.321171 0.125022 1.018531
 16 -8.955112 1.458000 -13.526459 -0.046035 0.144310 0.315395
 17 -9.772308 -1.354206 -17.419765 -0.518566 -0.235456 -0.998183
 18 -2.072392 3.098656 -5.951046 -0.294121 1.154955 2.767375
 19 1.314289 132.353760 -0.867817 0.000000 -0.000000 0.000000
 20 78.331161 60.361351 -5.816837 0.000000 -0.000000 0.000000
 21 78.331161 60.361351 -5.816837 0.000000 -0.000000 0.000000
 22 -2.236717 -0.248001 -4.513275 0.000000 -0.000000 -0.000000
 23 10.123169 1.597752 23.103943 -0.588111 0.177058 -0.476350
 24 7.982794 1.540668 -13.826691 -0.612283 0.432349 -0.551569
 25 9.926300 -2.340767 -18.301956 -0.657389 0.391789 0.630502
 26 2.340492 0.209747 -5.322502 -0.000000 -0.000000 0.000000
 27 0.245637 0.395437 37.928818 -0.128468 -0.000893 -0.004239
 28 -1.052341 10.167763 41.841370 0.204820 0.000000 0.000000
 29 -0.811198 20.087069 -10.514214 0.140003 0.000000 0.000000
 30 -0.733661 -0.876245 4.160233 0.000000 0.000000 -0.000000
 31 0.212572 6.768456 15.609718 0.034997 -0.000022 0.000609
 32 0.298738 -0.708014 8.637321 0.000000 -0.000000 -0.000000
time 27
  0 -2.437624 -1.142060 2.887016 0.000000 -0.000000 0.000000
  1 -2.437624 -1.142060 2.887016 0.000000 -0.000000 0.000000
  2 -2.437624 -1.142060 2.887016 0.000000 -0.000000 0.000000
  3 -4.744596 2.314000 171.985855 0.000000 -0.000000 0.000000
  4 -2.437624 -23.361465 73.267426 0.085430 0.000000 0.000000
  5 0.000000 1.168600 -4.970116 0.070005 0.000000 0.000000
  6 9.220941 -0.130357 -8.947060 -0.420444 -0.000000 0.000000
  7 -0.379086 1.797283 -27.792046 0.197832 0.000000 -0.000000
  8 0.656837 1.034803 -26.467678 0.122472 -0.000000 -0.000000
  9 0.796035 -3.892605 -5.948000 0.000000 0.000000 -0.000000
 10 -8.723413 -0.130358 -8.508430 -0.096245 0.000000 -0.000000
 11 0.166783 1.557238 -27.557827 0.088177 -0.000001 -0.000000
 12 0.000001 1.298429 -26.865654 -0.183099 -0.000000 0.000000
 13 -1.085475 -3.885587 -4.952582 0.000000 0.000000 -0.000000
 14 0.000000 1.168598 2.657303 0.108099 0.017400 0.002182
 15 -8.954399 1.659494 23.007614 0.232316 0.127402 1.060517
 16 -8.953909 1.463696 -13.469185 -0.073888 0.176446 0.363759
 17 -9.761127 -1.359753 -17.361977 -0.509246 -0.218647 -0.944709
 18 -2.073441 3.082962 -5.980610 -0.294033 1.154971 2.767457
 19 1.315018 131.845871 -0.870735 0.000000 0.000000 -0.000000
 20 78.374161 60.129723 -5.836361 0.000000 0.000000 -0.000000
 21 78.374161 60.129723 -5.836361 0.000000 0.000000 -0.000000
 22 -2.237850 -0.246742 -4.535706 0.000000 0.000000 -0.000000
 23 10.123167 1.597851 23.102234 -0.572011 0.166850 -0.421572
 24 7.986473 1.541233 -13.814178 -0.616290 0.422589 -0.540445
 25 9.929811 -2.341362 -18.291256 -0.657395 0.391789 0.630510
 26 2.341492 0.209572 -5.324715 0.000000 0.000000 -0.000000
 27 0.245637 0.395464 37.926010 -0.088132 -0.000750 -0.003558
 28 -1.052341 10.170459 41.828499 0.204815 0.000000 0.000000
 29 -0.811198 20.092403 -10.510979 0.140002 0.000000 0.000000
 30 -0.733662 -0.876480 4.158958 -0.000000 -0.000000 -0.000000
 31 0.212572 6.768887 15.608559 0.034997 -0.000022 0.000609
 32 0.298738 -0.708059 8.636673 0.000000 0.000000 0.000000
time 28
  0 -2.437624 -1.142060 2.887016 0.000000 -0.000000 0.000000
  1 -2.437624 -1.142060 2.887016 0.000000 -0.000000 0.000000
  2 -2.437624 -1.142060 2.887016 0.000000 -0.000000 0.000000
  3 -4.744596 2.314000 171.985855 0.000000 -0.000000 0.000000
  4 -2.437624 -19.319777 74.805672 0.056004 0.000000 0.000000
  5 -0.000000 1.168599 -4.970123 0.070005 0.000000 0.000000
  6 9.220941 -0.130358 -8.947067 -0.350801 -0.000000 0.000000
  7 -0.379086 1.803453 -27.686237 0.153754 0.000000 -0.000000
  8 0.656837 1.035555 -26.445656 0.122481 -0.000000 -0.000000
  9 0.796035 -3.893808 -5.945875 0.000000 0.000000 0.000000
 10 -8.723413 -0.130358 -8.508438 -0.097905 0.000000 -0.000000
 11 0.166782 1.557203 -27.558529 0.071873 -0.000001 -0.000000
 12 0.000000 1.298374 -26.866970 -0.121874 -0.000000 0.000000
 13 -1.085475 -3.889461 -4.946899 0.000000 0.000000 -0.000000
 14 0.000000 1.168600 2.657303 0.097564 0.017414 0.001999
 15 -8.954399 1.659574 23.006355 0.144300 0.129751 1.099246
 16 -8.952530 1.467716 -13.429420 -0.101463 0.208232 0.411625
 17 -9.742962 -1.362919 -17.352722 -0.500227 -0.202477 -0.893427
 18 -2.073750 3.063618 -6.019775 -0.293972 1.155038 2.767511
 19 1.319206 131.162155 -0.872654 0.000000 -0.000000 -0.000000
 20 78.624359 59.817917 -5.849285 0.000000 -0.000000 -0.000000
 21 78.624359 59.817917 -5.849285 0.000000 -0.000000 -0.000000
 22 -2.238186 -0.245201 -4.565407 -0.000000 -0.000000 0.000000
 23 10.123167 1.597928 23.100960 -0.557046 0.156305 -0.367357
 24 7.989738 1.541687 -13.803619 -0.619755 0.414175 -0.530269
 25 9.933289 -2.341866 -18.281286 -0.657400 0.391788 0.630520
 26 2.342651 0.209400 -5.326614 0.000000 0.000000 0.000000
 27 0.245637 0.395481 37.923912 -0.048207 -0.000608 -0.002883
 28 -1.052341 10.171925 41.821526 0.204807 0.000000 0.000000
 29 -0.811198 20.095295 -10.509239 0.139999 0.000000 0.000000
 30 -0.733661 -0.876606 4.158264 0.000000 -0.000000 0.000000
 31 0.212572 6.769210 15.607697 0.034998 -0.000022 0.000609
 32 0.298738 -0.708094 8.636192 0.000000 -0.000000 0.000000
time 29
  0 -2.437624 -1.142060 2.887016 0.000000 -0.000000 0.000000
  1 -2.437624 -1.142060 2.887016 0.000000 -0.000000 0.000000
  2 -2.437624 -1.142060 2.887016 0.000000 -0.000000 0.000000
  3 -4.744596 2.314000 171.985855 0.000000 -0.000000 0.000000
  4 -2.437624 -15.437215 76.283356 0.027737 0.000000 0.000000
  5 -0.000000 1.168600 -4.970123 0.070005 0.000000 0.000000
  6 9.220941 -0.130357 -8.947071 -0.283850 -0.000000 0.000000
  7 -0.379086 1.808479 -27.599506 0.111382 0.000000 -0.000000
  8 0.656837 1.036194 -26.426899 0.122489 -0.000000 -0.000000
  9 0.796036 -3.894630 -5.944417 0.000000 0.000000 -0.000000
 10 -8.723413 -0.130356 -8.508442 -0.099500 0.000000 -0.000000
 11 0.166783 1.557170 -27.559223 0.057640 -0.000001 -0.000000
 12 0.000000 1.298279 -26.869282 -0.063046 -0.000000 0.000000
 13 -1.085475 -3.892355 -4.942650 0.000000 0.000000 -0.000000
 14 0.000000 1.168599 2.657295 0.087443 0.017426 0.001824
 15 -8.954401 1.659625 23.005508 0.059700 0.131999 1.134268
 16 -8.951008 1.469986 -13.408134 -0.127936 0.238728 0.457608
 17 -9.717468 -1.363935 -17.389511 -0.491744 -0.187309 -0.845421
 18 -2.073780 3.042263 -6.063427 -0.293951 1.155125 2.767519
 19 1.326099 130.344864 -0.873772 -0.000000 0.000000 0.000000
 20 79.035095 59.445175 -5.856773 -0.000000 0.000000 0.000000
 21 79.035095 59.445175 -5.856773 -0.000000 0.000000 0.000000
 22 -2.238216 -0.243492 -4.598511 0.000000 -0.000000 0.000000
 23 10.123166 1.597976 23.100113 -0.542921 0.145619 -0.315276
 24 7.992567 1.542076 -13.794456 -0.622698 0.407053 -0.520937
 25 9.936464 -2.342339 -18.271954 -0.657403 0.391788 0.630529
 26 2.343784 0.209236 -5.328297 -0.000000 -0.000000 0.000000
 27 0.245637 0.395493 37.922531 -0.009852 -0.000471 -0.002236
 28 -1.052341 10.172180 41.820320 0.204795 0.000000 0.000000
 29 -0.811198 20.095802 -10.508926 0.139994 0.000000 0.000000
 30 -0.733661 -0.876629 4.158142 0.000000 -0.000000 -0.000000
 31 0.212571 6.769420 15.607140 0.034998 -0.000022 0.000609
 32 0.298738 -0.708116 8.635880 -0.000000 0.000000 -0.000000
time 30
  0 -2.437624 -1.142060 2.887016 0.000000 -0.000000 0.000000
  1 -2.437624 -1.142060 2.887016 0.000000 -0.000000 0.000000
  2 -2.437624 -1.142060 2.887016 0.000000 -0.000000 0.000000
  3 -4.744596 2.314000 171.985855 0.000000 -0.000000 0.000000
  4 -2.437624 -11.830818 77.655937 0.001481 0.000000 0.000000
  5 0.000000 1.168600 -4.970123 0.070005 0.000000 0.000000
  6 9.220942 -0.130359 -8.947060 -0.221621 -0.000000 0.000000
  7 -0.379086 1.812283 -27.533550 0.072001 0.000000 -0.000000
  8 0.656837 1.036713 -26.411617 0.122495 -0.000000 -0.000000
  9 0.796035 -3.895107 -5.943577 0.000000 0.000000 -0.000000
 10 -8.723413 -0.130357 -8.508430 -0.100981 0.000000 -0.000000
 11 0.166783 1.557137 -27.559872 0.045508 -0.000001 -0.000000
 12 0.000000 1.298159 -26.872133 -0.008394 -0.000000 0.000000
 13 -1.085475 -3.894209 -4.939923 -0.000000 -0.000000 -0.000000
 14 0.000000 1.168599 2.657310 0.078042 0.017436 0.001662
 15 -8.954401 1.659653 23.005074 -0.018903 0.134077 1.165138
 16 -8.949432 1.470675 -13.403595 -0.152498 0.267008 0.500324
 17 -9.685913 -1.363382 -17.461082 -0.484040 -0.173506 -0.801776
 18 -2.073627 3.021183 -6.106461 -0.293978 1.155205 2.767475
 19 1.334435 129.475662 -0.874283 -0.000000 0.000000 -0.000000
 20 79.531891 59.048767 -5.860176 -0.000000 0.000000 -0.000000
 21 79.531891 59.048767 -5.860176 -0.000000 0.000000 -0.000000
 22 -2.238052 -0.241802 -4.631145 -0.000000 0.000000 0.000000
 23 10.123167 1.598003 23.099686 -0.529344 0.134992 -0.266898
 24 7.994967 1.542473 -13.786110 -0.625135 0.401172 -0.512348
 25 9.939146 -2.342903 -18.263025 -0.657406 0.391788 0.630539
 26 2.344784 0.209084 -5.329895 -0.000000 0.000000 0.000000
 27 0.245637 0.395500 37.921814 0.025775 -0.000345 -0.001634
 28 -1.052341 10.171419 41.823944 0.204781 0.000000 0.000000
 29 -0.811198 20.094303 -10.509834 0.139987 0.000000 0.000000
 30 -0.733660 -0.876563 4.158493 0.000000 0.000000 0.000000
 31 0.212571 6.769532 15.606834 0.034998 -0.000022 0.000609
 32 0.298738 -0.708128 8.635719 -0.000000 0.000000 0.000000
time 31
  0 -2.437624 -1.142060 2.887016 0.000000 -0.000000 0.000000
  1 -2.437624 -1.142060 2.887016 0.000000 -0.000000 0.000000
  2 -2.437624 -1.142060 2.887016 0.000000 -0.000000 0.000000
  3 -4.744596 2.314000 171.985855 0.000000 -0.000000 0.000000
  4 -2.437624 -8.617653 78.878853 -0.021912 0.000000 0.000000
  5 0.000000 1.168600 -4.970123 0.070005 0.000000 0.000000
  6 9.220941 -0.130357 -8.947060 -0.166149 -0.000000 0.000000
  7 -0.379086 1.814922 -27.487560 0.036900 0.000000 -0.000000
  8 0.656837 1.037116 -26.399769 0.122500 -0.000000 -0.000000
  9 0.796035 -3.895293 -5.943245 0.000000 0.000000 -0.000000
 10 -8.723413 -0.130356 -8.508430 -0.102301 0.000000 -0.000000
 11 0.166783 1.557110 -27.560463 0.035510 -0.000001 -0.000000
 12 0.000001 1.298035 -26.875103 0.040301 -0.000000 0.000000
 13 -1.085475 -3.895118 -4.938590 -0.000000 0.000000 -0.000000
 14 0.000000 1.168600 2.657303 0.069666 0.017444 0.001517
 15 -8.954399 1.659660 23.004959 -0.088933 0.135920 1.191405
 16 -8.947887 1.470151 -13.411789 -0.174352 0.292163 0.538386
 17 -9.651173 -1.361955 -17.551079 -0.477337 -0.161428 -0.763590
 18 -2.073189 3.002632 -6.144806 -0.294045 1.155265 2.767391
 19 1.342880 128.652359 -0.874363 -0.000000 0.000000 -0.000000
 20 80.034615 58.673294 -5.860722 -0.000000 0.000000 -0.000000
 21 80.034615 58.673294 -5.860722 -0.000000 0.000000 -0.000000
 22 -2.237583 -0.240326 -4.660221 -0.000000 0.000000 -0.000000
 23 10.123165 1.598010 23.099556 -0.516022 0.124620 -0.223795
 24 7.996964 1.542927 -13.777885 -0.627087 0.396480 -0.504398
 25 9.941208 -2.343620 -18.254124 -0.657408 0.391788 0.630547
 26 2.345528 0.208958 -5.331520 -0.000000 -0.000000 -0.000000
 27 0.245637 0.395503 37.921616 0.057516 -0.000232 -0.001098
 28 -1.052341 10.169929 41.831055 0.204767 0.000000 0.000000
 29 -0.811197 20.091351 -10.511620 0.139979 0.000000 0.000000
 30 -0.733661 -0.876433 4.159218 0.000000 0.000000 -0.000000
 31 0.212571 6.769560 15.606750 0.034998 -0.000022 0.000609
 32 0.298738 -0.708131 8.635666 -0.000000 0.000000 -0.000000
time 32
  0 -2.437624 -1.142060 2.887016 0.000000 -0.000000 0.000000
  1 -2.437624 -1.142060 2.887016 0.000000 -0.000000 0.000000
  2 -2.437624 -1.142060 2.887016 0.000000 -0.000000 0.000000
  3 -4.744596 2.314000 171.985855 0.000000 -0.000000 0.000000
  4 -2.437624 -5.914762 79.907562 -0.041591 0.000000 0.000000
  5 0.000000 1.168600 -4.970123 0.070005 0.000000 0.000000
  6 9.220941 -0.130357 -8.947060 -0.119470 -0.000000 0.000000
  7 -0.379086 1.816575 -27.458706 0.007365 0.000000 -0.000000
  8 0.656837 1.037411 -26.391115 0.122502 -0.000000 -0.000000
  9 0.796036 -3.895276 -5.943275 0.000000 -0.000000 -0.000000
 10 -8.723413 -0.130356 -8.508438 -0.103411 0.000000 -0.000000
 11 0.166782 1.557085 -27.560963 0.027679 -0.000001 -0.000000
 12 0.000000 1.297922 -26.877831 0.081263 -0.000000 0.000000
 13 -1.085476 -3.895297 -4.938323 0.000000 0.000000 -0.000000
 14 -0.000000 1.168600 2.657303 0.062620 0.017451 0.001395
 15 -8.954400 1.659654 23.005051 -0.147828 0.137465 1.212623
 16 -8.946491 1.468904 -13.427322 -0.192713 0.313294 0.570409
 17 -9.617218 -1.360294 -17.642208 -0.471825 -0.151429 -0.731965
 18 -2.072388 2.988136 -6.175884 -0.294128 1.155301 2.767290
 19 1.350288 127.959465 -0.874180 0.000000 -0.000000 0.000000
 20 80.477066 58.357292 -5.859489 0.000000 -0.000000 0.000000
 21 80.477066 58.357292 -5.859489 0.000000 -0.000000 0.000000
 22 -2.236717 -0.239151 -4.683800 -0.000000 0.000000 -0.000000
 23 10.123168 1.598005 23.099648 -0.502661 0.114700 -0.187537
 24 7.998620 1.543503 -13.769180 -0.628572 0.392924 -0.496985
 25 9.942560 -2.344582 -18.244799 -0.657410 0.391788 0.630553
 26 2.345898 0.208855 -5.333309 0.000000 0.000000 -0.000000
 27 0.245637 0.395501 37.921783 0.084215 -0.000137 -0.000647
 28 -1.052340 10.168086 41.839859 0.204753 0.000000 0.000000
 29 -0.811197 20.087719 -10.513832 0.139971 0.000000 0.000000
 30 -0.733661 -0.876276 4.160080 0.000000 0.000000 0.000000
 31 0.212571 6.769536 15.606827 0.034998 -0.000022 0.000609
 32 0.298738 -0.708127 8.635712 0.000000 -0.000000 0.000000
time 33
  0 -2.437624 -1.142060 2.887016 0.000000 -0.000000 0.000000
  1 -2.437624 -1.142060 2.887016 0.000000 -0.000000 0.000000
  2 -2.437624 -1.142060 2.887016 0.000000 -0.000000 0.000000
  3 -4.744596 2.314000 171.985855 0.000000 -0.000000 0.000000
  4 -2.437624 -3.839206 80.697510 -0.056702 0.000000 0.000000
  5 0.000000 1.168599 -4.970116 0.070005 0.000000 0.000000
  6 9.220941 -0.130357 -8.947060 -0.083617 -0.000000 0.000000
  7 -0.379086 1.817483 -27.442833 -0.015318 0.000000 -0.000000
  8 0.656837 1.037608 -26.385300 0.122504 -0.000000 -0.000000
  9 0.796035 -3.895155 -5.943490 0.000000 -0.000000 0.000000
 10 -8.723413 -0.130357 -8.508430 -0.104264 0.000000 -0.000000
 11 0.166783 1.557066 -27.561348 0.022045 -0.000001 -0.000000
 12 -0.000001 1.297831 -26.880028 0.112715 -0.000000 0.000000
 13 -1.085476 -3.895054 -4.938681 0.000000 0.000000 -0.000000
 14 0.000000 1.168599 2.657310 0.057209 0.017455 0.001301
 15 -8.954398 1.659642 23.005249 -0.193040 0.138647 1.228339
 16 -8.945356 1.467470 -13.444351 -0.206801 0.329506 0.595001
 17 -9.588371 -1.358852 -17.719475 -0.467677 -0.143857 -0.708008
 18 -2.071358 2.978203 -6.198483 -0.294206 1.155320 2.767200
 19 1.355986 127.448441 -0.873882 0.000000 0.000000 0.000000
 20 80.815842 58.124222 -5.857506 0.000000 0.000000 0.000000
 21 80.815842 58.124222 -5.857506 0.000000 0.000000 0.000000
 22 -2.235596 -0.238365 -4.700939 0.000000 -0.000000 0.000000
 23 10.123165 1.597993 23.099854 -0.488967 0.105431 -0.159693
 24 7.999975 1.544250 -13.759338 -0.629609 0.390452 -0.490007
 25 9.943115 -2.345886 -18.234520 -0.657411 0.391786 0.630558
 26 2.345825 0.208786 -5.335350 -0.000000 -0.000000 0.000000
 27 0.245637 0.395498 37.922112 0.104716 -0.000064 -0.000301
 28 -1.052340 10.166307 41.848358 0.204742 0.000000 0.000000
 29 -0.811197 20.084206 -10.515968 0.139964 0.000000 0.000000
 30 -0.733660 -0.876122 4.160934 -0.000000 -0.000000 -0.000000
 31 0.212572 6.769487 15.606949 0.034998 -0.000022 0.000609
 32 0.298738 -0.708122 8.635780 0.000000 -0.000000 -0.000000
time 34
  0 -2.437624 -1.142060 2.887016 0.000000 -0.000000 0.000000
  1 -2.437624 -1.142060 2.887016 0.000000 -0.000000 0.000000
  2 -2.437624 -1.142060 2.887016 0.000000 -0.000000 0.000000
  3 -4.744596 2.314000 171.985855 0.000000 -0.000000 0.000000
  4 -2.437624 -2.508036 81.204147 -0.066393 0.000000 0.000000
  5 -0.000000 1.168600 -4.970123 0.070005 0.000000 0.000000
  6 9.220941 -0.130357 -8.947060 -0.060620 -0.000000 0.000000
  7 -0.379086 1.817898 -27.435577 -0.029868 0.000000 -0.000000
  8 0.656837 1.037722 -26.381941 0.122505 -0.000000 -0.000000
  9 0.796036 -3.895030 -5.943713 0.000000 0.000000 -0.000000
 10 -8.723413 -0.130356 -8.508430 -0.104810 0.000000 -0.000000
 11 0.166782 1.557054 -27.561600 0.018642 -0.000001 -0.000000
 12 -0.000001 1.297771 -26.881458 0.132885 -0.000000 0.000000
 13 -1.085475 -3.894718 -4.939177 0.000000 -0.000000 -0.000000
 14 -0.000000 1.168600 2.657303 0.053739 0.017458 0.001241
 15 -8.954399 1.659630 23.005447 -0.222028 0.139405 1.238100
 16 -8.944595 1.466341 -13.457527 -0.215833 0.339898 0.610775
 17 -9.568687 -1.357897 -17.771511 -0.465061 -0.139060 -0.692825
 18 -2.070454 2.972565 -6.212238 -0.294259 1.155328 2.767139
 19 1.359554 127.138176 -0.873619 0.000000 -0.000000 -0.000000
 20 81.028076 57.982719 -5.855732 0.000000 -0.000000 -0.000000
 21 81.028076 57.982719 -5.855732 0.000000 -0.000000 -0.000000
 22 -2.234627 -0.237915 -4.711369 -0.000000 0.000000 -0.000000
 23 10.123166 1.597981 23.100044 -0.474646 0.097009 -0.141834
 24 8.001082 1.545227 -13.747833 -0.630217 0.389012 -0.483361
 25 9.942801 -2.347633 -18.222752 -0.657411 0.391784 0.630561
 26 2.345226 0.208733 -5.337742 0.000000 -0.000000 -0.000000
 27 0.245637 0.395495 37.922424 0.117864 -0.000017 -0.000078
 28 -1.052340 10.165000 41.854591 0.204734 0.000000 0.000000
 29 -0.811197 20.081619 -10.517540 0.139960 0.000000 0.000000
 30 -0.733660 -0.876010 4.161545 -0.000000 -0.000000 0.000000
 31 0.212571 6.769437 15.607086 0.034998 -0.000022 0.000609
 32 0.298738 -0.708118 8.635864 0.000000 -0.000000 -0.000000
time 35
  0 -2.437624 -1.142060 2.887016 0.000000 -0.000000 0.000000
  1 -2.437624 -1.142060 2.887016 0.000000 -0.000000 0.000000
  2 -2.437624 -1.142060 2.887016 0.000000 -0.000000 0.000000
  3 -4.744596 2.314000 171.985855 0.000000 -0.000000 0.000000
  4 -2.437624 -2.038301 81.382927 -0.069813 0.000000 0.000000
  5 0.000000 1.168599 -4.970116 0.070005 0.000000 0.000000
  6 9.220941 -0.130356 -8.947067 -0.052505 -0.000000 0.000000
  7 -0.379086 1.818013 -27.433559 -0.035002 0.000000 -0.000000
  8 0.656837 1.037760 -26.380829 0.122505 -0.000000 -0.000000
  9 0.796035 -3.894976 -5.943809 -0.000000 0.000000 -0.000000
 10 -8.723413 -0.130356 -8.508430 -0.105003 -0.000000 -0.000000
 11 0.166782 1.557050 -27.561691 0.017500 -0.000001 -0.000000
 12 -0.000001 1.297751 -26.881956 0.140003 0.000000 0.000000
 13 -1.085475 -3.894565 -4.939401 -0.000000 0.000000 0.000000
 14 0.000000 1.168600 2.657310 0.052515 0.017459 0.001220
 15 -8.954399 1.659626 23.005516 -0.232256 0.139672 1.241455
 16 -8.944324 1.465903 -13.462570 -0.219019 0.343564 0.616341
 17 -9.561543 -1.357557 -17.790226 -0.464149 -0.137384 -0.687520
 18 -2.070084 2.970734 -6.216940 -0.294278 1.155330 2.767118
 19 1.360785 127.032776 -0.873516 0.000000 0.000000 0.000000
 20 81.101524 57.934677 -5.855022 0.000000 0.000000 0.000000
 21 81.101524 57.934677 -5.855022 0.000000 0.000000 0.000000
 22 -2.234226 -0.237762 -4.714935 0.000000 -0.000000 -0.000000
 23 10.123166 1.597977 23.100113 -0.459404 0.089633 -0.135530
 24 8.001967 1.546471 -13.734177 -0.630415 0.388552 -0.476947
 25 9.941501 -2.349915 -18.208996 -0.657410 0.391780 0.630562
 26 2.344063 0.208721 -5.340511 -0.000000 -0.000000 -0.000000
 27 0.245637 0.395494 37.922539 0.122503 -0.000000 -0.000000
 28 -1.052340 10.164511 41.856926 0.204731 0.000000 0.000000
 29 -0.811197 20.080648 -10.518135 0.139958 0.000000 0.000000
 30 -0.733660 -0.875965 4.161781 0.000000 -0.000000 0.000000
 31 0.212571 6.769420 15.607124 0.034998 -0.000022 0.000609
 32 0.298738 -0.708116 8.635880 -0.000000 0.000000 0.000000
end
