version 1
nodes
  0 "bone_27"  -1
  1 "bone_29"   0
  2 "bone_30"   1
  3 "bone_26"   0
  4 "bone_3"   3
  5 "bone_28"   3
  6 "bone_7"   5
  7 "bone_10"   5
  8 "bone_11"   5
  9 "bone_12"   5
 10 "bone_13"   5
 11 "bone_0"   3
 12 "bone_14"  11
 13 "bone_1"  12
 14 "bone_5"  13
 15 "bons_041"  14
 16 "bons_40"  15
 17 "bone_23"   3
 18 "bone_24"  17
 19 "bone_2"  18
 20 "bone_19"  19
 21 "bone_20"   3
 22 "bone_34"   0
 23 "bone_21"  -1
end
skeleton
time 0
  0 4.103848 9.021107 140.955063 0.471239 0.000000 0.000000
  1 -0.186268 0.167358 -1.425591 -0.104720 0.000000 0.000000
  2 0.923381 -2.004169 -52.426414 0.837758 0.000000 0.000000
  3 0.209927 0.167366 2.417717 0.087267 0.000000 0.000000
  4 -0.585070 71.233543 -54.342316 0.087266 0.000000 -0.000000
  5 -0.737603 -0.548828 40.203667 -0.261799 0.000000 0.000000
  6 2.553308 7.297699 96.216125 0.000000 -0.000000 0.000000
  7 25.337772 -9.646727 2.086914 -0.000011 -0.139632 -0.000607
  8 -23.810326 -7.093718 2.086899 -0.226045 0.064723 0.026189
  9 -7.352507 52.005486 -48.397377 0.907570 0.000000 0.000000
 10 -0.684172 -0.276031 30.967361 0.000000 -0.000000 0.000000
 11 -13.534457 -1.160919 22.015190 3.019416 -0.000000 0.000000
 12 -20.972828 -0.005871 -27.595093 0.000000 0.209439 0.000000
 13 -18.070217 -6.045799 -20.586182 2.577424 0.599609 -0.374444
 14 5.932709 -5.752605 0.181641 -1.147836 0.866904 -0.065273
 15 0.492645 -33.874741 19.443878 0.000000 -0.000000 0.000000
 16 0.000015 -0.000015 -0.000015 -0.000000 0.000000 -0.000000
 17 12.176292 -0.829262 23.085014 -0.330962 0.156863 0.008289
 18 23.438763 1.362865 -28.210800 0.622483 0.147093 -0.046223
 19 17.520042 -4.855560 -21.387642 -0.559663 -0.318451 0.327741
 20 6.597046 5.855774 -9.931328 0.000000 -0.000000 0.000000
 21 -0.072890 -1.214043 9.388031 0.000000 -0.000000 0.000000
 22 0.000010 -5.381676 -154.110321 -0.034538 -0.005058 -0.145357
 23 4.103848 8.412071 291.691650 0.000000 -0.000000 0.000000
time 1
  0 4.103848 9.021107 140.670334 0.471239 0.000000 0.000000
  1 -0.186268 0.167366 -1.425598 -0.104720 0.000000 0.000000
  2 0.923381 -2.004173 -52.426399 0.831429 0.000000 -0.000000
  3 0.209927 0.172859 2.428490 0.087807 0.000000 -0.000000
  4 -0.585070 69.854599 -54.873978 0.087266 0.000000 -0.000000
  5 -0.737603 -0.548828 40.203674 -0.261799 0.000000 -0.000000
  6 2.553308 7.297699 96.216095 0.000000 -0.000000 0.000000
  7 25.337772 -9.646730 2.086899 -0.000011 -0.139632 -0.000607
  8 -23.810326 -7.093718 2.086914 -0.226045 0.064723 0.026189
  9 -7.352506 52.005486 -48.397385 0.903229 0.000000 0.000000
 10 -0.684172 -0.276028 30.967377 0.000000 -0.000000 0.000000
 11 -13.534457 -1.160919 22.015182 3.019416 0.000000 0.000000
 12 -20.972828 -0.005867 -27.595078 0.000000 0.209439 0.000000
 13 -18.070213 -6.045799 -20.586182 2.577424 0.599609 -0.374444
 14 5.932709 -5.752602 0.181641 -1.147836 0.866904 -0.065273
 15 0.492653 -33.874725 19.443871 0.000000 -0.000000 -0.000000
 16 0.000015 0.000000 -0.000015 -0.000000 0.000000 -0.000000
 17 12.176292 -0.829269 23.085022 -0.330962 0.156863 0.008289
 18 23.438765 1.362858 -28.210831 0.622482 0.147093 -0.046223
 19 17.520042 -4.855545 -21.387657 -0.559663 -0.318451 0.327741
 20 6.597046 5.855778 -9.931335 0.000000 -0.000000 0.000000
 21 -0.072890 -1.214043 9.388031 0.000000 -0.000000 0.000000
 22 0.000011 -5.381676 -154.110336 -0.034538 -0.005058 -0.145357
 23 4.103848 8.412071 291.691650 0.000000 -0.000000 0.000000
time 2
  0 4.103848 9.021107 139.859695 0.471239 0.000000 0.000000
  1 -0.186268 0.167358 -1.425591 -0.104720 0.000000 0.000000
  2 0.923381 -2.004169 -52.426414 0.814052 0.000000 -0.000000
  3 0.209927 0.188416 2.459038 0.089351 0.000000 0.000000
  4 -0.585068 65.925812 -56.388683 0.087266 0.000000 0.000000
  5 -0.737603 -0.548843 40.203690 -0.261799 0.000000 0.000000
  6 2.553308 7.297699 96.216095 0.000000 -0.000000 0.000000
  7 25.337772 -9.646729 2.086914 -0.000011 -0.139632 -0.000607
  8 -23.810326 -7.093719 2.086914 -0.226045 0.064723 0.026189
  9 -7.352506 52.005486 -48.397377 0.891004 0.000000 0.000000
 10 -0.684172 -0.276031 30.967377 0.000000 -0.000000 0.000000
 11 -13.534456 -1.160927 22.015198 3.019416 0.000000 0.000000
 12 -20.972828 -0.005871 -27.595093 0.000000 0.209439 -0.000000
 13 -18.070217 -6.045788 -20.586166 2.577424 0.599609 -0.374444
 14 5.932693 -5.752602 0.181625 -1.147836 0.866904 -0.065273
 15 0.492653 -33.874725 19.443886 0.000000 -0.000000 0.000000
 16 0.000015 0.000000 -0.000015 -0.000000 0.000000 -0.000000
 17 12.176292 -0.829269 23.085022 -0.330962 0.156863 0.008289
 18 23.438763 1.362865 -28.210815 0.622483 0.147093 -0.046223
 19 17.520046 -4.855553 -21.387650 -0.559663 -0.318451 0.327741
 20 6.597046 5.855778 -9.931335 0.000000 -0.000000 0.000000
 21 -0.072890 -1.214050 9.388031 0.000000 -0.000000 0.000000
 22 0.000010 -5.381676 -154.110321 -0.034538 -0.005058 -0.145357
 23 4.103848 8.412071 291.691650 0.000000 -0.000000 0.000000
time 3
  0 4.103848 9.021107 138.588531 0.471239 0.000000 0.000000
  1 -0.186268 0.167358 -1.425591 -0.104720 0.000000 0.000000
  2 0.923381 -2.004173 -52.426399 0.788039 0.000000 -0.000000
  3 0.209926 0.212677 2.506645 0.091783 0.000000 -0.000000
  4 -0.585066 59.759171 -58.766174 0.087266 0.000000 -0.000000
  5 -0.737603 -0.548828 40.203659 -0.261799 0.000000 0.000000
  6 2.553308 7.297699 96.216141 0.000000 -0.000000 0.000000
  7 25.337772 -9.646727 2.086914 -0.000011 -0.139632 -0.000607
  8 -23.810328 -7.093716 2.086914 -0.226045 0.064723 0.026189
  9 -7.352506 52.005489 -48.397369 0.872091 0.000000 0.000000
 10 -0.684172 -0.276028 30.967392 0.000000 -0.000000 0.000000
 11 -13.534456 -1.160919 22.015198 3.019416 -0.000000 0.000000
 12 -20.972828 -0.005867 -27.595078 0.000000 0.209439 0.000000
 13 -18.070219 -6.045792 -20.586166 2.577424 0.599609 -0.374444
 14 5.932693 -5.752602 0.181625 -1.147836 0.866904 -0.065273
 15 0.492638 -33.874741 19.443886 0.000000 -0.000000 0.000000
 16 0.000015 0.000000 -0.000015 -0.000000 0.000000 -0.000000
 17 12.176292 -0.829262 23.085022 -0.330962 0.156863 0.008289
 18 23.438763 1.362862 -28.210831 0.622483 0.147093 -0.046223
 19 17.520041 -4.855545 -21.387665 -0.559663 -0.318451 0.327741
 20 6.597038 5.855778 -9.931343 0.000000 -0.000000 0.000000
 21 -0.072890 -1.214043 9.388031 0.000000 -0.000000 0.000000
 22 0.000010 -5.381676 -154.110321 -0.034538 -0.005058 -0.145357
 23 4.103848 8.412071 291.691650 0.000000 -0.000000 0.000000
time 4
  0 4.103848 9.021107 136.922180 0.471239 0.000000 0.000000
  1 -0.186268 0.167358 -1.425598 -0.104720 0.000000 0.000000
  2 0.923381 -2.004169 -52.426399 0.755804 0.000000 -0.000000
  3 0.209927 0.244240 2.568596 0.094988 0.000000 0.000000
  4 -0.585063 51.666763 -61.886147 0.087266 0.000000 -0.000000
  5 -0.737603 -0.548828 40.203674 -0.261799 0.000000 -0.000000
  6 2.553308 7.297691 96.216125 0.000000 -0.000000 0.000000
  7 25.337772 -9.646729 2.086914 -0.000011 -0.139632 -0.000607
  8 -23.810326 -7.093721 2.086899 -0.226045 0.064723 0.026189
  9 -7.352506 52.005478 -48.397385 0.847684 0.000000 0.000000
 10 -0.684172 -0.276031 30.967377 0.000000 -0.000000 0.000000
 11 -13.534457 -1.160919 22.015198 3.019416 -0.000000 0.000000
 12 -20.972828 -0.005863 -27.595078 0.000000 0.209439 0.000000
 13 -18.070219 -6.045795 -20.586182 2.577424 0.599609 -0.374444
 14 5.932709 -5.752604 0.181641 -1.147836 0.866904 -0.065273
 15 0.492657 -33.874741 19.443871 0.000000 -0.000000 -0.000000
 16 0.000019 -0.000015 -0.000015 0.000000 0.000000 -0.000000
 17 12.176291 -0.829262 23.085022 -0.330962 0.156863 0.008289
 18 23.438766 1.362864 -28.210808 0.622482 0.147093 -0.046223
 19 17.520039 -4.855545 -21.387642 -0.559663 -0.318451 0.327741
 20 6.597046 5.855778 -9.931343 0.000000 -0.000000 0.000000
 21 -0.072890 -1.214043 9.388039 0.000000 -0.000000 0.000000
 22 0.000011 -5.381676 -154.110336 -0.034538 -0.005058 -0.145357
 23 4.103848 8.412071 291.691650 0.000000 -0.000000 0.000000
time 5
  0 4.103848 9.021107 134.925980 0.471239 0.000000 0.000000
  1 -0.186268 0.167358 -1.425591 -0.104720 0.000000 0.000000
  2 0.923381 -2.004173 -52.426407 0.719761 0.000000 -0.000000
  3 0.209926 0.281746 2.642212 0.098848 0.000000 0.000000
  4 -0.585059 41.960587 -65.628304 0.087266 0.000000 -0.000000
  5 -0.737603 -0.548836 40.203674 -0.261799 0.000000 0.000000
  6 2.553308 7.297703 96.216110 0.000000 -0.000000 0.000000
  7 25.337772 -9.646729 2.086914 -0.000011 -0.139632 -0.000607
  8 -23.810326 -7.093719 2.086914 -0.226045 0.064723 0.026189
  9 -7.352506 52.005486 -48.397392 0.818981 0.000000 0.000000
 10 -0.684172 -0.276031 30.967361 0.000000 -0.000000 0.000000
 11 -13.534456 -1.160927 22.015198 3.019416 -0.000000 0.000000
 12 -20.972828 -0.005871 -27.595078 0.000000 0.209439 -0.000000
 13 -18.070221 -6.045795 -20.586182 2.577424 0.599609 -0.374444
 14 5.932716 -5.752605 0.181610 -1.147836 0.866904 -0.065273
 15 0.492653 -33.874741 19.443871 0.000000 -0.000000 -0.000000
 16 0.000015 -0.000015 -0.000015 0.000000 0.000000 -0.000000
 17 12.176291 -0.829269 23.085022 -0.330962 0.156863 0.008289
 18 23.438765 1.362858 -28.210808 0.622482 0.147093 -0.046223
 19 17.520042 -4.855545 -21.387653 -0.559663 -0.318451 0.327741
 20 6.597046 5.855782 -9.931343 0.000000 -0.000000 0.000000
 21 -0.072890 -1.214050 9.388039 0.000000 -0.000000 0.000000
 22 0.000010 -5.381676 -154.110321 -0.034538 -0.005058 -0.145357
 23 4.103848 8.412071 291.691650 0.000000 -0.000000 0.000000
time 6
  0 4.103848 9.021107 132.665314 0.471239 0.000000 0.000000
  1 -0.186268 0.167358 -1.425591 -0.104720 0.000000 0.000000
  2 0.923381 -2.004173 -52.426399 0.682322 0.000000 -0.000000
  3 0.209926 0.323814 2.724777 0.103250 0.000000 0.000000
  4 -0.585055 30.952682 -69.872330 0.087266 0.000000 -0.000000
  5 -0.737603 -0.548836 40.203659 -0.261799 0.000000 0.000000
  6 2.553308 7.297703 96.216125 0.000000 -0.000000 0.000000
  7 25.337772 -9.646730 2.086899 -0.000011 -0.139632 -0.000607
  8 -23.810326 -7.093719 2.086914 -0.226045 0.064723 0.026189
  9 -7.352507 52.005478 -48.397369 0.787176 0.000000 0.000000
 10 -0.684172 -0.276028 30.967377 0.000000 -0.000000 0.000000
 11 -13.534456 -1.160919 22.015198 3.019416 -0.000000 0.000000
 12 -20.972828 -0.005871 -27.595078 0.000000 0.209439 -0.000000
 13 -18.070217 -6.045788 -20.586166 2.577424 0.599609 -0.374444
 14 5.932693 -5.752605 0.181625 -1.147836 0.866904 -0.065273
 15 0.492653 -33.874725 19.443871 0.000000 0.000000 -0.000000
 16 0.000019 0.000000 -0.000008 -0.000000 0.000000 -0.000000
 17 12.176292 -0.829269 23.085022 -0.330962 0.156863 0.008289
 18 23.438763 1.362862 -28.210808 0.622483 0.147093 -0.046223
 19 17.520042 -4.855545 -21.387650 -0.559663 -0.318451 0.327741
 20 6.597046 5.855778 -9.931351 0.000000 -0.000000 0.000000
 21 -0.072890 -1.214050 9.388039 0.000000 -0.000000 0.000000
 22 0.000010 -5.381676 -154.110321 -0.034538 -0.005058 -0.145357
 23 4.103848 8.412071 291.691650 0.000000 -0.000000 0.000000
time 7
  0 4.103848 9.021107 130.205521 0.471239 0.000000 0.000000
  1 -0.186268 0.167358 -1.425591 -0.104720 0.000000 0.000000
  2 0.923381 -2.004173 -52.426399 0.645902 0.000000 -0.000000
  3 0.209927 0.369072 2.813591 0.108077 0.000000 0.000000
  4 -0.585051 18.955078 -74.497932 0.087266 0.000000 -0.000000
  5 -0.737603 -0.548836 40.203674 -0.261799 0.000000 0.000000
  6 2.553308 7.297699 96.216095 0.000000 -0.000000 0.000000
  7 25.337772 -9.646729 2.086914 -0.000011 -0.139632 -0.000607
  8 -23.810328 -7.093718 2.086899 -0.226045 0.064723 0.026189
  9 -7.352507 52.005486 -48.397385 0.753465 0.000000 0.000000
 10 -0.684171 -0.276028 30.967392 0.000000 -0.000000 0.000000
 11 -13.534457 -1.160919 22.015198 3.019416 -0.000000 0.000000
 12 -20.972828 -0.005863 -27.595062 -0.000000 0.209439 -0.000000
 13 -18.070215 -6.045799 -20.586182 2.577424 0.599609 -0.374444
 14 5.932701 -5.752604 0.181625 -1.147836 0.866904 -0.065273
 15 0.492657 -33.874756 19.443871 -0.000000 -0.000000 0.000000
 16 0.000015 0.000000 -0.000015 -0.000000 0.000000 -0.000000
 17 12.176291 -0.829269 23.085022 -0.330962 0.156863 0.008289
 18 23.438766 1.362865 -28.210815 0.622483 0.147093 -0.046223
 19 17.520042 -4.855537 -21.387653 -0.559663 -0.318451 0.327741
 20 6.597042 5.855782 -9.931343 0.000000 -0.000000 0.000000
 21 -0.072890 -1.214043 9.388039 0.000000 -0.000000 0.000000
 22 0.000010 -5.381676 -154.110321 -0.034538 -0.005058 -0.145357
 23 4.103848 8.412071 291.691650 0.000000 -0.000000 0.000000
time 8
  0 4.103848 9.021107 127.611954 0.471239 0.000000 0.000000
  1 -0.186268 0.167366 -1.425591 -0.104720 0.000000 0.000000
  2 0.923381 -2.004173 -52.426411 0.612913 0.000000 -0.000000
  3 0.209926 0.416138 2.905945 0.113212 0.000000 -0.000000
  4 -0.585046 6.279747 -79.384811 0.087266 0.000000 -0.000000
  5 -0.737603 -0.548843 40.203667 -0.261799 0.000000 -0.000000
  6 2.553308 7.297707 96.216141 0.000000 -0.000000 0.000000
  7 25.337772 -9.646730 2.086914 -0.000011 -0.139632 -0.000607
  8 -23.810326 -7.093723 2.086899 -0.226045 0.064723 0.026189
  9 -7.352506 52.005493 -48.397392 0.719045 0.000000 0.000000
 10 -0.684172 -0.276031 30.967392 0.000000 -0.000000 0.000000
 11 -13.534456 -1.160927 22.015198 3.019416 0.000000 0.000000
 12 -20.972828 -0.005867 -27.595078 -0.000000 0.209439 -0.000000
 13 -18.070219 -6.045799 -20.586151 2.577424 0.599609 -0.374444
 14 5.932701 -5.752607 0.181625 -1.147836 0.866904 -0.065273
 15 0.492653 -33.874741 19.443874 0.000000 -0.000000 0.000000
 16 0.000019 -0.000015 -0.000015 0.000000 0.000000 -0.000000
 17 12.176291 -0.829277 23.085014 -0.330962 0.156863 0.008289
 18 23.438765 1.362860 -28.210831 0.622482 0.147093 -0.046223
 19 17.520048 -4.855553 -21.387650 -0.559663 -0.318451 0.327741
 20 6.597042 5.855782 -9.931351 0.000000 -0.000000 0.000000
 21 -0.072890 -1.214050 9.388046 0.000000 -0.000000 0.000000
 22 0.000010 -5.381672 -154.110336 -0.034538 -0.005058 -0.145357
 23 4.103848 8.412071 291.691650 0.000000 -0.000000 0.000000
time 9
  0 4.103848 9.021107 124.949974 0.471239 0.000000 0.000000
  1 -0.186268 0.167366 -1.425591 -0.104720 0.000000 0.000000
  2 0.923381 -2.004173 -52.426395 0.585768 0.000000 -0.000000
  3 0.209926 0.463623 2.999161 0.118542 0.000000 -0.000000
  4 -0.585042 -6.761208 -84.412666 0.087266 0.000000 -0.000000
  5 -0.737603 -0.548843 40.203674 -0.261799 0.000000 0.000000
  6 2.553308 7.297703 96.216125 0.000000 -0.000000 0.000000
  7 25.337772 -9.646732 2.086899 -0.000011 -0.139632 -0.000607
  8 -23.810326 -7.093718 2.086914 -0.226045 0.064723 0.026189
  9 -7.352506 52.005486 -48.397392 0.685110 0.000000 0.000000
 10 -0.684172 -0.276031 30.967377 0.000000 -0.000000 0.000000
 11 -13.534456 -1.160919 22.015198 3.019416 0.000000 0.000000
 12 -20.972828 -0.005867 -27.595062 -0.000000 0.209439 -0.000000
 13 -18.070219 -6.045807 -20.586182 2.577424 0.599609 -0.374444
 14 5.932701 -5.752605 0.181625 -1.147836 0.866904 -0.065273
 15 0.492649 -33.874756 19.443874 0.000000 -0.000000 0.000000
 16 0.000019 -0.000015 -0.000015 -0.000000 0.000000 -0.000000
 17 12.176292 -0.829269 23.085014 -0.330962 0.156863 0.008289
 18 23.438765 1.362865 -28.210823 0.622483 0.147093 -0.046223
 19 17.520041 -4.855537 -21.387657 -0.559663 -0.318451 0.327741
 20 6.597046 5.855778 -9.931351 0.000000 -0.000000 0.000000
 21 -0.072890 -1.214050 9.388039 0.000000 -0.000000 0.000000
 22 0.000010 -5.381676 -154.110336 -0.034538 -0.005058 -0.145357
 23 4.103848 8.412071 291.691650 0.000000 -0.000000 0.000000
time 10
  0 4.103848 9.021107 122.284927 0.471239 0.000000 0.000000
  1 -0.186268 0.167366 -1.425591 -0.104720 0.000000 0.000000
  2 0.923380 -2.004177 -52.426411 0.566883 0.000000 -0.000000
  3 0.209927 0.510170 3.090508 0.123949 0.000000 0.000000
  4 -0.585037 -19.855797 -89.461197 0.087267 0.000000 -0.000000
  5 -0.737603 -0.548836 40.203682 -0.261799 0.000000 0.000000
  6 2.553308 7.297703 96.216125 0.000000 -0.000000 0.000000
  7 25.337774 -9.646727 2.086914 -0.000011 -0.139632 -0.000607
  8 -23.810328 -7.093719 2.086914 -0.226045 0.064723 0.026189
  9 -7.352506 52.005478 -48.397354 0.652857 0.000000 0.000000
 10 -0.684172 -0.276031 30.967392 0.000000 -0.000000 0.000000
 11 -13.534456 -1.160927 22.015198 3.019416 0.000000 0.000000
 12 -20.972828 -0.005867 -27.595078 0.000000 0.209439 -0.000000
 13 -18.070219 -6.045788 -20.586166 2.577424 0.599609 -0.374444
 14 5.932693 -5.752607 0.181625 -1.147836 0.866904 -0.065273
 15 0.492653 -33.874725 19.443874 0.000000 -0.000000 -0.000000
 16 0.000015 0.000000 -0.000015 -0.000000 -0.000000 -0.000000
 17 12.176291 -0.829269 23.085022 -0.330962 0.156863 0.008289
 18 23.438766 1.362865 -28.210823 0.622483 0.147093 -0.046223
 19 17.520044 -4.855545 -21.387653 -0.559663 -0.318451 0.327741
 20 6.597054 5.855782 -9.931339 0.000000 -0.000000 0.000000
 21 -0.072890 -1.214043 9.388039 0.000000 -0.000000 0.000000
 22 0.000011 -5.381672 -154.110336 -0.034538 -0.005058 -0.145357
 23 4.103848 8.412071 291.691650 0.000000 -0.000000 0.000000
time 11
  0 4.103848 9.021107 119.682167 0.471239 0.000000 0.000000
  1 -0.186268 0.167366 -1.425591 -0.104720 0.000000 0.000000
  2 0.923381 -2.004169 -52.426403 0.558668 0.000000 -0.000000
  3 0.209926 0.554394 3.177292 0.129318 0.000000 0.000000
  4 -0.585032 -32.691978 -94.410110 0.087267 0.000000 -0.000000
  5 -0.737603 -0.548843 40.203667 -0.261799 0.000000 0.000000
  6 2.553308 7.297703 96.216141 0.000000 -0.000000 0.000000
  7 25.337772 -9.646732 2.086899 -0.000011 -0.139632 -0.000607
  8 -23.810328 -7.093721 2.086899 -0.226045 0.064723 0.026189
  9 -7.352507 52.005505 -48.397400 0.623481 0.000000 0.000000
 10 -0.684172 -0.276028 30.967377 0.000000 -0.000000 0.000000
 11 -13.534456 -1.160919 22.015205 3.019416 0.000000 0.000000
 12 -20.972828 -0.005859 -27.595078 -0.000000 0.209439 -0.000000
 13 -18.070215 -6.045792 -20.586182 2.577424 0.599609 -0.374444
 14 5.932701 -5.752607 0.181625 -1.147836 0.866904 -0.065273
 15 0.492645 -33.874741 19.443871 0.000000 -0.000000 0.000000
 16 0.000019 0.000000 -0.000015 -0.000000 -0.000000 0.000000
 17 12.176292 -0.829262 23.085030 -0.330962 0.156863 0.008289
 18 23.438763 1.362858 -28.210831 0.622482 0.147093 -0.046223
 19 17.520041 -4.855545 -21.387657 -0.559663 -0.318451 0.327741
 20 6.597042 5.855782 -9.931343 0.000000 -0.000000 0.000000
 21 -0.072890 -1.214050 9.388031 0.000000 -0.000000 0.000000
 22 0.000010 -5.381672 -154.110336 -0.034538 -0.005058 -0.145357
 23 4.103848 8.412071 291.691650 0.000000 -0.000000 0.000000
time 12
  0 4.103848 9.021107 117.207054 0.471239 0.000000 0.000000
  1 -0.186268 0.167362 -1.425583 -0.104720 0.000000 0.000000
  2 0.923381 -2.004173 -52.426399 0.559530 0.000000 -0.000000
  3 0.209926 0.594910 3.256821 0.134533 0.000000 -0.000000
  4 -0.585028 -44.957752 -99.139091 0.087267 0.000000 0.000000
  5 -0.737603 -0.548843 40.203674 -0.261799 0.000000 0.000000
  6 2.553308 7.297703 96.216125 0.000000 -0.000000 0.000000
  7 25.337772 -9.646727 2.086914 -0.000011 -0.139632 -0.000607
  8 -23.810328 -7.093716 2.086914 -0.226045 0.064723 0.026189
  9 -7.352506 52.005489 -48.397385 0.598177 0.000000 0.000000
 10 -0.684172 -0.276028 30.967392 0.000000 -0.000000 0.000000
 11 -13.534456 -1.160927 22.015190 3.019416 -0.000000 0.000000
 12 -20.972828 -0.005859 -27.595055 0.000000 0.209439 0.000000
 13 -18.070223 -6.045792 -20.586182 2.577424 0.599609 -0.374444
 14 5.932716 -5.752607 0.181641 -1.147836 0.866904 -0.065273
 15 0.492649 -33.874741 19.443874 0.000000 -0.000000 0.000000
 16 0.000015 -0.000015 -0.000015 -0.000000 0.000000 0.000000
 17 12.176292 -0.829277 23.085022 -0.330962 0.156863 0.008289
 18 23.438768 1.362864 -28.210823 0.622482 0.147093 -0.046223
 19 17.520048 -4.855545 -21.387650 -0.559663 -0.318451 0.327741
 20 6.597046 5.855782 -9.931347 0.000000 -0.000000 0.000000
 21 -0.072890 -1.214050 9.388039 0.000000 -0.000000 0.000000
 22 0.000010 -5.381676 -154.110321 -0.034538 -0.005058 -0.145357
 23 4.103848 8.412071 291.691650 0.000000 -0.000000 0.000000
time 13
  0 4.103848 9.021107 114.924942 0.471239 0.000000 0.000000
  1 -0.186268 0.167362 -1.425583 -0.104720 0.000000 0.000000
  2 0.923381 -2.004173 -52.426411 0.563257 0.000000 -0.000000
  3 0.209927 0.630348 3.326385 0.139479 0.000000 0.000000
  4 -0.585023 -56.341084 -103.527863 0.087267 0.000000 -0.000000
  5 -0.737603 -0.548843 40.203667 -0.261799 0.000000 0.000000
  6 2.553308 7.297703 96.216156 0.000000 -0.000000 0.000000
  7 25.337772 -9.646727 2.086929 -0.000011 -0.139632 -0.000607
  8 -23.810328 -7.093719 2.086914 -0.226045 0.064723 0.026189
  9 -7.352506 52.005493 -48.397377 0.578143 0.000000 0.000000
 10 -0.684172 -0.276031 30.967392 0.000000 -0.000000 0.000000
 11 -13.534456 -1.160919 22.015198 3.019416 -0.000000 0.000000
 12 -20.972828 -0.005871 -27.595078 0.000000 0.209439 -0.000000
 13 -18.070223 -6.045792 -20.586151 2.577424 0.599609 -0.374444
 14 5.932716 -5.752609 0.181641 -1.147836 0.866904 -0.065273
 15 0.492653 -33.874741 19.443863 0.000000 -0.000000 0.000000
 16 0.000015 0.000000 -0.000015 -0.000000 0.000000 -0.000000
 17 12.176291 -0.829262 23.085022 -0.330962 0.156863 0.008289
 18 23.438766 1.362867 -28.210815 0.622482 0.147093 -0.046223
 19 17.520042 -4.855545 -21.387657 -0.559663 -0.318451 0.327741
 20 6.597046 5.855782 -9.931351 0.000000 -0.000000 0.000000
 21 -0.072890 -1.214043 9.388039 0.000000 -0.000000 0.000000
 22 0.000011 -5.381676 -154.110321 -0.034538 -0.005058 -0.145357
 23 4.103848 8.412071 291.691650 0.000000 -0.000000 0.000000
time 14
  0 4.103848 9.021107 112.901184 0.471239 0.000000 0.000000
  1 -0.186268 0.167366 -1.425591 -0.104720 0.000000 0.000000
  2 0.923381 -2.004173 -52.426403 0.569475 0.000000 -0.000000
  3 0.209926 0.659340 3.383270 0.144040 0.000000 -0.000000
  4 -0.585020 -66.529915 -107.456100 0.087266 0.000000 0.000000
  5 -0.737603 -0.548843 40.203667 -0.261799 0.000000 0.000000
  6 2.553308 7.297695 96.216125 0.000000 -0.000000 0.000000
  7 25.337772 -9.646730 2.086899 -0.000011 -0.139632 -0.000607
  8 -23.810326 -7.093718 2.086899 -0.226045 0.064723 0.026189
  9 -7.352506 52.005478 -48.397385 0.564573 0.000000 0.000000
 10 -0.684172 -0.276028 30.967392 0.000000 -0.000000 0.000000
 11 -13.534456 -1.160919 22.015198 3.019416 -0.000000 0.000000
 12 -20.972828 -0.005871 -27.595085 0.000000 0.209439 -0.000000
 13 -18.070223 -6.045788 -20.586166 2.577424 0.599609 -0.374444
 14 5.932709 -5.752609 0.181641 -1.147836 0.866904 -0.065273
 15 0.492649 -33.874725 19.443871 -0.000000 -0.000000 0.000000
 16 0.000019 0.000000 -0.000015 -0.000000 0.000000 0.000000
 17 12.176292 -0.829262 23.085030 -0.330962 0.156863 0.008289
 18 23.438763 1.362860 -28.210823 0.622482 0.147093 -0.046223
 19 17.520042 -4.855545 -21.387650 -0.559663 -0.318451 0.327741
 20 6.597050 5.855774 -9.931347 0.000000 -0.000000 0.000000
 21 -0.072890 -1.214043 9.388039 0.000000 -0.000000 0.000000
 22 0.000010 -5.381672 -154.110336 -0.034538 -0.005058 -0.145357
 23 4.103848 8.412071 291.691650 0.000000 -0.000000 0.000000
time 15
  0 4.103848 9.021107 111.201126 0.471239 0.000000 0.000000
  1 -0.186268 0.167362 -1.425591 -0.104720 0.000000 0.000000
  2 0.923380 -2.004173 -52.426403 0.577937 0.000000 -0.000000
  3 0.209927 0.680492 3.424789 0.148100 0.000000 0.000000
  4 -0.585016 -75.212250 -110.803497 0.087266 0.000000 -0.000000
  5 -0.737603 -0.548836 40.203651 -0.261799 0.000000 0.000000
  6 2.553308 7.297703 96.216110 0.000000 -0.000000 0.000000
  7 25.337774 -9.646723 2.086914 -0.000011 -0.139632 -0.000607
  8 -23.810328 -7.093719 2.086914 -0.226045 0.064723 0.026189
  9 -7.352506 52.005478 -48.397385 0.558663 0.000000 0.000000
 10 -0.684172 -0.276024 30.967377 0.000000 -0.000000 0.000000
 11 -13.534456 -1.160919 22.015190 3.019416 0.000000 0.000000
 12 -20.972828 -0.005867 -27.595062 0.000000 0.209439 0.000000
 13 -18.070221 -6.045784 -20.586166 2.577424 0.599609 -0.374444
 14 5.932693 -5.752605 0.181625 -1.147836 0.866904 -0.065273
 15 0.492653 -33.874725 19.443855 0.000000 -0.000000 0.000000
 16 0.000019 -0.000015 -0.000015 0.000000 0.000000 -0.000000
 17 12.176292 -0.829262 23.085022 -0.330962 0.156863 0.008289
 18 23.438765 1.362865 -28.210815 0.622483 0.147093 -0.046223
 19 17.520035 -4.855537 -21.387657 -0.559663 -0.318451 0.327741
 20 6.597054 5.855778 -9.931339 0.000000 -0.000000 0.000000
 21 -0.072890 -1.214043 9.388031 0.000000 -0.000000 0.000000
 22 0.000011 -5.381672 -154.110336 -0.034538 -0.005058 -0.145357
 23 4.103848 8.412071 291.691650 0.000000 -0.000000 0.000000
time 16
  0 4.103848 9.021107 109.890137 0.471239 0.000000 0.000000
  1 -0.186268 0.167362 -1.425591 -0.104720 0.000000 0.000000
  2 0.923381 -2.004173 -52.426407 0.588396 0.000000 -0.000000
  3 0.209926 0.692444 3.448242 0.151543 0.000000 0.000000
  4 -0.585014 -82.076065 -113.449806 0.087267 0.000000 -0.000000
  5 -0.737603 -0.548836 40.203667 -0.261799 0.000000 0.000000
  6 2.553308 7.297703 96.216110 0.000000 -0.000000 0.000000
  7 25.337772 -9.646730 2.086899 -0.000011 -0.139632 -0.000607
  8 -23.810326 -7.093723 2.086899 -0.226045 0.064723 0.026189
  9 -7.352507 52.005486 -48.397385 0.560217 0.000000 0.000000
 10 -0.684172 -0.276035 30.967361 0.000000 -0.000000 0.000000
 11 -13.534456 -1.160912 22.015198 3.019416 0.000000 0.000000
 12 -20.972824 -0.005867 -27.595070 0.000000 0.209439 0.000000
 13 -18.070223 -6.045792 -20.586166 2.577424 0.599609 -0.374444
 14 5.932693 -5.752609 0.181625 -1.147836 0.866904 -0.065273
 15 0.492645 -33.874756 19.443855 0.000000 -0.000000 -0.000000
 16 0.000015 -0.000015 -0.000015 0.000000 0.000000 -0.000000
 17 12.176292 -0.829269 23.085014 -0.330962 0.156863 0.008289
 18 23.438763 1.362865 -28.210823 0.622482 0.147093 -0.046223
 19 17.520044 -4.855537 -21.387650 -0.559663 -0.318451 0.327741
 20 6.597038 5.855782 -9.931339 0.000000 -0.000000 0.000000
 21 -0.072890 -1.214043 9.388031 0.000000 -0.000000 0.000000
 22 0.000010 -5.381672 -154.110336 -0.034538 -0.005058 -0.145357
 23 4.103848 8.412071 291.691650 0.000000 -0.000000 0.000000
time 17
  0 4.103848 9.021107 109.033554 0.471239 0.000000 0.000000
  1 -0.186268 0.167366 -1.425591 -0.104720 0.000000 0.000000
  2 0.923381 -2.004173 -52.426407 0.600605 0.000000 -0.000000
  3 0.209926 0.693970 3.451241 0.154253 0.000000 0.000000
  4 -0.585012 -86.809296 -115.274673 0.087267 0.000000 -0.000000
  5 -0.737603 -0.548828 40.203674 -0.261799 0.000000 -0.000000
  6 2.553308 7.297699 96.216156 0.000000 -0.000000 0.000000
  7 25.337772 -9.646734 2.086914 -0.000011 -0.139632 -0.000607
  8 -23.810328 -7.093718 2.086929 -0.226045 0.064723 0.026189
  9 -7.352506 52.005489 -48.397369 0.566734 0.000000 0.000000
 10 -0.684172 -0.276031 30.967392 0.000000 -0.000000 0.000000
 11 -13.534456 -1.160912 22.015205 3.019416 -0.000000 0.000000
 12 -20.972828 -0.005867 -27.595078 0.000000 0.209439 0.000000
 13 -18.070221 -6.045799 -20.586182 2.577424 0.599609 -0.374444
 14 5.932709 -5.752609 0.181625 -1.147836 0.866904 -0.065273
 15 0.492641 -33.874725 19.443859 0.000000 -0.000000 0.000000
 16 0.000015 0.000000 -0.000015 -0.000000 0.000000 -0.000000
 17 12.176291 -0.829262 23.085022 -0.330962 0.156863 0.008289
 18 23.438770 1.362865 -28.210815 0.622482 0.147093 -0.046223
 19 17.520050 -4.855545 -21.387653 -0.559663 -0.318451 0.327741
 20 6.597042 5.855782 -9.931347 0.000000 -0.000000 0.000000
 21 -0.072890 -1.214050 9.388039 0.000000 -0.000000 0.000000
 22 0.000010 -5.381672 -154.110336 -0.034538 -0.005058 -0.145357
 23 4.103848 8.412071 291.691650 0.000000 -0.000000 0.000000
time 18
  0 4.103848 9.021107 108.696739 0.471239 0.000000 0.000000
  1 -0.186268 0.167366 -1.425583 -0.104720 0.000000 0.000000
  2 0.923380 -2.004169 -52.426407 0.614316 0.000000 -0.000000
  3 0.209926 0.686211 3.436012 0.156116 0.000000 -0.000000
  4 -0.585011 -89.099945 -116.157814 0.087267 0.000000 0.000000
  5 -0.737603 -0.548836 40.203674 -0.261799 0.000000 0.000000
  6 2.553308 7.297703 96.216110 0.000000 -0.000000 0.000000
  7 25.337774 -9.646730 2.086884 -0.000011 -0.139632 -0.000607
  8 -23.810328 -7.093719 2.086899 -0.226045 0.064723 0.026189
  9 -7.352506 52.005482 -48.397392 0.577610 0.000000 0.000000
 10 -0.684172 -0.276024 30.967377 0.000000 -0.000000 0.000000
 11 -13.534456 -1.160927 22.015190 3.019416 -0.000000 0.000000
 12 -20.972828 -0.005867 -27.595078 0.000000 0.209439 -0.000000
 13 -18.070221 -6.045795 -20.586166 2.577425 0.599609 -0.374444
 14 5.932709 -5.752609 0.181641 -1.147836 0.866904 -0.065273
 15 0.492649 -33.874725 19.443863 0.000000 -0.000000 0.000000
 16 0.000015 -0.000015 -0.000015 0.000000 0.000000 -0.000000
 17 12.176291 -0.829269 23.085022 -0.330962 0.156863 0.008289
 18 23.438768 1.362862 -28.210815 0.622482 0.147093 -0.046223
 19 17.520042 -4.855545 -21.387646 -0.559663 -0.318451 0.327741
 20 6.597042 5.855774 -9.931347 0.000000 -0.000000 0.000000
 21 -0.072890 -1.214043 9.388031 0.000000 -0.000000 0.000000
 22 0.000010 -5.381672 -154.110321 -0.034538 -0.005058 -0.145357
 23 4.103848 8.412071 291.691650 0.000000 -0.000000 0.000000
time 19
  0 4.103848 9.021107 108.962311 0.471239 0.000000 0.000000
  1 -0.186268 0.167366 -1.425583 -0.104720 0.000000 0.000000
  2 0.923380 -2.004173 -52.426407 0.629283 0.000000 -0.000000
  3 0.209926 0.670475 3.405128 0.157014 0.000000 -0.000000
  4 -0.585011 -88.539101 -115.941704 0.087266 0.000000 -0.000000
  5 -0.737603 -0.548836 40.203667 -0.261799 0.000000 0.000000
  6 2.553308 7.297695 96.216110 0.000000 -0.000000 0.000000
  7 25.337772 -9.646729 2.086899 -0.000011 -0.139632 -0.000607
  8 -23.810328 -7.093721 2.086914 -0.226045 0.064723 0.026189
  9 -7.352506 52.005486 -48.397392 0.592306 0.000000 0.000000
 10 -0.684172 -0.276031 30.967377 0.000000 -0.000000 0.000000
 11 -13.534456 -1.160919 22.015205 3.019416 -0.000000 0.000000
 12 -20.972828 -0.005867 -27.595078 0.000000 0.209439 0.000000
 13 -18.070223 -6.045799 -20.586166 2.577424 0.599609 -0.374444
 14 5.932701 -5.752609 0.181641 -1.147836 0.866904 -0.065273
 15 0.492653 -33.874725 19.443863 -0.000000 -0.000000 0.000000
 16 0.000019 0.000000 -0.000015 -0.000000 0.000000 -0.000000
 17 12.176291 -0.829269 23.085022 -0.330962 0.156863 0.008289
 18 23.438766 1.362862 -28.210815 0.622482 0.147093 -0.046223
 19 17.520046 -4.855553 -21.387661 -0.559663 -0.318451 0.327741
 20 6.597046 5.855782 -9.931343 0.000000 -0.000000 0.000000
 21 -0.072890 -1.214043 9.388039 0.000000 -0.000000 0.000000
 22 0.000010 -5.381672 -154.110321 -0.034538 -0.005058 -0.145357
 23 4.103848 8.412071 291.691650 0.000000 -0.000000 0.000000
time 20
  0 4.103848 9.021107 109.832108 0.471239 0.000000 0.000000
  1 -0.186268 0.167362 -1.425591 -0.104720 0.000000 0.000000
  2 0.923381 -2.004177 -52.426407 0.645258 0.000000 -0.000000
  3 0.209926 0.647793 3.360611 0.156722 0.000000 0.000000
  4 -0.585013 -84.821564 -114.509079 0.087266 0.000000 -0.000000
  5 -0.737603 -0.548843 40.203667 -0.261799 0.000000 0.000000
  6 2.553308 7.297695 96.216125 0.000000 -0.000000 0.000000
  7 25.337772 -9.646732 2.086899 -0.000011 -0.139632 -0.000607
  8 -23.810328 -7.093721 2.086914 -0.226045 0.064723 0.026189
  9 -7.352506 52.005486 -48.397385 0.610285 0.000000 0.000000
 10 -0.684172 -0.276031 30.967377 0.000000 -0.000000 0.000000
 11 -13.534456 -1.160927 22.015190 3.019416 0.000000 0.000000
 12 -20.972828 -0.005875 -27.595093 -0.000000 0.209439 0.000000
 13 -18.070221 -6.045799 -20.586182 2.577424 0.599609 -0.374444
 14 5.932716 -5.752605 0.181641 -1.147836 0.866904 -0.065273
 15 0.492645 -33.874725 19.443859 -0.000000 -0.000000 0.000000
 16 0.000015 0.000000 -0.000015 -0.000000 0.000000 -0.000000
 17 12.176292 -0.829269 23.085022 -0.330962 0.156863 0.008289
 18 23.438766 1.362864 -28.210800 0.622483 0.147093 -0.046223
 19 17.520044 -4.855537 -21.387653 -0.559663 -0.318451 0.327741
 20 6.597050 5.855782 -9.931339 0.000000 -0.000000 0.000000
 21 -0.072890 -1.214050 9.388039 0.000000 -0.000000 0.000000
 22 0.000010 -5.381676 -154.110336 -0.034538 -0.005058 -0.145357
 23 4.103848 8.412071 291.691650 0.000000 -0.000000 0.000000
time 21
  0 4.103848 9.021107 111.226402 0.471239 0.000000 0.000000
  1 -0.186268 0.167366 -1.425591 -0.104720 0.000000 0.000000
  2 0.923380 -2.004173 -52.426403 0.661994 0.000000 -0.000000
  3 0.209927 0.619190 3.304466 0.154901 0.000000 0.000000
  4 -0.585016 -78.323174 -112.004730 0.087266 0.000000 -0.000000
  5 -0.737603 -0.548836 40.203667 -0.261799 0.000000 0.000000
  6 2.553308 7.297695 96.216110 0.000000 -0.000000 0.000000
  7 25.337774 -9.646732 2.086899 -0.000011 -0.139632 -0.000607
  8 -23.810326 -7.093721 2.086899 -0.226045 0.064723 0.026189
  9 -7.352507 52.005486 -48.397400 0.631007 0.000000 0.000000
 10 -0.684172 -0.276031 30.967361 0.000000 -0.000000 0.000000
 11 -13.534456 -1.160927 22.015198 3.019416 -0.000000 0.000000
 12 -20.972828 -0.005867 -27.595070 0.000000 0.209439 0.000000
 13 -18.070221 -6.045799 -20.586182 2.577424 0.599609 -0.374444
 14 5.932709 -5.752605 0.181656 -1.147836 0.866904 -0.065273
 15 0.492645 -33.874741 19.443863 0.000000 -0.000000 -0.000000
 16 0.000019 0.000000 -0.000015 0.000000 -0.000000 -0.000000
 17 12.176292 -0.829277 23.085022 -0.330962 0.156863 0.008289
 18 23.438766 1.362862 -28.210815 0.622482 0.147093 -0.046223
 19 17.520044 -4.855537 -21.387646 -0.559663 -0.318451 0.327741
 20 6.597046 5.855778 -9.931347 0.000000 -0.000000 0.000000
 21 -0.072890 -1.214050 9.388039 0.000000 -0.000000 0.000000
 22 0.000011 -5.381672 -154.110336 -0.034538 -0.005058 -0.145357
 23 4.103848 8.412071 291.691650 0.000000 -0.000000 0.000000
time 22
  0 4.103848 9.021107 113.065094 0.471239 0.000000 0.000000
  1 -0.186268 0.167366 -1.425583 -0.104720 0.000000 0.000000
  2 0.923380 -2.004173 -52.426403 0.679243 0.000000 -0.000000
  3 0.209927 0.585674 3.238693 0.151733 0.000000 0.000000
  4 -0.585019 -69.460785 -108.589294 0.087266 0.000000 -0.000000
  5 -0.737603 -0.548828 40.203682 -0.261799 0.000000 0.000000
  6 2.553308 7.297699 96.216125 0.000000 -0.000000 0.000000
  7 25.337772 -9.646730 2.086929 -0.000011 -0.139632 -0.000607
  8 -23.810328 -7.093719 2.086914 -0.226045 0.064723 0.026189
  9 -7.352507 52.005482 -48.397369 0.653935 0.000000 0.000000
 10 -0.684172 -0.276035 30.967392 0.000000 -0.000000 0.000000
 11 -13.534456 -1.160919 22.015205 3.019416 0.000000 0.000000
 12 -20.972828 -0.005867 -27.595062 0.000000 0.209439 -0.000000
 13 -18.070223 -6.045792 -20.586166 2.577424 0.599609 -0.374444
 14 5.932701 -5.752607 0.181641 -1.147836 0.866904 -0.065273
 15 0.492641 -33.874741 19.443867 0.000000 -0.000000 -0.000000
 16 0.000019 -0.000015 -0.000008 -0.000000 0.000000 -0.000000
 17 12.176292 -0.829269 23.085030 -0.330962 0.156863 0.008289
 18 23.438763 1.362865 -28.210815 0.622483 0.147093 -0.046223
 19 17.520041 -4.855537 -21.387646 -0.559663 -0.318451 0.327741
 20 6.597038 5.855778 -9.931347 0.000000 -0.000000 0.000000
 21 -0.072890 -1.214043 9.388031 0.000000 -0.000000 0.000000
 22 0.000011 -5.381672 -154.110321 -0.034538 -0.005058 -0.145357
 23 4.103848 8.412071 291.691650 0.000000 -0.000000 0.000000
time 23
  0 4.103848 9.021107 115.268059 0.471239 0.000000 0.000000
  1 -0.186268 0.167366 -1.425591 -0.104720 0.000000 0.000000
  2 0.923380 -2.004173 -52.426403 0.696759 0.000000 -0.000000
  3 0.209927 0.548267 3.165276 0.147436 0.000000 0.000000
  4 -0.585022 -58.651154 -104.423294 0.087267 0.000000 -0.000000
  5 -0.737603 -0.548828 40.203659 -0.261799 0.000000 0.000000
  6 2.553308 7.297699 96.216110 0.000000 -0.000000 0.000000
  7 25.337772 -9.646732 2.086899 -0.000011 -0.139632 -0.000607
  8 -23.810328 -7.093719 2.086899 -0.226045 0.064723 0.026189
  9 -7.352506 52.005474 -48.397385 0.678528 0.000000 0.000000
 10 -0.684172 -0.276031 30.967377 0.000000 -0.000000 0.000000
 11 -13.534456 -1.160919 22.015198 3.019416 0.000000 0.000000
 12 -20.972828 -0.005863 -27.595062 0.000000 0.209439 0.000000
 13 -18.070221 -6.045799 -20.586166 2.577424 0.599609 -0.374444
 14 5.932709 -5.752605 0.181625 -1.147836 0.866904 -0.065273
 15 0.492638 -33.874741 19.443863 0.000000 -0.000000 0.000000
 16 0.000015 0.000000 -0.000015 0.000000 0.000000 0.000000
 17 12.176291 -0.829262 23.085007 -0.330962 0.156863 0.008289
 18 23.438763 1.362862 -28.210808 0.622482 0.147093 -0.046223
 19 17.520048 -4.855545 -21.387642 -0.559663 -0.318451 0.327741
 20 6.597046 5.855778 -9.931347 0.000000 -0.000000 0.000000
 21 -0.072890 -1.214043 9.388023 0.000000 -0.000000 0.000000
 22 0.000010 -5.381672 -154.110336 -0.034538 -0.005058 -0.145357
 23 4.103848 8.412071 291.691650 0.000000 -0.000000 0.000000
time 24
  0 4.103848 9.021107 117.755180 0.471239 0.000000 0.000000
  1 -0.186268 0.167362 -1.425583 -0.104720 0.000000 0.000000
  2 0.923380 -2.004173 -52.426399 0.714295 0.000000 -0.000000
  3 0.209926 0.507996 3.086243 0.142228 0.000000 0.000000
  4 -0.585027 -46.311123 -99.667374 0.087266 0.000000 -0.000000
  5 -0.737603 -0.548828 40.203667 -0.261799 0.000000 0.000000
  6 2.553308 7.297699 96.216141 0.000000 -0.000000 0.000000
  7 25.337772 -9.646725 2.086929 -0.000011 -0.139632 -0.000607
  8 -23.810328 -7.093716 2.086914 -0.226045 0.064723 0.026189
  9 -7.352506 52.005493 -48.397377 0.704249 0.000000 0.000000
 10 -0.684172 -0.276031 30.967392 0.000000 -0.000000 0.000000
 11 -13.534456 -1.160912 22.015198 3.019416 0.000000 0.000000
 12 -20.972828 -0.005878 -27.595078 0.000000 0.209439 0.000000
 13 -18.070223 -6.045784 -20.586182 2.577424 0.599609 -0.374444
 14 5.932709 -5.752605 0.181641 -1.147836 0.866904 -0.065273
 15 0.492657 -33.874741 19.443863 0.000000 -0.000000 0.000000
 16 0.000019 -0.000015 -0.000015 0.000000 0.000000 -0.000000
 17 12.176292 -0.829262 23.085030 -0.330962 0.156863 0.008289
 18 23.438766 1.362858 -28.210815 0.622483 0.147093 -0.046223
 19 17.520046 -4.855545 -21.387646 -0.559663 -0.318451 0.327741
 20 6.597046 5.855778 -9.931339 0.000000 -0.000000 0.000000
 21 -0.072890 -1.214050 9.388031 0.000000 -0.000000 0.000000
 22 0.000010 -5.381676 -154.110321 -0.034538 -0.005058 -0.145357
 23 4.103848 8.412071 291.691650 0.000000 -0.000000 0.000000
time 25
  0 4.103848 9.021107 120.446350 0.471239 0.000000 0.000000
  1 -0.186268 0.167366 -1.425583 -0.104720 0.000000 0.000000
  2 0.923381 -2.004173 -52.426411 0.731602 0.000000 -0.000000
  3 0.209927 0.465874 3.003578 0.136327 0.000000 0.000000
  4 -0.585032 -32.857464 -94.482086 0.087267 0.000000 0.000000
  5 -0.737603 -0.548851 40.203659 -0.261799 0.000000 0.000000
  6 2.553308 7.297703 96.216156 0.000000 -0.000000 0.000000
  7 25.337774 -9.646732 2.086899 -0.000011 -0.139632 -0.000607
  8 -23.810328 -7.093723 2.086914 -0.226045 0.064723 0.026189
  9 -7.352506 52.005482 -48.397385 0.730560 0.000000 0.000000
 10 -0.684172 -0.276035 30.967377 0.000000 -0.000000 0.000000
 11 -13.534456 -1.160927 22.015198 3.019416 -0.000000 0.000000
 12 -20.972826 -0.005863 -27.595085 0.000000 0.209439 0.000000
 13 -18.070223 -6.045799 -20.586182 2.577424 0.599609 -0.374444
 14 5.932693 -5.752604 0.181656 -1.147836 0.866904 -0.065273
 15 0.492645 -33.874725 19.443863 0.000000 -0.000000 0.000000
 16 0.000015 0.000000 -0.000015 -0.000000 0.000000 0.000000
 17 12.176292 -0.829269 23.085022 -0.330962 0.156863 0.008289
 18 23.438765 1.362858 -28.210808 0.622482 0.147093 -0.046223
 19 17.520042 -4.855545 -21.387650 -0.559663 -0.318451 0.327741
 20 6.597042 5.855778 -9.931343 0.000000 -0.000000 0.000000
 21 -0.072890 -1.214050 9.388039 0.000000 -0.000000 0.000000
 22 0.000011 -5.381672 -154.110321 -0.034538 -0.005058 -0.145357
 23 4.103848 8.412071 291.691650 0.000000 -0.000000 0.000000
time 26
  0 4.103848 9.021107 123.261452 0.471239 0.000000 0.000000
  1 -0.186268 0.167370 -1.425583 -0.104720 0.000000 0.000000
  2 0.923381 -2.004173 -52.426403 0.748435 0.000000 -0.000000
  3 0.209926 0.422924 2.919281 0.129953 0.000000 0.000000
  4 -0.585037 -18.706940 -89.028000 0.087266 0.000000 -0.000000
  5 -0.737603 -0.548836 40.203690 -0.261799 0.000000 0.000000
  6 2.553308 7.297699 96.216125 0.000000 -0.000000 0.000000
  7 25.337772 -9.646729 2.086914 -0.000011 -0.139632 -0.000607
  8 -23.810328 -7.093719 2.086914 -0.226045 0.064723 0.026189
  9 -7.352507 52.005486 -48.397377 0.756921 0.000000 0.000000
 10 -0.684172 -0.276031 30.967377 0.000000 -0.000000 0.000000
 11 -13.534456 -1.160919 22.015205 3.019416 -0.000000 0.000000
 12 -20.972828 -0.005863 -27.595078 0.000000 0.209439 -0.000000
 13 -18.070219 -6.045792 -20.586182 2.577424 0.599609 -0.374444
 14 5.932709 -5.752604 0.181641 -1.147836 0.866904 -0.065273
 15 0.492641 -33.874741 19.443851 0.000000 -0.000000 0.000000
 16 0.000015 0.000000 -0.000015 -0.000000 0.000000 0.000000
 17 12.176291 -0.829262 23.085030 -0.330962 0.156863 0.008289
 18 23.438763 1.362865 -28.210823 0.622482 0.147093 -0.046223
 19 17.520046 -4.855545 -21.387650 -0.559663 -0.318451 0.327741
 20 6.597046 5.855782 -9.931343 0.000000 -0.000000 0.000000
 21 -0.072890 -1.214043 9.388046 0.000000 -0.000000 0.000000
 22 0.000010 -5.381672 -154.110321 -0.034538 -0.005058 -0.145357
 23 4.103848 8.412071 291.691650 0.000000 -0.000000 0.000000
time 27
  0 4.103848 9.021107 126.120361 0.471239 0.000000 0.000000
  1 -0.186268 0.167366 -1.425591 -0.104720 0.000000 0.000000
  2 0.923381 -2.004177 -52.426403 0.764545 0.000000 -0.000000
  3 0.209927 0.380173 2.835358 0.123323 0.000000 0.000000
  4 -0.585042 -4.276405 -83.465729 0.087266 0.000000 0.000000
  5 -0.737603 -0.548836 40.203667 -0.261799 0.000000 0.000000
  6 2.553307 7.297695 96.216110 0.000000 -0.000000 0.000000
  7 25.337772 -9.646730 2.086899 -0.000011 -0.139632 -0.000607
  8 -23.810328 -7.093719 2.086899 -0.226045 0.064723 0.026189
  9 -7.352507 52.005478 -48.397385 0.782793 0.000000 0.000000
 10 -0.684172 -0.276031 30.967377 0.000000 -0.000000 0.000000
 11 -13.534456 -1.160927 22.015190 3.019416 0.000000 0.000000
 12 -20.972828 -0.005867 -27.595078 0.000000 0.209439 0.000000
 13 -18.070219 -6.045795 -20.586166 2.577424 0.599609 -0.374444
 14 5.932693 -5.752602 0.181641 -1.147836 0.866904 -0.065273
 15 0.492638 -33.874725 19.443863 0.000000 -0.000000 0.000000
 16 0.000019 -0.000015 -0.000015 -0.000000 -0.000000 0.000000
 17 12.176292 -0.829269 23.085022 -0.330962 0.156863 0.008289
 18 23.438765 1.362862 -28.210808 0.622482 0.147093 -0.046223
 19 17.520042 -4.855553 -21.387650 -0.559663 -0.318451 0.327741
 20 6.597046 5.855778 -9.931335 0.000000 -0.000000 0.000000
 21 -0.072890 -1.214043 9.388039 0.000000 -0.000000 0.000000
 22 0.000010 -5.381672 -154.110336 -0.034538 -0.005058 -0.145357
 23 4.103848 8.412071 291.691650 0.000000 -0.000000 0.000000
time 28
  0 4.103848 9.021107 128.942978 0.471239 0.000000 0.000000
  1 -0.186268 0.167358 -1.425591 -0.104720 0.000000 0.000000
  2 0.923380 -2.004177 -52.426403 0.779685 0.000000 -0.000000
  3 0.209926 0.338615 2.753822 0.116655 0.000000 -0.000000
  4 -0.585048 10.017380 -77.955856 0.087267 0.000000 0.000000
  5 -0.737603 -0.548843 40.203659 -0.261799 0.000000 0.000000
  6 2.553308 7.297703 96.216141 0.000000 -0.000000 0.000000
  7 25.337772 -9.646732 2.086899 -0.000011 -0.139632 -0.000607
  8 -23.810326 -7.093721 2.086899 -0.226045 0.064723 0.026189
  9 -7.352506 52.005486 -48.397385 0.807639 0.000000 0.000000
 10 -0.684172 -0.276031 30.967377 0.000000 -0.000000 0.000000
 11 -13.534456 -1.160927 22.015205 3.019416 -0.000000 0.000000
 12 -20.972828 -0.005863 -27.595078 0.000000 0.209439 -0.000000
 13 -18.070217 -6.045792 -20.586166 2.577424 0.599609 -0.374444
 14 5.932693 -5.752605 0.181641 -1.147836 0.866904 -0.065273
 15 0.492653 -33.874725 19.443863 0.000000 -0.000000 -0.000000
 16 0.000015 -0.000015 -0.000008 0.000000 0.000000 0.000000
 17 12.176291 -0.829269 23.085022 -0.330962 0.156863 0.008289
 18 23.438761 1.362858 -28.210815 0.622482 0.147093 -0.046223
 19 17.520042 -4.855537 -21.387642 -0.559663 -0.318451 0.327741
 20 6.597046 5.855774 -9.931351 0.000000 -0.000000 0.000000
 21 -0.072890 -1.214050 9.388039 0.000000 -0.000000 0.000000
 22 0.000010 -5.381680 -154.110336 -0.034538 -0.005058 -0.145357
 23 4.103848 8.412071 291.691650 0.000000 -0.000000 0.000000
time 29
  0 4.103848 9.021107 131.649170 0.471239 0.000000 0.000000
  1 -0.186268 0.167358 -1.425591 -0.104720 0.000000 0.000000
  2 0.923381 -2.004169 -52.426399 0.793609 0.000000 -0.000000
  3 0.209927 0.299301 2.676659 0.110168 0.000000 0.000000
  4 -0.585053 23.757584 -72.658936 0.087266 0.000000 -0.000000
  5 -0.737603 -0.548836 40.203659 -0.261799 0.000000 0.000000
  6 2.553308 7.297699 96.216110 0.000000 -0.000000 0.000000
  7 25.337772 -9.646727 2.086914 -0.000011 -0.139632 -0.000607
  8 -23.810326 -7.093718 2.086899 -0.226045 0.064723 0.026189
  9 -7.352507 52.005486 -48.397385 0.830920 0.000000 0.000000
 10 -0.684172 -0.276031 30.967361 0.000000 -0.000000 0.000000
 11 -13.534456 -1.160919 22.015198 3.019416 0.000000 0.000000
 12 -20.972828 -0.005867 -27.595062 0.000000 0.209439 0.000000
 13 -18.070221 -6.045799 -20.586182 2.577424 0.599609 -0.374444
 14 5.932693 -5.752602 0.181625 -1.147836 0.866904 -0.065273
 15 0.492645 -33.874725 19.443863 0.000000 -0.000000 0.000000
 16 0.000019 -0.000015 -0.000015 -0.000000 0.000000 -0.000000
 17 12.176292 -0.829277 23.085022 -0.330962 0.156863 0.008289
 18 23.438766 1.362858 -28.210815 0.622482 0.147093 -0.046223
 19 17.520042 -4.855545 -21.387646 -0.559663 -0.318451 0.327741
 20 6.597046 5.855778 -9.931343 0.000000 -0.000000 0.000000
 21 -0.072890 -1.214050 9.388031 0.000000 -0.000000 0.000000
 22 0.000010 -5.381676 -154.110321 -0.034538 -0.005058 -0.145357
 23 4.103848 8.412071 291.691650 0.000000 -0.000000 0.000000
time 30
  0 4.103848 9.021107 134.158829 0.471239 0.000000 0.000000
  1 -0.186268 0.167358 -1.425591 -0.104720 0.000000 0.000000
  2 0.923381 -2.004173 -52.426392 0.806069 0.000000 -0.000000
  3 0.209927 0.263237 2.605881 0.104080 0.000000 0.000000
  4 -0.585057 36.527451 -67.735573 0.087266 0.000000 0.000000
  5 -0.737603 -0.548843 40.203667 -0.261799 0.000000 0.000000
  6 2.553308 7.297710 96.216141 0.000000 -0.000000 0.000000
  7 25.337770 -9.646729 2.086899 -0.000011 -0.139632 -0.000607
  8 -23.810328 -7.093718 2.086899 -0.226045 0.064723 0.026189
  9 -7.352507 52.005489 -48.397392 0.852097 0.000000 0.000000
 10 -0.684172 -0.276028 30.967377 0.000000 -0.000000 0.000000
 11 -13.534457 -1.160927 22.015190 3.019416 -0.000000 0.000000
 12 -20.972828 -0.005867 -27.595078 0.000000 0.209439 0.000000
 13 -18.070219 -6.045792 -20.586166 2.577424 0.599609 -0.374444
 14 5.932709 -5.752604 0.181641 -1.147836 0.866904 -0.065273
 15 0.492645 -33.874725 19.443863 0.000000 -0.000000 0.000000
 16 0.000019 -0.000015 -0.000008 0.000000 0.000000 -0.000000
 17 12.176292 -0.829277 23.085030 -0.330962 0.156863 0.008289
 18 23.438763 1.362862 -28.210800 0.622482 0.147093 -0.046223
 19 17.520041 -4.855537 -21.387646 -0.559663 -0.318451 0.327741
 20 6.597046 5.855778 -9.931351 0.000000 -0.000000 0.000000
 21 -0.072890 -1.214050 9.388039 0.000000 -0.000000 0.000000
 22 0.000010 -5.381676 -154.110321 -0.034538 -0.005058 -0.145357
 23 4.103848 8.412071 291.691650 0.000000 -0.000000 0.000000
time 31
  0 4.103848 9.021107 136.391830 0.471239 0.000000 0.000000
  1 -0.186268 0.167358 -1.425591 -0.104720 0.000000 0.000000
  2 0.923381 -2.004173 -52.426392 0.816818 0.000000 -0.000000
  3 0.209926 0.231445 2.543480 0.098609 0.000000 0.000000
  4 -0.585062 47.910179 -63.346317 0.087266 0.000000 0.000000
  5 -0.737603 -0.548836 40.203674 -0.261799 0.000000 0.000000
  6 2.553308 7.297699 96.216125 0.000000 -0.000000 0.000000
  7 25.337772 -9.646729 2.086899 -0.000011 -0.139632 -0.000607
  8 -23.810328 -7.093716 2.086914 -0.226045 0.064723 0.026189
  9 -7.352506 52.005482 -48.397385 0.870631 0.000000 0.000000
 10 -0.684172 -0.276035 30.967377 0.000000 -0.000000 0.000000
 11 -13.534456 -1.160919 22.015198 3.019416 0.000000 0.000000
 12 -20.972828 -0.005863 -27.595062 0.000000 0.209439 0.000000
 13 -18.070215 -6.045795 -20.586182 2.577424 0.599609 -0.374444
 14 5.932701 -5.752602 0.181641 -1.147836 0.866904 -0.065273
 15 0.492645 -33.874741 19.443863 0.000000 -0.000000 0.000000
 16 0.000019 -0.000015 -0.000015 -0.000000 -0.000000 0.000000
 17 12.176291 -0.829277 23.085007 -0.330962 0.156863 0.008289
 18 23.438759 1.362862 -28.210793 0.622482 0.147093 -0.046223
 19 17.520039 -4.855537 -21.387650 -0.559663 -0.318451 0.327741
 20 6.597054 5.855782 -9.931335 0.000000 -0.000000 0.000000
 21 -0.072890 -1.214043 9.388039 0.000000 -0.000000 0.000000
 22 0.000010 -5.381676 -154.110321 -0.034538 -0.005058 -0.145357
 23 4.103848 8.412071 291.691650 0.000000 -0.000000 0.000000
time 32
  0 4.103848 9.021107 138.268066 0.471239 0.000000 0.000000
  1 -0.186268 0.167366 -1.425591 -0.104720 0.000000 0.000000
  2 0.923380 -2.004169 -52.426392 0.825608 0.000000 -0.000000
  3 0.209926 0.204941 2.491463 0.093974 0.000000 -0.000000
  4 -0.585065 57.488930 -59.651791 0.087266 0.000000 0.000000
  5 -0.737603 -0.548836 40.203659 -0.261799 0.000000 0.000000
  6 2.553308 7.297703 96.216095 0.000000 -0.000000 0.000000
  7 25.337772 -9.646729 2.086884 -0.000011 -0.139632 -0.000607
  8 -23.810326 -7.093721 2.086899 -0.226045 0.064723 0.026189
  9 -7.352506 52.005486 -48.397377 0.885984 0.000000 0.000000
 10 -0.684172 -0.276031 30.967377 0.000000 -0.000000 0.000000
 11 -13.534456 -1.160919 22.015198 3.019416 -0.000000 0.000000
 12 -20.972828 -0.005871 -27.595062 0.000000 0.209439 0.000000
 13 -18.070219 -6.045792 -20.586182 2.577424 0.599609 -0.374444
 14 5.932693 -5.752600 0.181641 -1.147836 0.866904 -0.065273
 15 0.492638 -33.874756 19.443871 0.000000 0.000000 -0.000000
 16 0.000019 0.000000 -0.000015 -0.000000 0.000000 -0.000000
 17 12.176292 -0.829269 23.085022 -0.330962 0.156863 0.008289
 18 23.438770 1.362858 -28.210800 0.622482 0.147093 -0.046223
 19 17.520042 -4.855537 -21.387642 -0.559663 -0.318451 0.327741
 20 6.597054 5.855782 -9.931343 0.000000 -0.000000 0.000000
 21 -0.072890 -1.214043 9.388039 0.000000 -0.000000 0.000000
 22 0.000010 -5.381676 -154.110321 -0.034538 -0.005058 -0.145357
 23 4.103848 8.412071 291.691650 0.000000 -0.000000 0.000000
time 33
  0 4.103848 9.021107 139.707443 0.471239 0.000000 0.000000
  1 -0.186268 0.167358 -1.425591 -0.104720 0.000000 0.000000
  2 0.923381 -2.004173 -52.426399 0.832193 0.000000 -0.000000
  3 0.209927 0.184746 2.451828 0.090393 0.000000 0.000000
  4 -0.585068 64.846947 -56.812569 0.087266 0.000000 -0.000000
  5 -0.737603 -0.548843 40.203659 -0.261799 0.000000 0.000000
  6 2.553308 7.297695 96.216141 0.000000 -0.000000 0.000000
  7 25.337772 -9.646730 2.086914 -0.000011 -0.139632 -0.000607
  8 -23.810326 -7.093718 2.086899 -0.226045 0.064723 0.026189
  9 -7.352506 52.005478 -48.397369 0.897617 0.000000 0.000000
 10 -0.684172 -0.276024 30.967392 0.000000 -0.000000 0.000000
 11 -13.534456 -1.160927 22.015198 3.019416 -0.000000 0.000000
 12 -20.972828 -0.005871 -27.595078 0.000000 0.209439 0.000000
 13 -18.070215 -6.045795 -20.586166 2.577424 0.599609 -0.374444
 14 5.932693 -5.752602 0.181625 -1.147836 0.866904 -0.065273
 15 0.492649 -33.874756 19.443878 0.000000 -0.000000 0.000000
 16 0.000019 -0.000015 -0.000008 -0.000000 0.000000 -0.000000
 17 12.176292 -0.829277 23.085022 -0.330962 0.156863 0.008289
 18 23.438761 1.362865 -28.210815 0.622483 0.147093 -0.046223
 19 17.520039 -4.855537 -21.387642 -0.559663 -0.318451 0.327741
 20 6.597046 5.855782 -9.931343 0.000000 -0.000000 0.000000
 21 -0.072890 -1.214058 9.388031 0.000000 -0.000000 0.000000
 22 0.000010 -5.381676 -154.110321 -0.034538 -0.005058 -0.145357
 23 4.103848 8.412071 291.691650 0.000000 -0.000000 0.000000
time 34
  0 4.103848 9.021107 140.629807 0.471239 0.000000 0.000000
  1 -0.186268 0.167358 -1.425598 -0.104720 0.000000 0.000000
  2 0.923381 -2.004173 -52.426399 0.836326 0.000000 -0.000000
  3 0.209927 0.171867 2.426559 0.088085 0.000000 -0.000000
  4 -0.585070 69.567436 -54.989201 0.087266 0.000000 0.000000
  5 -0.737603 -0.548836 40.203667 -0.261799 0.000000 -0.000000
  6 2.553308 7.297707 96.216125 0.000000 -0.000000 0.000000
  7 25.337772 -9.646729 2.086914 -0.000011 -0.139632 -0.000607
  8 -23.810326 -7.093716 2.086914 -0.226045 0.064723 0.026189
  9 -7.352506 52.005493 -48.397369 0.904992 0.000000 0.000000
 10 -0.684172 -0.276024 30.967392 0.000000 -0.000000 0.000000
 11 -13.534457 -1.160919 22.015190 3.019416 0.000000 0.000000
 12 -20.972828 -0.005863 -27.595062 0.000000 0.209439 0.000000
 13 -18.070217 -6.045788 -20.586151 2.577424 0.599609 -0.374444
 14 5.932693 -5.752604 0.181625 -1.147836 0.866904 -0.065273
 15 0.492645 -33.874741 19.443863 0.000000 -0.000000 0.000000
 16 0.000019 -0.000015 -0.000015 -0.000000 0.000000 -0.000000
 17 12.176292 -0.829262 23.085014 -0.330962 0.156863 0.008289
 18 23.438766 1.362864 -28.210800 0.622482 0.147093 -0.046223
 19 17.520041 -4.855530 -21.387650 -0.559663 -0.318451 0.327741
 20 6.597054 5.855774 -9.931343 0.000000 -0.000000 0.000000
 21 -0.072890 -1.214043 9.388031 0.000000 -0.000000 0.000000
 22 0.000011 -5.381676 -154.110336 -0.034538 -0.005058 -0.145357
 23 4.103848 8.412071 291.691650 0.000000 -0.000000 0.000000
time 35
  0 4.103848 9.021107 140.955063 0.471239 0.000000 0.000000
  1 -0.186268 0.167358 -1.425591 -0.104720 0.000000 0.000000
  2 0.923381 -2.004169 -52.426414 0.837758 0.000000 0.000000
  3 0.209927 0.167366 2.417717 0.087267 0.000000 0.000000
  4 -0.585070 71.233543 -54.342316 0.087266 0.000000 -0.000000
  5 -0.737603 -0.548828 40.203667 -0.261799 0.000000 0.000000
  6 2.553308 7.297699 96.216125 0.000000 -0.000000 0.000000
  7 25.337772 -9.646727 2.086914 -0.000011 -0.139632 -0.000607
  8 -23.810326 -7.093718 2.086899 -0.226045 0.064723 0.026189
  9 -7.352507 52.005486 -48.397377 0.907570 0.000000 0.000000
 10 -0.684172 -0.276031 30.967361 0.000000 -0.000000 0.000000
 11 -13.534457 -1.160919 22.015190 3.019416 -0.000000 0.000000
 12 -20.972828 -0.005871 -27.595093 0.000000 0.209439 0.000000
 13 -18.070217 -6.045799 -20.586182 2.577424 0.599609 -0.374444
 14 5.932709 -5.752600 0.181625 -1.147836 0.866904 -0.065273
 15 0.492645 -33.874741 19.443871 0.000000 -0.000000 0.000000
 16 0.000019 0.000000 -0.000015 -0.000000 -0.000000 0.000000
 17 12.176292 -0.829262 23.085014 -0.330962 0.156863 0.008289
 18 23.438766 1.362858 -28.210800 0.622482 0.147093 -0.046223
 19 17.520042 -4.855545 -21.387642 -0.559663 -0.318451 0.327741
 20 6.597046 5.855778 -9.931343 0.000000 -0.000000 0.000000
 21 -0.072890 -1.214043 9.388031 0.000000 -0.000000 0.000000
 22 0.000010 -5.381676 -154.110321 -0.034538 -0.005058 -0.145357
 23 4.103848 8.412071 291.691650 0.000000 -0.000000 0.000000
end
