version 1
nodes
  0 "bone24"  -1
  1 "bone25"  -1
  2 "bone35"  -1
  3 "bone21"   2
  4 "bone20"   3
  5 "bone16"   4
  6 "bone17"   5
  7 "bone19"   6
  8 "bone26"   7
  9 "bone05"   4
 10 "bone22"   9
 11 "bone18"  10
 12 "bone27"  11
 13 "bone14"   4
 14 "bone12"  13
 15 "bone15"  14
 16 "bone02"   3
 17 "bone03"  16
 18 "bone09"  17
 19 "bone28"  17
 20 "bone01"  16
 21 "bone08"  20
 22 "bone11"  21
 23 "bone10"  22
 24 "bone29"  22
 25 "bone07"  16
 26 "bone04"  25
 27 "bone06"  26
 28 "bone13"  27
 29 "bone30"  28
 30 "bone31"  27
 31 "bone32"  16
 32 "bone33"   2
 33 "bone34"   2
end
skeleton
time 0
  0 -1.005915 2.634505 0.937462 0.000000 -0.000000 0.000000
  1 -1.005915 2.634505 0.937462 0.000000 -0.000000 0.000000
  2 -1.005915 2.634505 0.937462 0.000000 -0.000000 0.000000
  3 0.000000 0.798765 74.257698 0.017453 -0.000000 0.000000
  4 0.325039 0.314665 -2.968964 -0.052360 0.000000 0.000000
  5 6.206746 -0.124160 -11.733646 -0.378549 -0.142079 0.083197
  6 2.955697 1.729847 -23.848047 1.047196 0.000000 -0.000000
  7 0.292416 0.418293 -30.938560 -0.366519 -0.000000 0.000000
  8 0.025499 -3.137412 -3.970852 0.000000 -0.000000 0.000000
  9 -6.833119 -0.124160 -11.733646 -0.179494 0.109658 -0.206924
 10 -3.240686 1.520660 -23.848038 0.767945 0.000000 0.000000
 11 -0.355307 0.627470 -30.760897 -0.296706 -0.000000 0.000000
 12 0.209673 -3.137415 -4.537350 0.000000 -0.000000 0.000000
 13 -0.336471 18.320860 -10.789921 0.157080 -0.000000 0.000000
 14 0.011432 14.669048 -0.377850 -0.296707 -0.000000 0.000000
 15 0.210528 25.621649 6.087189 0.349066 0.000000 0.000000
 16 0.325039 0.314665 5.117516 -0.069765 -0.052328 -0.001829
 17 -0.409779 2.182661 26.434921 -0.024659 -0.032649 0.179025
 18 -2.968812 36.066566 32.693214 0.240593 0.003610 -0.042174
 19 -0.380095 -2.640913 16.751854 0.000000 -0.000000 0.000000
 20 7.187249 -0.460705 16.472290 0.001021 -0.138856 -0.014689
 21 12.896107 3.303364 -12.884903 -0.157080 -0.000000 -0.000000
 22 9.818138 -2.393085 -11.768456 -0.280533 0.016352 -0.156232
 23 11.684986 2.308937 -7.513321 0.000000 -0.000000 0.000000
 24 3.667339 0.402565 -5.537415 0.000000 -0.000000 0.000000
 25 -8.155170 -0.644957 16.761330 0.000143 -0.052073 -0.005478
 26 -12.364457 3.544242 -13.402794 0.084819 0.476689 0.009933
 27 -10.403904 -2.206011 -11.274464 -0.086427 0.127824 0.193462
 28 -3.567749 0.641576 -8.254761 0.014458 -0.004616 0.008585
 29 -16.088982 -105.559044 -25.635794 0.000000 -0.000000 0.000000
 30 -3.127525 0.571332 -6.062386 0.000000 -0.000000 0.000000
 31 -0.040494 -0.674471 8.862862 0.000000 -0.000000 0.000000
 32 0.289211 3.291785 167.749756 0.000000 -0.000000 0.000000
 33 0.000000 0.000000 0.000000 0.000000 -0.000000 0.000000
time 1
  0 -1.005915 2.634505 0.937462 0.000000 -0.000000 0.000000
  1 -1.005915 2.634505 0.937462 0.000000 -0.000000 0.000000
  2 -1.005915 2.634505 0.937462 0.000000 -0.000000 0.000000
  3 0.000000 0.798765 73.204285 0.018591 0.000000 0.000000
  4 0.325039 0.314665 -2.968964 -0.068971 -0.000000 0.000000
  5 6.206746 -0.124160 -11.733646 -0.352622 -0.141012 0.079551
  6 2.955698 1.729847 -23.848042 1.055933 0.000174 -0.001422
  7 0.292414 0.418297 -30.938560 -0.366519 -0.000000 0.000000
  8 0.025497 -3.137413 -3.970851 0.000000 -0.000000 0.000000
  9 -6.833119 -0.124160 -11.733646 -0.158452 0.111528 -0.202781
 10 -3.240686 1.520661 -23.848049 0.782131 0.001447 0.002889
 11 -0.355305 0.627464 -30.760900 -0.296706 0.000000 0.000000
 12 0.209675 -3.137415 -4.537352 0.000000 -0.000000 0.000000
 13 -0.336471 18.320856 -10.789917 0.175074 0.000000 0.000000
 14 0.011432 14.669044 -0.377850 -0.296707 0.000000 0.000000
 15 0.210528 25.621647 6.087189 0.349066 0.000000 0.000000
 16 0.325039 0.314665 5.117516 -0.069765 -0.052328 -0.001829
 17 -0.409779 2.182661 26.434914 -0.024659 -0.032649 0.179025
 18 -2.968814 36.066563 32.693230 0.240593 0.003610 -0.042174
 19 -0.380095 -2.640915 16.751839 0.000000 -0.000000 0.000000
 20 7.187249 -0.460705 16.472290 0.001021 -0.138856 -0.014689
 21 12.896107 3.303366 -12.884903 -0.157080 0.000000 -0.000000
 22 9.818138 -2.393081 -11.768456 -0.280533 0.016352 -0.156232
 23 11.684990 2.308945 -7.513325 -0.000000 -0.000000 0.000000
 24 3.667339 0.402569 -5.537422 0.000000 -0.000000 0.000000
 25 -8.155170 -0.644956 16.761322 0.000143 -0.052073 -0.005478
 26 -12.364456 3.544240 -13.402786 0.084819 0.476689 0.009933
 27 -10.403900 -2.206010 -11.274467 -0.086427 0.127824 0.193462
 28 -3.565254 0.726748 -7.928787 0.013704 -0.001772 0.007297
 29 -16.088966 -105.559021 -25.635784 0.000000 -0.000000 0.000000
 30 -3.127525 0.571333 -6.062374 0.000000 -0.000000 0.000000
 31 -0.040495 -0.674471 8.862854 0.000000 -0.000000 0.000000
 32 0.289211 3.291785 167.749756 0.000000 -0.000000 0.000000
 33 0.000000 0.000000 0.000000 0.000000 -0.000000 0.000000
time 2
  0 -1.005915 2.634505 0.937462 0.000000 -0.000000 0.000000
  1 -1.005915 2.634505 0.937462 0.000000 -0.000000 0.000000
  2 -1.005915 2.634505 0.937462 0.000000 -0.000000 0.000000
  3 0.000000 0.798765 70.223251 0.021901 0.000000 0.000000
  4 0.325039 0.314665 -2.968948 -0.115325 -0.000000 0.000000
  5 6.206746 -0.124160 -11.733646 -0.280266 -0.138035 0.069377
  6 2.955702 1.729839 -23.848040 1.080317 0.000660 -0.005390
  7 0.292414 0.418297 -30.938553 -0.366519 0.000000 0.000000
  8 0.025497 -3.137414 -3.970853 0.000000 -0.000000 0.000000
  9 -6.833118 -0.124160 -11.733646 -0.099730 0.116746 -0.191219
 10 -3.240685 1.520659 -23.848042 0.821721 0.005486 0.010951
 11 -0.355305 0.627466 -30.760895 -0.296706 -0.000000 0.000000
 12 0.209675 -3.137416 -4.537351 0.000000 -0.000000 0.000000
 13 -0.336471 18.320858 -10.789917 0.225292 0.000000 0.000000
 14 0.011432 14.669043 -0.377853 -0.296707 -0.000000 0.000000
 15 0.210528 25.621655 6.087196 0.349066 0.000000 0.000000
 16 0.325039 0.314665 5.117508 -0.069765 -0.052328 -0.001829
 17 -0.409779 2.182663 26.434921 -0.024659 -0.032649 0.179024
 18 -2.968815 36.066566 32.693222 0.240593 0.003610 -0.042174
 19 -0.380095 -2.640911 16.751846 0.000000 -0.000000 0.000000
 20 7.187249 -0.460704 16.472298 0.001021 -0.138856 -0.014689
 21 12.896107 3.303364 -12.884911 -0.157080 0.000000 -0.000000
 22 9.818134 -2.393085 -11.768448 -0.280533 0.016352 -0.156232
 23 11.684990 2.308937 -7.513321 0.000000 -0.000000 0.000000
 24 3.667339 0.402563 -5.537415 0.000000 -0.000000 0.000000
 25 -8.155172 -0.644955 16.761330 0.000143 -0.052073 -0.005478
 26 -12.364457 3.544241 -13.402786 0.084819 0.476689 0.009933
 27 -10.403900 -2.206012 -11.274467 -0.086427 0.127824 0.193462
 28 -3.558029 0.974515 -6.980537 0.011495 0.006501 0.003552
 29 -16.088997 -105.559074 -25.635807 0.000000 -0.000000 0.000000
 30 -3.127533 0.571330 -6.062378 0.000000 -0.000000 0.000000
 31 -0.040494 -0.674471 8.862862 0.000000 -0.000000 0.000000
 32 0.289211 3.291785 167.749756 0.000000 -0.000000 0.000000
 33 0.000000 0.000000 0.000000 0.000000 -0.000000 0.000000
time 3
  0 -1.005915 2.634505 0.937462 0.000000 -0.000000 0.000000
  1 -1.005915 2.634505 0.937462 0.000000 -0.000000 0.000000
  2 -1.005915 2.634505 0.937462 0.000000 -0.000000 0.000000
  3 0.000000 0.798765 65.583374 0.027227 0.000000 0.000000
  4 0.325039 0.314665 -2.968964 -0.186208 -0.000000 -0.000000
  5 6.206746 -0.124161 -11.733643 -0.169624 -0.133481 0.053820
  6 2.955698 1.729850 -23.848042 1.117603 0.001403 -0.011458
  7 0.292415 0.418289 -30.938557 -0.366519 0.000000 0.000000
  8 0.025497 -3.137411 -3.970854 0.000000 -0.000000 0.000000
  9 -6.833119 -0.124161 -11.733646 -0.009934 0.124725 -0.173538
 10 -3.240685 1.520659 -23.848036 0.882258 0.011662 0.023280
 11 -0.355303 0.627468 -30.760891 -0.296706 -0.000000 0.000000
 12 0.209671 -3.137413 -4.537351 0.000000 -0.000000 0.000000
 13 -0.336471 18.320858 -10.789917 0.302082 0.000000 0.000000
 14 0.011432 14.669048 -0.377853 -0.296707 -0.000000 0.000000
 15 0.210527 25.621651 6.087189 0.349066 0.000000 0.000000
 16 0.325039 0.314666 5.117508 -0.069765 -0.052328 -0.001829
 17 -0.409779 2.182661 26.434914 -0.024659 -0.032649 0.179024
 18 -2.968817 36.066566 32.693230 0.240593 0.003610 -0.042174
 19 -0.380096 -2.640912 16.751854 0.000000 -0.000000 0.000000
 20 7.187249 -0.460704 16.472290 0.001021 -0.138856 -0.014689
 21 12.896111 3.303362 -12.884911 -0.157080 0.000000 0.000000
 22 9.818138 -2.393084 -11.768448 -0.280533 0.016352 -0.156232
 23 11.684990 2.308939 -7.513321 0.000000 -0.000000 0.000000
 24 3.667339 0.402565 -5.537415 0.000000 -0.000000 0.000000
 25 -8.155171 -0.644957 16.761330 0.000143 -0.052073 -0.005478
 26 -12.364458 3.544240 -13.402779 0.084819 0.476689 0.009933
 27 -10.403896 -2.206011 -11.274460 -0.086427 0.127824 0.193462
 28 -3.546383 1.373269 -5.454453 0.007907 0.019815 -0.002476
 29 -16.088966 -105.559052 -25.635799 0.000000 -0.000000 0.000000
 30 -3.127525 0.571331 -6.062382 0.000000 -0.000000 0.000000
 31 -0.040494 -0.674471 8.862862 0.000000 -0.000000 0.000000
 32 0.289211 3.291785 167.749756 0.000000 -0.000000 0.000000
 33 0.000000 0.000000 0.000000 0.000000 -0.000000 0.000000
time 4
  0 -1.005915 2.634505 0.937462 0.000000 -0.000000 0.000000
  1 -1.005915 2.634505 0.937462 0.000000 -0.000000 0.000000
  2 -1.005915 2.634505 0.937462 0.000000 -0.000000 0.000000
  3 0.000000 0.798765 59.553436 0.034415 0.000000 0.000000
  4 0.325039 0.314665 -2.968967 -0.276404 -0.000000 0.000000
  5 6.206746 -0.124162 -11.733646 -0.028836 -0.127687 0.034023
  6 2.955698 1.729843 -23.848045 1.165049 0.002348 -0.019179
  7 0.292415 0.418289 -30.938553 -0.366519 -0.000000 0.000000
  8 0.025496 -3.137415 -3.970854 0.000000 -0.000000 0.000000
  9 -6.833119 -0.124162 -11.733646 0.104328 0.134879 -0.151041
 10 -3.240686 1.520661 -23.848047 0.959291 0.019521 0.038968
 11 -0.355306 0.627462 -30.760895 -0.296706 0.000000 0.000000
 12 0.209673 -3.137414 -4.537351 0.000000 -0.000000 0.000000
 13 -0.336471 18.320854 -10.789913 0.399795 0.000000 0.000000
 14 0.011432 14.669039 -0.377850 -0.296707 -0.000000 0.000000
 15 0.210528 25.621649 6.087193 0.349066 0.000000 0.000000
 16 0.325039 0.314665 5.117508 -0.069765 -0.052328 -0.001829
 17 -0.409779 2.182662 26.434914 -0.024659 -0.032649 0.179024
 18 -2.968815 36.066570 32.693214 0.240593 0.003610 -0.042174
 19 -0.380096 -2.640912 16.751854 0.000000 -0.000000 0.000000
 20 7.187248 -0.460704 16.472298 0.001021 -0.138856 -0.014689
 21 12.896107 3.303363 -12.884911 -0.157080 -0.000000 0.000000
 22 9.818138 -2.393084 -11.768448 -0.280533 0.016352 -0.156232
 23 11.684990 2.308941 -7.513317 -0.000000 -0.000000 0.000000
 24 3.667339 0.402565 -5.537415 0.000000 -0.000000 0.000000
 25 -8.155171 -0.644956 16.761330 0.000143 -0.052073 -0.005478
 26 -12.364457 3.544241 -13.402786 0.084819 0.476689 0.009933
 27 -10.403900 -2.206011 -11.274467 -0.086427 0.127824 0.193462
 28 -3.530674 1.911393 -3.394962 0.003018 0.037784 -0.010610
 29 -16.088982 -105.559067 -25.635796 0.000000 -0.000000 0.000000
 30 -3.127533 0.571330 -6.062378 0.000000 -0.000000 0.000000
 31 -0.040494 -0.674471 8.862862 0.000000 -0.000000 0.000000
 32 0.289211 3.291785 167.749756 0.000000 -0.000000 0.000000
 33 0.000000 0.000000 0.000000 0.000000 -0.000000 0.000000
time 5
  0 -1.005915 2.634505 0.937462 0.000000 -0.000000 0.000000
  1 -1.005915 2.634505 0.937462 0.000000 -0.000000 0.000000
  2 -1.005915 2.634505 0.937462 0.000000 -0.000000 0.000000
  3 0.000000 0.798765 52.402233 0.043310 0.000000 0.000000
  4 0.325039 0.314665 -2.968964 -0.380698 -0.000000 -0.000000
  5 6.206746 -0.124161 -11.733650 0.133958 -0.120987 0.011132
  6 2.955698 1.729843 -23.848042 1.219910 0.003441 -0.028106
  7 0.292416 0.418293 -30.938557 -0.366519 -0.000000 0.000000
  8 0.025497 -3.137412 -3.970854 0.000000 -0.000000 0.000000
  9 -6.833119 -0.124162 -11.733650 0.236449 0.146619 -0.125026
 10 -3.240684 1.520662 -23.848045 1.048363 0.028608 0.057107
 11 -0.355306 0.627463 -30.760893 -0.296706 -0.000000 0.000000
 12 0.209673 -3.137414 -4.537350 0.000000 -0.000000 0.000000
 13 -0.336471 18.320858 -10.789917 0.512780 0.000000 0.000000
 14 0.011432 14.669044 -0.377851 -0.296707 -0.000000 0.000000
 15 0.210528 25.621645 6.087189 0.349066 0.000000 0.000000
 16 0.325039 0.314665 5.117504 -0.069765 -0.052328 -0.001829
 17 -0.409779 2.182663 26.434910 -0.024659 -0.032649 0.179025
 18 -2.968814 36.066574 32.693222 0.240593 0.003610 -0.042174
 19 -0.380095 -2.640913 16.751862 0.000000 -0.000000 0.000000
 20 7.187248 -0.460704 16.472294 0.001021 -0.138856 -0.014689
 21 12.896105 3.303364 -12.884911 -0.157080 -0.000000 0.000000
 22 9.818134 -2.393086 -11.768444 -0.280533 0.016352 -0.156232
 23 11.684986 2.308939 -7.513321 -0.000000 -0.000000 0.000000
 24 3.667336 0.402566 -5.537418 0.000000 -0.000000 0.000000
 25 -8.155171 -0.644955 16.761326 0.000143 -0.052073 -0.005478
 26 -12.364459 3.544240 -13.402786 0.084819 0.476689 0.009933
 27 -10.403900 -2.206011 -11.274460 -0.086427 0.127824 0.193462
 28 -3.511223 2.577273 -0.846540 -0.003095 0.060018 -0.020676
 29 -16.088982 -105.559082 -25.635803 0.000000 -0.000000 0.000000
 30 -3.127525 0.571331 -6.062380 0.000000 -0.000000 0.000000
 31 -0.040494 -0.674471 8.862858 0.000000 -0.000000 0.000000
 32 0.289211 3.291785 167.749756 0.000000 -0.000000 0.000000
 33 0.000000 0.000000 0.000000 0.000000 -0.000000 0.000000
time 6
  0 -1.005915 2.634505 0.937462 0.000000 -0.000000 0.000000
  1 -1.005915 2.634505 0.937462 0.000000 -0.000000 0.000000
  2 -1.005915 2.634505 0.937462 0.000000 -0.000000 0.000000
  3 0.000000 0.798765 44.398544 0.053756 0.000000 0.000000
  4 0.325039 0.314665 -2.968964 -0.493875 -0.000000 -0.000000
  5 6.206746 -0.124161 -11.733646 0.310617 -0.113717 -0.013709
  6 2.955698 1.729842 -23.848042 1.279444 0.004628 -0.037794
  7 0.292416 0.418292 -30.938555 -0.366519 0.000000 0.000000
  8 0.025497 -3.137414 -3.970854 0.000000 -0.000000 0.000000
  9 -6.833119 -0.124161 -11.733646 0.379822 0.159360 -0.096796
 10 -3.240685 1.520660 -23.848040 1.145022 0.038469 0.076792
 11 -0.355309 0.627471 -30.760895 -0.296706 0.000000 0.000000
 12 0.209673 -3.137414 -4.537352 0.000000 -0.000000 0.000000
 13 -0.336471 18.320858 -10.789917 0.635388 0.000000 0.000000
 14 0.011432 14.669044 -0.377853 -0.296707 -0.000000 0.000000
 15 0.210528 25.621647 6.087189 0.349066 0.000000 0.000000
 16 0.325039 0.314666 5.117504 -0.069765 -0.052328 -0.001829
 17 -0.409779 2.182661 26.434917 -0.024659 -0.032649 0.179025
 18 -2.968815 36.066574 32.693214 0.240593 0.003610 -0.042174
 19 -0.380097 -2.640913 16.751846 0.000000 -0.000000 0.000000
 20 7.187249 -0.460705 16.472294 0.001021 -0.138856 -0.014689
 21 12.896109 3.303365 -12.884911 -0.157080 -0.000000 -0.000000
 22 9.818138 -2.393084 -11.768444 -0.280533 0.016352 -0.156232
 23 11.684990 2.308940 -7.513321 -0.000000 -0.000000 0.000000
 24 3.667339 0.402563 -5.537415 0.000000 -0.000000 0.000000
 25 -8.155172 -0.644956 16.761326 0.000143 -0.052073 -0.005478
 26 -12.364456 3.544242 -13.402794 0.084819 0.476689 0.009933
 27 -10.403904 -2.206011 -11.274464 -0.086427 0.127824 0.193462
 28 -3.488396 3.359295 2.146381 -0.010355 0.086130 -0.032497
 29 -16.088982 -105.559059 -25.635792 0.000000 -0.000000 0.000000
 30 -3.127525 0.571331 -6.062378 0.000000 -0.000000 0.000000
 31 -0.040495 -0.674471 8.862854 0.000000 -0.000000 0.000000
 32 0.289211 3.291785 167.749756 0.000000 -0.000000 0.000000
 33 0.000000 0.000000 0.000000 0.000000 -0.000000 0.000000
time 7
  0 -1.005915 2.634505 0.937462 0.000000 -0.000000 0.000000
  1 -1.005915 2.634505 0.937462 0.000000 -0.000000 0.000000
  2 -1.005915 2.634505 0.937462 0.000000 -0.000000 0.000000
  3 0.000000 0.798765 35.811165 0.065599 0.000000 0.000000
  4 0.325039 0.314665 -2.968964 -0.610718 -0.000000 -0.000000
  5 6.206746 -0.124161 -11.733646 0.493000 -0.106211 -0.039354
  6 2.955699 1.729847 -23.848042 1.340907 0.005852 -0.047796
  7 0.292416 0.418286 -30.938549 -0.366519 -0.000000 0.000000
  8 0.025497 -3.137415 -3.970852 0.000000 -0.000000 0.000000
  9 -6.833119 -0.124160 -11.733648 0.527841 0.172513 -0.067652
 10 -3.240686 1.520658 -23.848040 1.244812 0.048649 0.097114
 11 -0.355308 0.627474 -30.760887 -0.296706 -0.000000 0.000000
 12 0.209672 -3.137414 -4.537348 0.000000 -0.000000 0.000000
 13 -0.336471 18.320858 -10.789919 0.761969 0.000000 0.000000
 14 0.011432 14.669044 -0.377854 -0.296707 -0.000000 0.000000
 15 0.210528 25.621643 6.087189 0.349066 0.000000 0.000000
 16 0.325039 0.314666 5.117508 -0.069765 -0.052328 -0.001829
 17 -0.409779 2.182662 26.434917 -0.024659 -0.032649 0.179025
 18 -2.968815 36.066574 32.693222 0.240593 0.003610 -0.042174
 19 -0.380096 -2.640912 16.751862 0.000000 -0.000000 0.000000
 20 7.187248 -0.460704 16.472298 0.001021 -0.138856 -0.014689
 21 12.896103 3.303362 -12.884911 -0.157080 -0.000000 0.000000
 22 9.818138 -2.393086 -11.768448 -0.280533 0.016352 -0.156232
 23 11.684986 2.308938 -7.513321 0.000000 -0.000000 0.000000
 24 3.667339 0.402565 -5.537415 0.000000 -0.000000 0.000000
 25 -8.155170 -0.644955 16.761330 0.000143 -0.052073 -0.005478
 26 -12.364456 3.544241 -13.402782 0.084819 0.476689 0.009933
 27 -10.403900 -2.206011 -11.274460 -0.086427 0.127824 0.193462
 28 -3.462505 4.245846 5.539343 -0.018684 0.115732 -0.045898
 29 -16.088982 -105.559059 -25.635794 0.000000 -0.000000 0.000000
 30 -3.127533 0.571331 -6.062380 0.000000 -0.000000 0.000000
 31 -0.040494 -0.674471 8.862858 0.000000 -0.000000 0.000000
 32 0.289211 3.291785 167.749756 0.000000 -0.000000 0.000000
 33 0.000000 0.000000 0.000000 0.000000 -0.000000 0.000000
time 8
  0 -1.005915 2.634505 0.937462 0.000000 -0.000000 0.000000
  1 -1.005915 2.634505 0.937462 0.000000 -0.000000 0.000000
  2 -1.005915 2.634505 0.937462 0.000000 -0.000000 0.000000
  3 0.000000 0.798765 26.908873 0.078682 0.000000 0.000000
  4 0.325039 0.314665 -2.968966 -0.726014 -0.000000 0.000000
  5 6.206746 -0.124160 -11.733646 0.672965 -0.098805 -0.064660
  6 2.955698 1.729848 -23.848045 1.401555 0.007061 -0.057666
  7 0.292415 0.418285 -30.938553 -0.366519 0.000000 0.000000
  8 0.025497 -3.137416 -3.970856 0.000000 -0.000000 0.000000
  9 -6.833119 -0.124161 -11.733647 0.673899 0.185491 -0.038893
 10 -3.240686 1.520661 -23.848042 1.343281 0.058695 0.117167
 11 -0.355309 0.627474 -30.760889 -0.296706 0.000000 0.000000
 12 0.209672 -3.137415 -4.537354 0.000000 -0.000000 0.000000
 13 -0.336471 18.320858 -10.789919 0.886873 0.000001 0.000000
 14 0.011432 14.669048 -0.377852 -0.296707 -0.000000 0.000000
 15 0.210528 25.621651 6.087190 0.349066 0.000000 0.000000
 16 0.325039 0.314665 5.117508 -0.069765 -0.052328 -0.001829
 17 -0.409778 2.182662 26.434917 -0.024659 -0.032649 0.179025
 18 -2.968815 36.066570 32.693222 0.240593 0.003610 -0.042174
 19 -0.380096 -2.640912 16.751846 0.000000 -0.000000 0.000000
 20 7.187248 -0.460704 16.472298 0.001021 -0.138856 -0.014689
 21 12.896107 3.303364 -12.884907 -0.157080 -0.000000 -0.000000
 22 9.818134 -2.393085 -11.768448 -0.280533 0.016352 -0.156232
 23 11.684990 2.308937 -7.513319 -0.000000 -0.000000 0.000000
 24 3.667336 0.402564 -5.537413 0.000000 -0.000000 0.000000
 25 -8.155170 -0.644955 16.761333 0.000143 -0.052073 -0.005478
 26 -12.364457 3.544240 -13.402790 0.084819 0.476689 0.009933
 27 -10.403900 -2.206012 -11.274463 -0.086427 0.127824 0.193462
 28 -3.433903 5.225309 9.287901 -0.028005 0.148437 -0.060703
 29 -16.088985 -105.559052 -25.635799 0.000000 -0.000000 0.000000
 30 -3.127525 0.571331 -6.062376 0.000000 -0.000000 0.000000
 31 -0.040494 -0.674471 8.862858 0.000000 -0.000000 0.000000
 32 0.289211 3.291785 167.749756 0.000000 -0.000000 0.000000
 33 0.000000 0.000000 0.000000 0.000000 -0.000000 0.000000
time 9
  0 -1.005915 2.634505 0.937462 0.000000 -0.000000 0.000000
  1 -1.005915 2.634505 0.937462 0.000000 -0.000000 0.000000
  2 -1.005915 2.634505 0.937462 0.000000 -0.000000 0.000000
  3 0.000000 0.798765 17.960461 0.092852 0.000000 0.000000
  4 0.325039 0.314665 -2.968963 -0.834545 -0.000000 -0.000000
  5 6.206746 -0.124159 -11.733645 0.842374 -0.091833 -0.088481
  6 2.955697 1.729846 -23.848040 1.458646 0.008198 -0.066956
  7 0.292416 0.418289 -30.938545 -0.366519 0.000000 0.000000
  8 0.025497 -3.137414 -3.970860 0.000000 -0.000000 0.000000
  9 -6.833119 -0.124159 -11.733646 0.811388 0.197709 -0.011822
 10 -3.240687 1.520662 -23.848040 1.435972 0.068151 0.136044
 11 -0.355311 0.627476 -30.760887 -0.296706 0.000000 0.000000
 12 0.209673 -3.137414 -4.537350 0.000000 -0.000000 0.000000
 13 -0.336471 18.320860 -10.789917 1.004449 0.000001 0.000000
 14 0.011432 14.669045 -0.377853 -0.296707 0.000000 0.000000
 15 0.210528 25.621651 6.087189 0.349066 0.000000 0.000000
 16 0.325039 0.314665 5.117510 -0.069765 -0.052328 -0.001829
 17 -0.409779 2.182662 26.434917 -0.024659 -0.032649 0.179024
 18 -2.968814 36.066570 32.693222 0.240593 0.003610 -0.042174
 19 -0.380095 -2.640912 16.751854 0.000000 -0.000000 0.000000
 20 7.187248 -0.460704 16.472294 0.001021 -0.138856 -0.014689
 21 12.896103 3.303366 -12.884905 -0.157080 0.000000 -0.000000
 22 9.818134 -2.393082 -11.768445 -0.280533 0.016352 -0.156232
 23 11.684986 2.308939 -7.513318 -0.000000 -0.000000 0.000000
 24 3.667336 0.402565 -5.537415 0.000000 -0.000000 0.000000
 25 -8.155171 -0.644956 16.761326 0.000143 -0.052073 -0.005478
 26 -12.364458 3.544240 -13.402786 0.084819 0.476689 0.009933
 27 -10.403904 -2.206011 -11.274464 -0.086427 0.127824 0.193462
 28 -3.402927 6.286072 13.347599 -0.038240 0.183856 -0.076738
 29 -16.088978 -105.559021 -25.635807 0.000000 -0.000000 0.000000
 30 -3.127529 0.571330 -6.062376 0.000000 -0.000000 0.000000
 31 -0.040495 -0.674470 8.862854 0.000000 -0.000000 0.000000
 32 0.289211 3.291785 167.749756 0.000000 -0.000000 0.000000
 33 0.000000 0.000000 0.000000 0.000000 -0.000000 0.000000
time 10
  0 -1.005915 2.634505 0.937462 0.000000 -0.000000 0.000000
  1 -1.005915 2.634505 0.937462 0.000000 -0.000000 0.000000
  2 -1.005915 2.634505 0.937462 0.000000 -0.000000 0.000000
  3 0.000000 0.798765 9.234709 0.107952 0.000000 0.000000
  4 0.325039 0.314665 -2.968964 -0.931098 -0.000000 -0.000000
  5 6.206747 -0.124160 -11.733647 0.993084 -0.085630 -0.109673
  6 2.955698 1.729846 -23.848042 1.509435 0.009210 -0.075221
  7 0.292418 0.418289 -30.938541 -0.366519 0.000000 0.000000
  8 0.025498 -3.137417 -3.970852 0.000000 -0.000000 0.000000
  9 -6.833118 -0.124160 -11.733646 0.933702 0.208578 0.012261
 10 -3.240686 1.520661 -23.848042 1.518433 0.076563 0.152837
 11 -0.355312 0.627478 -30.760885 -0.296706 0.000000 0.000000
 12 0.209671 -3.137414 -4.537354 0.000000 -0.000000 0.000000
 13 -0.336471 18.320860 -10.789917 1.109048 0.000001 0.000000
 14 0.011432 14.669043 -0.377851 -0.296707 -0.000000 0.000000
 15 0.210528 25.621647 6.087190 0.349066 0.000000 0.000000
 16 0.325039 0.314665 5.117507 -0.069765 -0.052328 -0.001829
 17 -0.409778 2.182662 26.434917 -0.024659 -0.032649 0.179025
 18 -2.968816 36.066566 32.693218 0.240593 0.003610 -0.042174
 19 -0.380095 -2.640910 16.751854 0.000000 -0.000000 0.000000
 20 7.187249 -0.460704 16.472298 0.001021 -0.138856 -0.014689
 21 12.896105 3.303365 -12.884911 -0.157080 0.000000 0.000000
 22 9.818130 -2.393082 -11.768450 -0.280533 0.016352 -0.156232
 23 11.684982 2.308941 -7.513320 -0.000000 -0.000000 0.000000
 24 3.667336 0.402567 -5.537416 0.000000 -0.000000 0.000000
 25 -8.155172 -0.644956 16.761326 0.000143 -0.052073 -0.005478
 26 -12.364457 3.544240 -13.402788 0.084819 0.476689 0.009933
 27 -10.403896 -2.206011 -11.274463 -0.086427 0.127824 0.193462
 28 -3.369915 7.416519 17.674000 -0.049313 0.221602 -0.093826
 29 -16.088974 -105.559059 -25.635798 0.000000 -0.000000 0.000000
 30 -3.127529 0.571332 -6.062377 0.000000 -0.000000 0.000000
 31 -0.040494 -0.674471 8.862857 0.000000 -0.000000 0.000000
 32 0.289211 3.291785 167.749756 0.000000 -0.000000 0.000000
 33 0.000000 0.000000 0.000000 0.000000 -0.000000 0.000000
time 11
  0 -1.005915 2.634505 0.937462 0.000000 -0.000000 0.000000
  1 -1.005915 2.634505 0.937462 0.000000 -0.000000 0.000000
  2 -1.005915 2.634505 0.937462 0.000000 -0.000000 0.000000
  3 0.000000 0.798765 1.000407 0.123828 0.000000 0.000000
  4 0.325039 0.314665 -2.968964 -1.010456 -0.000000 0.000000
  5 6.206746 -0.124160 -11.733646 1.116955 -0.080533 -0.127090
  6 2.955698 1.729843 -23.848047 1.551179 0.010042 -0.082015
  7 0.292415 0.418295 -30.938543 -0.366519 -0.000000 0.000000
  8 0.025497 -3.137417 -3.970852 0.000000 -0.000000 0.000000
  9 -6.833119 -0.124160 -11.733646 1.034234 0.217511 0.032056
 10 -3.240686 1.520659 -23.848040 1.586209 0.083478 0.166639
 11 -0.355312 0.627480 -30.760889 -0.296706 -0.000000 0.000000
 12 0.209672 -3.137413 -4.537346 0.000000 -0.000000 0.000000
 13 -0.336471 18.320860 -10.789917 1.195019 0.000001 0.000000
 14 0.011432 14.669043 -0.377851 -0.296707 0.000000 0.000000
 15 0.210528 25.621651 6.087187 0.349066 0.000000 0.000000
 16 0.325039 0.314665 5.117508 -0.069765 -0.052328 -0.001829
 17 -0.409779 2.182661 26.434912 -0.024659 -0.032649 0.179025
 18 -2.968812 36.066574 32.693211 0.240593 0.003610 -0.042174
 19 -0.380095 -2.640913 16.751850 0.000000 -0.000000 0.000000
 20 7.187249 -0.460705 16.472294 0.001021 -0.138856 -0.014689
 21 12.896105 3.303365 -12.884911 -0.157080 -0.000000 0.000000
 22 9.818142 -2.393087 -11.768450 -0.280533 0.016352 -0.156232
 23 11.684992 2.308936 -7.513320 -0.000000 -0.000000 0.000000
 24 3.667337 0.402563 -5.537415 0.000000 -0.000000 0.000000
 25 -8.155170 -0.644956 16.761328 0.000143 -0.052073 -0.005478
 26 -12.364461 3.544241 -13.402785 0.084819 0.476689 0.009933
 27 -10.403900 -2.206010 -11.274462 -0.086427 0.127824 0.193462
 28 -3.335207 8.605039 22.222637 -0.061147 0.261288 -0.111792
 29 -16.088989 -105.559074 -25.635796 0.000000 -0.000000 0.000000
 30 -3.127527 0.571331 -6.062377 0.000000 -0.000000 0.000000
 31 -0.040495 -0.674471 8.862856 0.000000 -0.000000 0.000000
 32 0.289211 3.291785 167.749756 0.000000 -0.000000 0.000000
 33 0.000000 0.000000 0.000000 0.000000 -0.000000 0.000000
time 12
  0 -1.005915 2.634505 0.937462 0.000000 -0.000000 0.000000
  1 -1.005915 2.634505 0.937462 0.000000 -0.000000 0.000000
  2 -1.005915 2.634505 0.937462 0.000000 -0.000000 0.000000
  3 0.000000 0.798765 -6.473653 0.140325 0.000000 0.000000
  4 0.325039 0.314665 -2.968963 -1.067404 -0.000000 0.000000
  5 6.206746 -0.124161 -11.733647 1.205846 -0.076874 -0.139590
  6 2.955698 1.729843 -23.848042 1.581135 0.010639 -0.086890
  7 0.292416 0.418293 -30.938538 -0.366519 -0.000000 0.000000
  8 0.025497 -3.137417 -3.970856 0.000000 -0.000000 0.000000
  9 -6.833118 -0.124160 -11.733646 1.106376 0.223922 0.046261
 10 -3.240685 1.520660 -23.848040 1.634846 0.088439 0.176544
 11 -0.355311 0.627480 -30.760887 -0.296706 0.000000 0.000000
 12 0.209671 -3.137413 -4.537346 0.000000 -0.000000 0.000000
 13 -0.336471 18.320858 -10.789918 1.256713 0.000001 0.000000
 14 0.011432 14.669044 -0.377851 -0.296707 0.000000 0.000000
 15 0.210528 25.621651 6.087189 0.349066 0.000000 0.000000
 16 0.325039 0.314665 5.117508 -0.069765 -0.052328 -0.001829
 17 -0.409779 2.182661 26.434912 -0.024659 -0.032649 0.179025
 18 -2.968816 36.066574 32.693214 0.240593 0.003610 -0.042174
 19 -0.380096 -2.640912 16.751852 0.000000 -0.000000 0.000000
 20 7.187249 -0.460705 16.472294 0.001021 -0.138856 -0.014689
 21 12.896106 3.303364 -12.884911 -0.157080 -0.000000 -0.000000
 22 9.818140 -2.393082 -11.768452 -0.280533 0.016352 -0.156232
 23 11.684988 2.308941 -7.513322 -0.000000 -0.000000 0.000000
 24 3.667337 0.402566 -5.537416 0.000000 -0.000000 0.000000
 25 -8.155172 -0.644956 16.761328 0.000143 -0.052073 -0.005478
 26 -12.364458 3.544241 -13.402786 0.084819 0.476689 0.009933
 27 -10.403902 -2.206011 -11.274462 -0.086427 0.127824 0.193462
 28 -3.299147 9.840014 26.949080 -0.073663 0.302524 -0.130460
 29 -16.088982 -105.559036 -25.635796 0.000000 -0.000000 0.000000
 30 -3.127527 0.571331 -6.062378 0.000000 -0.000000 0.000000
 31 -0.040495 -0.674471 8.862856 0.000000 -0.000000 0.000000
 32 0.289211 3.291785 167.749756 0.000000 -0.000000 0.000000
 33 0.000000 0.000000 0.000000 0.000000 -0.000000 0.000000
time 13
  0 -1.005915 2.634505 0.937462 0.000000 -0.000000 0.000000
  1 -1.005915 2.634505 0.937462 0.000000 -0.000000 0.000000
  2 -1.005915 2.634505 0.937462 0.000000 -0.000000 0.000000
  3 0.000000 0.798765 -12.918696 0.157287 0.000000 0.000000
  4 0.325039 0.314665 -2.968965 -1.096727 -0.000000 0.000000
  5 6.206746 -0.124161 -11.733645 1.251617 -0.074991 -0.146026
  6 2.955698 1.729843 -23.848038 1.596560 0.010946 -0.089400
  7 0.292418 0.418293 -30.938538 -0.366519 -0.000000 0.000000
  8 0.025498 -3.137413 -3.970860 0.000000 -0.000000 0.000000
  9 -6.833118 -0.124159 -11.733647 1.143523 0.227223 0.053575
 10 -3.240685 1.520661 -23.848038 1.659889 0.090994 0.181644
 11 -0.355311 0.627480 -30.760891 -0.296706 -0.000000 0.000000
 12 0.209673 -3.137409 -4.537346 0.000000 -0.000000 0.000000
 13 -0.336471 18.320856 -10.789918 1.288480 0.000001 0.000000
 14 0.011432 14.669043 -0.377853 -0.296707 0.000000 0.000000
 15 0.210528 25.621651 6.087189 0.349066 0.000000 0.000000
 16 0.325039 0.314665 5.117509 -0.069765 -0.052328 -0.001829
 17 -0.409779 2.182661 26.434919 -0.024659 -0.032649 0.179025
 18 -2.968816 36.066570 32.693222 0.240593 0.003610 -0.042174
 19 -0.380098 -2.640913 16.751852 0.000000 -0.000000 0.000000
 20 7.187249 -0.460705 16.472298 0.001021 -0.138856 -0.014689
 21 12.896105 3.303366 -12.884911 -0.157080 -0.000000 -0.000000
 22 9.818136 -2.393085 -11.768448 -0.280533 0.016352 -0.156232
 23 11.684986 2.308937 -7.513321 -0.000000 -0.000000 0.000000
 24 3.667336 0.402564 -5.537415 0.000000 -0.000000 0.000000
 25 -8.155171 -0.644957 16.761330 0.000143 -0.052073 -0.005478
 26 -12.364459 3.544242 -13.402786 0.084819 0.476689 0.009933
 27 -10.403898 -2.206009 -11.274464 -0.086427 0.127824 0.193462
 28 -3.262070 11.109829 31.808874 -0.086784 0.344924 -0.149654
 29 -16.089010 -105.559059 -25.635798 0.000000 -0.000000 0.000000
 30 -3.127525 0.571332 -6.062378 0.000000 -0.000000 0.000000
 31 -0.040494 -0.674471 8.862859 0.000000 -0.000000 0.000000
 32 0.289211 3.291785 167.749756 0.000000 -0.000000 0.000000
 33 0.000000 0.000000 0.000000 0.000000 -0.000000 0.000000
time 14
  0 -1.005915 2.634505 0.937462 0.000000 -0.000000 0.000000
  1 -1.005915 2.634505 0.937462 0.000000 -0.000000 0.000000
  2 -1.005915 2.634505 0.937462 0.000000 -0.000000 0.000000
  3 0.000000 0.798765 -18.362347 0.174559 0.000000 0.000000
  4 0.325039 0.314665 -2.968966 -1.095627 -0.000000 -0.000000
  5 6.206746 -0.124161 -11.733646 1.249900 -0.075061 -0.145784
  6 2.955697 1.729848 -23.848042 1.595982 0.010935 -0.089305
  7 0.292415 0.418289 -30.938541 -0.366519 0.000000 0.000000
  8 0.025498 -3.137413 -3.970852 0.000000 -0.000000 0.000000
  9 -6.833119 -0.124159 -11.733646 1.143163 0.227253 0.053300
 10 -3.240685 1.520660 -23.848038 1.659435 0.090961 0.181507
 11 -0.355309 0.627480 -30.760885 -0.296706 0.000000 0.000000
 12 0.209673 -3.137413 -4.537354 0.000000 -0.000000 0.000000
 13 -0.336471 18.320852 -10.789915 1.287288 0.000001 0.000000
 14 0.011432 14.669047 -0.377853 -0.296707 0.000000 0.000000
 15 0.210528 25.621649 6.087189 0.349066 0.000000 0.000000
 16 0.325039 0.314665 5.117507 -0.069765 -0.052328 -0.001829
 17 -0.409779 2.182661 26.434917 -0.024659 -0.032649 0.179025
 18 -2.968812 36.066570 32.693222 0.240593 0.003610 -0.042174
 19 -0.380094 -2.640915 16.751852 0.000000 -0.000000 0.000000
 20 7.187248 -0.460705 16.472298 0.001021 -0.138856 -0.014689
 21 12.896105 3.303364 -12.884909 -0.157080 -0.000000 -0.000000
 22 9.818136 -2.393084 -11.768449 -0.280533 0.016352 -0.156232
 23 11.684984 2.308938 -7.513321 0.000000 -0.000000 0.000000
 24 3.667337 0.402565 -5.537415 0.000000 -0.000000 0.000000
 25 -8.155171 -0.644957 16.761330 0.000143 -0.052073 -0.005478
 26 -12.364458 3.544242 -13.402788 0.084819 0.476689 0.009933
 27 -10.403901 -2.206011 -11.274464 -0.086427 0.127824 0.193462
 28 -3.224310 12.402868 36.757561 -0.100434 0.388100 -0.169200
 29 -16.088997 -105.559021 -25.635780 0.000000 -0.000000 0.000000
 30 -3.127525 0.571331 -6.062378 0.000000 -0.000000 0.000000
 31 -0.040494 -0.674471 8.862859 0.000000 -0.000000 0.000000
 32 0.289211 3.291785 167.749756 0.000000 -0.000000 0.000000
 33 0.000000 0.000000 0.000000 0.000000 -0.000000 0.000000
time 15
  0 -1.005915 2.634505 0.937462 0.000000 -0.000000 0.000000
  1 -1.005915 2.634505 0.937462 0.000000 -0.000000 0.000000
  2 -1.005915 2.634505 0.937462 0.000000 -0.000000 0.000000
  3 0.000000 0.798765 -23.867832 0.191986 0.000000 0.000000
  4 0.325039 0.314666 -2.968964 -1.072429 -0.000000 0.000000
  5 6.206746 -0.124159 -11.733645 1.213690 -0.076552 -0.140693
  6 2.955698 1.729849 -23.848047 1.583779 0.010692 -0.087320
  7 0.292416 0.418285 -30.938545 -0.366519 -0.000000 0.000000
  8 0.025499 -3.137417 -3.970856 0.000000 -0.000000 0.000000
  9 -6.833119 -0.124159 -11.733645 1.119721 0.225527 0.047514
 10 -3.240685 1.520660 -23.848045 1.642412 0.089303 0.177779
 11 -0.355311 0.627480 -30.760893 -0.296706 0.000000 0.000000
 12 0.209670 -3.137413 -4.537352 0.000000 -0.000000 0.000000
 13 -0.336471 18.320864 -10.789916 1.262157 0.000001 0.000000
 14 0.011432 14.669044 -0.377857 -0.296707 0.000000 0.000000
 15 0.210528 25.621649 6.087185 0.349066 0.000000 0.000000
 16 0.325039 0.314666 5.117510 -0.069765 -0.052328 -0.001829
 17 -0.409779 2.182663 26.434921 -0.024659 -0.032649 0.179025
 18 -2.968814 36.066574 32.693230 0.240593 0.003610 -0.042174
 19 -0.380095 -2.640912 16.751856 0.000000 -0.000000 0.000000
 20 7.187250 -0.460704 16.472300 0.001021 -0.138856 -0.014689
 21 12.896107 3.303362 -12.884911 -0.157080 -0.000000 -0.000000
 22 9.818140 -2.393086 -11.768450 -0.280533 0.016352 -0.156232
 23 11.684990 2.308937 -7.513321 -0.000000 -0.000000 0.000000
 24 3.667339 0.402564 -5.537415 0.000000 -0.000000 0.000000
 25 -8.155172 -0.644956 16.761330 0.000143 -0.052073 -0.005478
 26 -12.364461 3.544240 -13.402788 0.084819 0.476689 0.009933
 27 -10.403900 -2.206012 -11.274469 -0.086427 0.127824 0.193462
 28 -3.186216 13.707535 41.750706 -0.114534 0.431663 -0.188922
 29 -16.088982 -105.559059 -25.635780 0.000000 -0.000000 0.000000
 30 -3.127533 0.571334 -6.062378 0.000000 -0.000000 0.000000
 31 -0.040494 -0.674471 8.862859 0.000000 -0.000000 0.000000
 32 0.289211 3.291785 167.749756 0.000000 -0.000000 0.000000
 33 0.000000 0.000000 0.000000 0.000000 -0.000000 0.000000
time 16
  0 -1.005915 2.634505 0.937462 0.000000 -0.000000 0.000000
  1 -1.005915 2.634505 0.937462 0.000000 -0.000000 0.000000
  2 -1.005915 2.634505 0.937462 0.000000 -0.000000 0.000000
  3 0.000000 0.798765 -29.501646 0.209414 0.000000 0.000000
  4 0.325039 0.314665 -2.968966 -1.030796 -0.000000 0.000000
  5 6.206746 -0.124157 -11.733648 1.148703 -0.079226 -0.131555
  6 2.955699 1.729849 -23.848042 1.561879 0.010255 -0.083756
  7 0.292418 0.418282 -30.938543 -0.366519 0.000000 0.000000
  8 0.025498 -3.137417 -3.970856 0.000000 -0.000000 0.000000
  9 -6.833119 -0.124159 -11.733644 1.077253 0.222370 0.037129
 10 -3.240687 1.520662 -23.848038 1.611676 0.086302 0.171069
 11 -0.355311 0.627480 -30.760883 -0.296706 -0.000000 0.000000
 12 0.209673 -3.137413 -4.537350 0.000000 -0.000000 0.000000
 13 -0.336471 18.320862 -10.789917 1.217054 0.000001 0.000000
 14 0.011432 14.669044 -0.377850 -0.296707 0.000000 0.000000
 15 0.210527 25.621645 6.087189 0.349066 0.000000 0.000000
 16 0.325039 0.314665 5.117508 -0.069765 -0.052328 -0.001829
 17 -0.409778 2.182662 26.434921 -0.024659 -0.032649 0.179025
 18 -2.968812 36.066574 32.693218 0.240593 0.003610 -0.042174
 19 -0.380095 -2.640916 16.751852 0.000000 -0.000000 0.000000
 20 7.187249 -0.460704 16.472300 0.001021 -0.138856 -0.014689
 21 12.896109 3.303360 -12.884909 -0.157080 0.000000 -0.000000
 22 9.818134 -2.393086 -11.768452 -0.280533 0.016352 -0.156232
 23 11.684986 2.308937 -7.513321 0.000000 -0.000000 0.000000
 24 3.667336 0.402565 -5.537415 0.000000 -0.000000 0.000000
 25 -8.155171 -0.644956 16.761330 0.000143 -0.052073 -0.005478
 26 -12.364457 3.544240 -13.402792 0.084819 0.476689 0.009933
 27 -10.403903 -2.206012 -11.274466 -0.086427 0.127824 0.193462
 28 -3.148121 15.012194 46.743855 -0.129009 0.475226 -0.208643
 29 -16.088993 -105.559036 -25.635786 0.000000 -0.000000 0.000000
 30 -3.127533 0.571332 -6.062378 0.000000 -0.000000 0.000000
 31 -0.040494 -0.674471 8.862860 0.000000 -0.000000 0.000000
 32 0.289211 3.291785 167.749756 0.000000 -0.000000 0.000000
 33 0.000000 0.000000 0.000000 0.000000 -0.000000 0.000000
time 17
  0 -1.005915 2.634505 0.937462 0.000000 -0.000000 0.000000
  1 -1.005915 2.634505 0.937462 0.000000 -0.000000 0.000000
  2 -1.005915 2.634505 0.937462 0.000000 -0.000000 0.000000
  3 0.000000 0.798765 -35.197071 0.226686 0.000000 0.000000
  4 0.325039 0.314666 -2.968964 -0.973477 -0.000000 0.000000
  5 6.206746 -0.124163 -11.733646 1.059234 -0.082908 -0.118974
  6 2.955699 1.729849 -23.848045 1.531727 0.009655 -0.078849
  7 0.292416 0.418289 -30.938538 -0.366519 -0.000000 0.000000
  8 0.025497 -3.137417 -3.970856 0.000000 -0.000000 0.000000
  9 -6.833119 -0.124161 -11.733643 1.018143 0.217928 0.022832
 10 -3.240684 1.520659 -23.848045 1.569059 0.082131 0.161799
 11 -0.355312 0.627487 -30.760885 -0.296706 0.000000 0.000000
 12 0.209672 -3.137413 -4.537346 0.000000 -0.000000 0.000000
 13 -0.336471 18.320860 -10.789917 1.154958 0.000001 0.000000
 14 0.011432 14.669044 -0.377853 -0.296707 0.000000 0.000000
 15 0.210528 25.621647 6.087189 0.349066 0.000000 0.000000
 16 0.325039 0.314666 5.117504 -0.069765 -0.052328 -0.001829
 17 -0.409778 2.182660 26.434919 -0.024659 -0.032649 0.179024
 18 -2.968814 36.066582 32.693222 0.240593 0.003610 -0.042174
 19 -0.380095 -2.640915 16.751854 0.000000 -0.000000 0.000000
 20 7.187250 -0.460705 16.472298 0.001021 -0.138856 -0.014689
 21 12.896107 3.303364 -12.884910 -0.157080 -0.000000 -0.000000
 22 9.818138 -2.393084 -11.768454 -0.280533 0.016352 -0.156232
 23 11.684990 2.308939 -7.513321 -0.000000 -0.000000 0.000000
 24 3.667337 0.402565 -5.537415 0.000000 -0.000000 0.000000
 25 -8.155170 -0.644958 16.761328 0.000143 -0.052073 -0.005478
 26 -12.364461 3.544243 -13.402786 0.084819 0.476689 0.009933
 27 -10.403902 -2.206011 -11.274464 -0.086427 0.127824 0.193462
 28 -3.110355 16.305237 51.692528 -0.143779 0.518402 -0.228189
 29 -16.088993 -105.559052 -25.635784 0.000000 -0.000000 0.000000
 30 -3.127529 0.571332 -6.062378 0.000000 -0.000000 0.000000
 31 -0.040494 -0.674472 8.862858 0.000000 -0.000000 0.000000
 32 0.289211 3.291785 167.749756 0.000000 -0.000000 0.000000
 33 0.000000 0.000000 0.000000 0.000000 -0.000000 0.000000
time 18
  0 -1.005915 2.634505 0.937462 0.000000 -0.000000 0.000000
  1 -1.005915 2.634505 0.937462 0.000000 -0.000000 0.000000
  2 -1.005915 2.634505 0.937462 0.000000 -0.000000 0.000000
  3 0.000000 0.798765 -40.887386 0.243648 0.000000 0.000000
  4 0.325039 0.314665 -2.968964 -0.903223 -0.000000 0.000000
  5 6.206746 -0.124161 -11.733644 0.949574 -0.087421 -0.103555
  6 2.955697 1.729849 -23.848045 1.494772 0.008918 -0.072835
  7 0.292416 0.418282 -30.938547 -0.366519 -0.000000 0.000000
  8 0.025497 -3.137417 -3.970856 0.000000 -0.000000 0.000000
  9 -6.833119 -0.124161 -11.733644 0.944776 0.212348 0.005309
 10 -3.240687 1.520660 -23.848042 1.516394 0.076964 0.150388
 11 -0.355312 0.627487 -30.760889 -0.296706 0.000000 0.000000
 12 0.209671 -3.137421 -4.537354 0.000000 -0.000000 0.000000
 13 -0.336471 18.320856 -10.789915 1.078850 0.000001 0.000000
 14 0.011432 14.669042 -0.377850 -0.296707 -0.000000 0.000000
 15 0.210528 25.621641 6.087181 0.349066 0.000000 0.000000
 16 0.325039 0.314666 5.117512 -0.069765 -0.052328 -0.001829
 17 -0.409779 2.182660 26.434917 -0.024659 -0.032649 0.179024
 18 -2.968812 36.066574 32.693211 0.240593 0.003610 -0.042174
 19 -0.380095 -2.640915 16.751850 0.000000 -0.000000 0.000000
 20 7.187250 -0.460706 16.472298 0.001021 -0.138856 -0.014689
 21 12.896106 3.303363 -12.884907 -0.157080 0.000000 -0.000000
 22 9.818136 -2.393085 -11.768446 -0.280533 0.016352 -0.156232
 23 11.684986 2.308937 -7.513317 0.000000 -0.000000 0.000000
 24 3.667332 0.402563 -5.537415 0.000000 -0.000000 0.000000
 25 -8.155170 -0.644957 16.761330 0.000143 -0.052073 -0.005478
 26 -12.364459 3.544242 -13.402790 0.084819 0.476689 0.009933
 27 -10.403902 -2.206012 -11.274467 -0.086427 0.127824 0.193462
 28 -3.073280 17.575054 56.552315 -0.158769 0.560801 -0.247383
 29 -16.088997 -105.559052 -25.635782 0.000000 -0.000000 0.000000
 30 -3.127531 0.571333 -6.062382 0.000000 -0.000000 0.000000
 31 -0.040494 -0.674472 8.862858 0.000000 -0.000000 0.000000
 32 0.289211 3.291785 167.749756 0.000000 -0.000000 0.000000
 33 0.000000 0.000000 0.000000 0.000000 -0.000000 0.000000
time 19
  0 -1.005915 2.634505 0.937462 0.000000 -0.000000 0.000000
  1 -1.005915 2.634505 0.937462 0.000000 -0.000000 0.000000
  2 -1.005915 2.634505 0.937462 0.000000 -0.000000 0.000000
  3 0.000000 0.798765 -46.505878 0.260145 0.000000 0.000000
  4 0.325039 0.314666 -2.968964 -0.822785 -0.000000 0.000000
  5 6.206746 -0.124161 -11.733646 0.824017 -0.092588 -0.085900
  6 2.955697 1.729850 -23.848049 1.452460 0.008075 -0.065950
  7 0.292415 0.418289 -30.938543 -0.366519 -0.000000 0.000000
  8 0.025497 -3.137413 -3.970856 0.000000 -0.000000 0.000000
  9 -6.833119 -0.124161 -11.733646 0.859538 0.205774 -0.014755
 10 -3.240685 1.520658 -23.848038 1.455515 0.070972 0.137259
 11 -0.355312 0.627480 -30.760885 -0.296706 0.000000 0.000000
 12 0.209671 -3.137405 -4.537350 0.000000 -0.000000 0.000000
 13 -0.336471 18.320860 -10.789921 0.991709 0.000001 0.000000
 14 0.011432 14.669040 -0.377853 -0.296707 0.000000 0.000000
 15 0.210528 25.621645 6.087181 0.349066 0.000000 0.000000
 16 0.325039 0.314665 5.117512 -0.069765 -0.052328 -0.001829
 17 -0.409779 2.182661 26.434916 -0.024659 -0.032649 0.179025
 18 -2.968815 36.066574 32.693226 0.240593 0.003610 -0.042174
 19 -0.380095 -2.640914 16.751854 0.000000 -0.000000 0.000000
 20 7.187249 -0.460704 16.472294 0.001021 -0.138856 -0.014689
 21 12.896107 3.303365 -12.884909 -0.157080 -0.000000 0.000000
 22 9.818138 -2.393082 -11.768448 -0.280533 0.016352 -0.156232
 23 11.684988 2.308941 -7.513317 -0.000000 -0.000000 0.000000
 24 3.667337 0.402565 -5.537415 0.000000 -0.000000 0.000000
 25 -8.155172 -0.644957 16.761326 0.000143 -0.052073 -0.005478
 26 -12.364459 3.544242 -13.402788 0.084819 0.476689 0.009933
 27 -10.403906 -2.206011 -11.274464 -0.086427 0.127824 0.193462
 28 -3.037207 18.810028 61.278755 -0.173900 0.602038 -0.266052
 29 -16.088999 -105.559052 -25.635790 0.000000 -0.000000 0.000000
 30 -3.127533 0.571334 -6.062382 0.000000 -0.000000 0.000000
 31 -0.040494 -0.674471 8.862854 0.000000 -0.000000 0.000000
 32 0.289211 3.291785 167.749756 0.000000 -0.000000 0.000000
 33 0.000000 0.000000 0.000000 0.000000 -0.000000 0.000000
time 20
  0 -1.005915 2.634505 0.937462 0.000000 -0.000000 0.000000
  1 -1.005915 2.634505 0.937462 0.000000 -0.000000 0.000000
  2 -1.005915 2.634505 0.937462 0.000000 -0.000000 0.000000
  3 0.000000 0.798765 -51.985828 0.276021 0.000000 0.000000
  4 0.325039 0.314666 -2.968964 -0.734913 -0.000000 0.000000
  5 6.206746 -0.124161 -11.733646 0.686856 -0.098233 -0.066613
  6 2.955697 1.729845 -23.848049 1.406236 0.007154 -0.058428
  7 0.292416 0.418282 -30.938549 -0.366519 -0.000000 0.000000
  8 0.025498 -3.137421 -3.970856 0.000000 -0.000000 0.000000
  9 -6.833119 -0.124161 -11.733646 0.764813 0.198353 -0.036673
 10 -3.240687 1.520658 -23.848038 1.388254 0.064328 0.122834
 11 -0.355310 0.627480 -30.760887 -0.296706 -0.000000 0.000000
 12 0.209671 -3.137413 -4.537354 0.000000 -0.000000 0.000000
 13 -0.336471 18.320856 -10.789917 0.896514 0.000001 0.000000
 14 0.011432 14.669042 -0.377861 -0.296707 -0.000000 0.000000
 15 0.210528 25.621651 6.087181 0.349066 0.000000 0.000000
 16 0.325039 0.314665 5.117504 -0.069765 -0.052328 -0.001829
 17 -0.409779 2.182663 26.434923 -0.024659 -0.032649 0.179024
 18 -2.968815 36.066582 32.693230 0.240593 0.003610 -0.042174
 19 -0.380094 -2.640912 16.751858 0.000000 -0.000000 0.000000
 20 7.187249 -0.460704 16.472300 0.001021 -0.138856 -0.014689
 21 12.896106 3.303364 -12.884907 -0.157080 -0.000000 -0.000000
 22 9.818137 -2.393081 -11.768452 -0.280533 0.016352 -0.156232
 23 11.684988 2.308943 -7.513321 -0.000000 -0.000000 0.000000
 24 3.667334 0.402567 -5.537415 0.000000 -0.000000 0.000000
 25 -8.155173 -0.644955 16.761332 0.000143 -0.052073 -0.005478
 26 -12.364455 3.544240 -13.402792 0.084819 0.476689 0.009933
 27 -10.403905 -2.206011 -11.274464 -0.086427 0.127824 0.193462
 28 -3.002516 19.998554 65.827408 -0.189096 0.641723 -0.284017
 29 -16.088997 -105.559052 -25.635784 0.000000 -0.000000 0.000000
 30 -3.127531 0.571332 -6.062378 0.000000 -0.000000 0.000000
 31 -0.040494 -0.674470 8.862862 0.000000 -0.000000 0.000000
 32 0.289211 3.291785 167.749756 0.000000 -0.000000 0.000000
 33 0.000000 0.000000 0.000000 0.000000 -0.000000 0.000000
time 21
  0 -1.005915 2.634505 0.937462 0.000000 -0.000000 0.000000
  1 -1.005915 2.634505 0.937462 0.000000 -0.000000 0.000000
  2 -1.005915 2.634505 0.937462 0.000000 -0.000000 0.000000
  3 0.000000 0.798765 -57.260521 0.291121 0.000000 0.000000
  4 0.325039 0.314665 -2.968964 -0.642356 -0.000000 0.000000
  5 6.206746 -0.124161 -11.733643 0.542384 -0.104179 -0.046298
  6 2.955698 1.729846 -23.848045 1.357549 0.006184 -0.050505
  7 0.292417 0.418282 -30.938553 -0.366519 -0.000000 0.000000
  8 0.025496 -3.137421 -3.970856 0.000000 -0.000000 0.000000
  9 -6.833119 -0.124161 -11.733643 0.662987 0.190232 -0.059760
 10 -3.240685 1.520660 -23.848038 1.316445 0.057204 0.107534
 11 -0.355311 0.627480 -30.760883 -0.296706 0.000000 0.000000
 12 0.209672 -3.137413 -4.537354 0.000000 -0.000000 0.000000
 13 -0.336471 18.320860 -10.789917 0.796244 0.000000 0.000000
 14 0.011432 14.669043 -0.377846 -0.296707 0.000000 0.000000
 15 0.210528 25.621649 6.087181 0.349066 0.000000 0.000000
 16 0.325039 0.314664 5.117508 -0.069765 -0.052328 -0.001829
 17 -0.409779 2.182662 26.434921 -0.024659 -0.032649 0.179025
 18 -2.968816 36.066586 32.693222 0.240593 0.003610 -0.042174
 19 -0.380095 -2.640913 16.751850 0.000000 -0.000000 0.000000
 20 7.187250 -0.460704 16.472301 0.001021 -0.138856 -0.014689
 21 12.896110 3.303364 -12.884907 -0.157080 -0.000000 0.000000
 22 9.818139 -2.393083 -11.768448 -0.280533 0.016352 -0.156232
 23 11.684990 2.308941 -7.513321 -0.000000 -0.000000 0.000000
 24 3.667336 0.402565 -5.537415 0.000000 -0.000000 0.000000
 25 -8.155172 -0.644957 16.761333 0.000143 -0.052073 -0.005478
 26 -12.364462 3.544242 -13.402790 0.084819 0.476689 0.009933
 27 -10.403906 -2.206012 -11.274471 -0.086427 0.127824 0.193462
 28 -2.969491 21.128986 70.153778 -0.204279 0.679469 -0.301105
 29 -16.088989 -105.559052 -25.635782 0.000000 -0.000000 0.000000
 30 -3.127531 0.571334 -6.062386 0.000000 -0.000000 0.000000
 31 -0.040494 -0.674471 8.862862 0.000000 -0.000000 0.000000
 32 0.289211 3.291785 167.749756 0.000000 -0.000000 0.000000
 33 0.000000 0.000000 0.000000 0.000000 -0.000000 0.000000
time 22
  0 -1.005915 2.634505 0.937462 0.000000 -0.000000 0.000000
  1 -1.005915 2.634505 0.937462 0.000000 -0.000000 0.000000
  2 -1.005915 2.634505 0.937462 0.000000 -0.000000 0.000000
  3 0.000000 0.798765 -62.263237 0.305290 0.000000 0.000000
  4 0.325039 0.314666 -2.968964 -0.547866 -0.000000 0.000000
  5 6.206747 -0.124161 -11.733646 0.394893 -0.110249 -0.025559
  6 2.955698 1.729847 -23.848045 1.307845 0.005194 -0.042416
  7 0.292417 0.418289 -30.938553 -0.366519 -0.000000 0.000000
  8 0.025496 -3.137405 -3.970856 0.000000 -0.000000 0.000000
  9 -6.833118 -0.124161 -11.733654 0.556444 0.181554 -0.083329
 10 -3.240685 1.520658 -23.848038 1.241920 0.049774 0.091780
 11 -0.355309 0.627472 -30.760883 -0.296706 0.000000 0.000000
 12 0.209672 -3.137405 -4.537354 0.000000 -0.000000 0.000000
 13 -0.336471 18.320858 -10.789913 0.693879 0.000000 0.000000
 14 0.011432 14.669041 -0.377861 -0.296707 0.000000 0.000000
 15 0.210528 25.621649 6.087181 0.349066 0.000000 0.000000
 16 0.325039 0.314665 5.117508 -0.069765 -0.052328 -0.001829
 17 -0.409779 2.182661 26.434921 -0.024659 -0.032649 0.179025
 18 -2.968811 36.066582 32.693214 0.240593 0.003610 -0.042174
 19 -0.380094 -2.640916 16.751852 0.000000 -0.000000 0.000000
 20 7.187249 -0.460705 16.472301 0.001021 -0.138856 -0.014689
 21 12.896107 3.303364 -12.884911 -0.157080 0.000000 -0.000000
 22 9.818140 -2.393083 -11.768448 -0.280533 0.016352 -0.156232
 23 11.684986 2.308939 -7.513325 0.000000 -0.000000 0.000000
 24 3.667334 0.402565 -5.537411 0.000000 -0.000000 0.000000
 25 -8.155172 -0.644958 16.761330 0.000143 -0.052073 -0.005478
 26 -12.364462 3.544241 -13.402790 0.084819 0.476689 0.009933
 27 -10.403904 -2.206010 -11.274471 -0.086427 0.127824 0.193462
 28 -2.938524 22.189741 74.213501 -0.219371 0.714889 -0.317140
 29 -16.089008 -105.559059 -25.635771 0.000000 -0.000000 0.000000
 30 -3.127529 0.571332 -6.062378 0.000000 -0.000000 0.000000
 31 -0.040494 -0.674471 8.862862 0.000000 -0.000000 0.000000
 32 0.289211 3.291785 167.749756 0.000000 -0.000000 0.000000
 33 0.000000 0.000000 0.000000 0.000000 -0.000000 0.000000
time 23
  0 -1.005915 2.634505 0.937462 0.000000 -0.000000 0.000000
  1 -1.005915 2.634505 0.937462 0.000000 -0.000000 0.000000
  2 -1.005915 2.634505 0.937462 0.000000 -0.000000 0.000000
  3 0.000000 0.798765 -66.927261 0.318374 0.000000 0.000000
  4 0.325039 0.314667 -2.968960 -0.454192 -0.000000 0.000000
  5 6.206746 -0.124161 -11.733658 0.248676 -0.116266 -0.004999
  6 2.955697 1.729846 -23.848045 1.258570 0.004212 -0.034398
  7 0.292416 0.418289 -30.938549 -0.366519 -0.000000 0.000000
  8 0.025496 -3.137421 -3.970856 0.000000 -0.000000 0.000000
  9 -6.833118 -0.124161 -11.733658 0.447570 0.172468 -0.106694
 10 -3.240685 1.520662 -23.848038 1.166513 0.042210 0.075994
 11 -0.355307 0.627480 -30.760887 -0.296706 0.000000 0.000000
 12 0.209673 -3.137405 -4.537354 0.000000 -0.000000 0.000000
 13 -0.336471 18.320856 -10.789925 0.592399 0.000000 0.000000
 14 0.011432 14.669041 -0.377861 -0.296707 0.000000 0.000000
 15 0.210527 25.621647 6.087189 0.349066 0.000000 0.000000
 16 0.325039 0.314665 5.117508 -0.069765 -0.052328 -0.001829
 17 -0.409779 2.182660 26.434917 -0.024659 -0.032649 0.179025
 18 -2.968812 36.066582 32.693214 0.240593 0.003610 -0.042174
 19 -0.380095 -2.640913 16.751850 0.000000 -0.000000 0.000000
 20 7.187249 -0.460706 16.472301 0.001021 -0.138856 -0.014689
 21 12.896107 3.303365 -12.884911 -0.157080 0.000000 0.000000
 22 9.818139 -2.393083 -11.768448 -0.280533 0.016352 -0.156232
 23 11.684984 2.308941 -7.513321 0.000000 -0.000000 0.000000
 24 3.667337 0.402565 -5.537407 0.000000 -0.000000 0.000000
 25 -8.155172 -0.644958 16.761330 0.000143 -0.052073 -0.005478
 26 -12.364459 3.544243 -13.402782 0.084819 0.476689 0.009933
 27 -10.403904 -2.206009 -11.274460 -0.086427 0.127824 0.193462
 28 -2.909919 23.169220 77.962044 -0.234297 0.747594 -0.331945
 29 -16.089008 -105.559074 -25.635801 0.000000 -0.000000 0.000000
 30 -3.127533 0.571333 -6.062378 0.000000 -0.000000 0.000000
 31 -0.040495 -0.674471 8.862858 0.000000 -0.000000 0.000000
 32 0.289211 3.291785 167.749756 0.000000 -0.000000 0.000000
 33 0.000000 0.000000 0.000000 0.000000 -0.000000 0.000000
time 24
  0 -1.005915 2.634505 0.937462 0.000000 -0.000000 0.000000
  1 -1.005915 2.634505 0.937462 0.000000 -0.000000 0.000000
  2 -1.005915 2.634505 0.937462 0.000000 -0.000000 0.000000
  3 0.000000 0.798765 -71.185875 0.330216 0.000000 0.000000
  4 0.325039 0.314663 -2.968964 -0.364085 -0.000000 -0.000000
  5 6.206747 -0.124160 -11.733650 0.108027 -0.122055 0.014778
  6 2.955698 1.729848 -23.848045 1.211172 0.003267 -0.026684
  7 0.292415 0.418274 -30.938553 -0.366519 0.000000 0.000000
  8 0.025496 -3.137413 -3.970848 0.000000 -0.000000 0.000000
  9 -6.833119 -0.124161 -11.733643 0.338749 0.163118 -0.129170
 10 -3.240686 1.520660 -23.848045 1.092057 0.034684 0.060598
 11 -0.355308 0.627480 -30.760893 -0.296706 -0.000000 0.000000
 12 0.209671 -3.137421 -4.537346 0.000000 -0.000000 0.000000
 13 -0.336471 18.320856 -10.789917 0.494783 0.000000 0.000000
 14 0.011432 14.669044 -0.377861 -0.296707 0.000000 0.000000
 15 0.210528 25.621649 6.087181 0.349066 0.000000 0.000000
 16 0.325039 0.314663 5.117504 -0.069765 -0.052328 -0.001829
 17 -0.409779 2.182663 26.434921 -0.024659 -0.032649 0.179025
 18 -2.968811 36.066586 32.693222 0.240593 0.003610 -0.042174
 19 -0.380095 -2.640913 16.751852 0.000000 -0.000000 0.000000
 20 7.187249 -0.460704 16.472301 0.001021 -0.138856 -0.014689
 21 12.896101 3.303365 -12.884914 -0.157080 0.000000 -0.000000
 22 9.818135 -2.393083 -11.768448 -0.280533 0.016352 -0.156232
 23 11.684986 2.308943 -7.513321 -0.000000 -0.000000 0.000000
 24 3.667332 0.402567 -5.537415 0.000000 -0.000000 0.000000
 25 -8.155171 -0.644957 16.761333 0.000143 -0.052073 -0.005478
 26 -12.364461 3.544242 -13.402790 0.084819 0.476689 0.009933
 27 -10.403902 -2.206009 -11.274467 -0.086427 0.127824 0.193462
 28 -2.884053 24.055779 81.355049 -0.248977 0.777196 -0.345347
 29 -16.089005 -105.559059 -25.635784 0.000000 -0.000000 0.000000
 30 -3.127525 0.571329 -6.062378 0.000000 -0.000000 0.000000
 31 -0.040494 -0.674471 8.862858 0.000000 -0.000000 0.000000
 32 0.289211 3.291785 167.749756 0.000000 -0.000000 0.000000
 33 0.000000 0.000000 0.000000 0.000000 -0.000000 0.000000
time 25
  0 -1.005915 2.634505 0.937462 0.000000 -0.000000 0.000000
  1 -1.005915 2.634505 0.937462 0.000000 -0.000000 0.000000
  2 -1.005915 2.634505 0.937462 0.000000 -0.000000 0.000000
  3 0.000000 0.798765 -74.972359 0.340663 0.000000 0.000000
  4 0.325039 0.314667 -2.968964 -0.280295 -0.000000 0.000000
  5 6.206746 -0.124160 -11.733650 -0.022762 -0.127437 0.033169
  6 2.955698 1.729848 -23.848053 1.167096 0.002389 -0.019512
  7 0.292414 0.418282 -30.938553 -0.366519 0.000000 0.000000
  8 0.025496 -3.137413 -3.970856 0.000000 -0.000000 0.000000
  9 -6.833119 -0.124160 -11.733650 0.232366 0.153650 -0.150070
 10 -3.240686 1.520664 -23.848038 1.020385 0.027369 0.046012
 11 -0.355307 0.627472 -30.760895 -0.296706 -0.000000 0.000000
 12 0.209670 -3.137405 -4.537346 0.000000 -0.000000 0.000000
 13 -0.336471 18.320860 -10.789917 0.404010 0.000000 0.000000
 14 0.011432 14.669039 -0.377853 -0.296707 0.000000 0.000000
 15 0.210528 25.621647 6.087189 0.349066 0.000000 0.000000
 16 0.325039 0.314667 5.117508 -0.069765 -0.052328 -0.001829
 17 -0.409779 2.182661 26.434925 -0.024659 -0.032649 0.179025
 18 -2.968814 36.066578 32.693222 0.240593 0.003610 -0.042174
 19 -0.380095 -2.640914 16.751856 0.000000 -0.000000 0.000000
 20 7.187250 -0.460705 16.472301 0.001021 -0.138856 -0.014689
 21 12.896111 3.303364 -12.884911 -0.157080 -0.000000 0.000000
 22 9.818143 -2.393081 -11.768440 -0.280533 0.016352 -0.156232
 23 11.684986 2.308945 -7.513321 -0.000000 -0.000000 0.000000
 24 3.667332 0.402569 -5.537422 0.000000 -0.000000 0.000000
 25 -8.155171 -0.644957 16.761333 0.000143 -0.052073 -0.005478
 26 -12.364460 3.544240 -13.402790 0.084819 0.476689 0.009933
 27 -10.403902 -2.206011 -11.274460 -0.086427 0.127824 0.193462
 28 -2.861209 24.837795 84.347961 -0.263335 0.803308 -0.357168
 29 -16.089006 -105.559059 -25.635786 0.000000 -0.000000 0.000000
 30 -3.127527 0.571330 -6.062378 0.000000 -0.000000 0.000000
 31 -0.040494 -0.674471 8.862862 0.000000 -0.000000 0.000000
 32 0.289211 3.291785 167.749756 0.000000 -0.000000 0.000000
 33 0.000000 0.000000 0.000000 0.000000 -0.000000 0.000000
time 26
  0 -1.005915 2.634505 0.937462 0.000000 -0.000000 0.000000
  1 -1.005915 2.634505 0.937462 0.000000 -0.000000 0.000000
  2 -1.005915 2.634505 0.937462 0.000000 -0.000000 0.000000
  3 0.000000 0.798765 -78.220009 0.349557 0.000000 0.000000
  4 0.325039 0.314665 -2.968964 -0.205573 -0.000000 -0.000000
  5 6.206746 -0.124160 -11.733643 -0.139397 -0.132237 0.049569
  6 2.955697 1.729850 -23.848053 1.127790 0.001606 -0.013115
  7 0.292414 0.418297 -30.938564 -0.366519 0.000000 0.000000
  8 0.025495 -3.137413 -3.970856 0.000000 -0.000000 0.000000
  9 -6.833119 -0.124160 -11.733643 0.130807 0.144211 -0.168708
 10 -3.240688 1.520660 -23.848038 0.953330 0.020437 0.032659
 11 -0.355307 0.627472 -30.760895 -0.296706 -0.000000 0.000000
 12 0.209671 -3.137413 -4.537346 0.000000 -0.000000 0.000000
 13 -0.336471 18.320860 -10.789909 0.323060 0.000000 0.000000
 14 0.011432 14.669039 -0.377861 -0.296707 -0.000000 0.000000
 15 0.210528 25.621643 6.087189 0.349066 0.000000 0.000000
 16 0.325039 0.314667 5.117508 -0.069765 -0.052328 -0.001829
 17 -0.409779 2.182663 26.434921 -0.024659 -0.032649 0.179025
 18 -2.968811 36.066586 32.693222 0.240593 0.003610 -0.042174
 19 -0.380095 -2.640911 16.751850 0.000000 -0.000000 0.000000
 20 7.187250 -0.460705 16.472301 0.001021 -0.138856 -0.014689
 21 12.896111 3.303364 -12.884907 -0.157080 0.000000 0.000000
 22 9.818141 -2.393085 -11.768463 -0.280533 0.016352 -0.156232
 23 11.684990 2.308939 -7.513329 -0.000000 -0.000000 0.000000
 24 3.667339 0.402563 -5.537415 0.000000 -0.000000 0.000000
 25 -8.155173 -0.644955 16.761333 0.000143 -0.052073 -0.005478
 26 -12.364457 3.544245 -13.402786 0.084819 0.476689 0.009933
 27 -10.403902 -2.206011 -11.274460 -0.086427 0.127824 0.193462
 28 -2.841759 25.503670 86.896355 -0.277294 0.825542 -0.367233
 29 -16.089003 -105.559074 -25.635777 0.000000 -0.000000 0.000000
 30 -3.127529 0.571332 -6.062386 0.000000 -0.000000 0.000000
 31 -0.040494 -0.674469 8.862865 0.000000 -0.000000 0.000000
 32 0.289211 3.291785 167.749756 0.000000 -0.000000 0.000000
 33 0.000000 0.000000 0.000000 0.000000 -0.000000 0.000000
time 27
  0 -1.005915 2.634505 0.937462 0.000000 -0.000000 0.000000
  1 -1.005915 2.634505 0.937462 0.000000 -0.000000 0.000000
  2 -1.005915 2.634505 0.937462 0.000000 -0.000000 0.000000
  3 0.000000 0.798765 -80.862083 0.356745 0.000000 0.000000
  4 0.325039 0.314667 -2.968971 -0.142668 -0.000000 0.000000
  5 6.206746 -0.124163 -11.733650 -0.237587 -0.136278 0.063376
  6 2.955699 1.729847 -23.848053 1.094700 0.000947 -0.007730
  7 0.292415 0.418289 -30.938553 -0.366519 -0.000000 0.000000
  8 0.025497 -3.137417 -3.970848 0.000000 -0.000000 0.000000
  9 -6.833119 -0.124161 -11.733643 0.036457 0.134947 -0.184399
 10 -3.240685 1.520658 -23.848038 0.892726 0.014062 0.020960
 11 -0.355302 0.627472 -30.760883 -0.296706 -0.000000 0.000000
 12 0.209671 -3.137413 -4.537346 0.000000 -0.000000 0.000000
 13 -0.336471 18.320856 -10.789917 0.254913 0.000000 0.000000
 14 0.011432 14.669043 -0.377853 -0.296707 -0.000000 0.000000
 15 0.210528 25.621643 6.087181 0.349066 0.000000 0.000000
 16 0.325039 0.314667 5.117500 -0.069765 -0.052328 -0.001829
 17 -0.409779 2.182659 26.434914 -0.024659 -0.032649 0.179025
 18 -2.968815 36.066574 32.693222 0.240593 0.003610 -0.042174
 19 -0.380095 -2.640916 16.751854 0.000000 -0.000000 0.000000
 20 7.187249 -0.460705 16.472294 0.001021 -0.138856 -0.014689
 21 12.896109 3.303362 -12.884903 -0.157080 0.000000 0.000000
 22 9.818135 -2.393084 -11.768448 -0.280533 0.016352 -0.156232
 23 11.684992 2.308941 -7.513313 -0.000000 -0.000000 0.000000
 24 3.667337 0.402565 -5.537407 0.000000 -0.000000 0.000000
 25 -8.155170 -0.644957 16.761326 0.000143 -0.052073 -0.005478
 26 -12.364462 3.544241 -13.402782 0.084819 0.476689 0.009933
 27 -10.403902 -2.206009 -11.274467 -0.086427 0.127824 0.193462
 28 -2.826051 26.041800 88.955849 -0.290777 0.843510 -0.375368
 29 -16.088997 -105.559044 -25.635786 0.000000 -0.000000 0.000000
 30 -3.127527 0.571333 -6.062378 0.000000 -0.000000 0.000000
 31 -0.040494 -0.674473 8.862854 0.000000 -0.000000 0.000000
 32 0.289211 3.291785 167.749756 0.000000 -0.000000 0.000000
 33 0.000000 0.000000 0.000000 0.000000 -0.000000 0.000000
time 28
  0 -1.005915 2.634505 0.937462 0.000000 -0.000000 0.000000
  1 -1.005915 2.634505 0.937462 0.000000 -0.000000 0.000000
  2 -1.005915 2.634505 0.937462 0.000000 -0.000000 0.000000
  3 0.000000 0.798765 -82.831886 0.362072 0.000000 0.000000
  4 0.325039 0.314667 -2.968964 -0.094330 -0.000000 0.000000
  5 6.206746 -0.124161 -11.733643 -0.313037 -0.139383 0.073985
  6 2.955698 1.729848 -23.848045 1.069273 0.000440 -0.003593
  7 0.292414 0.418297 -30.938560 -0.366519 0.000000 0.000000
  8 0.025498 -3.137409 -3.970840 0.000000 -0.000000 0.000000
  9 -6.833119 -0.124161 -11.733650 -0.048301 0.126002 -0.196456
 10 -3.240686 1.520659 -23.848045 0.840405 0.008416 0.011336
 11 -0.355304 0.627472 -30.760895 -0.296706 0.000000 0.000000
 12 0.209673 -3.137405 -4.537354 0.000000 -0.000000 0.000000
 13 -0.336471 18.320856 -10.789917 0.202547 0.000000 0.000000
 14 0.011432 14.669041 -0.377861 -0.296707 0.000000 0.000000
 15 0.210528 25.621643 6.087181 0.349066 0.000000 0.000000
 16 0.325039 0.314665 5.117508 -0.069765 -0.052328 -0.001829
 17 -0.409780 2.182661 26.434917 -0.024659 -0.032649 0.179024
 18 -2.968814 36.066582 32.693222 0.240593 0.003610 -0.042174
 19 -0.380096 -2.640915 16.751852 0.000000 -0.000000 0.000000
 20 7.187249 -0.460703 16.472298 0.001021 -0.138856 -0.014689
 21 12.896111 3.303364 -12.884911 -0.157080 -0.000000 -0.000000
 22 9.818140 -2.393081 -11.768448 -0.280533 0.016352 -0.156232
 23 11.684988 2.308941 -7.513329 -0.000000 -0.000000 0.000000
 24 3.667334 0.402565 -5.537422 0.000000 -0.000000 0.000000
 25 -8.155172 -0.644957 16.761330 0.000143 -0.052073 -0.005478
 26 -12.364458 3.544243 -13.402786 0.084819 0.476689 0.009933
 27 -10.403902 -2.206009 -11.274467 -0.086427 0.127824 0.193462
 28 -2.814380 26.440552 90.481934 -0.303705 0.856825 -0.381395
 29 -16.088997 -105.559067 -25.635792 0.000000 -0.000000 0.000000
 30 -3.127533 0.571331 -6.062378 0.000000 -0.000000 0.000000
 31 -0.040494 -0.674471 8.862862 0.000000 -0.000000 0.000000
 32 0.289211 3.291785 167.749756 0.000000 -0.000000 0.000000
 33 0.000000 0.000000 0.000000 0.000000 -0.000000 0.000000
time 29
  0 -1.005915 2.634505 0.937462 0.000000 -0.000000 0.000000
  1 -1.005915 2.634505 0.937462 0.000000 -0.000000 0.000000
  2 -1.005915 2.634505 0.937462 0.000000 -0.000000 0.000000
  3 0.000000 0.798765 -84.062698 0.365382 0.000000 0.000000
  4 0.325039 0.314665 -2.968964 -0.063311 -0.000000 -0.000000
  5 6.206746 -0.124161 -11.733650 -0.361456 -0.141376 0.080794
  6 2.955698 1.729849 -23.848038 1.052956 0.000115 -0.000937
  7 0.292413 0.418289 -30.938568 -0.366519 0.000000 0.000000
  8 0.025500 -3.137405 -3.970840 0.000000 -0.000000 0.000000
  9 -6.833119 -0.124159 -11.733643 -0.121079 0.117524 -0.204193
 10 -3.240685 1.520661 -23.848045 0.798200 0.003671 0.004209
 11 -0.355305 0.627472 -30.760887 -0.296706 0.000000 0.000000
 12 0.209671 -3.137413 -4.537354 0.000000 -0.000000 0.000000
 13 -0.336471 18.320856 -10.789925 0.168943 -0.000000 0.000000
 14 0.011432 14.669043 -0.377861 -0.296707 0.000000 0.000000
 15 0.210528 25.621651 6.087189 0.349066 0.000000 0.000000
 16 0.325039 0.314665 5.117508 -0.069765 -0.052328 -0.001829
 17 -0.409779 2.182663 26.434921 -0.024659 -0.032649 0.179024
 18 -2.968811 36.066574 32.693214 0.240593 0.003610 -0.042174
 19 -0.380096 -2.640915 16.751850 0.000000 -0.000000 0.000000
 20 7.187249 -0.460703 16.472305 0.001021 -0.138856 -0.014689
 21 12.896111 3.303366 -12.884911 -0.157080 -0.000000 0.000000
 22 9.818137 -2.393081 -11.768448 -0.280533 0.016352 -0.156232
 23 11.684986 2.308941 -7.513313 -0.000000 -0.000000 0.000000
 24 3.667332 0.402565 -5.537407 0.000000 -0.000000 0.000000
 25 -8.155170 -0.644955 16.761333 0.000143 -0.052073 -0.005478
 26 -12.364462 3.544241 -13.402786 0.084819 0.476689 0.009933
 27 -10.403900 -2.206013 -11.274467 -0.086427 0.127824 0.193462
 28 -2.807166 26.688335 91.430214 -0.316002 0.865098 -0.385140
 29 -16.088987 -105.559052 -25.635773 0.000000 -0.000000 0.000000
 30 -3.127523 0.571333 -6.062378 0.000000 -0.000000 0.000000
 31 -0.040494 -0.674471 8.862862 0.000000 -0.000000 0.000000
 32 0.289211 3.291785 167.749756 0.000000 -0.000000 0.000000
 33 0.000000 0.000000 0.000000 0.000000 -0.000000 0.000000
time 30
  0 -1.005915 2.634505 0.937462 0.000000 -0.000000 0.000000
  1 -1.005915 2.634505 0.937462 0.000000 -0.000000 0.000000
  2 -1.005915 2.634505 0.937462 0.000000 -0.000000 0.000000
  3 0.000000 0.798765 -84.487793 0.366519 0.000000 0.000000
  4 0.325039 0.314665 -2.968964 -0.052360 0.000000 0.000000
  5 6.206746 -0.124161 -11.733643 -0.378549 -0.142079 0.083197
  6 2.955697 1.729847 -23.848053 1.047196 -0.000000 0.000000
  7 0.292415 0.418297 -30.938568 -0.366519 -0.000000 0.000000
  8 0.025497 -3.137409 -3.970856 0.000000 -0.000000 0.000000
  9 -6.833119 -0.124161 -11.733643 -0.179494 0.109658 -0.206924
 10 -3.240685 1.520660 -23.848038 0.767945 0.000000 0.000000
 11 -0.355306 0.627472 -30.760887 -0.296706 -0.000000 0.000000
 12 0.209673 -3.137424 -4.537338 0.000000 -0.000000 0.000000
 13 -0.336471 18.320856 -10.789909 0.157080 0.000000 0.000000
 14 0.011432 14.669046 -0.377846 -0.296707 0.000000 0.000000
 15 0.210528 25.621651 6.087196 0.349066 0.000000 0.000000
 16 0.325039 0.314667 5.117516 -0.069765 -0.052328 -0.001829
 17 -0.409779 2.182659 26.434921 -0.024659 -0.032649 0.179024
 18 -2.968819 36.066574 32.693222 0.240593 0.003610 -0.042174
 19 -0.380096 -2.640915 16.751854 0.000000 -0.000000 0.000000
 20 7.187250 -0.460707 16.472298 0.001021 -0.138856 -0.014689
 21 12.896105 3.303364 -12.884911 -0.157080 0.000000 -0.000000
 22 9.818141 -2.393083 -11.768440 -0.280533 0.016352 -0.156232
 23 11.684990 2.308941 -7.513321 -0.000000 -0.000000 0.000000
 24 3.667334 0.402565 -5.537422 0.000000 -0.000000 0.000000
 25 -8.155170 -0.644957 16.761330 0.000143 -0.052073 -0.005478
 26 -12.364458 3.544243 -13.402790 0.084819 0.476689 0.009933
 27 -10.403900 -2.206009 -11.274460 -0.086427 0.127824 0.193462
 28 -2.804662 26.773479 91.756149 -0.327591 0.867942 -0.386428
 29 -16.089001 -105.559074 -25.635777 0.000000 -0.000000 0.000000
 30 -3.127529 0.571331 -6.062378 0.000000 -0.000000 0.000000
 31 -0.040494 -0.674473 8.862854 0.000000 -0.000000 0.000000
 32 0.289211 3.291785 167.749756 0.000000 -0.000000 0.000000
 33 0.000000 0.000000 0.000000 0.000000 -0.000000 0.000000
end
