version 1
nodes
  0 "bone_27"  -1
  1 "bone_29"   0
  2 "bone_30"   1
  3 "bone_26"   0
  4 "bone_3"   3
  5 "bone_28"   3
  6 "bone_7"   5
  7 "bone_10"   5
  8 "bone_11"   5
  9 "bone_12"   5
 10 "bone_13"   5
 11 "bone_0"   3
 12 "bone_14"  11
 13 "bone_1"  12
 14 "bone_5"  13
 15 "bone_16"  14
 16 "bone_18"  13
 17 "bone_15"  13
 18 "bone_23"   3
 19 "bone_24"  18
 20 "bone_2"  19
 21 "bone_19"  20
 22 "bone_20"   3
 23 "bone_34"   0
 24 "bone_33"   0
 25 "bone_21"  -1
end
skeleton
time 0
  0 2.650860 -0.017416 127.640564 0.471239 0.000000 0.000000
  1 -0.186268 0.167370 -1.425575 -0.104720 0.000000 0.000000
  2 0.923381 -2.004177 -52.426414 0.837758 0.000000 -0.000000
  3 0.209927 0.167370 2.417717 0.087267 0.000000 0.000000
  4 -0.585070 71.233528 -54.342319 0.087266 0.000000 -0.000000
  5 -0.737603 -0.548828 40.203667 -0.261799 0.000000 0.000000
  6 2.553308 7.297705 96.216141 0.000000 -0.000000 0.000000
  7 25.337774 -9.646725 2.086899 -0.000011 -0.139632 -0.000607
  8 -23.810328 -7.093719 2.086899 -0.226045 0.064723 0.026189
  9 -7.352506 52.005493 -48.397369 0.907570 0.000000 0.000000
 10 -0.684172 -0.276026 30.967392 0.000000 -0.000000 0.000000
 11 -13.534456 -1.160919 22.015190 3.019416 0.000000 0.000000
 12 -20.972826 -0.005867 -27.595078 0.000000 0.209439 0.000000
 13 -18.070238 -6.045795 -20.586182 2.577424 0.599609 -0.374444
 14 5.932724 -5.752621 0.181671 -1.147835 0.866904 -0.065273
 15 153.364700 62.140015 16.877747 1.078144 0.001989 0.109675
 16 0.671982 2.506065 -6.693909 0.000000 -0.000000 0.000000
 17 18.407455 -176.793976 8.075211 -0.009445 0.966446 0.010673
 18 12.176291 -0.829262 23.085014 -0.330962 0.156863 0.008289
 19 23.438770 1.362858 -28.210800 0.622483 0.147093 -0.046223
 20 17.520050 -4.855522 -21.387650 -0.559663 -0.318451 0.327741
 21 6.597054 5.855789 -9.931351 0.000000 -0.000000 0.000000
 22 -0.072890 -1.214043 9.388039 0.000000 -0.000000 0.000000
 23 0.000010 -5.381657 -154.110336 -0.034538 -0.005058 -0.145357
 24 0.000010 -5.381657 -154.110336 -0.034538 -0.005058 -0.145357
 25 2.650860 -0.017416 279.065491 0.000000 -0.000000 0.000000
time 1
  0 2.650860 -0.017416 127.308121 0.471239 0.000000 0.000000
  1 -0.186268 0.167366 -1.425575 -0.104720 0.000000 0.000000
  2 0.923381 -2.004177 -52.426414 0.829598 0.000000 -0.000000
  3 0.209927 0.173874 2.430481 0.087891 0.000000 0.000000
  4 -0.585069 69.626984 -54.961700 0.087266 0.000000 -0.000000
  5 -0.737603 -0.548843 40.203674 -0.261799 0.000000 0.000000
  6 2.553308 7.297697 96.216110 0.000000 -0.000000 0.000000
  7 25.337774 -9.646730 2.086914 -0.000011 -0.139632 -0.000607
  8 -23.810328 -7.093721 2.086914 -0.226045 0.064723 0.026189
  9 -7.352506 52.005478 -48.397377 0.902346 0.000000 0.000000
 10 -0.684172 -0.276030 30.967392 0.000000 -0.000000 0.000000
 11 -13.534456 -1.160927 22.015198 3.019416 -0.000000 0.000000
 12 -20.972826 -0.005867 -27.595078 0.000000 0.209439 0.000000
 13 -18.070238 -6.045792 -20.586182 2.577424 0.599609 -0.374444
 14 5.932724 -5.752621 0.181671 -1.147835 0.866904 -0.065273
 15 153.364716 62.139984 16.877743 1.078144 0.001989 0.109675
 16 0.671982 2.506065 -6.693909 0.000000 -0.000000 0.000000
 17 18.407471 -176.793945 8.075211 -0.009445 0.966446 0.010673
 18 12.176291 -0.829277 23.085022 -0.330962 0.156863 0.008289
 19 23.438766 1.362862 -28.210808 0.622483 0.147093 -0.046223
 20 17.520050 -4.855515 -21.387650 -0.559663 -0.318451 0.327741
 21 6.597054 5.855789 -9.931351 0.000000 -0.000000 0.000000
 22 -0.072890 -1.214050 9.388039 0.000000 -0.000000 0.000000
 23 0.000011 -5.381660 -154.110336 -0.034538 -0.005058 -0.145357
 24 0.000011 -5.381660 -154.110336 -0.034538 -0.005058 -0.145357
 25 2.650860 -0.017416 279.065491 0.000000 -0.000000 0.000000
time 2
  0 2.650860 -0.017416 126.366013 0.471239 0.000000 0.000000
  1 -0.186268 0.167366 -1.425575 -0.104720 0.000000 0.000000
  2 0.923381 -2.004177 -52.426414 0.807506 0.000000 -0.000000
  3 0.209927 0.192196 2.466446 0.089669 0.000000 0.000000
  4 -0.585068 65.070168 -56.718567 0.087266 0.000000 -0.000000
  5 -0.737603 -0.548843 40.203667 -0.261799 0.000000 -0.000000
  6 2.553308 7.297693 96.216125 0.000000 -0.000000 0.000000
  7 25.337774 -9.646732 2.086884 -0.000011 -0.139632 -0.000607
  8 -23.810328 -7.093719 2.086884 -0.226045 0.064723 0.026189
  9 -7.352506 52.005486 -48.397392 0.887734 0.000000 0.000000
 10 -0.684172 -0.276030 30.967377 0.000000 -0.000000 0.000000
 11 -13.534456 -1.160927 22.015205 3.019416 0.000000 0.000000
 12 -20.972828 -0.005875 -27.595078 0.000000 0.209439 -0.000000
 13 -18.070232 -6.045792 -20.586197 2.577424 0.599609 -0.374444
 14 5.932716 -5.752625 0.181671 -1.147835 0.866904 -0.065273
 15 153.364716 62.139999 16.877747 1.078144 0.001989 0.109675
 16 0.671967 2.506062 -6.693924 0.000000 -0.000000 0.000000
 17 18.407455 -176.793976 8.075211 -0.009445 0.966446 0.010673
 18 12.176291 -0.829269 23.085014 -0.330962 0.156863 0.008289
 19 23.438770 1.362864 -28.210808 0.622483 0.147093 -0.046223
 20 17.520050 -4.855530 -21.387653 -0.559663 -0.318451 0.327741
 21 6.597054 5.855789 -9.931351 0.000000 -0.000000 0.000000
 22 -0.072890 -1.214050 9.388023 0.000000 -0.000000 0.000000
 23 0.000011 -5.381660 -154.110336 -0.034538 -0.005058 -0.145357
 24 0.000011 -5.381660 -154.110336 -0.034538 -0.005058 -0.145357
 25 2.650860 -0.017416 279.065491 0.000000 -0.000000 0.000000
time 3
  0 2.650860 -0.017416 124.897087 0.471239 0.000000 0.000000
  1 -0.186268 0.167370 -1.425575 -0.104720 0.000000 0.000000
  2 0.923381 -2.004177 -52.426407 0.775064 0.000000 -0.000000
  3 0.209926 0.220554 2.522095 0.092455 0.000000 0.000000
  4 -0.585065 57.957253 -59.460899 0.087266 0.000000 0.000000
  5 -0.737603 -0.548843 40.203659 -0.261799 0.000000 -0.000000
  6 2.553308 7.297701 96.216141 0.000000 -0.000000 0.000000
  7 25.337772 -9.646730 2.086914 -0.000011 -0.139632 -0.000607
  8 -23.810328 -7.093725 2.086899 -0.226045 0.064723 0.026189
  9 -7.352506 52.005478 -48.397377 0.865323 0.000000 0.000000
 10 -0.684172 -0.276031 30.967377 0.000000 -0.000000 0.000000
 11 -13.534455 -1.160927 22.015198 3.019416 0.000000 0.000000
 12 -20.972828 -0.005867 -27.595078 0.000000 0.209439 0.000000
 13 -18.070232 -6.045795 -20.586182 2.577424 0.599609 -0.374444
 14 5.932724 -5.752621 0.181671 -1.147835 0.866904 -0.065273
 15 153.364716 62.140022 16.877747 1.078144 0.001989 0.109675
 16 0.671982 2.506062 -6.693909 0.000000 -0.000000 0.000000
 17 18.407455 -176.793976 8.075195 -0.009445 0.966446 0.010673
 18 12.176291 -0.829277 23.085007 -0.330962 0.156863 0.008289
 19 23.438766 1.362864 -28.210800 0.622483 0.147093 -0.046223
 20 17.520046 -4.855522 -21.387665 -0.559663 -0.318451 0.327741
 21 6.597046 5.855785 -9.931358 0.000000 -0.000000 0.000000
 22 -0.072890 -1.214050 9.388039 0.000000 -0.000000 0.000000
 23 0.000010 -5.381657 -154.110336 -0.034538 -0.005058 -0.145357
 24 0.000010 -5.381657 -154.110336 -0.034538 -0.005058 -0.145357
 25 2.650860 -0.017416 279.065491 0.000000 -0.000000 0.000000
time 4
  0 2.650860 -0.017416 122.984184 0.471239 0.000000 0.000000
  1 -0.186268 0.167370 -1.425575 -0.104720 0.000000 0.000000
  2 0.923381 -2.004173 -52.426407 0.735851 0.000000 -0.000000
  3 0.209926 0.257160 2.593941 0.096105 0.000000 0.000000
  4 -0.585062 48.682449 -63.036732 0.087267 0.000000 -0.000000
  5 -0.737603 -0.548836 40.203682 -0.261799 0.000000 0.000000
  6 2.553308 7.297709 96.216141 0.000000 -0.000000 0.000000
  7 25.337774 -9.646730 2.086914 -0.000011 -0.139632 -0.000607
  8 -23.810328 -7.093719 2.086914 -0.226045 0.064723 0.026189
  9 -7.352506 52.005486 -48.397377 0.836703 0.000000 0.000000
 10 -0.684172 -0.276030 30.967392 0.000000 -0.000000 0.000000
 11 -13.534456 -1.160927 22.015205 3.019416 -0.000000 0.000000
 12 -20.972828 -0.005871 -27.595078 -0.000000 0.209439 -0.000000
 13 -18.070236 -6.045788 -20.586182 2.577425 0.599609 -0.374444
 14 5.932739 -5.752625 0.181671 -1.147835 0.866904 -0.065273
 15 153.364716 62.140022 16.877750 1.078144 0.001989 0.109675
 16 0.671989 2.506062 -6.693909 0.000000 -0.000000 0.000000
 17 18.407463 -176.793945 8.075211 -0.009445 0.966446 0.010673
 18 12.176291 -0.829277 23.085014 -0.330962 0.156863 0.008289
 19 23.438774 1.362862 -28.210808 0.622482 0.147093 -0.046223
 20 17.520050 -4.855522 -21.387665 -0.559663 -0.318451 0.327741
 21 6.597050 5.855789 -9.931358 0.000000 -0.000000 0.000000
 22 -0.072890 -1.214050 9.388046 0.000000 -0.000000 0.000000
 23 0.000010 -5.381657 -154.110336 -0.034538 -0.005058 -0.145357
 24 0.000010 -5.381657 -154.110336 -0.034538 -0.005058 -0.145357
 25 2.650860 -0.017416 279.065491 0.000000 -0.000000 0.000000
time 5
  0 2.650860 -0.017416 120.710152 0.471239 0.000000 0.000000
  1 -0.186268 0.167370 -1.425583 -0.104720 0.000000 0.000000
  2 0.923381 -2.004173 -52.426407 0.693449 0.000000 -0.000000
  3 0.209926 0.300240 2.678482 0.100475 0.000000 0.000000
  4 -0.585058 37.639946 -67.294098 0.087267 0.000000 -0.000000
  5 -0.737603 -0.548843 40.203667 -0.261799 0.000000 -0.000000
  6 2.553308 7.297701 96.216125 0.000000 -0.000000 0.000000
  7 25.337772 -9.646727 2.086914 -0.000011 -0.139632 -0.000607
  8 -23.810328 -7.093716 2.086914 -0.226045 0.064723 0.026189
  9 -7.352507 52.005486 -48.397377 0.803463 0.000000 0.000000
 10 -0.684172 -0.276030 30.967392 0.000000 -0.000000 0.000000
 11 -13.534456 -1.160919 22.015205 3.019416 0.000000 0.000000
 12 -20.972828 -0.005871 -27.595078 0.000000 0.209439 -0.000000
 13 -18.070234 -6.045788 -20.586166 2.577424 0.599609 -0.374444
 14 5.932716 -5.752621 0.181671 -1.147835 0.866904 -0.065273
 15 153.364685 62.140022 16.877747 1.078144 0.001989 0.109675
 16 0.671974 2.506063 -6.693924 0.000000 -0.000000 0.000000
 17 18.407448 -176.793930 8.075226 -0.009445 0.966446 0.010673
 18 12.176291 -0.829262 23.085030 -0.330962 0.156863 0.008289
 19 23.438774 1.362860 -28.210815 0.622483 0.147093 -0.046223
 20 17.520050 -4.855530 -21.387661 -0.559663 -0.318451 0.327741
 21 6.597050 5.855785 -9.931358 0.000000 -0.000000 0.000000
 22 -0.072890 -1.214043 9.388039 0.000000 -0.000000 0.000000
 23 0.000010 -5.381657 -154.110336 -0.034538 -0.005058 -0.145357
 24 0.000010 -5.381657 -154.110336 -0.034538 -0.005058 -0.145357
 25 2.650860 -0.017416 279.065491 0.000000 -0.000000 0.000000
time 6
  0 2.650860 -0.017416 118.157822 0.471239 0.000000 0.000000
  1 -0.186268 0.167370 -1.425575 -0.104720 0.000000 0.000000
  2 0.923381 -2.004181 -52.426411 0.651438 0.000000 -0.000000
  3 0.209926 0.347996 2.772224 0.105420 0.000000 0.000000
  4 -0.585054 25.223923 -72.081009 0.087266 0.000000 -0.000000
  5 -0.737603 -0.548836 40.203667 -0.261799 0.000000 -0.000000
  6 2.553308 7.297707 96.216125 0.000000 -0.000000 0.000000
  7 25.337772 -9.646725 2.086914 -0.000011 -0.139632 -0.000607
  8 -23.810328 -7.093718 2.086914 -0.226045 0.064723 0.026189
  9 -7.352507 52.005486 -48.397377 0.767194 0.000000 0.000000
 10 -0.684172 -0.276028 30.967392 0.000000 -0.000000 0.000000
 11 -13.534455 -1.160923 22.015198 3.019416 -0.000000 0.000000
 12 -20.972828 -0.005867 -27.595062 0.000000 0.209439 -0.000000
 13 -18.070230 -6.045792 -20.586182 2.577424 0.599609 -0.374444
 14 5.932724 -5.752619 0.181671 -1.147835 0.866904 -0.065273
 15 153.364685 62.139977 16.877739 1.078144 0.001989 0.109675
 16 0.671982 2.506062 -6.693924 0.000000 -0.000000 0.000000
 17 18.407455 -176.793961 8.075211 -0.009445 0.966446 0.010673
 18 12.176291 -0.829269 23.085014 -0.330962 0.156863 0.008289
 19 23.438774 1.362862 -28.210800 0.622483 0.147093 -0.046223
 20 17.520048 -4.855522 -21.387650 -0.559663 -0.318451 0.327741
 21 6.597057 5.855789 -9.931351 0.000000 -0.000000 0.000000
 22 -0.072890 -1.214043 9.388039 0.000000 -0.000000 0.000000
 23 0.000011 -5.381657 -154.110336 -0.034538 -0.005058 -0.145357
 24 0.000011 -5.381657 -154.110336 -0.034538 -0.005058 -0.145357
 25 2.650860 -0.017416 279.065491 0.000000 -0.000000 0.000000
time 7
  0 2.650860 -0.017416 115.410049 0.471239 0.000000 0.000000
  1 -0.186268 0.167370 -1.425575 -0.104720 0.000000 0.000000
  2 0.923381 -2.004177 -52.426414 0.613400 0.000000 -0.000000
  3 0.209926 0.398655 2.871651 0.110797 0.000000 0.000000
  4 -0.585048 11.828568 -77.245506 0.087266 0.000000 -0.000000
  5 -0.737603 -0.548836 40.203674 -0.261799 0.000000 -0.000000
  6 2.553308 7.297701 96.216125 0.000000 -0.000000 0.000000
  7 25.337770 -9.646730 2.086914 -0.000011 -0.139632 -0.000607
  8 -23.810328 -7.093721 2.086914 -0.226045 0.064723 0.026189
  9 -7.352506 52.005493 -48.397385 0.729484 0.000000 0.000000
 10 -0.684172 -0.276035 30.967377 0.000000 -0.000000 0.000000
 11 -13.534455 -1.160919 22.015198 3.019416 -0.000000 0.000000
 12 -20.972828 -0.005863 -27.595093 0.000000 0.209439 0.000000
 13 -18.070234 -6.045792 -20.586182 2.577424 0.599609 -0.374444
 14 5.932724 -5.752619 0.181671 -1.147835 0.866904 -0.065273
 15 153.364700 62.139999 16.877769 1.078144 0.001989 0.109675
 16 0.671989 2.506063 -6.693909 0.000000 -0.000000 0.000000
 17 18.407455 -176.793945 8.075211 -0.009445 0.966446 0.010673
 18 12.176291 -0.829262 23.085022 -0.330962 0.156863 0.008289
 19 23.438770 1.362862 -28.210808 0.622483 0.147093 -0.046223
 20 17.520044 -4.855522 -21.387653 -0.559663 -0.318451 0.327741
 21 6.597054 5.855789 -9.931355 0.000000 -0.000000 0.000000
 22 -0.072890 -1.214046 9.388039 0.000000 -0.000000 0.000000
 23 0.000011 -5.381657 -154.110336 -0.034538 -0.005058 -0.145357
 24 0.000011 -5.381657 -154.110336 -0.034538 -0.005058 -0.145357
 25 2.650860 -0.017416 279.065491 0.000000 -0.000000 0.000000
time 8
  0 2.650860 -0.017416 112.549652 0.471239 0.000000 0.000000
  1 -0.186268 0.167370 -1.425583 -0.104720 0.000000 0.000000
  2 0.923381 -2.004177 -52.426407 0.582916 0.000000 -0.000000
  3 0.209926 0.450428 2.973251 0.116459 0.000000 -0.000000
  4 -0.585043 -2.151905 -82.635582 0.087266 0.000000 -0.000000
  5 -0.737603 -0.548840 40.203674 -0.261799 0.000000 0.000000
  6 2.553308 7.297703 96.216141 0.000000 -0.000000 0.000000
  7 25.337770 -9.646730 2.086914 -0.000011 -0.139632 -0.000607
  8 -23.810328 -7.093719 2.086914 -0.226045 0.064723 0.026189
  9 -7.352507 52.005486 -48.397400 0.691922 0.000000 0.000000
 10 -0.684172 -0.276028 30.967392 0.000000 -0.000000 0.000000
 11 -13.534456 -1.160927 22.015205 3.019416 -0.000000 0.000000
 12 -20.972828 -0.005867 -27.595062 0.000000 0.209439 -0.000000
 13 -18.070230 -6.045799 -20.586182 2.577424 0.599609 -0.374444
 14 5.932732 -5.752619 0.181671 -1.147835 0.866904 -0.065273
 15 153.364685 62.139969 16.877747 1.078144 0.001989 0.109675
 16 0.671974 2.506063 -6.693924 0.000000 -0.000000 0.000000
 17 18.407471 -176.793930 8.075211 -0.009445 0.966446 0.010673
 18 12.176291 -0.829273 23.085030 -0.330962 0.156863 0.008289
 19 23.438772 1.362864 -28.210808 0.622483 0.147093 -0.046223
 20 17.520046 -4.855522 -21.387653 -0.559663 -0.318451 0.327741
 21 6.597054 5.855789 -9.931355 0.000000 -0.000000 0.000000
 22 -0.072890 -1.214050 9.388046 0.000000 -0.000000 0.000000
 23 0.000011 -5.381657 -154.110336 -0.034538 -0.005058 -0.145357
 24 0.000011 -5.381657 -154.110336 -0.034538 -0.005058 -0.145357
 25 2.650860 -0.017416 279.065491 0.000000 -0.000000 0.000000
time 9
  0 2.650860 -0.017416 109.659492 0.471239 0.000000 0.000000
  1 -0.186268 0.167370 -1.425575 -0.104720 0.000000 0.000000
  2 0.923381 -2.004177 -52.426407 0.563566 0.000000 -0.000000
  3 0.209926 0.501534 3.073563 0.122264 0.000000 -0.000000
  4 -0.585038 -16.323322 -88.099281 0.087267 0.000000 -0.000000
  5 -0.737603 -0.548847 40.203674 -0.261799 0.000000 -0.000000
  6 2.553308 7.297697 96.216125 0.000000 -0.000000 0.000000
  7 25.337770 -9.646732 2.086914 -0.000011 -0.139632 -0.000607
  8 -23.810329 -7.093723 2.086899 -0.226045 0.064723 0.026189
  9 -7.352507 52.005493 -48.397385 0.656100 0.000000 0.000000
 10 -0.684172 -0.276033 30.967377 0.000000 -0.000000 0.000000
 11 -13.534456 -1.160923 22.015198 3.019416 -0.000000 0.000000
 12 -20.972828 -0.005867 -27.595070 0.000000 0.209439 -0.000000
 13 -18.070234 -6.045799 -20.586182 2.577424 0.599609 -0.374444
 14 5.932732 -5.752621 0.181671 -1.147835 0.866904 -0.065273
 15 153.364685 62.140007 16.877720 1.078144 0.001989 0.109675
 16 0.671974 2.506060 -6.693909 0.000000 -0.000000 0.000000
 17 18.407471 -176.793945 8.075211 -0.009445 0.966446 0.010673
 18 12.176291 -0.829269 23.085030 -0.330962 0.156863 0.008289
 19 23.438770 1.362865 -28.210800 0.622483 0.147093 -0.046223
 20 17.520058 -4.855522 -21.387665 -0.559663 -0.318451 0.327741
 21 6.597054 5.855789 -9.931358 0.000000 -0.000000 0.000000
 22 -0.072890 -1.214050 9.388039 0.000000 -0.000000 0.000000
 23 0.000010 -5.381657 -154.110336 -0.034538 -0.005058 -0.145357
 24 0.000010 -5.381657 -154.110336 -0.034538 -0.005058 -0.145357
 25 2.650860 -0.017416 279.065491 0.000000 -0.000000 0.000000
time 10
  0 2.650860 -0.017416 106.822403 0.471239 0.000000 0.000000
  1 -0.186268 0.167366 -1.425575 -0.104720 0.000000 0.000000
  2 0.923381 -2.004173 -52.426407 0.558568 0.000000 -0.000000
  3 0.209926 0.550182 3.169037 0.128067 0.000000 0.000000
  4 -0.585033 -30.291468 -93.484604 0.087266 0.000000 -0.000000
  5 -0.737603 -0.548836 40.203659 -0.261799 0.000000 0.000000
  6 2.553308 7.297697 96.216125 0.000000 -0.000000 0.000000
  7 25.337772 -9.646732 2.086899 -0.000011 -0.139632 -0.000607
  8 -23.810329 -7.093718 2.086914 -0.226045 0.064723 0.026189
  9 -7.352506 52.005478 -48.397392 0.623605 0.000000 0.000000
 10 -0.684172 -0.276030 30.967377 0.000000 -0.000000 0.000000
 11 -13.534455 -1.160923 22.015190 3.019416 0.000000 0.000000
 12 -20.972828 -0.005863 -27.595070 0.000000 0.209439 -0.000000
 13 -18.070234 -6.045799 -20.586182 2.577424 0.599609 -0.374444
 14 5.932732 -5.752623 0.181671 -1.147835 0.866904 -0.065273
 15 153.364700 62.139984 16.877758 1.078144 0.001989 0.109675
 16 0.671982 2.506060 -6.693909 0.000000 -0.000000 0.000000
 17 18.407463 -176.793945 8.075211 -0.009445 0.966446 0.010673
 18 12.176291 -0.829266 23.085014 -0.330962 0.156863 0.008289
 19 23.438766 1.362864 -28.210808 0.622483 0.147093 -0.046223
 20 17.520054 -4.855522 -21.387650 -0.559663 -0.318451 0.327741
 21 6.597054 5.855789 -9.931358 0.000000 -0.000000 0.000000
 22 -0.072890 -1.214046 9.388031 0.000000 -0.000000 0.000000
 23 0.000010 -5.381660 -154.110336 -0.034538 -0.005058 -0.145357
 24 0.000010 -5.381660 -154.110336 -0.034538 -0.005058 -0.145357
 25 2.650860 -0.017416 279.065491 0.000000 -0.000000 0.000000
time 11
  0 2.650860 -0.017416 104.121216 0.471239 0.000000 0.000000
  1 -0.186268 0.167370 -1.425575 -0.104720 0.000000 0.000000
  2 0.923381 -2.004177 -52.426407 0.560399 0.000000 -0.000000
  3 0.209926 0.594597 3.256210 0.133723 0.000000 0.000000
  4 -0.585028 -43.662178 -98.639603 0.087266 0.000000 -0.000000
  5 -0.737603 -0.548836 40.203682 -0.261799 0.000000 0.000000
  6 2.553308 7.297697 96.216141 0.000000 -0.000000 0.000000
  7 25.337772 -9.646734 2.086914 -0.000011 -0.139632 -0.000607
  8 -23.810328 -7.093721 2.086914 -0.226045 0.064723 0.026189
  9 -7.352506 52.005486 -48.397369 0.596029 0.000000 0.000000
 10 -0.684172 -0.276030 30.967392 0.000000 -0.000000 0.000000
 11 -13.534455 -1.160923 22.015198 3.019416 -0.000000 0.000000
 12 -20.972828 -0.005867 -27.595070 0.000000 0.209439 0.000000
 13 -18.070234 -6.045788 -20.586166 2.577424 0.599609 -0.374444
 14 5.932732 -5.752625 0.181686 -1.147835 0.866904 -0.065273
 15 153.364716 62.139977 16.877731 1.078144 0.001989 0.109675
 16 0.671974 2.506062 -6.693909 0.000000 -0.000000 0.000000
 17 18.407455 -176.793945 8.075211 -0.009445 0.966446 0.010673
 18 12.176291 -0.829269 23.085030 -0.330962 0.156863 0.008289
 19 23.438770 1.362862 -28.210815 0.622482 0.147093 -0.046223
 20 17.520042 -4.855522 -21.387657 -0.559663 -0.318451 0.327741
 21 6.597054 5.855789 -9.931355 0.000000 -0.000000 0.000000
 22 -0.072890 -1.214046 9.388039 0.000000 -0.000000 0.000000
 23 0.000010 -5.381657 -154.110336 -0.034538 -0.005058 -0.145357
 24 0.000010 -5.381657 -154.110336 -0.034538 -0.005058 -0.145357
 25 2.650860 -0.017416 279.065491 0.000000 -0.000000 0.000000
time 12
  0 2.650860 -0.017416 101.638786 0.471239 0.000000 0.000000
  1 -0.186268 0.167366 -1.425575 -0.104720 0.000000 0.000000
  2 0.923381 -2.004173 -52.426411 0.564610 0.000000 -0.000000
  3 0.209926 0.632992 3.331566 0.139088 0.000000 -0.000000
  4 -0.585023 -56.041256 -103.412254 0.087267 0.000000 0.000000
  5 -0.737603 -0.548843 40.203659 -0.261799 0.000000 0.000000
  6 2.553308 7.297705 96.216125 0.000000 -0.000000 0.000000
  7 25.337772 -9.646727 2.086899 -0.000011 -0.139632 -0.000607
  8 -23.810328 -7.093714 2.086914 -0.226045 0.064723 0.026189
  9 -7.352506 52.005486 -48.397377 0.574959 0.000000 0.000000
 10 -0.684172 -0.276026 30.967377 0.000000 -0.000000 0.000000
 11 -13.534455 -1.160923 22.015205 3.019416 -0.000000 0.000000
 12 -20.972828 -0.005867 -27.595078 0.000000 0.209439 0.000000
 13 -18.070232 -6.045795 -20.586182 2.577424 0.599609 -0.374444
 14 5.932732 -5.752621 0.181686 -1.147835 0.866904 -0.065273
 15 153.364716 62.139992 16.877735 1.078144 0.001989 0.109675
 16 0.671967 2.506063 -6.693924 0.000000 -0.000000 0.000000
 17 18.407463 -176.793945 8.075226 -0.009445 0.966446 0.010673
 18 12.176291 -0.829277 23.085022 -0.330962 0.156863 0.008289
 19 23.438782 1.362865 -28.210808 0.622483 0.147093 -0.046223
 20 17.520056 -4.855522 -21.387661 -0.559663 -0.318451 0.327741
 21 6.597061 5.855789 -9.931355 0.000000 -0.000000 0.000000
 22 -0.072890 -1.214050 9.388039 0.000000 -0.000000 0.000000
 23 0.000011 -5.381657 -154.110336 -0.034538 -0.005058 -0.145357
 24 0.000011 -5.381657 -154.110336 -0.034538 -0.005058 -0.145357
 25 2.650860 -0.017416 279.065491 0.000000 -0.000000 0.000000
time 13
  0 2.650860 -0.017416 99.457947 0.471239 0.000000 0.000000
  1 -0.186268 0.167370 -1.425583 -0.104720 0.000000 0.000000
  2 0.923381 -2.004177 -52.426411 0.570992 0.000000 -0.000000
  3 0.209926 0.663578 3.391594 0.144017 0.000000 0.000000
  4 -0.585020 -67.034492 -107.650635 0.087266 0.000000 -0.000000
  5 -0.737603 -0.548828 40.203674 -0.261799 0.000000 -0.000000
  6 2.553308 7.297699 96.216125 0.000000 -0.000000 0.000000
  7 25.337772 -9.646736 2.086899 -0.000011 -0.139632 -0.000607
  8 -23.810328 -7.093719 2.086914 -0.226045 0.064723 0.026189
  9 -7.352506 52.005489 -48.397377 0.561986 0.000000 0.000000
 10 -0.684172 -0.276028 30.967392 0.000000 -0.000000 0.000000
 11 -13.534456 -1.160923 22.015205 3.019416 0.000000 0.000000
 12 -20.972828 -0.005867 -27.595078 -0.000000 0.209439 -0.000000
 13 -18.070230 -6.045795 -20.586197 2.577424 0.599609 -0.374444
 14 5.932724 -5.752621 0.181671 -1.147835 0.866904 -0.065273
 15 153.364716 62.139984 16.877743 1.078144 0.001989 0.109675
 16 0.671982 2.506063 -6.693909 0.000000 -0.000000 0.000000
 17 18.407471 -176.793930 8.075195 -0.009445 0.966446 0.010673
 18 12.176291 -0.829266 23.085030 -0.330962 0.156863 0.008289
 19 23.438770 1.362860 -28.210815 0.622483 0.147093 -0.046223
 20 17.520052 -4.855530 -21.387657 -0.559663 -0.318451 0.327741
 21 6.597054 5.855785 -9.931351 0.000000 -0.000000 0.000000
 22 -0.072890 -1.214046 9.388031 0.000000 -0.000000 0.000000
 23 0.000010 -5.381657 -154.110336 -0.034538 -0.005058 -0.145357
 24 0.000010 -5.381657 -154.110336 -0.034538 -0.005058 -0.145357
 25 2.650860 -0.017416 279.065491 0.000000 -0.000000 0.000000
time 14
  0 2.650860 -0.017416 97.661545 0.471239 0.000000 0.000000
  1 -0.186268 0.167366 -1.425575 -0.104720 0.000000 0.000000
  2 0.923381 -2.004177 -52.426411 0.579335 0.000000 -0.000000
  3 0.209926 0.684578 3.432808 0.148367 0.000000 -0.000000
  4 -0.585016 -76.247711 -111.202728 0.087266 0.000000 0.000000
  5 -0.737603 -0.548843 40.203667 -0.261799 0.000000 -0.000000
  6 2.553308 7.297705 96.216141 0.000000 -0.000000 0.000000
  7 25.337772 -9.646727 2.086899 -0.000011 -0.139632 -0.000607
  8 -23.810329 -7.093716 2.086899 -0.226045 0.064723 0.026189
  9 -7.352506 52.005486 -48.397377 0.558586 0.000000 0.000000
 10 -0.684172 -0.276033 30.967377 0.000000 -0.000000 0.000000
 11 -13.534455 -1.160919 22.015205 3.019416 0.000000 0.000000
 12 -20.972828 -0.005867 -27.595070 0.000000 0.209439 -0.000000
 13 -18.070234 -6.045795 -20.586182 2.577424 0.599609 -0.374444
 14 5.932724 -5.752621 0.181686 -1.147835 0.866904 -0.065273
 15 153.364685 62.139992 16.877731 1.078144 0.001989 0.109675
 16 0.671974 2.506062 -6.693909 0.000000 -0.000000 0.000000
 17 18.407448 -176.793945 8.075211 -0.009445 0.966446 0.010673
 18 12.176291 -0.829266 23.085022 -0.330962 0.156863 0.008289
 19 23.438770 1.362864 -28.210815 0.622483 0.147093 -0.046223
 20 17.520046 -4.855522 -21.387657 -0.559663 -0.318451 0.327741
 21 6.597057 5.855785 -9.931358 0.000000 -0.000000 0.000000
 22 -0.072890 -1.214050 9.388039 0.000000 -0.000000 0.000000
 23 0.000010 -5.381660 -154.110336 -0.034538 -0.005058 -0.145357
 24 0.000010 -5.381660 -154.110336 -0.034538 -0.005058 -0.145357
 25 2.650860 -0.017416 279.065491 0.000000 -0.000000 0.000000
time 15
  0 2.650860 -0.017416 96.332413 0.471239 0.000000 0.000000
  1 -0.186268 0.167370 -1.425575 -0.104720 0.000000 0.000000
  2 0.923381 -2.004177 -52.426411 0.589432 0.000000 -0.000000
  3 0.209926 0.694206 3.451698 0.151992 0.000000 -0.000000
  4 -0.585013 -83.286697 -113.916565 0.087266 0.000000 0.000000
  5 -0.737603 -0.548836 40.203674 -0.261799 0.000000 0.000000
  6 2.553308 7.297697 96.216110 0.000000 -0.000000 0.000000
  7 25.337772 -9.646723 2.086914 -0.000011 -0.139632 -0.000607
  8 -23.810328 -7.093716 2.086914 -0.226045 0.064723 0.026189
  9 -7.352506 52.005486 -48.397385 0.561671 0.000000 0.000000
 10 -0.684172 -0.276026 30.967392 0.000000 -0.000000 0.000000
 11 -13.534455 -1.160915 22.015205 3.019416 0.000000 0.000000
 12 -20.972828 -0.005867 -27.595070 0.000000 0.209439 0.000000
 13 -18.070234 -6.045792 -20.586182 2.577424 0.599609 -0.374444
 14 5.932739 -5.752617 0.181671 -1.147835 0.866904 -0.065273
 15 153.364685 62.140015 16.877743 1.078144 0.001989 0.109675
 16 0.671982 2.506062 -6.693909 0.000000 -0.000000 0.000000
 17 18.407471 -176.793961 8.075226 -0.009445 0.966446 0.010673
 18 12.176291 -0.829269 23.085022 -0.330962 0.156863 0.008289
 19 23.438772 1.362864 -28.210808 0.622483 0.147093 -0.046223
 20 17.520050 -4.855530 -21.387653 -0.559663 -0.318451 0.327741
 21 6.597054 5.855789 -9.931358 0.000000 -0.000000 0.000000
 22 -0.072890 -1.214050 9.388039 0.000000 -0.000000 0.000000
 23 0.000010 -5.381657 -154.110336 -0.034538 -0.005058 -0.145357
 24 0.000010 -5.381657 -154.110336 -0.034538 -0.005058 -0.145357
 25 2.650860 -0.017416 279.065491 0.000000 -0.000000 0.000000
time 16
  0 2.650860 -0.017416 95.553398 0.471239 0.000000 0.000000
  1 -0.186268 0.167370 -1.425575 -0.104720 0.000000 0.000000
  2 0.923381 -2.004177 -52.426411 0.601073 0.000000 -0.000000
  3 0.209926 0.692398 3.448158 0.154749 0.000000 0.000000
  4 -0.585012 -87.757294 -115.640160 0.087266 0.000000 -0.000000
  5 -0.737603 -0.548836 40.203682 -0.261799 0.000000 0.000000
  6 2.553308 7.297699 96.216141 0.000000 -0.000000 0.000000
  7 25.337772 -9.646729 2.086899 -0.000011 -0.139632 -0.000607
  8 -23.810328 -7.093719 2.086914 -0.226045 0.064723 0.026189
  9 -7.352507 52.005493 -48.397385 0.568899 0.000000 0.000000
 10 -0.684172 -0.276028 30.967392 0.000000 -0.000000 0.000000
 11 -13.534456 -1.160927 22.015205 3.019416 0.000000 0.000000
 12 -20.972828 -0.005867 -27.595085 0.000000 0.209439 0.000000
 13 -18.070236 -6.045792 -20.586182 2.577425 0.599609 -0.374444
 14 5.932724 -5.752621 0.181671 -1.147835 0.866904 -0.065273
 15 153.364685 62.139999 16.877735 1.078144 0.001989 0.109675
 16 0.671982 2.506063 -6.693909 0.000000 -0.000000 0.000000
 17 18.407471 -176.793976 8.075211 -0.009445 0.966446 0.010673
 18 12.176291 -0.829269 23.085022 -0.330962 0.156863 0.008289
 19 23.438782 1.362862 -28.210815 0.622482 0.147093 -0.046223
 20 17.520044 -4.855515 -21.387650 -0.559663 -0.318451 0.327741
 21 6.597061 5.855785 -9.931358 0.000000 -0.000000 0.000000
 22 -0.072890 -1.214050 9.388046 0.000000 -0.000000 0.000000
 23 0.000010 -5.381657 -154.110336 -0.034538 -0.005058 -0.145357
 24 0.000010 -5.381657 -154.110336 -0.034538 -0.005058 -0.145357
 25 2.650860 -0.017416 279.065491 0.000000 -0.000000 0.000000
time 17
  0 2.650860 -0.017416 95.402328 0.471239 0.000000 0.000000
  1 -0.186268 0.167370 -1.425575 -0.104720 0.000000 0.000000
  2 0.923381 -2.004177 -52.426411 0.614049 0.000000 -0.000000
  3 0.209926 0.682938 3.429588 0.156493 0.000000 0.000000
  4 -0.585011 -89.265472 -116.221634 0.087266 0.000000 -0.000000
  5 -0.737603 -0.548832 40.203682 -0.261799 0.000000 0.000000
  6 2.553308 7.297703 96.216141 0.000000 -0.000000 0.000000
  7 25.337772 -9.646736 2.086899 -0.000011 -0.139632 -0.000607
  8 -23.810328 -7.093716 2.086914 -0.226045 0.064723 0.026189
  9 -7.352506 52.005489 -48.397385 0.579828 0.000000 0.000000
 10 -0.684172 -0.276031 30.967392 0.000000 -0.000000 0.000000
 11 -13.534456 -1.160919 22.015205 3.019416 -0.000000 0.000000
 12 -20.972828 -0.005863 -27.595062 0.000000 0.209439 0.000000
 13 -18.070232 -6.045799 -20.586182 2.577424 0.599609 -0.374444
 14 5.932732 -5.752617 0.181686 -1.147835 0.866904 -0.065273
 15 153.364685 62.139977 16.877754 1.078144 0.001989 0.109675
 16 0.671974 2.506067 -6.693909 0.000000 -0.000000 0.000000
 17 18.407471 -176.793945 8.075211 -0.009445 0.966446 0.010673
 18 12.176291 -0.829269 23.085022 -0.330962 0.156863 0.008289
 19 23.438772 1.362865 -28.210808 0.622483 0.147093 -0.046223
 20 17.520058 -4.855522 -21.387657 -0.559663 -0.318451 0.327741
 21 6.597061 5.855785 -9.931358 0.000000 -0.000000 0.000000
 22 -0.072890 -1.214046 9.388039 0.000000 -0.000000 0.000000
 23 0.000010 -5.381657 -154.110336 -0.034538 -0.005058 -0.145357
 24 0.000010 -5.381657 -154.110336 -0.034538 -0.005058 -0.145357
 25 2.650860 -0.017416 279.065491 0.000000 -0.000000 0.000000
time 18
  0 2.650860 -0.017416 95.832832 0.471239 0.000000 0.000000
  1 -0.186268 0.167370 -1.425575 -0.104720 0.000000 0.000000
  2 0.923381 -2.004177 -52.426411 0.628152 0.000000 -0.000000
  3 0.209926 0.666801 3.397926 0.157079 0.000000 0.000000
  4 -0.585012 -87.751984 -115.638397 0.087266 0.000000 0.000000
  5 -0.737603 -0.548832 40.203682 -0.261799 0.000000 0.000000
  6 2.553308 7.297705 96.216125 0.000000 -0.000000 0.000000
  7 25.337772 -9.646727 2.086914 -0.000011 -0.139632 -0.000607
  8 -23.810328 -7.093716 2.086914 -0.226045 0.064723 0.026189
  9 -7.352507 52.005486 -48.397385 0.594020 0.000000 0.000000
 10 -0.684172 -0.276030 30.967377 0.000000 -0.000000 0.000000
 11 -13.534456 -1.160923 22.015198 3.019416 0.000000 0.000000
 12 -20.972828 -0.005875 -27.595078 0.000000 0.209439 0.000000
 13 -18.070234 -6.045792 -20.586182 2.577424 0.599609 -0.374444
 14 5.932724 -5.752619 0.181671 -1.147835 0.866904 -0.065273
 15 153.364700 62.140007 16.877747 1.078144 0.001989 0.109675
 16 0.671967 2.506063 -6.693924 0.000000 -0.000000 0.000000
 17 18.407463 -176.793976 8.075195 -0.009445 0.966446 0.010673
 18 12.176291 -0.829273 23.085014 -0.330962 0.156863 0.008289
 19 23.438774 1.362862 -28.210800 0.622483 0.147093 -0.046223
 20 17.520050 -4.855522 -21.387650 -0.559663 -0.318451 0.327741
 21 6.597054 5.855782 -9.931351 0.000000 -0.000000 0.000000
 22 -0.072890 -1.214050 9.388039 0.000000 -0.000000 0.000000
 23 0.000010 -5.381657 -154.110336 -0.034538 -0.005058 -0.145357
 24 0.000010 -5.381657 -154.110336 -0.034538 -0.005058 -0.145357
 25 2.650860 -0.017416 279.065491 0.000000 -0.000000 0.000000
time 19
  0 2.650860 -0.017416 96.761345 0.471239 0.000000 0.000000
  1 -0.186268 0.167370 -1.425575 -0.104720 0.000000 0.000000
  2 0.923381 -2.004181 -52.426411 0.643172 0.000000 -0.000000
  3 0.209926 0.644817 3.354774 0.156343 0.000000 0.000000
  4 -0.585013 -83.615349 -114.044350 0.087266 0.000000 0.000000
  5 -0.737603 -0.548836 40.203667 -0.261799 0.000000 0.000000
  6 2.553308 7.297703 96.216125 0.000000 -0.000000 0.000000
  7 25.337772 -9.646736 2.086899 -0.000011 -0.139632 -0.000607
  8 -23.810328 -7.093719 2.086899 -0.226045 0.064723 0.026189
  9 -7.352506 52.005486 -48.397385 0.611033 0.000000 0.000000
 10 -0.684172 -0.276031 30.967377 0.000000 -0.000000 0.000000
 11 -13.534455 -1.160919 22.015198 3.019416 -0.000000 0.000000
 12 -20.972828 -0.005867 -27.595078 0.000000 0.209439 0.000000
 13 -18.070234 -6.045799 -20.586182 2.577424 0.599609 -0.374444
 14 5.932732 -5.752623 0.181671 -1.147835 0.866904 -0.065273
 15 153.364716 62.139999 16.877739 1.078144 0.001989 0.109675
 16 0.671982 2.506062 -6.693924 0.000000 -0.000000 0.000000
 17 18.407455 -176.793991 8.075195 -0.009445 0.966446 0.010673
 18 12.176291 -0.829266 23.085022 -0.330962 0.156863 0.008289
 19 23.438778 1.362860 -28.210808 0.622483 0.147093 -0.046223
 20 17.520052 -4.855522 -21.387646 -0.559663 -0.318451 0.327741
 21 6.597057 5.855785 -9.931358 0.000000 -0.000000 0.000000
 22 -0.072890 -1.214043 9.388039 0.000000 -0.000000 0.000000
 23 0.000010 -5.381660 -154.110336 -0.034538 -0.005058 -0.145357
 24 0.000010 -5.381660 -154.110336 -0.034538 -0.005058 -0.145357
 25 2.650860 -0.017416 279.065491 0.000000 -0.000000 0.000000
time 20
  0 2.650860 -0.017416 98.124489 0.471239 0.000000 0.000000
  1 -0.186268 0.167370 -1.425583 -0.104720 0.000000 0.000000
  2 0.923381 -2.004177 -52.426407 0.658900 0.000000 -0.000000
  3 0.209926 0.617802 3.301743 0.154338 0.000000 0.000000
  4 -0.585016 -77.184120 -111.565979 0.087267 0.000000 0.000000
  5 -0.737603 -0.548836 40.203674 -0.261799 0.000000 -0.000000
  6 2.553308 7.297712 96.216141 0.000000 -0.000000 0.000000
  7 25.337772 -9.646723 2.086914 -0.000011 -0.139632 -0.000607
  8 -23.810329 -7.093718 2.086914 -0.226045 0.064723 0.026189
  9 -7.352507 52.005493 -48.397385 0.630426 0.000000 0.000000
 10 -0.684172 -0.276026 30.967377 0.000000 -0.000000 0.000000
 11 -13.534455 -1.160915 22.015205 3.019416 -0.000000 0.000000
 12 -20.972828 -0.005859 -27.595078 0.000000 0.209439 -0.000000
 13 -18.070236 -6.045799 -20.586182 2.577424 0.599609 -0.374444
 14 5.932732 -5.752625 0.181686 -1.147835 0.866904 -0.065273
 15 153.364670 62.139977 16.877731 1.078144 0.001989 0.109675
 16 0.671974 2.506060 -6.693909 0.000000 -0.000000 0.000000
 17 18.407463 -176.793961 8.075195 -0.009445 0.966446 0.010673
 18 12.176291 -0.829277 23.085022 -0.330962 0.156863 0.008289
 19 23.438776 1.362862 -28.210808 0.622483 0.147093 -0.046223
 20 17.520052 -4.855530 -21.387653 -0.559663 -0.318451 0.327741
 21 6.597057 5.855782 -9.931355 0.000000 -0.000000 0.000000
 22 -0.072890 -1.214050 9.388031 0.000000 -0.000000 0.000000
 23 0.000010 -5.381657 -154.110336 -0.034538 -0.005058 -0.145357
 24 0.000010 -5.381657 -154.110336 -0.034538 -0.005058 -0.145357
 25 2.650860 -0.017416 279.065491 0.000000 -0.000000 0.000000
time 21
  0 2.650860 -0.017416 99.858902 0.471239 0.000000 0.000000
  1 -0.186268 0.167370 -1.425583 -0.104720 0.000000 0.000000
  2 0.923381 -2.004177 -52.426411 0.675128 0.000000 -0.000000
  3 0.209926 0.586575 3.240456 0.151232 0.000000 -0.000000
  4 -0.585019 -68.786819 -108.329895 0.087267 0.000000 0.000000
  5 -0.737603 -0.548843 40.203667 -0.261799 0.000000 0.000000
  6 2.553308 7.297697 96.216110 0.000000 -0.000000 0.000000
  7 25.337772 -9.646727 2.086929 -0.000011 -0.139632 -0.000607
  8 -23.810328 -7.093721 2.086914 -0.226045 0.064723 0.026189
  9 -7.352506 52.005478 -48.397369 0.651761 0.000000 0.000000
 10 -0.684172 -0.276033 30.967392 0.000000 -0.000000 0.000000
 11 -13.534456 -1.160923 22.015205 3.019416 -0.000000 0.000000
 12 -20.972828 -0.005863 -27.595078 -0.000000 0.209439 -0.000000
 13 -18.070236 -6.045792 -20.586182 2.577424 0.599609 -0.374444
 14 5.932732 -5.752621 0.181671 -1.147835 0.866904 -0.065273
 15 153.364716 62.139977 16.877750 1.078144 0.001989 0.109675
 16 0.671967 2.506060 -6.693924 0.000000 -0.000000 0.000000
 17 18.407440 -176.793961 8.075195 -0.009445 0.966446 0.010673
 18 12.176291 -0.829266 23.085022 -0.330962 0.156863 0.008289
 19 23.438774 1.362862 -28.210808 0.622483 0.147093 -0.046223
 20 17.520052 -4.855515 -21.387653 -0.559663 -0.318451 0.327741
 21 6.597061 5.855789 -9.931351 0.000000 -0.000000 0.000000
 22 -0.072890 -1.214046 9.388039 0.000000 -0.000000 0.000000
 23 0.000010 -5.381657 -154.110336 -0.034538 -0.005058 -0.145357
 24 0.000010 -5.381657 -154.110336 -0.034538 -0.005058 -0.145357
 25 2.650860 -0.017416 279.065491 0.000000 -0.000000 0.000000
time 22
  0 2.650860 -0.017416 101.901230 0.471239 0.000000 0.000000
  1 -0.186268 0.167366 -1.425575 -0.104720 0.000000 0.000000
  2 0.923381 -2.004177 -52.426411 0.691646 0.000000 -0.000000
  3 0.209926 0.551956 3.172516 0.147197 0.000000 0.000000
  4 -0.585022 -58.751991 -104.462685 0.087267 0.000000 0.000000
  5 -0.737603 -0.548840 40.203674 -0.261799 0.000000 -0.000000
  6 2.553308 7.297689 96.216125 0.000000 -0.000000 0.000000
  7 25.337772 -9.646730 2.086899 -0.000011 -0.139632 -0.000607
  8 -23.810328 -7.093721 2.086899 -0.226045 0.064723 0.026189
  9 -7.352507 52.005478 -48.397385 0.674595 0.000000 0.000000
 10 -0.684172 -0.276033 30.967377 0.000000 -0.000000 0.000000
 11 -13.534455 -1.160923 22.015213 3.019416 -0.000000 0.000000
 12 -20.972828 -0.005871 -27.595062 -0.000000 0.209439 -0.000000
 13 -18.070234 -6.045792 -20.586182 2.577425 0.599609 -0.374444
 14 5.932739 -5.752617 0.181671 -1.147835 0.866904 -0.065273
 15 153.364685 62.139961 16.877754 1.078144 0.001989 0.109675
 16 0.671982 2.506062 -6.693909 0.000000 -0.000000 0.000000
 17 18.407448 -176.793961 8.075195 -0.009445 0.966446 0.010673
 18 12.176291 -0.829269 23.085022 -0.330962 0.156863 0.008289
 19 23.438774 1.362862 -28.210815 0.622483 0.147093 -0.046223
 20 17.520052 -4.855515 -21.387650 -0.559663 -0.318451 0.327741
 21 6.597054 5.855789 -9.931351 0.000000 -0.000000 0.000000
 22 -0.072890 -1.214050 9.388046 0.000000 -0.000000 0.000000
 23 0.000010 -5.381660 -154.110336 -0.034538 -0.005058 -0.145357
 24 0.000010 -5.381660 -154.110336 -0.034538 -0.005058 -0.145357
 25 2.650860 -0.017416 279.065491 0.000000 -0.000000 0.000000
time 23
  0 2.650860 -0.017416 104.188095 0.471239 0.000000 0.000000
  1 -0.186268 0.167366 -1.425575 -0.104720 0.000000 0.000000
  2 0.923381 -2.004173 -52.426407 0.708246 0.000000 -0.000000
  3 0.209926 0.514778 3.099548 0.142402 0.000000 0.000000
  4 -0.585027 -47.408180 -100.090881 0.087266 0.000000 -0.000000
  5 -0.737603 -0.548843 40.203667 -0.261799 0.000000 0.000000
  6 2.553308 7.297697 96.216141 0.000000 -0.000000 0.000000
  7 25.337772 -9.646734 2.086899 -0.000011 -0.139632 -0.000607
  8 -23.810329 -7.093721 2.086914 -0.226045 0.064723 0.026189
  9 -7.352506 52.005486 -48.397385 0.698489 0.000000 0.000000
 10 -0.684172 -0.276033 30.967392 0.000000 -0.000000 0.000000
 11 -13.534455 -1.160919 22.015205 3.019416 0.000000 0.000000
 12 -20.972828 -0.005863 -27.595078 0.000000 0.209439 -0.000000
 13 -18.070232 -6.045799 -20.586182 2.577424 0.599609 -0.374444
 14 5.932724 -5.752617 0.181671 -1.147835 0.866904 -0.065273
 15 153.364716 62.139992 16.877769 1.078144 0.001989 0.109675
 16 0.671974 2.506063 -6.693924 0.000000 -0.000000 0.000000
 17 18.407440 -176.793976 8.075211 -0.009445 0.966446 0.010673
 18 12.176291 -0.829262 23.085030 -0.330962 0.156863 0.008289
 19 23.438778 1.362862 -28.210815 0.622483 0.147093 -0.046223
 20 17.520050 -4.855530 -21.387657 -0.559663 -0.318451 0.327741
 21 6.597057 5.855789 -9.931355 0.000000 -0.000000 0.000000
 22 -0.072890 -1.214043 9.388039 0.000000 -0.000000 0.000000
 23 0.000010 -5.381668 -154.110321 -0.034538 -0.005058 -0.145357
 24 0.000010 -5.381668 -154.110321 -0.034538 -0.005058 -0.145357
 25 2.650860 -0.017416 279.065491 0.000000 -0.000000 0.000000
time 24
  0 2.650860 -0.017416 106.656143 0.471239 0.000000 0.000000
  1 -0.186268 0.167370 -1.425575 -0.104720 0.000000 0.000000
  2 0.923381 -2.004173 -52.426411 0.724718 0.000000 -0.000000
  3 0.209926 0.475849 3.023155 0.137016 0.000000 0.000000
  4 -0.585031 -35.083889 -95.341057 0.087266 0.000000 -0.000000
  5 -0.737603 -0.548836 40.203674 -0.261799 0.000000 -0.000000
  6 2.553308 7.297699 96.216110 0.000000 -0.000000 0.000000
  7 25.337772 -9.646732 2.086899 -0.000011 -0.139632 -0.000607
  8 -23.810329 -7.093723 2.086899 -0.226045 0.064723 0.026189
  9 -7.352506 52.005482 -48.397392 0.723003 0.000000 0.000000
 10 -0.684172 -0.276031 30.967377 0.000000 -0.000000 0.000000
 11 -13.534456 -1.160923 22.015205 3.019416 -0.000000 0.000000
 12 -20.972828 -0.005867 -27.595070 -0.000000 0.209439 -0.000000
 13 -18.070232 -6.045803 -20.586197 2.577424 0.599609 -0.374444
 14 5.932724 -5.752619 0.181671 -1.147835 0.866904 -0.065273
 15 153.364700 62.140007 16.877754 1.078144 0.001989 0.109675
 16 0.671974 2.506063 -6.693909 0.000000 -0.000000 0.000000
 17 18.407440 -176.793945 8.075195 -0.009445 0.966446 0.010673
 18 12.176291 -0.829266 23.085030 -0.330962 0.156863 0.008289
 19 23.438774 1.362862 -28.210800 0.622483 0.147093 -0.046223
 20 17.520054 -4.855522 -21.387646 -0.559663 -0.318451 0.327741
 21 6.597057 5.855785 -9.931355 0.000000 -0.000000 0.000000
 22 -0.072890 -1.214050 9.388046 0.000000 -0.000000 0.000000
 23 0.000010 -5.381664 -154.110321 -0.034538 -0.005058 -0.145357
 24 0.000010 -5.381664 -154.110321 -0.034538 -0.005058 -0.145357
 25 2.650860 -0.017416 279.065491 0.000000 -0.000000 0.000000
time 25
  0 2.650860 -0.017416 109.242004 0.471239 0.000000 0.000000
  1 -0.186268 0.167370 -1.425583 -0.104720 0.000000 0.000000
  2 0.923381 -2.004173 -52.426407 0.740854 0.000000 -0.000000
  3 0.209926 0.436001 2.944939 0.131208 0.000000 -0.000000
  4 -0.585036 -22.107670 -90.339806 0.087266 0.000000 -0.000000
  5 -0.737603 -0.548840 40.203667 -0.261799 0.000000 0.000000
  6 2.553308 7.297697 96.216125 0.000000 -0.000000 0.000000
  7 25.337772 -9.646730 2.086929 -0.000011 -0.139632 -0.000607
  8 -23.810329 -7.093718 2.086929 -0.226045 0.064723 0.026189
  9 -7.352507 52.005478 -48.397369 0.747695 0.000000 0.000000
 10 -0.684172 -0.276033 30.967392 0.000000 -0.000000 0.000000
 11 -13.534456 -1.160919 22.015190 3.019416 -0.000000 0.000000
 12 -20.972828 -0.005867 -27.595070 0.000000 0.209439 -0.000000
 13 -18.070234 -6.045799 -20.586182 2.577425 0.599609 -0.374444
 14 5.932724 -5.752626 0.181671 -1.147835 0.866904 -0.065273
 15 153.364685 62.139977 16.877739 1.078144 0.001989 0.109675
 16 0.671982 2.506060 -6.693909 0.000000 -0.000000 0.000000
 17 18.407448 -176.793976 8.075195 -0.009445 0.966446 0.010673
 18 12.176291 -0.829273 23.085007 -0.330962 0.156863 0.008289
 19 23.438774 1.362864 -28.210808 0.622483 0.147093 -0.046223
 20 17.520052 -4.855522 -21.387653 -0.559663 -0.318451 0.327741
 21 6.597065 5.855789 -9.931355 0.000000 -0.000000 0.000000
 22 -0.072890 -1.214046 9.388023 0.000000 -0.000000 0.000000
 23 0.000010 -5.381668 -154.110321 -0.034538 -0.005058 -0.145357
 24 0.000010 -5.381668 -154.110321 -0.034538 -0.005058 -0.145357
 25 2.650860 -0.017416 279.065491 0.000000 -0.000000 0.000000
time 26
  0 2.650860 -0.017416 111.882324 0.471239 0.000000 0.000000
  1 -0.186268 0.167366 -1.425575 -0.104720 0.000000 0.000000
  2 0.923381 -2.004173 -52.426407 0.756446 0.000000 -0.000000
  3 0.209926 0.396046 2.866531 0.125148 0.000000 0.000000
  4 -0.585041 -8.808075 -85.213661 0.087266 0.000000 0.000000
  5 -0.737603 -0.548836 40.203674 -0.261799 0.000000 -0.000000
  6 2.553308 7.297705 96.216110 0.000000 -0.000000 0.000000
  7 25.337772 -9.646729 2.086899 -0.000011 -0.139632 -0.000607
  8 -23.810328 -7.093719 2.086884 -0.226045 0.064723 0.026189
  9 -7.352507 52.005486 -48.397392 0.772126 0.000000 0.000000
 10 -0.684172 -0.276026 30.967377 0.000000 -0.000000 0.000000
 11 -13.534455 -1.160923 22.015190 3.019416 0.000000 0.000000
 12 -20.972828 -0.005867 -27.595078 0.000000 0.209439 0.000000
 13 -18.070232 -6.045788 -20.586182 2.577424 0.599609 -0.374444
 14 5.932732 -5.752625 0.181671 -1.147835 0.866904 -0.065273
 15 153.364716 62.139969 16.877750 1.078144 0.001989 0.109675
 16 0.671982 2.506062 -6.693924 0.000000 -0.000000 0.000000
 17 18.407455 -176.793945 8.075180 -0.009445 0.966446 0.010673
 18 12.176291 -0.829273 23.085022 -0.330962 0.156863 0.008289
 19 23.438778 1.362858 -28.210808 0.622483 0.147093 -0.046223
 20 17.520046 -4.855530 -21.387657 -0.559664 -0.318451 0.327741
 21 6.597054 5.855785 -9.931351 0.000000 -0.000000 0.000000
 22 -0.072890 -1.214050 9.388039 0.000000 -0.000000 0.000000
 23 0.000010 -5.381664 -154.110321 -0.034538 -0.005058 -0.145357
 24 0.000010 -5.381664 -154.110321 -0.034538 -0.005058 -0.145357
 25 2.650860 -0.017416 279.065491 0.000000 -0.000000 0.000000
time 27
  0 2.650860 -0.017416 114.513725 0.471239 0.000000 0.000000
  1 -0.186268 0.167370 -1.425575 -0.104720 0.000000 0.000000
  2 0.923381 -2.004177 -52.426411 0.771282 0.000000 -0.000000
  3 0.209926 0.356812 2.789520 0.119007 0.000000 0.000000
  4 -0.585046 4.486389 -80.089218 0.087267 0.000000 -0.000000
  5 -0.737603 -0.548843 40.203674 -0.261799 0.000000 0.000000
  6 2.553308 7.297697 96.216125 0.000000 -0.000000 0.000000
  7 25.337772 -9.646729 2.086914 -0.000011 -0.139632 -0.000607
  8 -23.810326 -7.093723 2.086914 -0.226045 0.064723 0.026189
  9 -7.352507 52.005478 -48.397392 0.795855 0.000000 0.000000
 10 -0.684172 -0.276030 30.967392 0.000000 -0.000000 0.000000
 11 -13.534455 -1.160919 22.015205 3.019416 0.000000 0.000000
 12 -20.972828 -0.005875 -27.595078 0.000000 0.209439 -0.000000
 13 -18.070234 -6.045784 -20.586166 2.577424 0.599609 -0.374444
 14 5.932747 -5.752621 0.181671 -1.147835 0.866904 -0.065273
 15 153.364670 62.139984 16.877716 1.078144 0.001989 0.109675
 16 0.671982 2.506060 -6.693924 0.000000 -0.000000 0.000000
 17 18.407463 -176.793945 8.075195 -0.009445 0.966446 0.010673
 18 12.176291 -0.829266 23.085022 -0.330962 0.156863 0.008289
 19 23.438774 1.362862 -28.210808 0.622482 0.147093 -0.046223
 20 17.520050 -4.855515 -21.387653 -0.559663 -0.318451 0.327741
 21 6.597057 5.855789 -9.931351 0.000000 -0.000000 0.000000
 22 -0.072890 -1.214046 9.388039 0.000000 -0.000000 0.000000
 23 0.000010 -5.381664 -154.110321 -0.034538 -0.005058 -0.145357
 24 0.000010 -5.381664 -154.110321 -0.034538 -0.005058 -0.145357
 25 2.650860 -0.017416 279.065491 0.000000 -0.000000 0.000000
time 28
  0 2.650860 -0.017416 117.072861 0.471239 0.000000 0.000000
  1 -0.186268 0.167370 -1.425575 -0.104720 0.000000 0.000000
  2 0.923381 -2.004173 -52.426414 0.785156 0.000000 -0.000000
  3 0.209927 0.319115 2.715546 0.112952 0.000000 0.000000
  4 -0.585050 17.447220 -75.093010 0.087266 0.000000 -0.000000
  5 -0.737603 -0.548836 40.203667 -0.261799 0.000000 -0.000000
  6 2.553308 7.297701 96.216095 0.000000 -0.000000 0.000000
  7 25.337772 -9.646729 2.086899 -0.000011 -0.139632 -0.000607
  8 -23.810326 -7.093718 2.086899 -0.226045 0.064723 0.026189
  9 -7.352506 52.005478 -48.397385 0.818441 0.000000 0.000000
 10 -0.684172 -0.276033 30.967361 0.000000 -0.000000 0.000000
 11 -13.534456 -1.160912 22.015205 3.019416 -0.000000 0.000000
 12 -20.972828 -0.005871 -27.595078 0.000000 0.209439 -0.000000
 13 -18.070234 -6.045792 -20.586182 2.577424 0.599609 -0.374444
 14 5.932724 -5.752619 0.181671 -1.147835 0.866904 -0.065273
 15 153.364685 62.140022 16.877743 1.078144 0.001989 0.109675
 16 0.671974 2.506062 -6.693924 0.000000 -0.000000 0.000000
 17 18.407440 -176.793945 8.075195 -0.009445 0.966446 0.010673
 18 12.176291 -0.829262 23.085022 -0.330962 0.156863 0.008289
 19 23.438778 1.362862 -28.210808 0.622483 0.147093 -0.046223
 20 17.520050 -4.855515 -21.387646 -0.559663 -0.318451 0.327741
 21 6.597057 5.855785 -9.931358 0.000000 -0.000000 0.000000
 22 -0.072890 -1.214043 9.388039 0.000000 -0.000000 0.000000
 23 0.000011 -5.381664 -154.110321 -0.034538 -0.005058 -0.145357
 24 0.000011 -5.381664 -154.110321 -0.034538 -0.005058 -0.145357
 25 2.650860 -0.017416 279.065491 0.000000 -0.000000 0.000000
time 29
  0 2.650860 -0.017416 119.496353 0.471239 0.000000 0.000000
  1 -0.186268 0.167370 -1.425575 -0.104720 0.000000 0.000000
  2 0.923381 -2.004177 -52.426407 0.797858 0.000000 -0.000000
  3 0.209926 0.283787 2.646194 0.107155 0.000000 -0.000000
  4 -0.585055 29.745834 -70.351624 0.087266 0.000000 -0.000000
  5 -0.737603 -0.548843 40.203659 -0.261799 0.000000 0.000000
  6 2.553308 7.297693 96.216110 0.000000 -0.000000 0.000000
  7 25.337772 -9.646730 2.086899 -0.000011 -0.139632 -0.000607
  8 -23.810326 -7.093714 2.086914 -0.226045 0.064723 0.026189
  9 -7.352506 52.005470 -48.397369 0.839446 0.000000 0.000000
 10 -0.684172 -0.276031 30.967377 0.000000 -0.000000 0.000000
 11 -13.534456 -1.160919 22.015205 3.019416 -0.000000 0.000000
 12 -20.972828 -0.005867 -27.595078 0.000000 0.209439 0.000000
 13 -18.070229 -6.045795 -20.586182 2.577424 0.599609 -0.374444
 14 5.932739 -5.752625 0.181671 -1.147835 0.866904 -0.065273
 15 153.364700 62.139961 16.877750 1.078144 0.001989 0.109675
 16 0.671982 2.506060 -6.693909 0.000000 -0.000000 0.000000
 17 18.407471 -176.793961 8.075211 -0.009445 0.966446 0.010673
 18 12.176291 -0.829269 23.085022 -0.330962 0.156863 0.008289
 19 23.438774 1.362860 -28.210800 0.622482 0.147093 -0.046223
 20 17.520054 -4.855522 -21.387650 -0.559663 -0.318451 0.327741
 21 6.597065 5.855785 -9.931358 0.000000 -0.000000 0.000000
 22 -0.072890 -1.214050 9.388046 0.000000 -0.000000 0.000000
 23 0.000010 -5.381664 -154.110321 -0.034538 -0.005058 -0.145357
 24 0.000010 -5.381664 -154.110321 -0.034538 -0.005058 -0.145357
 25 2.650860 -0.017416 279.065491 0.000000 -0.000000 0.000000
time 30
  0 2.650860 -0.017416 121.720848 0.471239 0.000000 0.000000
  1 -0.186268 0.167370 -1.425575 -0.104720 0.000000 0.000000
  2 0.923381 -2.004173 -52.426399 0.809179 0.000000 -0.000000
  3 0.209927 0.251637 2.583099 0.101785 0.000000 -0.000000
  4 -0.585059 41.053726 -65.991623 0.087267 0.000000 -0.000000
  5 -0.737603 -0.548828 40.203667 -0.261799 0.000000 -0.000000
  6 2.553308 7.297705 96.216125 0.000000 -0.000000 0.000000
  7 25.337772 -9.646725 2.086929 -0.000011 -0.139632 -0.000607
  8 -23.810328 -7.093719 2.086929 -0.226045 0.064723 0.026189
  9 -7.352507 52.005486 -48.397369 0.858427 0.000000 0.000000
 10 -0.684172 -0.276028 30.967392 0.000000 -0.000000 0.000000
 11 -13.534455 -1.160919 22.015198 3.019416 -0.000000 0.000000
 12 -20.972828 -0.005867 -27.595062 0.000000 0.209439 -0.000000
 13 -18.070232 -6.045799 -20.586182 2.577424 0.599609 -0.374444
 14 5.932739 -5.752623 0.181686 -1.147835 0.866904 -0.065273
 15 153.364700 62.139984 16.877758 1.078144 0.001989 0.109675
 16 0.671974 2.506062 -6.693909 0.000000 -0.000000 0.000000
 17 18.407455 -176.793945 8.075211 -0.009445 0.966446 0.010673
 18 12.176291 -0.829269 23.085030 -0.330962 0.156863 0.008289
 19 23.438776 1.362862 -28.210808 0.622483 0.147093 -0.046223
 20 17.520058 -4.855522 -21.387661 -0.559663 -0.318451 0.327741
 21 6.597057 5.855789 -9.931366 0.000000 -0.000000 0.000000
 22 -0.072890 -1.214043 9.388031 0.000000 -0.000000 0.000000
 23 0.000011 -5.381664 -154.110321 -0.034538 -0.005058 -0.145357
 24 0.000011 -5.381664 -154.110321 -0.034538 -0.005058 -0.145357
 25 2.650860 -0.017416 279.065491 0.000000 -0.000000 0.000000
time 31
  0 2.650860 -0.017416 123.682976 0.471239 0.000000 0.000000
  1 -0.186268 0.167370 -1.425575 -0.104720 0.000000 0.000000
  2 0.923380 -2.004169 -52.426407 0.818910 0.000000 -0.000000
  3 0.209927 0.223492 2.527863 0.097010 0.000000 -0.000000
  4 -0.585063 51.042351 -62.139595 0.087267 0.000000 -0.000000
  5 -0.737603 -0.548843 40.203667 -0.261799 0.000000 0.000000
  6 2.553308 7.297699 96.216110 0.000000 -0.000000 0.000000
  7 25.337772 -9.646730 2.086914 -0.000011 -0.139632 -0.000607
  8 -23.810328 -7.093719 2.086899 -0.226045 0.064723 0.026189
  9 -7.352506 52.005482 -48.397362 0.874944 0.000000 0.000000
 10 -0.684172 -0.276030 30.967392 0.000000 -0.000000 0.000000
 11 -13.534456 -1.160919 22.015205 3.019416 -0.000000 0.000000
 12 -20.972828 -0.005859 -27.595078 0.000000 0.209439 0.000000
 13 -18.070234 -6.045799 -20.586197 2.577424 0.599609 -0.374444
 14 5.932732 -5.752617 0.181671 -1.147835 0.866904 -0.065273
 15 153.364716 62.139961 16.877777 1.078144 0.001989 0.109675
 16 0.671974 2.506063 -6.693909 0.000000 -0.000000 0.000000
 17 18.407448 -176.793945 8.075195 -0.009445 0.966446 0.010673
 18 12.176291 -0.829269 23.085030 -0.330962 0.156863 0.008289
 19 23.438778 1.362860 -28.210808 0.622482 0.147093 -0.046223
 20 17.520050 -4.855522 -21.387653 -0.559663 -0.318451 0.327741
 21 6.597061 5.855785 -9.931358 0.000000 -0.000000 0.000000
 22 -0.072890 -1.214043 9.388039 0.000000 -0.000000 0.000000
 23 0.000011 -5.381664 -154.110321 -0.034538 -0.005058 -0.145357
 24 0.000011 -5.381664 -154.110321 -0.034538 -0.005058 -0.145357
 25 2.650860 -0.017416 279.065491 0.000000 -0.000000 0.000000
time 32
  0 2.650860 -0.017416 125.319374 0.471239 0.000000 0.000000
  1 -0.186268 0.167370 -1.425575 -0.104720 0.000000 0.000000
  2 0.923381 -2.004169 -52.426399 0.826843 0.000000 -0.000000
  3 0.209926 0.200169 2.482086 0.093002 0.000000 -0.000000
  4 -0.585066 59.383171 -58.922070 0.087267 0.000000 -0.000000
  5 -0.737603 -0.548843 40.203667 -0.261799 0.000000 0.000000
  6 2.553308 7.297703 96.216141 0.000000 -0.000000 0.000000
  7 25.337772 -9.646725 2.086914 -0.000011 -0.139632 -0.000607
  8 -23.810326 -7.093718 2.086899 -0.226045 0.064723 0.026189
  9 -7.352506 52.005482 -48.397385 0.888557 0.000000 0.000000
 10 -0.684172 -0.276030 30.967392 0.000000 -0.000000 0.000000
 11 -13.534455 -1.160927 22.015205 3.019416 -0.000000 0.000000
 12 -20.972828 -0.005871 -27.595062 0.000000 0.209439 0.000000
 13 -18.070236 -6.045784 -20.586182 2.577424 0.599609 -0.374444
 14 5.932732 -5.752621 0.181686 -1.147835 0.866904 -0.065273
 15 153.364670 62.139984 16.877758 1.078144 0.001989 0.109675
 16 0.671982 2.506062 -6.693909 0.000000 -0.000000 0.000000
 17 18.407455 -176.793976 8.075195 -0.009445 0.966446 0.010673
 18 12.176291 -0.829269 23.085030 -0.330962 0.156863 0.008289
 19 23.438770 1.362860 -28.210815 0.622482 0.147093 -0.046223
 20 17.520048 -4.855522 -21.387657 -0.559663 -0.318451 0.327741
 21 6.597061 5.855789 -9.931358 0.000000 -0.000000 0.000000
 22 -0.072890 -1.214043 9.388039 0.000000 -0.000000 0.000000
 23 0.000010 -5.381664 -154.110321 -0.034538 -0.005058 -0.145357
 24 0.000010 -5.381664 -154.110321 -0.034538 -0.005058 -0.145357
 25 2.650860 -0.017416 279.065491 0.000000 -0.000000 0.000000
time 33
  0 2.650860 -0.017416 126.566681 0.471239 0.000000 0.000000
  1 -0.186268 0.167370 -1.425575 -0.104720 0.000000 0.000000
  2 0.923381 -2.004173 -52.426414 0.832768 0.000000 -0.000000
  3 0.209927 0.182491 2.447395 0.089929 0.000000 -0.000000
  4 -0.585068 65.747688 -56.465633 0.087267 0.000000 -0.000000
  5 -0.737603 -0.548843 40.203674 -0.261799 0.000000 -0.000000
  6 2.553308 7.297695 96.216110 0.000000 -0.000000 0.000000
  7 25.337772 -9.646729 2.086899 -0.000011 -0.139632 -0.000607
  8 -23.810328 -7.093718 2.086914 -0.226045 0.064723 0.026189
  9 -7.352506 52.005482 -48.397392 0.898826 0.000000 0.000000
 10 -0.684172 -0.276031 30.967377 0.000000 -0.000000 0.000000
 11 -13.534456 -1.160927 22.015198 3.019416 -0.000000 0.000000
 12 -20.972828 -0.005871 -27.595078 0.000000 0.209439 0.000000
 13 -18.070234 -6.045792 -20.586182 2.577424 0.599609 -0.374444
 14 5.932739 -5.752621 0.181686 -1.147835 0.866904 -0.065273
 15 153.364670 62.139938 16.877747 1.078144 0.001989 0.109675
 16 0.671982 2.506062 -6.693909 0.000000 -0.000000 0.000000
 17 18.407455 -176.793976 8.075211 -0.009445 0.966446 0.010673
 18 12.176291 -0.829269 23.085022 -0.330962 0.156863 0.008289
 19 23.438778 1.362862 -28.210800 0.622482 0.147093 -0.046223
 20 17.520048 -4.855515 -21.387657 -0.559663 -0.318451 0.327741
 21 6.597061 5.855789 -9.931351 0.000000 -0.000000 0.000000
 22 -0.072890 -1.214043 9.388039 0.000000 -0.000000 0.000000
 23 0.000010 -5.381664 -154.110321 -0.034538 -0.005058 -0.145357
 24 0.000010 -5.381664 -154.110321 -0.034538 -0.005058 -0.145357
 25 2.650860 -0.017416 279.065491 0.000000 -0.000000 0.000000
time 34
  0 2.650860 -0.017416 127.361534 0.471239 0.000000 0.000000
  1 -0.186268 0.167366 -1.425575 -0.104720 0.000000 0.000000
  2 0.923381 -2.004173 -52.426407 0.836476 0.000000 -0.000000
  3 0.209927 0.171284 2.425407 0.087960 0.000000 0.000000
  4 -0.585070 69.807304 -54.896866 0.087266 0.000000 -0.000000
  5 -0.737603 -0.548836 40.203682 -0.261799 0.000000 -0.000000
  6 2.553308 7.297699 96.216141 0.000000 -0.000000 0.000000
  7 25.337774 -9.646732 2.086899 -0.000011 -0.139632 -0.000607
  8 -23.810328 -7.093721 2.086884 -0.226045 0.064723 0.026189
  9 -7.352506 52.005486 -48.397400 0.905311 0.000000 0.000000
 10 -0.684172 -0.276031 30.967377 0.000000 -0.000000 0.000000
 11 -13.534456 -1.160919 22.015205 3.019416 -0.000000 0.000000
 12 -20.972828 -0.005871 -27.595062 0.000000 0.209439 0.000000
 13 -18.070234 -6.045792 -20.586197 2.577424 0.599609 -0.374444
 14 5.932732 -5.752625 0.181671 -1.147835 0.866904 -0.065273
 15 153.364716 62.139999 16.877758 1.078144 0.001989 0.109675
 16 0.671974 2.506062 -6.693924 0.000000 -0.000000 0.000000
 17 18.407440 -176.794006 8.075195 -0.009445 0.966446 0.010673
 18 12.176291 -0.829269 23.085030 -0.330962 0.156863 0.008289
 19 23.438776 1.362858 -28.210815 0.622482 0.147093 -0.046223
 20 17.520052 -4.855515 -21.387657 -0.559663 -0.318451 0.327741
 21 6.597061 5.855793 -9.931366 0.000000 -0.000000 0.000000
 22 -0.072890 -1.214043 9.388039 0.000000 -0.000000 0.000000
 23 0.000010 -5.381668 -154.110321 -0.034538 -0.005058 -0.145357
 24 0.000010 -5.381668 -154.110321 -0.034538 -0.005058 -0.145357
 25 2.650860 -0.017416 279.065491 0.000000 -0.000000 0.000000
time 35
  0 2.650860 -0.017416 127.640564 0.471239 0.000000 0.000000
  1 -0.186268 0.167370 -1.425575 -0.104720 0.000000 0.000000
  2 0.923381 -2.004177 -52.426414 0.837758 0.000000 0.000000
  3 0.209927 0.167370 2.417717 0.087267 0.000000 0.000000
  4 -0.585070 71.233521 -54.342319 0.087266 0.000000 -0.000000
  5 -0.737603 -0.548836 40.203667 -0.261799 0.000000 0.000000
  6 2.553308 7.297705 96.216141 0.000000 -0.000000 0.000000
  7 25.337774 -9.646729 2.086899 -0.000011 -0.139632 -0.000607
  8 -23.810328 -7.093723 2.086899 -0.226045 0.064723 0.026189
  9 -7.352506 52.005478 -48.397385 0.907570 0.000000 0.000000
 10 -0.684172 -0.276031 30.967377 0.000000 -0.000000 0.000000
 11 -13.534456 -1.160919 22.015190 3.019416 -0.000000 0.000000
 12 -20.972826 -0.005871 -27.595078 0.000000 0.209439 0.000000
 13 -18.070238 -6.045788 -20.586182 2.577424 0.599609 -0.374444
 14 5.932732 -5.752621 0.181671 -1.147835 0.866904 -0.065273
 15 153.364700 62.139984 16.877731 1.078144 0.001989 0.109675
 16 0.671982 2.506062 -6.693909 0.000000 -0.000000 0.000000
 17 18.407455 -176.793976 8.075195 -0.009445 0.966446 0.010673
 18 12.176291 -0.829262 23.085014 -0.330962 0.156863 0.008289
 19 23.438780 1.362856 -28.210815 0.622482 0.147093 -0.046223
 20 17.520052 -4.855530 -21.387657 -0.559663 -0.318451 0.327741
 21 6.597054 5.855782 -9.931358 0.000000 -0.000000 0.000000
 22 -0.072890 -1.214043 9.388039 0.000000 -0.000000 0.000000
 23 0.000010 -5.381664 -154.110321 -0.034538 -0.005058 -0.145357
 24 0.000010 -5.381664 -154.110321 -0.034538 -0.005058 -0.145357
 25 2.650860 -0.017416 279.065491 0.000000 -0.000000 0.000000
end
