version 1
nodes
  0 "bone34"  -1
  1 "bone31"  -1
  2 "bone17"  -1
  3 "bone16"   2
  4 "bone12"   3
  5 "bone13"   4
  6 "bone15"   5
  7 "bone19"   6
  8 "bone05"   3
  9 "bone18"   8
 10 "bone14"   9
 11 "bone20"  10
 12 "bone02"   2
 13 "bone01"  12
 14 "bone03"  13
 15 "bone10"  14
 16 "bone08"  15
 17 "bone22"  16
 18 "bone23"  16
 19 "bone25"  15
 20 "bone09"  12
 21 "bone04"  20
 22 "bone07"  21
 23 "bone26"  22
 24 "bone06"  12
 25 "bone27"  24
 26 "bone28"  12
end
skeleton
time 0
  0 -5.113562 -3.392895 0.796835 0.000000 -0.000000 0.000000
  1 -7.310884 -0.101110 174.348495 0.000000 -0.000000 0.000000
  2 -5.113562 -3.392895 79.577438 0.052360 -0.000000 0.000000
  3 0.325039 1.113430 -5.098999 -0.129469 0.000000 -0.000000
  4 6.206746 -0.124160 -11.733646 -0.436333 -0.000000 0.000000
  5 2.376919 1.428909 -19.463917 0.418879 0.000000 -0.000000
  6 1.646507 1.612118 -34.692955 0.000000 -0.000000 0.000000
  7 0.219322 -4.030297 -4.600569 0.000000 -0.000000 0.000000
  8 -6.833119 -0.124160 -11.733646 -0.440708 0.142515 -0.418574
  9 -2.998631 1.160217 -19.583820 0.346467 -0.175621 0.104926
 10 -1.356800 1.880814 -34.573048 0.097549 0.155153 -0.039225
 11 -0.258575 -4.030296 -4.908823 0.000000 -0.000000 0.000000
 12 0.325039 1.113430 0.809021 -0.052232 0.003652 0.069720
 13 7.054492 1.815097 15.713707 0.048885 -0.072318 -0.664994
 14 12.909768 -0.165814 -12.867271 0.058706 -0.086767 -0.002549
 15 11.504261 -9.735163 -11.778572 -0.114160 0.138026 -0.699164
 16 -4.990952 -20.855864 -11.972145 0.107342 -0.124349 -0.503130
 17 1.952627 -90.186775 -0.924717 0.000000 -0.000000 0.000000
 18 -35.001930 9.597215 -70.247482 0.000000 -0.000000 0.000000
 19 3.759451 -1.898640 -3.541328 0.000000 -0.000000 0.000000
 20 -7.698017 1.934286 15.877953 -0.431614 -0.136398 -0.316946
 21 -12.721183 -0.083347 -12.838249 0.350879 -0.485336 0.230535
 22 -9.167521 -10.101499 -11.648903 0.579793 0.809829 1.024413
 23 -3.642090 -2.032093 -4.543636 0.000000 -0.000000 0.000000
 24 -0.409780 2.428936 22.341393 -0.000001 0.000000 -0.122176
 25 -0.380096 -2.887196 20.845375 0.000000 -0.000000 0.000000
 26 -0.040494 -0.674471 8.862854 0.000000 -0.000000 0.000000
time 1
  0 -5.113562 -3.392895 0.796835 0.000000 -0.000000 0.000000
  1 -7.310884 -0.101110 174.348495 0.000000 -0.000000 0.000000
  2 -5.113562 -3.392895 77.122383 0.082659 0.000000 0.000000
  3 0.325039 1.113430 -5.099007 -0.132228 0.000000 -0.000000
  4 6.206746 -0.124160 -11.733646 -0.436333 -0.000000 0.000000
  5 2.376919 1.428907 -19.463909 0.417855 0.000000 0.000000
  6 1.646508 1.612118 -34.692955 0.000000 -0.000000 0.000000
  7 0.219322 -4.030296 -4.600570 0.000000 -0.000000 0.000000
  8 -6.833118 -0.124160 -11.733646 -0.440725 0.142507 -0.418595
  9 -2.998632 1.160225 -19.583822 0.347108 -0.175475 0.105019
 10 -1.356798 1.880818 -34.573048 0.097549 0.155153 -0.039225
 11 -0.258572 -4.030296 -4.908824 0.000000 -0.000000 0.000000
 12 0.325039 1.113430 0.809006 -0.052232 0.003652 0.069720
 13 7.054491 1.815097 15.713699 0.046140 -0.073733 -0.664145
 14 12.909765 -0.165818 -12.867264 0.058706 -0.086767 -0.002549
 15 11.504257 -9.735169 -11.778595 -0.114160 0.138026 -0.699164
 16 -5.168427 -20.798410 -11.907398 0.106833 -0.124356 -0.502309
 17 1.952620 -90.186745 -0.924725 0.000000 -0.000000 0.000000
 18 -35.001938 9.597198 -70.247513 0.000000 -0.000000 0.000000
 19 3.759453 -1.898643 -3.541336 0.000000 -0.000000 0.000000
 20 -7.698015 1.934285 15.877953 -0.434018 -0.136821 -0.316443
 21 -12.721183 -0.083347 -12.838249 0.350879 -0.485336 0.230535
 22 -9.167524 -10.101495 -11.648911 0.579793 0.809829 1.024413
 23 -3.642090 -2.032092 -4.543644 0.000000 -0.000000 0.000000
 24 -0.409780 2.428936 22.341393 -0.000001 0.000000 -0.122176
 25 -0.380095 -2.887196 20.845375 0.000000 -0.000000 0.000000
 26 -0.040495 -0.674471 8.862854 0.000000 -0.000000 0.000000
time 2
  0 -5.113562 -3.392895 0.796835 0.000000 -0.000000 0.000000
  1 -7.310884 -0.101110 174.348495 0.000000 -0.000000 0.000000
  2 -5.113562 -3.392895 70.307571 0.166765 0.000000 0.000000
  3 0.325039 1.113430 -5.098999 -0.135145 0.000000 -0.000000
  4 6.206746 -0.124160 -11.733646 -0.436333 -0.000000 0.000000
  5 2.376919 1.428909 -19.463917 0.414877 0.000000 0.000000
  6 1.646508 1.612119 -34.692959 0.000000 -0.000000 0.000000
  7 0.219323 -4.030298 -4.600570 0.000000 -0.000000 0.000000
  8 -6.833119 -0.124160 -11.733650 -0.440781 0.142482 -0.418655
  9 -2.998631 1.160221 -19.583824 0.348989 -0.175048 0.105295
 10 -1.356796 1.880816 -34.573040 0.097549 0.155153 -0.039225
 11 -0.258572 -4.030294 -4.908823 0.000000 -0.000000 0.000000
 12 0.325039 1.113431 0.809013 -0.052232 0.003652 0.069720
 13 7.054492 1.815095 15.713707 0.038153 -0.077850 -0.661677
 14 12.909767 -0.165816 -12.867279 0.058706 -0.086767 -0.002549
 15 11.504253 -9.735168 -11.778587 -0.114160 0.138026 -0.699164
 16 -5.684740 -20.631298 -11.719028 0.105350 -0.124377 -0.499919
 17 1.952641 -90.186745 -0.924721 0.000000 -0.000000 0.000000
 18 -35.001938 9.597211 -70.247505 0.000000 -0.000000 0.000000
 19 3.759450 -1.898642 -3.541325 0.000000 -0.000000 0.000000
 20 -7.698017 1.934284 15.877960 -0.441012 -0.138054 -0.314977
 21 -12.721184 -0.083347 -12.838264 0.350879 -0.485336 0.230535
 22 -9.167521 -10.101495 -11.648903 0.579793 0.809829 1.024413
 23 -3.642086 -2.032093 -4.543640 0.000000 -0.000000 0.000000
 24 -0.409780 2.428935 22.341393 -0.000001 0.000000 -0.122176
 25 -0.380095 -2.887197 20.845383 0.000000 -0.000000 0.000000
 26 -0.040495 -0.674472 8.862862 0.000000 -0.000000 0.000000
time 3
  0 -5.113562 -3.392895 0.796835 0.000000 -0.000000 0.000000
  1 -7.310884 -0.101110 174.348495 0.000000 -0.000000 0.000000
  2 -5.113562 -3.392895 59.958511 0.294488 0.000000 0.000000
  3 0.325039 1.113428 -5.099003 -0.138204 0.000000 -0.000000
  4 6.206746 -0.124160 -11.733646 -0.436333 -0.000000 0.000000
  5 2.376919 1.428909 -19.463917 0.410083 0.000000 0.000000
  6 1.646507 1.612119 -34.692955 0.000000 -0.000000 0.000000
  7 0.219322 -4.030297 -4.600571 0.000000 -0.000000 0.000000
  8 -6.833118 -0.124160 -11.733646 -0.440882 0.142437 -0.418752
  9 -2.998632 1.160221 -19.583822 0.352051 -0.174355 0.105745
 10 -1.356796 1.880814 -34.573048 0.097549 0.155153 -0.039225
 11 -0.258572 -4.030294 -4.908823 0.000000 -0.000000 0.000000
 12 0.325039 1.113429 0.809013 -0.052232 0.003652 0.069720
 13 7.054492 1.815096 15.713707 0.025300 -0.084476 -0.657704
 14 12.909769 -0.165816 -12.867271 0.058706 -0.086767 -0.002549
 15 11.504265 -9.735167 -11.778587 -0.114160 0.138026 -0.699164
 16 -6.515694 -20.362343 -11.415871 0.102965 -0.124411 -0.496073
 17 1.952630 -90.186783 -0.924721 0.000000 -0.000000 0.000000
 18 -35.001938 9.597213 -70.247513 0.000000 -0.000000 0.000000
 19 3.759452 -1.898640 -3.541328 0.000000 -0.000000 0.000000
 20 -7.698016 1.934285 15.877960 -0.452267 -0.140037 -0.312617
 21 -12.721180 -0.083344 -12.838257 0.350879 -0.485336 0.230535
 22 -9.167522 -10.101496 -11.648911 0.579793 0.809828 1.024413
 23 -3.642090 -2.032097 -4.543642 0.000000 -0.000000 0.000000
 24 -0.409780 2.428934 22.341393 -0.000001 0.000000 -0.122176
 25 -0.380095 -2.887197 20.845383 0.000000 -0.000000 0.000000
 26 -0.040494 -0.674472 8.862869 0.000000 -0.000000 0.000000
time 4
  0 -5.113562 -3.392895 0.796835 0.000000 -0.000000 0.000000
  1 -7.310884 -0.101110 174.348495 0.000000 -0.000000 0.000000
  2 -5.113562 -3.392895 46.900726 0.455642 0.000000 0.000000
  3 0.325039 1.113432 -5.098999 -0.141386 0.000000 -0.000000
  4 6.206746 -0.124161 -11.733648 -0.436333 -0.000000 0.000000
  5 2.376919 1.428908 -19.463909 0.403614 0.000000 0.000000
  6 1.646507 1.612120 -34.692959 0.000000 -0.000000 0.000000
  7 0.219322 -4.030297 -4.600571 0.000000 -0.000000 0.000000
  8 -6.833118 -0.124160 -11.733648 -0.441038 0.142367 -0.418882
  9 -2.998631 1.160221 -19.583824 0.356234 -0.173412 0.106362
 10 -1.356794 1.880813 -34.573044 0.097549 0.155153 -0.039225
 11 -0.258572 -4.030294 -4.908821 0.000000 -0.000000 0.000000
 12 0.325039 1.113432 0.809013 -0.052232 0.003652 0.069720
 13 7.054491 1.815096 15.713703 0.007954 -0.093417 -0.652342
 14 12.909768 -0.165819 -12.867268 0.058706 -0.086767 -0.002549
 15 11.504259 -9.735169 -11.778587 -0.114160 0.138026 -0.699164
 16 -7.637058 -19.999382 -11.006748 0.099745 -0.124457 -0.490883
 17 1.952615 -90.186752 -0.924723 0.000000 -0.000000 0.000000
 18 -35.001923 9.597203 -70.247482 0.000000 -0.000000 0.000000
 19 3.759455 -1.898642 -3.541321 0.000000 -0.000000 0.000000
 20 -7.698014 1.934286 15.877953 -0.467456 -0.142713 -0.309433
 21 -12.721184 -0.083348 -12.838253 0.350879 -0.485336 0.230535
 22 -9.167522 -10.101501 -11.648911 0.579793 0.809829 1.024413
 23 -3.642086 -2.032099 -4.543641 0.000000 -0.000000 0.000000
 24 -0.409780 2.428938 22.341396 -0.000001 0.000000 -0.122176
 25 -0.380095 -2.887192 20.845383 0.000000 -0.000000 0.000000
 26 -0.040495 -0.674471 8.862854 0.000000 -0.000000 0.000000
time 5
  0 -5.113562 -3.392895 0.796835 0.000000 -0.000000 0.000000
  1 -7.310884 -0.101110 174.348495 0.000000 -0.000000 0.000000
  2 -5.113562 -3.392895 31.959732 0.640037 0.000000 0.000000
  3 0.325039 1.113430 -5.099001 -0.144674 0.000000 -0.000000
  4 6.206746 -0.124160 -11.733644 -0.436333 -0.000000 0.000000
  5 2.376919 1.428909 -19.463913 0.395608 0.000000 0.000000
  6 1.646507 1.612118 -34.692955 0.000000 -0.000000 0.000000
  7 0.219322 -4.030294 -4.600567 0.000000 -0.000000 0.000000
  8 -6.833118 -0.124161 -11.733645 -0.441256 0.142269 -0.419043
  9 -2.998632 1.160220 -19.583820 0.361476 -0.172233 0.107139
 10 -1.356798 1.880815 -34.573044 0.097549 0.155153 -0.039225
 11 -0.258572 -4.030293 -4.908825 0.000000 -0.000000 0.000000
 12 0.325038 1.113432 0.809013 -0.052232 0.003652 0.069720
 13 7.054492 1.815100 15.713707 -0.013511 -0.104481 -0.645708
 14 12.909769 -0.165813 -12.867268 0.058706 -0.086767 -0.002549
 15 11.504260 -9.735165 -11.778584 -0.114160 0.138026 -0.699164
 16 -9.024660 -19.550261 -10.500505 0.095761 -0.124514 -0.484461
 17 1.952649 -90.186775 -0.924707 0.000000 -0.000000 0.000000
 18 -35.001923 9.597228 -70.247482 0.000000 -0.000000 0.000000
 19 3.759453 -1.898643 -3.541323 0.000000 -0.000000 0.000000
 20 -7.698017 1.934286 15.877949 -0.486251 -0.146024 -0.305493
 21 -12.721182 -0.083346 -12.838249 0.350879 -0.485336 0.230535
 22 -9.167521 -10.101499 -11.648903 0.579793 0.809828 1.024413
 23 -3.642090 -2.032095 -4.543642 0.000000 -0.000000 0.000000
 24 -0.409779 2.428936 22.341393 -0.000001 0.000000 -0.122176
 25 -0.380095 -2.887196 20.845371 0.000000 -0.000000 0.000000
 26 -0.040494 -0.674471 8.862858 0.000000 -0.000000 0.000000
time 6
  0 -5.113562 -3.392895 0.796835 0.000000 -0.000000 0.000000
  1 -7.310884 -0.101110 174.348495 0.000000 -0.000000 0.000000
  2 -5.113562 -3.392895 15.961041 0.837486 0.000000 0.000000
  3 0.325039 1.113429 -5.098999 -0.148050 0.000000 -0.000000
  4 6.206747 -0.124160 -11.733646 -0.436333 -0.000000 0.000000
  5 2.376919 1.428908 -19.463913 0.386207 0.000000 0.000000
  6 1.646507 1.612118 -34.692951 0.000000 -0.000000 0.000000
  7 0.219322 -4.030300 -4.600578 0.000000 -0.000000 0.000000
  8 -6.833119 -0.124160 -11.733646 -0.441542 0.142141 -0.419233
  9 -2.998631 1.160219 -19.583822 0.367718 -0.170835 0.108069
 10 -1.356794 1.880814 -34.573051 0.097549 0.155153 -0.039225
 11 -0.258570 -4.030296 -4.908825 0.000000 -0.000000 0.000000
 12 0.325039 1.113429 0.809012 -0.052232 0.003652 0.069720
 13 7.054493 1.815097 15.713704 -0.038718 -0.117475 -0.637916
 14 12.909763 -0.165816 -12.867264 0.058706 -0.086767 -0.002549
 15 11.504257 -9.735170 -11.778584 -0.114160 0.138026 -0.699164
 16 -10.654277 -19.022785 -9.905967 0.091082 -0.124580 -0.476919
 17 1.952635 -90.186737 -0.924716 0.000000 -0.000000 0.000000
 18 -35.001945 9.597212 -70.247490 0.000000 -0.000000 0.000000
 19 3.759453 -1.898643 -3.541323 0.000000 -0.000000 0.000000
 20 -7.698015 1.934285 15.877948 -0.508325 -0.149913 -0.300866
 21 -12.721183 -0.083348 -12.838255 0.350879 -0.485336 0.230535
 22 -9.167522 -10.101501 -11.648907 0.579793 0.809829 1.024413
 23 -3.642092 -2.032095 -4.543642 0.000000 -0.000000 0.000000
 24 -0.409780 2.428934 22.341389 -0.000001 0.000000 -0.122176
 25 -0.380095 -2.887198 20.845367 0.000000 -0.000000 0.000000
 26 -0.040494 -0.674472 8.862855 0.000000 -0.000000 0.000000
time 7
  0 -5.113562 -3.392895 0.796835 0.000000 -0.000000 0.000000
  1 -7.310884 -0.101110 174.348495 0.000000 -0.000000 0.000000
  2 -5.113562 -3.392895 -0.269818 1.037800 0.000000 0.000000
  3 0.325039 1.113430 -5.098999 -0.151496 0.000000 -0.000000
  4 6.206746 -0.124160 -11.733648 -0.436333 -0.000000 0.000000
  5 2.376919 1.428906 -19.463913 0.375549 0.000000 0.000000
  6 1.646508 1.612117 -34.692955 0.000000 -0.000000 0.000000
  7 0.219322 -4.030296 -4.600571 0.000000 -0.000000 0.000000
  8 -6.833119 -0.124160 -11.733648 -0.441905 0.141978 -0.419448
  9 -2.998631 1.160220 -19.583820 0.374899 -0.169233 0.109143
 10 -1.356792 1.880815 -34.573059 0.097549 0.155153 -0.039225
 11 -0.258573 -4.030289 -4.908821 0.000000 -0.000000 0.000000
 12 0.325039 1.113430 0.809013 -0.052232 0.003652 0.069720
 13 7.054492 1.815098 15.713703 -0.067296 -0.132205 -0.629083
 14 12.909769 -0.165816 -12.867270 0.058706 -0.086767 -0.002549
 15 11.504259 -9.735166 -11.778585 -0.114160 0.138026 -0.699164
 16 -12.501721 -18.424822 -9.231960 0.085778 -0.124656 -0.468368
 17 1.952627 -90.186760 -0.924714 0.000000 -0.000000 0.000000
 18 -35.001930 9.597211 -70.247482 0.000000 -0.000000 0.000000
 19 3.759457 -1.898640 -3.541324 0.000000 -0.000000 0.000000
 20 -7.698016 1.934286 15.877947 -0.533349 -0.154322 -0.295620
 21 -12.721184 -0.083349 -12.838251 0.350879 -0.485336 0.230535
 22 -9.167522 -10.101499 -11.648906 0.579793 0.809829 1.024413
 23 -3.642088 -2.032094 -4.543644 0.000000 -0.000000 0.000000
 24 -0.409780 2.428939 22.341391 -0.000001 0.000000 -0.122176
 25 -0.380096 -2.887191 20.845371 0.000000 -0.000000 0.000000
 26 -0.040494 -0.674470 8.862856 0.000000 -0.000000 0.000000
time 8
  0 -5.113562 -3.392895 0.796835 0.000000 -0.000000 0.000000
  1 -7.310884 -0.101110 174.348495 0.000000 -0.000000 0.000000
  2 -5.113562 -3.392895 -15.907349 1.230792 0.000000 0.000000
  3 0.325038 1.113430 -5.098999 -0.154996 0.000000 -0.000000
  4 6.206746 -0.124159 -11.733648 -0.436333 -0.000000 0.000000
  5 2.376919 1.428908 -19.463917 0.363773 0.000000 0.000000
  6 1.646508 1.612118 -34.692955 0.000000 -0.000000 0.000000
  7 0.219322 -4.030296 -4.600571 0.000000 -0.000000 0.000000
  8 -6.833118 -0.124158 -11.733648 -0.442352 0.141778 -0.419685
  9 -2.998631 1.160218 -19.583820 0.382959 -0.167442 0.110355
 10 -1.356794 1.880814 -34.573048 0.097549 0.155153 -0.039225
 11 -0.258570 -4.030293 -4.908829 0.000000 -0.000000 0.000000
 12 0.325038 1.113430 0.809013 -0.052232 0.003652 0.069720
 13 7.054491 1.815096 15.713706 -0.098868 -0.148479 -0.619324
 14 12.909763 -0.165813 -12.867268 0.058706 -0.086767 -0.002549
 15 11.504259 -9.735165 -11.778583 -0.114160 0.138026 -0.699164
 16 -14.542784 -17.764189 -8.487318 0.079917 -0.124739 -0.458922
 17 1.952635 -90.186760 -0.924725 0.000000 -0.000000 0.000000
 18 -35.001961 9.597207 -70.247498 0.000000 -0.000000 0.000000
 19 3.759449 -1.898643 -3.541323 0.000000 -0.000000 0.000000
 20 -7.698014 1.934283 15.877952 -0.560995 -0.159193 -0.289824
 21 -12.721180 -0.083347 -12.838255 0.350879 -0.485336 0.230535
 22 -9.167522 -10.101501 -11.648906 0.579793 0.809828 1.024413
 23 -3.642090 -2.032097 -4.543644 0.000000 -0.000000 0.000000
 24 -0.409779 2.428933 22.341394 -0.000001 0.000000 -0.122176
 25 -0.380095 -2.887197 20.845375 0.000000 -0.000000 0.000000
 26 -0.040494 -0.674473 8.862857 0.000000 -0.000000 0.000000
time 9
  0 -5.113562 -3.392895 0.796835 0.000000 -0.000000 0.000000
  1 -7.310884 -0.101110 174.348495 0.000000 -0.000000 0.000000
  2 -5.113562 -3.392895 -30.126028 1.406273 0.000000 0.000000
  3 0.325039 1.113428 -5.098999 -0.158530 0.000000 -0.000000
  4 6.206746 -0.124161 -11.733649 -0.436333 -0.000000 0.000000
  5 2.376919 1.428905 -19.463917 0.351021 0.000000 0.000000
  6 1.646507 1.612120 -34.692963 0.000000 -0.000000 0.000000
  7 0.219322 -4.030302 -4.600571 0.000000 -0.000000 0.000000
  8 -6.833118 -0.124161 -11.733647 -0.442892 0.141537 -0.419942
  9 -2.998631 1.160221 -19.583824 0.391837 -0.165479 0.111698
 10 -1.356795 1.880817 -34.573044 0.097549 0.155153 -0.039225
 11 -0.258572 -4.030296 -4.908821 0.000000 -0.000000 0.000000
 12 0.325039 1.113430 0.809014 -0.052232 0.003652 0.069720
 13 7.054493 1.815098 15.713703 -0.133061 -0.166105 -0.608755
 14 12.909771 -0.165819 -12.867270 0.058706 -0.086767 -0.002549
 15 11.504263 -9.735168 -11.778587 -0.114160 0.138026 -0.699164
 16 -16.753265 -17.048716 -7.680860 0.073571 -0.124829 -0.448691
 17 1.952625 -90.186768 -0.924713 0.000000 -0.000000 0.000000
 18 -35.001945 9.597216 -70.247505 0.000000 -0.000000 0.000000
 19 3.759453 -1.898643 -3.541324 0.000000 -0.000000 0.000000
 20 -7.698015 1.934288 15.877951 -0.590936 -0.164468 -0.283548
 21 -12.721183 -0.083347 -12.838255 0.350879 -0.485336 0.230535
 22 -9.167526 -10.101500 -11.648907 0.579793 0.809829 1.024413
 23 -3.642090 -2.032099 -4.543640 0.000000 -0.000000 0.000000
 24 -0.409779 2.428936 22.341393 -0.000001 0.000000 -0.122176
 25 -0.380095 -2.887196 20.845379 0.000000 -0.000000 0.000000
 26 -0.040494 -0.674471 8.862857 0.000000 -0.000000 0.000000
time 10
  0 -5.113562 -3.392895 0.796835 0.000000 -0.000000 0.000000
  1 -7.310884 -0.101110 174.348495 0.000000 -0.000000 0.000000
  2 -5.113562 -3.392895 -42.100304 1.554054 0.000000 0.000000
  3 0.325039 1.113426 -5.098999 -0.162081 0.000000 -0.000000
  4 6.206746 -0.124161 -11.733649 -0.436333 -0.000000 0.000000
  5 2.376919 1.428909 -19.463913 0.337431 0.000000 0.000000
  6 1.646507 1.612122 -34.692955 0.000000 -0.000000 0.000000
  7 0.219322 -4.030300 -4.600571 0.000000 -0.000000 0.000000
  8 -6.833118 -0.124161 -11.733649 -0.443530 0.141252 -0.420216
  9 -2.998629 1.160219 -19.583824 0.401473 -0.163357 0.113163
 10 -1.356794 1.880810 -34.573048 0.097549 0.155153 -0.039225
 11 -0.258572 -4.030296 -4.908821 0.000000 -0.000000 0.000000
 12 0.325039 1.113426 0.809014 -0.052232 0.003652 0.069720
 13 7.054492 1.815098 15.713704 -0.169500 -0.184888 -0.597492
 14 12.909767 -0.165817 -12.867268 0.058706 -0.086767 -0.002549
 15 11.504261 -9.735165 -11.778584 -0.114160 0.138026 -0.699164
 16 -19.108952 -16.286240 -6.821423 0.066807 -0.124926 -0.437788
 17 1.952633 -90.186768 -0.924707 0.000000 -0.000000 0.000000
 18 -35.001942 9.597221 -70.247467 0.000000 -0.000000 0.000000
 19 3.759453 -1.898643 -3.541322 0.000000 -0.000000 0.000000
 20 -7.698015 1.934284 15.877950 -0.622844 -0.170090 -0.276859
 21 -12.721184 -0.083351 -12.838253 0.350879 -0.485336 0.230535
 22 -9.167526 -10.101501 -11.648903 0.579793 0.809829 1.024413
 23 -3.642090 -2.032093 -4.543640 0.000000 -0.000000 0.000000
 24 -0.409780 2.428936 22.341393 -0.000001 0.000000 -0.122176
 25 -0.380096 -2.887196 20.845375 0.000000 -0.000000 0.000000
 26 -0.040495 -0.674473 8.862857 0.000000 -0.000000 0.000000
time 11
  0 -5.113562 -3.392895 0.796835 0.000000 -0.000000 0.000000
  1 -7.310884 -0.101110 174.348495 0.000000 -0.000000 0.000000
  2 -5.113562 -3.392895 -51.004715 1.663948 0.000000 0.000000
  3 0.325039 1.113430 -5.098999 -0.165632 0.000000 -0.000000
  4 6.206746 -0.124157 -11.733646 -0.436333 -0.000000 0.000000
  5 2.376919 1.428909 -19.463913 0.323142 0.000000 0.000000
  6 1.646507 1.612122 -34.692963 0.000000 -0.000000 0.000000
  7 0.219322 -4.030300 -4.600571 0.000000 -0.000000 0.000000
  8 -6.833118 -0.124161 -11.733646 -0.444276 0.140919 -0.420504
  9 -2.998632 1.160221 -19.583824 0.411807 -0.161093 0.114743
 10 -1.356797 1.880817 -34.573067 0.097549 0.155153 -0.039225
 11 -0.258572 -4.030296 -4.908821 0.000000 -0.000000 0.000000
 12 0.325039 1.113434 0.809012 -0.052232 0.003652 0.069720
 13 7.054492 1.815098 15.713704 -0.207811 -0.204636 -0.585650
 14 12.909767 -0.165813 -12.867266 0.058706 -0.086767 -0.002549
 15 11.504261 -9.735165 -11.778585 -0.114160 0.138026 -0.699164
 16 -21.585651 -15.484604 -5.917843 0.059696 -0.125027 -0.426325
 17 1.952618 -90.186768 -0.924719 0.000000 -0.000000 0.000000
 18 -35.001938 9.597210 -70.247498 0.000000 -0.000000 0.000000
 19 3.759453 -1.898642 -3.541324 0.000000 -0.000000 0.000000
 20 -7.698015 1.934284 15.877950 -0.656391 -0.176000 -0.269826
 21 -12.721183 -0.083351 -12.838255 0.350879 -0.485336 0.230535
 22 -9.167522 -10.101505 -11.648910 0.579793 0.809828 1.024413
 23 -3.642090 -2.032095 -4.543640 0.000000 -0.000000 0.000000
 24 -0.409780 2.428936 22.341393 -0.000001 0.000000 -0.122176
 25 -0.380096 -2.887196 20.845373 0.000000 -0.000000 0.000000
 26 -0.040495 -0.674473 8.862858 0.000000 -0.000000 0.000000
time 12
  0 -5.113562 -3.392895 0.796835 0.000000 -0.000000 0.000000
  1 -7.310884 -0.101110 174.348495 0.000000 -0.000000 0.000000
  2 -5.113562 -3.392895 -56.013721 1.725767 0.000000 0.000000
  3 0.325039 1.113426 -5.099000 -0.169165 0.000000 -0.000000
  4 6.206746 -0.124157 -11.733647 -0.436333 -0.000000 0.000000
  5 2.376919 1.428909 -19.463913 0.308295 0.000000 0.000000
  6 1.646507 1.612118 -34.692955 0.000000 -0.000000 0.000000
  7 0.219322 -4.030296 -4.600571 0.000000 -0.000000 0.000000
  8 -6.833118 -0.124161 -11.733647 -0.445137 0.140535 -0.420803
  9 -2.998633 1.160221 -19.583820 0.422778 -0.158702 0.116431
 10 -1.356792 1.880810 -34.573051 0.097549 0.155153 -0.039225
 11 -0.258569 -4.030296 -4.908836 0.000000 -0.000000 0.000000
 12 0.325039 1.113430 0.809012 -0.052232 0.003652 0.069720
 13 7.054491 1.815102 15.713705 -0.247619 -0.225155 -0.573346
 14 12.909767 -0.165813 -12.867268 0.058706 -0.086767 -0.002549
 15 11.504261 -9.735172 -11.778587 -0.114160 0.138026 -0.699164
 16 -24.159157 -14.651627 -4.978937 0.052307 -0.125132 -0.414414
 17 1.952629 -90.186768 -0.924713 0.000000 -0.000000 0.000000
 18 -35.001934 9.597215 -70.247490 0.000000 -0.000000 0.000000
 19 3.759460 -1.898645 -3.541323 0.000000 -0.000000 0.000000
 20 -7.698015 1.934288 15.877951 -0.691250 -0.182142 -0.262519
 21 -12.721181 -0.083344 -12.838255 0.350879 -0.485336 0.230535
 22 -9.167522 -10.101494 -11.648909 0.579793 0.809828 1.024413
 23 -3.642090 -2.032097 -4.543640 0.000000 -0.000000 0.000000
 24 -0.409781 2.428936 22.341396 -0.000001 0.000000 -0.122176
 25 -0.380096 -2.887196 20.845379 0.000000 -0.000000 0.000000
 26 -0.040495 -0.674465 8.862858 0.000000 -0.000000 0.000000
time 13
  0 -5.113562 -3.392895 0.796835 0.000000 -0.000000 0.000000
  1 -7.310884 -0.101110 174.348495 0.000000 -0.000000 0.000000
  2 -5.113562 -3.378284 -56.806396 1.733103 0.000000 0.000000
  3 0.325039 1.113430 -5.098999 -0.172662 0.000000 -0.000000
  4 6.206746 -0.124161 -11.733648 -0.436333 -0.000000 0.000000
  5 2.376919 1.428909 -19.463913 0.293029 0.000000 0.000000
  6 1.646507 1.612122 -34.692959 0.000000 -0.000000 0.000000
  7 0.219322 -4.030304 -4.600563 0.000000 -0.000000 0.000000
  8 -6.833119 -0.124161 -11.733648 -0.446119 0.140097 -0.421110
  9 -2.998634 1.160217 -19.583817 0.434326 -0.156200 0.118220
 10 -1.356799 1.880817 -34.573044 0.097549 0.155153 -0.039225
 11 -0.258573 -4.030289 -4.908817 0.000000 -0.000000 0.000000
 12 0.325039 1.113426 0.809013 -0.052232 0.003652 0.069720
 13 7.054491 1.815094 15.713705 -0.288550 -0.246254 -0.560694
 14 12.909767 -0.165817 -12.867268 0.058706 -0.086767 -0.002549
 15 11.504261 -9.735165 -11.778584 -0.114160 0.138026 -0.699164
 16 -26.805275 -13.795143 -4.013544 0.044709 -0.125240 -0.402167
 17 1.952618 -90.186768 -0.924715 0.000000 -0.000000 0.000000
 18 -35.001934 9.597207 -70.247482 0.000000 -0.000000 0.000000
 19 3.759460 -1.898643 -3.541323 0.000000 -0.000000 0.000000
 20 -7.698014 1.934284 15.877951 -0.727091 -0.188456 -0.255005
 21 -12.721182 -0.083347 -12.838255 0.350879 -0.485336 0.230535
 22 -9.167522 -10.101498 -11.648910 0.579793 0.809828 1.024413
 23 -3.642086 -2.032093 -4.543644 0.000000 -0.000000 0.000000
 24 -0.409780 2.428936 22.341393 -0.000001 0.000000 -0.122176
 25 -0.380095 -2.887192 20.845375 0.000000 -0.000000 0.000000
 26 -0.040495 -0.674473 8.862856 0.000000 -0.000000 0.000000
time 14
  0 -5.113562 -3.392895 0.796835 0.000000 -0.000000 0.000000
  1 -7.310884 -0.101110 174.348495 0.000000 -0.000000 0.000000
  2 -5.113562 -3.241279 -56.770935 1.709750 0.000000 0.000000
  3 0.325039 1.113426 -5.098999 -0.176105 0.000000 -0.000000
  4 6.206746 -0.124161 -11.733648 -0.436333 -0.000000 0.000000
  5 2.376919 1.428909 -19.463921 0.277484 0.000001 0.000000
  6 1.646507 1.612122 -34.692966 0.000000 -0.000000 0.000000
  7 0.219322 -4.030293 -4.600571 0.000000 -0.000000 0.000000
  8 -6.833118 -0.124157 -11.733647 -0.447232 0.139601 -0.421424
  9 -2.998630 1.160221 -19.583824 0.446391 -0.153602 0.120102
 10 -1.356792 1.880825 -34.573051 0.097549 0.155153 -0.039225
 11 -0.258573 -4.030289 -4.908817 0.000000 -0.000000 0.000000
 12 0.325039 1.113422 0.809013 -0.052232 0.003652 0.069720
 13 7.054491 1.815098 15.713706 -0.330231 -0.267739 -0.547810
 14 12.909765 -0.165817 -12.867267 0.058706 -0.086767 -0.002549
 15 11.504253 -9.735168 -11.778584 -0.114160 0.138026 -0.699164
 16 -29.499786 -12.922997 -3.030497 0.036973 -0.125350 -0.389696
 17 1.952644 -90.186752 -0.924709 0.000000 -0.000000 0.000000
 18 -35.001949 9.597221 -70.247505 0.000000 -0.000000 0.000000
 19 3.759460 -1.898643 -3.541325 0.000000 -0.000000 0.000000
 20 -7.698014 1.934284 15.877952 -0.763589 -0.194887 -0.247355
 21 -12.721182 -0.083351 -12.838257 0.350879 -0.485336 0.230535
 22 -9.167526 -10.101494 -11.648908 0.579793 0.809828 1.024413
 23 -3.642090 -2.032097 -4.543640 0.000000 -0.000000 0.000000
 24 -0.409780 2.428936 22.341396 -0.000001 0.000000 -0.122176
 25 -0.380095 -2.887196 20.845375 0.000000 -0.000000 0.000000
 26 -0.040495 -0.674473 8.862857 0.000000 -0.000000 0.000000
time 15
  0 -5.113562 -3.392895 0.796835 0.000000 -0.000000 0.000000
  1 -7.310884 -0.101110 174.348495 0.000000 -0.000000 0.000000
  2 -5.113562 -2.974598 -56.685467 1.664164 0.000000 0.000000
  3 0.325039 1.113434 -5.098999 -0.179477 0.000000 -0.000000
  4 6.206747 -0.124157 -11.733646 -0.436333 -0.000000 0.000000
  5 2.376919 1.428909 -19.463913 0.261800 0.000001 0.000000
  6 1.646507 1.612114 -34.692951 0.000000 -0.000000 0.000000
  7 0.219322 -4.030296 -4.600578 0.000000 -0.000000 0.000000
  8 -6.833119 -0.124157 -11.733646 -0.448482 0.139044 -0.421740
  9 -2.998630 1.160221 -19.583817 0.458911 -0.150924 0.122070
 10 -1.356794 1.880814 -34.573055 0.097549 0.155153 -0.039225
 11 -0.258572 -4.030289 -4.908833 0.000000 -0.000000 0.000000
 12 0.325039 1.113434 0.809014 -0.052232 0.003652 0.069720
 13 7.054492 1.815098 15.713708 -0.372286 -0.289417 -0.534811
 14 12.909769 -0.165817 -12.867271 0.058706 -0.086767 -0.002549
 15 11.504257 -9.735172 -11.778587 -0.114160 0.138026 -0.699164
 16 -32.218513 -12.043016 -2.038616 0.029167 -0.125461 -0.377113
 17 1.952641 -90.186745 -0.924713 0.000000 -0.000000 0.000000
 18 -35.001953 9.597219 -70.247513 0.000000 -0.000000 0.000000
 19 3.759453 -1.898642 -3.541325 0.000000 -0.000000 0.000000
 20 -7.698016 1.934284 15.877954 -0.800414 -0.201375 -0.239635
 21 -12.721183 -0.083351 -12.838253 0.350879 -0.485336 0.230535
 22 -9.167519 -10.101501 -11.648901 0.579793 0.809829 1.024413
 23 -3.642090 -2.032097 -4.543640 0.000000 -0.000000 0.000000
 24 -0.409779 2.428932 22.341396 -0.000001 0.000000 -0.122176
 25 -0.380096 -2.887192 20.845375 0.000000 -0.000000 0.000000
 26 -0.040494 -0.674473 8.862860 0.000000 -0.000000 0.000000
time 16
  0 -5.113562 -3.392895 0.796835 0.000000 -0.000000 0.000000
  1 -7.310884 -0.101110 174.348495 0.000000 -0.000000 0.000000
  2 -5.113562 -2.596050 -56.536823 1.599245 0.000000 0.000000
  3 0.325039 1.113430 -5.098999 -0.182759 0.000000 -0.000000
  4 6.206746 -0.124165 -11.733644 -0.436333 -0.000000 0.000000
  5 2.376919 1.428909 -19.463917 0.246115 0.000001 0.000000
  6 1.646507 1.612122 -34.692955 0.000000 -0.000000 0.000000
  7 0.219322 -4.030300 -4.600571 0.000000 -0.000000 0.000000
  8 -6.833119 -0.124161 -11.733644 -0.449877 0.138422 -0.422056
  9 -2.998635 1.160225 -19.583820 0.471828 -0.148180 0.124116
 10 -1.356796 1.880817 -34.573048 0.097549 0.155153 -0.039225
 11 -0.258570 -4.030296 -4.908836 0.000000 -0.000000 0.000000
 12 0.325039 1.113430 0.809014 -0.052232 0.003652 0.069720
 13 7.054491 1.815094 15.713703 -0.414340 -0.311094 -0.521812
 14 12.909769 -0.165813 -12.867266 0.058706 -0.086767 -0.002549
 15 11.504253 -9.735161 -11.778584 -0.114160 0.138026 -0.699164
 16 -34.937237 -11.163036 -1.046736 0.021361 -0.125572 -0.364530
 17 1.952633 -90.186745 -0.924713 0.000000 -0.000000 0.000000
 18 -35.001953 9.597216 -70.247513 0.000000 -0.000000 0.000000
 19 3.759460 -1.898640 -3.541323 0.000000 -0.000000 0.000000
 20 -7.698017 1.934284 15.877951 -0.837240 -0.207863 -0.231915
 21 -12.721184 -0.083351 -12.838257 0.350879 -0.485336 0.230535
 22 -9.167526 -10.101505 -11.648909 0.579793 0.809829 1.024413
 23 -3.642090 -2.032097 -4.543640 0.000000 -0.000000 0.000000
 24 -0.409780 2.428936 22.341393 -0.000001 0.000000 -0.122176
 25 -0.380095 -2.887192 20.845373 0.000000 -0.000000 0.000000
 26 -0.040495 -0.674473 8.862858 0.000000 -0.000000 0.000000
time 17
  0 -5.113562 -3.392895 0.796835 0.000000 -0.000000 0.000000
  1 -7.310884 -0.101110 174.348495 0.000000 -0.000000 0.000000
  2 -5.113562 -2.123445 -56.311829 1.517890 0.000000 0.000000
  3 0.325038 1.113430 -5.099000 -0.185935 0.000000 -0.000000
  4 6.206746 -0.124165 -11.733648 -0.436333 -0.000000 0.000000
  5 2.376919 1.428909 -19.463913 0.230570 0.000001 0.000000
  6 1.646507 1.612122 -34.692955 0.000000 -0.000000 0.000000
  7 0.219322 -4.030300 -4.600571 0.000000 -0.000000 0.000000
  8 -6.833119 -0.124161 -11.733648 -0.451425 0.137733 -0.422369
  9 -2.998631 1.160221 -19.583817 0.485080 -0.145387 0.126233
 10 -1.356794 1.880817 -34.573048 0.097549 0.155153 -0.039225
 11 -0.258572 -4.030304 -4.908813 0.000000 -0.000000 0.000000
 12 0.325039 1.113430 0.809013 -0.052232 0.003652 0.069720
 13 7.054491 1.815094 15.713708 -0.456020 -0.332579 -0.508929
 14 12.909765 -0.165817 -12.867268 0.058706 -0.086767 -0.002549
 15 11.504257 -9.735172 -11.778584 -0.114160 0.138026 -0.699164
 16 -37.631756 -10.290888 -0.063683 0.013624 -0.125682 -0.352059
 17 1.952633 -90.186714 -0.924702 0.000000 -0.000000 0.000000
 18 -35.001965 9.597219 -70.247520 0.000000 -0.000000 0.000000
 19 3.759453 -1.898638 -3.541321 0.000000 -0.000000 0.000000
 20 -7.698015 1.934280 15.877952 -0.873737 -0.214293 -0.224264
 21 -12.721182 -0.083340 -12.838249 0.350879 -0.485336 0.230535
 22 -9.167526 -10.101498 -11.648907 0.579793 0.809829 1.024413
 23 -3.642082 -2.032095 -4.543633 0.000000 -0.000000 0.000000
 24 -0.409780 2.428932 22.341396 -0.000001 0.000000 -0.122176
 25 -0.380095 -2.887199 20.845375 0.000000 -0.000000 0.000000
 26 -0.040495 -0.674473 8.862860 0.000000 -0.000000 0.000000
time 18
  0 -5.113562 -3.392895 0.796835 0.000000 -0.000000 0.000000
  1 -7.310884 -0.101110 174.348495 0.000000 -0.000000 0.000000
  2 -5.113562 -1.574592 -55.997314 1.422997 0.000000 0.000000
  3 0.325039 1.113434 -5.098998 -0.188986 0.000000 -0.000000
  4 6.206746 -0.124165 -11.733646 -0.436333 -0.000000 0.000000
  5 2.376919 1.428907 -19.463913 0.215304 0.000001 0.000000
  6 1.646507 1.612114 -34.692955 0.000000 -0.000000 0.000000
  7 0.219322 -4.030296 -4.600571 0.000000 -0.000000 0.000000
  8 -6.833118 -0.124161 -11.733646 -0.453133 0.136973 -0.422677
  9 -2.998631 1.160219 -19.583824 0.498607 -0.142559 0.128414
 10 -1.356794 1.880814 -34.573040 0.097549 0.155153 -0.039225
 11 -0.258569 -4.030296 -4.908829 0.000000 -0.000000 0.000000
 12 0.325039 1.113434 0.809014 -0.052232 0.003652 0.069720
 13 7.054492 1.815094 15.713703 -0.496952 -0.353678 -0.496278
 14 12.909765 -0.165817 -12.867268 0.058706 -0.086767 -0.002549
 15 11.504261 -9.735161 -11.778580 -0.114160 0.138026 -0.699164
 16 -40.277885 -9.434424 0.901703 0.006027 -0.125790 -0.339812
 17 1.952629 -90.186745 -0.924709 0.000000 -0.000000 0.000000
 18 -35.001949 9.597218 -70.247498 0.000000 -0.000000 0.000000
 19 3.759453 -1.898643 -3.541328 0.000000 -0.000000 0.000000
 20 -7.698015 1.934288 15.877949 -0.909579 -0.220608 -0.216750
 21 -12.721184 -0.083347 -12.838253 0.350879 -0.485336 0.230535
 22 -9.167526 -10.101501 -11.648907 0.579793 0.809828 1.024413
 23 -3.642086 -2.032101 -4.543640 0.000000 -0.000000 0.000000
 24 -0.409780 2.428932 22.341394 -0.000001 0.000000 -0.122176
 25 -0.380095 -2.887192 20.845371 0.000000 -0.000000 0.000000
 26 -0.040495 -0.674469 8.862857 0.000000 -0.000000 0.000000
time 19
  0 -5.113562 -3.392895 0.796835 0.000000 -0.000000 0.000000
  1 -7.310884 -0.101110 174.348495 0.000000 -0.000000 0.000000
  2 -5.113562 -0.967301 -55.580109 1.317463 0.000000 0.000000
  3 0.325039 1.113430 -5.099000 -0.191895 0.000000 -0.000000
  4 6.206746 -0.124157 -11.733644 -0.436333 -0.000000 0.000000
  5 2.376919 1.428905 -19.463913 0.200457 0.000001 0.000000
  6 1.646507 1.612122 -34.692955 0.000000 -0.000000 0.000000
  7 0.219323 -4.030289 -4.600571 0.000000 -0.000000 0.000000
  8 -6.833118 -0.124157 -11.733648 -0.455008 0.136138 -0.422976
  9 -2.998631 1.160215 -19.583817 0.512349 -0.139713 0.130651
 10 -1.356792 1.880821 -34.573051 0.097549 0.155153 -0.039225
 11 -0.258572 -4.030296 -4.908821 0.000000 -0.000000 0.000000
 12 0.325039 1.113430 0.809012 -0.052232 0.003652 0.069720
 13 7.054492 1.815098 15.713706 -0.536760 -0.374197 -0.483973
 14 12.909763 -0.165821 -12.867268 0.058706 -0.086767 -0.002549
 15 11.504259 -9.735168 -11.778584 -0.114160 0.138026 -0.699164
 16 -42.851402 -8.601439 1.840607 -0.001362 -0.125895 -0.327901
 17 1.952625 -90.186752 -0.924709 0.000000 -0.000000 0.000000
 18 -35.001961 9.597218 -70.247513 0.000000 -0.000000 0.000000
 19 3.759453 -1.898643 -3.541325 0.000000 -0.000000 0.000000
 20 -7.698016 1.934288 15.877953 -0.944438 -0.226750 -0.209443
 21 -12.721182 -0.083344 -12.838257 0.350879 -0.485336 0.230535
 22 -9.167519 -10.101498 -11.648901 0.579793 0.809828 1.024413
 23 -3.642086 -2.032093 -4.543640 0.000000 -0.000000 0.000000
 24 -0.409780 2.428936 22.341394 -0.000001 0.000000 -0.122176
 25 -0.380096 -2.887196 20.845379 0.000000 -0.000000 0.000000
 26 -0.040494 -0.674473 8.862860 0.000000 -0.000000 0.000000
time 20
  0 -5.113562 -3.392895 0.796835 0.000000 -0.000000 0.000000
  1 -7.310884 -0.101110 174.348495 0.000000 -0.000000 0.000000
  2 -5.113562 -0.319382 -55.047035 1.204188 0.000000 0.000000
  3 0.325039 1.113426 -5.098999 -0.194644 0.000000 -0.000000
  4 6.206746 -0.124161 -11.733646 -0.436333 -0.000000 0.000000
  5 2.376919 1.428907 -19.463909 0.186169 0.000001 0.000001
  6 1.646507 1.612122 -34.692955 0.000000 -0.000000 0.000000
  7 0.219322 -4.030296 -4.600571 0.000000 -0.000000 0.000000
  8 -6.833119 -0.124161 -11.733643 -0.457060 0.135225 -0.423264
  9 -2.998630 1.160219 -19.583824 0.526245 -0.136864 0.132937
 10 -1.356798 1.880821 -34.573051 0.097549 0.155153 -0.039225
 11 -0.258574 -4.030296 -4.908829 0.000000 -0.000000 0.000000
 12 0.325039 1.113426 0.809013 -0.052232 0.003652 0.069720
 13 7.054492 1.815098 15.713704 -0.575071 -0.393945 -0.472131
 14 12.909763 -0.165817 -12.867268 0.058706 -0.086767 -0.002549
 15 11.504261 -9.735170 -11.778580 -0.114160 0.138026 -0.699164
 16 -45.328094 -7.799799 2.744205 -0.008473 -0.125996 -0.316438
 17 1.952633 -90.186745 -0.924709 0.000000 -0.000000 0.000000
 18 -35.001957 9.597219 -70.247513 0.000000 -0.000000 0.000000
 19 3.759453 -1.898643 -3.541321 0.000000 -0.000000 0.000000
 20 -7.698017 1.934288 15.877950 -0.977985 -0.232660 -0.202411
 21 -12.721179 -0.083345 -12.838253 0.350879 -0.485336 0.230535
 22 -9.167519 -10.101500 -11.648905 0.579793 0.809828 1.024413
 23 -3.642088 -2.032097 -4.543640 0.000000 -0.000000 0.000000
 24 -0.409781 2.428936 22.341393 -0.000001 0.000000 -0.122176
 25 -0.380096 -2.887196 20.845373 0.000000 -0.000000 0.000000
 26 -0.040495 -0.674469 8.862855 0.000000 -0.000000 0.000000
time 21
  0 -5.113562 -3.392895 0.796835 0.000000 -0.000000 0.000000
  1 -7.310884 -0.101110 174.348495 0.000000 -0.000000 0.000000
  2 -5.113562 0.351355 -54.384926 1.086069 0.000000 0.000000
  3 0.325039 1.113430 -5.099001 -0.197216 0.000000 -0.000000
  4 6.206746 -0.124161 -11.733650 -0.436333 -0.000000 0.000000
  5 2.376919 1.428909 -19.463913 0.172578 0.000001 0.000001
  6 1.646507 1.612116 -34.692955 0.000000 -0.000000 0.000000
  7 0.219322 -4.030296 -4.600571 0.000000 -0.000000 0.000000
  8 -6.833120 -0.124165 -11.733650 -0.459294 0.134232 -0.423538
  9 -2.998631 1.160217 -19.583824 0.540235 -0.134027 0.135264
 10 -1.356794 1.880821 -34.573051 0.097549 0.155153 -0.039225
 11 -0.258570 -4.030296 -4.908829 0.000000 -0.000000 0.000000
 12 0.325039 1.113426 0.809011 -0.052232 0.003652 0.069720
 13 7.054492 1.815098 15.713701 -0.611510 -0.412728 -0.460868
 14 12.909767 -0.165819 -12.867271 0.058706 -0.086767 -0.002549
 15 11.504261 -9.735168 -11.778591 -0.114160 0.138026 -0.699164
 16 -47.683784 -7.037327 3.603638 -0.015237 -0.126092 -0.305535
 17 1.952627 -90.186737 -0.924694 0.000000 -0.000000 0.000000
 18 -35.001938 9.597226 -70.247498 0.000000 -0.000000 0.000000
 19 3.759453 -1.898641 -3.541321 0.000000 -0.000000 0.000000
 20 -7.698015 1.934288 15.877950 -1.009893 -0.238282 -0.195722
 21 -12.721181 -0.083347 -12.838249 0.350879 -0.485336 0.230535
 22 -9.167522 -10.101498 -11.648903 0.579793 0.809828 1.024413
 23 -3.642086 -2.032096 -4.543633 0.000000 -0.000000 0.000000
 24 -0.409779 2.428944 22.341393 -0.000001 0.000000 -0.122176
 25 -0.380096 -2.887196 20.845375 0.000000 -0.000000 0.000000
 26 -0.040494 -0.674465 8.862858 0.000000 -0.000000 0.000000
time 22
  0 -5.113562 -3.392895 0.796835 0.000000 -0.000000 0.000000
  1 -7.310884 -0.101110 174.348495 0.000000 -0.000000 0.000000
  2 -5.113562 1.027102 -53.580601 0.966003 0.000000 0.000000
  3 0.325039 1.113434 -5.098995 -0.199592 0.000000 -0.000000
  4 6.206746 -0.124161 -11.733646 -0.436333 -0.000000 0.000000
  5 2.376919 1.428908 -19.463913 0.159826 0.000001 0.000001
  6 1.646507 1.612116 -34.692963 0.000000 -0.000000 0.000000
  7 0.219322 -4.030296 -4.600571 0.000000 -0.000000 0.000000
  8 -6.833119 -0.124153 -11.733643 -0.461718 0.133153 -0.423795
  9 -2.998632 1.160223 -19.583817 0.554258 -0.131218 0.137624
 10 -1.356791 1.880829 -34.573051 0.097549 0.155153 -0.039225
 11 -0.258572 -4.030293 -4.908813 0.000000 -0.000000 0.000000
 12 0.325039 1.113430 0.809015 -0.052232 0.003652 0.069720
 13 7.054492 1.815094 15.713705 -0.645703 -0.430354 -0.450299
 14 12.909764 -0.165817 -12.867271 0.058706 -0.086767 -0.002549
 15 11.504257 -9.735167 -11.778587 -0.114160 0.138026 -0.699164
 16 -49.894264 -6.321859 4.410088 -0.021584 -0.126183 -0.295304
 17 1.952612 -90.186737 -0.924706 0.000000 -0.000000 0.000000
 18 -35.001938 9.597212 -70.247505 0.000000 -0.000000 0.000000
 19 3.759453 -1.898643 -3.541328 0.000000 -0.000000 0.000000
 20 -7.698013 1.934280 15.877951 -1.039834 -0.243557 -0.189445
 21 -12.721184 -0.083347 -12.838257 0.350879 -0.485336 0.230535
 22 -9.167526 -10.101502 -11.648903 0.579793 0.809828 1.024413
 23 -3.642090 -2.032097 -4.543648 0.000000 -0.000000 0.000000
 24 -0.409779 2.428932 22.341389 -0.000001 0.000000 -0.122176
 25 -0.380095 -2.887196 20.845379 0.000000 -0.000000 0.000000
 26 -0.040494 -0.674473 8.862856 0.000000 -0.000000 0.000000
time 23
  0 -5.113562 -3.392895 0.796835 0.000000 -0.000000 0.000000
  1 -7.310884 -0.101110 174.348495 0.000000 -0.000000 0.000000
  2 -5.113562 1.690048 -52.620899 0.846889 0.000000 0.000000
  3 0.325039 1.113430 -5.098999 -0.201754 0.000000 -0.000000
  4 6.206747 -0.124163 -11.733650 -0.436333 -0.000000 0.000000
  5 2.376919 1.428907 -19.463913 0.148051 0.000001 0.000001
  6 1.646507 1.612118 -34.692955 0.000000 -0.000000 0.000000
  7 0.219322 -4.030294 -4.600571 0.000000 -0.000000 0.000000
  8 -6.833119 -0.124159 -11.733646 -0.464341 0.131987 -0.424032
  9 -2.998634 1.160220 -19.583817 0.568255 -0.128451 0.140012
 10 -1.356798 1.880836 -34.573051 0.097549 0.155153 -0.039225
 11 -0.258574 -4.030293 -4.908813 0.000000 -0.000000 0.000000
 12 0.325039 1.113430 0.809013 -0.052232 0.003652 0.069720
 13 7.054491 1.815098 15.713701 -0.677275 -0.446628 -0.440540
 14 12.909766 -0.165819 -12.867271 0.058706 -0.086767 -0.002549
 15 11.504263 -9.735171 -11.778587 -0.114160 0.138026 -0.699164
 16 -51.935314 -5.661218 5.154732 -0.027444 -0.126266 -0.285858
 17 1.952620 -90.186729 -0.924709 0.000000 -0.000000 0.000000
 18 -35.001945 9.597213 -70.247490 0.000000 -0.000000 0.000000
 19 3.759457 -1.898641 -3.541325 0.000000 -0.000000 0.000000
 20 -7.698014 1.934288 15.877951 -1.067480 -0.248428 -0.183650
 21 -12.721179 -0.083347 -12.838253 0.350879 -0.485336 0.230535
 22 -9.167519 -10.101501 -11.648907 0.579793 0.809828 1.024413
 23 -3.642084 -2.032096 -4.543648 0.000000 -0.000000 0.000000
 24 -0.409780 2.428936 22.341393 -0.000001 0.000000 -0.122176
 25 -0.380096 -2.887196 20.845373 0.000000 -0.000000 0.000000
 26 -0.040495 -0.674469 8.862858 0.000000 -0.000000 0.000000
time 24
  0 -5.113562 -3.392895 0.796835 0.000000 -0.000000 0.000000
  1 -7.310884 -0.101110 174.348495 0.000000 -0.000000 0.000000
  2 -5.113562 2.322383 -51.492638 0.731624 0.000000 0.000000
  3 0.325039 1.113430 -5.098999 -0.203686 0.000000 -0.000000
  4 6.206746 -0.124161 -11.733646 -0.436333 -0.000000 0.000000
  5 2.376919 1.428907 -19.463913 0.137392 0.000001 0.000001
  6 1.646508 1.612121 -34.692963 0.000000 -0.000000 0.000000
  7 0.219322 -4.030298 -4.600563 0.000000 -0.000000 0.000000
  8 -6.833119 -0.124165 -11.733646 -0.467170 0.130729 -0.424247
  9 -2.998632 1.160219 -19.583824 0.582165 -0.125744 0.142418
 10 -1.356795 1.880825 -34.573051 0.097549 0.155153 -0.039225
 11 -0.258574 -4.030293 -4.908829 0.000000 -0.000000 0.000000
 12 0.325039 1.113430 0.809010 -0.052232 0.003652 0.069720
 13 7.054491 1.815098 15.713703 -0.705853 -0.461359 -0.431707
 14 12.909765 -0.165821 -12.867271 0.058706 -0.086767 -0.002549
 15 11.504253 -9.735171 -11.778587 -0.114160 0.138026 -0.699164
 16 -53.782772 -5.063233 5.828751 -0.032748 -0.126341 -0.277307
 17 1.952641 -90.186729 -0.924698 0.000000 -0.000000 0.000000
 18 -35.001942 9.597224 -70.247520 0.000000 -0.000000 0.000000
 19 3.759453 -1.898642 -3.541325 0.000000 -0.000000 0.000000
 20 -7.698015 1.934282 15.877949 -1.092504 -0.252836 -0.178404
 21 -12.721183 -0.083349 -12.838253 0.350879 -0.485336 0.230535
 22 -9.167519 -10.101503 -11.648911 0.579793 0.809829 1.024413
 23 -3.642090 -2.032094 -4.543648 0.000000 -0.000000 0.000000
 24 -0.409780 2.428934 22.341391 -0.000001 0.000000 -0.122176
 25 -0.380095 -2.887199 20.845375 0.000000 -0.000000 0.000000
 26 -0.040494 -0.674471 8.862856 0.000000 -0.000000 0.000000
time 25
  0 -5.113562 -3.392895 0.796835 0.000000 -0.000000 0.000000
  1 -7.310884 -0.101110 174.348495 0.000000 -0.000000 0.000000
  2 -5.113562 2.906299 -50.182648 0.623108 0.000000 0.000000
  3 0.325039 1.113432 -5.098999 -0.205370 0.000000 -0.000000
  4 6.206746 -0.124162 -11.733646 -0.436333 -0.000000 0.000000
  5 2.376919 1.428907 -19.463905 0.127991 0.000001 0.000001
  6 1.646508 1.612117 -34.692955 0.000000 -0.000000 0.000000
  7 0.219322 -4.030295 -4.600571 0.000000 -0.000000 0.000000
  8 -6.833118 -0.124163 -11.733650 -0.470212 0.129377 -0.424436
  9 -2.998634 1.160219 -19.583824 0.595927 -0.123110 0.144837
 10 -1.356794 1.880829 -34.573051 0.097549 0.155153 -0.039225
 11 -0.258575 -4.030296 -4.908829 0.000000 -0.000000 0.000000
 12 0.325039 1.113430 0.809013 -0.052232 0.003652 0.069720
 13 7.054492 1.815096 15.713705 -0.731061 -0.474352 -0.423916
 14 12.909765 -0.165820 -12.867271 0.058706 -0.086767 -0.002549
 15 11.504257 -9.735168 -11.778591 -0.114160 0.138026 -0.699164
 16 -55.412384 -4.535784 6.423290 -0.037427 -0.126408 -0.269765
 17 1.952629 -90.186722 -0.924698 0.000000 -0.000000 0.000000
 18 -35.001923 9.597223 -70.247505 0.000000 -0.000000 0.000000
 19 3.759453 -1.898641 -3.541325 0.000000 -0.000000 0.000000
 20 -7.698014 1.934284 15.877949 -1.114577 -0.256725 -0.173777
 21 -12.721180 -0.083345 -12.838255 0.350879 -0.485336 0.230535
 22 -9.167519 -10.101500 -11.648907 0.579793 0.809829 1.024413
 23 -3.642090 -2.032098 -4.543640 0.000000 -0.000000 0.000000
 24 -0.409779 2.428936 22.341391 -0.000001 0.000000 -0.122176
 25 -0.380095 -2.887199 20.845375 0.000000 -0.000000 0.000000
 26 -0.040494 -0.674471 8.862858 0.000000 -0.000000 0.000000
time 26
  0 -5.113562 -3.392895 0.796835 0.000000 -0.000000 0.000000
  1 -7.310884 -0.101110 174.348495 0.000000 -0.000000 0.000000
  2 -5.113562 3.423985 -48.677761 0.524237 0.000000 0.000000
  3 0.325038 1.113428 -5.099003 -0.206787 0.000000 -0.000000
  4 6.206746 -0.124161 -11.733646 -0.436333 -0.000000 0.000000
  5 2.376919 1.428907 -19.463917 0.119986 0.000001 0.000001
  6 1.646507 1.612119 -34.692955 0.000000 -0.000000 0.000000
  7 0.219322 -4.030297 -4.600563 0.000000 -0.000000 0.000000
  8 -6.833119 -0.124160 -11.733646 -0.473475 0.127927 -0.424598
  9 -2.998631 1.160221 -19.583817 0.609482 -0.120566 0.147259
 10 -1.356795 1.880821 -34.573051 0.097549 0.155153 -0.039225
 11 -0.258568 -4.030296 -4.908829 0.000000 -0.000000 0.000000
 12 0.325038 1.113430 0.809013 -0.052232 0.003652 0.069720
 13 7.054491 1.815097 15.713707 -0.752525 -0.485416 -0.417281
 14 12.909766 -0.165821 -12.867266 0.058706 -0.086767 -0.002549
 15 11.504259 -9.735168 -11.778584 -0.114160 0.138026 -0.699164
 16 -56.799984 -4.086669 6.929520 -0.041411 -0.126465 -0.263343
 17 1.952606 -90.186737 -0.924702 0.000000 -0.000000 0.000000
 18 -35.001945 9.597215 -70.247498 0.000000 -0.000000 0.000000
 19 3.759453 -1.898641 -3.541325 0.000000 -0.000000 0.000000
 20 -7.698014 1.934286 15.877949 -1.133372 -0.260037 -0.169837
 21 -12.721180 -0.083346 -12.838251 0.350879 -0.485336 0.230535
 22 -9.167522 -10.101507 -11.648903 0.579793 0.809828 1.024413
 23 -3.642094 -2.032098 -4.543640 0.000000 -0.000000 0.000000
 24 -0.409780 2.428938 22.341394 -0.000001 0.000000 -0.122176
 25 -0.380096 -2.887196 20.845375 0.000000 -0.000000 0.000000
 26 -0.040494 -0.674469 8.862858 0.000000 -0.000000 0.000000
time 27
  0 -5.113562 -3.392895 0.796835 0.000000 -0.000000 0.000000
  1 -7.310884 -0.101110 174.348495 0.000000 -0.000000 0.000000
  2 -5.113562 3.857631 -46.964798 0.437909 0.000000 0.000000
  3 0.325039 1.113430 -5.098999 -0.207919 0.000000 -0.000000
  4 6.206746 -0.124159 -11.733650 -0.436333 -0.000000 0.000000
  5 2.376919 1.428907 -19.463917 0.113516 0.000001 0.000001
  6 1.646507 1.612119 -34.692963 0.000000 -0.000000 0.000000
  7 0.219322 -4.030296 -4.600571 0.000000 -0.000000 0.000000
  8 -6.833119 -0.124159 -11.733654 -0.476966 0.126375 -0.424728
  9 -2.998634 1.160219 -19.583817 0.622768 -0.118126 0.149679
 10 -1.356795 1.880825 -34.573051 0.097549 0.155153 -0.039225
 11 -0.258570 -4.030296 -4.908829 0.000000 -0.000000 0.000000
 12 0.325039 1.113430 0.809013 -0.052232 0.003652 0.069720
 13 7.054492 1.815097 15.713709 -0.769871 -0.494357 -0.411919
 14 12.909765 -0.165817 -12.867264 0.058706 -0.086767 -0.002549
 15 11.504260 -9.735167 -11.778587 -0.114160 0.138026 -0.699164
 16 -57.921352 -3.723702 7.338642 -0.044631 -0.126510 -0.258153
 17 1.952621 -90.186729 -0.924694 0.000000 -0.000000 0.000000
 18 -35.001945 9.597222 -70.247513 0.000000 -0.000000 0.000000
 19 3.759453 -1.898642 -3.541321 0.000000 -0.000000 0.000000
 20 -7.698014 1.934286 15.877958 -1.148561 -0.262713 -0.166652
 21 -12.721184 -0.083347 -12.838255 0.350879 -0.485336 0.230535
 22 -9.167526 -10.101498 -11.648903 0.579793 0.809828 1.024413
 23 -3.642086 -2.032098 -4.543640 0.000000 -0.000000 0.000000
 24 -0.409780 2.428936 22.341400 -0.000001 0.000000 -0.122176
 25 -0.380095 -2.887197 20.845379 0.000000 -0.000000 0.000000
 26 -0.040494 -0.674472 8.862862 0.000000 -0.000000 0.000000
time 28
  0 -5.113562 -3.392895 0.796835 0.000000 -0.000000 0.000000
  1 -7.310884 -0.101110 174.348495 0.000000 -0.000000 0.000000
  2 -5.113562 4.189428 -45.030594 0.367023 0.000000 0.000000
  3 0.325039 1.113430 -5.098999 -0.208751 0.000000 -0.000000
  4 6.206746 -0.124159 -11.733646 -0.436333 -0.000000 0.000000
  5 2.376919 1.428907 -19.463913 0.108722 0.000001 0.000001
  6 1.646507 1.612120 -34.692963 0.000000 -0.000000 0.000000
  7 0.219322 -4.030296 -4.600563 0.000000 -0.000000 0.000000
  8 -6.833118 -0.124160 -11.733650 -0.480694 0.124719 -0.424825
  9 -2.998633 1.160217 -19.583820 0.635725 -0.115807 0.152088
 10 -1.356796 1.880823 -34.573051 0.097549 0.155153 -0.039225
 11 -0.258572 -4.030296 -4.908829 0.000000 -0.000000 0.000000
 12 0.325039 1.113429 0.809013 -0.052232 0.003652 0.069720
 13 7.054492 1.815096 15.713707 -0.782724 -0.500983 -0.407947
 14 12.909769 -0.165818 -12.867271 0.058706 -0.086767 -0.002549
 15 11.504254 -9.735168 -11.778595 -0.114160 0.138026 -0.699164
 16 -58.752281 -3.454757 7.641811 -0.047017 -0.126544 -0.254307
 17 1.952621 -90.186745 -0.924686 0.000000 -0.000000 0.000000
 18 -35.001915 9.597224 -70.247520 0.000000 -0.000000 0.000000
 19 3.759451 -1.898642 -3.541325 0.000000 -0.000000 0.000000
 20 -7.698017 1.934284 15.877953 -1.159817 -0.264696 -0.164293
 21 -12.721180 -0.083347 -12.838253 0.350879 -0.485336 0.230535
 22 -9.167526 -10.101503 -11.648911 0.579793 0.809828 1.024413
 23 -3.642090 -2.032098 -4.543644 0.000000 -0.000000 0.000000
 24 -0.409780 2.428935 22.341394 -0.000001 0.000000 -0.122176
 25 -0.380096 -2.887196 20.845375 0.000000 -0.000000 0.000000
 26 -0.040495 -0.674473 8.862858 0.000000 -0.000000 0.000000
time 29
  0 -5.113562 -3.392895 0.796835 0.000000 -0.000000 0.000000
  1 -7.310884 -0.101110 174.348495 0.000000 -0.000000 0.000000
  2 -5.113562 4.401567 -42.861969 0.314477 0.000000 0.000000
  3 0.325039 1.113430 -5.098999 -0.209262 0.000000 -0.000000
  4 6.206747 -0.124159 -11.733643 -0.436333 -0.000000 0.000000
  5 2.376919 1.428907 -19.463917 0.105744 0.000001 0.000001
  6 1.646507 1.612118 -34.692955 0.000000 -0.000000 0.000000
  7 0.219322 -4.030300 -4.600563 0.000000 -0.000000 0.000000
  8 -6.833118 -0.124160 -11.733643 -0.484666 0.122955 -0.424885
  9 -2.998633 1.160217 -19.583809 0.648293 -0.113624 0.154479
 10 -1.356797 1.880819 -34.573051 0.097549 0.155153 -0.039225
 11 -0.258570 -4.030294 -4.908821 0.000000 -0.000000 0.000000
 12 0.325039 1.113431 0.809013 -0.052232 0.003652 0.069720
 13 7.054492 1.815097 15.713705 -0.790711 -0.505100 -0.405478
 14 12.909764 -0.165817 -12.867266 0.058706 -0.086767 -0.002549
 15 11.504259 -9.735167 -11.778580 -0.114160 0.138026 -0.699164
 16 -59.268600 -3.287640 7.830154 -0.048499 -0.126565 -0.251917
 17 1.952614 -90.186722 -0.924702 0.000000 -0.000000 0.000000
 18 -35.001961 9.597216 -70.247520 0.000000 -0.000000 0.000000
 19 3.759449 -1.898643 -3.541325 0.000000 -0.000000 0.000000
 20 -7.698015 1.934286 15.877953 -1.166810 -0.265928 -0.162827
 21 -12.721178 -0.083345 -12.838254 0.350879 -0.485336 0.230535
 22 -9.167522 -10.101500 -11.648911 0.579793 0.809829 1.024413
 23 -3.642092 -2.032097 -4.543640 0.000000 -0.000000 0.000000
 24 -0.409779 2.428936 22.341394 -0.000001 0.000000 -0.122176
 25 -0.380096 -2.887195 20.845377 0.000000 -0.000000 0.000000
 26 -0.040495 -0.674471 8.862862 0.000000 -0.000000 0.000000
time 30
  0 -5.113562 -3.392895 0.796835 0.000000 -0.000000 0.000000
  1 -7.310884 -0.101110 174.348495 0.000000 -0.000000 0.000000
  2 -5.113562 4.476238 -40.445755 0.283168 0.000000 0.000000
  3 0.325038 1.113430 -5.099003 -0.209437 0.000000 -0.000000
  4 6.206747 -0.124161 -11.733646 -0.436333 -0.000000 0.000000
  5 2.376919 1.428909 -19.463917 0.104720 0.000001 0.000001
  6 1.646507 1.612118 -34.692947 0.000000 -0.000000 0.000000
  7 0.219322 -4.030298 -4.600571 0.000000 -0.000000 0.000000
  8 -6.833118 -0.124160 -11.733646 -0.488888 0.121079 -0.424905
  9 -2.998632 1.160219 -19.583817 0.660413 -0.111592 0.156845
 10 -1.356794 1.880827 -34.573051 0.097549 0.155153 -0.039225
 11 -0.258572 -4.030293 -4.908829 0.000000 -0.000000 0.000000
 12 0.325039 1.113431 0.809013 -0.052232 0.003652 0.069720
 13 7.054492 1.815096 15.713711 -0.793456 -0.506515 -0.404629
 14 12.909767 -0.165823 -12.867269 0.058706 -0.086767 -0.002549
 15 11.504265 -9.735173 -11.778587 -0.114160 0.138026 -0.699164
 16 -59.446114 -3.230169 7.894917 -0.049009 -0.126573 -0.251096
 17 1.952633 -90.186745 -0.924694 0.000000 -0.000000 0.000000
 18 -35.001949 9.597228 -70.247513 0.000000 -0.000000 0.000000
 19 3.759454 -1.898643 -3.541325 0.000000 -0.000000 0.000000
 20 -7.698016 1.934285 15.877956 -1.169214 -0.266352 -0.162323
 21 -12.721180 -0.083345 -12.838254 0.350879 -0.485336 0.230535
 22 -9.167519 -10.101501 -11.648909 0.579793 0.809828 1.024413
 23 -3.642090 -2.032097 -4.543636 0.000000 -0.000000 0.000000
 24 -0.409780 2.428935 22.341400 -0.000001 0.000000 -0.122176
 25 -0.380096 -2.887197 20.845379 0.000000 -0.000000 0.000000
 26 -0.040494 -0.674471 8.862862 0.000000 -0.000000 0.000000
end
