version 1
nodes
  0 "bone33"  -1
  1 "bone21"  -1
  2 "bone20"   1
  3 "bone07"   2
  4 "bone22"   3
  5 "bone18"   4
  6 "bone14"   2
  7 "bone16"   6
  8 "bone19"   7
  9 "bone03"   1
 10 "bone06"   9
 11 "bone08"   9
 12 "bone05"  11
 13 "bone09"  12
 14 "bone11"  13
 15 "BOX001"  14
 16 "bone02"   9
 17 "bone04"  16
 18 "bone10"  17
end
skeleton
time 0
  0 1.089372 -2.364846 -2.772400 0.000000 -0.000000 0.000000
  1 -0.114210 -4.321804 92.531555 0.000000 -0.000000 0.000000
  2 0.000000 0.426100 -2.643661 -0.034906 0.000000 0.000000
  3 -7.805030 -1.259274 -16.725006 -0.117611 0.103397 -0.142897
  4 -0.855268 1.999125 -33.097389 0.436331 -0.000000 0.000000
  5 -1.710042 1.005950 -32.422897 -0.292387 -0.049164 -0.003695
  6 8.359842 -0.134830 -16.096420 -0.068305 -0.155899 -0.019300
  7 1.023952 0.902420 -33.930798 0.349312 0.031101 0.015853
  8 1.181656 1.118918 -32.218109 -0.260399 0.006793 0.020443
  9 0.000000 -0.173451 2.663780 -0.226893 0.000000 0.000001
 10 0.725195 -1.257227 27.700890 0.244345 -0.000000 0.000000
 11 -7.896836 -0.700382 18.721550 0.366547 0.017132 0.003330
 12 -14.708298 0.451419 -17.688972 -0.639340 0.212496 0.456580
 13 -7.769440 -4.337910 -11.290726 -0.271619 0.244372 -0.041531
 14 -1.614944 -2.075470 -6.327099 0.052019 0.091792 0.093927
 15 34.313492 6.017464 -79.785110 -0.000000 0.000000 -0.000000
 16 9.145774 -0.500296 18.886604 0.297948 0.295893 -0.150448
 17 13.771748 0.225331 -17.802177 -1.073499 -0.618246 -1.108256
 18 7.757046 -4.315048 -11.436714 -0.088245 -0.076199 -0.105809
time 1
  0 1.089372 -2.364846 -2.772400 0.000000 -0.000000 0.000000
  1 -0.114210 -4.321804 88.898842 0.000000 0.000000 0.000000
  2 0.000000 0.426100 -2.643661 -0.057873 0.000000 -0.000000
  3 -7.805030 -1.259275 -16.725006 -0.117611 0.103397 -0.142897
  4 -0.855269 1.999125 -33.097389 0.545345 0.000765 0.017344
  5 -1.710042 1.005951 -32.422897 -0.292387 -0.049164 -0.003695
  6 8.359842 -0.134830 -16.096413 -0.068305 -0.155899 -0.019300
  7 1.023952 0.902424 -33.930801 0.464028 0.041423 0.008338
  8 1.181660 1.118912 -32.218105 -0.260399 0.006793 0.020443
  9 0.000000 -0.173451 2.663780 -0.161619 0.000000 0.000001
 10 0.725195 -1.257227 27.700897 0.275773 -0.000001 0.000000
 11 -7.896835 -0.700384 18.721558 0.307882 0.028841 -0.003535
 12 -14.708296 0.451419 -17.688957 -0.585363 0.177615 0.468870
 13 -7.769440 -4.337914 -11.290726 -0.271619 0.244372 -0.041531
 14 -1.308533 -1.953072 -5.763287 0.049346 0.107668 0.092131
 15 34.313515 6.017464 -79.785141 0.000000 -0.000000 0.000000
 16 9.145774 -0.500296 18.886604 0.235892 0.280012 -0.162497
 17 13.771746 0.225331 -17.802177 -0.977104 -0.584343 -1.025437
 18 7.757050 -4.315048 -11.436714 -0.088245 -0.076199 -0.105809
time 2
  0 1.089372 -2.364846 -2.772400 0.000000 -0.000000 0.000000
  1 -0.114210 -4.321804 79.429764 0.000000 0.000000 0.000000
  2 0.000000 0.426100 -2.643661 -0.115742 0.000000 -0.000000
  3 -7.805029 -1.259274 -16.725006 -0.117611 0.103397 -0.142897
  4 -0.855268 1.999125 -33.097389 0.820028 0.002694 0.061047
  5 -1.710042 1.005954 -32.422897 -0.292388 -0.049164 -0.003695
  6 8.359842 -0.134830 -16.096416 -0.068306 -0.155899 -0.019300
  7 1.023952 0.902422 -33.930801 0.753080 0.067431 -0.010597
  8 1.181656 1.118909 -32.218105 -0.260399 0.006793 0.020443
  9 0.000000 -0.173451 2.663780 0.002852 0.000000 0.000001
 10 0.725195 -1.257226 27.700905 0.354963 -0.000001 0.000000
 11 -7.896836 -0.700383 18.721558 0.160064 0.058345 -0.020834
 12 -14.708300 0.451420 -17.688965 -0.449356 0.089727 0.499838
 13 -7.769438 -4.337913 -11.290718 -0.271619 0.244372 -0.041531
 14 -0.439339 -1.605858 -4.163895 0.041763 0.152706 0.087036
 15 34.313515 6.017479 -79.785141 0.000000 -0.000000 -0.000000
 16 9.145774 -0.500297 18.886604 0.079531 0.239998 -0.192855
 17 13.771749 0.225332 -17.802177 -0.734217 -0.498918 -0.816760
 18 7.757053 -4.315044 -11.436710 -0.088245 -0.076199 -0.105809
time 3
  0 1.089372 -2.364846 -2.772400 0.000000 -0.000000 0.000000
  1 -0.114210 -4.321804 66.267937 0.000000 0.000000 0.000000
  2 0.000000 0.426100 -2.643661 -0.191968 0.000000 -0.000000
  3 -7.805029 -1.259273 -16.725006 -0.117611 0.103397 -0.142897
  4 -0.855269 1.999123 -33.097389 1.181842 0.005235 0.118612
  5 -1.710044 1.005952 -32.422897 -0.292387 -0.049164 -0.003695
  6 8.359842 -0.134830 -16.096416 -0.068306 -0.155899 -0.019300
  7 1.023951 0.902424 -33.930801 1.133821 0.101689 -0.035537
  8 1.181658 1.118905 -32.218102 -0.260399 0.006793 0.020443
  9 0.000000 -0.173451 2.663780 0.219492 0.000000 0.000001
 10 0.725195 -1.257226 27.700890 0.459272 -0.000001 0.000000
 11 -7.896837 -0.700384 18.721550 -0.034644 0.097207 -0.043620
 12 -14.708298 0.451420 -17.688965 -0.270207 -0.026041 0.540628
 13 -7.769436 -4.337906 -11.290726 -0.271619 0.244372 -0.041531
 14 0.917603 -1.063795 -1.667004 0.029924 0.223016 0.079083
 15 34.313511 6.017511 -79.785126 -0.000000 0.000000 0.000000
 16 9.145775 -0.500298 18.886604 -0.126428 0.187292 -0.232843
 17 13.771749 0.225330 -17.802185 -0.414285 -0.386396 -0.541891
 18 7.757046 -4.315048 -11.436714 -0.088245 -0.076199 -0.105809
time 4
  0 1.089372 -2.364846 -2.772400 0.000000 -0.000000 0.000000
  1 -0.114210 -4.321804 51.557030 0.000000 0.000000 0.000000
  2 0.000000 0.426100 -2.643661 -0.270003 0.000000 -0.000000
  3 -7.805030 -1.259275 -16.725002 -0.117611 0.103397 -0.142897
  4 -0.855270 1.999119 -33.097385 1.552246 0.007836 0.177544
  5 -1.710043 1.005953 -32.422897 -0.292388 -0.049164 -0.003695
  6 8.359842 -0.134830 -16.096416 -0.068306 -0.155899 -0.019300
  7 1.023952 0.902426 -33.930801 1.523601 0.136760 -0.061070
  8 1.181662 1.118913 -32.218102 -0.260399 0.006793 0.020443
  9 0.000000 -0.173451 2.663776 0.441277 0.000000 0.000001
 10 0.725195 -1.257223 27.700893 0.566057 -0.000001 0.000001
 11 -7.896835 -0.700380 18.721546 -0.233973 0.136992 -0.066947
 12 -14.708298 0.451420 -17.688965 -0.086805 -0.144556 0.582387
 13 -7.769438 -4.337911 -11.290730 -0.271619 0.244372 -0.041531
 14 2.687252 -0.356871 1.589314 0.014486 0.314711 0.068710
 15 34.313515 6.017508 -79.785149 -0.000000 0.000000 0.000000
 16 9.145774 -0.500296 18.886608 -0.337278 0.133334 -0.273781
 17 13.771749 0.225330 -17.802193 -0.086758 -0.271202 -0.260495
 18 7.757044 -4.315051 -11.436714 -0.088245 -0.076199 -0.105809
time 5
  0 1.089372 -2.364846 -2.772400 0.000000 -0.000000 0.000000
  1 -0.114210 -4.321804 37.440693 0.000000 0.000000 0.000000
  2 0.000000 0.426100 -2.643661 -0.333301 0.000000 -0.000000
  3 -7.805030 -1.259274 -16.725006 -0.117611 0.103397 -0.142897
  4 -0.855269 1.999126 -33.097389 1.852701 0.009945 0.225347
  5 -1.710045 1.005955 -32.422890 -0.292388 -0.049164 -0.003695
  6 8.359843 -0.134830 -16.096416 -0.068305 -0.155899 -0.019300
  7 1.023951 0.902424 -33.930801 1.839772 0.165209 -0.081781
  8 1.181664 1.118919 -32.218105 -0.260399 0.006793 0.020443
  9 0.000000 -0.173451 2.663776 0.621178 0.000000 0.000001
 10 0.725195 -1.257225 27.700893 0.652676 -0.000001 0.000001
 11 -7.896836 -0.700384 18.721554 -0.395660 0.169264 -0.085869
 12 -14.708294 0.451421 -17.688965 0.061962 -0.240691 0.616260
 13 -7.769434 -4.337911 -11.290728 -0.271619 0.244372 -0.041531
 14 4.794582 0.484944 5.466976 -0.003899 0.423902 0.056358
 15 34.313515 6.017511 -79.785141 -0.000000 -0.000000 -0.000000
 16 9.145775 -0.500298 18.886608 -0.508309 0.089566 -0.306988
 17 13.771749 0.225332 -17.802185 0.178917 -0.177762 -0.032240
 18 7.757044 -4.315049 -11.436718 -0.088245 -0.076199 -0.105809
time 6
  0 1.089372 -2.364846 -2.772400 0.000000 -0.000000 0.000000
  1 -0.114210 -4.321804 26.062584 0.000000 0.000000 0.000000
  2 0.000000 0.426100 -2.643661 -0.365317 0.000000 -0.000000
  3 -7.805029 -1.259274 -16.725002 -0.117611 0.103397 -0.142897
  4 -0.855270 1.999125 -33.097385 2.004666 0.011013 0.249525
  5 -1.710044 1.005955 -32.422897 -0.292388 -0.049164 -0.003695
  6 8.359842 -0.134830 -16.096416 -0.068305 -0.155899 -0.019300
  7 1.023952 0.902421 -33.930801 1.999686 0.179597 -0.092257
  8 1.181665 1.118925 -32.218113 -0.260399 0.006793 0.020443
  9 0.000000 -0.173451 2.663776 0.712169 0.000000 0.000001
 10 0.725195 -1.257223 27.700890 0.696487 -0.000001 0.000001
 11 -7.896836 -0.700382 18.721550 -0.477439 0.185587 -0.095440
 12 -14.708294 0.451419 -17.688965 0.137207 -0.289314 0.633393
 13 -7.769436 -4.337910 -11.290722 -0.271619 0.244372 -0.041531
 14 7.164541 1.431675 9.827914 -0.024575 0.546702 0.042466
 15 34.313499 6.017521 -79.785126 -0.000000 -0.000000 -0.000000
 16 9.145774 -0.500298 18.886608 -0.594814 0.067429 -0.323783
 17 13.771749 0.225330 -17.802181 0.313292 -0.130502 0.083208
 18 7.757042 -4.315046 -11.436716 -0.088245 -0.076199 -0.105809
time 7
  0 1.089372 -2.364846 -2.772400 0.000000 -0.000000 0.000000
  1 0.007981 -4.061540 17.596712 0.000000 0.000000 0.000000
  2 0.000000 0.426100 -2.643661 -0.366519 0.000000 -0.000000
  3 -7.805030 -1.259274 -16.725004 -0.117611 0.103397 -0.142897
  4 -0.855270 1.999124 -33.097389 2.010372 0.011053 0.250433
  5 -1.710043 1.005953 -32.422901 -0.292387 -0.049164 -0.003695
  6 8.359843 -0.134830 -16.096416 -0.068305 -0.155899 -0.019300
  7 1.023953 0.902420 -33.930798 2.005691 0.180138 -0.092650
  8 1.181665 1.118923 -32.218105 -0.260399 0.006793 0.020443
  9 0.000000 -0.173451 2.663776 0.715586 0.000000 0.000001
 10 0.725195 -1.257226 27.700891 0.698132 -0.000001 0.000001
 11 -7.896836 -0.700385 18.721552 -0.480510 0.186200 -0.095799
 12 -14.708300 0.451421 -17.688967 0.140032 -0.291140 0.634036
 13 -7.769442 -4.337913 -11.290726 -0.271747 0.238433 -0.038326
 14 9.722105 2.453349 14.534048 -0.046888 0.679222 0.027475
 15 34.313484 6.017520 -79.785149 -0.000000 -0.000000 0.000000
 16 9.145774 -0.500296 18.886606 -0.598062 0.066598 -0.324414
 17 13.771749 0.225331 -17.802181 0.318337 -0.128727 0.087543
 18 7.757046 -4.315046 -11.436717 -0.088245 -0.076199 -0.105809
time 8
  0 1.089372 -2.364846 -2.772400 0.000000 -0.000000 0.000000
  1 0.480510 -3.056757 8.857545 0.000000 0.000000 0.000000
  2 0.000000 0.426100 -2.643661 -0.366519 0.000000 -0.000000
  3 -7.805029 -1.259273 -16.725002 -0.117611 0.103397 -0.142897
  4 -0.855269 1.999125 -33.097385 2.010372 0.011053 0.250433
  5 -1.710042 1.005951 -32.422897 -0.292388 -0.049164 -0.003695
  6 8.359842 -0.134831 -16.096416 -0.068305 -0.155899 -0.019300
  7 1.023952 0.902421 -33.930794 2.005691 0.180137 -0.092650
  8 1.181667 1.118919 -32.218113 -0.260399 0.006793 0.020443
  9 0.000000 -0.173451 2.663777 0.715586 0.000000 0.000001
 10 0.725195 -1.257225 27.700893 0.698132 -0.000001 0.000001
 11 -7.896835 -0.700385 18.721554 -0.480510 0.186200 -0.095799
 12 -14.708296 0.451420 -17.688965 0.140032 -0.291140 0.634036
 13 -7.769438 -4.337911 -11.290724 -0.272244 0.215505 -0.025955
 14 12.392218 3.519982 19.447294 -0.070182 0.817574 0.011825
 15 34.313469 6.017530 -79.785133 -0.000000 0.000000 -0.000000
 16 9.145774 -0.500296 18.886608 -0.598062 0.066598 -0.324414
 17 13.771749 0.225330 -17.802183 0.318337 -0.128727 0.087543
 18 7.757046 -4.315049 -11.436719 -0.088245 -0.076199 -0.105809
time 9
  0 1.089372 -2.364846 -2.772400 0.000000 -0.000000 0.000000
  1 1.237021 -1.451960 -0.040227 0.000000 0.000000 0.000000
  2 0.000000 0.426100 -2.643661 -0.366519 0.000000 -0.000000
  3 -7.805030 -1.259274 -16.725004 -0.117611 0.103397 -0.142897
  4 -0.855270 1.999124 -33.097389 2.010372 0.011053 0.250433
  5 -1.710043 1.005955 -32.422901 -0.292387 -0.049164 -0.003695
  6 8.359842 -0.134831 -16.096416 -0.068306 -0.155899 -0.019300
  7 1.023951 0.902422 -33.930798 2.005691 0.180137 -0.092650
  8 1.181662 1.118919 -32.218105 -0.260399 0.006793 0.020443
  9 0.000000 -0.173452 2.663777 0.715586 0.000000 0.000001
 10 0.725195 -1.257226 27.700895 0.698132 -0.000001 0.000001
 11 -7.896836 -0.700382 18.721552 -0.480510 0.186199 -0.095799
 12 -14.708294 0.451419 -17.688963 0.140032 -0.291140 0.634036
 13 -7.769438 -4.337913 -11.290727 -0.273037 0.178885 -0.006196
 14 15.099854 4.601607 24.429581 -0.093804 0.957871 -0.004046
 15 34.313477 6.017509 -79.785126 -0.000000 0.000000 0.000000
 16 9.145775 -0.500298 18.886606 -0.598062 0.066598 -0.324414
 17 13.771748 0.225332 -17.802181 0.318337 -0.128727 0.087543
 18 7.757046 -4.315047 -11.436716 -0.088245 -0.076199 -0.105809
time 10
  0 1.089372 -2.364846 -2.772400 0.000000 -0.000000 0.000000
  1 2.200968 0.586612 -8.842570 0.000000 0.000000 0.000000
  2 0.000000 0.426101 -2.643661 -0.366519 0.000000 -0.000000
  3 -7.805030 -1.259274 -16.725002 -0.117611 0.103397 -0.142897
  4 -0.855269 1.999126 -33.097389 2.010372 0.011053 0.250433
  5 -1.710042 1.005951 -32.422897 -0.292387 -0.049164 -0.003695
  6 8.359842 -0.134830 -16.096416 -0.068306 -0.155899 -0.019300
  7 1.023952 0.902424 -33.930794 2.005691 0.180137 -0.092650
  8 1.181664 1.118923 -32.218105 -0.260399 0.006793 0.020443
  9 0.000000 -0.173452 2.663777 0.715586 0.000000 0.000001
 10 0.725195 -1.257226 27.700890 0.698132 -0.000001 0.000001
 11 -7.896835 -0.700383 18.721550 -0.480510 0.186200 -0.095799
 12 -14.708300 0.451420 -17.688965 0.140032 -0.291140 0.634036
 13 -7.769436 -4.337913 -11.290728 -0.274045 0.132367 0.018903
 14 17.769974 5.668235 29.342834 -0.117099 1.096223 -0.019697
 15 34.313469 6.017531 -79.785141 0.000000 0.000000 -0.000000
 16 9.145774 -0.500297 18.886604 -0.598062 0.066598 -0.324414
 17 13.771749 0.225332 -17.802181 0.318337 -0.128727 0.087543
 18 7.757044 -4.315048 -11.436716 -0.088245 -0.076199 -0.105809
time 11
  0 1.089372 -2.364846 -2.772400 0.000000 -0.000000 0.000000
  1 3.295803 2.892722 -17.295456 0.000000 0.000000 0.000000
  2 0.000000 0.426100 -2.643661 -0.366519 0.000000 -0.000000
  3 -7.805030 -1.259274 -16.725006 -0.117611 0.103397 -0.142897
  4 -0.855269 1.999125 -33.097389 2.010372 0.011053 0.250433
  5 -1.710044 1.005959 -32.422901 -0.292387 -0.049164 -0.003695
  6 8.359842 -0.134830 -16.096416 -0.068306 -0.155899 -0.019300
  7 1.023952 0.902429 -33.930805 2.005691 0.180137 -0.092650
  8 1.181667 1.118927 -32.218094 -0.260399 0.006793 0.020443
  9 0.000000 -0.173451 2.663777 0.715586 0.000000 0.000001
 10 0.725195 -1.257225 27.700890 0.698132 -0.000001 0.000001
 11 -7.896835 -0.700383 18.721552 -0.480510 0.186200 -0.095799
 12 -14.708302 0.451420 -17.688967 0.140032 -0.291140 0.634036
 13 -7.769440 -4.337909 -11.290728 -0.275185 0.079744 0.047297
 14 20.327538 6.689908 34.048958 -0.139411 1.228743 -0.034687
 15 34.313465 6.017509 -79.785164 0.000000 0.000000 0.000000
 16 9.145775 -0.500296 18.886604 -0.598062 0.066598 -0.324414
 17 13.771749 0.225333 -17.802179 0.318337 -0.128728 0.087543
 18 7.757044 -4.315044 -11.436709 -0.088245 -0.076199 -0.105809
time 12
  0 1.089372 -2.364846 -2.772400 0.000000 -0.000000 0.000000
  1 4.444981 5.300133 -25.144854 0.000000 0.000000 0.000000
  2 0.000000 0.426101 -2.643661 -0.366519 0.000000 -0.000000
  3 -7.805029 -1.259274 -16.725006 -0.117611 0.103397 -0.142897
  4 -0.855269 1.999123 -33.097385 2.010372 0.011053 0.250433
  5 -1.710043 1.005943 -32.422897 -0.292387 -0.049164 -0.003695
  6 8.359842 -0.134830 -16.096416 -0.068306 -0.155899 -0.019300
  7 1.023954 0.902422 -33.930798 2.005691 0.180137 -0.092650
  8 1.181665 1.118919 -32.218098 -0.260399 0.006793 0.020443
  9 0.000000 -0.173451 2.663776 0.715586 0.000000 0.000001
 10 0.725195 -1.257225 27.700890 0.698132 -0.000001 0.000001
 11 -7.896836 -0.700383 18.721552 -0.480510 0.186200 -0.095799
 12 -14.708300 0.451420 -17.688965 0.140032 -0.291140 0.634036
 13 -7.769438 -4.337914 -11.290726 -0.276375 0.024809 0.076938
 14 22.697498 7.636650 38.409897 -0.160087 1.351544 -0.048579
 15 34.313477 6.017474 -79.785156 -0.000000 0.000000 0.000000
 16 9.145775 -0.500297 18.886606 -0.598062 0.066598 -0.324414
 17 13.771748 0.225331 -17.802181 0.318337 -0.128727 0.087543
 18 7.757046 -4.315048 -11.436714 -0.088245 -0.076199 -0.105809
time 13
  0 1.089372 -2.364846 -2.772400 0.000000 -0.000000 0.000000
  1 5.571956 7.642608 -32.136734 0.000000 0.000000 0.000000
  2 0.000000 0.426100 -2.643661 -0.366519 0.000000 -0.000000
  3 -7.805030 -1.259274 -16.725006 -0.117611 0.103397 -0.142897
  4 -0.855269 1.999126 -33.097385 2.010372 0.011053 0.250433
  5 -1.710042 1.005951 -32.422897 -0.292388 -0.049164 -0.003695
  6 8.359842 -0.134832 -16.096416 -0.068305 -0.155899 -0.019300
  7 1.023952 0.902426 -33.930801 2.005691 0.180137 -0.092650
  8 1.181664 1.118927 -32.218109 -0.260399 0.006793 0.020443
  9 0.000000 -0.173451 2.663776 0.715586 0.000000 0.000001
 10 0.725195 -1.257226 27.700890 0.698132 -0.000001 0.000001
 11 -7.896835 -0.700382 18.721550 -0.480510 0.186200 -0.095799
 12 -14.708298 0.451421 -17.688967 0.140032 -0.291140 0.634036
 13 -7.769440 -4.337913 -11.290728 -0.277533 -0.028644 0.105779
 14 24.804825 8.478456 42.287563 -0.178472 1.460734 -0.060931
 15 34.313507 6.017492 -79.785164 0.000000 -0.000000 -0.000000
 16 9.145775 -0.500297 18.886604 -0.598062 0.066598 -0.324414
 17 13.771749 0.225331 -17.802181 0.318337 -0.128727 0.087543
 18 7.757042 -4.315046 -11.436716 -0.088245 -0.076199 -0.105809
time 14
  0 1.089372 -2.364846 -2.772400 0.000000 -0.000000 0.000000
  1 6.600180 9.753907 -38.017059 0.000000 0.000000 0.000000
  2 0.000000 0.426101 -2.643661 -0.366519 0.000000 -0.000000
  3 -7.805030 -1.259274 -16.725006 -0.117611 0.103397 -0.142897
  4 -0.855270 1.999126 -33.097389 2.010372 0.011053 0.250433
  5 -1.710042 1.005951 -32.422901 -0.292388 -0.049164 -0.003695
  6 8.359842 -0.134829 -16.096416 -0.068306 -0.155899 -0.019300
  7 1.023952 0.902426 -33.930809 2.005691 0.180137 -0.092650
  8 1.181667 1.118919 -32.218102 -0.260399 0.006793 0.020443
  9 0.000000 -0.173451 2.663776 0.715586 0.000000 0.000001
 10 0.725195 -1.257225 27.700893 0.698132 -0.000001 0.000001
 11 -7.896836 -0.700382 18.721554 -0.480510 0.186200 -0.095799
 12 -14.708298 0.451419 -17.688967 0.140032 -0.291140 0.634036
 13 -7.769440 -4.337912 -11.290730 -0.278577 -0.076821 0.131774
 14 26.574486 9.185386 45.543888 -0.193913 1.552429 -0.071307
 15 34.313522 6.017471 -79.785164 0.000000 -0.000000 0.000000
 16 9.145774 -0.500298 18.886608 -0.598062 0.066598 -0.324414
 17 13.771751 0.225331 -17.802179 0.318337 -0.128728 0.087543
 18 7.757042 -4.315048 -11.436722 -0.088245 -0.076199 -0.105809
time 15
  0 1.089372 -2.364846 -2.772400 0.000000 -0.000000 0.000000
  1 7.453108 11.467799 -42.531815 0.000000 0.000000 0.000000
  2 0.000000 0.426101 -2.643661 -0.366519 0.000000 -0.000000
  3 -7.805030 -1.259274 -16.725002 -0.117611 0.103397 -0.142897
  4 -0.855270 1.999125 -33.097389 2.010372 0.011053 0.250433
  5 -1.710043 1.005959 -32.422897 -0.292387 -0.049164 -0.003695
  6 8.359841 -0.134830 -16.096416 -0.068305 -0.155899 -0.019300
  7 1.023952 0.902424 -33.930798 2.005691 0.180137 -0.092650
  8 1.181665 1.118927 -32.218109 -0.260399 0.006793 0.020443
  9 0.000000 -0.173451 2.663776 0.715586 0.000000 0.000001
 10 0.725195 -1.257225 27.700893 0.698132 -0.000001 0.000001
 11 -7.896836 -0.700382 18.721556 -0.480510 0.186200 -0.095799
 12 -14.708292 0.451420 -17.688967 0.140032 -0.291140 0.634036
 13 -7.769438 -4.337914 -11.290730 -0.279424 -0.115931 0.152876
 14 27.931433 9.727447 48.040787 -0.205748 1.622739 -0.079257
 15 34.313538 6.017454 -79.785164 -0.000000 0.000000 0.000000
 16 9.145774 -0.500296 18.886608 -0.598062 0.066598 -0.324414
 17 13.771748 0.225330 -17.802183 0.318337 -0.128727 0.087543
 18 7.757044 -4.315046 -11.436714 -0.088245 -0.076199 -0.105809
time 16
  0 1.089372 -2.364846 -2.772400 0.000000 -0.000000 0.000000
  1 8.054193 12.618039 -45.426949 0.000000 0.000000 0.000000
  2 0.000000 0.426101 -2.643661 -0.366519 0.000000 -0.000000
  3 -7.805030 -1.259275 -16.725006 -0.117611 0.103397 -0.142897
  4 -0.855270 1.999123 -33.097385 2.010372 0.011053 0.250433
  5 -1.710043 1.005951 -32.422901 -0.292388 -0.049164 -0.003695
  6 8.359841 -0.134830 -16.096416 -0.068306 -0.155899 -0.019300
  7 1.023954 0.902420 -33.930798 2.005691 0.180137 -0.092650
  8 1.181664 1.118927 -32.218113 -0.260399 0.006793 0.020443
  9 0.000000 -0.173451 2.663776 0.715586 0.000000 0.000001
 10 0.725195 -1.257227 27.700893 0.698132 -0.000001 0.000001
 11 -7.896836 -0.700382 18.721556 -0.480510 0.186200 -0.095799
 12 -14.708293 0.451420 -17.688972 0.140032 -0.291140 0.634036
 13 -7.769440 -4.337914 -11.290733 -0.279992 -0.142178 0.167038
 14 28.800623 10.074659 49.640179 -0.213333 1.667777 -0.084352
 15 34.313564 6.017458 -79.785172 0.000000 -0.000000 0.000000
 16 9.145774 -0.500299 18.886608 -0.598062 0.066598 -0.324414
 17 13.771751 0.225331 -17.802179 0.318337 -0.128727 0.087543
 18 7.757044 -4.315044 -11.436714 -0.088245 -0.076199 -0.105809
time 17
  0 1.089372 -2.364846 -2.772400 0.000000 -0.000000 0.000000
  1 8.326890 13.038395 -46.448448 0.000000 0.000000 0.000000
  2 0.000000 0.426101 -2.643661 -0.366519 0.000000 -0.000000
  3 -7.805030 -1.259274 -16.725002 -0.117611 0.103397 -0.142897
  4 -0.855270 1.999123 -33.097385 2.010372 0.011053 0.250433
  5 -1.710043 1.005951 -32.422897 -0.292387 -0.049164 -0.003695
  6 8.359842 -0.134830 -16.096416 -0.068305 -0.155899 -0.019300
  7 1.023952 0.902420 -33.930801 2.005691 0.180137 -0.092650
  8 1.181664 1.118927 -32.218113 -0.260399 0.006793 0.020443
  9 0.000000 -0.173451 2.663776 0.715586 0.000000 0.000001
 10 0.725197 -1.257227 27.700891 0.698132 -0.000001 0.000001
 11 -7.896835 -0.700382 18.721554 -0.480510 0.186200 -0.095799
 12 -14.708292 0.451421 -17.688963 0.140032 -0.291140 0.634036
 13 -7.769440 -4.337918 -11.290730 -0.280200 -0.151770 0.172213
 14 29.107031 10.197072 50.203983 -0.216005 1.683653 -0.086148
 15 34.313553 6.017433 -79.785172 -0.000000 -0.000000 0.000000
 16 9.145777 -0.500299 18.886606 -0.598062 0.066598 -0.324414
 17 13.771749 0.225331 -17.802185 0.318337 -0.128727 0.087543
 18 7.757042 -4.315046 -11.436718 -0.088245 -0.076199 -0.105809
time 18
  0 1.089372 -2.364846 -2.772400 0.000000 -0.000000 0.000000
  1 8.404696 12.992870 -46.445335 0.000000 0.000000 0.000000
  2 0.000000 0.426101 -2.643661 -0.366519 0.000000 -0.000000
  3 -7.805030 -1.259274 -16.725002 -0.117611 0.103397 -0.142897
  4 -0.855270 1.999123 -33.097382 2.010372 0.011053 0.250433
  5 -1.710043 1.005959 -32.422897 -0.292388 -0.049164 -0.003695
  6 8.359841 -0.134830 -16.096416 -0.068306 -0.155899 -0.019300
  7 1.023952 0.902420 -33.930798 2.005691 0.180137 -0.092650
  8 1.181667 1.118919 -32.218109 -0.260399 0.006793 0.020443
  9 0.000000 -0.173451 2.663776 0.715586 0.000000 0.000001
 10 0.725197 -1.257227 27.700893 0.698132 -0.000001 0.000001
 11 -7.896835 -0.700384 18.721556 -0.480510 0.186200 -0.095799
 12 -14.708294 0.451420 -17.688969 0.140032 -0.291140 0.634036
 13 -7.769442 -4.337917 -11.290730 -0.280106 -0.151457 0.172039
 14 29.107033 10.197073 50.203995 -0.216005 1.683653 -0.086148
 15 34.313568 6.017460 -79.785187 0.000000 -0.000000 0.000000
 16 9.145776 -0.500298 18.886606 -0.598062 0.066598 -0.324414
 17 13.771748 0.225330 -17.802185 0.318337 -0.128727 0.087543
 18 7.757042 -4.315052 -11.436718 -0.088245 -0.076199 -0.105809
time 19
  0 1.089372 -2.364846 -2.772400 0.000000 -0.000000 0.000000
  1 8.472569 12.863133 -46.435295 0.000000 0.000000 0.000000
  2 0.000000 0.426101 -2.643661 -0.366519 0.000000 -0.000000
  3 -7.805030 -1.259277 -16.725002 -0.117611 0.103397 -0.142897
  4 -0.855270 1.999123 -33.097385 2.010372 0.011053 0.250433
  5 -1.710044 1.005959 -32.422901 -0.292387 -0.049164 -0.003695
  6 8.359842 -0.134830 -16.096416 -0.068306 -0.155899 -0.019300
  7 1.023952 0.902428 -33.930801 2.005691 0.180137 -0.092650
  8 1.181662 1.118919 -32.218117 -0.260399 0.006793 0.020443
  9 0.000000 -0.173451 2.663776 0.715586 0.000000 0.000001
 10 0.725196 -1.257225 27.700893 0.698132 -0.000001 0.000001
 11 -7.896835 -0.700382 18.721552 -0.480510 0.186199 -0.095799
 12 -14.708296 0.451419 -17.688967 0.140032 -0.291140 0.634036
 13 -7.769440 -4.337916 -11.290733 -0.279843 -0.150516 0.171518
 14 29.107033 10.197064 50.204002 -0.216005 1.683654 -0.086148
 15 34.313583 6.017454 -79.785172 -0.000000 0.000000 0.000000
 16 9.145777 -0.500298 18.886606 -0.598062 0.066598 -0.324414
 17 13.771751 0.225331 -17.802183 0.318337 -0.128727 0.087543
 18 7.757042 -4.315048 -11.436718 -0.088245 -0.076199 -0.105809
time 20
  0 1.089372 -2.364846 -2.772400 0.000000 -0.000000 0.000000
  1 8.531157 12.659436 -46.417274 0.000000 0.000000 0.000000
  2 0.000000 0.426101 -2.643661 -0.366519 0.000000 -0.000000
  3 -7.805030 -1.259274 -16.725002 -0.117611 0.103397 -0.142897
  4 -0.855270 1.999123 -33.097385 2.010372 0.011053 0.250433
  5 -1.710044 1.005943 -32.422897 -0.292388 -0.049164 -0.003695
  6 8.359840 -0.134830 -16.096416 -0.068306 -0.155899 -0.019300
  7 1.023953 0.902424 -33.930798 2.005691 0.180137 -0.092650
  8 1.181667 1.118919 -32.218113 -0.260399 0.006793 0.020443
  9 0.000000 -0.173451 2.663776 0.715586 0.000000 0.000001
 10 0.725196 -1.257225 27.700893 0.698132 -0.000001 0.000001
 11 -7.896836 -0.700382 18.721556 -0.480510 0.186200 -0.095799
 12 -14.708294 0.451420 -17.688965 0.140032 -0.291140 0.634036
 13 -7.769440 -4.337915 -11.290726 -0.279440 -0.148946 0.170649
 14 29.107025 10.197073 50.203983 -0.216005 1.683653 -0.086148
 15 34.313568 6.017431 -79.785172 0.000000 0.000000 0.000000
 16 9.145775 -0.500296 18.886608 -0.598062 0.066598 -0.324414
 17 13.771751 0.225332 -17.802179 0.318337 -0.128728 0.087543
 18 7.757046 -4.315048 -11.436714 -0.088245 -0.076199 -0.105809
time 21
  0 1.089372 -2.364846 -2.772400 0.000000 -0.000000 0.000000
  1 8.581104 12.392033 -46.390221 0.000000 0.000000 0.000000
  2 0.000000 0.426101 -2.643661 -0.366519 0.000000 -0.000000
  3 -7.805030 -1.259275 -16.725002 -0.117611 0.103397 -0.142897
  4 -0.855270 1.999126 -33.097385 2.010372 0.011053 0.250433
  5 -1.710043 1.005951 -32.422897 -0.292388 -0.049164 -0.003695
  6 8.359840 -0.134830 -16.096416 -0.068305 -0.155899 -0.019300
  7 1.023954 0.902416 -33.930794 2.005691 0.180137 -0.092650
  8 1.181664 1.118927 -32.218117 -0.260399 0.006793 0.020443
  9 0.000000 -0.173451 2.663776 0.715586 0.000000 0.000001
 10 0.725197 -1.257227 27.700891 0.698132 -0.000001 0.000001
 11 -7.896835 -0.700382 18.721552 -0.480510 0.186200 -0.095799
 12 -14.708292 0.451420 -17.688967 0.140032 -0.291140 0.634036
 13 -7.769440 -4.337914 -11.290726 -0.278925 -0.146745 0.169435
 14 29.107023 10.197063 50.203983 -0.216004 1.683653 -0.086147
 15 34.313557 6.017450 -79.785172 -0.000000 0.000000 0.000000
 16 9.145777 -0.500299 18.886604 -0.598062 0.066598 -0.324414
 17 13.771748 0.225331 -17.802187 0.318337 -0.128727 0.087543
 18 7.757046 -4.315048 -11.436726 -0.088245 -0.076199 -0.105809
time 22
  0 1.089372 -2.364846 -2.772400 0.000000 -0.000000 0.000000
  1 8.623055 12.071177 -46.353088 0.000000 0.000000 0.000000
  2 0.000000 0.426101 -2.643661 -0.366519 0.000000 -0.000000
  3 -7.805030 -1.259275 -16.724998 -0.117611 0.103397 -0.142897
  4 -0.855270 1.999126 -33.097382 2.010372 0.011053 0.250433
  5 -1.710043 1.005951 -32.422897 -0.292388 -0.049164 -0.003695
  6 8.359841 -0.134830 -16.096416 -0.068306 -0.155899 -0.019300
  7 1.023953 0.902420 -33.930801 2.005691 0.180137 -0.092650
  8 1.181665 1.118912 -32.218117 -0.260399 0.006793 0.020443
  9 0.000000 -0.173451 2.663776 0.715586 0.000000 0.000001
 10 0.725196 -1.257227 27.700893 0.698132 -0.000001 0.000001
 11 -7.896835 -0.700382 18.721554 -0.480510 0.186200 -0.095799
 12 -14.708295 0.451420 -17.688969 0.140032 -0.291140 0.634036
 13 -7.769438 -4.337912 -11.290726 -0.278325 -0.143913 0.167876
 14 29.107025 10.197060 50.203983 -0.216005 1.683653 -0.086148
 15 34.313564 6.017460 -79.785179 -0.000000 -0.000000 -0.000000
 16 9.145776 -0.500299 18.886608 -0.598062 0.066598 -0.324414
 17 13.771751 0.225331 -17.802179 0.318337 -0.128727 0.087543
 18 7.757050 -4.315046 -11.436718 -0.088245 -0.076199 -0.105809
time 23
  0 1.089372 -2.364846 -2.772400 0.000000 -0.000000 0.000000
  1 8.657655 11.707119 -46.304817 0.000000 0.000000 0.000000
  2 0.000000 0.426101 -2.643661 -0.366519 0.000000 -0.000000
  3 -7.805030 -1.259274 -16.725002 -0.117611 0.103397 -0.142897
  4 -0.855270 1.999123 -33.097389 2.010372 0.011053 0.250433
  5 -1.710043 1.005951 -32.422897 -0.292388 -0.049164 -0.003695
  6 8.359841 -0.134829 -16.096413 -0.068306 -0.155899 -0.019300
  7 1.023951 0.902424 -33.930798 2.005691 0.180137 -0.092650
  8 1.181665 1.118927 -32.218113 -0.260399 0.006793 0.020443
  9 0.000000 -0.173451 2.663776 0.715586 0.000000 0.000001
 10 0.725197 -1.257227 27.700891 0.698132 -0.000001 0.000001
 11 -7.896835 -0.700384 18.721554 -0.480510 0.186200 -0.095799
 12 -14.708295 0.451420 -17.688969 0.140032 -0.291140 0.634036
 13 -7.769440 -4.337916 -11.290726 -0.277670 -0.140448 0.165973
 14 29.107037 10.197068 50.203987 -0.216005 1.683653 -0.086148
 15 34.313560 6.017441 -79.785194 -0.000000 0.000000 -0.000000
 16 9.145777 -0.500299 18.886606 -0.598062 0.066598 -0.324414
 17 13.771753 0.225332 -17.802181 0.318337 -0.128727 0.087543
 18 7.757042 -4.315048 -11.436722 -0.088245 -0.076199 -0.105809
time 24
  0 1.089372 -2.364846 -2.772400 0.000000 -0.000000 0.000000
  1 8.685549 11.310114 -46.244362 0.000000 0.000000 0.000000
  2 0.000000 0.426101 -2.643661 -0.366519 0.000000 -0.000000
  3 -7.805030 -1.259277 -16.724998 -0.117611 0.103397 -0.142897
  4 -0.855270 1.999126 -33.097385 2.010372 0.011053 0.250433
  5 -1.710043 1.005959 -32.422897 -0.292388 -0.049164 -0.003695
  6 8.359842 -0.134830 -16.096416 -0.068306 -0.155899 -0.019300
  7 1.023951 0.902420 -33.930805 2.005691 0.180137 -0.092650
  8 1.181665 1.118919 -32.218117 -0.260399 0.006793 0.020443
  9 0.000000 -0.173451 2.663776 0.715586 0.000000 0.000001
 10 0.725196 -1.257227 27.700893 0.698132 -0.000001 0.000001
 11 -7.896836 -0.700382 18.721554 -0.480510 0.186200 -0.095799
 12 -14.708294 0.451420 -17.688965 0.140032 -0.291140 0.634036
 13 -7.769440 -4.337914 -11.290730 -0.276988 -0.136349 0.163727
 14 29.107038 10.197069 50.203987 -0.216005 1.683653 -0.086148
 15 34.313576 6.017454 -79.785187 -0.000000 -0.000000 0.000000
 16 9.145776 -0.500298 18.886608 -0.598062 0.066598 -0.324414
 17 13.771751 0.225332 -17.802179 0.318337 -0.128727 0.087543
 18 7.757050 -4.315048 -11.436718 -0.088245 -0.076199 -0.105809
time 25
  0 1.089372 -2.364846 -2.772400 0.000000 -0.000000 0.000000
  1 8.707381 10.890415 -46.170673 0.000000 0.000000 0.000000
  2 0.000000 0.426101 -2.643661 -0.366519 0.000000 -0.000000
  3 -7.805030 -1.259272 -16.725002 -0.117611 0.103397 -0.142897
  4 -0.855270 1.999126 -33.097389 2.010372 0.011053 0.250433
  5 -1.710043 1.005951 -32.422897 -0.292387 -0.049164 -0.003695
  6 8.359841 -0.134829 -16.096416 -0.068305 -0.155899 -0.019300
  7 1.023952 0.902420 -33.930798 2.005691 0.180137 -0.092650
  8 1.181664 1.118927 -32.218121 -0.260399 0.006793 0.020443
  9 0.000000 -0.173451 2.663776 0.715586 0.000000 0.000001
 10 0.725196 -1.257225 27.700893 0.698132 -0.000001 0.000001
 11 -7.896835 -0.700382 18.721556 -0.480510 0.186200 -0.095799
 12 -14.708295 0.451421 -17.688965 0.140032 -0.291140 0.634036
 13 -7.769438 -4.337916 -11.290730 -0.276307 -0.131615 0.161139
 14 29.107029 10.197068 50.203991 -0.216005 1.683653 -0.086148
 15 34.313564 6.017450 -79.785187 -0.000000 -0.000000 -0.000000
 16 9.145774 -0.500296 18.886610 -0.598062 0.066598 -0.324414
 17 13.771751 0.225329 -17.802187 0.318337 -0.128727 0.087543
 18 7.757046 -4.315046 -11.436718 -0.088245 -0.076199 -0.105809
time 26
  0 1.089372 -2.364846 -2.772400 0.000000 -0.000000 0.000000
  1 8.723798 10.458276 -46.082691 0.000000 0.000000 0.000000
  2 0.000000 0.426101 -2.643661 -0.366519 0.000000 -0.000000
  3 -7.805031 -1.259275 -16.725002 -0.117611 0.103397 -0.142897
  4 -0.855270 1.999126 -33.097389 2.010372 0.011053 0.250433
  5 -1.710044 1.005951 -32.422897 -0.292388 -0.049164 -0.003695
  6 8.359842 -0.134830 -16.096416 -0.068305 -0.155899 -0.019300
  7 1.023952 0.902422 -33.930794 2.005691 0.180137 -0.092650
  8 1.181664 1.118935 -32.218109 -0.260399 0.006793 0.020443
  9 0.000000 -0.173451 2.663776 0.715586 0.000000 0.000001
 10 0.725197 -1.257227 27.700893 0.698132 -0.000001 0.000001
 11 -7.896835 -0.700382 18.721554 -0.480510 0.186200 -0.095799
 12 -14.708296 0.451420 -17.688963 0.140032 -0.291140 0.634036
 13 -7.769438 -4.337918 -11.290730 -0.275656 -0.126244 0.158209
 14 29.107033 10.197070 50.203999 -0.216004 1.683653 -0.086147
 15 34.313576 6.017443 -79.785164 -0.000000 0.000000 -0.000000
 16 9.145777 -0.500298 18.886608 -0.598062 0.066598 -0.324414
 17 13.771751 0.225330 -17.802185 0.318337 -0.128727 0.087543
 18 7.757042 -4.315048 -11.436714 -0.088245 -0.076199 -0.105809
time 27
  0 1.089372 -2.364846 -2.772400 0.000000 -0.000000 0.000000
  1 8.735443 10.023948 -45.979370 0.000000 0.000000 0.000000
  2 0.000000 0.426101 -2.643661 -0.366519 0.000000 -0.000000
  3 -7.805030 -1.259275 -16.725002 -0.117611 0.103397 -0.142897
  4 -0.855269 1.999126 -33.097389 2.010372 0.011053 0.250433
  5 -1.710045 1.005959 -32.422897 -0.292388 -0.049164 -0.003695
  6 8.359841 -0.134830 -16.096416 -0.068306 -0.155899 -0.019300
  7 1.023952 0.902422 -33.930798 2.005691 0.180137 -0.092650
  8 1.181665 1.118935 -32.218113 -0.260399 0.006793 0.020443
  9 0.000000 -0.173451 2.663776 0.715586 0.000000 0.000001
 10 0.725196 -1.257227 27.700893 0.698132 -0.000001 0.000001
 11 -7.896836 -0.700382 18.721556 -0.480510 0.186200 -0.095799
 12 -14.708296 0.451418 -17.688967 0.140032 -0.291140 0.634036
 13 -7.769438 -4.337914 -11.290730 -0.275062 -0.120234 0.154940
 14 29.107033 10.197068 50.203991 -0.216004 1.683653 -0.086147
 15 34.313564 6.017458 -79.785187 0.000000 -0.000000 -0.000000
 16 9.145776 -0.500298 18.886608 -0.598062 0.066598 -0.324414
 17 13.771751 0.225331 -17.802181 0.318337 -0.128727 0.087543
 18 7.757046 -4.315050 -11.436714 -0.088245 -0.076199 -0.105809
time 28
  0 1.089372 -2.364846 -2.772400 0.000000 -0.000000 0.000000
  1 8.742963 9.597684 -45.859657 0.000000 0.000000 0.000000
  2 0.000000 0.426101 -2.643661 -0.366519 0.000000 -0.000000
  3 -7.805030 -1.259274 -16.725002 -0.117611 0.103397 -0.142897
  4 -0.855270 1.999123 -33.097393 2.010372 0.011053 0.250433
  5 -1.710044 1.005951 -32.422901 -0.292388 -0.049164 -0.003695
  6 8.359842 -0.134832 -16.096416 -0.068306 -0.155899 -0.019300
  7 1.023953 0.902426 -33.930790 2.005691 0.180137 -0.092650
  8 1.181664 1.118919 -32.218109 -0.260399 0.006793 0.020443
  9 0.000000 -0.173451 2.663776 0.715586 0.000000 0.000001
 10 0.725196 -1.257227 27.700890 0.698132 -0.000001 0.000001
 11 -7.896835 -0.700384 18.721552 -0.480510 0.186200 -0.095799
 12 -14.708300 0.451419 -17.688965 0.140032 -0.291140 0.634036
 13 -7.769440 -4.337915 -11.290730 -0.274554 -0.113585 0.151331
 14 29.107040 10.197065 50.203999 -0.216004 1.683653 -0.086147
 15 34.313576 6.017473 -79.785187 -0.000000 0.000000 -0.000000
 16 9.145774 -0.500298 18.886604 -0.598062 0.066598 -0.324414
 17 13.771748 0.225331 -17.802177 0.318337 -0.128727 0.087543
 18 7.757046 -4.315048 -11.436718 -0.088245 -0.076199 -0.105809
time 29
  0 1.089372 -2.364846 -2.772400 0.000000 -0.000000 0.000000
  1 8.747002 9.189738 -45.722500 0.000000 0.000000 0.000000
  2 0.000000 0.426101 -2.643661 -0.366519 0.000000 -0.000000
  3 -7.805030 -1.259272 -16.725006 -0.117611 0.103397 -0.142897
  4 -0.855270 1.999125 -33.097385 2.010372 0.011053 0.250433
  5 -1.710043 1.005959 -32.422897 -0.292388 -0.049164 -0.003695
  6 8.359841 -0.134830 -16.096416 -0.068305 -0.155899 -0.019300
  7 1.023951 0.902420 -33.930798 2.005691 0.180137 -0.092650
  8 1.181662 1.118927 -32.218117 -0.260399 0.006793 0.020443
  9 0.000000 -0.173451 2.663776 0.715586 0.000000 0.000001
 10 0.725195 -1.257227 27.700893 0.698132 -0.000001 0.000001
 11 -7.896836 -0.700382 18.721556 -0.480510 0.186200 -0.095799
 12 -14.708294 0.451419 -17.688965 0.140032 -0.291140 0.634036
 13 -7.769440 -4.337911 -11.290730 -0.274161 -0.106296 0.147384
 14 29.107031 10.197069 50.203983 -0.216006 1.683654 -0.086148
 15 34.313560 6.017452 -79.785187 0.000000 -0.000000 -0.000000
 16 9.145773 -0.500299 18.886608 -0.598062 0.066598 -0.324414
 17 13.771751 0.225331 -17.802177 0.318337 -0.128727 0.087543
 18 7.757050 -4.315046 -11.436718 -0.088245 -0.076199 -0.105809
time 30
  0 1.089372 -2.364846 -2.772400 0.000000 -0.000000 0.000000
  1 8.748204 8.810364 -45.566849 0.000000 0.000000 0.000000
  2 0.000000 0.426101 -2.643661 -0.366519 0.000000 -0.000000
  3 -7.805030 -1.259272 -16.725006 -0.117611 0.103397 -0.142897
  4 -0.855269 1.999125 -33.097389 2.010372 0.011053 0.250433
  5 -1.710043 1.005951 -32.422897 -0.292388 -0.049164 -0.003695
  6 8.359842 -0.134829 -16.096416 -0.068305 -0.155899 -0.019300
  7 1.023952 0.902426 -33.930798 2.005691 0.180137 -0.092650
  8 1.181665 1.118919 -32.218117 -0.260399 0.006793 0.020443
  9 0.000000 -0.173451 2.663776 0.715586 0.000000 0.000001
 10 0.725195 -1.257225 27.700893 0.698132 -0.000001 0.000001
 11 -7.896835 -0.700382 18.721556 -0.480510 0.186200 -0.095799
 12 -14.708294 0.451418 -17.688967 0.140032 -0.291140 0.634036
 13 -7.769440 -4.337916 -11.290730 -0.273910 -0.098364 0.143099
 14 29.107027 10.197070 50.203983 -0.216005 1.683654 -0.086148
 15 34.313553 6.017445 -79.785194 0.000000 -0.000000 0.000000
 16 9.145775 -0.500296 18.886608 -0.598062 0.066598 -0.324414
 17 13.771751 0.225332 -17.802183 0.318337 -0.128727 0.087543
 18 7.757042 -4.315050 -11.436718 -0.088245 -0.076199 -0.105809
end
