version 1
nodes
  0 "bone33"  -1
  1 "bone21"  -1
  2 "bone20"   1
  3 "bone07"   2
  4 "bone22"   3
  5 "bone18"   4
  6 "bone14"   2
  7 "bone16"   6
  8 "bone19"   7
  9 "bone03"   1
 10 "bone06"   9
 11 "bone08"   9
 12 "bone05"  11
 13 "bone09"  12
 14 "bone11"  13
 15 "BOX001"  14
 16 "bone02"   9
 17 "bone04"  16
 18 "bone10"  17
end
skeleton
time 0
  0 1.089372 -2.364846 -2.772400 0.000000 -0.000000 0.000000
  1 -0.114210 -4.321804 92.531555 0.000000 0.000000 0.000000
  2 0.000000 0.426100 -2.643661 -0.034906 -0.000000 -0.000000
  3 -7.805030 -1.259274 -16.725006 -0.117611 0.103397 -0.142897
  4 -0.855268 1.999126 -33.097389 0.436331 -0.000000 0.000000
  5 -1.710042 1.005950 -32.422897 -0.292388 -0.049164 -0.003695
  6 8.359842 -0.134830 -16.096420 -0.068305 -0.155899 -0.019300
  7 1.023947 0.902420 -33.930798 0.349312 0.031101 0.015853
  8 1.181652 1.118920 -32.218082 -0.260399 0.006793 0.020443
  9 0.000000 -0.173451 2.663780 -0.226893 0.000000 0.000001
 10 0.725195 -1.257227 27.700890 0.244345 -0.000000 0.000000
 11 -7.896836 -0.700382 18.721550 0.366547 0.017132 0.003330
 12 -14.708303 0.451420 -17.688965 -0.639340 0.212496 0.456580
 13 -7.769428 -4.337898 -11.290718 -0.271619 0.244372 -0.041531
 14 -1.614937 -2.075470 -6.327091 0.052019 0.091792 0.093927
 15 34.313522 6.017490 -79.785141 -0.000000 0.000000 0.000000
 16 9.145774 -0.500296 18.886604 0.297948 0.295893 -0.150448
 17 13.771751 0.225331 -17.802177 -1.073499 -0.618246 -1.108255
 18 7.757046 -4.315048 -11.436718 -0.088245 -0.076199 -0.105809
time 1
  0 1.089372 -2.364846 -2.772400 0.000000 -0.000000 0.000000
  1 -0.114210 -4.273615 92.539619 0.000000 0.000000 0.000000
  2 0.000000 0.426100 -2.643661 -0.034906 0.000000 -0.000000
  3 -7.805030 -1.259274 -16.725006 -0.121012 0.103360 -0.143206
  4 -0.855271 1.999124 -33.097385 0.435293 -0.000120 -0.000243
  5 -1.710044 1.005956 -32.422897 -0.290566 -0.048832 -0.003587
  6 8.359842 -0.134830 -16.096413 -0.067438 -0.155879 -0.020267
  7 1.023947 0.902420 -33.930794 0.349076 0.031009 0.015118
  8 1.181654 1.118928 -32.218071 -0.259399 0.006737 0.020274
  9 0.000000 -0.183171 2.644836 -0.226419 0.000000 0.000001
 10 0.725195 -1.257225 27.700897 0.244345 -0.000000 0.000000
 11 -7.896836 -0.700386 18.721565 0.365218 0.017173 0.003307
 12 -14.708305 0.451420 -17.688972 -0.664880 0.221799 0.456012
 13 -7.769436 -4.337898 -11.290718 -0.271619 0.244372 -0.041531
 14 -1.614937 -2.075470 -6.327095 0.052019 0.091792 0.093927
 15 34.313526 6.017467 -79.785141 -0.000000 -0.000000 -0.000000
 16 9.145774 -0.500298 18.886620 0.294655 0.295267 -0.157870
 17 13.771751 0.225330 -17.802170 -1.076644 -0.621254 -1.140846
 18 7.757053 -4.315056 -11.436722 -0.087228 -0.075162 -0.110558
time 2
  0 1.089372 -2.364846 -2.772400 0.000000 -0.000000 0.000000
  1 -0.114210 -4.136709 92.562515 -0.000000 0.000000 0.000000
  2 0.000000 0.426100 -2.643661 -0.034906 0.000000 0.000000
  3 -7.805030 -1.259274 -16.724998 -0.123938 0.103258 -0.143477
  4 -0.855270 1.999125 -33.097389 0.432427 -0.000449 -0.000915
  5 -1.710043 1.005955 -32.422890 -0.285449 -0.047898 -0.003283
  6 8.359842 -0.134830 -16.096420 -0.065019 -0.155823 -0.021212
  7 1.023945 0.902420 -33.930801 0.348406 0.030750 0.013037
  8 1.181656 1.118920 -32.218086 -0.256545 0.006577 0.019791
  9 0.000000 -0.191806 2.591263 -0.225073 0.000000 0.000001
 10 0.725195 -1.257227 27.700897 0.244345 -0.000000 0.000000
 11 -7.896836 -0.700382 18.721550 0.361478 0.017210 0.003243
 12 -14.708302 0.451422 -17.688980 -0.688091 0.230609 0.454408
 13 -7.769436 -4.337898 -11.290726 -0.271619 0.244372 -0.041531
 14 -1.614941 -2.075470 -6.327095 0.052019 0.091792 0.093927
 15 34.313515 6.017475 -79.785149 -0.000000 0.000000 0.000000
 16 9.145774 -0.500296 18.886604 0.285322 0.293494 -0.165276
 17 13.771751 0.225331 -17.802170 -1.079552 -0.624030 -1.170363
 18 7.757057 -4.315048 -11.436722 -0.084332 -0.072208 -0.115203
time 3
  0 1.089372 -2.364846 -2.772400 0.000000 -0.000000 0.000000
  1 -0.114210 -3.922581 92.598343 0.000000 0.000000 0.000000
  2 0.000000 0.426100 -2.643661 -0.034906 0.000000 0.000000
  3 -7.805030 -1.259274 -16.725006 -0.126423 0.103101 -0.143714
  4 -0.855270 1.999124 -33.097389 0.428106 -0.000946 -0.001929
  5 -1.710041 1.005955 -32.422897 -0.277556 -0.046458 -0.002814
  6 8.359842 -0.134830 -16.096420 -0.061327 -0.155738 -0.022126
  7 1.023945 0.902420 -33.930801 0.347362 0.030346 0.009792
  8 1.181654 1.118926 -32.218090 -0.252061 0.006324 0.019032
  9 0.000000 -0.199422 2.507889 -0.222963 0.000000 0.000001
 10 0.725195 -1.257227 27.700897 0.244345 -0.000000 0.000000
 11 -7.896836 -0.700382 18.721558 0.355697 0.017242 0.003143
 12 -14.708302 0.451422 -17.688965 -0.709067 0.238907 0.451921
 13 -7.769428 -4.337902 -11.290726 -0.271619 0.244372 -0.041531
 14 -1.614941 -2.075474 -6.327095 0.052019 0.091792 0.093927
 15 34.313526 6.017483 -79.785149 -0.000000 -0.000000 -0.000000
 16 9.145775 -0.500298 18.886612 0.270770 0.290730 -0.172608
 17 13.771749 0.225331 -17.802170 -1.082232 -0.626583 -1.196958
 18 7.757053 -4.315056 -11.436718 -0.079788 -0.067573 -0.119722
time 4
  0 1.089372 -2.364846 -2.772400 0.000000 -0.000000 0.000000
  1 -0.114210 -3.642724 92.645157 0.000000 0.000000 0.000000
  2 0.000000 0.426100 -2.643661 -0.034906 0.000000 -0.000000
  3 -7.805030 -1.259274 -16.725006 -0.128505 0.102899 -0.143918
  4 -0.855270 1.999123 -33.097389 0.422702 -0.001568 -0.003196
  5 -1.710043 1.005952 -32.422897 -0.267406 -0.044607 -0.002212
  6 8.359842 -0.134830 -16.096420 -0.056639 -0.155629 -0.022999
  7 1.023947 0.902420 -33.930805 0.346002 0.029820 0.005566
  8 1.181656 1.118926 -32.218079 -0.246168 0.005993 0.018034
  9 0.000000 -0.206080 2.399582 -0.220200 0.000000 0.000001
 10 0.725195 -1.257225 27.700890 0.244345 -0.000000 0.000000
 11 -7.896836 -0.700384 18.721558 0.348244 0.017270 0.003014
 12 -14.708302 0.451423 -17.688965 -0.727895 0.246677 0.448701
 13 -7.769432 -4.337902 -11.290718 -0.271619 0.244372 -0.041531
 14 -1.614941 -2.075470 -6.327095 0.052019 0.091792 0.093927
 15 34.313515 6.017479 -79.785126 -0.000000 0.000000 0.000000
 16 9.145773 -0.500298 18.886604 0.251820 0.287130 -0.179809
 17 13.771749 0.225332 -17.802177 -1.084690 -0.628919 -1.220783
 18 7.757050 -4.315041 -11.436720 -0.073828 -0.061494 -0.124098
time 5
  0 1.089372 -2.364846 -2.772400 0.000000 -0.000000 0.000000
  1 -0.114210 -3.308631 92.701042 0.000000 0.000000 0.000000
  2 0.000000 0.426100 -2.643661 -0.034906 0.000000 0.000000
  3 -7.805030 -1.259274 -16.724991 -0.130218 0.102665 -0.144092
  4 -0.855268 1.999125 -33.097385 0.416588 -0.002270 -0.004630
  5 -1.710043 1.005953 -32.422897 -0.255518 -0.042439 -0.001506
  6 8.359842 -0.134830 -16.096405 -0.051231 -0.155504 -0.023821
  7 1.023945 0.902420 -33.930801 0.344386 0.029195 0.000542
  8 1.181654 1.118924 -32.218086 -0.239088 0.005595 0.016836
  9 0.000000 -0.211844 2.271187 -0.216894 -0.000000 0.000001
 10 0.725195 -1.257227 27.700897 0.244345 -0.000000 0.000000
 11 -7.896835 -0.700384 18.721558 0.339490 0.017295 0.002863
 12 -14.708304 0.451421 -17.688965 -0.744668 0.253902 0.444901
 13 -7.769428 -4.337902 -11.290726 -0.271619 0.244372 -0.041531
 14 -1.614937 -2.075470 -6.327099 0.052019 0.091792 0.093927
 15 34.313530 6.017471 -79.785149 -0.000000 0.000000 0.000000
 16 9.145774 -0.500298 18.886612 0.229293 0.282851 -0.186820
 17 13.771749 0.225331 -17.802177 -1.086936 -0.631049 -1.241990
 18 7.757050 -4.315056 -11.436720 -0.066684 -0.054208 -0.128310
time 6
  0 1.089372 -2.364846 -2.772400 0.000000 -0.000000 0.000000
  1 -0.114210 -2.931797 92.764084 0.000000 0.000000 0.000000
  2 0.000000 0.426100 -2.643661 -0.034906 0.000000 0.000000
  3 -7.805030 -1.259274 -16.724998 -0.131599 0.102409 -0.144237
  4 -0.855270 1.999125 -33.097397 0.410136 -0.003012 -0.006142
  5 -1.710043 1.005954 -32.422897 -0.242413 -0.040048 -0.000727
  6 8.359842 -0.134830 -16.096420 -0.045382 -0.155369 -0.024585
  7 1.023945 0.902420 -33.930801 0.342572 0.028493 -0.005097
  8 1.181654 1.118924 -32.218086 -0.231044 0.005142 0.015474
  9 0.000000 -0.216779 2.127548 -0.213155 -0.000000 0.000001
 10 0.725195 -1.257225 27.700890 0.244345 -0.000000 0.000000
 11 -7.896837 -0.700382 18.721558 0.329806 0.017315 0.002695
 12 -14.708304 0.451420 -17.688980 -0.759477 0.260565 0.440672
 13 -7.769436 -4.337902 -11.290710 -0.271619 0.244372 -0.041531
 14 -1.614937 -2.075466 -6.327099 0.052019 0.091792 0.093927
 15 34.313534 6.017494 -79.785156 -0.000000 -0.000000 -0.000000
 16 9.145773 -0.500298 18.886612 0.204009 0.278047 -0.193583
 17 13.771751 0.225332 -17.802185 -1.088978 -0.632980 -1.260730
 18 7.757046 -4.315048 -11.436720 -0.058587 -0.045950 -0.132338
time 7
  0 1.089372 -2.364846 -2.772400 0.000000 -0.000000 0.000000
  1 -0.114210 -2.523714 92.832352 0.000000 0.000000 0.000000
  2 0.000000 0.426100 -2.643661 -0.034906 -0.000000 0.000000
  3 -7.805030 -1.259274 -16.725006 -0.132683 0.102142 -0.144357
  4 -0.855269 1.999124 -33.097385 0.403719 -0.003750 -0.007647
  5 -1.710044 1.005953 -32.422897 -0.228610 -0.037530 0.000092
  6 8.359842 -0.134830 -16.096420 -0.039368 -0.155230 -0.025280
  7 1.023943 0.902421 -33.930798 0.340619 0.027737 -0.011168
  8 1.181652 1.118919 -32.218086 -0.222257 0.004648 0.013987
  9 0.000000 -0.220946 1.973534 -0.209092 -0.000000 0.000001
 10 0.725195 -1.257227 27.700897 0.244345 -0.000000 0.000000
 11 -7.896836 -0.700386 18.721558 0.319560 0.017333 0.002518
 12 -14.708303 0.451422 -17.688972 -0.772412 0.266649 0.436166
 13 -7.769432 -4.337902 -11.290718 -0.271619 0.244372 -0.041531
 14 -1.614937 -2.075474 -6.327091 0.052019 0.091792 0.093927
 15 34.313538 6.017498 -79.785172 -0.000000 -0.000000 -0.000000
 16 9.145774 -0.500298 18.886612 0.176788 0.272876 -0.200040
 17 13.771749 0.225330 -17.802177 -1.090825 -0.634722 -1.277157
 18 7.757046 -4.315056 -11.436714 -0.049770 -0.036957 -0.136164
time 8
  0 1.089372 -2.364846 -2.772400 0.000000 -0.000000 0.000000
  1 -0.114210 -2.095877 92.903923 0.000000 0.000000 0.000000
  2 0.000000 0.426100 -2.643661 -0.034906 -0.000000 -0.000000
  3 -7.805030 -1.259274 -16.725006 -0.133506 0.101876 -0.144453
  4 -0.855270 1.999125 -33.097385 0.397710 -0.004441 -0.009056
  5 -1.710042 1.005952 -32.422901 -0.214628 -0.034980 0.000923
  6 8.359842 -0.134830 -16.096413 -0.033467 -0.155093 -0.025897
  7 1.023947 0.902420 -33.930790 0.338586 0.026950 -0.017487
  8 1.181654 1.118925 -32.218079 -0.212950 0.004124 0.012411
  9 0.000000 -0.224409 1.813980 -0.204817 -0.000000 0.000001
 10 0.725195 -1.257227 27.700897 0.244345 -0.000000 0.000000
 11 -7.896835 -0.700384 18.721558 0.309124 0.017348 0.002338
 12 -14.708306 0.451420 -17.688965 -0.783565 0.272138 0.431534
 13 -7.769436 -4.337898 -11.290718 -0.271619 0.244372 -0.041531
 14 -1.614937 -2.075474 -6.327097 0.052019 0.091792 0.093927
 15 34.313530 6.017487 -79.785156 0.000000 0.000000 0.000000
 16 9.145774 -0.500298 18.886604 0.148452 0.267493 -0.206133
 17 13.771749 0.225333 -17.802170 -1.092484 -0.636283 -1.291422
 18 7.757050 -4.315048 -11.436720 -0.040464 -0.027465 -0.139767
time 9
  0 1.089372 -2.364846 -2.772400 0.000000 -0.000000 0.000000
  1 -0.114210 -1.659778 92.976875 0.000000 0.000000 0.000000
  2 0.000000 0.426100 -2.643661 -0.034906 -0.000000 -0.000000
  3 -7.805030 -1.259274 -16.724998 -0.134105 0.101620 -0.144528
  4 -0.855270 1.999125 -33.097389 0.392481 -0.005042 -0.010282
  5 -1.710043 1.005952 -32.422897 -0.200987 -0.032492 0.001733
  6 8.359842 -0.134830 -16.096413 -0.027956 -0.154966 -0.026427
  7 1.023945 0.902420 -33.930813 0.336532 0.026155 -0.023872
  8 1.181654 1.118919 -32.218086 -0.203344 0.003584 0.010785
  9 0.000000 -0.227232 1.653748 -0.200438 -0.000000 0.000001
 10 0.725195 -1.257225 27.700897 0.244345 -0.000000 0.000000
 11 -7.896836 -0.700382 18.721558 0.298867 0.017359 0.002161
 12 -14.708302 0.451422 -17.688972 -0.793025 0.277014 0.426928
 13 -7.769432 -4.337898 -11.290726 -0.271619 0.244372 -0.041531
 14 -1.614937 -2.075470 -6.327093 0.052019 0.091792 0.093927
 15 34.313522 6.017479 -79.785141 -0.000000 0.000000 -0.000000
 16 9.145773 -0.500298 18.886612 0.119821 0.262055 -0.211804
 17 13.771752 0.225330 -17.802170 -1.093965 -0.637671 -1.303677
 18 7.757053 -4.315056 -11.436722 -0.030901 -0.017711 -0.143130
time 10
  0 1.089372 -2.364846 -2.772400 0.000000 -0.000000 0.000000
  1 -0.114210 -1.226912 93.049286 0.000000 0.000000 0.000000
  2 0.000000 0.426100 -2.643661 -0.034906 -0.000000 -0.000000
  3 -7.805030 -1.259274 -16.725006 -0.134514 0.101387 -0.144585
  4 -0.855270 1.999125 -33.097382 0.388404 -0.005511 -0.011238
  5 -1.710042 1.005954 -32.422897 -0.188207 -0.030161 0.002492
  6 8.359842 -0.134830 -16.096420 -0.023112 -0.154854 -0.026862
  7 1.023947 0.902420 -33.930801 0.334515 0.025375 -0.030140
  8 1.181656 1.118927 -32.218086 -0.193662 0.003039 0.009147
  9 0.000000 -0.229478 1.497681 -0.196066 -0.000000 0.000001
 10 0.725195 -1.257227 27.700905 0.244345 -0.000000 0.000000
 11 -7.896837 -0.700384 18.721558 0.289160 0.017369 0.001993
 12 -14.708302 0.451423 -17.688972 -0.800885 0.281260 0.422500
 13 -7.769432 -4.337898 -11.290710 -0.271619 0.244372 -0.041531
 14 -1.614937 -2.075470 -6.327095 0.052019 0.091792 0.093927
 15 34.313522 6.017471 -79.785156 -0.000000 0.000000 0.000000
 16 9.145774 -0.500298 18.886604 0.091716 0.256716 -0.216994
 17 13.771749 0.225331 -17.802177 -1.095275 -0.638896 -1.314073
 18 7.757046 -4.315056 -11.436714 -0.021313 -0.007931 -0.146230
time 11
  0 1.089372 -2.364846 -2.772400 0.000000 -0.000000 0.000000
  1 -0.114210 -0.808773 93.119240 0.000000 0.000000 0.000000
  2 0.000000 0.426101 -2.643661 -0.034906 -0.000000 0.000000
  3 -7.805030 -1.259274 -16.725006 -0.134770 0.101187 -0.144624
  4 -0.855270 1.999124 -33.097389 0.385853 -0.005804 -0.011837
  5 -1.710043 1.005957 -32.422890 -0.176806 -0.028081 0.003169
  6 8.359842 -0.134830 -16.096413 -0.019212 -0.154764 -0.027190
  7 1.023945 0.902420 -33.930801 0.332595 0.024632 -0.036108
  8 1.181652 1.118921 -32.218086 -0.184125 0.002503 0.007532
  9 0.000000 -0.231210 1.350639 -0.191811 -0.000001 0.000001
 10 0.725195 -1.257227 27.700890 0.244345 -0.000000 0.000000
 11 -7.896836 -0.700384 18.721558 0.280371 0.017376 0.001841
 12 -14.708302 0.451421 -17.688972 -0.807234 0.284861 0.418402
 13 -7.769432 -4.337902 -11.290726 -0.271619 0.244372 -0.041531
 14 -1.614937 -2.075470 -6.327099 0.052019 0.091792 0.093927
 15 34.313522 6.017487 -79.785156 -0.000000 0.000000 -0.000000
 16 9.145774 -0.500298 18.886612 0.064957 0.251632 -0.221645
 17 13.771752 0.225333 -17.802177 -1.096423 -0.639965 -1.322763
 18 7.757050 -4.315048 -11.436720 -0.011931 0.001638 -0.149051
time 12
  0 1.089372 -2.364846 -2.772400 0.000000 -0.000000 0.000000
  1 -0.114210 -0.416853 93.184799 0.000000 0.000000 0.000000
  2 0.000000 0.426101 -2.643661 -0.034906 0.000000 0.000000
  3 -7.805030 -1.259274 -16.725006 -0.134908 0.101031 -0.144650
  4 -0.855270 1.999124 -33.097382 0.385176 -0.005882 -0.011995
  5 -1.710043 1.005955 -32.422897 -0.167306 -0.026348 0.003733
  6 8.359842 -0.134830 -16.096420 -0.016533 -0.154702 -0.027404
  7 1.023945 0.902420 -33.930798 0.330831 0.023949 -0.041592
  8 1.181658 1.118926 -32.218082 -0.174957 0.001987 0.005980
  9 0.000000 -0.232491 1.217468 -0.187783 -0.000001 0.000001
 10 0.725195 -1.257225 27.700897 0.244345 -0.000000 0.000000
 11 -7.896835 -0.700382 18.721558 0.272872 0.017381 0.001712
 12 -14.708305 0.451422 -17.688972 -0.812163 0.287798 0.414784
 13 -7.769432 -4.337902 -11.290718 -0.271619 0.244372 -0.041531
 14 -1.614944 -2.075462 -6.327095 0.052019 0.091792 0.093927
 15 34.313530 6.017490 -79.785149 0.000000 -0.000000 0.000000
 16 9.145774 -0.500298 18.886620 0.040366 0.246961 -0.225700
 17 13.771749 0.225332 -17.802177 -1.097418 -0.640888 -1.329900
 18 7.757057 -4.315056 -11.436720 -0.002987 0.010760 -0.151571
time 13
  0 1.089372 -2.364846 -2.772400 0.000000 -0.000000 0.000000
  1 -0.114210 -0.062647 93.244057 0.000000 0.000000 0.000000
  2 0.000000 0.426101 -2.643661 -0.034906 0.000000 -0.000000
  3 -7.805030 -1.259274 -16.725006 -0.134965 0.100931 -0.144663
  4 -0.855271 1.999125 -33.097385 0.385786 -0.005812 -0.011852
  5 -1.710044 1.005957 -32.422897 -0.160224 -0.025056 0.004153
  6 8.359842 -0.134830 -16.096413 -0.015354 -0.154674 -0.027494
  7 1.023943 0.902420 -33.930809 0.329281 0.023350 -0.046410
  8 1.181656 1.118919 -32.218082 -0.166378 0.001505 0.004528
  9 0.000000 -0.233386 1.103020 -0.184092 -0.000001 0.000001
 10 0.725195 -1.257225 27.700890 0.244345 -0.000000 0.000000
 11 -7.896836 -0.700384 18.721558 0.267033 0.017384 0.001611
 12 -14.708305 0.451421 -17.688957 -0.815765 0.290054 0.411799
 13 -7.769432 -4.337902 -11.290710 -0.271619 0.244372 -0.041531
 14 -1.614937 -2.075478 -6.327093 0.052019 0.091792 0.093927
 15 34.313515 6.017471 -79.785126 -0.000000 0.000000 -0.000000
 16 9.145773 -0.500296 18.886612 0.018761 0.242857 -0.229100
 17 13.771753 0.225331 -17.802177 -1.098267 -0.641672 -1.335634
 18 7.757050 -4.315048 -11.436716 0.005287 0.019199 -0.153772
time 14
  0 1.089372 -2.364846 -2.772400 0.000000 -0.000000 0.000000
  1 -0.114210 0.242353 93.295074 0.000000 0.000000 0.000000
  2 0.000000 0.426101 -2.643661 -0.034906 0.000000 0.000000
  3 -7.805030 -1.259274 -16.725006 -0.134975 0.100896 -0.144667
  4 -0.855269 1.999125 -33.097389 0.387202 -0.005649 -0.011520
  5 -1.710044 1.005950 -32.422901 -0.156081 -0.024301 0.004399
  6 8.359842 -0.134830 -16.096420 -0.015681 -0.154682 -0.027441
  7 1.023945 0.902420 -33.930794 0.328004 0.022856 -0.050379
  8 1.181656 1.118922 -32.218086 -0.158611 0.001068 0.003214
  9 0.000000 -0.233956 1.012138 -0.180848 -0.000001 0.000001
 10 0.725195 -1.257227 27.700890 0.244345 -0.000000 0.000000
 11 -7.896835 -0.700382 18.721558 0.263223 0.017386 0.001545
 12 -14.708302 0.451422 -17.688972 -0.818128 0.291614 0.409598
 13 -7.769432 -4.337898 -11.290710 -0.271619 0.244372 -0.041531
 14 -1.614941 -2.075478 -6.327099 0.052019 0.091792 0.093927
 15 34.313515 6.017464 -79.785141 -0.000000 -0.000000 -0.000000
 16 9.145774 -0.500298 18.886604 0.000966 0.239476 -0.231787
 17 13.771753 0.225331 -17.802185 -1.098980 -0.642328 -1.340117
 18 7.757050 -4.315052 -11.436722 0.012659 0.026718 -0.155633
time 15
  0 1.089372 -2.364846 -2.772400 0.000000 -0.000000 0.000000
  1 -0.114210 0.486652 93.335945 0.000000 0.000000 0.000000
  2 0.000000 0.426101 -2.643661 -0.034906 -0.000000 -0.000000
  3 -7.805030 -1.259274 -16.725006 -0.134769 0.100926 -0.144646
  4 -0.855269 1.999125 -33.097389 0.389324 -0.005405 -0.011023
  5 -1.710041 1.005953 -32.422901 -0.155377 -0.024172 0.004441
  6 8.359842 -0.134830 -16.096413 -0.017036 -0.154713 -0.027232
  7 1.023947 0.902420 -33.930798 0.327060 0.022490 -0.053315
  8 1.181656 1.118923 -32.218082 -0.151878 0.000689 0.002074
  9 0.000000 -0.234266 0.949692 -0.178161 -0.000001 0.000001
 10 0.725195 -1.257225 27.700890 0.244345 -0.000000 0.000000
 11 -7.896836 -0.700382 18.721550 0.261813 0.017386 0.001521
 12 -14.708303 0.451422 -17.688965 -0.819345 0.292460 0.408333
 13 -7.769432 -4.337902 -11.290718 -0.271619 0.244372 -0.041531
 14 -1.614944 -2.075478 -6.327097 0.052019 0.091792 0.093927
 15 34.313511 6.017464 -79.785149 -0.000000 0.000000 0.000000
 16 9.145774 -0.500298 18.886604 -0.012201 0.236975 -0.233703
 17 13.771753 0.225329 -17.802177 -1.099563 -0.642862 -1.343503
 18 7.757050 -4.315060 -11.436718 0.018898 0.033081 -0.157137
time 16
  0 1.089372 -2.364846 -2.772400 0.000000 -0.000000 0.000000
  1 -0.114210 0.658756 93.364738 0.000000 0.000000 0.000000
  2 0.000000 0.426101 -2.643661 -0.034906 0.000000 0.000000
  3 -7.805030 -1.259274 -16.724991 -0.134210 0.101006 -0.144589
  4 -0.855270 1.999125 -33.097393 0.392048 -0.005092 -0.010384
  5 -1.710043 1.005952 -32.422897 -0.158058 -0.024661 0.004282
  6 8.359842 -0.134830 -16.096405 -0.019274 -0.154765 -0.026885
  7 1.023945 0.902421 -33.930809 0.326506 0.022276 -0.055036
  8 1.181650 1.118919 -32.218090 -0.146402 0.000381 0.001147
  9 0.000000 -0.234379 0.920525 -0.176140 -0.000001 0.000001
 10 0.725195 -1.257225 27.700890 0.244345 -0.000000 0.000000
 11 -7.896836 -0.700382 18.721550 0.263071 0.017383 0.001525
 12 -14.708302 0.451422 -17.688965 -0.819258 0.292483 0.408167
 13 -7.769436 -4.337894 -11.290726 -0.271619 0.244372 -0.041531
 14 -1.614937 -2.075470 -6.327103 0.052019 0.091792 0.093927
 15 34.313511 6.017479 -79.785149 0.000000 -0.000000 0.000000
 16 9.145773 -0.500296 18.886604 -0.019918 0.235509 -0.234790
 17 13.771754 0.225332 -17.802185 -1.100027 -0.643284 -1.345942
 18 7.757050 -4.315048 -11.436719 0.023771 0.038052 -0.158262
time 17
  0 1.089372 -2.364846 -2.772400 0.000000 -0.000000 0.000000
  1 -0.114210 0.747173 93.379524 0.000000 0.000000 0.000000
  2 0.000000 0.426100 -2.643661 -0.034906 -0.000000 -0.000000
  3 -7.805030 -1.259274 -16.725006 -0.133348 0.101131 -0.144501
  4 -0.855269 1.999125 -33.097389 0.395274 -0.004721 -0.009628
  5 -1.710042 1.005954 -32.422890 -0.163649 -0.025681 0.003950
  6 8.359842 -0.134830 -16.096413 -0.022260 -0.154834 -0.026423
  7 1.023947 0.902420 -33.930801 0.326413 0.022240 -0.055325
  8 1.181656 1.118920 -32.218086 -0.142403 0.000156 0.000470
  9 0.000000 -0.233899 0.932846 -0.174897 -0.000001 0.000001
 10 0.725195 -1.257227 27.700897 0.244345 -0.000000 0.000000
 11 -7.896836 -0.700382 18.721550 0.266771 0.017374 0.001538
 12 -14.708304 0.451421 -17.688972 -0.815115 0.290641 0.409282
 13 -7.769432 -4.337894 -11.290722 -0.271619 0.244372 -0.041531
 14 -1.614937 -2.075462 -6.327099 0.052019 0.091792 0.093927
 15 34.313515 6.017487 -79.785141 0.000000 -0.000000 0.000000
 16 9.145774 -0.500296 18.886612 -0.021215 0.235262 -0.235001
 17 13.771751 0.225331 -17.802170 -1.100379 -0.643603 -1.347587
 18 7.757050 -4.315048 -11.436720 0.027048 0.041394 -0.158990
time 18
  0 1.089372 -2.364846 -2.772400 0.000000 -0.000000 0.000000
  1 -0.114210 0.726970 93.376144 -0.000000 0.000000 0.000000
  2 0.000000 0.426101 -2.643661 -0.034906 0.000000 0.000000
  3 -7.805030 -1.259274 -16.725006 -0.132234 0.101291 -0.144388
  4 -0.855270 1.999124 -33.097385 0.398898 -0.004304 -0.008778
  5 -1.710041 1.005953 -32.422897 -0.171689 -0.027148 0.003473
  6 8.359842 -0.134830 -16.096428 -0.025860 -0.154917 -0.025866
  7 1.023949 0.902420 -33.930794 0.326981 0.022460 -0.053558
  8 1.181660 1.118924 -32.218086 -0.140105 0.000027 0.000081
  9 0.000000 -0.231754 0.994278 -0.174549 -0.000001 0.000001
 10 0.725195 -1.257224 27.700882 0.244345 -0.000000 0.000000
 11 -7.896836 -0.700383 18.721550 0.272537 0.017360 0.001561
 12 -14.708303 0.451422 -17.688972 -0.806700 0.286900 0.411546
 13 -7.769436 -4.337898 -11.290726 -0.271619 0.244372 -0.041531
 14 -1.614944 -2.075474 -6.327097 0.052019 0.091792 0.093927
 15 34.313515 6.017487 -79.785141 -0.000000 -0.000000 -0.000000
 16 9.145773 -0.500297 18.886604 -0.013290 0.236768 -0.234471
 17 13.771749 0.225330 -17.802177 -1.100628 -0.643826 -1.348589
 18 7.757050 -4.315048 -11.436719 0.028496 0.042871 -0.159301
time 19
  0 1.089372 -2.364846 -2.772400 0.000000 -0.000000 0.000000
  1 -0.114210 0.540459 93.344948 0.000000 0.000000 0.000000
  2 0.000000 0.426101 -2.643661 -0.034906 0.000000 0.000000
  3 -7.805030 -1.259274 -16.724998 -0.130918 0.101480 -0.144253
  4 -0.855270 1.999125 -33.097389 0.402818 -0.003853 -0.007858
  5 -1.710043 1.005951 -32.422897 -0.181721 -0.028978 0.002877
  6 8.359842 -0.134830 -16.096413 -0.029942 -0.155012 -0.025235
  7 1.023947 0.902420 -33.930805 0.328179 0.022923 -0.049834
  8 1.181656 1.118918 -32.218094 -0.139898 0.000015 0.000046
  9 0.000000 -0.228153 1.097397 -0.175802 -0.000001 0.000001
 10 0.725195 -1.257223 27.700897 0.244345 -0.000000 0.000000
 11 -7.896835 -0.700382 18.721558 0.279996 0.017342 0.001598
 12 -14.708303 0.451421 -17.688965 -0.794748 0.281587 0.414762
 13 -7.769440 -4.337898 -11.290726 -0.271619 0.244372 -0.041531
 14 -1.614937 -2.075470 -6.327097 0.052019 0.091792 0.093927
 15 34.313496 6.017467 -79.785141 0.000000 0.000000 0.000000
 16 9.145774 -0.500296 18.886612 0.003408 0.239940 -0.233205
 17 13.771753 0.225332 -17.802185 -1.100781 -0.643963 -1.349101
 18 7.757050 -4.315052 -11.436718 0.027073 0.041420 -0.158637
time 20
  0 1.089372 -2.364846 -2.772400 0.000000 -0.000000 0.000000
  1 -0.114210 0.208901 93.289482 0.000000 0.000000 0.000000
  2 0.000000 0.426101 -2.643661 -0.034906 -0.000000 0.000000
  3 -7.805030 -1.259274 -16.724998 -0.129452 0.101692 -0.144104
  4 -0.855271 1.999124 -33.097385 0.406933 -0.003380 -0.006893
  5 -1.710041 1.005954 -32.422894 -0.193286 -0.031087 0.002190
  6 8.359842 -0.134830 -16.096405 -0.034370 -0.155114 -0.024550
  7 1.023945 0.902421 -33.930805 0.329890 0.023585 -0.044519
  8 1.181652 1.118911 -32.218102 -0.144126 0.000253 0.000762
  9 0.000000 -0.223379 1.234093 -0.178794 -0.000001 0.000001
 10 0.725195 -1.257225 27.700890 0.244345 -0.000000 0.000000
 11 -7.896835 -0.700380 18.721550 0.288772 0.017321 0.001649
 12 -14.708302 0.451421 -17.688965 -0.779990 0.275026 0.418733
 13 -7.769432 -4.337898 -11.290710 -0.271619 0.244372 -0.041531
 14 -1.614941 -2.075466 -6.327095 0.052019 0.091792 0.093927
 15 34.313515 6.017494 -79.785141 -0.000000 0.000000 -0.000000
 16 9.145774 -0.500296 18.886604 0.027243 0.244468 -0.231132
 17 13.771751 0.225331 -17.802177 -1.100848 -0.644023 -1.349275
 18 7.757050 -4.315048 -11.436720 0.021344 0.035576 -0.156012
time 21
  0 1.089372 -2.364846 -2.772400 0.000000 -0.000000 0.000000
  1 -0.114210 -0.236966 93.214890 0.000000 0.000000 0.000000
  2 0.000000 0.426101 -2.643661 -0.034906 0.000000 0.000000
  3 -7.805030 -1.259274 -16.724998 -0.127885 0.101917 -0.143944
  4 -0.855271 1.999125 -33.097389 0.411141 -0.002897 -0.005907
  5 -1.710043 1.005954 -32.422897 -0.205926 -0.033393 0.001439
  6 8.359842 -0.134830 -16.096420 -0.039012 -0.155222 -0.023832
  7 1.023943 0.902420 -33.930801 0.331994 0.024399 -0.037977
  8 1.181654 1.118924 -32.218086 -0.152704 0.000736 0.002214
  9 0.000000 -0.217716 1.396255 -0.183174 -0.000001 0.000001
 10 0.725195 -1.257227 27.700890 0.244345 -0.000000 0.000000
 11 -7.896835 -0.700384 18.721550 0.298490 0.017297 0.001716
 12 -14.708303 0.451421 -17.688972 -0.763160 0.267543 0.423262
 13 -7.769436 -4.337902 -11.290710 -0.271619 0.244372 -0.041531
 14 -1.614941 -2.075478 -6.327099 0.052019 0.091792 0.093927
 15 34.313515 6.017475 -79.785133 -0.000000 0.000000 0.000000
 16 9.145774 -0.500296 18.886604 0.056577 0.250040 -0.228181
 17 13.771751 0.225333 -17.802177 -1.100491 -0.643686 -1.346095
 18 7.757042 -4.315048 -11.436718 0.012092 0.026140 -0.151774
time 22
  0 1.089372 -2.364846 -2.772400 0.000000 -0.000000 0.000000
  1 -0.114210 -0.766402 93.126328 -0.000000 0.000000 0.000000
  2 0.000000 0.426101 -2.643661 -0.034906 0.000000 0.000000
  3 -7.805030 -1.259274 -16.724998 -0.126268 0.102150 -0.143779
  4 -0.855270 1.999124 -33.097385 0.415339 -0.002414 -0.004922
  5 -1.710043 1.005955 -32.422890 -0.219181 -0.035811 0.000652
  6 8.359842 -0.134830 -16.096420 -0.043733 -0.155331 -0.023102
  7 1.023945 0.902420 -33.930794 0.334376 0.025321 -0.030573
  8 1.181656 1.118924 -32.218086 -0.164628 0.001406 0.004232
  9 0.000000 -0.211447 1.575783 -0.188590 -0.000001 0.000001
 10 0.725195 -1.257225 27.700890 0.244345 -0.000000 0.000000
 11 -7.896835 -0.700384 18.721550 0.308777 0.017272 0.001801
 12 -14.708305 0.451422 -17.688965 -0.744990 0.259465 0.428151
 13 -7.769432 -4.337902 -11.290718 -0.271619 0.244372 -0.041531
 14 -1.614944 -2.075474 -6.327091 0.052019 0.091792 0.093927
 15 34.313511 6.017464 -79.785141 -0.000000 0.000000 -0.000000
 16 9.145774 -0.500298 18.886612 0.089774 0.256346 -0.224281
 17 13.771751 0.225331 -17.802177 -1.098714 -0.642012 -1.330444
 18 7.757046 -4.315048 -11.436720 0.000176 0.013986 -0.146315
time 23
  0 1.089372 -2.364846 -2.772400 0.000000 -0.000000 0.000000
  1 -0.114210 -1.348669 93.028923 0.000000 0.000000 0.000000
  2 0.000000 0.426100 -2.643661 -0.034906 -0.000000 -0.000000
  3 -7.805030 -1.259274 -16.725006 -0.124652 0.102383 -0.143615
  4 -0.855270 1.999125 -33.097385 0.419425 -0.001944 -0.003964
  5 -1.710041 1.005953 -32.422901 -0.232595 -0.038257 -0.000144
  6 8.359842 -0.134830 -16.096413 -0.048399 -0.155439 -0.022380
  7 1.023947 0.902421 -33.930813 0.336917 0.026305 -0.022674
  8 1.181652 1.118922 -32.218094 -0.178899 0.002209 0.006648
  9 0.000000 -0.204854 1.764557 -0.194688 -0.000001 0.000001
 10 0.725195 -1.257225 27.700897 0.244345 -0.000000 0.000000
 11 -7.896835 -0.700384 18.721550 0.319256 0.017247 0.001905
 12 -14.708304 0.451421 -17.688972 -0.726213 0.251118 0.433204
 13 -7.769436 -4.337902 -11.290726 -0.271619 0.244372 -0.041531
 14 -1.614941 -2.075474 -6.327095 0.052019 0.091792 0.093927
 15 34.313503 6.017467 -79.785141 0.000000 -0.000000 -0.000000
 16 9.145774 -0.500298 18.886612 0.125195 0.263075 -0.219362
 17 13.771751 0.225332 -17.802177 -1.095782 -0.639247 -1.304603
 18 7.757050 -4.315048 -11.436722 -0.013548 -0.000012 -0.140028
time 24
  0 1.089372 -2.364846 -2.772400 0.000000 -0.000000 0.000000
  1 -0.114210 -1.953030 92.927818 0.000000 0.000000 0.000000
  2 0.000000 0.426100 -2.643661 -0.034906 -0.000000 0.000000
  3 -7.805030 -1.259274 -16.724998 -0.123088 0.102608 -0.143455
  4 -0.855270 1.999125 -33.097382 0.423298 -0.001499 -0.003056
  5 -1.710043 1.005956 -32.422897 -0.245707 -0.040649 -0.000923
  6 8.359842 -0.134830 -16.096413 -0.052878 -0.155542 -0.021687
  7 1.023947 0.902421 -33.930809 0.339501 0.027304 -0.014643
  8 1.181654 1.118921 -32.218094 -0.194515 0.003087 0.009291
  9 0.000000 -0.198222 1.954468 -0.201118 -0.000001 0.000001
 10 0.725195 -1.257227 27.700882 0.244345 -0.000000 0.000000
 11 -7.896835 -0.700382 18.721550 0.329555 0.017222 0.002031
 12 -14.708301 0.451421 -17.688965 -0.707562 0.242826 0.438223
 13 -7.769432 -4.337902 -11.290718 -0.271619 0.244372 -0.041531
 14 -1.614937 -2.075470 -6.327095 0.052019 0.091792 0.093927
 15 34.313511 6.017479 -79.785126 -0.000000 0.000000 0.000000
 16 9.145774 -0.500296 18.886604 0.161206 0.269916 -0.213352
 17 13.771753 0.225332 -17.802170 -1.092057 -0.635737 -1.271784
 18 7.757042 -4.315056 -11.436722 -0.028223 -0.014980 -0.133305
time 25
  0 1.089372 -2.364846 -2.772400 0.000000 -0.000000 0.000000
  1 -0.114210 -2.548745 92.828163 0.000000 0.000000 0.000000
  2 0.000000 0.426100 -2.643661 -0.034906 -0.000000 -0.000000
  3 -7.805030 -1.259274 -16.724998 -0.121625 0.102819 -0.143306
  4 -0.855269 1.999125 -33.097393 0.426855 -0.001090 -0.002222
  5 -1.710041 1.005951 -32.422897 -0.258060 -0.042902 -0.001657
  6 8.359842 -0.134830 -16.096413 -0.057034 -0.155638 -0.021044
  7 1.023947 0.902419 -33.930798 0.342009 0.028275 -0.006846
  8 1.181654 1.118924 -32.218086 -0.210475 0.003985 0.011993
  9 0.000000 -0.191833 2.137413 -0.207525 -0.000000 0.000001
 10 0.725195 -1.257225 27.700897 0.244345 -0.000000 0.000000
 11 -7.896836 -0.700384 18.721558 0.339297 0.017198 0.002180
 12 -14.708302 0.451421 -17.688965 -0.689770 0.234916 0.443010
 13 -7.769440 -4.337898 -11.290718 -0.271619 0.244372 -0.041531
 14 -1.614937 -2.075474 -6.327091 0.052019 0.091792 0.093927
 15 34.313499 6.017483 -79.785141 0.000000 -0.000000 0.000000
 16 9.145773 -0.500298 18.886604 0.196167 0.276558 -0.206182
 17 13.771748 0.225331 -17.802170 -1.087906 -0.631824 -1.235202
 18 7.757046 -4.315048 -11.436722 -0.042992 -0.030043 -0.126539
time 26
  0 1.089372 -2.364846 -2.772400 0.000000 -0.000000 0.000000
  1 -0.114210 -3.105078 92.735100 0.000000 0.000000 0.000000
  2 0.000000 0.426100 -2.643661 -0.034906 0.000000 0.000000
  3 -7.805030 -1.259274 -16.724998 -0.120315 0.103008 -0.143172
  4 -0.855271 1.999125 -33.097393 0.429994 -0.000729 -0.001486
  5 -1.710043 1.005951 -32.422897 -0.269195 -0.044933 -0.002318
  6 8.359842 -0.134831 -16.096413 -0.060735 -0.155724 -0.020471
  7 1.023945 0.902420 -33.930805 0.344325 0.029171 0.000352
  8 1.181652 1.118923 -32.218086 -0.225778 0.004846 0.014583
  9 0.000000 -0.185971 2.305275 -0.213557 -0.000000 0.000001
 10 0.725195 -1.257225 27.700890 0.244345 -0.000000 0.000000
 11 -7.896835 -0.700382 18.721558 0.348107 0.017177 0.002353
 12 -14.708304 0.451421 -17.688980 -0.673569 0.227713 0.447370
 13 -7.769436 -4.337898 -11.290726 -0.271619 0.244372 -0.041531
 14 -1.614944 -2.075478 -6.327095 0.052019 0.091792 0.093927
 15 34.313507 6.017475 -79.785149 -0.000000 -0.000000 -0.000000
 16 9.145774 -0.500296 18.886612 0.228443 0.282689 -0.197781
 17 13.771751 0.225330 -17.802185 -1.083691 -0.627852 -1.198068
 18 7.757050 -4.315056 -11.436716 -0.056998 -0.044328 -0.120123
time 27
  0 1.089372 -2.364846 -2.772400 0.000000 -0.000000 0.000000
  1 -0.114210 -3.591288 92.653763 0.000000 0.000000 0.000000
  2 0.000000 0.426100 -2.643661 -0.034906 0.000000 0.000000
  3 -7.805030 -1.259274 -16.724998 -0.119208 0.103167 -0.143059
  4 -0.855270 1.999125 -33.097382 0.432614 -0.000428 -0.000872
  5 -1.710044 1.005954 -32.422894 -0.278654 -0.046659 -0.002879
  6 8.359842 -0.134830 -16.096420 -0.063846 -0.155796 -0.019990
  7 1.023947 0.902419 -33.930809 0.346331 0.029947 0.006586
  8 1.181652 1.118924 -32.218090 -0.239423 0.005614 0.016893
  9 0.000000 -0.180918 2.449959 -0.218863 -0.000000 0.000001
 10 0.725195 -1.257225 27.700897 0.244345 -0.000000 0.000000
 11 -7.896835 -0.700384 18.721558 0.355613 0.017159 0.002553
 12 -14.708302 0.451421 -17.688965 -0.659693 0.221544 0.451104
 13 -7.769432 -4.337898 -11.290726 -0.271619 0.244372 -0.041531
 14 -1.614941 -2.075470 -6.327095 0.052019 0.091792 0.093927
 15 34.313515 6.017498 -79.785133 0.000000 0.000000 -0.000000
 16 9.145775 -0.500296 18.886612 0.256396 0.287999 -0.188078
 17 13.771753 0.225332 -17.802185 -1.079779 -0.624165 -1.163593
 18 7.757050 -4.315056 -11.436722 -0.069383 -0.056961 -0.114450
time 28
  0 1.089372 -2.364846 -2.772400 0.000000 -0.000000 0.000000
  1 -0.114210 -3.976638 92.589294 0.000000 0.000000 0.000000
  2 0.000000 0.426100 -2.643661 -0.034906 0.000000 0.000000
  3 -7.805030 -1.259274 -16.725006 -0.118355 0.103290 -0.142972
  4 -0.855270 1.999125 -33.097389 0.434611 -0.000198 -0.000403
  5 -1.710043 1.005953 -32.422901 -0.285978 -0.047995 -0.003314
  6 8.359842 -0.134830 -16.096420 -0.066235 -0.155851 -0.019620
  7 1.023945 0.902420 -33.930805 0.347909 0.030558 0.011490
  8 1.181654 1.118912 -32.218090 -0.250409 0.006231 0.018752
  9 0.000000 -0.176959 2.563339 -0.223089 -0.000000 0.000001
 10 0.725195 -1.257225 27.700897 0.244345 -0.000000 0.000000
 11 -7.896836 -0.700384 18.721550 0.361438 0.017144 0.002782
 12 -14.708304 0.451421 -17.688972 -0.648874 0.216735 0.454015
 13 -7.769440 -4.337898 -11.290718 -0.271619 0.244372 -0.041531
 14 -1.614941 -2.075470 -6.327095 0.052019 0.091792 0.093927
 15 34.313507 6.017471 -79.785126 0.000000 -0.000000 0.000000
 16 9.145774 -0.500299 18.886612 0.278389 0.292177 -0.177001
 17 13.771749 0.225332 -17.802177 -1.076533 -0.621105 -1.134992
 18 7.757050 -4.315048 -11.436720 -0.079290 -0.067066 -0.109911
time 29
  0 1.089372 -2.364846 -2.772400 0.000000 -0.000000 0.000000
  1 -0.114210 -4.230389 92.546844 0.000000 0.000000 0.000000
  2 0.000000 0.426100 -2.643661 -0.034906 -0.000000 0.000000
  3 -7.805030 -1.259274 -16.725006 -0.117806 0.103369 -0.142916
  4 -0.855270 1.999123 -33.097385 0.435884 -0.000052 -0.000105
  5 -1.710042 1.005956 -32.422897 -0.290709 -0.048858 -0.003595
  6 8.359842 -0.134830 -16.096420 -0.067765 -0.155887 -0.019384
  7 1.023945 0.902420 -33.930809 0.348941 0.030957 0.014701
  8 1.181656 1.118920 -32.218086 -0.257735 0.006644 0.019992
  9 0.000000 -0.174376 2.637314 -0.225883 -0.000000 0.000001
 10 0.725195 -1.257227 27.700897 0.244345 -0.000000 0.000000
 11 -7.896835 -0.700384 18.721550 0.365207 0.017135 0.003040
 12 -14.708302 0.451420 -17.688980 -0.641846 0.213610 0.455906
 13 -7.769436 -4.337894 -11.290726 -0.271619 0.244372 -0.041531
 14 -1.614941 -2.075470 -6.327099 0.052019 0.091792 0.093927
 15 34.313519 6.017475 -79.785141 -0.000000 0.000000 0.000000
 16 9.145775 -0.500298 18.886604 0.292785 0.294912 -0.164482
 17 13.771751 0.225330 -17.802170 -1.074318 -0.619018 -1.115475
 18 7.757053 -4.315063 -11.436714 -0.085863 -0.073770 -0.106900
time 30
  0 1.089372 -2.364846 -2.772400 0.000000 -0.000000 0.000000
  1 -0.114210 -4.321804 92.531555 0.000000 -0.000000 0.000000
  2 0.000000 0.426100 -2.643661 -0.034906 0.000000 0.000000
  3 -7.805030 -1.259274 -16.725006 -0.117611 0.103397 -0.142897
  4 -0.855268 1.999125 -33.097389 0.436331 -0.000000 0.000000
  5 -1.710041 1.005951 -32.422897 -0.292388 -0.049164 -0.003695
  6 8.359842 -0.134830 -16.096420 -0.068305 -0.155899 -0.019300
  7 1.023947 0.902420 -33.930801 0.349312 0.031101 0.015852
  8 1.181654 1.118919 -32.218094 -0.260399 0.006793 0.020443
  9 0.000000 -0.173451 2.663780 -0.226893 -0.000000 0.000001
 10 0.725195 -1.257227 27.700890 0.244345 -0.000000 0.000000
 11 -7.896836 -0.700382 18.721550 0.366547 0.017132 0.003330
 12 -14.708305 0.451421 -17.688972 -0.639340 0.212496 0.456580
 13 -7.769432 -4.337898 -11.290718 -0.271619 0.244372 -0.041531
 14 -1.614941 -2.075474 -6.327095 0.052019 0.091792 0.093927
 15 34.313522 6.017498 -79.785141 0.000000 -0.000000 0.000000
 16 9.145775 -0.500296 18.886604 0.297948 0.295893 -0.150448
 17 13.771751 0.225333 -17.802177 -1.073499 -0.618246 -1.108255
 18 7.757050 -4.315048 -11.436720 -0.088245 -0.076199 -0.105809
end
