version 1
nodes
  0 "bone34"  -1
  1 "bone31"  -1
  2 "bone17"  -1
  3 "bone16"   2
  4 "bone12"   3
  5 "bone13"   4
  6 "bone15"   5
  7 "bone19"   6
  8 "bone05"   3
  9 "bone18"   8
 10 "bone14"   9
 11 "bone20"  10
 12 "bone02"   2
 13 "bone01"  12
 14 "bone03"  13
 15 "bone10"  14
 16 "bone08"  15
 17 "bone22"  16
 18 "bone24"  16
 19 "bone25"  15
 20 "bone09"  12
 21 "bone04"  20
 22 "bone07"  21
 23 "bone26"  22
 24 "bone06"  12
 25 "bone27"  24
 26 "bone28"  12
 27 "bone29"  12
 28 "bone30"  12
end
skeleton
time 0
  0 -5.113562 -3.392895 0.796835 0.000000 -0.000000 0.000000
  1 -7.310884 -0.101110 174.348495 0.000000 -0.000000 0.000000
  2 -5.113562 -3.392895 70.616058 0.052360 -0.000000 0.000000
  3 0.325039 1.113430 -5.099007 -0.019673 0.000000 -0.000000
  4 6.206746 -0.124160 -11.733654 -0.925025 0.000000 0.000000
  5 2.376919 1.428909 -19.463913 0.959932 0.000000 -0.000000
  6 1.646507 1.612119 -34.692955 -0.023271 0.000000 -0.000000
  7 0.219322 -4.030297 -4.600570 0.000000 -0.000000 0.000000
  8 -6.833119 -0.124160 -11.733654 -0.075879 0.286305 -0.339914
  9 -2.998632 1.160221 -19.583822 0.627330 -0.117532 0.150476
 10 -1.356800 1.880817 -34.573048 -0.318235 0.018242 -0.094814
 11 -0.258570 -4.030296 -4.908824 0.000000 -0.000000 0.000000
 12 0.325039 1.113430 0.809013 -0.022144 0.047451 1.133940
 13 7.054492 1.815097 15.713707 -0.000000 0.000000 -0.000000
 14 12.909767 -0.165811 -12.867271 -0.000000 0.000000 0.000000
 15 11.504255 -9.735161 -11.778580 -0.114160 0.138026 -0.699164
 16 -4.990948 -20.855869 -11.972137 0.107342 -0.124349 -0.503130
 17 1.952652 -90.186783 -0.924713 0.000000 -0.000000 0.000000
 18 -35.001934 9.597224 -70.247482 0.000000 -0.000000 0.000000
 19 3.759452 -1.898642 -3.541317 0.000000 -0.000000 0.000000
 20 -7.698014 1.934284 15.877953 -0.565580 -0.403772 0.364940
 21 -12.721181 -0.083344 -12.838245 0.350879 -0.485336 0.230535
 22 -9.167509 -10.101492 -11.648903 0.579793 0.809829 1.024413
 23 -3.642082 -2.032093 -4.543636 0.000000 -0.000000 0.000000
 24 -0.409779 2.428935 22.341393 0.000000 0.000001 -1.169373
 25 -0.380096 -2.887196 20.845367 0.000000 -0.000000 0.000000
 26 -0.040494 -0.674471 8.862854 0.000000 -0.000000 0.000000
 27 -0.325039 -1.113431 -83.015968 0.000000 -0.000000 0.000000
 28 -0.325039 -1.113431 -83.015968 0.000000 -0.000000 0.000000
time 1
  0 -5.113562 -3.392895 0.796835 0.000000 -0.000000 0.000000
  1 -7.310884 -0.101110 174.348495 0.000000 -0.000000 0.000000
  2 -5.113562 -3.303927 70.986992 0.041913 -0.000000 0.000000
  3 0.325039 1.113430 -5.098999 -0.019676 0.000000 -0.000000
  4 6.206746 -0.124160 -11.733646 -0.919037 0.000000 0.000000
  5 2.376919 1.428905 -19.463913 0.959931 -0.000000 -0.000000
  6 1.646507 1.612119 -34.692959 -0.007704 0.000000 -0.000000
  7 0.219322 -4.030296 -4.600570 0.000000 -0.000000 0.000000
  8 -6.833119 -0.124160 -11.733646 -0.075879 0.286305 -0.339914
  9 -2.998632 1.160222 -19.583818 0.602389 -0.122838 0.146654
 10 -1.356798 1.880821 -34.573051 -0.318235 0.018242 -0.094814
 11 -0.258572 -4.030298 -4.908824 0.000000 -0.000000 0.000000
 12 0.325039 1.113430 0.809013 -0.027306 0.057850 1.132834
 13 7.054490 1.815096 15.713699 -0.011827 0.020992 -0.004136
 14 12.909765 -0.165811 -12.867264 -0.000000 -0.000000 0.000000
 15 11.504256 -9.735161 -11.778587 -0.059603 0.112527 -0.701966
 16 -4.990941 -20.855864 -11.972137 0.107342 -0.124349 -0.503130
 17 1.952662 -90.186760 -0.924713 0.000000 -0.000000 0.000000
 18 -35.001930 9.597225 -70.247467 0.000000 -0.000000 0.000000
 19 3.759454 -1.898643 -3.541321 0.000000 -0.000000 0.000000
 20 -7.698013 1.934285 15.877945 -0.562138 -0.402668 0.364735
 21 -12.721181 -0.083344 -12.838257 0.350879 -0.485336 0.230535
 22 -9.167515 -10.101488 -11.648895 0.579793 0.809829 1.024413
 23 -3.642086 -2.032095 -4.543636 0.000000 -0.000000 0.000000
 24 -0.409779 2.428936 22.341385 0.029534 0.001000 -1.169154
 25 -0.380095 -2.887195 20.845375 0.000000 -0.000000 0.000000
 26 -0.040494 -0.674471 8.862854 0.000000 -0.000000 0.000000
 27 -0.325040 -1.113431 -83.015961 0.000000 -0.000000 0.000000
 28 -0.325040 -1.113431 -83.015961 0.000000 -0.000000 0.000000
time 2
  0 -5.113562 -3.392895 0.796835 0.000000 -0.000000 0.000000
  1 -7.310884 -0.101110 174.348495 0.000000 -0.000000 0.000000
  2 -5.113562 -2.964204 71.922623 0.013759 -0.000000 0.000000
  3 0.325039 1.113430 -5.099007 -0.019678 0.000000 0.000000
  4 6.206746 -0.124160 -11.733643 -0.903935 0.000000 0.000000
  5 2.376919 1.428909 -19.463913 0.959932 -0.000000 -0.000000
  6 1.646507 1.612120 -34.692955 0.031561 0.000000 -0.000000
  7 0.219323 -4.030295 -4.600570 0.000000 -0.000000 0.000000
  8 -6.833119 -0.124160 -11.733643 -0.075879 0.286305 -0.339914
  9 -2.998634 1.160221 -19.583822 0.539480 -0.136224 0.137014
 10 -1.356796 1.880821 -34.573051 -0.318235 0.018242 -0.094814
 11 -0.258570 -4.030297 -4.908826 0.000000 -0.000000 0.000000
 12 0.325039 1.113430 0.809006 -0.041216 0.085874 1.129854
 13 7.054492 1.815096 15.713707 -0.043698 0.077562 -0.015281
 14 12.909766 -0.165812 -12.867271 -0.000000 -0.000000 0.000000
 15 11.504258 -9.735165 -11.778584 0.078011 0.048209 -0.709033
 16 -4.990949 -20.855869 -11.972137 0.107342 -0.124349 -0.503130
 17 1.952644 -90.186768 -0.924725 0.000000 -0.000000 0.000000
 18 -35.001938 9.597213 -70.247475 0.000000 -0.000000 0.000000
 19 3.759456 -1.898643 -3.541321 0.000000 -0.000000 0.000000
 20 -7.698015 1.934285 15.877953 -0.553455 -0.399149 0.364185
 21 -12.721181 -0.083347 -12.838249 0.350879 -0.485336 0.230535
 22 -9.167522 -10.101492 -11.648899 0.579793 0.809829 1.024413
 23 -3.642086 -2.032094 -4.543636 0.000000 -0.000000 0.000000
 24 -0.409779 2.428936 22.341393 0.104030 0.003522 -1.168603
 25 -0.380095 -2.887195 20.845367 0.000000 -0.000000 0.000000
 26 -0.040495 -0.674471 8.862862 0.000000 -0.000000 0.000000
 27 -0.325040 -1.113430 -83.015961 0.000000 -0.000000 0.000000
 28 -0.325040 -1.113430 -83.015961 0.000000 -0.000000 0.000000
time 3
  0 -5.113562 -3.392895 0.796835 0.000000 -0.000000 0.000000
  1 -7.310884 -0.101110 174.348495 0.000000 -0.000000 0.000000
  2 -5.113562 -2.264496 73.157211 -0.027319 0.000000 0.000000
  3 0.325039 1.113430 -5.098991 -0.019680 0.000000 -0.000000
  4 6.206746 -0.124160 -11.733646 -0.884007 0.000000 0.000000
  5 2.376919 1.428909 -19.463913 0.959932 -0.000000 -0.000000
  6 1.646507 1.612119 -34.692959 0.083372 0.000000 -0.000000
  7 0.219322 -4.030295 -4.600570 0.000000 -0.000000 0.000000
  8 -6.833119 -0.124160 -11.733643 -0.075879 0.286305 -0.339914
  9 -2.998632 1.160221 -19.583822 0.456468 -0.153886 0.124294
 10 -1.356796 1.880816 -34.573055 -0.318235 0.018242 -0.094814
 11 -0.258572 -4.030299 -4.908825 0.000000 -0.000000 0.000000
 12 0.325039 1.113430 0.809013 -0.061512 0.126763 1.125505
 13 7.054492 1.815096 15.713707 -0.090202 0.160103 -0.031542
 14 12.909763 -0.165811 -12.867256 0.000000 0.000000 0.000000
 15 11.504258 -9.735159 -11.778584 0.259597 -0.036661 -0.718358
 16 -4.990950 -20.855865 -11.972141 0.107342 -0.124349 -0.503130
 17 1.952637 -90.186783 -0.924728 0.000000 -0.000000 0.000000
 18 -35.001930 9.597208 -70.247452 0.000000 -0.000000 0.000000
 19 3.759451 -1.898641 -3.541317 0.000000 -0.000000 0.000000
 20 -7.698016 1.934284 15.877945 -0.541998 -0.392904 0.363393
 21 -12.721175 -0.083344 -12.838234 0.350879 -0.485336 0.230535
 22 -9.167511 -10.101493 -11.648903 0.579793 0.809828 1.024413
 23 -3.642086 -2.032097 -4.543644 0.000000 -0.000000 0.000000
 24 -0.409781 2.428934 22.341393 0.202330 0.006850 -1.167875
 25 -0.380096 -2.887197 20.845367 0.000000 -0.000000 0.000000
 26 -0.040494 -0.674471 8.862854 0.000000 -0.000000 0.000000
 27 -0.325041 -1.113429 -83.015953 0.000000 -0.000000 0.000000
 28 -0.325041 -1.113429 -83.015953 0.000000 -0.000000 0.000000
time 4
  0 -5.113562 -3.392895 0.796835 0.000000 -0.000000 0.000000
  1 -7.310884 -0.101110 174.348495 0.000000 -0.000000 0.000000
  2 -5.113562 -1.095575 74.425018 -0.076541 0.000000 0.000000
  3 0.325039 1.113430 -5.099007 -0.019682 0.000000 0.000000
  4 6.206746 -0.124160 -11.733646 -0.863543 0.000000 0.000000
  5 2.376919 1.428905 -19.463911 0.959932 -0.000000 -0.000000
  6 1.646508 1.612117 -34.692959 0.136577 0.000000 -0.000000
  7 0.219322 -4.030298 -4.600570 0.000000 -0.000000 0.000000
  8 -6.833119 -0.124160 -11.733646 -0.075879 0.286305 -0.339914
  9 -2.998634 1.160221 -19.583820 0.371224 -0.172024 0.111232
 10 -1.356794 1.880818 -34.573048 -0.318235 0.018242 -0.094814
 11 -0.258570 -4.030298 -4.908825 0.000000 -0.000000 0.000000
 12 0.325039 1.113431 0.809006 -0.085831 0.175757 1.120295
 13 7.054493 1.815096 15.713699 -0.145924 0.259007 -0.051027
 14 12.909765 -0.165809 -12.867264 0.000000 0.000000 -0.000000
 15 11.504259 -9.735161 -11.778584 0.446068 -0.123814 -0.727934
 16 -4.990948 -20.855865 -11.972137 0.107342 -0.124349 -0.503130
 17 1.952662 -90.186760 -0.924717 0.000000 -0.000000 0.000000
 18 -35.001942 9.597219 -70.247459 0.000000 -0.000000 0.000000
 19 3.759452 -1.898642 -3.541321 0.000000 -0.000000 0.000000
 20 -7.698015 1.934283 15.877953 -0.530232 -0.383623 0.362460
 21 -12.721180 -0.083347 -12.838234 0.350879 -0.485336 0.230535
 22 -9.167511 -10.101494 -11.648895 0.579793 0.809829 1.024413
 23 -3.642082 -2.032095 -4.543644 0.000000 -0.000000 0.000000
 24 -0.409781 2.428935 22.341385 0.303274 0.010267 -1.167127
 25 -0.380096 -2.887194 20.845367 0.000000 -0.000000 0.000000
 26 -0.040495 -0.674472 8.862862 0.000000 -0.000000 0.000000
 27 -0.325039 -1.113430 -83.015945 0.000000 -0.000000 0.000000
 28 -0.325039 -1.113430 -83.015945 0.000000 -0.000000 0.000000
time 5
  0 -5.113562 -3.392895 0.796835 0.000000 -0.000000 0.000000
  1 -7.310884 -0.101110 174.348495 0.000000 -0.000000 0.000000
  2 -5.113562 0.651786 75.460304 -0.129125 0.000000 0.000000
  3 0.325039 1.113429 -5.098999 -0.019683 0.000000 0.000000
  4 6.206746 -0.124160 -11.733654 -0.846832 0.000000 0.000000
  5 2.376919 1.428905 -19.463909 0.959932 0.000000 -0.000000
  6 1.646507 1.612120 -34.692947 0.180025 0.000000 -0.000000
  7 0.219322 -4.030298 -4.600570 0.000000 -0.000000 0.000000
  8 -6.833119 -0.124160 -11.733654 -0.075879 0.286305 -0.339914
  9 -2.998632 1.160219 -19.583817 0.301613 -0.186835 0.100565
 10 -1.356796 1.880816 -34.573036 -0.318235 0.018242 -0.094814
 11 -0.258570 -4.030299 -4.908825 0.000000 -0.000000 0.000000
 12 0.325039 1.113430 0.809006 -0.111812 0.228099 1.114728
 13 7.054493 1.815096 15.713692 -0.205453 0.364666 -0.071843
 14 12.909767 -0.165813 -12.867264 0.000000 -0.000000 0.000000
 15 11.504259 -9.735163 -11.778580 0.598340 -0.194983 -0.735754
 16 -4.990948 -20.855867 -11.972137 0.107342 -0.124349 -0.503130
 17 1.952641 -90.186768 -0.924713 0.000000 -0.000000 0.000000
 18 -35.001949 9.597218 -70.247459 0.000000 -0.000000 0.000000
 19 3.759451 -1.898642 -3.541321 0.000000 -0.000000 0.000000
 20 -7.698013 1.934285 15.877937 -0.520625 -0.370996 0.361487
 21 -12.721181 -0.083340 -12.838242 0.350879 -0.485336 0.230535
 22 -9.167506 -10.101490 -11.648903 0.579793 0.809828 1.024413
 23 -3.642086 -2.032094 -4.543636 0.000000 -0.000000 0.000000
 24 -0.409775 2.428936 22.341385 0.385705 0.013057 -1.166516
 25 -0.380097 -2.887195 20.845367 0.000000 -0.000000 0.000000
 26 -0.040495 -0.674471 8.862854 0.000000 -0.000000 0.000000
 27 -0.325047 -1.113434 -83.015961 0.000000 -0.000000 0.000000
 28 -0.325047 -1.113434 -83.015961 0.000000 -0.000000 0.000000
time 6
  0 -5.113562 -3.392895 0.796835 0.000000 -0.000000 0.000000
  1 -7.310884 -0.101110 174.348495 0.000000 -0.000000 0.000000
  2 -5.113562 3.086814 75.997322 -0.180289 0.000000 0.000000
  3 0.325039 1.113431 -5.099007 -0.019684 0.000000 -0.000000
  4 6.206746 -0.124160 -11.733646 -0.838164 0.000000 0.000000
  5 2.376919 1.428913 -19.463917 0.959931 -0.000000 -0.000000
  6 1.646507 1.612120 -34.692959 0.202561 0.000000 -0.000000
  7 0.219322 -4.030298 -4.600571 0.000000 -0.000000 0.000000
  8 -6.833119 -0.124161 -11.733643 -0.075879 0.286305 -0.339914
  9 -2.998632 1.160221 -19.583824 0.265506 -0.194517 0.095032
 10 -1.356792 1.880816 -34.573044 -0.318235 0.018242 -0.094814
 11 -0.258570 -4.030299 -4.908826 0.000000 -0.000000 0.000000
 12 0.325039 1.113431 0.809013 -0.137091 0.279027 1.109312
 13 7.054491 1.815097 15.713699 -0.263374 0.467473 -0.092097
 14 12.909767 -0.165812 -12.867260 0.000000 0.000000 0.000000
 15 11.504261 -9.735165 -11.778584 0.677325 -0.231899 -0.739810
 16 -4.990949 -20.855864 -11.972137 0.107342 -0.124349 -0.503130
 17 1.952639 -90.186768 -0.924702 0.000000 -0.000000 0.000000
 18 -35.001934 9.597229 -70.247467 0.000000 -0.000000 0.000000
 19 3.759452 -1.898642 -3.541321 0.000000 -0.000000 0.000000
 20 -7.698019 1.934284 15.877945 -0.515641 -0.354713 0.360575
 21 -12.721178 -0.083347 -12.838242 0.350879 -0.485336 0.230535
 22 -9.167507 -10.101493 -11.648903 0.579793 0.809829 1.024413
 23 -3.642086 -2.032096 -4.543644 0.000000 -0.000000 0.000000
 24 -0.409781 2.428937 22.341393 0.428463 0.014504 -1.166200
 25 -0.380098 -2.887197 20.845360 0.000000 -0.000000 0.000000
 26 -0.040497 -0.674471 8.862854 0.000000 -0.000000 0.000000
 27 -0.325033 -1.113429 -83.015968 0.000000 -0.000000 0.000000
 28 -0.325033 -1.113429 -83.015968 0.000000 -0.000000 0.000000
time 7
  0 -5.113562 -3.392895 0.796835 0.000000 -0.000000 0.000000
  1 -7.310884 -0.101110 174.348495 0.000000 -0.000000 0.000000
  2 -5.113562 9.454178 75.956207 -0.225252 0.000000 0.000000
  3 0.325039 1.113429 -5.098991 -0.019685 0.000000 0.000000
  4 6.206746 -0.124161 -11.733646 -0.838012 0.000000 0.000000
  5 2.376919 1.428909 -19.463913 0.959931 -0.000000 -0.000000
  6 1.646508 1.612120 -34.692955 0.202957 0.000000 -0.000000
  7 0.219322 -4.030298 -4.600570 0.000000 -0.000000 0.000000
  8 -6.833119 -0.124161 -11.733646 -0.075879 0.286305 -0.339914
  9 -2.998632 1.160220 -19.583820 0.310007 -0.184898 0.101663
 10 -1.356794 1.880811 -34.573044 -0.318235 0.018242 -0.094814
 11 -0.258572 -4.030300 -4.908825 0.000000 -0.000000 0.000000
 12 0.325039 1.113430 0.809013 -0.159306 0.323783 1.104552
 13 7.054487 1.815094 15.713699 -0.314276 0.557820 -0.109896
 14 12.909763 -0.165813 -12.867264 0.000000 -0.000000 0.000000
 15 11.504257 -9.735165 -11.778576 0.678711 -0.232547 -0.739882
 16 -4.990955 -20.855867 -11.972141 0.107342 -0.124349 -0.503130
 17 1.952633 -90.186783 -0.924721 0.000000 -0.000000 0.000000
 18 -35.001930 9.597208 -70.247452 0.000000 -0.000000 0.000000
 19 3.759450 -1.898642 -3.541321 0.000000 -0.000000 0.000000
 20 -7.698017 1.934284 15.877945 -0.532823 -0.207831 0.359592
 21 -12.721178 -0.083340 -12.838249 0.350879 -0.485336 0.230535
 22 -9.167510 -10.101494 -11.648903 0.579793 0.809829 1.024413
 23 -3.642090 -2.032099 -4.543640 0.000000 -0.000000 0.000000
 24 -0.409779 2.428936 22.341393 0.356673 0.012061 -1.166619
 25 -0.380097 -2.887199 20.845375 0.000000 -0.000000 0.000000
 26 -0.040493 -0.674471 8.862854 0.000000 -0.000000 0.000000
 27 -0.325039 -1.113428 -83.015953 0.000000 -0.000000 0.000000
 28 -0.325039 -1.113428 -83.015953 0.000000 -0.000000 0.000000
time 8
  0 -5.113562 -3.392895 0.796835 0.000000 -0.000000 0.000000
  1 -7.310884 -0.101110 174.348495 0.000000 -0.000000 0.000000
  2 -5.113562 22.492687 75.724174 -0.259233 0.000000 0.000000
  3 0.325039 1.113430 -5.098999 -0.019686 0.000000 0.000000
  4 6.206746 -0.124159 -11.733646 -0.839108 0.000000 0.000000
  5 2.376919 1.428905 -19.463919 0.959931 -0.000000 -0.000000
  6 1.646507 1.612119 -34.692955 0.200107 0.000000 -0.000000
  7 0.219322 -4.030297 -4.600571 0.000000 -0.000000 0.000000
  8 -6.833119 -0.124159 -11.733646 -0.075879 0.286305 -0.339914
  9 -2.998632 1.160222 -19.583820 0.452556 -0.154115 0.122942
 10 -1.356798 1.880819 -34.573048 -0.318235 0.018242 -0.094814
 11 -0.258570 -4.030300 -4.908826 0.000000 -0.000000 0.000000
 12 0.325039 1.113430 0.809013 -0.176096 0.357607 1.100954
 13 7.054489 1.815096 15.713715 -0.352745 0.626099 -0.123348
 14 12.909767 -0.165812 -12.867264 0.000000 -0.000000 0.000000
 15 11.504257 -9.735159 -11.778580 0.668724 -0.227880 -0.739369
 16 -4.990957 -20.855869 -11.972145 0.107342 -0.124349 -0.503130
 17 1.952621 -90.186768 -0.924736 0.000000 -0.000000 0.000000
 18 -35.001930 9.597189 -70.247452 0.000000 -0.000000 0.000000
 19 3.759451 -1.898642 -3.541328 0.000000 -0.000000 0.000000
 20 -7.698011 1.934286 15.877945 -0.586431 0.202386 0.358352
 21 -12.721172 -0.083344 -12.838245 0.350879 -0.485336 0.230535
 22 -9.167519 -10.101494 -11.648895 0.579793 0.809829 1.024413
 23 -3.642090 -2.032089 -4.543638 0.000000 -0.000000 0.000000
 24 -0.409782 2.428934 22.341400 0.129511 0.004333 -1.167957
 25 -0.380096 -2.887196 20.845367 0.000000 -0.000000 0.000000
 26 -0.040495 -0.674471 8.862854 0.000000 -0.000000 0.000000
 27 -0.325043 -1.113426 -83.015953 0.000000 -0.000000 0.000000
 28 -0.325043 -1.113426 -83.015953 0.000000 -0.000000 0.000000
time 9
  0 -5.113562 -3.392895 0.796835 0.000000 -0.000000 0.000000
  1 -7.310884 -0.101110 174.348495 0.000000 -0.000000 0.000000
  2 -5.113562 32.898354 75.441231 -0.277450 0.000000 0.000000
  3 0.325039 1.113428 -5.098999 -0.019687 0.000000 0.000000
  4 6.206746 -0.124159 -11.733643 -0.840995 0.000000 0.000000
  5 2.376919 1.428909 -19.463911 0.959932 0.000000 -0.000000
  6 1.646507 1.612118 -34.692963 0.195200 0.000000 -0.000000
  7 0.219322 -4.030297 -4.600570 0.000000 -0.000000 0.000000
  8 -6.833119 -0.124159 -11.733643 -0.075879 0.286305 -0.339914
  9 -2.998631 1.160223 -19.583820 0.574861 -0.127737 0.141243
 10 -1.356798 1.880821 -34.573044 -0.318235 0.018242 -0.094814
 11 -0.258568 -4.030300 -4.908824 0.000000 -0.000000 0.000000
 12 0.325039 1.113432 0.809006 -0.185096 0.375740 1.099026
 13 7.054493 1.815096 15.713699 -0.373367 0.662704 -0.130559
 14 12.909767 -0.165810 -12.867268 -0.000000 -0.000000 0.000000
 15 11.504257 -9.735161 -11.778580 0.651525 -0.219841 -0.738486
 16 -4.990952 -20.855869 -11.972145 0.107342 -0.124349 -0.503130
 17 1.952627 -90.186768 -0.924740 0.000000 -0.000000 0.000000
 18 -35.001934 9.597195 -70.247459 0.000000 -0.000000 0.000000
 19 3.759453 -1.898643 -3.541321 0.000000 -0.000000 0.000000
 20 -7.698009 1.934286 15.877937 -0.632026 0.546926 0.357479
 21 -12.721176 -0.083347 -12.838245 0.350879 -0.485336 0.230535
 22 -9.167503 -10.101488 -11.648895 0.579793 0.809828 1.024413
 23 -3.642075 -2.032097 -4.543635 0.000000 -0.000000 0.000000
 24 -0.409779 2.428934 22.341385 -0.063692 -0.002241 -1.169099
 25 -0.380095 -2.887192 20.845367 0.000000 -0.000000 0.000000
 26 -0.040495 -0.674471 8.862854 0.000000 -0.000000 0.000000
 27 -0.325043 -1.113427 -83.015961 0.000000 -0.000000 0.000000
 28 -0.325043 -1.113427 -83.015961 0.000000 -0.000000 0.000000
time 10
  0 -5.113562 -3.392895 0.796835 0.000000 -0.000000 0.000000
  1 -7.310884 -0.101110 174.348495 0.000000 -0.000000 0.000000
  2 -5.113562 34.046810 75.200974 -0.278441 0.000000 0.000000
  3 0.325039 1.113430 -5.098991 -0.019688 0.000000 -0.000000
  4 6.206746 -0.124161 -11.733650 -0.843596 0.000000 0.000000
  5 2.376919 1.428905 -19.463913 0.959931 -0.000000 -0.000000
  6 1.646507 1.612118 -34.692951 0.188438 0.000000 -0.000000
  7 0.219322 -4.030297 -4.600569 0.000000 -0.000000 0.000000
  8 -6.833119 -0.124163 -11.733650 -0.075879 0.286305 -0.339914
  9 -2.998634 1.160219 -19.583824 0.592261 -0.124065 0.143950
 10 -1.356800 1.880814 -34.573051 -0.318235 0.018242 -0.094814
 11 -0.258575 -4.030298 -4.908825 0.000000 -0.000000 0.000000
 12 0.325039 1.113434 0.809021 -0.185586 0.376727 1.098921
 13 7.054487 1.815096 15.713699 -0.374489 0.664695 -0.130952
 14 12.909767 -0.165813 -12.867260 0.000000 -0.000000 -0.000000
 15 11.504257 -9.735163 -11.778584 0.627826 -0.208765 -0.737269
 16 -4.990953 -20.855862 -11.972141 0.107342 -0.124349 -0.503130
 17 1.952633 -90.186768 -0.924717 0.000000 -0.000000 0.000000
 18 -35.001938 9.597212 -70.247459 0.000000 -0.000000 0.000000
 19 3.759451 -1.898640 -3.541321 0.000000 -0.000000 0.000000
 20 -7.698017 1.934286 15.877945 -0.637401 0.586275 0.357399
 21 -12.721176 -0.083344 -12.838242 0.350879 -0.485336 0.230535
 22 -9.167507 -10.101495 -11.648895 0.579793 0.809829 1.024413
 23 -3.642090 -2.032097 -4.543637 0.000000 -0.000000 0.000000
 24 -0.409788 2.428934 22.341393 -0.087000 -0.003034 -1.169246
 25 -0.380097 -2.887203 20.845375 0.000000 -0.000000 0.000000
 26 -0.040495 -0.674469 8.862854 0.000000 -0.000000 0.000000
 27 -0.325029 -1.113428 -83.015953 0.000000 -0.000000 0.000000
 28 -0.325029 -1.113428 -83.015953 0.000000 -0.000000 0.000000
time 11
  0 -5.113562 -3.392895 0.796835 0.000000 -0.000000 0.000000
  1 -7.310884 -0.101110 174.348495 0.000000 -0.000000 0.000000
  2 -5.113562 33.499046 74.950691 -0.273602 0.000000 0.000000
  3 0.325039 1.113432 -5.098999 -0.019688 0.000000 -0.000000
  4 6.206746 -0.124159 -11.733643 -0.846832 0.000000 0.000000
  5 2.376919 1.428909 -19.463913 0.959932 -0.000000 -0.000000
  6 1.646508 1.612119 -34.692959 0.180025 0.000000 -0.000000
  7 0.219322 -4.030296 -4.600570 0.000000 -0.000000 0.000000
  8 -6.833119 -0.124159 -11.733643 -0.075879 0.286305 -0.339914
  9 -2.998631 1.160223 -19.583824 0.595056 -0.123551 0.144481
 10 -1.356791 1.880821 -34.573048 -0.318235 0.018242 -0.094814
 11 -0.258572 -4.030296 -4.908825 0.000000 -0.000000 0.000000
 12 0.325039 1.113432 0.809021 -0.183195 0.371909 1.099433
 13 7.054489 1.815093 15.713699 -0.369011 0.654970 -0.129036
 14 12.909763 -0.165813 -12.867264 -0.000000 0.000000 -0.000000
 15 11.504261 -9.735161 -11.778580 0.598339 -0.194983 -0.735754
 16 -4.990953 -20.855867 -11.972145 0.107342 -0.124349 -0.503130
 17 1.952612 -90.186768 -0.924725 0.000000 -0.000000 0.000000
 18 -35.001923 9.597200 -70.247467 0.000000 -0.000000 0.000000
 19 3.759451 -1.898642 -3.541321 0.000000 -0.000000 0.000000
 20 -7.698015 1.934283 15.877960 -0.636350 0.571790 0.357509
 21 -12.721184 -0.083344 -12.838245 0.350879 -0.485336 0.230535
 22 -9.167507 -10.101490 -11.648903 0.579793 0.809829 1.024413
 23 -3.642090 -2.032089 -4.543636 0.000000 -0.000000 0.000000
 24 -0.409779 2.428933 22.341385 -0.085727 -0.002989 -1.169256
 25 -0.380095 -2.887196 20.845367 0.000000 -0.000000 0.000000
 26 -0.040493 -0.674472 8.862854 0.000000 -0.000000 0.000000
 27 -0.325043 -1.113429 -83.015953 0.000000 -0.000000 0.000000
 28 -0.325043 -1.113429 -83.015953 0.000000 -0.000000 0.000000
time 12
  0 -5.113562 -3.392895 0.796835 0.000000 -0.000000 0.000000
  1 -7.310884 -0.101110 174.348495 0.000000 -0.000000 0.000000
  2 -5.113562 32.502491 74.682999 -0.264797 0.000000 0.000000
  3 0.325039 1.113430 -5.098991 -0.019688 0.000000 -0.000000
  4 6.206746 -0.124161 -11.733646 -0.850625 0.000000 0.000000
  5 2.376919 1.428909 -19.463909 0.959931 -0.000000 -0.000000
  6 1.646508 1.612118 -34.692947 0.170163 0.000000 -0.000000
  7 0.219322 -4.030296 -4.600569 0.000000 -0.000000 0.000000
  8 -6.833119 -0.124161 -11.733646 -0.075879 0.286305 -0.339914
  9 -2.998634 1.160218 -19.583824 0.597803 -0.123044 0.145001
 10 -1.356798 1.880821 -34.573048 -0.318235 0.018242 -0.094814
 11 -0.258568 -4.030293 -4.908824 0.000000 -0.000000 0.000000
 12 0.325039 1.113426 0.809013 -0.178844 0.363145 1.100366
 13 7.054489 1.815094 15.713692 -0.359043 0.637278 -0.125550
 14 12.909771 -0.165812 -12.867268 -0.000000 0.000000 -0.000000
 15 11.504261 -9.735165 -11.778580 0.563778 -0.178830 -0.733979
 16 -4.990950 -20.855862 -11.972141 0.107342 -0.124349 -0.503130
 17 1.952635 -90.186760 -0.924732 0.000000 -0.000000 0.000000
 18 -35.001930 9.597204 -70.247452 0.000000 -0.000000 0.000000
 19 3.759453 -1.898642 -3.541321 0.000000 -0.000000 0.000000
 20 -7.698013 1.934284 15.877945 -0.634438 0.545438 0.357710
 21 -12.721176 -0.083347 -12.838242 0.350879 -0.485336 0.230535
 22 -9.167507 -10.101495 -11.648895 0.579793 0.809829 1.024413
 23 -3.642082 -2.032097 -4.543640 0.000000 -0.000000 0.000000
 24 -0.409781 2.428932 22.341393 -0.083412 -0.002909 -1.169265
 25 -0.380095 -2.887203 20.845375 0.000000 -0.000000 0.000000
 26 -0.040493 -0.674473 8.862846 0.000000 -0.000000 0.000000
 27 -0.325033 -1.113429 -83.015953 0.000000 -0.000000 0.000000
 28 -0.325033 -1.113429 -83.015953 0.000000 -0.000000 0.000000
time 13
  0 -5.113562 -3.392895 0.796835 0.000000 -0.000000 0.000000
  1 -7.310884 -0.101110 174.348495 0.000000 -0.000000 0.000000
  2 -5.113562 31.108709 74.401169 -0.252482 0.000000 0.000000
  3 0.325039 1.113430 -5.098999 -0.019689 0.000000 0.000000
  4 6.206746 -0.124163 -11.733643 -0.854897 0.000000 0.000000
  5 2.376919 1.428909 -19.463909 0.959931 -0.000000 -0.000000
  6 1.646508 1.612119 -34.692955 0.159057 0.000000 -0.000000
  7 0.219322 -4.030296 -4.600569 0.000000 -0.000000 0.000000
  8 -6.833119 -0.124163 -11.733643 -0.075879 0.286305 -0.339914
  9 -2.998629 1.160223 -19.583817 0.600493 -0.122546 0.145508
 10 -1.356796 1.880810 -34.573048 -0.318235 0.018242 -0.094814
 11 -0.258572 -4.030298 -4.908825 0.000000 -0.000000 0.000000
 12 0.325039 1.113430 0.809013 -0.172760 0.350887 1.101669
 13 7.054487 1.815095 15.713707 -0.345101 0.612533 -0.120675
 14 12.909771 -0.165813 -12.867264 -0.000000 -0.000000 0.000000
 15 11.504265 -9.735165 -11.778587 0.524853 -0.160637 -0.731980
 16 -4.990948 -20.855865 -11.972145 0.107342 -0.124349 -0.503130
 17 1.952642 -90.186768 -0.924736 0.000000 -0.000000 0.000000
 18 -35.001934 9.597208 -70.247467 0.000000 -0.000000 0.000000
 19 3.759451 -1.898645 -3.541328 0.000000 -0.000000 0.000000
 20 -7.698019 1.934283 15.877945 -0.631764 0.508581 0.357990
 21 -12.721176 -0.083347 -12.838242 0.350879 -0.485336 0.230535
 22 -9.167511 -10.101495 -11.648888 0.579793 0.809828 1.024413
 23 -3.642090 -2.032089 -4.543639 0.000000 -0.000000 0.000000
 24 -0.409786 2.428935 22.341385 -0.080173 -0.002796 -1.169275
 25 -0.380096 -2.887196 20.845367 0.000000 -0.000000 0.000000
 26 -0.040497 -0.674472 8.862854 0.000000 -0.000000 0.000000
 27 -0.325035 -1.113436 -83.015961 0.000000 -0.000000 0.000000
 28 -0.325035 -1.113436 -83.015961 0.000000 -0.000000 0.000000
time 14
  0 -5.113562 -3.392895 0.796835 0.000000 -0.000000 0.000000
  1 -7.310884 -0.101110 174.348495 0.000000 -0.000000 0.000000
  2 -5.113562 29.369267 74.108475 -0.237113 0.000000 0.000000
  3 0.325039 1.113432 -5.099007 -0.019689 0.000000 0.000000
  4 6.206746 -0.124159 -11.733643 -0.859569 0.000000 0.000000
  5 2.376919 1.428909 -19.463915 0.959931 -0.000000 -0.000000
  6 1.646508 1.612119 -34.692955 0.146909 0.000000 -0.000000
  7 0.219322 -4.030297 -4.600570 0.000000 -0.000000 0.000000
  8 -6.833119 -0.124159 -11.733643 -0.075879 0.286305 -0.339914
  9 -2.998632 1.160222 -19.583820 0.603115 -0.122061 0.146001
 10 -1.356798 1.880825 -34.573051 -0.318235 0.018242 -0.094814
 11 -0.258572 -4.030298 -4.908825 0.000000 -0.000000 0.000000
 12 0.325039 1.113432 0.809013 -0.165166 0.335589 1.103296
 13 7.054491 1.815096 15.713707 -0.327703 0.581651 -0.114591
 14 12.909767 -0.165812 -12.867271 -0.000000 0.000000 0.000000
 15 11.504257 -9.735165 -11.778580 0.482278 -0.140738 -0.729794
 16 -4.990952 -20.855865 -11.972141 0.107342 -0.124349 -0.503130
 17 1.952625 -90.186783 -0.924694 0.000000 -0.000000 0.000000
 18 -35.001930 9.597225 -70.247459 0.000000 -0.000000 0.000000
 19 3.759451 -1.898642 -3.541321 0.000000 -0.000000 0.000000
 20 -7.698015 1.934284 15.877945 -0.628427 0.462583 0.358341
 21 -12.721184 -0.083340 -12.838242 0.350879 -0.485336 0.230535
 22 -9.167507 -10.101494 -11.648903 0.579793 0.809829 1.024413
 23 -3.642082 -2.032093 -4.543639 0.000000 -0.000000 0.000000
 24 -0.409777 2.428938 22.341385 -0.076131 -0.002655 -1.169284
 25 -0.380096 -2.887199 20.845375 0.000000 -0.000000 0.000000
 26 -0.040497 -0.674471 8.862854 0.000000 -0.000000 0.000000
 27 -0.325031 -1.113426 -83.015961 0.000000 -0.000000 0.000000
 28 -0.325031 -1.113426 -83.015961 0.000000 -0.000000 0.000000
time 15
  0 -5.113562 -3.392895 0.796835 0.000000 -0.000000 0.000000
  1 -7.310884 -0.101110 174.348495 0.000000 -0.000000 0.000000
  2 -5.113562 27.335732 73.808189 -0.219145 0.000000 0.000000
  3 0.325039 1.113430 -5.098999 -0.019689 0.000000 0.000000
  4 6.206746 -0.124162 -11.733650 -0.864564 0.000000 0.000000
  5 2.376919 1.428909 -19.463909 0.959931 -0.000000 -0.000000
  6 1.646508 1.612118 -34.692955 0.133923 0.000000 -0.000000
  7 0.219322 -4.030297 -4.600569 0.000000 -0.000000 0.000000
  8 -6.833119 -0.124162 -11.733654 -0.075879 0.286305 -0.339914
  9 -2.998634 1.160221 -19.583820 0.605658 -0.121588 0.146477
 10 -1.356792 1.880821 -34.573051 -0.318235 0.018242 -0.094814
 11 -0.258572 -4.030294 -4.908824 0.000000 -0.000000 0.000000
 12 0.325039 1.113430 0.809013 -0.156289 0.317704 1.105198
 13 7.054495 1.815096 15.713699 -0.307362 0.545548 -0.107479
 14 12.909767 -0.165813 -12.867260 -0.000000 0.000000 -0.000000
 15 11.504257 -9.735165 -11.778584 0.436765 -0.119466 -0.727457
 16 -4.990946 -20.855865 -11.972149 0.107342 -0.124349 -0.503130
 17 1.952631 -90.186768 -0.924747 0.000000 -0.000000 0.000000
 18 -35.001942 9.597185 -70.247467 0.000000 -0.000000 0.000000
 19 3.759451 -1.898643 -3.541321 0.000000 -0.000000 0.000000
 20 -7.698017 1.934286 15.877953 -0.624527 0.408809 0.358751
 21 -12.721184 -0.083344 -12.838242 0.350879 -0.485336 0.230535
 22 -9.167515 -10.101501 -11.648903 0.579793 0.809829 1.024413
 23 -3.642090 -2.032101 -4.543642 0.000000 -0.000000 0.000000
 24 -0.409779 2.428936 22.341393 -0.071405 -0.002490 -1.169293
 25 -0.380095 -2.887192 20.845375 0.000000 -0.000000 0.000000
 26 -0.040493 -0.674472 8.862854 0.000000 -0.000000 0.000000
 27 -0.325033 -1.113427 -83.015961 0.000000 -0.000000 0.000000
 28 -0.325033 -1.113427 -83.015961 0.000000 -0.000000 0.000000
time 16
  0 -5.113562 -3.392895 0.796835 0.000000 -0.000000 0.000000
  1 -7.310884 -0.101110 174.348495 0.000000 -0.000000 0.000000
  2 -5.113562 25.059671 73.503578 -0.199035 0.000000 0.000000
  3 0.325039 1.113431 -5.098991 -0.019689 0.000000 0.000000
  4 6.206746 -0.124161 -11.733658 -0.869803 0.000000 0.000000
  5 2.376919 1.428902 -19.463913 0.959931 -0.000000 -0.000000
  6 1.646507 1.612119 -34.692955 0.120301 0.000000 -0.000000
  7 0.219322 -4.030296 -4.600570 0.000000 -0.000000 0.000000
  8 -6.833119 -0.124162 -11.733654 -0.075879 0.286305 -0.339914
  9 -2.998632 1.160221 -19.583828 0.608112 -0.121132 0.146936
 10 -1.356792 1.880817 -34.573051 -0.318235 0.018242 -0.094814
 11 -0.258572 -4.030294 -4.908826 0.000000 -0.000000 0.000000
 12 0.325039 1.113431 0.809021 -0.146353 0.297687 1.107327
 13 7.054489 1.815096 15.713707 -0.284596 0.505140 -0.099518
 14 12.909771 -0.165819 -12.867264 -0.000000 -0.000000 -0.000000
 15 11.504259 -9.735165 -11.778580 0.389025 -0.097154 -0.725005
 16 -4.990944 -20.855864 -11.972149 0.107342 -0.124349 -0.503130
 17 1.952644 -90.186768 -0.924747 0.000000 -0.000000 0.000000
 18 -35.001938 9.597200 -70.247459 0.000000 -0.000000 0.000000
 19 3.759454 -1.898640 -3.541321 0.000000 -0.000000 0.000000
 20 -7.698015 1.934286 15.877953 -0.620161 0.348621 0.359209
 21 -12.721184 -0.083351 -12.838249 0.350879 -0.485336 0.230535
 22 -9.167511 -10.101498 -11.648911 0.579793 0.809829 1.024413
 23 -3.642090 -2.032093 -4.543641 0.000000 -0.000000 0.000000
 24 -0.409781 2.428936 22.341393 -0.066116 -0.002306 -1.169302
 25 -0.380096 -2.887196 20.845367 0.000000 -0.000000 0.000000
 26 -0.040495 -0.674473 8.862854 0.000000 -0.000000 0.000000
 27 -0.325037 -1.113433 -83.015968 0.000000 -0.000000 0.000000
 28 -0.325037 -1.113433 -83.015968 0.000000 -0.000000 0.000000
time 17
  0 -5.113562 -3.392895 0.796835 0.000000 -0.000000 0.000000
  1 -7.310884 -0.101110 174.348495 0.000000 -0.000000 0.000000
  2 -5.113562 22.592653 73.197914 -0.177237 0.000000 0.000000
  3 0.325039 1.113431 -5.098999 -0.019690 0.000000 -0.000000
  4 6.206746 -0.124160 -11.733639 -0.875208 0.000000 0.000000
  5 2.376919 1.428913 -19.463911 0.959931 -0.000000 -0.000000
  6 1.646507 1.612119 -34.692955 0.106248 0.000000 -0.000000
  7 0.219322 -4.030297 -4.600570 0.000000 -0.000000 0.000000
  8 -6.833119 -0.124160 -11.733643 -0.075879 0.286305 -0.339914
  9 -2.998634 1.160219 -19.583820 0.610467 -0.120693 0.147374
 10 -1.356794 1.880819 -34.573044 -0.318235 0.018242 -0.094814
 11 -0.258572 -4.030298 -4.908823 0.000000 -0.000000 0.000000
 12 0.325039 1.113430 0.809013 -0.135583 0.275989 1.109635
 13 7.054493 1.815097 15.713707 -0.259920 0.461341 -0.090889
 14 12.909767 -0.165815 -12.867264 0.000000 -0.000000 0.000000
 15 11.504259 -9.735167 -11.778580 0.339772 -0.074134 -0.722476
 16 -4.990948 -20.855862 -11.972141 0.107342 -0.124349 -0.503130
 17 1.952637 -90.186768 -0.924725 0.000000 -0.000000 0.000000
 18 -35.001934 9.597210 -70.247459 0.000000 -0.000000 0.000000
 19 3.759452 -1.898640 -3.541321 0.000000 -0.000000 0.000000
 20 -7.698011 1.934285 15.877945 -0.615428 0.283384 0.359706
 21 -12.721180 -0.083347 -12.838249 0.350879 -0.485336 0.230535
 22 -9.167515 -10.101498 -11.648911 0.579793 0.809829 1.024413
 23 -3.642090 -2.032101 -4.543642 0.000000 -0.000000 0.000000
 24 -0.409782 2.428935 22.341393 -0.060384 -0.002106 -1.169310
 25 -0.380097 -2.887196 20.845367 0.000000 -0.000000 0.000000
 26 -0.040493 -0.674471 8.862854 0.000000 -0.000000 0.000000
 27 -0.325037 -1.113431 -83.015961 0.000000 -0.000000 0.000000
 28 -0.325037 -1.113431 -83.015961 0.000000 -0.000000 0.000000
time 18
  0 -5.113562 -3.392895 0.796835 0.000000 -0.000000 0.000000
  1 -7.310884 -0.101110 174.348495 0.000000 -0.000000 0.000000
  2 -5.113562 19.986242 72.894463 -0.154208 0.000000 0.000000
  3 0.325039 1.113430 -5.098991 -0.019690 0.000000 -0.000000
  4 6.206746 -0.124160 -11.733646 -0.880701 0.000000 0.000000
  5 2.376919 1.428905 -19.463915 0.959931 -0.000000 -0.000000
  6 1.646508 1.612119 -34.692963 0.091966 0.000000 -0.000000
  7 0.219322 -4.030296 -4.600570 0.000000 -0.000000 0.000000
  8 -6.833119 -0.124160 -11.733646 -0.075879 0.286305 -0.339914
  9 -2.998632 1.160222 -19.583820 0.612713 -0.120275 0.147791
 10 -1.356794 1.880814 -34.573051 -0.318235 0.018242 -0.094814
 11 -0.258570 -4.030296 -4.908825 0.000000 -0.000000 0.000000
 12 0.325039 1.113429 0.809021 -0.124205 0.253067 1.112073
 13 7.054494 1.815098 15.713707 -0.233849 0.415067 -0.081773
 14 12.909773 -0.165813 -12.867271 0.000000 0.000000 0.000000
 15 11.504259 -9.735161 -11.778587 0.289718 -0.050739 -0.719905
 16 -4.990951 -20.855864 -11.972141 0.107342 -0.124349 -0.503130
 17 1.952610 -90.186775 -0.924725 0.000000 -0.000000 0.000000
 18 -35.001926 9.597202 -70.247467 0.000000 -0.000000 0.000000
 19 3.759454 -1.898643 -3.541325 0.000000 -0.000000 0.000000
 20 -7.698018 1.934284 15.877953 -0.610428 0.214461 0.360231
 21 -12.721180 -0.083344 -12.838245 0.350879 -0.485336 0.230535
 22 -9.167515 -10.101496 -11.648895 0.579793 0.809828 1.024413
 23 -3.642090 -2.032097 -4.543641 0.000000 -0.000000 0.000000
 24 -0.409780 2.428936 22.341393 -0.054327 -0.001894 -1.169318
 25 -0.380096 -2.887196 20.845375 0.000000 -0.000000 0.000000
 26 -0.040494 -0.674470 8.862854 0.000000 -0.000000 0.000000
 27 -0.325041 -1.113431 -83.015961 0.000000 -0.000000 0.000000
 28 -0.325041 -1.113431 -83.015961 0.000000 -0.000000 0.000000
time 19
  0 -5.113562 -3.392895 0.796835 0.000000 -0.000000 0.000000
  1 -7.310884 -0.101110 174.348495 0.000000 -0.000000 0.000000
  2 -5.113562 17.292006 72.596489 -0.130403 0.000000 0.000000
  3 0.325039 1.113431 -5.098999 -0.019690 0.000000 -0.000000
  4 6.206746 -0.124159 -11.733646 -0.886204 0.000000 0.000000
  5 2.376919 1.428905 -19.463915 0.959932 0.000000 -0.000000
  6 1.646508 1.612118 -34.692951 0.077659 0.000000 -0.000000
  7 0.219323 -4.030296 -4.600569 0.000000 -0.000000 0.000000
  8 -6.833119 -0.124159 -11.733646 -0.075879 0.286305 -0.339914
  9 -2.998631 1.160219 -19.583820 0.614838 -0.119878 0.148185
 10 -1.356794 1.880816 -34.573051 -0.318235 0.018242 -0.094814
 11 -0.258572 -4.030298 -4.908825 0.000000 -0.000000 0.000000
 12 0.325039 1.113428 0.809021 -0.112443 0.229371 1.114593
 13 7.054492 1.815096 15.713707 -0.206900 0.367235 -0.072349
 14 12.909769 -0.165815 -12.867264 0.000000 -0.000000 0.000000
 15 11.504261 -9.735167 -11.778580 0.239574 -0.027303 -0.717330
 16 -4.990951 -20.855862 -11.972141 0.107342 -0.124349 -0.503130
 17 1.952627 -90.186768 -0.924725 0.000000 -0.000000 0.000000
 18 -35.001934 9.597208 -70.247467 0.000000 -0.000000 0.000000
 19 3.759452 -1.898642 -3.541321 0.000000 -0.000000 0.000000
 20 -7.698014 1.934286 15.877953 -0.605260 0.143215 0.360774
 21 -12.721178 -0.083347 -12.838242 0.350879 -0.485336 0.230535
 22 -9.167515 -10.101500 -11.648903 0.579793 0.809828 1.024413
 23 -3.642097 -2.032101 -4.543640 0.000000 -0.000000 0.000000
 24 -0.409780 2.428937 22.341393 -0.048066 -0.001676 -1.169326
 25 -0.380096 -2.887197 20.845367 0.000000 -0.000000 0.000000
 26 -0.040496 -0.674471 8.862862 0.000000 -0.000000 0.000000
 27 -0.325032 -1.113429 -83.015961 0.000000 -0.000000 0.000000
 28 -0.325032 -1.113429 -83.015961 0.000000 -0.000000 0.000000
time 20
  0 -5.113562 -3.392895 0.796835 0.000000 -0.000000 0.000000
  1 -7.310884 -0.101110 174.348495 0.000000 -0.000000 0.000000
  2 -5.113562 14.561511 72.307281 -0.106278 0.000000 0.000000
  3 0.325039 1.113430 -5.098999 -0.019691 0.000000 -0.000000
  4 6.206746 -0.124160 -11.733646 -0.891639 0.000000 0.000000
  5 2.376919 1.428909 -19.463915 0.959932 -0.000000 -0.000000
  6 1.646507 1.612119 -34.692963 0.063530 0.000000 -0.000000
  7 0.219323 -4.030297 -4.600570 0.000000 -0.000000 0.000000
  8 -6.833119 -0.124160 -11.733646 -0.075879 0.286305 -0.339914
  9 -2.998631 1.160219 -19.583820 0.616833 -0.119504 0.148553
 10 -1.356796 1.880825 -34.573051 -0.318235 0.018242 -0.094814
 11 -0.258572 -4.030296 -4.908824 0.000000 -0.000000 0.000000
 12 0.325039 1.113431 0.809021 -0.100524 0.205357 1.117147
 13 7.054492 1.815097 15.713699 -0.179588 0.318758 -0.062799
 14 12.909771 -0.165815 -12.867264 0.000000 -0.000000 -0.000000
 15 11.504261 -9.735165 -11.778580 0.190054 -0.004158 -0.714787
 16 -4.990948 -20.855858 -11.972141 0.107342 -0.124349 -0.503130
 17 1.952618 -90.186752 -0.924709 0.000000 -0.000000 0.000000
 18 -35.001930 9.597206 -70.247467 0.000000 -0.000000 0.000000
 19 3.759451 -1.898643 -3.541321 0.000000 -0.000000 0.000000
 20 -7.698012 1.934286 15.877945 -0.600022 0.071010 0.361324
 21 -12.721180 -0.083347 -12.838242 0.350879 -0.485336 0.230535
 22 -9.167516 -10.101496 -11.648911 0.579793 0.809829 1.024413
 23 -3.642082 -2.032093 -4.543640 0.000000 -0.000000 0.000000
 24 -0.409780 2.428936 22.341385 -0.041721 -0.001455 -1.169334
 25 -0.380096 -2.887199 20.845375 0.000000 -0.000000 0.000000
 26 -0.040493 -0.674470 8.862846 0.000000 -0.000000 0.000000
 27 -0.325031 -1.113430 -83.015968 0.000000 -0.000000 0.000000
 28 -0.325031 -1.113430 -83.015968 0.000000 -0.000000 0.000000
time 21
  0 -5.113562 -3.392895 0.796835 0.000000 -0.000000 0.000000
  1 -7.310884 -0.101110 174.348495 0.000000 -0.000000 0.000000
  2 -5.113562 11.846326 72.030090 -0.082287 0.000000 0.000000
  3 0.325039 1.113430 -5.098999 -0.019691 0.000000 0.000000
  4 6.206746 -0.124160 -11.733643 -0.896927 0.000000 0.000000
  5 2.376919 1.428909 -19.463915 0.959932 0.000000 -0.000000
  6 1.646508 1.612118 -34.692951 0.049781 0.000000 -0.000000
  7 0.219322 -4.030297 -4.600570 0.000000 -0.000000 0.000000
  8 -6.833119 -0.124160 -11.733643 -0.075879 0.286305 -0.339914
  9 -2.998631 1.160219 -19.583824 0.618687 -0.119157 0.148895
 10 -1.356794 1.880806 -34.573040 -0.318235 0.018242 -0.094814
 11 -0.258568 -4.030296 -4.908824 0.000000 -0.000000 0.000000
 12 0.325039 1.113430 0.809013 -0.088670 0.181477 1.119686
 13 7.054491 1.815096 15.713707 -0.152430 0.270553 -0.053302
 14 12.909765 -0.165817 -12.867264 -0.000000 0.000000 -0.000000
 15 11.504263 -9.735165 -11.778584 0.141870 0.018362 -0.712312
 16 -4.990952 -20.855864 -11.972145 0.107342 -0.124349 -0.503130
 17 1.952623 -90.186760 -0.924721 0.000000 -0.000000 0.000000
 18 -35.001942 9.597210 -70.247475 0.000000 -0.000000 0.000000
 19 3.759452 -1.898642 -3.541321 0.000000 -0.000000 0.000000
 20 -7.698015 1.934286 15.877937 -0.594813 -0.000790 0.361871
 21 -12.721180 -0.083347 -12.838249 0.350879 -0.485336 0.230535
 22 -9.167513 -10.101499 -11.648911 0.579793 0.809828 1.024413
 23 -3.642090 -2.032097 -4.543640 0.000000 -0.000000 0.000000
 24 -0.409780 2.428934 22.341385 -0.035412 -0.001235 -1.169340
 25 -0.380095 -2.887194 20.845367 0.000000 -0.000000 0.000000
 26 -0.040496 -0.674471 8.862854 0.000000 -0.000000 0.000000
 27 -0.325046 -1.113432 -83.015953 0.000000 -0.000000 0.000000
 28 -0.325046 -1.113432 -83.015953 0.000000 -0.000000 0.000000
time 22
  0 -5.113562 -3.392895 0.796835 0.000000 -0.000000 0.000000
  1 -7.310884 -0.101110 174.348495 0.000000 -0.000000 0.000000
  2 -5.113562 9.198019 71.768196 -0.058888 0.000000 0.000000
  3 0.325039 1.113431 -5.098999 -0.019692 0.000000 0.000000
  4 6.206746 -0.124160 -11.733643 -0.901990 0.000000 0.000000
  5 2.376919 1.428909 -19.463915 0.959931 -0.000000 -0.000000
  6 1.646508 1.612119 -34.692959 0.036617 0.000000 -0.000000
  7 0.219322 -4.030297 -4.600571 0.000000 -0.000000 0.000000
  8 -6.833119 -0.124160 -11.733643 -0.075879 0.286304 -0.339914
  9 -2.998632 1.160219 -19.583820 0.620391 -0.118838 0.149208
 10 -1.356796 1.880819 -34.573044 -0.318235 0.018242 -0.094814
 11 -0.258572 -4.030298 -4.908824 0.000000 -0.000000 0.000000
 12 0.325039 1.113430 0.809021 -0.077109 0.158186 1.122163
 13 7.054490 1.815097 15.713699 -0.125940 0.223536 -0.044039
 14 12.909767 -0.165812 -12.867264 -0.000000 -0.000000 -0.000000
 15 11.504257 -9.735161 -11.778580 0.095733 0.039926 -0.709943
 16 -4.990953 -20.855862 -11.972137 0.107342 -0.124349 -0.503130
 17 1.952618 -90.186768 -0.924725 0.000000 -0.000000 0.000000
 18 -35.001930 9.597206 -70.247467 0.000000 -0.000000 0.000000
 19 3.759451 -1.898642 -3.541317 0.000000 -0.000000 0.000000
 20 -7.698014 1.934285 15.877945 -0.589733 -0.070821 0.362404
 21 -12.721179 -0.083340 -12.838242 0.350879 -0.485336 0.230535
 22 -9.167510 -10.101492 -11.648895 0.579793 0.809828 1.024413
 23 -3.642086 -2.032093 -4.543638 0.000000 -0.000000 0.000000
 24 -0.409781 2.428936 22.341385 -0.029258 -0.001020 -1.169347
 25 -0.380095 -2.887196 20.845375 0.000000 -0.000000 0.000000
 26 -0.040494 -0.674471 8.862854 0.000000 -0.000000 0.000000
 27 -0.325039 -1.113430 -83.015945 0.000000 -0.000000 0.000000
 28 -0.325039 -1.113430 -83.015945 0.000000 -0.000000 0.000000
time 23
  0 -5.113562 -3.392895 0.796835 0.000000 -0.000000 0.000000
  1 -7.310884 -0.101110 174.348495 0.000000 -0.000000 0.000000
  2 -5.113562 6.668149 71.524872 -0.036535 0.000000 0.000000
  3 0.325039 1.113430 -5.099007 -0.019693 0.000000 -0.000000
  4 6.206746 -0.124160 -11.733646 -0.906750 0.000000 0.000000
  5 2.376919 1.428909 -19.463913 0.959932 -0.000000 -0.000000
  6 1.646508 1.612118 -34.692955 0.024241 0.000000 -0.000000
  7 0.219322 -4.030296 -4.600570 0.000000 -0.000000 0.000000
  8 -6.833119 -0.124160 -11.733646 -0.075879 0.286305 -0.339914
  9 -2.998631 1.160221 -19.583830 0.621932 -0.118548 0.149491
 10 -1.356798 1.880821 -34.573048 -0.318235 0.018242 -0.094814
 11 -0.258572 -4.030294 -4.908824 0.000000 -0.000000 0.000000
 12 0.325039 1.113430 0.809021 -0.066065 0.135936 1.124530
 13 7.054493 1.815096 15.713699 -0.100635 0.178621 -0.035190
 14 12.909765 -0.165815 -12.867271 0.000000 0.000000 -0.000000
 15 11.504259 -9.735163 -11.778572 0.052356 0.060199 -0.707716
 16 -4.990954 -20.855867 -11.972141 0.107342 -0.124349 -0.503130
 17 1.952618 -90.186768 -0.924725 0.000000 -0.000000 0.000000
 18 -35.001926 9.597204 -70.247467 0.000000 -0.000000 0.000000
 19 3.759454 -1.898643 -3.541325 0.000000 -0.000000 0.000000
 20 -7.698014 1.934285 15.877953 -0.584880 -0.137720 0.362914
 21 -12.721185 -0.083344 -12.838249 0.350879 -0.485336 0.230535
 22 -9.167511 -10.101493 -11.648903 0.579793 0.809828 1.024413
 23 -3.642086 -2.032094 -4.543638 0.000000 -0.000000 0.000000
 24 -0.409778 2.428935 22.341385 -0.023379 -0.000815 -1.169353
 25 -0.380096 -2.887196 20.845367 0.000000 -0.000000 0.000000
 26 -0.040493 -0.674471 8.862846 0.000000 -0.000000 0.000000
 27 -0.325043 -1.113432 -83.015945 0.000000 -0.000000 0.000000
 28 -0.325043 -1.113432 -83.015945 0.000000 -0.000000 0.000000
time 24
  0 -5.113562 -3.392895 0.796835 0.000000 -0.000000 0.000000
  1 -7.310884 -0.101110 174.348495 0.000000 -0.000000 0.000000
  2 -5.113562 4.308294 71.303375 -0.015684 0.000000 0.000000
  3 0.325039 1.113430 -5.098999 -0.019694 0.000000 0.000000
  4 6.206746 -0.124160 -11.733643 -0.911130 0.000000 0.000000
  5 2.376919 1.428905 -19.463917 0.959932 0.000000 -0.000000
  6 1.646508 1.612118 -34.692959 0.012855 0.000000 -0.000000
  7 0.219322 -4.030297 -4.600571 0.000000 -0.000000 0.000000
  8 -6.833119 -0.124160 -11.733643 -0.075879 0.286305 -0.339914
  9 -2.998632 1.160219 -19.583822 0.623302 -0.118291 0.149742
 10 -1.356792 1.880819 -34.573048 -0.318235 0.018242 -0.094814
 11 -0.258575 -4.030298 -4.908824 0.000000 -0.000000 0.000000
 12 0.325039 1.113430 0.809013 -0.055764 0.115182 1.126737
 13 7.054490 1.815096 15.713699 -0.077031 0.136725 -0.026936
 14 12.909774 -0.165812 -12.867271 -0.000000 -0.000000 0.000000
 15 11.504255 -9.735163 -11.778580 0.012452 0.078849 -0.705666
 16 -4.990948 -20.855865 -11.972141 0.107342 -0.124349 -0.503130
 17 1.952648 -90.186775 -0.924721 0.000000 -0.000000 0.000000
 18 -35.001938 9.597221 -70.247467 0.000000 -0.000000 0.000000
 19 3.759451 -1.898643 -3.541321 0.000000 -0.000000 0.000000
 20 -7.698014 1.934286 15.877945 -0.580353 -0.200124 0.363389
 21 -12.721182 -0.083355 -12.838249 0.350879 -0.485336 0.230535
 22 -9.167516 -10.101496 -11.648911 0.579793 0.809828 1.024413
 23 -3.642082 -2.032095 -4.543640 0.000000 -0.000000 0.000000
 24 -0.409780 2.428936 22.341385 -0.017896 -0.000624 -1.169358
 25 -0.380095 -2.887196 20.845375 0.000000 -0.000000 0.000000
 26 -0.040495 -0.674471 8.862854 0.000000 -0.000000 0.000000
 27 -0.325041 -1.113430 -83.015953 0.000000 -0.000000 0.000000
 28 -0.325041 -1.113430 -83.015953 0.000000 -0.000000 0.000000
time 25
  0 -5.113562 -3.392895 0.796835 0.000000 -0.000000 0.000000
  1 -7.310884 -0.101110 174.348495 0.000000 -0.000000 0.000000
  2 -5.113562 2.170015 71.106987 0.003209 -0.000000 0.000000
  3 0.325039 1.113430 -5.098991 -0.019695 0.000000 0.000000
  4 6.206746 -0.124160 -11.733643 -0.915050 0.000000 0.000000
  5 2.376919 1.428909 -19.463913 0.959931 -0.000000 -0.000000
  6 1.646508 1.612118 -34.692955 0.002663 0.000000 -0.000000
  7 0.219322 -4.030296 -4.600570 0.000000 -0.000000 0.000000
  8 -6.833119 -0.124160 -11.733643 -0.075879 0.286305 -0.339914
  9 -2.998631 1.160220 -19.583820 0.624490 -0.118067 0.149959
 10 -1.356794 1.880816 -34.573044 -0.318235 0.018242 -0.094814
 11 -0.258572 -4.030294 -4.908823 0.000000 -0.000000 0.000000
 12 0.325039 1.113430 0.809021 -0.046429 0.096376 1.128737
 13 7.054491 1.815098 15.713699 -0.055643 0.098763 -0.019457
 14 12.909768 -0.165814 -12.867264 -0.000000 0.000000 0.000000
 15 11.504258 -9.735165 -11.778587 -0.023267 0.095544 -0.703832
 16 -4.990949 -20.855865 -11.972137 0.107342 -0.124349 -0.503130
 17 1.952635 -90.186783 -0.924725 0.000000 -0.000000 0.000000
 18 -35.001938 9.597208 -70.247475 0.000000 -0.000000 0.000000
 19 3.759452 -1.898642 -3.541317 0.000000 -0.000000 0.000000
 20 -7.698015 1.934285 15.877945 -0.576251 -0.256668 0.363820
 21 -12.721181 -0.083351 -12.838249 0.350879 -0.485336 0.230535
 22 -9.167516 -10.101496 -11.648903 0.579793 0.809828 1.024413
 23 -3.642082 -2.032095 -4.543640 0.000000 -0.000000 0.000000
 24 -0.409780 2.428936 22.341385 -0.012927 -0.000450 -1.169362
 25 -0.380095 -2.887195 20.845367 0.000000 -0.000000 0.000000
 26 -0.040494 -0.674471 8.862854 0.000000 -0.000000 0.000000
 27 -0.325039 -1.113432 -83.015961 0.000000 -0.000000 0.000000
 28 -0.325039 -1.113432 -83.015961 0.000000 -0.000000 0.000000
time 26
  0 -5.113562 -3.392895 0.796835 0.000000 -0.000000 0.000000
  1 -7.310884 -0.101110 174.348495 0.000000 -0.000000 0.000000
  2 -5.113562 0.304877 70.938972 0.019688 -0.000000 0.000000
  3 0.325039 1.113430 -5.098991 -0.019696 0.000000 0.000000
  4 6.206746 -0.124160 -11.733650 -0.918432 0.000000 0.000000
  5 2.376919 1.428909 -19.463915 0.959931 -0.000000 -0.000000
  6 1.646507 1.612119 -34.692955 -0.006131 0.000000 -0.000000
  7 0.219322 -4.030296 -4.600570 0.000000 -0.000000 0.000000
  8 -6.833119 -0.124160 -11.733650 -0.075879 0.286305 -0.339914
  9 -2.998629 1.160222 -19.583828 0.625485 -0.117880 0.150140
 10 -1.356794 1.880812 -34.573055 -0.318235 0.018242 -0.094814
 11 -0.258572 -4.030299 -4.908828 0.000000 -0.000000 0.000000
 12 0.325039 1.113430 0.809021 -0.038287 0.079972 1.130481
 13 7.054490 1.815097 15.713707 -0.036987 0.065649 -0.012934
 14 12.909769 -0.165814 -12.867264 -0.000000 -0.000000 0.000000
 15 11.504261 -9.735165 -11.778580 -0.054089 0.109950 -0.702249
 16 -4.990952 -20.855865 -11.972137 0.107342 -0.124349 -0.503130
 17 1.952618 -90.186768 -0.924713 0.000000 -0.000000 0.000000
 18 -35.001930 9.597212 -70.247467 0.000000 -0.000000 0.000000
 19 3.759451 -1.898641 -3.541317 0.000000 -0.000000 0.000000
 20 -7.698016 1.934286 15.877945 -0.572673 -0.305989 0.364195
 21 -12.721181 -0.083347 -12.838242 0.350879 -0.485336 0.230535
 22 -9.167515 -10.101494 -11.648903 0.579793 0.809828 1.024413
 23 -3.642086 -2.032097 -4.543640 0.000000 -0.000000 0.000000
 24 -0.409781 2.428936 22.341385 -0.008593 -0.000299 -1.169366
 25 -0.380095 -2.887195 20.845367 0.000000 -0.000000 0.000000
 26 -0.040495 -0.674471 8.862862 0.000000 -0.000000 0.000000
 27 -0.325039 -1.113431 -83.015968 0.000000 -0.000000 0.000000
 28 -0.325039 -1.113431 -83.015968 0.000000 -0.000000 0.000000
time 27
  0 -5.113562 -3.392895 0.796835 0.000000 -0.000000 0.000000
  1 -7.310884 -0.101110 174.348495 0.000000 -0.000000 0.000000
  2 -5.113562 -1.235545 70.802605 0.033299 -0.000000 0.000000
  3 0.325039 1.113430 -5.099007 -0.019698 0.000000 -0.000000
  4 6.206746 -0.124160 -11.733646 -0.921199 0.000000 0.000000
  5 2.376919 1.428909 -19.463917 0.959932 -0.000000 -0.000000
  6 1.646507 1.612119 -34.692955 -0.013325 0.000000 -0.000000
  7 0.219322 -4.030296 -4.600569 0.000000 -0.000000 0.000000
  8 -6.833119 -0.124160 -11.733643 -0.075879 0.286305 -0.339914
  9 -2.998629 1.160221 -19.583824 0.626276 -0.117731 0.150284
 10 -1.356794 1.880819 -34.573051 -0.318235 0.018242 -0.094814
 11 -0.258572 -4.030297 -4.908824 0.000000 -0.000000 0.000000
 12 0.325039 1.113430 0.809006 -0.031562 0.066425 1.131922
 13 7.054492 1.815096 15.713699 -0.021579 0.038301 -0.007546
 14 12.909767 -0.165811 -12.867271 -0.000000 -0.000000 -0.000000
 15 11.504260 -9.735159 -11.778576 -0.079302 0.121734 -0.700954
 16 -4.990949 -20.855865 -11.972141 0.107342 -0.124349 -0.503130
 17 1.952648 -90.186775 -0.924717 0.000000 -0.000000 0.000000
 18 -35.001930 9.597221 -70.247459 0.000000 -0.000000 0.000000
 19 3.759451 -1.898642 -3.541321 0.000000 -0.000000 0.000000
 20 -7.698013 1.934285 15.877945 -0.569718 -0.346724 0.364506
 21 -12.721182 -0.083347 -12.838257 0.350879 -0.485336 0.230535
 22 -9.167513 -10.101492 -11.648895 0.579793 0.809828 1.024413
 23 -3.642082 -2.032094 -4.543636 0.000000 -0.000000 0.000000
 24 -0.409779 2.428936 22.341385 -0.005013 -0.000174 -1.169369
 25 -0.380095 -2.887196 20.845367 0.000000 -0.000000 0.000000
 26 -0.040494 -0.674471 8.862854 0.000000 -0.000000 0.000000
 27 -0.325039 -1.113430 -83.015961 0.000000 -0.000000 0.000000
 28 -0.325039 -1.113430 -83.015961 0.000000 -0.000000 0.000000
time 28
  0 -5.113562 -3.392895 0.796835 0.000000 -0.000000 0.000000
  1 -7.310884 -0.101110 174.348495 0.000000 -0.000000 0.000000
  2 -5.113562 -2.399696 70.701149 0.043585 -0.000000 0.000000
  3 0.325039 1.113430 -5.098999 -0.019700 0.000000 0.000000
  4 6.206746 -0.124160 -11.733650 -0.923272 0.000000 0.000000
  5 2.376919 1.428909 -19.463915 0.959931 0.000000 -0.000000
  6 1.646507 1.612118 -34.692959 -0.018715 0.000000 -0.000000
  7 0.219322 -4.030297 -4.600570 0.000000 -0.000000 0.000000
  8 -6.833119 -0.124160 -11.733650 -0.075879 0.286305 -0.339914
  9 -2.998631 1.160220 -19.583824 0.626855 -0.117622 0.150390
 10 -1.356796 1.880810 -34.573048 -0.318235 0.018242 -0.094814
 11 -0.258570 -4.030296 -4.908826 0.000000 -0.000000 0.000000
 12 0.325039 1.113430 0.809021 -0.026480 0.056186 1.133011
 13 7.054491 1.815095 15.713699 -0.009934 0.017633 -0.003474
 14 12.909767 -0.165815 -12.867264 0.000000 -0.000000 -0.000000
 15 11.504264 -9.735164 -11.778587 -0.098192 0.130563 -0.699984
 16 -4.990946 -20.855862 -11.972137 0.107342 -0.124349 -0.503130
 17 1.952627 -90.186752 -0.924713 0.000000 -0.000000 0.000000
 18 -35.001938 9.597217 -70.247475 0.000000 -0.000000 0.000000
 19 3.759453 -1.898638 -3.541321 0.000000 -0.000000 0.000000
 20 -7.698013 1.934286 15.877945 -0.567485 -0.377508 0.364740
 21 -12.721180 -0.083347 -12.838253 0.350879 -0.485336 0.230535
 22 -9.167511 -10.101494 -11.648899 0.579793 0.809829 1.024413
 23 -3.642082 -2.032095 -4.543640 0.000000 -0.000000 0.000000
 24 -0.409780 2.428935 22.341393 -0.002308 -0.000080 -1.169371
 25 -0.380096 -2.887195 20.845375 0.000000 -0.000000 0.000000
 26 -0.040494 -0.674471 8.862854 0.000000 -0.000000 0.000000
 27 -0.325039 -1.113430 -83.015953 0.000000 -0.000000 0.000000
 28 -0.325039 -1.113430 -83.015953 0.000000 -0.000000 0.000000
time 29
  0 -5.113562 -3.392895 0.796835 0.000000 -0.000000 0.000000
  1 -7.310884 -0.101110 174.348495 0.000000 -0.000000 0.000000
  2 -5.113562 -3.135999 70.637878 0.050090 -0.000000 0.000000
  3 0.325039 1.113430 -5.099007 -0.019702 0.000000 -0.000000
  4 6.206746 -0.124160 -11.733650 -0.924573 0.000000 0.000000
  5 2.376919 1.428909 -19.463917 0.959931 -0.000000 -0.000000
  6 1.646507 1.612119 -34.692955 -0.022098 0.000000 -0.000000
  7 0.219323 -4.030297 -4.600571 0.000000 -0.000000 0.000000
  8 -6.833119 -0.124160 -11.733650 -0.075879 0.286304 -0.339914
  9 -2.998632 1.160220 -19.583820 0.627209 -0.117555 0.150454
 10 -1.356791 1.880817 -34.573044 -0.318235 0.018242 -0.094814
 11 -0.258572 -4.030296 -4.908824 0.000000 -0.000000 0.000000
 12 0.325039 1.113430 0.809006 -0.023266 0.049710 1.133700
 13 7.054492 1.815095 15.713699 -0.002570 0.004561 -0.000899
 14 12.909766 -0.165815 -12.867264 -0.000000 -0.000000 0.000000
 15 11.504260 -9.735165 -11.778584 -0.110049 0.136105 -0.699376
 16 -4.990951 -20.855865 -11.972141 0.107342 -0.124349 -0.503130
 17 1.952623 -90.186775 -0.924713 0.000000 -0.000000 0.000000
 18 -35.001942 9.597214 -70.247475 0.000000 -0.000000 0.000000
 19 3.759453 -1.898642 -3.541325 0.000000 -0.000000 0.000000
 20 -7.698015 1.934286 15.877937 -0.566073 -0.396979 0.364889
 21 -12.721180 -0.083347 -12.838245 0.350879 -0.485336 0.230535
 22 -9.167511 -10.101494 -11.648903 0.579793 0.809828 1.024413
 23 -3.642082 -2.032094 -4.543640 0.000000 -0.000000 0.000000
 24 -0.409780 2.428935 22.341385 -0.000597 -0.000020 -1.169373
 25 -0.380096 -2.887196 20.845367 0.000000 -0.000000 0.000000
 26 -0.040494 -0.674471 8.862854 0.000000 -0.000000 0.000000
 27 -0.325038 -1.113430 -83.015953 0.000000 -0.000000 0.000000
 28 -0.325038 -1.113430 -83.015953 0.000000 -0.000000 0.000000
time 30
  0 -5.113562 -3.392895 0.796835 0.000000 -0.000000 0.000000
  1 -7.310884 -0.101110 174.348495 0.000000 -0.000000 0.000000
  2 -5.113562 -3.392895 70.616058 0.052360 -0.000000 0.000000
  3 0.325039 1.113430 -5.098999 -0.019704 0.000000 0.000000
  4 6.206746 -0.124160 -11.733643 -0.925025 0.000000 0.000000
  5 2.376919 1.428909 -19.463913 0.959931 -0.000000 -0.000000
  6 1.646507 1.612119 -34.692951 -0.023271 0.000000 -0.000000
  7 0.219322 -4.030296 -4.600570 0.000000 -0.000000 0.000000
  8 -6.833119 -0.124160 -11.733643 -0.075879 0.286305 -0.339914
  9 -2.998631 1.160219 -19.583826 0.627330 -0.117532 0.150476
 10 -1.356792 1.880814 -34.573048 -0.318235 0.018242 -0.094814
 11 -0.258570 -4.030296 -4.908825 0.000000 -0.000000 0.000000
 12 0.325039 1.113430 0.809013 -0.022144 0.047451 1.133940
 13 7.054492 1.815097 15.713707 -0.000000 -0.000000 0.000000
 14 12.909768 -0.165813 -12.867264 0.000000 -0.000000 0.000000
 15 11.504260 -9.735163 -11.778584 -0.114160 0.138026 -0.699164
 16 -4.990952 -20.855860 -11.972141 0.107342 -0.124349 -0.503130
 17 1.952623 -90.186775 -0.924709 0.000000 -0.000000 0.000000
 18 -35.001930 9.597215 -70.247475 0.000000 -0.000000 0.000000
 19 3.759453 -1.898640 -3.541321 0.000000 -0.000000 0.000000
 20 -7.698014 1.934286 15.877953 -0.565580 -0.403772 0.364940
 21 -12.721179 -0.083351 -12.838245 0.350879 -0.485336 0.230535
 22 -9.167519 -10.101494 -11.648899 0.579793 0.809828 1.024413
 23 -3.642082 -2.032091 -4.543640 0.000000 -0.000000 0.000000
 24 -0.409780 2.428935 22.341393 0.000000 0.000000 -1.169373
 25 -0.380095 -2.887196 20.845375 0.000000 -0.000000 0.000000
 26 -0.040494 -0.674471 8.862854 0.000000 -0.000000 0.000000
 27 -0.325039 -1.113430 -83.015961 0.000000 -0.000000 0.000000
 28 -0.325039 -1.113430 -83.015961 0.000000 -0.000000 0.000000
end
