version 1
nodes
  0 "bone24"  -1
  1 "bone25"  -1
  2 "bone35"  -1
  3 "bone21"   2
  4 "bone20"   3
  5 "bone16"   4
  6 "bone17"   5
  7 "bone19"   6
  8 "bone26"   7
  9 "bone05"   4
 10 "bone22"   9
 11 "bone18"  10
 12 "bone27"  11
 13 "bone14"   4
 14 "bone12"  13
 15 "bone15"  14
 16 "bone02"   3
 17 "bone03"  16
 18 "bone09"  17
 19 "bone28"  17
 20 "bone01"  16
 21 "bone08"  20
 22 "bone11"  21
 23 "bone10"  22
 24 "bone29"  22
 25 "bone07"  16
 26 "bone04"  25
 27 "bone06"  26
 28 "bone13"  27
 29 "bone30"  28
 30 "bone31"  27
 31 "bone32"  16
 32 "bone33"   2
 33 "bone34"   2
end
skeleton
time 0
  0 -1.005915 2.634505 0.937462 0.000000 -0.000000 0.000000
  1 -1.005915 2.634505 0.937462 0.000000 -0.000000 0.000000
  2 -1.005915 2.634505 0.937462 0.000000 -0.000000 0.000000
  3 0.000000 0.798765 74.257698 0.017453 -0.000000 0.000000
  4 0.325039 0.314665 -2.968964 -0.052360 0.000000 0.000000
  5 6.206746 -0.124160 -11.733646 -0.378549 -0.142079 0.083197
  6 2.955697 1.729822 -23.848042 1.047196 0.000000 -0.000000
  7 0.292416 0.418314 -30.938551 -0.366519 -0.000000 0.000000
  8 0.025497 -3.137413 -3.970852 0.000000 -0.000000 0.000000
  9 -6.833119 -0.124160 -11.733646 -0.179494 0.109658 -0.206924
 10 -3.240683 1.520659 -23.848034 0.767945 -0.000000 0.000000
 11 -0.355307 0.627481 -30.760899 -0.296706 -0.000000 0.000000
 12 0.209673 -3.137412 -4.537350 0.000000 -0.000000 0.000000
 13 -0.336471 18.320860 -10.789921 0.154976 0.011937 -0.348870
 14 0.011431 14.669048 -0.377853 -0.296707 -0.000000 0.000000
 15 0.210524 25.621658 6.087181 0.349066 0.000000 0.000000
 16 0.325039 0.314665 5.117516 -0.069765 -0.052328 -0.001829
 17 -0.409779 2.182659 26.434914 -0.024659 -0.032649 0.179025
 18 -2.968819 36.066547 32.693199 0.240593 0.003610 -0.042174
 19 -0.380095 -2.640920 16.751846 0.000000 -0.000000 0.000000
 20 7.187247 -0.460706 16.472298 0.001021 -0.138856 -0.014689
 21 12.896101 3.303357 -12.884903 -0.157080 0.000000 0.000000
 22 9.818138 -2.393089 -11.768448 -0.280533 0.016352 -0.156232
 23 11.684986 2.308937 -7.513325 -0.000000 -0.000000 0.000000
 24 3.667336 0.402565 -5.537422 0.000000 -0.000000 0.000000
 25 -8.155170 -0.644957 16.761322 0.000143 -0.052073 -0.005478
 26 -12.364455 3.544241 -13.402794 0.084819 0.476689 0.009933
 27 -10.403896 -2.206009 -11.274460 -0.086427 0.127825 0.193462
 28 -3.567749 0.641575 -8.254753 0.014458 -0.004616 0.008585
 29 -16.088997 -105.559082 -25.635818 0.000000 -0.000000 0.000000
 30 -3.127525 0.571329 -6.062378 0.000000 -0.000000 0.000000
 31 -0.040495 -0.674471 8.862862 0.000000 -0.000000 0.000000
 32 0.289211 3.291785 167.749756 0.000000 -0.000000 0.000000
 33 0.000000 0.000000 0.000000 0.000000 -0.000000 0.000000
time 1
  0 -1.005915 2.634505 0.937462 0.000000 -0.000000 0.000000
  1 -1.005915 2.634505 0.937462 0.000000 -0.000000 0.000000
  2 -1.005915 2.634505 0.937462 0.000000 -0.000000 0.000000
  3 0.000000 0.782031 74.257698 0.017453 -0.000000 0.000000
  4 0.325039 0.314665 -2.968971 -0.052360 0.000000 0.000000
  5 6.206746 -0.124160 -11.733650 -0.377224 -0.143590 0.083002
  6 2.955698 1.729824 -23.848043 1.047196 0.000000 0.000000
  7 0.292414 0.418316 -30.938557 -0.366519 0.000000 0.000000
  8 0.025497 -3.137413 -3.970851 0.000000 -0.000000 0.000000
  9 -6.833119 -0.124160 -11.733650 -0.187189 0.109493 -0.207889
 10 -3.240683 1.520661 -23.848038 0.767945 0.000000 0.000000
 11 -0.355307 0.627481 -30.760899 -0.296706 -0.000000 0.000000
 12 0.209673 -3.137412 -4.537349 0.000000 -0.000000 0.000000
 13 -0.336471 18.320858 -10.789925 0.155007 0.011659 -0.340773
 14 0.011433 14.669043 -0.377857 -0.294946 -0.014007 -0.115339
 15 0.210528 25.621655 6.087196 0.346584 0.011332 -0.066420
 16 0.325039 0.314315 5.097435 -0.069764 -0.051982 -0.003806
 17 -0.409779 2.182659 26.434906 -0.024629 -0.031585 0.188350
 18 -2.963922 36.076668 32.600235 0.240593 0.003610 -0.042174
 19 -0.380096 -2.640920 16.751846 0.000000 -0.000000 0.000000
 20 7.187248 -0.460706 16.472282 0.001201 -0.140385 -0.013036
 21 12.896097 3.303357 -12.884911 -0.165369 0.000099 -0.000540
 22 9.818138 -2.393089 -11.768448 -0.280533 0.016352 -0.156232
 23 11.684986 2.308933 -7.513313 0.000000 -0.000000 0.000000
 24 3.667332 0.402561 -5.537411 0.000000 -0.000000 0.000000
 25 -8.155170 -0.644957 16.761314 0.000190 -0.053503 -0.003725
 26 -12.364454 3.544242 -13.402779 0.088239 0.476430 0.015628
 27 -10.403893 -2.206010 -11.274460 -0.086427 0.127824 0.193462
 28 -3.567749 0.641573 -8.254753 0.014458 -0.004616 0.008585
 29 -16.088997 -105.559067 -25.635822 0.000000 -0.000000 0.000000
 30 -3.127518 0.571329 -6.062378 0.000000 -0.000000 0.000000
 31 -0.040494 -0.674471 8.862846 0.000000 -0.000000 0.000000
 32 0.289211 3.291785 167.749756 0.000000 -0.000000 0.000000
 33 0.000000 0.000000 0.000000 0.000000 -0.000000 0.000000
time 2
  0 -1.005915 2.634505 0.937462 0.000000 -0.000000 0.000000
  1 -1.005915 2.634505 0.937462 0.000000 -0.000000 0.000000
  2 -1.005915 2.634505 0.937462 0.000000 -0.000000 0.000000
  3 0.000000 0.734616 74.257698 0.017453 -0.000000 0.000000
  4 0.325039 0.314665 -2.968964 -0.052360 0.000000 0.000000
  5 6.206746 -0.124160 -11.733650 -0.373445 -0.144962 0.082445
  6 2.955698 1.729818 -23.848040 1.047196 0.000000 -0.000000
  7 0.292414 0.418320 -30.938549 -0.366519 0.000000 0.000000
  8 0.025497 -3.137414 -3.970852 0.000000 -0.000000 0.000000
  9 -6.833119 -0.124160 -11.733650 -0.194196 0.109031 -0.208733
 10 -3.240683 1.520660 -23.848042 0.767945 0.000000 0.000000
 11 -0.355305 0.627481 -30.760899 -0.296706 -0.000000 0.000000
 12 0.209673 -3.137414 -4.537351 0.000000 -0.000000 0.000000
 13 -0.336471 18.320862 -10.789925 0.155035 0.010877 -0.317933
 14 0.011432 14.669044 -0.377853 -0.292848 -0.030415 -0.250450
 15 0.210532 25.621651 6.087189 0.341105 0.036346 -0.213036
 16 0.325039 0.313321 5.040459 -0.069759 -0.051001 -0.008822
 17 -0.409780 2.182660 26.434906 -0.024545 -0.028573 0.197799
 18 -2.950145 36.099262 32.338654 0.240593 0.003610 -0.042174
 19 -0.380095 -2.640921 16.751846 0.000000 -0.000000 0.000000
 20 7.187248 -0.460705 16.472290 0.001413 -0.141783 -0.008308
 21 12.896103 3.303357 -12.884903 -0.173897 0.000384 -0.002088
 22 9.818134 -2.393090 -11.768456 -0.280533 0.016352 -0.156232
 23 11.684978 2.308937 -7.513321 -0.000000 -0.000000 0.000000
 24 3.667328 0.402563 -5.537415 0.000000 -0.000000 0.000000
 25 -8.155170 -0.644957 16.761322 0.000278 -0.054761 0.001231
 26 -12.364456 3.544240 -13.402786 0.091294 0.475703 0.028492
 27 -10.403900 -2.206008 -11.274456 -0.086427 0.127825 0.193462
 28 -3.567749 0.641573 -8.254757 0.014458 -0.004616 0.008585
 29 -16.088989 -105.559082 -25.635820 0.000000 -0.000000 0.000000
 30 -3.127518 0.571328 -6.062382 0.000000 -0.000000 0.000000
 31 -0.040495 -0.674470 8.862846 0.000000 -0.000000 0.000000
 32 0.289211 3.291785 167.749756 0.000000 -0.000000 0.000000
 33 0.000000 0.000000 0.000000 0.000000 -0.000000 0.000000
time 3
  0 -1.005915 2.634505 0.937462 0.000000 -0.000000 0.000000
  1 -1.005915 2.634505 0.937462 0.000000 -0.000000 0.000000
  2 -1.005915 2.634505 0.937462 0.000000 -0.000000 0.000000
  3 0.000000 0.660698 74.257698 0.017453 -0.000000 0.000000
  4 0.325039 0.314665 -2.968964 -0.052360 0.000000 0.000000
  5 6.206746 -0.124160 -11.733650 -0.367509 -0.146201 0.081569
  6 2.955698 1.729822 -23.848038 1.047196 0.000000 -0.000000
  7 0.292414 0.418318 -30.938555 -0.366519 -0.000000 0.000000
  8 0.025497 -3.137414 -3.970852 0.000000 -0.000000 0.000000
  9 -6.833119 -0.124160 -11.733650 -0.200535 0.108323 -0.209463
 10 -3.240683 1.520661 -23.848042 0.767945 0.000000 0.000000
 11 -0.355307 0.627480 -30.760899 -0.296706 0.000000 0.000000
 12 0.209675 -3.137413 -4.537350 0.000000 -0.000000 0.000000
 13 -0.336471 18.320858 -10.789925 0.155060 0.009665 -0.282530
 14 0.011433 14.669044 -0.377853 -0.292728 -0.030139 -0.248171
 15 0.210530 25.621658 6.087181 0.335580 0.061571 -0.360887
 16 0.325039 0.311766 4.951416 -0.069752 -0.049474 -0.016448
 17 -0.409780 2.182660 26.434906 -0.024414 -0.023886 0.207275
 18 -2.928855 36.132362 31.934380 0.240593 0.003610 -0.042174
 19 -0.380095 -2.640920 16.751846 0.000000 -0.000000 0.000000
 20 7.187247 -0.460706 16.472290 0.001654 -0.143058 -0.000846
 21 12.896095 3.303357 -12.884895 -0.182598 0.000834 -0.004541
 22 9.818130 -2.393089 -11.768448 -0.280533 0.016352 -0.156232
 23 11.684978 2.308931 -7.513329 -0.000000 -0.000000 0.000000
 24 3.667336 0.402561 -5.537418 0.000000 -0.000000 0.000000
 25 -8.155169 -0.644957 16.761322 0.000400 -0.055858 0.008932
 26 -12.364455 3.544241 -13.402779 0.094000 0.474584 0.047350
 27 -10.403896 -2.206010 -11.274460 -0.086427 0.127825 0.193462
 28 -3.567749 0.641573 -8.254753 0.014458 -0.004616 0.008585
 29 -16.089012 -105.559097 -25.635818 0.000000 -0.000000 0.000000
 30 -3.127525 0.571329 -6.062374 0.000000 -0.000000 0.000000
 31 -0.040494 -0.674471 8.862854 0.000000 -0.000000 0.000000
 32 0.289211 3.291785 167.749756 0.000000 -0.000000 0.000000
 33 0.000000 0.000000 0.000000 0.000000 -0.000000 0.000000
time 4
  0 -1.005915 2.634505 0.937462 0.000000 -0.000000 0.000000
  1 -1.005915 2.634505 0.937462 0.000000 -0.000000 0.000000
  2 -1.005915 2.634505 0.937462 0.000000 -0.000000 0.000000
  3 0.000000 0.564453 74.257698 0.017453 -0.000000 0.000000
  4 0.325039 0.314665 -2.968964 -0.052360 0.000000 0.000000
  5 6.206746 -0.124160 -11.733646 -0.359711 -0.147315 0.080419
  6 2.955697 1.729822 -23.848042 1.047196 0.000000 -0.000000
  7 0.292416 0.418320 -30.938555 -0.366519 -0.000000 0.000000
  8 0.025497 -3.137412 -3.970852 0.000000 -0.000000 0.000000
  9 -6.833119 -0.124160 -11.733646 -0.206221 0.107419 -0.210089
 10 -3.240683 1.520661 -23.848038 0.767945 -0.000000 0.000000
 11 -0.355309 0.627481 -30.760899 -0.296706 -0.000000 0.000000
 12 0.209673 -3.137414 -4.537350 0.000000 -0.000000 0.000000
 13 -0.336471 18.320862 -10.789921 0.155082 0.008096 -0.236742
 14 0.011434 14.669046 -0.377853 -0.292648 -0.028165 -0.231899
 15 0.210529 25.621655 6.087181 0.332960 0.073534 -0.431008
 16 0.325039 0.309736 4.835129 -0.069743 -0.047490 -0.026260
 17 -0.409779 2.182660 26.434906 -0.024243 -0.017794 0.216682
 18 -2.901422 36.174034 31.413376 0.240593 0.003610 -0.042174
 19 -0.380095 -2.640920 16.751854 0.000000 -0.000000 0.000000
 20 7.187249 -0.460705 16.472290 0.001918 -0.144214 0.009004
 21 12.896101 3.303357 -12.884903 -0.191406 0.001431 -0.007792
 22 9.818138 -2.393091 -11.768456 -0.280533 0.016352 -0.156232
 23 11.684982 2.308937 -7.513325 -0.000000 -0.000000 0.000000
 24 3.667336 0.402565 -5.537411 0.000000 -0.000000 0.000000
 25 -8.155172 -0.644957 16.761322 0.000549 -0.056804 0.018923
 26 -12.364454 3.544242 -13.402786 0.096377 0.473148 0.071027
 27 -10.403900 -2.206009 -11.274456 -0.086427 0.127825 0.193462
 28 -3.567745 0.641576 -8.254753 0.014458 -0.004616 0.008585
 29 -16.088989 -105.559067 -25.635817 0.000000 -0.000000 0.000000
 30 -3.127522 0.571331 -6.062378 0.000000 -0.000000 0.000000
 31 -0.040495 -0.674471 8.862854 0.000000 -0.000000 0.000000
 32 0.289211 3.291785 167.749756 0.000000 -0.000000 0.000000
 33 0.000000 0.000000 0.000000 0.000000 -0.000000 0.000000
time 5
  0 -1.005915 2.634505 0.937462 0.000000 -0.000000 0.000000
  1 -1.005915 2.634505 0.937462 0.000000 -0.000000 0.000000
  2 -1.005915 2.634505 0.937462 0.000000 -0.000000 0.000000
  3 0.000000 0.450061 74.257698 0.017453 -0.000000 0.000000
  4 0.325039 0.314665 -2.968964 -0.052360 0.000000 0.000000
  5 6.206746 -0.124160 -11.733646 -0.350346 -0.148309 0.079038
  6 2.955696 1.729824 -23.848042 1.047196 -0.000000 -0.000000
  7 0.292416 0.418314 -30.938551 -0.366519 -0.000000 0.000000
  8 0.025497 -3.137412 -3.970852 0.000000 -0.000000 0.000000
  9 -6.833119 -0.124160 -11.733646 -0.211272 0.106371 -0.210616
 10 -3.240686 1.520659 -23.848042 0.767945 0.000000 0.000000
 11 -0.355307 0.627481 -30.760902 -0.296706 -0.000000 0.000000
 12 0.209675 -3.137413 -4.537350 0.000000 -0.000000 0.000000
 13 -0.336471 18.320858 -10.789921 0.155102 0.006247 -0.182749
 14 0.011432 14.669048 -0.377853 -0.292571 -0.024990 -0.205723
 15 0.210526 25.621655 6.087189 0.333034 0.072087 -0.422593
 16 0.325039 0.307316 4.696465 -0.069732 -0.045137 -0.037831
 17 -0.409779 2.182660 26.434914 -0.024040 -0.010569 0.225925
 18 -2.869197 36.222313 30.801552 0.240593 0.003610 -0.042174
 19 -0.380095 -2.640920 16.751846 0.000000 -0.000000 0.000000
 20 7.187248 -0.460706 16.472305 0.002201 -0.145257 0.020900
 21 12.896105 3.303357 -12.884903 -0.200258 0.002155 -0.011736
 22 9.818138 -2.393088 -11.768456 -0.280533 0.016352 -0.156232
 23 11.684982 2.308935 -7.513317 0.000000 -0.000000 0.000000
 24 3.667339 0.402563 -5.537411 0.000000 -0.000000 0.000000
 25 -8.155170 -0.644956 16.761330 0.000721 -0.057611 0.030746
 26 -12.364454 3.544241 -13.402779 0.098443 0.471470 0.098348
 27 -10.403900 -2.206010 -11.274452 -0.086427 0.127825 0.193462
 28 -3.567745 0.641575 -8.254749 0.014458 -0.004616 0.008585
 29 -16.089020 -105.559090 -25.635820 0.000000 -0.000000 0.000000
 30 -3.127522 0.571330 -6.062378 0.000000 -0.000000 0.000000
 31 -0.040494 -0.674471 8.862862 0.000000 -0.000000 0.000000
 32 0.289211 3.291785 167.749756 0.000000 -0.000000 0.000000
 33 0.000000 0.000000 0.000000 0.000000 -0.000000 0.000000
time 6
  0 -1.005915 2.634505 0.937462 0.000000 -0.000000 0.000000
  1 -1.005915 2.634505 0.937462 0.000000 -0.000000 0.000000
  2 -1.005915 2.634505 0.937462 0.000000 -0.000000 0.000000
  3 0.000000 0.321699 74.257698 0.017453 -0.000000 0.000000
  4 0.325039 0.314665 -2.968971 -0.052360 0.000000 0.000000
  5 6.206746 -0.124160 -11.733650 -0.339711 -0.149191 0.077470
  6 2.955698 1.729822 -23.848040 1.047196 0.000000 0.000000
  7 0.292414 0.418320 -30.938551 -0.366519 0.000000 0.000000
  8 0.025497 -3.137414 -3.970852 0.000000 -0.000000 0.000000
  9 -6.833119 -0.124160 -11.733650 -0.215705 0.105228 -0.211055
 10 -3.240684 1.520660 -23.848042 0.767945 -0.000000 0.000000
 11 -0.355307 0.627478 -30.760900 -0.296706 -0.000000 0.000000
 12 0.209673 -3.137412 -4.537350 0.000000 -0.000000 0.000000
 13 -0.336471 18.320858 -10.789921 0.155118 0.004192 -0.122730
 14 0.011433 14.669046 -0.377853 -0.292497 -0.020816 -0.171312
 15 0.210531 25.621647 6.087189 0.333266 0.067798 -0.397645
 16 0.325039 0.304589 4.540245 -0.069720 -0.042504 -0.050735
 17 -0.409779 2.182660 26.434906 -0.023814 -0.002484 0.234907
 18 -2.833563 36.275261 30.124886 0.240593 0.003610 -0.042174
 19 -0.380095 -2.640921 16.751854 0.000000 -0.000000 0.000000
 20 7.187247 -0.460705 16.472282 0.002499 -0.146193 0.034497
 21 12.896099 3.303357 -12.884895 -0.209087 0.002987 -0.016268
 22 9.818134 -2.393089 -11.768440 -0.280533 0.016352 -0.156232
 23 11.684986 2.308931 -7.513325 -0.000000 -0.000000 0.000000
 24 3.667339 0.402561 -5.537415 0.000000 -0.000000 0.000000
 25 -8.155169 -0.644957 16.761322 0.000908 -0.058290 0.043946
 26 -12.364456 3.544241 -13.402794 0.100218 0.469626 0.128138
 27 -10.403900 -2.206009 -11.274452 -0.086427 0.127824 0.193462
 28 -3.567745 0.641577 -8.254761 0.014458 -0.004616 0.008585
 29 -16.088989 -105.559052 -25.635813 0.000000 -0.000000 0.000000
 30 -3.127529 0.571331 -6.062382 0.000000 -0.000000 0.000000
 31 -0.040495 -0.674471 8.862854 0.000000 -0.000000 0.000000
 32 0.289211 3.291785 167.749756 0.000000 -0.000000 0.000000
 33 0.000000 0.000000 0.000000 0.000000 -0.000000 0.000000
time 7
  0 -1.005915 2.634505 0.937462 0.000000 -0.000000 0.000000
  1 -1.005915 2.634505 0.937462 0.000000 -0.000000 0.000000
  2 -1.005915 2.634505 0.937462 0.000000 -0.000000 0.000000
  3 0.000000 0.183545 74.257698 0.017453 -0.000000 0.000000
  4 0.325039 0.314665 -2.968971 -0.052360 0.000000 0.000000
  5 6.206746 -0.124160 -11.733650 -0.328101 -0.149967 0.075758
  6 2.955698 1.729824 -23.848045 1.047196 0.000000 0.000000
  7 0.292414 0.418314 -30.938553 -0.366519 0.000000 0.000000
  8 0.025499 -3.137414 -3.970853 0.000000 -0.000000 0.000000
  9 -6.833119 -0.124160 -11.733650 -0.219537 0.104042 -0.211411
 10 -3.240683 1.520660 -23.848045 0.767945 0.000000 0.000000
 11 -0.355307 0.627478 -30.760900 -0.296706 -0.000000 0.000000
 12 0.209671 -3.137412 -4.537350 0.000000 -0.000000 0.000000
 13 -0.336471 18.320862 -10.789921 0.155132 0.002004 -0.058863
 14 0.011433 14.669044 -0.377853 -0.292427 -0.015845 -0.130332
 15 0.210530 25.621655 6.087181 0.333634 0.061113 -0.358758
 16 0.325039 0.301641 4.371330 -0.069707 -0.039679 -0.064545
 17 -0.409780 2.182660 26.434906 -0.023571 0.006192 0.243533
 18 -2.795877 36.330921 29.409317 0.240593 0.003610 -0.042174
 19 -0.380095 -2.640920 16.751854 0.000000 -0.000000 0.000000
 20 7.187247 -0.460705 16.472290 0.002807 -0.147026 0.049453
 21 12.896101 3.303357 -12.884903 -0.217829 0.003908 -0.021282
 22 9.818134 -2.393093 -11.768448 -0.280533 0.016352 -0.156232
 23 11.684978 2.308933 -7.513321 -0.000000 -0.000000 0.000000
 24 3.667332 0.402561 -5.537415 0.000000 -0.000000 0.000000
 25 -8.155169 -0.644957 16.761330 0.001106 -0.058852 0.058066
 26 -12.364451 3.544242 -13.402786 0.101720 0.467692 0.159222
 27 -10.403904 -2.206009 -11.274460 -0.086427 0.127825 0.193462
 28 -3.567738 0.641573 -8.254745 0.014458 -0.004616 0.008585
 29 -16.089020 -105.559059 -25.635818 0.000000 -0.000000 0.000000
 30 -3.127522 0.571329 -6.062374 0.000000 -0.000000 0.000000
 31 -0.040494 -0.674471 8.862862 0.000000 -0.000000 0.000000
 32 0.289211 3.291785 167.749756 0.000000 -0.000000 0.000000
 33 0.000000 0.000000 0.000000 0.000000 -0.000000 0.000000
time 8
  0 -1.005915 2.634505 0.937462 0.000000 -0.000000 0.000000
  1 -1.005915 2.634505 0.937462 0.000000 -0.000000 0.000000
  2 -1.005915 2.634505 0.937462 0.000000 -0.000000 0.000000
  3 0.000000 0.039777 74.257698 0.017453 -0.000000 0.000000
  4 0.325039 0.314665 -2.968971 -0.052360 0.000000 0.000000
  5 6.206746 -0.124160 -11.733646 -0.315812 -0.150642 0.073945
  6 2.955696 1.729822 -23.848045 1.047196 0.000000 -0.000000
  7 0.292416 0.418314 -30.938551 -0.366519 -0.000000 0.000000
  8 0.025496 -3.137413 -3.970852 0.000000 -0.000000 0.000000
  9 -6.833119 -0.124160 -11.733646 -0.222785 0.102863 -0.211694
 10 -3.240683 1.520661 -23.848038 0.767945 0.000000 0.000000
 11 -0.355305 0.627481 -30.760902 -0.296706 -0.000000 0.000000
 12 0.209673 -3.137413 -4.537351 0.000000 -0.000000 0.000000
 13 -0.336471 18.320860 -10.789921 0.155144 -0.000240 0.006672
 14 0.011433 14.669043 -0.377857 -0.292361 -0.010280 -0.084453
 15 0.210530 25.621651 6.087189 0.334122 0.052465 -0.308460
 16 0.325039 0.298555 4.194534 -0.069694 -0.036750 -0.078835
 17 -0.409780 2.182660 26.434898 -0.023319 0.015186 0.251706
 18 -2.757511 36.387329 28.680786 0.240593 0.003610 -0.042174
 19 -0.380095 -2.640920 16.751854 0.000000 -0.000000 0.000000
 20 7.187248 -0.460705 16.472290 0.003121 -0.147763 0.065424
 21 12.896099 3.303356 -12.884903 -0.226419 0.004898 -0.026673
 22 9.818134 -2.393091 -11.768456 -0.280533 0.016352 -0.156232
 23 11.684982 2.308933 -7.513321 0.000000 -0.000000 0.000000
 24 3.667339 0.402561 -5.537415 0.000000 -0.000000 0.000000
 25 -8.155170 -0.644957 16.761322 0.001309 -0.059308 0.072650
 26 -12.364450 3.544240 -13.402786 0.102967 0.465742 0.190426
 27 -10.403896 -2.206009 -11.274464 -0.086427 0.127824 0.193462
 28 -3.567749 0.641575 -8.254753 0.014458 -0.004616 0.008585
 29 -16.088982 -105.559059 -25.635818 0.000000 -0.000000 0.000000
 30 -3.127533 0.571331 -6.062382 0.000000 -0.000000 0.000000
 31 -0.040495 -0.674471 8.862854 0.000000 -0.000000 0.000000
 32 0.289211 3.291785 167.749756 0.000000 -0.000000 0.000000
 33 0.000000 0.000000 0.000000 0.000000 -0.000000 0.000000
time 9
  0 -1.005915 2.634505 0.937462 0.000000 -0.000000 0.000000
  1 -1.005915 2.634505 0.937462 0.000000 -0.000000 0.000000
  2 -1.005915 2.634505 0.937462 0.000000 -0.000000 0.000000
  3 0.000000 -0.105428 74.257698 0.017453 -0.000000 0.000000
  4 0.325039 0.314665 -2.968971 -0.052360 0.000000 0.000000
  5 6.206746 -0.124160 -11.733646 -0.303139 -0.151224 0.072076
  6 2.955698 1.729822 -23.848042 1.047196 0.000000 -0.000000
  7 0.292416 0.418320 -30.938555 -0.366519 0.000000 0.000000
  8 0.025497 -3.137413 -3.970852 0.000000 -0.000000 0.000000
  9 -6.833119 -0.124160 -11.733646 -0.225466 0.101742 -0.211911
 10 -3.240683 1.520660 -23.848038 0.767945 0.000000 0.000000
 11 -0.355309 0.627484 -30.760900 -0.296706 -0.000000 0.000000
 12 0.209675 -3.137413 -4.537350 0.000000 -0.000000 0.000000
 13 -0.336471 18.320860 -10.789921 0.155154 -0.002467 0.071696
 14 0.011433 14.669048 -0.377857 -0.292300 -0.004323 -0.035342
 15 0.210529 25.621655 6.087189 0.334713 0.042291 -0.249277
 16 0.325039 0.295416 4.014725 -0.069681 -0.033805 -0.093180
 17 -0.409780 2.182661 26.434906 -0.023065 0.024226 0.259331
 18 -2.719822 36.442558 27.965187 0.240593 0.003610 -0.042174
 19 -0.380095 -2.640920 16.751854 0.000000 -0.000000 0.000000
 20 7.187247 -0.460705 16.472298 0.003435 -0.148410 0.082065
 21 12.896103 3.303358 -12.884895 -0.234791 0.005938 -0.032335
 22 9.818134 -2.393089 -11.768440 -0.280533 0.016352 -0.156232
 23 11.684986 2.308929 -7.513317 -0.000000 -0.000000 0.000000
 24 3.667339 0.402563 -5.537418 0.000000 -0.000000 0.000000
 25 -8.155169 -0.644956 16.761330 0.001510 -0.059669 0.087241
 26 -12.364453 3.544241 -13.402779 0.103979 0.463852 0.220575
 27 -10.403893 -2.206010 -11.274460 -0.086427 0.127825 0.193462
 28 -3.567741 0.641573 -8.254749 0.014458 -0.004616 0.008585
 29 -16.089005 -105.559074 -25.635818 0.000000 -0.000000 0.000000
 30 -3.127525 0.571331 -6.062374 0.000000 -0.000000 0.000000
 31 -0.040495 -0.674471 8.862854 0.000000 -0.000000 0.000000
 32 0.289211 3.291785 167.749756 0.000000 -0.000000 0.000000
 33 0.000000 0.000000 0.000000 0.000000 -0.000000 0.000000
time 10
  0 -1.005915 2.634505 0.937462 0.000000 -0.000000 0.000000
  1 -1.005915 2.634505 0.937462 0.000000 -0.000000 0.000000
  2 -1.005915 2.634505 0.937462 0.000000 -0.000000 0.000000
  3 0.000000 -0.247890 74.257698 0.017453 -0.000000 0.000000
  4 0.325039 0.314665 -2.968971 -0.052360 0.000000 0.000000
  5 6.206746 -0.124160 -11.733646 -0.290378 -0.151719 0.070195
  6 2.955698 1.729823 -23.848042 1.047196 0.000000 0.000000
  7 0.292414 0.418316 -30.938549 -0.366519 -0.000000 0.000000
  8 0.025497 -3.137411 -3.970852 0.000000 -0.000000 0.000000
  9 -6.833119 -0.124160 -11.733646 -0.227597 0.100729 -0.212070
 10 -3.240683 1.520660 -23.848042 0.767945 -0.000000 0.000000
 11 -0.355307 0.627482 -30.760899 -0.296706 -0.000000 0.000000
 12 0.209673 -3.137413 -4.537350 0.000000 -0.000000 0.000000
 13 -0.336471 18.320860 -10.789917 0.155162 -0.004602 0.134031
 14 0.011432 14.669041 -0.377857 -0.292243 0.001824 0.015333
 15 0.210528 25.621651 6.087189 0.335388 0.031023 -0.183738
 16 0.325039 0.292309 3.836723 -0.069667 -0.030934 -0.107151
 17 -0.409779 2.182659 26.434914 -0.022818 0.033042 0.266311
 18 -2.684186 36.494637 27.288528 0.240593 0.003610 -0.042174
 19 -0.380095 -2.640920 16.751846 0.000000 -0.000000 0.000000
 20 7.187248 -0.460705 16.472305 0.003745 -0.148971 0.099034
 21 12.896103 3.303358 -12.884903 -0.242881 0.007008 -0.038164
 22 9.818134 -2.393089 -11.768440 -0.280533 0.016352 -0.156232
 23 11.684986 2.308933 -7.513325 -0.000000 -0.000000 0.000000
 24 3.667339 0.402565 -5.537415 0.000000 -0.000000 0.000000
 25 -8.155169 -0.644957 16.761330 0.001703 -0.059946 0.101382
 26 -12.364453 3.544241 -13.402786 0.104773 0.462098 0.248492
 27 -10.403896 -2.206009 -11.274460 -0.086427 0.127825 0.193462
 28 -3.567745 0.641575 -8.254753 0.014458 -0.004616 0.008585
 29 -16.089005 -105.559074 -25.635811 0.000000 -0.000000 0.000000
 30 -3.127522 0.571329 -6.062378 0.000000 -0.000000 0.000000
 31 -0.040495 -0.674471 8.862862 0.000000 -0.000000 0.000000
 32 0.289211 3.291785 167.749756 0.000000 -0.000000 0.000000
 33 0.000000 0.000000 0.000000 0.000000 -0.000000 0.000000
time 11
  0 -1.005915 2.634505 0.937462 0.000000 -0.000000 0.000000
  1 -1.005915 2.634505 0.937462 0.000000 -0.000000 0.000000
  2 -1.005915 2.634505 0.937462 0.000000 -0.000000 0.000000
  3 0.000000 -0.383433 74.257698 0.017453 -0.000000 0.000000
  4 0.325039 0.314665 -2.968971 -0.052360 0.000000 0.000000
  5 6.206746 -0.124160 -11.733646 -0.277826 -0.152134 0.068343
  6 2.955698 1.729820 -23.848042 1.047196 0.000000 -0.000000
  7 0.292416 0.418316 -30.938549 -0.366519 0.000000 0.000000
  8 0.025497 -3.137415 -3.970852 0.000000 -0.000000 0.000000
  9 -6.833119 -0.124160 -11.733646 -0.229196 0.099876 -0.212178
 10 -3.240681 1.520662 -23.848042 0.767945 0.000000 0.000000
 11 -0.355307 0.627481 -30.760895 -0.296706 -0.000000 0.000000
 12 0.209673 -3.137412 -4.537349 0.000000 -0.000000 0.000000
 13 -0.336471 18.320860 -10.789921 0.155168 -0.006570 0.191496
 14 0.011433 14.669048 -0.377850 -0.292192 0.007958 0.065904
 15 0.210528 25.621653 6.087196 0.336130 0.019097 -0.114368
 16 0.325039 0.289319 3.665390 -0.069655 -0.028225 -0.120325
 17 -0.409780 2.182659 26.434906 -0.022585 0.041361 0.272551
 18 -2.651967 36.541618 26.676712 0.240593 0.003610 -0.042174
 19 -0.380095 -2.640919 16.751854 0.000000 -0.000000 0.000000
 20 7.187248 -0.460705 16.472282 0.004047 -0.149452 0.115987
 21 12.896101 3.303357 -12.884903 -0.250624 0.008089 -0.044054
 22 9.818134 -2.393093 -11.768456 -0.280533 0.016352 -0.156232
 23 11.684982 2.308929 -7.513321 -0.000000 -0.000000 0.000000
 24 3.667332 0.402561 -5.537418 0.000000 -0.000000 0.000000
 25 -8.155169 -0.644957 16.761322 0.001883 -0.060150 0.114618
 26 -12.364452 3.544241 -13.402786 0.105369 0.460555 0.273005
 27 -10.403896 -2.206007 -11.274467 -0.086427 0.127825 0.193462
 28 -3.567749 0.641577 -8.254753 0.014458 -0.004616 0.008585
 29 -16.088982 -105.559052 -25.635803 0.000000 -0.000000 0.000000
 30 -3.127525 0.571331 -6.062374 0.000000 -0.000000 0.000000
 31 -0.040495 -0.674471 8.862846 0.000000 -0.000000 0.000000
 32 0.289211 3.291785 167.749756 0.000000 -0.000000 0.000000
 33 0.000000 0.000000 0.000000 0.000000 -0.000000 0.000000
time 12
  0 -1.005915 2.634505 0.937462 0.000000 -0.000000 0.000000
  1 -1.005915 2.634505 0.937462 0.000000 -0.000000 0.000000
  2 -1.005915 2.634505 0.937462 0.000000 -0.000000 0.000000
  3 0.000000 -0.507879 74.257698 0.017453 -0.000000 0.000000
  4 0.325039 0.314665 -2.968964 -0.052360 0.000000 0.000000
  5 6.206746 -0.124160 -11.733646 -0.265777 -0.152474 0.066567
  6 2.955699 1.729817 -23.848042 1.047196 -0.000000 0.000000
  7 0.292416 0.418322 -30.938551 -0.366519 0.000000 0.000000
  8 0.025497 -3.137413 -3.970851 0.000000 -0.000000 0.000000
  9 -6.833119 -0.124160 -11.733646 -0.230280 0.099232 -0.212245
 10 -3.240681 1.520661 -23.848042 0.767945 0.000000 0.000000
 11 -0.355305 0.627483 -30.760902 -0.296706 0.000000 0.000000
 12 0.209673 -3.137413 -4.537350 0.000000 -0.000000 0.000000
 13 -0.336471 18.320860 -10.789921 0.155173 -0.008297 0.241914
 14 0.011434 14.669044 -0.377853 -0.292147 0.013878 0.114703
 15 0.210528 25.621655 6.087196 0.336924 0.006947 -0.043695
 16 0.325039 0.286529 3.505547 -0.069644 -0.025766 -0.132273
 17 -0.409780 2.182660 26.434906 -0.022373 0.048912 0.277956
 18 -2.624529 36.581570 26.155693 0.240593 0.003610 -0.042174
 19 -0.380095 -2.640919 16.751846 0.000000 -0.000000 0.000000
 20 7.187247 -0.460706 16.472298 0.004336 -0.149859 0.132580
 21 12.896099 3.303356 -12.884903 -0.257954 0.009163 -0.049900
 22 9.818138 -2.393091 -11.768448 -0.280533 0.016352 -0.156232
 23 11.684986 2.308937 -7.513317 0.000000 -0.000000 0.000000
 24 3.667336 0.402569 -5.537415 0.000000 -0.000000 0.000000
 25 -8.155169 -0.644957 16.761322 0.002044 -0.060292 0.126491
 26 -12.364450 3.544242 -13.402794 0.105786 0.459298 0.292937
 27 -10.403896 -2.206008 -11.274467 -0.086427 0.127825 0.193462
 28 -3.567749 0.641575 -8.254761 0.014458 -0.004616 0.008585
 29 -16.088989 -105.559074 -25.635801 0.000000 -0.000000 0.000000
 30 -3.127525 0.571329 -6.062382 0.000000 -0.000000 0.000000
 31 -0.040495 -0.674471 8.862854 0.000000 -0.000000 0.000000
 32 0.289211 3.291785 167.749756 0.000000 -0.000000 0.000000
 33 0.000000 0.000000 0.000000 0.000000 -0.000000 0.000000
time 13
  0 -1.005915 2.634505 0.937462 0.000000 -0.000000 0.000000
  1 -1.005915 2.634505 0.937462 0.000000 -0.000000 0.000000
  2 -1.005915 2.634505 0.937462 0.000000 -0.000000 0.000000
  3 0.000000 -0.617049 74.257698 0.017453 -0.000000 0.000000
  4 0.325039 0.314665 -2.968964 -0.052360 0.000000 0.000000
  5 6.206746 -0.124160 -11.733650 -0.254527 -0.152747 0.064908
  6 2.955698 1.729820 -23.848038 1.047196 -0.000000 -0.000000
  7 0.292416 0.418324 -30.938549 -0.366519 -0.000000 0.000000
  8 0.025496 -3.137413 -3.970850 0.000000 -0.000000 0.000000
  9 -6.833119 -0.124160 -11.733650 -0.230865 0.098848 -0.212276
 10 -3.240682 1.520661 -23.848038 0.767945 0.000000 0.000000
 11 -0.355307 0.627484 -30.760899 -0.296706 -0.000000 0.000000
 12 0.209671 -3.137413 -4.537350 0.000000 -0.000000 0.000000
 13 -0.336471 18.320858 -10.789925 0.155176 -0.009708 0.283106
 14 0.011433 14.669044 -0.377857 -0.292108 0.019380 0.160061
 15 0.210533 25.621651 6.087189 0.337750 -0.004993 0.025753
 16 0.325039 0.284024 3.362045 -0.069634 -0.023645 -0.142570
 17 -0.409780 2.182660 26.434906 -0.022191 0.055424 0.282427
 18 -2.603234 36.612522 25.751434 0.240593 0.003610 -0.042174
 19 -0.380096 -2.640919 16.751839 0.000000 -0.000000 0.000000
 20 7.187248 -0.460705 16.472290 0.004608 -0.150197 0.148470
 21 12.896101 3.303357 -12.884903 -0.264806 0.010209 -0.055595
 22 9.818134 -2.393091 -11.768440 -0.280533 0.016352 -0.156232
 23 11.684986 2.308929 -7.513325 -0.000000 -0.000000 0.000000
 24 3.667336 0.402557 -5.537415 0.000000 -0.000000 0.000000
 25 -8.155170 -0.644956 16.761322 0.002180 -0.060383 0.136546
 26 -12.364452 3.544241 -13.402794 0.106042 0.458402 0.307113
 27 -10.403896 -2.206010 -11.274467 -0.086427 0.127825 0.193462
 28 -3.567741 0.641575 -8.254745 0.014458 -0.004616 0.008585
 29 -16.089020 -105.559082 -25.635820 0.000000 -0.000000 0.000000
 30 -3.127525 0.571331 -6.062374 0.000000 -0.000000 0.000000
 31 -0.040494 -0.674471 8.862862 0.000000 -0.000000 0.000000
 32 0.289211 3.291785 167.749756 0.000000 -0.000000 0.000000
 33 0.000000 0.000000 0.000000 0.000000 -0.000000 0.000000
time 14
  0 -1.005915 2.634505 0.937462 0.000000 -0.000000 0.000000
  1 -1.005915 2.634505 0.937462 0.000000 -0.000000 0.000000
  2 -1.005915 2.634505 0.937462 0.000000 -0.000000 0.000000
  3 0.000000 -0.706765 74.257698 0.017453 -0.000000 0.000000
  4 0.325039 0.314666 -2.968964 -0.052360 0.000000 0.000000
  5 6.206746 -0.124160 -11.733646 -0.244373 -0.152958 0.063410
  6 2.955697 1.729822 -23.848042 1.047196 0.000000 0.000000
  7 0.292416 0.418316 -30.938553 -0.366519 -0.000000 0.000000
  8 0.025497 -3.137413 -3.970852 0.000000 -0.000000 0.000000
  9 -6.833119 -0.124160 -11.733646 -0.230973 0.098765 -0.212281
 10 -3.240683 1.520659 -23.848034 0.767945 -0.000000 0.000000
 11 -0.355307 0.627482 -30.760904 -0.296706 -0.000000 0.000000
 12 0.209673 -3.137411 -4.537350 0.000000 -0.000000 0.000000
 13 -0.336471 18.320860 -10.789921 0.155178 -0.010728 0.312891
 14 0.011433 14.669044 -0.377853 -0.292075 0.024262 0.200310
 15 0.210530 25.621655 6.087189 0.338592 -0.016288 0.091451
 16 0.325039 0.281888 3.239708 -0.069626 -0.021951 -0.150790
 17 -0.409780 2.182660 26.434906 -0.022045 0.060625 0.285871
 18 -2.589465 36.632511 25.489845 0.240593 0.003610 -0.042174
 19 -0.380095 -2.640921 16.751854 0.000000 -0.000000 0.000000
 20 7.187247 -0.460704 16.472282 0.004858 -0.150471 0.163313
 21 12.896101 3.303357 -12.884888 -0.271115 0.011208 -0.061036
 22 9.818134 -2.393091 -11.768448 -0.280533 0.016352 -0.156232
 23 11.684982 2.308929 -7.513321 -0.000000 -0.000000 0.000000
 24 3.667339 0.402565 -5.537411 0.000000 -0.000000 0.000000
 25 -8.155170 -0.644955 16.761314 0.002285 -0.060435 0.144326
 26 -12.364453 3.544241 -13.402786 0.106155 0.457944 0.314360
 27 -10.403896 -2.206007 -11.274452 -0.086427 0.127824 0.193462
 28 -3.567749 0.641575 -8.254749 0.014458 -0.004616 0.008585
 29 -16.088982 -105.559052 -25.635809 0.000000 -0.000000 0.000000
 30 -3.127525 0.571331 -6.062382 0.000000 -0.000000 0.000000
 31 -0.040495 -0.674471 8.862846 0.000000 -0.000000 0.000000
 32 0.289211 3.291785 167.749756 0.000000 -0.000000 0.000000
 33 0.000000 0.000000 0.000000 0.000000 -0.000000 0.000000
time 15
  0 -1.005915 2.634505 0.937462 0.000000 -0.000000 0.000000
  1 -1.005915 2.634505 0.937462 0.000000 -0.000000 0.000000
  2 -1.005915 2.634505 0.937462 0.000000 -0.000000 0.000000
  3 0.000000 -0.772850 74.257698 0.017453 -0.000000 0.000000
  4 0.325039 0.314666 -2.968964 -0.052360 0.000000 0.000000
  5 6.206746 -0.124160 -11.733646 -0.235609 -0.153115 0.062118
  6 2.955698 1.729821 -23.848045 1.047196 0.000000 -0.000000
  7 0.292414 0.418308 -30.938545 -0.366519 0.000000 0.000000
  8 0.025497 -3.137413 -3.970851 0.000000 -0.000000 0.000000
  9 -6.833119 -0.124160 -11.733646 -0.230695 0.098829 -0.212261
 10 -3.240684 1.520660 -23.848038 0.767945 0.000000 0.000000
 11 -0.355307 0.627481 -30.760897 -0.296706 -0.000000 0.000000
 12 0.209673 -3.137412 -4.537349 0.000000 -0.000000 0.000000
 13 -0.336471 18.320860 -10.789921 0.155179 -0.011283 0.329092
 14 0.011435 14.669050 -0.377857 -0.292049 0.028322 0.233784
 15 0.210534 25.621658 6.087196 0.339432 -0.026503 0.150870
 16 0.325039 0.280207 3.143402 -0.069621 -0.020773 -0.156506
 17 -0.409779 2.182659 26.434906 -0.021944 0.064243 0.288191
 18 -2.584565 36.639610 25.396889 0.240593 0.003610 -0.042174
 19 -0.380095 -2.640920 16.751839 0.000000 -0.000000 0.000000
 20 7.187247 -0.460705 16.472298 0.005081 -0.150688 0.176766
 21 12.896099 3.303356 -12.884903 -0.276816 0.012140 -0.066115
 22 9.818134 -2.393091 -11.768448 -0.280533 0.016352 -0.156232
 23 11.684986 2.308933 -7.513321 -0.000000 -0.000000 0.000000
 24 3.667336 0.402561 -5.537411 0.000000 -0.000000 0.000000
 25 -8.155171 -0.644957 16.761322 0.002352 -0.060458 0.149374
 26 -12.364452 3.544241 -13.402786 0.106075 0.457980 0.313762
 27 -10.403896 -2.206010 -11.274460 -0.086427 0.127825 0.193462
 28 -3.567741 0.641575 -8.254749 0.014458 -0.004616 0.008585
 29 -16.089012 -105.559067 -25.635815 0.000000 -0.000000 0.000000
 30 -3.127525 0.571331 -6.062378 0.000000 -0.000000 0.000000
 31 -0.040494 -0.674471 8.862854 0.000000 -0.000000 0.000000
 32 0.289211 3.291785 167.749756 0.000000 -0.000000 0.000000
 33 0.000000 0.000000 0.000000 0.000000 -0.000000 0.000000
time 16
  0 -1.005915 2.634505 0.937462 0.000000 -0.000000 0.000000
  1 -1.005915 2.634505 0.937462 0.000000 -0.000000 0.000000
  2 -1.005915 2.634505 0.937462 0.000000 -0.000000 0.000000
  3 0.000000 -0.811126 74.257698 0.017453 -0.000000 0.000000
  4 0.325039 0.314665 -2.968964 -0.052360 0.000000 0.000000
  5 6.206746 -0.124160 -11.733650 -0.228531 -0.153224 0.061074
  6 2.955698 1.729820 -23.848038 1.047196 -0.000000 0.000000
  7 0.292418 0.418314 -30.938549 -0.366519 0.000000 0.000000
  8 0.025497 -3.137411 -3.970852 0.000000 -0.000000 0.000000
  9 -6.833119 -0.124160 -11.733650 -0.230054 0.098976 -0.212214
 10 -3.240685 1.520659 -23.848038 0.767945 -0.000000 0.000000
 11 -0.355307 0.627483 -30.760899 -0.296706 -0.000000 0.000000
 12 0.209673 -3.137412 -4.537349 0.000000 -0.000000 0.000000
 13 -0.336471 18.320860 -10.789921 0.155179 -0.011291 0.329329
 14 0.011434 14.669043 -0.377857 -0.292031 0.031358 0.258813
 15 0.210531 25.621651 6.087189 0.340254 -0.035205 0.201484
 16 0.325039 0.279065 3.077957 -0.069618 -0.020198 -0.159292
 17 -0.409779 2.182659 26.434914 -0.021894 0.066008 0.289291
 18 -2.589461 36.632313 25.489845 0.240593 0.003610 -0.042174
 19 -0.380095 -2.640920 16.751854 0.000000 -0.000000 0.000000
 20 7.187248 -0.460706 16.472298 0.005273 -0.150853 0.188484
 21 12.896101 3.303356 -12.884911 -0.281845 0.012988 -0.070729
 22 9.818134 -2.393089 -11.768456 -0.280533 0.016352 -0.156232
 23 11.684986 2.308937 -7.513321 0.000000 -0.000000 0.000000
 24 3.667339 0.402565 -5.537415 0.000000 -0.000000 0.000000
 25 -8.155171 -0.644957 16.761330 0.002377 -0.060463 0.151234
 26 -12.364454 3.544242 -13.402794 0.105542 0.458449 0.306145
 27 -10.403893 -2.206008 -11.274467 -0.086427 0.127825 0.193462
 28 -3.567741 0.641573 -8.254757 0.014458 -0.004616 0.008585
 29 -16.089005 -105.559074 -25.635820 0.000000 -0.000000 0.000000
 30 -3.127518 0.571331 -6.062386 0.000000 -0.000000 0.000000
 31 -0.040494 -0.674471 8.862854 0.000000 -0.000000 0.000000
 32 0.289211 3.291785 167.749756 0.000000 -0.000000 0.000000
 33 0.000000 0.000000 0.000000 0.000000 -0.000000 0.000000
time 17
  0 -1.005915 2.634505 0.937462 0.000000 -0.000000 0.000000
  1 -1.005915 2.634505 0.937462 0.000000 -0.000000 0.000000
  2 -1.005915 2.634505 0.937462 0.000000 -0.000000 0.000000
  3 0.000000 -0.816505 74.257698 0.017453 -0.000000 0.000000
  4 0.325039 0.314665 -2.968964 -0.052360 0.000000 0.000000
  5 6.206746 -0.124160 -11.733646 -0.223436 -0.153291 0.060322
  6 2.955700 1.729822 -23.848042 1.047196 -0.000000 -0.000000
  7 0.292418 0.418320 -30.938553 -0.366519 0.000000 0.000000
  8 0.025497 -3.137415 -3.970852 0.000000 -0.000000 0.000000
  9 -6.833119 -0.124160 -11.733646 -0.229045 0.099206 -0.212135
 10 -3.240685 1.520660 -23.848038 0.767945 0.000000 0.000000
 11 -0.355307 0.627481 -30.760895 -0.296706 -0.000000 0.000000
 12 0.209673 -3.137411 -4.537349 0.000000 -0.000000 0.000000
 13 -0.336471 18.320860 -10.789921 0.155174 -0.010691 0.311818
 14 0.011434 14.669048 -0.377853 -0.292021 0.033168 0.273730
 15 0.210525 25.621655 6.087189 0.341040 -0.041958 0.240766
 16 0.325039 0.278546 3.048203 -0.069618 -0.020358 -0.158439
 17 -0.409780 2.182660 26.434906 -0.021909 0.065474 0.288630
 18 -2.603237 36.611774 25.751434 0.240593 0.003610 -0.042174
 19 -0.380095 -2.640920 16.751839 0.000000 -0.000000 0.000000
 20 7.187248 -0.460705 16.472290 0.005429 -0.150971 0.198125
 21 12.896103 3.303357 -12.884903 -0.286135 0.013730 -0.074772
 22 9.818134 -2.393089 -11.768456 -0.280533 0.016352 -0.156232
 23 11.684982 2.308929 -7.513321 0.000000 -0.000000 0.000000
 24 3.667336 0.402565 -5.537418 0.000000 -0.000000 0.000000
 25 -8.155171 -0.644957 16.761330 0.002372 -0.060446 0.151128
 26 -12.364452 3.544242 -13.402779 0.104590 0.459287 0.292538
 27 -10.403896 -2.206010 -11.274460 -0.086427 0.127825 0.193462
 28 -3.567745 0.641575 -8.254749 0.014458 -0.004616 0.008585
 29 -16.089012 -105.559082 -25.635813 0.000000 -0.000000 0.000000
 30 -3.127522 0.571329 -6.062374 0.000000 -0.000000 0.000000
 31 -0.040494 -0.674471 8.862862 0.000000 -0.000000 0.000000
 32 0.289211 3.291785 167.749756 0.000000 -0.000000 0.000000
 33 0.000000 0.000000 0.000000 0.000000 -0.000000 0.000000
time 18
  0 -1.005915 2.634505 0.937462 0.000000 -0.000000 0.000000
  1 -1.005915 2.634505 0.937462 0.000000 -0.000000 0.000000
  2 -1.005915 2.634505 0.937462 0.000000 -0.000000 0.000000
  3 0.000000 -0.775059 74.257698 0.017453 -0.000000 0.000000
  4 0.325039 0.314665 -2.968964 -0.052360 0.000000 0.000000
  5 6.206746 -0.124160 -11.733650 -0.220618 -0.153322 0.059907
  6 2.955698 1.729822 -23.848045 1.047196 -0.000000 0.000000
  7 0.292416 0.418316 -30.938555 -0.366519 0.000000 0.000000
  8 0.025499 -3.137413 -3.970852 0.000000 -0.000000 0.000000
  9 -6.833119 -0.124160 -11.733650 -0.227662 0.099518 -0.212023
 10 -3.240685 1.520660 -23.848038 0.767945 0.000000 0.000000
 11 -0.355307 0.627480 -30.760897 -0.296706 -0.000000 0.000000
 12 0.209673 -3.137413 -4.537350 0.000000 -0.000000 0.000000
 13 -0.336471 18.320860 -10.789921 0.155164 -0.009559 0.278767
 14 0.011433 14.669046 -0.377853 -0.292024 0.033557 0.276936
 15 0.210525 25.621647 6.087181 0.341772 -0.046329 0.266188
 16 0.325039 0.278883 3.067566 -0.069619 -0.021376 -0.153101
 17 -0.409779 2.182659 26.434914 -0.022003 0.062130 0.284894
 18 -2.624525 36.580021 26.155701 0.240593 0.003610 -0.042174
 19 -0.380095 -2.640921 16.751854 0.000000 -0.000000 0.000000
 20 7.187247 -0.460705 16.472290 0.005544 -0.151048 0.205345
 21 12.896099 3.303357 -12.884895 -0.289623 0.014348 -0.078138
 22 9.818134 -2.393089 -11.768448 -0.280533 0.016352 -0.156232
 23 11.684978 2.308937 -7.513325 0.000000 -0.000000 0.000000
 24 3.667332 0.402565 -5.537418 0.000000 -0.000000 0.000000
 25 -8.155170 -0.644956 16.761322 0.002355 -0.060383 0.150586
 26 -12.364451 3.544241 -13.402779 0.103286 0.460434 0.273907
 27 -10.403900 -2.206007 -11.274460 -0.086427 0.127825 0.193462
 28 -3.567741 0.641575 -8.254753 0.014458 -0.004616 0.008585
 29 -16.088997 -105.559052 -25.635807 0.000000 -0.000000 0.000000
 30 -3.127525 0.571331 -6.062378 0.000000 -0.000000 0.000000
 31 -0.040495 -0.674472 8.862854 0.000000 -0.000000 0.000000
 32 0.289211 3.291785 167.749756 0.000000 -0.000000 0.000000
 33 0.000000 0.000000 0.000000 0.000000 -0.000000 0.000000
time 19
  0 -1.005915 2.634505 0.937462 0.000000 -0.000000 0.000000
  1 -1.005915 2.634505 0.937462 0.000000 -0.000000 0.000000
  2 -1.005915 2.634505 0.937462 0.000000 -0.000000 0.000000
  3 0.000000 -0.689639 74.257698 0.017453 -0.000000 0.000000
  4 0.325039 0.314666 -2.968964 -0.052360 0.000000 0.000000
  5 6.206746 -0.124160 -11.733650 -0.220528 -0.153303 0.059896
  6 2.955700 1.729821 -23.848038 1.047196 -0.000000 -0.000000
  7 0.292416 0.418320 -30.938549 -0.366519 0.000000 0.000000
  8 0.025497 -3.137411 -3.970851 0.000000 -0.000000 0.000000
  9 -6.833119 -0.124160 -11.733650 -0.225897 0.099913 -0.211873
 10 -3.240681 1.520661 -23.848038 0.767945 -0.000000 0.000000
 11 -0.355307 0.627480 -30.760899 -0.296706 -0.000000 0.000000
 12 0.209675 -3.137414 -4.537350 0.000000 -0.000000 0.000000
 13 -0.336471 18.320858 -10.789925 0.155150 -0.007987 0.232872
 14 0.011433 14.669043 -0.377853 -0.292155 0.032620 0.269205
 15 0.210526 25.621647 6.087189 0.342433 -0.047882 0.275224
 16 0.325039 0.280379 3.153221 -0.069621 -0.023132 -0.143921
 17 -0.409779 2.182660 26.434906 -0.022164 0.056379 0.278470
 18 -2.651967 36.539089 26.676720 0.240593 0.003610 -0.042174
 19 -0.380095 -2.640919 16.751846 0.000000 -0.000000 0.000000
 20 7.187248 -0.460705 16.472290 0.005615 -0.151089 0.209800
 21 12.896097 3.303358 -12.884895 -0.292242 0.014823 -0.080723
 22 9.818130 -2.393091 -11.768448 -0.280533 0.016352 -0.156232
 23 11.684978 2.308935 -7.513321 0.000000 -0.000000 0.000000
 24 3.667332 0.402565 -5.537418 0.000000 -0.000000 0.000000
 25 -8.155170 -0.644957 16.761322 0.002322 -0.060264 0.149291
 26 -12.364450 3.544241 -13.402786 0.101699 0.461831 0.251218
 27 -10.403893 -2.206011 -11.274460 -0.086427 0.127825 0.193462
 28 -3.567738 0.641573 -8.254757 0.014458 -0.004616 0.008585
 29 -16.089012 -105.559074 -25.635818 0.000000 -0.000000 0.000000
 30 -3.127522 0.571329 -6.062378 0.000000 -0.000000 0.000000
 31 -0.040495 -0.674471 8.862854 0.000000 -0.000000 0.000000
 32 0.289211 3.291785 167.749756 0.000000 -0.000000 0.000000
 33 0.000000 0.000000 0.000000 0.000000 -0.000000 0.000000
time 20
  0 -1.005915 2.634505 0.937462 0.000000 -0.000000 0.000000
  1 -1.005915 2.634505 0.937462 0.000000 -0.000000 0.000000
  2 -1.005915 2.634505 0.937462 0.000000 -0.000000 0.000000
  3 0.000000 -0.568473 74.257698 0.017453 -0.000000 0.000000
  4 0.325039 0.314665 -2.968964 -0.052360 0.000000 0.000000
  5 6.206746 -0.124160 -11.733650 -0.224551 -0.153049 0.060508
  6 2.955698 1.729820 -23.848038 1.047196 -0.000000 0.000000
  7 0.292416 0.418316 -30.938553 -0.366519 0.000000 0.000000
  8 0.025497 -3.137413 -3.970852 0.000000 -0.000000 0.000000
  9 -6.833119 -0.124160 -11.733650 -0.223745 0.100390 -0.211684
 10 -3.240683 1.520659 -23.848045 0.767945 -0.000000 0.000000
 11 -0.355307 0.627477 -30.760900 -0.296706 0.000000 0.000000
 12 0.209673 -3.137414 -4.537351 0.000000 -0.000000 0.000000
 13 -0.336471 18.320862 -10.789921 0.155133 -0.006068 0.176828
 14 0.011431 14.669041 -0.377853 -0.292435 0.030614 0.252651
 15 0.210526 25.621653 6.087189 0.343100 -0.046767 0.268814
 16 0.325039 0.282842 3.294334 -0.069624 -0.025492 -0.131642
 17 -0.409780 2.182660 26.434906 -0.022380 0.048685 0.269876
 18 -2.684187 36.491043 27.288521 0.240593 0.003610 -0.042174
 19 -0.380095 -2.640919 16.751839 0.000000 -0.000000 0.000000
 20 7.187248 -0.460705 16.472290 0.005637 -0.151097 0.211103
 21 12.896101 3.303356 -12.884903 -0.293928 0.015134 -0.082420
 22 9.818138 -2.393091 -11.768440 -0.280533 0.016352 -0.156232
 23 11.684978 2.308939 -7.513321 -0.000000 -0.000000 0.000000
 24 3.667332 0.402565 -5.537411 0.000000 -0.000000 0.000000
 25 -8.155170 -0.644956 16.761322 0.002270 -0.060078 0.146926
 26 -12.364450 3.544240 -13.402779 0.099895 0.463419 0.225436
 27 -10.403896 -2.206007 -11.274464 -0.086427 0.127825 0.193462
 28 -3.567749 0.641575 -8.254749 0.014458 -0.004616 0.008585
 29 -16.088982 -105.559036 -25.635805 0.000000 -0.000000 0.000000
 30 -3.127525 0.571329 -6.062378 0.000000 -0.000000 0.000000
 31 -0.040494 -0.674471 8.862854 0.000000 -0.000000 0.000000
 32 0.289211 3.291785 167.749756 0.000000 -0.000000 0.000000
 33 0.000000 0.000000 0.000000 0.000000 -0.000000 0.000000
time 21
  0 -1.005915 2.634505 0.937462 0.000000 -0.000000 0.000000
  1 -1.005915 2.634505 0.937462 0.000000 -0.000000 0.000000
  2 -1.005915 2.634505 0.937462 0.000000 -0.000000 0.000000
  3 0.000000 -0.419791 74.257698 0.017453 -0.000000 0.000000
  4 0.325039 0.314665 -2.968964 -0.052360 0.000000 0.000000
  5 6.206746 -0.124160 -11.733646 -0.232461 -0.152546 0.061710
  6 2.955697 1.729820 -23.848038 1.047196 0.000000 0.000000
  7 0.292416 0.418318 -30.938555 -0.366519 -0.000000 0.000000
  8 0.025497 -3.137409 -3.970852 0.000000 -0.000000 0.000000
  9 -6.833119 -0.124160 -11.733646 -0.221199 0.100948 -0.211451
 10 -3.240683 1.520660 -23.848042 0.767945 -0.000000 0.000000
 11 -0.355307 0.627480 -30.760900 -0.296706 0.000000 0.000000
 12 0.209671 -3.137415 -4.537351 0.000000 -0.000000 0.000000
 13 -0.336471 18.320860 -10.789921 0.155114 -0.003893 0.113330
 14 0.011433 14.669048 -0.377857 -0.292833 0.027758 0.229083
 15 0.210528 25.621658 6.087189 0.343842 -0.043709 0.251237
 16 0.325039 0.286064 3.478897 -0.069629 -0.028318 -0.117007
 17 -0.409779 2.182659 26.434914 -0.022637 0.039515 0.259633
 18 -2.719824 36.437897 27.965195 0.240593 0.003610 -0.042174
 19 -0.380095 -2.640920 16.751846 0.000000 -0.000000 0.000000
 20 7.187247 -0.460705 16.472298 0.005615 -0.150700 0.203781
 21 12.896103 3.303357 -12.884903 -0.294616 0.015264 -0.083124
 22 9.818134 -2.393087 -11.768456 -0.280533 0.016352 -0.156232
 23 11.684982 2.308933 -7.513321 -0.000000 -0.000000 0.000000
 24 3.667332 0.402565 -5.537418 0.000000 -0.000000 0.000000
 25 -8.155171 -0.644957 16.761330 0.002198 -0.059814 0.143173
 26 -12.364450 3.544241 -13.402786 0.097943 0.465137 0.197526
 27 -10.403893 -2.206007 -11.274456 -0.086427 0.127825 0.193462
 28 -3.567741 0.641577 -8.254753 0.014458 -0.004616 0.008585
 29 -16.088982 -105.559052 -25.635805 0.000000 -0.000000 0.000000
 30 -3.127518 0.571329 -6.062382 0.000000 -0.000000 0.000000
 31 -0.040494 -0.674471 8.862862 0.000000 -0.000000 0.000000
 32 0.289211 3.291785 167.749756 0.000000 -0.000000 0.000000
 33 0.000000 0.000000 0.000000 0.000000 -0.000000 0.000000
time 22
  0 -1.005915 2.634505 0.937462 0.000000 -0.000000 0.000000
  1 -1.005915 2.634505 0.937462 0.000000 -0.000000 0.000000
  2 -1.005915 2.634505 0.937462 0.000000 -0.000000 0.000000
  3 0.000000 -0.251823 74.257698 0.017453 -0.000000 0.000000
  4 0.325039 0.314665 -2.968971 -0.052360 0.000000 0.000000
  5 6.206746 -0.124160 -11.733646 -0.243653 -0.151824 0.063405
  6 2.955698 1.729819 -23.848042 1.047196 0.000000 -0.000000
  7 0.292418 0.418316 -30.938551 -0.366519 -0.000000 0.000000
  8 0.025497 -3.137415 -3.970852 0.000000 -0.000000 0.000000
  9 -6.833119 -0.124160 -11.733646 -0.218252 0.101589 -0.211172
 10 -3.240684 1.520662 -23.848042 0.767945 -0.000000 0.000000
 11 -0.355307 0.627474 -30.760902 -0.296706 -0.000000 0.000000
 12 0.209675 -3.137413 -4.537350 0.000000 -0.000000 0.000000
 13 -0.336471 18.320862 -10.789917 0.155094 -0.001555 0.045073
 14 0.011432 14.669046 -0.377853 -0.293320 0.024272 0.200311
 15 0.210528 25.621655 6.087189 0.344628 -0.039140 0.224976
 16 0.325039 0.289834 3.694923 -0.069635 -0.031475 -0.100758
 17 -0.409780 2.182661 26.434898 -0.022922 0.029335 0.248261
 18 -2.757506 36.381699 28.680763 0.240593 0.003610 -0.042174
 19 -0.380095 -2.640921 16.751839 0.000000 -0.000000 0.000000
 20 7.187247 -0.460705 16.472290 0.005544 -0.149738 0.186040
 21 12.896103 3.303358 -12.884903 -0.291112 0.015235 -0.081012
 22 9.818134 -2.393091 -11.768448 -0.280533 0.016352 -0.156232
 23 11.684982 2.308931 -7.513317 -0.000000 -0.000000 0.000000
 24 3.667336 0.402561 -5.537418 0.000000 -0.000000 0.000000
 25 -8.155170 -0.644957 16.761330 0.002102 -0.059460 0.137714
 26 -12.364451 3.544241 -13.402779 0.095909 0.466928 0.168455
 27 -10.403896 -2.206009 -11.274464 -0.086427 0.127824 0.193462
 28 -3.567741 0.641575 -8.254753 0.014458 -0.004616 0.008585
 29 -16.089005 -105.559082 -25.635803 0.000000 -0.000000 0.000000
 30 -3.127525 0.571329 -6.062374 0.000000 -0.000000 0.000000
 31 -0.040495 -0.674471 8.862854 0.000000 -0.000000 0.000000
 32 0.289211 3.291785 167.749756 0.000000 -0.000000 0.000000
 33 0.000000 0.000000 0.000000 0.000000 -0.000000 0.000000
time 23
  0 -1.005915 2.634505 0.937462 0.000000 -0.000000 0.000000
  1 -1.005915 2.634505 0.937462 0.000000 -0.000000 0.000000
  2 -1.005915 2.634505 0.937462 0.000000 -0.000000 0.000000
  3 0.000000 -0.072796 74.257698 0.017453 -0.000000 0.000000
  4 0.325039 0.314665 -2.968964 -0.052360 0.000000 0.000000
  5 6.206746 -0.124160 -11.733646 -0.257520 -0.150917 0.065496
  6 2.955698 1.729822 -23.848042 1.047196 0.000000 -0.000000
  7 0.292416 0.418320 -30.938555 -0.366519 0.000000 0.000000
  8 0.025497 -3.137411 -3.970852 0.000000 -0.000000 0.000000
  9 -6.833119 -0.124160 -11.733646 -0.214899 0.102312 -0.210845
 10 -3.240683 1.520660 -23.848038 0.767945 0.000000 0.000000
 11 -0.355307 0.627481 -30.760899 -0.296706 -0.000000 0.000000
 12 0.209673 -3.137413 -4.537351 0.000000 -0.000000 0.000000
 13 -0.336471 18.320858 -10.789921 0.155073 0.000853 -0.025247
 14 0.011433 14.669041 -0.377857 -0.293864 0.020374 0.168145
 15 0.210527 25.621651 6.087181 0.345431 -0.033492 0.192512
 16 0.325039 0.293945 3.930443 -0.069643 -0.034827 -0.083638
 17 -0.409779 2.182660 26.434914 -0.023223 0.018608 0.236280
 18 -2.795876 36.324471 29.409302 0.240593 0.003610 -0.042174
 19 -0.380095 -2.640920 16.751846 0.000000 -0.000000 0.000000
 20 7.187248 -0.460705 16.472298 0.005405 -0.148354 0.160516
 21 12.896101 3.303358 -12.884903 -0.279187 0.015052 -0.073804
 22 9.818134 -2.393089 -11.768456 -0.280533 0.016352 -0.156232
 23 11.684982 2.308933 -7.513321 0.000000 -0.000000 0.000000
 24 3.667336 0.402565 -5.537415 0.000000 -0.000000 0.000000
 25 -8.155170 -0.644957 16.761330 0.001980 -0.059006 0.130232
 26 -12.364452 3.544241 -13.402786 0.093861 0.468730 0.139187
 27 -10.403896 -2.206009 -11.274467 -0.086427 0.127825 0.193462
 28 -3.567749 0.641574 -8.254753 0.014458 -0.004616 0.008585
 29 -16.089012 -105.559029 -25.635799 0.000000 -0.000000 0.000000
 30 -3.127533 0.571330 -6.062382 0.000000 -0.000000 0.000000
 31 -0.040495 -0.674471 8.862854 0.000000 -0.000000 0.000000
 32 0.289211 3.291785 167.749756 0.000000 -0.000000 0.000000
 33 0.000000 0.000000 0.000000 0.000000 -0.000000 0.000000
time 24
  0 -1.005915 2.634505 0.937462 0.000000 -0.000000 0.000000
  1 -1.005915 2.634505 0.937462 0.000000 -0.000000 0.000000
  2 -1.005915 2.634505 0.937462 0.000000 -0.000000 0.000000
  3 0.000000 0.109060 74.257698 0.017453 -0.000000 0.000000
  4 0.325039 0.314665 -2.968964 -0.052360 0.000000 0.000000
  5 6.206746 -0.124160 -11.733646 -0.273456 -0.149856 0.067889
  6 2.955698 1.729821 -23.848042 1.047196 -0.000000 -0.000000
  7 0.292414 0.418314 -30.938547 -0.366519 -0.000000 0.000000
  8 0.025499 -3.137413 -3.970853 0.000000 -0.000000 0.000000
  9 -6.833119 -0.124160 -11.733646 -0.211132 0.103117 -0.210465
 10 -3.240682 1.520659 -23.848038 0.767945 0.000000 0.000000
 11 -0.355307 0.627484 -30.760899 -0.296706 -0.000000 0.000000
 12 0.209673 -3.137412 -4.537350 0.000000 -0.000000 0.000000
 13 -0.336471 18.320860 -10.789921 0.155052 0.003240 -0.094935
 14 0.011433 14.669044 -0.377857 -0.294434 0.016285 0.134395
 15 0.210527 25.621651 6.087189 0.346221 -0.027197 0.156325
 16 0.325039 0.298186 4.173454 -0.069653 -0.038238 -0.066391
 17 -0.409780 2.182660 26.434906 -0.023525 0.007802 0.224209
 18 -2.833564 36.268257 30.124901 0.240593 0.003610 -0.042174
 19 -0.380096 -2.640919 16.751839 0.000000 -0.000000 0.000000
 20 7.187248 -0.460705 16.472298 0.005181 -0.146692 0.129846
 21 12.896099 3.303357 -12.884903 -0.261109 0.014605 -0.062877
 22 9.818138 -2.393091 -11.768448 -0.280533 0.016352 -0.156232
 23 11.684982 2.308937 -7.513321 0.000000 -0.000000 0.000000
 24 3.667336 0.402561 -5.537415 0.000000 -0.000000 0.000000
 25 -8.155170 -0.644956 16.761322 0.001828 -0.058439 0.120410
 26 -12.364450 3.544241 -13.402786 0.091868 0.470485 0.110689
 27 -10.403900 -2.206009 -11.274464 -0.086427 0.127825 0.193462
 28 -3.567749 0.641575 -8.254753 0.014458 -0.004616 0.008585
 29 -16.088997 -105.559059 -25.635818 0.000000 -0.000000 0.000000
 30 -3.127518 0.571329 -6.062386 0.000000 -0.000000 0.000000
 31 -0.040494 -0.674471 8.862854 0.000000 -0.000000 0.000000
 32 0.289211 3.291785 167.749756 0.000000 -0.000000 0.000000
 33 0.000000 0.000000 0.000000 0.000000 -0.000000 0.000000
time 25
  0 -1.005915 2.634505 0.937462 0.000000 -0.000000 0.000000
  1 -1.005915 2.634505 0.937462 0.000000 -0.000000 0.000000
  2 -1.005915 2.634505 0.937462 0.000000 -0.000000 0.000000
  3 0.000000 0.285515 74.257698 0.017453 -0.000000 0.000000
  4 0.325039 0.314665 -2.968964 -0.052360 0.000000 0.000000
  5 6.206746 -0.124160 -11.733646 -0.290854 -0.148674 0.070487
  6 2.955700 1.729821 -23.848038 1.047196 0.000000 -0.000000
  7 0.292414 0.418316 -30.938553 -0.366519 -0.000000 0.000000
  8 0.025497 -3.137413 -3.970851 0.000000 -0.000000 0.000000
  9 -6.833119 -0.124160 -11.733646 -0.206946 0.104003 -0.210030
 10 -3.240683 1.520660 -23.848038 0.767945 0.000000 0.000000
 11 -0.355305 0.627481 -30.760899 -0.296706 -0.000000 0.000000
 12 0.209671 -3.137413 -4.537351 0.000000 -0.000000 0.000000
 13 -0.336471 18.320860 -10.789917 0.155032 0.005513 -0.161296
 14 0.011432 14.669048 -0.377857 -0.295001 0.012223 0.100872
 15 0.210528 25.621655 6.087181 0.346969 -0.020685 0.118898
 16 0.325039 0.302350 4.411964 -0.069665 -0.041572 -0.049759
 17 -0.409780 2.182660 26.434914 -0.023818 -0.002618 0.212569
 18 -2.869196 36.215122 30.801559 0.240593 0.003610 -0.042174
 19 -0.380095 -2.640919 16.751846 0.000000 -0.000000 0.000000
 20 7.187248 -0.460706 16.472305 0.004853 -0.144893 0.096663
 21 12.896105 3.303357 -12.884895 -0.239265 0.013779 -0.049674
 22 9.818138 -2.393089 -11.768440 -0.280533 0.016352 -0.156232
 23 11.684982 2.308931 -7.513321 -0.000000 -0.000000 0.000000
 24 3.667336 0.402563 -5.537415 0.000000 -0.000000 0.000000
 25 -8.155169 -0.644957 16.761330 0.001644 -0.057750 0.107928
 26 -12.364450 3.544240 -13.402786 0.089995 0.472133 0.083926
 27 -10.403893 -2.206010 -11.274460 -0.086427 0.127824 0.193462
 28 -3.567741 0.641573 -8.254745 0.014458 -0.004616 0.008585
 29 -16.089012 -105.559036 -25.635807 0.000000 -0.000000 0.000000
 30 -3.127525 0.571330 -6.062370 0.000000 -0.000000 0.000000
 31 -0.040494 -0.674471 8.862854 0.000000 -0.000000 0.000000
 32 0.289211 3.291785 167.749756 0.000000 -0.000000 0.000000
 33 0.000000 0.000000 0.000000 0.000000 -0.000000 0.000000
time 26
  0 -1.005915 2.634505 0.937462 0.000000 -0.000000 0.000000
  1 -1.005915 2.634505 0.937462 0.000000 -0.000000 0.000000
  2 -1.005915 2.634505 0.937462 0.000000 -0.000000 0.000000
  3 0.000000 0.448340 74.257698 0.017453 -0.000000 0.000000
  4 0.325039 0.314665 -2.968964 -0.052360 0.000000 0.000000
  5 6.206746 -0.124160 -11.733646 -0.309108 -0.147403 0.073195
  6 2.955698 1.729822 -23.848045 1.047196 -0.000000 0.000000
  7 0.292416 0.418312 -30.938549 -0.366519 -0.000000 0.000000
  8 0.025497 -3.137413 -3.970852 0.000000 -0.000000 0.000000
  9 -6.833119 -0.124160 -11.733646 -0.202333 0.104971 -0.209538
 10 -3.240683 1.520660 -23.848042 0.767945 0.000000 0.000000
 11 -0.355309 0.627481 -30.760897 -0.296706 0.000000 0.000000
 12 0.209671 -3.137414 -4.537350 0.000000 -0.000000 0.000000
 13 -0.336471 18.320860 -10.789921 0.155014 0.007579 -0.221636
 14 0.011432 14.669046 -0.377853 -0.295534 0.008407 0.069385
 15 0.210527 25.621658 6.087189 0.347647 -0.014390 0.082712
 16 0.325039 0.306225 4.633987 -0.069679 -0.044693 -0.034486
 17 -0.409780 2.182660 26.434906 -0.024086 -0.012188 0.201880
 18 -2.901418 36.167061 31.413368 0.240593 0.003610 -0.042174
 19 -0.380095 -2.640919 16.751839 0.000000 -0.000000 0.000000
 20 7.187248 -0.460706 16.472290 0.004403 -0.143101 0.063604
 21 12.896103 3.303357 -12.884911 -0.216042 0.012461 -0.035638
 22 9.818142 -2.393089 -11.768448 -0.280533 0.016352 -0.156232
 23 11.684986 2.308935 -7.513325 -0.000000 -0.000000 0.000000
 24 3.667339 0.402567 -5.537418 0.000000 -0.000000 0.000000
 25 -8.155171 -0.644956 16.761314 0.001425 -0.056927 0.092470
 26 -12.364455 3.544241 -13.402779 0.088312 0.473614 0.059863
 27 -10.403893 -2.206009 -11.274460 -0.086427 0.127825 0.193462
 28 -3.567741 0.641574 -8.254753 0.014458 -0.004616 0.008585
 29 -16.089005 -105.559036 -25.635805 0.000000 -0.000000 0.000000
 30 -3.127525 0.571330 -6.062378 0.000000 -0.000000 0.000000
 31 -0.040494 -0.674471 8.862854 0.000000 -0.000000 0.000000
 32 0.289211 3.291785 167.749756 0.000000 -0.000000 0.000000
 33 0.000000 0.000000 0.000000 0.000000 -0.000000 0.000000
time 27
  0 -1.005915 2.634505 0.937462 0.000000 -0.000000 0.000000
  1 -1.005915 2.634505 0.937462 0.000000 -0.000000 0.000000
  2 -1.005915 2.634505 0.937462 0.000000 -0.000000 0.000000
  3 0.000000 0.589307 74.257698 0.017453 -0.000000 0.000000
  4 0.325039 0.314665 -2.968964 -0.052360 0.000000 0.000000
  5 6.206746 -0.124160 -11.733646 -0.327611 -0.146076 0.075915
  6 2.955698 1.729820 -23.848045 1.047196 -0.000000 -0.000000
  7 0.292416 0.418312 -30.938551 -0.366519 0.000000 0.000000
  8 0.025497 -3.137414 -3.970853 0.000000 -0.000000 0.000000
  9 -6.833119 -0.124160 -11.733646 -0.197288 0.106021 -0.208984
 10 -3.240685 1.520660 -23.848038 0.767945 0.000000 0.000000
 11 -0.355307 0.627480 -30.760899 -0.296706 -0.000000 0.000000
 12 0.209673 -3.137414 -4.537350 0.000000 -0.000000 0.000000
 13 -0.336471 18.320860 -10.789921 0.154999 0.009347 -0.273258
 14 0.011432 14.669044 -0.377853 -0.296001 0.005058 0.041744
 15 0.210527 25.621651 6.087181 0.348224 -0.008742 0.050248
 16 0.325039 0.309604 4.827553 -0.069696 -0.047465 -0.021313
 17 -0.409779 2.182660 26.434906 -0.024317 -0.020442 0.192660
 18 -2.928854 36.126144 31.934372 0.240593 0.003610 -0.042174
 19 -0.380095 -2.640920 16.751839 0.000000 -0.000000 0.000000
 20 7.187246 -0.460705 16.472298 0.003813 -0.141458 0.033304
 21 12.896103 3.303357 -12.884911 -0.193825 0.010537 -0.022210
 22 9.818134 -2.393089 -11.768456 -0.280533 0.016352 -0.156232
 23 11.684982 2.308937 -7.513317 -0.000000 -0.000000 0.000000
 24 3.667336 0.402565 -5.537411 0.000000 -0.000000 0.000000
 25 -8.155171 -0.644956 16.761322 0.001168 -0.055959 0.073719
 26 -12.364452 3.544240 -13.402794 0.086885 0.474870 0.039467
 27 -10.403900 -2.206008 -11.274460 -0.086427 0.127825 0.193462
 28 -3.567738 0.641575 -8.254745 0.014458 -0.004616 0.008585
 29 -16.088989 -105.559052 -25.635811 0.000000 -0.000000 0.000000
 30 -3.127522 0.571331 -6.062374 0.000000 -0.000000 0.000000
 31 -0.040494 -0.674471 8.862854 0.000000 -0.000000 0.000000
 32 0.289211 3.291785 167.749756 0.000000 -0.000000 0.000000
 33 0.000000 0.000000 0.000000 0.000000 -0.000000 0.000000
time 28
  0 -1.005915 2.634505 0.937462 0.000000 -0.000000 0.000000
  1 -1.005915 2.634505 0.937462 0.000000 -0.000000 0.000000
  2 -1.005915 2.634505 0.937462 0.000000 -0.000000 0.000000
  3 0.000000 0.700186 74.257698 0.017453 -0.000000 0.000000
  4 0.325039 0.314665 -2.968964 -0.052360 0.000000 0.000000
  5 6.206746 -0.124160 -11.733646 -0.345756 -0.144725 0.078553
  6 2.955698 1.729824 -23.848045 1.047196 -0.000000 0.000000
  7 0.292418 0.418312 -30.938551 -0.366519 0.000000 0.000000
  8 0.025497 -3.137413 -3.970852 0.000000 -0.000000 0.000000
  9 -6.833119 -0.124160 -11.733646 -0.191805 0.107152 -0.208365
 10 -3.240683 1.520661 -23.848045 0.767945 0.000000 0.000000
 11 -0.355307 0.627474 -30.760900 -0.296706 0.000000 0.000000
 12 0.209673 -3.137413 -4.537350 0.000000 -0.000000 0.000000
 13 -0.336471 18.320862 -10.789921 0.154987 0.010724 -0.313468
 14 0.011433 14.669043 -0.377850 -0.296373 0.002394 0.019760
 15 0.210527 25.621651 6.087189 0.348672 -0.004173 0.023987
 16 0.325039 0.312276 4.980644 -0.069716 -0.049752 -0.010984
 17 -0.409780 2.182660 26.434906 -0.024498 -0.026913 0.185431
 18 -2.950149 36.094398 32.338654 0.240593 0.003610 -0.042174
 19 -0.380095 -2.640918 16.751846 0.000000 -0.000000 0.000000
 20 7.187248 -0.460706 16.472290 0.003065 -0.140108 0.008398
 21 12.896099 3.303356 -12.884903 -0.175002 0.007895 -0.010833
 22 9.818134 -2.393091 -11.768440 -0.280533 0.016352 -0.156232
 23 11.684986 2.308933 -7.513321 0.000000 -0.000000 0.000000
 24 3.667339 0.402563 -5.537411 0.000000 -0.000000 0.000000
 25 -8.155170 -0.644956 16.761322 0.000871 -0.054835 0.051355
 26 -12.364450 3.544240 -13.402779 0.085782 0.475841 0.023703
 27 -10.403900 -2.206008 -11.274460 -0.086427 0.127825 0.193462
 28 -3.567749 0.641575 -8.254749 0.014458 -0.004616 0.008585
 29 -16.088997 -105.559044 -25.635811 0.000000 -0.000000 0.000000
 30 -3.127525 0.571330 -6.062374 0.000000 -0.000000 0.000000
 31 -0.040494 -0.674471 8.862846 0.000000 -0.000000 0.000000
 32 0.289211 3.291785 167.749756 0.000000 -0.000000 0.000000
 33 0.000000 0.000000 0.000000 0.000000 -0.000000 0.000000
time 29
  0 -1.005915 2.634505 0.937462 0.000000 -0.000000 0.000000
  1 -1.005915 2.634505 0.937462 0.000000 -0.000000 0.000000
  2 -1.005915 2.634505 0.937462 0.000000 -0.000000 0.000000
  3 0.000000 0.772748 74.257698 0.017453 -0.000000 0.000000
  4 0.325039 0.314665 -2.968964 -0.052360 0.000000 0.000000
  5 6.206746 -0.124160 -11.733646 -0.362938 -0.143382 0.081012
  6 2.955699 1.729820 -23.848045 1.047196 0.000000 -0.000000
  7 0.292416 0.418310 -30.938549 -0.366519 0.000000 0.000000
  8 0.025499 -3.137414 -3.970852 0.000000 -0.000000 0.000000
  9 -6.833119 -0.124160 -11.733646 -0.185875 0.108364 -0.207680
 10 -3.240683 1.520660 -23.848038 0.767945 0.000000 0.000000
 11 -0.355307 0.627481 -30.760899 -0.296706 -0.000000 0.000000
 12 0.209673 -3.137413 -4.537350 0.000000 -0.000000 0.000000
 13 -0.336471 18.320858 -10.789921 0.154979 0.011618 -0.339571
 14 0.011434 14.669044 -0.377853 -0.296618 0.000635 0.005242
 15 0.210532 25.621651 6.087181 0.348962 -0.001115 0.006410
 16 0.325039 0.314034 5.081291 -0.069739 -0.051419 -0.004242
 17 -0.409779 2.182659 26.434906 -0.024617 -0.031138 0.180713
 18 -2.963924 36.073845 32.600227 0.240593 0.003610 -0.042174
 19 -0.380095 -2.640920 16.751839 0.000000 -0.000000 0.000000
 20 7.187248 -0.460706 16.472290 0.002140 -0.139193 -0.008478
 21 12.896099 3.303357 -12.884895 -0.161958 0.004420 -0.002949
 22 9.818138 -2.393090 -11.768448 -0.280533 0.016352 -0.156232
 23 11.684982 2.308933 -7.513321 -0.000000 -0.000000 0.000000
 24 3.667336 0.402561 -5.537411 0.000000 -0.000000 0.000000
 25 -8.155170 -0.644957 16.761322 0.000530 -0.053543 0.025062
 26 -12.364452 3.544241 -13.402786 0.085071 0.476467 0.013537
 27 -10.403893 -2.206010 -11.274460 -0.086427 0.127825 0.193462
 28 -3.567741 0.641574 -8.254745 0.014458 -0.004616 0.008585
 29 -16.088997 -105.559029 -25.635817 0.000000 -0.000000 0.000000
 30 -3.127525 0.571330 -6.062374 0.000000 -0.000000 0.000000
 31 -0.040494 -0.674472 8.862846 0.000000 -0.000000 0.000000
 32 0.289211 3.291785 167.749756 0.000000 -0.000000 0.000000
 33 0.000000 0.000000 0.000000 0.000000 -0.000000 0.000000
time 30
  0 -1.005915 2.634505 0.937462 0.000000 -0.000000 0.000000
  1 -1.005915 2.634505 0.937462 0.000000 -0.000000 0.000000
  2 -1.005915 2.634505 0.937462 0.000000 -0.000000 0.000000
  3 0.000000 0.798765 74.257698 0.017453 -0.000000 0.000000
  4 0.325039 0.314665 -2.968964 -0.052360 0.000000 0.000000
  5 6.206746 -0.124160 -11.733646 -0.378549 -0.142079 0.083197
  6 2.955698 1.729822 -23.848045 1.047196 0.000000 -0.000000
  7 0.292416 0.418314 -30.938551 -0.366519 -0.000000 0.000000
  8 0.025499 -3.137413 -3.970852 0.000000 -0.000000 0.000000
  9 -6.833119 -0.124160 -11.733646 -0.179494 0.109658 -0.206924
 10 -3.240683 1.520659 -23.848038 0.767945 0.000000 0.000000
 11 -0.355307 0.627480 -30.760899 -0.296706 0.000000 0.000000
 12 0.209673 -3.137410 -4.537350 0.000000 -0.000000 0.000000
 13 -0.336471 18.320860 -10.789921 0.154976 0.011937 -0.348870
 14 0.011434 14.669048 -0.377853 -0.296707 0.000000 0.000000
 15 0.210527 25.621655 6.087189 0.349066 -0.000000 0.000000
 16 0.325039 0.314665 5.117516 -0.069765 -0.052328 -0.001829
 17 -0.409779 2.182659 26.434914 -0.024659 -0.032649 0.179025
 18 -2.968820 36.066540 32.693199 0.240593 0.003610 -0.042174
 19 -0.380095 -2.640920 16.751846 0.000000 -0.000000 0.000000
 20 7.187247 -0.460706 16.472298 0.001021 -0.138856 -0.014689
 21 12.896101 3.303357 -12.884903 -0.157080 0.000000 -0.000000
 22 9.818138 -2.393088 -11.768448 -0.280533 0.016352 -0.156232
 23 11.684982 2.308933 -7.513317 -0.000000 -0.000000 0.000000
 24 3.667336 0.402565 -5.537415 0.000000 -0.000000 0.000000
 25 -8.155170 -0.644957 16.761322 0.000143 -0.052073 -0.005478
 26 -12.364450 3.544240 -13.402786 0.084819 0.476689 0.009933
 27 -10.403896 -2.206010 -11.274460 -0.086427 0.127825 0.193462
 28 -3.567745 0.641573 -8.254753 0.014458 -0.004616 0.008585
 29 -16.088989 -105.559074 -25.635813 0.000000 -0.000000 0.000000
 30 -3.127522 0.571329 -6.062378 0.000000 -0.000000 0.000000
 31 -0.040495 -0.674471 8.862862 0.000000 -0.000000 0.000000
 32 0.289211 3.291785 167.749756 0.000000 -0.000000 0.000000
 33 0.000000 0.000000 0.000000 0.000000 -0.000000 0.000000
end
