version 1
nodes
  0 "bone36"  -1
  1 "bone37"  -1
  2 "bone39"  -1
  3 "bone21"   2
  4 "bone20"   3
  5 "bone07"   4
  6 "bone22"   5
  7 "bone18"   6
  8 "bone25"   7
  9 "bone14"   4
 10 "bone16"   9
 11 "bone19"  10
 12 "bone24"  11
 13 "bone01"   4
 14 "bone15"  13
 15 "bone001"  14
 16 "bone17"  13
 17 "bone38"  16
 18 "bone03"   3
 19 "bone06"  18
 20 "bone13"  19
 21 "bone12"  20
 22 "bone26"  19
 23 "bone08"  18
 24 "bone05"  23
 25 "bone09"  24
 26 "bone11"  25
 27 "bone29"  26
 28 "bone30"  25
 29 "bone02"  18
 30 "bone04"  29
 31 "bone10"  30
 32 "bone31"  31
 33 "bone32"  18
 34 "bone34"   2
end
skeleton
time 0
  0 -2.629148 1.415440 -0.352036 0.000000 -0.000000 0.000000
  1 -2.629148 1.415440 -0.352036 0.000000 -0.000000 0.000000
  2 -2.629148 1.415440 -0.352036 0.000000 -0.000000 0.000000
  3 0.000000 -0.687185 97.839333 0.034907 0.000000 0.000000
  4 0.000000 0.440305 -2.731789 -0.034906 0.000000 -0.000000
  5 -8.065217 -1.301253 -17.282547 -0.117611 0.103397 -0.142897
  6 -0.883781 2.065766 -34.200714 0.436331 -0.000000 0.000000
  7 -1.767048 1.039484 -33.503738 -0.292388 -0.049164 -0.003695
  8 0.410545 -3.053423 -6.308686 0.000000 -0.000000 0.000000
  9 8.638525 -0.139325 -16.633003 -0.068305 -0.155899 -0.019300
 10 1.058079 0.932504 -35.061913 0.349312 0.031101 0.015853
 11 1.221043 1.156215 -33.292107 -0.260399 0.006793 0.020443
 12 0.085375 -3.198826 -6.249954 0.000000 -0.000000 0.000000
 13 0.213274 2.786515 7.572433 -0.017453 0.000000 0.000000
 14 -2.904730 0.818863 2.596077 -0.005554 0.011115 -0.721635
 15 3.765302 -0.266407 -105.303291 0.017445 -0.006626 0.385211
 16 1.233751 0.818863 2.596077 -0.001934 -0.002908 0.204006
 17 -2.736665 -0.542176 -105.309494 0.017471 0.007558 -0.441260
 18 0.000000 -0.179234 2.752571 -0.226892 0.000000 0.000001
 19 0.749370 -1.299137 28.624321 0.244345 -0.000000 0.000000
 20 -0.383533 17.841385 -5.153099 -0.174533 0.000000 -0.000000
 21 0.341385 5.572280 -21.207748 -0.174532 0.000000 -0.000000
 22 -1.270981 0.784905 10.690918 0.000000 -0.000000 0.000000
 23 -8.160084 -0.723730 19.345650 0.366547 0.017132 0.003330
 24 -15.198616 0.466469 -18.278648 -0.639340 0.212496 0.456580
 25 -8.028435 -4.482504 -11.667099 -0.271619 0.244372 -0.041531
 26 -1.668770 -2.144653 -6.538006 0.052020 0.091792 0.093927
 27 35.457291 5.719505 -83.014793 0.000000 -0.000000 0.000000
 28 -3.175091 -2.066467 -5.742233 0.000000 -0.000000 0.000000
 29 9.450655 -0.516975 19.516205 0.297948 0.295893 -0.150448
 30 14.230845 0.232841 -18.395630 -1.073499 -0.618246 -1.108255
 31 8.015636 -4.458900 -11.817970 -0.088245 -0.076199 -0.105809
 32 2.087151 -1.667404 -5.327336 0.000000 -0.000000 0.000000
 33 0.319299 -0.756851 2.981499 0.000000 -0.000000 0.000000
 34 -2.465699 3.693841 194.748917 0.000000 -0.000000 0.000000
time 1
  0 -2.629148 1.415440 -0.352036 0.000000 -0.000000 0.000000
  1 -2.629148 1.415440 -0.352036 0.000000 -0.000000 0.000000
  2 -2.629148 1.415440 -0.352036 0.000000 -0.000000 0.000000
  3 0.000000 -0.660148 97.843857 0.034907 0.000000 0.000000
  4 0.000000 0.440305 -2.731789 -0.034906 0.000000 -0.000000
  5 -8.065217 -1.301253 -17.282547 -0.121012 0.103360 -0.143206
  6 -0.883780 2.065767 -34.200714 0.435293 -0.000120 -0.000243
  7 -1.767046 1.039487 -33.503742 -0.290604 -0.048838 -0.003589
  8 0.410545 -3.053426 -6.308688 0.000000 -0.000000 0.000000
  9 8.638525 -0.139325 -16.633003 -0.067438 -0.155879 -0.020267
 10 1.058079 0.932504 -35.061924 0.349076 0.031009 0.015118
 11 1.221046 1.156223 -33.292099 -0.259399 0.006737 0.020274
 12 0.085373 -3.198824 -6.249951 0.000000 -0.000000 0.000000
 13 0.213274 2.786515 7.572433 -0.017453 0.000000 0.000000
 14 -2.904730 0.818863 2.596085 -0.006037 0.011199 -0.741708
 15 3.765301 -0.266406 -105.303284 0.017445 -0.006626 0.385211
 16 1.233751 0.818863 2.596085 -0.001991 -0.003038 0.212219
 17 -2.736665 -0.542176 -105.309502 0.017471 0.007558 -0.441260
 18 0.000000 -0.189276 2.733009 -0.226419 0.000000 0.000001
 19 0.749370 -1.299135 28.624313 0.244345 -0.000000 0.000000
 20 -0.383533 17.841385 -5.153099 -0.174533 0.000000 0.000000
 21 0.341385 5.572281 -21.207764 -0.174532 0.000000 -0.000000
 22 -1.270981 0.784905 10.690918 0.000000 -0.000000 0.000000
 23 -8.160084 -0.723730 19.345650 0.365180 0.017174 0.003306
 24 -15.198615 0.466469 -18.278648 -0.664880 0.221799 0.456012
 25 -8.028431 -4.482510 -11.667107 -0.271619 0.244372 -0.041531
 26 -1.668774 -2.144657 -6.538006 0.052020 0.091792 0.093927
 27 35.457294 5.719486 -83.014816 0.000000 -0.000000 0.000000
 28 -3.175095 -2.066467 -5.742233 0.000000 -0.000000 0.000000
 29 9.450655 -0.516975 19.516205 0.294655 0.295267 -0.157870
 30 14.230846 0.232843 -18.395622 -1.076644 -0.621254 -1.140846
 31 8.015636 -4.458900 -11.817974 -0.087211 -0.075144 -0.110582
 32 2.087147 -1.667404 -5.327335 0.000000 -0.000000 0.000000
 33 0.319299 -0.756849 2.981499 0.000000 -0.000000 0.000000
 34 -2.465699 3.693841 194.748917 0.000000 -0.000000 0.000000
time 2
  0 -2.629148 1.415440 -0.352036 0.000000 -0.000000 0.000000
  1 -2.629148 1.415440 -0.352036 0.000000 -0.000000 0.000000
  2 -2.629148 1.415440 -0.352036 0.000000 -0.000000 0.000000
  3 0.000000 -0.583334 97.856705 0.034907 0.000000 0.000000
  4 0.000000 0.440305 -2.731789 -0.034906 0.000000 -0.000000
  5 -8.065217 -1.301253 -17.282547 -0.123938 0.103258 -0.143477
  6 -0.883781 2.065765 -34.200714 0.432427 -0.000449 -0.000915
  7 -1.767050 1.039487 -33.503738 -0.285588 -0.047923 -0.003291
  8 0.410545 -3.053423 -6.308686 0.000000 -0.000000 0.000000
  9 8.638525 -0.139325 -16.633003 -0.065019 -0.155823 -0.021212
 10 1.058081 0.932503 -35.061909 0.348406 0.030750 0.013037
 11 1.221046 1.156222 -33.292103 -0.256545 0.006577 0.019791
 12 0.085375 -3.198828 -6.249952 0.000000 -0.000000 0.000000
 13 0.213274 2.786515 7.572433 -0.017453 0.000000 0.000000
 14 -2.904730 0.818863 2.596077 -0.006588 0.011430 -0.771801
 15 3.765302 -0.266407 -105.303268 0.017445 -0.006626 0.385211
 16 1.233751 0.818863 2.596077 -0.002149 -0.003399 0.234925
 17 -2.736665 -0.542176 -105.309509 0.017471 0.007558 -0.441260
 18 0.000000 -0.198200 2.677635 -0.225073 0.000000 0.000001
 19 0.749370 -1.299137 28.624329 0.244345 -0.000000 0.000000
 20 -0.383533 17.841385 -5.153107 -0.174533 0.000000 -0.000000
 21 0.341385 5.572281 -21.207748 -0.174532 0.000000 -0.000000
 22 -1.270980 0.784904 10.690887 0.000000 -0.000000 0.000000
 23 -8.160085 -0.723730 19.345650 0.361335 0.017211 0.003240
 24 -15.198616 0.466473 -18.278648 -0.688091 0.230609 0.454408
 25 -8.028435 -4.482506 -11.667107 -0.271619 0.244372 -0.041531
 26 -1.668774 -2.144653 -6.538006 0.052020 0.091792 0.093927
 27 35.457291 5.719513 -83.014786 0.000000 -0.000000 0.000000
 28 -3.175091 -2.066467 -5.742233 0.000000 -0.000000 0.000000
 29 9.450655 -0.516975 19.516212 0.285322 0.293494 -0.165276
 30 14.230846 0.232841 -18.395638 -1.079552 -0.624031 -1.170363
 31 8.015636 -4.458900 -11.817974 -0.084266 -0.072141 -0.115252
 32 2.087151 -1.667404 -5.327336 0.000000 -0.000000 0.000000
 33 0.319299 -0.756849 2.981499 0.000000 -0.000000 0.000000
 34 -2.465699 3.693841 194.748917 0.000000 -0.000000 0.000000
time 3
  0 -2.629148 1.415440 -0.352036 0.000000 -0.000000 0.000000
  1 -2.629148 1.415440 -0.352036 0.000000 -0.000000 0.000000
  2 -2.629148 1.415440 -0.352036 0.000000 -0.000000 0.000000
  3 0.000000 -0.463193 97.876808 0.034907 0.000000 0.000000
  4 0.000000 0.440305 -2.731789 -0.034906 0.000000 -0.000000
  5 -8.065217 -1.301253 -17.282547 -0.126423 0.103101 -0.143714
  6 -0.883781 2.065766 -34.200714 0.428106 -0.000946 -0.001929
  7 -1.767050 1.039487 -33.503742 -0.277842 -0.046511 -0.002831
  8 0.410545 -3.053425 -6.308687 0.000000 -0.000000 0.000000
  9 8.638525 -0.139325 -16.633003 -0.061327 -0.155738 -0.022126
 10 1.058079 0.932503 -35.061909 0.347362 0.030346 0.009792
 11 1.221041 1.156231 -33.292103 -0.252061 0.006324 0.019032
 12 0.085375 -3.198825 -6.249953 0.000000 -0.000000 0.000000
 13 0.213274 2.786515 7.572433 -0.017453 0.000000 0.000000
 14 -2.904730 0.818863 2.596069 -0.007185 0.011780 -0.809673
 15 3.765302 -0.266406 -105.303284 0.017445 -0.006626 0.385211
 16 1.233752 0.818863 2.596069 -0.002387 -0.003943 0.269227
 17 -2.736665 -0.542176 -105.309502 0.017471 0.007558 -0.441260
 18 0.000000 -0.206069 2.591499 -0.222963 0.000000 0.000001
 19 0.749370 -1.299137 28.624329 0.244345 -0.000000 0.000000
 20 -0.383533 17.841385 -5.153099 -0.174533 0.000000 0.000000
 21 0.341385 5.572281 -21.207764 -0.174532 0.000000 -0.000000
 22 -1.270981 0.784904 10.690887 0.000000 -0.000000 0.000000
 23 -8.160085 -0.723732 19.345650 0.355399 0.017243 0.003138
 24 -15.198615 0.466467 -18.278648 -0.709067 0.238907 0.451921
 25 -8.028435 -4.482510 -11.667107 -0.271619 0.244372 -0.041531
 26 -1.668770 -2.144653 -6.538006 0.052020 0.091792 0.093927
 27 35.457302 5.719517 -83.014801 0.000000 -0.000000 0.000000
 28 -3.175095 -2.066467 -5.742233 0.000000 -0.000000 0.000000
 29 9.450655 -0.516975 19.516205 0.270770 0.290730 -0.172608
 30 14.230844 0.232843 -18.395615 -1.082232 -0.626583 -1.196958
 31 8.015633 -4.458893 -11.817972 -0.079650 -0.067432 -0.119799
 32 2.087151 -1.667404 -5.327335 0.000000 -0.000000 0.000000
 33 0.319298 -0.756853 2.981514 0.000000 -0.000000 0.000000
 34 -2.465699 3.693841 194.748917 0.000000 -0.000000 0.000000
time 4
  0 -2.629148 1.415440 -0.352036 0.000000 -0.000000 0.000000
  1 -2.629148 1.415440 -0.352036 0.000000 -0.000000 0.000000
  2 -2.629148 1.415440 -0.352036 0.000000 -0.000000 0.000000
  3 0.000000 -0.306174 97.903076 0.034907 0.000000 0.000000
  4 0.000000 0.440305 -2.731789 -0.034906 0.000000 -0.000000
  5 -8.065217 -1.301253 -17.282547 -0.128505 0.102899 -0.143918
  6 -0.883781 2.065766 -34.200722 0.422702 -0.001568 -0.003196
  7 -1.767048 1.039485 -33.503742 -0.267872 -0.044692 -0.002239
  8 0.410547 -3.053424 -6.308687 0.000000 -0.000000 0.000000
  9 8.638525 -0.139325 -16.633003 -0.056639 -0.155629 -0.022999
 10 1.058081 0.932503 -35.061901 0.346002 0.029820 0.005566
 11 1.221046 1.156227 -33.292099 -0.246168 0.005993 0.018034
 12 0.085379 -3.198826 -6.249954 0.000000 -0.000000 0.000000
 13 0.213274 2.786515 7.572433 -0.017453 0.000000 0.000000
 14 -2.904730 0.818863 2.596077 -0.007809 0.012219 -0.853081
 15 3.765301 -0.266407 -105.303276 0.017445 -0.006626 0.385211
 16 1.233752 0.818863 2.596077 -0.002686 -0.004626 0.312224
 17 -2.736665 -0.542176 -105.309486 0.017471 0.007558 -0.441260
 18 0.000000 -0.212949 2.479568 -0.220200 0.000000 0.000001
 19 0.749370 -1.299135 28.624321 0.244345 -0.000000 0.000000
 20 -0.383533 17.841383 -5.153099 -0.174533 0.000000 -0.000000
 21 0.341385 5.572279 -21.207748 -0.174532 0.000000 -0.000000
 22 -1.270981 0.784905 10.690903 0.000000 -0.000000 0.000000
 23 -8.160084 -0.723732 19.345650 0.347760 0.017272 0.003006
 24 -15.198614 0.466469 -18.278648 -0.727895 0.246677 0.448701
 25 -8.028431 -4.482506 -11.667099 -0.271619 0.244372 -0.041531
 26 -1.668770 -2.144657 -6.538002 0.052020 0.091792 0.093927
 27 35.457302 5.719521 -83.014801 0.000000 -0.000000 0.000000
 28 -3.175087 -2.066471 -5.742226 0.000000 -0.000000 0.000000
 29 9.450655 -0.516975 19.516205 0.251820 0.287130 -0.179809
 30 14.230844 0.232843 -18.395630 -1.084690 -0.628919 -1.220783
 31 8.015636 -4.458900 -11.817970 -0.073599 -0.061261 -0.124201
 32 2.087151 -1.667404 -5.327334 0.000000 -0.000000 0.000000
 33 0.319299 -0.756851 2.981506 0.000000 -0.000000 0.000000
 34 -2.465699 3.693841 194.748917 0.000000 -0.000000 0.000000
time 5
  0 -2.629148 1.415440 -0.352036 0.000000 -0.000000 0.000000
  1 -2.629148 1.415440 -0.352036 0.000000 -0.000000 0.000000
  2 -2.629148 1.415440 -0.352036 0.000000 -0.000000 0.000000
  3 0.000000 -0.118725 97.934433 0.034907 0.000000 0.000000
  4 0.000000 0.440305 -2.731796 -0.034906 0.000000 -0.000000
  5 -8.065217 -1.301253 -17.282547 -0.130218 0.102665 -0.144092
  6 -0.883781 2.065767 -34.200722 0.416588 -0.002270 -0.004630
  7 -1.767048 1.039488 -33.503738 -0.256179 -0.042559 -0.001545
  8 0.410545 -3.053426 -6.308688 0.000000 -0.000000 0.000000
  9 8.638525 -0.139325 -16.633003 -0.051231 -0.155504 -0.023821
 10 1.058079 0.932503 -35.061913 0.344386 0.029195 0.000542
 11 1.221046 1.156219 -33.292107 -0.239088 0.005595 0.016836
 12 0.085375 -3.198827 -6.249953 0.000000 -0.000000 0.000000
 13 0.213274 2.786515 7.572433 -0.017453 0.000000 0.000000
 14 -2.904730 0.818863 2.596077 -0.008437 0.012717 -0.899781
 15 3.765301 -0.266406 -105.303291 0.017445 -0.006626 0.385211
 16 1.233752 0.818863 2.596077 -0.003025 -0.005400 0.361019
 17 -2.736665 -0.542176 -105.309502 0.017471 0.007558 -0.441260
 18 0.000000 -0.218906 2.346901 -0.216894 -0.000000 0.000001
 19 0.749370 -1.299135 28.624329 0.244345 -0.000000 0.000000
 20 -0.383533 17.841383 -5.153099 -0.174533 0.000000 0.000000
 21 0.341385 5.572282 -21.207764 -0.174532 0.000000 -0.000000
 22 -1.270981 0.784904 10.690895 0.000000 -0.000000 0.000000
 23 -8.160084 -0.723730 19.345650 0.338803 0.017296 0.002851
 24 -15.198619 0.466469 -18.278648 -0.744668 0.253902 0.444901
 25 -8.028431 -4.482506 -11.667114 -0.271619 0.244372 -0.041531
 26 -1.668770 -2.144657 -6.538006 0.052020 0.091792 0.093927
 27 35.457317 5.719517 -83.014816 0.000000 -0.000000 0.000000
 28 -3.175095 -2.066471 -5.742229 0.000000 -0.000000 0.000000
 29 9.450655 -0.516973 19.516197 0.229293 0.282851 -0.186820
 30 14.230843 0.232843 -18.395630 -1.086936 -0.631049 -1.241990
 31 8.015636 -4.458908 -11.817970 -0.066351 -0.053869 -0.128438
 32 2.087151 -1.667404 -5.327337 0.000000 -0.000000 0.000000
 33 0.319298 -0.756849 2.981499 0.000000 -0.000000 0.000000
 34 -2.465699 3.693841 194.748917 0.000000 -0.000000 0.000000
time 6
  0 -2.629148 1.415440 -0.352036 0.000000 -0.000000 0.000000
  1 -2.629148 1.415440 -0.352036 0.000000 -0.000000 0.000000
  2 -2.629148 1.415440 -0.352036 0.000000 -0.000000 0.000000
  3 0.000000 0.092705 97.969803 0.034907 0.000000 0.000000
  4 0.000000 0.440305 -2.731789 -0.034906 0.000000 -0.000000
  5 -8.065217 -1.301253 -17.282547 -0.131599 0.102409 -0.144237
  6 -0.883780 2.065765 -34.200710 0.410136 -0.003012 -0.006142
  7 -1.767052 1.039487 -33.503735 -0.243267 -0.040204 -0.000778
  8 0.410545 -3.053424 -6.308686 0.000000 -0.000000 0.000000
  9 8.638525 -0.139325 -16.633003 -0.045382 -0.155369 -0.024585
 10 1.058081 0.932503 -35.061916 0.342572 0.028493 -0.005097
 11 1.221045 1.156219 -33.292095 -0.231044 0.005142 0.015474
 12 0.085377 -3.198826 -6.249951 0.000000 -0.000000 0.000000
 13 0.213274 2.786515 7.572433 -0.017453 0.000000 0.000000
 14 -2.904730 0.818863 2.596069 -0.009049 0.013244 -0.947531
 15 3.765303 -0.266407 -105.303284 0.017445 -0.006626 0.385211
 16 1.233751 0.818863 2.596069 -0.003385 -0.006221 0.412712
 17 -2.736665 -0.542177 -105.309509 0.017471 0.007558 -0.441260
 18 0.000000 -0.224005 2.198471 -0.213155 -0.000000 0.000001
 19 0.749370 -1.299137 28.624329 0.244345 -0.000000 0.000000
 20 -0.383533 17.841385 -5.153091 -0.174533 0.000000 -0.000000
 21 0.341385 5.572284 -21.207764 -0.174532 0.000000 -0.000000
 22 -1.270981 0.784905 10.690910 0.000000 -0.000000 0.000000
 23 -8.160084 -0.723732 19.345650 0.328915 0.017317 0.002680
 24 -15.198617 0.466469 -18.278648 -0.759477 0.260565 0.440672
 25 -8.028435 -4.482510 -11.667107 -0.271619 0.244372 -0.041531
 26 -1.668770 -2.144661 -6.538010 0.052020 0.091792 0.093927
 27 35.457287 5.719494 -83.014801 0.000000 -0.000000 0.000000
 28 -3.175095 -2.066467 -5.742233 0.000000 -0.000000 0.000000
 29 9.450655 -0.516975 19.516212 0.204009 0.278047 -0.193583
 30 14.230846 0.232843 -18.395630 -1.088978 -0.632980 -1.260730
 31 8.015640 -4.458885 -11.817970 -0.058145 -0.045499 -0.132491
 32 2.087151 -1.667397 -5.327335 0.000000 -0.000000 0.000000
 33 0.319299 -0.756851 2.981506 0.000000 -0.000000 0.000000
 34 -2.465699 3.693841 194.748917 0.000000 -0.000000 0.000000
time 7
  0 -2.629148 1.415440 -0.352036 0.000000 -0.000000 0.000000
  1 -2.629148 1.415440 -0.352036 0.000000 -0.000000 0.000000
  2 -2.629148 1.415440 -0.352036 0.000000 -0.000000 0.000000
  3 0.000000 0.321668 98.008102 0.034907 0.000000 0.000000
  4 0.000000 0.440305 -2.731789 -0.034906 0.000000 -0.000000
  5 -8.065217 -1.301253 -17.282547 -0.132683 0.102142 -0.144357
  6 -0.883783 2.065765 -34.200718 0.403719 -0.003750 -0.007647
  7 -1.767050 1.039485 -33.503738 -0.229640 -0.037718 0.000031
  8 0.410547 -3.053424 -6.308688 0.000000 -0.000000 0.000000
  9 8.638525 -0.139325 -16.633003 -0.039368 -0.155230 -0.025280
 10 1.058081 0.932503 -35.061909 0.340619 0.027737 -0.011168
 11 1.221046 1.156220 -33.292099 -0.222257 0.004648 0.013987
 12 0.085377 -3.198827 -6.249952 0.000000 -0.000000 0.000000
 13 0.213274 2.786515 7.572433 -0.017453 0.000000 0.000000
 14 -2.904730 0.818863 2.596077 -0.009625 0.013771 -0.994089
 15 3.765301 -0.266407 -105.303284 0.017445 -0.006626 0.385211
 16 1.233751 0.818863 2.596077 -0.003744 -0.007041 0.464406
 17 -2.736664 -0.542176 -105.309494 0.017471 0.007558 -0.441260
 18 0.000000 -0.228311 2.039322 -0.209092 -0.000000 0.000001
 19 0.749370 -1.299138 28.624329 0.244345 -0.000000 0.000000
 20 -0.383533 17.841385 -5.153099 -0.174533 0.000000 0.000000
 21 0.341385 5.572280 -21.207756 -0.174532 0.000000 -0.000000
 22 -1.270981 0.784904 10.690903 0.000000 -0.000000 0.000000
 23 -8.160084 -0.723731 19.345650 0.318484 0.017335 0.002500
 24 -15.198616 0.466471 -18.278648 -0.772412 0.266649 0.436166
 25 -8.028431 -4.482513 -11.667099 -0.271619 0.244372 -0.041531
 26 -1.668762 -2.144657 -6.538006 0.052020 0.091792 0.093927
 27 35.457291 5.719498 -83.014801 0.000000 -0.000000 0.000000
 28 -3.175087 -2.066471 -5.742229 0.000000 -0.000000 0.000000
 29 9.450655 -0.516976 19.516212 0.176788 0.272876 -0.200040
 30 14.230842 0.232843 -18.395630 -1.090825 -0.634722 -1.277157
 31 8.015640 -4.458893 -11.817970 -0.049218 -0.036394 -0.136339
 32 2.087158 -1.667404 -5.327336 0.000000 -0.000000 0.000000
 33 0.319298 -0.756852 2.981506 0.000000 -0.000000 0.000000
 34 -2.465699 3.693841 194.748917 0.000000 -0.000000 0.000000
time 8
  0 -2.629148 1.415440 -0.352036 0.000000 -0.000000 0.000000
  1 -2.629148 1.415440 -0.352036 0.000000 -0.000000 0.000000
  2 -2.629148 1.415440 -0.352036 0.000000 -0.000000 0.000000
  3 0.000000 0.561715 98.048256 0.034907 0.000000 0.000000
  4 0.000000 0.440305 -2.731796 -0.034906 0.000000 -0.000000
  5 -8.065217 -1.301253 -17.282547 -0.133506 0.101876 -0.144453
  6 -0.883783 2.065766 -34.200718 0.397710 -0.004441 -0.009056
  7 -1.767048 1.039487 -33.503738 -0.215800 -0.035194 0.000853
  8 0.410543 -3.053425 -6.308685 0.000000 -0.000000 0.000000
  9 8.638525 -0.139325 -16.633003 -0.033467 -0.155093 -0.025897
 10 1.058079 0.932503 -35.061909 0.338586 0.026950 -0.017487
 11 1.221045 1.156222 -33.292095 -0.212950 0.004124 0.012411
 12 0.085375 -3.198825 -6.249951 0.000000 -0.000000 0.000000
 13 0.213274 2.786515 7.572433 -0.017453 0.000000 0.000000
 14 -2.904730 0.818863 2.596085 -0.010142 0.014269 -1.037211
 15 3.765303 -0.266407 -105.303284 0.017445 -0.006626 0.385211
 16 1.233751 0.818863 2.596085 -0.004083 -0.007816 0.513200
 17 -2.736665 -0.542177 -105.309494 0.017471 0.007558 -0.441260
 18 0.000000 -0.231890 1.874451 -0.204817 -0.000000 0.000001
 19 0.749370 -1.299136 28.624329 0.244345 -0.000000 0.000000
 20 -0.383533 17.841387 -5.153091 -0.174533 0.000000 0.000000
 21 0.341385 5.572281 -21.207756 -0.174532 0.000000 -0.000000
 22 -1.270981 0.784906 10.690910 0.000000 -0.000000 0.000000
 23 -8.160084 -0.723731 19.345650 0.307896 0.017349 0.002317
 24 -15.198618 0.466469 -18.278641 -0.783565 0.272138 0.431534
 25 -8.028435 -4.482506 -11.667107 -0.271619 0.244372 -0.041531
 26 -1.668770 -2.144653 -6.538010 0.052020 0.091792 0.093927
 27 35.457310 5.719517 -83.014832 0.000000 -0.000000 0.000000
 28 -3.175087 -2.066467 -5.742229 0.000000 -0.000000 0.000000
 29 9.450655 -0.516976 19.516212 0.148452 0.267493 -0.206133
 30 14.230843 0.232843 -18.395622 -1.092484 -0.636283 -1.291422
 31 8.015636 -4.458900 -11.817970 -0.039808 -0.026796 -0.139961
 32 2.087151 -1.667404 -5.327334 0.000000 -0.000000 0.000000
 33 0.319298 -0.756852 2.981506 0.000000 -0.000000 0.000000
 34 -2.465699 3.693841 194.748917 0.000000 -0.000000 0.000000
time 9
  0 -2.629148 1.415440 -0.352036 0.000000 -0.000000 0.000000
  1 -2.629148 1.415440 -0.352036 0.000000 -0.000000 0.000000
  2 -2.629148 1.415440 -0.352036 0.000000 -0.000000 0.000000
  3 0.000000 0.806396 98.089195 0.034907 0.000000 0.000000
  4 0.000000 0.440305 -2.731789 -0.034906 0.000000 -0.000000
  5 -8.065217 -1.301253 -17.282547 -0.134105 0.101620 -0.144528
  6 -0.883780 2.065766 -34.200722 0.392481 -0.005042 -0.010282
  7 -1.767048 1.039489 -33.503738 -0.202251 -0.032722 0.001658
  8 0.410547 -3.053425 -6.308687 0.000000 -0.000000 0.000000
  9 8.638525 -0.139325 -16.633003 -0.027956 -0.154966 -0.026427
 10 1.058079 0.932503 -35.061913 0.336532 0.026155 -0.023872
 11 1.221046 1.156216 -33.292103 -0.203344 0.003584 0.010785
 12 0.085375 -3.198828 -6.249953 0.000000 -0.000000 0.000000
 13 0.213274 2.786515 7.572433 -0.017453 0.000000 0.000000
 14 -2.904730 0.818863 2.596085 -0.010581 0.014708 -1.074654
 15 3.765301 -0.266407 -105.303284 0.017445 -0.006626 0.385211
 16 1.233751 0.818863 2.596085 -0.004382 -0.008498 0.556198
 17 -2.736665 -0.542175 -105.309509 0.017471 0.007558 -0.441260
 18 0.000000 -0.234807 1.708878 -0.200438 -0.000000 0.000001
 19 0.749370 -1.299135 28.624329 0.244345 -0.000000 0.000000
 20 -0.383533 17.841389 -5.153091 -0.174533 0.000000 0.000000
 21 0.341385 5.572281 -21.207756 -0.174532 0.000000 -0.000000
 22 -1.270981 0.784906 10.690903 0.000000 -0.000000 0.000000
 23 -8.160085 -0.723730 19.345650 0.297537 0.017361 0.002138
 24 -15.198617 0.466469 -18.278641 -0.793025 0.277014 0.426928
 25 -8.028439 -4.482506 -11.667114 -0.271619 0.244372 -0.041531
 26 -1.668777 -2.144657 -6.538006 0.052020 0.091792 0.093927
 27 35.457306 5.719509 -83.014832 0.000000 -0.000000 0.000000
 28 -3.175095 -2.066471 -5.742229 0.000000 -0.000000 0.000000
 29 9.450655 -0.516974 19.516205 0.119821 0.262055 -0.211804
 30 14.230844 0.232843 -18.395622 -1.093965 -0.637672 -1.303677
 31 8.015629 -4.458908 -11.817968 -0.030153 -0.016948 -0.143338
 32 2.087143 -1.667404 -5.327336 0.000000 -0.000000 0.000000
 33 0.319299 -0.756850 2.981499 0.000000 -0.000000 0.000000
 34 -2.465699 3.693841 194.748917 0.000000 -0.000000 0.000000
time 10
  0 -2.629148 1.415440 -0.352036 0.000000 -0.000000 0.000000
  1 -2.629148 1.415440 -0.352036 0.000000 -0.000000 0.000000
  2 -2.629148 1.415440 -0.352036 0.000000 -0.000000 0.000000
  3 0.000000 1.049264 98.129822 0.034907 0.000000 0.000000
  4 0.000000 0.440305 -2.731789 -0.034906 0.000000 -0.000000
  5 -8.065217 -1.301253 -17.282547 -0.134514 0.101387 -0.144585
  6 -0.883781 2.065767 -34.200722 0.388404 -0.005511 -0.011238
  7 -1.767050 1.039488 -33.503738 -0.189496 -0.030396 0.002415
  8 0.410545 -3.053424 -6.308685 0.000000 -0.000000 0.000000
  9 8.638525 -0.139325 -16.633003 -0.023112 -0.154854 -0.026862
 10 1.058079 0.932503 -35.061913 0.334515 0.025375 -0.030140
 11 1.221045 1.156229 -33.292095 -0.193662 0.003039 0.009147
 12 0.085375 -3.198825 -6.249952 0.000000 -0.000000 0.000000
 13 0.213274 2.786515 7.572433 -0.017453 0.000000 0.000000
 14 -2.904730 0.818863 2.596077 -0.010921 0.015058 -1.104176
 15 3.765301 -0.266406 -105.303276 0.017445 -0.006626 0.385211
 16 1.233751 0.818863 2.596077 -0.004620 -0.009043 0.590499
 17 -2.736665 -0.542176 -105.309509 0.017471 0.007558 -0.441260
 18 0.000000 -0.237128 1.547607 -0.196066 -0.000000 0.000001
 19 0.749370 -1.299136 28.624321 0.244345 -0.000000 0.000000
 20 -0.383533 17.841385 -5.153099 -0.174533 0.000000 -0.000000
 21 0.341385 5.572283 -21.207756 -0.174532 0.000000 -0.000000
 22 -1.270981 0.784904 10.690903 0.000000 -0.000000 0.000000
 23 -8.160084 -0.723731 19.345657 0.287795 0.017370 0.001970
 24 -15.198614 0.466471 -18.278641 -0.800885 0.281260 0.422500
 25 -8.028435 -4.482506 -11.667107 -0.271619 0.244372 -0.041531
 26 -1.668770 -2.144661 -6.538006 0.052020 0.091792 0.093927
 27 35.457314 5.719517 -83.014809 0.000000 -0.000000 0.000000
 28 -3.175087 -2.066467 -5.742233 0.000000 -0.000000 0.000000
 29 9.450655 -0.516974 19.516197 0.091716 0.256716 -0.216994
 30 14.230844 0.232842 -18.395630 -1.095275 -0.638896 -1.314073
 31 8.015633 -4.458900 -11.817972 -0.020490 -0.007092 -0.146448
 32 2.087151 -1.667412 -5.327335 0.000000 -0.000000 0.000000
 33 0.319299 -0.756850 2.981499 0.000000 -0.000000 0.000000
 34 -2.465699 3.693841 194.748917 0.000000 -0.000000 0.000000
time 11
  0 -2.629148 1.415440 -0.352036 0.000000 -0.000000 0.000000
  1 -2.629148 1.415440 -0.352036 0.000000 -0.000000 0.000000
  2 -2.629148 1.415440 -0.352036 0.000000 -0.000000 0.000000
  3 0.000000 1.283870 98.169067 0.034907 0.000000 0.000000
  4 0.000000 0.440305 -2.731789 -0.034906 0.000000 -0.000000
  5 -8.065217 -1.301253 -17.282547 -0.134770 0.101187 -0.144624
  6 -0.883781 2.065765 -34.200718 0.385853 -0.005804 -0.011837
  7 -1.767050 1.039490 -33.503738 -0.178039 -0.028306 0.003095
  8 0.410545 -3.053426 -6.308685 0.000000 -0.000000 0.000000
  9 8.638525 -0.139325 -16.633003 -0.019212 -0.154764 -0.027190
 10 1.058081 0.932503 -35.061905 0.332595 0.024632 -0.036108
 11 1.221045 1.156223 -33.292095 -0.184125 0.002503 0.007532
 12 0.085375 -3.198827 -6.249952 0.000000 -0.000000 0.000000
 13 0.213274 2.786515 7.572433 -0.017453 0.000000 0.000000
 14 -2.904730 0.818863 2.596077 -0.011139 0.015290 -1.123534
 15 3.765301 -0.266407 -105.303276 0.017445 -0.006626 0.385211
 16 1.233751 0.818863 2.596077 -0.004778 -0.009403 0.613205
 17 -2.736665 -0.542176 -105.309502 0.017471 0.007558 -0.441260
 18 0.000000 -0.238917 1.395660 -0.191811 -0.000001 0.000001
 19 0.749370 -1.299136 28.624321 0.244345 -0.000000 0.000000
 20 -0.383533 17.841385 -5.153099 -0.174533 0.000000 -0.000000
 21 0.341385 5.572280 -21.207748 -0.174532 0.000000 -0.000000
 22 -1.270981 0.784904 10.690895 0.000000 -0.000000 0.000000
 23 -8.160083 -0.723731 19.345650 0.279056 0.017377 0.001819
 24 -15.198616 0.466469 -18.278648 -0.807234 0.284861 0.418402
 25 -8.028435 -4.482506 -11.667099 -0.271619 0.244372 -0.041531
 26 -1.668770 -2.144653 -6.538006 0.052020 0.091792 0.093927
 27 35.457298 5.719521 -83.014801 0.000000 -0.000000 0.000000
 28 -3.175095 -2.066460 -5.742233 0.000000 -0.000000 0.000000
 29 9.450656 -0.516974 19.516205 0.064957 0.251632 -0.221645
 30 14.230844 0.232844 -18.395622 -1.096423 -0.639965 -1.322764
 31 8.015636 -4.458893 -11.817974 -0.011057 0.002529 -0.149272
 32 2.087143 -1.667412 -5.327336 0.000000 -0.000000 0.000000
 33 0.319299 -0.756850 2.981499 0.000000 -0.000000 0.000000
 34 -2.465699 3.693841 194.748917 0.000000 -0.000000 0.000000
time 12
  0 -2.629148 1.415440 -0.352036 0.000000 -0.000000 0.000000
  1 -2.629148 1.415440 -0.352036 0.000000 -0.000000 0.000000
  2 -2.629148 1.415440 -0.352036 0.000000 -0.000000 0.000000
  3 0.000000 1.503764 98.205849 0.034907 0.000000 0.000000
  4 0.000000 0.440305 -2.731789 -0.034906 0.000000 -0.000000
  5 -8.065217 -1.301253 -17.282547 -0.134908 0.101031 -0.144650
  6 -0.883780 2.065767 -34.200710 0.385176 -0.005882 -0.011995
  7 -1.767048 1.039489 -33.503735 -0.168383 -0.026545 0.003669
  8 0.410545 -3.053425 -6.308687 0.000000 -0.000000 0.000000
  9 8.638525 -0.139325 -16.633003 -0.016533 -0.154702 -0.027404
 10 1.058079 0.932503 -35.061913 0.330831 0.023949 -0.041592
 11 1.221046 1.156221 -33.292099 -0.174957 0.001987 0.005980
 12 0.085375 -3.198826 -6.249953 0.000000 -0.000000 0.000000
 13 0.213274 2.786515 7.572433 -0.017453 0.000000 0.000000
 14 -2.904730 0.818863 2.596077 -0.011217 0.015373 -1.130486
 15 3.765302 -0.266407 -105.303284 0.017445 -0.006626 0.385211
 16 1.233751 0.818863 2.596077 -0.004835 -0.009533 0.621418
 17 -2.736664 -0.542176 -105.309502 0.017471 0.007558 -0.441260
 18 0.000000 -0.240241 1.258049 -0.187783 -0.000001 0.000001
 19 0.749370 -1.299135 28.624321 0.244345 -0.000000 0.000000
 20 -0.383533 17.841385 -5.153091 -0.174533 0.000000 -0.000000
 21 0.341385 5.572281 -21.207756 -0.174532 0.000000 -0.000000
 22 -1.270981 0.784904 10.690903 0.000000 -0.000000 0.000000
 23 -8.160083 -0.723730 19.345650 0.271706 0.017382 0.001692
 24 -15.198619 0.466469 -18.278648 -0.812163 0.287798 0.414784
 25 -8.028431 -4.482506 -11.667099 -0.271619 0.244372 -0.041531
 26 -1.668762 -2.144653 -6.538002 0.052020 0.091792 0.093927
 27 35.457298 5.719509 -83.014801 0.000000 -0.000000 0.000000
 28 -3.175087 -2.066467 -5.742233 0.000000 -0.000000 0.000000
 29 9.450655 -0.516975 19.516205 0.040366 0.246961 -0.225700
 30 14.230844 0.232843 -18.395622 -1.097418 -0.640888 -1.329900
 31 8.015640 -4.458900 -11.817972 -0.002093 0.011672 -0.151789
 32 2.087143 -1.667400 -5.327334 0.000000 -0.000000 0.000000
 33 0.319299 -0.756851 2.981506 0.000000 -0.000000 0.000000
 34 -2.465699 3.693841 194.748917 0.000000 -0.000000 0.000000
time 13
  0 -2.629148 1.415440 -0.352036 0.000000 -0.000000 0.000000
  1 -2.629148 1.415440 -0.352036 0.000000 -0.000000 0.000000
  2 -2.629148 1.415440 -0.352036 0.000000 -0.000000 0.000000
  3 0.000000 1.702498 98.239098 0.034907 0.000000 0.000000
  4 0.000000 0.440305 -2.731789 -0.034906 0.000000 -0.000000
  5 -8.065217 -1.301253 -17.282547 -0.134965 0.100931 -0.144663
  6 -0.883781 2.065766 -34.200714 0.385786 -0.005812 -0.011852
  7 -1.767050 1.039492 -33.503742 -0.161031 -0.025204 0.004105
  8 0.410545 -3.053425 -6.308687 0.000000 -0.000000 0.000000
  9 8.638525 -0.139325 -16.633003 -0.015354 -0.154674 -0.027494
 10 1.058081 0.932503 -35.061909 0.329281 0.023350 -0.046410
 11 1.221048 1.156219 -33.292107 -0.166378 0.001505 0.004528
 12 0.085375 -3.198827 -6.249953 0.000000 -0.000000 0.000000
 13 0.213274 2.786515 7.572433 -0.017453 0.000000 0.000000
 14 -2.904730 0.818863 2.596077 -0.011181 0.015352 -1.128171
 15 3.765303 -0.266407 -105.303268 0.017445 -0.006626 0.385211
 16 1.233752 0.818863 2.596077 -0.004811 -0.009485 0.618308
 17 -2.736665 -0.542175 -105.309502 0.017471 0.007558 -0.441260
 18 0.000000 -0.241165 1.139793 -0.184092 -0.000001 0.000001
 19 0.749370 -1.299137 28.624329 0.244345 -0.000000 0.000000
 20 -0.383533 17.841383 -5.153099 -0.174533 0.000000 0.000000
 21 0.341385 5.572281 -21.207756 -0.174532 0.000000 -0.000000
 22 -1.270981 0.784906 10.690903 0.000000 -0.000000 0.000000
 23 -8.160085 -0.723732 19.345657 0.266133 0.017385 0.001595
 24 -15.198616 0.466471 -18.278648 -0.815765 0.290054 0.411799
 25 -8.028435 -4.482513 -11.667107 -0.271619 0.244372 -0.041531
 26 -1.668777 -2.144653 -6.538010 0.052020 0.091792 0.093927
 27 35.457287 5.719490 -83.014809 0.000000 -0.000000 0.000000
 28 -3.175095 -2.066467 -5.742233 0.000000 -0.000000 0.000000
 29 9.450655 -0.516976 19.516205 0.018761 0.242857 -0.229100
 30 14.230845 0.232841 -18.395630 -1.098267 -0.641673 -1.335634
 31 8.015633 -4.458893 -11.817972 0.006165 0.020095 -0.153979
 32 2.087151 -1.667404 -5.327333 0.000000 -0.000000 0.000000
 33 0.319299 -0.756851 2.981506 0.000000 -0.000000 0.000000
 34 -2.465699 3.693841 194.748917 0.000000 -0.000000 0.000000
time 14
  0 -2.629148 1.415440 -0.352036 0.000000 -0.000000 0.000000
  1 -2.629148 1.415440 -0.352036 0.000000 -0.000000 0.000000
  2 -2.629148 1.415440 -0.352036 0.000000 -0.000000 0.000000
  3 0.000000 1.873624 98.267723 0.034907 0.000000 0.000000
  4 0.000000 0.440305 -2.731789 -0.034906 0.000000 -0.000000
  5 -8.065217 -1.301253 -17.282547 -0.134975 0.100896 -0.144667
  6 -0.883781 2.065766 -34.200718 0.387202 -0.005649 -0.011520
  7 -1.767046 1.039485 -33.503742 -0.156487 -0.024375 0.004375
  8 0.410547 -3.053425 -6.308686 0.000000 -0.000000 0.000000
  9 8.638525 -0.139325 -16.633003 -0.015681 -0.154682 -0.027441
 10 1.058081 0.932503 -35.061909 0.328004 0.022856 -0.050379
 11 1.221045 1.156219 -33.292103 -0.158611 0.001068 0.003213
 12 0.085373 -3.198826 -6.249953 0.000000 -0.000000 0.000000
 13 0.213274 2.786515 7.572433 -0.017453 0.000000 0.000000
 14 -2.904730 0.818863 2.596077 -0.011078 0.015292 -1.121476
 15 3.765302 -0.266406 -105.303268 0.017445 -0.006626 0.385211
 16 1.233752 0.818863 2.596077 -0.004742 -0.009346 0.609406
 17 -2.736665 -0.542176 -105.309509 0.017471 0.007558 -0.441260
 18 0.000000 -0.241755 1.045883 -0.180848 -0.000001 0.000001
 19 0.749370 -1.299135 28.624321 0.244345 -0.000000 0.000000
 20 -0.383533 17.841383 -5.153091 -0.174533 0.000000 -0.000000
 21 0.341385 5.572282 -21.207756 -0.174532 0.000000 -0.000000
 22 -1.270981 0.784906 10.690903 0.000000 -0.000000 0.000000
 23 -8.160085 -0.723730 19.345650 0.262723 0.017386 0.001537
 24 -15.198614 0.466469 -18.278641 -0.818128 0.291614 0.409598
 25 -8.028435 -4.482506 -11.667107 -0.271619 0.244372 -0.041531
 26 -1.668770 -2.144661 -6.538002 0.052020 0.091792 0.093927
 27 35.457294 5.719513 -83.014801 0.000000 -0.000000 0.000000
 28 -3.175095 -2.066475 -5.742229 0.000000 -0.000000 0.000000
 29 9.450655 -0.516973 19.516205 0.000966 0.239476 -0.231787
 30 14.230846 0.232843 -18.395630 -1.098979 -0.642328 -1.340117
 31 8.015640 -4.458893 -11.817972 0.013479 0.027555 -0.155822
 32 2.087151 -1.667404 -5.327337 0.000000 -0.000000 0.000000
 33 0.319299 -0.756851 2.981506 0.000000 -0.000000 0.000000
 34 -2.465699 3.693841 194.748917 0.000000 -0.000000 0.000000
time 15
  0 -2.629148 1.415440 -0.352036 0.000000 -0.000000 0.000000
  1 -2.629148 1.415440 -0.352036 0.000000 -0.000000 0.000000
  2 -2.629148 1.415440 -0.352036 0.000000 -0.000000 0.000000
  3 0.000000 2.010693 98.290649 0.034907 0.000000 0.000000
  4 0.000000 0.440306 -2.731789 -0.034906 0.000000 -0.000000
  5 -8.065217 -1.301253 -17.282547 -0.134769 0.100926 -0.144646
  6 -0.883783 2.065767 -34.200718 0.389324 -0.005405 -0.011023
  7 -1.767046 1.039485 -33.503746 -0.155251 -0.024149 0.004449
  8 0.410545 -3.053425 -6.308687 0.000000 -0.000000 0.000000
  9 8.638525 -0.139325 -16.633003 -0.017036 -0.154713 -0.027232
 10 1.058081 0.932503 -35.061905 0.327060 0.022490 -0.053315
 11 1.221045 1.156229 -33.292103 -0.151878 0.000689 0.002074
 12 0.085375 -3.198824 -6.249951 0.000000 -0.000000 0.000000
 13 0.213274 2.786515 7.572433 -0.017453 0.000000 0.000000
 14 -2.904730 0.818863 2.596077 -0.010915 0.015194 -1.110771
 15 3.765302 -0.266406 -105.303314 0.017445 -0.006626 0.385211
 16 1.233751 0.818863 2.596077 -0.004634 -0.009127 0.595355
 17 -2.736665 -0.542175 -105.309509 0.017471 0.007558 -0.441260
 18 0.000000 -0.242075 0.981354 -0.178161 -0.000001 0.000001
 19 0.749370 -1.299138 28.624329 0.244345 -0.000000 0.000000
 20 -0.383533 17.841381 -5.153099 -0.174533 0.000000 -0.000000
 21 0.341385 5.572281 -21.207756 -0.174532 0.000000 -0.000000
 22 -1.270981 0.784904 10.690910 0.000000 -0.000000 0.000000
 23 -8.160084 -0.723731 19.345657 0.261860 0.017386 0.001521
 24 -15.198615 0.466469 -18.278641 -0.819345 0.292460 0.408333
 25 -8.028435 -4.482513 -11.667114 -0.271619 0.244372 -0.041531
 26 -1.668770 -2.144653 -6.538013 0.052020 0.091792 0.093927
 27 35.457294 5.719498 -83.014816 0.000000 -0.000000 0.000000
 28 -3.175087 -2.066467 -5.742237 0.000000 -0.000000 0.000000
 29 9.450655 -0.516976 19.516205 -0.012201 0.236975 -0.233703
 30 14.230844 0.232844 -18.395630 -1.099563 -0.642862 -1.343503
 31 8.015640 -4.458893 -11.817972 0.019612 0.033810 -0.157297
 32 2.087151 -1.667412 -5.327337 0.000000 -0.000000 0.000000
 33 0.319299 -0.756850 2.981499 0.000000 -0.000000 0.000000
 34 -2.465699 3.693841 194.748917 0.000000 -0.000000 0.000000
time 16
  0 -2.629148 1.415440 -0.352036 0.000000 -0.000000 0.000000
  1 -2.629148 1.415440 -0.352036 0.000000 -0.000000 0.000000
  2 -2.629148 1.415440 -0.352036 0.000000 -0.000000 0.000000
  3 0.000000 2.107255 98.306808 0.034907 0.000000 0.000000
  4 0.000000 0.440305 -2.731789 -0.034906 0.000000 -0.000000
  5 -8.065217 -1.301253 -17.282547 -0.134210 0.101006 -0.144589
  6 -0.883783 2.065767 -34.200714 0.392048 -0.005092 -0.010384
  7 -1.767048 1.039490 -33.503742 -0.157481 -0.024556 0.004316
  8 0.410547 -3.053425 -6.308686 0.000000 -0.000000 0.000000
  9 8.638525 -0.139325 -16.633003 -0.019274 -0.154765 -0.026885
 10 1.058079 0.932503 -35.061916 0.326506 0.022276 -0.055036
 11 1.221046 1.156221 -33.292110 -0.146402 0.000381 0.001147
 12 0.085375 -3.198825 -6.249954 0.000000 -0.000000 0.000000
 13 0.213274 2.786515 7.572433 -0.017453 0.000000 0.000000
 14 -2.904730 0.818863 2.596069 -0.010697 0.015061 -1.096428
 15 3.765302 -0.266407 -105.303276 0.017445 -0.006626 0.385211
 16 1.233751 0.818863 2.596069 -0.004491 -0.008837 0.576798
 17 -2.736664 -0.542176 -105.309502 0.017471 0.007558 -0.441260
 18 0.000000 -0.242192 0.951210 -0.176140 -0.000001 0.000001
 19 0.749370 -1.299136 28.624321 0.244345 -0.000000 0.000000
 20 -0.383533 17.841385 -5.153091 -0.174533 0.000000 -0.000000
 21 0.341385 5.572282 -21.207756 -0.174532 0.000000 -0.000000
 22 -1.270980 0.784904 10.690910 0.000000 -0.000000 0.000000
 23 -8.160084 -0.723731 19.345650 0.263633 0.017382 0.001526
 24 -15.198614 0.466471 -18.278648 -0.819258 0.292483 0.408167
 25 -8.028442 -4.482513 -11.667107 -0.271619 0.244372 -0.041531
 26 -1.668770 -2.144653 -6.538010 0.052020 0.091792 0.093927
 27 35.457306 5.719528 -83.014816 0.000000 -0.000000 0.000000
 28 -3.175095 -2.066467 -5.742229 0.000000 -0.000000 0.000000
 29 9.450655 -0.516974 19.516197 -0.019918 0.235509 -0.234790
 30 14.230844 0.232843 -18.395638 -1.100027 -0.643284 -1.345942
 31 8.015633 -4.458900 -11.817975 0.024325 0.038617 -0.158383
 32 2.087151 -1.667408 -5.327338 0.000000 -0.000000 0.000000
 33 0.319299 -0.756850 2.981499 0.000000 -0.000000 0.000000
 34 -2.465699 3.693841 194.748917 0.000000 -0.000000 0.000000
time 17
  0 -2.629148 1.415440 -0.352036 0.000000 -0.000000 0.000000
  1 -2.629148 1.415440 -0.352036 0.000000 -0.000000 0.000000
  2 -2.629148 1.415440 -0.352036 0.000000 -0.000000 0.000000
  3 0.000000 2.156864 98.315109 0.034907 0.000000 0.000000
  4 0.000000 0.440304 -2.731789 -0.034906 0.000000 -0.000000
  5 -8.065217 -1.301253 -17.282547 -0.133348 0.101131 -0.144501
  6 -0.883783 2.065766 -34.200710 0.395274 -0.004721 -0.009628
  7 -1.767048 1.039488 -33.503735 -0.162747 -0.025517 0.004004
  8 0.410547 -3.053423 -6.308686 0.000000 -0.000000 0.000000
  9 8.638525 -0.139325 -16.633003 -0.022260 -0.154834 -0.026423
 10 1.058083 0.932503 -35.061916 0.326413 0.022240 -0.055325
 11 1.221045 1.156221 -33.292099 -0.142403 0.000156 0.000470
 12 0.085377 -3.198826 -6.249953 0.000000 -0.000000 0.000000
 13 0.213274 2.786515 7.572433 -0.017453 0.000000 0.000000
 14 -2.904730 0.818863 2.596077 -0.010431 0.014897 -1.078818
 15 3.765302 -0.266407 -105.303276 0.017445 -0.006626 0.385211
 16 1.233751 0.818863 2.596077 -0.004320 -0.008487 0.554378
 17 -2.736665 -0.542177 -105.309509 0.017471 0.007558 -0.441260
 18 0.000000 -0.241697 0.963943 -0.174897 -0.000001 0.000001
 19 0.749370 -1.299137 28.624329 0.244345 -0.000000 0.000000
 20 -0.383533 17.841387 -5.153091 -0.174533 0.000000 0.000000
 21 0.341385 5.572280 -21.207748 -0.174532 0.000000 -0.000000
 22 -1.270981 0.784906 10.690903 0.000000 -0.000000 0.000000
 23 -8.160084 -0.723731 19.345650 0.267705 0.017372 0.001541
 24 -15.198616 0.466473 -18.278656 -0.815115 0.290641 0.409282
 25 -8.028442 -4.482513 -11.667107 -0.271619 0.244372 -0.041531
 26 -1.668770 -2.144653 -6.538010 0.052020 0.091792 0.093927
 27 35.457275 5.719505 -83.014809 0.000000 -0.000000 0.000000
 28 -3.175095 -2.066467 -5.742233 0.000000 -0.000000 0.000000
 29 9.450655 -0.516975 19.516205 -0.021215 0.235262 -0.235001
 30 14.230847 0.232843 -18.395638 -1.100379 -0.643603 -1.347587
 31 8.015633 -4.458893 -11.817971 0.027381 0.041734 -0.159061
 32 2.087143 -1.667408 -5.327335 0.000000 -0.000000 0.000000
 33 0.319299 -0.756851 2.981506 0.000000 -0.000000 0.000000
 34 -2.465699 3.693841 194.748917 0.000000 -0.000000 0.000000
time 18
  0 -2.629148 1.415440 -0.352036 0.000000 -0.000000 0.000000
  1 -2.629148 1.415440 -0.352036 0.000000 -0.000000 0.000000
  2 -2.629148 1.415440 -0.352036 0.000000 -0.000000 0.000000
  3 0.000000 2.145528 98.313210 0.034907 0.000000 0.000000
  4 0.000000 0.440305 -2.731789 -0.034906 0.000000 -0.000000
  5 -8.065217 -1.301253 -17.282547 -0.132234 0.101291 -0.144388
  6 -0.883781 2.065768 -34.200718 0.398898 -0.004304 -0.008778
  7 -1.767050 1.039485 -33.503746 -0.170577 -0.026945 0.003539
  8 0.410547 -3.053425 -6.308687 0.000000 -0.000000 0.000000
  9 8.638525 -0.139325 -16.633003 -0.025860 -0.154917 -0.025866
 10 1.058081 0.932503 -35.061920 0.326981 0.022460 -0.053558
 11 1.221048 1.156221 -33.292107 -0.140105 0.000027 0.000081
 12 0.085377 -3.198825 -6.249952 0.000000 -0.000000 0.000000
 13 0.213274 2.786515 7.572433 -0.017453 0.000000 0.000000
 14 -2.904730 0.818863 2.596077 -0.010123 0.014703 -1.058313
 15 3.765302 -0.266407 -105.303268 0.017445 -0.006626 0.385211
 16 1.233751 0.818863 2.596077 -0.004126 -0.008085 0.528739
 17 -2.736665 -0.542177 -105.309494 0.017471 0.007558 -0.441260
 18 0.000000 -0.239480 1.027428 -0.174550 -0.000001 0.000001
 19 0.749370 -1.299135 28.624313 0.244345 -0.000000 0.000000
 20 -0.383533 17.841383 -5.153091 -0.174533 0.000000 0.000000
 21 0.341385 5.572280 -21.207764 -0.174532 0.000000 -0.000000
 22 -1.270981 0.784904 10.690903 0.000000 -0.000000 0.000000
 23 -8.160084 -0.723731 19.345650 0.273716 0.017358 0.001567
 24 -15.198612 0.466469 -18.278648 -0.806701 0.286900 0.411546
 25 -8.028435 -4.482506 -11.667099 -0.271619 0.244372 -0.041531
 26 -1.668770 -2.144653 -6.538006 0.052020 0.091792 0.093927
 27 35.457298 5.719513 -83.014793 0.000000 -0.000000 0.000000
 28 -3.175087 -2.066467 -5.742229 0.000000 -0.000000 0.000000
 29 9.450655 -0.516974 19.516205 -0.013290 0.236768 -0.234471
 30 14.230843 0.232843 -18.395622 -1.100628 -0.643826 -1.348589
 31 8.015633 -4.458893 -11.817972 0.028542 0.042918 -0.159310
 32 2.087143 -1.667400 -5.327335 0.000000 -0.000000 0.000000
 33 0.319299 -0.756850 2.981499 0.000000 -0.000000 0.000000
 34 -2.465699 3.693841 194.748917 0.000000 -0.000000 0.000000
time 19
  0 -2.629148 1.415440 -0.352036 0.000000 -0.000000 0.000000
  1 -2.629148 1.415440 -0.352036 0.000000 -0.000000 0.000000
  2 -2.629148 1.415440 -0.352036 0.000000 -0.000000 0.000000
  3 0.000000 2.040882 98.295700 0.034907 0.000000 0.000000
  4 0.000000 0.440305 -2.731789 -0.034906 0.000000 -0.000000
  5 -8.065217 -1.301253 -17.282547 -0.130918 0.101480 -0.144253
  6 -0.883781 2.065767 -34.200714 0.402818 -0.003853 -0.007858
  7 -1.767046 1.039485 -33.503738 -0.180498 -0.028754 0.002949
  8 0.410545 -3.053423 -6.308687 0.000000 -0.000000 0.000000
  9 8.638525 -0.139325 -16.633003 -0.029942 -0.155012 -0.025235
 10 1.058081 0.932503 -35.061916 0.328180 0.022923 -0.049834
 11 1.221043 1.156225 -33.292095 -0.139898 0.000015 0.000046
 12 0.085375 -3.198824 -6.249952 0.000000 -0.000000 0.000000
 13 0.213274 2.786515 7.572433 -0.017453 0.000000 0.000000
 14 -2.904730 0.818863 2.596077 -0.009781 0.014484 -1.035284
 15 3.765302 -0.266406 -105.303276 0.017445 -0.006626 0.385211
 16 1.233751 0.818863 2.596085 -0.003913 -0.007643 0.500523
 17 -2.736665 -0.542176 -105.309509 0.017471 0.007558 -0.441260
 18 0.000000 -0.235759 1.133972 -0.175802 -0.000001 0.000001
 19 0.749370 -1.299136 28.624329 0.244345 -0.000000 0.000000
 20 -0.383533 17.841385 -5.153099 -0.174533 0.000000 -0.000000
 21 0.341385 5.572281 -21.207756 -0.174532 0.000000 -0.000000
 22 -1.270981 0.784904 10.690903 0.000000 -0.000000 0.000000
 23 -8.160084 -0.723730 19.345642 0.281308 0.017339 0.001606
 24 -15.198617 0.466469 -18.278648 -0.794748 0.281587 0.414762
 25 -8.028435 -4.482510 -11.667107 -0.271619 0.244372 -0.041531
 26 -1.668770 -2.144665 -6.538006 0.052020 0.091792 0.093927
 27 35.457279 5.719490 -83.014793 0.000000 -0.000000 0.000000
 28 -3.175087 -2.066471 -5.742229 0.000000 -0.000000 0.000000
 29 9.450655 -0.516976 19.516205 0.003408 0.239940 -0.233205
 30 14.230846 0.232842 -18.395630 -1.100781 -0.643964 -1.349101
 31 8.015633 -4.458900 -11.817976 0.026498 0.040833 -0.158373
 32 2.087143 -1.667400 -5.327339 0.000000 -0.000000 0.000000
 33 0.319299 -0.756850 2.981506 0.000000 -0.000000 0.000000
 34 -2.465699 3.693841 194.748917 0.000000 -0.000000 0.000000
time 20
  0 -2.629148 1.415440 -0.352036 0.000000 -0.000000 0.000000
  1 -2.629148 1.415440 -0.352036 0.000000 -0.000000 0.000000
  2 -2.629148 1.415440 -0.352036 0.000000 -0.000000 0.000000
  3 0.000000 1.854855 98.264580 0.034907 0.000000 0.000000
  4 0.000000 0.440306 -2.731789 -0.034906 0.000000 -0.000000
  5 -8.065217 -1.301253 -17.282547 -0.129452 0.101692 -0.144104
  6 -0.883781 2.065765 -34.200710 0.406933 -0.003380 -0.006893
  7 -1.767052 1.039487 -33.503742 -0.192036 -0.030859 0.002264
  8 0.410547 -3.053425 -6.308685 0.000000 -0.000000 0.000000
  9 8.638525 -0.139325 -16.633003 -0.034370 -0.155114 -0.024550
 10 1.058081 0.932503 -35.061913 0.329890 0.023585 -0.044519
 11 1.221046 1.156216 -33.292099 -0.144126 0.000253 0.000762
 12 0.085375 -3.198827 -6.249953 0.000000 -0.000000 0.000000
 13 0.213274 2.786515 7.572433 -0.017453 0.000000 0.000000
 14 -2.904730 0.818863 2.596077 -0.009410 0.014241 -1.010103
 15 3.765302 -0.266406 -105.303299 0.017445 -0.006626 0.385211
 16 1.233752 0.818863 2.596077 -0.003689 -0.007170 0.470373
 17 -2.736665 -0.542176 -105.309502 0.017471 0.007558 -0.441260
 18 0.000000 -0.230825 1.275223 -0.178794 -0.000001 0.000001
 19 0.749370 -1.299138 28.624329 0.244345 -0.000000 0.000000
 20 -0.383533 17.841381 -5.153099 -0.174533 0.000000 0.000000
 21 0.341385 5.572281 -21.207756 -0.174532 0.000000 -0.000000
 22 -1.270981 0.784904 10.690903 0.000000 -0.000000 0.000000
 23 -8.160084 -0.723731 19.345650 0.290122 0.017318 0.001658
 24 -15.198618 0.466469 -18.278648 -0.779990 0.275026 0.418733
 25 -8.028439 -4.482506 -11.667107 -0.271619 0.244372 -0.041531
 26 -1.668770 -2.144657 -6.538006 0.052020 0.091792 0.093927
 27 35.457283 5.719524 -83.014801 0.000000 -0.000000 0.000000
 28 -3.175095 -2.066467 -5.742229 0.000000 -0.000000 0.000000
 29 9.450655 -0.516975 19.516205 0.027243 0.244468 -0.231132
 30 14.230845 0.232842 -18.395622 -1.100848 -0.644023 -1.349275
 31 8.015640 -4.458908 -11.817972 0.020315 0.034527 -0.155541
 32 2.087143 -1.667397 -5.327337 0.000000 -0.000000 0.000000
 33 0.319299 -0.756850 2.981499 0.000000 -0.000000 0.000000
 34 -2.465699 3.693841 194.748917 0.000000 -0.000000 0.000000
time 21
  0 -2.629148 1.415440 -0.352036 0.000000 -0.000000 0.000000
  1 -2.629148 1.415440 -0.352036 0.000000 -0.000000 0.000000
  2 -2.629148 1.415440 -0.352036 0.000000 -0.000000 0.000000
  3 0.000000 1.604693 98.222733 0.034907 0.000000 0.000000
  4 0.000000 0.440305 -2.731796 -0.034906 0.000000 -0.000000
  5 -8.065217 -1.301253 -17.282547 -0.127885 0.101917 -0.143944
  6 -0.883781 2.065766 -34.200718 0.411141 -0.002897 -0.005907
  7 -1.767050 1.039488 -33.503738 -0.204720 -0.033173 0.001511
  8 0.410545 -3.053425 -6.308687 0.000000 -0.000000 0.000000
  9 8.638525 -0.139325 -16.633003 -0.039012 -0.155222 -0.023832
 10 1.058079 0.932503 -35.061913 0.331994 0.024399 -0.037977
 11 1.221046 1.156224 -33.292107 -0.152704 0.000736 0.002214
 12 0.085373 -3.198826 -6.249953 0.000000 -0.000000 0.000000
 13 0.213274 2.786515 7.572433 -0.017453 0.000000 0.000000
 14 -2.904730 0.818863 2.596077 -0.009017 0.013977 -0.983142
 15 3.765303 -0.266407 -105.303276 0.017445 -0.006626 0.385211
 16 1.233752 0.818863 2.596077 -0.003457 -0.006676 0.438933
 17 -2.736665 -0.542177 -105.309502 0.017471 0.007558 -0.441260
 18 0.000000 -0.224974 1.442802 -0.183174 -0.000001 0.000001
 19 0.749370 -1.299136 28.624321 0.244345 -0.000000 0.000000
 20 -0.383533 17.841387 -5.153099 -0.174533 0.000000 -0.000000
 21 0.341385 5.572282 -21.207756 -0.174532 0.000000 -0.000000
 22 -1.270981 0.784906 10.690910 0.000000 -0.000000 0.000000
 23 -8.160084 -0.723730 19.345642 0.299799 0.017294 0.001727
 24 -15.198618 0.466471 -18.278648 -0.763160 0.267543 0.423262
 25 -8.028435 -4.482513 -11.667107 -0.271619 0.244372 -0.041531
 26 -1.668770 -2.144653 -6.538010 0.052020 0.091792 0.093927
 27 35.457298 5.719513 -83.014816 0.000000 -0.000000 0.000000
 28 -3.175095 -2.066467 -5.742233 0.000000 -0.000000 0.000000
 29 9.450655 -0.516976 19.516197 0.056577 0.250040 -0.228181
 30 14.230844 0.232843 -18.395630 -1.100491 -0.643686 -1.346095
 31 8.015636 -4.458893 -11.817972 0.010811 0.024833 -0.151187
 32 2.087143 -1.667404 -5.327335 0.000000 -0.000000 0.000000
 33 0.319299 -0.756850 2.981499 0.000000 -0.000000 0.000000
 34 -2.465699 3.693841 194.748917 0.000000 -0.000000 0.000000
time 22
  0 -2.629148 1.415440 -0.352036 0.000000 -0.000000 0.000000
  1 -2.629148 1.415440 -0.352036 0.000000 -0.000000 0.000000
  2 -2.629148 1.415440 -0.352036 0.000000 -0.000000 0.000000
  3 0.000000 1.307643 98.173042 0.034907 0.000000 0.000000
  4 0.000000 0.440305 -2.731796 -0.034906 0.000000 -0.000000
  5 -8.065217 -1.301253 -17.282547 -0.126268 0.102150 -0.143779
  6 -0.883783 2.065766 -34.200718 0.415339 -0.002414 -0.004922
  7 -1.767048 1.039485 -33.503738 -0.218076 -0.035609 0.000718
  8 0.410547 -3.053424 -6.308687 0.000000 -0.000000 0.000000
  9 8.638525 -0.139325 -16.633003 -0.043733 -0.155331 -0.023102
 10 1.058081 0.932503 -35.061909 0.334376 0.025321 -0.030573
 11 1.221048 1.156223 -33.292107 -0.164628 0.001406 0.004232
 12 0.085375 -3.198825 -6.249953 0.000000 -0.000000 0.000000
 13 0.213274 2.786515 7.572433 -0.017453 0.000000 0.000000
 14 -2.904730 0.818863 2.596069 -0.008609 0.013694 -0.954770
 15 3.765303 -0.266406 -105.303291 0.017445 -0.006626 0.385211
 16 1.233751 0.818863 2.596069 -0.003223 -0.006170 0.406845
 17 -2.736665 -0.542177 -105.309509 0.017471 0.007558 -0.441260
 18 0.000000 -0.218495 1.628296 -0.188590 -0.000001 0.000001
 19 0.749370 -1.299137 28.624321 0.244345 -0.000000 0.000000
 20 -0.383533 17.841383 -5.153099 -0.174533 0.000000 -0.000000
 21 0.341385 5.572281 -21.207756 -0.174532 0.000000 -0.000000
 22 -1.270981 0.784906 10.690903 0.000000 -0.000000 0.000000
 23 -8.160084 -0.723732 19.345650 0.309981 0.017269 0.001813
 24 -15.198616 0.466471 -18.278648 -0.744990 0.259465 0.428151
 25 -8.028439 -4.482506 -11.667114 -0.271619 0.244372 -0.041531
 26 -1.668774 -2.144657 -6.538002 0.052020 0.091792 0.093927
 27 35.457291 5.719498 -83.014801 0.000000 -0.000000 0.000000
 28 -3.175091 -2.066475 -5.742233 0.000000 -0.000000 0.000000
 29 9.450655 -0.516975 19.516205 0.089774 0.256346 -0.224281
 30 14.230844 0.232842 -18.395638 -1.098714 -0.642012 -1.330444
 31 8.015636 -4.458893 -11.817972 -0.001191 0.012592 -0.145689
 32 2.087151 -1.667404 -5.327335 0.000000 -0.000000 0.000000
 33 0.319299 -0.756851 2.981499 0.000000 -0.000000 0.000000
 34 -2.465699 3.693841 194.748917 0.000000 -0.000000 0.000000
time 23
  0 -2.629148 1.415440 -0.352036 0.000000 -0.000000 0.000000
  1 -2.629148 1.415440 -0.352036 0.000000 -0.000000 0.000000
  2 -2.629148 1.415440 -0.352036 0.000000 -0.000000 0.000000
  3 0.000000 0.980950 98.118393 0.034907 0.000000 0.000000
  4 0.000000 0.440305 -2.731789 -0.034906 0.000000 -0.000000
  5 -8.065217 -1.301253 -17.282547 -0.124652 0.102383 -0.143615
  6 -0.883780 2.065766 -34.200718 0.419426 -0.001944 -0.003964
  7 -1.767046 1.039489 -33.503738 -0.231631 -0.038081 -0.000087
  8 0.410543 -3.053425 -6.308687 0.000000 -0.000000 0.000000
  9 8.638525 -0.139325 -16.633003 -0.048399 -0.155439 -0.022380
 10 1.058083 0.932503 -35.061916 0.336917 0.026305 -0.022674
 11 1.221045 1.156219 -33.292107 -0.178899 0.002209 0.006648
 12 0.085377 -3.198826 -6.249953 0.000000 -0.000000 0.000000
 13 0.213274 2.786515 7.572433 -0.017453 0.000000 0.000000
 14 -2.904730 0.818863 2.596077 -0.008191 0.013397 -0.925361
 15 3.765302 -0.266407 -105.303291 0.017445 -0.006626 0.385211
 16 1.233751 0.818863 2.596077 -0.002993 -0.005663 0.374754
 17 -2.736665 -0.542175 -105.309494 0.017471 0.007558 -0.441260
 18 0.000000 -0.211683 1.823380 -0.194688 -0.000001 0.000001
 19 0.749370 -1.299136 28.624313 0.244345 -0.000000 0.000000
 20 -0.383533 17.841389 -5.153107 -0.174533 0.000000 0.000000
 21 0.341385 5.572279 -21.207756 -0.174532 0.000000 -0.000000
 22 -1.270981 0.784904 10.690903 0.000000 -0.000000 0.000000
 23 -8.160084 -0.723731 19.345650 0.320309 0.017244 0.001918
 24 -15.198615 0.466471 -18.278641 -0.726213 0.251118 0.433204
 25 -8.028442 -4.482513 -11.667122 -0.271619 0.244372 -0.041531
 26 -1.668770 -2.144661 -6.538010 0.052020 0.091792 0.093927
 27 35.457298 5.719513 -83.014832 0.000000 -0.000000 0.000000
 28 -3.175095 -2.066471 -5.742233 0.000000 -0.000000 0.000000
 29 9.450655 -0.516974 19.516205 0.125195 0.263075 -0.219362
 30 14.230849 0.232843 -18.395630 -1.095782 -0.639248 -1.304602
 31 8.015636 -4.458908 -11.817974 -0.014866 -0.001356 -0.139424
 32 2.087151 -1.667412 -5.327335 0.000000 -0.000000 0.000000
 33 0.319299 -0.756849 2.981499 0.000000 -0.000000 0.000000
 34 -2.465699 3.693841 194.748917 0.000000 -0.000000 0.000000
time 24
  0 -2.629148 1.415440 -0.352036 0.000000 -0.000000 0.000000
  1 -2.629148 1.415440 -0.352036 0.000000 -0.000000 0.000000
  2 -2.629148 1.415440 -0.352036 0.000000 -0.000000 0.000000
  3 0.000000 0.641862 98.061668 0.034907 0.000000 0.000000
  4 0.000000 0.440305 -2.731789 -0.034906 0.000000 -0.000000
  5 -8.065217 -1.301253 -17.282547 -0.123088 0.102608 -0.143455
  6 -0.883781 2.065766 -34.200710 0.423298 -0.001499 -0.003056
  7 -1.767050 1.039490 -33.503735 -0.244913 -0.040504 -0.000876
  8 0.410545 -3.053422 -6.308687 0.000000 -0.000000 0.000000
  9 8.638525 -0.139325 -16.633003 -0.052878 -0.155542 -0.021687
 10 1.058077 0.932503 -35.061913 0.339501 0.027304 -0.014643
 11 1.221045 1.156220 -33.292103 -0.194515 0.003087 0.009291
 12 0.085373 -3.198825 -6.249953 0.000000 -0.000000 0.000000
 13 0.213274 2.786515 7.572433 -0.017453 0.000000 0.000000
 14 -2.904730 0.818863 2.596069 -0.007771 0.013087 -0.895285
 15 3.765303 -0.266407 -105.303268 0.017445 -0.006626 0.385211
 16 1.233751 0.818863 2.596069 -0.002771 -0.005165 0.343300
 17 -2.736664 -0.542176 -105.309494 0.017471 0.007558 -0.441260
 18 0.000000 -0.204830 2.019630 -0.201118 -0.000001 0.000001
 19 0.749370 -1.299137 28.624336 0.244345 -0.000000 0.000000
 20 -0.383533 17.841385 -5.153107 -0.174533 0.000000 -0.000000
 21 0.341385 5.572280 -21.207756 -0.174532 0.000000 -0.000000
 22 -1.270981 0.784904 10.690895 0.000000 -0.000000 0.000000
 23 -8.160084 -0.723732 19.345657 0.330424 0.017220 0.002044
 24 -15.198620 0.466471 -18.278648 -0.707562 0.242826 0.438223
 25 -8.028435 -4.482510 -11.667114 -0.271619 0.244372 -0.041531
 26 -1.668770 -2.144657 -6.538010 0.052020 0.091792 0.093927
 27 35.457302 5.719517 -83.014832 0.000000 -0.000000 0.000000
 28 -3.175095 -2.066467 -5.742237 0.000000 -0.000000 0.000000
 29 9.450656 -0.516975 19.516212 0.161206 0.269916 -0.213352
 30 14.230843 0.232842 -18.395630 -1.092057 -0.635737 -1.271784
 31 8.015636 -4.458900 -11.817966 -0.029391 -0.016171 -0.132770
 32 2.087151 -1.667404 -5.327334 0.000000 -0.000000 0.000000
 33 0.319299 -0.756852 2.981514 0.000000 -0.000000 0.000000
 34 -2.465699 3.693841 194.748917 0.000000 -0.000000 0.000000
time 25
  0 -2.629148 1.415440 -0.352036 0.000000 -0.000000 0.000000
  1 -2.629148 1.415440 -0.352036 0.000000 -0.000000 0.000000
  2 -2.629148 1.415440 -0.352036 0.000000 -0.000000 0.000000
  3 0.000000 0.307624 98.005760 0.034907 0.000000 0.000000
  4 0.000000 0.440305 -2.731789 -0.034906 0.000000 -0.000000
  5 -8.065217 -1.301253 -17.282547 -0.121625 0.102819 -0.143306
  6 -0.883781 2.065766 -34.200722 0.426855 -0.001090 -0.002222
  7 -1.767048 1.039487 -33.503738 -0.257449 -0.042791 -0.001620
  8 0.410545 -3.053425 -6.308687 0.000000 -0.000000 0.000000
  9 8.638525 -0.139325 -16.633003 -0.057034 -0.155638 -0.021044
 10 1.058077 0.932503 -35.061928 0.342009 0.028275 -0.006846
 11 1.221043 1.156217 -33.292107 -0.210475 0.003985 0.011993
 12 0.085375 -3.198826 -6.249954 0.000000 -0.000000 0.000000
 13 0.213274 2.786515 7.572433 -0.017453 0.000000 0.000000
 14 -2.904730 0.818863 2.596077 -0.007354 0.012767 -0.864914
 15 3.765303 -0.266407 -105.303261 0.017445 -0.006626 0.385211
 16 1.233751 0.818863 2.596077 -0.002565 -0.004685 0.313129
 17 -2.736665 -0.542176 -105.309502 0.017471 0.007558 -0.441260
 18 0.000000 -0.198228 2.208664 -0.207525 -0.000000 0.000001
 19 0.749370 -1.299135 28.624321 0.244345 -0.000000 0.000000
 20 -0.383533 17.841385 -5.153099 -0.174533 0.000000 -0.000000
 21 0.341385 5.572281 -21.207756 -0.174532 0.000000 -0.000000
 22 -1.270981 0.784906 10.690918 0.000000 -0.000000 0.000000
 23 -8.160084 -0.723732 19.345650 0.339967 0.017197 0.002193
 24 -15.198617 0.466469 -18.278648 -0.689770 0.234916 0.443010
 25 -8.028435 -4.482510 -11.667107 -0.271619 0.244372 -0.041531
 26 -1.668770 -2.144661 -6.538006 0.052020 0.091792 0.093927
 27 35.457291 5.719513 -83.014801 0.000000 -0.000000 0.000000
 28 -3.175095 -2.066471 -5.742226 0.000000 -0.000000 0.000000
 29 9.450655 -0.516975 19.516220 0.196167 0.276558 -0.206182
 30 14.230843 0.232842 -18.395638 -1.087906 -0.631824 -1.235202
 31 8.015633 -4.458893 -11.817970 -0.043941 -0.031012 -0.126104
 32 2.087151 -1.667412 -5.327337 0.000000 -0.000000 0.000000
 33 0.319299 -0.756849 2.981506 0.000000 -0.000000 0.000000
 34 -2.465699 3.693841 194.748917 0.000000 -0.000000 0.000000
time 26
  0 -2.629148 1.415440 -0.352036 0.000000 -0.000000 0.000000
  1 -2.629148 1.415440 -0.352036 0.000000 -0.000000 0.000000
  2 -2.629148 1.415440 -0.352036 0.000000 -0.000000 0.000000
  3 0.000000 -0.004517 97.953537 0.034907 0.000000 0.000000
  4 0.000000 0.440305 -2.731789 -0.034906 0.000000 -0.000000
  5 -8.065217 -1.301253 -17.282547 -0.120315 0.103008 -0.143172
  6 -0.883781 2.065767 -34.200718 0.429994 -0.000729 -0.001486
  7 -1.767048 1.039488 -33.503738 -0.268766 -0.044855 -0.002292
  8 0.410545 -3.053426 -6.308686 0.000000 -0.000000 0.000000
  9 8.638525 -0.139325 -16.633003 -0.060735 -0.155724 -0.020471
 10 1.058081 0.932502 -35.061909 0.344325 0.029171 0.000352
 11 1.221048 1.156222 -33.292099 -0.225778 0.004846 0.014583
 12 0.085377 -3.198827 -6.249952 0.000000 -0.000000 0.000000
 13 0.213274 2.786515 7.572433 -0.017453 0.000000 0.000000
 14 -2.904730 0.818863 2.596077 -0.006948 0.012440 -0.834620
 15 3.765302 -0.266406 -105.303291 0.017445 -0.006626 0.385211
 16 1.233752 0.818863 2.596077 -0.002378 -0.004233 0.284882
 17 -2.736665 -0.542175 -105.309509 0.017471 0.007558 -0.441260
 18 0.000000 -0.192170 2.382133 -0.213557 -0.000000 0.000001
 19 0.749370 -1.299139 28.624336 0.244345 -0.000000 0.000000
 20 -0.383533 17.841385 -5.153091 -0.174533 0.000000 -0.000000
 21 0.341385 5.572281 -21.207764 -0.174532 0.000000 -0.000000
 22 -1.270981 0.784904 10.690903 0.000000 -0.000000 0.000000
 23 -8.160085 -0.723732 19.345650 0.348579 0.017176 0.002366
 24 -15.198614 0.466471 -18.278641 -0.673569 0.227713 0.447370
 25 -8.028439 -4.482512 -11.667114 -0.271619 0.244372 -0.041531
 26 -1.668774 -2.144650 -6.538010 0.052020 0.091792 0.093927
 27 35.457298 5.719509 -83.014816 0.000000 -0.000000 0.000000
 28 -3.175091 -2.066471 -5.742233 0.000000 -0.000000 0.000000
 29 9.450655 -0.516977 19.516205 0.228443 0.282689 -0.197781
 30 14.230846 0.232842 -18.395630 -1.083691 -0.627852 -1.198068
 31 8.015640 -4.458893 -11.817974 -0.057694 -0.045038 -0.119804
 32 2.087151 -1.667412 -5.327337 0.000000 -0.000000 0.000000
 33 0.319298 -0.756851 2.981499 0.000000 -0.000000 0.000000
 34 -2.465699 3.693841 194.748917 0.000000 -0.000000 0.000000
time 27
  0 -2.629148 1.415440 -0.352036 0.000000 -0.000000 0.000000
  1 -2.629148 1.415440 -0.352036 0.000000 -0.000000 0.000000
  2 -2.629148 1.415440 -0.352036 0.000000 -0.000000 0.000000
  3 0.000000 -0.277315 97.907906 0.034907 0.000000 0.000000
  4 0.000000 0.440305 -2.731789 -0.034906 0.000000 -0.000000
  5 -8.065217 -1.301253 -17.282547 -0.119208 0.103167 -0.143059
  6 -0.883781 2.065767 -34.200710 0.432614 -0.000428 -0.000872
  7 -1.767048 1.039489 -33.503738 -0.278391 -0.046611 -0.002864
  8 0.410547 -3.053425 -6.308685 0.000000 -0.000000 0.000000
  9 8.638525 -0.139325 -16.633003 -0.063846 -0.155796 -0.019990
 10 1.058081 0.932503 -35.061913 0.346331 0.029947 0.006586
 11 1.221045 1.156219 -33.292099 -0.239423 0.005614 0.016893
 12 0.085373 -3.198824 -6.249953 0.000000 -0.000000 0.000000
 13 0.213274 2.786515 7.572433 -0.017453 0.000000 0.000000
 14 -2.904730 0.818863 2.596077 -0.006558 0.012109 -0.804773
 15 3.765301 -0.266406 -105.303299 0.017445 -0.006626 0.385211
 16 1.233752 0.818863 2.596077 -0.002216 -0.003820 0.259204
 17 -2.736665 -0.542176 -105.309502 0.017471 0.007558 -0.441260
 18 0.000000 -0.186950 2.531624 -0.218863 -0.000000 0.000001
 19 0.749370 -1.299137 28.624329 0.244345 -0.000000 0.000000
 20 -0.383533 17.841385 -5.153099 -0.174533 0.000000 -0.000000
 21 0.341385 5.572279 -21.207756 -0.174532 0.000000 -0.000000
 22 -1.270981 0.784904 10.690887 0.000000 -0.000000 0.000000
 23 -8.160084 -0.723734 19.345657 0.355902 0.017158 0.002564
 24 -15.198615 0.466471 -18.278656 -0.659693 0.221544 0.451103
 25 -8.028439 -4.482512 -11.667099 -0.271619 0.244372 -0.041531
 26 -1.668774 -2.144653 -6.538002 0.052020 0.091792 0.093927
 27 35.457291 5.719517 -83.014816 0.000000 -0.000000 0.000000
 28 -3.175095 -2.066467 -5.742226 0.000000 -0.000000 0.000000
 29 9.450655 -0.516977 19.516212 0.256396 0.287999 -0.188078
 30 14.230846 0.232842 -18.395630 -1.079779 -0.624165 -1.163594
 31 8.015636 -4.458885 -11.817976 -0.069824 -0.057411 -0.114247
 32 2.087151 -1.667412 -5.327336 0.000000 -0.000000 0.000000
 33 0.319299 -0.756851 2.981506 0.000000 -0.000000 0.000000
 34 -2.465699 3.693841 194.748917 0.000000 -0.000000 0.000000
time 28
  0 -2.629148 1.415440 -0.352036 0.000000 -0.000000 0.000000
  1 -2.629148 1.415440 -0.352036 0.000000 -0.000000 0.000000
  2 -2.629148 1.415440 -0.352036 0.000000 -0.000000 0.000000
  3 0.000000 -0.493523 97.871735 0.034907 0.000000 0.000000
  4 0.000000 0.440305 -2.731796 -0.034906 0.000000 -0.000000
  5 -8.065217 -1.301253 -17.282547 -0.118355 0.103290 -0.142972
  6 -0.883781 2.065766 -34.200714 0.434611 -0.000198 -0.000403
  7 -1.767050 1.039489 -33.503742 -0.285852 -0.047972 -0.003307
  8 0.410545 -3.053425 -6.308687 0.000000 -0.000000 0.000000
  9 8.638525 -0.139325 -16.633003 -0.066235 -0.155851 -0.019620
 10 1.058081 0.932503 -35.061909 0.347909 0.030558 0.011490
 11 1.221045 1.156221 -33.292099 -0.250409 0.006231 0.018752
 12 0.085375 -3.198824 -6.249950 0.000000 -0.000000 0.000000
 13 0.213274 2.786515 7.572433 -0.017453 0.000000 0.000000
 14 -2.904730 0.818863 2.596069 -0.006192 0.011775 -0.775746
 15 3.765302 -0.266407 -105.303276 0.017445 -0.006626 0.385211
 16 1.233752 0.818863 2.596069 -0.002084 -0.003455 0.236736
 17 -2.736664 -0.542176 -105.309509 0.017471 0.007558 -0.441260
 18 0.000000 -0.182858 2.648788 -0.223089 -0.000000 0.000001
 19 0.749370 -1.299139 28.624336 0.244345 -0.000000 0.000000
 20 -0.383533 17.841385 -5.153107 -0.174533 0.000000 0.000000
 21 0.341385 5.572281 -21.207748 -0.174532 0.000000 -0.000000
 22 -1.270981 0.784905 10.690903 0.000000 -0.000000 0.000000
 23 -8.160084 -0.723732 19.345650 0.361577 0.017144 0.002790
 24 -15.198616 0.466473 -18.278641 -0.648874 0.216735 0.454015
 25 -8.028439 -4.482512 -11.667107 -0.271619 0.244372 -0.041531
 26 -1.668770 -2.144657 -6.538006 0.052020 0.091792 0.093927
 27 35.457291 5.719509 -83.014816 0.000000 -0.000000 0.000000
 28 -3.175095 -2.066471 -5.742229 0.000000 -0.000000 0.000000
 29 9.450655 -0.516975 19.516205 0.278389 0.292177 -0.177001
 30 14.230847 0.232841 -18.395638 -1.076533 -0.621105 -1.134992
 31 8.015636 -4.458893 -11.817970 -0.079509 -0.067288 -0.109811
 32 2.087147 -1.667412 -5.327334 0.000000 -0.000000 0.000000
 33 0.319298 -0.756851 2.981506 0.000000 -0.000000 0.000000
 34 -2.465699 3.693841 194.748917 0.000000 -0.000000 0.000000
time 29
  0 -2.629148 1.415440 -0.352036 0.000000 -0.000000 0.000000
  1 -2.629148 1.415440 -0.352036 0.000000 -0.000000 0.000000
  2 -2.629148 1.415440 -0.352036 0.000000 -0.000000 0.000000
  3 0.000000 -0.635895 97.847916 0.034907 0.000000 0.000000
  4 0.000000 0.440305 -2.731796 -0.034906 0.000000 -0.000000
  5 -8.065217 -1.301253 -17.282547 -0.117806 0.103369 -0.142916
  6 -0.883781 2.065765 -34.200718 0.435884 -0.000052 -0.000105
  7 -1.767050 1.039492 -33.503742 -0.290675 -0.048851 -0.003593
  8 0.410543 -3.053425 -6.308686 0.000000 -0.000000 0.000000
  9 8.638525 -0.139325 -16.633003 -0.067765 -0.155887 -0.019384
 10 1.058081 0.932503 -35.061916 0.348941 0.030957 0.014701
 11 1.221046 1.156222 -33.292103 -0.257735 0.006644 0.019992
 12 0.085377 -3.198826 -6.249952 0.000000 -0.000000 0.000000
 13 0.213274 2.786515 7.572433 -0.017453 0.000000 0.000000
 14 -2.904730 0.818863 2.596077 -0.005855 0.011443 -0.747910
 15 3.765302 -0.266407 -105.303268 0.017445 -0.006626 0.385211
 16 1.233751 0.818863 2.596077 -0.001988 -0.003147 0.218122
 17 -2.736664 -0.542176 -105.309509 0.017471 0.007558 -0.441260
 18 0.000000 -0.180189 2.725235 -0.225883 -0.000000 0.000001
 19 0.749370 -1.299139 28.624336 0.244345 -0.000000 0.000000
 20 -0.383533 17.841383 -5.153091 -0.174533 0.000000 0.000000
 21 0.341385 5.572281 -21.207764 -0.174532 0.000000 -0.000000
 22 -1.270981 0.784904 10.690903 0.000000 -0.000000 0.000000
 23 -8.160084 -0.723732 19.345650 0.365245 0.017135 0.003045
 24 -15.198617 0.466469 -18.278648 -0.641846 0.213610 0.455906
 25 -8.028435 -4.482512 -11.667099 -0.271619 0.244372 -0.041531
 26 -1.668770 -2.144657 -6.538006 0.052020 0.091792 0.093927
 27 35.457291 5.719509 -83.014816 0.000000 -0.000000 0.000000
 28 -3.175095 -2.066475 -5.742229 0.000000 -0.000000 0.000000
 29 9.450655 -0.516975 19.516205 0.292785 0.294912 -0.164482
 30 14.230845 0.232841 -18.395630 -1.074318 -0.619018 -1.115475
 31 8.015636 -4.458893 -11.817972 -0.085924 -0.073831 -0.106872
 32 2.087147 -1.667404 -5.327335 0.000000 -0.000000 0.000000
 33 0.319299 -0.756851 2.981506 0.000000 -0.000000 0.000000
 34 -2.465699 3.693841 194.748917 0.000000 -0.000000 0.000000
time 30
  0 -2.629148 1.415440 -0.352036 0.000000 -0.000000 0.000000
  1 -2.629148 1.415440 -0.352036 0.000000 -0.000000 0.000000
  2 -2.629148 1.415440 -0.352036 0.000000 -0.000000 0.000000
  3 0.000000 -0.687185 97.839333 0.034907 0.000000 0.000000
  4 0.000000 0.440305 -2.731789 -0.034906 0.000000 -0.000000
  5 -8.065217 -1.301253 -17.282547 -0.117611 0.103397 -0.142897
  6 -0.883780 2.065766 -34.200714 0.436331 -0.000000 -0.000000
  7 -1.767048 1.039484 -33.503738 -0.292388 -0.049164 -0.003695
  8 0.410547 -3.053424 -6.308686 0.000000 -0.000000 0.000000
  9 8.638525 -0.139325 -16.633003 -0.068305 -0.155899 -0.019300
 10 1.058083 0.932503 -35.061913 0.349312 0.031101 0.015852
 11 1.221045 1.156219 -33.292103 -0.260399 0.006793 0.020443
 12 0.085377 -3.198825 -6.249953 0.000000 -0.000000 0.000000
 13 0.213274 2.786515 7.572433 -0.017453 0.000000 0.000000
 14 -2.904730 0.818863 2.596077 -0.005554 0.011115 -0.721635
 15 3.765302 -0.266407 -105.303291 0.017445 -0.006626 0.385211
 16 1.233751 0.818863 2.596077 -0.001934 -0.002908 0.204006
 17 -2.736665 -0.542176 -105.309494 0.017471 0.007558 -0.441260
 18 0.000000 -0.179234 2.752571 -0.226892 0.000000 0.000001
 19 0.749370 -1.299137 28.624321 0.244345 -0.000000 0.000000
 20 -0.383533 17.841385 -5.153091 -0.174533 0.000000 0.000000
 21 0.341385 5.572280 -21.207756 -0.174532 0.000000 -0.000000
 22 -1.270981 0.784905 10.690918 0.000000 -0.000000 0.000000
 23 -8.160084 -0.723732 19.345650 0.366547 0.017132 0.003330
 24 -15.198616 0.466469 -18.278648 -0.639340 0.212496 0.456580
 25 -8.028435 -4.482512 -11.667107 -0.271619 0.244372 -0.041531
 26 -1.668766 -2.144661 -6.538006 0.052020 0.091792 0.093927
 27 35.457287 5.719505 -83.014801 0.000000 -0.000000 0.000000
 28 -3.175087 -2.066471 -5.742233 0.000000 -0.000000 0.000000
 29 9.450655 -0.516975 19.516205 0.297948 0.295893 -0.150448
 30 14.230844 0.232843 -18.395622 -1.073499 -0.618246 -1.108255
 31 8.015633 -4.458900 -11.817970 -0.088245 -0.076199 -0.105809
 32 2.087143 -1.667412 -5.327336 0.000000 -0.000000 0.000000
 33 0.319299 -0.756851 2.981499 0.000000 -0.000000 0.000000
 34 -2.465699 3.693841 194.748917 0.000000 -0.000000 0.000000
end
