version 1
nodes
  0 "bone24"  -1
  1 "bone25"  -1
  2 "bone35"  -1
  3 "bone21"   2
  4 "bone20"   3
  5 "bone16"   4
  6 "bone17"   5
  7 "bone19"   6
  8 "bone26"   7
  9 "bone05"   4
 10 "bone22"   9
 11 "bone18"  10
 12 "bone27"  11
 13 "bone14"   4
 14 "bone12"  13
 15 "bone15"  14
 16 "bone02"   3
 17 "bone03"  16
 18 "bone09"  17
 19 "bone28"  17
 20 "bone01"  16
 21 "bone08"  20
 22 "bone11"  21
 23 "bone10"  22
 24 "bone29"  22
 25 "bone07"  16
 26 "bone04"  25
 27 "bone06"  26
 28 "bone13"  27
 29 "bone30"  28
 30 "bone31"  27
 31 "bone32"  16
 32 "bone33"   2
 33 "bone34"   2
end
skeleton
time 0
  0 -1.005915 2.634505 0.937462 0.000000 -0.000000 0.000000
  1 -1.005915 2.634505 0.937462 0.000000 -0.000000 0.000000
  2 -1.005915 2.634505 0.937462 0.000000 -0.000000 0.000000
  3 0.000000 0.798765 74.257698 0.017453 -0.000000 0.000000
  4 0.325039 0.314665 -2.968964 -0.052360 0.000000 0.000000
  5 6.206746 -0.124160 -11.733646 -0.606304 -0.119753 0.113058
  6 2.955698 1.729822 -23.848038 0.651736 0.022488 0.061322
  7 0.292417 0.418319 -30.938547 0.099954 -0.062994 -0.043396
  8 0.025499 -3.137413 -3.970852 0.000000 -0.000000 0.000000
  9 -6.833119 -0.124160 -11.733646 -0.024251 0.140499 -0.187517
 10 -3.240683 1.520661 -23.848042 0.767945 -0.000000 0.000000
 11 -0.355305 0.627476 -30.760899 -0.296706 -0.000000 0.000000
 12 0.209673 -3.137413 -4.537351 0.000000 -0.000000 0.000000
 13 -0.336471 18.320860 -10.789921 0.157080 0.000000 0.000000
 14 0.011432 14.669050 -0.377853 -0.296707 0.000000 0.000000
 15 0.210528 25.621655 6.087196 0.349066 0.000000 0.000000
 16 0.325039 0.314665 5.117516 -0.296617 -0.055029 -0.199427
 17 -0.409779 2.182661 26.434906 0.338783 0.012324 0.280882
 18 -2.968820 36.066544 32.693199 0.240593 0.003610 -0.042174
 19 -0.380095 -2.640915 16.751854 0.000000 -0.000000 0.000000
 20 7.187247 -0.460703 16.472290 -0.233362 -0.154832 0.309014
 21 12.896099 3.303356 -12.884903 -0.554064 -0.163431 -1.182623
 22 9.818130 -2.393085 -11.768448 -0.280533 0.016352 -0.156232
 23 11.684982 2.308933 -7.513325 -0.000000 -0.000000 0.000000
 24 3.667336 0.402563 -5.537418 0.000000 -0.000000 0.000000
 25 -8.155170 -0.644957 16.761322 -0.550301 0.443317 -1.113845
 26 -12.364452 3.544239 -13.402782 0.084819 0.476689 0.009933
 27 -10.403893 -2.206009 -11.274456 -1.383084 -0.855585 0.052537
 28 -3.567743 0.641571 -8.254749 0.014458 -0.004616 0.008585
 29 -16.089024 -105.559082 -25.635803 0.000000 -0.000000 0.000000
 30 -3.127523 0.571327 -6.062378 0.000000 -0.000000 0.000000
 31 -0.040495 -0.674471 8.862854 0.000000 -0.000000 0.000000
 32 0.289211 3.291785 167.749756 0.000000 -0.000000 0.000000
 33 0.000000 0.000000 0.000000 0.000000 -0.000000 0.000000
time 1
  0 -1.005915 2.634505 0.937462 0.000000 -0.000000 0.000000
  1 -1.005915 2.634505 0.937462 0.000000 -0.000000 0.000000
  2 -1.005915 2.634505 0.937462 0.000000 -0.000000 0.000000
  3 0.000000 1.226326 74.257698 0.013061 0.000000 0.000000
  4 0.325039 0.314665 -2.968964 -0.052360 0.000000 0.000000
  5 6.206746 -0.124160 -11.733646 -0.599378 -0.120449 0.112161
  6 2.955699 1.729824 -23.848036 0.616224 0.025666 0.066172
  7 0.292416 0.418323 -30.938557 0.136964 -0.067004 -0.047799
  8 0.025497 -3.137412 -3.970851 0.000000 -0.000000 0.000000
  9 -6.833119 -0.124160 -11.733646 0.000132 0.144695 -0.183720
 10 -3.240685 1.520660 -23.848042 0.739941 -0.006282 -0.001747
 11 -0.355305 0.627474 -30.760902 -0.287546 0.002174 0.000042
 12 0.209673 -3.137413 -4.537351 0.000000 -0.000000 0.000000
 13 -0.336471 18.320856 -10.789917 0.148363 -0.000000 0.000000
 14 0.011432 14.669044 -0.377850 -0.293560 0.000000 0.000000
 15 0.210528 25.621655 6.087189 0.350990 0.000000 0.000000
 16 0.325039 0.314665 5.117516 -0.281252 -0.051837 -0.200697
 17 -0.409780 2.182661 26.434906 0.336664 0.015576 0.280155
 18 -2.968821 36.066544 32.693214 0.240593 0.003610 -0.042174
 19 -0.380095 -2.640917 16.751854 0.000000 -0.000000 0.000000
 20 7.187248 -0.460705 16.472282 -0.233362 -0.154832 0.309014
 21 12.896101 3.303360 -12.884911 -0.554064 -0.163431 -1.182623
 22 9.818130 -2.393084 -11.768448 -0.280533 0.016352 -0.156232
 23 11.684975 2.308933 -7.513321 -0.000000 -0.000000 0.000000
 24 3.667328 0.402565 -5.537415 0.000000 -0.000000 0.000000
 25 -8.155170 -0.644955 16.761322 -0.571523 0.465095 -1.108925
 26 -12.364452 3.544235 -13.402779 0.078788 0.472799 0.014747
 27 -10.403900 -2.206013 -11.274456 -1.489004 -0.980792 0.057621
 28 -3.567745 0.641579 -8.254749 0.014458 -0.004616 0.008585
 29 -16.089006 -105.559036 -25.635796 0.000000 -0.000000 0.000000
 30 -3.127527 0.571335 -6.062374 0.000000 -0.000000 0.000000
 31 -0.040494 -0.674471 8.862854 0.000000 -0.000000 0.000000
 32 0.289211 3.291785 167.749756 0.000000 -0.000000 0.000000
 33 0.000000 0.000000 0.000000 0.000000 -0.000000 0.000000
time 2
  0 -1.005915 2.634505 0.937462 0.000000 -0.000000 0.000000
  1 -1.005915 2.634505 0.937462 0.000000 -0.000000 0.000000
  2 -1.005915 2.634505 0.937462 0.000000 -0.000000 0.000000
  3 0.000000 2.368503 74.257698 0.001327 0.000000 0.000000
  4 0.325039 0.314665 -2.968964 -0.052360 -0.000000 -0.000000
  5 6.206746 -0.124160 -11.733650 -0.580878 -0.122306 0.109766
  6 2.955696 1.729824 -23.848036 0.572601 0.030050 0.071859
  7 0.292415 0.418317 -30.938553 0.180416 -0.071251 -0.053415
  8 0.025496 -3.137413 -3.970851 0.000000 -0.000000 0.000000
  9 -6.833119 -0.124160 -11.733650 0.034391 0.150438 -0.178209
 10 -3.240683 1.520660 -23.848034 0.665131 -0.023065 -0.006413
 11 -0.355307 0.627483 -30.760895 -0.263076 0.007983 0.000156
 12 0.209675 -3.137413 -4.537348 0.000000 -0.000000 0.000000
 13 -0.336471 18.320860 -10.789921 0.123818 -0.000000 0.000000
 14 0.011432 14.669048 -0.377853 -0.284519 0.000000 0.000000
 15 0.210528 25.621658 6.087189 0.356545 0.000000 0.000000
 16 0.325039 0.314665 5.117508 -0.240208 -0.043311 -0.201714
 17 -0.409779 2.182657 26.434906 0.330837 0.019245 0.277947
 18 -2.968820 36.066544 32.693214 0.240593 0.003610 -0.042174
 19 -0.380095 -2.640917 16.751854 0.000000 -0.000000 0.000000
 20 7.187247 -0.460705 16.472290 -0.233362 -0.154832 0.309014
 21 12.896101 3.303356 -12.884903 -0.554064 -0.163431 -1.182623
 22 9.818134 -2.393082 -11.768452 -0.280533 0.016352 -0.156232
 23 11.684982 2.308931 -7.513321 0.000000 -0.000000 0.000000
 24 3.667336 0.402559 -5.537418 0.000000 -0.000000 0.000000
 25 -8.155170 -0.644958 16.761330 -0.588020 0.481094 -1.093127
 26 -12.364452 3.544239 -13.402779 0.061995 0.462061 0.028171
 27 -10.403900 -2.206013 -11.274452 -1.614778 -1.149819 0.071202
 28 -3.567745 0.641579 -8.254745 0.014458 -0.004616 0.008585
 29 -16.089010 -105.559044 -25.635811 0.000000 -0.000000 0.000000
 30 -3.127523 0.571327 -6.062374 0.000000 -0.000000 0.000000
 31 -0.040495 -0.674472 8.862854 0.000000 -0.000000 0.000000
 32 0.289211 3.291785 167.749756 0.000000 -0.000000 0.000000
 33 0.000000 0.000000 0.000000 0.000000 -0.000000 0.000000
time 3
  0 -1.005915 2.634505 0.937462 0.000000 -0.000000 0.000000
  1 -1.005915 2.634505 0.937462 0.000000 -0.000000 0.000000
  2 -1.005915 2.634505 0.937462 0.000000 -0.000000 0.000000
  3 0.000000 4.014532 74.257698 -0.015582 0.000000 0.000000
  4 0.325039 0.314665 -2.968964 -0.052360 -0.000000 -0.000000
  5 6.206746 -0.124160 -11.733643 -0.554217 -0.124983 0.106315
  6 2.955696 1.729826 -23.848042 0.524277 0.035200 0.077991
  7 0.292414 0.418322 -30.938557 0.227307 -0.075537 -0.059765
  8 0.025496 -3.137412 -3.970853 0.000000 -0.000000 0.000000
  9 -6.833119 -0.124160 -11.733643 0.075000 0.157163 -0.171581
 10 -3.240685 1.520660 -23.848038 0.557321 -0.047251 -0.013137
 11 -0.355307 0.627480 -30.760895 -0.227811 0.016354 0.000319
 12 0.209671 -3.137415 -4.537349 0.000000 -0.000000 0.000000
 13 -0.336471 18.320858 -10.789913 0.085850 -0.000000 0.000000
 14 0.011433 14.669046 -0.377853 -0.270186 0.000000 0.000000
 15 0.210528 25.621655 6.087196 0.365402 0.000000 0.000000
 16 0.325039 0.314665 5.117508 -0.181057 -0.031022 -0.202505
 17 -0.409780 2.182661 26.434906 0.322092 0.023109 0.274216
 18 -2.968818 36.066540 32.693184 0.240593 0.003610 -0.042174
 19 -0.380095 -2.640919 16.751854 0.000000 -0.000000 0.000000
 20 7.187248 -0.460704 16.472282 -0.233362 -0.154832 0.309014
 21 12.896103 3.303360 -12.884903 -0.554064 -0.163431 -1.182623
 22 9.818134 -2.393087 -11.768456 -0.280533 0.016352 -0.156232
 23 11.684986 2.308935 -7.513321 0.000000 -0.000000 0.000000
 24 3.667339 0.402561 -5.537411 0.000000 -0.000000 0.000000
 25 -8.155171 -0.644957 16.761322 -0.600386 0.492721 -1.064897
 26 -12.364452 3.544235 -13.402782 0.036392 0.445868 0.048681
 27 -10.403900 -2.206009 -11.274464 -1.751427 -1.346454 0.090773
 28 -3.567745 0.641571 -8.254753 0.014458 -0.004616 0.008585
 29 -16.089031 -105.559074 -25.635803 0.000000 -0.000000 0.000000
 30 -3.127529 0.571327 -6.062386 0.000000 -0.000000 0.000000
 31 -0.040495 -0.674472 8.862862 0.000000 -0.000000 0.000000
 32 0.289211 3.291785 167.749756 0.000000 -0.000000 0.000000
 33 0.000000 0.000000 0.000000 0.000000 -0.000000 0.000000
time 4
  0 -1.005915 2.634505 0.937462 0.000000 -0.000000 0.000000
  1 -1.005915 2.634505 0.937462 0.000000 -0.000000 0.000000
  2 -1.005915 2.634505 0.937462 0.000000 -0.000000 0.000000
  3 0.000000 5.953651 74.257698 -0.035503 0.000000 0.000000
  4 0.325039 0.314666 -2.968971 -0.052360 0.000000 0.000000
  5 6.206747 -0.124160 -11.733654 -0.522809 -0.128136 0.102249
  6 2.955698 1.729824 -23.848042 0.474663 0.040682 0.084178
  7 0.292417 0.418317 -30.938549 0.274638 -0.079663 -0.066368
  8 0.025497 -3.137414 -3.970853 0.000000 -0.000000 0.000000
  9 -6.833119 -0.124159 -11.733654 0.118433 0.164304 -0.164433
 10 -3.240685 1.520660 -23.848042 0.430314 -0.075744 -0.021059
 11 -0.355307 0.627480 -30.760897 -0.186267 0.026216 0.000511
 12 0.209673 -3.137413 -4.537350 0.000000 -0.000000 0.000000
 13 -0.336471 18.320858 -10.789925 0.036867 -0.000000 0.000000
 14 0.011432 14.669044 -0.377857 -0.251161 0.000000 0.000000
 15 0.210528 25.621653 6.087189 0.377232 0.000000 0.000000
 16 0.325039 0.314667 5.117508 -0.111374 -0.016546 -0.203097
 17 -0.409780 2.182661 26.434906 0.311223 0.026945 0.268922
 18 -2.968820 36.066547 32.693199 0.240593 0.003610 -0.042174
 19 -0.380095 -2.640921 16.751846 0.000000 -0.000000 0.000000
 20 7.187247 -0.460705 16.472290 -0.233362 -0.154832 0.309014
 21 12.896103 3.303356 -12.884903 -0.554064 -0.163431 -1.182623
 22 9.818138 -2.393085 -11.768444 -0.280533 0.016352 -0.156232
 23 11.684982 2.308935 -7.513321 0.000000 -0.000001 0.000000
 24 3.667336 0.402567 -5.537418 0.000000 -0.000000 0.000000
 25 -8.155170 -0.644957 16.761322 -0.609216 0.501379 -1.022677
 26 -12.364452 3.544239 -13.402794 0.003929 0.425618 0.074754
 27 -10.403900 -2.206009 -11.274460 -1.889974 -1.554484 0.113831
 28 -3.567741 0.641579 -8.254753 0.014458 -0.004616 0.008585
 29 -16.089005 -105.559029 -25.635818 0.000000 -0.000000 0.000000
 30 -3.127529 0.571335 -6.062378 0.000000 -0.000000 0.000000
 31 -0.040494 -0.674471 8.862846 0.000000 -0.000000 0.000000
 32 0.289211 3.291785 167.749756 0.000000 -0.000000 0.000000
 33 0.000000 0.000000 0.000000 0.000000 -0.000000 0.000000
time 5
  0 -1.005915 2.634505 0.937462 0.000000 -0.000000 0.000000
  1 -1.005915 2.634505 0.937462 0.000000 -0.000000 0.000000
  2 -1.005915 2.634505 0.937462 0.000000 -0.000000 0.000000
  3 0.000000 7.975100 74.257698 -0.056269 0.000000 0.000000
  4 0.325039 0.314665 -2.968964 -0.052360 0.000000 -0.000000
  5 6.206746 -0.124160 -11.733643 -0.490067 -0.131423 0.098010
  6 2.955698 1.729826 -23.848040 0.427170 0.046057 0.090028
  7 0.292417 0.418317 -30.938553 0.319407 -0.083430 -0.072745
  8 0.025497 -3.137413 -3.970853 0.000000 -0.000000 0.000000
  9 -6.833119 -0.124160 -11.733643 0.161162 0.171298 -0.157365
 10 -3.240685 1.520658 -23.848038 0.297914 -0.105446 -0.029317
 11 -0.355305 0.627478 -30.760900 -0.142960 0.036496 0.000711
 12 0.209673 -3.137413 -4.537350 0.000000 -0.000000 0.000000
 13 -0.336471 18.320860 -10.789909 -0.020727 -0.000000 0.000000
 14 0.011432 14.669048 -0.377850 -0.228044 0.000000 0.000000
 15 0.210528 25.621651 6.087189 0.391709 0.000000 0.000000
 16 0.325039 0.314666 5.117516 -0.038732 -0.001455 -0.203519
 17 -0.409780 2.182659 26.434906 0.299021 0.030530 0.262022
 18 -2.968819 36.066551 32.693199 0.240593 0.003610 -0.042174
 19 -0.380096 -2.640919 16.751846 0.000000 -0.000000 0.000000
 20 7.187246 -0.460707 16.472290 -0.233362 -0.154832 0.309014
 21 12.896097 3.303356 -12.884895 -0.554064 -0.163431 -1.182623
 22 9.818138 -2.393089 -11.768440 -0.280533 0.016352 -0.156232
 23 11.684982 2.308937 -7.513325 -0.000000 -0.000000 0.000000
 24 3.667336 0.402563 -5.537411 0.000000 -0.000000 0.000000
 25 -8.155170 -0.644958 16.761322 -0.615106 0.508476 -0.964913
 26 -12.364456 3.544243 -13.402782 -0.033444 0.402705 0.104867
 27 -10.403900 -2.206009 -11.274452 1.120158 -1.383889 -3.003727
 28 -3.567741 0.641586 -8.254738 0.014458 -0.004616 0.008585
 29 -16.089005 -105.559052 -25.635811 0.000000 -0.000000 0.000000
 30 -3.127525 0.571335 -6.062378 0.000000 -0.000000 0.000000
 31 -0.040495 -0.674472 8.862854 0.000000 -0.000000 0.000000
 32 0.289211 3.291785 167.749756 0.000000 -0.000000 0.000000
 33 0.000000 0.000000 0.000000 0.000000 -0.000000 0.000000
time 6
  0 -1.005915 2.634505 0.937462 0.000000 -0.000000 0.000000
  1 -1.005915 2.634505 0.937462 0.000000 -0.000000 0.000000
  2 -1.005915 2.634505 0.937462 0.000000 -0.000000 0.000000
  3 0.000000 9.868114 74.257698 -0.075716 0.000000 0.000000
  4 0.325039 0.314665 -2.968964 -0.052360 -0.000000 0.000000
  5 6.206746 -0.124161 -11.733643 -0.459405 -0.134501 0.094040
  6 2.955698 1.729828 -23.848040 0.385208 0.050889 0.095150
  7 0.292418 0.418320 -30.938559 0.358613 -0.086641 -0.078416
  8 0.025498 -3.137412 -3.970853 0.000000 -0.000000 0.000000
  9 -6.833119 -0.124160 -11.733643 0.199663 0.177580 -0.150972
 10 -3.240683 1.520660 -23.848045 0.173927 -0.133261 -0.037050
 11 -0.355305 0.627483 -30.760902 -0.102404 0.046123 0.000899
 12 0.209673 -3.137411 -4.537350 0.000000 -0.000000 0.000000
 13 -0.336471 18.320858 -10.789913 -0.084524 -0.000000 0.000000
 14 0.011432 14.669043 -0.377853 -0.201436 0.000000 0.000000
 15 0.210528 25.621655 6.087196 0.408503 0.000000 0.000000
 16 0.325039 0.314664 5.117508 0.029294 0.012678 -0.203797
 17 -0.409779 2.182658 26.434906 0.286280 0.033641 0.253477
 18 -2.968818 36.066551 32.693207 0.240593 0.003610 -0.042174
 19 -0.380095 -2.640915 16.751854 0.000000 -0.000000 0.000000
 20 7.187248 -0.460706 16.472298 -0.233362 -0.154832 0.309014
 21 12.896099 3.303353 -12.884903 -0.554064 -0.163431 -1.182623
 22 9.818130 -2.393082 -11.768456 -0.280533 0.016352 -0.156232
 23 11.684982 2.308937 -7.513321 -0.000000 -0.000000 0.000000
 24 3.667336 0.402565 -5.537415 0.000000 -0.000000 0.000000
 25 -8.155170 -0.644958 16.761322 -0.618650 0.515414 -0.890047
 26 -12.364456 3.544239 -13.402782 -0.073774 0.378524 0.137494
 27 -10.403893 -2.206005 -11.274462 1.004759 -1.201700 -2.981219
 28 -3.567749 0.641579 -8.254745 0.014458 -0.004616 0.008585
 29 -16.089012 -105.559052 -25.635826 0.000000 -0.000000 0.000000
 30 -3.127522 0.571335 -6.062370 0.000000 -0.000000 0.000000
 31 -0.040494 -0.674471 8.862854 0.000000 -0.000000 0.000000
 32 0.289211 3.291785 167.749756 0.000000 -0.000000 0.000000
 33 0.000000 0.000000 0.000000 0.000000 -0.000000 0.000000
time 7
  0 -1.005915 2.634505 0.937462 0.000000 -0.000000 0.000000
  1 -1.005915 2.634505 0.937462 0.000000 -0.000000 0.000000
  2 -1.005915 2.634505 0.937462 0.000000 -0.000000 0.000000
  3 0.000000 11.421935 74.257698 -0.091678 0.000000 0.000000
  4 0.325039 0.314665 -2.968964 -0.052360 0.000000 -0.000000
  5 6.206746 -0.124160 -11.733646 -0.434238 -0.137028 0.090782
  6 2.955700 1.729824 -23.848042 0.352187 0.054741 0.099152
  7 0.292417 0.418322 -30.938553 0.389255 -0.089097 -0.082900
  8 0.025496 -3.137413 -3.970852 0.000000 -0.000000 0.000000
  9 -6.833119 -0.124159 -11.733643 0.230408 0.182584 -0.145854
 10 -3.240683 1.520658 -23.848042 0.072156 -0.156093 -0.043398
 11 -0.355303 0.627481 -30.760900 -0.069115 0.054025 0.001053
 12 0.209673 -3.137413 -4.537350 0.000000 -0.000000 0.000000
 13 -0.336471 18.320858 -10.789917 -0.152119 -0.000000 0.000000
 14 0.011432 14.669050 -0.377861 -0.171937 0.000000 0.000000
 15 0.210528 25.621660 6.087196 0.427286 0.000000 0.000000
 16 0.325039 0.314665 5.117508 0.085131 0.024278 -0.203959
 17 -0.409779 2.182657 26.434906 0.273790 0.036056 0.243245
 18 -2.968819 36.066551 32.693184 0.240593 0.003610 -0.042174
 19 -0.380096 -2.640919 16.751846 0.000000 -0.000000 0.000000
 20 7.187247 -0.460705 16.472290 -0.233362 -0.154832 0.309014
 21 12.896103 3.303357 -12.884903 -0.554064 -0.163431 -1.182623
 22 9.818134 -2.393085 -11.768448 -0.280533 0.016352 -0.156232
 23 11.684982 2.308937 -7.513329 -0.000000 -0.000000 0.000000
 24 3.667336 0.402565 -5.537418 0.000000 -0.000000 0.000000
 25 -8.155169 -0.644957 16.761330 -0.620442 0.523600 -0.796525
 26 -12.364449 3.544239 -13.402782 -0.115113 0.354472 0.171112
 27 -10.403893 -2.206007 -11.274458 0.914401 -1.056748 -2.962744
 28 -3.567749 0.641571 -8.254745 0.014458 -0.004616 0.008585
 29 -16.088989 -105.559059 -25.635796 0.000000 -0.000000 0.000000
 30 -3.127525 0.571335 -6.062378 0.000000 -0.000000 0.000000
 31 -0.040494 -0.674471 8.862854 0.000000 -0.000000 0.000000
 32 0.289211 3.291785 167.749756 0.000000 -0.000000 0.000000
 33 0.000000 0.000000 0.000000 0.000000 -0.000000 0.000000
time 8
  0 -1.005915 2.634505 0.937462 0.000000 -0.000000 0.000000
  1 -1.005915 2.634505 0.937462 0.000000 -0.000000 0.000000
  2 -1.005915 2.634505 0.937462 0.000000 -0.000000 0.000000
  3 0.000000 12.425799 74.257698 -0.101991 0.000000 0.000000
  4 0.325039 0.314666 -2.968964 -0.052360 -0.000000 0.000000
  5 6.206746 -0.124160 -11.733650 -0.417978 -0.138660 0.088677
  6 2.955699 1.729822 -23.848034 0.331518 0.057177 0.101643
  7 0.292417 0.418321 -30.938557 0.408333 -0.090600 -0.085717
  8 0.025498 -3.137414 -3.970853 0.000000 -0.000000 0.000000
  9 -6.833119 -0.124159 -11.733650 0.249870 0.185746 -0.142607
 10 -3.240685 1.520660 -23.848038 0.006405 -0.170843 -0.047499
 11 -0.355305 0.627481 -30.760902 -0.047608 0.059130 0.001152
 12 0.209671 -3.137413 -4.537350 0.000000 -0.000000 0.000000
 13 -0.336471 18.320860 -10.789917 -0.221105 -0.000000 0.000000
 14 0.011432 14.669046 -0.377853 -0.140149 0.000000 0.000000
 15 0.210528 25.621655 6.087196 0.447731 0.000000 0.000000
 16 0.325039 0.314666 5.117516 0.121205 0.031772 -0.204033
 17 -0.409780 2.182657 26.434906 0.262345 0.037550 0.231284
 18 -2.968820 36.066544 32.693192 0.240593 0.003610 -0.042174
 19 -0.380095 -2.640923 16.751854 0.000000 -0.000000 0.000000
 20 7.187246 -0.460707 16.472290 -0.233362 -0.154832 0.309014
 21 12.896099 3.303354 -12.884903 -0.554064 -0.163431 -1.182623
 22 9.818138 -2.393082 -11.768448 -0.280533 0.016352 -0.156232
 23 11.684982 2.308933 -7.513321 -0.000000 -0.000000 0.000000
 24 3.667336 0.402561 -5.537415 0.000000 -0.000000 0.000000
 25 -8.155171 -0.644957 16.761314 -0.621079 0.534439 -0.682790
 26 -12.364449 3.544239 -13.402779 -0.155508 0.331943 0.204197
 27 -10.403900 -2.206015 -11.274458 0.858064 -0.965248 -2.950808
 28 -3.567741 0.641571 -8.254757 0.014458 -0.004616 0.008585
 29 -16.088978 -105.559021 -25.635796 0.000000 -0.000000 0.000000
 30 -3.127525 0.571327 -6.062374 0.000000 -0.000000 0.000000
 31 -0.040495 -0.674471 8.862854 0.000000 -0.000000 0.000000
 32 0.289211 3.291785 167.749756 0.000000 -0.000000 0.000000
 33 0.000000 0.000000 0.000000 0.000000 -0.000000 0.000000
time 9
  0 -1.005915 2.634505 0.937462 0.000000 -0.000000 0.000000
  1 -1.005915 2.634505 0.937462 0.000000 -0.000000 0.000000
  2 -1.005915 2.634505 0.937462 0.000000 -0.000000 0.000000
  3 0.000000 12.392807 74.257698 -0.099667 0.000000 0.000000
  4 0.325039 0.314664 -2.968971 -0.052360 -0.000000 -0.000000
  5 6.206746 -0.124160 -11.733646 -0.419365 -0.138453 0.088794
  6 2.955698 1.729824 -23.848038 0.331245 0.057269 0.101641
  7 0.292416 0.418321 -30.938553 0.413190 -0.090978 -0.086440
  8 0.025497 -3.137413 -3.970851 0.000000 -0.000000 0.000000
  9 -6.833119 -0.124161 -11.733643 0.248877 0.185503 -0.142679
 10 -3.240685 1.520662 -23.848038 -0.000259 -0.172318 -0.047964
 11 -0.355307 0.627483 -30.760899 -0.041969 0.060469 0.001179
 12 0.209673 -3.137411 -4.537350 0.000000 -0.000000 0.000000
 13 -0.336471 18.320858 -10.789913 -0.289076 -0.000000 0.000000
 14 0.011433 14.669046 -0.377853 -0.106672 0.000000 0.000000
 15 0.210528 25.621656 6.087189 0.469509 0.000000 0.000000
 16 0.325039 0.314666 5.117500 0.130236 0.033748 -0.195674
 17 -0.409779 2.182659 26.434906 0.252622 0.036904 0.210504
 18 -2.968822 36.066536 32.693207 0.240593 0.003610 -0.042174
 19 -0.380096 -2.640915 16.751846 0.000000 -0.000000 0.000000
 20 7.187247 -0.460705 16.472282 -0.233362 -0.154832 0.309014
 21 12.896103 3.303356 -12.884911 -0.554064 -0.163431 -1.182623
 22 9.818130 -2.393085 -11.768448 -0.280533 0.016352 -0.156232
 23 11.684978 2.308935 -7.513321 -0.000000 -0.000000 0.000000
 24 3.667332 0.402565 -5.537415 0.000000 -0.000000 0.000000
 25 -8.155170 -0.644957 16.761330 -0.620310 0.550030 -0.521109
 26 -12.364449 3.544241 -13.402786 -0.194105 0.311971 0.236183
 27 -10.403900 -2.206011 -11.274464 0.843704 -0.941691 -2.947678
 28 -3.567749 0.641571 -8.254749 0.014458 -0.004616 0.008585
 29 -16.088989 -105.559021 -25.635807 0.000000 -0.000000 0.000000
 30 -3.127518 0.571327 -6.062378 0.000000 -0.000000 0.000000
 31 -0.040494 -0.674471 8.862854 0.000000 -0.000000 0.000000
 32 0.289211 3.291785 167.749756 0.000000 -0.000000 0.000000
 33 0.000000 0.000000 0.000000 0.000000 -0.000000 0.000000
time 10
  0 -1.005915 2.634505 0.937462 0.000000 -0.000000 0.000000
  1 -1.005915 2.634505 0.937462 0.000000 -0.000000 0.000000
  2 -1.005915 2.634505 0.937462 0.000000 -0.000000 0.000000
  3 0.000000 5.540191 74.257698 0.016265 0.000000 0.000000
  4 0.325039 0.314666 -2.968964 -0.052360 0.000000 0.000000
  5 6.206747 -0.124160 -11.733643 -0.549926 -0.123782 0.104253
  6 2.955698 1.729824 -23.848042 0.447782 0.044802 0.086847
  7 0.292416 0.418318 -30.938547 0.411287 -0.090808 -0.086178
  8 0.025498 -3.137414 -3.970852 0.000000 -0.000000 0.000000
  9 -6.833118 -0.124160 -11.733646 0.109527 0.161015 -0.163812
 10 -3.240685 1.520661 -23.848042 0.246207 -0.116557 -0.033725
 11 -0.355307 0.627481 -30.760902 -0.043517 0.060102 0.001171
 12 0.209671 -3.137413 -4.537350 0.000000 -0.000000 0.000000
 13 -0.336471 18.320856 -10.789913 -0.353625 -0.000000 0.000000
 14 0.011433 14.669046 -0.377861 -0.072106 0.000000 0.000000
 15 0.210528 25.621658 6.087196 0.492292 0.000000 0.000000
 16 0.325039 0.314666 5.117516 0.117498 0.033547 -0.003540
 17 -0.409779 2.182659 26.434906 0.242907 0.013258 0.034295
 18 -2.968820 36.066540 32.693192 0.240593 0.003610 -0.042174
 19 -0.380095 -2.640919 16.751854 0.000000 -0.000000 0.000000
 20 7.187249 -0.460705 16.472282 -0.233362 -0.154832 0.309014
 21 12.896103 3.303355 -12.884903 -0.554064 -0.163431 -1.182623
 22 9.818130 -2.393084 -11.768448 -0.280533 0.016352 -0.156232
 23 11.684982 2.308941 -7.513325 -0.000000 -0.000000 0.000000
 24 3.667336 0.402563 -5.537418 0.000000 -0.000000 0.000000
 25 -8.155172 -0.644958 16.761314 -0.600854 0.584210 0.226232
 26 -12.364456 3.544243 -13.402786 -0.252785 0.287783 0.286295
 27 -10.403893 -2.206003 -11.274464 0.849262 -0.949858 -2.948537
 28 -3.567734 0.641575 -8.254749 0.014458 -0.004616 0.008585
 29 -16.088997 -105.559029 -25.635811 0.000000 -0.000000 0.000000
 30 -3.127518 0.571331 -6.062374 0.000000 -0.000000 0.000000
 31 -0.040494 -0.674471 8.862846 0.000000 -0.000000 0.000000
 32 0.289211 3.291785 167.749756 0.000000 -0.000000 0.000000
 33 0.000000 0.000000 0.000000 0.000000 -0.000000 0.000000
time 11
  0 -1.005915 2.634505 0.937462 0.000000 -0.000000 0.000000
  1 -1.005915 2.634505 0.937462 0.000000 -0.000000 0.000000
  2 -1.005915 2.634505 0.937462 0.000000 -0.000000 0.000000
  3 0.000000 -3.987153 74.257698 0.177448 0.000000 0.000000
  4 0.325039 0.314666 -2.968971 -0.052360 -0.000000 0.000000
  5 6.206746 -0.124160 -11.733650 -0.731448 -0.103385 0.125747
  6 2.955697 1.729824 -23.848045 0.609807 0.027469 0.066278
  7 0.292416 0.418317 -30.938557 0.406904 -0.090416 -0.085576
  8 0.025497 -3.137414 -3.970853 0.000000 -0.000000 0.000000
  9 -6.833119 -0.124160 -11.733650 -0.084214 0.126969 -0.193193
 10 -3.240685 1.520660 -23.848030 0.589463 -0.038921 -0.013838
 11 -0.355307 0.627481 -30.760895 -0.047081 0.059255 0.001155
 12 0.209675 -3.137413 -4.537351 0.000000 -0.000000 0.000000
 13 -0.336471 18.320858 -10.789925 -0.412347 -0.000000 0.000000
 14 0.011433 14.669044 -0.377853 -0.037052 0.000000 0.000000
 15 0.210528 25.621653 6.087181 0.515751 0.000000 0.000000
 16 0.325039 0.314667 5.117508 0.095960 0.033152 0.263588
 17 -0.409779 2.182661 26.434906 0.235017 -0.019618 -0.201792
 18 -2.968817 36.066547 32.693199 0.240593 0.003610 -0.042174
 19 -0.380096 -2.640919 16.751846 0.000000 -0.000000 0.000000
 20 7.187247 -0.460703 16.472282 -0.233362 -0.154832 0.309014
 21 12.896097 3.303358 -12.884911 -0.554064 -0.163431 -1.182623
 22 9.818138 -2.393085 -11.768456 -0.280533 0.016352 -0.156232
 23 11.684975 2.308933 -7.513321 0.000000 -0.000000 0.000000
 24 3.667332 0.402561 -5.537415 0.000000 -0.000000 0.000000
 25 -8.155170 -0.644955 16.761322 -0.573604 0.621583 1.176592
 26 -12.364452 3.544243 -13.402786 -0.318558 0.263340 0.343107
 27 -10.403893 -2.206007 -11.274454 0.862063 -0.968669 -2.950515
 28 -3.567741 0.641575 -8.254745 0.014458 -0.004616 0.008585
 29 -16.088970 -105.559044 -25.635799 0.000000 -0.000000 0.000000
 30 -3.127525 0.571331 -6.062370 0.000000 -0.000000 0.000000
 31 -0.040495 -0.674469 8.862854 0.000000 -0.000000 0.000000
 32 0.289211 3.291785 167.749756 0.000000 -0.000000 0.000000
 33 0.000000 0.000000 0.000000 0.000000 -0.000000 0.000000
time 12
  0 -1.005915 2.634505 0.937462 0.000000 -0.000000 0.000000
  1 -1.005915 2.634505 0.937462 0.000000 -0.000000 0.000000
  2 -1.005915 2.634505 0.937462 0.000000 -0.000000 0.000000
  3 0.000000 -7.794351 74.257698 0.241848 0.000000 0.000000
  4 0.325039 0.314666 -2.968964 -0.052360 0.000000 0.000000
  5 6.206746 -0.124161 -11.733643 -0.803981 -0.095235 0.134335
  6 2.955698 1.729824 -23.848038 0.674570 0.020540 0.058056
  7 0.292417 0.418315 -30.938553 0.400249 -0.089821 -0.084661
  8 0.025497 -3.137414 -3.970852 0.000000 -0.000000 0.000000
  9 -6.833119 -0.124161 -11.733643 -0.161640 0.113364 -0.204936
 10 -3.240685 1.520661 -23.848034 0.728324 -0.007574 -0.005636
 11 -0.355307 0.627481 -30.760902 -0.052494 0.057971 0.001130
 12 0.209671 -3.137413 -4.537352 0.000000 -0.000000 0.000000
 13 -0.336471 18.320858 -10.789917 -0.462835 -0.000000 0.000000
 14 0.011433 14.669044 -0.377853 -0.002110 0.000000 0.000000
 15 0.210528 25.621651 6.087189 0.539559 0.000000 0.000000
 16 0.325039 0.314667 5.117516 0.076584 0.032662 0.370289
 17 -0.409780 2.182657 26.434906 0.232409 -0.032754 -0.295242
 18 -2.968819 36.066544 32.693199 0.240593 0.003610 -0.042174
 19 -0.380095 -2.640923 16.751839 0.000000 -0.000000 0.000000
 20 7.187246 -0.460707 16.472290 -0.233362 -0.154832 0.309014
 21 12.896103 3.303359 -12.884911 -0.554064 -0.163431 -1.182623
 22 9.818136 -2.393089 -11.768448 -0.280533 0.016352 -0.156232
 23 11.684978 2.308935 -7.513329 -0.000000 -0.000000 0.000000
 24 3.667332 0.402565 -5.537422 0.000000 -0.000000 0.000000
 25 -8.155170 -0.644957 16.761330 -0.562147 0.635535 1.547725
 26 -12.364452 3.544243 -13.402779 -0.361626 0.248034 0.380475
 27 -10.403893 -2.206009 -11.274454 0.881499 -0.997230 -2.953519
 28 -3.567749 0.641571 -8.254745 0.014458 -0.004616 0.008585
 29 -16.088966 -105.559036 -25.635815 0.000000 -0.000000 0.000000
 30 -3.127533 0.571327 -6.062370 0.000000 -0.000000 0.000000
 31 -0.040495 -0.674475 8.862854 0.000000 -0.000000 0.000000
 32 0.289211 3.291785 167.749756 0.000000 -0.000000 0.000000
 33 0.000000 0.000000 0.000000 0.000000 -0.000000 0.000000
time 13
  0 -1.005915 2.634505 0.937462 0.000000 -0.000000 0.000000
  1 -1.005915 2.634505 0.937462 0.000000 -0.000000 0.000000
  2 -1.005915 2.634505 0.937462 0.000000 -0.000000 0.000000
  3 0.000000 -7.733376 74.257698 0.240255 0.000000 -0.000000
  4 0.325039 0.314664 -2.968964 -0.052360 0.000000 0.000000
  5 6.206746 -0.124161 -11.733646 -0.802578 -0.095409 0.134184
  6 2.955698 1.729824 -23.848042 0.674408 0.020554 0.058079
  7 0.292416 0.418318 -30.938549 0.391531 -0.089043 -0.083463
  8 0.025497 -3.137413 -3.970852 0.000000 -0.000000 0.000000
  9 -6.833119 -0.124160 -11.733646 -0.160665 0.113556 -0.204812
 10 -3.240686 1.520661 -23.848034 0.730834 -0.007098 -0.005255
 11 -0.355305 0.627480 -30.760891 -0.059584 0.056288 0.001097
 12 0.209671 -3.137413 -4.537350 0.000000 -0.000000 0.000000
 13 -0.336471 18.320858 -10.789909 -0.502682 -0.000000 0.000000
 14 0.011432 14.669048 -0.377853 0.032118 0.000000 0.000000
 15 0.210528 25.621655 6.087189 0.563388 0.000000 0.000000
 16 0.325039 0.314668 5.117516 0.059419 0.031605 0.366246
 17 -0.409780 2.182659 26.434906 0.233164 -0.032434 -0.291154
 18 -2.968818 36.066544 32.693207 0.240593 0.003610 -0.042174
 19 -0.380095 -2.640915 16.751846 0.000000 -0.000000 0.000000
 20 7.187247 -0.460705 16.472290 -0.233362 -0.154832 0.309014
 21 12.896101 3.303357 -12.884895 -0.554064 -0.163431 -1.182623
 22 9.818142 -2.393092 -11.768448 -0.280533 0.016352 -0.156232
 23 11.684982 2.308929 -7.513313 0.000000 -0.000000 0.000000
 24 3.667339 0.402561 -5.537407 0.000000 -0.000000 0.000000
 25 -8.155170 -0.644955 16.761330 -0.561301 0.634171 1.528839
 26 -12.364449 3.544239 -13.402779 -0.364829 0.247083 0.383299
 27 -10.403893 -2.206011 -11.274456 0.906960 -1.034646 -2.957454
 28 -3.567749 0.641575 -8.254745 0.014458 -0.004616 0.008585
 29 -16.088989 -105.559036 -25.635807 0.000000 -0.000000 0.000000
 30 -3.127525 0.571331 -6.062374 0.000000 -0.000000 0.000000
 31 -0.040495 -0.674471 8.862854 0.000000 -0.000000 0.000000
 32 0.289211 3.291785 167.749756 0.000000 -0.000000 0.000000
 33 0.000000 0.000000 0.000000 0.000000 -0.000000 0.000000
time 14
  0 -1.005915 2.634505 0.937462 0.000000 -0.000000 0.000000
  1 -1.005915 2.634505 0.937462 0.000000 -0.000000 0.000000
  2 -1.005915 2.634505 0.937462 0.000000 -0.000000 0.000000
  3 0.000000 -7.585838 74.257698 0.236403 0.000000 0.000000
  4 0.325039 0.314666 -2.968971 -0.052360 0.000000 0.000000
  5 6.206746 -0.124161 -11.733646 -0.799184 -0.095830 0.133819
  6 2.955698 1.729832 -23.848043 0.674016 0.020587 0.058135
  7 0.292415 0.418320 -30.938553 0.380958 -0.088098 -0.082011
  8 0.025496 -3.137414 -3.970852 0.000000 -0.000000 0.000000
  9 -6.833119 -0.124160 -11.733646 -0.158306 0.114022 -0.204513
 10 -3.240685 1.520660 -23.848038 0.733347 -0.006620 -0.004878
 11 -0.355307 0.627478 -30.760895 -0.068182 0.054247 0.001057
 12 0.209671 -3.137413 -4.537351 0.000000 -0.000000 0.000000
 13 -0.336471 18.320856 -10.789913 -0.529483 -0.000000 0.000000
 14 0.011433 14.669047 -0.377853 0.065032 0.000000 0.000000
 15 0.210528 25.621655 6.087189 0.586910 0.000000 0.000000
 16 0.325039 0.314667 5.117508 0.041074 0.029741 0.356465
 17 -0.409780 2.182659 26.434898 0.234990 -0.031660 -0.281262
 18 -2.968821 36.066544 32.693199 0.240593 0.003610 -0.042174
 19 -0.380095 -2.640923 16.751846 0.000000 -0.000000 0.000000
 20 7.187246 -0.460705 16.472282 -0.233362 -0.154832 0.309014
 21 12.896099 3.303355 -12.884903 -0.554064 -0.163431 -1.182623
 22 9.818130 -2.393086 -11.768448 -0.280533 0.016352 -0.156232
 23 11.684982 2.308933 -7.513321 0.000000 -0.000000 0.000000
 24 3.667336 0.402561 -5.537415 0.000000 -0.000000 0.000000
 25 -8.155170 -0.644956 16.761322 -0.560471 0.630871 1.483142
 26 -12.364445 3.544247 -13.402786 -0.359202 0.249957 0.378626
 27 -10.403900 -2.206005 -11.274456 0.937837 -1.080021 -2.962226
 28 -3.567741 0.641579 -8.254749 0.014458 -0.004616 0.008585
 29 -16.088966 -105.559006 -25.635799 0.000000 -0.000000 0.000000
 30 -3.127518 0.571335 -6.062374 0.000000 -0.000000 0.000000
 31 -0.040495 -0.674473 8.862846 0.000000 -0.000000 0.000000
 32 0.289211 3.291785 167.749756 0.000000 -0.000000 0.000000
 33 0.000000 0.000000 0.000000 0.000000 -0.000000 0.000000
time 15
  0 -1.005915 2.634505 0.937462 0.000000 -0.000000 0.000000
  1 -1.005915 2.634505 0.937462 0.000000 -0.000000 0.000000
  2 -1.005915 2.634505 0.937462 0.000000 -0.000000 0.000000
  3 0.000000 -7.360044 74.257698 0.230506 0.000000 0.000000
  4 0.325039 0.314666 -2.968956 -0.052360 0.000000 0.000000
  5 6.206746 -0.124160 -11.733650 -0.793990 -0.096475 0.133260
  6 2.955698 1.729828 -23.848038 0.673416 0.020639 0.058221
  7 0.292415 0.418316 -30.938553 0.368739 -0.087006 -0.080332
  8 0.025496 -3.137414 -3.970852 0.000000 -0.000000 0.000000
  9 -6.833119 -0.124160 -11.733650 -0.154696 0.114735 -0.204055
 10 -3.240686 1.520660 -23.848038 0.735852 -0.006144 -0.004505
 11 -0.355307 0.627483 -30.760895 -0.078118 0.051888 0.001011
 12 0.209671 -3.137411 -4.537350 0.000000 -0.000000 0.000000
 13 -0.336471 18.320862 -10.789917 -0.540831 -0.000000 0.000000
 14 0.011433 14.669046 -0.377853 0.096032 0.000000 0.000000
 15 0.210528 25.621658 6.087196 0.609795 0.000000 0.000000
 16 0.325039 0.314666 5.117516 0.021730 0.027152 0.341495
 17 -0.409780 2.182659 26.434906 0.237785 -0.030475 -0.266124
 18 -2.968822 36.066540 32.693192 0.240593 0.003610 -0.042174
 19 -0.380095 -2.640919 16.751854 0.000000 -0.000000 0.000000
 20 7.187247 -0.460705 16.472298 -0.233362 -0.154832 0.309014
 21 12.896099 3.303354 -12.884911 -0.554064 -0.163431 -1.182623
 22 9.818134 -2.393085 -11.768448 -0.280533 0.016352 -0.156232
 23 11.684990 2.308941 -7.513321 -0.000000 -0.000000 0.000000
 24 3.667336 0.402567 -5.537411 0.000000 -0.000000 0.000000
 25 -8.155171 -0.644957 16.761322 -0.559660 0.625820 1.413206
 26 -12.364456 3.544239 -13.402782 -0.349050 0.255141 0.370197
 27 -10.403900 -2.206007 -11.274456 0.973522 -1.132460 -2.967741
 28 -3.567741 0.641575 -8.254753 0.014458 -0.004616 0.008585
 29 -16.088978 -105.559036 -25.635818 0.000000 -0.000000 0.000000
 30 -3.127522 0.571331 -6.062378 0.000000 -0.000000 0.000000
 31 -0.040494 -0.674471 8.862862 0.000000 -0.000000 0.000000
 32 0.289211 3.291785 167.749756 0.000000 -0.000000 0.000000
 33 0.000000 0.000000 0.000000 0.000000 -0.000000 0.000000
time 16
  0 -1.005915 2.634505 0.937462 0.000000 -0.000000 0.000000
  1 -1.005915 2.634505 0.937462 0.000000 -0.000000 0.000000
  2 -1.005915 2.634505 0.937462 0.000000 -0.000000 0.000000
  3 0.000000 -7.064298 74.257698 0.222783 0.000000 0.000000
  4 0.325039 0.314666 -2.968971 -0.052360 0.000000 -0.000000
  5 6.206746 -0.124160 -11.733646 -0.787187 -0.097318 0.132528
  6 2.955698 1.729828 -23.848042 0.672630 0.020706 0.058333
  7 0.292415 0.418321 -30.938553 0.355083 -0.085786 -0.078455
  8 0.025497 -3.137412 -3.970852 0.000000 -0.000000 0.000000
  9 -6.833119 -0.124160 -11.733646 -0.149967 0.115669 -0.203456
 10 -3.240685 1.520660 -23.848034 0.738340 -0.005670 -0.004140
 11 -0.355305 0.627478 -30.760895 -0.089224 0.049252 0.000960
 12 0.209673 -3.137415 -4.537350 0.000000 -0.000000 0.000000
 13 -0.336471 18.320860 -10.789921 -0.537373 -0.000000 0.000000
 14 0.011432 14.669044 -0.377853 0.124517 0.000000 0.000000
 15 0.210528 25.621651 6.087189 0.631717 0.000000 0.000000
 16 0.325039 0.314667 5.117508 0.001567 0.023914 0.321887
 17 -0.409778 2.182659 26.434914 0.241446 -0.028924 -0.246296
 18 -2.968817 36.066547 32.693199 0.240593 0.003610 -0.042174
 19 -0.380095 -2.640919 16.751846 0.000000 -0.000000 0.000000
 20 7.187247 -0.460704 16.472298 -0.233362 -0.154832 0.309014
 21 12.896099 3.303356 -12.884911 -0.554064 -0.163431 -1.182623
 22 9.818134 -2.393089 -11.768448 -0.280533 0.016352 -0.156232
 23 11.684982 2.308937 -7.513313 0.000000 -0.000000 0.000000
 24 3.667336 0.402567 -5.537415 0.000000 -0.000000 0.000000
 25 -8.155169 -0.644957 16.761322 -0.558868 0.619205 1.321604
 26 -12.364449 3.544235 -13.402782 -0.334843 0.262395 0.358400
 27 -10.403900 -2.206003 -11.274454 1.013404 -1.191067 -2.973904
 28 -3.567745 0.641575 -8.254745 0.014458 -0.004616 0.008585
 29 -16.088963 -105.559029 -25.635803 0.000000 -0.000000 0.000000
 30 -3.127518 0.571327 -6.062374 0.000000 -0.000000 0.000000
 31 -0.040494 -0.674470 8.862862 0.000000 -0.000000 0.000000
 32 0.289211 3.291785 167.749756 0.000000 -0.000000 0.000000
 33 0.000000 0.000000 0.000000 0.000000 -0.000000 0.000000
time 17
  0 -1.005915 2.634505 0.937462 0.000000 -0.000000 0.000000
  1 -1.005915 2.634505 0.937462 0.000000 -0.000000 0.000000
  2 -1.005915 2.634505 0.937462 0.000000 -0.000000 0.000000
  3 0.000000 -6.706906 74.257698 0.213451 0.000000 0.000000
  4 0.325039 0.314665 -2.968971 -0.052360 -0.000000 -0.000000
  5 6.206746 -0.124161 -11.733650 -0.778965 -0.098338 0.131643
  6 2.955698 1.729828 -23.848045 0.671680 0.020787 0.058469
  7 0.292416 0.418312 -30.938559 0.340198 -0.084457 -0.076410
  8 0.025496 -3.137414 -3.970853 0.000000 -0.000000 0.000000
  9 -6.833119 -0.124160 -11.733650 -0.144253 0.116798 -0.202731
 10 -3.240685 1.520660 -23.848042 0.740798 -0.005201 -0.003781
 11 -0.355307 0.627480 -30.760899 -0.101329 0.046378 0.000904
 12 0.209671 -3.137415 -4.537350 0.000000 -0.000000 0.000000
 13 -0.336471 18.320856 -10.789917 -0.524092 -0.000000 0.000000
 14 0.011432 14.669045 -0.377853 0.149887 0.000000 0.000000
 15 0.210528 25.621653 6.087189 0.652346 0.000000 0.000000
 16 0.325039 0.314666 5.117508 -0.019234 0.020109 0.298193
 17 -0.409780 2.182661 26.434898 0.245870 -0.027049 -0.222335
 18 -2.968821 36.066547 32.693207 0.240593 0.003610 -0.042174
 19 -0.380096 -2.640919 16.751846 0.000000 -0.000000 0.000000
 20 7.187247 -0.460703 16.472290 -0.233362 -0.154832 0.309014
 21 12.896103 3.303353 -12.884903 -0.554064 -0.163431 -1.182623
 22 9.818134 -2.393087 -11.768456 -0.280533 0.016352 -0.156232
 23 11.684982 2.308941 -7.513325 -0.000000 -0.000001 0.000000
 24 3.667336 0.402569 -5.537415 0.000000 -0.000000 0.000000
 25 -8.155170 -0.644957 16.761314 -0.558098 0.611211 1.210908
 26 -12.364456 3.544243 -13.402786 -0.317045 0.271484 0.343622
 27 -10.403893 -2.206005 -11.274458 1.056876 -1.254949 -2.980622
 28 -3.567741 0.641579 -8.254753 0.014458 -0.004616 0.008585
 29 -16.088982 -105.559052 -25.635788 0.000000 -0.000000 0.000000
 30 -3.127525 0.571327 -6.062382 0.000000 -0.000000 0.000000
 31 -0.040494 -0.674471 8.862854 0.000000 -0.000000 0.000000
 32 0.289211 3.291785 167.749756 0.000000 -0.000000 0.000000
 33 0.000000 0.000000 0.000000 0.000000 -0.000000 0.000000
time 18
  0 -1.005915 2.634505 0.937462 0.000000 -0.000000 0.000000
  1 -1.005915 2.634505 0.937462 0.000000 -0.000000 0.000000
  2 -1.005915 2.634505 0.937462 0.000000 -0.000000 0.000000
  3 0.000000 -6.296175 74.257698 0.202725 0.000000 0.000000
  4 0.325039 0.314665 -2.968964 -0.052360 0.000000 -0.000000
  5 6.206746 -0.124160 -11.733646 -0.769517 -0.099510 0.130626
  6 2.955697 1.729828 -23.848042 0.670589 0.020880 0.058625
  7 0.292417 0.418318 -30.938553 0.324294 -0.083036 -0.074224
  8 0.025496 -3.137414 -3.970852 0.000000 -0.000000 0.000000
  9 -6.833119 -0.124160 -11.733646 -0.137686 0.118095 -0.201899
 10 -3.240685 1.520660 -23.848042 0.743217 -0.004739 -0.003432
 11 -0.355307 0.627478 -30.760902 -0.114264 0.043308 0.000844
 12 0.209675 -3.137413 -4.537351 0.000000 -0.000000 0.000000
 13 -0.336471 18.320858 -10.789913 -0.502149 -0.000000 0.000000
 14 0.011432 14.669047 -0.377853 0.171540 0.000001 0.000000
 15 0.210527 25.621656 6.087185 0.671355 0.000000 0.000000
 16 0.325039 0.314665 5.117516 -0.040491 0.015815 0.270961
 17 -0.409779 2.182659 26.434906 0.250955 -0.024894 -0.194797
 18 -2.968817 36.066544 32.693207 0.240593 0.003610 -0.042174
 19 -0.380095 -2.640919 16.751854 0.000000 -0.000000 0.000000
 20 7.187247 -0.460706 16.472282 -0.233362 -0.154832 0.309014
 21 12.896101 3.303357 -12.884911 -0.554064 -0.163431 -1.182623
 22 9.818134 -2.393085 -11.768440 -0.280533 0.016352 -0.156232
 23 11.684982 2.308941 -7.513321 -0.000000 -0.000000 0.000000
 24 3.667332 0.402567 -5.537415 0.000000 -0.000000 0.000000
 25 -8.155170 -0.644958 16.761322 -0.557352 0.602023 1.083691
 26 -12.364449 3.544245 -13.402786 -0.296125 0.282166 0.326251
 27 -10.403893 -2.206005 -11.274460 1.103325 -1.323208 -2.987801
 28 -3.567745 0.641571 -8.254749 0.014458 -0.004616 0.008585
 29 -16.089020 -105.559067 -25.635799 0.000000 -0.000000 0.000000
 30 -3.127529 0.571327 -6.062378 0.000000 -0.000000 0.000000
 31 -0.040495 -0.674472 8.862846 0.000000 -0.000000 0.000000
 32 0.289211 3.291785 167.749756 0.000000 -0.000000 0.000000
 33 0.000000 0.000000 0.000000 0.000000 -0.000000 0.000000
time 19
  0 -1.005915 2.634505 0.937462 0.000000 -0.000000 0.000000
  1 -1.005915 2.634505 0.937462 0.000000 -0.000000 0.000000
  2 -1.005915 2.634505 0.937462 0.000000 -0.000000 0.000000
  3 0.000000 -5.840411 74.257698 0.190824 0.000000 0.000000
  4 0.325039 0.314665 -2.968964 -0.052360 0.000000 0.000000
  5 6.206746 -0.124161 -11.733650 -0.759032 -0.100810 0.129497
  6 2.955698 1.729820 -23.848042 0.669378 0.020983 0.058799
  7 0.292417 0.418319 -30.938553 0.307577 -0.081542 -0.071927
  8 0.025496 -3.137413 -3.970853 0.000000 -0.000000 0.000000
  9 -6.833119 -0.124161 -11.733646 -0.130399 0.119534 -0.200975
 10 -3.240683 1.520661 -23.848034 0.745585 -0.004287 -0.003092
 11 -0.355307 0.627480 -30.760899 -0.127858 0.040081 0.000781
 12 0.209671 -3.137411 -4.537349 0.000000 -0.000000 0.000000
 13 -0.336471 18.320858 -10.789917 -0.472618 -0.000000 0.000000
 14 0.011432 14.669046 -0.377853 0.188876 0.000001 0.000000
 15 0.210527 25.621647 6.087189 0.688416 0.000000 0.000000
 16 0.325039 0.314664 5.117516 -0.062025 0.011112 0.240745
 17 -0.409780 2.182660 26.434914 0.256597 -0.022504 -0.164241
 18 -2.968817 36.066551 32.693207 0.240593 0.003610 -0.042174
 19 -0.380095 -2.640915 16.751839 0.000000 -0.000000 0.000000
 20 7.187246 -0.460705 16.472298 -0.233362 -0.154832 0.309014
 21 12.896097 3.303356 -12.884911 -0.554064 -0.163431 -1.182623
 22 9.818123 -2.393082 -11.768448 -0.280533 0.016352 -0.156232
 23 11.684975 2.308939 -7.513317 -0.000000 -0.000001 0.000000
 24 3.667332 0.402567 -5.537411 0.000000 -0.000000 0.000000
 25 -8.155170 -0.644955 16.761330 -0.556633 0.591828 0.942526
 26 -12.364449 3.544241 -13.402779 -0.272549 0.294205 0.306674
 27 -10.403893 -2.206007 -11.274456 1.152146 -1.394951 -2.995346
 28 -3.567741 0.641571 -8.254745 0.014458 -0.004616 0.008585
 29 -16.088951 -105.559067 -25.635830 0.000000 -0.000000 0.000000
 30 -3.127522 0.571327 -6.062374 0.000000 -0.000000 0.000000
 31 -0.040495 -0.674471 8.862862 0.000000 -0.000000 0.000000
 32 0.289211 3.291785 167.749756 0.000000 -0.000000 0.000000
 33 0.000000 0.000000 0.000000 0.000000 -0.000000 0.000000
time 20
  0 -1.005915 2.634505 0.937462 0.000000 -0.000000 0.000000
  1 -1.005915 2.634505 0.937462 0.000000 -0.000000 0.000000
  2 -1.005915 2.634505 0.937462 0.000000 -0.000000 0.000000
  3 0.000000 -5.347919 74.257698 0.177963 0.000000 0.000000
  4 0.325039 0.314665 -2.968971 -0.052360 0.000000 -0.000000
  5 6.206746 -0.124161 -11.733646 -0.747703 -0.102216 0.128278
  6 2.955698 1.729828 -23.848038 0.668069 0.021095 0.058986
  7 0.292417 0.418320 -30.938560 0.290258 -0.079995 -0.069547
  8 0.025498 -3.137414 -3.970853 0.000000 -0.000000 0.000000
  9 -6.833119 -0.124160 -11.733646 -0.122525 0.121089 -0.199976
 10 -3.240684 1.520661 -23.848042 0.747893 -0.003846 -0.002763
 11 -0.355307 0.627481 -30.760895 -0.141943 0.036737 0.000716
 12 0.209673 -3.137415 -4.537351 0.000000 -0.000000 0.000000
 13 -0.336471 18.320858 -10.789921 -0.436571 -0.000000 0.000000
 14 0.011432 14.669046 -0.377853 0.201295 0.000001 0.000000
 15 0.210527 25.621653 6.087185 0.703200 0.000000 0.000000
 16 0.325039 0.314665 5.117500 -0.083654 0.006079 0.208093
 17 -0.409779 2.182660 26.434914 0.262693 -0.019920 -0.131222
 18 -2.968818 36.066559 32.693207 0.240593 0.003610 -0.042174
 19 -0.380096 -2.640915 16.751854 0.000000 -0.000000 0.000000
 20 7.187248 -0.460705 16.472298 -0.233362 -0.154832 0.309014
 21 12.896099 3.303358 -12.884911 -0.554064 -0.163431 -1.182623
 22 9.818134 -2.393089 -11.768440 -0.280533 0.016352 -0.156232
 23 11.684982 2.308931 -7.513321 -0.000000 -0.000000 0.000000
 24 3.667336 0.402567 -5.537418 0.000000 -0.000000 0.000000
 25 -8.155170 -0.644957 16.761330 -0.555941 0.580812 0.789985
 26 -12.364449 3.544239 -13.402790 -0.246785 0.307361 0.285281
 27 -10.403893 -2.206007 -11.274450 1.202728 -1.469280 -3.003163
 28 -3.567743 0.641571 -8.254753 0.014458 -0.004616 0.008585
 29 -16.088972 -105.559052 -25.635818 0.000000 -0.000000 0.000000
 30 -3.127527 0.571327 -6.062378 0.000000 -0.000000 0.000000
 31 -0.040495 -0.674471 8.862854 0.000000 -0.000000 0.000000
 32 0.289211 3.291785 167.749756 0.000000 -0.000000 0.000000
 33 0.000000 0.000000 0.000000 0.000000 -0.000000 0.000000
time 21
  0 -1.005915 2.634505 0.937462 0.000000 -0.000000 0.000000
  1 -1.005915 2.634505 0.937462 0.000000 -0.000000 0.000000
  2 -1.005915 2.634505 0.937462 0.000000 -0.000000 0.000000
  3 0.000000 -4.827006 74.257698 0.164360 0.000000 -0.000000
  4 0.325039 0.314666 -2.968964 -0.052360 0.000000 0.000000
  5 6.206746 -0.124160 -11.733646 -0.735719 -0.103702 0.126988
  6 2.955698 1.729828 -23.848042 0.666685 0.021213 0.059184
  7 0.292416 0.418319 -30.938557 0.272544 -0.078412 -0.067113
  8 0.025497 -3.137412 -3.970852 0.000000 -0.000000 0.000000
  9 -6.833119 -0.124160 -11.733646 -0.114197 0.122734 -0.198921
 10 -3.240684 1.520661 -23.848042 0.750129 -0.003418 -0.002447
 11 -0.355305 0.627480 -30.760895 -0.156349 0.033318 0.000649
 12 0.209671 -3.137413 -4.537351 0.000000 -0.000000 0.000000
 13 -0.336471 18.320860 -10.789921 -0.395079 -0.000000 0.000000
 14 0.011432 14.669050 -0.377853 0.208195 0.000001 0.000000
 15 0.210527 25.621656 6.087189 0.715379 0.000000 0.000000
 16 0.325039 0.314666 5.117508 -0.105197 0.000796 0.173557
 17 -0.409780 2.182660 26.434906 0.269142 -0.017187 -0.096297
 18 -2.968816 36.066555 32.693207 0.240593 0.003610 -0.042174
 19 -0.380096 -2.640917 16.751839 0.000000 -0.000000 0.000000
 20 7.187246 -0.460704 16.472290 -0.233362 -0.154832 0.309014
 21 12.896103 3.303354 -12.884903 -0.554064 -0.163431 -1.182623
 22 9.818134 -2.393085 -11.768444 -0.280533 0.016352 -0.156232
 23 11.684982 2.308937 -7.513317 -0.000000 -0.000000 0.000000
 24 3.667332 0.402563 -5.537418 0.000000 -0.000000 0.000000
 25 -8.155169 -0.644956 16.761322 -0.555280 0.569159 0.628641
 26 -12.364441 3.544247 -13.402779 -0.219298 0.321396 0.262457
 27 -10.403893 -2.205999 -11.274452 1.254463 -1.545302 -3.011160
 28 -3.567743 0.641571 -8.254749 0.014458 -0.004616 0.008585
 29 -16.088959 -105.559036 -25.635811 0.000000 -0.000000 0.000000
 30 -3.127522 0.571327 -6.062378 0.000000 -0.000000 0.000000
 31 -0.040495 -0.674470 8.862854 0.000000 -0.000000 0.000000
 32 0.289211 3.291785 167.749756 0.000000 -0.000000 0.000000
 33 0.000000 0.000000 0.000000 0.000000 -0.000000 0.000000
time 22
  0 -1.005915 2.634505 0.937462 0.000000 -0.000000 0.000000
  1 -1.005915 2.634505 0.937462 0.000000 -0.000000 0.000000
  2 -1.005915 2.634505 0.937462 0.000000 -0.000000 0.000000
  3 0.000000 -4.285977 74.257698 0.150232 0.000000 0.000000
  4 0.325039 0.314665 -2.968964 -0.052360 0.000000 0.000000
  5 6.206746 -0.124160 -11.733646 -0.723274 -0.105246 0.125648
  6 2.955696 1.729832 -23.848040 0.665247 0.021335 0.059389
  7 0.292417 0.418320 -30.938559 0.254644 -0.076813 -0.064653
  8 0.025498 -3.137413 -3.970853 0.000000 -0.000000 0.000000
  9 -6.833119 -0.124160 -11.733646 -0.105547 0.124443 -0.197824
 10 -3.240683 1.520660 -23.848034 0.752283 -0.003006 -0.002144
 11 -0.355307 0.627478 -30.760895 -0.170906 0.029862 0.000582
 12 0.209671 -3.137415 -4.537350 0.000000 -0.000000 0.000000
 13 -0.336471 18.320858 -10.789917 -0.349214 -0.000000 0.000000
 14 0.011433 14.669044 -0.377853 0.208268 0.000001 0.000000
 15 0.210527 25.621651 6.087181 0.724626 0.000000 0.000000
 16 0.325039 0.314666 5.117508 -0.126475 -0.004659 0.137687
 17 -0.409780 2.182659 26.434906 0.275839 -0.014349 -0.060024
 18 -2.968818 36.066544 32.693207 0.240593 0.003610 -0.042174
 19 -0.380096 -2.640915 16.751839 0.000000 -0.000000 0.000000
 20 7.187247 -0.460705 16.472298 -0.233362 -0.154832 0.309014
 21 12.896101 3.303356 -12.884895 -0.554064 -0.163431 -1.182623
 22 9.818134 -2.393085 -11.768440 -0.280533 0.016352 -0.156232
 23 11.684982 2.308937 -7.513313 -0.000000 -0.000000 0.000000
 24 3.667332 0.402567 -5.537415 0.000000 -0.000000 0.000000
 25 -8.155170 -0.644957 16.761330 -0.554651 0.557057 0.461067
 26 -12.364441 3.544243 -13.402779 -0.190557 0.336073 0.238592
 27 -10.403893 -2.206007 -11.274450 -1.834852 -1.519468 0.122354
 28 -3.567749 0.641579 -8.254753 0.014458 -0.004616 0.008585
 29 -16.088978 -105.559021 -25.635796 0.000000 -0.000000 0.000000
 30 -3.127525 0.571335 -6.062382 0.000000 -0.000000 0.000000
 31 -0.040495 -0.674471 8.862846 0.000000 -0.000000 0.000000
 32 0.289211 3.291785 167.749756 0.000000 -0.000000 0.000000
 33 0.000000 0.000000 0.000000 0.000000 -0.000000 0.000000
time 23
  0 -1.005915 2.634505 0.937462 0.000000 -0.000000 0.000000
  1 -1.005915 2.634505 0.937462 0.000000 -0.000000 0.000000
  2 -1.005915 2.634505 0.937462 0.000000 -0.000000 0.000000
  3 0.000000 -3.733138 74.257698 0.135796 0.000000 0.000000
  4 0.325039 0.314665 -2.968971 -0.052360 -0.000000 -0.000000
  5 6.206747 -0.124160 -11.733650 -0.710556 -0.106823 0.124279
  6 2.955700 1.729832 -23.848043 0.663778 0.021461 0.059600
  7 0.292418 0.418324 -30.938559 0.236767 -0.075216 -0.062197
  8 0.025498 -3.137413 -3.970853 0.000000 -0.000000 0.000000
  9 -6.833119 -0.124160 -11.733646 -0.096708 0.126188 -0.196703
 10 -3.240683 1.520660 -23.848042 0.754344 -0.002611 -0.001856
 11 -0.355307 0.627481 -30.760897 -0.185444 0.026411 0.000515
 12 0.209673 -3.137413 -4.537350 0.000000 -0.000000 0.000000
 13 -0.336471 18.320858 -10.789917 -0.300050 -0.000000 0.000000
 14 0.011432 14.669047 -0.377853 0.194491 0.000001 0.000000
 15 0.210527 25.621656 6.087177 0.730611 0.000000 0.000000
 16 0.325039 0.314666 5.117500 -0.147306 -0.010205 0.101034
 17 -0.409779 2.182660 26.434914 0.282683 -0.011449 -0.022959
 18 -2.968818 36.066544 32.693207 0.240593 0.003610 -0.042174
 19 -0.380095 -2.640915 16.751854 0.000000 -0.000000 0.000000
 20 7.187247 -0.460705 16.472290 -0.233362 -0.154832 0.309014
 21 12.896099 3.303358 -12.884911 -0.554064 -0.163431 -1.182623
 22 9.818134 -2.393089 -11.768440 -0.280533 0.016352 -0.156232
 23 11.684982 2.308935 -7.513321 -0.000000 -0.000000 0.000000
 24 3.667336 0.402563 -5.537415 0.000000 -0.000000 0.000000
 25 -8.155170 -0.644956 16.761322 -0.554055 0.544691 0.289834
 26 -12.364449 3.544235 -13.402779 -0.161027 0.351151 0.214072
 27 -10.403885 -2.206009 -11.274454 -1.782646 -1.442747 0.114287
 28 -3.567741 0.641563 -8.254749 0.014458 -0.004616 0.008585
 29 -16.088980 -105.559021 -25.635818 0.000000 -0.000000 0.000000
 30 -3.127525 0.571327 -6.062374 0.000000 -0.000000 0.000000
 31 -0.040495 -0.674471 8.862854 0.000000 -0.000000 0.000000
 32 0.289211 3.291785 167.749756 0.000000 -0.000000 0.000000
 33 0.000000 0.000000 0.000000 0.000000 -0.000000 0.000000
time 24
  0 -1.005915 2.634505 0.937462 0.000000 -0.000000 0.000000
  1 -1.005915 2.634505 0.937462 0.000000 -0.000000 0.000000
  2 -1.005915 2.634505 0.937462 0.000000 -0.000000 0.000000
  3 0.000000 -3.176794 74.257698 0.121268 0.000000 -0.000000
  4 0.325039 0.314665 -2.968964 -0.052360 -0.000000 -0.000000
  5 6.206746 -0.124160 -11.733650 -0.697758 -0.108410 0.122902
  6 2.955699 1.729828 -23.848042 0.662300 0.021587 0.059811
  7 0.292416 0.418318 -30.938551 0.219122 -0.073640 -0.059772
  8 0.025497 -3.137414 -3.970853 0.000000 -0.000000 0.000000
  9 -6.833119 -0.124160 -11.733650 -0.087813 0.127945 -0.195575
 10 -3.240683 1.520661 -23.848042 0.756301 -0.002236 -0.001585
 11 -0.355309 0.627483 -30.760899 -0.199794 0.023005 0.000448
 12 0.209673 -3.137413 -4.537351 0.000000 -0.000000 0.000000
 13 -0.336471 18.320858 -10.789921 -0.248657 -0.000000 0.000000
 14 0.011432 14.669049 -0.377853 0.167229 0.000001 0.000000
 15 0.210527 25.621658 6.087189 0.733007 0.000000 0.000000
 16 0.325039 0.314666 5.117516 -0.167509 -0.015764 0.064149
 17 -0.409779 2.182660 26.434906 0.289570 -0.008531 0.014341
 18 -2.968819 36.066555 32.693207 0.240593 0.003610 -0.042174
 19 -0.380095 -2.640915 16.751846 0.000000 -0.000000 0.000000
 20 7.187246 -0.460705 16.472290 -0.233362 -0.154832 0.309014
 21 12.896101 3.303358 -12.884903 -0.554064 -0.163431 -1.182623
 22 9.818134 -2.393084 -11.768444 -0.280533 0.016352 -0.156232
 23 11.684986 2.308933 -7.513321 -0.000000 -0.000000 0.000000
 24 3.667339 0.402565 -5.537415 0.000000 -0.000000 0.000000
 25 -8.155169 -0.644957 16.761322 -0.553496 0.532246 0.117516
 26 -12.364452 3.544235 -13.402779 -0.131177 0.366394 0.189286
 27 -10.403893 -2.206007 -11.274454 -1.731113 -1.367018 0.106323
 28 -3.567745 0.641579 -8.254745 0.014458 -0.004616 0.008585
 29 -16.088982 -105.559067 -25.635807 0.000000 -0.000000 0.000000
 30 -3.127525 0.571335 -6.062374 0.000000 -0.000000 0.000000
 31 -0.040494 -0.674471 8.862846 0.000000 -0.000000 0.000000
 32 0.289211 3.291785 167.749756 0.000000 -0.000000 0.000000
 33 0.000000 0.000000 0.000000 0.000000 -0.000000 0.000000
time 25
  0 -1.005915 2.634505 0.937462 0.000000 -0.000000 0.000000
  1 -1.005915 2.634505 0.937462 0.000000 -0.000000 0.000000
  2 -1.005915 2.634505 0.937462 0.000000 -0.000000 0.000000
  3 0.000000 -2.625252 74.257698 0.106866 0.000000 0.000000
  4 0.325039 0.314665 -2.968971 -0.052360 0.000000 -0.000000
  5 6.206746 -0.124160 -11.733646 -0.685070 -0.109984 0.121536
  6 2.955698 1.729828 -23.848038 0.660834 0.021712 0.060021
  7 0.292417 0.418316 -30.938551 0.201916 -0.072103 -0.057408
  8 0.025497 -3.137413 -3.970852 0.000000 -0.000000 0.000000
  9 -6.833119 -0.124160 -11.733646 -0.078995 0.129687 -0.194457
 10 -3.240685 1.520660 -23.848034 0.758144 -0.001883 -0.001330
 11 -0.355307 0.627483 -30.760897 -0.213786 0.019683 0.000384
 12 0.209675 -3.137413 -4.537349 0.000000 -0.000000 0.000000
 13 -0.336471 18.320858 -10.789917 -0.196109 -0.000000 0.000000
 14 0.011432 14.669044 -0.377846 0.129019 0.000000 0.000000
 15 0.210527 25.621655 6.087196 0.725981 0.000000 0.000000
 16 0.325039 0.314666 5.117508 -0.186903 -0.021256 0.027583
 17 -0.409779 2.182658 26.434914 0.296397 -0.005637 0.051319
 18 -2.968819 36.066547 32.693207 0.240593 0.003610 -0.042174
 19 -0.380095 -2.640913 16.751846 0.000000 -0.000000 0.000000
 20 7.187245 -0.460705 16.472290 -0.233362 -0.154832 0.309014
 21 12.896099 3.303356 -12.884903 -0.554064 -0.163431 -1.182623
 22 9.818134 -2.393084 -11.768452 -0.280533 0.016352 -0.156232
 23 11.684982 2.308935 -7.513317 -0.000000 -0.000000 0.000000
 24 3.667328 0.402569 -5.537415 0.000000 -0.000000 0.000000
 25 -8.155169 -0.644957 16.761330 -0.552975 0.519909 -0.053314
 26 -12.364449 3.544239 -13.402786 -0.101473 0.381562 0.164621
 27 -10.403893 -2.206009 -11.274460 -1.680865 -1.293178 0.098557
 28 -3.567747 0.641571 -8.254749 0.014458 -0.004616 0.008585
 29 -16.089031 -105.559059 -25.635815 0.000000 -0.000000 0.000000
 30 -3.127527 0.571335 -6.062374 0.000000 -0.000000 0.000000
 31 -0.040495 -0.674471 8.862862 0.000000 -0.000000 0.000000
 32 0.289211 3.291785 167.749756 0.000000 -0.000000 0.000000
 33 0.000000 0.000000 0.000000 0.000000 -0.000000 0.000000
time 26
  0 -1.005915 2.634505 0.937462 0.000000 -0.000000 0.000000
  1 -1.005915 2.634505 0.937462 0.000000 -0.000000 0.000000
  2 -1.005915 2.634505 0.937462 0.000000 -0.000000 0.000000
  3 0.000000 -2.086819 74.257698 0.092805 0.000000 0.000000
  4 0.325039 0.314665 -2.968956 -0.052360 0.000000 0.000000
  5 6.206747 -0.124160 -11.733646 -0.672684 -0.111520 0.120203
  6 2.955700 1.729828 -23.848034 0.659403 0.021834 0.060225
  7 0.292417 0.418321 -30.938555 0.185360 -0.070624 -0.055132
  8 0.025497 -3.137412 -3.970851 0.000000 -0.000000 0.000000
  9 -6.833118 -0.124160 -11.733650 -0.070386 0.131387 -0.193366
 10 -3.240685 1.520660 -23.848042 0.759862 -0.001553 -0.001094
 11 -0.355309 0.627480 -30.760887 -0.227251 0.016487 0.000321
 12 0.209671 -3.137413 -4.537351 0.000000 -0.000000 0.000000
 13 -0.336471 18.320858 -10.789917 -0.143477 -0.000000 0.000000
 14 0.011433 14.669044 -0.377861 0.082401 0.000000 0.000000
 15 0.210527 25.621651 6.087189 0.702731 0.000000 0.000000
 16 0.325039 0.314666 5.117516 -0.205308 -0.026601 -0.008115
 17 -0.409779 2.182661 26.434906 0.303062 -0.002813 0.087418
 18 -2.968817 36.066551 32.693207 0.240593 0.003610 -0.042174
 19 -0.380095 -2.640919 16.751846 0.000000 -0.000000 0.000000
 20 7.187247 -0.460705 16.472290 -0.233362 -0.154832 0.309014
 21 12.896097 3.303354 -12.884903 -0.554064 -0.163431 -1.182623
 22 9.818130 -2.393087 -11.768448 -0.280533 0.016352 -0.156232
 23 11.684986 2.308935 -7.513321 -0.000000 -0.000001 0.000000
 24 3.667339 0.402563 -5.537411 0.000000 -0.000000 0.000000
 25 -8.155171 -0.644956 16.761322 -0.552494 0.507865 -0.220085
 26 -12.364449 3.544235 -13.402779 -0.072381 0.396417 0.140464
 27 -10.403893 -2.206005 -11.274458 -1.632511 -1.222121 0.091085
 28 -3.567749 0.641579 -8.254745 0.014458 -0.004616 0.008585
 29 -16.088978 -105.559029 -25.635803 0.000000 -0.000000 0.000000
 30 -3.127525 0.571335 -6.062378 0.000000 -0.000000 0.000000
 31 -0.040494 -0.674471 8.862854 0.000000 -0.000000 0.000000
 32 0.289211 3.291785 167.749756 0.000000 -0.000000 0.000000
 33 0.000000 0.000000 0.000000 0.000000 -0.000000 0.000000
time 27
  0 -1.005915 2.634505 0.937462 0.000000 -0.000000 0.000000
  1 -1.005915 2.634505 0.937462 0.000000 -0.000000 0.000000
  2 -1.005915 2.634505 0.937462 0.000000 -0.000000 0.000000
  3 0.000000 -1.569799 74.257698 0.079304 0.000000 -0.000000
  4 0.325039 0.314666 -2.968964 -0.052360 0.000000 0.000000
  5 6.206746 -0.124160 -11.733650 -0.660790 -0.112995 0.118923
  6 2.955698 1.729828 -23.848038 0.658030 0.021951 0.060422
  7 0.292417 0.418323 -30.938555 0.169660 -0.069221 -0.052975
  8 0.025498 -3.137413 -3.970853 0.000000 -0.000000 0.000000
  9 -6.833119 -0.124160 -11.733650 -0.062120 0.133020 -0.192318
 10 -3.240685 1.520660 -23.848034 0.761445 -0.001249 -0.000877
 11 -0.355307 0.627481 -30.760895 -0.240018 0.013456 0.000262
 12 0.209671 -3.137415 -4.537349 0.000000 -0.000000 0.000000
 13 -0.336471 18.320858 -10.789921 -0.091833 -0.000000 0.000000
 14 0.011432 14.669048 -0.377853 0.029913 0.000000 0.000000
 15 0.210527 25.621662 6.087193 0.666719 0.000000 0.000000
 16 0.325039 0.314665 5.117508 -0.222544 -0.031721 -0.042393
 17 -0.409780 2.182660 26.434906 0.309462 -0.000101 0.122082
 18 -2.968822 36.066544 32.693192 0.240593 0.003610 -0.042174
 19 -0.380095 -2.640915 16.751846 0.000000 -0.000000 0.000000
 20 7.187247 -0.460704 16.472282 -0.233362 -0.154832 0.309014
 21 12.896099 3.303352 -12.884903 -0.554064 -0.163431 -1.182623
 22 9.818127 -2.393087 -11.768444 -0.280533 0.016352 -0.156232
 23 11.684975 2.308929 -7.513313 0.000000 -0.000001 0.000000
 24 3.667328 0.402559 -5.537411 0.000000 -0.000000 0.000000
 25 -8.155170 -0.644956 16.761314 -0.552055 0.496300 -0.380223
 26 -12.364449 3.544239 -13.402786 -0.044369 0.410721 0.117205
 27 -10.403900 -2.206005 -11.274462 -1.586660 -1.154743 0.083999
 28 -3.567745 0.641571 -8.254745 0.014458 -0.004616 0.008585
 29 -16.089005 -105.559044 -25.635803 0.000000 -0.000000 0.000000
 30 -3.127529 0.571327 -6.062374 0.000000 -0.000000 0.000000
 31 -0.040495 -0.674470 8.862846 0.000000 -0.000000 0.000000
 32 0.289211 3.291785 167.749756 0.000000 -0.000000 0.000000
 33 0.000000 0.000000 0.000000 0.000000 -0.000000 0.000000
time 28
  0 -1.005915 2.634505 0.937462 0.000000 -0.000000 0.000000
  1 -1.005915 2.634505 0.937462 0.000000 -0.000000 0.000000
  2 -1.005915 2.634505 0.937462 0.000000 -0.000000 0.000000
  3 0.000000 -1.082498 74.257698 0.066579 0.000000 0.000000
  4 0.325039 0.314665 -2.968956 -0.052360 -0.000000 0.000000
  5 6.206747 -0.124160 -11.733646 -0.649580 -0.114386 0.117716
  6 2.955700 1.729832 -23.848042 0.656735 0.022061 0.060607
  7 0.292416 0.418321 -30.938553 0.155026 -0.067914 -0.050964
  8 0.025498 -3.137411 -3.970852 0.000000 -0.000000 0.000000
  9 -6.833118 -0.124160 -11.733650 -0.054329 0.134559 -0.191330
 10 -3.240686 1.520661 -23.848042 0.762881 -0.000974 -0.000682
 11 -0.355310 0.627487 -30.760899 -0.251919 0.010631 0.000207
 12 0.209675 -3.137413 -4.537351 0.000000 -0.000000 0.000000
 13 -0.336471 18.320858 -10.789917 -0.042250 -0.000000 0.000000
 14 0.011432 14.669050 -0.377857 -0.025908 0.000000 0.000000
 15 0.210528 25.621658 6.087193 0.621527 0.000000 0.000000
 16 0.325039 0.314665 5.117516 -0.238428 -0.036536 -0.074701
 17 -0.409780 2.182663 26.434914 0.315495 0.002456 0.154753
 18 -2.968820 36.066551 32.693214 0.240593 0.003610 -0.042174
 19 -0.380095 -2.640913 16.751846 0.000000 -0.000000 0.000000
 20 7.187248 -0.460704 16.472298 -0.233362 -0.154832 0.309014
 21 12.896097 3.303356 -12.884911 -0.554064 -0.163431 -1.182623
 22 9.818127 -2.393085 -11.768448 -0.280533 0.016352 -0.156232
 23 11.684982 2.308935 -7.513317 0.000000 -0.000001 0.000000
 24 3.667336 0.402565 -5.537411 0.000000 -0.000000 0.000000
 25 -8.155170 -0.644956 16.761330 -0.551660 0.485399 -0.531156
 26 -12.364449 3.544243 -13.402779 -0.017904 0.424235 0.095229
 27 -10.403908 -2.206017 -11.274454 -1.543922 -1.091939 0.077394
 28 -3.567741 0.641571 -8.254749 0.014458 -0.004616 0.008585
 29 -16.089016 -105.559059 -25.635830 0.000000 -0.000000 0.000000
 30 -3.127518 0.571327 -6.062378 0.000000 -0.000000 0.000000
 31 -0.040495 -0.674470 8.862854 0.000000 -0.000000 0.000000
 32 0.289211 3.291785 167.749756 0.000000 -0.000000 0.000000
 33 0.000000 0.000000 0.000000 0.000000 -0.000000 0.000000
time 29
  0 -1.005915 2.634505 0.937462 0.000000 -0.000000 0.000000
  1 -1.005915 2.634505 0.937462 0.000000 -0.000000 0.000000
  2 -1.005915 2.634505 0.937462 0.000000 -0.000000 0.000000
  3 0.000000 -0.633223 74.257698 0.054847 0.000000 0.000000
  4 0.325039 0.314665 -2.968971 -0.052360 -0.000000 0.000000
  5 6.206746 -0.124160 -11.733646 -0.639245 -0.115668 0.116604
  6 2.955699 1.729832 -23.848040 0.655541 0.022163 0.060778
  7 0.292415 0.418327 -30.938557 0.141667 -0.066720 -0.049128
  8 0.025498 -3.137412 -3.970850 0.000000 -0.000000 0.000000
  9 -6.833119 -0.124160 -11.733643 -0.047146 0.135977 -0.190419
 10 -3.240683 1.520661 -23.848038 0.764161 -0.000728 -0.000508
 11 -0.355309 0.627480 -30.760906 -0.262784 0.008052 0.000157
 12 0.209675 -3.137415 -4.537350 0.000000 -0.000000 0.000000
 13 -0.336471 18.320858 -10.789917 0.004201 -0.000000 0.000000
 14 0.011432 14.669048 -0.377857 -0.082521 0.000000 0.000000
 15 0.210527 25.621658 6.087196 0.570736 0.000000 0.000000
 16 0.325039 0.314665 5.117500 -0.252782 -0.040966 -0.104487
 17 -0.409779 2.182659 26.434914 0.321057 0.004812 0.184874
 18 -2.968819 36.066559 32.693222 0.240593 0.003610 -0.042174
 19 -0.380095 -2.640913 16.751854 0.000000 -0.000000 0.000000
 20 7.187247 -0.460705 16.472298 -0.233362 -0.154832 0.309014
 21 12.896097 3.303360 -12.884903 -0.554064 -0.163431 -1.182623
 22 9.818134 -2.393087 -11.768448 -0.280533 0.016352 -0.156232
 23 11.684982 2.308937 -7.513321 -0.000000 -0.000000 0.000000
 24 3.667336 0.402569 -5.537418 0.000000 -0.000000 0.000000
 25 -8.155170 -0.644957 16.761330 -0.551312 0.475349 -0.670311
 26 -12.364452 3.544247 -13.402779 0.006547 0.436721 0.074926
 27 -10.403893 -2.206009 -11.274456 -1.504906 -1.034604 0.071364
 28 -3.567745 0.641579 -8.254749 0.014458 -0.004616 0.008585
 29 -16.089012 -105.559036 -25.635822 0.000000 -0.000000 0.000000
 30 -3.127525 0.571327 -6.062374 0.000000 -0.000000 0.000000
 31 -0.040495 -0.674472 8.862854 0.000000 -0.000000 0.000000
 32 0.289211 3.291785 167.749756 0.000000 -0.000000 0.000000
 33 0.000000 0.000000 0.000000 0.000000 -0.000000 0.000000
time 30
  0 -1.005915 2.634505 0.937462 0.000000 -0.000000 0.000000
  1 -1.005915 2.634505 0.937462 0.000000 -0.000000 0.000000
  2 -1.005915 2.634505 0.937462 0.000000 -0.000000 0.000000
  3 0.000000 -0.230280 74.257698 0.044325 0.000000 -0.000000
  4 0.325039 0.314665 -2.968964 -0.052360 -0.000000 0.000000
  5 6.206746 -0.124160 -11.733654 -0.629976 -0.116817 0.115606
  6 2.955698 1.729832 -23.848038 0.654470 0.022254 0.060931
  7 0.292417 0.418323 -30.938560 0.129790 -0.065659 -0.047496
  8 0.025497 -3.137412 -3.970852 0.000000 -0.000000 0.000000
  9 -6.833119 -0.124160 -11.733654 -0.040703 0.137250 -0.189603
 10 -3.240681 1.520661 -23.848045 0.765273 -0.000514 -0.000358
 11 -0.355307 0.627478 -30.760902 -0.272442 0.005760 0.000112
 12 0.209673 -3.137413 -4.537351 0.000000 -0.000000 0.000000
 13 -0.336471 18.320860 -10.789921 0.046446 -0.000000 0.000000
 14 0.011432 14.669048 -0.377853 -0.137390 0.000000 0.000000
 15 0.210528 25.621658 6.087189 0.517931 0.000000 0.000000
 16 0.325039 0.314665 5.117508 -0.265423 -0.044932 -0.131202
 17 -0.409780 2.182659 26.434921 0.326044 0.006926 0.211890
 18 -2.968823 36.066555 32.693214 0.240593 0.003610 -0.042174
 19 -0.380094 -2.640909 16.751846 0.000000 -0.000000 0.000000
 20 7.187248 -0.460703 16.472298 -0.233362 -0.154832 0.309014
 21 12.896101 3.303360 -12.884903 -0.554064 -0.163431 -1.182623
 22 9.818130 -2.393085 -11.768440 -0.280533 0.016352 -0.156232
 23 11.684982 2.308931 -7.513313 0.000000 -0.000000 0.000000
 24 3.667336 0.402561 -5.537415 0.000000 -0.000000 0.000000
 25 -8.155170 -0.644956 16.761337 -0.551011 0.466336 -0.795116
 26 -12.364445 3.544235 -13.402786 0.028518 0.447940 0.056683
 27 -10.403893 -2.206013 -11.274456 -1.470221 -0.983634 0.066004
 28 -3.567745 0.641571 -8.254749 0.014458 -0.004616 0.008585
 29 -16.089001 -105.559052 -25.635849 0.000000 -0.000000 0.000000
 30 -3.127525 0.571327 -6.062378 0.000000 -0.000000 0.000000
 31 -0.040494 -0.674471 8.862862 0.000000 -0.000000 0.000000
 32 0.289211 3.291785 167.749756 0.000000 -0.000000 0.000000
 33 0.000000 0.000000 0.000000 0.000000 -0.000000 0.000000
time 31
  0 -1.005915 2.634505 0.937462 0.000000 -0.000000 0.000000
  1 -1.005915 2.634505 0.937462 0.000000 -0.000000 0.000000
  2 -1.005915 2.634505 0.937462 0.000000 -0.000000 0.000000
  3 0.000000 0.118028 74.257698 0.035230 0.000000 -0.000000
  4 0.325039 0.314665 -2.968971 -0.052360 -0.000000 -0.000000
  5 6.206746 -0.124160 -11.733650 -0.621964 -0.117811 0.114743
  6 2.955698 1.729822 -23.848042 0.653544 0.022333 0.061063
  7 0.292415 0.418320 -30.938545 0.119605 -0.064749 -0.046097
  8 0.025498 -3.137414 -3.970851 0.000000 -0.000000 0.000000
  9 -6.833119 -0.124160 -11.733650 -0.035134 0.138350 -0.188897
 10 -3.240684 1.520660 -23.848042 0.766206 -0.000335 -0.000232
 11 -0.355307 0.627480 -30.760899 -0.280725 0.003794 0.000074
 12 0.209673 -3.137413 -4.537349 0.000000 -0.000000 0.000000
 13 -0.336471 18.320858 -10.789921 0.083415 -0.000000 0.000000
 14 0.011432 14.669048 -0.377850 -0.187975 0.000000 0.000000
 15 0.210528 25.621656 6.087189 0.466693 0.000000 0.000000
 16 0.325039 0.314665 5.117500 -0.276171 -0.048356 -0.154294
 17 -0.409780 2.182663 26.434914 0.330356 0.008753 0.235242
 18 -2.968819 36.066555 32.693199 0.240593 0.003610 -0.042174
 19 -0.380095 -2.640915 16.751839 0.000000 -0.000000 0.000000
 20 7.187246 -0.460703 16.472290 -0.233362 -0.154832 0.309014
 21 12.896099 3.303356 -12.884903 -0.554064 -0.163431 -1.182623
 22 9.818138 -2.393085 -11.768436 -0.280533 0.016352 -0.156232
 23 11.684975 2.308937 -7.513313 0.000000 -0.000001 0.000000
 24 3.667328 0.402567 -5.537415 0.000000 -0.000000 0.000000
 25 -8.155169 -0.644955 16.761322 -0.550761 0.458545 -0.902998
 26 -12.364449 3.544243 -13.402786 0.047541 0.457654 0.040887
 27 -10.403893 -2.206009 -11.274456 -1.440476 -0.939924 0.061407
 28 -3.567745 0.641579 -8.254749 0.014458 -0.004616 0.008585
 29 -16.089001 -105.559021 -25.635796 0.000000 -0.000000 0.000000
 30 -3.127525 0.571327 -6.062374 0.000000 -0.000000 0.000000
 31 -0.040494 -0.674469 8.862854 0.000000 -0.000000 0.000000
 32 0.289211 3.291785 167.749756 0.000000 -0.000000 0.000000
 33 0.000000 0.000000 0.000000 0.000000 -0.000000 0.000000
time 32
  0 -1.005915 2.634505 0.937462 0.000000 -0.000000 0.000000
  1 -1.005915 2.634505 0.937462 0.000000 -0.000000 0.000000
  2 -1.005915 2.634505 0.937462 0.000000 -0.000000 0.000000
  3 0.000000 0.403392 74.257698 0.027778 0.000000 0.000000
  4 0.325039 0.314665 -2.968956 -0.052360 -0.000000 -0.000000
  5 6.206746 -0.124160 -11.733646 -0.615399 -0.118625 0.114037
  6 2.955698 1.729832 -23.848042 0.652786 0.022398 0.061172
  7 0.292416 0.418320 -30.938553 0.111321 -0.064009 -0.044958
  8 0.025497 -3.137413 -3.970852 0.000000 -0.000000 0.000000
  9 -6.833119 -0.124160 -11.733646 -0.030572 0.139251 -0.188318
 10 -3.240683 1.520660 -23.848038 0.766951 -0.000191 -0.000133
 11 -0.355307 0.627481 -30.760899 -0.287462 0.002194 0.000043
 12 0.209673 -3.137413 -4.537350 0.000000 -0.000000 0.000000
 13 -0.336471 18.320856 -10.789909 0.114035 -0.000000 0.000000
 14 0.011432 14.669046 -0.377853 -0.231737 0.000000 0.000000
 15 0.210528 25.621651 6.087196 0.420605 0.000000 0.000000
 16 0.325039 0.314665 5.117508 -0.284845 -0.051156 -0.173214
 17 -0.409780 2.182664 26.434906 0.333889 0.010250 0.254374
 18 -2.968821 36.066551 32.693207 0.240593 0.003610 -0.042174
 19 -0.380095 -2.640915 16.751854 0.000000 -0.000000 0.000000
 20 7.187247 -0.460703 16.472290 -0.233362 -0.154832 0.309014
 21 12.896105 3.303356 -12.884903 -0.554064 -0.163431 -1.182623
 22 9.818134 -2.393085 -11.768448 -0.280533 0.016352 -0.156232
 23 11.684975 2.308937 -7.513317 0.000000 -0.000000 0.000000
 24 3.667328 0.402565 -5.537415 0.000000 -0.000000 0.000000
 25 -8.155169 -0.644955 16.761322 -0.550563 0.452162 -0.991385
 26 -12.364449 3.544247 -13.402794 0.063150 0.465624 0.027926
 27 -10.403900 -2.206009 -11.274456 -1.416281 -0.904368 0.057668
 28 -3.567749 0.641579 -8.254745 0.014458 -0.004616 0.008585
 29 -16.089024 -105.558990 -25.635780 0.000000 -0.000000 0.000000
 30 -3.127525 0.571320 -6.062370 0.000000 -0.000000 0.000000
 31 -0.040494 -0.674471 8.862854 0.000000 -0.000000 0.000000
 32 0.289211 3.291785 167.749756 0.000000 -0.000000 0.000000
 33 0.000000 0.000000 0.000000 0.000000 -0.000000 0.000000
time 33
  0 -1.005915 2.634505 0.937462 0.000000 -0.000000 0.000000
  1 -1.005915 2.634505 0.937462 0.000000 -0.000000 0.000000
  2 -1.005915 2.634505 0.937462 0.000000 -0.000000 0.000000
  3 0.000000 0.617506 74.257698 0.022187 0.000000 -0.000000
  4 0.325039 0.314665 -2.968956 -0.052360 0.000000 0.000000
  5 6.206746 -0.124160 -11.733646 -0.610473 -0.119236 0.113507
  6 2.955700 1.729832 -23.848042 0.652217 0.022447 0.061253
  7 0.292416 0.418321 -30.938551 0.105145 -0.063457 -0.044110
  8 0.025496 -3.137412 -3.970851 0.000000 -0.000000 0.000000
  9 -6.833119 -0.124160 -11.733646 -0.027149 0.139927 -0.187884
 10 -3.240685 1.520661 -23.848034 0.767496 -0.000086 -0.000060
 11 -0.355309 0.627483 -30.760900 -0.292485 0.001002 0.000020
 12 0.209673 -3.137411 -4.537349 0.000000 -0.000000 0.000000
 13 -0.336471 18.320860 -10.789917 0.137234 -0.000000 0.000000
 14 0.011432 14.669043 -0.377853 -0.266139 0.000000 0.000000
 15 0.210528 25.621655 6.087189 0.383249 0.000000 0.000000
 16 0.325039 0.314665 5.117508 -0.291264 -0.053255 -0.187409
 17 -0.409779 2.182659 26.434914 0.336539 0.011374 0.268729
 18 -2.968816 36.066559 32.693214 0.240593 0.003610 -0.042174
 19 -0.380096 -2.640911 16.751846 0.000000 -0.000000 0.000000
 20 7.187247 -0.460707 16.472298 -0.233362 -0.154832 0.309014
 21 12.896097 3.303360 -12.884918 -0.554064 -0.163431 -1.182623
 22 9.818123 -2.393085 -11.768444 -0.280533 0.016352 -0.156232
 23 11.684975 2.308933 -7.513313 -0.000000 -0.000000 0.000000
 24 3.667328 0.402561 -5.537411 0.000000 -0.000000 0.000000
 25 -8.155169 -0.644958 16.761330 -0.550419 0.447372 -1.057703
 26 -12.364447 3.544247 -13.402775 0.074877 0.471612 0.018189
 27 -10.403896 -2.206005 -11.274456 -1.398244 -0.877863 0.054880
 28 -3.567743 0.641571 -8.254753 0.014458 -0.004616 0.008585
 29 -16.089001 -105.559059 -25.635834 0.000000 -0.000000 0.000000
 30 -3.127520 0.571335 -6.062374 0.000000 -0.000000 0.000000
 31 -0.040494 -0.674473 8.862854 0.000000 -0.000000 0.000000
 32 0.289211 3.291785 167.749756 0.000000 -0.000000 0.000000
 33 0.000000 0.000000 0.000000 0.000000 -0.000000 0.000000
time 34
  0 -1.005915 2.634505 0.937462 0.000000 -0.000000 0.000000
  1 -1.005915 2.634505 0.937462 0.000000 -0.000000 0.000000
  2 -1.005915 2.634505 0.937462 0.000000 -0.000000 0.000000
  3 0.000000 0.752065 74.257698 0.018673 0.000000 0.000000
  4 0.325039 0.314665 -2.968971 -0.052360 0.000000 0.000000
  5 6.206747 -0.124160 -11.733646 -0.607378 -0.119620 0.113174
  6 2.955698 1.729830 -23.848042 0.651860 0.022477 0.061304
  7 0.292416 0.418317 -30.938553 0.101286 -0.063113 -0.043580
  8 0.025497 -3.137413 -3.970852 0.000000 -0.000000 0.000000
  9 -6.833119 -0.124160 -11.733646 -0.024997 0.140352 -0.187611
 10 -3.240685 1.520660 -23.848042 0.767831 -0.000022 -0.000015
 11 -0.355307 0.627476 -30.760902 -0.295622 0.000257 0.000005
 12 0.209673 -3.137413 -4.537353 0.000000 -0.000000 0.000000
 13 -0.336471 18.320858 -10.789917 0.151940 -0.000000 0.000000
 14 0.011432 14.669048 -0.377850 -0.288642 0.000000 0.000000
 15 0.210528 25.621656 6.087189 0.358209 0.000000 0.000000
 16 0.325039 0.314665 5.117508 -0.295249 -0.054573 -0.196331
 17 -0.409779 2.182657 26.434906 0.338205 0.012079 0.277751
 18 -2.968822 36.066551 32.693207 0.240593 0.003610 -0.042174
 19 -0.380095 -2.640913 16.751846 0.000000 -0.000000 0.000000
 20 7.187247 -0.460705 16.472298 -0.233362 -0.154832 0.309014
 21 12.896097 3.303360 -12.884903 -0.554064 -0.163431 -1.182623
 22 9.818130 -2.393085 -11.768444 -0.280533 0.016352 -0.156232
 23 11.684975 2.308937 -7.513317 -0.000000 -0.000000 0.000000
 24 3.667336 0.402563 -5.537415 0.000000 -0.000000 0.000000
 25 -8.155170 -0.644958 16.761330 -0.550331 0.444362 -1.099380
 26 -12.364450 3.544235 -13.402782 0.082256 0.475380 0.012062
 27 -10.403900 -2.206017 -11.274462 -1.386975 -0.861304 0.053139
 28 -3.567749 0.641571 -8.254745 0.014458 -0.004616 0.008585
 29 -16.089027 -105.559067 -25.635815 0.000000 -0.000000 0.000000
 30 -3.127529 0.571320 -6.062374 0.000000 -0.000000 0.000000
 31 -0.040494 -0.674471 8.862854 0.000000 -0.000000 0.000000
 32 0.289211 3.291785 167.749756 0.000000 -0.000000 0.000000
 33 0.000000 0.000000 0.000000 0.000000 -0.000000 0.000000
time 35
  0 -1.005915 2.634505 0.937462 0.000000 -0.000000 0.000000
  1 -1.005915 2.634505 0.937462 0.000000 -0.000000 0.000000
  2 -1.005915 2.634505 0.937462 0.000000 -0.000000 0.000000
  3 0.000000 0.798765 74.257698 0.017453 -0.000000 0.000000
  4 0.325039 0.314665 -2.968964 -0.052360 0.000000 0.000000
  5 6.206746 -0.124160 -11.733646 -0.606304 -0.119753 0.113058
  6 2.955698 1.729828 -23.848040 0.651736 0.022488 0.061322
  7 0.292417 0.418322 -30.938547 0.099954 -0.062994 -0.043396
  8 0.025498 -3.137413 -3.970851 0.000000 -0.000000 0.000000
  9 -6.833119 -0.124160 -11.733646 -0.024251 0.140499 -0.187517
 10 -3.240686 1.520660 -23.848034 0.767945 -0.000000 -0.000000
 11 -0.355305 0.627478 -30.760899 -0.296706 -0.000000 0.000000
 12 0.209673 -3.137413 -4.537351 0.000000 -0.000000 0.000000
 13 -0.336471 18.320860 -10.789921 0.157080 0.000000 -0.000000
 14 0.011432 14.669046 -0.377853 -0.296707 0.000000 0.000000
 15 0.210528 25.621651 6.087189 0.349066 0.000000 0.000000
 16 0.325039 0.314665 5.117516 -0.296617 -0.055029 -0.199427
 17 -0.409780 2.182661 26.434906 0.338783 0.012324 0.280882
 18 -2.968818 36.066559 32.693214 0.240593 0.003610 -0.042174
 19 -0.380096 -2.640915 16.751854 0.000000 -0.000000 0.000000
 20 7.187246 -0.460703 16.472290 -0.233362 -0.154832 0.309014
 21 12.896097 3.303356 -12.884903 -0.554064 -0.163431 -1.182623
 22 9.818142 -2.393095 -11.768448 -0.280533 0.016352 -0.156232
 23 11.684990 2.308935 -7.513317 -0.000000 -0.000000 0.000000
 24 3.667336 0.402565 -5.537415 0.000000 -0.000000 0.000000
 25 -8.155170 -0.644955 16.761322 -0.550301 0.443318 -1.113845
 26 -12.364454 3.544239 -13.402779 0.084819 0.476689 0.009933
 27 -10.403893 -2.206009 -11.274460 -1.383084 -0.855585 0.052537
 28 -3.567741 0.641579 -8.254753 0.014458 -0.004616 0.008585
 29 -16.089005 -105.559044 -25.635803 0.000000 -0.000000 0.000000
 30 -3.127525 0.571335 -6.062378 0.000000 -0.000000 0.000000
 31 -0.040495 -0.674469 8.862854 0.000000 -0.000000 0.000000
 32 0.289211 3.291785 167.749756 0.000000 -0.000000 0.000000
 33 0.000000 0.000000 0.000000 0.000000 -0.000000 0.000000
end
