version 1
nodes
  0 "bone33"  -1
  1 "bone36"  -1
  2 "bone24"  -1
  3 "bone19"  -1
  4 "bone18"   3
  5 "bone14"   4
  6 "bone15"   5
  7 "bone17"   6
  8 "bone26"   7
  9 "bone04"   4
 10 "bone20"   9
 11 "bone16"  10
 12 "bone27"  11
 13 "bone06"   3
 14 "bone07"  13
 15 "bone05"  14
 16 "bone11"  15
 17 "bone28"  16
 18 "bone02"  13
 19 "bone03"  18
 20 "bone09"  19
 21 "bone29"  20
 22 "bone01"  13
 23 "bone12"  22
 24 "bone30"  23
 25 "bone10"  22
 26 "bone31"  25
 27 "bone13"  22
 28 "bone08"  22
 29 "bone22"  22
 30 "bone23"  13
end
skeleton
time 0
  0 -2.353024 -5.184927 2.091171 0.000000 -0.000000 0.000000
  1 -2.353024 -5.184927 2.091171 0.000000 -0.000000 0.000000
  2 -1.950201 -1.893142 175.642822 0.000000 -0.000000 0.000000
  3 -2.353024 -2.473580 84.115448 0.087267 0.000000 0.000000
  4 0.325039 2.574804 -8.752441 0.139627 0.000000 -0.000000
  5 24.444689 -0.252707 -7.812813 -0.279252 -0.000000 0.000000
  6 -0.916044 -7.924027 -25.576786 0.279253 0.000000 0.000000
  7 1.056293 0.000000 -19.597214 -0.191986 -0.000000 -0.000000
  8 0.678253 -0.000001 -15.312203 0.000000 -0.000000 0.000000
  9 -19.810108 -1.098410 -7.944626 -0.314159 -0.000000 -0.000000
 10 1.163998 -7.078325 -25.444981 -0.052360 0.000000 0.000000
 11 -1.402914 0.000001 -19.353647 0.139627 0.000000 0.000000
 12 -0.683153 -0.000002 -14.701068 0.000000 -0.000000 0.000000
 13 0.325039 -4.367263 22.728966 0.157080 0.000000 0.000000
 14 -19.772806 -0.946144 22.825111 0.349065 0.000000 -0.087266
 15 -20.868576 8.201504 -27.941772 -0.279252 0.000000 -0.000000
 16 -6.090591 -23.228886 -18.788086 -0.366519 0.000001 -0.000000
 17 -2.120403 -18.932791 -14.112457 0.000000 -0.000000 0.000000
 18 22.860493 -0.761898 22.559227 0.000000 0.000000 0.104720
 19 21.920631 9.654148 -27.874626 -0.245372 -0.019946 -0.001911
 20 6.512318 -24.595255 -18.323761 -0.242925 0.024226 0.007891
 21 1.453690 -18.848022 -14.320560 0.000000 -0.000000 0.000000
 22 -0.409780 -0.205427 23.473213 0.000000 -0.000000 0.000000
 23 33.082729 21.111296 6.462799 -1.623153 -0.000000 -0.000000
 24 4.283356 -96.840179 46.063568 0.000000 -0.000000 0.000000
 25 -26.962782 21.716570 6.736679 -1.658061 -0.000000 -0.000000
 26 -6.478737 -96.660110 45.534538 0.000000 -0.000000 0.000000
 27 1.308564 22.832865 4.536835 -0.174533 0.000000 -0.000000
 28 2.125768 -16.334242 4.188080 0.139626 -0.000000 0.000000
 29 -0.380096 -6.478371 27.143509 0.000000 -0.000000 0.000000
 30 -0.040495 -0.975660 1.644478 0.000000 -0.000000 0.000000
time 1
  0 -2.353024 -5.184927 2.091171 0.000000 -0.000000 0.000000
  1 -2.353024 -5.184927 2.091171 0.000000 -0.000000 0.000000
  2 -1.950201 -1.893142 175.642822 0.000000 -0.000000 0.000000
  3 -2.353024 -2.473580 83.046974 0.087267 0.000000 0.000000
  4 0.325039 2.574805 -8.752449 0.139627 0.000000 -0.000000
  5 24.444689 -0.252707 -7.812820 -0.282823 0.003477 -0.001408
  6 -0.916048 -7.924027 -25.576786 0.279253 0.000000 0.000000
  7 1.056292 0.000001 -19.597208 -0.191986 -0.000000 0.000000
  8 0.678255 -0.000000 -15.312207 0.000000 -0.000000 0.000000
  9 -19.810108 -1.098410 -7.944626 -0.310241 -0.006017 -0.003120
 10 1.163998 -7.078325 -25.444981 -0.052360 0.000000 0.000000
 11 -1.402918 -0.000001 -19.353649 0.139626 -0.000000 0.000000
 12 -0.683151 -0.000003 -14.701071 0.000000 -0.000000 0.000000
 13 0.325039 -4.396297 22.397102 0.157080 0.000000 0.000000
 14 -19.772806 -0.946148 22.825104 0.345818 -0.004569 -0.082966
 15 -20.868576 8.201504 -27.941772 -0.279252 0.000000 -0.000000
 16 -6.090584 -23.228886 -18.788086 -0.366519 0.000001 -0.000000
 17 -2.120403 -18.932793 -14.112473 0.000000 -0.000000 0.000000
 18 22.860493 -0.761898 22.559227 0.003634 -0.000307 0.104528
 19 21.920631 9.654148 -27.874634 -0.245372 -0.019946 -0.001911
 20 6.512314 -24.595251 -18.323769 -0.242925 0.024226 0.007891
 21 1.453693 -18.848022 -14.320564 0.000000 -0.000000 0.000000
 22 -0.409780 -0.205429 23.473206 0.000000 -0.000000 0.000000
 23 33.082729 20.949677 6.503113 -1.646609 -0.000000 -0.000000
 24 4.283356 -96.840164 46.063568 0.000000 -0.000000 0.000000
 25 -26.786642 21.774391 6.968582 -1.655971 -0.004255 0.003784
 26 -6.478733 -96.660080 45.534523 0.000000 -0.000000 0.000000
 27 1.308565 22.832867 4.536835 -0.174533 0.000000 -0.000000
 28 2.125768 -16.334242 4.188080 0.139626 -0.000000 0.000000
 29 -0.380095 -6.478373 27.143494 0.000000 -0.000000 0.000000
 30 -0.040494 -0.975660 1.644478 0.000000 -0.000000 0.000000
time 2
  0 -2.353024 -5.184927 2.091171 0.000000 -0.000000 0.000000
  1 -2.353024 -5.184927 2.091171 0.000000 -0.000000 0.000000
  2 -1.950201 -1.893142 175.642822 0.000000 -0.000000 0.000000
  3 -2.353024 -2.473580 80.028198 0.087267 0.000000 0.000000
  4 0.325039 2.574805 -8.752441 0.139627 0.000000 -0.000000
  5 24.444687 -0.252707 -7.812820 -0.293211 0.013594 -0.005506
  6 -0.916042 -7.924027 -25.576782 0.279253 0.000000 0.000000
  7 1.056293 0.000001 -19.597208 -0.191986 -0.000000 -0.000000
  8 0.678251 -0.000001 -15.312204 0.000000 -0.000000 0.000000
  9 -19.810110 -1.098408 -7.944626 -0.298842 -0.023520 -0.012197
 10 1.164001 -7.078324 -25.444981 -0.052360 0.000000 0.000000
 11 -1.402914 0.000001 -19.353645 0.139626 0.000000 0.000000
 12 -0.683153 -0.000001 -14.701070 0.000000 -0.000000 0.000000
 13 0.325039 -4.480762 21.431679 0.157080 0.000000 0.000000
 14 -19.772804 -0.946149 22.825104 0.336372 -0.017860 -0.070454
 15 -20.868584 8.201504 -27.941780 -0.279252 0.000000 -0.000000
 16 -6.090588 -23.228880 -18.788078 -0.366519 0.000001 -0.000000
 17 -2.120399 -18.932795 -14.112465 0.000000 -0.000000 0.000000
 18 22.860495 -0.761898 22.559235 0.014204 -0.001199 0.103972
 19 21.920633 9.654150 -27.874626 -0.245372 -0.019946 -0.001911
 20 6.512314 -24.595249 -18.323761 -0.242925 0.024226 0.007891
 21 1.453693 -18.848015 -14.320557 0.000000 -0.000000 0.000000
 22 -0.409780 -0.205430 23.473206 0.000000 -0.000000 0.000000
 23 33.082729 20.479507 6.620338 -1.687705 -0.000000 -0.000000
 24 4.283358 -96.840195 46.063564 0.000000 -0.000000 0.000000
 25 -26.274237 21.942600 7.643227 -1.649891 -0.016632 0.014791
 26 -6.478737 -96.660095 45.534538 0.000000 -0.000000 0.000000
 27 1.308564 22.832863 4.536827 -0.174533 0.000000 -0.000000
 28 2.125768 -16.334242 4.188087 0.139626 -0.000000 0.000000
 29 -0.380096 -6.478373 27.143486 0.000000 -0.000000 0.000000
 30 -0.040495 -0.975661 1.644485 0.000000 -0.000000 0.000000
time 3
  0 -2.353024 -5.184927 2.091171 0.000000 -0.000000 0.000000
  1 -2.353024 -5.184927 2.091171 0.000000 -0.000000 0.000000
  2 -1.950201 -1.893142 175.642822 0.000000 -0.000000 0.000000
  3 -2.353024 -2.473580 75.339096 0.087267 0.000000 0.000000
  4 0.325039 2.574805 -8.752441 0.139627 0.000000 -0.000000
  5 24.444689 -0.252707 -7.812817 -0.309929 0.029876 -0.012100
  6 -0.916046 -7.924028 -25.576786 0.279253 0.000000 0.000000
  7 1.056293 0.000000 -19.597210 -0.191986 0.000000 0.000000
  8 0.678255 -0.000001 -15.312206 0.000000 -0.000000 0.000000
  9 -19.810108 -1.098409 -7.944622 -0.280498 -0.051688 -0.026805
 10 1.163998 -7.078326 -25.444981 -0.052360 0.000000 0.000000
 11 -1.402916 0.000000 -19.353645 0.139626 -0.000000 0.000000
 12 -0.683149 -0.000002 -14.701070 0.000000 -0.000000 0.000000
 13 0.325039 -4.616698 19.877922 0.157080 0.000000 0.000000
 14 -19.772806 -0.946149 22.825104 0.321169 -0.039251 -0.050318
 15 -20.868582 8.201504 -27.941780 -0.279252 0.000000 -0.000000
 16 -6.090584 -23.228888 -18.788078 -0.366519 0.000001 -0.000000
 17 -2.120403 -18.932796 -14.112461 0.000000 -0.000000 0.000000
 18 22.860493 -0.761898 22.559235 0.031216 -0.002634 0.103077
 19 21.920631 9.654150 -27.874619 -0.245372 -0.019946 -0.001911
 20 6.512314 -24.595251 -18.323769 -0.242925 0.024226 0.007891
 21 1.453690 -18.848022 -14.320568 0.000000 -0.000000 0.000000
 22 -0.409780 -0.205430 23.473206 0.000000 -0.000000 0.000000
 23 33.082726 19.722832 6.809006 -1.745147 -0.000000 -0.000000
 24 4.283356 -96.840149 46.063564 0.000000 -0.000000 0.000000
 25 -25.449579 22.213310 8.728981 -1.640104 -0.036551 0.032506
 26 -6.478739 -96.660095 45.534538 0.000000 -0.000000 0.000000
 27 1.308564 22.832867 4.536842 -0.174533 0.000000 -0.000000
 28 2.125768 -16.334244 4.188087 0.139626 -0.000000 0.000000
 29 -0.380096 -6.478372 27.143501 0.000000 -0.000000 0.000000
 30 -0.040495 -0.975661 1.644485 0.000000 -0.000000 0.000000
time 4
  0 -2.353024 -5.184927 2.091171 0.000000 -0.000000 0.000000
  1 -2.353024 -5.184927 2.091171 0.000000 -0.000000 0.000000
  2 -1.950201 -1.893142 175.642822 0.000000 -0.000000 0.000000
  3 -2.353024 -2.473580 69.259621 0.087267 0.000000 0.000000
  4 0.325039 2.574805 -8.752438 0.139627 0.000000 -0.000000
  5 24.444687 -0.252706 -7.812820 -0.332490 0.051848 -0.020999
  6 -0.916046 -7.924026 -25.576788 0.279253 0.000000 0.000000
  7 1.056293 -0.000000 -19.597212 -0.191986 0.000000 0.000000
  8 0.678253 -0.000001 -15.312205 0.000000 -0.000000 0.000000
  9 -19.810110 -1.098408 -7.944626 -0.255743 -0.089702 -0.046519
 10 1.163996 -7.078324 -25.444984 -0.052360 0.000000 0.000000
 11 -1.402914 0.000001 -19.353649 0.139626 0.000000 0.000000
 12 -0.683153 -0.000002 -14.701071 0.000000 -0.000000 0.000000
 13 0.325039 -4.800146 17.781120 0.157080 0.000000 0.000000
 14 -19.772806 -0.946149 22.825104 0.300653 -0.068119 -0.023144
 15 -20.868578 8.201508 -27.941780 -0.279252 0.000000 -0.000000
 16 -6.090591 -23.228878 -18.788078 -0.366520 0.000001 0.000000
 17 -2.120399 -18.932791 -14.112465 0.000000 -0.000000 0.000000
 18 22.860493 -0.761898 22.559235 0.054173 -0.004572 0.101868
 19 21.920631 9.654150 -27.874619 -0.245372 -0.019946 -0.001911
 20 6.512314 -24.595253 -18.323761 -0.242925 0.024226 0.007891
 21 1.453690 -18.848019 -14.320560 0.000000 -0.000000 0.000000
 22 -0.409780 -0.205429 23.473206 0.000000 -0.000000 0.000000
 23 33.082729 18.701683 7.063599 -1.817641 -0.000000 -0.000000
 24 4.283354 -96.840172 46.063572 0.000000 -0.000000 0.000000
 25 -24.336697 22.578636 10.194221 -1.626898 -0.063432 0.056413
 26 -6.478737 -96.660103 45.534531 0.000000 -0.000000 0.000000
 27 1.308564 22.832867 4.536835 -0.174533 0.000000 -0.000000
 28 2.125768 -16.334244 4.188080 0.139626 -0.000000 0.000000
 29 -0.380096 -6.478375 27.143486 0.000000 -0.000000 0.000000
 30 -0.040495 -0.975661 1.644485 0.000000 -0.000000 0.000000
time 5
  0 -2.353024 -5.184927 2.091171 0.000000 -0.000000 0.000000
  1 -2.353024 -5.184927 2.091171 0.000000 -0.000000 0.000000
  2 -1.950201 -1.893142 175.642822 0.000000 -0.000000 0.000000
  3 -2.353024 -2.473580 62.069736 0.087267 0.000000 0.000000
  4 0.325039 2.574805 -8.752438 0.139627 0.000000 -0.000000
  5 24.444687 -0.252707 -7.812820 -0.360408 0.079037 -0.032010
  6 -0.916046 -7.924027 -25.576782 0.279253 0.000000 -0.000000
  7 1.056295 -0.000000 -19.597210 -0.191986 0.000000 0.000000
  8 0.678251 -0.000001 -15.312205 0.000000 -0.000000 0.000000
  9 -19.810110 -1.098409 -7.944626 -0.225110 -0.136740 -0.070914
 10 1.163996 -7.078326 -25.444979 -0.052360 0.000000 0.000000
 11 -1.402915 -0.000001 -19.353642 0.139626 -0.000000 0.000000
 12 -0.683151 -0.000002 -14.701069 0.000000 -0.000000 0.000000
 13 0.325039 -5.027144 15.186516 0.157080 0.000000 0.000000
 14 -19.772804 -0.946147 22.825096 0.275266 -0.103839 0.010481
 15 -20.868578 8.201508 -27.941772 -0.279252 0.000000 -0.000000
 16 -6.090584 -23.228886 -18.788086 -0.366520 0.000001 0.000000
 17 -2.120399 -18.932793 -14.112465 0.000000 -0.000000 0.000000
 18 22.860495 -0.761896 22.559227 0.082581 -0.006969 0.100373
 19 21.920635 9.654148 -27.874626 -0.245372 -0.019946 -0.001911
 20 6.512314 -24.595253 -18.323761 -0.242925 0.024226 0.007891
 21 1.453690 -18.848019 -14.320564 0.000000 -0.000000 0.000000
 22 -0.409780 -0.205428 23.473198 0.000000 -0.000000 0.000000
 23 33.082733 17.438114 7.378647 -1.903893 -0.000000 -0.000000
 24 4.283356 -96.840172 46.063572 0.000000 -0.000000 0.000000
 25 -22.959606 23.030693 12.007332 -1.610556 -0.096694 0.085996
 26 -6.478737 -96.660088 45.534527 0.000000 -0.000000 0.000000
 27 1.308564 22.832867 4.536842 -0.174533 0.000000 -0.000000
 28 2.125768 -16.334244 4.188087 0.139626 -0.000000 0.000000
 29 -0.380096 -6.478374 27.143501 0.000000 -0.000000 0.000000
 30 -0.040494 -0.975661 1.644478 0.000000 -0.000000 0.000000
time 6
  0 -2.353024 -5.184927 2.091171 0.000000 -0.000000 0.000000
  1 -2.353024 -5.184927 2.091171 0.000000 -0.000000 0.000000
  2 -1.950201 -1.893142 175.642822 0.000000 -0.000000 0.000000
  3 -2.353024 -2.473580 54.049404 0.087267 0.000000 0.000000
  4 0.325039 2.574805 -8.752441 0.139627 0.000000 -0.000000
  5 24.444687 -0.252706 -7.812820 -0.393195 0.110968 -0.044943
  6 -0.916046 -7.924027 -25.576782 0.279253 0.000000 0.000000
  7 1.056295 -0.000000 -19.597212 -0.191986 -0.000000 -0.000000
  8 0.678253 -0.000000 -15.312206 0.000000 -0.000000 0.000000
  9 -19.810108 -1.098409 -7.944626 -0.189134 -0.191983 -0.099563
 10 1.163998 -7.078324 -25.444983 -0.052360 0.000000 0.000000
 11 -1.402917 0.000000 -19.353645 0.139627 0.000000 0.000000
 12 -0.683152 -0.000002 -14.701071 0.000000 -0.000000 0.000000
 13 0.325039 -5.293738 12.139355 0.157080 0.000000 0.000000
 14 -19.772806 -0.946149 22.825104 0.245451 -0.145790 0.049970
 15 -20.868578 8.201508 -27.941776 -0.279252 0.000000 -0.000000
 16 -6.090582 -23.228878 -18.788090 -0.366520 0.000001 0.000000
 17 -2.120396 -18.932789 -14.112461 0.000000 -0.000000 0.000000
 18 22.860493 -0.761898 22.559235 0.115944 -0.009785 0.098617
 19 21.920631 9.654144 -27.874626 -0.245372 -0.019946 -0.001911
 20 6.512314 -24.595253 -18.323757 -0.242925 0.024226 0.007891
 21 1.453690 -18.848019 -14.320564 0.000000 -0.000000 0.000000
 22 -0.409780 -0.205429 23.473206 0.000000 -0.000000 0.000000
 23 33.082733 15.954146 7.748634 -2.002610 -0.000000 -0.000000
 24 4.283356 -96.840187 46.063568 0.000000 -0.000000 0.000000
 25 -21.342323 23.561604 14.136665 -1.591364 -0.135759 0.120738
 26 -6.478737 -96.660088 45.534538 0.000000 -0.000000 0.000000
 27 1.308564 22.832867 4.536835 -0.174533 0.000000 -0.000000
 28 2.125768 -16.334244 4.188080 0.139626 -0.000000 0.000000
 29 -0.380096 -6.478374 27.143494 0.000000 -0.000000 0.000000
 30 -0.040494 -0.975661 1.644485 0.000000 -0.000000 0.000000
time 7
  0 -2.353024 -5.184927 2.091171 0.000000 -0.000000 0.000000
  1 -2.353024 -5.184927 2.091171 0.000000 -0.000000 0.000000
  2 -1.950201 -1.893142 175.642822 0.000000 -0.000000 0.000000
  3 -2.353024 -2.473580 45.478580 0.087267 0.000000 0.000000
  4 0.325039 2.574805 -8.752438 0.139627 0.000000 -0.000000
  5 24.444689 -0.252707 -7.812820 -0.430364 0.147167 -0.059603
  6 -0.916048 -7.924027 -25.576788 0.279253 0.000000 -0.000000
  7 1.056293 0.000000 -19.597212 -0.191986 -0.000000 -0.000000
  8 0.678251 -0.000002 -15.312204 0.000000 -0.000000 0.000000
  9 -19.810108 -1.098408 -7.944626 -0.148349 -0.254610 -0.132041
 10 1.163998 -7.078325 -25.444981 -0.052360 0.000000 0.000000
 11 -1.402916 -0.000000 -19.353645 0.139626 -0.000000 0.000000
 12 -0.683151 -0.000003 -14.701068 0.000000 -0.000000 0.000000
 13 0.325039 -5.595963 8.684917 0.157080 0.000000 0.000000
 14 -19.772804 -0.946148 22.825100 0.211651 -0.193349 0.094739
 15 -20.868580 8.201508 -27.941776 -0.279252 0.000000 -0.000000
 16 -6.090586 -23.228889 -18.788094 -0.366520 0.000001 0.000000
 17 -2.120396 -18.932796 -14.112467 0.000000 -0.000000 0.000000
 18 22.860495 -0.761897 22.559231 0.153766 -0.012977 0.096627
 19 21.920630 9.654145 -27.874626 -0.245372 -0.019946 -0.001911
 20 6.512318 -24.595247 -18.323761 -0.242925 0.024226 0.007891
 21 1.453682 -18.848021 -14.320564 0.000000 -0.000000 0.000000
 22 -0.409780 -0.205428 23.473202 0.000000 -0.000000 0.000000
 23 33.082733 14.271831 8.168091 -2.112498 -0.000000 -0.000000
 24 4.283350 -96.840157 46.063568 0.000000 -0.000000 0.000000
 25 -19.508869 24.163471 16.550629 -1.569606 -0.180045 0.160124
 26 -6.478737 -96.660103 45.534534 0.000000 -0.000000 0.000000
 27 1.308565 22.832863 4.536842 -0.174533 0.000000 -0.000000
 28 2.125768 -16.334244 4.188087 0.139626 -0.000000 0.000000
 29 -0.380095 -6.478374 27.143501 0.000000 -0.000000 0.000000
 30 -0.040494 -0.975661 1.644485 0.000000 -0.000000 0.000000
time 8
  0 -2.353024 -5.184927 2.091171 0.000000 -0.000000 0.000000
  1 -2.353024 -5.184927 2.091171 0.000000 -0.000000 0.000000
  2 -1.950201 -1.893142 175.642822 0.000000 -0.000000 0.000000
  3 -2.353024 -2.473580 36.637222 0.087267 0.000000 0.000000
  4 0.325039 2.574805 -8.752443 0.139627 0.000000 -0.000000
  5 24.444689 -0.252707 -7.812819 -0.471429 0.187160 -0.075801
  6 -0.916048 -7.924027 -25.576786 0.279253 0.000000 -0.000000
  7 1.056295 0.000000 -19.597212 -0.191986 -0.000000 -0.000000
  8 0.678253 -0.000000 -15.312206 0.000000 -0.000000 0.000000
  9 -19.810108 -1.098408 -7.944626 -0.103291 -0.323800 -0.167924
 10 1.163998 -7.078325 -25.444984 -0.052360 0.000000 0.000000
 11 -1.402916 0.000000 -19.353643 0.139627 0.000000 0.000000
 12 -0.683151 -0.000002 -14.701065 0.000000 -0.000000 0.000000
 13 0.325039 -5.929864 4.868427 0.157080 0.000000 0.000000
 14 -19.772806 -0.946149 22.825104 0.174309 -0.245892 0.144199
 15 -20.868578 8.201509 -27.941776 -0.279252 0.000000 -0.000000
 16 -6.090586 -23.228878 -18.788086 -0.366520 0.000001 0.000000
 17 -2.120403 -18.932795 -14.112463 0.000000 -0.000000 0.000000
 18 22.860493 -0.761898 22.559235 0.195552 -0.016504 0.094427
 19 21.920628 9.654151 -27.874619 -0.245372 -0.019946 -0.001911
 20 6.512314 -24.595253 -18.323765 -0.242925 0.024226 0.007891
 21 1.453693 -18.848019 -14.320564 0.000000 -0.000000 0.000000
 22 -0.409780 -0.205429 23.473206 0.000000 -0.000000 0.000000
 23 33.082737 12.413200 8.631493 -2.232263 -0.000000 -0.000000
 24 4.283354 -96.840157 46.063568 0.000000 -0.000000 0.000000
 25 -17.483261 24.828421 19.217575 -1.545568 -0.228972 0.203638
 26 -6.478741 -96.660088 45.534534 0.000000 -0.000000 0.000000
 27 1.308564 22.832865 4.536835 -0.174533 0.000000 -0.000000
 28 2.125768 -16.334244 4.188072 0.139626 -0.000000 0.000000
 29 -0.380096 -6.478373 27.143501 0.000000 -0.000000 0.000000
 30 -0.040495 -0.975661 1.644485 0.000000 -0.000000 0.000000
time 9
  0 -2.353024 -5.184927 2.091171 0.000000 -0.000000 0.000000
  1 -2.353024 -5.184927 2.091171 0.000000 -0.000000 0.000000
  2 -1.950201 -1.893142 175.642822 0.000000 -0.000000 0.000000
  3 -2.353024 -2.473580 27.805296 0.087267 0.000000 0.000000
  4 0.325039 2.574805 -8.752443 0.139627 0.000000 -0.000000
  5 24.444689 -0.252706 -7.812821 -0.515902 0.230472 -0.093342
  6 -0.916048 -7.924028 -25.576788 0.279253 0.000000 0.000000
  7 1.056292 -0.000001 -19.597210 -0.191986 -0.000000 0.000000
  8 0.678253 -0.000001 -15.312210 0.000000 -0.000000 0.000000
  9 -19.810108 -1.098408 -7.944626 -0.054492 -0.398733 -0.206784
 10 1.163997 -7.078324 -25.444983 -0.052360 0.000000 0.000000
 11 -1.402915 0.000001 -19.353645 0.139627 -0.000000 0.000000
 12 -0.683153 -0.000003 -14.701069 0.000000 -0.000000 0.000000
 13 0.325039 -6.291480 0.735161 0.157080 0.000000 0.000000
 14 -19.772804 -0.946148 22.825104 0.133867 -0.302795 0.197764
 15 -20.868582 8.201508 -27.941776 -0.279252 0.000000 -0.000000
 16 -6.090588 -23.228880 -18.788086 -0.366519 0.000001 -0.000000
 17 -2.120399 -18.932795 -14.112463 0.000000 -0.000000 0.000000
 18 22.860493 -0.761898 22.559235 0.240806 -0.020323 0.092045
 19 21.920630 9.654148 -27.874624 -0.245372 -0.019946 -0.001911
 20 6.512310 -24.595249 -18.323761 -0.242925 0.024226 0.007891
 21 1.453693 -18.848019 -14.320563 0.000000 -0.000000 0.000000
 22 -0.409780 -0.205430 23.473206 0.000000 -0.000000 0.000000
 23 33.082733 10.400301 9.133373 -2.360611 -0.000000 -0.000000
 24 4.283358 -96.840164 46.063576 0.000000 -0.000000 0.000000
 25 -15.289522 25.548561 22.105881 -1.519535 -0.281960 0.250764
 26 -6.478734 -96.660103 45.534538 0.000000 -0.000000 0.000000
 27 1.308565 22.832865 4.536839 -0.174533 0.000000 -0.000000
 28 2.125768 -16.334244 4.188080 0.139626 -0.000000 0.000000
 29 -0.380095 -6.478374 27.143494 0.000000 -0.000000 0.000000
 30 -0.040494 -0.975662 1.644484 0.000000 -0.000000 0.000000
time 10
  0 -2.353024 -5.184927 2.091171 0.000000 -0.000000 0.000000
  1 -2.353024 -5.184927 2.091171 0.000000 -0.000000 0.000000
  2 -1.950201 -1.893142 175.642822 0.000000 -0.000000 0.000000
  3 -2.353024 -2.473580 19.262747 0.087267 0.000000 0.000000
  4 0.325039 2.574805 -8.752442 0.139627 0.000000 -0.000000
  5 24.444689 -0.252707 -7.812820 -0.563297 0.276630 -0.112037
  6 -0.916046 -7.924029 -25.576786 0.279253 0.000000 -0.000000
  7 1.056293 -0.000002 -19.597208 -0.191986 0.000000 0.000000
  8 0.678253 0.000000 -15.312210 0.000000 -0.000000 0.000000
  9 -19.810108 -1.098408 -7.944626 -0.002487 -0.478589 -0.248198
 10 1.163996 -7.078324 -25.444981 -0.052360 0.000000 0.000000
 11 -1.402916 0.000001 -19.353647 0.139626 0.000000 0.000000
 12 -0.683151 0.000000 -14.701067 0.000000 -0.000000 0.000000
 13 0.325039 -6.676850 -3.669632 0.157080 0.000000 0.000000
 14 -19.772806 -0.946148 22.825109 0.090768 -0.363438 0.254848
 15 -20.868580 8.201506 -27.941778 -0.279252 0.000000 -0.000000
 16 -6.090586 -23.228880 -18.788086 -0.366520 0.000001 -0.000000
 17 -2.120403 -18.932793 -14.112463 0.000000 -0.000000 0.000000
 18 22.860493 -0.761897 22.559237 0.289033 -0.024393 0.089507
 19 21.920631 9.654147 -27.874626 -0.245372 -0.019946 -0.001911
 20 6.512314 -24.595253 -18.323763 -0.242925 0.024226 0.007891
 21 1.453682 -18.848019 -14.320568 0.000000 -0.000000 0.000000
 22 -0.409780 -0.205428 23.473207 0.000000 -0.000000 0.000000
 23 33.082737 8.255161 9.668217 -2.496248 -0.000000 -0.000000
 24 4.283358 -96.840164 46.063557 0.000000 -0.000000 0.000000
 25 -12.951669 26.316013 25.183952 -1.491792 -0.338429 0.300986
 26 -6.478739 -96.660080 45.534546 0.000000 -0.000000 0.000000
 27 1.308564 22.832867 4.536839 -0.174533 0.000000 -0.000000
 28 2.125768 -16.334244 4.188080 0.139626 -0.000000 0.000000
 29 -0.380096 -6.478374 27.143501 0.000000 -0.000000 0.000000
 30 -0.040495 -0.975662 1.644485 0.000000 -0.000000 0.000000
time 11
  0 -2.353024 -5.184927 2.091171 0.000000 -0.000000 0.000000
  1 -2.353024 -5.184927 2.091171 0.000000 -0.000000 0.000000
  2 -1.950201 -1.893142 175.642822 0.000000 -0.000000 0.000000
  3 -2.353024 -2.473580 11.289531 0.087267 0.000000 0.000000
  4 0.325039 2.574805 -8.752441 0.139627 0.000000 -0.000000
  5 24.444689 -0.252706 -7.812820 -0.613126 0.325159 -0.131691
  6 -0.916046 -7.924026 -25.576782 0.279253 0.000000 -0.000000
  7 1.056292 0.000001 -19.597210 -0.191986 0.000000 -0.000000
  8 0.678253 -0.000001 -15.312206 0.000000 -0.000000 0.000000
  9 -19.810108 -1.098408 -7.944626 0.052189 -0.562547 -0.291739
 10 1.163998 -7.078324 -25.444983 -0.052360 0.000000 0.000000
 11 -1.402914 0.000000 -19.353642 0.139626 0.000000 0.000000
 12 -0.683149 0.000000 -14.701065 0.000000 -0.000000 0.000000
 13 0.325039 -7.082020 -8.300699 0.157080 0.000000 0.000000
 14 -19.772806 -0.946149 22.825106 0.045455 -0.427195 0.314865
 15 -20.868578 8.201508 -27.941772 -0.279252 0.000000 -0.000000
 16 -6.090588 -23.228886 -18.788086 -0.366520 0.000001 0.000000
 17 -2.120399 -18.932789 -14.112468 0.000000 -0.000000 0.000000
 18 22.860493 -0.761898 22.559235 0.339738 -0.028672 0.086838
 19 21.920637 9.654150 -27.874628 -0.245372 -0.019946 -0.001911
 20 6.512310 -24.595253 -18.323759 -0.242925 0.024226 0.007891
 21 1.453686 -18.848019 -14.320564 0.000000 -0.000000 0.000000
 22 -0.409780 -0.205428 23.473206 0.000000 -0.000000 0.000000
 23 33.082737 5.999829 10.230534 -2.637882 -0.000000 -0.000000
 24 4.283356 -96.840172 46.063580 0.000000 -0.000000 0.000000
 25 -10.493720 27.122889 28.420128 -1.462623 -0.397799 0.353787
 26 -6.478748 -96.660088 45.534534 0.000000 -0.000000 0.000000
 27 1.308564 22.832865 4.536839 -0.174533 0.000000 -0.000000
 28 2.125768 -16.334246 4.188080 0.139626 -0.000000 0.000000
 29 -0.380095 -6.478374 27.143497 0.000000 -0.000000 0.000000
 30 -0.040494 -0.975661 1.644485 0.000000 -0.000000 0.000000
time 12
  0 -2.353024 -5.184927 2.091171 0.000000 -0.000000 0.000000
  1 -2.353024 -5.184927 2.091171 0.000000 -0.000000 0.000000
  2 -1.950201 -1.893142 175.642822 0.000000 -0.000000 0.000000
  3 -2.353024 -2.473580 4.165624 0.087267 0.000000 0.000000
  4 0.325039 2.574805 -8.752442 0.139627 0.000000 -0.000000
  5 24.444687 -0.252706 -7.812821 -0.664904 0.375584 -0.152114
  6 -0.916046 -7.924026 -25.576786 0.279253 0.000000 -0.000000
  7 1.056293 0.000000 -19.597214 -0.191986 -0.000000 -0.000000
  8 0.678253 -0.000001 -15.312206 0.000000 -0.000000 0.000000
  9 -19.810110 -1.098408 -7.944626 0.109002 -0.649787 -0.336982
 10 1.163998 -7.078325 -25.444984 -0.052360 0.000000 0.000000
 11 -1.402912 0.000001 -19.353643 0.139627 0.000000 0.000000
 12 -0.683149 -0.000002 -14.701065 0.000000 -0.000000 0.000000
 13 0.325040 -7.503025 -13.112790 0.157080 0.000000 0.000000
 14 -19.772806 -0.946148 22.825106 -0.001629 -0.493444 0.377228
 15 -20.868582 8.201509 -27.941780 -0.279252 0.000000 -0.000000
 16 -6.090588 -23.228886 -18.788086 -0.366519 0.000001 -0.000000
 17 -2.120399 -18.932798 -14.112465 0.000000 -0.000000 0.000000
 18 22.860493 -0.761898 22.559235 0.392425 -0.033119 0.084065
 19 21.920639 9.654150 -27.874628 -0.245372 -0.019946 -0.001911
 20 6.512314 -24.595255 -18.323761 -0.242925 0.024226 0.007891
 21 1.453690 -18.848022 -14.320566 0.000000 -0.000000 0.000000
 22 -0.409780 -0.205428 23.473206 0.000000 -0.000000 0.000000
 23 33.082741 3.656340 10.814837 -2.784216 -0.000000 -0.000000
 24 4.283358 -96.840187 46.063572 0.000000 -0.000000 0.000000
 25 -7.939694 27.961298 31.782799 -1.432315 -0.459490 0.408653
 26 -6.478743 -96.660080 45.534546 0.000000 -0.000000 0.000000
 27 1.308565 22.832865 4.536835 -0.174533 0.000000 -0.000000
 28 2.125769 -16.334246 4.188080 0.139626 -0.000000 0.000000
 29 -0.380095 -6.478374 27.143494 0.000000 -0.000000 0.000000
 30 -0.040494 -0.975661 1.644485 0.000000 -0.000000 0.000000
time 13
  0 -2.353024 -5.184927 2.091171 0.000000 -0.000000 0.000000
  1 -2.353024 -5.184927 2.091171 0.000000 -0.000000 0.000000
  2 -1.950201 -1.893142 175.642822 0.000000 -0.000000 0.000000
  3 -2.353024 -2.473580 -1.829025 0.087267 0.000000 0.000000
  4 0.325039 2.574805 -8.752442 0.139627 0.000000 -0.000000
  5 24.444689 -0.252706 -7.812819 -0.718142 0.427433 -0.173112
  6 -0.916046 -7.924028 -25.576790 0.279253 0.000000 -0.000000
  7 1.056295 0.000001 -19.597214 -0.191986 -0.000000 -0.000000
  8 0.678249 -0.000002 -15.312202 0.000000 -0.000000 0.000000
  9 -19.810108 -1.098408 -7.944626 0.167419 -0.739488 -0.383501
 10 1.163998 -7.078325 -25.444981 -0.052360 0.000000 0.000000
 11 -1.402916 0.000002 -19.353645 0.139627 -0.000000 -0.000000
 12 -0.683149 0.000000 -14.701065 0.000000 -0.000000 0.000000
 13 0.325040 -7.935907 -18.060640 0.157080 0.000000 0.000000
 14 -19.772806 -0.946149 22.825106 -0.050041 -0.561563 0.441350
 15 -20.868580 8.201507 -27.941778 -0.279252 0.000000 -0.000000
 16 -6.090584 -23.228886 -18.788094 -0.366519 0.000001 0.000000
 17 -2.120396 -18.932791 -14.112469 0.000000 -0.000000 0.000000
 18 22.860493 -0.761898 22.559235 0.446598 -0.037691 0.081214
 19 21.920633 9.654148 -27.874628 -0.245372 -0.019946 -0.001911
 20 6.512314 -24.595255 -18.323763 -0.242925 0.024226 0.007891
 21 1.453693 -18.848022 -14.320568 0.000000 -0.000000 0.000000
 22 -0.409780 -0.205430 23.473207 0.000000 -0.000000 0.000000
 23 33.082741 1.246735 11.415619 -2.933959 -0.000000 -0.000000
 24 4.283354 -96.840164 46.063568 0.000000 -0.000000 0.000000
 25 -5.313612 28.823368 35.240345 -1.401151 -0.522921 0.465066
 26 -6.478743 -96.660095 45.534546 0.000000 -0.000000 0.000000
 27 1.308564 22.832867 4.536835 -0.174533 0.000000 -0.000000
 28 2.125768 -16.334244 4.188080 0.139626 -0.000000 0.000000
 29 -0.380095 -6.478374 27.143494 0.000000 -0.000000 0.000000
 30 -0.040494 -0.975662 1.644485 0.000000 -0.000000 0.000000
time 14
  0 -2.353024 -5.184927 2.091171 0.000000 -0.000000 0.000000
  1 -2.353024 -5.184927 2.091171 0.000000 -0.000000 0.000000
  2 -1.950201 -1.893142 175.642822 0.000000 -0.000000 0.000000
  3 -2.353024 -2.473580 -6.414448 0.087267 0.000000 0.000000
  4 0.325039 2.574805 -8.752441 0.139627 0.000000 -0.000000
  5 24.444687 -0.252706 -7.812819 -0.772354 0.480230 -0.194495
  6 -0.916046 -7.924026 -25.576786 0.279253 0.000000 -0.000000
  7 1.056293 0.000002 -19.597214 -0.191986 -0.000000 0.000000
  8 0.678255 0.000000 -15.312206 0.000000 -0.000000 0.000000
  9 -19.810110 -1.098408 -7.944627 0.226903 -0.830830 -0.430872
 10 1.163998 -7.078323 -25.444983 -0.052360 0.000000 0.000000
 11 -1.402920 0.000000 -19.353647 0.139626 -0.000000 0.000000
 12 -0.683149 -0.000004 -14.701069 0.000000 -0.000000 0.000000
 13 0.325040 -8.376708 -23.098999 0.157080 0.000000 0.000000
 14 -19.772806 -0.946148 22.825106 -0.099339 -0.630928 0.506645
 15 -20.868576 8.201511 -27.941774 -0.279252 0.000000 -0.000000
 16 -6.090584 -23.228888 -18.788084 -0.366520 0.000001 -0.000000
 17 -2.120399 -18.932793 -14.112469 0.000000 -0.000000 0.000000
 18 22.860493 -0.761898 22.559235 0.501762 -0.042347 0.078311
 19 21.920635 9.654151 -27.874628 -0.245372 -0.019946 -0.001911
 20 6.512318 -24.595249 -18.323761 -0.242925 0.024226 0.007891
 21 1.453686 -18.848017 -14.320564 0.000000 -0.000000 0.000000
 22 -0.409780 -0.205429 23.473206 0.000000 -0.000000 0.000000
 23 33.082745 -1.206947 12.027393 -3.085815 -0.000000 -0.000000
 24 4.283354 -96.840149 46.063568 0.000000 -0.000000 0.000000
 25 -2.639493 29.701204 38.761139 -1.369417 -0.587513 0.522511
 26 -6.478748 -96.660095 45.534546 0.000000 -0.000000 0.000000
 27 1.308564 22.832867 4.536836 -0.174533 0.000000 -0.000000
 28 2.125768 -16.334246 4.188080 0.139626 -0.000000 0.000000
 29 -0.380096 -6.478373 27.143497 0.000000 -0.000000 0.000000
 30 -0.040495 -0.975662 1.644485 0.000000 -0.000000 0.000000
time 15
  0 -2.353024 -5.184927 2.091171 0.000000 -0.000000 0.000000
  1 -2.353024 -5.184927 2.091171 0.000000 -0.000000 0.000000
  2 -1.950201 -1.893142 175.642822 0.000000 -0.000000 0.000000
  3 -2.353024 -2.473580 -10.002635 0.087267 0.000000 0.000000
  4 0.325039 2.574805 -8.752440 0.139627 0.000000 -0.000000
  5 24.444689 -0.252707 -7.812822 -0.827053 0.533501 -0.216070
  6 -0.916046 -7.924028 -25.576784 0.279253 0.000000 -0.000000
  7 1.056292 -0.000003 -19.597210 -0.191986 0.000000 -0.000000
  8 0.678253 -0.000004 -15.312202 0.000000 -0.000000 0.000000
  9 -19.810108 -1.098409 -7.944628 0.286922 -0.922993 -0.478667
 10 1.164003 -7.078323 -25.444977 -0.052360 0.000000 0.000000
 11 -1.402916 0.000002 -19.353645 0.139626 -0.000000 0.000000
 12 -0.683146 0.000002 -14.701069 0.000000 -0.000000 0.000000
 13 0.325040 -8.821468 -28.182617 0.157080 0.000000 -0.000000
 14 -19.772806 -0.946148 22.825106 -0.149079 -0.700915 0.572526
 15 -20.868580 8.201511 -27.941772 -0.279252 0.000000 -0.000000
 16 -6.090584 -23.228886 -18.788086 -0.366519 0.000001 0.000000
 17 -2.120399 -18.932796 -14.112461 0.000000 -0.000000 0.000000
 18 22.860493 -0.761898 22.559235 0.557421 -0.047044 0.075381
 19 21.920631 9.654147 -27.874624 -0.245372 -0.019946 -0.001911
 20 6.512314 -24.595249 -18.323761 -0.242925 0.024226 0.007891
 21 1.453690 -18.848015 -14.320564 0.000000 -0.000000 0.000000
 22 -0.409780 -0.205429 23.473206 0.000000 -0.000000 0.000000
 23 33.082745 -3.682671 12.644663 3.044693 -0.000000 0.000000
 24 4.283356 -96.840172 46.063568 0.000000 -0.000000 0.000000
 25 0.058647 30.586927 42.313560 -1.337398 -0.652684 0.580473
 26 -6.478733 -96.660088 45.534534 0.000000 -0.000000 0.000000
 27 1.308564 22.832865 4.536836 -0.174533 0.000000 -0.000000
 28 2.125768 -16.334244 4.188081 0.139626 -0.000000 0.000000
 29 -0.380096 -6.478373 27.143497 0.000000 -0.000000 0.000000
 30 -0.040495 -0.975662 1.644489 0.000000 -0.000000 0.000000
time 16
  0 -2.353024 -5.184927 2.091171 0.000000 -0.000000 0.000000
  1 -2.353024 -5.184927 2.091171 0.000000 -0.000000 0.000000
  2 -1.950201 -1.893142 175.642822 0.000000 -0.000000 0.000000
  3 -2.353024 -2.473580 -13.206343 0.087267 0.000000 -0.000000
  4 0.325039 2.574805 -8.752442 0.139627 0.000000 -0.000000
  5 24.444687 -0.252707 -7.812820 -0.881752 0.586772 -0.237645
  6 -0.916050 -7.924030 -25.576784 0.279253 0.000000 0.000000
  7 1.056290 -0.000001 -19.597210 -0.191986 0.000000 -0.000000
  8 0.678249 -0.000002 -15.312206 0.000000 -0.000000 0.000000
  9 -19.810108 -1.098408 -7.944626 0.346942 -1.015155 -0.526463
 10 1.164001 -7.078323 -25.444981 -0.052360 0.000000 0.000000
 11 -1.402912 0.000000 -19.353645 0.139626 -0.000000 0.000000
 12 -0.683151 0.000000 -14.701065 0.000000 -0.000000 0.000000
 13 0.325040 -9.266231 -33.266239 0.157080 0.000000 -0.000000
 14 -19.772806 -0.946148 22.825109 -0.198820 -0.770903 0.638408
 15 -20.868580 8.201502 -27.941774 -0.279252 0.000000 -0.000000
 16 -6.090591 -23.228886 -18.788097 -0.366519 0.000001 -0.000000
 17 -2.120399 -18.932791 -14.112469 0.000000 -0.000000 0.000000
 18 22.860493 -0.761896 22.559238 0.613081 -0.051741 0.072452
 19 21.920631 9.654148 -27.874626 -0.245372 -0.019946 -0.001911
 20 6.512314 -24.595249 -18.323761 -0.242925 0.024226 0.007891
 21 1.453693 -18.848022 -14.320564 0.000000 -0.000000 0.000000
 22 -0.409780 -0.205429 23.473211 0.000000 -0.000000 0.000000
 23 33.082748 -6.158398 13.261930 2.892489 0.000000 0.000000
 24 4.283356 -96.840164 46.063568 0.000000 -0.000000 0.000000
 25 2.756789 31.472652 45.865978 -1.305379 -0.717856 0.638434
 26 -6.478752 -96.660110 45.534538 0.000000 -0.000000 0.000000
 27 1.308564 22.832867 4.536835 -0.174533 0.000000 -0.000000
 28 2.125768 -16.334244 4.188078 0.139626 -0.000000 0.000000
 29 -0.380096 -6.478373 27.143496 0.000000 -0.000000 0.000000
 30 -0.040495 -0.975662 1.644493 0.000000 -0.000000 0.000000
time 17
  0 -2.353024 -5.184927 2.091171 0.000000 -0.000000 0.000000
  1 -2.353024 -5.184927 2.091171 0.000000 -0.000000 0.000000
  2 -1.950201 -1.893142 175.642822 0.000000 -0.000000 0.000000
  3 -2.353024 -2.473580 -16.046679 0.087267 0.000000 -0.000000
  4 0.325039 2.574805 -8.752441 0.139627 0.000000 -0.000000
  5 24.444687 -0.252707 -7.812820 -0.935964 0.639569 -0.259028
  6 -0.916050 -7.924024 -25.576786 0.279253 0.000000 0.000000
  7 1.056290 0.000001 -19.597208 -0.191986 -0.000000 0.000000
  8 0.678257 0.000002 -15.312202 0.000000 -0.000000 0.000000
  9 -19.810110 -1.098409 -7.944626 0.406426 -1.106497 -0.573834
 10 1.163998 -7.078323 -25.444981 -0.052360 0.000000 0.000000
 11 -1.402912 0.000002 -19.353643 0.139626 0.000000 0.000000
 12 -0.683151 0.000000 -14.701065 0.000000 -0.000000 0.000000
 13 0.325040 -9.707031 -38.304588 0.157080 0.000000 -0.000000
 14 -19.772806 -0.946148 22.825102 -0.248118 -0.840268 0.703703
 15 -20.868584 8.201501 -27.941780 -0.279252 0.000000 -0.000000
 16 -6.090588 -23.228886 -18.788090 -0.366519 0.000001 0.000000
 17 -2.120399 -18.932796 -14.112469 0.000000 -0.000000 0.000000
 18 22.860493 -0.761898 22.559233 0.668245 -0.056397 0.069548
 19 21.920633 9.654152 -27.874626 -0.245372 -0.019946 -0.001911
 20 6.512314 -24.595259 -18.323765 -0.242925 0.024226 0.007891
 21 1.453693 -18.848021 -14.320564 0.000000 -0.000000 0.000000
 22 -0.409780 -0.205429 23.473206 0.000000 -0.000000 0.000000
 23 33.082748 -8.612080 13.873703 2.742053 0.000000 0.000000
 24 4.283356 -96.840164 46.063576 0.000000 -0.000000 0.000000
 25 5.430907 32.350487 49.386765 -1.273645 -0.782448 0.695879
 26 -6.478735 -96.660103 45.534523 0.000000 -0.000000 0.000000
 27 1.308565 22.832865 4.536837 -0.174533 0.000000 -0.000000
 28 2.125768 -16.334248 4.188080 0.139626 -0.000000 0.000000
 29 -0.380095 -6.478374 27.143496 0.000000 -0.000000 0.000000
 30 -0.040494 -0.975662 1.644485 0.000000 -0.000000 0.000000
time 18
  0 -2.353024 -5.184927 2.091171 0.000000 -0.000000 0.000000
  1 -2.353024 -5.184927 2.091171 0.000000 -0.000000 0.000000
  2 -1.950201 -1.893142 175.642822 0.000000 -0.000000 0.000000
  3 -2.353024 -2.473580 -18.544750 0.087267 0.000000 -0.000000
  4 0.325039 2.574805 -8.752441 0.139627 0.000000 -0.000000
  5 24.444689 -0.252707 -7.812819 -0.989202 0.691417 -0.280027
  6 -0.916046 -7.924030 -25.576786 0.279253 0.000000 0.000000
  7 1.056290 -0.000003 -19.597212 -0.191986 0.000000 0.000000
  8 0.678246 -0.000004 -15.312206 0.000000 -0.000000 0.000000
  9 -19.810108 -1.098409 -7.944624 0.464843 -1.196199 -0.620353
 10 1.164001 -7.078325 -25.444981 -0.052360 0.000000 0.000000
 11 -1.402916 0.000000 -19.353642 0.139626 -0.000000 0.000000
 12 -0.683151 0.000000 -14.701069 0.000000 -0.000000 0.000000
 13 0.325040 -10.139915 -43.252441 0.157080 0.000000 -0.000000
 14 -19.772806 -0.946146 22.825108 -0.296531 -0.908386 0.767825
 15 -20.868576 8.201498 -27.941772 -0.279252 0.000000 -0.000000
 16 -6.090591 -23.228884 -18.788097 -0.366519 0.000001 0.000000
 17 -2.120407 -18.932791 -14.112465 0.000000 -0.000000 0.000000
 18 22.860493 -0.761896 22.559235 0.722418 -0.060969 0.066697
 19 21.920631 9.654148 -27.874624 -0.245372 -0.019946 -0.001911
 20 6.512314 -24.595247 -18.323753 -0.242925 0.024226 0.007891
 21 1.453690 -18.848019 -14.320564 0.000000 -0.000000 0.000000
 22 -0.409780 -0.205429 23.473206 0.000000 -0.000000 0.000000
 23 33.082748 -11.021685 14.474489 2.594678 0.000000 0.000000
 24 4.283356 -96.840172 46.063564 0.000000 -0.000000 0.000000
 25 8.056990 33.212555 52.844307 -1.242482 -0.845879 0.752292
 26 -6.478729 -96.660095 45.534542 0.000000 -0.000000 0.000000
 27 1.308564 22.832865 4.536837 -0.174533 0.000000 -0.000000
 28 2.125768 -16.334246 4.188080 0.139626 -0.000000 0.000000
 29 -0.380096 -6.478373 27.143497 0.000000 -0.000000 0.000000
 30 -0.040495 -0.975660 1.644485 0.000000 -0.000000 0.000000
time 19
  0 -2.353024 -5.184927 2.091171 0.000000 -0.000000 0.000000
  1 -2.353024 -5.184927 2.091171 0.000000 -0.000000 0.000000
  2 -1.950201 -1.893142 175.642822 0.000000 -0.000000 0.000000
  3 -2.353024 -2.473580 -20.721668 0.087267 0.000000 -0.000000
  4 0.325039 2.574805 -8.752441 0.139627 0.000000 -0.000000
  5 24.444689 -0.252706 -7.812819 -1.040979 0.741843 -0.300450
  6 -0.916046 -7.924026 -25.576786 0.279253 0.000000 -0.000000
  7 1.056293 -0.000001 -19.597214 -0.191986 -0.000000 -0.000000
  8 0.678253 -0.000004 -15.312210 0.000000 -0.000000 0.000000
  9 -19.810108 -1.098409 -7.944624 0.521656 -1.283438 -0.665596
 10 1.163994 -7.078325 -25.444981 -0.052360 0.000000 0.000000
 11 -1.402916 -0.000002 -19.353649 0.139626 -0.000000 0.000000
 12 -0.683151 0.000000 -14.701069 0.000000 -0.000000 0.000000
 13 0.325040 -10.560918 -48.064522 0.157080 0.000000 -0.000000
 14 -19.772806 -0.946148 22.825108 -0.343614 -0.974636 0.830188
 15 -20.868584 8.201500 -27.941782 -0.279252 0.000000 -0.000000
 16 -6.090591 -23.228886 -18.788092 -0.366520 0.000001 -0.000000
 17 -2.120392 -18.932796 -14.112465 0.000000 -0.000000 0.000000
 18 22.860493 -0.761898 22.559235 0.775105 -0.065416 0.063924
 19 21.920633 9.654152 -27.874632 -0.245372 -0.019946 -0.001911
 20 6.512314 -24.595251 -18.323753 -0.242925 0.024226 0.007891
 21 1.453693 -18.848019 -14.320557 0.000000 -0.000000 0.000000
 22 -0.409780 -0.205429 23.473209 0.000000 -0.000000 0.000000
 23 33.082752 -13.365173 15.058784 2.451657 0.000000 0.000000
 24 4.283356 -96.840157 46.063568 0.000000 -0.000000 0.000000
 25 10.611014 34.050964 56.206985 -1.212173 -0.907570 0.807158
 26 -6.478739 -96.660110 45.534538 0.000000 -0.000000 0.000000
 27 1.308565 22.832865 4.536835 -0.174533 0.000000 -0.000000
 28 2.125769 -16.334244 4.188076 0.139626 -0.000000 0.000000
 29 -0.380095 -6.478374 27.143494 0.000000 -0.000000 0.000000
 30 -0.040494 -0.975662 1.644485 0.000000 -0.000000 0.000000
time 20
  0 -2.353024 -5.184927 2.091171 0.000000 -0.000000 0.000000
  1 -2.353024 -5.184927 2.091171 0.000000 -0.000000 0.000000
  2 -1.950201 -1.893142 175.642822 0.000000 -0.000000 0.000000
  3 -2.353024 -2.473580 -22.598539 0.087267 0.000000 -0.000000
  4 0.325039 2.574805 -8.752443 0.139627 0.000000 -0.000000
  5 24.444687 -0.252707 -7.812822 -1.090809 0.790372 -0.320104
  6 -0.916050 -7.924026 -25.576782 0.279253 0.000000 0.000000
  7 1.056290 0.000003 -19.597210 -0.191986 -0.000000 -0.000000
  8 0.678249 0.000000 -15.312210 0.000000 -0.000000 0.000000
  9 -19.810108 -1.098409 -7.944628 0.576332 -1.367396 -0.709137
 10 1.164001 -7.078325 -25.444984 -0.052360 0.000000 0.000000
 11 -1.402916 -0.000002 -19.353649 0.139626 -0.000000 0.000000
 12 -0.683151 -0.000004 -14.701069 0.000000 -0.000000 0.000000
 13 0.325040 -10.966088 -52.695602 0.157080 0.000000 -0.000000
 14 -19.772806 -0.946148 22.825111 -0.388927 -1.038393 0.890204
 15 -20.868576 8.201506 -27.941778 -0.279252 0.000000 -0.000000
 16 -6.090584 -23.228886 -18.788080 -0.366519 0.000001 0.000000
 17 -2.120399 -18.932793 -14.112465 0.000000 -0.000000 0.000000
 18 22.860493 -0.761898 22.559242 0.825809 -0.069695 0.061255
 19 21.920633 9.654144 -27.874626 -0.245372 -0.019946 -0.001911
 20 6.512310 -24.595253 -18.323769 -0.242925 0.024226 0.007891
 21 1.453690 -18.848022 -14.320564 0.000000 -0.000000 0.000000
 22 -0.409780 -0.205429 23.473213 0.000000 -0.000000 0.000000
 23 33.082756 -15.620510 15.621109 2.314286 0.000000 0.000000
 24 4.283358 -96.840164 46.063564 0.000000 -0.000000 0.000000
 25 13.068966 34.857841 59.443161 -1.183004 -0.966940 0.859959
 26 -6.478745 -96.660103 45.534531 0.000000 -0.000000 0.000000
 27 1.308564 22.832865 4.536839 -0.174533 0.000000 -0.000000
 28 2.125768 -16.334248 4.188080 0.139626 -0.000000 0.000000
 29 -0.380096 -6.478374 27.143496 0.000000 -0.000000 0.000000
 30 -0.040495 -0.975662 1.644493 0.000000 -0.000000 0.000000
time 21
  0 -2.353024 -5.184927 2.091171 0.000000 -0.000000 0.000000
  1 -2.353024 -5.184927 2.091171 0.000000 -0.000000 0.000000
  2 -1.950201 -1.893142 175.642822 0.000000 -0.000000 0.000000
  3 -2.353024 -2.473580 -24.196472 0.087267 0.000000 -0.000000
  4 0.325039 2.574805 -8.752443 0.139627 0.000000 -0.000000
  5 24.444687 -0.252707 -7.812820 -1.138204 0.836529 -0.338798
  6 -0.916042 -7.924021 -25.576782 0.279253 0.000000 0.000000
  7 1.056290 0.000000 -19.597208 -0.191986 -0.000000 0.000000
  8 0.678257 0.000004 -15.312210 0.000000 -0.000000 0.000000
  9 -19.810110 -1.098409 -7.944626 0.628336 -1.447252 -0.750550
 10 1.163994 -7.078326 -25.444984 -0.052360 0.000000 0.000000
 11 -1.402920 0.000000 -19.353645 0.139626 0.000000 0.000000
 12 -0.683147 0.000000 -14.701069 0.000000 -0.000000 0.000000
 13 0.325040 -11.351460 -57.100388 0.157080 0.000000 -0.000000
 14 -19.772806 -0.946148 22.825108 -0.432026 -1.099035 0.947289
 15 -20.868576 8.201504 -27.941778 -0.279252 0.000000 -0.000000
 16 -6.090584 -23.228884 -18.788086 -0.366520 0.000001 0.000000
 17 -2.120399 -18.932789 -14.112461 0.000000 -0.000000 0.000000
 18 22.860493 -0.761898 22.559238 0.874037 -0.073765 0.058717
 19 21.920631 9.654148 -27.874626 -0.245372 -0.019946 -0.001911
 20 6.512310 -24.595249 -18.323761 -0.242925 0.024226 0.007891
 21 1.453693 -18.848030 -14.320564 0.000000 -0.000000 0.000000
 22 -0.409780 -0.205429 23.473209 0.000000 -0.000000 0.000000
 23 33.082752 -17.765640 16.155949 2.183857 0.000000 0.000000
 24 4.283358 -96.840172 46.063576 0.000000 -0.000000 0.000000
 25 15.406816 35.625286 62.521217 -1.155261 -1.023409 0.910181
 26 -6.478742 -96.660110 45.534546 0.000000 -0.000000 0.000000
 27 1.308564 22.832865 4.536839 -0.174533 0.000000 -0.000000
 28 2.125768 -16.334244 4.188080 0.139626 0.000000 0.000000
 29 -0.380096 -6.478374 27.143497 0.000000 -0.000000 0.000000
 30 -0.040495 -0.975662 1.644493 0.000000 -0.000000 0.000000
time 22
  0 -2.353024 -5.184927 2.091171 0.000000 -0.000000 0.000000
  1 -2.353024 -5.184927 2.091171 0.000000 -0.000000 0.000000
  2 -1.950201 -1.893142 175.642822 0.000000 -0.000000 0.000000
  3 -2.353024 -2.473580 -25.536579 0.087267 0.000000 -0.000000
  4 0.325039 2.574805 -8.752438 0.139627 0.000000 -0.000000
  5 24.444687 -0.252707 -7.812820 -1.182677 0.879842 -0.356340
  6 -0.916046 -7.924028 -25.576788 0.279253 0.000000 0.000000
  7 1.056290 -0.000002 -19.597212 -0.191986 0.000000 0.000000
  8 0.678253 0.000000 -15.312206 0.000000 -0.000000 0.000000
  9 -19.810110 -1.098409 -7.944626 0.677137 -1.522186 -0.789413
 10 1.163998 -7.078324 -25.444981 -0.052360 0.000000 0.000000
 11 -1.402916 0.000000 -19.353645 0.139626 -0.000000 0.000000
 12 -0.683151 -0.000002 -14.701071 0.000000 -0.000000 0.000000
 13 0.325040 -11.713075 -61.233669 0.157080 0.000000 -0.000000
 14 -19.772806 -0.946148 22.825104 -0.472468 -1.155939 1.000854
 15 -20.868584 8.201500 -27.941776 -0.279252 0.000000 -0.000000
 16 -6.090584 -23.228884 -18.788090 -0.366519 0.000001 0.000000
 17 -2.120399 -18.932787 -14.112461 0.000000 -0.000000 0.000000
 18 22.860493 -0.761898 22.559235 0.919291 -0.077584 0.056335
 19 21.920635 9.654144 -27.874628 -0.245372 -0.019946 -0.001911
 20 6.512306 -24.595261 -18.323761 -0.242925 0.024226 0.007891
 21 1.453693 -18.848011 -14.320564 0.000000 -0.000000 0.000000
 22 -0.409780 -0.205429 23.473206 0.000000 -0.000000 0.000000
 23 33.082752 -19.778545 16.657825 2.061664 0.000000 0.000000
 24 4.283358 -96.840157 46.063568 0.000000 -0.000000 0.000000
 25 17.600557 36.345428 65.409538 -1.129228 -1.076397 0.957307
 26 -6.478739 -96.660103 45.534542 0.000000 -0.000000 0.000000
 27 1.308564 22.832865 4.536839 -0.174533 0.000000 -0.000000
 28 2.125768 -16.334244 4.188084 0.139626 0.000000 0.000000
 29 -0.380096 -6.478374 27.143497 0.000000 -0.000000 0.000000
 30 -0.040495 -0.975662 1.644485 0.000000 -0.000000 0.000000
time 23
  0 -2.353024 -5.184927 2.091171 0.000000 -0.000000 0.000000
  1 -2.353024 -5.184927 2.091171 0.000000 -0.000000 0.000000
  2 -1.950201 -1.893142 175.642822 0.000000 -0.000000 0.000000
  3 -2.353024 -2.473580 -26.639969 0.087267 0.000000 -0.000000
  4 0.325039 2.574805 -8.752445 0.139627 0.000000 -0.000000
  5 24.444687 -0.252707 -7.812820 -1.223742 0.919834 -0.372537
  6 -0.916046 -7.924024 -25.576786 0.279253 0.000000 0.000000
  7 1.056293 0.000003 -19.597214 -0.191986 0.000000 -0.000000
  8 0.678253 0.000000 -15.312206 0.000000 -0.000000 0.000000
  9 -19.810108 -1.098408 -7.944626 0.722193 -1.591374 -0.825291
 10 1.163994 -7.078323 -25.444983 -0.052360 0.000000 0.000000
 11 -1.402916 0.000002 -19.353645 0.139626 -0.000000 0.000000
 12 -0.683147 0.000000 -14.701073 0.000000 -0.000000 0.000000
 13 0.325040 -12.046974 -65.050140 0.157080 0.000000 -0.000000
 14 -19.772806 -0.946146 22.825104 -0.509810 -1.208482 1.050314
 15 -20.868591 8.201502 -27.941780 -0.279252 0.000000 -0.000000
 16 -6.090591 -23.228888 -18.788090 -0.366519 0.000001 0.000000
 17 -2.120415 -18.932793 -14.112469 0.000000 -0.000000 0.000000
 18 22.860493 -0.761898 22.559235 0.961077 -0.081111 0.054136
 19 21.920635 9.654152 -27.874630 -0.245372 -0.019946 -0.001911
 20 6.512314 -24.595249 -18.323769 -0.242925 0.024226 0.007891
 21 1.453693 -18.848019 -14.320564 0.000000 -0.000000 0.000000
 22 -0.409780 -0.205431 23.473206 0.000000 -0.000000 0.000000
 23 33.082760 -21.637169 17.121239 1.949002 0.000000 0.000000
 24 4.283358 -96.840164 46.063568 0.000000 -0.000000 0.000000
 25 19.626160 37.010380 68.076477 -1.105191 -1.125324 1.000821
 26 -6.478743 -96.660110 45.534538 0.000000 -0.000000 0.000000
 27 1.308565 22.832867 4.536835 -0.174533 0.000000 -0.000000
 28 2.125769 -16.334240 4.188084 0.139626 0.000000 0.000000
 29 -0.380095 -6.478371 27.143494 0.000000 -0.000000 0.000000
 30 -0.040494 -0.975660 1.644485 0.000000 -0.000000 0.000000
time 24
  0 -2.353024 -5.184927 2.091171 0.000000 -0.000000 0.000000
  1 -2.353024 -5.184927 2.091171 0.000000 -0.000000 0.000000
  2 -1.950201 -1.893142 175.642822 0.000000 -0.000000 0.000000
  3 -2.353024 -2.473580 -27.527750 0.087267 0.000000 -0.000000
  4 0.325039 2.574805 -8.752441 0.139627 0.000000 -0.000000
  5 24.444689 -0.252707 -7.812820 -1.260911 0.956034 -0.387198
  6 -0.916042 -7.924023 -25.576784 0.279253 0.000000 0.000000
  7 1.056293 0.000001 -19.597210 -0.191986 -0.000000 0.000000
  8 0.678257 -0.000004 -15.312202 0.000000 -0.000000 0.000000
  9 -19.810108 -1.098408 -7.944626 0.762979 -1.654003 -0.857772
 10 1.163998 -7.078326 -25.444981 -0.052360 0.000000 0.000000
 11 -1.402912 0.000000 -19.353649 0.139626 -0.000000 0.000000
 12 -0.683155 -0.000002 -14.701065 0.000000 -0.000000 0.000000
 13 0.325040 -12.349201 -68.504593 0.157080 0.000000 -0.000000
 14 -19.772806 -0.946148 22.825096 -0.543610 -1.256041 1.095082
 15 -20.868584 8.201504 -27.941780 -0.279252 0.000000 -0.000000
 16 -6.090584 -23.228882 -18.788094 -0.366519 0.000001 -0.000000
 17 -2.120399 -18.932791 -14.112465 0.000000 -0.000000 0.000000
 18 22.860493 -0.761898 22.559227 0.998899 -0.084303 0.052145
 19 21.920633 9.654152 -27.874626 -0.245372 -0.019946 -0.001911
 20 6.512310 -24.595257 -18.323757 -0.242925 0.024226 0.007891
 21 1.453690 -18.848015 -14.320564 0.000000 -0.000000 0.000000
 22 -0.409780 -0.205429 23.473198 0.000000 -0.000000 0.000000
 23 33.082760 -23.319496 17.540684 1.847163 0.000000 0.000000
 24 4.283356 -96.840164 46.063568 0.000000 -0.000000 0.000000
 25 21.459621 37.612251 70.490448 -1.083432 -1.169610 1.040207
 26 -6.478742 -96.660110 45.534534 0.000000 -0.000000 0.000000
 27 1.308564 22.832865 4.536839 -0.174533 0.000000 -0.000000
 28 2.125768 -16.334248 4.188087 0.139626 0.000000 0.000000
 29 -0.380096 -6.478374 27.143497 0.000000 -0.000000 0.000000
 30 -0.040495 -0.975662 1.644478 0.000000 -0.000000 0.000000
time 25
  0 -2.353024 -5.184927 2.091171 0.000000 -0.000000 0.000000
  1 -2.353024 -5.184927 2.091171 0.000000 -0.000000 0.000000
  2 -1.950201 -1.893142 175.642822 0.000000 -0.000000 0.000000
  3 -2.353024 -2.473580 -28.221031 0.087267 0.000000 -0.000000
  4 0.325039 2.574805 -8.752441 0.139627 0.000000 -0.000000
  5 24.444689 -0.252707 -7.812820 -1.293698 0.987965 -0.400130
  6 -0.916050 -7.924025 -25.576786 0.279253 0.000000 0.000000
  7 1.056293 0.000002 -19.597210 -0.191986 -0.000000 -0.000000
  8 0.678249 -0.000002 -15.312206 0.000000 -0.000000 0.000000
  9 -19.810108 -1.098409 -7.944626 0.798955 -1.709246 -0.886421
 10 1.163998 -7.078324 -25.444981 -0.052360 0.000000 0.000000
 11 -1.402916 -0.000001 -19.353642 0.139626 0.000000 0.000000
 12 -0.683151 -0.000002 -14.701071 0.000000 -0.000000 0.000000
 13 0.325040 -12.615793 -71.551750 0.157080 0.000000 -0.000000
 14 -19.772806 -0.946152 22.825104 -0.573425 -1.297991 1.134572
 15 -20.868591 8.201506 -27.941778 -0.279252 0.000000 -0.000000
 16 -6.090584 -23.228880 -18.788086 -0.366519 0.000001 0.000000
 17 -2.120399 -18.932789 -14.112465 0.000000 -0.000000 0.000000
 18 22.860493 -0.761902 22.559235 1.032262 -0.087119 0.050389
 19 21.920628 9.654152 -27.874624 -0.245372 -0.019946 -0.001911
 20 6.512318 -24.595261 -18.323769 -0.242925 0.024226 0.007891
 21 1.453690 -18.848015 -14.320564 0.000000 -0.000000 0.000000
 22 -0.409780 -0.205433 23.473206 0.000000 -0.000000 0.000000
 23 33.082760 -24.803455 17.910679 1.757442 0.000000 0.000000
 24 4.283356 -96.840164 46.063568 0.000000 -0.000000 0.000000
 25 23.076900 38.143162 72.619781 -1.064240 -1.208675 1.074949
 26 -6.478739 -96.660103 45.534538 0.000000 -0.000000 0.000000
 27 1.308565 22.832867 4.536835 -0.174533 0.000000 -0.000000
 28 2.125768 -16.334240 4.188080 0.139626 0.000000 0.000000
 29 -0.380095 -6.478374 27.143494 0.000000 -0.000000 0.000000
 30 -0.040494 -0.975662 1.644485 0.000000 -0.000000 0.000000
time 26
  0 -2.353024 -5.184927 2.091171 0.000000 -0.000000 0.000000
  1 -2.353024 -5.184927 2.091171 0.000000 -0.000000 0.000000
  2 -1.950201 -1.893142 175.642822 0.000000 -0.000000 0.000000
  3 -2.353024 -2.473580 -28.740925 0.087267 0.000000 -0.000000
  4 0.325039 2.574805 -8.752439 0.139627 0.000000 -0.000000
  5 24.444689 -0.252707 -7.812820 -1.321615 1.015153 -0.411142
  6 -0.916050 -7.924026 -25.576788 0.279253 0.000000 -0.000000
  7 1.056290 -0.000001 -19.597210 -0.191986 0.000000 0.000000
  8 0.678257 -0.000004 -15.312210 0.000000 -0.000000 0.000000
  9 -19.810108 -1.098409 -7.944626 0.829587 -1.756284 -0.910815
 10 1.163994 -7.078326 -25.444981 -0.052360 0.000000 0.000000
 11 -1.402912 0.000001 -19.353647 0.139627 0.000000 0.000000
 12 -0.683151 -0.000001 -14.701067 0.000000 -0.000000 0.000000
 13 0.325040 -12.842793 -74.146355 0.157080 0.000000 -0.000000
 14 -19.772804 -0.946148 22.825096 -0.598812 -1.333712 1.168198
 15 -20.868576 8.201506 -27.941776 -0.279252 0.000000 -0.000000
 16 -6.090584 -23.228891 -18.788086 -0.366519 0.000001 0.000000
 17 -2.120407 -18.932791 -14.112463 0.000000 -0.000000 0.000000
 18 22.860493 -0.761894 22.559227 1.060670 -0.089516 0.048894
 19 21.920630 9.654152 -27.874626 -0.245372 -0.019946 -0.001911
 20 6.512314 -24.595253 -18.323765 -0.242925 0.024226 0.007891
 21 1.453693 -18.848022 -14.320564 0.000000 -0.000000 0.000000
 22 -0.409780 -0.205429 23.473198 0.000000 -0.000000 0.000000
 23 33.082764 -26.067032 18.225731 1.681134 0.000000 0.000000
 24 4.283356 -96.840164 46.063560 0.000000 -0.000000 0.000000
 25 24.453991 38.595222 74.432892 -1.047899 -1.241937 1.104532
 26 -6.478734 -96.660103 45.534542 0.000000 -0.000000 0.000000
 27 1.308565 22.832867 4.536842 -0.174533 0.000000 -0.000000
 28 2.125769 -16.334244 4.188087 0.139626 0.000000 0.000000
 29 -0.380095 -6.478371 27.143501 0.000000 -0.000000 0.000000
 30 -0.040494 -0.975658 1.644478 0.000000 -0.000000 0.000000
time 27
  0 -2.353024 -5.184927 2.091171 0.000000 -0.000000 0.000000
  1 -2.353024 -5.184927 2.091171 0.000000 -0.000000 0.000000
  2 -1.950201 -1.893142 175.642822 0.000000 -0.000000 0.000000
  3 -2.353024 -2.473580 -29.108541 0.087267 0.000000 -0.000000
  4 0.325039 2.574805 -8.752439 0.139627 0.000000 -0.000000
  5 24.444689 -0.252707 -7.812820 -1.344177 1.037126 -0.420041
  6 -0.916050 -7.924025 -25.576786 0.279253 0.000000 -0.000000
  7 1.056293 0.000002 -19.597216 -0.191986 -0.000000 -0.000000
  8 0.678249 0.000002 -15.312202 0.000000 -0.000000 0.000000
  9 -19.810108 -1.098409 -7.944626 0.854343 -1.794297 -0.930529
 10 1.164001 -7.078326 -25.444983 -0.052360 0.000000 0.000000
 11 -1.402920 0.000000 -19.353647 0.139626 -0.000000 0.000000
 12 -0.683151 -0.000003 -14.701073 0.000000 -0.000000 0.000000
 13 0.325040 -13.026242 -76.243149 0.157080 0.000000 -0.000000
 14 -19.772806 -0.946148 22.825096 -0.619328 -1.362579 1.195371
 15 -20.868584 8.201510 -27.941780 -0.279252 0.000000 -0.000000
 16 -6.090591 -23.228884 -18.788086 -0.366520 0.000001 0.000000
 17 -2.120407 -18.932796 -14.112467 0.000000 -0.000000 0.000000
 18 22.860493 -0.761894 22.559227 1.083627 -0.091454 0.047685
 19 21.920631 9.654144 -27.874626 -0.245372 -0.019946 -0.001911
 20 6.512310 -24.595253 -18.323761 -0.242925 0.024226 0.007891
 21 1.453686 -18.848015 -14.320572 0.000000 -0.000000 0.000000
 22 -0.409780 -0.205429 23.473198 0.000000 -0.000000 0.000000
 23 33.082764 -27.088173 18.480331 1.619529 0.000000 0.000000
 24 4.283352 -96.840179 46.063568 0.000000 -0.000000 0.000000
 25 25.566877 38.960548 75.898132 -1.034692 -1.268818 1.128439
 26 -6.478737 -96.660080 45.534538 0.000000 -0.000000 0.000000
 27 1.308565 22.832867 4.536842 -0.174533 0.000000 -0.000000
 28 2.125768 -16.334244 4.188087 0.139626 0.000000 0.000000
 29 -0.380095 -6.478371 27.143501 0.000000 -0.000000 0.000000
 30 -0.040494 -0.975658 1.644478 0.000000 -0.000000 0.000000
time 28
  0 -2.353024 -5.184927 2.091171 0.000000 -0.000000 0.000000
  1 -2.353024 -5.184927 2.091171 0.000000 -0.000000 0.000000
  2 -1.950201 -1.893142 175.642822 0.000000 -0.000000 0.000000
  3 -2.353024 -2.473580 -29.344986 0.087267 0.000000 -0.000000
  4 0.325039 2.574805 -8.752441 0.139627 0.000000 -0.000000
  5 24.444689 -0.252707 -7.812820 -1.360895 1.053407 -0.426635
  6 -0.916046 -7.924025 -25.576786 0.279253 0.000000 0.000000
  7 1.056290 0.000000 -19.597216 -0.191986 -0.000000 -0.000000
  8 0.678253 0.000002 -15.312202 0.000000 -0.000000 0.000000
  9 -19.810108 -1.098409 -7.944626 0.872687 -1.822466 -0.945138
 10 1.163998 -7.078322 -25.444984 -0.052360 0.000000 0.000000
 11 -1.402916 0.000002 -19.353643 0.139626 -0.000000 0.000000
 12 -0.683151 -0.000001 -14.701068 0.000000 -0.000000 0.000000
 13 0.325040 -13.162174 -77.796890 0.157080 0.000000 -0.000000
 14 -19.772806 -0.946148 22.825096 -0.634531 -1.383970 1.215507
 15 -20.868576 8.201509 -27.941780 -0.279252 0.000000 -0.000000
 16 -6.090591 -23.228882 -18.788086 -0.366519 0.000001 0.000000
 17 -2.120399 -18.932795 -14.112467 0.000000 -0.000000 0.000000
 18 22.860493 -0.761894 22.559227 1.100639 -0.092889 0.046790
 19 21.920635 9.654152 -27.874622 -0.245372 -0.019946 -0.001911
 20 6.512310 -24.595253 -18.323757 -0.242925 0.024226 0.007891
 21 1.453693 -18.848015 -14.320572 0.000000 -0.000000 0.000000
 22 -0.409780 -0.205429 23.473198 0.000000 -0.000000 0.000000
 23 33.082760 -27.844845 18.668991 1.573925 0.000000 0.000000
 24 4.283356 -96.840164 46.063568 0.000000 -0.000000 0.000000
 25 26.391525 39.231255 76.983887 -1.024906 -1.288737 1.146154
 26 -6.478741 -96.660095 45.534538 0.000000 -0.000000 0.000000
 27 1.308564 22.832867 4.536842 -0.174533 0.000000 -0.000000
 28 2.125768 -16.334244 4.188087 0.139626 0.000000 0.000000
 29 -0.380096 -6.478374 27.143501 0.000000 -0.000000 0.000000
 30 -0.040495 -0.975658 1.644478 0.000000 -0.000000 0.000000
time 29
  0 -2.353024 -5.184927 2.091171 0.000000 -0.000000 0.000000
  1 -2.353024 -5.184927 2.091171 0.000000 -0.000000 0.000000
  2 -1.950201 -1.893142 175.642822 0.000000 -0.000000 0.000000
  3 -2.353024 -2.473580 -29.471373 0.087267 0.000000 -0.000000
  4 0.325039 2.574805 -8.752439 0.139627 0.000000 -0.000000
  5 24.444689 -0.252707 -7.812820 -1.371283 1.063524 -0.430732
  6 -0.916042 -7.924026 -25.576788 0.279253 0.000000 -0.000000
  7 1.056293 0.000002 -19.597210 -0.191986 0.000000 -0.000000
  8 0.678253 0.000000 -15.312202 0.000000 -0.000000 0.000000
  9 -19.810108 -1.098408 -7.944626 0.884085 -1.839968 -0.954214
 10 1.163998 -7.078325 -25.444979 -0.052360 0.000000 0.000000
 11 -1.402916 0.000000 -19.353645 0.139626 -0.000000 0.000000
 12 -0.683151 -0.000003 -14.701069 0.000000 -0.000000 0.000000
 13 0.325040 -13.246641 -78.762337 0.157080 0.000000 -0.000000
 14 -19.772806 -0.946148 22.825104 -0.643977 -1.397262 1.228018
 15 -20.868584 8.201504 -27.941780 -0.279252 0.000000 -0.000000
 16 -6.090584 -23.228889 -18.788094 -0.366520 0.000001 -0.000000
 17 -2.120399 -18.932793 -14.112469 0.000000 -0.000000 0.000000
 18 22.860493 -0.761898 22.559235 1.111209 -0.093781 0.046234
 19 21.920633 9.654144 -27.874630 -0.245372 -0.019946 -0.001911
 20 6.512310 -24.595245 -18.323765 -0.242925 0.024226 0.007891
 21 1.453690 -18.848015 -14.320564 0.000000 -0.000000 0.000000
 22 -0.409780 -0.205429 23.473206 0.000000 -0.000000 0.000000
 23 33.082764 -28.315022 18.786213 1.545614 0.000000 0.000000
 24 4.283352 -96.840157 46.063557 0.000000 -0.000000 0.000000
 25 26.903938 39.399460 77.658516 -1.018825 -1.301114 1.157162
 26 -6.478738 -96.660103 45.534538 0.000000 -0.000000 0.000000
 27 1.308565 22.832867 4.536835 -0.174533 0.000000 -0.000000
 28 2.125768 -16.334244 4.188080 0.139626 0.000000 0.000000
 29 -0.380095 -6.478374 27.143497 0.000000 -0.000000 0.000000
 30 -0.040494 -0.975662 1.644485 0.000000 -0.000000 0.000000
time 30
  0 -2.353024 -5.184927 2.091171 0.000000 -0.000000 0.000000
  1 -2.353024 -5.184927 2.091171 0.000000 -0.000000 0.000000
  2 -1.950201 -1.893142 175.642822 0.000000 -0.000000 0.000000
  3 -2.353024 -2.473580 -29.508812 0.087267 0.000000 -0.000000
  4 0.325039 2.574805 -8.752443 0.139627 0.000000 -0.000000
  5 24.444689 -0.252707 -7.812820 -1.374854 1.067002 -0.432141
  6 -0.916046 -7.924026 -25.576790 0.279253 0.000000 0.000000
  7 1.056293 0.000003 -19.597210 -0.191986 0.000000 -0.000000
  8 0.678253 0.000000 -15.312206 0.000000 -0.000000 0.000000
  9 -19.810108 -1.098409 -7.944626 0.888004 -1.845985 -0.957335
 10 1.163998 -7.078325 -25.444983 -0.052360 0.000000 0.000000
 11 -1.402912 -0.000001 -19.353645 0.139626 -0.000000 0.000000
 12 -0.683151 -0.000003 -14.701065 0.000000 -0.000000 0.000000
 13 0.325040 -13.275677 -79.094193 0.157080 0.000000 -0.000000
 14 -19.772806 -0.946148 22.825096 -0.647224 -1.401830 1.232319
 15 -20.868584 8.201500 -27.941778 -0.279252 0.000000 -0.000000
 16 -6.090591 -23.228891 -18.788095 -0.366520 0.000001 -0.000000
 17 -2.120392 -18.932796 -14.112476 0.000000 -0.000000 0.000000
 18 22.860493 -0.761898 22.559227 1.114843 -0.094088 0.046042
 19 21.920631 9.654152 -27.874630 -0.245372 -0.019946 -0.001911
 20 6.512318 -24.595253 -18.323761 -0.242925 0.024226 0.007891
 21 1.453690 -18.848015 -14.320549 0.000000 -0.000000 0.000000
 22 -0.409780 -0.205429 23.473198 0.000000 -0.000000 0.000000
 23 33.082764 -28.476635 18.826515 1.535889 0.000000 0.000000
 24 4.283356 -96.840157 46.063560 0.000000 -0.000000 0.000000
 25 27.080076 39.457287 77.890434 -1.016735 -1.305369 1.160945
 26 -6.478740 -96.660110 45.534542 0.000000 -0.000000 0.000000
 27 1.308565 22.832867 4.536842 -0.174533 0.000000 -0.000000
 28 2.125769 -16.334244 4.188087 0.139626 0.000000 0.000000
 29 -0.380095 -6.478374 27.143501 0.000000 -0.000000 0.000000
 30 -0.040494 -0.975662 1.644478 0.000000 -0.000000 0.000000
end
