version 1
nodes
  0 "bone34"  -1
  1 "bone31"  -1
  2 "bone17"  -1
  3 "bone16"   2
  4 "bone12"   3
  5 "bone13"   4
  6 "bone15"   5
  7 "bone19"   6
  8 "bone05"   3
  9 "bone18"   8
 10 "bone14"   9
 11 "bone20"  10
 12 "bone02"   2
 13 "bone01"  12
 14 "bone03"  13
 15 "bone10"  14
 16 "bone08"  15
 17 "bone22"  16
 18 "bone23"  16
 19 "bone25"  15
 20 "bone09"  12
 21 "bone04"  20
 22 "bone07"  21
 23 "bone26"  22
 24 "bone06"  12
 25 "bone27"  24
 26 "bone28"  12
end
skeleton
time 0
  0 -5.113562 -3.392895 0.796835 0.000000 -0.000000 0.000000
  1 -7.310884 -0.101110 174.348495 0.000000 -0.000000 0.000000
  2 -5.113562 -3.392895 70.616058 0.052360 -0.000000 0.000000
  3 0.325039 1.113430 -5.099007 -0.049350 0.000000 0.000000
  4 6.206747 -0.124160 -11.733646 -0.925025 0.000000 0.000000
  5 2.376919 1.428909 -19.463915 0.959931 -0.000000 -0.000000
  6 1.646507 1.612119 -34.692959 -0.023271 0.000000 -0.000000
  7 0.219322 -4.030296 -4.600571 0.000000 -0.000000 0.000000
  8 -6.833118 -0.124160 -11.733650 -0.075879 0.286305 -0.339914
  9 -2.998631 1.160219 -19.583828 0.627330 -0.117532 0.150476
 10 -1.356794 1.880819 -34.573040 -0.318235 0.018242 -0.094814
 11 -0.258572 -4.030298 -4.908824 0.000000 -0.000000 0.000000
 12 0.325039 1.113430 0.809013 -0.022144 0.047451 1.133940
 13 7.054491 1.815097 15.713707 0.000000 -0.000000 0.000000
 14 12.909766 -0.165816 -12.867271 -0.000000 0.000000 0.000000
 15 11.504260 -9.735167 -11.778580 -0.114160 0.138026 -0.699164
 16 -4.990947 -20.855865 -11.972141 0.107342 -0.124349 -0.503130
 17 1.952629 -90.186768 -0.924709 0.000000 -0.000000 0.000000
 18 -35.001942 9.597218 -70.247482 0.000000 -0.000000 0.000000
 19 3.759452 -1.898642 -3.541317 0.000000 -0.000000 0.000000
 20 -7.698015 1.934286 15.877960 -0.565580 -0.403772 0.364940
 21 -12.721182 -0.083344 -12.838257 0.350879 -0.485336 0.230535
 22 -9.167515 -10.101492 -11.648903 0.579793 0.809829 1.024413
 23 -3.642086 -2.032093 -4.543640 0.000000 -0.000000 0.000000
 24 -0.409780 2.428936 22.341393 0.000000 0.000001 -1.169373
 25 -0.380095 -2.887196 20.845367 0.000000 -0.000000 0.000000
 26 -0.040495 -0.674471 8.862854 0.000000 -0.000000 0.000000
time 1
  0 -5.113562 -3.392895 0.796835 0.000000 -0.000000 0.000000
  1 -7.310884 -0.101110 174.348495 0.000000 -0.000000 0.000000
  2 -5.113562 -4.543404 70.954445 0.052360 -0.000000 0.000000
  3 0.325039 1.113430 -5.098999 -0.049352 0.000000 0.000000
  4 6.206747 -0.124160 -11.733650 -0.906828 0.000000 0.000000
  5 2.376919 1.428905 -19.463913 0.942138 0.000000 -0.000000
  6 1.646507 1.612119 -34.692959 -0.017763 0.000000 -0.000000
  7 0.219322 -4.030296 -4.600570 0.000000 -0.000000 0.000000
  8 -6.833118 -0.124160 -11.733650 -0.079218 0.284982 -0.340623
  9 -2.998632 1.160219 -19.583817 0.640451 -0.115638 0.153327
 10 -1.356792 1.880827 -34.573044 -0.300231 0.024025 -0.092173
 11 -0.258570 -4.030296 -4.908823 0.000000 -0.000000 0.000000
 12 0.325039 1.113430 0.809021 -0.023226 0.045876 1.095680
 13 7.054492 1.815097 15.713707 -0.012067 -0.013888 -0.019728
 14 12.909767 -0.165816 -12.867264 -0.008558 -0.002621 0.012864
 15 11.504259 -9.735167 -11.778587 -0.108236 0.121909 -0.627439
 16 -4.990941 -20.855865 -11.972141 0.107342 -0.124349 -0.503130
 17 1.952663 -90.186768 -0.924717 0.000000 -0.000000 0.000000
 18 -35.001942 9.597227 -70.247475 0.000000 -0.000000 0.000000
 19 3.759455 -1.898645 -3.541325 0.000000 -0.000000 0.000000
 20 -7.698015 1.934286 15.877945 -0.561160 -0.394160 0.301522
 21 -12.721178 -0.083347 -12.838249 0.350879 -0.485336 0.230535
 22 -9.167511 -10.101496 -11.648895 0.579793 0.809828 1.024413
 23 -3.642086 -2.032094 -4.543640 0.000000 -0.000000 0.000000
 24 -0.409780 2.428936 22.341393 0.000000 0.000001 -1.148870
 25 -0.380095 -2.887196 20.845367 0.000000 -0.000000 0.000000
 26 -0.040495 -0.674471 8.862862 0.000000 -0.000000 0.000000
time 2
  0 -5.113562 -3.392895 0.796835 0.000000 -0.000000 0.000000
  1 -7.310884 -0.101110 174.348495 0.000000 -0.000000 0.000000
  2 -5.113562 -7.616843 71.858391 0.052360 -0.000000 0.000000
  3 0.325039 1.113430 -5.098999 -0.049355 0.000000 0.000000
  4 6.206746 -0.124160 -11.733650 -0.858218 0.000000 0.000000
  5 2.376919 1.428913 -19.463915 0.894297 0.000000 -0.000000
  6 1.646507 1.612120 -34.692955 -0.002079 0.000000 -0.000000
  7 0.219323 -4.030296 -4.600570 0.000000 -0.000000 0.000000
  8 -6.833118 -0.124160 -11.733650 -0.088727 0.281215 -0.342643
  9 -2.998631 1.160218 -19.583820 0.675503 -0.110579 0.160942
 10 -1.356794 1.880816 -34.573044 -0.252133 0.039473 -0.085116
 11 -0.258572 -4.030295 -4.908824 0.000000 -0.000000 0.000000
 12 0.325039 1.113430 0.809013 -0.026116 0.041670 0.993472
 13 7.054491 1.815095 15.713699 -0.044302 -0.050989 -0.074730
 14 12.909768 -0.165817 -12.867264 -0.032192 -0.009859 0.048388
 15 11.504265 -9.735168 -11.778591 -0.091612 0.077632 -0.435832
 16 -4.990948 -20.855856 -11.972137 0.107342 -0.124349 -0.503130
 17 1.952618 -90.186752 -0.924709 0.000000 -0.000000 0.000000
 18 -35.001945 9.597212 -70.247482 0.000000 -0.000000 0.000000
 19 3.759453 -1.898642 -3.541321 0.000000 -0.000000 0.000000
 20 -7.698016 1.934286 15.877937 -0.549279 -0.368481 0.132109
 21 -12.721180 -0.083344 -12.838242 0.350879 -0.485336 0.230535
 22 -9.167513 -10.101496 -11.648903 0.579793 0.809829 1.024413
 23 -3.642086 -2.032093 -4.543636 0.000000 -0.000000 0.000000
 24 -0.409781 2.428935 22.341393 0.000000 0.000001 -1.092665
 25 -0.380096 -2.887196 20.845375 0.000000 -0.000000 0.000000
 26 -0.040495 -0.674471 8.862846 0.000000 -0.000000 0.000000
time 3
  0 -5.113562 -3.392895 0.796835 0.000000 -0.000000 0.000000
  1 -7.310884 -0.101110 174.348495 0.000000 -0.000000 0.000000
  2 -5.113562 -12.046086 73.161110 0.052360 -0.000000 0.000000
  3 0.325039 1.113431 -5.098999 -0.049357 0.000000 0.000000
  4 6.206746 -0.124160 -11.733654 -0.788164 0.000000 0.000000
  5 2.376919 1.428909 -19.463913 0.824718 -0.000000 -0.000000
  6 1.646507 1.612120 -34.692955 0.022523 0.000000 -0.000000
  7 0.219323 -4.030296 -4.600570 0.000000 -0.000000 0.000000
  8 -6.833118 -0.124160 -11.733654 -0.103641 0.275306 -0.345810
  9 -2.998631 1.160219 -19.583824 0.726017 -0.103288 0.171917
 10 -1.356794 1.880815 -34.573051 -0.182818 0.061735 -0.074946
 11 -0.258570 -4.030295 -4.908824 0.000000 -0.000000 0.000000
 12 0.325039 1.113431 0.809021 -0.030280 0.035608 0.846176
 13 7.054492 1.815097 15.713699 -0.090757 -0.104456 -0.158728
 14 12.909771 -0.165814 -12.867271 -0.067837 -0.020776 0.101967
 15 11.504265 -9.735163 -11.778580 -0.066012 0.011304 -0.159701
 16 -4.990944 -20.855862 -11.972141 0.107342 -0.124349 -0.503130
 17 1.952625 -90.186752 -0.924709 0.000000 -0.000000 0.000000
 18 -35.001949 9.597212 -70.247490 0.000000 -0.000000 0.000000
 19 3.759453 -1.898640 -3.541325 0.000000 -0.000000 0.000000
 20 -7.698017 1.934284 15.877945 -0.532006 -0.331474 -0.112040
 21 -12.721180 -0.083347 -12.838249 0.350879 -0.485336 0.230535
 22 -9.167515 -10.101496 -11.648911 0.579793 0.809828 1.024413
 23 -3.642086 -2.032094 -4.543644 0.000000 -0.000000 0.000000
 24 -0.409781 2.428935 22.341385 0.000000 0.000001 -1.008714
 25 -0.380095 -2.887197 20.845375 0.000000 -0.000000 0.000000
 26 -0.040496 -0.674472 8.862854 0.000000 -0.000000 0.000000
time 4
  0 -5.113562 -3.392895 0.796835 0.000000 -0.000000 0.000000
  1 -7.310884 -0.101110 174.348495 0.000000 -0.000000 0.000000
  2 -5.113562 -17.263998 74.695793 0.052360 -0.000000 0.000000
  3 0.325039 1.113430 -5.098999 -0.049359 0.000000 0.000000
  4 6.206746 -0.124159 -11.733646 -0.705636 0.000000 0.000000
  5 2.376919 1.428905 -19.463907 0.741713 -0.000000 -0.000000
  6 1.646508 1.612118 -34.692955 0.054780 0.000000 -0.000000
  7 0.219322 -4.030296 -4.600569 0.000000 -0.000000 0.000000
  8 -6.833118 -0.124159 -11.733646 -0.123198 0.267559 -0.349963
  9 -2.998631 1.160219 -19.583824 0.785526 -0.094700 0.184846
 10 -1.356791 1.880810 -34.573044 -0.101161 0.087962 -0.062965
 11 -0.258572 -4.030295 -4.908825 0.000000 -0.000000 0.000000
 12 0.325039 1.113429 0.809021 -0.035186 0.028466 0.672653
 13 7.054491 1.815094 15.713707 -0.145483 -0.167443 -0.265448
 14 12.909764 -0.165815 -12.867271 -0.112432 -0.034434 0.168997
 15 11.504263 -9.735165 -11.778572 -0.033159 -0.070965 0.165598
 16 -4.990944 -20.855858 -11.972137 0.107342 -0.124349 -0.503130
 17 1.952652 -90.186752 -0.924713 0.000000 -0.000000 0.000000
 18 -35.001957 9.597218 -70.247490 0.000000 -0.000000 0.000000
 19 3.759453 -1.898643 -3.541325 0.000000 -0.000000 0.000000
 20 -7.698016 1.934287 15.877953 -0.511409 -0.287878 -0.399661
 21 -12.721178 -0.083344 -12.838249 0.350879 -0.485336 0.230535
 22 -9.167513 -10.101500 -11.648903 0.579793 0.809828 1.024413
 23 -3.642090 -2.032097 -4.543640 0.000000 -0.000000 0.000000
 24 -0.409781 2.428936 22.341393 0.000000 0.000001 -0.904972
 25 -0.380096 -2.887195 20.845375 0.000000 -0.000000 0.000000
 26 -0.040495 -0.674472 8.862854 0.000000 -0.000000 0.000000
time 5
  0 -5.113562 -3.392895 0.796835 0.000000 -0.000000 0.000000
  1 -7.310884 -0.101110 174.348495 0.000000 -0.000000 0.000000
  2 -5.113562 -22.703449 76.295624 0.052360 -0.000000 0.000000
  3 0.325039 1.113428 -5.098999 -0.049361 0.000000 -0.000000
  4 6.206746 -0.124161 -11.733646 -0.619604 0.000000 0.000000
  5 2.376919 1.428909 -19.463913 0.653590 -0.000000 -0.000000
  6 1.646507 1.612118 -34.692955 0.093436 0.000001 -0.000000
  7 0.219322 -4.030296 -4.600569 0.000000 -0.000000 0.000000
  8 -6.833118 -0.124161 -11.733646 -0.146633 0.258275 -0.354939
  9 -2.998631 1.160217 -19.583817 0.847561 -0.085746 0.198325
 10 -1.356792 1.880823 -34.573051 -0.016036 0.115302 -0.050476
 11 -0.258572 -4.030293 -4.908823 0.000000 -0.000000 0.000000
 12 0.325039 1.113430 0.809013 -0.040300 0.021021 0.491763
 13 7.054491 1.815095 15.713692 -0.202534 -0.233105 -0.388615
 14 12.909771 -0.165817 -12.867271 -0.162912 -0.049895 0.244876
 15 11.504263 -9.735168 -11.778584 0.005224 -0.163066 0.504708
 16 -4.990937 -20.855858 -11.972137 0.107342 -0.124349 -0.503130
 17 1.952633 -90.186752 -0.924725 0.000000 -0.000000 0.000000
 18 -35.001953 9.597206 -70.247475 0.000000 -0.000000 0.000000
 19 3.759456 -1.898643 -3.541317 0.000000 -0.000000 0.000000
 20 -7.698016 1.934285 15.877945 -0.489556 -0.242431 -0.699494
 21 -12.721184 -0.083351 -12.838245 0.350879 -0.485336 0.230535
 22 -9.167513 -10.101501 -11.648895 0.579793 0.809829 1.024413
 23 -3.642090 -2.032097 -4.543644 0.000000 -0.000000 0.000000
 24 -0.409781 2.428936 22.341385 0.000000 0.000001 -0.789395
 25 -0.380096 -2.887194 20.845367 0.000000 -0.000000 0.000000
 26 -0.040496 -0.674473 8.862854 0.000000 -0.000000 0.000000
time 6
  0 -5.113562 -3.392895 0.796835 0.000000 -0.000000 0.000000
  1 -7.310884 -0.101110 174.348495 0.000000 -0.000000 0.000000
  2 -5.113562 -27.797302 77.793816 0.052360 -0.000000 0.000000
  3 0.325039 1.113432 -5.098999 -0.049362 0.000000 -0.000000
  4 6.206746 -0.124161 -11.733650 -0.539038 0.000000 0.000000
  5 2.376919 1.428909 -19.463913 0.568660 -0.000000 -0.000000
  6 1.646507 1.612114 -34.692955 0.137228 0.000001 -0.000000
  7 0.219322 -4.030302 -4.600570 0.000000 -0.000000 0.000000
  8 -6.833119 -0.124161 -11.733646 -0.173183 0.247758 -0.360577
  9 -2.998631 1.160221 -19.583820 0.905655 -0.077362 0.210946
 10 -1.356792 1.880828 -34.573055 0.063679 0.140904 -0.038780
 11 -0.258568 -4.030291 -4.908823 0.000000 -0.000000 0.000000
 12 0.325039 1.113432 0.809013 -0.045089 0.014050 0.322366
 13 7.054492 1.815096 15.713699 -0.255959 -0.294595 -0.521952
 14 12.909763 -0.165813 -12.867264 -0.216217 -0.066221 0.324998
 15 11.504261 -9.735161 -11.778580 0.047412 -0.258890 0.822273
 16 -4.990939 -20.855865 -11.972141 0.107342 -0.124349 -0.503130
 17 1.952652 -90.186745 -0.924721 0.000000 -0.000000 0.000000
 18 -35.001949 9.597214 -70.247475 0.000000 -0.000000 0.000000
 19 3.759454 -1.898643 -3.541328 0.000000 -0.000000 0.000000
 20 -7.698014 1.934286 15.877945 -0.468517 -0.199871 -0.980277
 21 -12.721176 -0.083344 -12.838242 0.350879 -0.485336 0.230535
 22 -9.167515 -10.101490 -11.648899 0.579793 0.809829 1.024413
 23 -3.642082 -2.032097 -4.543640 0.000000 -0.000000 0.000000
 24 -0.409780 2.428934 22.341385 0.000000 0.000001 -0.669939
 25 -0.380096 -2.887199 20.845375 0.000000 -0.000000 0.000000
 26 -0.040494 -0.674473 8.862862 0.000000 -0.000000 0.000000
time 7
  0 -5.113562 -3.392895 0.796835 0.000000 -0.000000 0.000000
  1 -7.310884 -0.101110 174.348495 0.000000 -0.000000 0.000000
  2 -5.113562 -31.978420 79.023560 0.052360 -0.000000 0.000000
  3 0.325039 1.113430 -5.098999 -0.049364 0.000000 0.000000
  4 6.206746 -0.124159 -11.733646 -0.472909 0.000000 0.000000
  5 2.376919 1.428909 -19.463917 0.495233 -0.000000 -0.000000
  6 1.646507 1.612122 -34.692955 0.184898 0.000001 -0.000000
  7 0.219322 -4.030296 -4.600569 0.000000 -0.000000 0.000000
  8 -6.833119 -0.124159 -11.733646 -0.202083 0.236309 -0.366714
  9 -2.998630 1.160225 -19.583817 0.953339 -0.070479 0.221307
 10 -1.356792 1.880808 -34.573044 0.129112 0.161920 -0.029180
 11 -0.258574 -4.030295 -4.908825 0.000000 -0.000000 0.000000
 12 0.325039 1.113430 0.809013 -0.049020 0.008327 0.183322
 13 7.054493 1.815094 15.713707 -0.299812 -0.345067 -0.659183
 14 12.909775 -0.165810 -12.867256 -0.269282 -0.082473 0.404761
 15 11.504265 -9.735176 -11.778584 0.091682 -0.352326 1.082935
 16 -4.990948 -20.855865 -11.972145 0.107342 -0.124349 -0.503130
 17 1.952648 -90.186775 -0.924755 0.000000 -0.000000 0.000000
 18 -35.001965 9.597191 -70.247475 0.000000 -0.000000 0.000000
 19 3.759453 -1.898643 -3.541321 0.000000 -0.000000 0.000000
 20 -7.698017 1.934284 15.877953 -0.450360 -0.164938 -1.210748
 21 -12.721180 -0.083347 -12.838245 0.350879 -0.485336 0.230535
 22 -9.167519 -10.101498 -11.648895 0.579793 0.809829 1.024413
 23 -3.642090 -2.032097 -4.543640 0.000000 -0.000000 0.000000
 24 -0.409781 2.428934 22.341393 0.000000 0.000001 -0.554559
 25 -0.380096 -2.887196 20.845360 0.000000 -0.000000 0.000000
 26 -0.040494 -0.674471 8.862854 0.000000 -0.000000 0.000000
time 8
  0 -5.113562 -3.392895 0.796835 0.000000 -0.000000 0.000000
  1 -7.310884 -0.101110 174.348495 0.000000 -0.000000 0.000000
  2 -5.113562 -34.679684 79.818047 0.052360 -0.000000 0.000000
  3 0.325039 1.113430 -5.098999 -0.049365 0.000000 -0.000000
  4 6.206746 -0.124161 -11.733643 -0.430185 0.000000 0.000000
  5 2.376919 1.428909 -19.463913 0.441619 0.000000 -0.000000
  6 1.646507 1.612125 -34.692951 0.235186 0.000001 -0.000000
  7 0.219323 -4.030296 -4.600570 0.000000 -0.000000 0.000000
  8 -6.833119 -0.124161 -11.733646 -0.232570 0.224231 -0.373188
  9 -2.998631 1.160217 -19.583820 0.984146 -0.066033 0.228000
 10 -1.356789 1.880821 -34.573059 0.171385 0.175497 -0.022977
 11 -0.258570 -4.030295 -4.908826 0.000000 -0.000000 0.000000
 12 0.325039 1.113432 0.809013 -0.051560 0.004630 0.093491
 13 7.054492 1.815098 15.713707 -0.328143 -0.377674 -0.794035
 14 12.909771 -0.165810 -12.867260 -0.319045 -0.097714 0.479561
 15 11.504261 -9.735168 -11.778584 0.136312 -0.437265 1.251339
 16 -4.990944 -20.855873 -11.972141 0.107342 -0.124349 -0.503130
 17 1.952623 -90.186768 -0.924728 0.000000 -0.000000 0.000000
 18 -35.001953 9.597198 -70.247475 0.000000 -0.000000 0.000000
 19 3.759453 -1.898643 -3.541321 0.000000 -0.000000 0.000000
 20 -7.698016 1.934288 15.877953 -0.437153 -0.142368 -1.359646
 21 -12.721178 -0.083347 -12.838242 0.350879 -0.485336 0.230535
 22 -9.167515 -10.101498 -11.648903 0.579793 0.809829 1.024413
 23 -3.642086 -2.032097 -4.543640 0.000000 -0.000000 0.000000
 24 -0.409781 2.428934 22.341393 0.000000 0.000001 -0.451212
 25 -0.380096 -2.887196 20.845367 0.000000 -0.000000 0.000000
 26 -0.040495 -0.674469 8.862854 0.000000 -0.000000 0.000000
time 9
  0 -5.113562 -3.392895 0.796835 0.000000 -0.000000 0.000000
  1 -7.310884 -0.101110 174.348495 0.000000 -0.000000 0.000000
  2 -5.113562 -35.373100 80.028221 0.052360 -0.000000 0.000000
  3 0.325039 1.113430 -5.098991 -0.049366 0.000000 0.000000
  4 6.206746 -0.124161 -11.733646 -0.419388 0.000000 0.000000
  5 2.376919 1.428909 -19.463915 0.415361 -0.000000 -0.000000
  6 1.646507 1.612122 -34.692955 0.286832 0.000001 -0.000000
  7 0.219322 -4.030296 -4.600569 0.000000 -0.000000 0.000000
  8 -6.833119 -0.124161 -11.733646 -0.263881 0.211827 -0.379837
  9 -2.998633 1.160217 -19.583824 0.992296 -0.064857 0.229769
 10 -1.356794 1.880824 -34.573059 0.182566 0.179089 -0.021344
 11 -0.258572 -4.030295 -4.908826 0.000000 -0.000000 0.000000
 12 0.325039 1.113432 0.809021 -0.052232 0.003654 0.069726
 13 7.054490 1.815102 15.713707 -0.334478 -0.383829 -0.925051
 14 12.909760 -0.165817 -12.867268 -0.362443 -0.111006 0.544793
 15 11.504261 -9.735176 -11.778580 0.181575 -0.508180 1.290608
 16 -4.990952 -20.855858 -11.972145 0.107342 -0.124349 -0.503130
 17 1.952627 -90.186775 -0.924740 0.000000 -0.000000 0.000000
 18 -35.001957 9.597183 -70.247482 0.000000 -0.000000 0.000000
 19 3.759453 -1.898636 -3.541321 0.000000 -0.000000 0.000000
 20 -7.698015 1.934286 15.877945 -0.430773 -0.136408 -1.399041
 21 -12.721176 -0.083347 -12.838249 0.350879 -0.485336 0.230535
 22 -9.167511 -10.101494 -11.648903 0.579793 0.809828 1.024413
 23 -3.642082 -2.032097 -4.543640 0.000000 -0.000000 0.000000
 24 -0.409780 2.428940 22.341393 -0.000000 0.000001 -0.367739
 25 -0.380095 -2.887199 20.845375 0.000000 -0.000000 0.000000
 26 -0.040494 -0.674469 8.862854 0.000000 -0.000000 0.000000
time 10
  0 -5.113562 -3.392895 0.796835 0.000000 -0.000000 0.000000
  1 -7.310884 -0.101110 174.348495 0.000000 -0.000000 0.000000
  2 -5.113562 -34.770824 80.024315 0.052360 -0.000000 0.000000
  3 0.325039 1.113432 -5.098999 -0.049367 0.000000 0.000000
  4 6.206746 -0.124161 -11.733646 -0.433640 0.000000 0.000000
  5 2.376919 1.428909 -19.463919 0.401138 0.000000 -0.000000
  6 1.646508 1.612118 -34.692955 0.338577 0.000001 -0.000000
  7 0.219322 -4.030300 -4.600571 0.000000 -0.000000 0.000000
  8 -6.833119 -0.124161 -11.733643 -0.295252 0.199400 -0.386499
  9 -2.998631 1.160221 -19.583820 0.992138 -0.064877 0.229694
 10 -1.356796 1.880818 -34.573051 0.182303 0.179031 -0.021569
 11 -0.258568 -4.030294 -4.908827 0.000000 -0.000000 0.000000
 12 0.325039 1.113434 0.809013 -0.052226 0.003735 0.070163
 13 7.054492 1.815100 15.713707 -0.307799 -0.327048 -1.144076
 14 12.909775 -0.165817 -12.867271 -0.396413 -0.121410 0.595854
 15 11.504257 -9.735168 -11.778580 0.266147 -0.572405 1.169086
 16 -4.990952 -20.855865 -11.972145 0.107342 -0.124349 -0.503130
 17 1.952631 -90.186775 -0.924736 0.000000 -0.000000 0.000000
 18 -35.001953 9.597206 -70.247459 0.000000 -0.000000 0.000000
 19 3.759453 -1.898636 -3.541321 0.000000 -0.000000 0.000000
 20 -7.698015 1.934290 15.877953 -0.427371 -0.136799 -1.398439
 21 -12.721182 -0.083351 -12.838249 0.350879 -0.485336 0.230535
 22 -9.167519 -10.101498 -11.648891 0.579793 0.809828 1.024413
 23 -3.642090 -2.032093 -4.543640 0.000000 -0.000000 0.000000
 24 -0.409780 2.428940 22.341385 -0.000000 0.000001 -0.307445
 25 -0.380096 -2.887194 20.845367 0.000000 -0.000000 0.000000
 26 -0.040494 -0.674469 8.862854 0.000000 -0.000000 0.000000
time 11
  0 -5.113562 -3.392895 0.796835 0.000000 -0.000000 0.000000
  1 -7.310884 -0.101110 174.348495 0.000000 -0.000000 0.000000
  2 -5.113562 -33.463421 80.008804 0.052360 -0.000000 0.000000
  3 0.325039 1.113432 -5.098999 -0.049367 0.000000 -0.000000
  4 6.206746 -0.124161 -11.733646 -0.464387 0.000000 0.000000
  5 2.376919 1.428913 -19.463915 0.389739 0.000000 -0.000000
  6 1.646508 1.612118 -34.692951 0.389160 0.000001 -0.000000
  7 0.219322 -4.030296 -4.600569 0.000000 -0.000000 0.000000
  8 -6.833119 -0.124161 -11.733650 -0.325919 0.187252 -0.393010
  9 -2.998631 1.160217 -19.583824 0.991524 -0.064949 0.229473
 10 -1.356794 1.880817 -34.573048 0.181362 0.178798 -0.022105
 11 -0.258570 -4.030293 -4.908825 0.000000 -0.000000 0.000000
 12 0.325039 1.113432 0.809013 -0.052208 0.003940 0.071905
 13 7.054492 1.815096 15.713699 -0.270708 -0.248104 -1.371755
 14 12.909767 -0.165813 -12.867264 -0.417893 -0.127988 0.628141
 15 11.504265 -9.735168 -11.778576 0.357067 -0.620820 1.000130
 16 -4.990946 -20.855873 -11.972149 0.107342 -0.124349 -0.503130
 17 1.952646 -90.186775 -0.924744 0.000000 -0.000000 0.000000
 18 -35.001953 9.597206 -70.247475 0.000000 -0.000000 0.000000
 19 3.759451 -1.898643 -3.541328 0.000000 -0.000000 0.000000
 20 -7.698016 1.934282 15.877953 -0.424643 -0.137836 -1.395846
 21 -12.721184 -0.083344 -12.838257 0.350879 -0.485336 0.230535
 22 -9.167511 -10.101494 -11.648907 0.579793 0.809828 1.024413
 23 -3.642082 -2.032089 -4.543644 0.000000 -0.000000 0.000000
 24 -0.409780 2.428934 22.341393 -0.000000 0.000000 -0.271535
 25 -0.380096 -2.887192 20.845375 0.000000 -0.000000 0.000000
 26 -0.040494 -0.674471 8.862862 0.000000 -0.000000 0.000000
time 12
  0 -5.113562 -3.392895 0.796835 0.000000 -0.000000 0.000000
  1 -7.310884 -0.101110 174.348495 0.000000 -0.000000 0.000000
  2 -5.113562 -31.616640 79.973999 0.052360 -0.000000 0.000000
  3 0.325039 1.113430 -5.098999 -0.049368 0.000000 -0.000000
  4 6.206746 -0.124161 -11.733646 -0.507467 0.000000 0.000000
  5 2.376919 1.428909 -19.463915 0.380855 -0.000000 -0.000000
  6 1.646507 1.612114 -34.692959 0.437322 0.000001 -0.000000
  7 0.219323 -4.030296 -4.600571 0.000000 -0.000000 0.000000
  8 -6.833119 -0.124161 -11.733646 -0.355117 0.175685 -0.399211
  9 -2.998632 1.160221 -19.583818 0.990156 -0.065103 0.229055
 10 -1.356792 1.880820 -34.573051 0.179350 0.178273 -0.022949
 11 -0.258574 -4.030294 -4.908825 0.000000 -0.000000 0.000000
 12 0.325039 1.113428 0.809013 -0.052173 0.004285 0.075825
 13 7.054491 1.815098 15.713699 -0.256305 -0.217523 -1.455468
 14 12.909767 -0.165813 -12.867271 -0.424043 -0.129872 0.637384
 15 11.504257 -9.735168 -11.778584 0.390887 -0.636305 0.932594
 16 -4.990952 -20.855858 -11.972137 0.107342 -0.124349 -0.503130
 17 1.952633 -90.186790 -0.924744 0.000000 -0.000000 0.000000
 18 -35.001961 9.597191 -70.247467 0.000000 -0.000000 0.000000
 19 3.759452 -1.898643 -3.541321 0.000000 -0.000000 0.000000
 20 -7.698015 1.934282 15.877953 -0.422514 -0.139647 -1.389822
 21 -12.721180 -0.083351 -12.838238 0.350879 -0.485336 0.230535
 22 -9.167513 -10.101498 -11.648899 0.579793 0.809829 1.024414
 23 -3.642090 -2.032093 -4.543640 0.000000 -0.000000 0.000000
 24 -0.409780 2.428934 22.341385 -0.000000 0.000000 -0.261714
 25 -0.380095 -2.887194 20.845367 0.000000 -0.000000 0.000000
 26 -0.040495 -0.674473 8.862846 0.000000 -0.000000 0.000000
time 13
  0 -5.113562 -3.392895 0.796835 0.000000 -0.000000 0.000000
  1 -7.310884 -0.101110 174.348495 0.000000 -0.000000 0.000000
  2 -5.113562 -29.396227 79.912193 0.052360 -0.000000 0.000000
  3 0.325039 1.113430 -5.098999 -0.049369 0.000000 0.000000
  4 6.206746 -0.124161 -11.733646 -0.558718 0.000000 0.000000
  5 2.376919 1.428905 -19.463909 0.374177 0.000000 -0.000000
  6 1.646508 1.612122 -34.692955 0.481804 0.000001 -0.000000
  7 0.219322 -4.030296 -4.600569 0.000000 -0.000000 0.000000
  8 -6.833119 -0.124161 -11.733646 -0.382085 0.165001 -0.404937
  9 -2.998630 1.160213 -19.583824 0.987739 -0.065372 0.228389
 10 -1.356792 1.880819 -34.573051 0.175876 0.177340 -0.024097
 11 -0.258570 -4.030294 -4.908825 0.000000 -0.000000 0.000000
 12 0.325039 1.113430 0.809021 -0.052116 0.004785 0.082795
 13 7.054492 1.815096 15.713699 -0.276601 -0.264192 -1.453648
 14 12.909775 -0.165815 -12.867264 -0.424043 -0.129872 0.637384
 15 11.504269 -9.735168 -11.778587 0.390888 -0.636305 0.932594
 16 -4.990950 -20.855865 -11.972145 0.107342 -0.124349 -0.503130
 17 1.952637 -90.186806 -0.924736 0.000000 -0.000000 0.000000
 18 -35.001949 9.597214 -70.247467 0.000000 -0.000000 0.000000
 19 3.759451 -1.898651 -3.541321 0.000000 -0.000000 0.000000
 20 -7.698017 1.934284 15.877945 -0.420912 -0.142359 -1.378925
 21 -12.721180 -0.083347 -12.838242 0.350879 -0.485336 0.230535
 22 -9.167515 -10.101498 -11.648899 0.579793 0.809829 1.024413
 23 -3.642086 -2.032093 -4.543640 0.000000 -0.000000 0.000000
 24 -0.409781 2.428934 22.341385 -0.000000 0.000000 -0.261714
 25 -0.380095 -2.887197 20.845367 0.000000 -0.000000 0.000000
 26 -0.040494 -0.674471 8.862854 0.000000 -0.000000 0.000000
time 14
  0 -5.113562 -3.392895 0.796835 0.000000 -0.000000 0.000000
  1 -7.310884 -0.101110 174.348495 0.000000 -0.000000 0.000000
  2 -5.113562 -26.967928 79.815712 0.052360 -0.000000 0.000000
  3 0.325039 1.113430 -5.098991 -0.049369 0.000000 0.000000
  4 6.206746 -0.124161 -11.733643 -0.613979 0.000000 0.000000
  5 2.376919 1.428913 -19.463917 0.369396 0.000000 -0.000000
  6 1.646507 1.612122 -34.692959 0.521345 0.000001 -0.000000
  7 0.219322 -4.030296 -4.600569 0.000000 -0.000000 0.000000
  8 -6.833119 -0.124161 -11.733639 -0.406056 0.155505 -0.410028
  9 -2.998630 1.160217 -19.583820 0.983976 -0.065784 0.227425
 10 -1.356791 1.880821 -34.573048 0.170547 0.175882 -0.025545
 11 -0.258570 -4.030293 -4.908824 0.000000 -0.000000 0.000000
 12 0.325039 1.113430 0.809021 -0.052034 0.005456 0.093685
 13 7.054492 1.815096 15.713692 -0.319272 -0.362307 -1.447737
 14 12.909763 -0.165817 -12.867264 -0.424043 -0.129872 0.637384
 15 11.504257 -9.735168 -11.778578 0.390887 -0.636305 0.932594
 16 -4.990948 -20.855865 -11.972145 0.107342 -0.124349 -0.503130
 17 1.952621 -90.186768 -0.924736 0.000000 -0.000000 0.000000
 18 -35.001953 9.597191 -70.247467 0.000000 -0.000000 0.000000
 19 3.759453 -1.898651 -3.541321 0.000000 -0.000000 0.000000
 20 -7.698016 1.934284 15.877945 -0.419763 -0.146099 -1.361717
 21 -12.721176 -0.083344 -12.838242 0.350879 -0.485336 0.230535
 22 -9.167519 -10.101494 -11.648899 0.579793 0.809829 1.024413
 23 -3.642086 -2.032095 -4.543644 0.000000 -0.000000 0.000000
 24 -0.409779 2.428932 22.341385 -0.000000 0.000000 -0.261714
 25 -0.380096 -2.887196 20.845375 0.000000 -0.000000 0.000000
 26 -0.040494 -0.674473 8.862854 0.000000 -0.000000 0.000000
time 15
  0 -5.113562 -3.392895 0.796835 0.000000 -0.000000 0.000000
  1 -7.310884 -0.101110 174.348495 0.000000 -0.000000 0.000000
  2 -5.113562 -24.497488 79.676842 0.052360 -0.000000 0.000000
  3 0.325039 1.113432 -5.098991 -0.049369 0.000000 -0.000000
  4 6.206746 -0.124159 -11.733650 -0.669088 0.000000 0.000000
  5 2.376919 1.428909 -19.463917 0.366205 -0.000000 -0.000000
  6 1.646507 1.612118 -34.692955 0.554685 0.000001 -0.000000
  7 0.219322 -4.030296 -4.600569 0.000000 -0.000000 0.000000
  8 -6.833119 -0.124159 -11.733650 -0.426270 0.147498 -0.414320
  9 -2.998630 1.160221 -19.583820 0.978572 -0.066371 0.226111
 10 -1.356794 1.880816 -34.573051 0.162974 0.173781 -0.027291
 11 -0.258574 -4.030295 -4.908824 0.000000 -0.000000 0.000000
 12 0.325039 1.113432 0.809021 -0.051921 0.006314 0.109368
 13 7.054492 1.815094 15.713692 -0.373130 -0.486145 -1.436011
 14 12.909760 -0.165815 -12.867264 -0.424043 -0.129872 0.637384
 15 11.504261 -9.735168 -11.778584 0.390888 -0.636305 0.932594
 16 -4.990950 -20.855865 -11.972137 0.107342 -0.124349 -0.503130
 17 1.952621 -90.186760 -0.924744 0.000000 -0.000000 0.000000
 18 -35.001968 9.597198 -70.247459 0.000000 -0.000000 0.000000
 19 3.759453 -1.898651 -3.541313 0.000000 -0.000000 0.000000
 20 -7.698015 1.934284 15.877937 -0.418994 -0.150994 -1.336757
 21 -12.721182 -0.083347 -12.838249 0.350879 -0.485336 0.230535
 22 -9.167521 -10.101501 -11.648895 0.579793 0.809829 1.024414
 23 -3.642094 -2.032095 -4.543640 0.000000 -0.000000 0.000000
 24 -0.409780 2.428934 22.341385 -0.000000 0.000000 -0.261715
 25 -0.380096 -2.887196 20.845375 0.000000 -0.000000 0.000000
 26 -0.040494 -0.674473 8.862854 0.000000 -0.000000 0.000000
time 16
  0 -5.113562 -3.392895 0.796835 0.000000 -0.000000 0.000000
  1 -7.310884 -0.101110 174.348495 0.000000 -0.000000 0.000000
  2 -5.113562 -22.150652 79.487907 0.052360 -0.000000 0.000000
  3 0.325039 1.113430 -5.098991 -0.049370 0.000000 -0.000000
  4 6.206746 -0.124159 -11.733650 -0.719885 0.000000 0.000000
  5 2.376919 1.428913 -19.463915 0.364292 -0.000000 -0.000000
  6 1.646507 1.612114 -34.692959 0.580566 0.000001 -0.000000
  7 0.219322 -4.030300 -4.600569 0.000000 -0.000000 0.000000
  8 -6.833119 -0.124159 -11.733646 -0.441960 0.141282 -0.417652
  9 -2.998631 1.160217 -19.583822 0.971228 -0.067163 0.224396
 10 -1.356792 1.880820 -34.573059 0.152763 0.170921 -0.029330
 11 -0.258572 -4.030293 -4.908825 0.000000 -0.000000 0.000000
 12 0.325039 1.113428 0.809021 -0.051773 0.007374 0.130715
 13 7.054492 1.815096 15.713699 -0.426988 -0.609983 -1.416747
 14 12.909767 -0.165815 -12.867264 -0.424043 -0.129872 0.637384
 15 11.504257 -9.735161 -11.778582 0.390888 -0.636305 0.932594
 16 -4.990955 -20.855858 -11.972149 0.107342 -0.124349 -0.503130
 17 1.952621 -90.186783 -0.924740 0.000000 -0.000000 0.000000
 18 -35.001965 9.597176 -70.247475 0.000000 -0.000000 0.000000
 19 3.759449 -1.898643 -3.541325 0.000000 -0.000000 0.000000
 20 -7.698015 1.934286 15.877945 -0.418532 -0.157172 -1.302605
 21 -12.721182 -0.083347 -12.838249 0.350879 -0.485336 0.230535
 22 -9.167513 -10.101494 -11.648907 0.579793 0.809828 1.024413
 23 -3.642086 -2.032093 -4.543636 0.000000 -0.000000 0.000000
 24 -0.409779 2.428936 22.341377 -0.000000 0.000000 -0.261715
 25 -0.380096 -2.887196 20.845375 0.000000 -0.000000 0.000000
 26 -0.040494 -0.674471 8.862862 0.000000 -0.000000 0.000000
time 17
  0 -5.113562 -3.392895 0.796835 0.000000 -0.000000 0.000000
  1 -7.310884 -0.101110 174.348495 0.000000 -0.000000 0.000000
  2 -5.113562 -20.093168 79.241196 0.052360 -0.000000 0.000000
  3 0.325039 1.113429 -5.098999 -0.049370 0.000000 -0.000000
  4 6.206747 -0.124159 -11.733646 -0.762206 0.000000 0.000000
  5 2.376919 1.428909 -19.463915 0.363351 -0.000000 -0.000000
  6 1.646507 1.612122 -34.692959 0.597726 0.000001 -0.000000
  7 0.219322 -4.030296 -4.600569 0.000000 -0.000000 0.000000
  8 -6.833119 -0.124159 -11.733643 -0.452364 0.137161 -0.419861
  9 -2.998630 1.160221 -19.583822 0.961649 -0.068192 0.222230
 10 -1.356794 1.880821 -34.573051 0.139523 0.167185 -0.031659
 11 -0.258570 -4.030293 -4.908824 0.000000 -0.000000 0.000000
 12 0.325039 1.113429 0.809013 -0.051586 0.008651 0.158599
 13 7.054492 1.815096 15.713699 -0.469659 -0.708098 -1.388220
 14 12.909767 -0.165815 -12.867268 -0.424043 -0.129872 0.637384
 15 11.504265 -9.735168 -11.778580 0.390887 -0.636305 0.932594
 16 -4.990955 -20.855865 -11.972153 0.107342 -0.124349 -0.503130
 17 1.952616 -90.186775 -0.924751 0.000000 -0.000000 0.000000
 18 -35.001953 9.597183 -70.247467 0.000000 -0.000000 0.000000
 19 3.759453 -1.898643 -3.541321 0.000000 -0.000000 0.000000
 20 -7.698016 1.934286 15.877953 -0.418303 -0.164759 -1.257821
 21 -12.721181 -0.083344 -12.838249 0.350879 -0.485336 0.230535
 22 -9.167521 -10.101494 -11.648903 0.579793 0.809829 1.024413
 23 -3.642082 -2.032095 -4.543644 0.000000 -0.000000 0.000000
 24 -0.409781 2.428935 22.341400 -0.000000 0.000000 -0.261715
 25 -0.380096 -2.887196 20.845367 0.000000 -0.000000 0.000000
 26 -0.040495 -0.674469 8.862862 0.000000 -0.000000 0.000000
time 18
  0 -5.113562 -3.392895 0.796835 0.000000 -0.000000 0.000000
  1 -7.310884 -0.101110 174.348495 0.000000 -0.000000 0.000000
  2 -5.113562 -18.490778 78.929031 0.052360 -0.000000 0.000000
  3 0.325039 1.113431 -5.098999 -0.049371 0.000000 -0.000000
  4 6.206747 -0.124161 -11.733646 -0.791892 0.000000 0.000000
  5 2.376919 1.428913 -19.463915 0.363072 -0.000000 -0.000000
  6 1.646507 1.612118 -34.692959 0.604907 0.000001 -0.000000
  7 0.219322 -4.030293 -4.600571 0.000000 -0.000000 0.000000
  8 -6.833119 -0.124161 -11.733646 -0.456717 0.135436 -0.420786
  9 -2.998631 1.160213 -19.583818 0.949539 -0.069487 0.219561
 10 -1.356789 1.880825 -34.573055 0.122863 0.162455 -0.034275
 11 -0.258570 -4.030293 -4.908824 0.000000 -0.000000 0.000000
 12 0.325039 1.113430 0.809013 -0.051354 0.010161 0.193890
 13 7.054491 1.815095 15.713707 -0.489955 -0.754767 -1.348706
 14 12.909767 -0.165813 -12.867264 -0.424043 -0.129872 0.637384
 15 11.504261 -9.735161 -11.778582 0.390888 -0.636305 0.932594
 16 -4.990952 -20.855865 -11.972137 0.107342 -0.124349 -0.503130
 17 1.952621 -90.186768 -0.924732 0.000000 -0.000000 0.000000
 18 -35.001965 9.597198 -70.247482 0.000000 -0.000000 0.000000
 19 3.759453 -1.898651 -3.541317 0.000000 -0.000000 0.000000
 20 -7.698016 1.934285 15.877953 -0.418235 -0.173885 -1.200965
 21 -12.721182 -0.083344 -12.838257 0.350879 -0.485336 0.230535
 22 -9.167519 -10.101498 -11.648899 0.579793 0.809829 1.024413
 23 -3.642082 -2.032093 -4.543636 0.000000 -0.000000 0.000000
 24 -0.409781 2.428935 22.341393 -0.000000 0.000000 -0.261715
 25 -0.380096 -2.887197 20.845375 0.000000 -0.000000 0.000000
 26 -0.040496 -0.674473 8.862862 0.000000 -0.000000 0.000000
time 19
  0 -5.113562 -3.392895 0.796835 0.000000 -0.000000 0.000000
  1 -7.310884 -0.101110 174.348495 0.000000 -0.000000 0.000000
  2 -5.113562 -17.254602 78.540443 0.052360 -0.000000 0.000000
  3 0.325039 1.113430 -5.098999 -0.049371 0.000000 -0.000000
  4 6.206747 -0.124160 -11.733646 -0.810761 0.000000 0.000000
  5 2.376919 1.428905 -19.463911 0.367411 -0.000000 -0.000000
  6 1.646508 1.612122 -34.692955 0.600474 0.000001 -0.000000
  7 0.219322 -4.030300 -4.600569 0.000000 -0.000000 0.000000
  8 -6.833119 -0.124160 -11.733646 -0.454030 0.136501 -0.420215
  9 -2.998632 1.160217 -19.583824 0.934987 -0.071104 0.216391
 10 -1.356798 1.880819 -34.573051 0.102195 0.156434 -0.037281
 11 -0.258572 -4.030294 -4.908824 0.000000 -0.000000 0.000000
 12 0.325039 1.113429 0.809013 -0.050901 0.011960 0.237828
 13 7.054492 1.815096 15.713707 -0.486969 -0.750243 -1.295436
 14 12.909767 -0.165817 -12.867264 -0.421153 -0.128927 0.632754
 15 11.504261 -9.735176 -11.778578 0.387212 -0.630670 0.920721
 16 -4.990944 -20.855858 -11.972134 0.107342 -0.124349 -0.503130
 17 1.952639 -90.186783 -0.924698 0.000000 -0.000000 0.000000
 18 -35.001957 9.597229 -70.247475 0.000000 -0.000000 0.000000
 19 3.759453 -1.898636 -3.541321 0.000000 -0.000000 0.000000
 20 -7.698015 1.934285 15.877953 -0.419306 -0.184883 -1.129708
 21 -12.721184 -0.083344 -12.838253 0.350879 -0.485336 0.230535
 22 -9.167517 -10.101498 -11.648903 0.579793 0.809829 1.024413
 23 -3.642097 -2.032095 -4.543636 0.000000 -0.000000 0.000000
 24 -0.409780 2.428936 22.341400 -0.000000 0.000000 -0.268320
 25 -0.380095 -2.887197 20.845375 0.000000 -0.000000 0.000000
 26 -0.040495 -0.674472 8.862862 0.000000 -0.000000 0.000000
time 20
  0 -5.113562 -3.392895 0.796835 0.000000 -0.000000 0.000000
  1 -7.310884 -0.101110 174.348495 0.000000 -0.000000 0.000000
  2 -5.113562 -16.011080 78.073753 0.052360 -0.000000 0.000000
  3 0.325039 1.113431 -5.098991 -0.049371 0.000000 0.000000
  4 6.206747 -0.124160 -11.733646 -0.827675 0.000000 0.000000
  5 2.376919 1.428902 -19.463913 0.382957 0.000000 -0.000000
  6 1.646507 1.612122 -34.692959 0.584109 0.000001 -0.000000
  7 0.219323 -4.030296 -4.600571 0.000000 -0.000000 0.000000
  8 -6.833119 -0.124161 -11.733646 -0.444108 0.140431 -0.418108
  9 -2.998631 1.160217 -19.583824 0.918687 -0.073075 0.212824
 10 -1.356792 1.880822 -34.573044 0.077395 0.148887 -0.040810
 11 -0.258572 -4.030293 -4.908823 0.000000 -0.000000 0.000000
 12 0.325039 1.113431 0.809021 -0.049957 0.014096 0.290598
 13 7.054493 1.815096 15.713715 -0.474744 -0.730558 -1.227144
 14 12.909767 -0.165813 -12.867268 -0.410790 -0.125544 0.616179
 15 11.504257 -9.735168 -11.778584 0.374058 -0.610502 0.878220
 16 -4.990952 -20.855865 -11.972145 0.107342 -0.124349 -0.503130
 17 1.952629 -90.186775 -0.924706 0.000000 -0.000000 0.000000
 18 -35.001961 9.597206 -70.247459 0.000000 -0.000000 0.000000
 19 3.759453 -1.898643 -3.541321 0.000000 -0.000000 0.000000
 20 -7.698016 1.934284 15.877960 -0.423144 -0.197977 -1.043276
 21 -12.721181 -0.083351 -12.838249 0.350879 -0.485336 0.230535
 22 -9.167519 -10.101498 -11.648907 0.579793 0.809829 1.024413
 23 -3.642090 -2.032093 -4.543640 0.000000 -0.000000 0.000000
 24 -0.409780 2.428934 22.341400 -0.000000 0.000000 -0.291961
 25 -0.380095 -2.887196 20.845383 0.000000 -0.000000 0.000000
 26 -0.040494 -0.674472 8.862862 0.000000 -0.000000 0.000000
time 21
  0 -5.113562 -3.392895 0.796835 0.000000 -0.000000 0.000000
  1 -7.310884 -0.101110 174.348495 0.000000 -0.000000 0.000000
  2 -5.113562 -14.763708 77.541916 0.052360 -0.000000 0.000000
  3 0.325039 1.113430 -5.098999 -0.049372 0.000000 -0.000000
  4 6.206746 -0.124161 -11.733643 -0.842902 0.000000 0.000000
  5 2.376919 1.428905 -19.463909 0.408362 -0.000000 -0.000000
  6 1.646508 1.612118 -34.692955 0.557365 0.000001 -0.000000
  7 0.219322 -4.030304 -4.600569 0.000000 -0.000000 0.000000
  8 -6.833119 -0.124161 -11.733643 -0.427894 0.146854 -0.414665
  9 -2.998629 1.160221 -19.583817 0.900885 -0.075360 0.208919
 10 -1.356791 1.880821 -34.573051 0.049149 0.140051 -0.044776
 11 -0.258572 -4.030293 -4.908824 0.000000 -0.000000 0.000000
 12 0.325039 1.113430 0.809013 -0.048583 0.016511 0.350737
 13 7.054492 1.815096 15.713715 -0.454733 -0.698390 -1.146139
 14 12.909767 -0.165813 -12.867264 -0.393811 -0.120016 0.589090
 15 11.504265 -9.735168 -11.778582 0.352561 -0.577543 0.808764
 16 -4.990942 -20.855873 -11.972145 0.107342 -0.124349 -0.503130
 17 1.952648 -90.186760 -0.924744 0.000000 -0.000000 0.000000
 18 -35.001953 9.597206 -70.247467 0.000000 -0.000000 0.000000
 19 3.759453 -1.898643 -3.541325 0.000000 -0.000000 0.000000
 20 -7.698014 1.934287 15.877953 -0.429416 -0.212818 -0.944146
 21 -12.721180 -0.083347 -12.838249 0.350879 -0.485336 0.230535
 22 -9.167517 -10.101498 -11.648903 0.579793 0.809829 1.024413
 23 -3.642082 -2.032095 -4.543636 0.000000 -0.000000 0.000000
 24 -0.409779 2.428936 22.341393 -0.000000 0.000000 -0.330595
 25 -0.380095 -2.887197 20.845383 0.000000 -0.000000 0.000000
 26 -0.040494 -0.674471 8.862862 0.000000 -0.000000 0.000000
time 22
  0 -5.113562 -3.392895 0.796835 0.000000 -0.000000 0.000000
  1 -7.310884 -0.101110 174.348495 0.000000 -0.000000 0.000000
  2 -5.113562 -13.524087 76.958069 0.052360 -0.000000 0.000000
  3 0.325039 1.113430 -5.098999 -0.049372 0.000000 0.000000
  4 6.206746 -0.124160 -11.733650 -0.856526 0.000000 0.000000
  5 2.376919 1.428913 -19.463913 0.442128 -0.000000 -0.000000
  6 1.646508 1.612118 -34.692955 0.521820 0.000001 -0.000000
  7 0.219322 -4.030296 -4.600571 0.000000 -0.000000 0.000000
  8 -6.833119 -0.124160 -11.733650 -0.406345 0.155391 -0.410089
  9 -2.998631 1.160217 -19.583820 0.881821 -0.077919 0.204732
 10 -1.356794 1.880821 -34.573044 0.018153 0.130172 -0.049088
 11 -0.258570 -4.030293 -4.908822 0.000000 -0.000000 0.000000
 12 0.325039 1.113431 0.809013 -0.046847 0.019149 0.416758
 13 7.054491 1.815094 15.713699 -0.428082 -0.655637 -1.054784
 14 12.909771 -0.165813 -12.867264 -0.371179 -0.112669 0.553083
 15 11.504261 -9.735168 -11.778580 0.323989 -0.533738 0.716453
 16 -4.990945 -20.855858 -11.972137 0.107342 -0.124349 -0.503130
 17 1.952629 -90.186783 -0.924713 0.000000 -0.000000 0.000000
 18 -35.001953 9.597206 -70.247467 0.000000 -0.000000 0.000000
 19 3.759455 -1.898636 -3.541317 0.000000 -0.000000 0.000000
 20 -7.698014 1.934286 15.877953 -0.437751 -0.229049 -0.834839
 21 -12.721182 -0.083351 -12.838242 0.350879 -0.485336 0.230535
 22 -9.167517 -10.101496 -11.648895 0.579793 0.809829 1.024413
 23 -3.642082 -2.032093 -4.543644 0.000000 -0.000000 0.000000
 24 -0.409780 2.428935 22.341393 -0.000000 0.000000 -0.381943
 25 -0.380095 -2.887194 20.845375 0.000000 -0.000000 0.000000
 26 -0.040494 -0.674473 8.862854 0.000000 -0.000000 0.000000
time 23
  0 -5.113562 -3.392895 0.796835 0.000000 -0.000000 0.000000
  1 -7.310884 -0.101110 174.348495 0.000000 -0.000000 0.000000
  2 -5.113562 -12.303819 76.335365 0.052360 -0.000000 0.000000
  3 0.325039 1.113431 -5.098999 -0.049373 0.000000 0.000000
  4 6.206746 -0.124159 -11.733643 -0.868628 0.000000 0.000000
  5 2.376919 1.428909 -19.463913 0.482755 -0.000000 -0.000000
  6 1.646508 1.612118 -34.692955 0.479052 0.000001 -0.000000
  7 0.219323 -4.030296 -4.600569 0.000000 -0.000000 0.000000
  8 -6.833118 -0.124159 -11.733643 -0.380416 0.165662 -0.404583
  9 -2.998631 1.160225 -19.583826 0.861733 -0.080711 0.200320
 10 -1.356796 1.880813 -34.573051 -0.014897 0.119494 -0.053652
 11 -0.258570 -4.030295 -4.908824 0.000000 -0.000000 0.000000
 12 0.325039 1.113431 0.809021 -0.044817 0.021952 0.487174
 13 7.054492 1.815096 15.713707 -0.395942 -0.604195 -0.955440
 14 12.909771 -0.165813 -12.867271 -0.343855 -0.103829 0.509757
 15 11.504257 -9.735168 -11.778584 0.289612 -0.481031 0.605382
 16 -4.990948 -20.855865 -11.972141 0.107342 -0.124349 -0.503130
 17 1.952614 -90.186783 -0.924740 0.000000 -0.000000 0.000000
 18 -35.001945 9.597198 -70.247467 0.000000 -0.000000 0.000000
 19 3.759455 -1.898651 -3.541321 0.000000 -0.000000 0.000000
 20 -7.698016 1.934285 15.877953 -0.447781 -0.246312 -0.717876
 21 -12.721177 -0.083351 -12.838249 0.350879 -0.485336 0.230535
 22 -9.167522 -10.101496 -11.648903 0.579793 0.809829 1.024413
 23 -3.642090 -2.032093 -4.543640 0.000000 -0.000000 0.000000
 24 -0.409780 2.428935 22.341400 -0.000000 0.000000 -0.443725
 25 -0.380096 -2.887197 20.845375 0.000000 -0.000000 0.000000
 26 -0.040495 -0.674471 8.862862 0.000000 -0.000000 0.000000
time 24
  0 -5.113562 -3.392895 0.796835 0.000000 -0.000000 0.000000
  1 -7.310884 -0.101110 174.348495 0.000000 -0.000000 0.000000
  2 -5.113562 -11.114504 75.686935 0.052360 -0.000000 0.000000
  3 0.325039 1.113431 -5.098999 -0.049374 0.000000 0.000000
  4 6.206746 -0.124160 -11.733643 -0.879291 0.000000 0.000000
  5 2.376919 1.428909 -19.463913 0.528745 -0.000000 -0.000000
  6 1.646507 1.612118 -34.692955 0.430638 0.000001 -0.000000
  7 0.219323 -4.030300 -4.600570 0.000000 -0.000000 0.000000
  8 -6.833118 -0.124161 -11.733646 -0.351065 0.177290 -0.398350
  9 -2.998629 1.160223 -19.583822 0.840858 -0.083696 0.195739
 10 -1.356794 1.880816 -34.573051 -0.049305 0.108263 -0.058378
 11 -0.258572 -4.030294 -4.908825 0.000000 -0.000000 0.000000
 12 0.325039 1.113431 0.809021 -0.042561 0.024862 0.560500
 13 7.054491 1.815097 15.713707 -0.359459 -0.545963 -0.850470
 14 12.909763 -0.165817 -12.867264 -0.312800 -0.093822 0.460707
 15 11.504257 -9.735168 -11.778584 0.250696 -0.421366 0.479650
 16 -4.990950 -20.855858 -11.972149 0.107342 -0.124349 -0.503130
 17 1.952637 -90.186775 -0.924740 0.000000 -0.000000 0.000000
 18 -35.001961 9.597191 -70.247467 0.000000 -0.000000 0.000000
 19 3.759449 -1.898643 -3.541321 0.000000 -0.000000 0.000000
 20 -7.698016 1.934283 15.877945 -0.459134 -0.264249 -0.595779
 21 -12.721181 -0.083351 -12.838249 0.350879 -0.485336 0.230535
 22 -9.167521 -10.101492 -11.648903 0.579793 0.809828 1.024413
 23 -3.642082 -2.032094 -4.543640 0.000000 -0.000000 0.000000
 24 -0.409779 2.428935 22.341393 -0.000000 0.000000 -0.513663
 25 -0.380095 -2.887195 20.845375 0.000000 -0.000000 0.000000
 26 -0.040495 -0.674471 8.862854 0.000000 -0.000000 0.000000
time 25
  0 -5.113562 -3.392895 0.796835 0.000000 -0.000000 0.000000
  1 -7.310884 -0.101110 174.348495 0.000000 -0.000000 0.000000
  2 -5.113562 -9.967743 75.025940 0.052360 -0.000000 0.000000
  3 0.325039 1.113431 -5.099007 -0.049375 0.000000 0.000000
  4 6.206746 -0.124159 -11.733646 -0.888596 0.000000 0.000000
  5 2.376919 1.428905 -19.463913 0.578599 -0.000000 -0.000000
  6 1.646507 1.612122 -34.692951 0.378156 0.000001 -0.000000
  7 0.219322 -4.030296 -4.600571 0.000000 -0.000000 0.000000
  8 -6.833118 -0.124159 -11.733646 -0.319248 0.189894 -0.391594
  9 -2.998632 1.160221 -19.583817 0.819434 -0.086831 0.191047
 10 -1.356794 1.880816 -34.573048 -0.084373 0.096722 -0.063174
 11 -0.258570 -4.030294 -4.908824 0.000000 -0.000000 0.000000
 12 0.325039 1.113431 0.809013 -0.040146 0.027821 0.635248
 13 7.054493 1.815096 15.713699 -0.319782 -0.482838 -0.742235
 14 12.909767 -0.165815 -12.867268 -0.278977 -0.082974 0.407529
 15 11.504265 -9.735172 -11.778584 0.208511 -0.356689 0.343355
 16 -4.990948 -20.855865 -11.972157 0.107342 -0.124349 -0.503130
 17 1.952621 -90.186775 -0.924751 0.000000 -0.000000 0.000000
 18 -35.001945 9.597187 -70.247482 0.000000 -0.000000 0.000000
 19 3.759453 -1.898643 -3.541321 0.000000 -0.000000 0.000000
 20 -7.698018 1.934285 15.877953 -0.471442 -0.282503 -0.471070
 21 -12.721182 -0.083347 -12.838242 0.350879 -0.485336 0.230535
 22 -9.167515 -10.101498 -11.648895 0.579793 0.809829 1.024413
 23 -3.642090 -2.032096 -4.543640 0.000000 -0.000000 0.000000
 24 -0.409781 2.428936 22.341385 -0.000000 0.000000 -0.589477
 25 -0.380096 -2.887195 20.845375 0.000000 -0.000000 0.000000
 26 -0.040494 -0.674471 8.862854 0.000000 -0.000000 0.000000
time 26
  0 -5.113562 -3.392895 0.796835 0.000000 -0.000000 0.000000
  1 -7.310884 -0.101110 174.348495 0.000000 -0.000000 0.000000
  2 -5.113562 -8.875139 74.365509 0.052360 -0.000000 0.000000
  3 0.325039 1.113430 -5.098999 -0.049376 0.000000 0.000000
  4 6.206746 -0.124160 -11.733643 -0.896625 0.000000 0.000000
  5 2.376919 1.428905 -19.463913 0.630819 -0.000000 -0.000000
  6 1.646508 1.612120 -34.692955 0.323185 0.000001 -0.000000
  7 0.219322 -4.030298 -4.600570 0.000000 -0.000000 0.000000
  8 -6.833118 -0.124160 -11.733643 -0.285921 0.203097 -0.384517
  9 -2.998631 1.160219 -19.583820 0.797698 -0.090077 0.186300
 10 -1.356789 1.880810 -34.573044 -0.119407 0.085119 -0.067948
 11 -0.258572 -4.030295 -4.908824 0.000000 -0.000000 0.000000
 12 0.325039 1.113430 0.809021 -0.037639 0.030772 0.709932
 13 7.054492 1.815097 15.713707 -0.278060 -0.416718 -0.633099
 14 12.909771 -0.165817 -12.867264 -0.243346 -0.071612 0.351821
 15 11.504261 -9.735168 -11.778584 0.164325 -0.288943 0.200593
 16 -4.990955 -20.855881 -11.972149 0.107342 -0.124349 -0.503130
 17 1.952629 -90.186790 -0.924736 0.000000 -0.000000 0.000000
 18 -35.001972 9.597202 -70.247482 0.000000 -0.000000 0.000000
 19 3.759453 -1.898651 -3.541325 0.000000 -0.000000 0.000000
 20 -7.698016 1.934285 15.877953 -0.484333 -0.300716 -0.346270
 21 -12.721183 -0.083347 -12.838249 0.350879 -0.485336 0.230535
 22 -9.167513 -10.101496 -11.648903 0.579793 0.809828 1.024413
 23 -3.642094 -2.032094 -4.543644 0.000000 -0.000000 0.000000
 24 -0.409779 2.428936 22.341393 -0.000000 0.000000 -0.668888
 25 -0.380095 -2.887196 20.845375 0.000000 -0.000000 0.000000
 26 -0.040494 -0.674471 8.862854 0.000000 -0.000000 0.000000
time 27
  0 -5.113562 -3.392895 0.796835 0.000000 -0.000000 0.000000
  1 -7.310884 -0.101110 174.348495 0.000000 -0.000000 0.000000
  2 -5.113562 -7.848292 73.718796 0.052360 -0.000000 0.000000
  3 0.325039 1.113430 -5.098999 -0.049377 0.000000 -0.000000
  4 6.206746 -0.124160 -11.733643 -0.903460 0.000000 0.000000
  5 2.376919 1.428909 -19.463917 0.683905 0.000000 -0.000000
  6 1.646507 1.612118 -34.692955 0.267302 0.000001 -0.000000
  7 0.219322 -4.030296 -4.600570 0.000000 -0.000000 0.000000
  8 -6.833118 -0.124160 -11.733643 -0.252041 0.216518 -0.377323
  9 -2.998631 1.160221 -19.583828 0.775890 -0.093393 0.181555
 10 -1.356794 1.880823 -34.573040 -0.153709 0.073696 -0.072609
 11 -0.258572 -4.030293 -4.908823 0.000000 -0.000000 0.000000
 12 0.325039 1.113430 0.809013 -0.035109 0.033658 0.783065
 13 7.054493 1.815097 15.713699 -0.235441 -0.349502 -0.525421
 14 12.909771 -0.165812 -12.867271 -0.206869 -0.060061 0.295178
 15 11.504265 -9.735165 -11.778584 0.119405 -0.220073 0.055462
 16 -4.990952 -20.855865 -11.972145 0.107342 -0.124349 -0.503130
 17 1.952606 -90.186783 -0.924717 0.000000 -0.000000 0.000000
 18 -35.001957 9.597212 -70.247467 0.000000 -0.000000 0.000000
 19 3.759457 -1.898640 -3.541325 0.000000 -0.000000 0.000000
 20 -7.698016 1.934284 15.877945 -0.497438 -0.318530 -0.223901
 21 -12.721184 -0.083347 -12.838257 0.350879 -0.485336 0.230535
 22 -9.167511 -10.101492 -11.648899 0.579793 0.809829 1.024413
 23 -3.642090 -2.032092 -4.543633 0.000000 -0.000000 0.000000
 24 -0.409780 2.428936 22.341385 -0.000000 0.000000 -0.749616
 25 -0.380096 -2.887196 20.845383 0.000000 -0.000000 0.000000
 26 -0.040494 -0.674471 8.862854 0.000000 -0.000000 0.000000
time 28
  0 -5.113562 -3.392895 0.796835 0.000000 -0.000000 0.000000
  1 -7.310884 -0.101110 174.348495 0.000000 -0.000000 0.000000
  2 -5.113562 -6.898802 73.098930 0.052360 -0.000000 0.000000
  3 0.325039 1.113430 -5.098999 -0.049378 0.000000 -0.000000
  4 6.206746 -0.124160 -11.733643 -0.909185 0.000000 0.000000
  5 2.376919 1.428902 -19.463913 0.736359 0.000000 -0.000000
  6 1.646507 1.612120 -34.692955 0.212084 0.000001 -0.000000
  7 0.219323 -4.030296 -4.600571 0.000000 -0.000000 0.000000
  8 -6.833118 -0.124160 -11.733643 -0.218565 0.229780 -0.370214
  9 -2.998631 1.160219 -19.583826 0.754246 -0.096738 0.176868
 10 -1.356794 1.880823 -34.573048 -0.186583 0.062700 -0.077065
 11 -0.258570 -4.030295 -4.908823 0.000000 -0.000000 0.000000
 12 0.325039 1.113430 0.809013 -0.032623 0.036420 0.853162
 13 7.054492 1.815097 15.713699 -0.193074 -0.283086 -0.421566
 14 12.909767 -0.165819 -12.867264 -0.170508 -0.048647 0.239198
 15 11.504265 -9.735176 -11.778576 0.075021 -0.152023 -0.087941
 16 -4.990948 -20.855865 -11.972149 0.107342 -0.124349 -0.503130
 17 1.952644 -90.186783 -0.924744 0.000000 -0.000000 0.000000
 18 -35.001961 9.597197 -70.247490 0.000000 -0.000000 0.000000
 19 3.759453 -1.898640 -3.541325 0.000000 -0.000000 0.000000
 20 -7.698015 1.934284 15.877953 -0.510387 -0.335588 -0.106485
 21 -12.721180 -0.083351 -12.838249 0.350879 -0.485336 0.230535
 22 -9.167519 -10.101498 -11.648903 0.579793 0.809828 1.024413
 23 -3.642090 -2.032095 -4.543644 0.000000 -0.000000 0.000000
 24 -0.409780 2.428936 22.341400 -0.000000 0.000001 -0.829383
 25 -0.380095 -2.887196 20.845383 0.000000 -0.000000 0.000000
 26 -0.040495 -0.674471 8.862862 0.000000 -0.000000 0.000000
time 29
  0 -5.113562 -3.392895 0.796835 0.000000 -0.000000 0.000000
  1 -7.310884 -0.101110 174.348495 0.000000 -0.000000 0.000000
  2 -5.113562 -6.038271 72.519073 0.052360 -0.000000 0.000000
  3 0.325039 1.113430 -5.098999 -0.049380 0.000000 0.000000
  4 6.206746 -0.124161 -11.733650 -0.913879 0.000000 0.000000
  5 2.376919 1.428909 -19.463913 0.786681 0.000000 -0.000000
  6 1.646507 1.612120 -34.692959 0.159109 0.000001 -0.000000
  7 0.219322 -4.030296 -4.600570 0.000000 -0.000000 0.000000
  8 -6.833118 -0.124161 -11.733650 -0.186448 0.242502 -0.363394
  9 -2.998632 1.160219 -19.583822 0.733005 -0.100070 0.172297
 10 -1.356794 1.880820 -34.573040 -0.217333 0.052375 -0.081224
 11 -0.258572 -4.030294 -4.908824 0.000000 -0.000000 0.000000
 12 0.325039 1.113430 0.809021 -0.030249 0.039000 0.918735
 13 7.054492 1.815096 15.713699 -0.152106 -0.219368 -0.323894
 14 12.909767 -0.165815 -12.867271 -0.135225 -0.037698 0.185477
 15 11.504265 -9.735170 -11.778576 0.032439 -0.086738 -0.225517
 16 -4.990944 -20.855865 -11.972137 0.107342 -0.124349 -0.503130
 17 1.952652 -90.186768 -0.924721 0.000000 -0.000000 0.000000
 18 -35.001953 9.597219 -70.247467 0.000000 -0.000000 0.000000
 19 3.759449 -1.898645 -3.541313 0.000000 -0.000000 0.000000
 20 -7.698016 1.934287 15.877945 -0.522810 -0.351532 0.003457
 21 -12.721182 -0.083344 -12.838249 0.350879 -0.485336 0.230535
 22 -9.167513 -10.101501 -11.648911 0.579793 0.809828 1.024413
 23 -3.642082 -2.032098 -4.543640 0.000000 -0.000000 0.000000
 24 -0.409780 2.428936 22.341385 -0.000000 0.000001 -0.905909
 25 -0.380095 -2.887195 20.845383 0.000000 -0.000000 0.000000
 26 -0.040494 -0.674471 8.862854 0.000000 -0.000000 0.000000
time 30
  0 -5.113562 -3.392895 0.796835 0.000000 -0.000000 0.000000
  1 -7.310884 -0.101110 174.348495 0.000000 -0.000000 0.000000
  2 -5.113562 -5.278301 71.992371 0.052360 -0.000000 0.000000
  3 0.325039 1.113430 -5.098999 -0.049382 0.000000 -0.000000
  4 6.206746 -0.124160 -11.733646 -0.917627 0.000000 0.000000
  5 2.376919 1.428905 -19.463913 0.833374 0.000000 -0.000000
  6 1.646507 1.612120 -34.692947 0.109956 0.000001 -0.000000
  7 0.219322 -4.030296 -4.600570 0.000000 -0.000000 0.000000
  8 -6.833118 -0.124160 -11.733646 -0.156649 0.254307 -0.357066
  9 -2.998631 1.160219 -19.583818 0.712404 -0.103351 0.167898
 10 -1.356796 1.880833 -34.573044 -0.245263 0.042966 -0.084995
 11 -0.258574 -4.030294 -4.908821 0.000000 -0.000000 0.000000
 12 0.325039 1.113430 0.809013 -0.028055 0.041342 0.978298
 13 7.054491 1.815096 15.713699 -0.113686 -0.160246 -0.234769
 14 12.909764 -0.165819 -12.867271 -0.101981 -0.027538 0.135612
 15 11.504261 -9.735172 -11.778584 -0.007071 -0.026162 -0.353169
 16 -4.990936 -20.855862 -11.972137 0.107342 -0.124349 -0.503130
 17 1.952656 -90.186760 -0.924732 0.000000 -0.000000 0.000000
 18 -35.001949 9.597211 -70.247482 0.000000 -0.000000 0.000000
 19 3.759453 -1.898643 -3.541317 0.000000 -0.000000 0.000000
 20 -7.698015 1.934286 15.877945 -0.534337 -0.366004 0.103404
 21 -12.721180 -0.083347 -12.838257 0.350879 -0.485336 0.230535
 22 -9.167519 -10.101494 -11.648907 0.579793 0.809829 1.024413
 23 -3.642086 -2.032094 -4.543644 0.000000 -0.000000 0.000000
 24 -0.409780 2.428936 22.341385 -0.000000 0.000001 -0.976915
 25 -0.380095 -2.887195 20.845375 0.000000 -0.000000 0.000000
 26 -0.040495 -0.674471 8.862854 0.000000 -0.000000 0.000000
time 31
  0 -5.113562 -3.392895 0.796835 0.000000 -0.000000 0.000000
  1 -7.310884 -0.101110 174.348495 0.000000 -0.000000 0.000000
  2 -5.113562 -4.630492 71.531944 0.052360 -0.000000 0.000000
  3 0.325039 1.113430 -5.098999 -0.049384 0.000000 0.000000
  4 6.206746 -0.124160 -11.733650 -0.920509 0.000000 0.000000
  5 2.376919 1.428909 -19.463915 0.874938 -0.000000 -0.000000
  6 1.646507 1.612120 -34.692959 0.066202 0.000001 -0.000000
  7 0.219323 -4.030296 -4.600570 0.000000 -0.000000 0.000000
  8 -6.833118 -0.124160 -11.733650 -0.130122 0.264816 -0.351433
  9 -2.998629 1.160220 -19.583820 0.692681 -0.106537 0.163729
 10 -1.356792 1.880825 -34.573051 -0.269676 0.034719 -0.088285
 11 -0.258572 -4.030295 -4.908823 0.000000 -0.000000 0.000000
 12 0.325039 1.113430 0.809013 -0.026107 0.043388 1.030365
 13 7.054492 1.815097 15.713699 -0.078962 -0.107618 -0.156551
 14 12.909767 -0.165814 -12.867264 -0.071737 -0.018494 0.091199
 15 11.504261 -9.735165 -11.778584 -0.042241 0.027760 -0.466801
 16 -4.990948 -20.855864 -11.972137 0.107342 -0.124349 -0.503130
 17 1.952633 -90.186775 -0.924721 0.000000 -0.000000 0.000000
 18 -35.001945 9.597211 -70.247467 0.000000 -0.000000 0.000000
 19 3.759453 -1.898643 -3.541321 0.000000 -0.000000 0.000000
 20 -7.698014 1.934284 15.877945 -0.544598 -0.378647 0.190833
 21 -12.721186 -0.083347 -12.838249 0.350879 -0.485336 0.230535
 22 -9.167515 -10.101490 -11.648903 0.579793 0.809828 1.024413
 23 -3.642086 -2.032093 -4.543640 0.000000 -0.000000 0.000000
 24 -0.409779 2.428936 22.341393 -0.000000 0.000001 -1.040122
 25 -0.380095 -2.887196 20.845375 0.000000 -0.000000 0.000000
 26 -0.040494 -0.674471 8.862862 0.000000 -0.000000 0.000000
time 32
  0 -5.113562 -3.392895 0.796835 0.000000 -0.000000 0.000000
  1 -7.310884 -0.101110 174.348495 0.000000 -0.000000 0.000000
  2 -5.113562 -4.106446 71.150963 0.052360 -0.000000 0.000000
  3 0.325039 1.113430 -5.098999 -0.049386 0.000000 -0.000000
  4 6.206747 -0.124160 -11.733646 -0.922608 0.000000 0.000000
  5 2.376919 1.428905 -19.463909 0.909874 -0.000000 -0.000000
  6 1.646508 1.612122 -34.692959 0.029424 0.000000 -0.000000
  7 0.219322 -4.030298 -4.600570 0.000000 -0.000000 0.000000
  8 -6.833118 -0.124160 -11.733646 -0.107826 0.273649 -0.346698
  9 -2.998632 1.160220 -19.583820 0.674075 -0.109589 0.159845
 10 -1.356792 1.880821 -34.573044 -0.289876 0.027878 -0.091004
 11 -0.258572 -4.030295 -4.908823 0.000000 -0.000000 0.000000
 12 0.325039 1.113430 0.809013 -0.024475 0.045079 1.073450
 13 7.054491 1.815096 15.713699 -0.049084 -0.063382 -0.091603
 14 12.909769 -0.165817 -12.867271 -0.045456 -0.010892 0.053834
 15 11.504263 -9.735167 -11.778584 -0.071803 0.073085 -0.562313
 16 -4.990944 -20.855856 -11.972137 0.107342 -0.124349 -0.503130
 17 1.952629 -90.186752 -0.924713 0.000000 -0.000000 0.000000
 18 -35.001942 9.597214 -70.247482 0.000000 -0.000000 0.000000
 19 3.759455 -1.898642 -3.541321 0.000000 -0.000000 0.000000
 20 -7.698016 1.934287 15.877953 -0.553222 -0.389103 0.263222
 21 -12.721178 -0.083347 -12.838249 0.350879 -0.485336 0.230535
 22 -9.167515 -10.101498 -11.648899 0.579793 0.809829 1.024413
 23 -3.642086 -2.032094 -4.543640 0.000000 -0.000000 0.000000
 24 -0.409780 2.428936 22.341393 -0.000000 0.000001 -1.093250
 25 -0.380096 -2.887196 20.845383 0.000000 -0.000000 0.000000
 26 -0.040494 -0.674471 8.862854 0.000000 -0.000000 0.000000
time 33
  0 -5.113562 -3.392895 0.796835 0.000000 -0.000000 0.000000
  1 -7.310884 -0.101110 174.348495 0.000000 -0.000000 0.000000
  2 -5.113562 -3.717763 70.862556 0.052360 -0.000000 0.000000
  3 0.325039 1.113430 -5.098999 -0.049388 0.000000 -0.000000
  4 6.206747 -0.124160 -11.733646 -0.924005 0.000000 0.000000
  5 2.376919 1.428909 -19.463921 0.936685 0.000000 -0.000000
  6 1.646507 1.612121 -34.692959 0.001201 0.000000 -0.000000
  7 0.219322 -4.030299 -4.600571 0.000000 -0.000000 0.000000
  8 -6.833118 -0.124160 -11.733650 -0.090715 0.280427 -0.343065
  9 -2.998627 1.160220 -19.583820 0.656822 -0.112466 0.156304
 10 -1.356794 1.880818 -34.573040 -0.305167 0.022688 -0.093060
 11 -0.258572 -4.030294 -4.908825 0.000000 -0.000000 0.000000
 12 0.325039 1.113430 0.809013 -0.023225 0.046358 1.106064
 13 7.054491 1.815096 15.713699 -0.025198 -0.029435 -0.042287
 14 12.909768 -0.165815 -12.867264 -0.024098 -0.005058 0.025115
 15 11.504263 -9.735168 -11.778587 -0.094489 0.107867 -0.635610
 16 -4.990948 -20.855865 -11.972141 0.107342 -0.124349 -0.503130
 17 1.952635 -90.186775 -0.924709 0.000000 -0.000000 0.000000
 18 -35.001949 9.597218 -70.247482 0.000000 -0.000000 0.000000
 19 3.759453 -1.898644 -3.541321 0.000000 -0.000000 0.000000
 20 -7.698016 1.934285 15.877945 -0.559841 -0.397014 0.318051
 21 -12.721182 -0.083347 -12.838249 0.350879 -0.485336 0.230535
 22 -9.167515 -10.101498 -11.648903 0.579793 0.809829 1.024414
 23 -3.642086 -2.032094 -4.543644 0.000000 -0.000000 0.000000
 24 -0.409780 2.428936 22.341393 -0.000000 0.000001 -1.134021
 25 -0.380095 -2.887196 20.845367 0.000000 -0.000000 0.000000
 26 -0.040494 -0.674472 8.862854 0.000000 -0.000000 0.000000
time 34
  0 -5.113562 -3.392895 0.796835 0.000000 -0.000000 0.000000
  1 -7.310884 -0.101110 174.348495 0.000000 -0.000000 0.000000
  2 -5.113562 -3.476046 70.679871 0.052360 -0.000000 0.000000
  3 0.325039 1.113430 -5.098999 -0.049391 0.000000 -0.000000
  4 6.206747 -0.124160 -11.733646 -0.924783 0.000000 0.000000
  5 2.376919 1.428905 -19.463913 0.953870 0.000000 -0.000000
  6 1.646508 1.612118 -34.692955 -0.016890 0.000000 -0.000000
  7 0.219322 -4.030296 -4.600570 0.000000 -0.000000 0.000000
  8 -6.833118 -0.124160 -11.733646 -0.079747 0.284772 -0.340736
  9 -2.998631 1.160220 -19.583824 0.641161 -0.115127 0.153162
 10 -1.356796 1.880820 -34.573048 -0.314852 0.019395 -0.094360
 11 -0.258572 -4.030293 -4.908824 0.000000 -0.000000 0.000000
 12 0.325039 1.113430 0.809013 -0.022426 0.047168 1.126723
 13 7.054493 1.815096 15.713707 -0.008454 -0.007675 -0.010965
 14 12.909771 -0.165816 -12.867271 -0.008625 -0.001319 0.006638
 15 11.504265 -9.735163 -11.778584 -0.109031 0.130162 -0.682593
 16 -4.990953 -20.855862 -11.972141 0.107342 -0.124349 -0.503130
 17 1.952602 -90.186768 -0.924709 0.000000 -0.000000 0.000000
 18 -35.001934 9.597206 -70.247490 0.000000 -0.000000 0.000000
 19 3.759451 -1.898640 -3.541325 0.000000 -0.000000 0.000000
 20 -7.698017 1.934287 15.877953 -0.564084 -0.402023 0.352798
 21 -12.721178 -0.083344 -12.838245 0.350879 -0.485336 0.230535
 22 -9.167511 -10.101496 -11.648907 0.579793 0.809828 1.024413
 23 -3.642086 -2.032095 -4.543640 0.000000 -0.000000 0.000000
 24 -0.409780 2.428936 22.341393 -0.000000 0.000001 -1.160155
 25 -0.380096 -2.887196 20.845367 0.000000 -0.000000 0.000000
 26 -0.040495 -0.674471 8.862854 0.000000 -0.000000 0.000000
time 35
  0 -5.113562 -3.392895 0.796835 0.000000 -0.000000 0.000000
  1 -7.310884 -0.101110 174.348495 0.000000 -0.000000 0.000000
  2 -5.113562 -3.392895 70.616058 0.052360 -0.000000 0.000000
  3 0.325039 1.113430 -5.099007 -0.049394 0.000000 0.000000
  4 6.206747 -0.124160 -11.733646 -0.925025 0.000000 0.000000
  5 2.376919 1.428909 -19.463913 0.959931 -0.000000 -0.000000
  6 1.646507 1.612120 -34.692955 -0.023271 0.000000 -0.000000
  7 0.219322 -4.030295 -4.600570 0.000000 -0.000000 0.000000
  8 -6.833118 -0.124160 -11.733646 -0.075879 0.286305 -0.339914
  9 -2.998632 1.160219 -19.583824 0.627330 -0.117532 0.150476
 10 -1.356798 1.880817 -34.573040 -0.318235 0.018242 -0.094814
 11 -0.258570 -4.030296 -4.908823 0.000000 -0.000000 0.000000
 12 0.325039 1.113430 0.809013 -0.022144 0.047451 1.133940
 13 7.054492 1.815097 15.713707 0.000000 0.000000 0.000000
 14 12.909767 -0.165816 -12.867271 -0.000000 -0.000000 -0.000000
 15 11.504264 -9.735168 -11.778584 -0.114160 0.138026 -0.699164
 16 -4.990941 -20.855860 -11.972137 0.107342 -0.124349 -0.503130
 17 1.952637 -90.186775 -0.924706 0.000000 -0.000000 0.000000
 18 -35.001945 9.597219 -70.247498 0.000000 -0.000000 0.000000
 19 3.759454 -1.898641 -3.541313 0.000000 -0.000000 0.000000
 20 -7.698014 1.934285 15.877953 -0.565580 -0.403772 0.364940
 21 -12.721183 -0.083344 -12.838261 0.350879 -0.485336 0.230535
 22 -9.167521 -10.101498 -11.648907 0.579793 0.809828 1.024413
 23 -3.642086 -2.032094 -4.543640 0.000000 -0.000000 0.000000
 24 -0.409779 2.428936 22.341400 0.000000 0.000001 -1.169373
 25 -0.380096 -2.887196 20.845375 0.000000 -0.000000 0.000000
 26 -0.040494 -0.674471 8.862854 0.000000 -0.000000 0.000000
end
