version 1
nodes
  0 "Tube001"  -1
  1 "Bone009"  -1
  2 "Bone008"   1
  3 "Bone007"   2
  4 "Bone006"   3
  5 "Bone005"   4
  6 "Bone004"   5
  7 "Bone003"   6
  8 "Bone002"   7
  9 "Bone001"   8
 10 "Bone019"   9
 11 "Bone010"   1
 12 "Bone011"  11
 13 "Bone012"  12
 14 "Bone013"  13
 15 "Bone014"  14
 16 "Bone015"  15
 17 "Bone016"  16
 18 "Bone017"  17
 19 "Bone018"  18
end
skeleton
time 0
  0 0.000000 0.000000 0.000000 0.000000 1.570796 0.000000
  1 0.000000 0.000000 0.000000 0.000000 -1.570796 0.000000
  2 0.000000 0.000000 0.000000 0.000000 0.000000 0.000000
  3 0.000000 0.000000 0.000000 0.000000 0.000000 0.000000
  4 0.000000 0.000000 0.000000 0.000000 0.000000 0.000000
  5 0.000000 0.000000 0.000000 0.000000 0.000000 0.000000
  6 0.000000 0.000000 0.000000 0.000000 0.000000 0.000000
  7 0.000000 0.000000 0.000000 0.000000 0.000000 0.000000
  8 0.000000 0.000000 0.000000 0.000000 0.000000 0.000000
  9 0.000000 0.000000 0.000000 0.000000 0.000000 0.000000
 10 0.000000 0.000000 0.000000 0.000000 0.000000 0.000000
 11 0.000000 0.000000 0.000000 0.000000 0.000000 0.000000
 12 0.000000 0.000000 0.000000 0.000000 -0.000000 0.000000
 13 0.000000 0.000000 0.000000 0.000000 -0.000000 0.000000
 14 0.000000 0.000000 0.000000 0.000000 -0.000000 0.000000
 15 0.000000 0.000000 0.000000 0.000000 -0.000000 0.000000
 16 0.000000 0.000000 0.000000 0.000000 0.000000 0.000001
 17 0.000000 0.000000 0.000000 0.000000 0.000000 0.000000
 18 0.000000 0.000000 0.000000 0.000000 0.000000 0.000001
 19 0.000000 0.000000 0.000000 0.000000 0.000000 0.000001
end
triangles
yuyuko_Fan.tga
  0 -0.000003 -0.017525 11.038361 1.000000 -0.000041 0.000000 0.722656 0.003906 3 17 0.000000 18 0.000000 19 1.000000
  0 -0.000009 -0.000013 29.155251 -0.988245 -0.152881 0.000145 0.964844 0.437500 1 18 1.000000
  0 -0.000009 -0.000013 29.155247 -0.114422 -0.993432 0.000960 0.980469 0.375000 1 19 1.000000
yuyuko_Fan.tga
  0 -0.000009 -0.000013 29.155251 -0.988245 -0.152881 0.000145 0.964844 0.437500 1 18 1.000000
  0 -0.000003 -0.017525 11.038361 1.000000 -0.000041 0.000000 0.722656 0.003906 3 17 0.000000 18 0.000000 19 1.000000
  0 -0.000003 -0.017259 11.035319 1.000000 -0.000134 0.000000 0.710938 0.027344 4 16 0.000000 17 0.000000 18 1.000000 19 0.000000
yuyuko_Fan.tga
  0 -0.000003 -0.017259 11.035319 1.000000 -0.000134 0.000000 0.710938 0.027344 4 16 0.000000 17 0.000000 18 1.000000 19 0.000000
  0 -0.000009 -0.000015 29.155254 -0.942409 -0.334463 0.000310 0.937500 0.507813 1 17 1.000000
  0 -0.000009 -0.000013 29.155251 -0.988245 -0.152881 0.000145 0.964844 0.437500 1 18 1.000000
yuyuko_Fan.tga
  0 -0.000009 -0.000015 29.155254 -0.942409 -0.334463 0.000310 0.937500 0.507813 1 17 1.000000
  0 -0.000003 -0.017259 11.035319 1.000000 -0.000134 0.000000 0.710938 0.027344 4 16 0.000000 17 0.000000 18 1.000000 19 0.000000
  0 -0.000003 -0.016469 11.032370 1.000000 -0.000271 0.000001 0.699219 0.054688 5 15 0.000000 16 0.000000 17 1.000000 18 0.000000 19 0.000000
yuyuko_Fan.tga
  0 -0.000003 -0.016469 11.032370 1.000000 -0.000271 0.000001 0.699219 0.054688 5 15 0.000000 16 0.000000 17 1.000000 18 0.000000 19 0.000000
  0 -0.000008 -0.000015 29.155249 0.325022 -0.945706 0.000854 0.890625 0.605469 1 16 1.000000
  0 -0.000009 -0.000015 29.155254 -0.942409 -0.334463 0.000310 0.937500 0.507813 1 17 1.000000
yuyuko_Fan.tga
  0 -0.000008 -0.000015 29.155249 0.325022 -0.945706 0.000854 0.890625 0.605469 1 16 1.000000
  0 -0.000003 -0.016469 11.032370 1.000000 -0.000271 0.000001 0.699219 0.054688 5 15 0.000000 16 0.000000 17 1.000000 18 0.000000 19 0.000000
  0 -0.000003 -0.015178 11.029602 1.000000 -0.000187 0.000000 0.687500 0.082031 5 14 0.000000 15 0.000000 16 1.000000 17 0.000000 18 0.000000
yuyuko_Fan.tga
  0 -0.000003 -0.015178 11.029602 1.000000 -0.000187 0.000000 0.687500 0.082031 5 14 0.000000 15 0.000000 16 1.000000 17 0.000000 18 0.000000
  0 -0.000008 -0.000011 29.155247 0.975445 -0.220242 0.000174 0.839844 0.699219 1 15 1.000000
  0 -0.000008 -0.000015 29.155249 0.325022 -0.945706 0.000854 0.890625 0.605469 1 16 1.000000
yuyuko_Fan.tga
  0 -0.000008 -0.000011 29.155247 0.975445 -0.220242 0.000174 0.839844 0.699219 1 15 1.000000
  0 -0.000003 -0.015178 11.029602 1.000000 -0.000187 0.000000 0.687500 0.082031 5 14 0.000000 15 0.000000 16 1.000000 17 0.000000 18 0.000000
  0 -0.000003 -0.013424 11.027099 1.000000 -0.000220 0.000000 0.664063 0.113281 5 13 0.000000 14 0.000000 15 1.000000 16 0.000000 17 0.000000
yuyuko_Fan.tga
  0 -0.000003 -0.013424 11.027099 1.000000 -0.000220 0.000000 0.664063 0.113281 5 13 0.000000 14 0.000000 15 1.000000 16 0.000000 17 0.000000
  0 -0.000007 -0.000008 29.155247 0.921525 -0.388319 0.000256 0.785156 0.777344 1 14 1.000000
  0 -0.000008 -0.000011 29.155247 0.975445 -0.220242 0.000174 0.839844 0.699219 1 15 1.000000
yuyuko_Fan.tga
  0 -0.000007 -0.000008 29.155247 0.921525 -0.388319 0.000256 0.785156 0.777344 1 14 1.000000
  0 -0.000003 -0.013424 11.027099 1.000000 -0.000220 0.000000 0.664063 0.113281 5 13 0.000000 14 0.000000 15 1.000000 16 0.000000 17 0.000000
  0 -0.000002 -0.011265 11.024940 1.000000 -0.000259 0.000000 0.636719 0.144531 5 12 0.000000 13 0.000000 14 1.000000 15 0.000000 16 0.000000
yuyuko_Fan.tga
  0 -0.000002 -0.011265 11.024940 1.000000 -0.000259 0.000000 0.636719 0.144531 5 12 0.000000 13 0.000000 14 1.000000 15 0.000000 16 0.000000
  0 -0.000005 -0.000006 29.155247 0.883884 -0.467706 0.000262 0.722656 0.859375 1 13 1.000000
  0 -0.000007 -0.000008 29.155247 0.921525 -0.388319 0.000256 0.785156 0.777344 1 14 1.000000
yuyuko_Fan.tga
  0 -0.000005 -0.000006 29.155247 0.883884 -0.467706 0.000262 0.722656 0.859375 1 13 1.000000
  0 -0.000002 -0.011265 11.024940 1.000000 -0.000259 0.000000 0.636719 0.144531 5 12 0.000000 13 0.000000 14 1.000000 15 0.000000 16 0.000000
  0 -0.000002 -0.008762 11.023189 1.000000 -0.000177 0.000000 0.609375 0.164063 5 11 0.000000 12 0.000000 13 1.000000 14 0.000000 15 0.000000
yuyuko_Fan.tga
  0 -0.000002 -0.008762 11.023189 1.000000 -0.000177 0.000000 0.609375 0.164063 5 11 0.000000 12 0.000000 13 1.000000 14 0.000000 15 0.000000
  0 -0.000004 -0.000003 29.155247 0.412142 -0.911119 0.000330 0.664063 0.914063 1 12 1.000000
  0 -0.000005 -0.000006 29.155247 0.883884 -0.467706 0.000262 0.722656 0.859375 1 13 1.000000
yuyuko_Fan.tga
  0 -0.000004 -0.000003 29.155247 0.412142 -0.911119 0.000330 0.664063 0.914063 1 12 1.000000
  0 -0.000002 -0.008762 11.023189 1.000000 -0.000177 0.000000 0.609375 0.164063 5 11 0.000000 12 0.000000 13 1.000000 14 0.000000 15 0.000000
  0 -0.000002 -0.005993 11.021897 1.000000 -0.000179 0.000000 0.574219 0.191406 5 1 0.000000 11 0.000000 12 1.000000 13 0.000000 14 0.000000
yuyuko_Fan.tga
  0 -0.000002 -0.005993 11.021897 1.000000 -0.000179 0.000000 0.574219 0.191406 5 1 0.000000 11 0.000000 12 1.000000 13 0.000000 14 0.000000
  0 -0.000003 -0.000003 29.155249 0.529519 -0.848298 0.000217 0.585938 0.960938 1 11 1.000000
  0 -0.000004 -0.000003 29.155247 0.412142 -0.911119 0.000330 0.664063 0.914063 1 12 1.000000
yuyuko_Fan.tga
  0 -0.000003 -0.000003 29.155249 0.529519 -0.848298 0.000217 0.585938 0.960938 1 11 1.000000
  0 -0.000002 -0.005993 11.021897 1.000000 -0.000179 0.000000 0.574219 0.191406 5 1 0.000000 11 0.000000 12 1.000000 13 0.000000 14 0.000000
  0 -0.000001 -0.003043 11.021108 1.000000 -0.000182 0.000000 0.535156 0.210938 5 1 0.000000 2 0.000000 11 1.000000 12 0.000000 13 0.000000
yuyuko_Fan.tga
  0 -0.000001 -0.003043 11.021108 1.000000 -0.000182 0.000000 0.535156 0.210938 5 1 0.000000 2 0.000000 11 1.000000 12 0.000000 13 0.000000
  0 -0.000001 -0.000001 29.155247 0.786652 -0.617397 0.000046 0.496094 0.972656 1 1 1.000000
  0 -0.000003 -0.000003 29.155249 0.529519 -0.848298 0.000217 0.585938 0.960938 1 11 1.000000
yuyuko_Fan.tga
  0 -0.000001 -0.000001 29.155247 0.786652 -0.617397 0.000046 0.496094 0.972656 1 1 1.000000
  0 -0.000001 -0.003043 11.021108 1.000000 -0.000182 0.000000 0.535156 0.210938 5 1 0.000000 2 0.000000 11 1.000000 12 0.000000 13 0.000000
  0 -0.000000 -0.000000 11.020842 1.000000 -0.000185 0.000000 0.496094 0.218750 5 1 1.000000 2 0.000000 3 0.000000 11 0.000000 12 0.000000
yuyuko_Fan.tga
  0 -0.000000 -0.000000 11.020842 1.000000 -0.000185 0.000000 0.496094 0.218750 5 1 1.000000 2 0.000000 3 0.000000 11 0.000000 12 0.000000
  0 0.000000 0.000001 29.155251 0.346208 -0.938158 -0.000109 0.410156 0.960938 1 2 1.000000
  0 -0.000001 -0.000001 29.155247 0.786652 -0.617397 0.000046 0.496094 0.972656 1 1 1.000000
yuyuko_Fan.tga
  0 0.000000 0.000001 29.155251 0.346208 -0.938158 -0.000109 0.410156 0.960938 1 2 1.000000
  0 -0.000000 -0.000000 11.020842 1.000000 -0.000185 0.000000 0.496094 0.218750 5 1 1.000000 2 0.000000 3 0.000000 11 0.000000 12 0.000000
  0 0.000000 0.003043 11.021109 1.000000 -0.000217 -0.000000 0.457031 0.210938 5 1 0.000000 2 1.000000 3 0.000000 4 0.000000 11 0.000000
yuyuko_Fan.tga
  0 0.000000 0.003043 11.021109 1.000000 -0.000217 -0.000000 0.457031 0.210938 5 1 0.000000 2 1.000000 3 0.000000 4 0.000000 11 0.000000
  0 0.000002 0.000001 29.155249 0.332898 -0.942963 -0.000205 0.328125 0.914063 1 3 1.000000
  0 0.000000 0.000001 29.155251 0.346208 -0.938158 -0.000109 0.410156 0.960938 1 2 1.000000
yuyuko_Fan.tga
  0 0.000002 0.000001 29.155249 0.332898 -0.942963 -0.000205 0.328125 0.914063 1 3 1.000000
  0 0.000000 0.003043 11.021109 1.000000 -0.000217 -0.000000 0.457031 0.210938 5 1 0.000000 2 1.000000 3 0.000000 4 0.000000 11 0.000000
  0 0.000001 0.005993 11.021898 1.000000 -0.000286 -0.000000 0.417969 0.191406 5 1 0.000000 2 0.000000 3 1.000000 4 0.000000 5 0.000000
yuyuko_Fan.tga
  0 0.000001 0.005993 11.021898 1.000000 -0.000286 -0.000000 0.417969 0.191406 5 1 0.000000 2 0.000000 3 1.000000 4 0.000000 5 0.000000
  0 0.000005 0.000004 29.155249 0.640424 -0.768022 -0.000328 0.265625 0.859375 1 4 1.000000
  0 0.000002 0.000001 29.155249 0.332898 -0.942963 -0.000205 0.328125 0.914063 1 3 1.000000
yuyuko_Fan.tga
  0 0.000005 0.000004 29.155249 0.640424 -0.768022 -0.000328 0.265625 0.859375 1 4 1.000000
  0 0.000001 0.005993 11.021898 1.000000 -0.000286 -0.000000 0.417969 0.191406 5 1 0.000000 2 0.000000 3 1.000000 4 0.000000 5 0.000000
  0 0.000002 0.008762 11.023190 1.000000 -0.000374 -0.000000 0.382813 0.164063 5 2 0.000000 3 0.000000 4 1.000000 5 0.000000 6 0.000000
yuyuko_Fan.tga
  0 0.000002 0.008762 11.023190 1.000000 -0.000374 -0.000000 0.382813 0.164063 5 2 0.000000 3 0.000000 4 1.000000 5 0.000000 6 0.000000
  0 0.000008 0.000006 29.155251 0.502537 -0.864555 -0.000500 0.207031 0.777344 1 5 1.000000
  0 0.000005 0.000004 29.155249 0.640424 -0.768022 -0.000328 0.265625 0.859375 1 4 1.000000
yuyuko_Fan.tga
  0 0.000008 0.000006 29.155251 0.502537 -0.864555 -0.000500 0.207031 0.777344 1 5 1.000000
  0 0.000002 0.008762 11.023190 1.000000 -0.000374 -0.000000 0.382813 0.164063 5 2 0.000000 3 0.000000 4 1.000000 5 0.000000 6 0.000000
  0 0.000003 0.011263 11.024941 1.000000 -0.000633 -0.000001 0.355469 0.144531 5 3 0.000000 4 0.000000 5 1.000000 6 0.000000 7 0.000000
yuyuko_Fan.tga
  0 0.000003 0.011263 11.024941 1.000000 -0.000633 -0.000001 0.355469 0.144531 5 3 0.000000 4 0.000000 5 1.000000 6 0.000000 7 0.000000
  0 0.000011 0.000008 29.155254 0.461023 -0.887388 -0.000606 0.156250 0.699219 1 6 1.000000
  0 0.000008 0.000006 29.155251 0.502537 -0.864555 -0.000500 0.207031 0.777344 1 5 1.000000
yuyuko_Fan.tga
  0 0.000011 0.000008 29.155254 0.461023 -0.887388 -0.000606 0.156250 0.699219 1 6 1.000000
  0 0.000003 0.011263 11.024941 1.000000 -0.000633 -0.000001 0.355469 0.144531 5 3 0.000000 4 0.000000 5 1.000000 6 0.000000 7 0.000000
  0 0.000004 0.013424 11.027102 1.000000 -0.000652 -0.000001 0.328125 0.113281 5 4 0.000000 5 0.000000 6 1.000000 7 0.000000 8 0.000000
yuyuko_Fan.tga
  0 0.000004 0.013424 11.027102 1.000000 -0.000652 -0.000001 0.328125 0.113281 5 4 0.000000 5 0.000000 6 1.000000 7 0.000000 8 0.000000
  0 0.000015 0.000010 29.155251 0.105325 -0.994438 -0.000776 0.105469 0.605469 1 7 1.000000
  0 0.000011 0.000008 29.155254 0.461023 -0.887388 -0.000606 0.156250 0.699219 1 6 1.000000
yuyuko_Fan.tga
  0 0.000015 0.000010 29.155251 0.105325 -0.994438 -0.000776 0.105469 0.605469 1 7 1.000000
  0 0.000004 0.013424 11.027102 1.000000 -0.000652 -0.000001 0.328125 0.113281 5 4 0.000000 5 0.000000 6 1.000000 7 0.000000 8 0.000000
  0 0.000006 0.015177 11.029604 1.000000 -0.000903 -0.000001 0.304688 0.082031 5 5 0.000000 6 0.000000 7 1.000000 8 0.000000 9 0.000000
yuyuko_Fan.tga
  0 0.000006 0.015177 11.029604 1.000000 -0.000903 -0.000001 0.304688 0.082031 5 5 0.000000 6 0.000000 7 1.000000 8 0.000000 9 0.000000
  0 0.000019 0.000008 29.155251 -0.169074 -0.985603 -0.000868 0.054688 0.500000 1 8 1.000000
  0 0.000015 0.000010 29.155251 0.105325 -0.994438 -0.000776 0.105469 0.605469 1 7 1.000000
yuyuko_Fan.tga
  0 0.000019 0.000008 29.155251 -0.169074 -0.985603 -0.000868 0.054688 0.500000 1 8 1.000000
  0 0.000006 0.015177 11.029604 1.000000 -0.000903 -0.000001 0.304688 0.082031 5 5 0.000000 6 0.000000 7 1.000000 8 0.000000 9 0.000000
  0 0.000007 0.016467 11.032372 0.999999 -0.001348 -0.000002 0.285156 0.046875 4 6 0.000000 7 0.000000 8 1.000000 9 0.000000
yuyuko_Fan.tga
  0 0.000007 0.016467 11.032372 0.999999 -0.001348 -0.000002 0.285156 0.046875 4 6 0.000000 7 0.000000 8 1.000000 9 0.000000
  0 0.000024 0.000008 29.155254 0.174320 -0.984689 -0.000917 0.027344 0.425781 1 9 1.000000
  0 0.000019 0.000008 29.155251 -0.169074 -0.985603 -0.000868 0.054688 0.500000 1 8 1.000000
yuyuko_Fan.tga
  0 0.000024 0.000008 29.155254 0.174320 -0.984689 -0.000917 0.027344 0.425781 1 9 1.000000
  0 0.000007 0.016467 11.032372 0.999999 -0.001348 -0.000002 0.285156 0.046875 4 6 0.000000 7 0.000000 8 1.000000 9 0.000000
  0 0.000009 0.017257 11.035322 0.999997 -0.002395 -0.000003 0.273438 0.023438 3 7 0.000000 8 0.000000 9 1.000000
yuyuko_Fan.tga
  0 0.000009 0.017257 11.035322 0.999997 -0.002395 -0.000003 0.273438 0.023438 3 7 0.000000 8 0.000000 9 1.000000
  0 0.000030 0.000010 29.155251 0.324645 -0.945836 -0.000901 0.011719 0.371094 1 10 1.000000
  0 0.000024 0.000008 29.155254 0.174320 -0.984689 -0.000917 0.027344 0.425781 1 9 1.000000
yuyuko_Fan.tga
  0 0.000030 0.000010 29.155251 0.324645 -0.945836 -0.000901 0.011719 0.371094 1 10 1.000000
  0 0.000009 0.017257 11.035322 0.999997 -0.002395 -0.000003 0.273438 0.023438 3 7 0.000000 8 0.000000 9 1.000000
  0 0.000011 0.017523 11.038363 0.999970 -0.007776 -0.000009 0.261719 0.003906 3 8 0.000000 9 0.000000 10 1.000000
end
