version 1
nodes
  0 "Bone29"  -1
  1 "Bone28"  -1
  2 "Bone27"  -1
  3 "Bone26"  -1
  4 "Bone24"  -1
  5 "Bone01"   4
  6 "Bone02"   5
  7 "Bone03"   6
  8 "Bone04"   4
  9 "Bone05"   8
 10 "Bone06"   9
 11 "Bone17"   4
 12 "Bone07"  11
 13 "Bone08"  12
 14 "Bone09"  13
 15 "Bone10"  14
 16 "Bone11"  15
 17 "Bone12"  14
 18 "Bone13"  11
 19 "Bone14"  18
 20 "Bone15"  19
 21 "Bone16"  20
 22 "Bone21"  11
 23 "Bone18"  22
 24 "Bone19"  23
 25 "Bone20"  22
 26 "Bone22"  22
 27 "Bone23"  22
 28 "Bone25"  11
 29 "outskirt_r"   4
 30 "outskirt_f"   4
 31 "outskirt_l"   4
 32 "outskirt_b"   4
 33 "skirt_l"   4
 34 "skirt_r"   4
 35 "skirt_b"   4
end
skeleton
time 0
  0 0.768169 -0.850492 1.544617 0.000000 -0.000000 0.000000
  1 0.768169 -0.850492 1.544617 0.000000 -0.000000 0.000000
  2 0.984829 -7.246327 246.548599 0.000000 -0.000000 0.000000
  3 0.998367 -3.471023 1.599335 0.000000 -0.000000 0.000000
  4 0.998364 -3.471023 134.780151 -0.107463 -0.008506 -0.064715
  5 -11.802616 0.277824 -45.319946 0.607630 0.001296 -0.009903
  6 -0.797637 4.276005 -49.223637 0.396968 0.012222 -0.211580
  7 -0.000011 -0.000004 -7.282917 0.000000 -0.000000 0.000000
  8 11.803267 0.236668 -45.319946 0.330295 -0.000890 0.005339
  9 0.812341 4.273239 -49.223564 0.464045 -0.078406 0.268104
 10 0.000004 0.000008 -7.282925 0.000000 -0.000000 0.000000
 11 -0.008946 0.029730 10.838699 0.000000 -0.000000 0.294300
 12 -16.431311 3.246382 32.898788 0.079474 -0.086573 -0.348582
 13 -12.321600 -2.201924 -17.125488 -0.054940 -0.002577 0.040016
 14 -13.252193 -2.413307 -18.422241 0.000000 -0.000000 0.000000
 15 -3.868652 -0.832966 -6.257858 0.000000 -0.000000 0.000000
 16 -37.279182 -5.051155 -38.191154 0.000000 -0.000000 0.000000
 17 -3.806093 -1.056421 -7.595871 0.000000 -0.000000 0.000000
 18 16.442678 3.189070 32.898758 0.074641 0.122041 -0.269503
 19 12.313789 -2.244882 -17.125641 0.000000 -0.000000 0.000000
 20 13.243645 -2.459518 -18.422241 0.014671 -0.002577 -0.020361
 21 4.038897 -0.928110 -8.488220 0.000000 -0.000000 0.000000
 22 -0.000699 -0.454958 46.067261 -0.000360 -0.013454 -0.244830
 23 -0.489963 22.757845 18.762009 0.000000 -0.000000 0.000000
 24 0.260394 -19.713402 -182.090958 0.000000 -0.000000 0.000000
 25 -16.518961 9.856457 11.602509 0.000000 -0.000000 0.000000
 26 12.687092 8.730803 11.181015 0.000000 -0.000000 0.000000
 27 -0.009701 -4.696531 26.700012 0.000000 -0.000000 0.000000
 28 -0.000041 -0.005974 23.601578 0.000000 -0.000000 0.000000
 29 -21.531242 -10.281178 -6.106499 0.000000 0.000000 -0.000000
 30 6.667686 -19.285313 -6.979942 -0.209009 -0.013525 0.001735
 31 21.613552 5.850679 -6.561745 0.000000 0.000000 0.000000
 32 -0.490764 19.244427 -5.608505 0.000000 -0.000000 0.000000
 33 12.172536 -7.748501 -10.307091 0.000000 0.000000 0.000000
 34 -12.668404 -7.748503 -10.702644 0.000000 -0.000000 0.000000
 35 -0.490772 14.424883 -10.375053 0.000000 0.000000 -0.000000
time 1
  0 0.768169 -0.850492 1.544617 0.000000 -0.000000 0.000000
  1 0.768169 -0.850492 1.544617 0.000000 -0.000000 0.000000
  2 0.984829 -7.246327 246.548599 0.000000 -0.000000 0.000000
  3 0.998367 -3.471023 1.599335 0.000000 -0.000000 0.000000
  4 0.998364 -3.471023 134.882156 -0.108998 -0.008655 -0.065438
  5 -11.802616 0.277822 -45.319962 0.612600 0.001331 -0.009974
  6 -0.797635 4.276012 -49.223637 0.399216 0.012259 -0.213085
  7 -0.000013 -0.000008 -7.282915 0.000000 -0.000000 0.000000
  8 11.803265 0.236666 -45.319954 0.332805 -0.000981 0.005363
  9 0.812339 4.273237 -49.223576 0.467945 -0.079385 0.270692
 10 0.000004 0.000008 -7.282919 0.000000 -0.000000 0.000000
 11 -0.009017 0.029711 10.838699 0.000000 -0.000000 0.296736
 12 -16.431307 3.246382 32.898773 0.080167 -0.087004 -0.351132
 13 -12.321595 -2.201924 -17.125488 -0.055334 -0.002587 0.040267
 14 -13.252193 -2.413309 -18.422241 0.000000 -0.000000 0.000000
 15 -3.868649 -0.832966 -6.257843 0.000000 -0.000000 0.000000
 16 -37.279179 -5.051151 -38.191177 0.000000 -0.000000 0.000000
 17 -3.806089 -1.056419 -7.595871 0.000000 -0.000000 0.000000
 18 16.442675 3.189071 32.898758 0.075120 0.122643 -0.271316
 19 12.313791 -2.244884 -17.125641 0.000000 -0.000000 0.000000
 20 13.243649 -2.459519 -18.422241 0.014671 -0.002577 -0.020361
 21 4.038900 -0.928110 -8.488220 0.000000 -0.000000 0.000000
 22 -0.000699 -0.454958 46.067261 0.000469 -0.013167 -0.246125
 23 -0.489963 22.757849 18.761978 0.000000 -0.000000 0.000000
 24 0.260391 -19.713400 -182.090958 0.000000 -0.000000 0.000000
 25 -16.518955 9.856461 11.602509 0.000000 -0.000000 0.000000
 26 12.687093 8.730806 11.181000 0.000000 -0.000000 0.000000
 27 -0.009701 -4.696533 26.699997 0.000000 -0.000000 0.000000
 28 -0.000041 -0.005976 23.601593 0.000000 -0.000000 0.000000
 29 -21.531240 -10.281183 -6.106499 0.000000 0.000000 -0.000000
 30 6.667685 -19.285318 -6.979965 -0.209009 -0.013525 0.001735
 31 21.613546 5.850679 -6.561745 -0.000000 0.000000 0.000000
 32 -0.490764 19.244429 -5.608505 0.000000 -0.000000 0.000000
 33 12.172533 -7.748499 -10.307106 0.000000 0.000000 -0.000000
 34 -12.668402 -7.748505 -10.702652 -0.000000 0.000000 -0.000000
 35 -0.490773 14.424886 -10.375061 0.000000 0.000000 0.000000
time 2
  0 0.768169 -0.850492 1.544617 0.000000 -0.000000 0.000000
  1 0.768169 -0.850492 1.544617 0.000000 -0.000000 0.000000
  2 0.984829 -7.246327 246.548599 0.000000 -0.000000 0.000000
  3 0.998367 -3.471023 1.599335 0.000000 -0.000000 0.000000
  4 0.998364 -3.471023 135.019684 -0.111144 -0.008869 -0.066502
  5 -11.802616 0.277828 -45.319962 0.622365 0.001403 -0.010113
  6 -0.797638 4.276009 -49.223625 0.403535 0.012390 -0.215821
  7 -0.000013 -0.000011 -7.282915 0.000000 -0.000000 0.000000
  8 11.803267 0.236668 -45.319954 0.337128 -0.001115 0.005407
  9 0.812340 4.273241 -49.223560 0.475067 -0.081129 0.275094
 10 0.000006 0.000008 -7.282927 0.000000 -0.000000 0.000000
 11 -0.009146 0.029675 10.838684 0.000000 -0.000000 0.301077
 12 -16.431313 3.246382 32.898788 0.080987 -0.088357 -0.355560
 13 -12.321596 -2.201922 -17.125473 -0.056168 -0.002607 0.040826
 14 -13.252192 -2.413307 -18.422241 0.000000 -0.000000 0.000000
 15 -3.868649 -0.832966 -6.257843 0.000000 -0.000000 0.000000
 16 -37.279175 -5.051151 -38.191162 0.000000 -0.000000 0.000000
 17 -3.806091 -1.056419 -7.595856 0.000000 -0.000000 0.000000
 18 16.442673 3.189066 32.898773 0.075991 0.124271 -0.274467
 19 12.313789 -2.244883 -17.125641 0.000000 -0.000000 0.000000
 20 13.243643 -2.459518 -18.422241 0.014671 -0.002577 -0.020361
 21 4.038902 -0.928110 -8.488220 0.000000 -0.000000 0.000000
 22 -0.000700 -0.454960 46.067261 0.001817 -0.012530 -0.248301
 23 -0.489966 22.757839 18.761978 0.000000 -0.000000 0.000000
 24 0.260398 -19.713388 -182.090942 0.000000 -0.000000 0.000000
 25 -16.518959 9.856460 11.602493 0.000000 -0.000000 0.000000
 26 12.687088 8.730801 11.180969 0.000000 -0.000000 0.000000
 27 -0.009701 -4.696535 26.699997 0.000000 -0.000000 0.000000
 28 -0.000042 -0.005976 23.601593 0.000000 -0.000000 0.000000
 29 -21.531239 -10.281176 -6.106499 0.000000 0.000000 0.000000
 30 6.667687 -19.285313 -6.979965 -0.209009 -0.013525 0.001735
 31 21.613552 5.850677 -6.561745 -0.000000 0.000000 0.000000
 32 -0.490766 19.244425 -5.608505 0.000000 -0.000000 0.000000
 33 12.172536 -7.748501 -10.307098 0.000000 0.000000 0.000000
 34 -12.668405 -7.748501 -10.702652 -0.000000 -0.000000 0.000000
 35 -0.490774 14.424884 -10.375053 0.000000 0.000000 0.000000
time 3
  0 0.768169 -0.850492 1.544617 0.000000 -0.000000 0.000000
  1 0.768169 -0.850492 1.544617 0.000000 -0.000000 0.000000
  2 0.984829 -7.246327 246.548599 0.000000 -0.000000 0.000000
  3 0.998367 -3.471023 1.599335 0.000000 -0.000000 0.000000
  4 0.998363 -3.471023 135.010651 -0.111482 -0.008917 -0.066804
  5 -11.802616 0.277822 -45.319954 0.631465 0.001473 -0.010245
  6 -0.797637 4.276005 -49.223640 0.407369 0.012619 -0.217942
  7 -0.000011 -0.000008 -7.282914 0.000000 -0.000000 0.000000
  8 11.803267 0.236666 -45.319954 0.339975 -0.001154 0.005445
  9 0.812340 4.273238 -49.223576 0.480660 -0.082407 0.277872
 10 0.000006 0.000004 -7.282927 0.000000 -0.000000 0.000000
 11 -0.009241 0.029646 10.838699 -0.000082 0.000002 0.304256
 12 -16.431307 3.246382 32.898773 0.081975 -0.090516 -0.358561
 13 -12.321596 -2.201922 -17.125473 -0.057058 -0.002623 0.041472
 14 -13.252186 -2.413303 -18.422241 0.000000 -0.000011 -0.000000
 15 -3.868650 -0.832966 -6.257858 0.000000 -0.000000 0.000000
 16 -37.279167 -5.051144 -38.191162 0.000000 -0.000000 0.000000
 17 -3.806091 -1.056419 -7.595871 0.000000 -0.000000 0.000000
 18 16.442671 3.189069 32.898773 0.077441 0.126944 -0.276608
 19 12.313786 -2.244884 -17.125656 0.000000 -0.000000 0.000000
 20 13.243649 -2.459519 -18.422241 0.014671 -0.002577 -0.020361
 21 4.038897 -0.928110 -8.488220 0.000000 -0.000000 0.000000
 22 -0.000701 -0.454962 46.067261 0.004872 -0.011074 -0.249639
 23 -0.489965 22.757841 18.761993 0.000000 -0.000000 0.000000
 24 0.260397 -19.713390 -182.090958 0.000000 -0.000000 0.000000
 25 -16.518953 9.856459 11.602509 0.000000 -0.000000 0.000000
 26 12.687086 8.730802 11.180984 0.000000 -0.000000 0.000000
 27 -0.009701 -4.696535 26.699997 0.000000 -0.000000 0.000000
 28 -0.000042 -0.005976 23.601608 0.000000 -0.000000 0.000000
 29 -21.531237 -10.281178 -6.106499 0.000000 0.000000 -0.000000
 30 6.667687 -19.285315 -6.979950 -0.209009 -0.013525 0.001735
 31 21.613546 5.850676 -6.561737 0.000000 0.000000 0.000000
 32 -0.490766 19.244425 -5.608505 0.000000 -0.000000 0.000000
 33 12.172535 -7.748499 -10.307098 0.000000 0.000000 0.000000
 34 -12.668400 -7.748503 -10.702660 -0.000000 -0.000000 0.000000
 35 -0.490773 14.424882 -10.375061 0.000000 0.000000 -0.000000
time 4
  0 0.768169 -0.850492 1.544617 0.000000 -0.000000 0.000000
  1 0.768169 -0.850492 1.544617 0.000000 -0.000000 0.000000
  2 0.984829 -7.246327 246.548599 0.000000 -0.000000 0.000000
  3 0.998367 -3.471023 1.599335 0.000000 -0.000000 0.000000
  4 0.998363 -3.471023 134.925735 -0.111601 -0.008947 -0.067005
  5 -11.802617 0.277826 -45.319954 0.641815 0.001555 -0.010396
  6 -0.797635 4.276005 -49.223640 0.411691 0.012897 -0.220268
  7 -0.000011 0.000000 -7.282915 0.000000 -0.000000 0.000000
  8 11.803269 0.236670 -45.319962 0.342971 -0.001181 0.005487
  9 0.812339 4.273239 -49.223579 0.486807 -0.083790 0.280760
 10 0.000006 0.000004 -7.282928 0.000000 -0.000000 0.000000
 11 -0.009342 0.029615 10.838684 -0.000443 0.000010 0.307693
 12 -16.431313 3.246384 32.898758 0.083137 -0.092928 -0.361745
 13 -12.321598 -2.201922 -17.125488 -0.058076 -0.002641 0.042223
 14 -13.252195 -2.413307 -18.422241 -0.000000 -0.000062 0.000000
 15 -3.868652 -0.832966 -6.257843 0.000000 -0.000000 0.000000
 16 -37.279179 -5.051147 -38.191177 0.000000 -0.000000 0.000000
 17 -3.806095 -1.056419 -7.595871 0.000000 -0.000000 0.000000
 18 16.442675 3.189066 32.898758 0.079085 0.129938 -0.278879
 19 12.313790 -2.244884 -17.125656 0.000000 -0.000000 0.000000
 20 13.243654 -2.459519 -18.422226 0.014671 -0.002577 -0.020361
 21 4.038904 -0.928110 -8.488235 0.000000 -0.000000 0.000000
 22 -0.000701 -0.454960 46.067245 0.009380 -0.008504 -0.251020
 23 -0.489965 22.757839 18.761978 0.000000 -0.000000 0.000000
 24 0.260398 -19.713387 -182.091003 0.000000 -0.000000 0.000000
 25 -16.518957 9.856458 11.602478 0.000000 -0.000000 0.000000
 26 12.687088 8.730802 11.180969 0.000000 -0.000000 0.000000
 27 -0.009701 -4.696535 26.699997 0.000000 -0.000000 0.000000
 28 -0.000042 -0.005976 23.601578 0.000000 -0.000000 0.000000
 29 -21.531242 -10.281178 -6.106499 0.000000 0.000000 -0.000000
 30 6.667687 -19.285313 -6.979958 -0.209009 -0.013525 0.001735
 31 21.613550 5.850677 -6.561745 -0.000000 0.000000 0.000000
 32 -0.490765 19.244427 -5.608505 0.000000 -0.000000 0.000000
 33 12.172538 -7.748501 -10.307098 0.000000 0.000000 0.000000
 34 -12.668404 -7.748501 -10.702660 -0.000000 0.000000 -0.000000
 35 -0.490773 14.424884 -10.375069 0.000000 0.000000 0.000000
time 5
  0 0.768169 -0.850492 1.544617 0.000000 -0.000000 0.000000
  1 0.768169 -0.850492 1.544617 0.000000 -0.000000 0.000000
  2 0.984829 -7.246327 246.548599 0.000000 -0.000000 0.000000
  3 0.998367 -3.471023 1.599335 0.000000 -0.000000 0.000000
  4 0.998363 -3.471023 134.786575 -0.111668 -0.008972 -0.067171
  5 -11.802618 0.277821 -45.319946 0.653066 0.001644 -0.010560
  6 -0.797637 4.276005 -49.223648 0.416374 0.013206 -0.222763
  7 -0.000011 -0.000004 -7.282913 0.000000 -0.000000 0.000000
  8 11.803268 0.236664 -45.319946 0.346139 -0.001204 0.005532
  9 0.812342 4.273235 -49.223576 0.493410 -0.085267 0.283799
 10 0.000004 0.000004 -7.282927 0.000000 -0.000000 0.000000
 11 -0.009450 0.029581 10.838684 -0.001042 0.000023 0.311365
 12 -16.431311 3.246386 32.898773 0.084405 -0.095495 -0.365120
 13 -12.321596 -2.201925 -17.125473 -0.059182 -0.002658 0.043045
 14 -13.252195 -2.413307 -18.422256 -0.000000 -0.000147 -0.000000
 15 -3.868652 -0.832968 -6.257843 0.000000 -0.000000 0.000000
 16 -37.279179 -5.051151 -38.191177 0.000000 -0.000000 0.000000
 17 -3.806091 -1.056421 -7.595871 0.000000 -0.000000 0.000000
 18 16.442677 3.189072 32.898773 0.080842 0.133125 -0.281288
 19 12.313792 -2.244885 -17.125641 0.000000 -0.000000 0.000000
 20 13.243654 -2.459519 -18.422241 0.014671 -0.002577 -0.020361
 21 4.038897 -0.928111 -8.488220 0.000000 -0.000000 0.000000
 22 -0.000700 -0.454956 46.067276 0.014974 -0.005112 -0.252468
 23 -0.489965 22.757851 18.761993 0.000000 -0.000000 0.000000
 24 0.260401 -19.713413 -182.090973 0.000000 -0.000000 0.000000
 25 -16.518957 9.856462 11.602509 0.000000 -0.000000 0.000000
 26 12.687090 8.730808 11.181015 0.000000 -0.000000 0.000000
 27 -0.009702 -4.696531 26.700012 0.000000 -0.000000 0.000000
 28 -0.000041 -0.005974 23.601593 0.000000 -0.000000 0.000000
 29 -21.531242 -10.281179 -6.106491 0.000000 0.000000 -0.000000
 30 6.667687 -19.285318 -6.979950 -0.209009 -0.013525 0.001735
 31 21.613552 5.850677 -6.561745 0.000000 0.000000 0.000000
 32 -0.490765 19.244429 -5.608498 0.000000 -0.000000 0.000000
 33 12.172537 -7.748503 -10.307098 0.000000 0.000000 -0.000000
 34 -12.668404 -7.748505 -10.702652 -0.000000 -0.000000 0.000000
 35 -0.490773 14.424884 -10.375053 0.000000 0.000000 0.000000
time 6
  0 0.768169 -0.850492 1.544617 0.000000 -0.000000 0.000000
  1 0.768169 -0.850492 1.544617 0.000000 -0.000000 0.000000
  2 0.984829 -7.246327 246.548599 0.000000 -0.000000 0.000000
  3 0.998367 -3.471023 1.599335 0.000000 -0.000000 0.000000
  4 0.998363 -3.471023 134.607529 -0.111703 -0.008993 -0.067306
  5 -11.802618 0.277826 -45.319954 0.664614 0.001735 -0.010729
  6 -0.797636 4.276001 -49.223633 0.421171 0.013536 -0.225301
  7 -0.000013 -0.000004 -7.282915 0.000000 -0.000000 0.000000
  8 11.803268 0.236670 -45.319954 0.349328 -0.001223 0.005578
  9 0.812341 4.273241 -49.223568 0.500133 -0.086765 0.286848
 10 0.000006 0.000004 -7.282925 0.000000 -0.000000 0.000000
 11 -0.009561 0.029549 10.838638 -0.001824 0.000040 0.315088
 12 -16.431311 3.246382 32.898758 0.085711 -0.098148 -0.368524
 13 -12.321595 -2.201921 -17.125488 -0.060321 -0.002677 0.043894
 14 -13.252197 -2.413305 -18.422241 -0.000000 -0.000258 -0.000000
 15 -3.868652 -0.832964 -6.257843 0.000000 -0.000000 0.000000
 16 -37.279167 -5.051146 -38.191162 0.000000 -0.000000 0.000000
 17 -3.806091 -1.056419 -7.595871 0.000000 -0.000000 0.000000
 18 16.442675 3.189067 32.898758 0.082657 0.136419 -0.283718
 19 12.313793 -2.244883 -17.125626 0.000000 -0.000000 0.000000
 20 13.243649 -2.459518 -18.422241 0.014671 -0.002577 -0.020361
 21 4.038900 -0.928110 -8.488205 0.000000 -0.000000 0.000000
 22 -0.000701 -0.454960 46.067245 0.021309 -0.001215 -0.253918
 23 -0.489967 22.757845 18.761978 0.000000 -0.000000 0.000000
 24 0.260404 -19.713396 -182.090942 0.000000 -0.000000 0.000000
 25 -16.518959 9.856459 11.602478 0.000000 -0.000000 0.000000
 26 12.687090 8.730803 11.180984 0.000000 -0.000000 0.000000
 27 -0.009702 -4.696533 26.699997 0.000000 -0.000000 0.000000
 28 -0.000042 -0.005976 23.601593 0.000000 -0.000000 0.000000
 29 -21.531240 -10.281179 -6.106499 0.000000 0.000000 -0.000000
 30 6.667686 -19.285315 -6.979958 -0.209009 -0.013525 0.001735
 31 21.613552 5.850678 -6.561737 -0.000000 0.000000 0.000000
 32 -0.490765 19.244431 -5.608505 0.000000 -0.000000 0.000000
 33 12.172537 -7.748499 -10.307098 0.000000 0.000000 0.000000
 34 -12.668404 -7.748503 -10.702644 -0.000000 0.000000 -0.000000
 35 -0.490773 14.424887 -10.375061 0.000000 0.000000 -0.000000
time 7
  0 0.768169 -0.850492 1.544617 0.000000 -0.000000 0.000000
  1 0.768169 -0.850492 1.544617 0.000000 -0.000000 0.000000
  2 0.984829 -7.246327 246.548599 0.000000 -0.000000 0.000000
  3 0.998367 -3.471023 1.599335 0.000000 -0.000000 0.000000
  4 0.998362 -3.471023 134.402939 -0.111727 -0.009009 -0.067411
  5 -11.802617 0.277826 -45.319939 0.675855 0.001824 -0.010893
  6 -0.797638 4.276016 -49.223640 0.425834 0.013873 -0.227756
  7 -0.000011 -0.000008 -7.282915 0.000000 -0.000000 0.000000
  8 11.803272 0.236666 -45.319939 0.352388 -0.001238 0.005623
  9 0.812340 4.273241 -49.223564 0.506639 -0.088211 0.289768
 10 0.000004 0.000004 -7.282925 0.000000 -0.000000 0.000000
 11 -0.009667 0.029516 10.838608 -0.002735 0.000058 0.318680
 12 -16.431311 3.246387 32.898758 0.086985 -0.100818 -0.371798
 13 -12.321597 -2.201921 -17.125473 -0.061438 -0.002694 0.044727
 14 -13.252186 -2.413305 -18.422241 0.000000 -0.000388 -0.000000
 15 -3.868650 -0.832966 -6.257828 0.000000 -0.000000 0.000000
 16 -37.279171 -5.051140 -38.191162 0.000000 -0.000000 0.000000
 17 -3.806093 -1.056417 -7.595856 0.000000 -0.000000 0.000000
 18 16.442673 3.189067 32.898773 0.084475 0.139732 -0.286055
 19 12.313793 -2.244885 -17.125641 0.000000 -0.000000 0.000000
 20 13.243649 -2.459519 -18.422241 0.014671 -0.002577 -0.020361
 21 4.038898 -0.928110 -8.488220 0.000000 -0.000000 0.000000
 22 -0.000702 -0.454958 46.067245 0.028038 0.002871 -0.255304
 23 -0.489968 22.757843 18.761978 0.000000 -0.000000 0.000000
 24 0.260407 -19.713390 -182.090942 0.000000 -0.000000 0.000000
 25 -16.518959 9.856461 11.602478 0.000000 -0.000000 0.000000
 26 12.687087 8.730802 11.180984 0.000000 -0.000000 0.000000
 27 -0.009702 -4.696535 26.699982 0.000000 -0.000000 0.000000
 28 -0.000043 -0.005974 23.601608 0.000000 -0.000000 0.000000
 29 -21.531244 -10.281178 -6.106499 0.000000 0.000000 -0.000000
 30 6.667690 -19.285315 -6.979950 -0.209009 -0.013525 0.001735
 31 21.613552 5.850676 -6.561745 0.000000 0.000000 0.000000
 32 -0.490767 19.244427 -5.608498 0.000000 -0.000000 0.000000
 33 12.172540 -7.748503 -10.307091 0.000000 0.000000 0.000000
 34 -12.668403 -7.748501 -10.702644 0.000000 -0.000000 0.000000
 35 -0.490774 14.424885 -10.375053 0.000000 -0.000000 0.000000
time 8
  0 0.768169 -0.850492 1.544617 0.000000 -0.000000 0.000000
  1 0.768169 -0.850492 1.544617 0.000000 -0.000000 0.000000
  2 0.984829 -7.246327 246.548599 0.000000 -0.000000 0.000000
  3 0.998367 -3.471023 1.599335 0.000000 -0.000000 0.000000
  4 0.998362 -3.471023 134.187180 -0.111761 -0.009022 -0.067491
  5 -11.802616 0.277824 -45.319954 0.686187 0.001906 -0.011044
  6 -0.797635 4.276005 -49.223640 0.430114 0.014205 -0.230002
  7 -0.000010 -0.000008 -7.282917 0.000000 -0.000000 0.000000
  8 11.803269 0.236668 -45.319954 0.355171 -0.001250 0.005664
  9 0.812343 4.273238 -49.223572 0.512592 -0.089530 0.292418
 10 0.000004 0.000004 -7.282923 0.000000 -0.000000 0.000000
 11 -0.009764 0.029486 10.838562 -0.003721 0.000078 0.321959
 12 -16.431313 3.246382 32.898758 0.088157 -0.103435 -0.374777
 13 -12.321603 -2.201923 -17.125488 -0.062477 -0.002712 0.045501
 14 -13.252195 -2.413305 -18.422241 -0.000000 -0.000531 0.000000
 15 -3.868647 -0.832966 -6.257858 0.000000 -0.000000 0.000000
 16 -37.279182 -5.051149 -38.191162 0.000000 -0.000000 0.000000
 17 -3.806091 -1.056419 -7.595871 0.000000 -0.000000 0.000000
 18 16.442677 3.189068 32.898773 0.086241 0.142980 -0.288182
 19 12.313789 -2.244882 -17.125656 0.000000 -0.000000 0.000000
 20 13.243647 -2.459518 -18.422241 0.014671 -0.002577 -0.020361
 21 4.038900 -0.928110 -8.488220 0.000000 -0.000000 0.000000
 22 -0.000701 -0.454960 46.067261 0.034817 0.006830 -0.256560
 23 -0.489965 22.757847 18.761993 0.000000 -0.000000 0.000000
 24 0.260403 -19.713396 -182.090973 0.000000 -0.000000 0.000000
 25 -16.518959 9.856460 11.602493 0.000000 -0.000000 0.000000
 26 12.687091 8.730803 11.180984 0.000000 -0.000000 0.000000
 27 -0.009702 -4.696535 26.699997 0.000000 -0.000000 0.000000
 28 -0.000042 -0.005976 23.601593 0.000000 -0.000000 0.000000
 29 -21.531242 -10.281181 -6.106499 0.000000 0.000000 -0.000000
 30 6.667686 -19.285316 -6.979965 -0.209009 -0.013525 0.001735
 31 21.613552 5.850677 -6.561745 0.000000 -0.000000 -0.000000
 32 -0.490764 19.244427 -5.608498 0.000000 -0.000000 0.000000
 33 12.172537 -7.748499 -10.307098 0.000000 0.000000 -0.000000
 34 -12.668404 -7.748505 -10.702644 0.000000 0.000000 -0.000000
 35 -0.490772 14.424884 -10.375061 0.000000 0.000000 -0.000000
time 9
  0 0.768169 -0.850492 1.544617 0.000000 -0.000000 0.000000
  1 0.768169 -0.850492 1.544617 0.000000 -0.000000 0.000000
  2 0.984829 -7.246327 246.548599 0.000000 -0.000000 0.000000
  3 0.998367 -3.471023 1.599335 0.000000 -0.000000 0.000000
  4 0.998361 -3.471023 133.974594 -0.111826 -0.009031 -0.067546
  5 -11.802619 0.277822 -45.319962 0.695007 0.001976 -0.011173
  6 -0.797635 4.276009 -49.223640 0.433765 0.014520 -0.231912
  7 -0.000011 -0.000004 -7.282915 0.000000 -0.000000 0.000000
  8 11.803268 0.236664 -45.319954 0.357527 -0.001259 0.005699
  9 0.812340 4.273237 -49.223572 0.517656 -0.090651 0.294657
 10 0.000004 0.000008 -7.282925 0.000000 -0.000000 0.000000
 11 -0.009846 0.029459 10.838547 -0.004727 0.000096 0.324744
 12 -16.431313 3.246384 32.898773 0.089159 -0.105932 -0.377301
 13 -12.321599 -2.201925 -17.125473 -0.063386 -0.002728 0.046172
 14 -13.252195 -2.413307 -18.422256 -0.000000 -0.000679 -0.000000
 15 -3.868650 -0.832966 -6.257858 0.000000 -0.000000 0.000000
 16 -37.279190 -5.051157 -38.191162 0.000000 -0.000000 0.000000
 17 -3.806093 -1.056421 -7.595871 0.000000 -0.000000 0.000000
 18 16.442677 3.189068 32.898773 0.087899 0.146076 -0.289984
 19 12.313793 -2.244883 -17.125641 0.000000 -0.000000 0.000000
 20 13.243647 -2.459520 -18.422226 0.014671 -0.002577 -0.020361
 21 4.038897 -0.928110 -8.488220 0.000000 -0.000000 0.000000
 22 -0.000700 -0.454960 46.067276 0.041300 0.010344 -0.257621
 23 -0.489964 22.757847 18.762009 0.000000 -0.000000 0.000000
 24 0.260395 -19.713404 -182.090988 0.000000 -0.000000 0.000000
 25 -16.518957 9.856460 11.602509 0.000000 -0.000000 0.000000
 26 12.687091 8.730804 11.181000 0.000000 -0.000000 0.000000
 27 -0.009701 -4.696532 26.700012 0.000000 -0.000000 0.000000
 28 -0.000041 -0.005976 23.601593 0.000000 -0.000000 0.000000
 29 -21.531242 -10.281179 -6.106506 0.000000 0.000000 0.000000
 30 6.667686 -19.285318 -6.979958 -0.209009 -0.013525 0.001735
 31 21.613552 5.850677 -6.561752 0.000000 0.000000 0.000000
 32 -0.490765 19.244427 -5.608513 0.000000 -0.000000 0.000000
 33 12.172536 -7.748503 -10.307106 0.000000 0.000000 0.000000
 34 -12.668404 -7.748503 -10.702660 -0.000000 -0.000000 0.000000
 35 -0.490773 14.424884 -10.375061 0.000000 0.000000 -0.000000
time 10
  0 0.768169 -0.850492 1.544617 0.000000 -0.000000 0.000000
  1 0.768169 -0.850492 1.544617 0.000000 -0.000000 0.000000
  2 0.984829 -7.246327 246.548599 0.000000 -0.000000 0.000000
  3 0.998367 -3.471023 1.599335 0.000000 -0.000000 0.000000
  4 0.998361 -3.471023 133.779541 -0.111944 -0.009037 -0.067582
  5 -11.802616 0.277824 -45.319939 0.701712 0.002030 -0.011273
  6 -0.797638 4.276005 -49.223629 0.436538 0.014806 -0.233359
  7 -0.000013 -0.000008 -7.282917 0.000000 -0.000000 0.000000
  8 11.803267 0.236666 -45.319939 0.359305 -0.001264 0.005726
  9 0.812339 4.273238 -49.223568 0.521494 -0.091499 0.296346
 10 0.000006 0.000004 -7.282923 0.000000 -0.000000 0.000000
 11 -0.009908 0.029438 10.838516 -0.005699 0.000113 0.326851
 12 -16.431311 3.246383 32.898758 0.089922 -0.108239 -0.379208
 13 -12.321595 -2.201923 -17.125473 -0.064107 -0.002742 0.046699
 14 -13.252197 -2.413307 -18.422241 -0.000000 -0.000825 -0.000000
 15 -3.868652 -0.832966 -6.257858 0.000000 -0.000000 0.000000
 16 -37.279182 -5.051146 -38.191162 0.000000 -0.000000 0.000000
 17 -3.806089 -1.056417 -7.595886 0.000000 -0.000000 0.000000
 18 16.442675 3.189066 32.898773 0.089396 0.148933 -0.291346
 19 12.313793 -2.244883 -17.125641 0.000000 -0.000000 0.000000
 20 13.243650 -2.459518 -18.422241 0.014671 -0.002577 -0.020361
 21 4.038902 -0.928110 -8.488220 0.000000 -0.000000 0.000000
 22 -0.000701 -0.454962 46.067261 0.047142 0.013098 -0.258420
 23 -0.489967 22.757847 18.761978 0.000000 -0.000000 0.000000
 24 0.260402 -19.713402 -182.090942 0.000000 -0.000000 0.000000
 25 -16.518961 9.856461 11.602493 0.000000 -0.000000 0.000000
 26 12.687091 8.730803 11.180969 0.000000 -0.000000 0.000000
 27 -0.009702 -4.696533 26.699997 0.000000 -0.000000 0.000000
 28 -0.000042 -0.005974 23.601578 0.000000 -0.000000 0.000000
 29 -21.531239 -10.281179 -6.106491 0.000000 0.000000 0.000000
 30 6.667688 -19.285316 -6.979942 -0.209009 -0.013525 0.001735
 31 21.613548 5.850677 -6.561745 -0.000000 0.000000 0.000000
 32 -0.490766 19.244427 -5.608505 0.000000 -0.000000 0.000000
 33 12.172535 -7.748501 -10.307098 0.000000 0.000000 0.000000
 34 -12.668402 -7.748503 -10.702652 0.000000 0.000000 -0.000000
 35 -0.490774 14.424884 -10.375053 0.000000 0.000000 0.000000
time 11
  0 0.768169 -0.850492 1.544617 0.000000 -0.000000 0.000000
  1 0.768169 -0.850492 1.544617 0.000000 -0.000000 0.000000
  2 0.984829 -7.246327 246.548599 0.000000 -0.000000 0.000000
  3 0.998367 -3.471023 1.599335 0.000000 -0.000000 0.000000
  4 0.998361 -3.471023 133.616379 -0.112136 -0.009040 -0.067599
  5 -11.802615 0.277819 -45.319946 0.705698 0.002061 -0.011333
  6 -0.797634 4.276016 -49.223633 0.438186 0.015049 -0.234218
  7 -0.000013 0.000000 -7.282915 0.000000 -0.000000 0.000000
  8 11.803267 0.236660 -45.319939 0.360356 -0.001267 0.005742
  9 0.812341 4.273236 -49.223576 0.523771 -0.092002 0.297343
 10 0.000008 0.000008 -7.282925 0.000000 -0.000000 0.000000
 11 -0.009945 0.029428 10.838486 -0.006581 0.000126 0.328100
 12 -16.431311 3.246383 32.898758 0.090376 -0.110286 -0.380337
 13 -12.321597 -2.201925 -17.125488 -0.064587 -0.002755 0.047038
 14 -13.252195 -2.413307 -18.422241 -0.000000 -0.000961 -0.000000
 15 -3.868649 -0.832966 -6.257843 0.000000 -0.000000 0.000000
 16 -37.279182 -5.051155 -38.191154 0.000000 -0.000000 0.000000
 17 -3.806089 -1.056419 -7.595871 0.000000 -0.000000 0.000000
 18 16.442677 3.189073 32.898773 0.090676 0.151466 -0.292151
 19 12.313789 -2.244885 -17.125641 0.000000 -0.000000 0.000000
 20 13.243643 -2.459520 -18.422241 0.014671 -0.002577 -0.020361
 21 4.038895 -0.928111 -8.488205 0.000000 -0.000000 0.000000
 22 -0.000700 -0.454954 46.067245 0.051998 0.014775 -0.258892
 23 -0.489964 22.757847 18.761978 0.000000 -0.000000 0.000000
 24 0.260404 -19.713413 -182.090927 0.000000 -0.000000 0.000000
 25 -16.518957 9.856461 11.602493 0.000000 -0.000000 0.000000
 26 12.687088 8.730804 11.180984 0.000000 -0.000000 0.000000
 27 -0.009703 -4.696531 26.699997 0.000000 -0.000000 0.000000
 28 -0.000042 -0.005974 23.601593 0.000000 -0.000000 0.000000
 29 -21.531239 -10.281181 -6.106499 0.000000 0.000000 -0.000000
 30 6.667686 -19.285320 -6.979958 -0.209009 -0.013525 0.001735
 31 21.613548 5.850677 -6.561745 -0.000000 0.000000 0.000000
 32 -0.490765 19.244429 -5.608490 0.000000 -0.000000 0.000000
 33 12.172535 -7.748501 -10.307098 0.000000 0.000000 0.000000
 34 -12.668403 -7.748505 -10.702644 0.000000 -0.000000 -0.000000
 35 -0.490773 14.424885 -10.375053 0.000000 0.000000 -0.000000
time 12
  0 0.768169 -0.850492 1.544617 0.000000 -0.000000 0.000000
  1 0.768169 -0.850492 1.544617 0.000000 -0.000000 0.000000
  2 0.984829 -7.246327 246.548599 0.000000 -0.000000 0.000000
  3 0.998367 -3.471023 1.599335 0.000000 -0.000000 0.000000
  4 0.998361 -3.471023 133.496964 -0.112427 -0.009039 -0.067602
  5 -11.802618 0.277821 -45.319939 0.706546 0.002068 -0.011348
  6 -0.797636 4.276016 -49.223629 0.438497 0.015240 -0.234388
  7 -0.000011 -0.000004 -7.282915 0.000000 -0.000000 0.000000
  8 11.803270 0.236664 -45.319939 0.360511 -0.001267 0.005744
  9 0.812341 4.273236 -49.223568 0.524233 -0.092104 0.297529
 10 0.000004 0.000006 -7.282921 0.000000 -0.000000 0.000000
 11 -0.009953 0.029427 10.838470 -0.007336 0.000133 0.328342
 12 -16.431313 3.246386 32.898804 0.090470 -0.112022 -0.380523
 13 -12.321600 -2.201925 -17.125473 -0.064786 -0.002765 0.047158
 14 -13.252199 -2.413309 -18.422241 0.000001 -0.001083 0.000000
 15 -3.868649 -0.832966 -6.257858 0.000000 -0.000000 0.000000
 16 -37.279179 -5.051153 -38.191162 0.000000 -0.000000 0.000000
 17 -3.806089 -1.056421 -7.595871 0.000000 -0.000000 0.000000
 18 16.442677 3.189066 32.898788 0.091692 0.153607 -0.292277
 19 12.313791 -2.244884 -17.125641 0.000000 -0.000000 0.000000
 20 13.243654 -2.459520 -18.422241 0.014671 -0.002577 -0.020361
 21 4.038902 -0.928110 -8.488205 0.000000 -0.000000 0.000000
 22 -0.000701 -0.454956 46.067276 0.055573 0.015138 -0.258963
 23 -0.489967 22.757849 18.761993 0.000000 -0.000000 0.000000
 24 0.260409 -19.713417 -182.090988 0.000000 -0.000000 0.000000
 25 -16.518959 9.856462 11.602493 0.000000 -0.000000 0.000000
 26 12.687089 8.730805 11.180984 0.000000 -0.000000 0.000000
 27 -0.009702 -4.696530 26.699997 0.000000 -0.000000 0.000000
 28 -0.000042 -0.005972 23.601593 0.000000 -0.000000 0.000000
 29 -21.531246 -10.281181 -6.106491 0.000000 0.000000 0.000000
 30 6.667688 -19.285316 -6.979958 -0.209009 -0.013525 0.001735
 31 21.613550 5.850677 -6.561745 0.000000 0.000000 0.000000
 32 -0.490765 19.244425 -5.608490 0.000000 -0.000000 0.000000
 33 12.172539 -7.748501 -10.307091 0.000000 0.000000 -0.000000
 34 -12.668404 -7.748503 -10.702652 0.000000 0.000000 0.000000
 35 -0.490773 14.424883 -10.375053 0.000000 0.000000 -0.000000
time 13
  0 0.768169 -0.850492 1.544617 0.000000 -0.000000 0.000000
  1 0.768169 -0.850492 1.544617 0.000000 -0.000000 0.000000
  2 0.984829 -7.246327 246.548599 0.000000 -0.000000 0.000000
  3 0.998367 -3.471023 1.599335 0.000000 -0.000000 0.000000
  4 0.998361 -3.471023 133.395325 -0.112905 -0.009004 -0.067584
  5 -11.802618 0.277822 -45.319954 0.706514 0.002068 -0.011350
  6 -0.797636 4.276009 -49.223637 0.437855 0.015398 -0.234190
  7 -0.000011 -0.000004 -7.282915 0.000000 -0.000000 0.000000
  8 11.803269 0.236666 -45.319962 0.359439 -0.001252 0.005730
  9 0.812341 4.273248 -49.223564 0.523863 -0.092025 0.297124
 10 0.000006 0.000008 -7.282928 0.000000 -0.000000 0.000000
 11 -0.009939 0.029430 10.838440 -0.008123 0.000139 0.327959
 12 -16.431313 3.246384 32.898773 0.090431 -0.113611 -0.379682
 13 -12.321598 -2.201924 -17.125488 -0.064894 -0.002774 0.047212
 14 -13.252193 -2.413307 -18.422241 0.000011 -0.001216 -0.000000
 15 -3.868650 -0.832968 -6.257843 0.000000 -0.000000 0.000000
 16 -37.279179 -5.051147 -38.191154 0.000000 -0.000000 0.000000
 17 -3.806093 -1.056421 -7.595856 0.000000 -0.000000 0.000000
 18 16.442675 3.189064 32.898758 0.092524 0.155560 -0.291569
 19 12.313791 -2.244882 -17.125641 0.000000 -0.000000 0.000000
 20 13.243645 -2.459519 -18.422226 0.014671 -0.002577 -0.020361
 21 4.038898 -0.928109 -8.488205 0.000000 -0.000000 0.000000
 22 -0.000701 -0.454960 46.067245 0.058381 0.015129 -0.258514
 23 -0.489964 22.757847 18.761993 0.000000 -0.000000 0.000000
 24 0.260401 -19.713402 -182.090973 0.000000 -0.000000 0.000000
 25 -16.518959 9.856461 11.602493 0.000000 -0.000000 0.000000
 26 12.687091 8.730804 11.180984 0.000000 -0.000000 0.000000
 27 -0.009702 -4.696533 26.699997 0.000000 -0.000000 0.000000
 28 -0.000042 -0.005976 23.601593 0.000000 -0.000000 0.000000
 29 -21.531246 -10.281178 -6.106514 0.000000 0.000000 -0.000000
 30 6.667687 -19.285316 -6.979950 -0.209009 -0.013525 0.001735
 31 21.613554 5.850677 -6.561752 -0.000000 0.000000 0.000000
 32 -0.490765 19.244427 -5.608513 0.000000 -0.000000 0.000000
 33 12.172538 -7.748501 -10.307106 0.000000 0.000000 0.000000
 34 -12.668405 -7.748503 -10.702652 0.000000 -0.000000 0.000000
 35 -0.490773 14.424884 -10.375053 0.000000 0.000000 -0.000000
time 14
  0 0.768169 -0.850492 1.544617 0.000000 -0.000000 0.000000
  1 0.768169 -0.850492 1.544617 0.000000 -0.000000 0.000000
  2 0.984829 -7.246327 246.548599 0.000000 -0.000000 0.000000
  3 0.998367 -3.471023 1.599335 0.000000 -0.000000 0.000000
  4 0.998361 -3.471023 133.301239 -0.113552 -0.008933 -0.067545
  5 -11.802618 0.277826 -45.319954 0.706435 0.002068 -0.011352
  6 -0.797638 4.275993 -49.223640 0.436527 0.015534 -0.233771
  7 -0.000011 -0.000008 -7.282917 0.000000 -0.000000 0.000000
  8 11.803267 0.236668 -45.319954 0.357274 -0.001223 0.005701
  9 0.812340 4.273231 -49.223572 0.523063 -0.091852 0.296282
 10 0.000006 0.000002 -7.282923 0.000000 -0.000000 0.000000
 11 -0.009911 0.029438 10.838409 -0.008977 0.000143 0.327157
 12 -16.431311 3.246384 32.898758 0.090341 -0.115106 -0.377964
 13 -12.321598 -2.201922 -17.125488 -0.064984 -0.002781 0.047257
 14 -13.252193 -2.413305 -18.422241 0.000031 -0.001366 -0.000000
 15 -3.868654 -0.832966 -6.257858 0.000000 -0.000000 0.000000
 16 -37.279175 -5.051147 -38.191162 0.000000 -0.000000 0.000000
 17 -3.806095 -1.056421 -7.595871 0.000000 -0.000000 0.000000
 18 16.442673 3.189064 32.898758 0.093218 0.157390 -0.290130
 19 12.313789 -2.244883 -17.125641 0.000000 -0.000000 0.000000
 20 13.243645 -2.459519 -18.422226 0.014671 -0.002577 -0.020361
 21 4.038895 -0.928110 -8.488205 0.000000 -0.000000 0.000000
 22 -0.000700 -0.454962 46.067245 0.060686 0.015107 -0.257604
 23 -0.489966 22.757841 18.761978 0.000000 -0.000000 0.000000
 24 0.260399 -19.713398 -182.090988 0.000000 -0.000000 0.000000
 25 -16.518955 9.856458 11.602493 0.000000 -0.000000 0.000000
 26 12.687086 8.730801 11.181000 0.000000 -0.000000 0.000000
 27 -0.009701 -4.696533 26.700012 0.000000 -0.000000 0.000000
 28 -0.000042 -0.005976 23.601593 0.000000 -0.000000 0.000000
 29 -21.531242 -10.281176 -6.106491 0.000000 0.000000 0.000000
 30 6.667686 -19.285311 -6.979950 -0.209009 -0.013525 0.001735
 31 21.613550 5.850677 -6.561745 0.000000 0.000000 0.000000
 32 -0.490766 19.244423 -5.608498 0.000000 -0.000000 0.000000
 33 12.172536 -7.748499 -10.307091 0.000000 0.000000 0.000000
 34 -12.668404 -7.748499 -10.702652 0.000000 -0.000000 0.000000
 35 -0.490774 14.424881 -10.375053 0.000000 0.000000 -0.000000
time 15
  0 0.768169 -0.850492 1.544617 0.000000 -0.000000 0.000000
  1 0.768169 -0.850492 1.544617 0.000000 -0.000000 0.000000
  2 0.984829 -7.246327 246.548599 0.000000 -0.000000 0.000000
  3 0.998367 -3.471023 1.599335 0.000000 -0.000000 0.000000
  4 0.998361 -3.471023 133.215393 -0.114318 -0.008837 -0.067487
  5 -11.802614 0.277826 -45.319954 0.706298 0.002067 -0.011354
  6 -0.797639 4.276005 -49.223637 0.434633 0.015648 -0.233157
  7 -0.000011 -0.000008 -7.282915 0.000000 -0.000000 0.000000
  8 11.803267 0.236666 -45.319946 0.354279 -0.001182 0.005662
  9 0.812339 4.273240 -49.223579 0.521862 -0.091593 0.295076
 10 0.000008 0.000006 -7.282925 0.000000 -0.000000 0.000000
 11 -0.009872 0.029449 10.838394 -0.009863 0.000147 0.325999
 12 -16.431311 3.246382 32.898773 0.090199 -0.116491 -0.375549
 13 -12.321598 -2.201922 -17.125488 -0.065057 -0.002787 0.047293
 14 -13.252188 -2.413305 -18.422256 0.000059 -0.001524 -0.000000
 15 -3.868645 -0.832968 -6.257843 0.000000 -0.000000 0.000000
 16 -37.279179 -5.051144 -38.191177 0.000000 -0.000000 0.000000
 17 -3.806086 -1.056417 -7.595886 0.000000 -0.000000 0.000000
 18 16.442673 3.189068 32.898758 0.093787 0.159079 -0.288125
 19 12.313795 -2.244884 -17.125641 0.000000 -0.000000 0.000000
 20 13.243649 -2.459520 -18.422241 0.014671 -0.002577 -0.020361
 21 4.038900 -0.928110 -8.488235 0.000000 -0.000000 0.000000
 22 -0.000702 -0.454960 46.067276 0.062537 0.015070 -0.256337
 23 -0.489968 22.757849 18.761963 0.000000 -0.000000 0.000000
 24 0.260411 -19.713404 -182.090988 0.000000 -0.000000 0.000000
 25 -16.518957 9.856463 11.602493 0.000000 -0.000000 0.000000
 26 12.687086 8.730803 11.180969 0.000000 -0.000000 0.000000
 27 -0.009702 -4.696534 26.699997 0.000000 -0.000000 0.000000
 28 -0.000043 -0.005976 23.601593 0.000000 -0.000000 0.000000
 29 -21.531239 -10.281179 -6.106491 0.000000 0.000000 -0.000000
 30 6.667688 -19.285318 -6.979958 -0.209009 -0.013525 0.001735
 31 21.613544 5.850676 -6.561745 -0.000000 0.000000 0.000000
 32 -0.490767 19.244427 -5.608505 0.000000 -0.000000 0.000000
 33 12.172536 -7.748503 -10.307091 0.000000 0.000000 0.000000
 34 -12.668400 -7.748503 -10.702644 -0.000000 -0.000000 0.000000
 35 -0.490774 14.424884 -10.375053 0.000000 0.000000 0.000000
time 16
  0 0.768169 -0.850492 1.544617 0.000000 -0.000000 0.000000
  1 0.768169 -0.850492 1.544617 0.000000 -0.000000 0.000000
  2 0.984829 -7.246327 246.548599 0.000000 -0.000000 0.000000
  3 0.998367 -3.471023 1.599335 0.000000 -0.000000 0.000000
  4 0.998361 -3.471023 133.138489 -0.115151 -0.008723 -0.067411
  5 -11.802615 0.277830 -45.319954 0.706095 0.002066 -0.011355
  6 -0.797639 4.275993 -49.223644 0.432293 0.015742 -0.232374
  7 -0.000011 -0.000004 -7.282911 0.000000 -0.000000 0.000000
  8 11.803269 0.236666 -45.319954 0.350720 -0.001134 0.005615
  9 0.812342 4.273240 -49.223572 0.520290 -0.091251 0.293578
 10 0.000006 0.000008 -7.282923 0.000000 -0.000000 0.000000
 11 -0.009823 0.029465 10.838364 -0.010746 0.000150 0.324545
 12 -16.431313 3.246382 32.898773 0.090003 -0.117748 -0.372622
 13 -12.321599 -2.201923 -17.125488 -0.065115 -0.002792 0.047322
 14 -13.252195 -2.413305 -18.422241 0.000091 -0.001684 -0.000000
 15 -3.868647 -0.832966 -6.257843 0.000000 -0.000000 0.000000
 16 -37.279179 -5.051146 -38.191162 0.000000 -0.000000 0.000000
 17 -3.806095 -1.056419 -7.595871 0.000000 -0.000000 0.000000
 18 16.442671 3.189064 32.898773 0.094241 0.160608 -0.285719
 19 12.313796 -2.244884 -17.125641 0.000000 -0.000000 0.000000
 20 13.243647 -2.459521 -18.422226 0.014671 -0.002577 -0.020361
 21 4.038898 -0.928110 -8.488220 0.000000 -0.000000 0.000000
 22 -0.000703 -0.454962 46.067276 0.063983 0.015015 -0.254818
 23 -0.489970 22.757843 18.761993 0.000000 -0.000000 0.000000
 24 0.260411 -19.713404 -182.090973 0.000000 -0.000000 0.000000
 25 -16.518959 9.856461 11.602509 0.000000 -0.000000 0.000000
 26 12.687086 8.730801 11.181000 0.000000 -0.000000 0.000000
 27 -0.009702 -4.696532 26.700012 0.000000 -0.000000 0.000000
 28 -0.000043 -0.005976 23.601578 0.000000 -0.000000 0.000000
 29 -21.531242 -10.281176 -6.106499 0.000000 0.000000 -0.000000
 30 6.667688 -19.285315 -6.979958 -0.209009 -0.013525 0.001735
 31 21.613548 5.850676 -6.561745 -0.000000 0.000000 0.000000
 32 -0.490767 19.244425 -5.608498 0.000000 -0.000000 0.000000
 33 12.172537 -7.748501 -10.307106 0.000000 0.000000 0.000000
 34 -12.668403 -7.748501 -10.702652 0.000000 -0.000000 0.000000
 35 -0.490774 14.424883 -10.375053 0.000000 0.000000 0.000000
time 17
  0 0.768169 -0.850492 1.544617 0.000000 -0.000000 0.000000
  1 0.768169 -0.850492 1.544617 0.000000 -0.000000 0.000000
  2 0.984829 -7.246327 246.548599 0.000000 -0.000000 0.000000
  3 0.998367 -3.471023 1.599335 0.000000 -0.000000 0.000000
  4 0.998361 -3.471023 133.071274 -0.116001 -0.008602 -0.067318
  5 -11.802616 0.277826 -45.319939 0.705816 0.002064 -0.011356
  6 -0.797640 4.276001 -49.223637 0.429627 0.015817 -0.231448
  7 -0.000010 -0.000008 -7.282915 0.000000 -0.000000 0.000000
  8 11.803268 0.236666 -45.319946 0.346859 -0.001083 0.005564
  9 0.812338 4.273233 -49.223579 0.518376 -0.090832 0.291861
 10 0.000006 0.000002 -7.282927 0.000000 -0.000000 0.000000
 11 -0.009766 0.029478 10.838364 -0.011592 0.000152 0.322857
 12 -16.431309 3.246384 32.898743 0.089751 -0.118862 -0.369363
 13 -12.321598 -2.201921 -17.125473 -0.065160 -0.002796 0.047345
 14 -13.252192 -2.413305 -18.422241 0.000126 -0.001839 -0.000000
 15 -3.868647 -0.832962 -6.257843 0.000000 -0.000000 0.000000
 16 -37.279175 -5.051146 -38.191162 0.000000 -0.000000 0.000000
 17 -3.806091 -1.056419 -7.595871 0.000000 -0.000000 0.000000
 18 16.442669 3.189064 32.898758 0.094593 0.161958 -0.283077
 19 12.313791 -2.244884 -17.125641 0.000000 -0.000000 0.000000
 20 13.243647 -2.459520 -18.422226 0.014671 -0.002577 -0.020361
 21 4.038900 -0.928110 -8.488220 0.000000 -0.000000 0.000000
 22 -0.000701 -0.454962 46.067245 0.065073 0.014940 -0.253155
 23 -0.489969 22.757839 18.761978 0.000000 -0.000000 0.000000
 24 0.260405 -19.713392 -182.090942 0.000000 -0.000000 0.000000
 25 -16.518959 9.856460 11.602493 0.000000 -0.000000 0.000000
 26 12.687085 8.730801 11.180969 0.000000 -0.000000 0.000000
 27 -0.009701 -4.696531 26.699982 0.000000 -0.000000 0.000000
 28 -0.000042 -0.005978 23.601593 0.000000 -0.000000 0.000000
 29 -21.531239 -10.281176 -6.106491 0.000000 0.000000 0.000000
 30 6.667690 -19.285315 -6.979942 -0.209009 -0.013525 0.001735
 31 21.613546 5.850673 -6.561737 0.000000 0.000000 0.000000
 32 -0.490767 19.244423 -5.608498 0.000000 -0.000000 0.000000
 33 12.172535 -7.748503 -10.307091 0.000000 0.000000 -0.000000
 34 -12.668402 -7.748499 -10.702644 0.000000 0.000000 -0.000000
 35 -0.490775 14.424880 -10.375046 0.000000 0.000000 0.000000
time 18
  0 0.768169 -0.850492 1.544617 0.000000 -0.000000 0.000000
  1 0.768169 -0.850492 1.544617 0.000000 -0.000000 0.000000
  2 0.984829 -7.246327 246.548599 0.000000 -0.000000 0.000000
  3 0.998367 -3.471023 1.599335 0.000000 -0.000000 0.000000
  4 0.998361 -3.471023 133.014450 -0.116815 -0.008481 -0.067211
  5 -11.802616 0.277822 -45.319954 0.705453 0.002062 -0.011357
  6 -0.797638 4.276001 -49.223644 0.426757 0.015876 -0.230405
  7 -0.000013 -0.000008 -7.282915 0.000000 -0.000000 0.000000
  8 11.803267 0.236662 -45.319954 0.342963 -0.001031 0.005512
  9 0.812341 4.273243 -49.223572 0.516148 -0.090342 0.289998
 10 0.000006 0.000010 -7.282925 0.000000 -0.000000 0.000000
 11 -0.009705 0.029499 10.838303 -0.012366 0.000153 0.320998
 12 -16.431309 3.246382 32.898773 0.089440 -0.119814 -0.365957
 13 -12.321597 -2.201924 -17.125458 -0.065192 -0.002799 0.047362
 14 -13.252195 -2.413309 -18.422241 0.000161 -0.001982 -0.000000
 15 -3.868652 -0.832966 -6.257858 0.000000 -0.000000 0.000000
 16 -37.279190 -5.051161 -38.191147 0.000000 -0.000000 0.000000
 17 -3.806095 -1.056423 -7.595871 0.000000 -0.000000 0.000000
 18 16.442677 3.189072 32.898758 0.094855 0.163110 -0.280364
 19 12.313793 -2.244884 -17.125641 0.000000 -0.000000 0.000000
 20 13.243645 -2.459520 -18.422241 0.014671 -0.002577 -0.020361
 21 4.038898 -0.928110 -8.488220 0.000000 -0.000000 0.000000
 22 -0.000698 -0.454954 46.067245 0.065856 0.014842 -0.251451
 23 -0.489964 22.757849 18.761993 0.000000 -0.000000 0.000000
 24 0.260400 -19.713419 -182.090912 0.000000 -0.000000 0.000000
 25 -16.518957 9.856462 11.602509 0.000000 -0.000000 0.000000
 26 12.687090 8.730806 11.181000 0.000000 -0.000000 0.000000
 27 -0.009702 -4.696531 26.700012 0.000000 -0.000000 0.000000
 28 -0.000041 -0.005974 23.601578 0.000000 -0.000000 0.000000
 29 -21.531239 -10.281179 -6.106499 0.000000 0.000000 0.000000
 30 6.667686 -19.285318 -6.979965 -0.209009 -0.013525 0.001735
 31 21.613548 5.850677 -6.561752 0.000000 0.000000 0.000000
 32 -0.490765 19.244427 -5.608505 0.000000 -0.000000 0.000000
 33 12.172535 -7.748503 -10.307098 0.000000 0.000000 0.000000
 34 -12.668402 -7.748503 -10.702660 -0.000000 -0.000000 0.000000
 35 -0.490773 14.424886 -10.375061 0.000000 0.000000 0.000000
time 19
  0 0.768169 -0.850492 1.544617 0.000000 -0.000000 0.000000
  1 0.768169 -0.850492 1.544617 0.000000 -0.000000 0.000000
  2 0.984829 -7.246327 246.548599 0.000000 -0.000000 0.000000
  3 0.998367 -3.471023 1.599335 0.000000 -0.000000 0.000000
  4 0.998361 -3.471023 132.968704 -0.117544 -0.008371 -0.067090
  5 -11.802615 0.277824 -45.319954 0.704994 0.002060 -0.011358
  6 -0.797635 4.276009 -49.223644 0.423802 0.015919 -0.229271
  7 -0.000011 -0.000008 -7.282915 0.000000 -0.000000 0.000000
  8 11.803267 0.236668 -45.319954 0.339294 -0.000983 0.005463
  9 0.812342 4.273245 -49.223564 0.513638 -0.089786 0.288060
 10 0.000006 0.000006 -7.282925 0.000000 -0.000000 0.000000
 11 -0.009640 0.029518 10.838287 -0.013033 0.000154 0.319028
 12 -16.431311 3.246382 32.898773 0.089071 -0.120590 -0.362586
 13 -12.321599 -2.201924 -17.125473 -0.065215 -0.002801 0.047374
 14 -13.252193 -2.413309 -18.422241 0.000193 -0.002107 -0.000000
 15 -3.868654 -0.832966 -6.257828 0.000000 -0.000000 0.000000
 16 -37.279171 -5.051151 -38.191177 0.000000 -0.000000 0.000000
 17 -3.806091 -1.056423 -7.595856 0.000000 -0.000000 0.000000
 18 16.442675 3.189068 32.898758 0.095039 0.164045 -0.277744
 19 12.313790 -2.244882 -17.125641 0.000000 -0.000000 0.000000
 20 13.243647 -2.459518 -18.422241 0.014671 -0.002577 -0.020361
 21 4.038900 -0.928109 -8.488220 0.000000 -0.000000 0.000000
 22 -0.000701 -0.454958 46.067245 0.066381 0.014719 -0.249812
 23 -0.489965 22.757847 18.761978 0.000000 -0.000000 0.000000
 24 0.260407 -19.713408 -182.090942 0.000000 -0.000000 0.000000
 25 -16.518953 9.856460 11.602509 0.000000 -0.000000 0.000000
 26 12.687087 8.730804 11.180984 0.000000 -0.000000 0.000000
 27 -0.009703 -4.696531 26.699997 0.000000 -0.000000 0.000000
 28 -0.000043 -0.005974 23.601593 0.000000 -0.000000 0.000000
 29 -21.531239 -10.281178 -6.106499 0.000000 0.000000 0.000000
 30 6.667687 -19.285316 -6.979950 -0.209009 -0.013525 0.001735
 31 21.613546 5.850677 -6.561752 0.000000 0.000000 0.000000
 32 -0.490765 19.244427 -5.608513 0.000000 -0.000000 0.000000
 33 12.172535 -7.748501 -10.307106 0.000000 0.000000 0.000000
 34 -12.668401 -7.748501 -10.702660 0.000000 0.000000 -0.000000
 35 -0.490773 14.424885 -10.375069 0.000000 0.000000 -0.000000
time 20
  0 0.768169 -0.850492 1.544617 0.000000 -0.000000 0.000000
  1 0.768169 -0.850492 1.544617 0.000000 -0.000000 0.000000
  2 0.984829 -7.246327 246.548599 0.000000 -0.000000 0.000000
  3 0.998367 -3.471023 1.599335 0.000000 -0.000000 0.000000
  4 0.998361 -3.471023 132.934784 -0.118136 -0.008279 -0.066956
  5 -11.802616 0.277824 -45.319962 0.704432 0.002057 -0.011358
  6 -0.797637 4.276016 -49.223640 0.420883 0.015949 -0.228073
  7 -0.000011 -0.000008 -7.282915 0.000000 -0.000000 0.000000
  8 11.803268 0.236668 -45.319962 0.336117 -0.000943 0.005421
  9 0.812341 4.273241 -49.223568 0.510873 -0.089170 0.286121
 10 0.000006 0.000006 -7.282923 0.000000 -0.000000 0.000000
 11 -0.009576 0.029539 10.838287 -0.013559 0.000154 0.317009
 12 -16.431313 3.246382 32.898758 0.088639 -0.121171 -0.359432
 13 -12.321593 -2.201923 -17.125473 -0.065230 -0.002803 0.047381
 14 -13.252197 -2.413307 -18.422241 0.000219 -0.002205 -0.000000
 15 -3.868647 -0.832966 -6.257858 0.000000 -0.000000 0.000000
 16 -37.279175 -5.051149 -38.191170 0.000000 -0.000000 0.000000
 17 -3.806086 -1.056419 -7.595871 0.000000 -0.000000 0.000000
 18 16.442677 3.189070 32.898773 0.095156 0.164744 -0.275383
 19 12.313795 -2.244883 -17.125671 0.000000 -0.000000 0.000000
 20 13.243652 -2.459519 -18.422226 0.014671 -0.002577 -0.020361
 21 4.038898 -0.928110 -8.488220 0.000000 -0.000000 0.000000
 22 -0.000701 -0.454958 46.067261 0.066697 0.014568 -0.248344
 23 -0.489964 22.757845 18.761993 0.000000 -0.000000 0.000000
 24 0.260403 -19.713404 -182.090988 0.000000 -0.000000 0.000000
 25 -16.518957 9.856456 11.602509 0.000000 -0.000000 0.000000
 26 12.687088 8.730804 11.181000 0.000000 -0.000000 0.000000
 27 -0.009703 -4.696532 26.700012 0.000000 -0.000000 0.000000
 28 -0.000042 -0.005976 23.601593 0.000000 -0.000000 0.000000
 29 -21.531242 -10.281179 -6.106499 0.000000 0.000000 -0.000000
 30 6.667688 -19.285320 -6.979965 -0.209009 -0.013525 0.001735
 31 21.613548 5.850680 -6.561745 0.000000 0.000000 0.000000
 32 -0.490765 19.244434 -5.608505 0.000000 -0.000000 0.000000
 33 12.172537 -7.748501 -10.307098 0.000000 0.000000 0.000000
 34 -12.668404 -7.748503 -10.702652 0.000000 0.000000 -0.000000
 35 -0.490773 14.424889 -10.375053 0.000000 0.000000 0.000000
time 21
  0 0.768169 -0.850492 1.544617 0.000000 -0.000000 0.000000
  1 0.768169 -0.850492 1.544617 0.000000 -0.000000 0.000000
  2 0.984829 -7.246327 246.548599 0.000000 -0.000000 0.000000
  3 0.998367 -3.471023 1.599335 0.000000 -0.000000 0.000000
  4 0.998361 -3.471023 132.913376 -0.118539 -0.008216 -0.066813
  5 -11.802614 0.277824 -45.319946 0.703757 0.002053 -0.011358
  6 -0.797638 4.276009 -49.223637 0.418120 0.015965 -0.226835
  7 -0.000011 -0.000008 -7.282915 0.000000 -0.000000 0.000000
  8 11.803267 0.236666 -45.319954 0.333695 -0.000914 0.005388
  9 0.812340 4.273241 -49.223568 0.507884 -0.088499 0.284253
 10 0.000006 0.000004 -7.282927 0.000000 -0.000000 0.000000
 11 -0.009513 0.029556 10.838272 -0.013909 0.000155 0.315003
 12 -16.431309 3.246386 32.898773 0.088143 -0.121541 -0.356678
 13 -12.321600 -2.201923 -17.125473 -0.065237 -0.002804 0.047385
 14 -13.252197 -2.413309 -18.422241 0.000238 -0.002271 -0.000000
 15 -3.868654 -0.832968 -6.257858 0.000000 -0.000000 0.000000
 16 -37.279186 -5.051147 -38.191177 0.000000 -0.000000 0.000000
 17 -3.806093 -1.056419 -7.595901 0.000000 -0.000000 0.000000
 18 16.442675 3.189070 32.898788 0.095219 0.165189 -0.273446
 19 12.313791 -2.244886 -17.125641 0.000000 -0.000000 0.000000
 20 13.243650 -2.459521 -18.422241 0.014671 -0.002577 -0.020361
 21 4.038898 -0.928111 -8.488220 0.000000 -0.000000 0.000000
 22 -0.000700 -0.454958 46.067276 0.066852 0.014386 -0.247153
 23 -0.489966 22.757851 18.761993 0.000000 -0.000000 0.000000
 24 0.260404 -19.713409 -182.090942 0.000000 -0.000000 0.000000
 25 -16.518957 9.856462 11.602509 0.000000 -0.000000 0.000000
 26 12.687088 8.730803 11.181000 0.000000 -0.000000 0.000000
 27 -0.009702 -4.696533 26.699997 0.000000 -0.000000 0.000000
 28 -0.000042 -0.005974 23.601608 0.000000 -0.000000 0.000000
 29 -21.531239 -10.281181 -6.106499 0.000000 0.000000 0.000000
 30 6.667688 -19.285320 -6.979950 -0.209009 -0.013525 0.001735
 31 21.613548 5.850678 -6.561745 -0.000000 0.000000 0.000000
 32 -0.490766 19.244434 -5.608505 0.000000 -0.000000 0.000000
 33 12.172535 -7.748501 -10.307098 0.000000 0.000000 0.000000
 34 -12.668401 -7.748505 -10.702652 -0.000000 0.000000 -0.000000
 35 -0.490774 14.424889 -10.375053 0.000000 0.000000 0.000000
time 22
  0 0.768169 -0.850492 1.544617 0.000000 -0.000000 0.000000
  1 0.768169 -0.850492 1.544617 0.000000 -0.000000 0.000000
  2 0.984829 -7.246327 246.548599 0.000000 -0.000000 0.000000
  3 0.998367 -3.471023 1.599335 0.000000 -0.000000 0.000000
  4 0.998361 -3.471023 132.905212 -0.118703 -0.008190 -0.066660
  5 -11.802620 0.277821 -45.319946 0.702959 0.002049 -0.011358
  6 -0.797632 4.276009 -49.223644 0.415634 0.015971 -0.225586
  7 -0.000011 -0.000008 -7.282913 0.000000 -0.000000 0.000000
  8 11.803268 0.236664 -45.319954 0.332295 -0.000900 0.005368
  9 0.812341 4.273237 -49.223572 0.504699 -0.087777 0.282528
 10 0.000006 0.000006 -7.282923 0.000000 -0.000000 0.000000
 11 -0.009454 0.029572 10.838272 -0.014049 0.000155 0.313072
 12 -16.431311 3.246382 32.898758 0.087583 -0.121683 -0.354506
 13 -12.321600 -2.201925 -17.125473 -0.065239 -0.002804 0.047387
 14 -13.252199 -2.413309 -18.422241 0.000245 -0.002298 -0.000000
 15 -3.868654 -0.832966 -6.257858 0.000000 -0.000000 0.000000
 16 -37.279182 -5.051159 -38.191170 0.000000 -0.000000 0.000000
 17 -3.806087 -1.056421 -7.595871 0.000000 -0.000000 0.000000
 18 16.442677 3.189066 32.898758 0.095239 0.165359 -0.272096
 19 12.313794 -2.244883 -17.125641 0.000000 -0.000000 0.000000
 20 13.243647 -2.459519 -18.422241 0.014671 -0.002577 -0.020361
 21 4.038898 -0.928110 -8.488220 0.000000 -0.000000 0.000000
 22 -0.000698 -0.454960 46.067245 0.066897 0.014172 -0.246343
 23 -0.489963 22.757839 18.761993 0.000000 -0.000000 0.000000
 24 0.260395 -19.713400 -182.091019 0.000000 -0.000000 0.000000
 25 -16.518955 9.856455 11.602509 0.000000 -0.000000 0.000000
 26 12.687091 8.730801 11.181000 0.000000 -0.000000 0.000000
 27 -0.009701 -4.696530 26.700027 0.000000 -0.000000 0.000000
 28 -0.000041 -0.005976 23.601593 0.000000 -0.000000 0.000000
 29 -21.531244 -10.281181 -6.106499 0.000000 0.000000 0.000000
 30 6.667686 -19.285316 -6.979958 -0.209009 -0.013525 0.001735
 31 21.613550 5.850677 -6.561745 0.000000 0.000000 0.000000
 32 -0.490764 19.244427 -5.608498 0.000000 -0.000000 0.000000
 33 12.172537 -7.748501 -10.307091 0.000000 0.000000 -0.000000
 34 -12.668405 -7.748505 -10.702652 -0.000000 -0.000000 -0.000000
 35 -0.490773 14.424884 -10.375053 0.000000 0.000000 -0.000000
time 23
  0 0.768169 -0.850492 1.544617 0.000000 -0.000000 0.000000
  1 0.768169 -0.850492 1.544617 0.000000 -0.000000 0.000000
  2 0.984829 -7.246327 246.548599 0.000000 -0.000000 0.000000
  3 0.998367 -3.471023 1.599335 0.000000 -0.000000 0.000000
  4 0.998361 -3.471023 132.973404 -0.118295 -0.008201 -0.066463
  5 -11.802615 0.277822 -45.319946 0.698789 0.002018 -0.011305
  6 -0.797637 4.276005 -49.223633 0.413135 0.015835 -0.224078
  7 -0.000011 -0.000008 -7.282917 0.000000 -0.000000 0.000000
  8 11.803269 0.236666 -45.319954 0.331671 -0.000897 0.005359
  9 0.812341 4.273239 -49.223568 0.500587 -0.086837 0.280714
 10 0.000006 0.000002 -7.282927 0.000000 -0.000000 0.000000
 11 -0.009392 0.029593 10.838303 -0.013539 0.000149 0.310898
 12 -16.431313 3.246382 32.898743 0.086807 -0.120406 -0.352888
 13 -12.321596 -2.201922 -17.125488 -0.064864 -0.002796 0.047118
 14 -13.252192 -2.413309 -18.422241 0.000236 -0.002214 -0.000000
 15 -3.868650 -0.832968 -6.257828 0.000000 -0.000000 0.000000
 16 -37.279175 -5.051147 -38.191170 0.000000 -0.000000 0.000000
 17 -3.806087 -1.056421 -7.595856 0.000000 -0.000000 0.000000
 18 16.442677 3.189070 32.898758 0.094489 0.163783 -0.271255
 19 12.313793 -2.244882 -17.125641 0.000000 -0.000000 0.000000
 20 13.243649 -2.459518 -18.422226 0.014671 -0.002577 -0.020361
 21 4.038897 -0.928109 -8.488220 0.000000 -0.000000 0.000000
 22 -0.000701 -0.454960 46.067261 0.064449 0.012978 -0.245855
 23 -0.489964 22.757847 18.761993 0.000000 -0.000000 0.000000
 24 0.260405 -19.713406 -182.090958 0.000000 -0.000000 0.000000
 25 -16.518959 9.856460 11.602493 0.000000 -0.000000 0.000000
 26 12.687090 8.730805 11.180984 0.000000 -0.000000 0.000000
 27 -0.009703 -4.696533 26.700012 0.000000 -0.000000 0.000000
 28 -0.000042 -0.005974 23.601578 0.000000 -0.000000 0.000000
 29 -21.531239 -10.281178 -6.106491 0.000000 0.000000 0.000000
 30 6.667688 -19.285315 -6.979950 -0.209009 -0.013525 0.001735
 31 21.613550 5.850677 -6.561745 0.000000 0.000000 0.000000
 32 -0.490766 19.244427 -5.608505 0.000000 -0.000000 0.000000
 33 12.172537 -7.748503 -10.307098 0.000000 0.000000 0.000000
 34 -12.668402 -7.748503 -10.702652 -0.000000 -0.000000 -0.000000
 35 -0.490773 14.424884 -10.375053 0.000000 0.000000 -0.000000
time 24
  0 0.768169 -0.850492 1.544617 0.000000 -0.000000 0.000000
  1 0.768169 -0.850492 1.544617 0.000000 -0.000000 0.000000
  2 0.984829 -7.246327 246.548599 0.000000 -0.000000 0.000000
  3 0.998367 -3.471023 1.599335 0.000000 -0.000000 0.000000
  4 0.998361 -3.471023 133.179581 -0.117059 -0.008236 -0.066190
  5 -11.802615 0.277828 -45.319946 0.687977 0.001933 -0.011145
  6 -0.797637 4.275993 -49.223633 0.410226 0.015423 -0.222068
  7 -0.000011 -0.000008 -7.282915 0.000000 -0.000000 0.000000
  8 11.803268 0.236668 -45.319954 0.331195 -0.000895 0.005352
  9 0.812340 4.273237 -49.223579 0.494877 -0.085525 0.278522
 10 0.000006 0.000008 -7.282927 0.000000 -0.000000 0.000000
 11 -0.009316 0.029615 10.838333 -0.011994 0.000132 0.308133
 12 -16.431313 3.246380 32.898758 0.085689 -0.116545 -0.351578
 13 -12.321597 -2.201922 -17.125488 -0.063732 -0.002771 0.046308
 14 -13.252193 -2.413303 -18.422241 0.000209 -0.001962 -0.000000
 15 -3.868652 -0.832966 -6.257858 0.000000 -0.000000 0.000000
 16 -37.279182 -5.051144 -38.191177 0.000000 -0.000000 0.000000
 17 -3.806089 -1.056419 -7.595871 0.000000 -0.000000 0.000000
 18 16.442673 3.189062 32.898758 0.092224 0.159020 -0.270620
 19 12.313792 -2.244882 -17.125641 0.000000 -0.000000 0.000000
 20 13.243649 -2.459518 -18.422241 0.014671 -0.002577 -0.020361
 21 4.038898 -0.928109 -8.488220 0.000000 -0.000000 0.000000
 22 -0.000703 -0.454964 46.067261 0.057053 0.009852 -0.245486
 23 -0.489967 22.757835 18.761978 0.000000 -0.000000 0.000000
 24 0.260410 -19.713379 -182.090973 0.000000 -0.000000 0.000000
 25 -16.518959 9.856456 11.602493 0.000000 -0.000000 0.000000
 26 12.687088 8.730798 11.181000 0.000000 -0.000000 0.000000
 27 -0.009703 -4.696532 26.699997 0.000000 -0.000000 0.000000
 28 -0.000043 -0.005978 23.601578 0.000000 -0.000000 0.000000
 29 -21.531239 -10.281178 -6.106491 0.000000 0.000000 0.000000
 30 6.667688 -19.285313 -6.979942 -0.209009 -0.013525 0.001735
 31 21.613548 5.850676 -6.561737 -0.000000 0.000000 0.000000
 32 -0.490767 19.244429 -5.608505 0.000000 -0.000000 0.000000
 33 12.172536 -7.748501 -10.307098 0.000000 0.000000 -0.000000
 34 -12.668401 -7.748501 -10.702644 0.000000 0.000000 -0.000000
 35 -0.490774 14.424885 -10.375061 0.000000 0.000000 -0.000000
time 25
  0 0.768169 -0.850492 1.544617 0.000000 -0.000000 0.000000
  1 0.768169 -0.850492 1.544617 0.000000 -0.000000 0.000000
  2 0.984829 -7.246327 246.548599 0.000000 -0.000000 0.000000
  3 0.998367 -3.471023 1.599335 0.000000 -0.000000 0.000000
  4 0.998361 -3.471023 133.478958 -0.115264 -0.008287 -0.065871
  5 -11.802616 0.277826 -45.319946 0.672713 0.001813 -0.010913
  6 -0.797637 4.276001 -49.223648 0.407134 0.014824 -0.219770
  7 -0.000011 -0.000004 -7.282917 0.000000 -0.000000 0.000000
  8 11.803268 0.236668 -45.319954 0.330843 -0.000893 0.005347
  9 0.812340 4.273237 -49.223579 0.488223 -0.083991 0.276140
 10 0.000006 0.000004 -7.282928 0.000000 -0.000000 0.000000
 11 -0.009232 0.029642 10.838425 -0.009751 0.000107 0.305043
 12 -16.431313 3.246386 32.898758 0.084364 -0.110939 -0.350546
 13 -12.321598 -2.201923 -17.125488 -0.062087 -0.002734 0.045131
 14 -13.252197 -2.413309 -18.422226 0.000170 -0.001595 -0.000000
 15 -3.868647 -0.832966 -6.257858 0.000000 -0.000000 0.000000
 16 -37.279182 -5.051151 -38.191162 0.000000 -0.000000 0.000000
 17 -3.806091 -1.056421 -7.595871 0.000000 -0.000000 0.000000
 18 16.442673 3.189066 32.898758 0.088935 0.152103 -0.270160
 19 12.313790 -2.244883 -17.125641 0.000000 -0.000000 0.000000
 20 13.243650 -2.459518 -18.422226 0.014671 -0.002577 -0.020361
 21 4.038898 -0.928109 -8.488220 0.000000 -0.000000 0.000000
 22 -0.000701 -0.454960 46.067261 0.046315 0.005429 -0.245218
 23 -0.489966 22.757843 18.761978 0.000000 -0.000000 0.000000
 24 0.260405 -19.713398 -182.090942 0.000000 -0.000000 0.000000
 25 -16.518959 9.856458 11.602493 0.000000 -0.000000 0.000000
 26 12.687089 8.730803 11.180984 0.000000 -0.000000 0.000000
 27 -0.009702 -4.696533 26.699997 0.000000 -0.000000 0.000000
 28 -0.000042 -0.005974 23.601578 0.000000 -0.000000 0.000000
 29 -21.531239 -10.281179 -6.106491 0.000000 0.000000 -0.000000
 30 6.667688 -19.285318 -6.979942 -0.209009 -0.013525 0.001735
 31 21.613548 5.850677 -6.561737 -0.000000 0.000000 0.000000
 32 -0.490766 19.244429 -5.608498 0.000000 -0.000000 0.000000
 33 12.172535 -7.748501 -10.307091 0.000000 0.000000 -0.000000
 34 -12.668402 -7.748503 -10.702637 0.000000 -0.000000 0.000000
 35 -0.490773 14.424887 -10.375053 0.000000 0.000000 0.000000
time 26
  0 0.768169 -0.850492 1.544617 0.000000 -0.000000 0.000000
  1 0.768169 -0.850492 1.544617 0.000000 -0.000000 0.000000
  2 0.984829 -7.246327 246.548599 0.000000 -0.000000 0.000000
  3 0.998367 -3.471023 1.599335 0.000000 -0.000000 0.000000
  4 0.998362 -3.471023 133.825974 -0.113184 -0.008345 -0.065540
  5 -11.802617 0.277824 -45.319939 0.655226 0.001674 -0.010644
  6 -0.797638 4.276009 -49.223625 0.404088 0.014130 -0.217402
  7 -0.000011 -0.000011 -7.282916 0.000000 -0.000000 0.000000
  8 11.803269 0.236664 -45.319939 0.330596 -0.000891 0.005343
  9 0.812340 4.273239 -49.223564 0.481290 -0.082392 0.273759
 10 0.000006 0.000008 -7.282925 0.000000 -0.000000 0.000000
 11 -0.009147 0.029667 10.838501 -0.007150 0.000079 0.301904
 12 -16.431313 3.246386 32.898758 0.082971 -0.104441 -0.349765
 13 -12.321595 -2.201922 -17.125473 -0.060181 -0.002692 0.043767
 14 -13.252186 -2.413303 -18.422256 0.000125 -0.001169 -0.000000
 15 -3.868649 -0.832964 -6.257858 0.000000 -0.000000 0.000000
 16 -37.279175 -5.051142 -38.191162 0.000000 -0.000000 0.000000
 17 -3.806087 -1.056419 -7.595856 0.000000 -0.000000 0.000000
 18 16.442673 3.189064 32.898788 0.085123 0.144086 -0.269848
 19 12.313791 -2.244883 -17.125656 0.000000 -0.000000 0.000000
 20 13.243654 -2.459519 -18.422226 0.014671 -0.002577 -0.020361
 21 4.038900 -0.928109 -8.488220 0.000000 -0.000000 0.000000
 22 -0.000701 -0.454958 46.067276 0.033867 0.000358 -0.245036
 23 -0.489966 22.757839 18.761978 0.000000 -0.000000 0.000000
 24 0.260405 -19.713402 -182.090942 0.000000 -0.000000 0.000000
 25 -16.518959 9.856460 11.602493 0.000000 -0.000000 0.000000
 26 12.687089 8.730802 11.180984 0.000000 -0.000000 0.000000
 27 -0.009702 -4.696530 26.699997 0.000000 -0.000000 0.000000
 28 -0.000042 -0.005974 23.601608 0.000000 -0.000000 0.000000
 29 -21.531240 -10.281178 -6.106483 0.000000 0.000000 -0.000000
 30 6.667687 -19.285316 -6.979942 -0.209009 -0.013525 0.001735
 31 21.613552 5.850676 -6.561729 -0.000000 0.000000 0.000000
 32 -0.490766 19.244427 -5.608490 0.000000 -0.000000 0.000000
 33 12.172538 -7.748501 -10.307083 0.000000 0.000000 -0.000000
 34 -12.668403 -7.748501 -10.702644 0.000000 -0.000000 0.000000
 35 -0.490773 14.424882 -10.375038 0.000000 0.000000 0.000000
time 27
  0 0.768169 -0.850492 1.544617 0.000000 -0.000000 0.000000
  1 0.768169 -0.850492 1.544617 0.000000 -0.000000 0.000000
  2 0.984829 -7.246327 246.548599 0.000000 -0.000000 0.000000
  3 0.998367 -3.471023 1.599335 0.000000 -0.000000 0.000000
  4 0.998363 -3.471023 134.175140 -0.111091 -0.008404 -0.065227
  5 -11.802616 0.277824 -45.319962 0.637746 0.001536 -0.010373
  6 -0.797636 4.276001 -49.223640 0.401318 0.013432 -0.215181
  7 -0.000013 -0.000008 -7.282918 0.000000 -0.000000 0.000000
  8 11.803268 0.236668 -45.319962 0.330437 -0.000891 0.005341
  9 0.812340 4.273237 -49.223579 0.474741 -0.080879 0.271574
 10 0.000002 0.000004 -7.282930 0.000000 -0.000000 0.000000
 11 -0.009069 0.029690 10.838562 -0.004534 0.000050 0.298987
 12 -16.431313 3.246382 32.898773 0.081648 -0.097903 -0.349206
 13 -12.321598 -2.201922 -17.125488 -0.058263 -0.002650 0.042395
 14 -13.252195 -2.413303 -18.422241 0.000079 -0.000741 -0.000000
 15 -3.868645 -0.832964 -6.257874 0.000000 -0.000000 0.000000
 16 -37.279182 -5.051144 -38.191170 0.000000 -0.000000 0.000000
 17 -3.806087 -1.056421 -7.595871 0.000000 -0.000000 0.000000
 18 16.442675 3.189062 32.898773 0.081287 0.136019 -0.269654
 19 12.313794 -2.244883 -17.125641 0.000000 -0.000000 0.000000
 20 13.243647 -2.459519 -18.422241 0.014671 -0.002577 -0.020361
 21 4.038897 -0.928109 -8.488220 0.000000 -0.000000 0.000000
 22 -0.000701 -0.454964 46.067276 0.021343 -0.004713 -0.244921
 23 -0.489966 22.757839 18.761993 0.000000 -0.000000 0.000000
 24 0.260402 -19.713383 -182.090988 0.000000 -0.000000 0.000000
 25 -16.518961 9.856459 11.602493 0.000000 -0.000000 0.000000
 26 12.687093 8.730800 11.181015 0.000000 -0.000000 0.000000
 27 -0.009702 -4.696532 26.700012 0.000000 -0.000000 0.000000
 28 -0.000042 -0.005976 23.601593 0.000000 -0.000000 0.000000
 29 -21.531239 -10.281179 -6.106499 0.000000 0.000000 0.000000
 30 6.667688 -19.285316 -6.979950 -0.209009 -0.013525 0.001735
 31 21.613552 5.850676 -6.561745 -0.000000 0.000000 0.000000
 32 -0.490766 19.244427 -5.608505 0.000000 -0.000000 0.000000
 33 12.172537 -7.748501 -10.307106 0.000000 0.000000 0.000000
 34 -12.668402 -7.748505 -10.702652 0.000000 -0.000000 0.000000
 35 -0.490773 14.424882 -10.375061 0.000000 0.000000 0.000000
time 28
  0 0.768169 -0.850492 1.544617 0.000000 -0.000000 0.000000
  1 0.768169 -0.850492 1.544617 0.000000 -0.000000 0.000000
  2 0.984829 -7.246327 246.548599 0.000000 -0.000000 0.000000
  3 0.998367 -3.471023 1.599335 0.000000 -0.000000 0.000000
  4 0.998363 -3.471023 134.480911 -0.109257 -0.008456 -0.064964
  5 -11.802616 0.277826 -45.319946 0.622501 0.001414 -0.010136
  6 -0.797640 4.276009 -49.223633 0.399054 0.012820 -0.213326
  7 -0.000013 0.000000 -7.282915 0.000000 -0.000000 0.000000
  8 11.803269 0.236666 -45.319946 0.330346 -0.000890 0.005340
  9 0.812339 4.273240 -49.223576 0.469242 -0.079608 0.269774
 10 0.000006 0.000006 -7.282927 0.000000 -0.000000 0.000000
 11 -0.009006 0.029711 10.838638 -0.002242 0.000025 0.296565
 12 -16.431313 3.246383 32.898773 0.080532 -0.092177 -0.348841
 13 -12.321598 -2.201923 -17.125473 -0.056584 -0.002613 0.041193
 14 -13.252193 -2.413305 -18.422256 0.000039 -0.000367 -0.000000
 15 -3.868654 -0.832966 -6.257843 0.000000 -0.000000 0.000000
 16 -37.279175 -5.051149 -38.191170 0.000000 -0.000000 0.000000
 17 -3.806093 -1.056421 -7.595871 0.000000 -0.000000 0.000000
 18 16.442677 3.189068 32.898758 0.077928 0.128955 -0.269551
 19 12.313793 -2.244883 -17.125641 0.000000 -0.000000 0.000000
 20 13.243645 -2.459519 -18.422241 0.014671 -0.002577 -0.020361
 21 4.038898 -0.928110 -8.488205 0.000000 -0.000000 0.000000
 22 -0.000701 -0.454960 46.067261 0.010375 -0.009138 -0.244860
 23 -0.489966 22.757843 18.761978 0.000000 -0.000000 0.000000
 24 0.260401 -19.713398 -182.090973 0.000000 -0.000000 0.000000
 25 -16.518959 9.856460 11.602509 0.000000 -0.000000 0.000000
 26 12.687088 8.730802 11.180984 0.000000 -0.000000 0.000000
 27 -0.009701 -4.696535 26.700012 0.000000 -0.000000 0.000000
 28 -0.000042 -0.005976 23.601593 0.000000 -0.000000 0.000000
 29 -21.531239 -10.281178 -6.106483 0.000000 0.000000 0.000000
 30 6.667689 -19.285315 -6.979958 -0.209009 -0.013525 0.001735
 31 21.613550 5.850675 -6.561752 0.000000 0.000000 0.000000
 32 -0.490767 19.244427 -5.608498 0.000000 -0.000000 0.000000
 33 12.172538 -7.748503 -10.307091 0.000000 0.000000 -0.000000
 34 -12.668401 -7.748503 -10.702644 0.000000 0.000000 0.000000
 35 -0.490775 14.424884 -10.375053 0.000000 0.000000 -0.000000
time 29
  0 0.768169 -0.850492 1.544617 0.000000 -0.000000 0.000000
  1 0.768169 -0.850492 1.544617 0.000000 -0.000000 0.000000
  2 0.984829 -7.246327 246.548599 0.000000 -0.000000 0.000000
  3 0.998367 -3.471023 1.599335 0.000000 -0.000000 0.000000
  4 0.998363 -3.471023 134.697754 -0.107957 -0.008492 -0.064783
  5 -11.802615 0.277830 -45.319946 0.611719 0.001329 -0.009967
  6 -0.797638 4.276009 -49.223648 0.397528 0.012387 -0.212053
  7 -0.000013 -0.000008 -7.282915 0.000000 -0.000000 0.000000
  8 11.803269 0.236670 -45.319954 0.330305 -0.000890 0.005339
  9 0.812339 4.273239 -49.223576 0.465455 -0.078732 0.268554
 10 0.000004 0.000004 -7.282927 0.000000 -0.000000 0.000000
 11 -0.008962 0.029724 10.838684 -0.000617 0.000007 0.294912
 12 -16.431311 3.246382 32.898773 0.079761 -0.088116 -0.348642
 13 -12.321599 -2.201921 -17.125488 -0.055392 -0.002587 0.040340
 14 -13.252192 -2.413305 -18.422256 0.000011 -0.000101 -0.000000
 15 -3.868649 -0.832966 -6.257858 0.000000 -0.000000 0.000000
 16 -37.279190 -5.051142 -38.191177 0.000000 -0.000000 0.000000
 17 -3.806091 -1.056419 -7.595886 0.000000 -0.000000 0.000000
 18 16.442669 3.189062 32.898788 0.075546 0.123945 -0.269510
 19 12.313791 -2.244882 -17.125641 0.000000 -0.000000 0.000000
 20 13.243649 -2.459517 -18.422241 0.014671 -0.002577 -0.020361
 21 4.038900 -0.928109 -8.488220 0.000000 -0.000000 0.000000
 22 -0.000702 -0.454962 46.067261 0.002596 -0.012267 -0.244835
 23 -0.489968 22.757832 18.761978 0.000000 -0.000000 0.000000
 24 0.260404 -19.713367 -182.090973 0.000000 -0.000000 0.000000
 25 -16.518959 9.856456 11.602493 0.000000 -0.000000 0.000000
 26 12.687087 8.730794 11.181000 0.000000 -0.000000 0.000000
 27 -0.009701 -4.696537 26.699997 0.000000 -0.000000 0.000000
 28 -0.000043 -0.005978 23.601608 0.000000 -0.000000 0.000000
 29 -21.531240 -10.281174 -6.106483 0.000000 0.000000 -0.000000
 30 6.667689 -19.285313 -6.979935 -0.209009 -0.013525 0.001735
 31 21.613548 5.850676 -6.561745 -0.000000 0.000000 0.000000
 32 -0.490767 19.244427 -5.608498 0.000000 -0.000000 0.000000
 33 12.172536 -7.748501 -10.307091 0.000000 0.000000 0.000000
 34 -12.668401 -7.748501 -10.702644 0.000000 -0.000000 0.000000
 35 -0.490774 14.424885 -10.375053 0.000000 0.000000 -0.000000
time 30
  0 0.768169 -0.850492 1.544617 0.000000 -0.000000 0.000000
  1 0.768169 -0.850492 1.544617 0.000000 -0.000000 0.000000
  2 0.984829 -7.246327 246.548599 0.000000 -0.000000 0.000000
  3 0.998367 -3.471023 1.599335 0.000000 -0.000000 0.000000
  4 0.998364 -3.471023 134.780151 -0.107463 -0.008506 -0.064715
  5 -11.802616 0.277824 -45.319946 0.607630 0.001296 -0.009903
  6 -0.797637 4.276005 -49.223637 0.396968 0.012222 -0.211580
  7 -0.000011 -0.000004 -7.282917 0.000000 -0.000000 0.000000
  8 11.803267 0.236668 -45.319946 0.330295 -0.000890 0.005339
  9 0.812341 4.273239 -49.223564 0.464045 -0.078406 0.268104
 10 0.000004 0.000008 -7.282925 0.000000 -0.000000 0.000000
 11 -0.008946 0.029730 10.838699 0.000000 -0.000000 0.294300
 12 -16.431311 3.246382 32.898788 0.079474 -0.086573 -0.348582
 13 -12.321600 -2.201924 -17.125488 -0.054940 -0.002577 0.040016
 14 -13.252193 -2.413307 -18.422241 0.000000 -0.000000 0.000000
 15 -3.868652 -0.832966 -6.257858 0.000000 -0.000000 0.000000
 16 -37.279182 -5.051155 -38.191154 0.000000 -0.000000 0.000000
 17 -3.806093 -1.056421 -7.595871 0.000000 -0.000000 0.000000
 18 16.442678 3.189070 32.898758 0.074641 0.122041 -0.269503
 19 12.313789 -2.244882 -17.125641 0.000000 -0.000000 0.000000
 20 13.243645 -2.459518 -18.422241 0.014671 -0.002577 -0.020361
 21 4.038897 -0.928110 -8.488220 0.000000 -0.000000 0.000000
 22 -0.000699 -0.454958 46.067261 -0.000360 -0.013454 -0.244830
 23 -0.489963 22.757845 18.762009 0.000000 -0.000000 0.000000
 24 0.260394 -19.713402 -182.090958 0.000000 -0.000000 0.000000
 25 -16.518961 9.856457 11.602509 0.000000 -0.000000 0.000000
 26 12.687092 8.730803 11.181015 0.000000 -0.000000 0.000000
 27 -0.009701 -4.696531 26.700012 0.000000 -0.000000 0.000000
 28 -0.000041 -0.005974 23.601578 0.000000 -0.000000 0.000000
 29 -21.531242 -10.281178 -6.106499 0.000000 0.000000 -0.000000
 30 6.667686 -19.285313 -6.979942 -0.209009 -0.013525 0.001735
 31 21.613552 5.850679 -6.561745 0.000000 0.000000 0.000000
 32 -0.490764 19.244427 -5.608505 0.000000 -0.000000 0.000000
 33 12.172536 -7.748501 -10.307091 0.000000 0.000000 0.000000
 34 -12.668404 -7.748503 -10.702644 0.000000 -0.000000 0.000000
 35 -0.490772 14.424883 -10.375053 0.000000 0.000000 -0.000000
end
