version 1
nodes
  0 "Tube001"  -1
  1 "Bone009"  -1
  2 "Bone008"   1
  3 "Bone007"   2
  4 "Bone006"   3
  5 "Bone005"   4
  6 "Bone004"   5
  7 "Bone003"   6
  8 "Bone002"   7
  9 "Bone001"   8
 10 "Bone019"   9
 11 "Bone010"   1
 12 "Bone011"  11
 13 "Bone012"  12
 14 "Bone013"  13
 15 "Bone014"  14
 16 "Bone015"  15
 17 "Bone016"  16
 18 "Bone017"  17
 19 "Bone018"  18
end
skeleton
time 0
  0 0.000000 0.000000 0.000000 0.000000 1.570796 0.000000
  1 0.000000 0.000000 0.000000 0.000000 -1.570796 0.000000
  2 0.000000 0.000000 0.000000 0.000000 0.000000 0.000000
  3 0.000000 0.000000 0.000000 0.000000 0.000000 0.000000
  4 0.000000 0.000000 0.000000 0.000000 0.000000 0.000000
  5 0.000000 0.000000 0.000000 0.000000 0.000000 0.000000
  6 0.000000 0.000000 0.000000 0.000000 0.000000 0.000000
  7 0.000000 0.000000 0.000000 0.000000 0.000000 0.000000
  8 0.000000 0.000000 0.000000 0.000000 0.000000 0.000000
  9 0.000000 0.000000 0.000000 0.000000 0.000000 0.000000
 10 0.000000 0.000000 0.000000 0.000000 0.000000 0.000000
 11 0.000000 0.000000 0.000000 0.000000 0.000000 0.000000
 12 0.000000 0.000000 0.000000 0.000000 -0.000000 0.000000
 13 0.000000 0.000000 0.000000 0.000000 -0.000000 0.000000
 14 0.000000 0.000000 0.000000 0.000000 -0.000000 0.000000
 15 0.000000 0.000000 0.000000 0.000000 -0.000000 0.000000
 16 0.000000 0.000000 0.000000 0.000000 0.000000 0.000001
 17 0.000000 0.000000 0.000000 0.000000 0.000000 0.000000
 18 0.000000 0.000000 0.000000 0.000000 0.000000 0.000001
 19 0.000000 0.000000 0.000000 0.000000 0.000000 0.000001
time 1
  0 0.000000 0.000000 0.000000 0.000000 1.570796 0.000000
  1 0.000000 0.000000 0.000000 0.000000 -1.570796 0.000000
  2 0.000000 0.000000 0.000000 0.000000 0.000000 0.027271
  3 0.000000 0.000000 0.000000 0.000000 0.000000 0.000000
  4 0.000000 0.000000 0.000000 0.000000 0.000000 0.000000
  5 0.000000 0.000000 0.000000 0.000000 0.000000 0.000000
  6 0.000000 0.000000 0.000000 0.000000 0.000000 0.000000
  7 0.000000 0.000000 0.000000 0.000000 0.000000 0.000000
  8 0.000000 0.000000 0.000000 0.000000 0.000000 0.000000
  9 0.000000 0.000000 0.000000 0.000000 0.000000 0.000000
 10 0.000000 0.000000 0.000000 0.000000 0.000000 -0.000031
 11 0.000000 0.000000 0.000000 0.000000 -0.000000 -0.027271
 12 0.000000 0.000000 0.000000 0.000000 0.000000 0.000000
 13 0.000000 0.000000 0.000000 0.000000 -0.000000 0.000000
 14 0.000000 0.000000 0.000000 0.000000 0.000000 0.000000
 15 0.000000 0.000000 0.000000 0.000000 0.000000 0.000000
 16 0.000000 0.000000 0.000000 0.000000 0.000000 0.000001
 17 0.000000 0.000000 0.000000 0.000000 -0.000000 0.000000
 18 0.000000 0.000000 0.000000 0.000000 -0.000000 0.000001
 19 0.000000 0.000000 0.000000 0.000000 0.000000 0.000001
time 2
  0 0.000000 0.000000 0.000000 0.000000 1.570796 0.000000
  1 0.000000 0.000000 0.000000 0.000000 -1.570796 0.000000
  2 0.000000 0.000000 0.000000 0.000000 0.000000 0.087267
  3 0.000000 0.000000 0.000000 0.000000 0.000000 0.000000
  4 0.000000 0.000000 0.000000 0.000000 0.000000 0.000000
  5 0.000000 0.000000 0.000000 0.000000 0.000000 0.000000
  6 0.000000 0.000000 0.000000 0.000000 0.000000 0.000000
  7 0.000000 0.000000 0.000000 0.000000 0.000000 0.000000
  8 0.000000 0.000000 0.000000 0.000000 0.000000 0.000000
  9 0.000000 0.000000 0.000000 0.000000 0.000000 0.000000
 10 0.000000 0.000000 0.000000 0.000000 0.000000 -0.000121
 11 0.000000 0.000000 0.000000 0.000000 0.000000 -0.087266
 12 0.000000 0.000000 0.000000 0.000000 0.000000 0.000000
 13 0.000000 0.000000 0.000000 0.000000 -0.000000 0.000000
 14 0.000000 0.000000 0.000000 0.000000 -0.000000 0.000000
 15 0.000000 0.000000 0.000000 0.000000 -0.000000 0.000000
 16 0.000000 0.000000 0.000000 0.000000 0.000000 0.000001
 17 0.000000 0.000000 0.000000 0.000000 -0.000000 0.000000
 18 0.000000 0.000000 0.000000 0.000000 0.000000 0.000001
 19 0.000000 0.000000 0.000000 0.000000 0.000000 0.000001
time 3
  0 0.000000 0.000000 0.000000 0.000000 1.570796 0.000000
  1 0.000000 0.000000 0.000000 0.000000 -1.570796 0.000000
  2 0.000000 0.000000 0.000000 0.000000 0.000000 0.147262
  3 0.000000 0.000000 0.000000 0.000000 0.000000 0.000000
  4 0.000000 0.000000 0.000000 0.000000 0.000000 0.000000
  5 0.000000 0.000000 0.000000 0.000000 0.000000 0.000000
  6 0.000000 0.000000 0.000000 0.000000 0.000000 0.000000
  7 0.000000 0.000000 0.000000 0.000000 0.000000 0.000000
  8 0.000000 0.000000 0.000000 0.000000 0.000000 0.000000
  9 0.000000 0.000000 0.000000 0.000000 0.000000 0.000000
 10 0.000000 0.000000 0.000000 0.000000 0.000000 -0.000265
 11 0.000000 0.000000 0.000000 0.000000 0.000000 -0.147262
 12 0.000000 0.000000 0.000000 0.000000 0.000000 0.000000
 13 0.000000 0.000000 0.000000 0.000000 0.000000 0.000000
 14 0.000000 0.000000 0.000000 0.000000 0.000000 0.000000
 15 0.000000 0.000000 0.000000 0.000000 0.000000 0.000000
 16 0.000000 0.000000 0.000000 0.000000 0.000000 0.000001
 17 0.000000 0.000000 0.000000 0.000000 -0.000000 0.000000
 18 0.000000 0.000000 0.000000 0.000000 -0.000000 0.000001
 19 0.000000 0.000000 0.000000 0.000000 0.000000 0.000001
time 4
  0 0.000000 0.000000 0.000000 0.000000 1.570796 0.000000
  1 0.000000 0.000000 0.000000 0.000000 -1.570796 0.000000
  2 0.000000 0.000000 0.000000 0.000000 0.000000 0.174533
  3 0.000000 0.000000 0.000000 0.000000 0.000000 0.000000
  4 0.000000 0.000000 0.000000 0.000000 0.000000 0.000000
  5 0.000000 0.000000 0.000000 0.000000 0.000000 0.000000
  6 0.000000 0.000000 0.000000 0.000000 0.000000 0.000000
  7 0.000000 0.000000 0.000000 0.000000 0.000000 0.000000
  8 0.000000 0.000000 0.000000 0.000000 0.000000 0.000000
  9 0.000000 0.000000 0.000000 0.000000 0.000000 0.000000
 10 0.000000 0.000000 0.000000 0.000000 0.000000 -0.000458
 11 0.000000 0.000000 0.000000 0.000000 0.000000 -0.174533
 12 0.000000 0.000000 0.000000 0.000000 0.000000 0.000000
 13 0.000000 0.000000 0.000000 0.000000 -0.000000 0.000000
 14 0.000000 0.000000 0.000000 0.000000 -0.000000 0.000000
 15 0.000000 0.000000 0.000000 0.000000 0.000000 0.000000
 16 0.000000 0.000000 0.000000 0.000000 0.000000 0.000001
 17 0.000000 0.000000 0.000000 0.000000 -0.000000 0.000000
 18 0.000000 0.000000 0.000000 0.000000 -0.000000 0.000001
 19 0.000000 0.000000 0.000000 0.000000 0.000000 0.000001
time 5
  0 0.000000 0.000000 0.000000 0.000000 1.570796 0.000000
  1 0.000000 0.000000 0.000000 0.000000 -1.570796 0.000000
  2 0.000000 0.000000 0.000000 0.000000 0.000000 0.174533
  3 0.000000 0.000000 0.000000 0.000000 0.000000 0.045249
  4 0.000000 0.000000 0.000000 0.000000 0.000000 0.000000
  5 0.000000 0.000000 0.000000 0.000000 0.000000 0.000000
  6 0.000000 0.000000 0.000000 0.000000 0.000000 0.000000
  7 0.000000 0.000000 0.000000 0.000000 0.000000 0.000000
  8 0.000000 0.000000 0.000000 0.000000 0.000000 0.000000
  9 0.000000 0.000000 0.000000 0.000000 0.000000 0.000000
 10 0.000000 0.000000 0.000000 0.000000 0.000000 -0.000695
 11 0.000000 0.000000 0.000000 0.000000 0.000000 -0.174533
 12 0.000000 0.000000 0.000000 0.000000 -0.000000 -0.045249
 13 0.000000 0.000000 0.000000 0.000000 0.000000 0.000000
 14 0.000000 0.000000 0.000000 0.000000 -0.000000 0.000000
 15 0.000000 0.000000 0.000000 0.000000 0.000000 0.000000
 16 0.000000 0.000000 0.000000 0.000000 0.000000 0.000001
 17 0.000000 0.000000 0.000000 0.000000 0.000000 0.000000
 18 0.000000 0.000000 0.000000 0.000000 0.000000 0.000001
 19 0.000000 0.000000 0.000000 0.000000 0.000000 0.000001
time 6
  0 0.000000 0.000000 0.000000 0.000000 1.570796 0.000000
  1 0.000000 0.000000 0.000000 0.000000 -1.570796 0.000000
  2 0.000000 0.000000 0.000000 0.000000 0.000000 0.174533
  3 0.000000 0.000000 0.000000 0.000000 0.000000 0.129284
  4 0.000000 0.000000 0.000000 0.000000 0.000000 0.000000
  5 0.000000 0.000000 0.000000 0.000000 0.000000 0.000000
  6 0.000000 0.000000 0.000000 0.000000 0.000000 0.000000
  7 0.000000 0.000000 0.000000 0.000000 0.000000 0.000000
  8 0.000000 0.000000 0.000000 0.000000 0.000000 0.000000
  9 0.000000 0.000000 0.000000 0.000000 0.000000 0.000000
 10 0.000000 0.000000 0.000000 0.000000 0.000000 -0.000971
 11 0.000000 0.000000 0.000000 0.000000 0.000000 -0.174533
 12 0.000000 0.000000 0.000000 0.000000 0.000000 -0.129283
 13 0.000000 0.000000 0.000000 0.000000 0.000000 0.000000
 14 0.000000 0.000000 0.000000 0.000000 0.000000 0.000000
 15 0.000000 0.000000 0.000000 0.000000 0.000000 0.000000
 16 0.000000 0.000000 0.000000 0.000000 0.000000 0.000001
 17 0.000000 0.000000 0.000000 0.000000 -0.000000 0.000000
 18 0.000000 0.000000 0.000000 0.000000 0.000000 0.000001
 19 0.000000 0.000000 0.000000 0.000000 0.000000 0.000001
time 7
  0 0.000000 0.000000 0.000000 0.000000 1.570796 0.000000
  1 0.000000 0.000000 0.000000 0.000000 -1.570796 0.000000
  2 0.000000 0.000000 0.000000 0.000000 0.000000 0.174533
  3 0.000000 0.000000 0.000000 0.000000 0.000000 0.174533
  4 0.000000 0.000000 0.000000 0.000000 0.000000 0.000000
  5 0.000000 0.000000 0.000000 0.000000 0.000000 0.000000
  6 0.000000 0.000000 0.000000 0.000000 0.000000 0.000000
  7 0.000000 0.000000 0.000000 0.000000 0.000000 0.000000
  8 0.000000 0.000000 0.000000 0.000000 0.000000 0.000000
  9 0.000000 0.000000 0.000000 0.000000 0.000000 0.000000
 10 0.000000 0.000000 0.000000 0.000000 0.000000 -0.001282
 11 0.000000 0.000000 0.000000 0.000000 0.000000 -0.174533
 12 0.000000 0.000000 0.000000 0.000000 0.000000 -0.174533
 13 0.000000 0.000000 0.000000 0.000000 0.000000 0.000000
 14 0.000000 0.000000 0.000000 0.000000 0.000000 0.000000
 15 0.000000 0.000000 0.000000 0.000000 0.000000 0.000000
 16 0.000000 0.000000 0.000000 0.000000 0.000000 0.000001
 17 0.000000 0.000000 0.000000 0.000000 0.000000 0.000000
 18 0.000000 0.000000 0.000000 0.000000 0.000000 0.000001
 19 0.000000 0.000000 0.000000 0.000000 0.000000 0.000001
time 8
  0 0.000000 0.000000 0.000000 0.000000 1.570796 0.000000
  1 0.000000 0.000000 0.000000 0.000000 -1.570796 0.000000
  2 0.000000 0.000000 0.000000 0.000000 0.000000 0.174533
  3 0.000000 0.000000 0.000000 0.000000 0.000000 0.174533
  4 0.000000 0.000000 0.000000 0.000000 0.000000 0.045249
  5 0.000000 0.000000 0.000000 0.000000 0.000000 0.000000
  6 0.000000 0.000000 0.000000 0.000000 0.000000 0.000000
  7 0.000000 0.000000 0.000000 0.000000 0.000000 0.000000
  8 0.000000 0.000000 0.000000 0.000000 0.000000 0.000000
  9 0.000000 0.000000 0.000000 0.000000 0.000000 0.000000
 10 0.000000 0.000000 0.000000 0.000000 0.000000 -0.001622
 11 0.000000 0.000000 0.000000 0.000000 0.000000 -0.174533
 12 0.000000 0.000000 0.000000 0.000000 0.000000 -0.174533
 13 0.000000 0.000000 0.000000 0.000000 -0.000000 -0.045249
 14 0.000000 0.000000 0.000000 0.000000 -0.000000 0.000000
 15 0.000000 0.000000 0.000000 0.000000 -0.000000 0.000000
 16 0.000000 0.000000 0.000000 0.000000 0.000000 0.000001
 17 0.000000 0.000000 0.000000 0.000000 -0.000000 0.000000
 18 0.000000 0.000000 0.000000 0.000000 -0.000000 0.000001
 19 0.000000 0.000000 0.000000 0.000000 0.000000 0.000001
time 9
  0 0.000000 0.000000 0.000000 0.000000 1.570796 0.000000
  1 0.000000 0.000000 0.000000 0.000000 -1.570796 0.000000
  2 0.000000 0.000000 0.000000 0.000000 0.000000 0.174533
  3 0.000000 0.000000 0.000000 0.000000 0.000000 0.174533
  4 0.000000 0.000000 0.000000 0.000000 0.000000 0.129284
  5 0.000000 0.000000 0.000000 0.000000 0.000000 0.000000
  6 0.000000 0.000000 0.000000 0.000000 0.000000 0.000000
  7 0.000000 0.000000 0.000000 0.000000 0.000000 0.000000
  8 0.000000 0.000000 0.000000 0.000000 0.000000 0.000000
  9 0.000000 0.000000 0.000000 0.000000 0.000000 0.000000
 10 0.000000 0.000000 0.000000 0.000000 0.000000 -0.001986
 11 0.000000 0.000000 0.000000 0.000000 0.000000 -0.174533
 12 0.000000 0.000000 0.000000 0.000000 0.000000 -0.174533
 13 0.000000 0.000000 0.000000 0.000000 -0.000000 -0.129283
 14 0.000000 0.000000 0.000000 0.000000 0.000000 0.000000
 15 0.000000 0.000000 0.000000 0.000000 0.000000 0.000000
 16 0.000000 0.000000 0.000000 0.000000 0.000000 0.000001
 17 0.000000 0.000000 0.000000 0.000000 -0.000000 0.000000
 18 0.000000 0.000000 0.000000 0.000000 -0.000000 0.000001
 19 0.000000 0.000000 0.000000 0.000000 0.000000 0.000001
time 10
  0 0.000000 0.000000 0.000000 0.000000 1.570796 0.000000
  1 0.000000 0.000000 0.000000 0.000000 -1.570796 0.000000
  2 0.000000 0.000000 0.000000 0.000000 0.000000 0.174533
  3 0.000000 0.000000 0.000000 0.000000 0.000000 0.174533
  4 0.000000 0.000000 0.000000 0.000000 0.000000 0.174533
  5 0.000000 0.000000 0.000000 0.000000 0.000000 0.000000
  6 0.000000 0.000000 0.000000 0.000000 0.000000 0.000000
  7 0.000000 0.000000 0.000000 0.000000 0.000000 0.000000
  8 0.000000 0.000000 0.000000 0.000000 0.000000 0.000000
  9 0.000000 0.000000 0.000000 0.000000 0.000000 0.000000
 10 0.000000 0.000000 0.000000 0.000000 0.000000 -0.002371
 11 0.000000 0.000000 0.000000 0.000000 0.000000 -0.174533
 12 0.000000 0.000000 0.000000 0.000000 0.000000 -0.174533
 13 0.000000 0.000000 0.000000 0.000000 0.000000 -0.174533
 14 0.000000 0.000000 0.000000 0.000000 0.000000 0.000000
 15 0.000000 0.000000 0.000000 0.000000 -0.000000 0.000000
 16 0.000000 0.000000 0.000000 0.000000 0.000000 0.000001
 17 0.000000 0.000000 0.000000 0.000000 -0.000000 0.000000
 18 0.000000 0.000000 0.000000 0.000000 -0.000000 0.000001
 19 0.000000 0.000000 0.000000 0.000000 0.000000 0.000001
time 11
  0 0.000000 0.000000 0.000000 0.000000 1.570796 0.000000
  1 0.000000 0.000000 0.000000 0.000000 -1.570796 0.000000
  2 0.000000 0.000000 0.000000 0.000000 0.000000 0.174533
  3 0.000000 0.000000 0.000000 0.000000 0.000000 0.174533
  4 0.000000 0.000000 0.000000 0.000000 0.000000 0.174533
  5 0.000000 0.000000 0.000000 0.000000 0.000000 0.027271
  6 0.000000 0.000000 0.000000 0.000000 0.000000 0.000000
  7 0.000000 0.000000 0.000000 0.000000 0.000000 0.000000
  8 0.000000 0.000000 0.000000 0.000000 0.000000 0.000000
  9 0.000000 0.000000 0.000000 0.000000 0.000000 0.000000
 10 0.000000 0.000000 0.000000 0.000000 0.000000 -0.002770
 11 0.000000 0.000000 0.000000 0.000000 0.000000 -0.174533
 12 0.000000 0.000000 0.000000 0.000000 0.000000 -0.174533
 13 0.000000 0.000000 0.000000 0.000000 0.000000 -0.174533
 14 0.000000 0.000000 0.000000 0.000000 -0.000000 -0.027271
 15 0.000000 0.000000 0.000000 0.000000 0.000000 0.000000
 16 0.000000 0.000000 0.000000 0.000000 0.000000 0.000001
 17 0.000000 0.000000 0.000000 0.000000 0.000000 0.000000
 18 0.000000 0.000000 0.000000 0.000000 0.000000 0.000001
 19 0.000000 0.000000 0.000000 0.000000 0.000000 0.000001
time 12
  0 0.000000 0.000000 0.000000 0.000000 1.570796 0.000000
  1 0.000000 0.000000 0.000000 0.000000 -1.570796 0.000000
  2 0.000000 0.000000 0.000000 0.000000 0.000000 0.174533
  3 0.000000 0.000000 0.000000 0.000000 0.000000 0.174533
  4 0.000000 0.000000 0.000000 0.000000 0.000000 0.174533
  5 0.000000 0.000000 0.000000 0.000000 0.000000 0.087267
  6 0.000000 0.000000 0.000000 0.000000 0.000000 0.000000
  7 0.000000 0.000000 0.000000 0.000000 0.000000 0.000000
  8 0.000000 0.000000 0.000000 0.000000 0.000000 0.000000
  9 0.000000 0.000000 0.000000 0.000000 0.000000 0.000000
 10 0.000000 0.000000 0.000000 0.000000 0.000000 -0.003178
 11 0.000000 0.000000 0.000000 0.000000 0.000000 -0.174533
 12 0.000000 0.000000 0.000000 0.000000 0.000000 -0.174533
 13 0.000000 0.000000 0.000000 0.000000 0.000000 -0.174533
 14 0.000000 0.000000 0.000000 0.000000 0.000000 -0.087266
 15 0.000000 0.000000 0.000000 0.000000 0.000000 0.000000
 16 0.000000 0.000000 0.000000 0.000000 0.000000 0.000001
 17 0.000000 0.000000 0.000000 0.000000 0.000000 0.000000
 18 0.000000 0.000000 0.000000 0.000000 0.000000 0.000001
 19 0.000000 0.000000 0.000000 0.000000 0.000000 0.000001
time 13
  0 0.000000 0.000000 0.000000 0.000000 1.570796 0.000000
  1 0.000000 0.000000 0.000000 0.000000 -1.570796 0.000000
  2 0.000000 0.000000 0.000000 0.000000 0.000000 0.174533
  3 0.000000 0.000000 0.000000 0.000000 0.000000 0.174533
  4 0.000000 0.000000 0.000000 0.000000 0.000000 0.174533
  5 0.000000 0.000000 0.000000 0.000000 0.000000 0.147262
  6 0.000000 0.000000 0.000000 0.000000 0.000000 0.000000
  7 0.000000 0.000000 0.000000 0.000000 0.000000 0.000000
  8 0.000000 0.000000 0.000000 0.000000 0.000000 0.000000
  9 0.000000 0.000000 0.000000 0.000000 0.000000 0.000000
 10 0.000000 0.000000 0.000000 0.000000 0.000000 -0.003592
 11 0.000000 0.000000 0.000000 0.000000 0.000000 -0.174533
 12 0.000000 0.000000 0.000000 0.000000 0.000000 -0.174533
 13 0.000000 0.000000 0.000000 0.000000 0.000000 -0.174533
 14 0.000000 0.000000 0.000000 0.000000 -0.000000 -0.147262
 15 0.000000 0.000000 0.000000 0.000000 0.000000 0.000000
 16 0.000000 0.000000 0.000000 0.000000 0.000000 0.000001
 17 0.000000 0.000000 0.000000 0.000000 0.000000 0.000000
 18 0.000000 0.000000 0.000000 0.000000 0.000000 0.000001
 19 0.000000 0.000000 0.000000 0.000000 0.000000 0.000001
time 14
  0 0.000000 0.000000 0.000000 0.000000 1.570796 0.000000
  1 0.000000 0.000000 0.000000 0.000000 -1.570796 0.000000
  2 0.000000 0.000000 0.000000 0.000000 0.000000 0.174533
  3 0.000000 0.000000 0.000000 0.000000 0.000000 0.174533
  4 0.000000 0.000000 0.000000 0.000000 0.000000 0.174533
  5 0.000000 0.000000 0.000000 0.000000 0.000000 0.174533
  6 0.000000 0.000000 0.000000 0.000000 0.000000 0.000000
  7 0.000000 0.000000 0.000000 0.000000 0.000000 0.000000
  8 0.000000 0.000000 0.000000 0.000000 0.000000 0.000000
  9 0.000000 0.000000 0.000000 0.000000 0.000000 0.000000
 10 0.000000 0.000000 0.000000 0.000000 0.000000 -0.004006
 11 0.000000 0.000000 0.000000 0.000000 0.000000 -0.174533
 12 0.000000 0.000000 0.000000 0.000000 0.000000 -0.174533
 13 0.000000 0.000000 0.000000 0.000000 0.000000 -0.174533
 14 0.000000 0.000000 0.000000 0.000000 0.000000 -0.174533
 15 0.000000 0.000000 0.000000 0.000000 0.000000 0.000000
 16 0.000000 0.000000 0.000000 0.000000 -0.000000 0.000001
 17 0.000000 0.000000 0.000000 0.000000 -0.000000 0.000000
 18 0.000000 0.000000 0.000000 0.000000 -0.000000 0.000001
 19 0.000000 0.000000 0.000000 0.000000 0.000000 0.000001
time 15
  0 0.000000 0.000000 0.000000 0.000000 1.570796 0.000000
  1 0.000000 0.000000 0.000000 0.000000 -1.570796 0.000000
  2 0.000000 0.000000 0.000000 0.000000 0.000000 0.174533
  3 0.000000 0.000000 0.000000 0.000000 0.000000 0.174533
  4 0.000000 0.000000 0.000000 0.000000 0.000000 0.174533
  5 0.000000 0.000000 0.000000 0.000000 0.000000 0.174533
  6 0.000000 0.000000 0.000000 0.000000 0.000000 0.045249
  7 0.000000 0.000000 0.000000 0.000000 0.000000 0.000000
  8 0.000000 0.000000 0.000000 0.000000 0.000000 0.000000
  9 0.000000 0.000000 0.000000 0.000000 0.000000 0.000000
 10 0.000000 0.000000 0.000000 0.000000 0.000000 -0.004414
 11 0.000000 0.000000 0.000000 0.000000 0.000000 -0.174533
 12 0.000000 0.000000 0.000000 0.000000 0.000000 -0.174533
 13 0.000000 0.000000 0.000000 0.000000 0.000000 -0.174533
 14 0.000000 0.000000 0.000000 0.000000 0.000000 -0.174533
 15 0.000000 0.000000 0.000000 0.000000 0.000000 -0.045249
 16 0.000000 0.000000 0.000000 0.000000 -0.000000 0.000001
 17 0.000000 0.000000 0.000000 0.000000 -0.000000 0.000000
 18 0.000000 0.000000 0.000000 0.000000 -0.000000 0.000001
 19 0.000000 0.000000 0.000000 0.000000 0.000000 0.000001
time 16
  0 0.000000 0.000000 0.000000 0.000000 1.570796 0.000000
  1 0.000000 0.000000 0.000000 0.000000 -1.570796 0.000000
  2 0.000000 0.000000 0.000000 0.000000 0.000000 0.174533
  3 0.000000 0.000000 0.000000 0.000000 0.000000 0.174533
  4 0.000000 0.000000 0.000000 0.000000 0.000000 0.174533
  5 0.000000 0.000000 0.000000 0.000000 0.000000 0.174533
  6 0.000000 0.000000 0.000000 0.000000 0.000000 0.129284
  7 0.000000 0.000000 0.000000 0.000000 0.000000 0.000000
  8 0.000000 0.000000 0.000000 0.000000 0.000000 0.000000
  9 0.000000 0.000000 0.000000 0.000000 0.000000 0.000000
 10 0.000000 0.000000 0.000000 0.000000 0.000000 -0.004813
 11 0.000000 0.000000 0.000000 0.000000 0.000000 -0.174533
 12 0.000000 0.000000 0.000000 0.000000 0.000000 -0.174533
 13 0.000000 0.000000 0.000000 0.000000 0.000000 -0.174533
 14 0.000000 0.000000 0.000000 0.000000 0.000000 -0.174533
 15 0.000000 0.000000 0.000000 0.000000 0.000000 -0.129283
 16 0.000000 0.000000 0.000000 0.000000 -0.000000 0.000001
 17 0.000000 0.000000 0.000000 0.000000 -0.000000 0.000000
 18 0.000000 0.000000 0.000000 0.000000 -0.000000 0.000001
 19 0.000000 0.000000 0.000000 0.000000 0.000000 0.000001
time 17
  0 0.000000 0.000000 0.000000 0.000000 1.570796 0.000000
  1 0.000000 0.000000 0.000000 0.000000 -1.570796 0.000000
  2 0.000000 0.000000 0.000000 0.000000 0.000000 0.174533
  3 0.000000 0.000000 0.000000 0.000000 0.000000 0.174533
  4 0.000000 0.000000 0.000000 0.000000 0.000000 0.174533
  5 0.000000 0.000000 0.000000 0.000000 0.000000 0.174533
  6 0.000000 0.000000 0.000000 0.000000 0.000000 0.174533
  7 0.000000 0.000000 0.000000 0.000000 0.000000 0.000000
  8 0.000000 0.000000 0.000000 0.000000 0.000000 0.000000
  9 0.000000 0.000000 0.000000 0.000000 0.000000 0.000000
 10 0.000000 0.000000 0.000000 0.000000 0.000000 -0.005198
 11 0.000000 0.000000 0.000000 0.000000 0.000000 -0.174533
 12 0.000000 0.000000 0.000000 0.000000 0.000000 -0.174533
 13 0.000000 0.000000 0.000000 0.000000 0.000000 -0.174533
 14 0.000000 0.000000 0.000000 0.000000 0.000000 -0.174533
 15 0.000000 0.000000 0.000000 0.000000 0.000000 -0.174533
 16 0.000000 0.000000 0.000000 0.000000 0.000000 0.000001
 17 0.000000 0.000000 0.000000 0.000000 0.000000 0.000000
 18 0.000000 0.000000 0.000000 0.000000 -0.000000 0.000001
 19 0.000000 0.000000 0.000000 0.000000 0.000000 0.000001
time 18
  0 0.000000 0.000000 0.000000 0.000000 1.570796 0.000000
  1 0.000000 0.000000 0.000000 0.000000 -1.570796 0.000000
  2 0.000000 0.000000 0.000000 0.000000 0.000000 0.174533
  3 0.000000 0.000000 0.000000 0.000000 0.000000 0.174533
  4 0.000000 0.000000 0.000000 0.000000 0.000000 0.174533
  5 0.000000 0.000000 0.000000 0.000000 0.000000 0.174533
  6 0.000000 0.000000 0.000000 0.000000 0.000000 0.174533
  7 0.000000 0.000000 0.000000 0.000000 0.000000 0.045249
  8 0.000000 0.000000 0.000000 0.000000 0.000000 0.000000
  9 0.000000 0.000000 0.000000 0.000000 0.000000 0.000000
 10 0.000000 0.000000 0.000000 0.000000 0.000000 -0.005562
 11 0.000000 0.000000 0.000000 0.000000 0.000000 -0.174533
 12 0.000000 0.000000 0.000000 0.000000 0.000000 -0.174533
 13 0.000000 0.000000 0.000000 0.000000 0.000000 -0.174533
 14 0.000000 0.000000 0.000000 0.000000 0.000000 -0.174533
 15 0.000000 0.000000 0.000000 0.000000 0.000000 -0.174533
 16 0.000000 0.000000 0.000000 0.000000 0.000000 -0.045249
 17 0.000000 0.000000 0.000000 0.000000 -0.000000 0.000000
 18 0.000000 0.000000 0.000000 0.000000 -0.000000 0.000001
 19 0.000000 0.000000 0.000000 0.000000 0.000000 0.000001
time 19
  0 0.000000 0.000000 0.000000 0.000000 1.570796 0.000000
  1 0.000000 0.000000 0.000000 0.000000 -1.570796 0.000000
  2 0.000000 0.000000 0.000000 0.000000 0.000000 0.174533
  3 0.000000 0.000000 0.000000 0.000000 0.000000 0.174533
  4 0.000000 0.000000 0.000000 0.000000 0.000000 0.174533
  5 0.000000 0.000000 0.000000 0.000000 0.000000 0.174533
  6 0.000000 0.000000 0.000000 0.000000 0.000000 0.174533
  7 0.000000 0.000000 0.000000 0.000000 0.000000 0.129284
  8 0.000000 0.000000 0.000000 0.000000 0.000000 0.000000
  9 0.000000 0.000000 0.000000 0.000000 0.000000 0.000000
 10 0.000000 0.000000 0.000000 0.000000 0.000000 -0.005902
 11 0.000000 0.000000 0.000000 0.000000 0.000000 -0.174533
 12 0.000000 0.000000 0.000000 0.000000 0.000000 -0.174533
 13 0.000000 0.000000 0.000000 0.000000 0.000000 -0.174533
 14 0.000000 0.000000 0.000000 0.000000 0.000000 -0.174533
 15 0.000000 0.000000 0.000000 0.000000 0.000000 -0.174533
 16 0.000000 0.000000 0.000000 0.000000 -0.000000 -0.129283
 17 0.000000 0.000000 0.000000 0.000000 0.000000 0.000000
 18 0.000000 0.000000 0.000000 0.000000 0.000000 0.000001
 19 0.000000 0.000000 0.000000 0.000000 0.000000 0.000001
time 20
  0 0.000000 0.000000 0.000000 0.000000 1.570796 0.000000
  1 0.000000 0.000000 0.000000 0.000000 -1.570796 0.000000
  2 0.000000 0.000000 0.000000 0.000000 0.000000 0.174533
  3 0.000000 0.000000 0.000000 0.000000 0.000000 0.174533
  4 0.000000 0.000000 0.000000 0.000000 0.000000 0.174533
  5 0.000000 0.000000 0.000000 0.000000 0.000000 0.174533
  6 0.000000 0.000000 0.000000 0.000000 0.000000 0.174533
  7 0.000000 0.000000 0.000000 0.000000 0.000000 0.174533
  8 0.000000 0.000000 0.000000 0.000000 0.000000 0.000000
  9 0.000000 0.000000 0.000000 0.000000 0.000000 0.000000
 10 0.000000 0.000000 0.000000 0.000000 0.000000 -0.006213
 11 0.000000 0.000000 0.000000 0.000000 0.000000 -0.174533
 12 0.000000 0.000000 0.000000 0.000000 0.000000 -0.174533
 13 0.000000 0.000000 0.000000 0.000000 0.000000 -0.174533
 14 0.000000 0.000000 0.000000 0.000000 0.000000 -0.174533
 15 0.000000 0.000000 0.000000 0.000000 0.000000 -0.174533
 16 0.000000 0.000000 0.000000 0.000000 0.000000 -0.174532
 17 0.000000 0.000000 0.000000 0.000000 -0.000000 0.000000
 18 0.000000 0.000000 0.000000 0.000000 -0.000000 0.000001
 19 0.000000 0.000000 0.000000 0.000000 0.000000 0.000001
time 21
  0 0.000000 0.000000 0.000000 0.000000 1.570796 0.000000
  1 0.000000 0.000000 0.000000 0.000000 -1.570796 0.000000
  2 0.000000 0.000000 0.000000 0.000000 0.000000 0.174533
  3 0.000000 0.000000 0.000000 0.000000 0.000000 0.174533
  4 0.000000 0.000000 0.000000 0.000000 0.000000 0.174533
  5 0.000000 0.000000 0.000000 0.000000 0.000000 0.174533
  6 0.000000 0.000000 0.000000 0.000000 0.000000 0.174533
  7 0.000000 0.000000 0.000000 0.000000 0.000000 0.174533
  8 0.000000 0.000000 0.000000 0.000000 0.000000 0.045249
  9 0.000000 0.000000 0.000000 0.000000 0.000000 0.000000
 10 0.000000 0.000000 0.000000 0.000000 0.000000 -0.006489
 11 0.000000 0.000000 0.000000 0.000000 0.000000 -0.174533
 12 0.000000 0.000000 0.000000 0.000000 0.000000 -0.174533
 13 0.000000 0.000000 0.000000 0.000000 0.000000 -0.174533
 14 0.000000 0.000000 0.000000 0.000000 0.000000 -0.174533
 15 0.000000 0.000000 0.000000 0.000000 0.000000 -0.174533
 16 0.000000 0.000000 0.000000 0.000000 0.000000 -0.174532
 17 0.000000 0.000000 0.000000 0.000000 0.000000 -0.045249
 18 0.000000 0.000000 0.000000 0.000000 -0.000000 0.000001
 19 0.000000 0.000000 0.000000 0.000000 0.000000 0.000001
time 22
  0 0.000000 0.000000 0.000000 0.000000 1.570796 0.000000
  1 0.000000 0.000000 0.000000 0.000000 -1.570796 0.000000
  2 0.000000 0.000000 0.000000 0.000000 0.000000 0.174533
  3 0.000000 0.000000 0.000000 0.000000 0.000000 0.174533
  4 0.000000 0.000000 0.000000 0.000000 0.000000 0.174533
  5 0.000000 0.000000 0.000000 0.000000 0.000000 0.174533
  6 0.000000 0.000000 0.000000 0.000000 0.000000 0.174533
  7 0.000000 0.000000 0.000000 0.000000 0.000000 0.174533
  8 0.000000 0.000000 0.000000 0.000000 0.000000 0.129284
  9 0.000000 0.000000 0.000000 0.000000 0.000000 0.000000
 10 0.000000 0.000000 0.000000 0.000000 0.000000 -0.006726
 11 0.000000 0.000000 0.000000 0.000000 0.000000 -0.174533
 12 0.000000 0.000000 0.000000 0.000000 0.000000 -0.174533
 13 0.000000 0.000000 0.000000 0.000000 0.000000 -0.174533
 14 0.000000 0.000000 0.000000 0.000000 0.000000 -0.174533
 15 0.000000 0.000000 0.000000 0.000000 0.000000 -0.174533
 16 0.000000 0.000000 0.000000 0.000000 0.000000 -0.174532
 17 0.000000 0.000000 0.000000 0.000000 -0.000000 -0.129283
 18 0.000000 0.000000 0.000000 0.000000 -0.000000 0.000001
 19 0.000000 0.000000 0.000000 0.000000 0.000000 0.000001
time 23
  0 0.000000 0.000000 0.000000 0.000000 1.570796 0.000000
  1 0.000000 0.000000 0.000000 0.000000 -1.570796 0.000000
  2 0.000000 0.000000 0.000000 0.000000 0.000000 0.174533
  3 0.000000 0.000000 0.000000 0.000000 0.000000 0.174533
  4 0.000000 0.000000 0.000000 0.000000 0.000000 0.174533
  5 0.000000 0.000000 0.000000 0.000000 0.000000 0.174533
  6 0.000000 0.000000 0.000000 0.000000 0.000000 0.174533
  7 0.000000 0.000000 0.000000 0.000000 0.000000 0.174533
  8 0.000000 0.000000 0.000000 0.000000 0.000000 0.174533
  9 0.000000 0.000000 0.000000 0.000000 0.000000 0.000000
 10 0.000000 0.000000 0.000000 0.000000 0.000000 -0.006919
 11 0.000000 0.000000 0.000000 0.000000 0.000000 -0.174533
 12 0.000000 0.000000 0.000000 0.000000 0.000000 -0.174533
 13 0.000000 0.000000 0.000000 0.000000 0.000000 -0.174533
 14 0.000000 0.000000 0.000000 0.000000 0.000000 -0.174533
 15 0.000000 0.000000 0.000000 0.000000 0.000000 -0.174533
 16 0.000000 0.000000 0.000000 0.000000 0.000000 -0.174532
 17 0.000000 0.000000 0.000000 0.000000 0.000000 -0.174533
 18 0.000000 0.000000 0.000000 0.000000 0.000000 0.000001
 19 0.000000 0.000000 0.000000 0.000000 0.000000 0.000001
time 24
  0 0.000000 0.000000 0.000000 0.000000 1.570796 0.000000
  1 0.000000 0.000000 0.000000 0.000000 -1.570796 0.000000
  2 0.000000 0.000000 0.000000 0.000000 0.000000 0.174533
  3 0.000000 0.000000 0.000000 0.000000 0.000000 0.174533
  4 0.000000 0.000000 0.000000 0.000000 0.000000 0.174533
  5 0.000000 0.000000 0.000000 0.000000 0.000000 0.174533
  6 0.000000 0.000000 0.000000 0.000000 0.000000 0.174533
  7 0.000000 0.000000 0.000000 0.000000 0.000000 0.174533
  8 0.000000 0.000000 0.000000 0.000000 0.000000 0.174533
  9 0.000000 0.000000 0.000000 0.000000 0.000000 0.045249
 10 0.000000 0.000000 0.000000 0.000000 0.000000 -0.007063
 11 0.000000 0.000000 0.000000 0.000000 0.000000 -0.174533
 12 0.000000 0.000000 0.000000 0.000000 0.000000 -0.174533
 13 0.000000 0.000000 0.000000 0.000000 0.000000 -0.174533
 14 0.000000 0.000000 0.000000 0.000000 0.000000 -0.174533
 15 0.000000 0.000000 0.000000 0.000000 0.000000 -0.174533
 16 0.000000 0.000000 0.000000 0.000000 0.000000 -0.174532
 17 0.000000 0.000000 0.000000 0.000000 0.000000 -0.174533
 18 0.000000 0.000000 0.000000 0.000000 0.000000 -0.045249
 19 0.000000 0.000000 0.000000 0.000000 0.000000 0.000001
time 25
  0 0.000000 0.000000 0.000000 0.000000 1.570796 0.000000
  1 0.000000 0.000000 0.000000 0.000000 -1.570796 0.000000
  2 0.000000 0.000000 0.000000 0.000000 0.000000 0.174533
  3 0.000000 0.000000 0.000000 0.000000 0.000000 0.174533
  4 0.000000 0.000000 0.000000 0.000000 0.000000 0.174533
  5 0.000000 0.000000 0.000000 0.000000 0.000000 0.174533
  6 0.000000 0.000000 0.000000 0.000000 0.000000 0.174533
  7 0.000000 0.000000 0.000000 0.000000 0.000000 0.174533
  8 0.000000 0.000000 0.000000 0.000000 0.000000 0.174533
  9 0.000000 0.000000 0.000000 0.000000 0.000000 0.129284
 10 0.000000 0.000000 0.000000 0.000000 0.000000 -0.007153
 11 0.000000 0.000000 0.000000 0.000000 0.000000 -0.174533
 12 0.000000 0.000000 0.000000 0.000000 0.000000 -0.174533
 13 0.000000 0.000000 0.000000 0.000000 0.000000 -0.174533
 14 0.000000 0.000000 0.000000 0.000000 0.000000 -0.174533
 15 0.000000 0.000000 0.000000 0.000000 0.000000 -0.174533
 16 0.000000 0.000000 0.000000 0.000000 0.000000 -0.174532
 17 0.000000 0.000000 0.000000 0.000000 0.000000 -0.174533
 18 0.000000 0.000000 0.000000 0.000000 0.000000 -0.129283
 19 0.000000 0.000000 0.000000 0.000000 0.000000 0.000001
time 26
  0 0.000000 0.000000 0.000000 0.000000 1.570796 0.000000
  1 0.000000 0.000000 0.000000 0.000000 -1.570796 0.000000
  2 0.000000 0.000000 0.000000 0.000000 0.000000 0.174533
  3 0.000000 0.000000 0.000000 0.000000 0.000000 0.174533
  4 0.000000 0.000000 0.000000 0.000000 0.000000 0.174533
  5 0.000000 0.000000 0.000000 0.000000 0.000000 0.174533
  6 0.000000 0.000000 0.000000 0.000000 0.000000 0.174533
  7 0.000000 0.000000 0.000000 0.000000 0.000000 0.174533
  8 0.000000 0.000000 0.000000 0.000000 0.000000 0.174533
  9 0.000000 0.000000 0.000000 0.000000 0.000000 0.174533
 10 0.000000 0.000000 0.000000 0.000000 0.000000 -0.007184
 11 0.000000 0.000000 0.000000 0.000000 0.000000 -0.174533
 12 0.000000 0.000000 0.000000 0.000000 0.000000 -0.174533
 13 0.000000 0.000000 0.000000 0.000000 0.000000 -0.174533
 14 0.000000 0.000000 0.000000 0.000000 0.000000 -0.174533
 15 0.000000 0.000000 0.000000 0.000000 0.000000 -0.174533
 16 0.000000 0.000000 0.000000 0.000000 0.000000 -0.174532
 17 0.000000 0.000000 0.000000 0.000000 0.000000 -0.174533
 18 0.000000 0.000000 0.000000 0.000000 -0.000000 -0.174532
 19 0.000000 0.000000 0.000000 0.000000 0.000000 0.000001
time 27
  0 0.000000 0.000000 0.000000 0.000000 1.570796 0.000000
  1 0.000000 0.000000 0.000000 0.000000 -1.570796 0.000000
  2 0.000000 0.000000 0.000000 0.000000 0.000000 0.174533
  3 0.000000 0.000000 0.000000 0.000000 0.000000 0.174533
  4 0.000000 0.000000 0.000000 0.000000 0.000000 0.174533
  5 0.000000 0.000000 0.000000 0.000000 0.000000 0.174533
  6 0.000000 0.000000 0.000000 0.000000 0.000000 0.174533
  7 0.000000 0.000000 0.000000 0.000000 0.000000 0.174533
  8 0.000000 0.000000 0.000000 0.000000 0.000000 0.174533
  9 0.000000 0.000000 0.000000 0.000000 0.000000 0.174533
 10 0.000000 0.000000 0.000000 0.000000 0.000000 0.021209
 11 0.000000 0.000000 0.000000 0.000000 0.000000 -0.174533
 12 0.000000 0.000000 0.000000 0.000000 0.000000 -0.174533
 13 0.000000 0.000000 0.000000 0.000000 0.000000 -0.174533
 14 0.000000 0.000000 0.000000 0.000000 0.000000 -0.174533
 15 0.000000 0.000000 0.000000 0.000000 0.000000 -0.174533
 16 0.000000 0.000000 0.000000 0.000000 0.000000 -0.174532
 17 0.000000 0.000000 0.000000 0.000000 0.000000 -0.174533
 18 0.000000 0.000000 0.000000 0.000000 -0.000000 -0.174532
 19 0.000000 0.000000 0.000000 0.000000 0.000000 -0.027270
time 28
  0 0.000000 0.000000 0.000000 0.000000 1.570796 0.000000
  1 0.000000 0.000000 0.000000 0.000000 -1.570796 0.000000
  2 0.000000 0.000000 0.000000 0.000000 0.000000 0.174533
  3 0.000000 0.000000 0.000000 0.000000 0.000000 0.174533
  4 0.000000 0.000000 0.000000 0.000000 0.000000 0.174533
  5 0.000000 0.000000 0.000000 0.000000 0.000000 0.174533
  6 0.000000 0.000000 0.000000 0.000000 0.000000 0.174533
  7 0.000000 0.000000 0.000000 0.000000 0.000000 0.174533
  8 0.000000 0.000000 0.000000 0.000000 0.000000 0.174533
  9 0.000000 0.000000 0.000000 0.000000 0.000000 0.174533
 10 0.000000 0.000000 0.000000 0.000000 0.000000 0.083674
 11 0.000000 0.000000 0.000000 0.000000 0.000000 -0.174533
 12 0.000000 0.000000 0.000000 0.000000 0.000000 -0.174533
 13 0.000000 0.000000 0.000000 0.000000 0.000000 -0.174533
 14 0.000000 0.000000 0.000000 0.000000 0.000000 -0.174533
 15 0.000000 0.000000 0.000000 0.000000 0.000000 -0.174533
 16 0.000000 0.000000 0.000000 0.000000 0.000000 -0.174532
 17 0.000000 0.000000 0.000000 0.000000 0.000000 -0.174533
 18 0.000000 0.000000 0.000000 0.000000 -0.000000 -0.174532
 19 0.000000 0.000000 0.000000 0.000000 0.000000 -0.087266
time 29
  0 0.000000 0.000000 0.000000 0.000000 1.570796 0.000000
  1 0.000000 0.000000 0.000000 0.000000 -1.570796 0.000000
  2 0.000000 0.000000 0.000000 0.000000 0.000000 0.174533
  3 0.000000 0.000000 0.000000 0.000000 0.000000 0.174533
  4 0.000000 0.000000 0.000000 0.000000 0.000000 0.174533
  5 0.000000 0.000000 0.000000 0.000000 0.000000 0.174533
  6 0.000000 0.000000 0.000000 0.000000 0.000000 0.174533
  7 0.000000 0.000000 0.000000 0.000000 0.000000 0.174533
  8 0.000000 0.000000 0.000000 0.000000 0.000000 0.174533
  9 0.000000 0.000000 0.000000 0.000000 0.000000 0.174533
 10 0.000000 0.000000 0.000000 0.000000 0.000000 0.146140
 11 0.000000 0.000000 0.000000 0.000000 0.000000 -0.174533
 12 0.000000 0.000000 0.000000 0.000000 0.000000 -0.174533
 13 0.000000 0.000000 0.000000 0.000000 0.000000 -0.174533
 14 0.000000 0.000000 0.000000 0.000000 0.000000 -0.174533
 15 0.000000 0.000000 0.000000 0.000000 0.000000 -0.174533
 16 0.000000 0.000000 0.000000 0.000000 0.000000 -0.174532
 17 0.000000 0.000000 0.000000 0.000000 0.000000 -0.174533
 18 0.000000 0.000000 0.000000 0.000000 -0.000000 -0.174532
 19 0.000000 0.000000 0.000000 0.000000 0.000000 -0.147261
time 30
  0 0.000000 0.000000 0.000000 0.000000 1.570796 0.000000
  1 0.000000 0.000000 0.000000 0.000000 -1.570796 0.000000
  2 0.000000 0.000000 0.000000 0.000000 0.000000 0.174533
  3 0.000000 0.000000 0.000000 0.000000 0.000000 0.174533
  4 0.000000 0.000000 0.000000 0.000000 0.000000 0.174533
  5 0.000000 0.000000 0.000000 0.000000 0.000000 0.174533
  6 0.000000 0.000000 0.000000 0.000000 0.000000 0.174533
  7 0.000000 0.000000 0.000000 0.000000 0.000000 0.174533
  8 0.000000 0.000000 0.000000 0.000000 0.000000 0.174533
  9 0.000000 0.000000 0.000000 0.000000 0.000000 0.174533
 10 0.000000 0.000000 0.000000 0.000000 0.000000 0.174533
 11 0.000000 0.000000 0.000000 0.000000 0.000000 -0.174533
 12 0.000000 0.000000 0.000000 0.000000 0.000000 -0.174533
 13 0.000000 0.000000 0.000000 0.000000 0.000000 -0.174533
 14 0.000000 0.000000 0.000000 0.000000 0.000000 -0.174533
 15 0.000000 0.000000 0.000000 0.000000 0.000000 -0.174533
 16 0.000000 0.000000 0.000000 0.000000 0.000000 -0.174532
 17 0.000000 0.000000 0.000000 0.000000 0.000000 -0.174533
 18 0.000000 0.000000 0.000000 0.000000 -0.000000 -0.174532
 19 0.000000 0.000000 0.000000 0.000000 0.000000 -0.174532
end
