version 1
nodes
  0 "Bone29"  -1
  1 "Bone28"  -1
  2 "Bone27"  -1
  3 "Bone26"  -1
  4 "Bone24"  -1
  5 "Bone01"   4
  6 "Bone02"   5
  7 "Bone03"   6
  8 "Bone04"   4
  9 "Bone05"   8
 10 "Bone06"   9
 11 "Bone17"   4
 12 "Bone07"  11
 13 "Bone08"  12
 14 "Bone09"  13
 15 "Bone10"  14
 16 "Bone11"  15
 17 "Bone12"  14
 18 "Bone13"  11
 19 "Bone14"  18
 20 "Bone15"  19
 21 "Bone16"  20
 22 "Bone21"  11
 23 "Bone18"  22
 24 "Bone19"  23
 25 "Bone20"  22
 26 "Bone22"  22
 27 "Bone23"  22
 28 "Bone25"  11
 29 "outskirt_r"   4
 30 "outskirt_f"   4
 31 "outskirt_l"   4
 32 "outskirt_b"   4
 33 "skirt_l"   4
 34 "skirt_r"   4
 35 "skirt_b"   4
end
skeleton
time 0
  0 0.768169 -0.850492 1.544617 0.000000 -0.000000 0.000000
  1 0.768169 -0.850492 1.544617 0.000000 -0.000000 0.000000
  2 0.984829 -7.246327 -5641.875000 0.000000 -0.000000 0.000000
  3 0.998367 -3.471023 -5886.824707 0.000000 -0.000000 0.000000
  4 0.998364 -3.471023 -5689.314453 -0.107463 -0.008506 -0.064715
  5 -11.802612 0.277832 -45.319824 0.607630 0.001296 -0.009903
  6 -0.797638 4.275879 -49.224121 0.396968 0.012222 -0.211580
  7 -0.000061 0.000000 -7.282959 0.000000 -0.000000 0.000000
  8 11.803268 0.236694 -45.319824 0.330295 -0.000890 0.005339
  9 0.812340 4.273315 -49.223633 0.464045 -0.078406 0.268104
 10 0.000061 0.000000 -7.282715 0.000000 -0.000000 0.000000
 11 -0.008945 0.029724 10.838867 0.000000 -0.000000 0.294300
 12 -16.431313 3.246338 32.898926 0.079474 -0.086573 -0.348582
 13 -12.321594 -2.201904 -17.125488 -0.054940 -0.002577 0.040016
 14 -13.252197 -2.413300 -18.422363 0.000000 -0.000000 0.000000
 15 -3.868591 -0.833008 -6.257813 0.000000 -0.000000 0.000000
 16 -37.279175 -5.051147 -38.190918 0.000000 -0.000000 0.000000
 17 -3.806030 -1.056458 -7.596191 0.000000 -0.000000 0.000000
 18 16.442673 3.189026 32.898926 0.074641 0.122041 -0.269503
 19 12.313721 -2.244904 -17.125488 0.000000 -0.000000 0.000000
 20 13.243713 -2.459503 -18.422363 0.014671 -0.002577 -0.020361
 21 4.038879 -0.928116 -8.488281 0.000000 -0.000000 0.000000
 22 -0.000687 -0.454956 46.066895 -0.000360 -0.013454 -0.244830
 23 -0.489967 22.757874 18.762207 0.000000 -0.000000 0.000000
 24 0.260391 -19.713379 -182.090820 0.000000 -0.000000 0.000000
 25 -16.518959 9.856506 11.603027 0.000000 -0.000000 0.000000
 26 12.687096 8.730835 11.181152 0.000000 -0.000000 0.000000
 27 -0.009705 -4.696533 26.700195 0.000000 -0.000000 0.000000
 28 -0.000031 -0.006042 23.601563 0.000000 -0.000000 0.000000
 29 -21.531235 -10.281189 -6.106445 0.000000 0.000000 -0.000000
 30 6.667686 -19.285278 -6.979980 -0.209009 -0.013525 0.001735
 31 21.613554 5.850647 -6.561523 0.000000 0.000000 0.000000
 32 -0.490761 19.244385 -5.608398 0.000000 -0.000000 0.000000
 33 12.172539 -7.748535 -10.306641 0.000000 0.000000 0.000000
 34 -12.668404 -7.748474 -10.702637 0.000000 -0.000000 0.000000
 35 -0.490772 14.424927 -10.375000 0.000000 0.000000 -0.000000
time 1
  0 0.768169 -0.850492 1.544617 0.000000 -0.000000 0.000000
  1 0.768169 -0.850492 1.544617 0.000000 -0.000000 0.000000
  2 0.984829 -7.246327 -5641.875000 0.000000 -0.000000 0.000000
  3 0.998367 -3.471023 -5886.824707 0.000000 -0.000000 0.000000
  4 0.998364 -3.471023 -5689.314453 -0.107463 -0.008506 -0.064715
  5 -11.802612 0.277832 -45.319824 0.607630 0.001296 -0.009903
  6 -0.797638 4.275879 -49.224121 0.396968 0.012222 -0.211580
  7 -0.000061 0.000000 -7.282959 0.000000 -0.000000 0.000000
  8 11.803268 0.236694 -45.319824 0.330295 -0.000890 0.005339
  9 0.812340 4.273315 -49.223633 0.464045 -0.078406 0.268104
 10 0.000061 0.000000 -7.282715 0.000000 -0.000000 0.000000
 11 -0.008945 0.029724 10.838867 0.000000 -0.000000 0.294300
 12 -16.431313 3.246338 32.898926 0.079474 -0.086573 -0.348582
 13 -12.321594 -2.201904 -17.125488 -0.054940 -0.002577 0.040016
 14 -13.252197 -2.413300 -18.422363 0.000000 -0.000000 0.000000
 15 -3.868591 -0.833008 -6.257813 0.000000 -0.000000 0.000000
 16 -37.279175 -5.051147 -38.190918 0.000000 -0.000000 0.000000
 17 -3.806030 -1.056458 -7.596191 0.000000 -0.000000 0.000000
 18 16.442673 3.189026 32.898926 0.074641 0.122041 -0.269503
 19 12.313721 -2.244904 -17.125488 0.000000 -0.000000 0.000000
 20 13.243713 -2.459503 -18.422363 0.014671 -0.002577 -0.020361
 21 4.038879 -0.928116 -8.488281 0.000000 -0.000000 0.000000
 22 -0.000687 -0.454956 46.066895 -0.000360 -0.013454 -0.244830
 23 -0.489967 22.757874 18.762207 0.000000 -0.000000 0.000000
 24 0.260391 -19.713379 -182.090820 0.000000 -0.000000 0.000000
 25 -16.518959 9.856506 11.603027 0.000000 -0.000000 0.000000
 26 12.687096 8.730835 11.181152 0.000000 -0.000000 0.000000
 27 -0.009705 -4.696533 26.700195 0.000000 -0.000000 0.000000
 28 -0.000031 -0.006042 23.601563 0.000000 -0.000000 0.000000
 29 -21.531235 -10.281189 -6.106445 0.000000 0.000000 -0.000000
 30 6.667686 -19.285278 -6.979980 -0.209009 -0.013525 0.001735
 31 21.613554 5.850647 -6.561523 0.000000 0.000000 0.000000
 32 -0.490761 19.244385 -5.608398 0.000000 -0.000000 0.000000
 33 12.172539 -7.748535 -10.306641 0.000000 0.000000 0.000000
 34 -12.668404 -7.748474 -10.702637 0.000000 -0.000000 0.000000
 35 -0.490772 14.424927 -10.375000 0.000000 0.000000 -0.000000
end
