version 1
nodes
  0 "Bone29"  -1
  1 "Bone28"  -1
  2 "Bone27"  -1
  3 "Bone26"  -1
  4 "Bone24"  -1
  5 "Bone01"   4
  6 "Bone02"   5
  7 "Bone03"   6
  8 "Bone04"   4
  9 "Bone05"   8
 10 "Bone06"   9
 11 "Bone17"   4
 12 "Bone07"  11
 13 "Bone08"  12
 14 "Bone09"  13
 15 "Bone10"  14
 16 "Bone11"  15
 17 "Bone12"  14
 18 "Bone13"  11
 19 "Bone14"  18
 20 "Bone15"  19
 21 "Bone16"  20
 22 "Bone21"  11
 23 "Bone18"  22
 24 "Bone19"  23
 25 "Bone20"  22
 26 "Bone22"  22
 27 "Bone23"  22
 28 "Bone25"  11
 29 "outskirt_r"   4
 30 "outskirt_f"   4
 31 "outskirt_l"   4
 32 "outskirt_b"   4
 33 "skirt_l"   4
 34 "skirt_r"   4
 35 "skirt_b"   4
end
skeleton
time 0
  0 0.768169 -0.850492 1.544617 0.000000 -0.000000 0.000000
  1 0.768169 -0.850492 1.544617 0.000000 -0.000000 0.000000
  2 0.984829 -7.246327 246.548599 0.000000 -0.000000 0.000000
  3 0.998367 -3.471023 1.599335 0.000000 -0.000000 0.000000
  4 0.998364 -3.471023 135.155151 0.239048 -0.029118 -0.002367
  5 -11.802618 0.277813 -45.319969 -0.079370 0.000287 0.001298
  6 -0.797638 4.276039 -49.223656 0.427553 -0.024759 -0.210300
  7 -0.000013 -0.000004 -7.282921 0.000000 -0.000000 0.000000
  8 11.803272 0.236658 -45.319962 0.514638 -0.002429 0.008027
  9 0.812347 4.273201 -49.223564 0.296068 -0.040472 0.276078
 10 0.000004 -0.000008 -7.282921 0.000000 -0.000000 0.000000
 11 -0.008809 0.029198 10.844498 0.188878 -0.000286 0.295424
 12 -16.431320 3.246395 32.898758 -0.044779 0.222209 -0.552382
 13 -12.321594 -2.201935 -17.125504 -0.054940 -0.002577 0.040016
 14 -13.252190 -2.413311 -18.422264 0.000555 -0.005208 0.000282
 15 -3.868645 -0.832968 -6.257843 0.000000 -0.000000 0.000000
 16 -37.279182 -5.051151 -38.191162 0.000000 -0.000000 0.000000
 17 -3.806091 -1.056419 -7.595848 0.000000 -0.000000 0.000000
 18 16.442680 3.189079 32.898758 -0.124202 -0.316791 -0.298699
 19 12.313789 -2.244877 -17.125641 0.000000 -0.000000 0.000000
 20 13.243652 -2.459518 -18.422234 0.000570 0.005208 -0.000280
 21 4.038895 -0.928112 -8.488213 0.000000 -0.000000 0.000000
 22 -0.000700 -0.454941 46.067245 -0.465548 0.018410 -0.254071
 23 -0.489964 22.757862 18.761978 0.000000 -0.000000 0.000000
 24 0.260405 -19.713448 -182.091003 0.000000 -0.000000 0.000000
 25 -16.518967 9.856468 11.602493 0.000000 -0.000000 0.000000
 26 12.687096 8.730812 11.180984 0.000000 -0.000000 0.000000
 27 -0.009703 -4.696529 26.699997 0.000000 -0.000000 0.000000
 28 -0.000043 -0.005970 23.601578 0.000000 -0.000000 0.000000
 29 -21.531246 -10.281185 -6.106506 0.419319 0.337863 -0.086663
 30 6.667686 -19.285318 -6.979965 0.164882 0.074001 -0.002618
 31 21.613556 5.850677 -6.561760 0.497705 -0.132744 -0.030632
 32 -0.490762 19.244423 -5.608513 0.574373 -0.046026 0.045315
 33 12.172539 -7.748505 -10.307114 0.469986 -0.076667 -0.024916
 34 -12.668406 -7.748508 -10.702667 0.174069 -0.000000 0.000000
 35 -0.490771 14.424881 -10.375069 0.472091 -0.041685 0.036083
time 1
  0 0.768169 -0.850492 1.544617 0.000000 -0.000000 0.000000
  1 0.768169 -0.850492 1.544617 0.000000 -0.000000 0.000000
  2 0.984829 -7.246327 246.548599 0.000000 -0.000000 0.000000
  3 0.998367 -3.471023 1.599335 0.000000 -0.000000 0.000000
  4 0.998364 -3.471023 134.989685 0.247372 -0.029805 -0.001004
  5 -11.802618 0.277815 -45.319946 -0.095746 0.000294 0.001557
  6 -0.797636 4.276041 -49.223656 0.428467 -0.025564 -0.210316
  7 -0.000013 -0.000004 -7.282921 0.000000 -0.000000 0.000000
  8 11.803272 0.236660 -45.319946 0.516912 -0.002448 0.008057
  9 0.812342 4.273216 -49.223568 0.292074 -0.039674 0.276273
 10 0.000000 0.000000 -7.282919 0.000000 -0.000000 0.000000
 11 -0.008803 0.029181 10.844650 0.193377 -0.000299 0.295502
 12 -16.431320 3.246395 32.898773 -0.042470 0.232373 -0.561741
 13 -12.321602 -2.201931 -17.125488 -0.054940 -0.002577 0.040016
 14 -13.252205 -2.413303 -18.422241 0.000555 -0.005208 0.000282
 15 -3.868652 -0.832968 -6.257851 0.000000 -0.000000 0.000000
 16 -37.279198 -5.051153 -38.191185 0.000000 -0.000000 0.000000
 17 -3.806091 -1.056423 -7.595871 0.000000 -0.000000 0.000000
 18 16.442680 3.189075 32.898773 -0.121405 -0.328444 -0.296978
 19 12.313797 -2.244881 -17.125656 0.000000 -0.000000 0.000000
 20 13.243652 -2.459511 -18.422226 0.000570 0.005208 -0.000280
 21 4.038895 -0.928108 -8.488220 0.000000 -0.000000 0.000000
 22 -0.000700 -0.454945 46.067276 -0.476472 0.019053 -0.254499
 23 -0.489965 22.757854 18.761993 0.000000 -0.000000 0.000000
 24 0.260402 -19.713425 -182.091003 0.000000 -0.000000 0.000000
 25 -16.518967 9.856464 11.602493 0.000000 -0.000000 0.000000
 26 12.687096 8.730808 11.180984 0.000000 -0.000000 0.000000
 27 -0.009702 -4.696533 26.699997 0.000000 -0.000000 0.000000
 28 -0.000043 -0.005970 23.601593 0.000000 -0.000000 0.000000
 29 -21.531244 -10.281181 -6.106491 0.425327 0.336361 -0.086327
 30 6.667690 -19.285318 -6.979950 0.161366 0.073612 -0.002416
 31 21.613556 5.850676 -6.561745 0.495719 -0.133683 -0.032073
 32 -0.490766 19.244421 -5.608505 0.590644 -0.045258 0.044977
 33 12.172541 -7.748503 -10.307091 0.466852 -0.075937 -0.024612
 34 -12.668406 -7.748505 -10.702652 0.181305 0.001161 -0.000243
 35 -0.490773 14.424883 -10.375061 0.486312 -0.040980 0.035914
time 2
  0 0.768169 -0.850492 1.544617 0.000000 -0.000000 0.000000
  1 0.768169 -0.850492 1.544617 0.000000 -0.000000 0.000000
  2 0.984829 -7.246327 246.548599 0.000000 -0.000000 0.000000
  3 0.998367 -3.471023 1.599335 0.000000 -0.000000 0.000000
  4 0.998364 -3.471023 134.529358 0.254443 -0.030399 0.000155
  5 -11.802618 0.277815 -45.319954 -0.109659 0.000312 0.001777
  6 -0.797637 4.276043 -49.223663 0.429241 -0.026248 -0.210359
  7 -0.000011 0.000000 -7.282919 0.000000 -0.000000 0.000000
  8 11.803274 0.236658 -45.319954 0.518862 -0.002465 0.008082
  9 0.812344 4.273201 -49.223568 0.288682 -0.038994 0.276439
 10 0.000000 0.000000 -7.282921 0.000000 -0.000000 0.000000
 11 -0.008798 0.029161 10.844757 0.197199 -0.000311 0.295595
 12 -16.431320 3.246395 32.898773 -0.036044 0.241054 -0.571546
 13 -12.321594 -2.201939 -17.125504 -0.054940 -0.002577 0.040016
 14 -13.252197 -2.413311 -18.422264 0.000555 -0.005209 0.000282
 15 -3.868652 -0.832966 -6.257851 0.000000 -0.000000 0.000000
 16 -37.279190 -5.051157 -38.191185 0.000000 -0.000000 0.000000
 17 -3.806084 -1.056423 -7.595879 0.000000 -0.000000 0.000000
 18 16.442684 3.189072 32.898773 -0.113621 -0.338325 -0.292188
 19 12.313805 -2.244877 -17.125641 0.000000 -0.000000 0.000000
 20 13.243652 -2.459515 -18.422218 0.000570 0.005208 -0.000280
 21 4.038910 -0.928112 -8.488220 0.000000 -0.000000 0.000000
 22 -0.000698 -0.454937 46.067261 -0.485753 0.019602 -0.254946
 23 -0.489968 22.757851 18.761993 0.000000 -0.000000 0.000000
 24 0.260418 -19.713406 -182.091019 0.000000 -0.000000 0.000000
 25 -16.518970 9.856462 11.602509 0.000000 -0.000000 0.000000
 26 12.687098 8.730804 11.181015 0.000000 -0.000000 0.000000
 27 -0.009704 -4.696533 26.700012 0.000000 -0.000000 0.000000
 28 -0.000041 -0.005970 23.601593 0.000000 -0.000000 0.000000
 29 -21.531246 -10.281179 -6.106499 0.430702 0.332085 -0.085371
 30 6.667690 -19.285313 -6.979958 0.151356 0.072502 -0.001840
 31 21.613558 5.850672 -6.561752 0.490065 -0.134530 -0.033595
 32 -0.490765 19.244417 -5.608513 0.605957 -0.043070 0.044013
 33 12.172539 -7.748503 -10.307106 0.457927 -0.073857 -0.023748
 34 -12.668406 -7.748503 -10.702652 0.189847 0.004466 -0.000936
 35 -0.490773 14.424883 -10.375061 0.500238 -0.038974 0.035434
time 3
  0 0.768169 -0.850492 1.544617 0.000000 -0.000000 0.000000
  1 0.768169 -0.850492 1.544617 0.000000 -0.000000 0.000000
  2 0.984829 -7.246327 246.548599 0.000000 -0.000000 0.000000
  3 0.998367 -3.471023 1.599335 0.000000 -0.000000 0.000000
  4 0.998364 -3.471023 133.828217 0.260364 -0.030908 0.001128
  5 -11.802620 0.277813 -45.319962 -0.121311 0.000339 0.001961
  6 -0.797638 4.276039 -49.223652 0.429886 -0.026822 -0.210424
  7 -0.000013 0.000000 -7.282919 0.000000 -0.000000 0.000000
  8 11.803271 0.236654 -45.319969 0.520512 -0.002480 0.008104
  9 0.812344 4.273201 -49.223579 0.285840 -0.038424 0.276578
 10 0.000000 -0.000008 -7.282919 0.000000 -0.000000 0.000000
 11 -0.008793 0.029142 10.844849 0.200398 -0.000324 0.295701
 12 -16.431316 3.246399 32.898758 -0.026255 0.248371 -0.581586
 13 -12.321594 -2.201931 -17.125504 -0.054940 -0.002577 0.040016
 14 -13.252190 -2.413307 -18.422249 0.000555 -0.005209 0.000282
 15 -3.868652 -0.832966 -6.257866 0.000000 -0.000000 0.000000
 16 -37.279190 -5.051155 -38.191177 0.000000 -0.000000 0.000000
 17 -3.806091 -1.056423 -7.595886 0.000000 -0.000000 0.000000
 18 16.442677 3.189072 32.898758 -0.101765 -0.346580 -0.284892
 19 12.313789 -2.244877 -17.125641 0.000000 -0.000000 0.000000
 20 13.243652 -2.459515 -18.422256 0.000570 0.005208 -0.000280
 21 4.038910 -0.928108 -8.488197 0.000000 -0.000000 0.000000
 22 -0.000698 -0.454937 46.067261 -0.493524 0.020063 -0.255403
 23 -0.489967 22.757847 18.761978 0.000000 -0.000000 0.000000
 24 0.260402 -19.713409 -182.090988 0.000000 -0.000000 0.000000
 25 -16.518969 9.856459 11.602478 0.000000 -0.000000 0.000000
 26 12.687096 8.730803 11.180969 0.000000 -0.000000 0.000000
 27 -0.009701 -4.696537 26.699997 0.000000 -0.000000 0.000000
 28 -0.000041 -0.005966 23.601578 0.000000 -0.000000 0.000000
 29 -21.531246 -10.281181 -6.106506 0.435478 0.325379 -0.083872
 30 6.667688 -19.285316 -6.979958 0.135656 0.070763 -0.000938
 31 21.613552 5.850670 -6.561760 0.481197 -0.135290 -0.035181
 32 -0.490765 19.244419 -5.608513 0.620317 -0.039638 0.042502
 33 12.172538 -7.748505 -10.307106 0.443930 -0.070595 -0.022391
 34 -12.668406 -7.748507 -10.702667 0.199488 0.009649 -0.002022
 35 -0.490773 14.424877 -10.375053 0.513808 -0.035827 0.034682
time 4
  0 0.768169 -0.850492 1.544617 0.000000 -0.000000 0.000000
  1 0.768169 -0.850492 1.544617 0.000000 -0.000000 0.000000
  2 0.984829 -7.246327 246.548599 0.000000 -0.000000 0.000000
  3 0.998367 -3.471023 1.599335 0.000000 -0.000000 0.000000
  4 0.998364 -3.471023 132.940353 0.265237 -0.031337 0.001930
  5 -11.802620 0.277815 -45.319946 -0.130901 0.000374 0.002113
  6 -0.797639 4.276043 -49.223663 0.430413 -0.027296 -0.210507
  7 -0.000013 -0.000004 -7.282923 0.000000 -0.000000 0.000000
  8 11.803272 0.236658 -45.319946 0.521887 -0.002492 0.008122
  9 0.812344 4.273201 -49.223591 0.283501 -0.037953 0.276692
 10 0.000004 -0.000008 -7.282925 0.000000 -0.000000 0.000000
 11 -0.008788 0.029133 10.844940 0.203030 -0.000337 0.295814
 12 -16.431322 3.246399 32.898773 -0.013860 0.254438 -0.591651
 13 -12.321609 -2.201935 -17.125488 -0.054940 -0.002577 0.040016
 14 -13.252190 -2.413315 -18.422256 0.000555 -0.005208 0.000282
 15 -3.868652 -0.832970 -6.257858 0.000000 -0.000000 0.000000
 16 -37.279182 -5.051155 -38.191185 0.000000 -0.000000 0.000000
 17 -3.806099 -1.056423 -7.595879 0.000000 -0.000000 0.000000
 18 16.442686 3.189075 32.898773 -0.086751 -0.353355 -0.275653
 19 12.313805 -2.244877 -17.125656 0.000000 -0.000000 0.000000
 20 13.243660 -2.459515 -18.422226 0.000570 0.005208 -0.000280
 21 4.038902 -0.928104 -8.488213 0.000000 -0.000000 0.000000
 22 -0.000699 -0.454941 46.067261 -0.499918 0.020444 -0.255859
 23 -0.489966 22.757854 18.761978 0.000000 -0.000000 0.000000
 24 0.260403 -19.713387 -182.090988 0.000000 -0.000000 0.000000
 25 -16.518972 9.856464 11.602493 0.000000 -0.000000 0.000000
 26 12.687099 8.730804 11.181000 0.000000 -0.000000 0.000000
 27 -0.009702 -4.696537 26.700012 0.000000 -0.000000 0.000000
 28 -0.000042 -0.005966 23.601593 0.000000 -0.000000 0.000000
 29 -21.531246 -10.281183 -6.106491 0.439690 0.316587 -0.081907
 30 6.667689 -19.285316 -6.979950 0.115072 0.068482 0.000246
 31 21.613560 5.850676 -6.561737 0.469570 -0.135967 -0.036811
 32 -0.490764 19.244425 -5.608490 0.633726 -0.035139 0.040520
 33 12.172539 -7.748501 -10.307098 0.425579 -0.066319 -0.020613
 34 -12.668407 -7.748505 -10.702644 0.210021 0.016445 -0.003446
 35 -0.490772 14.424883 -10.375046 0.526960 -0.031700 0.033695
time 5
  0 0.768169 -0.850492 1.544617 0.000000 -0.000000 0.000000
  1 0.768169 -0.850492 1.544617 0.000000 -0.000000 0.000000
  2 0.984829 -7.246327 246.548599 0.000000 -0.000000 0.000000
  3 0.998367 -3.471023 1.599335 0.000000 -0.000000 0.000000
  4 0.998364 -3.471023 131.919830 0.269163 -0.031693 0.002578
  5 -11.802618 0.277811 -45.319954 -0.138630 0.000413 0.002236
  6 -0.797638 4.276041 -49.223652 0.430835 -0.027679 -0.210602
  7 -0.000013 -0.000004 -7.282921 0.000000 -0.000000 0.000000
  8 11.803274 0.236654 -45.319946 0.523012 -0.002502 0.008137
  9 0.812344 4.273224 -49.223576 0.281616 -0.037573 0.276784
 10 0.000004 -0.000008 -7.282915 0.000000 -0.000000 0.000000
 11 -0.008783 0.029121 10.845009 0.205150 -0.000350 0.295932
 12 -16.431324 3.246395 32.898743 0.000390 0.259372 -0.601531
 13 -12.321602 -2.201931 -17.125488 -0.054940 -0.002577 0.040017
 14 -13.252205 -2.413303 -18.422256 0.000555 -0.005209 0.000282
 15 -3.868645 -0.832966 -6.257858 0.000000 -0.000000 0.000000
 16 -37.279205 -5.051151 -38.191185 0.000000 -0.000000 0.000000
 17 -3.806099 -1.056419 -7.595863 0.000000 -0.000000 0.000000
 18 16.442688 3.189075 32.898758 -0.069493 -0.358798 -0.265034
 19 12.313797 -2.244881 -17.125656 0.000000 -0.000000 0.000000
 20 13.243652 -2.459518 -18.422234 0.000570 0.005208 -0.000280
 21 4.038902 -0.928108 -8.488213 0.000000 -0.000000 0.000000
 22 -0.000699 -0.454948 46.067245 -0.505071 0.020754 -0.256306
 23 -0.489965 22.757858 18.761993 0.000000 -0.000000 0.000000
 24 0.260401 -19.713428 -182.090958 0.000000 -0.000000 0.000000
 25 -16.518970 9.856464 11.602509 0.000000 -0.000000 0.000000
 26 12.687099 8.730808 11.181000 0.000000 -0.000000 0.000000
 27 -0.009702 -4.696529 26.699997 0.000000 -0.000000 0.000000
 28 -0.000041 -0.005970 23.601578 0.000000 -0.000000 0.000000
 29 -21.531246 -10.281183 -6.106491 0.443374 0.306052 -0.079552
 30 6.667689 -19.285318 -6.979950 0.090411 0.065750 0.001664
 31 21.613558 5.850676 -6.561752 0.455640 -0.136566 -0.038463
 32 -0.490764 19.244421 -5.608505 0.646190 -0.029749 0.038146
 33 12.172541 -7.748503 -10.307098 0.403593 -0.061195 -0.018483
 34 -12.668407 -7.748505 -10.702652 0.221240 0.024587 -0.005153
 35 -0.490772 14.424879 -10.375046 0.539632 -0.026757 0.032513
time 6
  0 0.768169 -0.850492 1.544617 0.000000 -0.000000 0.000000
  1 0.768169 -0.850492 1.544617 0.000000 -0.000000 0.000000
  2 0.984829 -7.246327 246.548599 0.000000 -0.000000 0.000000
  3 0.998367 -3.471023 1.599335 0.000000 -0.000000 0.000000
  4 0.998364 -3.471023 130.820740 0.272244 -0.031983 0.003088
  5 -11.802620 0.277813 -45.319954 -0.144699 0.000456 0.002332
  6 -0.797639 4.276047 -49.223648 0.431163 -0.027980 -0.210705
  7 -0.000013 -0.000004 -7.282917 0.000000 -0.000000 0.000000
  8 11.803272 0.236656 -45.319954 0.523912 -0.002509 0.008148
  9 0.812342 4.273209 -49.223572 0.280136 -0.037272 0.276856
 10 0.000004 0.000000 -7.282919 0.000000 -0.000000 0.000000
 11 -0.008779 0.029110 10.845047 0.206813 -0.000362 0.296050
 12 -16.431320 3.246403 32.898773 0.015738 0.263289 -0.611014
 13 -12.321609 -2.201927 -17.125473 -0.054940 -0.002577 0.040016
 14 -13.252197 -2.413311 -18.422256 0.000555 -0.005208 0.000282
 15 -3.868652 -0.832973 -6.257858 0.000000 -0.000000 0.000000
 16 -37.279190 -5.051159 -38.191185 0.000000 -0.000000 0.000000
 17 -3.806091 -1.056427 -7.595879 0.000000 -0.000000 0.000000
 18 16.442684 3.189075 32.898758 -0.050905 -0.363052 -0.253597
 19 12.313805 -2.244881 -17.125641 0.000000 -0.000000 0.000000
 20 13.243637 -2.459518 -18.422249 0.000570 0.005208 -0.000280
 21 4.038895 -0.928112 -8.488220 0.000000 -0.000000 0.000000
 22 -0.000697 -0.454937 46.067261 -0.509115 0.020998 -0.256735
 23 -0.489967 22.757862 18.761993 0.000000 -0.000000 0.000000
 24 0.260411 -19.713455 -182.091034 0.000000 -0.000000 0.000000
 25 -16.518970 9.856470 11.602509 0.000000 -0.000000 0.000000
 26 12.687099 8.730810 11.180984 0.000000 -0.000000 0.000000
 27 -0.009703 -4.696529 26.700012 0.000000 -0.000000 0.000000
 28 -0.000039 -0.005966 23.601593 0.000000 -0.000000 0.000000
 29 -21.531248 -10.281181 -6.106499 0.446564 0.294120 -0.076884
 30 6.667690 -19.285315 -6.979950 0.062477 0.062654 0.003270
 31 21.613556 5.850674 -6.561737 0.439861 -0.137092 -0.040119
 32 -0.490765 19.244423 -5.608498 0.657712 -0.023643 0.035456
 33 12.172539 -7.748503 -10.307098 0.378689 -0.055391 -0.016069
 34 -12.668407 -7.748507 -10.702652 0.232939 0.033809 -0.007085
 35 -0.490773 14.424885 -10.375053 0.551763 -0.021157 0.031174
time 7
  0 0.768169 -0.850492 1.544617 0.000000 -0.000000 0.000000
  1 0.768169 -0.850492 1.544617 0.000000 -0.000000 0.000000
  2 0.984829 -7.246327 246.548599 0.000000 -0.000000 0.000000
  3 0.998367 -3.471023 1.599335 0.000000 -0.000000 0.000000
  4 0.998364 -3.471023 129.697144 0.274583 -0.032213 0.003477
  5 -11.802616 0.277819 -45.319954 -0.149307 0.000500 0.002405
  6 -0.797637 4.276051 -49.223648 0.431410 -0.028210 -0.210810
  7 -0.000015 0.000000 -7.282926 0.000000 -0.000000 0.000000
  8 11.803272 0.236662 -45.319962 0.524611 -0.002515 0.008158
  9 0.812346 4.273224 -49.223576 0.279012 -0.037043 0.276911
 10 0.000004 -0.000004 -7.282919 0.000000 -0.000000 0.000000
 11 -0.008775 0.029097 10.845085 0.208075 -0.000373 0.296165
 12 -16.431322 3.246391 32.898773 0.031431 0.266306 -0.619890
 13 -12.321602 -2.201923 -17.125473 -0.054940 -0.002577 0.040016
 14 -13.252197 -2.413303 -18.422256 0.000555 -0.005208 0.000282
 15 -3.868652 -0.832962 -6.257858 0.000000 -0.000000 0.000000
 16 -37.279160 -5.051155 -38.191170 0.000000 -0.000000 0.000000
 17 -3.806091 -1.056419 -7.595879 0.000000 -0.000000 0.000000
 18 16.442680 3.189079 32.898758 -0.031900 -0.366265 -0.241905
 19 12.313789 -2.244881 -17.125641 0.000000 -0.000000 0.000000
 20 13.243645 -2.459515 -18.422234 0.000570 0.005208 -0.000280
 21 4.038895 -0.928104 -8.488220 0.000000 -0.000000 0.000000
 22 -0.000702 -0.454948 46.067261 -0.512186 0.021186 -0.257136
 23 -0.489965 22.757858 18.761993 0.000000 -0.000000 0.000000
 24 0.260410 -19.713448 -182.090988 0.000000 -0.000000 0.000000
 25 -16.518969 9.856468 11.602493 0.000000 -0.000000 0.000000
 26 12.687098 8.730814 11.180969 0.000000 -0.000000 0.000000
 27 -0.009703 -4.696526 26.699997 0.000000 -0.000000 0.000000
 28 -0.000043 -0.005970 23.601593 0.000000 -0.000000 0.000000
 29 -21.531246 -10.281179 -6.106499 0.449297 0.281134 -0.073981
 30 6.667689 -19.285318 -6.979965 0.032075 0.059286 0.005017
 31 21.613556 5.850679 -6.561752 0.422689 -0.137549 -0.041759
 32 -0.490763 19.244425 -5.608505 0.668297 -0.016998 0.032529
 33 12.172537 -7.748503 -10.307106 0.351586 -0.049075 -0.013443
 34 -12.668407 -7.748505 -10.702652 0.244910 0.043846 -0.009189
 35 -0.490771 14.424883 -10.375061 0.563291 -0.015063 0.029717
time 8
  0 0.768169 -0.850492 1.544617 0.000000 -0.000000 0.000000
  1 0.768169 -0.850492 1.544617 0.000000 -0.000000 0.000000
  2 0.984829 -7.246327 246.548599 0.000000 -0.000000 0.000000
  3 0.998367 -3.471023 1.599335 0.000000 -0.000000 0.000000
  4 0.998364 -3.471023 128.603119 0.276282 -0.032389 0.003762
  5 -11.802619 0.277813 -45.319954 -0.152656 0.000543 0.002458
  6 -0.797637 4.276045 -49.223656 0.431586 -0.028378 -0.210912
  7 -0.000013 -0.000004 -7.282924 0.000000 -0.000000 0.000000
  8 11.803273 0.236654 -45.319962 0.525135 -0.002520 0.008165
  9 0.812342 4.273209 -49.223576 0.278195 -0.036875 0.276951
 10 0.000004 -0.000008 -7.282923 0.000000 -0.000000 0.000000
 11 -0.008772 0.029091 10.845116 0.208991 -0.000383 0.296272
 12 -16.431320 3.246399 32.898766 0.046714 0.268539 -0.627949
 13 -12.321602 -2.201939 -17.125488 -0.054940 -0.002577 0.040016
 14 -13.252197 -2.413311 -18.422264 0.000555 -0.005208 0.000282
 15 -3.868652 -0.832970 -6.257851 0.000000 -0.000000 0.000000
 16 -37.279190 -5.051163 -38.191177 0.000000 -0.000000 0.000000
 17 -3.806091 -1.056419 -7.595863 0.000000 -0.000000 0.000000
 18 16.442686 3.189087 32.898766 -0.013392 -0.368583 -0.230521
 19 12.313797 -2.244881 -17.125648 0.000000 -0.000000 0.000000
 20 13.243652 -2.459518 -18.422241 0.000570 0.005208 -0.000280
 21 4.038902 -0.928108 -8.488220 0.000000 -0.000000 0.000000
 22 -0.000700 -0.454941 46.067253 -0.514415 0.021324 -0.257499
 23 -0.489965 22.757860 18.761993 0.000000 -0.000000 0.000000
 24 0.260406 -19.713432 -182.091019 0.000000 -0.000000 0.000000
 25 -16.518970 9.856464 11.602509 0.000000 -0.000000 0.000000
 26 12.687097 8.730810 11.180984 0.000000 -0.000000 0.000000
 27 -0.009703 -4.696529 26.700012 0.000000 -0.000000 0.000000
 28 -0.000040 -0.005962 23.601601 0.000000 -0.000000 0.000000
 29 -21.531246 -10.281178 -6.106499 0.451608 0.267438 -0.070920
 30 6.667689 -19.285315 -6.979958 0.000013 0.055733 0.006861
 31 21.613560 5.850674 -6.561745 0.404578 -0.137942 -0.043364
 32 -0.490766 19.244427 -5.608490 0.677949 -0.009990 0.029443
 33 12.172540 -7.748503 -10.307091 0.323001 -0.042414 -0.010673
 34 -12.668406 -7.748507 -10.702652 0.256948 0.054431 -0.011407
 35 -0.490773 14.424877 -10.375053 0.574154 -0.008636 0.028180
time 9
  0 0.768169 -0.850492 1.544617 0.000000 -0.000000 0.000000
  1 0.768169 -0.850492 1.544617 0.000000 -0.000000 0.000000
  2 0.984829 -7.246327 246.548599 0.000000 -0.000000 0.000000
  3 0.998367 -3.471023 1.599335 0.000000 -0.000000 0.000000
  4 0.998364 -3.471023 127.592743 0.277443 -0.032519 0.003957
  5 -11.802616 0.277817 -45.319954 -0.154945 0.000582 0.002495
  6 -0.797637 4.276045 -49.223656 0.431703 -0.028494 -0.211006
  7 -0.000013 -0.000004 -7.282921 0.000000 -0.000000 0.000000
  8 11.803273 0.236658 -45.319954 0.525507 -0.002523 0.008169
  9 0.812342 4.273209 -49.223576 0.277636 -0.036759 0.276978
 10 0.000000 -0.000004 -7.282925 0.000000 -0.000000 0.000000
 11 -0.008769 0.029085 10.845131 0.209616 -0.000391 0.296369
 12 -16.431320 3.246395 32.898781 0.060833 0.270103 -0.634980
 13 -12.321602 -2.201927 -17.125481 -0.054940 -0.002577 0.040016
 14 -13.252190 -2.413311 -18.422264 0.000555 -0.005208 0.000282
 15 -3.868645 -0.832973 -6.257858 0.000000 -0.000000 0.000000
 16 -37.279175 -5.051151 -38.191174 0.000000 -0.000000 0.000000
 17 -3.806099 -1.056423 -7.595871 0.000000 -0.000000 0.000000
 18 16.442680 3.189072 32.898766 0.003703 -0.370152 -0.220007
 19 12.313797 -2.244888 -17.125641 0.000000 -0.000000 0.000000
 20 13.243652 -2.459526 -18.422249 0.000570 0.005208 -0.000280
 21 4.038895 -0.928104 -8.488213 0.000000 -0.000000 0.000000
 22 -0.000699 -0.454945 46.067268 -0.515939 0.021420 -0.257816
 23 -0.489967 22.757854 18.761978 0.000000 -0.000000 0.000000
 24 0.260409 -19.713381 -182.090988 0.000000 -0.000000 0.000000
 25 -16.518969 9.856464 11.602493 0.000000 -0.000000 0.000000
 26 12.687094 8.730804 11.180969 0.000000 -0.000000 0.000000
 27 -0.009703 -4.696537 26.699997 0.000000 -0.000000 0.000000
 28 -0.000043 -0.005966 23.601585 0.000000 -0.000000 0.000000
 29 -21.531242 -10.281179 -6.106491 0.453531 0.253377 -0.067776
 30 6.667689 -19.285315 -6.979950 -0.032906 0.052086 0.008753
 31 21.613556 5.850676 -6.561745 0.385984 -0.138275 -0.044912
 32 -0.490766 19.244421 -5.608498 0.686673 -0.002795 0.026273
 33 12.172540 -7.748503 -10.307098 0.293653 -0.035575 -0.007829
 34 -12.668404 -7.748503 -10.702652 0.268846 0.065299 -0.013685
 35 -0.490773 14.424879 -10.375053 0.584292 -0.002038 0.026603
time 10
  0 0.768169 -0.850492 1.544617 0.000000 -0.000000 0.000000
  1 0.768169 -0.850492 1.544617 0.000000 -0.000000 0.000000
  2 0.984829 -7.246327 246.548599 0.000000 -0.000000 0.000000
  3 0.998367 -3.471023 1.599335 0.000000 -0.000000 0.000000
  4 0.998364 -3.471023 126.720093 0.278167 -0.032608 0.004081
  5 -11.802620 0.277815 -45.319946 -0.156375 0.000617 0.002518
  6 -0.797639 4.276049 -49.223671 0.431775 -0.028567 -0.211087
  7 -0.000014 -0.000004 -7.282921 0.000000 -0.000000 0.000000
  8 11.803273 0.236660 -45.319954 0.525752 -0.002525 0.008173
  9 0.812346 4.273193 -49.223564 0.277287 -0.036686 0.276995
 10 0.000000 -0.000004 -7.282923 0.000000 -0.000000 0.000000
 11 -0.008766 0.029081 10.845161 0.210006 -0.000398 0.296450
 12 -16.431320 3.246399 32.898781 0.073034 0.271116 -0.640771
 13 -12.321602 -2.201939 -17.125496 -0.054940 -0.002577 0.040016
 14 -13.252197 -2.413307 -18.422256 0.000555 -0.005208 0.000282
 15 -3.868637 -0.832970 -6.257858 0.000000 -0.000000 0.000000
 16 -37.279175 -5.051151 -38.191177 0.000000 -0.000000 0.000000
 17 -3.806084 -1.056423 -7.595871 0.000000 -0.000000 0.000000
 18 16.442684 3.189075 32.898766 0.018474 -0.371117 -0.210927
 19 12.313789 -2.244888 -17.125648 0.000000 -0.000000 0.000000
 20 13.243668 -2.459511 -18.422249 0.000570 0.005208 -0.000280
 21 4.038902 -0.928108 -8.488220 0.000000 -0.000000 0.000000
 22 -0.000699 -0.454941 46.067268 -0.516890 0.021481 -0.258076
 23 -0.489966 22.757856 18.761993 0.000000 -0.000000 0.000000
 24 0.260399 -19.713413 -182.091003 0.000000 -0.000000 0.000000
 25 -16.518969 9.856466 11.602493 0.000000 -0.000000 0.000000
 26 12.687098 8.730808 11.180984 0.000000 -0.000000 0.000000
 27 -0.009701 -4.696533 26.700012 0.000000 -0.000000 0.000000
 28 -0.000043 -0.005970 23.601585 0.000000 -0.000000 0.000000
 29 -21.531250 -10.281179 -6.106499 0.455103 0.239294 -0.064628
 30 6.667688 -19.285313 -6.979950 -0.065875 0.048433 0.010649
 31 21.613560 5.850679 -6.561745 0.367361 -0.138554 -0.046385
 32 -0.490764 19.244425 -5.608490 0.694472 0.004411 0.023099
 33 12.172538 -7.748499 -10.307098 0.264261 -0.028725 -0.004981
 34 -12.668406 -7.748505 -10.702644 0.280398 0.076184 -0.015966
 35 -0.490771 14.424879 -10.375053 0.593641 0.004571 0.025022
time 11
  0 0.768169 -0.850492 1.544617 0.000000 -0.000000 0.000000
  1 0.768169 -0.850492 1.544617 0.000000 -0.000000 0.000000
  2 0.984829 -7.246327 246.548599 0.000000 -0.000000 0.000000
  3 0.998367 -3.471023 1.599335 0.000000 -0.000000 0.000000
  4 0.998364 -3.471023 126.039230 0.278558 -0.032663 0.004149
  5 -11.802619 0.277819 -45.319946 -0.157146 0.000643 0.002530
  6 -0.797639 4.276043 -49.223656 0.431811 -0.028607 -0.211151
  7 -0.000015 -0.000004 -7.282923 0.000000 -0.000000 0.000000
  8 11.803274 0.236660 -45.319946 0.525896 -0.002527 0.008175
  9 0.812344 4.273216 -49.223583 0.277098 -0.036645 0.277004
 10 0.000004 -0.000004 -7.282921 0.000000 -0.000000 0.000000
 11 -0.008764 0.029076 10.845146 0.210216 -0.000403 0.296513
 12 -16.431320 3.246399 32.898781 0.082562 0.271693 -0.645113
 13 -12.321602 -2.201927 -17.125473 -0.054940 -0.002577 0.040016
 14 -13.252197 -2.413300 -18.422249 0.000555 -0.005209 0.000282
 15 -3.868652 -0.832966 -6.257851 0.000000 -0.000000 0.000000
 16 -37.279190 -5.051147 -38.191185 0.000000 -0.000000 0.000000
 17 -3.806091 -1.056423 -7.595879 0.000000 -0.000000 0.000000
 18 16.442682 3.189075 32.898781 0.030005 -0.371625 -0.203842
 19 12.313797 -2.244881 -17.125633 0.000000 -0.000000 0.000000
 20 13.243645 -2.459518 -18.422241 0.000570 0.005208 -0.000280
 21 4.038895 -0.928112 -8.488220 0.000000 -0.000000 0.000000
 22 -0.000701 -0.454945 46.067253 -0.517402 0.021515 -0.258272
 23 -0.489966 22.757862 18.761993 0.000000 -0.000000 0.000000
 24 0.260406 -19.713427 -182.091019 0.000000 -0.000000 0.000000
 25 -16.518970 9.856464 11.602493 0.000000 -0.000000 0.000000
 26 12.687099 8.730810 11.180984 0.000000 -0.000000 0.000000
 27 -0.009703 -4.696537 26.699997 0.000000 -0.000000 0.000000
 28 -0.000042 -0.005966 23.601601 0.000000 -0.000000 0.000000
 29 -21.531246 -10.281181 -6.106491 0.456358 0.225533 -0.061552
 30 6.667689 -19.285318 -6.979958 -0.098088 0.044863 0.012501
 31 21.613556 5.850677 -6.561737 0.349165 -0.138783 -0.047762
 32 -0.490764 19.244427 -5.608498 0.701350 0.011452 0.019998
 33 12.172539 -7.748503 -10.307098 0.235541 -0.022032 -0.002198
 34 -12.668406 -7.748505 -10.702644 0.291396 0.086819 -0.018195
 35 -0.490772 14.424881 -10.375046 0.602141 0.011029 0.023478
time 12
  0 0.768169 -0.850492 1.544617 0.000000 -0.000000 0.000000
  1 0.768169 -0.850492 1.544617 0.000000 -0.000000 0.000000
  2 0.984829 -7.246327 246.548599 0.000000 -0.000000 0.000000
  3 0.998367 -3.471023 1.599335 0.000000 -0.000000 0.000000
  4 0.998364 -3.471023 125.604240 0.278716 -0.032691 0.004177
  5 -11.802617 0.277815 -45.319946 -0.157460 0.000660 0.002535
  6 -0.797637 4.276039 -49.223648 0.431824 -0.028624 -0.211191
  7 -0.000013 -0.000004 -7.282918 0.000000 -0.000000 0.000000
  8 11.803271 0.236656 -45.319946 0.525964 -0.002527 0.008176
  9 0.812344 4.273209 -49.223564 0.277022 -0.036628 0.277007
 10 0.000004 0.000000 -7.282919 0.000000 -0.000000 0.000000
 11 -0.008763 0.029078 10.845161 0.210300 -0.000407 0.296554
 12 -16.431316 3.246395 32.898781 0.088663 0.271950 -0.647795
 13 -12.321587 -2.201935 -17.125488 -0.054940 -0.002577 0.040016
 14 -13.252190 -2.413303 -18.422241 0.000555 -0.005209 0.000282
 15 -3.868645 -0.832966 -6.257858 0.000000 -0.000000 0.000000
 16 -37.279152 -5.051147 -38.191162 0.000000 -0.000000 0.000000
 17 -3.806076 -1.056423 -7.595871 0.000000 -0.000000 0.000000
 18 16.442680 3.189079 32.898781 0.037382 -0.371821 -0.199315
 19 12.313797 -2.244881 -17.125641 0.000000 -0.000000 0.000000
 20 13.243645 -2.459515 -18.422226 0.000570 0.005208 -0.000280
 21 4.038887 -0.928104 -8.488213 0.000000 -0.000000 0.000000
 22 -0.000698 -0.454933 46.067268 -0.517609 0.021530 -0.258392
 23 -0.489965 22.757853 18.762009 0.000000 -0.000000 0.000000
 24 0.260406 -19.713402 -182.091019 0.000000 -0.000000 0.000000
 25 -16.518963 9.856459 11.602509 0.000000 -0.000000 0.000000
 26 12.687094 8.730806 11.181000 0.000000 -0.000000 0.000000
 27 -0.009703 -4.696537 26.700012 0.000000 -0.000000 0.000000
 28 -0.000040 -0.005959 23.601585 0.000000 -0.000000 0.000000
 29 -21.531246 -10.281181 -6.106491 0.457331 0.212440 -0.058625
 30 6.667687 -19.285313 -6.979950 -0.128741 0.041467 0.014263
 31 21.613556 5.850676 -6.561737 0.331851 -0.138966 -0.049024
 32 -0.490764 19.244421 -5.608490 0.707313 0.018152 0.017047
 33 12.172538 -7.748503 -10.307098 0.208214 -0.015664 0.000450
 34 -12.668405 -7.748507 -10.702652 0.301635 0.096939 -0.020316
 35 -0.490772 14.424879 -10.375053 0.609731 0.017173 0.022009
time 13
  0 0.768169 -0.850492 1.544617 0.000000 -0.000000 0.000000
  1 0.768169 -0.850492 1.544617 0.000000 -0.000000 0.000000
  2 0.984829 -7.246327 246.548599 0.000000 -0.000000 0.000000
  3 0.998367 -3.471023 1.599335 0.000000 -0.000000 0.000000
  4 0.998364 -3.471023 125.467659 0.278743 -0.032698 0.004182
  5 -11.802616 0.277819 -45.319946 -0.157516 0.000665 0.002536
  6 -0.797636 4.276041 -49.223648 0.431825 -0.028627 -0.211204
  7 -0.000013 0.000000 -7.282919 0.000000 -0.000000 0.000000
  8 11.803274 0.236658 -45.319954 0.525978 -0.002527 0.008176
  9 0.812342 4.273209 -49.223568 0.277008 -0.036625 0.277008
 10 0.000000 -0.000004 -7.282913 0.000000 -0.000000 0.000000
 11 -0.008763 0.029074 10.845154 0.210315 -0.000408 0.296568
 12 -16.431320 3.246391 32.898766 0.090604 0.272005 -0.648616
 13 -12.321602 -2.201935 -17.125488 -0.054940 -0.002577 0.040017
 14 -13.252197 -2.413311 -18.422249 0.000555 -0.005209 0.000282
 15 -3.868652 -0.832966 -6.257858 0.000000 -0.000000 0.000000
 16 -37.279190 -5.051155 -38.191174 0.000000 -0.000000 0.000000
 17 -3.806091 -1.056427 -7.595879 0.000000 -0.000000 0.000000
 18 16.442680 3.189072 32.898750 0.039719 -0.371853 -0.197894
 19 12.313797 -2.244881 -17.125641 0.000000 -0.000000 0.000000
 20 13.243652 -2.459526 -18.422241 0.000570 0.005208 -0.000280
 21 4.038910 -0.928116 -8.488213 0.000000 -0.000000 0.000000
 22 -0.000703 -0.454952 46.067253 -0.517646 0.021533 -0.258429
 23 -0.489966 22.757858 18.761993 0.000000 -0.000000 0.000000
 24 0.260412 -19.713430 -182.090942 0.000000 -0.000000 0.000000
 25 -16.518969 9.856466 11.602509 0.000000 -0.000000 0.000000
 26 12.687096 8.730806 11.180984 0.000000 -0.000000 0.000000
 27 -0.009703 -4.696529 26.699997 0.000000 -0.000000 0.000000
 28 -0.000042 -0.005970 23.601570 0.000000 -0.000000 0.000000
 29 -21.531246 -10.281179 -6.106506 0.458059 0.200357 -0.055924
 30 6.667689 -19.285316 -6.979958 -0.157028 0.038333 0.015889
 31 21.613554 5.850676 -6.561745 0.315873 -0.139109 -0.050152
 32 -0.490764 19.244421 -5.608498 0.712364 0.024335 0.014324
 33 12.172539 -7.748503 -10.307098 0.182995 -0.009787 0.002894
 34 -12.668405 -7.748505 -10.702652 0.310908 0.106277 -0.022273
 35 -0.490772 14.424883 -10.375053 0.616347 0.022843 0.020653
time 14
  0 0.768169 -0.850492 1.544617 0.000000 -0.000000 0.000000
  1 0.768169 -0.850492 1.544617 0.000000 -0.000000 0.000000
  2 0.984829 -7.246327 246.548599 0.000000 -0.000000 0.000000
  3 0.998367 -3.471023 1.599335 0.000000 -0.000000 0.000000
  4 0.998364 -3.471023 125.468819 0.278691 -0.032694 0.004179
  5 -11.802620 0.277817 -45.319946 -0.157461 0.000665 0.002536
  6 -0.797639 4.276047 -49.223663 0.431825 -0.028626 -0.211204
  7 -0.000014 0.000000 -7.282921 0.000000 -0.000000 0.000000
  8 11.803274 0.236660 -45.319954 0.525800 -0.002526 0.008173
  9 0.812344 4.273216 -49.223576 0.277034 -0.036647 0.277004
 10 0.000000 -0.000004 -7.282919 0.000000 -0.000000 0.000000
 11 -0.008764 0.029072 10.845154 0.210294 -0.000405 0.296570
 12 -16.431324 3.246391 32.898773 0.090638 0.271998 -0.648591
 13 -12.321609 -2.201927 -17.125488 -0.054940 -0.002577 0.040016
 14 -13.252205 -2.413300 -18.422256 0.000555 -0.005208 0.000282
 15 -3.868668 -0.832962 -6.257843 0.000000 -0.000000 0.000000
 16 -37.279205 -5.051151 -38.191189 0.000000 -0.000000 0.000000
 17 -3.806107 -1.056423 -7.595863 0.000000 -0.000000 0.000000
 18 16.442688 3.189072 32.898773 0.039745 -0.371844 -0.197907
 19 12.313789 -2.244888 -17.125641 0.000000 -0.000000 0.000000
 20 13.243660 -2.459518 -18.422241 0.000570 0.005208 -0.000280
 21 4.038902 -0.928108 -8.488220 0.000000 -0.000000 0.000000
 22 -0.000699 -0.454941 46.067276 -0.517639 0.021521 -0.258428
 23 -0.489969 22.757866 18.761978 0.000000 -0.000000 0.000000
 24 0.260410 -19.713451 -182.090988 0.000000 -0.000000 0.000000
 25 -16.518970 9.856472 11.602509 0.000000 -0.000000 0.000000
 26 12.687098 8.730812 11.180984 0.000000 -0.000000 0.000000
 27 -0.009701 -4.696529 26.699997 0.000000 -0.000000 0.000000
 28 -0.000043 -0.005978 23.601578 0.000000 -0.000000 0.000000
 29 -21.531250 -10.281179 -6.106491 0.458576 0.189629 -0.053526
 30 6.667689 -19.285316 -6.979950 -0.182142 0.035550 0.017333
 31 21.613558 5.850679 -6.561737 0.301687 -0.139216 -0.051124
 32 -0.490765 19.244425 -5.608498 0.716507 0.029825 0.011906
 33 12.172541 -7.748501 -10.307098 0.160605 -0.004569 0.005063
 34 -12.668408 -7.748503 -10.702652 0.319008 0.114569 -0.024011
 35 -0.490773 14.424887 -10.375053 0.621930 0.027878 0.019450
time 15
  0 0.768169 -0.850492 1.544617 0.000000 -0.000000 0.000000
  1 0.768169 -0.850492 1.544617 0.000000 -0.000000 0.000000
  2 0.984829 -7.246327 246.548599 0.000000 -0.000000 0.000000
  3 0.998367 -3.471023 1.599335 0.000000 -0.000000 0.000000
  4 0.998364 -3.471023 125.472557 0.278538 -0.032683 0.004166
  5 -11.802620 0.277813 -45.319954 -0.157276 0.000664 0.002534
  6 -0.797639 4.276049 -49.223663 0.431824 -0.028622 -0.211203
  7 -0.000013 0.000000 -7.282920 0.000000 -0.000000 0.000000
  8 11.803273 0.236654 -45.319954 0.525361 -0.002522 0.008168
  9 0.812344 4.273224 -49.223568 0.277110 -0.036703 0.276995
 10 0.000004 -0.000004 -7.282919 0.000000 -0.000000 0.000000
 11 -0.008763 0.029074 10.845161 0.210230 -0.000400 0.296573
 12 -16.431320 3.246399 32.898766 0.090666 0.271951 -0.648494
 13 -12.321594 -2.201931 -17.125496 -0.054940 -0.002577 0.040016
 14 -13.252197 -2.413315 -18.422256 0.000555 -0.005208 0.000282
 15 -3.868652 -0.832962 -6.257858 0.000000 -0.000000 0.000000
 16 -37.279190 -5.051170 -38.191185 0.000000 -0.000000 0.000000
 17 -3.806091 -1.056423 -7.595871 0.000000 -0.000000 0.000000
 18 16.442684 3.189072 32.898766 0.039767 -0.371789 -0.197949
 19 12.313797 -2.244881 -17.125641 0.000000 -0.000000 0.000000
 20 13.243652 -2.459526 -18.422249 0.000570 0.005208 -0.000280
 21 4.038902 -0.928108 -8.488220 0.000000 -0.000000 0.000000
 22 -0.000700 -0.454945 46.067253 -0.517589 0.021489 -0.258424
 23 -0.489966 22.757854 18.762009 0.000000 -0.000000 0.000000
 24 0.260400 -19.713428 -182.091019 0.000000 -0.000000 0.000000
 25 -16.518967 9.856464 11.602509 0.000000 -0.000000 0.000000
 26 12.687095 8.730804 11.180984 0.000000 -0.000000 0.000000
 27 -0.009701 -4.696533 26.700012 0.000000 -0.000000 0.000000
 28 -0.000042 -0.005962 23.601585 0.000000 -0.000000 0.000000
 29 -21.531250 -10.281183 -6.106506 0.458917 0.180600 -0.051508
 30 6.667688 -19.285315 -6.979958 -0.203280 0.033208 0.018548
 31 21.613560 5.850676 -6.561752 0.289747 -0.139291 -0.051922
 32 -0.490765 19.244425 -5.608505 0.719746 0.034445 0.009871
 33 12.172540 -7.748503 -10.307098 0.141760 -0.000177 0.006889
 34 -12.668407 -7.748507 -10.702652 0.325730 0.121547 -0.025473
 35 -0.490773 14.424883 -10.375053 0.626416 0.032115 0.018436
time 16
  0 0.768169 -0.850492 1.544617 0.000000 -0.000000 0.000000
  1 0.768169 -0.850492 1.544617 0.000000 -0.000000 0.000000
  2 0.984829 -7.246327 246.548599 0.000000 -0.000000 0.000000
  3 0.998367 -3.471023 1.599335 0.000000 -0.000000 0.000000
  4 0.998364 -3.471023 125.479713 0.278267 -0.032663 0.004139
  5 -11.802617 0.277815 -45.319946 -0.156912 0.000661 0.002529
  6 -0.797638 4.276047 -49.223644 0.431823 -0.028613 -0.211201
  7 -0.000013 0.000000 -7.282919 0.000000 -0.000000 0.000000
  8 11.803272 0.236660 -45.319946 0.524712 -0.002516 0.008159
  9 0.812346 4.273224 -49.223568 0.277243 -0.036789 0.276981
 10 0.000000 -0.000004 -7.282921 0.000000 -0.000000 0.000000
 11 -0.008763 0.029074 10.845123 0.210111 -0.000391 0.296574
 12 -16.431314 3.246399 32.898781 0.090689 0.271823 -0.648280
 13 -12.321609 -2.201939 -17.125496 -0.054940 -0.002577 0.040016
 14 -13.252205 -2.413315 -18.422256 0.000555 -0.005208 0.000282
 15 -3.868652 -0.832973 -6.257858 0.000000 -0.000000 0.000000
 16 -37.279190 -5.051155 -38.191174 0.000000 -0.000000 0.000000
 17 -3.806091 -1.056423 -7.595871 0.000000 -0.000000 0.000000
 18 16.442684 3.189075 32.898766 0.039785 -0.371648 -0.198030
 19 12.313789 -2.244881 -17.125648 0.000000 -0.000000 0.000000
 20 13.243668 -2.459518 -18.422241 0.000570 0.005208 -0.000280
 21 4.038895 -0.928104 -8.488220 0.000000 -0.000000 0.000000
 22 -0.000698 -0.454948 46.067253 -0.517455 0.021438 -0.258416
 23 -0.489966 22.757854 18.761978 0.000000 -0.000000 0.000000
 24 0.260404 -19.713432 -182.091003 0.000000 -0.000000 0.000000
 25 -16.518969 9.856464 11.602509 0.000000 -0.000000 0.000000
 26 12.687098 8.730806 11.180984 0.000000 -0.000000 0.000000
 27 -0.009702 -4.696529 26.700012 0.000000 -0.000000 0.000000
 28 -0.000042 -0.005966 23.601585 0.000000 -0.000000 0.000000
 29 -21.531246 -10.281181 -6.106499 0.459119 0.173614 -0.049946
 30 6.667687 -19.285313 -6.979958 -0.219634 0.031396 0.019488
 31 21.613556 5.850679 -6.561752 0.280510 -0.139339 -0.052526
 32 -0.490764 19.244421 -5.608505 0.722087 0.038019 0.008296
 33 12.172539 -7.748503 -10.307106 0.127180 0.003220 0.008302
 34 -12.668406 -7.748505 -10.702652 0.330866 0.126947 -0.026605
 35 -0.490772 14.424879 -10.375061 0.629745 0.035393 0.017653
time 17
  0 0.768169 -0.850492 1.544617 0.000000 -0.000000 0.000000
  1 0.768169 -0.850492 1.544617 0.000000 -0.000000 0.000000
  2 0.984829 -7.246327 246.548599 0.000000 -0.000000 0.000000
  3 0.998367 -3.471023 1.599335 0.000000 -0.000000 0.000000
  4 0.998364 -3.471023 125.491135 0.277860 -0.032631 0.004094
  5 -11.802618 0.277815 -45.319962 -0.156316 0.000657 0.002521
  6 -0.797640 4.276047 -49.223656 0.431820 -0.028595 -0.211197
  7 -0.000015 -0.000004 -7.282921 0.000000 -0.000000 0.000000
  8 11.803269 0.236658 -45.319962 0.523904 -0.002509 0.008149
  9 0.812344 4.273193 -49.223572 0.277442 -0.036900 0.276962
 10 0.000000 -0.000004 -7.282921 0.000000 -0.000000 0.000000
 11 -0.008763 0.029078 10.845146 0.209924 -0.000381 0.296575
 12 -16.431316 3.246399 32.898781 0.090707 0.271572 -0.647904
 13 -12.321602 -2.201927 -17.125481 -0.054940 -0.002577 0.040017
 14 -13.252197 -2.413311 -18.422256 0.000555 -0.005209 0.000282
 15 -3.868645 -0.832970 -6.257866 0.000000 -0.000000 0.000000
 16 -37.279190 -5.051159 -38.191185 0.000000 -0.000000 0.000000
 17 -3.806084 -1.056427 -7.595879 0.000000 -0.000000 0.000000
 18 16.442684 3.189079 32.898781 0.039800 -0.371380 -0.198159
 19 12.313789 -2.244888 -17.125656 0.000000 -0.000000 0.000000
 20 13.243645 -2.459518 -18.422241 0.000570 0.005208 -0.000280
 21 4.038895 -0.928112 -8.488235 0.000000 -0.000000 0.000000
 22 -0.000697 -0.454948 46.067253 -0.517195 0.021371 -0.258403
 23 -0.489967 22.757858 18.761978 0.000000 -0.000000 0.000000
 24 0.260400 -19.713383 -182.091019 0.000000 -0.000000 0.000000
 25 -16.518967 9.856466 11.602509 0.000000 -0.000000 0.000000
 26 12.687094 8.730806 11.180984 0.000000 -0.000000 0.000000
 27 -0.009701 -4.696541 26.700012 0.000000 -0.000000 0.000000
 28 -0.000041 -0.005962 23.601601 0.000000 -0.000000 0.000000
 29 -21.531246 -10.281179 -6.106499 0.459215 0.169015 -0.048918
 30 6.667687 -19.285315 -6.979958 -0.230400 0.030203 0.020107
 31 21.613556 5.850676 -6.561745 0.274428 -0.139365 -0.052915
 32 -0.490765 19.244425 -5.608498 0.723533 0.040372 0.007260
 33 12.172538 -7.748501 -10.307091 0.117582 0.005457 0.009232
 34 -12.668406 -7.748503 -10.702652 0.334210 0.130501 -0.027350
 35 -0.490773 14.424883 -10.375053 0.631855 0.037551 0.017137
time 18
  0 0.768169 -0.850492 1.544617 0.000000 -0.000000 0.000000
  1 0.768169 -0.850492 1.544617 0.000000 -0.000000 0.000000
  2 0.984829 -7.246327 246.548599 0.000000 -0.000000 0.000000
  3 0.998367 -3.471023 1.599335 0.000000 -0.000000 0.000000
  4 0.998364 -3.471023 125.507668 0.277301 -0.032586 0.004025
  5 -11.802617 0.277817 -45.319954 -0.155439 0.000652 0.002509
  6 -0.797639 4.276051 -49.223656 0.431817 -0.028568 -0.211191
  7 -0.000014 -0.000004 -7.282920 0.000000 -0.000000 0.000000
  8 11.803269 0.236658 -45.319962 0.522989 -0.002501 0.008137
  9 0.812342 4.273209 -49.223587 0.277714 -0.037033 0.276939
 10 0.000004 -0.000008 -7.282919 0.000000 -0.000000 0.000000
 11 -0.008763 0.029078 10.845146 0.209657 -0.000369 0.296576
 12 -16.431318 3.246395 32.898766 0.090722 0.271158 -0.647323
 13 -12.321602 -2.201946 -17.125481 -0.054940 -0.002577 0.040016
 14 -13.252190 -2.413319 -18.422256 0.000555 -0.005209 0.000282
 15 -3.868652 -0.832966 -6.257858 0.000000 -0.000000 0.000000
 16 -37.279175 -5.051170 -38.191170 0.000000 -0.000000 0.000000
 17 -3.806091 -1.056423 -7.595879 0.000000 -0.000000 0.000000
 18 16.442680 3.189083 32.898781 0.039811 -0.370943 -0.198346
 19 12.313789 -2.244888 -17.125664 0.000000 -0.000000 0.000000
 20 13.243652 -2.459526 -18.422249 0.000570 0.005208 -0.000280
 21 4.038895 -0.928108 -8.488220 0.000000 -0.000000 0.000000
 22 -0.000701 -0.454937 46.067253 -0.516766 0.021288 -0.258383
 23 -0.489964 22.757847 18.761978 0.000000 -0.000000 0.000000
 24 0.260396 -19.713369 -182.091003 0.000000 -0.000000 0.000000
 25 -16.518965 9.856459 11.602493 0.000000 -0.000000 0.000000
 26 12.687097 8.730801 11.181000 0.000000 -0.000000 0.000000
 27 -0.009701 -4.696541 26.699997 0.000000 -0.000000 0.000000
 28 -0.000041 -0.005962 23.601601 0.000000 -0.000000 0.000000
 29 -21.531246 -10.281181 -6.106491 0.459242 0.167148 -0.048501
 30 6.667687 -19.285315 -6.979958 -0.234772 0.029719 0.020359
 31 21.613552 5.850674 -6.561745 0.271959 -0.139374 -0.053070
 32 -0.490764 19.244419 -5.608505 0.724087 0.041328 0.006839
 33 12.172536 -7.748503 -10.307098 0.113684 0.006365 0.009610
 34 -12.668405 -7.748507 -10.702652 0.335555 0.131944 -0.027652
 35 -0.490772 14.424881 -10.375061 0.632684 0.038427 0.016927
time 19
  0 0.768169 -0.850492 1.544617 0.000000 -0.000000 0.000000
  1 0.768169 -0.850492 1.544617 0.000000 -0.000000 0.000000
  2 0.984829 -7.246327 246.548599 0.000000 -0.000000 0.000000
  3 0.998367 -3.471023 1.599335 0.000000 -0.000000 0.000000
  4 0.998364 -3.471023 125.530151 0.276571 -0.032525 0.003929
  5 -11.802622 0.277817 -45.319962 -0.154229 0.000645 0.002491
  6 -0.797640 4.276052 -49.223652 0.431812 -0.028528 -0.211182
  7 -0.000013 0.000000 -7.282921 0.000000 -0.000000 0.000000
  8 11.803272 0.236662 -45.319954 0.522019 -0.002493 0.008124
  9 0.812340 4.273209 -49.223583 0.278068 -0.037183 0.276911
 10 0.000000 0.000000 -7.282925 0.000000 -0.000000 0.000000
 11 -0.008763 0.029078 10.845123 0.209299 -0.000357 0.296577
 12 -16.431320 3.246391 32.898781 0.090732 0.270539 -0.646493
 13 -12.321609 -2.201935 -17.125488 -0.054940 -0.002577 0.040016
 14 -13.252205 -2.413311 -18.422256 0.000555 -0.005208 0.000282
 15 -3.868652 -0.832966 -6.257866 0.000000 -0.000000 0.000000
 16 -37.279175 -5.051159 -38.191177 0.000000 -0.000000 0.000000
 17 -3.806091 -1.056427 -7.595886 0.000000 -0.000000 0.000000
 18 16.442680 3.189064 32.898766 0.039819 -0.370297 -0.198600
 19 12.313797 -2.244873 -17.125641 0.000000 -0.000000 0.000000
 20 13.243645 -2.459526 -18.422241 0.000570 0.005208 -0.000280
 21 4.038910 -0.928108 -8.488213 0.000000 -0.000000 0.000000
 22 -0.000699 -0.454948 46.067268 -0.516127 0.021192 -0.258355
 23 -0.489965 22.757854 18.761993 0.000000 -0.000000 0.000000
 24 0.260393 -19.713390 -182.091034 0.000000 -0.000000 0.000000
 25 -16.518965 9.856464 11.602493 0.000000 -0.000000 0.000000
 26 12.687096 8.730808 11.181000 0.000000 -0.000000 0.000000
 27 -0.009700 -4.696541 26.700012 0.000000 -0.000000 0.000000
 28 -0.000042 -0.005974 23.601601 0.000000 -0.000000 0.000000
 29 -21.531250 -10.281181 -6.106506 0.459173 0.168453 -0.048793
 30 6.667690 -19.285320 -6.979958 -0.231716 0.030057 0.020183
 31 21.613558 5.850676 -6.561745 0.273685 -0.139361 -0.052985
 32 -0.490766 19.244429 -5.608498 0.723970 0.040660 0.007133
 33 12.172541 -7.748503 -10.307098 0.116409 0.005731 0.009346
 34 -12.668407 -7.748503 -10.702652 0.334869 0.130936 -0.027441
 35 -0.490773 14.424887 -10.375053 0.632490 0.037815 0.017073
time 20
  0 0.768169 -0.850492 1.544617 0.000000 -0.000000 0.000000
  1 0.768169 -0.850492 1.544617 0.000000 -0.000000 0.000000
  2 0.984829 -7.246327 246.548599 0.000000 -0.000000 0.000000
  3 0.998367 -3.471023 1.599335 0.000000 -0.000000 0.000000
  4 0.998364 -3.471023 125.559433 0.275655 -0.032447 0.003800
  5 -11.802622 0.277817 -45.319962 -0.152636 0.000637 0.002468
  6 -0.797641 4.276051 -49.223656 0.431806 -0.028473 -0.211170
  7 -0.000013 0.000000 -7.282924 0.000000 -0.000000 0.000000
  8 11.803271 0.236660 -45.319954 0.521045 -0.002484 0.008111
  9 0.812340 4.273224 -49.223572 0.278512 -0.037347 0.276880
 10 0.000000 0.000004 -7.282923 0.000000 -0.000000 0.000000
 11 -0.008762 0.029079 10.845093 0.208838 -0.000345 0.296578
 12 -16.431316 3.246395 32.898773 0.090740 0.269675 -0.645370
 13 -12.321602 -2.201935 -17.125488 -0.054940 -0.002577 0.040016
 14 -13.252205 -2.413319 -18.422264 0.000555 -0.005209 0.000282
 15 -3.868668 -0.832954 -6.257851 0.000000 -0.000000 0.000000
 16 -37.279190 -5.051163 -38.191185 0.000000 -0.000000 0.000000
 17 -3.806107 -1.056419 -7.595871 0.000000 -0.000000 0.000000
 18 16.442684 3.189075 32.898758 0.039825 -0.369400 -0.198932
 19 12.313797 -2.244888 -17.125648 0.000000 -0.000000 0.000000
 20 13.243652 -2.459522 -18.422241 0.000570 0.005208 -0.000280
 21 4.038902 -0.928108 -8.488220 0.000000 -0.000000 0.000000
 22 -0.000696 -0.454945 46.067261 -0.515236 0.021084 -0.258318
 23 -0.489966 22.757858 18.762009 0.000000 -0.000000 0.000000
 24 0.260396 -19.713419 -182.091003 0.000000 -0.000000 0.000000
 25 -16.518970 9.856468 11.602509 0.000000 -0.000000 0.000000
 26 12.687097 8.730808 11.181015 0.000000 -0.000000 0.000000
 27 -0.009700 -4.696533 26.700027 0.000000 -0.000000 0.000000
 28 -0.000041 -0.005974 23.601578 0.000000 -0.000000 0.000000
 29 -21.531246 -10.281178 -6.106499 0.458912 0.172979 -0.049804
 30 6.667689 -19.285318 -6.979965 -0.221121 0.031231 0.019574
 31 21.613560 5.850677 -6.561745 0.279670 -0.139312 -0.052680
 32 -0.490766 19.244427 -5.608498 0.723443 0.038344 0.008153
 33 12.172540 -7.748503 -10.307098 0.125854 0.003529 0.008431
 34 -12.668406 -7.748505 -10.702652 0.332421 0.127438 -0.026708
 35 -0.490773 14.424881 -10.375061 0.631688 0.035691 0.017581
time 21
  0 0.768169 -0.850492 1.544617 0.000000 -0.000000 0.000000
  1 0.768169 -0.850492 1.544617 0.000000 -0.000000 0.000000
  2 0.984829 -7.246327 246.548599 0.000000 -0.000000 0.000000
  3 0.998367 -3.471023 1.599335 0.000000 -0.000000 0.000000
  4 0.998364 -3.471023 125.596359 0.274534 -0.032350 0.003634
  5 -11.802618 0.277813 -45.319969 -0.150609 0.000626 0.002437
  6 -0.797640 4.276047 -49.223663 0.431799 -0.028401 -0.211154
  7 -0.000014 -0.000004 -7.282920 0.000000 -0.000000 0.000000
  8 11.803273 0.236656 -45.319969 0.520118 -0.002476 0.008099
  9 0.812342 4.273201 -49.223576 0.279053 -0.037518 0.276845
 10 0.000008 -0.000004 -7.282923 0.000000 -0.000000 0.000000
 11 -0.008763 0.029089 10.845078 0.208261 -0.000334 0.296578
 12 -16.431316 3.246403 32.898781 0.090745 0.268524 -0.643909
 13 -12.321594 -2.201927 -17.125481 -0.054940 -0.002577 0.040016
 14 -13.252197 -2.413307 -18.422249 0.000555 -0.005208 0.000282
 15 -3.868645 -0.832973 -6.257851 0.000000 -0.000000 0.000000
 16 -37.279175 -5.051159 -38.191181 0.000000 -0.000000 0.000000
 17 -3.806084 -1.056427 -7.595871 0.000000 -0.000000 0.000000
 18 16.442682 3.189087 32.898781 0.039829 -0.368212 -0.199350
 19 12.313797 -2.244881 -17.125641 0.000000 -0.000000 0.000000
 20 13.243645 -2.459522 -18.422241 0.000570 0.005208 -0.000280
 21 4.038895 -0.928108 -8.488220 0.000000 -0.000000 0.000000
 22 -0.000698 -0.454941 46.067253 -0.514052 0.020965 -0.258271
 23 -0.489965 22.757851 18.761978 0.000000 -0.000000 0.000000
 24 0.260395 -19.713413 -182.091003 0.000000 -0.000000 0.000000
 25 -16.518965 9.856462 11.602478 0.000000 -0.000000 0.000000
 26 12.687094 8.730806 11.180984 0.000000 -0.000000 0.000000
 27 -0.009700 -4.696537 26.699997 0.000000 -0.000000 0.000000
 28 -0.000039 -0.005962 23.601601 0.000000 -0.000000 0.000000
 29 -21.531246 -10.281178 -6.106506 0.458439 0.180302 -0.051441
 30 6.667688 -19.285313 -6.979965 -0.203976 0.033131 0.018588
 31 21.613552 5.850677 -6.561752 0.289354 -0.139225 -0.052169
 32 -0.490764 19.244423 -5.608505 0.722375 0.034597 0.009804
 33 12.172538 -7.748501 -10.307114 0.141140 -0.000033 0.006950
 34 -12.668405 -7.748501 -10.702652 0.328345 0.121777 -0.025521
 35 -0.490772 14.424881 -10.375069 0.630175 0.032254 0.018403
time 22
  0 0.768169 -0.850492 1.544617 0.000000 -0.000000 0.000000
  1 0.768169 -0.850492 1.544617 0.000000 -0.000000 0.000000
  2 0.984829 -7.246327 246.548599 0.000000 -0.000000 0.000000
  3 0.998367 -3.471023 1.599335 0.000000 -0.000000 0.000000
  4 0.998364 -3.471023 125.641777 0.273191 -0.032232 0.003426
  5 -11.802618 0.277817 -45.319946 -0.148097 0.000614 0.002398
  6 -0.797638 4.276047 -49.223648 0.431789 -0.028309 -0.211134
  7 -0.000013 -0.000008 -7.282919 0.000000 -0.000000 0.000000
  8 11.803270 0.236658 -45.319954 0.519289 -0.002469 0.008088
  9 0.812344 4.273209 -49.223583 0.279700 -0.037695 0.276808
 10 0.000000 0.000000 -7.282921 0.000000 -0.000000 0.000000
 11 -0.008763 0.029089 10.845055 0.207556 -0.000324 0.296578
 12 -16.431316 3.246391 32.898758 0.090748 0.267046 -0.642066
 13 -12.321594 -2.201939 -17.125488 -0.054940 -0.002577 0.040016
 14 -13.252190 -2.413307 -18.422256 0.000555 -0.005208 0.000282
 15 -3.868645 -0.832966 -6.257858 0.000000 -0.000000 0.000000
 16 -37.279160 -5.051147 -38.191177 0.000000 -0.000000 0.000000
 17 -3.806084 -1.056416 -7.595879 0.000000 -0.000000 0.000000
 18 16.442680 3.189075 32.898773 0.039831 -0.366691 -0.199866
 19 12.313782 -2.244888 -17.125648 0.000000 -0.000000 0.000000
 20 13.243652 -2.459526 -18.422241 0.000570 0.005208 -0.000280
 21 4.038910 -0.928101 -8.488213 0.000000 -0.000000 0.000000
 22 -0.000701 -0.454941 46.067261 -0.512532 0.020836 -0.258211
 23 -0.489967 22.757854 18.761978 0.000000 -0.000000 0.000000
 24 0.260405 -19.713417 -182.091003 0.000000 -0.000000 0.000000
 25 -16.518970 9.856466 11.602493 0.000000 -0.000000 0.000000
 26 12.687098 8.730806 11.180984 0.000000 -0.000000 0.000000
 27 -0.009702 -4.696533 26.699997 0.000000 -0.000000 0.000000
 28 -0.000041 -0.005966 23.601593 0.000000 -0.000000 0.000000
 29 -21.531246 -10.281181 -6.106499 0.457738 0.189998 -0.053609
 30 6.667688 -19.285318 -6.979958 -0.181278 0.035646 0.017283
 31 21.613556 5.850672 -6.561745 0.302175 -0.139098 -0.051464
 32 -0.490765 19.244425 -5.608498 0.720630 0.029636 0.011989
 33 12.172539 -7.748503 -10.307098 0.161375 -0.004748 0.004989
 34 -12.668406 -7.748507 -10.702644 0.322772 0.114284 -0.023951
 35 -0.490773 14.424879 -10.375053 0.627839 0.027704 0.019491
time 23
  0 0.768169 -0.850492 1.544617 0.000000 -0.000000 0.000000
  1 0.768169 -0.850492 1.544617 0.000000 -0.000000 0.000000
  2 0.984829 -7.246327 246.548599 0.000000 -0.000000 0.000000
  3 0.998367 -3.471023 1.599335 0.000000 -0.000000 0.000000
  4 0.998364 -3.471023 125.696526 0.271608 -0.032091 0.003173
  5 -11.802620 0.277815 -45.319954 -0.145049 0.000599 0.002350
  6 -0.797638 4.276052 -49.223663 0.431778 -0.028196 -0.211109
  7 -0.000014 -0.000004 -7.282920 0.000000 -0.000000 0.000000
  8 11.803273 0.236658 -45.319954 0.518611 -0.002464 0.008079
  9 0.812342 4.273193 -49.223579 0.280461 -0.037872 0.276768
 10 0.000004 -0.000004 -7.282928 0.000000 -0.000000 0.000000
 11 -0.008764 0.029093 10.845024 0.206713 -0.000316 0.296578
 12 -16.431320 3.246399 32.898773 0.090749 0.265200 -0.639799
 13 -12.321602 -2.201931 -17.125488 -0.054940 -0.002577 0.040016
 14 -13.252205 -2.413307 -18.422256 0.000555 -0.005208 0.000282
 15 -3.868652 -0.832962 -6.257858 0.000000 -0.000000 0.000000
 16 -37.279198 -5.051151 -38.191181 0.000000 -0.000000 0.000000
 17 -3.806091 -1.056419 -7.595871 0.000000 -0.000000 0.000000
 18 16.442684 3.189075 32.898773 0.039832 -0.364796 -0.200487
 19 12.313789 -2.244888 -17.125671 0.000000 -0.000000 0.000000
 20 13.243652 -2.459518 -18.422226 0.000570 0.005208 -0.000280
 21 4.038895 -0.928104 -8.488220 0.000000 -0.000000 0.000000
 22 -0.000698 -0.454948 46.067261 -0.510634 0.020700 -0.258138
 23 -0.489969 22.757862 18.761978 0.000000 -0.000000 0.000000
 24 0.260400 -19.713406 -182.090988 0.000000 -0.000000 0.000000
 25 -16.518974 9.856470 11.602493 0.000000 -0.000000 0.000000
 26 12.687099 8.730808 11.180984 0.000000 -0.000000 0.000000
 27 -0.009701 -4.696537 26.700012 0.000000 -0.000000 0.000000
 28 -0.000040 -0.005970 23.601593 0.000000 -0.000000 0.000000
 29 -21.531250 -10.281179 -6.106499 0.456788 0.201639 -0.056211
 30 6.667691 -19.285318 -6.979950 -0.154027 0.038665 0.015717
 31 21.613560 5.850676 -6.561745 0.317568 -0.138928 -0.050578
 32 -0.490766 19.244421 -5.608498 0.718072 0.023679 0.014613
 33 12.172542 -7.748503 -10.307098 0.185671 -0.010410 0.002634
 34 -12.668408 -7.748507 -10.702652 0.315834 0.105287 -0.022065
 35 -0.490774 14.424879 -10.375053 0.624570 0.022242 0.020797
time 24
  0 0.768169 -0.850492 1.544617 0.000000 -0.000000 0.000000
  1 0.768169 -0.850492 1.544617 0.000000 -0.000000 0.000000
  2 0.984829 -7.246327 246.548599 0.000000 -0.000000 0.000000
  3 0.998367 -3.471023 1.599335 0.000000 -0.000000 0.000000
  4 0.998364 -3.471023 125.840988 0.269825 -0.031925 0.002880
  5 -11.802618 0.277819 -45.319954 -0.141532 0.000580 0.002295
  6 -0.797638 4.276052 -49.223648 0.431742 -0.028060 -0.211075
  7 -0.000013 -0.000004 -7.282918 0.000000 -0.000000 0.000000
  8 11.803272 0.236662 -45.319946 0.518107 -0.002459 0.008073
  9 0.812342 4.273193 -49.223560 0.281317 -0.038043 0.276726
 10 0.000004 -0.000004 -7.282919 0.000000 -0.000000 0.000000
 11 -0.008763 0.029099 10.844994 0.205749 -0.000310 0.296569
 12 -16.431316 3.246399 32.898758 0.089509 0.262957 -0.636690
 13 -12.321602 -2.201923 -17.125488 -0.054940 -0.002577 0.040016
 14 -13.252197 -2.413307 -18.422249 0.000555 -0.005208 0.000282
 15 -3.868652 -0.832962 -6.257843 0.000000 -0.000000 0.000000
 16 -37.279160 -5.051144 -38.191170 0.000000 -0.000000 0.000000
 17 -3.806091 -1.056416 -7.595871 0.000000 -0.000000 0.000000
 18 16.442677 3.189072 32.898758 0.038331 -0.362517 -0.202044
 19 12.313789 -2.244888 -17.125648 0.000000 -0.000000 0.000000
 20 13.243645 -2.459530 -18.422234 0.000570 0.005208 -0.000280
 21 4.038895 -0.928104 -8.488213 0.000000 -0.000000 0.000000
 22 -0.000700 -0.454937 46.067261 -0.508385 0.020561 -0.258029
 23 -0.489967 22.757851 18.761993 0.000000 -0.000000 0.000000
 24 0.260408 -19.713390 -182.091019 0.000000 -0.000000 0.000000
 25 -16.518965 9.856461 11.602493 0.000000 -0.000000 0.000000
 26 12.687094 8.730803 11.181000 0.000000 -0.000000 0.000000
 27 -0.009703 -4.696537 26.700012 0.000000 -0.000000 0.000000
 28 -0.000042 -0.005962 23.601593 0.000000 -0.000000 0.000000
 29 -21.531242 -10.281179 -6.106491 0.455572 0.214798 -0.059153
 30 6.667690 -19.285320 -6.979950 -0.123219 0.042079 0.013945
 31 21.613554 5.850679 -6.561737 0.334970 -0.138713 -0.049525
 32 -0.490765 19.244429 -5.608498 0.714565 0.016945 0.017579
 33 12.172541 -7.748503 -10.307098 0.213136 -0.016811 -0.000027
 34 -12.668406 -7.748505 -10.702644 0.307664 0.095116 -0.019934
 35 -0.490773 14.424883 -10.375053 0.620256 0.016066 0.022274
time 25
  0 0.768169 -0.850492 1.544617 0.000000 -0.000000 0.000000
  1 0.768169 -0.850492 1.544617 0.000000 -0.000000 0.000000
  2 0.984829 -7.246327 246.548599 0.000000 -0.000000 0.000000
  3 0.998367 -3.471023 1.599335 0.000000 -0.000000 0.000000
  4 0.998364 -3.471023 126.312225 0.267999 -0.031737 0.002582
  5 -11.802617 0.277813 -45.319954 -0.137878 0.000556 0.002237
  6 -0.797638 4.276045 -49.223656 0.431612 -0.027902 -0.211020
  7 -0.000014 -0.000004 -7.282920 0.000000 -0.000000 0.000000
  8 11.803271 0.236658 -45.319954 0.517702 -0.002456 0.008067
  9 0.812342 4.273224 -49.223576 0.282189 -0.038204 0.276686
 10 0.000004 -0.000004 -7.282923 0.000000 -0.000000 0.000000
 11 -0.008766 0.029108 10.844978 0.204756 -0.000306 0.296521
 12 -16.431318 3.246395 32.898788 0.083318 0.260357 -0.631644
 13 -12.321609 -2.201923 -17.125488 -0.054940 -0.002577 0.040016
 14 -13.252205 -2.413296 -18.422241 0.000555 -0.005209 0.000282
 15 -3.868645 -0.832970 -6.257843 0.000000 -0.000000 0.000000
 16 -37.279182 -5.051147 -38.191181 0.000000 -0.000000 0.000000
 17 -3.806091 -1.056419 -7.595863 0.000000 -0.000000 0.000000
 18 16.442680 3.189072 32.898758 0.030838 -0.359930 -0.206975
 19 12.313789 -2.244896 -17.125648 0.000000 -0.000000 0.000000
 20 13.243652 -2.459518 -18.422234 0.000570 0.005208 -0.000280
 21 4.038902 -0.928108 -8.488213 0.000000 -0.000000 0.000000
 22 -0.000700 -0.454952 46.067261 -0.505976 0.020428 -0.257818
 23 -0.489971 22.757856 18.762009 0.000000 -0.000000 0.000000
 24 0.260417 -19.713409 -182.091034 0.000000 -0.000000 0.000000
 25 -16.518970 9.856464 11.602509 0.000000 -0.000000 0.000000
 26 12.687094 8.730803 11.181015 0.000000 -0.000000 0.000000
 27 -0.009703 -4.696537 26.700027 0.000000 -0.000000 0.000000
 28 -0.000042 -0.005970 23.601578 0.000000 -0.000000 0.000000
 29 -21.531242 -10.281179 -6.106491 0.454070 0.229051 -0.062339
 30 6.667689 -19.285318 -6.979950 -0.089854 0.045776 0.012027
 31 21.613552 5.850672 -6.561745 0.353816 -0.138451 -0.048318
 32 -0.490766 19.244421 -5.608498 0.709972 0.009653 0.020791
 33 12.172538 -7.748503 -10.307106 0.242882 -0.023743 -0.002909
 34 -12.668405 -7.748507 -10.702652 0.298392 0.084100 -0.017625
 35 -0.490774 14.424879 -10.375053 0.614786 0.009378 0.023873
time 26
  0 0.768169 -0.850492 1.544617 0.000000 -0.000000 0.000000
  1 0.768169 -0.850492 1.544617 0.000000 -0.000000 0.000000
  2 0.984829 -7.246327 246.548599 0.000000 -0.000000 0.000000
  3 0.998367 -3.471023 1.599335 0.000000 -0.000000 0.000000
  4 0.998364 -3.471023 127.064713 0.266105 -0.031529 0.002273
  5 -11.802622 0.277813 -45.319954 -0.134047 0.000526 0.002176
  6 -0.797639 4.276047 -49.223648 0.431395 -0.027723 -0.210947
  7 -0.000013 0.000000 -7.282920 0.000000 -0.000000 0.000000
  8 11.803274 0.236654 -45.319954 0.517372 -0.002453 0.008063
  9 0.812344 4.273224 -49.223576 0.283091 -0.038359 0.276647
 10 0.000008 -0.000004 -7.282919 0.000000 -0.000000 0.000000
 11 -0.008768 0.029114 10.844933 0.203719 -0.000303 0.296439
 12 -16.431322 3.246391 32.898758 0.072843 0.257434 -0.624930
 13 -12.321602 -2.201927 -17.125481 -0.054940 -0.002577 0.040016
 14 -13.252213 -2.413303 -18.422241 0.000555 -0.005208 0.000282
 15 -3.868652 -0.832962 -6.257843 0.000000 -0.000000 0.000000
 16 -37.279190 -5.051144 -38.191185 0.000000 -0.000000 0.000000
 17 -3.806091 -1.056412 -7.595863 0.000000 -0.000000 0.000000
 18 16.442684 3.189072 32.898758 0.018160 -0.357041 -0.214810
 19 12.313797 -2.244881 -17.125648 0.000000 -0.000000 0.000000
 20 13.243652 -2.459522 -18.422234 0.000570 0.005208 -0.000280
 21 4.038902 -0.928120 -8.488213 0.000000 -0.000000 0.000000
 22 -0.000698 -0.454952 46.067245 -0.503386 0.020296 -0.257518
 23 -0.489970 22.757858 18.761993 0.000000 -0.000000 0.000000
 24 0.260406 -19.713415 -182.090988 0.000000 -0.000000 0.000000
 25 -16.518974 9.856472 11.602509 0.000000 -0.000000 0.000000
 26 12.687096 8.730806 11.181000 0.000000 -0.000000 0.000000
 27 -0.009701 -4.696533 26.699997 0.000000 -0.000000 0.000000
 28 -0.000040 -0.005966 23.601578 0.000000 -0.000000 0.000000
 29 -21.531252 -10.281183 -6.106506 0.452265 0.243969 -0.065674
 30 6.667689 -19.285318 -6.979958 -0.054929 0.049646 0.010019
 31 21.613558 5.850676 -6.561745 0.373544 -0.138140 -0.046969
 32 -0.490765 19.244425 -5.608498 0.704157 0.002019 0.024153
 33 12.172543 -7.748505 -10.307106 0.274019 -0.030999 -0.005927
 34 -12.668408 -7.748510 -10.702652 0.288150 0.072570 -0.015209
 35 -0.490773 14.424883 -10.375061 0.608050 0.002377 0.025547
time 27
  0 0.768169 -0.850492 1.544617 0.000000 -0.000000 0.000000
  1 0.768169 -0.850492 1.544617 0.000000 -0.000000 0.000000
  2 0.984829 -7.246327 246.548599 0.000000 -0.000000 0.000000
  3 0.998367 -3.471023 1.599335 0.000000 -0.000000 0.000000
  4 0.998364 -3.471023 128.029739 0.264099 -0.031303 0.001947
  5 -11.802620 0.277815 -45.319962 -0.129964 0.000493 0.002112
  6 -0.797639 4.276045 -49.223656 0.431101 -0.027519 -0.210862
  7 -0.000015 0.000000 -7.282923 0.000000 -0.000000 0.000000
  8 11.803273 0.236656 -45.319962 0.517097 -0.002451 0.008059
  9 0.812340 4.273201 -49.223568 0.284045 -0.038514 0.276606
 10 0.000000 -0.000011 -7.282923 0.000000 -0.000000 0.000000
 11 -0.008772 0.029123 10.844902 0.202619 -0.000301 0.296331
 12 -16.431316 3.246403 32.898773 0.059110 0.254223 -0.616930
 13 -12.321602 -2.201935 -17.125481 -0.054940 -0.002577 0.040016
 14 -13.252197 -2.413311 -18.422241 0.000555 -0.005209 0.000282
 15 -3.868652 -0.832966 -6.257851 0.000000 -0.000000 0.000000
 16 -37.279198 -5.051159 -38.191177 0.000000 -0.000000 0.000000
 17 -3.806091 -1.056427 -7.595871 0.000000 -0.000000 0.000000
 18 16.442684 3.189068 32.898773 0.001539 -0.353845 -0.224836
 19 12.313797 -2.244892 -17.125656 0.000000 -0.000000 0.000000
 20 13.243645 -2.459526 -18.422234 0.000570 0.005208 -0.000280
 21 4.038895 -0.928112 -8.488220 0.000000 -0.000000 0.000000
 22 -0.000698 -0.454948 46.067261 -0.500577 0.020161 -0.257149
 23 -0.489974 22.757849 18.761993 0.000000 -0.000000 0.000000
 24 0.260416 -19.713390 -182.091019 0.000000 -0.000000 0.000000
 25 -16.518970 9.856464 11.602509 0.000000 -0.000000 0.000000
 26 12.687092 8.730804 11.180984 0.000000 -0.000000 0.000000
 27 -0.009702 -4.696537 26.700012 0.000000 -0.000000 0.000000
 28 -0.000040 -0.005966 23.601593 0.000000 -0.000000 0.000000
 29 -21.531246 -10.281178 -6.106506 0.450139 0.259127 -0.069062
 30 6.667691 -19.285315 -6.979965 -0.019443 0.053577 0.007979
 31 21.613560 5.850676 -6.561752 0.393589 -0.137777 -0.045492
 32 -0.490767 19.244421 -5.608498 0.696984 -0.005737 0.027570
 33 12.172542 -7.748501 -10.307098 0.305656 -0.038372 -0.008992
 34 -12.668406 -7.748503 -10.702660 0.277071 0.060854 -0.012753
 35 -0.490774 14.424879 -10.375061 0.599935 -0.004736 0.027248
time 28
  0 0.768169 -0.850492 1.544617 0.000000 -0.000000 0.000000
  1 0.768169 -0.850492 1.544617 0.000000 -0.000000 0.000000
  2 0.984829 -7.246327 246.548599 0.000000 -0.000000 0.000000
  3 0.998367 -3.471023 1.599335 0.000000 -0.000000 0.000000
  4 0.998364 -3.471023 129.138580 0.261942 -0.031061 0.001592
  5 -11.802618 0.277815 -45.319962 -0.125555 0.000458 0.002042
  6 -0.797638 4.276045 -49.223656 0.430745 -0.027288 -0.210770
  7 -0.000013 0.000000 -7.282921 0.000000 -0.000000 0.000000
  8 11.803274 0.236658 -45.319954 0.516859 -0.002449 0.008056
  9 0.812344 4.273216 -49.223572 0.285072 -0.038675 0.276564
 10 0.000004 -0.000004 -7.282919 0.000000 -0.000000 0.000000
 11 -0.008777 0.029133 10.844872 0.201432 -0.000299 0.296204
 12 -16.431320 3.246391 32.898773 0.043148 0.250758 -0.608026
 13 -12.321602 -2.201931 -17.125488 -0.054940 -0.002577 0.040016
 14 -13.252197 -2.413307 -18.422264 0.000555 -0.005209 0.000282
 15 -3.868652 -0.832962 -6.257851 0.000000 -0.000000 0.000000
 16 -37.279205 -5.051159 -38.191185 0.000000 -0.000000 0.000000
 17 -3.806091 -1.056423 -7.595879 0.000000 -0.000000 0.000000
 18 16.442684 3.189075 32.898773 -0.017781 -0.350339 -0.236344
 19 12.313782 -2.244884 -17.125641 0.000000 -0.000000 0.000000
 20 13.243652 -2.459522 -18.422249 0.000570 0.005208 -0.000280
 21 4.038902 -0.928116 -8.488213 0.000000 -0.000000 0.000000
 22 -0.000700 -0.454948 46.067245 -0.497510 0.020018 -0.256731
 23 -0.489971 22.757862 18.761978 0.000000 -0.000000 0.000000
 24 0.260410 -19.713432 -182.091003 0.000000 -0.000000 0.000000
 25 -16.518967 9.856468 11.602493 0.000000 -0.000000 0.000000
 26 12.687092 8.730808 11.180984 0.000000 -0.000000 0.000000
 27 -0.009702 -4.696537 26.699982 0.000000 -0.000000 0.000000
 28 -0.000042 -0.005966 23.601578 0.000000 -0.000000 0.000000
 29 -21.531246 -10.281178 -6.106491 0.447671 0.274099 -0.072409
 30 6.667690 -19.285315 -6.979958 0.015607 0.057461 0.005964
 31 21.613558 5.850672 -6.561745 0.413386 -0.137360 -0.043900
 32 -0.490766 19.244421 -5.608498 0.688317 -0.013398 0.030944
 33 12.172541 -7.748503 -10.307098 0.336903 -0.045654 -0.012020
 34 -12.668406 -7.748507 -10.702652 0.265285 0.049283 -0.010328
 35 -0.490773 14.424883 -10.375046 0.590332 -0.011762 0.028928
time 29
  0 0.768169 -0.850492 1.544617 0.000000 -0.000000 0.000000
  1 0.768169 -0.850492 1.544617 0.000000 -0.000000 0.000000
  2 0.984829 -7.246327 246.548599 0.000000 -0.000000 0.000000
  3 0.998367 -3.471023 1.599335 0.000000 -0.000000 0.000000
  4 0.998364 -3.471023 130.322510 0.259589 -0.030806 0.001202
  5 -11.802618 0.277813 -45.319954 -0.120747 0.000423 0.001965
  6 -0.797639 4.276049 -49.223644 0.430339 -0.027029 -0.210674
  7 -0.000014 0.000000 -7.282919 0.000000 -0.000000 0.000000
  8 11.803273 0.236656 -45.319954 0.516639 -0.002447 0.008053
  9 0.812344 4.273209 -49.223572 0.286192 -0.038849 0.276517
 10 0.000000 0.000000 -7.282923 0.000000 -0.000000 0.000000
 11 -0.008782 0.029142 10.844833 0.200137 -0.000298 0.296066
 12 -16.431316 3.246395 32.898773 0.025982 0.247072 -0.598598
 13 -12.321602 -2.201935 -17.125488 -0.054940 -0.002577 0.040016
 14 -13.252205 -2.413311 -18.422249 0.000555 -0.005209 0.000282
 15 -3.868645 -0.832970 -6.257851 0.000000 -0.000000 0.000000
 16 -37.279175 -5.051155 -38.191185 0.000000 -0.000000 0.000000
 17 -3.806084 -1.056423 -7.595879 0.000000 -0.000000 0.000000
 18 16.442680 3.189068 32.898758 -0.038558 -0.346519 -0.248624
 19 12.313789 -2.244896 -17.125641 0.000000 -0.000000 0.000000
 20 13.243652 -2.459518 -18.422226 0.000570 0.005208 -0.000280
 21 4.038902 -0.928112 -8.488213 0.000000 -0.000000 0.000000
 22 -0.000696 -0.454945 46.067276 -0.494146 0.019863 -0.256283
 23 -0.489967 22.757851 18.761978 0.000000 -0.000000 0.000000
 24 0.260403 -19.713394 -182.090988 0.000000 -0.000000 0.000000
 25 -16.518970 9.856461 11.602493 0.000000 -0.000000 0.000000
 26 12.687099 8.730804 11.181000 0.000000 -0.000000 0.000000
 27 -0.009701 -4.696533 26.699997 0.000000 -0.000000 0.000000
 28 -0.000041 -0.005970 23.601593 0.000000 -0.000000 0.000000
 29 -21.531242 -10.281178 -6.106499 0.444845 0.288458 -0.075619
 30 6.667689 -19.285316 -6.979950 0.049222 0.061186 0.004032
 31 21.613556 5.850674 -6.561745 0.432374 -0.136887 -0.042206
 32 -0.490765 19.244427 -5.608490 0.678020 -0.020746 0.034180
 33 12.172540 -7.748503 -10.307098 0.366872 -0.052637 -0.014924
 34 -12.668405 -7.748505 -10.702644 0.252924 0.038185 -0.008003
 35 -0.490773 14.424881 -10.375046 0.579129 -0.018500 0.030539
time 30
  0 0.768169 -0.850492 1.544617 0.000000 -0.000000 0.000000
  1 0.768169 -0.850492 1.544617 0.000000 -0.000000 0.000000
  2 0.984829 -7.246327 246.548599 0.000000 -0.000000 0.000000
  3 0.998367 -3.471023 1.599335 0.000000 -0.000000 0.000000
  4 0.998364 -3.471023 131.512833 0.257001 -0.030540 0.000768
  5 -11.802620 0.277813 -45.319962 -0.115465 0.000389 0.001881
  6 -0.797639 4.276051 -49.223656 0.429896 -0.026739 -0.210579
  7 -0.000014 -0.000008 -7.282921 0.000000 -0.000000 0.000000
  8 11.803273 0.236656 -45.319954 0.516418 -0.002445 0.008050
  9 0.812342 4.273201 -49.223564 0.287427 -0.039040 0.276465
 10 0.000008 0.000000 -7.282917 0.000000 -0.000000 0.000000
 11 -0.008787 0.029154 10.844810 0.198712 -0.000297 0.295924
 12 -16.431316 3.246395 32.898788 0.008639 0.243198 -0.589028
 13 -12.321594 -2.201927 -17.125488 -0.054940 -0.002577 0.040016
 14 -13.252197 -2.413303 -18.422249 0.000555 -0.005208 0.000282
 15 -3.868652 -0.832962 -6.257858 0.000000 -0.000000 0.000000
 16 -37.279175 -5.051136 -38.191162 0.000000 -0.000000 0.000000
 17 -3.806091 -1.056412 -7.595871 0.000000 -0.000000 0.000000
 18 16.442682 3.189075 32.898788 -0.059548 -0.342381 -0.260964
 19 12.313789 -2.244888 -17.125641 0.000000 -0.000000 0.000000
 20 13.243652 -2.459518 -18.422234 0.000570 0.005208 -0.000280
 21 4.038902 -0.928108 -8.488213 0.000000 -0.000000 0.000000
 22 -0.000698 -0.454945 46.067276 -0.490446 0.019691 -0.255824
 23 -0.489973 22.757858 18.762009 0.000000 -0.000000 0.000000
 24 0.260424 -19.713409 -182.091080 0.000000 -0.000000 0.000000
 25 -16.518970 9.856468 11.602509 0.000000 -0.000000 0.000000
 26 12.687091 8.730804 11.181000 0.000000 -0.000000 0.000000
 27 -0.009703 -4.696537 26.700012 0.000000 -0.000000 0.000000
 28 -0.000041 -0.005962 23.601608 0.000000 -0.000000 0.000000
 29 -21.531246 -10.281178 -6.106499 0.441642 0.301777 -0.078596
 30 6.667689 -19.285316 -6.979950 0.080403 0.064641 0.002239
 31 21.613556 5.850676 -6.561745 0.449987 -0.136356 -0.040423
 32 -0.490766 19.244421 -5.608498 0.665956 -0.027561 0.037182
 33 12.172542 -7.748503 -10.307098 0.394671 -0.059116 -0.017618
 34 -12.668406 -7.748505 -10.702652 0.240121 0.027890 -0.005845
 35 -0.490774 14.424879 -10.375053 0.566214 -0.024751 0.032034
time 31
  0 0.768169 -0.850492 1.544617 0.000000 -0.000000 0.000000
  1 0.768169 -0.850492 1.544617 0.000000 -0.000000 0.000000
  2 0.984829 -7.246327 246.548599 0.000000 -0.000000 0.000000
  3 0.998367 -3.471023 1.599335 0.000000 -0.000000 0.000000
  4 0.998364 -3.471023 132.640823 0.254134 -0.030264 0.000281
  5 -11.802618 0.277811 -45.319969 -0.109637 0.000358 0.001788
  6 -0.797638 4.276049 -49.223652 0.429427 -0.026416 -0.210492
  7 -0.000011 -0.000004 -7.282919 0.000000 -0.000000 0.000000
  8 11.803274 0.236654 -45.319962 0.516177 -0.002443 0.008047
  9 0.812344 4.273201 -49.223572 0.288798 -0.039255 0.276407
 10 0.000004 -0.000004 -7.282917 0.000000 -0.000000 0.000000
 11 -0.008792 0.029163 10.844757 0.197136 -0.000295 0.295786
 12 -16.431320 3.246399 32.898788 -0.007853 0.239172 -0.579696
 13 -12.321609 -2.201927 -17.125488 -0.054940 -0.002577 0.040016
 14 -13.252197 -2.413303 -18.422264 0.000555 -0.005208 0.000282
 15 -3.868660 -0.832962 -6.257843 0.000000 -0.000000 0.000000
 16 -37.279175 -5.051146 -38.191170 0.000000 -0.000000 0.000000
 17 -3.806099 -1.056416 -7.595863 0.000000 -0.000000 0.000000
 18 16.442680 3.189068 32.898773 -0.079509 -0.337921 -0.272654
 19 12.313797 -2.244884 -17.125656 0.000000 -0.000000 0.000000
 20 13.243652 -2.459515 -18.422234 0.000570 0.005208 -0.000280
 21 4.038902 -0.928112 -8.488228 0.000000 -0.000000 0.000000
 22 -0.000700 -0.454948 46.067276 -0.486371 0.019497 -0.255376
 23 -0.489971 22.757849 18.761993 0.000000 -0.000000 0.000000
 24 0.260410 -19.713388 -182.091019 0.000000 -0.000000 0.000000
 25 -16.518969 9.856464 11.602493 0.000000 -0.000000 0.000000
 26 12.687094 8.730803 11.180984 0.000000 -0.000000 0.000000
 27 -0.009701 -4.696541 26.699997 0.000000 -0.000000 0.000000
 28 -0.000043 -0.005974 23.601578 0.000000 -0.000000 0.000000
 29 -21.531244 -10.281178 -6.106506 0.438043 0.313631 -0.081246
 30 6.667689 -19.285313 -6.979965 0.108154 0.067716 0.000644
 31 21.613558 5.850674 -6.561760 0.465662 -0.135764 -0.038564
 32 -0.490764 19.244423 -5.608505 0.651990 -0.033627 0.039854
 33 12.172541 -7.748501 -10.307114 0.419412 -0.064881 -0.020015
 34 -12.668406 -7.748505 -10.702667 0.227006 0.018729 -0.003925
 35 -0.490772 14.424881 -10.375069 0.551478 -0.030314 0.033364
time 32
  0 0.768169 -0.850492 1.544617 0.000000 -0.000000 0.000000
  1 0.768169 -0.850492 1.544617 0.000000 -0.000000 0.000000
  2 0.984829 -7.246327 246.548599 0.000000 -0.000000 0.000000
  3 0.998367 -3.471023 1.599335 0.000000 -0.000000 0.000000
  4 0.998364 -3.471023 133.637772 0.250947 -0.029982 -0.000268
  5 -11.802616 0.277811 -45.319962 -0.103187 0.000331 0.001684
  6 -0.797637 4.276047 -49.223663 0.428946 -0.026059 -0.210415
  7 -0.000013 0.000000 -7.282923 0.000000 -0.000000 0.000000
  8 11.803272 0.236654 -45.319962 0.515897 -0.002441 0.008043
  9 0.812340 4.273201 -49.223572 0.290327 -0.039500 0.276340
 10 0.000000 0.000000 -7.282919 0.000000 -0.000000 0.000000
 11 -0.008798 0.029173 10.844696 0.195386 -0.000294 0.295660
 12 -16.431313 3.246395 32.898773 -0.022468 0.235026 -0.570985
 13 -12.321594 -2.201927 -17.125488 -0.054940 -0.002577 0.040016
 14 -13.252197 -2.413303 -18.422241 0.000555 -0.005209 0.000282
 15 -3.868652 -0.832962 -6.257858 0.000000 -0.000000 0.000000
 16 -37.279190 -5.051144 -38.191170 0.000000 -0.000000 0.000000
 17 -3.806091 -1.056419 -7.595871 0.000000 -0.000000 0.000000
 18 16.442677 3.189072 32.898788 -0.097198 -0.333136 -0.282983
 19 12.313797 -2.244884 -17.125641 0.000000 -0.000000 0.000000
 20 13.243645 -2.459526 -18.422234 0.000570 0.005208 -0.000280
 21 4.038902 -0.928112 -8.488228 0.000000 -0.000000 0.000000
 22 -0.000698 -0.454941 46.067276 -0.481883 0.019276 -0.254957
 23 -0.489973 22.757858 18.761993 0.000000 -0.000000 0.000000
 24 0.260423 -19.713413 -182.091019 0.000000 -0.000000 0.000000
 25 -16.518965 9.856468 11.602509 0.000000 -0.000000 0.000000
 26 12.687088 8.730806 11.180984 0.000000 -0.000000 0.000000
 27 -0.009703 -4.696533 26.700012 0.000000 -0.000000 0.000000
 28 -0.000042 -0.005962 23.601593 0.000000 -0.000000 0.000000
 29 -21.531244 -10.281179 -6.106499 0.434029 0.323593 -0.083473
 30 6.667691 -19.285318 -6.979965 0.131475 0.070300 -0.000697
 31 21.613556 5.850676 -6.561745 0.478835 -0.135109 -0.036643
 32 -0.490765 19.244421 -5.608498 0.635984 -0.038724 0.042099
 33 12.172539 -7.748503 -10.307098 0.440203 -0.069727 -0.022030
 34 -12.668404 -7.748507 -10.702652 0.213712 0.011029 -0.002311
 35 -0.490773 14.424879 -10.375053 0.534809 -0.034989 0.034482
time 33
  0 0.768169 -0.850492 1.544617 0.000000 -0.000000 0.000000
  1 0.768169 -0.850492 1.544617 0.000000 -0.000000 0.000000
  2 0.984829 -7.246327 246.548599 0.000000 -0.000000 0.000000
  3 0.998367 -3.471023 1.599335 0.000000 -0.000000 0.000000
  4 0.998364 -3.471023 134.434952 0.247398 -0.029696 -0.000886
  5 -11.802618 0.277817 -45.319969 -0.096041 0.000310 0.001569
  6 -0.797638 4.276051 -49.223652 0.428464 -0.025665 -0.210355
  7 -0.000013 0.000000 -7.282923 0.000000 -0.000000 0.000000
  8 11.803274 0.236658 -45.319969 0.515560 -0.002438 0.008039
  9 0.812342 4.273209 -49.223564 0.292034 -0.039780 0.276264
 10 0.000000 -0.000008 -7.282917 0.000000 -0.000000 0.000000
 11 -0.008802 0.029181 10.844650 0.193441 -0.000292 0.295552
 12 -16.431316 3.246391 32.898788 -0.034179 0.230794 -0.563274
 13 -12.321602 -2.201931 -17.125488 -0.054940 -0.002577 0.040016
 14 -13.252213 -2.413307 -18.422264 0.000555 -0.005208 0.000282
 15 -3.868652 -0.832964 -6.257851 0.000000 -0.000000 0.000000
 16 -37.279190 -5.051146 -38.191193 0.000000 -0.000000 0.000000
 17 -3.806091 -1.056419 -7.595879 0.000000 -0.000000 0.000000
 18 16.442678 3.189072 32.898773 -0.111372 -0.328021 -0.291240
 19 12.313797 -2.244888 -17.125656 0.000000 -0.000000 0.000000
 20 13.243652 -2.459522 -18.422234 0.000570 0.005208 -0.000280
 21 4.038902 -0.928112 -8.488220 0.000000 -0.000000 0.000000
 22 -0.000702 -0.454956 46.067261 -0.476942 0.019025 -0.254586
 23 -0.489972 22.757858 18.761978 0.000000 -0.000000 0.000000
 24 0.260416 -19.713398 -182.090988 0.000000 -0.000000 0.000000
 25 -16.518970 9.856472 11.602509 0.000000 -0.000000 0.000000
 26 12.687094 8.730808 11.181000 0.000000 -0.000000 0.000000
 27 -0.009702 -4.696537 26.699997 0.000000 -0.000000 0.000000
 28 -0.000043 -0.005974 23.601593 0.000000 -0.000000 0.000000
 29 -21.531246 -10.281178 -6.106506 0.429583 0.331237 -0.085181
 30 6.667690 -19.285316 -6.979973 0.149369 0.072282 -0.001726
 31 21.613556 5.850674 -6.561752 0.488943 -0.134389 -0.034672
 32 -0.490765 19.244427 -5.608505 0.617804 -0.042635 0.043822
 33 12.172539 -7.748503 -10.307106 0.456156 -0.073444 -0.023576
 34 -12.668406 -7.748505 -10.702660 0.200370 0.005122 -0.001073
 35 -0.490773 14.424881 -10.375061 0.516095 -0.038575 0.035339
time 34
  0 0.768169 -0.850492 1.544617 0.000000 -0.000000 0.000000
  1 0.768169 -0.850492 1.544617 0.000000 -0.000000 0.000000
  2 0.984829 -7.246327 246.548599 0.000000 -0.000000 0.000000
  3 0.998367 -3.471023 1.599335 0.000000 -0.000000 0.000000
  4 0.998364 -3.471023 134.963654 0.243446 -0.029407 -0.001583
  5 -11.802616 0.277817 -45.319962 -0.088127 0.000296 0.001441
  6 -0.797638 4.276049 -49.223644 0.427996 -0.025233 -0.210315
  7 -0.000014 0.000000 -7.282921 0.000000 -0.000000 0.000000
  8 11.803270 0.236660 -45.319969 0.515146 -0.002435 0.008034
  9 0.812342 4.273201 -49.223568 0.293940 -0.040102 0.276177
 10 0.000000 0.000000 -7.282919 0.000000 -0.000000 0.000000
 11 -0.008806 0.029190 10.844574 0.191278 -0.000289 0.295471
 12 -16.431320 3.246391 32.898758 -0.041958 0.226511 -0.556946
 13 -12.321602 -2.201935 -17.125488 -0.054940 -0.002577 0.040016
 14 -13.252197 -2.413300 -18.422256 0.000555 -0.005208 0.000282
 15 -3.868660 -0.832964 -6.257858 0.000000 -0.000000 0.000000
 16 -37.279198 -5.051142 -38.191170 0.000000 -0.000000 0.000000
 17 -3.806091 -1.056419 -7.595879 0.000000 -0.000000 0.000000
 18 16.442682 3.189072 32.898758 -0.120788 -0.322574 -0.296716
 19 12.313797 -2.244877 -17.125641 0.000000 -0.000000 0.000000
 20 13.243652 -2.459522 -18.422249 0.000570 0.005208 -0.000280
 21 4.038895 -0.928112 -8.488213 0.000000 -0.000000 0.000000
 22 -0.000702 -0.454956 46.067245 -0.471510 0.018738 -0.254285
 23 -0.489970 22.757860 18.761993 0.000000 -0.000000 0.000000
 24 0.260408 -19.713421 -182.090988 0.000000 -0.000000 0.000000
 25 -16.518974 9.856464 11.602509 0.000000 -0.000000 0.000000
 26 12.687098 8.730804 11.181000 0.000000 -0.000000 0.000000
 27 -0.009701 -4.696537 26.699997 0.000000 -0.000000 0.000000
 28 -0.000042 -0.005970 23.601578 0.000000 -0.000000 0.000000
 29 -21.531242 -10.281178 -6.106514 0.424686 0.336136 -0.086277
 30 6.667687 -19.285315 -6.979973 0.160838 0.073553 -0.002385
 31 21.613554 5.850674 -6.561768 0.495421 -0.133602 -0.032664
 32 -0.490765 19.244419 -5.608505 0.597312 -0.045142 0.044926
 33 12.172539 -7.748501 -10.307114 0.466380 -0.075827 -0.024567
 34 -12.668406 -7.748505 -10.702667 0.187112 0.001335 -0.000280
 35 -0.490773 14.424881 -10.375076 0.495226 -0.040874 0.035889
time 35
  0 0.768169 -0.850492 1.544617 0.000000 -0.000000 0.000000
  1 0.768169 -0.850492 1.544617 0.000000 -0.000000 0.000000
  2 0.984829 -7.246327 246.548599 0.000000 -0.000000 0.000000
  3 0.998367 -3.471023 1.599335 0.000000 -0.000000 0.000000
  4 0.998364 -3.471023 135.155151 0.239048 -0.029118 -0.002367
  5 -11.802618 0.277815 -45.319969 -0.079370 0.000291 0.001298
  6 -0.797639 4.276049 -49.223652 0.427553 -0.024759 -0.210300
  7 -0.000013 -0.000008 -7.282919 0.000000 -0.000000 0.000000
  8 11.803273 0.236656 -45.319962 0.514638 -0.002430 0.008027
  9 0.812340 4.273209 -49.223560 0.296068 -0.040472 0.276078
 10 0.000004 0.000000 -7.282921 0.000000 -0.000000 0.000000
 11 -0.008809 0.029198 10.844498 0.188878 -0.000286 0.295424
 12 -16.431316 3.246387 32.898758 -0.044779 0.222210 -0.552382
 13 -12.321602 -2.201927 -17.125488 -0.054940 -0.002577 0.040016
 14 -13.252205 -2.413300 -18.422241 0.000555 -0.005208 0.000282
 15 -3.868645 -0.832968 -6.257866 0.000000 -0.000000 0.000000
 16 -37.279175 -5.051140 -38.191170 0.000000 -0.000000 0.000000
 17 -3.806091 -1.056419 -7.595871 0.000000 -0.000000 0.000000
 18 16.442684 3.189075 32.898773 -0.124202 -0.316791 -0.298699
 19 12.313789 -2.244884 -17.125656 0.000000 -0.000000 0.000000
 20 13.243652 -2.459518 -18.422234 0.000570 0.005208 -0.000280
 21 4.038895 -0.928104 -8.488228 0.000000 -0.000000 0.000000
 22 -0.000697 -0.454945 46.067276 -0.465548 0.018410 -0.254071
 23 -0.489971 22.757854 18.761978 0.000000 -0.000000 0.000000
 24 0.260410 -19.713396 -182.090988 0.000000 -0.000000 0.000000
 25 -16.518965 9.856464 11.602509 0.000000 -0.000000 0.000000
 26 12.687092 8.730803 11.180984 0.000000 -0.000000 0.000000
 27 -0.009701 -4.696537 26.699997 0.000000 -0.000000 0.000000
 28 -0.000041 -0.005970 23.601593 0.000000 -0.000000 0.000000
 29 -21.531246 -10.281181 -6.106506 0.419319 0.337863 -0.086663
 30 6.667690 -19.285318 -6.979965 0.164882 0.074001 -0.002618
 31 21.613556 5.850674 -6.561760 0.497705 -0.132744 -0.030633
 32 -0.490766 19.244423 -5.608513 0.574373 -0.046026 0.045315
 33 12.172540 -7.748505 -10.307114 0.469986 -0.076667 -0.024916
 34 -12.668406 -7.748507 -10.702667 0.174069 -0.000000 0.000000
 35 -0.490774 14.424881 -10.375076 0.472091 -0.041685 0.036083
end
