version 1
nodes
  0 "Bone29"  -1
  1 "Bone28"  -1
  2 "Bone27"  -1
  3 "Bone26"  -1
  4 "Bone24"  -1
  5 "Bone01"   4
  6 "Bone02"   5
  7 "Bone03"   6
  8 "Bone04"   4
  9 "Bone05"   8
 10 "Bone06"   9
 11 "Bone17"   4
 12 "Bone07"  11
 13 "Bone08"  12
 14 "Bone09"  13
 15 "Bone10"  14
 16 "Bone11"  15
 17 "Bone12"  14
 18 "Bone13"  11
 19 "Bone14"  18
 20 "Bone15"  19
 21 "Bone16"  20
 22 "Bone21"  11
 23 "Bone18"  22
 24 "Bone19"  23
 25 "Bone20"  22
 26 "Bone22"  22
 27 "Bone23"  22
 28 "Bone25"  11
 29 "outskirt_r"   4
 30 "outskirt_f"   4
 31 "outskirt_l"   4
 32 "outskirt_b"   4
 33 "skirt_l"   4
 34 "skirt_r"   4
 35 "skirt_b"   4
end
skeleton
time 0
  0 0.768169 -0.850492 1.544617 0.000000 -0.000000 0.000000
  1 0.768169 -0.850492 1.544617 0.000000 -0.000000 0.000000
  2 0.984829 -7.246327 246.548599 0.000000 -0.000000 0.000000
  3 0.998367 -3.471023 1.599335 0.000000 -0.000000 0.000000
  4 0.998364 -3.471023 134.780151 -0.107463 -0.008506 -0.064715
  5 -11.802626 0.277813 -45.319962 0.607630 0.001296 -0.009903
  6 -0.797644 4.276020 -49.223648 0.396968 0.012222 -0.211580
  7 -0.000013 -0.000004 -7.282919 0.000000 -0.000000 0.000000
  8 11.803268 0.236652 -45.319969 0.330295 -0.000890 0.005339
  9 0.812335 4.273215 -49.223583 0.464045 -0.078406 0.268104
 10 0.000004 0.000000 -7.282919 0.000000 -0.000000 0.000000
 11 -0.008945 0.029732 10.838699 -0.000000 0.000000 0.294300
 12 -16.431314 3.246395 32.898773 0.079474 -0.086573 -0.348582
 13 -12.321607 -2.201930 -17.125488 -0.054940 -0.002577 0.040016
 14 -13.252199 -2.413305 -18.422272 0.000000 -0.000000 0.000000
 15 -3.868656 -0.832964 -6.257858 0.000000 -0.000000 0.000000
 16 -37.279198 -5.051147 -38.191208 0.000000 -0.000000 0.000000
 17 -3.806095 -1.056419 -7.595871 0.000000 -0.000000 0.000000
 18 16.442686 3.189070 32.898773 0.074641 0.122041 -0.269503
 19 12.313793 -2.244884 -17.125641 0.000000 -0.000000 0.000000
 20 13.243650 -2.459521 -18.422241 0.000042 0.000385 -0.000021
 21 4.038900 -0.928111 -8.488205 0.000000 -0.000000 0.000000
 22 -0.000693 -0.454948 46.067245 -0.000360 -0.013454 -0.244830
 23 -0.489966 22.757856 18.761993 0.000000 -0.000000 0.000000
 24 0.260380 -19.713448 -182.091019 0.000000 -0.000000 0.000000
 25 -16.518970 9.856468 11.602493 0.000000 -0.000000 0.000000
 26 12.687099 8.730808 11.181000 0.000000 -0.000000 0.000000
 27 -0.009698 -4.696527 26.699997 0.000000 -0.000000 0.000000
 28 -0.000038 -0.005968 23.601593 0.000000 -0.000000 0.000000
 29 -21.531248 -10.281178 -6.106514 0.087200 0.000000 -0.000000
 30 6.667690 -19.285316 -6.979958 0.087200 0.000000 -0.000000
 31 21.613556 5.850674 -6.561752 0.087200 0.000000 -0.000000
 32 -0.490767 19.244423 -5.608505 0.087200 0.000000 -0.000000
 33 12.172541 -7.748505 -10.307106 0.087200 0.000000 -0.000000
 34 -12.668407 -7.748505 -10.702660 0.087200 0.000000 -0.000000
 35 -0.490775 14.424881 -10.375061 0.087200 0.000000 -0.000000
time 1
  0 0.768169 -0.850492 1.544617 0.000000 -0.000000 0.000000
  1 0.768169 -0.850492 1.544617 0.000000 -0.000000 0.000000
  2 0.984829 -7.246327 246.548599 0.000000 -0.000000 0.000000
  3 0.998367 -3.471023 1.599335 0.000000 -0.000000 0.000000
  4 0.998364 -3.471023 135.000107 -0.110854 -0.008841 -0.066362
  5 -11.802621 0.277815 -45.319969 0.620935 0.001391 -0.010092
  6 -0.797638 4.276020 -49.223640 0.402897 0.012362 -0.215421
  7 -0.000013 0.000000 -7.282919 0.000000 -0.000000 0.000000
  8 11.803272 0.236656 -45.319977 0.336500 -0.001081 0.005401
  9 0.812340 4.273211 -49.223595 0.474030 -0.080879 0.274460
 10 0.000002 -0.000002 -7.282925 0.000000 -0.000000 0.000000
 11 -0.009128 0.029684 10.838699 0.000000 0.000000 0.300446
 12 -16.431316 3.246396 32.898773 0.080819 -0.088151 -0.354915
 13 -12.321605 -2.201930 -17.125488 -0.056045 -0.002604 0.040743
 14 -13.252199 -2.413305 -18.422272 0.000000 -0.000000 0.000000
 15 -3.868649 -0.832966 -6.257858 0.000000 -0.000000 0.000000
 16 -37.279198 -5.051149 -38.191208 0.000000 -0.000000 0.000000
 17 -3.806091 -1.056423 -7.595886 0.000000 -0.000000 0.000000
 18 16.442684 3.189074 32.898773 0.075828 0.124007 -0.274007
 19 12.313795 -2.244886 -17.125656 0.000000 -0.000000 0.000000
 20 13.243652 -2.459522 -18.422241 0.000042 0.000385 -0.000021
 21 4.038900 -0.928111 -8.488220 0.000000 -0.000000 0.000000
 22 -0.000697 -0.454948 46.067261 0.001148 -0.012809 -0.247982
 23 -0.489966 22.757858 18.761993 0.001988 0.004003 -0.001288
 24 0.260395 -19.713448 -182.091080 0.000000 -0.000000 0.000000
 25 -16.518969 9.856464 11.602509 0.012564 0.006258 0.000407
 26 12.687097 8.730808 11.180984 0.003959 0.001827 0.000671
 27 -0.009700 -4.696531 26.700012 0.000000 -0.000000 0.000000
 28 -0.000041 -0.005968 23.601578 0.000000 -0.000000 0.000000
 29 -21.531250 -10.281179 -6.106499 0.084987 0.006670 -0.002287
 30 6.667690 -19.285318 -6.979973 0.072840 -0.000981 0.000284
 31 21.613558 5.850676 -6.561752 0.085342 -0.006825 0.002225
 32 -0.490766 19.244427 -5.608505 0.118876 0.000684 0.000136
 33 12.172542 -7.748503 -10.307106 0.083427 -0.002902 0.000104
 34 -12.668407 -7.748505 -10.702652 0.081078 0.000926 -0.000256
 35 -0.490774 14.424882 -10.375053 0.102319 0.000059 0.000001
time 2
  0 0.768169 -0.850492 1.544617 0.000000 -0.000000 0.000000
  1 0.768169 -0.850492 1.544617 0.000000 -0.000000 0.000000
  2 0.984829 -7.246327 246.548599 0.000000 -0.000000 0.000000
  3 0.998367 -3.471023 1.599335 0.000000 -0.000000 0.000000
  4 0.998364 -3.471023 134.989960 -0.111443 -0.008910 -0.066756
  5 -11.802624 0.277813 -45.319962 0.630295 0.001464 -0.010228
  6 -0.797637 4.276031 -49.223640 0.406880 0.012606 -0.217678
  7 -0.000013 0.000000 -7.282918 0.000000 -0.000000 0.000000
  8 11.803271 0.236656 -45.319969 0.339632 -0.001149 0.005440
  9 0.812337 4.273216 -49.223591 0.479961 -0.082249 0.277541
 10 0.000004 0.000002 -7.282917 0.000000 -0.000000 0.000000
 11 -0.009229 0.029654 10.838684 -0.000052 0.000001 0.303864
 12 -16.431316 3.246395 32.898773 0.081844 -0.090242 -0.358198
 13 -12.321606 -2.201931 -17.125488 -0.056943 -0.002621 0.041387
 14 -13.252203 -2.413309 -18.422272 -0.000000 -0.000007 0.000000
 15 -3.868652 -0.832966 -6.257858 0.000000 -0.000000 0.000000
 16 -37.279198 -5.051149 -38.191208 0.000000 -0.000000 0.000000
 17 -3.806091 -1.056419 -7.595871 0.000000 -0.000000 0.000000
 18 16.442686 3.189072 32.898773 0.077255 0.126604 -0.276348
 19 12.313800 -2.244883 -17.125656 0.000000 -0.000000 0.000000
 20 13.243656 -2.459519 -18.422241 0.000042 0.000385 -0.000021
 21 4.038898 -0.928110 -8.488220 0.000000 -0.000000 0.000000
 22 -0.000696 -0.454950 46.067276 0.004611 -0.011246 -0.249481
 23 -0.489966 22.757862 18.761993 0.007432 0.014964 -0.004815
 24 0.260390 -19.713451 -182.091049 0.000000 -0.000000 0.000000
 25 -16.518969 9.856468 11.602509 0.046964 0.023393 0.001522
 26 12.687098 8.730808 11.181015 0.015151 0.006990 0.002569
 27 -0.009700 -4.696531 26.700012 0.000000 -0.000000 0.000000
 28 -0.000039 -0.005970 23.601608 0.000000 -0.000000 0.000000
 29 -21.531250 -10.281178 -6.106514 0.078931 0.024933 -0.008549
 30 6.667689 -19.285313 -6.979965 0.033864 -0.003645 0.001056
 31 21.613560 5.850675 -6.561745 0.080257 -0.025513 0.008316
 32 -0.490766 19.244423 -5.608505 0.160948 0.002556 0.000510
 33 12.172541 -7.748503 -10.307106 0.073098 -0.010885 0.000389
 34 -12.668408 -7.748505 -10.702660 0.064318 0.003472 -0.000955
 35 -0.490774 14.424882 -10.375061 0.120955 0.000250 0.000006
time 3
  0 0.768169 -0.850492 1.544617 0.000000 -0.000000 0.000000
  1 0.768169 -0.850492 1.544617 0.000000 -0.000000 0.000000
  2 0.984829 -7.246327 246.548599 0.000000 -0.000000 0.000000
  3 0.998367 -3.471023 1.599335 0.000000 -0.000000 0.000000
  4 0.998364 -3.471023 134.741196 -0.111556 -0.008938 -0.066947
  5 -11.802619 0.277813 -45.319954 0.640839 0.001547 -0.010382
  6 -0.797634 4.276016 -49.223656 0.411286 0.012909 -0.220055
  7 -0.000011 -0.000008 -7.282916 0.000000 -0.000000 0.000000
  8 11.803273 0.236654 -45.319946 0.342707 -0.001177 0.005483
  9 0.812344 4.273212 -49.223602 0.486244 -0.083665 0.280508
 10 0.000002 -0.000004 -7.282925 0.000000 -0.000000 0.000000
 11 -0.009333 0.029619 10.838699 -0.000375 0.000008 0.307383
 12 -16.431322 3.246397 32.898773 0.083026 -0.092733 -0.361462
 13 -12.321604 -2.201931 -17.125488 -0.057983 -0.002639 0.042153
 14 -13.252205 -2.413307 -18.422287 -0.000000 -0.000053 0.000000
 15 -3.868652 -0.832964 -6.257858 0.000000 -0.000000 0.000000
 16 -37.279205 -5.051147 -38.191223 0.000000 -0.000000 0.000000
 17 -3.806091 -1.056419 -7.595886 0.000000 -0.000000 0.000000
 18 16.442686 3.189072 32.898788 0.078948 0.129695 -0.278677
 19 12.313793 -2.244884 -17.125656 0.000000 -0.000000 0.000000
 20 13.243656 -2.459521 -18.422241 0.000042 0.000385 -0.000021
 21 4.038902 -0.928111 -8.488220 0.000000 -0.000000 0.000000
 22 -0.000699 -0.454948 46.067261 0.009320 -0.008673 -0.250900
 23 -0.489967 22.757856 18.761993 0.015550 0.031308 -0.010075
 24 0.260402 -19.713444 -182.091034 0.000000 -0.000000 0.000000
 25 -16.518969 9.856467 11.602509 0.098261 0.048945 0.003184
 26 12.687099 8.730807 11.181000 0.032543 0.015014 0.005518
 27 -0.009701 -4.696529 26.699997 0.000000 -0.000000 0.000000
 28 -0.000041 -0.005968 23.601593 0.000000 -0.000000 0.000000
 29 -21.531248 -10.281181 -6.106491 0.069899 0.052168 -0.017887
 30 6.667689 -19.285316 -6.979965 -0.023574 -0.007571 0.002193
 31 21.613558 5.850674 -6.561737 0.072673 -0.053381 0.017400
 32 -0.490765 19.244423 -5.608490 0.210532 0.005347 0.001067
 33 12.172542 -7.748505 -10.307098 0.057694 -0.022863 0.000814
 34 -12.668406 -7.748507 -10.702652 0.039325 0.007288 -0.001999
 35 -0.490773 14.424880 -10.375046 0.142043 0.000596 0.000018
time 4
  0 0.768169 -0.850492 1.544617 0.000000 -0.000000 0.000000
  1 0.768169 -0.850492 1.544617 0.000000 -0.000000 0.000000
  2 0.984829 -7.246327 246.548599 0.000000 -0.000000 0.000000
  3 0.998367 -3.471023 1.599335 0.000000 -0.000000 0.000000
  4 0.998364 -3.471023 134.310089 -0.111621 -0.008962 -0.067111
  5 -11.802627 0.277813 -45.319962 0.652167 0.001637 -0.010547
  6 -0.797640 4.276016 -49.223640 0.416004 0.013230 -0.222573
  7 -0.000015 -0.000004 -7.282920 0.000000 -0.000000 0.000000
  8 11.803266 0.236654 -45.319954 0.345912 -0.001200 0.005529
  9 0.812335 4.273211 -49.223579 0.492906 -0.085157 0.283586
 10 0.000002 -0.000008 -7.282923 0.000000 -0.000000 0.000000
 11 -0.009441 0.029587 10.838684 -0.000948 0.000021 0.311091
 12 -16.431314 3.246393 32.898773 0.084302 -0.095343 -0.364875
 13 -12.321608 -2.201930 -17.125504 -0.059099 -0.002658 0.042981
 14 -13.252203 -2.413305 -18.422272 -0.000000 -0.000134 0.000000
 15 -3.868654 -0.832964 -6.257858 0.000000 -0.000000 0.000000
 16 -37.279205 -5.051147 -38.191193 0.000000 -0.000000 0.000000
 17 -3.806097 -1.056421 -7.595871 0.000000 -0.000000 0.000000
 18 16.442688 3.189070 32.898788 0.080731 0.132935 -0.281113
 19 12.313795 -2.244884 -17.125641 0.000000 -0.000000 0.000000
 20 13.243652 -2.459520 -18.422241 0.000042 0.000386 -0.000021
 21 4.038897 -0.928111 -8.488220 0.000000 -0.000000 0.000000
 22 -0.000692 -0.454950 46.067276 0.014976 -0.005315 -0.252368
 23 -0.489965 22.757858 18.761993 0.025560 0.051463 -0.016560
 24 0.260377 -19.713448 -182.091019 0.000000 -0.000000 0.000000
 25 -16.518970 9.856466 11.602493 0.161518 0.080454 0.005234
 26 12.687099 8.730807 11.181000 0.055105 0.025423 0.009344
 27 -0.009697 -4.696529 26.700012 0.000000 -0.000000 0.000000
 28 -0.000037 -0.005970 23.601593 0.000000 -0.000000 0.000000
 29 -21.531250 -10.281179 -6.106499 0.058761 0.085751 -0.029403
 30 6.667688 -19.285316 -6.979965 -0.093320 -0.012339 0.003574
 31 21.613556 5.850675 -6.561737 0.063322 -0.087746 0.028602
 32 -0.490766 19.244423 -5.608498 0.264745 0.008789 0.001754
 33 12.172539 -7.748501 -10.307091 0.038700 -0.037754 0.001338
 34 -12.668409 -7.748505 -10.702644 0.008505 0.012024 -0.003285
 35 -0.490775 14.424879 -10.375053 0.164515 0.001119 0.000041
time 5
  0 0.768169 -0.850492 1.544617 0.000000 -0.000000 0.000000
  1 0.768169 -0.850492 1.544617 0.000000 -0.000000 0.000000
  2 0.984829 -7.246327 246.548599 0.000000 -0.000000 0.000000
  3 0.998367 -3.471023 1.599335 0.000000 -0.000000 0.000000
  4 0.998364 -3.471023 133.748779 -0.111658 -0.008983 -0.067250
  5 -11.802616 0.277815 -45.319946 0.663720 0.001728 -0.010716
  6 -0.797634 4.276028 -49.223640 0.420805 0.013560 -0.225116
  7 -0.000011 0.000000 -7.282915 0.000000 -0.000000 0.000000
  8 11.803276 0.236654 -45.319946 0.349111 -0.001220 0.005575
  9 0.812344 4.273211 -49.223583 0.499640 -0.086658 0.286646
 10 0.000004 -0.000004 -7.282923 0.000000 -0.000000 0.000000
 11 -0.009554 0.029554 10.838654 -0.001714 0.000037 0.314822
 12 -16.431322 3.246397 32.898773 0.085608 -0.098010 -0.368290
 13 -12.321606 -2.201930 -17.125473 -0.060241 -0.002676 0.043830
 14 -13.252205 -2.413307 -18.422256 -0.000000 -0.000243 -0.000000
 15 -3.868656 -0.832964 -6.257858 0.000000 -0.000000 0.000000
 16 -37.279198 -5.051149 -38.191208 0.000000 -0.000000 0.000000
 17 -3.806093 -1.056419 -7.595886 0.000000 -0.000000 0.000000
 18 16.442684 3.189074 32.898773 0.082554 0.136246 -0.283550
 19 12.313797 -2.244884 -17.125626 0.000000 -0.000000 0.000000
 20 13.243654 -2.459520 -18.422256 0.000042 0.000386 -0.000020
 21 4.038904 -0.928111 -8.488220 0.000000 -0.000000 0.000000
 22 -0.000701 -0.454948 46.067261 0.021268 -0.001470 -0.253824
 23 -0.489970 22.757862 18.761993 0.036681 0.073855 -0.023766
 24 0.260412 -19.713465 -182.091003 0.000000 -0.000000 0.000000
 25 -16.518972 9.856470 11.602493 0.231796 0.115460 0.007511
 26 12.687097 8.730809 11.180984 0.081807 0.037742 0.013872
 27 -0.009703 -4.696529 26.700012 0.000000 -0.000000 0.000000
 28 -0.000042 -0.005970 23.601593 0.000000 -0.000000 0.000000
 29 -21.531248 -10.281179 -6.106491 0.046387 0.123063 -0.042196
 30 6.667690 -19.285315 -6.979958 -0.169221 -0.017526 0.005077
 31 21.613558 5.850677 -6.561752 0.052933 -0.125925 0.041046
 32 -0.490765 19.244423 -5.608490 0.320704 0.012614 0.002517
 33 12.172541 -7.748503 -10.307098 0.017597 -0.054472 0.001920
 34 -12.668406 -7.748503 -10.702652 -0.025737 0.017331 -0.004715
 35 -0.490772 14.424881 -10.375053 0.187305 0.001843 0.000078
time 6
  0 0.768169 -0.850492 1.544617 0.000000 -0.000000 0.000000
  1 0.768169 -0.850492 1.544617 0.000000 -0.000000 0.000000
  2 0.984829 -7.246327 246.548599 0.000000 -0.000000 0.000000
  3 0.998367 -3.471023 1.599335 0.000000 -0.000000 0.000000
  4 0.998364 -3.471023 133.109436 -0.111687 -0.009001 -0.067364
  5 -11.802628 0.277813 -45.319962 0.674940 0.001817 -0.010880
  6 -0.797639 4.276020 -49.223648 0.425459 0.013890 -0.227567
  7 -0.000011 0.000000 -7.282917 0.000000 -0.000000 0.000000
  8 11.803267 0.236656 -45.319962 0.352169 -0.001236 0.005620
  9 0.812335 4.273213 -49.223579 0.506135 -0.088102 0.289563
 10 0.000000 -0.000006 -7.282921 0.000000 -0.000000 0.000000
 11 -0.009657 0.029520 10.838623 -0.002616 0.000056 0.318409
 12 -16.431318 3.246391 32.898773 0.086879 -0.100672 -0.371559
 13 -12.321609 -2.201931 -17.125488 -0.061357 -0.002694 0.044662
 14 -13.252205 -2.413307 -18.422287 -0.000000 -0.000372 -0.000000
 15 -3.868654 -0.832966 -6.257858 0.000000 -0.000000 0.000000
 16 -37.279205 -5.051147 -38.191208 0.000000 -0.000000 0.000000
 17 -3.806093 -1.056417 -7.595886 0.000000 -0.000000 0.000000
 18 16.442692 3.189068 32.898758 0.084367 0.139551 -0.285884
 19 12.313795 -2.244883 -17.125641 0.000000 -0.000000 0.000000
 20 13.243652 -2.459520 -18.422241 0.000042 0.000386 -0.000021
 21 4.038900 -0.928110 -8.488235 0.000000 -0.000000 0.000000
 22 -0.000691 -0.454952 46.067245 0.027888 0.002562 -0.255208
 23 -0.489962 22.757856 18.761993 0.048132 0.096911 -0.031185
 24 0.260378 -19.713459 -182.091019 0.000000 -0.000000 0.000000
 25 -16.518967 9.856465 11.602509 0.304157 0.151504 0.009856
 26 12.687099 8.730809 11.181000 0.111617 0.051495 0.018926
 27 -0.009697 -4.696529 26.700027 0.000000 -0.000000 0.000000
 28 -0.000038 -0.005972 23.601593 0.000000 -0.000000 0.000000
 29 -21.531250 -10.281179 -6.106499 0.033646 0.161480 -0.055369
 30 6.667687 -19.285313 -6.979950 -0.245121 -0.022714 0.006580
 31 21.613560 5.850676 -6.561745 0.042235 -0.165237 0.053860
 32 -0.490765 19.244423 -5.608498 0.375527 0.016551 0.003303
 33 12.172538 -7.748503 -10.307106 -0.004131 -0.071933 0.002519
 34 -12.668409 -7.748505 -10.702660 -0.060993 0.022860 -0.006187
 35 -0.490774 14.424879 -10.375061 0.209346 0.002790 0.000133
time 7
  0 0.768169 -0.850492 1.544617 0.000000 -0.000000 0.000000
  1 0.768169 -0.850492 1.544617 0.000000 -0.000000 0.000000
  2 0.984829 -7.246327 246.548599 0.000000 -0.000000 0.000000
  3 0.998367 -3.471023 1.599335 0.000000 -0.000000 0.000000
  4 0.998364 -3.471023 132.444244 -0.111725 -0.009016 -0.067455
  5 -11.802626 0.277815 -45.319946 0.685269 0.001899 -0.011031
  6 -0.797640 4.276020 -49.223637 0.429738 0.014211 -0.229811
  7 -0.000011 -0.000004 -7.282917 0.000000 -0.000000 0.000000
  8 11.803265 0.236658 -45.319946 0.354948 -0.001248 0.005661
  9 0.812335 4.273213 -49.223583 0.512084 -0.089420 0.292210
 10 0.000002 -0.000004 -7.282921 0.000000 -0.000000 0.000000
 11 -0.009754 0.029490 10.838593 -0.003599 0.000075 0.321685
 12 -16.431314 3.246391 32.898773 0.088051 -0.103268 -0.374535
 13 -12.321605 -2.201929 -17.125504 -0.062396 -0.002711 0.045436
 14 -13.252201 -2.413305 -18.422241 0.000000 -0.000514 -0.000000
 15 -3.868656 -0.832968 -6.257858 0.000000 -0.000000 0.000000
 16 -37.279194 -5.051147 -38.191193 0.000000 -0.000000 0.000000
 17 -3.806091 -1.056421 -7.595871 0.000000 -0.000000 0.000000
 18 16.442688 3.189071 32.898788 0.086121 0.142772 -0.288009
 19 12.313792 -2.244885 -17.125656 0.000000 -0.000000 0.000000
 20 13.243650 -2.459521 -18.422226 0.000042 0.000386 -0.000021
 21 4.038898 -0.928110 -8.488220 0.000000 -0.000000 0.000000
 22 -0.000692 -0.454952 46.067261 0.034525 0.006485 -0.256463
 23 -0.489966 22.757858 18.762009 0.059131 0.119057 -0.038311
 24 0.260387 -19.713459 -182.091034 0.000000 -0.000000 0.000000
 25 -16.518967 9.856468 11.602509 0.373664 0.186126 0.012108
 26 12.687097 8.730807 11.181000 0.143505 0.066207 0.024334
 27 -0.009697 -4.696529 26.700012 0.000000 -0.000000 0.000000
 28 -0.000038 -0.005972 23.601593 0.000000 -0.000000 0.000000
 29 -21.531248 -10.281179 -6.106491 0.021408 0.198382 -0.068021
 30 6.667687 -19.285315 -6.979950 -0.314868 -0.027481 0.007960
 31 21.613556 5.850677 -6.561737 0.031960 -0.202997 0.066168
 32 -0.490766 19.244427 -5.608498 0.426329 0.020334 0.004058
 33 12.172537 -7.748503 -10.307091 -0.025002 -0.089052 0.003095
 34 -12.668407 -7.748503 -10.702644 -0.094858 0.028261 -0.007601
 35 -0.490774 14.424881 -10.375046 0.229570 0.003983 0.000208
time 8
  0 0.768169 -0.850492 1.544617 0.000000 -0.000000 0.000000
  1 0.768169 -0.850492 1.544617 0.000000 -0.000000 0.000000
  2 0.984829 -7.246327 246.548599 0.000000 -0.000000 0.000000
  3 0.998367 -3.471023 1.599335 0.000000 -0.000000 0.000000
  4 0.998364 -3.471023 131.805344 -0.111793 -0.009027 -0.067523
  5 -11.802623 0.277811 -45.319969 0.694148 0.001969 -0.011161
  6 -0.797637 4.276031 -49.223625 0.433412 0.014513 -0.231732
  7 -0.000015 0.000000 -7.282917 0.000000 -0.000000 0.000000
  8 11.803269 0.236654 -45.319962 0.357314 -0.001257 0.005696
  9 0.812340 4.273219 -49.223579 0.517177 -0.090547 0.294458
 10 0.000002 0.000002 -7.282921 0.000000 -0.000000 0.000000
 11 -0.009838 0.029463 10.838531 -0.004607 0.000094 0.324485
 12 -16.431318 3.246393 32.898773 0.089061 -0.105736 -0.377071
 13 -12.321604 -2.201930 -17.125473 -0.063308 -0.002727 0.046111
 14 -13.252201 -2.413307 -18.422256 -0.000000 -0.000662 0.000000
 15 -3.868652 -0.832966 -6.257858 0.000000 -0.000000 0.000000
 16 -37.279202 -5.051151 -38.191193 0.000000 -0.000000 0.000000
 17 -3.806093 -1.056419 -7.595871 0.000000 -0.000000 0.000000
 18 16.442688 3.189070 32.898773 0.087765 0.145832 -0.289820
 19 12.313796 -2.244881 -17.125641 0.000000 -0.000000 0.000000
 20 13.243649 -2.459517 -18.422226 0.000042 0.000386 -0.000021
 21 4.038902 -0.928109 -8.488220 0.000000 -0.000000 0.000000
 22 -0.000695 -0.454950 46.067276 0.040870 0.010000 -0.257528
 23 -0.489965 22.757858 18.761993 0.068897 0.138721 -0.044639
 24 0.260380 -19.713461 -182.090988 0.000000 -0.000000 0.000000
 25 -16.518969 9.856464 11.602493 0.435378 0.216866 0.014107
 26 12.687099 8.730807 11.180984 0.176440 0.081402 0.029918
 27 -0.009700 -4.696528 26.699997 0.000000 -0.000000 0.000000
 28 -0.000040 -0.005972 23.601593 0.000000 -0.000000 0.000000
 29 -21.531246 -10.281179 -6.106514 0.010542 0.231147 -0.079256
 30 6.667688 -19.285315 -6.979965 -0.372306 -0.031407 0.009098
 31 21.613562 5.850675 -6.561752 0.022837 -0.236523 0.077097
 32 -0.490765 19.244423 -5.608513 0.470227 0.023692 0.004728
 33 12.172538 -7.748503 -10.307106 -0.043533 -0.104745 0.003606
 34 -12.668408 -7.748507 -10.702667 -0.124926 0.033185 -0.008856
 35 -0.490773 14.424879 -10.375069 0.246912 0.005443 0.000308
time 9
  0 0.768169 -0.850492 1.544617 0.000000 -0.000000 0.000000
  1 0.768169 -0.850492 1.544617 0.000000 -0.000000 0.000000
  2 0.984829 -7.246327 246.548599 0.000000 -0.000000 0.000000
  3 0.998367 -3.471023 1.599335 0.000000 -0.000000 0.000000
  4 0.998364 -3.471023 131.244934 -0.111911 -0.009035 -0.067570
  5 -11.802623 0.277813 -45.319954 0.701019 0.002024 -0.011263
  6 -0.797636 4.276031 -49.223640 0.436253 0.014787 -0.233213
  7 -0.000013 0.000004 -7.282915 0.000000 -0.000000 0.000000
  8 11.803270 0.236658 -45.319954 0.359130 -0.001264 0.005723
  9 0.812341 4.273220 -49.223576 0.521105 -0.091414 0.296181
 10 0.000002 -0.000002 -7.282921 0.000000 -0.000000 0.000000
 11 -0.009902 0.029444 10.838516 -0.005582 0.000111 0.326640
 12 -16.431316 3.246391 32.898758 0.089843 -0.108014 -0.379020
 13 -12.321607 -2.201930 -17.125473 -0.064040 -0.002741 0.046648
 14 -13.252197 -2.413305 -18.422272 -0.000000 -0.000807 -0.000000
 15 -3.868654 -0.832966 -6.257858 0.000000 -0.000000 0.000000
 16 -37.279190 -5.051151 -38.191200 0.000000 -0.000000 0.000000
 17 -3.806087 -1.056423 -7.595871 0.000000 -0.000000 0.000000
 18 16.442688 3.189073 32.898758 0.089249 0.148654 -0.291211
 19 12.313793 -2.244883 -17.125641 0.000000 -0.000000 0.000000
 20 13.243649 -2.459519 -18.422241 0.000042 0.000386 -0.000021
 21 4.038902 -0.928110 -8.488220 0.000000 -0.000000 0.000000
 22 -0.000695 -0.454950 46.067261 0.046614 0.012809 -0.258343
 23 -0.489967 22.757862 18.761993 0.076649 0.154328 -0.049661
 24 0.260395 -19.713457 -182.091003 0.000000 -0.000000 0.000000
 25 -16.518969 9.856468 11.602509 0.484360 0.241265 0.015695
 26 12.687097 8.730808 11.181000 0.209391 0.096604 0.035505
 27 -0.009700 -4.696529 26.700012 0.000000 -0.000000 0.000000
 28 -0.000040 -0.005970 23.601593 0.000000 -0.000000 0.000000
 29 -21.531248 -10.281181 -6.106499 0.001917 0.257152 -0.088172
 30 6.667687 -19.285315 -6.979965 -0.411282 -0.034071 0.009869
 31 21.613556 5.850676 -6.561745 0.015595 -0.263134 0.085771
 32 -0.490765 19.244423 -5.608505 0.504340 0.026357 0.005260
 33 12.172539 -7.748503 -10.307098 -0.058241 -0.117928 0.004012
 34 -12.668407 -7.748507 -10.702652 -0.148792 0.037282 -0.009852
 35 -0.490773 14.424881 -10.375061 0.260305 0.007194 0.000435
time 10
  0 0.768169 -0.850492 1.544617 0.000000 -0.000000 0.000000
  1 0.768169 -0.850492 1.544617 0.000000 -0.000000 0.000000
  2 0.984829 -7.246327 246.548599 0.000000 -0.000000 0.000000
  3 0.998367 -3.471023 1.599335 0.000000 -0.000000 0.000000
  4 0.998364 -3.471023 130.815170 -0.112096 -0.009040 -0.067596
  5 -11.802625 0.277811 -45.319954 0.705324 0.002058 -0.011327
  6 -0.797640 4.276035 -49.223640 0.438032 0.015023 -0.234138
  7 -0.000013 -0.000004 -7.282917 0.000000 -0.000000 0.000000
  8 11.803268 0.236654 -45.319954 0.360260 -0.001267 0.005740
  9 0.812337 4.273221 -49.223568 0.523559 -0.091955 0.297252
 10 0.000004 0.000000 -7.282921 0.000000 -0.000000 0.000000
 11 -0.009941 0.029430 10.838486 -0.006470 0.000124 0.327985
 12 -16.431314 3.246393 32.898773 0.090333 -0.110040 -0.380233
 13 -12.321604 -2.201930 -17.125473 -0.064542 -0.002754 0.047006
 14 -13.252199 -2.413307 -18.422256 -0.000000 -0.000943 0.000000
 15 -3.868658 -0.832966 -6.257843 0.000000 -0.000000 0.000000
 16 -37.279194 -5.051147 -38.191216 0.000000 -0.000000 0.000000
 17 -3.806097 -1.056421 -7.595871 0.000000 -0.000000 0.000000
 18 16.442688 3.189075 32.898788 0.090524 0.151161 -0.292077
 19 12.313794 -2.244884 -17.125641 0.000000 -0.000000 0.000000
 20 13.243650 -2.459520 -18.422241 0.000042 0.000386 -0.000021
 21 4.038902 -0.928110 -8.488220 0.000000 -0.000000 0.000000
 22 -0.000693 -0.454950 46.067276 0.051445 0.014615 -0.258849
 23 -0.489965 22.757862 18.761993 0.081604 0.164305 -0.052871
 24 0.260376 -19.713461 -182.091003 0.000000 -0.000000 0.000000
 25 -16.518967 9.856470 11.602493 0.515673 0.256862 0.016709
 26 12.687098 8.730810 11.180984 0.241327 0.111338 0.040921
 27 -0.009699 -4.696530 26.699997 0.000000 -0.000000 0.000000
 28 -0.000038 -0.005968 23.601593 0.000000 -0.000000 0.000000
 29 -21.531252 -10.281183 -6.106506 -0.003596 0.273776 -0.093873
 30 6.667688 -19.285318 -6.979958 -0.425642 -0.035053 0.010154
 31 21.613558 5.850675 -6.561745 0.010966 -0.280145 0.091316
 32 -0.490765 19.244427 -5.608505 0.525784 0.028061 0.005600
 33 12.172539 -7.748505 -10.307106 -0.067644 -0.127515 0.004271
 34 -12.668408 -7.748507 -10.702660 -0.164048 0.040203 -0.010489
 35 -0.490774 14.424882 -10.375061 0.268681 0.009259 0.000592
time 11
  0 0.768169 -0.850492 1.544617 0.000000 -0.000000 0.000000
  1 0.768169 -0.850492 1.544617 0.000000 -0.000000 0.000000
  2 0.984829 -7.246327 246.548599 0.000000 -0.000000 0.000000
  3 0.998367 -3.471023 1.599335 0.000000 -0.000000 0.000000
  4 0.998364 -3.471023 130.565781 -0.112371 -0.009040 -0.067602
  5 -11.802622 0.277813 -45.319962 0.706548 0.002068 -0.011347
  6 -0.797632 4.276024 -49.223640 0.438529 0.015212 -0.234398
  7 -0.000013 0.000000 -7.282915 0.000000 -0.000000 0.000000
  8 11.803268 0.236656 -45.319954 0.360565 -0.001268 0.005745
  9 0.812342 4.273216 -49.223576 0.524251 -0.092108 0.297549
 10 0.000000 -0.000004 -7.282924 0.000000 -0.000000 0.000000
 11 -0.009952 0.029428 10.838470 -0.007217 0.000132 0.328361
 12 -16.431316 3.246391 32.898773 0.090473 -0.111756 -0.380565
 13 -12.321606 -2.201931 -17.125488 -0.064766 -0.002764 0.047148
 14 -13.252199 -2.413305 -18.422241 0.000000 -0.001063 -0.000000
 15 -3.868656 -0.832964 -6.257858 0.000000 -0.000000 0.000000
 16 -37.279198 -5.051151 -38.191216 0.000000 -0.000000 0.000000
 17 -3.806097 -1.056419 -7.595886 0.000000 -0.000000 0.000000
 18 16.442684 3.189074 32.898773 0.091543 0.153280 -0.292313
 19 12.313796 -2.244882 -17.125671 0.000000 -0.000000 0.000000
 20 13.243650 -2.459518 -18.422226 0.000042 0.000386 -0.000021
 21 4.038897 -0.928109 -8.488220 0.000000 -0.000000 0.000000
 22 -0.000696 -0.454950 46.067261 0.055068 0.015138 -0.258986
 23 -0.489963 22.757858 18.762009 0.083017 0.167150 -0.053787
 24 0.260399 -19.713470 -182.091019 0.000000 -0.000000 0.000000
 25 -16.518967 9.856464 11.602509 0.524605 0.261311 0.016999
 26 12.687099 8.730809 11.181000 0.271218 0.125128 0.045989
 27 -0.009701 -4.696528 26.700012 0.000000 -0.000000 0.000000
 28 -0.000040 -0.005970 23.601593 0.000000 -0.000000 0.000000
 29 -21.531250 -10.281181 -6.106499 -0.005140 0.278556 -0.095449
 30 6.667686 -19.285313 -6.979958 -0.425474 -0.034849 0.010106
 31 21.613554 5.850677 -6.561745 0.009686 -0.285020 0.092849
 32 -0.490763 19.244423 -5.608490 0.531808 0.028535 0.005636
 33 12.172537 -7.748501 -10.307098 -0.070305 -0.132486 0.004336
 34 -12.668407 -7.748507 -10.702652 -0.168412 0.041620 -0.010669
 35 -0.490772 14.424879 -10.375046 0.271059 0.011670 0.000786
time 12
  0 0.768169 -0.850492 1.544617 0.000000 -0.000000 0.000000
  1 0.768169 -0.850492 1.544617 0.000000 -0.000000 0.000000
  2 0.984829 -7.246327 246.548599 0.000000 -0.000000 0.000000
  3 0.998367 -3.471023 1.599335 0.000000 -0.000000 0.000000
  4 0.998364 -3.471023 130.410172 -0.112797 -0.009015 -0.067590
  5 -11.802620 0.277811 -45.319954 0.706524 0.002068 -0.011350
  6 -0.797632 4.276028 -49.223648 0.438077 0.015369 -0.234260
  7 -0.000011 -0.000004 -7.282917 0.000000 -0.000000 0.000000
  8 11.803272 0.236654 -45.319946 0.359802 -0.001257 0.005735
  9 0.812344 4.273213 -49.223587 0.523998 -0.092054 0.297265
 10 0.000002 -0.000002 -7.282923 0.000000 -0.000000 0.000000
 11 -0.009943 0.029430 10.838455 -0.007952 0.000138 0.328093
 12 -16.431320 3.246393 32.898773 0.090465 -0.113294 -0.379953
 13 -12.321603 -2.201931 -17.125488 -0.064869 -0.002772 0.047199
 14 -13.252207 -2.413307 -18.422272 0.000005 -0.001173 -0.000000
 15 -3.868650 -0.832966 -6.257858 0.000000 -0.000000 0.000000
 16 -37.279182 -5.051149 -38.191216 0.000000 -0.000000 0.000000
 17 -3.806089 -1.056419 -7.595886 0.000000 -0.000000 0.000000
 18 16.442688 3.189074 32.898773 0.092369 0.155171 -0.291802
 19 12.313796 -2.244883 -17.125656 0.000000 -0.000000 0.000000
 20 13.243654 -2.459518 -18.422241 0.000042 0.000386 -0.000021
 21 4.038902 -0.928110 -8.488220 0.000000 -0.000000 0.000000
 22 -0.000696 -0.454950 46.067261 0.057864 0.015132 -0.258671
 23 -0.489963 22.757862 18.761993 0.082163 0.165430 -0.053233
 24 0.260422 -19.713474 -182.091049 0.000000 -0.000000 0.000000
 25 -16.518967 9.856465 11.602509 0.519205 0.258622 0.016824
 26 12.687099 8.730811 11.181000 0.298033 0.137499 0.050536
 27 -0.009701 -4.696527 26.700012 0.000000 -0.000000 0.000000
 28 -0.000040 -0.005968 23.601578 0.000000 -0.000000 0.000000
 29 -21.531252 -10.281183 -6.106499 -0.002747 0.277610 -0.092009
 30 6.667687 -19.285318 -6.979950 -0.424802 -0.034262 0.009972
 31 21.613558 5.850678 -6.561729 0.012511 -0.283280 0.089470
 32 -0.490762 19.244427 -5.608498 0.527196 0.027606 0.002496
 33 12.172539 -7.748503 -10.307098 -0.067653 -0.135258 0.003822
 34 -12.668409 -7.748507 -10.702652 -0.166391 0.042342 -0.010468
 35 -0.490771 14.424882 -10.375046 0.270968 0.014928 0.001084
time 13
  0 0.768169 -0.850492 1.544617 0.000000 -0.000000 0.000000
  1 0.768169 -0.850492 1.544617 0.000000 -0.000000 0.000000
  2 0.984829 -7.246327 246.548599 0.000000 -0.000000 0.000000
  3 0.998367 -3.471023 1.599335 0.000000 -0.000000 0.000000
  4 0.998364 -3.471023 130.281036 -0.113375 -0.008958 -0.067560
  5 -11.802622 0.277815 -45.319969 0.706460 0.002068 -0.011351
  6 -0.797635 4.276039 -49.223637 0.437010 0.015503 -0.233929
  7 -0.000011 0.000000 -7.282917 0.000000 -0.000000 0.000000
  8 11.803270 0.236660 -45.319962 0.358038 -0.001233 0.005711
  9 0.812340 4.273216 -49.223576 0.523373 -0.091920 0.296590
 10 0.000006 -0.000002 -7.282919 0.000000 -0.000000 0.000000
 11 -0.009921 0.029440 10.838425 -0.008745 0.000142 0.327454
 12 -16.431316 3.246391 32.898788 0.090437 -0.114738 -0.378527
 13 -12.321601 -2.201931 -17.125504 -0.064956 -0.002779 0.047243
 14 -13.252197 -2.413307 -18.422256 0.000017 -0.001282 -0.000000
 15 -3.868656 -0.832966 -6.257858 0.000000 -0.000000 0.000000
 16 -37.279205 -5.051149 -38.191216 0.000000 -0.000000 0.000000
 17 -3.806089 -1.056421 -7.595871 0.000000 -0.000000 0.000000
 18 16.442688 3.189074 32.898773 0.093064 0.156941 -0.290616
 19 12.313799 -2.244881 -17.125656 0.000000 -0.000000 0.000000
 20 13.243650 -2.459518 -18.422256 0.000042 0.000386 -0.000021
 21 4.038900 -0.928110 -8.488220 0.000000 -0.000000 0.000000
 22 -0.000696 -0.454948 46.067261 0.060182 0.015114 -0.257941
 23 -0.489965 22.757864 18.761993 0.080115 0.161306 -0.051906
 24 0.260399 -19.713463 -182.091019 0.000000 -0.000000 0.000000
 25 -16.518967 9.856468 11.602509 0.506262 0.252174 0.016404
 26 12.687096 8.730811 11.181000 0.320740 0.147975 0.054386
 27 -0.009700 -4.696529 26.699997 0.000000 -0.000000 0.000000
 28 -0.000041 -0.005972 23.601593 0.000000 -0.000000 0.000000
 29 -21.531248 -10.281181 -6.106499 0.002777 0.275243 -0.084100
 30 6.667688 -19.285316 -6.979950 -0.423375 -0.033331 0.009765
 31 21.613558 5.850679 -6.561745 0.019004 -0.279081 0.081702
 32 -0.490764 19.244427 -5.608498 0.516285 0.025472 -0.004723
 33 12.172539 -7.748501 -10.307098 -0.061448 -0.137572 0.002641
 34 -12.668407 -7.748505 -10.702652 -0.161568 0.042947 -0.010000
 35 -0.490773 14.424884 -10.375046 0.270631 0.019111 0.001502
time 14
  0 0.768169 -0.850492 1.544617 0.000000 -0.000000 0.000000
  1 0.768169 -0.850492 1.544617 0.000000 -0.000000 0.000000
  2 0.984829 -7.246327 246.548599 0.000000 -0.000000 0.000000
  3 0.998367 -3.471023 1.599335 0.000000 -0.000000 0.000000
  4 0.998364 -3.471023 130.175934 -0.114063 -0.008875 -0.067513
  5 -11.802622 0.277813 -45.319946 0.706348 0.002067 -0.011353
  6 -0.797632 4.276028 -49.223656 0.435423 0.015617 -0.233423
  7 -0.000011 -0.000004 -7.282917 0.000000 -0.000000 0.000000
  8 11.803274 0.236656 -45.319954 0.355488 -0.001198 0.005678
  9 0.812344 4.273221 -49.223579 0.522398 -0.091709 0.295582
 10 0.000006 -0.000002 -7.282921 0.000000 -0.000000 0.000000
 11 -0.009888 0.029449 10.838409 -0.009570 0.000146 0.326491
 12 -16.431320 3.246393 32.898758 0.090379 -0.116077 -0.376440
 13 -12.321601 -2.201931 -17.125488 -0.065029 -0.002786 0.047279
 14 -13.252201 -2.413307 -18.422272 0.000035 -0.001389 -0.000000
 15 -3.868650 -0.832964 -6.257858 0.000000 -0.000000 0.000000
 16 -37.279198 -5.051151 -38.191200 0.000000 -0.000000 0.000000
 17 -3.806093 -1.056419 -7.595886 0.000000 -0.000000 0.000000
 18 16.442688 3.189077 32.898758 0.093639 0.158577 -0.288892
 19 12.313801 -2.244883 -17.125656 0.000000 -0.000000 0.000000
 20 13.243658 -2.459517 -18.422241 0.000042 0.000386 -0.000021
 21 4.038897 -0.928110 -8.488205 0.000000 -0.000000 0.000000
 22 -0.000697 -0.454948 46.067261 0.062067 0.015084 -0.256878
 23 -0.489964 22.757858 18.761993 0.077014 0.155064 -0.049898
 24 0.260414 -19.713467 -182.091034 0.000000 -0.000000 0.000000
 25 -16.518969 9.856463 11.602509 0.486671 0.242416 0.015769
 26 12.687099 8.730808 11.181015 0.338309 0.156081 0.057366
 27 -0.009701 -4.696529 26.700012 0.000000 -0.000000 0.000000
 28 -0.000040 -0.005970 23.601578 0.000000 -0.000000 0.000000
 29 -21.531254 -10.281183 -6.106491 0.010758 0.271481 -0.072732
 30 6.667687 -19.285316 -6.979958 -0.420939 -0.032093 0.009498
 31 21.613562 5.850680 -6.561745 0.028337 -0.272678 0.070537
 32 -0.490762 19.244427 -5.608498 0.500027 0.022405 -0.015100
 33 12.172541 -7.748501 -10.307098 -0.052325 -0.139468 0.000943
 34 -12.668409 -7.748508 -10.702644 -0.154306 0.043445 -0.009312
 35 -0.490771 14.424884 -10.375046 0.269907 0.023960 0.002007
time 15
  0 0.768169 -0.850492 1.544617 0.000000 -0.000000 0.000000
  1 0.768169 -0.850492 1.544617 0.000000 -0.000000 0.000000
  2 0.984829 -7.246327 246.548599 0.000000 -0.000000 0.000000
  3 0.998367 -3.471023 1.599335 0.000000 -0.000000 0.000000
  4 0.998364 -3.471023 130.092392 -0.114821 -0.008774 -0.067449
  5 -11.802620 0.277811 -45.319946 0.706180 0.002066 -0.011355
  6 -0.797631 4.276035 -49.223637 0.433410 0.015712 -0.232762
  7 -0.000010 -0.000004 -7.282919 0.000000 -0.000000 0.000000
  8 11.803270 0.236658 -45.319946 0.352361 -0.001156 0.005637
  9 0.812343 4.273221 -49.223579 0.521093 -0.091426 0.294298
 10 0.000006 0.000000 -7.282921 0.000000 -0.000000 0.000000
 11 -0.009846 0.029459 10.838379 -0.010399 0.000149 0.325252
 12 -16.431318 3.246391 32.898773 0.090280 -0.117301 -0.373845
 13 -12.321606 -2.201932 -17.125488 -0.065089 -0.002791 0.047309
 14 -13.252201 -2.413307 -18.422256 0.000058 -0.001497 -0.000000
 15 -3.868649 -0.832966 -6.257858 0.000000 -0.000000 0.000000
 16 -37.279194 -5.051151 -38.191208 0.000000 -0.000000 0.000000
 17 -3.806097 -1.056421 -7.595886 0.000000 -0.000000 0.000000
 18 16.442686 3.189075 32.898773 0.094105 0.160066 -0.286765
 19 12.313796 -2.244881 -17.125641 0.000000 -0.000000 0.000000
 20 13.243654 -2.459518 -18.422241 0.000042 0.000386 -0.000021
 21 4.038898 -0.928109 -8.488235 0.000000 -0.000000 0.000000
 22 -0.000696 -0.454950 46.067245 0.063563 0.015038 -0.255565
 23 -0.489962 22.757858 18.762009 0.073004 0.146989 -0.047299
 24 0.260410 -19.713467 -182.091034 0.000000 -0.000000 0.000000
 25 -16.518967 9.856464 11.602524 0.461327 0.229792 0.014948
 26 12.687098 8.730811 11.181015 0.349710 0.161341 0.059299
 27 -0.009701 -4.696527 26.700027 0.000000 -0.000000 0.000000
 28 -0.000040 -0.005968 23.601563 0.000000 -0.000000 0.000000
 29 -21.531248 -10.281183 -6.106499 0.020524 0.266352 -0.058916
 30 6.667685 -19.285318 -6.979958 -0.417242 -0.030587 0.009185
 31 21.613558 5.850679 -6.561752 0.039679 -0.264327 0.056968
 32 -0.490762 19.244427 -5.608498 0.479374 0.018678 -0.027710
 33 12.172537 -7.748499 -10.307098 -0.040923 -0.140988 -0.001121
 34 -12.668407 -7.748507 -10.702652 -0.144969 0.043846 -0.008456
 35 -0.490771 14.424881 -10.375053 0.268657 0.029213 0.002570
time 16
  0 0.768169 -0.850492 1.544617 0.000000 -0.000000 0.000000
  1 0.768169 -0.850492 1.544617 0.000000 -0.000000 0.000000
  2 0.984829 -7.246327 246.548599 0.000000 -0.000000 0.000000
  3 0.998367 -3.471023 1.599335 0.000000 -0.000000 0.000000
  4 0.998364 -3.471023 130.027969 -0.115609 -0.008663 -0.067371
  5 -11.802622 0.277813 -45.319946 0.705951 0.002065 -0.011356
  6 -0.797630 4.276028 -49.223640 0.431068 0.015790 -0.231967
  7 -0.000011 -0.000004 -7.282917 0.000000 -0.000000 0.000000
  8 11.803270 0.236658 -45.319939 0.348873 -0.001109 0.005590
  9 0.812343 4.273215 -49.223583 0.519477 -0.091074 0.292795
 10 0.000002 -0.000004 -7.282921 0.000000 -0.000000 0.000000
 11 -0.009797 0.029476 10.838364 -0.011206 0.000151 0.323787
 12 -16.431316 3.246391 32.898758 0.090128 -0.118397 -0.370895
 13 -12.321603 -2.201931 -17.125519 -0.065136 -0.002795 0.047333
 14 -13.252201 -2.413309 -18.422256 0.000084 -0.001605 -0.000000
 15 -3.868652 -0.832966 -6.257843 0.000000 -0.000000 0.000000
 16 -37.279190 -5.051153 -38.191223 0.000000 -0.000000 0.000000
 17 -3.806091 -1.056421 -7.595886 0.000000 -0.000000 0.000000
 18 16.442686 3.189074 32.898773 0.094472 0.161397 -0.284370
 19 12.313800 -2.244882 -17.125656 0.000000 -0.000000 0.000000
 20 13.243652 -2.459518 -18.422241 0.000042 0.000386 -0.000021
 21 4.038897 -0.928110 -8.488220 0.000000 -0.000000 0.000000
 22 -0.000697 -0.454947 46.067261 0.064715 0.014976 -0.254083
 23 -0.489965 22.757866 18.761993 0.068225 0.137366 -0.044203
 24 0.260410 -19.713474 -182.091034 0.000000 -0.000000 0.000000
 25 -16.518967 9.856469 11.602509 0.431127 0.214749 0.013970
 26 12.687096 8.730812 11.181000 0.353911 0.163279 0.060011
 27 -0.009701 -4.696528 26.699997 0.000000 -0.000000 0.000000
 28 -0.000040 -0.005968 23.601593 0.000000 -0.000000 0.000000
 29 -21.531250 -10.281181 -6.106499 0.031400 0.259881 -0.043662
 30 6.667686 -19.285313 -6.979950 -0.412032 -0.028852 0.008840
 31 21.613560 5.850678 -6.561737 0.052202 -0.254279 0.041988
 32 -0.490762 19.244423 -5.608482 0.455278 0.014563 -0.041633
 33 12.172539 -7.748501 -10.307091 -0.027878 -0.142172 -0.003399
 34 -12.668407 -7.748505 -10.702644 -0.133919 0.044160 -0.007479
 35 -0.490771 14.424881 -10.375046 0.266739 0.034610 0.003159
time 17
  0 0.768169 -0.850492 1.544617 0.000000 -0.000000 0.000000
  1 0.768169 -0.850492 1.544617 0.000000 -0.000000 0.000000
  2 0.984829 -7.246327 246.548599 0.000000 -0.000000 0.000000
  3 0.998367 -3.471023 1.599335 0.000000 -0.000000 0.000000
  4 0.998364 -3.471023 129.980209 -0.116387 -0.008549 -0.067279
  5 -11.802619 0.277813 -45.319954 0.705652 0.002063 -0.011357
  6 -0.797635 4.276020 -49.223640 0.428492 0.015851 -0.231056
  7 -0.000013 -0.000004 -7.282917 0.000000 -0.000000 0.000000
  8 11.803271 0.236654 -45.319954 0.345234 -0.001060 0.005542
  9 0.812341 4.273212 -49.223572 0.517571 -0.090656 0.291131
 10 0.000004 0.000000 -7.282923 0.000000 -0.000000 0.000000
 11 -0.009742 0.029491 10.838348 -0.011962 0.000152 0.322141
 12 -16.431316 3.246395 32.898773 0.089914 -0.119355 -0.367744
 13 -12.321601 -2.201930 -17.125488 -0.065173 -0.002798 0.047352
 14 -13.252197 -2.413307 -18.422256 0.000112 -0.001713 -0.000000
 15 -3.868654 -0.832966 -6.257858 0.000000 -0.000000 0.000000
 16 -37.279182 -5.051147 -38.191193 0.000000 -0.000000 0.000000
 17 -3.806093 -1.056419 -7.595871 0.000000 -0.000000 0.000000
 18 16.442684 3.189074 32.898773 0.094753 0.162556 -0.281845
 19 12.313793 -2.244884 -17.125656 0.000000 -0.000000 0.000000
 20 13.243652 -2.459521 -18.422256 0.000042 0.000386 -0.000021
 21 4.038900 -0.928110 -8.488235 0.000000 -0.000000 0.000000
 22 -0.000697 -0.454947 46.067261 0.065568 0.014895 -0.252516
 23 -0.489967 22.757860 18.762009 0.062819 0.126482 -0.040700
 24 0.260414 -19.713474 -182.091049 0.000000 -0.000000 0.000000
 25 -16.518967 9.856466 11.602524 0.396966 0.197733 0.012863
 26 12.687096 8.730807 11.181015 0.349045 0.161034 0.059186
 27 -0.009700 -4.696527 26.700027 0.000000 -0.000000 0.000000
 28 -0.000040 -0.005968 23.601593 0.000000 -0.000000 0.000000
 29 -21.531246 -10.281179 -6.106499 0.042713 0.252096 -0.027983
 30 6.667688 -19.285316 -6.979958 -0.405055 -0.026925 0.008474
 31 21.613554 5.850677 -6.561745 0.065074 -0.242791 0.026589
 32 -0.490765 19.244423 -5.608490 0.428691 0.010332 -0.055944
 33 12.172539 -7.748501 -10.307098 -0.013827 -0.143062 -0.005741
 34 -12.668406 -7.748505 -10.702644 -0.121520 0.044397 -0.006431
 35 -0.490773 14.424879 -10.375053 0.264013 0.039892 0.003742
time 18
  0 0.768169 -0.850492 1.544617 0.000000 -0.000000 0.000000
  1 0.768169 -0.850492 1.544617 0.000000 -0.000000 0.000000
  2 0.984829 -7.246327 246.548599 0.000000 -0.000000 0.000000
  3 0.998367 -3.471023 1.599335 0.000000 -0.000000 0.000000
  4 0.998364 -3.471023 129.946625 -0.117113 -0.008439 -0.067174
  5 -11.802619 0.277813 -45.319962 0.705278 0.002061 -0.011357
  6 -0.797640 4.276024 -49.223652 0.425776 0.015898 -0.230051
  7 -0.000013 -0.000004 -7.282917 0.000000 -0.000000 0.000000
  8 11.803273 0.236652 -45.319962 0.341657 -0.001013 0.005495
  9 0.812340 4.273225 -49.223583 0.515395 -0.090176 0.289361
 10 0.000004 0.000002 -7.282925 0.000000 -0.000000 0.000000
 11 -0.009684 0.029507 10.838318 -0.012642 0.000153 0.320364
 12 -16.431316 3.246393 32.898773 0.089626 -0.120164 -0.364546
 13 -12.321607 -2.201930 -17.125488 -0.065200 -0.002800 0.047366
 14 -13.252205 -2.413307 -18.422272 0.000141 -0.001824 -0.000000
 15 -3.868649 -0.832966 -6.257843 0.000000 -0.000000 0.000000
 16 -37.279205 -5.051147 -38.191223 0.000000 -0.000000 0.000000
 17 -3.806087 -1.056419 -7.595871 0.000000 -0.000000 0.000000
 18 16.442688 3.189074 32.898773 0.094957 0.163533 -0.279324
 19 12.313793 -2.244885 -17.125656 0.000000 -0.000000 0.000000
 20 13.243656 -2.459521 -18.422241 0.000042 0.000386 -0.000021
 21 4.038902 -0.928111 -8.488205 0.000000 -0.000000 0.000000
 22 -0.000697 -0.454947 46.067245 0.066165 0.014794 -0.250946
 23 -0.489968 22.757862 18.761993 0.056928 0.114621 -0.036884
 24 0.260412 -19.713469 -182.091019 0.000000 -0.000000 0.000000
 25 -16.518969 9.856470 11.602524 0.359740 0.179191 0.011657
 26 12.687097 8.730812 11.181000 0.334806 0.154465 0.056772
 27 -0.009701 -4.696528 26.700027 0.000000 -0.000000 0.000000
 28 -0.000041 -0.005970 23.601608 0.000000 -0.000000 0.000000
 29 -21.531248 -10.281181 -6.106499 0.053790 0.243022 -0.012888
 30 6.667691 -19.285322 -6.979958 -0.396061 -0.024845 0.008102
 31 21.613558 5.850674 -6.561745 0.077467 -0.230115 0.011764
 32 -0.490767 19.244431 -5.608498 0.400566 0.006260 -0.069722
 33 12.172542 -7.748507 -10.307106 0.000594 -0.143698 -0.007996
 34 -12.668406 -7.748507 -10.702660 -0.108134 0.044569 -0.005362
 35 -0.490775 14.424885 -10.375053 0.260338 0.044796 0.004289
time 19
  0 0.768169 -0.850492 1.544617 0.000000 -0.000000 0.000000
  1 0.768169 -0.850492 1.544617 0.000000 -0.000000 0.000000
  2 0.984829 -7.246327 246.548599 0.000000 -0.000000 0.000000
  3 0.998367 -3.471023 1.599335 0.000000 -0.000000 0.000000
  4 0.998364 -3.471023 129.924805 -0.117749 -0.008341 -0.067057
  5 -11.802616 0.277813 -45.319954 0.704820 0.002059 -0.011358
  6 -0.797633 4.276024 -49.223648 0.423015 0.015933 -0.228969
  7 -0.000011 -0.000004 -7.282919 0.000000 -0.000000 0.000000
  8 11.803272 0.236656 -45.319954 0.338355 -0.000971 0.005451
  9 0.812345 4.273219 -49.223576 0.512968 -0.089638 0.287544
 10 0.000002 -0.000002 -7.282923 0.000000 -0.000000 0.000000
 11 -0.009624 0.029528 10.838287 -0.013218 0.000154 0.318503
 12 -16.431320 3.246391 32.898773 0.089254 -0.120812 -0.361452
 13 -12.321602 -2.201930 -17.125504 -0.065219 -0.002802 0.047376
 14 -13.252195 -2.413305 -18.422256 0.000171 -0.001937 -0.000000
 15 -3.868656 -0.832966 -6.257843 0.000000 -0.000000 0.000000
 16 -37.279190 -5.051147 -38.191216 0.000000 -0.000000 0.000000
 17 -3.806095 -1.056419 -7.595871 0.000000 -0.000000 0.000000
 18 16.442684 3.189074 32.898773 0.095097 0.164314 -0.276944
 19 12.313796 -2.244884 -17.125641 0.000000 -0.000000 0.000000
 20 13.243650 -2.459519 -18.422241 0.000042 0.000386 -0.000021
 21 4.038902 -0.928110 -8.488220 0.000000 -0.000000 0.000000
 22 -0.000699 -0.454950 46.067261 0.066553 0.014671 -0.249456
 23 -0.489966 22.757862 18.761993 0.050694 0.102069 -0.032845
 24 0.260420 -19.713469 -182.091019 0.000000 -0.000000 0.000000
 25 -16.518967 9.856468 11.602493 0.320345 0.159567 0.010380
 26 12.687095 8.730811 11.180984 0.312753 0.144290 0.053032
 27 -0.009702 -4.696529 26.699997 0.000000 -0.000000 0.000000
 28 -0.000041 -0.005970 23.601593 0.000000 -0.000000 0.000000
 29 -21.531242 -10.281181 -6.106499 0.063957 0.232687 0.000613
 30 6.667688 -19.285316 -6.979965 -0.384795 -0.022650 0.007737
 31 21.613552 5.850677 -6.561745 0.088550 -0.216508 -0.001495
 32 -0.490764 19.244431 -5.608498 0.371854 0.002618 -0.082044
 33 12.172539 -7.748501 -10.307106 0.014746 -0.144121 -0.010012
 34 -12.668404 -7.748505 -10.702652 -0.094125 0.044684 -0.004321
 35 -0.490772 14.424884 -10.375053 0.255574 0.049065 0.004769
time 20
  0 0.768169 -0.850492 1.544617 0.000000 -0.000000 0.000000
  1 0.768169 -0.850492 1.544617 0.000000 -0.000000 0.000000
  2 0.984829 -7.246327 246.548599 0.000000 -0.000000 0.000000
  3 0.998367 -3.471023 1.599335 0.000000 -0.000000 0.000000
  4 0.998364 -3.471023 129.912247 -0.118253 -0.008262 -0.066929
  5 -11.802616 0.277813 -45.319969 0.704272 0.002056 -0.011358
  6 -0.797634 4.276020 -49.223648 0.420305 0.015955 -0.227832
  7 -0.000011 -0.000004 -7.282917 0.000000 -0.000000 0.000000
  8 11.803274 0.236656 -45.319977 0.335541 -0.000936 0.005413
  9 0.812345 4.273215 -49.223583 0.510312 -0.089045 0.285736
 10 0.000002 -0.000002 -7.282927 0.000000 -0.000000 0.000000
 11 -0.009563 0.029545 10.838287 -0.013662 0.000154 0.316606
 12 -16.431320 3.246393 32.898773 0.088787 -0.121289 -0.358618
 13 -12.321602 -2.201931 -17.125504 -0.065231 -0.002803 0.047382
 14 -13.252197 -2.413307 -18.422256 0.000198 -0.002053 -0.000000
 15 -3.868650 -0.832968 -6.257858 0.000000 -0.000000 0.000000
 16 -37.279182 -5.051151 -38.191223 0.000000 -0.000000 0.000000
 17 -3.806087 -1.056423 -7.595886 0.000000 -0.000000 0.000000
 18 16.442684 3.189074 32.898773 0.095183 0.164887 -0.274841
 19 12.313793 -2.244884 -17.125626 0.000000 -0.000000 0.000000
 20 13.243650 -2.459519 -18.422256 0.000042 0.000386 -0.000021
 21 4.038897 -0.928110 -8.488235 0.000000 -0.000000 0.000000
 22 -0.000700 -0.454948 46.067261 0.066774 0.014524 -0.248129
 23 -0.489968 22.757862 18.761993 0.044258 0.089111 -0.028675
 24 0.260422 -19.713470 -182.091064 0.000000 -0.000000 0.000000
 25 -16.518969 9.856468 11.602509 0.279677 0.139310 0.009062
 26 12.687095 8.730810 11.181000 0.284443 0.131229 0.048232
 27 -0.009703 -4.696527 26.700012 0.000000 -0.000000 0.000000
 28 -0.000041 -0.005970 23.601593 0.000000 -0.000000 0.000000
 29 -21.531242 -10.281181 -6.106506 0.072540 0.221117 0.011507
 30 6.667689 -19.285316 -6.979973 -0.371006 -0.020378 0.007393
 31 21.613554 5.850677 -6.561760 0.097494 -0.202221 -0.012194
 32 -0.490764 19.244429 -5.608505 0.343507 -0.000322 -0.091988
 33 12.172539 -7.748501 -10.307106 0.027993 -0.144373 -0.011640
 34 -12.668406 -7.748507 -10.702660 -0.079856 0.044754 -0.003357
 35 -0.490772 14.424883 -10.375069 0.249580 0.052436 0.005150
time 21
  0 0.768169 -0.850492 1.544617 0.000000 -0.000000 0.000000
  1 0.768169 -0.850492 1.544617 0.000000 -0.000000 0.000000
  2 0.984829 -7.246327 246.548599 0.000000 -0.000000 0.000000
  3 0.998367 -3.471023 1.599335 0.000000 -0.000000 0.000000
  4 0.998364 -3.471023 129.906509 -0.118585 -0.008209 -0.066792
  5 -11.802616 0.277813 -45.319969 0.703627 0.002053 -0.011358
  6 -0.797631 4.276024 -49.223648 0.417742 0.015968 -0.226658
  7 -0.000011 0.000000 -7.282921 0.000000 -0.000000 0.000000
  8 11.803276 0.236656 -45.319969 0.333427 -0.000911 0.005384
  9 0.812346 4.273224 -49.223579 0.507447 -0.088400 0.283994
 10 0.000006 0.000002 -7.282921 0.000000 -0.000000 0.000000
 11 -0.009506 0.029562 10.838272 -0.013949 0.000155 0.314721
 12 -16.431318 3.246391 32.898788 0.088215 -0.121583 -0.356196
 13 -12.321605 -2.201930 -17.125504 -0.065238 -0.002804 0.047386
 14 -13.252195 -2.413307 -18.422256 0.000224 -0.002173 -0.000000
 15 -3.868650 -0.832968 -6.257843 0.000000 -0.000000 0.000000
 16 -37.279186 -5.051147 -38.191223 0.000000 -0.000000 0.000000
 17 -3.806091 -1.056419 -7.595886 0.000000 -0.000000 0.000000
 18 16.442682 3.189077 32.898773 0.095227 0.165240 -0.273149
 19 12.313800 -2.244882 -17.125671 0.000000 -0.000000 0.000000
 20 13.243654 -2.459520 -18.422241 0.000042 0.000386 -0.000021
 21 4.038898 -0.928110 -8.488205 0.000000 -0.000000 0.000000
 22 -0.000701 -0.454948 46.067261 0.066874 0.014351 -0.247046
 23 -0.489968 22.757870 18.762009 0.037763 0.076033 -0.024466
 24 0.260427 -19.713463 -182.091049 0.000000 -0.000000 0.000000
 25 -16.518970 9.856471 11.602509 0.238630 0.118864 0.007732
 26 12.687096 8.730813 11.181000 0.251433 0.116000 0.042634
 27 -0.009704 -4.696530 26.700012 0.000000 -0.000000 0.000000
 28 -0.000043 -0.005970 23.601593 0.000000 -0.000000 0.000000
 29 -21.531248 -10.281181 -6.106514 0.078867 0.208338 0.018785
 30 6.667688 -19.285316 -6.979965 -0.354442 -0.018067 0.007082
 31 21.613560 5.850678 -6.561752 0.103468 -0.187511 -0.019342
 32 -0.490763 19.244427 -5.608505 0.316478 -0.002285 -0.098631
 33 12.172541 -7.748503 -10.307106 0.039698 -0.144493 -0.012727
 34 -12.668406 -7.748505 -10.702660 -0.065690 0.044788 -0.002520
 35 -0.490771 14.424885 -10.375061 0.242216 0.054649 0.005402
time 22
  0 0.768169 -0.850492 1.544617 0.000000 -0.000000 0.000000
  1 0.768169 -0.850492 1.544617 0.000000 -0.000000 0.000000
  2 0.984829 -7.246327 246.548599 0.000000 -0.000000 0.000000
  3 0.998367 -3.471023 1.599335 0.000000 -0.000000 0.000000
  4 0.998364 -3.471023 129.905151 -0.118704 -0.008190 -0.066645
  5 -11.802612 0.277815 -45.319969 0.702878 0.002049 -0.011358
  6 -0.797632 4.276028 -49.223648 0.415419 0.015971 -0.225469
  7 -0.000011 -0.000004 -7.282919 0.000000 -0.000000 0.000000
  8 11.803276 0.236654 -45.319977 0.332225 -0.000900 0.005367
  9 0.812344 4.273223 -49.223568 0.504392 -0.087708 0.282376
 10 0.000004 0.000002 -7.282919 0.000000 -0.000000 0.000000
 11 -0.009451 0.029579 10.838272 -0.014050 0.000155 0.312897
 12 -16.431322 3.246391 32.898788 0.087527 -0.121684 -0.354339
 13 -12.321598 -2.201929 -17.125488 -0.065239 -0.002804 0.047387
 14 -13.252199 -2.413303 -18.422256 0.000245 -0.002298 -0.000000
 15 -3.868654 -0.832966 -6.257858 0.000000 -0.000000 0.000000
 16 -37.279182 -5.051147 -38.191200 0.000000 -0.000000 0.000000
 17 -3.806093 -1.056421 -7.595871 0.000000 -0.000000 0.000000
 18 16.442680 3.189074 32.898758 0.095239 0.165360 -0.272006
 19 12.313796 -2.244885 -17.125656 0.000000 -0.000000 0.000000
 20 13.243649 -2.459520 -18.422256 0.000042 0.000386 -0.000021
 21 4.038902 -0.928111 -8.488205 0.000000 -0.000000 0.000000
 22 -0.000703 -0.454947 46.067261 0.066898 0.014150 -0.246290
 23 -0.489969 22.757862 18.761993 0.031349 0.063119 -0.020311
 24 0.260431 -19.713465 -182.091034 0.000000 -0.000000 0.000000
 25 -16.518969 9.856468 11.602509 0.198102 0.098677 0.006419
 26 12.687092 8.730809 11.181000 0.215284 0.099322 0.036505
 27 -0.009704 -4.696528 26.700012 0.000000 -0.000000 0.000000
 28 -0.000043 -0.005970 23.601593 0.000000 -0.000000 0.000000
 29 -21.531244 -10.281179 -6.106506 0.082263 0.194378 0.021435
 30 6.667690 -19.285318 -6.979973 -0.334850 -0.015756 0.006818
 31 21.613552 5.850677 -6.561768 0.105644 -0.172631 -0.021945
 32 -0.490766 19.244427 -5.608505 0.291719 -0.003000 -0.101050
 33 12.172540 -7.748503 -10.307114 0.049225 -0.144525 -0.013123
 34 -12.668403 -7.748507 -10.702660 -0.051991 0.044797 -0.001858
 35 -0.490773 14.424884 -10.375069 0.233342 0.055445 0.005493
time 23
  0 0.768169 -0.850492 1.544617 0.000000 -0.000000 0.000000
  1 0.768169 -0.850492 1.544617 0.000000 -0.000000 0.000000
  2 0.984829 -7.246327 246.548599 0.000000 -0.000000 0.000000
  3 0.998367 -3.471023 1.599335 0.000000 -0.000000 0.000000
  4 0.998364 -3.471023 130.110306 -0.118613 -0.008192 -0.066514
  5 -11.802615 0.277815 -45.319962 0.701226 0.002020 -0.011345
  6 -0.797636 4.276035 -49.223640 0.412965 0.015950 -0.223975
  7 -0.000013 0.000000 -7.282921 0.000000 -0.000000 0.000000
  8 11.803277 0.236654 -45.319962 0.331626 -0.000897 0.005359
  9 0.812344 4.273229 -49.223587 0.501065 -0.086945 0.280586
 10 0.000002 0.000000 -7.282923 0.000000 -0.000000 0.000000
 11 -0.009391 0.029596 10.838272 -0.013945 0.000150 0.310736
 12 -16.431320 3.246393 32.898788 0.086860 -0.121497 -0.352999
 13 -12.321604 -2.201928 -17.125488 -0.064964 -0.002798 0.047194
 14 -13.252193 -2.413305 -18.422272 0.000264 -0.002434 -0.000000
 15 -3.868650 -0.832966 -6.257858 0.000000 -0.000000 0.000000
 16 -37.279198 -5.051146 -38.191193 0.000000 -0.000000 0.000000
 17 -3.806089 -1.056419 -7.595871 0.000000 -0.000000 0.000000
 18 16.442680 3.189075 32.898788 0.095067 0.165103 -0.271278
 19 12.313798 -2.244884 -17.125656 0.000000 -0.000000 0.000000
 20 13.243652 -2.459520 -18.422256 0.000042 0.000387 -0.000021
 21 4.038897 -0.928111 -8.488205 0.000000 -0.000000 0.000000
 22 -0.000702 -0.454947 46.067261 0.065646 0.012726 -0.245792
 23 -0.489970 22.757866 18.762009 0.025159 0.050657 -0.016301
 24 0.260426 -19.713461 -182.091034 0.000000 -0.000000 0.000000
 25 -16.518969 9.856472 11.602509 0.158987 0.079193 0.005152
 26 12.687093 8.730809 11.180984 0.177551 0.081914 0.030107
 27 -0.009703 -4.696530 26.700012 0.000000 -0.000000 0.000000
 28 -0.000043 -0.005968 23.601608 0.000000 -0.000000 0.000000
 29 -21.531246 -10.281179 -6.106514 0.083613 0.174892 0.020936
 30 6.667691 -19.285322 -6.979973 -0.301471 -0.013201 0.006616
 31 21.613556 5.850676 -6.561752 0.104852 -0.153820 -0.021002
 32 -0.490767 19.244431 -5.608513 0.265011 -0.000972 -0.097873
 33 12.172542 -7.748505 -10.307114 0.055745 -0.138315 -0.012559
 34 -12.668405 -7.748505 -10.702667 -0.036675 0.042872 -0.001352
 35 -0.490774 14.424886 -10.375061 0.219588 0.055392 0.005175
time 24
  0 0.768169 -0.850492 1.544617 0.000000 -0.000000 0.000000
  1 0.768169 -0.850492 1.544617 0.000000 -0.000000 0.000000
  2 0.984829 -7.246327 246.548599 0.000000 -0.000000 0.000000
  3 0.998367 -3.471023 1.599335 0.000000 -0.000000 0.000000
  4 0.998364 -3.471023 130.652084 -0.118290 -0.008202 -0.066404
  5 -11.802613 0.277815 -45.319946 0.697568 0.001950 -0.011300
  6 -0.797634 4.276028 -49.223648 0.410095 0.015863 -0.222010
  7 -0.000011 0.000000 -7.282915 0.000000 -0.000000 0.000000
  8 11.803274 0.236656 -45.319946 0.331165 -0.000894 0.005352
  9 0.812345 4.273229 -49.223572 0.497342 -0.086082 0.278417
 10 0.000004 -0.000002 -7.282925 0.000000 -0.000000 0.000000
 11 -0.009320 0.029619 10.838287 -0.013531 0.000136 0.307991
 12 -16.431320 3.246395 32.898758 0.086239 -0.120741 -0.351995
 13 -12.321604 -2.201928 -17.125488 -0.064228 -0.002781 0.046679
 14 -13.252197 -2.413305 -18.422241 0.000282 -0.002586 -0.000000
 15 -3.868656 -0.832964 -6.257858 0.000000 -0.000000 0.000000
 16 -37.279198 -5.051147 -38.191193 0.000000 -0.000000 0.000000
 17 -3.806093 -1.056421 -7.595871 0.000000 -0.000000 0.000000
 18 16.442677 3.189075 32.898773 0.094435 0.164082 -0.270725
 19 12.313795 -2.244885 -17.125626 0.000000 -0.000000 0.000000
 20 13.243650 -2.459520 -18.422256 0.000042 0.000387 -0.000021
 21 4.038904 -0.928111 -8.488220 0.000000 -0.000000 0.000000
 22 -0.000703 -0.454948 46.067261 0.061916 0.009330 -0.245415
 23 -0.489969 22.757854 18.762009 0.019335 0.038929 -0.012527
 24 0.260422 -19.713451 -182.091019 0.000000 -0.000000 0.000000
 25 -16.518967 9.856465 11.602509 0.122181 0.060860 0.003959
 26 12.687094 8.730807 11.181000 0.139795 0.064495 0.023704
 27 -0.009704 -4.696527 26.699997 0.000000 -0.000000 0.000000
 28 -0.000043 -0.005966 23.601578 0.000000 -0.000000 0.000000
 29 -21.531242 -10.281178 -6.106491 0.084375 0.147647 0.019534
 30 6.667689 -19.285313 -6.979950 -0.248425 -0.010205 0.006464
 31 21.613554 5.850676 -6.561745 0.102762 -0.128917 -0.018516
 32 -0.490766 19.244427 -5.608498 0.233266 0.004376 -0.089377
 33 12.172539 -7.748505 -10.307091 0.059583 -0.121943 -0.011072
 34 -12.668403 -7.748505 -10.702644 -0.018256 0.037798 -0.000941
 35 -0.490773 14.424884 -10.375053 0.199384 0.055181 0.004338
time 25
  0 0.768169 -0.850492 1.544617 0.000000 -0.000000 0.000000
  1 0.768169 -0.850492 1.544617 0.000000 -0.000000 0.000000
  2 0.984829 -7.246327 246.548599 0.000000 -0.000000 0.000000
  3 0.998367 -3.471023 1.599335 0.000000 -0.000000 0.000000
  4 0.998364 -3.471023 131.419922 -0.117665 -0.008220 -0.066289
  5 -11.802611 0.277815 -45.319962 0.691443 0.001850 -0.011216
  6 -0.797629 4.276024 -49.223656 0.407038 0.015681 -0.219774
  7 -0.000011 0.000000 -7.282919 0.000000 -0.000000 0.000000
  8 11.803281 0.236656 -45.319969 0.330824 -0.000893 0.005347
  9 0.812350 4.273220 -49.223583 0.493174 -0.085113 0.276059
 10 0.000006 0.000002 -7.282921 0.000000 -0.000000 0.000000
 11 -0.009243 0.029644 10.838333 -0.012665 0.000116 0.304929
 12 -16.431326 3.246397 32.898788 0.085484 -0.119129 -0.351277
 13 -12.321603 -2.201930 -17.125488 -0.063170 -0.002757 0.045939
 14 -13.252197 -2.413305 -18.422272 0.000299 -0.002747 -0.000000
 15 -3.868649 -0.832968 -6.257858 0.000000 -0.000000 0.000000
 16 -37.279198 -5.051151 -38.191185 0.000000 -0.000000 0.000000
 17 -3.806089 -1.056419 -7.595886 0.000000 -0.000000 0.000000
 18 16.442678 3.189077 32.898758 0.093171 0.161925 -0.270324
 19 12.313800 -2.244884 -17.125641 0.000000 -0.000000 0.000000
 20 13.243660 -2.459519 -18.422272 0.000042 0.000387 -0.000021
 21 4.038900 -0.928111 -8.488235 0.000000 -0.000000 0.000000
 22 -0.000706 -0.454947 46.067261 0.055740 0.004628 -0.245142
 23 -0.489968 22.757862 18.761993 0.014018 0.028223 -0.009082
 24 0.260435 -19.713455 -182.091034 0.000000 -0.000000 0.000000
 25 -16.518969 9.856467 11.602509 0.088580 0.044123 0.002870
 26 12.687095 8.730812 11.180984 0.103572 0.047783 0.017562
 27 -0.009707 -4.696530 26.699997 0.000000 -0.000000 0.000000
 28 -0.000045 -0.005968 23.601593 0.000000 -0.000000 0.000000
 29 -21.531246 -10.281181 -6.106499 0.084739 0.115834 0.017368
 30 6.667690 -19.285316 -6.979965 -0.182778 -0.006878 0.006343
 31 21.613556 5.850677 -6.561752 0.099808 -0.100571 -0.015001
 32 -0.490764 19.244431 -5.608498 0.199134 0.011937 -0.077118
 33 12.172541 -7.748505 -10.307106 0.061826 -0.098796 -0.008970
 34 -12.668405 -7.748505 -10.702660 0.002013 0.030623 -0.000617
 35 -0.490771 14.424885 -10.375053 0.175283 0.054733 0.003155
time 26
  0 0.768169 -0.850492 1.544617 0.000000 -0.000000 0.000000
  1 0.768169 -0.850492 1.544617 0.000000 -0.000000 0.000000
  2 0.984829 -7.246327 246.548599 0.000000 -0.000000 0.000000
  3 0.998367 -3.471023 1.599335 0.000000 -0.000000 0.000000
  4 0.998364 -3.471023 132.303238 -0.116664 -0.008249 -0.066143
  5 -11.802616 0.277813 -45.319954 0.682388 0.001731 -0.011083
  6 -0.797634 4.276020 -49.223652 0.404023 0.015370 -0.217470
  7 -0.000011 -0.000004 -7.282919 0.000000 -0.000000 0.000000
  8 11.803276 0.236654 -45.319962 0.330585 -0.000891 0.005343
  9 0.812344 4.273222 -49.223579 0.488516 -0.084029 0.273703
 10 0.000004 -0.000002 -7.282925 0.000000 -0.000000 0.000000
 11 -0.009163 0.029669 10.838348 -0.011203 0.000091 0.301820
 12 -16.431324 3.246395 32.898788 0.084413 -0.116370 -0.350799
 13 -12.321603 -2.201929 -17.125488 -0.061929 -0.002729 0.045070
 14 -13.252199 -2.413305 -18.422272 0.000316 -0.002910 -0.000000
 15 -3.868649 -0.832966 -6.257843 0.000000 -0.000000 0.000000
 16 -37.279202 -5.051147 -38.191216 0.000000 -0.000000 0.000000
 17 -3.806093 -1.056419 -7.595886 0.000000 -0.000000 0.000000
 18 16.442682 3.189072 32.898773 0.091101 0.158262 -0.270050
 19 12.313801 -2.244885 -17.125641 0.000000 -0.000000 0.000000
 20 13.243650 -2.459521 -18.422256 0.000042 0.000387 -0.000021
 21 4.038902 -0.928111 -8.488235 0.000000 -0.000000 0.000000
 22 -0.000701 -0.454947 46.067261 0.047152 -0.000714 -0.244957
 23 -0.489970 22.757858 18.762009 0.009349 0.018824 -0.006057
 24 0.260416 -19.713453 -182.091064 0.000000 -0.000000 0.000000
 25 -16.518970 9.856468 11.602509 0.059080 0.029428 0.001914
 26 12.687097 8.730807 11.181000 0.070441 0.032498 0.011944
 27 -0.009702 -4.696528 26.700012 0.000000 -0.000000 0.000000
 28 -0.000042 -0.005968 23.601593 0.000000 -0.000000 0.000000
 29 -21.531246 -10.281179 -6.106499 0.084893 0.082647 0.014578
 30 6.667690 -19.285318 -6.979958 -0.111592 -0.003328 0.006230
 31 21.613558 5.850675 -6.561752 0.096422 -0.071435 -0.010972
 32 -0.490765 19.244425 -5.608498 0.165266 0.020605 -0.062651
 33 12.172541 -7.748503 -10.307106 0.063562 -0.072262 -0.006561
 34 -12.668406 -7.748505 -10.702660 0.022877 0.022399 -0.000372
 35 -0.490773 14.424881 -10.375053 0.149838 0.053968 0.001798
time 27
  0 0.768169 -0.850492 1.544617 0.000000 -0.000000 0.000000
  1 0.768169 -0.850492 1.544617 0.000000 -0.000000 0.000000
  2 0.984829 -7.246327 246.548599 0.000000 -0.000000 0.000000
  3 0.998367 -3.471023 1.599335 0.000000 -0.000000 0.000000
  4 0.998364 -3.471023 133.191483 -0.115215 -0.008290 -0.065939
  5 -11.802612 0.277813 -45.319962 0.669941 0.001605 -0.010893
  6 -0.797631 4.276024 -49.223648 0.401280 0.014901 -0.215297
  7 -0.000011 -0.000004 -7.282919 0.000000 -0.000000 0.000000
  8 11.803278 0.236656 -45.319977 0.330431 -0.000891 0.005341
  9 0.812345 4.273220 -49.223576 0.483320 -0.082823 0.271539
 10 0.000004 0.000000 -7.282923 0.000000 -0.000000 0.000000
 11 -0.009090 0.029696 10.838379 -0.009000 0.000065 0.298934
 12 -16.431324 3.246395 32.898788 0.082845 -0.112175 -0.350510
 13 -12.321600 -2.201928 -17.125488 -0.060642 -0.002700 0.044168
 14 -13.252197 -2.413305 -18.422256 0.000331 -0.003071 -0.000000
 15 -3.868652 -0.832964 -6.257858 0.000000 -0.000000 0.000000
 16 -37.279182 -5.051144 -38.191208 0.000000 -0.000000 0.000000
 17 -3.806093 -1.056419 -7.595886 0.000000 -0.000000 0.000000
 18 16.442680 3.189077 32.898758 0.088051 0.152720 -0.269879
 19 12.313799 -2.244882 -17.125656 0.000000 -0.000000 0.000000
 20 13.243654 -2.459518 -18.422241 0.000042 0.000387 -0.000021
 21 4.038900 -0.928110 -8.488205 0.000000 -0.000000 0.000000
 22 -0.000704 -0.454948 46.067261 0.036188 -0.006029 -0.244842
 23 -0.489970 22.757864 18.762009 0.005472 0.011017 -0.003545
 24 0.260424 -19.713455 -182.091064 0.000000 -0.000000 0.000000
 25 -16.518969 9.856472 11.602524 0.034576 0.017223 0.001120
 26 12.687094 8.730810 11.181000 0.041960 0.019359 0.007115
 27 -0.009704 -4.696531 26.700012 0.000000 -0.000000 0.000000
 28 -0.000044 -0.005968 23.601608 0.000000 -0.000000 0.000000
 29 -21.531244 -10.281181 -6.106506 0.085027 0.051277 0.011306
 30 6.667690 -19.285316 -6.979980 -0.041934 0.000335 0.006105
 31 21.613554 5.850676 -6.561760 0.093036 -0.044159 -0.006944
 32 -0.490765 19.244427 -5.608505 0.134311 0.029272 -0.047530
 33 12.172542 -7.748505 -10.307114 0.065879 -0.045728 -0.004152
 34 -12.668403 -7.748505 -10.702667 0.043081 0.014174 -0.000196
 35 -0.490772 14.424882 -10.375069 0.125603 0.052807 0.000441
time 28
  0 0.768169 -0.850492 1.544617 0.000000 -0.000000 0.000000
  1 0.768169 -0.850492 1.544617 0.000000 -0.000000 0.000000
  2 0.984829 -7.246327 246.548599 0.000000 -0.000000 0.000000
  3 0.998367 -3.471023 1.599335 0.000000 -0.000000 0.000000
  4 0.998364 -3.471023 133.974091 -0.113247 -0.008345 -0.065651
  5 -11.802610 0.277821 -45.319954 0.653640 0.001483 -0.010639
  6 -0.797635 4.276024 -49.223648 0.399037 0.014241 -0.213457
  7 -0.000013 0.000000 -7.282917 0.000000 -0.000000 0.000000
  8 11.803283 0.236656 -45.319962 0.330344 -0.000890 0.005340
  9 0.812345 4.273225 -49.223583 0.477541 -0.081489 0.269758
 10 0.000004 -0.000002 -7.282925 0.000000 -0.000000 0.000000
 11 -0.009026 0.029713 10.838470 -0.005914 0.000039 0.296539
 12 -16.431322 3.246395 32.898773 0.080600 -0.106255 -0.350364
 13 -12.321598 -2.201924 -17.125488 -0.059446 -0.002673 0.043329
 14 -13.252193 -2.413301 -18.422272 0.000345 -0.003224 -0.000000
 15 -3.868652 -0.832964 -6.257858 0.000000 -0.000000 0.000000
 16 -37.279175 -5.051138 -38.191200 0.000000 -0.000000 0.000000
 17 -3.806095 -1.056417 -7.595871 0.000000 -0.000000 0.000000
 18 16.442675 3.189072 32.898773 0.083848 0.144928 -0.269786
 19 12.313796 -2.244885 -17.125641 0.000000 -0.000000 0.000000
 20 13.243652 -2.459521 -18.422241 0.000042 0.000387 -0.000021
 21 4.038900 -0.928110 -8.488235 0.000000 -0.000000 0.000000
 22 -0.000708 -0.454948 46.067245 0.022881 -0.010650 -0.244781
 23 -0.489975 22.757862 18.762009 0.002526 0.005087 -0.001637
 24 0.260441 -19.713428 -182.091049 0.000000 -0.000000 0.000000
 25 -16.518974 9.856473 11.602509 0.015964 0.007952 0.000517
 26 12.687093 8.730805 11.181000 0.019688 0.009083 0.003338
 27 -0.009705 -4.696531 26.700027 0.000000 -0.000000 0.000000
 28 -0.000046 -0.005970 23.601593 0.000000 -0.000000 0.000000
 29 -21.531246 -10.281178 -6.106491 0.085330 0.024918 0.007692
 30 6.667695 -19.285320 -6.979965 0.019132 0.004003 0.005946
 31 21.613558 5.850672 -6.561752 0.090082 -0.021393 -0.003429
 32 -0.490768 19.244429 -5.608498 0.108920 0.036833 -0.033311
 33 12.172544 -7.748507 -10.307098 0.069866 -0.022582 -0.002050
 34 -12.668404 -7.748505 -10.702652 0.061373 0.007000 -0.000081
 35 -0.490774 14.424885 -10.375053 0.105130 0.051170 -0.000742
time 29
  0 0.768169 -0.850492 1.544617 0.000000 -0.000000 0.000000
  1 0.768169 -0.850492 1.544617 0.000000 -0.000000 0.000000
  2 0.984829 -7.246327 246.548599 0.000000 -0.000000 0.000000
  3 0.998367 -3.471023 1.599335 0.000000 -0.000000 0.000000
  4 0.998364 -3.471023 134.540497 -0.110687 -0.008417 -0.065252
  5 -11.802609 0.277809 -45.319962 0.633024 0.001376 -0.010312
  6 -0.797621 4.276024 -49.223644 0.397523 0.013358 -0.212151
  7 -0.000011 0.000000 -7.282918 0.000000 -0.000000 0.000000
  8 11.803283 0.236656 -45.319962 0.330304 -0.000890 0.005339
  9 0.812355 4.273226 -49.223579 0.471131 -0.080019 0.268549
 10 0.000008 0.000000 -7.282921 0.000000 -0.000000 0.000000
 11 -0.008977 0.029728 10.838577 -0.001798 0.000015 0.294905
 12 -16.431324 3.246395 32.898788 0.077495 -0.098320 -0.350312
 13 -12.321602 -2.201932 -17.125488 -0.058481 -0.002651 0.042650
 14 -13.252201 -2.413309 -18.422256 0.000358 -0.003361 -0.000000
 15 -3.868652 -0.832970 -6.257874 0.000000 -0.000000 0.000000
 16 -37.279198 -5.051155 -38.191193 0.000000 -0.000000 0.000000
 17 -3.806095 -1.056423 -7.595886 0.000000 -0.000000 0.000000
 18 16.442680 3.189079 32.898788 0.078318 0.134513 -0.269749
 19 12.313798 -2.244882 -17.125671 0.000000 -0.000000 0.000000
 20 13.243656 -2.459518 -18.422256 0.000042 0.000387 -0.000020
 21 4.038902 -0.928110 -8.488235 0.000000 -0.000000 0.000000
 22 -0.000707 -0.454943 46.067276 0.007266 -0.013912 -0.244757
 23 -0.489966 22.757860 18.762009 0.000655 0.001319 -0.000425
 24 0.260431 -19.713457 -182.091049 0.000000 -0.000000 0.000000
 25 -16.518970 9.856463 11.602509 0.004140 0.002062 0.000134
 26 12.687096 8.730811 11.181000 0.005182 0.002391 0.000879
 27 -0.009707 -4.696529 26.700027 0.000000 -0.000000 0.000000
 28 -0.000045 -0.005966 23.601608 0.000000 -0.000000 0.000000
 29 -21.531244 -10.281185 -6.106491 0.085991 0.006762 0.003877
 30 6.667686 -19.285320 -6.979958 0.064541 0.007565 0.005731
 31 21.613560 5.850681 -6.561760 0.087992 -0.005790 -0.000943
 32 -0.490761 19.244431 -5.608498 0.091742 0.042181 -0.021548
 33 12.172540 -7.748503 -10.307106 0.076610 -0.006210 -0.000564
 34 -12.668406 -7.748508 -10.702652 0.076497 0.001925 -0.000019
 35 -0.490768 14.424884 -10.375053 0.090974 0.048978 -0.001579
time 30
  0 0.768169 -0.850492 1.544617 0.000000 -0.000000 0.000000
  1 0.768169 -0.850492 1.544617 0.000000 -0.000000 0.000000
  2 0.984829 -7.246327 246.548599 0.000000 -0.000000 0.000000
  3 0.998367 -3.471023 1.599335 0.000000 -0.000000 0.000000
  4 0.998364 -3.471023 134.780151 -0.107463 -0.008506 -0.064715
  5 -11.802608 0.277809 -45.319954 0.607630 0.001296 -0.009903
  6 -0.797625 4.276024 -49.223644 0.396967 0.012222 -0.211580
  7 -0.000010 0.000004 -7.282919 0.000000 -0.000000 0.000000
  8 11.803282 0.236652 -45.319954 0.330295 -0.000890 0.005339
  9 0.812353 4.273220 -49.223579 0.464045 -0.078406 0.268104
 10 0.000002 0.000000 -7.282921 0.000000 -0.000000 0.000000
 11 -0.008949 0.029736 10.838699 0.003489 -0.000004 0.294300
 12 -16.431324 3.246397 32.898788 0.073350 -0.088081 -0.350305
 13 -12.321596 -2.201932 -17.125488 -0.057883 -0.002638 0.042227
 14 -13.252197 -2.413309 -18.422272 0.000370 -0.003477 -0.000000
 15 -3.868654 -0.832966 -6.257843 0.000000 -0.000000 0.000000
 16 -37.279182 -5.051155 -38.191200 0.000000 -0.000000 0.000000
 17 -3.806089 -1.056423 -7.595856 0.000000 -0.000000 0.000000
 18 16.442677 3.189082 32.898773 0.071288 0.121104 -0.269742
 19 12.313803 -2.244885 -17.125641 0.000000 -0.000000 0.000000
 20 13.243654 -2.459520 -18.422256 0.000042 0.000387 -0.000021
 21 4.038898 -0.928111 -8.488220 0.000000 -0.000000 0.000000
 22 -0.000707 -0.454941 46.067261 -0.010624 -0.015147 -0.244752
 23 -0.489968 22.757860 18.762009 0.000000 -0.000000 0.000000
 24 0.260436 -19.713461 -182.091064 0.000000 -0.000000 0.000000
 25 -16.518967 9.856464 11.602509 0.000000 -0.000000 0.000000
 26 12.687092 8.730812 11.181000 0.000000 -0.000000 0.000000
 27 -0.009707 -4.696527 26.700012 0.000000 -0.000000 0.000000
 28 -0.000046 -0.005966 23.601608 0.000000 -0.000000 0.000000
 29 -21.531244 -10.281181 -6.106499 0.087200 -0.000000 0.000000
 30 6.667689 -19.285320 -6.979965 0.087229 0.010914 0.005440
 31 21.613556 5.850679 -6.561752 0.087200 -0.000000 0.000000
 32 -0.490763 19.244431 -5.608490 0.085427 0.044209 -0.013796
 33 12.172541 -7.748505 -10.307098 0.087200 -0.000000 0.000000
 34 -12.668404 -7.748508 -10.702644 0.087200 -0.000000 0.000000
 35 -0.490770 14.424885 -10.375046 0.085688 0.046152 -0.001897
end
