version 1
nodes
  0 "bone24"  -1
  1 "bone25"  -1
  2 "bone35"  -1
  3 "bone21"   2
  4 "bone20"   3
  5 "bone16"   4
  6 "bone17"   5
  7 "bone19"   6
  8 "bone26"   7
  9 "bone05"   4
 10 "bone22"   9
 11 "bone18"  10
 12 "bone27"  11
 13 "bone14"   4
 14 "bone12"  13
 15 "bone15"  14
 16 "bone02"   3
 17 "bone03"  16
 18 "bone09"  17
 19 "bone28"  17
 20 "bone01"  16
 21 "bone08"  20
 22 "bone11"  21
 23 "bone10"  22
 24 "bone29"  22
 25 "bone07"  16
 26 "bone04"  25
 27 "bone06"  26
 28 "bone13"  27
 29 "bone30"  28
 30 "bone31"  27
 31 "bone32"  16
 32 "bone33"   2
 33 "bone34"   2
end
skeleton
time 0
  0 -1.005915 2.634505 0.937462 0.000000 -0.000000 0.000000
  1 -1.005915 2.634505 0.937462 0.000000 -0.000000 0.000000
  2 -1.005915 2.634505 0.937462 0.000000 -0.000000 0.000000
  3 0.000000 0.798765 74.257698 0.017453 -0.000000 0.000000
  4 0.325039 0.314665 -2.968964 -0.052360 0.000000 0.000000
  5 6.206746 -0.124160 -11.733646 -0.606304 -0.119753 0.113058
  6 2.955698 1.729843 -23.848038 0.651736 0.022488 0.061322
  7 0.292417 0.418319 -30.938557 0.099954 -0.062994 -0.043396
  8 0.025498 -3.137414 -3.970852 0.000000 -0.000000 0.000000
  9 -6.833119 -0.124160 -11.733646 -0.024251 0.140499 -0.187517
 10 -3.240683 1.520660 -23.848042 0.767945 -0.000000 0.000000
 11 -0.355303 0.627466 -30.760891 -0.296706 0.000000 0.000000
 12 0.209675 -3.137413 -4.537352 0.000000 -0.000000 0.000000
 13 -0.336471 18.320860 -10.789921 0.157080 -0.000000 -0.000000
 14 0.011432 14.669046 -0.377853 -0.296707 -0.000000 0.000000
 15 0.210527 25.621651 6.087189 0.349066 0.000000 0.000000
 16 0.325039 0.314665 5.117516 -0.296617 -0.055029 -0.199427
 17 -0.409780 2.182663 26.434906 0.338783 0.012324 0.280882
 18 -2.968813 36.066563 32.693214 0.240593 0.003610 -0.042174
 19 -0.380098 -2.640915 16.751846 0.000000 -0.000000 0.000000
 20 7.187247 -0.460703 16.472290 -0.233362 -0.154832 0.309014
 21 12.896107 3.303360 -12.884911 -0.554064 -0.163431 -1.182623
 22 9.818138 -2.393091 -11.768444 -0.280533 0.016352 -0.156232
 23 11.684982 2.308931 -7.513313 -0.000000 -0.000000 0.000000
 24 3.667336 0.402559 -5.537415 0.000000 -0.000000 0.000000
 25 -8.155170 -0.644955 16.761322 -0.550301 0.443318 -1.113845
 26 -12.364456 3.544243 -13.402779 0.084819 0.476689 0.009933
 27 -10.403900 -2.206009 -11.274456 -1.383084 -0.855585 0.052537
 28 -3.567743 0.641571 -8.254745 0.014458 -0.004616 0.008585
 29 -16.089008 -105.559021 -25.635796 0.000000 -0.000000 0.000000
 30 -3.127523 0.571320 -6.062378 0.000000 -0.000000 0.000000
 31 -0.040495 -0.674469 8.862854 0.000000 -0.000000 0.000000
 32 0.289211 3.291785 167.749756 0.000000 -0.000000 0.000000
 33 0.000000 0.000000 0.000000 0.000000 -0.000000 0.000000
time 1
  0 -1.005915 2.634505 0.937462 0.000000 -0.000000 0.000000
  1 -1.005915 2.634505 0.937462 0.000000 -0.000000 0.000000
  2 -1.005915 2.634505 0.937462 0.000000 -0.000000 0.000000
  3 0.000000 0.313310 74.129944 0.019487 -0.001419 0.012321
  4 0.325039 0.314665 -2.968964 -0.052360 -0.000000 -0.000000
  5 6.206746 -0.124160 -11.733646 -0.595910 -0.127300 0.109554
  6 2.955697 1.729837 -23.848038 0.664969 0.016486 0.066549
  7 0.292417 0.418323 -30.938557 0.099954 -0.062994 -0.043396
  8 0.025497 -3.137412 -3.970851 0.000000 -0.000000 0.000000
  9 -6.833119 -0.124160 -11.733643 -0.041435 0.146105 -0.192200
 10 -3.240685 1.520660 -23.848038 0.773212 -0.011905 -0.005255
 11 -0.355305 0.627470 -30.760895 -0.289670 0.001827 -0.001638
 12 0.209673 -3.137409 -4.537352 0.000000 -0.000000 0.000000
 13 -0.336471 18.320862 -10.789917 0.175213 -0.000000 0.000000
 14 0.011432 14.669041 -0.377853 -0.283583 -0.000000 0.000000
 15 0.210528 25.621643 6.087189 0.365221 0.000000 0.000000
 16 0.325039 0.314665 5.117516 -0.277159 -0.051683 -0.239175
 17 -0.409780 2.182662 26.434906 0.338179 0.010714 0.310934
 18 -2.968808 36.066566 32.693214 0.240593 0.003610 -0.042174
 19 -0.380096 -2.640911 16.751846 0.000000 -0.000000 0.000000
 20 7.187247 -0.460705 16.472298 -0.253530 -0.159924 0.280727
 21 12.896103 3.303360 -12.884903 -0.551412 -0.163858 -1.178640
 22 9.818127 -2.393093 -11.768452 -0.280533 0.016352 -0.156232
 23 11.684982 2.308931 -7.513321 0.000000 -0.000000 0.000000
 24 3.667328 0.402563 -5.537418 0.000000 -0.000000 0.000000
 25 -8.155170 -0.644955 16.761322 -0.592998 0.435189 -1.130932
 26 -12.364450 3.544243 -13.402779 0.004551 0.444964 0.104587
 27 -10.403900 -2.206009 -11.274464 -1.273261 -0.803536 0.086967
 28 -3.567745 0.641571 -8.254751 0.021515 -0.065609 -0.017965
 29 -16.089031 -105.559059 -25.635792 0.000000 -0.000000 0.000000
 30 -3.127525 0.571327 -6.062376 0.000000 -0.000000 0.000000
 31 -0.040494 -0.674471 8.862862 0.000000 -0.000000 0.000000
 32 0.289211 3.291785 167.749756 0.000000 -0.000000 0.000000
 33 0.000000 0.000000 0.000000 0.000000 -0.000000 0.000000
time 2
  0 -1.005915 2.634505 0.937462 0.000000 -0.000000 0.000000
  1 -1.005915 2.634505 0.937462 0.000000 -0.000000 0.000000
  2 -1.005915 2.634505 0.937462 0.000000 -0.000000 0.000000
  3 0.000000 -1.026909 73.777260 0.025101 -0.005337 0.046337
  4 0.325039 0.314665 -2.968971 -0.052360 0.000000 0.000000
  5 6.206746 -0.124160 -11.733650 -0.567214 -0.148133 0.099880
  6 2.955698 1.729837 -23.848034 0.701504 -0.000083 0.080981
  7 0.292416 0.418323 -30.938557 0.099954 -0.062994 -0.043396
  8 0.025499 -3.137412 -3.970852 0.000000 -0.000000 0.000000
  9 -6.833120 -0.124160 -11.733650 -0.088878 0.161580 -0.205130
 10 -3.240686 1.520659 -23.848045 0.787754 -0.044773 -0.019761
 11 -0.355303 0.627466 -30.760895 -0.270245 0.006870 -0.006162
 12 0.209673 -3.137413 -4.537351 0.000000 -0.000000 0.000000
 13 -0.336471 18.320856 -10.789921 0.222992 -0.000000 0.000000
 14 0.011432 14.669041 -0.377850 -0.247875 -0.000000 -0.000000
 15 0.210527 25.621643 6.087189 0.409927 0.000000 0.000000
 16 0.325039 0.314665 5.117500 -0.229453 -0.043477 -0.336632
 17 -0.409779 2.182658 26.434914 0.336697 0.006764 0.384616
 18 -2.968808 36.066559 32.693199 0.240593 0.003610 -0.042174
 19 -0.380096 -2.640911 16.751846 0.000000 -0.000000 0.000000
 20 7.187248 -0.460706 16.472298 -0.302977 -0.172407 0.211374
 21 12.896097 3.303364 -12.884903 -0.543953 -0.165057 -1.167436
 22 9.818127 -2.393087 -11.768444 -0.280533 0.016352 -0.156232
 23 11.684982 2.308931 -7.513317 -0.000000 -0.000000 0.000000
 24 3.667336 0.402567 -5.537415 0.000000 -0.000000 0.000000
 25 -8.155170 -0.644956 16.761330 -0.697683 0.415260 -1.172825
 26 -12.364456 3.544243 -13.402786 -0.192250 0.367179 0.336662
 27 -10.403900 -2.206009 -11.274456 -1.003994 -0.675922 0.171384
 28 -3.567741 0.641579 -8.254750 0.038818 -0.215152 -0.083058
 29 -16.088989 -105.559059 -25.635777 0.000000 -0.000000 0.000000
 30 -3.127525 0.571335 -6.062375 0.000000 -0.000000 0.000000
 31 -0.040494 -0.674472 8.862862 0.000000 -0.000000 0.000000
 32 0.289211 3.291785 167.749756 0.000000 -0.000000 0.000000
 33 0.000000 0.000000 0.000000 0.000000 -0.000000 0.000000
time 3
  0 -1.005915 2.634505 0.937462 0.000000 -0.000000 0.000000
  1 -1.005915 2.634505 0.937462 0.000000 -0.000000 0.000000
  2 -1.005915 2.634505 0.937462 0.000000 -0.000000 0.000000
  3 0.000000 -3.047673 73.245476 0.033566 -0.011245 0.097625
  4 0.325039 0.314665 -2.968971 -0.052360 -0.000000 0.000000
  5 6.206746 -0.124160 -11.733646 -0.523948 -0.179545 0.085293
  6 2.955698 1.729836 -23.848040 0.756590 -0.025065 0.102741
  7 0.292418 0.418321 -30.938557 0.099954 -0.062994 -0.043396
  8 0.025497 -3.137413 -3.970851 0.000000 -0.000000 0.000000
  9 -6.833119 -0.124160 -11.733643 -0.160411 0.184912 -0.224624
 10 -3.240685 1.520659 -23.848038 0.809679 -0.094331 -0.041635
 11 -0.355301 0.627476 -30.760895 -0.240957 0.014475 -0.012982
 12 0.209675 -3.137413 -4.537350 0.000000 -0.000000 0.000000
 13 -0.336471 18.320858 -10.789917 0.290482 -0.000000 -0.000000
 14 0.011432 14.669044 -0.377853 -0.195079 -0.000000 -0.000000
 15 0.210528 25.621651 6.087196 0.477545 0.000000 0.000000
 16 0.325039 0.314665 5.117508 -0.169497 -0.033164 -0.459112
 17 -0.409779 2.182662 26.434914 0.334834 0.001801 0.477218
 18 -2.968810 36.066570 32.693199 0.240593 0.003610 -0.042174
 19 -0.380095 -2.640909 16.751854 0.000000 -0.000000 0.000000
 20 7.187247 -0.460704 16.472298 -0.365121 -0.188095 0.124212
 21 12.896103 3.303364 -12.884903 -0.532431 -0.166910 -1.150131
 22 9.818130 -2.393087 -11.768444 -0.280533 0.016352 -0.156232
 23 11.684982 2.308931 -7.513321 0.000000 -0.000000 0.000000
 24 3.667336 0.402565 -5.537415 0.000000 -0.000000 0.000000
 25 -8.155169 -0.644955 16.761330 -0.829247 0.390213 -1.225476
 26 -12.364450 3.544243 -13.402782 -0.439584 0.269421 0.628326
 27 -10.403900 -2.206013 -11.274455 -0.665588 -0.515541 0.277476
 28 -3.567734 0.641575 -8.254751 0.060563 -0.403094 -0.164866
 29 -16.088974 -105.559006 -25.635792 0.000000 -0.000000 0.000000
 30 -3.127518 0.571327 -6.062376 0.000000 -0.000000 0.000000
 31 -0.040495 -0.674470 8.862854 0.000000 -0.000000 0.000000
 32 0.289211 3.291785 167.749756 0.000000 -0.000000 0.000000
 33 0.000000 0.000000 0.000000 0.000000 -0.000000 0.000000
time 4
  0 -1.005915 2.634505 0.937462 0.000000 -0.000000 0.000000
  1 -1.005915 2.634505 0.937462 0.000000 -0.000000 0.000000
  2 -1.005915 2.634505 0.937462 0.000000 -0.000000 0.000000
  3 0.000000 -5.574761 72.580452 0.044152 -0.018633 0.161764
  4 0.325039 0.314666 -2.968956 -0.052360 0.000000 0.000000
  5 6.206747 -0.124161 -11.733643 -0.469841 -0.218827 0.067052
  6 2.955696 1.729839 -23.848042 0.825479 -0.056306 0.129953
  7 0.292416 0.418313 -30.938557 0.099954 -0.062994 -0.043396
  8 0.025497 -3.137413 -3.970852 0.000000 -0.000000 0.000000
  9 -6.833120 -0.124160 -11.733646 -0.249868 0.214091 -0.249004
 10 -3.240685 1.520660 -23.848040 0.837098 -0.156306 -0.068989
 11 -0.355296 0.627468 -30.760895 -0.204330 0.023985 -0.021511
 12 0.209674 -3.137414 -4.537351 0.000000 -0.000000 0.000000
 13 -0.336472 18.320858 -10.789909 0.367751 -0.000000 -0.000000
 14 0.011432 14.669044 -0.377857 -0.130691 -0.000000 -0.000000
 15 0.210527 25.621655 6.087185 0.562434 0.000000 -0.000000
 16 0.325039 0.314665 5.117508 -0.113291 -0.023497 -0.573932
 17 -0.409779 2.182660 26.434921 0.333089 -0.002852 0.564029
 18 -2.968813 36.066566 32.693214 0.240593 0.003610 -0.042174
 19 -0.380092 -2.640909 16.751854 0.000000 -0.000000 0.000000
 20 7.187249 -0.460705 16.472298 -0.423378 -0.202803 0.042502
 21 12.896111 3.303360 -12.884911 -0.517592 -0.169297 -1.127843
 22 9.818138 -2.393091 -11.768444 -0.280533 0.016352 -0.156232
 23 11.684982 2.308929 -7.513313 -0.000000 -0.000000 0.000000
 24 3.667328 0.402561 -5.537411 0.000000 -0.000000 0.000000
 25 -8.155172 -0.644957 16.761330 -0.952584 0.366733 -1.274834
 26 -12.364454 3.544235 -13.402786 -0.671449 0.177778 0.901749
 27 -10.403893 -2.206009 -11.274462 -0.348347 -0.365190 0.376933
 28 -3.567749 0.641575 -8.254749 0.080948 -0.579281 -0.241558
 29 -16.089005 -105.559036 -25.635822 0.000000 -0.000000 0.000000
 30 -3.127525 0.571331 -6.062380 0.000000 -0.000000 0.000000
 31 -0.040494 -0.674471 8.862862 0.000000 -0.000000 0.000000
 32 0.289211 3.291785 167.749756 0.000000 -0.000000 0.000000
 33 0.000000 0.000000 0.000000 0.000000 -0.000000 0.000000
time 5
  0 -1.005915 2.634505 0.937462 0.000000 -0.000000 0.000000
  1 -1.005915 2.634505 0.937462 0.000000 -0.000000 0.000000
  2 -1.005915 2.634505 0.937462 0.000000 -0.000000 0.000000
  3 0.000000 -8.433956 71.828033 0.056129 -0.026992 0.234332
  4 0.325039 0.314666 -2.968971 -0.052360 0.000000 -0.000000
  5 6.206747 -0.124161 -11.733654 -0.408623 -0.263272 0.046414
  6 2.955698 1.729841 -23.848038 0.903421 -0.091653 0.160741
  7 0.292418 0.418314 -30.938560 0.099954 -0.062994 -0.043396
  8 0.025494 -3.137413 -3.970852 0.000000 -0.000000 0.000000
  9 -6.833119 -0.124160 -11.733654 -0.351081 0.247105 -0.276587
 10 -3.240685 1.520664 -23.848047 0.868120 -0.226425 -0.099937
 11 -0.355297 0.627468 -30.760897 -0.162889 0.034744 -0.031161
 12 0.209675 -3.137414 -4.537352 0.000000 -0.000000 0.000000
 13 -0.336471 18.320858 -10.789921 0.444865 -0.000000 -0.000000
 14 0.011432 14.669044 -0.377853 -0.060206 -0.000000 -0.000000
 15 0.210527 25.621643 6.087189 0.658955 0.000000 -0.000000
 16 0.325039 0.314666 5.117508 -0.076834 -0.017226 -0.648407
 17 -0.409780 2.182662 26.434914 0.331956 -0.005870 0.620336
 18 -2.968813 36.066559 32.693199 0.240593 0.003610 -0.042174
 19 -0.380093 -2.640913 16.751846 0.000000 -0.000000 0.000000
 20 7.187247 -0.460703 16.472298 -0.461166 -0.212342 -0.010497
 21 12.896103 3.303360 -12.884903 -0.500181 -0.172097 -1.101691
 22 9.818130 -2.393089 -11.768440 -0.280533 0.016352 -0.156232
 23 11.684982 2.308937 -7.513317 0.000000 -0.000000 0.000000
 24 3.667343 0.402565 -5.537411 0.000000 -0.000000 0.000000
 25 -8.155171 -0.644955 16.761330 -1.032583 0.351503 -1.306849
 26 -12.364454 3.544243 -13.402784 -0.821844 0.118335 1.079098
 27 -10.403893 -2.206011 -11.274458 -0.142576 -0.267668 0.441444
 28 -3.567749 0.641571 -8.254749 0.094170 -0.693561 -0.291302
 29 -16.088974 -105.559036 -25.635792 0.000000 -0.000000 0.000000
 30 -3.127533 0.571329 -6.062376 0.000000 -0.000000 0.000000
 31 -0.040494 -0.674470 8.862869 0.000000 -0.000000 0.000000
 32 0.289211 3.291785 167.749756 0.000000 -0.000000 0.000000
 33 0.000000 0.000000 0.000000 0.000000 -0.000000 0.000000
time 6
  0 -1.005915 2.634505 0.937462 0.000000 -0.000000 0.000000
  1 -1.005915 2.634505 0.937462 0.000000 -0.000000 0.000000
  2 -1.005915 2.634505 0.937462 0.000000 -0.000000 0.000000
  3 0.000000 -11.451038 71.034065 0.068768 -0.035812 0.310907
  4 0.325039 0.314665 -2.968971 -0.052360 0.000000 -0.000000
  5 6.206747 -0.124161 -11.733643 -0.344024 -0.310171 0.024635
  6 2.955702 1.729836 -23.848038 0.985667 -0.128953 0.193229
  7 0.292412 0.418309 -30.938551 0.099954 -0.062994 -0.043396
  8 0.025497 -3.137415 -3.970851 0.000000 -0.000000 0.000000
  9 -6.833119 -0.124159 -11.733650 -0.457883 0.281942 -0.305694
 10 -3.240685 1.520660 -23.848038 0.900855 -0.300417 -0.132595
 11 -0.355296 0.627473 -30.760895 -0.119160 0.046098 -0.041345
 12 0.209676 -3.137414 -4.537350 0.000000 -0.000000 0.000000
 13 -0.336472 18.320858 -10.789917 0.511889 -0.000000 0.000000
 14 0.011433 14.669048 -0.377857 0.010881 -0.000000 -0.000000
 15 0.210527 25.621651 6.087189 0.761468 0.000000 -0.000000
 16 0.325039 0.314665 5.117508 -0.070990 -0.016221 -0.660346
 17 -0.409779 2.182661 26.434906 0.331775 -0.006353 0.629362
 18 -2.968806 36.066559 32.693199 0.240593 0.003610 -0.042174
 19 -0.380092 -2.640911 16.751846 0.000000 -0.000000 0.000000
 20 7.187247 -0.460706 16.472290 -0.467223 -0.213872 -0.018993
 21 12.896105 3.303360 -12.884907 -0.480941 -0.175191 -1.072794
 22 9.818130 -2.393087 -11.768440 -0.280533 0.016352 -0.156232
 23 11.684975 2.308931 -7.513313 0.000000 -0.000000 0.000000
 24 3.667328 0.402561 -5.537415 0.000000 -0.000000 0.000000
 25 -8.155170 -0.644955 16.761314 -1.045407 0.349062 -1.311981
 26 -12.364450 3.544243 -13.402784 -0.845953 0.108807 1.107528
 27 -10.403893 -2.206006 -11.274458 -0.109590 -0.252035 0.451785
 28 -3.567749 0.641571 -8.254744 0.096290 -0.711880 -0.299276
 29 -16.088997 -105.559021 -25.635826 0.000000 -0.000000 0.000000
 30 -3.127533 0.571327 -6.062372 0.000000 -0.000000 0.000000
 31 -0.040494 -0.674471 8.862854 0.000000 -0.000000 0.000000
 32 0.289211 3.291785 167.749756 0.000000 -0.000000 0.000000
 33 0.000000 0.000000 0.000000 0.000000 -0.000000 0.000000
time 7
  0 -1.005915 2.634505 0.937462 0.000000 -0.000000 0.000000
  1 -1.005915 2.634505 0.937462 0.000000 -0.000000 0.000000
  2 -1.005915 2.634505 0.937462 0.000000 -0.000000 0.000000
  3 0.000000 -14.451784 70.244392 0.081338 -0.044585 0.387067
  4 0.325039 0.314664 -2.968956 -0.052360 0.000000 0.000000
  5 6.206746 -0.124160 -11.733650 -0.279776 -0.356816 0.002975
  6 2.955698 1.729837 -23.848042 1.067468 -0.166050 0.225541
  7 0.292404 0.418304 -30.938560 0.099954 -0.062994 -0.043396
  8 0.025497 -3.137415 -3.970854 0.000000 -0.000000 0.000000
  9 -6.833119 -0.124160 -11.733654 -0.564107 0.316590 -0.334643
 10 -3.240685 1.520664 -23.848042 0.933413 -0.374008 -0.165076
 11 -0.355295 0.627468 -30.760895 -0.075667 0.057390 -0.051472
 12 0.209675 -3.137413 -4.537352 0.000000 -0.000000 0.000000
 13 -0.336471 18.320858 -10.789925 0.558892 -0.000000 -0.000000
 14 0.011432 14.669044 -0.377853 0.077072 -0.000000 -0.000000
 15 0.210527 25.621655 6.087193 0.864334 0.000000 -0.000000
 16 0.325040 0.314665 5.117516 -0.070990 -0.016221 -0.660346
 17 -0.409779 2.182660 26.434906 0.331775 -0.006353 0.629362
 18 -2.968812 36.066566 32.693214 0.240593 0.003610 -0.042174
 19 -0.380093 -2.640911 16.751846 0.000000 -0.000000 0.000000
 20 7.187248 -0.460704 16.472290 -0.467223 -0.213871 -0.018993
 21 12.896107 3.303364 -12.884903 -0.460620 -0.178459 -1.042272
 22 9.818130 -2.393087 -11.768444 -0.280533 0.016352 -0.156232
 23 11.684982 2.308933 -7.513309 0.000000 -0.000000 0.000000
 24 3.667336 0.402565 -5.537415 0.000000 -0.000000 0.000000
 25 -8.155170 -0.644956 16.761322 -1.045407 0.349062 -1.311981
 26 -12.364452 3.544243 -13.402782 -0.845952 0.108806 1.107528
 27 -10.403893 -2.206011 -11.274455 -0.109590 -0.252035 0.451785
 28 -3.567749 0.641573 -8.254744 0.096290 -0.711880 -0.299276
 29 -16.088982 -105.559029 -25.635803 0.000000 -0.000000 0.000000
 30 -3.127518 0.571331 -6.062372 0.000000 -0.000000 0.000000
 31 -0.040495 -0.674470 8.862854 0.000000 -0.000000 0.000000
 32 0.289211 3.291785 167.749756 0.000000 -0.000000 0.000000
 33 0.000000 0.000000 0.000000 0.000000 -0.000000 0.000000
time 8
  0 -1.005915 2.634505 0.937462 0.000000 -0.000000 0.000000
  1 -1.005915 2.634505 0.937462 0.000000 -0.000000 0.000000
  2 -1.005915 2.634505 0.937462 0.000000 -0.000000 0.000000
  3 0.000000 -17.261978 69.504868 0.093110 -0.052800 0.458392
  4 0.325039 0.314664 -2.968964 -0.052360 0.000000 0.000000
  5 6.206746 -0.124160 -11.733643 -0.219607 -0.400500 -0.017310
  6 2.955698 1.729843 -23.848042 1.144074 -0.200791 0.255802
  7 0.292412 0.418298 -30.938553 0.099954 -0.062994 -0.043396
  8 0.025496 -3.137416 -3.970853 0.000000 -0.000000 0.000000
  9 -6.833120 -0.124159 -11.733643 -0.663586 0.349038 -0.361754
 10 -3.240688 1.520657 -23.848038 0.963903 -0.442926 -0.195494
 11 -0.355291 0.627469 -30.760895 -0.034937 0.067965 -0.060957
 12 0.209675 -3.137413 -4.537352 0.000000 -0.000000 0.000000
 13 -0.336471 18.320858 -10.789913 0.575957 -0.000000 -0.000000
 14 0.011431 14.669044 -0.377850 0.132874 -0.000000 -0.000000
 15 0.210525 25.621651 6.087193 0.961912 0.000000 -0.000000
 16 0.325039 0.314665 5.117516 -0.070990 -0.016221 -0.660346
 17 -0.409779 2.182660 26.434914 0.331775 -0.006353 0.629362
 18 -2.968812 36.066566 32.693207 0.240593 0.003610 -0.042174
 19 -0.380094 -2.640913 16.751854 0.000000 -0.000000 0.000000
 20 7.187247 -0.460705 16.472290 -0.467223 -0.213871 -0.018993
 21 12.896103 3.303364 -12.884903 -0.439961 -0.181781 -1.011243
 22 9.818130 -2.393089 -11.768440 -0.280533 0.016352 -0.156232
 23 11.684975 2.308933 -7.513315 0.000000 -0.000000 0.000000
 24 3.667336 0.402559 -5.537411 0.000000 -0.000000 0.000000
 25 -8.155170 -0.644957 16.761314 -1.045407 0.349062 -1.311981
 26 -12.364445 3.544235 -13.402781 -0.845953 0.108807 1.107528
 27 -10.403893 -2.206011 -11.274456 -0.109590 -0.252035 0.451785
 28 -3.567741 0.641569 -8.254749 0.096290 -0.711880 -0.299276
 29 -16.089005 -105.559013 -25.635818 0.000000 -0.000000 0.000000
 30 -3.127518 0.571327 -6.062374 0.000000 -0.000000 0.000000
 31 -0.040494 -0.674472 8.862854 0.000000 -0.000000 0.000000
 32 0.289211 3.291785 167.749756 0.000000 -0.000000 0.000000
 33 0.000000 0.000000 0.000000 0.000000 -0.000000 0.000000
time 9
  0 -1.005915 2.634505 0.937462 0.000000 -0.000000 0.000000
  1 -1.005915 2.634505 0.937462 0.000000 -0.000000 0.000000
  2 -1.005915 2.634505 0.937462 0.000000 -0.000000 0.000000
  3 0.000000 -19.707403 68.861336 0.103354 -0.059949 0.520458
  4 0.325040 0.314666 -2.968964 -0.052360 0.000000 0.000000
  5 6.206746 -0.124160 -11.733646 -0.167248 -0.438513 -0.034961
  6 2.955696 1.729841 -23.848040 1.210737 -0.231023 0.282134
  7 0.292416 0.418299 -30.938557 0.099954 -0.062994 -0.043397
  8 0.025499 -3.137415 -3.970851 0.000000 -0.000000 0.000000
  9 -6.833118 -0.124160 -11.733646 -0.750152 0.377274 -0.385346
 10 -3.240685 1.520664 -23.848042 0.990436 -0.502898 -0.221964
 11 -0.355293 0.627466 -30.760904 0.000507 0.077168 -0.069211
 12 0.209675 -3.137415 -4.537352 0.000000 -0.000000 0.000000
 13 -0.336471 18.320858 -10.789917 0.574176 -0.000000 -0.000000
 14 0.011434 14.669048 -0.377853 0.172789 -0.000000 -0.000000
 15 0.210526 25.621647 6.087189 1.048564 0.000000 -0.000000
 16 0.325039 0.314666 5.117508 -0.071073 -0.016202 -0.657251
 17 -0.409779 2.182665 26.434914 0.331765 -0.006124 0.626473
 18 -2.968811 36.066559 32.693214 0.240593 0.003610 -0.042174
 19 -0.380094 -2.640915 16.751846 0.000000 -0.000000 0.000000
 20 7.187249 -0.460702 16.472298 -0.467243 -0.214086 -0.015505
 21 12.896103 3.303364 -12.884899 -0.419709 -0.185038 -0.980825
 22 9.818130 -2.393088 -11.768448 -0.280533 0.016352 -0.156232
 23 11.684982 2.308937 -7.513317 -0.000000 -0.000000 0.000000
 24 3.667336 0.402565 -5.537411 0.000000 -0.000000 0.000000
 25 -8.155170 -0.644954 16.761322 -1.041431 0.350725 -1.305302
 26 -12.364449 3.544235 -13.402782 -0.843269 0.108486 1.104027
 27 -10.403893 -2.206009 -11.274460 -0.107674 -0.250395 0.447643
 28 -3.567749 0.641575 -8.254753 0.096287 -0.711853 -0.299264
 29 -16.088989 -105.559021 -25.635830 0.000000 -0.000000 0.000000
 30 -3.127533 0.571327 -6.062378 0.000000 -0.000000 0.000000
 31 -0.040495 -0.674467 8.862854 0.000000 -0.000000 0.000000
 32 0.289211 3.291785 167.749756 0.000000 -0.000000 0.000000
 33 0.000000 0.000000 0.000000 0.000000 -0.000000 0.000000
time 10
  0 -1.005915 2.634505 0.937462 0.000000 -0.000000 0.000000
  1 -1.005915 2.634505 0.937462 0.000000 -0.000000 0.000000
  2 -1.005915 2.634505 0.937462 0.000000 -0.000000 0.000000
  3 0.000000 -21.613834 68.359642 0.111340 -0.065523 0.568844
  4 0.325039 0.314665 -2.968964 -0.052360 -0.000000 -0.000000
  5 6.206746 -0.124160 -11.733646 -0.126430 -0.468147 -0.048722
  6 2.955696 1.729840 -23.848034 1.262707 -0.254592 0.302663
  7 0.292406 0.418298 -30.938549 0.099954 -0.062994 -0.043396
  8 0.025496 -3.137416 -3.970852 0.000000 -0.000000 0.000000
  9 -6.833119 -0.124161 -11.733643 -0.817638 0.399286 -0.403738
 10 -3.240685 1.520660 -23.848036 1.011121 -0.549652 -0.242600
 11 -0.355291 0.627472 -30.760906 0.028138 0.084342 -0.075645
 12 0.209675 -3.137413 -4.537351 0.000000 -0.000000 0.000000
 13 -0.336473 18.320860 -10.789913 0.569218 -0.000000 -0.000000
 14 0.011433 14.669048 -0.377850 0.191323 -0.000000 -0.000000
 15 0.210529 25.621643 6.087189 1.118649 0.000000 -0.000000
 16 0.325039 0.314666 5.117500 -0.079641 -0.014267 -0.337872
 17 -0.409779 2.182666 26.434914 0.330779 0.017497 0.328334
 18 -2.968809 36.066559 32.693192 0.240593 0.003610 -0.042174
 19 -0.380093 -2.640917 16.751839 0.000000 -0.000000 0.000000
 20 7.187247 -0.460701 16.472305 -0.469326 -0.236216 0.344556
 21 12.896101 3.303364 -12.884903 -0.400610 -0.188110 -0.952138
 22 9.818130 -2.393095 -11.768442 -0.280533 0.016352 -0.156232
 23 11.684990 2.308929 -7.513317 0.000000 -0.000000 0.000000
 24 3.667343 0.402563 -5.537418 0.000000 -0.000000 0.000000
 25 -8.155170 -0.644955 16.761330 -0.631029 0.522368 -0.616014
 26 -12.364449 3.544243 -13.402779 -0.566345 0.075459 0.742629
 27 -10.403885 -2.206013 -11.274458 0.090097 -0.081091 0.020181
 28 -3.567749 0.641575 -8.254745 0.095871 -0.708257 -0.297699
 29 -16.089001 -105.559052 -25.635830 0.000000 -0.000000 0.000000
 30 -3.127525 0.571329 -6.062370 0.000000 -0.000000 0.000000
 31 -0.040495 -0.674469 8.862862 0.000000 -0.000000 0.000000
 32 0.289211 3.291785 167.749756 0.000000 -0.000000 0.000000
 33 0.000000 0.000000 0.000000 0.000000 -0.000000 0.000000
time 11
  0 -1.005915 2.634505 0.937462 0.000000 -0.000000 0.000000
  1 -1.005915 2.634505 0.937462 0.000000 -0.000000 0.000000
  2 -1.005915 2.634505 0.937462 0.000000 -0.000000 0.000000
  3 0.000000 -22.807056 68.045639 0.116338 -0.069011 0.599129
  4 0.325039 0.314664 -2.968964 -0.052360 0.000000 -0.000000
  5 6.206746 -0.124161 -11.733646 -0.100882 -0.486696 -0.057335
  6 2.955698 1.729836 -23.848042 1.295234 -0.269343 0.315511
  7 0.292406 0.418303 -30.938549 0.099954 -0.062994 -0.043396
  8 0.025497 -3.137417 -3.970853 0.000000 -0.000000 0.000000
  9 -6.833120 -0.124162 -11.733643 -0.859877 0.413064 -0.415249
 10 -3.240685 1.520660 -23.848036 1.024067 -0.578915 -0.255515
 11 -0.355288 0.627474 -30.760895 0.045432 0.088832 -0.079672
 12 0.209675 -3.137411 -4.537351 0.000000 -0.000000 0.000000
 13 -0.336470 18.320860 -10.789917 0.561338 -0.000000 0.000000
 14 0.011433 14.669048 -0.377850 0.190559 -0.000000 -0.000000
 15 0.210530 25.621639 6.087185 1.166528 0.000000 -0.000000
 16 0.325038 0.314663 5.117516 -0.092983 -0.011254 0.159495
 17 -0.409781 2.182661 26.434906 0.329242 0.054283 -0.135957
 18 -2.968815 36.066563 32.693199 0.240593 0.003610 -0.042174
 19 -0.380095 -2.640919 16.751846 0.000000 -0.000000 0.000000
 20 7.187248 -0.460705 16.472290 -0.472570 -0.270680 0.905277
 21 12.896105 3.303360 -12.884903 -0.383407 -0.190876 -0.926301
 22 9.818146 -2.393091 -11.768456 -0.280533 0.016352 -0.156232
 23 11.684990 2.308935 -7.513323 0.000000 -0.000000 0.000000
 24 3.667336 0.402561 -5.537411 0.000000 -0.000000 0.000000
 25 -8.155172 -0.644955 16.761322 0.008088 0.789667 0.457410
 26 -12.364456 3.544242 -13.402786 -0.135092 0.024025 0.179825
 27 -10.403900 -2.206011 -11.274460 0.398085 0.182565 -0.645503
 28 -3.567734 0.641579 -8.254757 0.094794 -0.698950 -0.293648
 29 -16.088978 -105.559013 -25.635788 0.000000 -0.000000 0.000000
 30 -3.127518 0.571339 -6.062378 0.000000 -0.000000 0.000000
 31 -0.040495 -0.674471 8.862854 0.000000 -0.000000 0.000000
 32 0.289211 3.291785 167.749756 0.000000 -0.000000 0.000000
 33 0.000000 0.000000 0.000000 0.000000 -0.000000 0.000000
time 12
  0 -1.005915 2.634505 0.937462 0.000000 -0.000000 0.000000
  1 -1.005915 2.634505 0.937462 0.000000 -0.000000 0.000000
  2 -1.005915 2.634505 0.937462 0.000000 -0.000000 0.000000
  3 0.000000 -23.131126 67.960358 0.117696 -0.069959 0.607354
  4 0.325039 0.314665 -2.968956 -0.052360 -0.000000 0.000000
  5 6.206746 -0.124160 -11.733650 -0.093943 -0.491733 -0.059675
  6 2.955698 1.729840 -23.848036 1.304068 -0.273350 0.319001
  7 0.292410 0.418301 -30.938549 0.099954 -0.062994 -0.043396
  8 0.025497 -3.137417 -3.970855 0.000000 -0.000000 0.000000
  9 -6.833120 -0.124161 -11.733650 -0.871349 0.416806 -0.418375
 10 -3.240685 1.520660 -23.848038 1.027583 -0.586863 -0.259023
 11 -0.355288 0.627464 -30.760899 0.050129 0.090052 -0.080766
 12 0.209679 -3.137413 -4.537352 0.000000 -0.000000 0.000000
 13 -0.336473 18.320858 -10.789925 0.550789 -0.000000 -0.000000
 14 0.011432 14.669041 -0.377853 0.184773 -0.000000 -0.000000
 15 0.210528 25.621647 6.087189 1.186560 0.000000 -0.000000
 16 0.325038 0.314666 5.117508 -0.098168 -0.010083 0.352774
 17 -0.409780 2.182661 26.434906 0.328645 0.068578 -0.316382
 18 -2.968807 36.066566 32.693230 0.240593 0.003610 -0.042174
 19 -0.380094 -2.640913 16.751854 0.000000 -0.000000 0.000000
 20 7.187246 -0.460704 16.472298 -0.473831 -0.284072 1.123175
 21 12.896099 3.303356 -12.884895 -0.368848 -0.193218 -0.904433
 22 9.818138 -2.393089 -11.768444 -0.280533 0.016352 -0.156232
 23 11.684990 2.308935 -7.513317 0.000000 -0.000000 0.000000
 24 3.667336 0.402565 -5.537411 0.000000 -0.000000 0.000000
 25 -8.155172 -0.644955 16.761330 0.256452 0.893541 0.874547
 26 -12.364456 3.544243 -13.402779 0.032495 0.004038 -0.038882
 27 -10.403908 -2.206008 -11.274460 0.517770 0.285023 -0.904191
 28 -3.567749 0.641579 -8.254749 0.093112 -0.684412 -0.287320
 29 -16.089008 -105.559059 -25.635780 0.000000 -0.000000 0.000000
 30 -3.127525 0.571335 -6.062374 0.000000 -0.000000 0.000000
 31 -0.040496 -0.674470 8.862862 0.000000 -0.000000 0.000000
 32 0.289211 3.291785 167.749756 0.000000 -0.000000 0.000000
 33 0.000000 0.000000 0.000000 0.000000 -0.000000 0.000000
time 13
  0 -1.005915 2.634505 0.937462 0.000000 -0.000000 0.000000
  1 -1.005915 2.634505 0.937462 0.000000 -0.000000 0.000000
  2 -1.005915 2.634505 0.937462 0.000000 -0.000000 0.000000
  3 0.000000 -23.131126 67.960358 0.117696 -0.069959 0.607354
  4 0.325039 0.314665 -2.968956 -0.052360 -0.000000 0.000000
  5 6.206746 -0.124160 -11.733650 -0.093943 -0.491733 -0.059675
  6 2.955698 1.729836 -23.848040 1.304068 -0.273350 0.319001
  7 0.292404 0.418301 -30.938547 0.099954 -0.062994 -0.043397
  8 0.025497 -3.137416 -3.970852 0.000000 -0.000000 0.000000
  9 -6.833120 -0.124161 -11.733650 -0.871349 0.416806 -0.418375
 10 -3.240685 1.520660 -23.848036 1.027583 -0.586863 -0.259023
 11 -0.355291 0.627468 -30.760902 0.050129 0.090052 -0.080766
 12 0.209675 -3.137415 -4.537352 0.000000 -0.000000 0.000000
 13 -0.336473 18.320858 -10.789925 0.537827 -0.000000 -0.000000
 14 0.011431 14.669041 -0.377853 0.174900 -0.000000 -0.000000
 15 0.210526 25.621651 6.087193 1.183242 0.000000 -0.000000
 16 0.325038 0.314666 5.117508 -0.098168 -0.010083 0.352774
 17 -0.409780 2.182661 26.434906 0.328645 0.068578 -0.316382
 18 -2.968812 36.066566 32.693222 0.240593 0.003610 -0.042174
 19 -0.380092 -2.640913 16.751846 0.000000 -0.000000 0.000000
 20 7.187246 -0.460704 16.472290 -0.473831 -0.284072 1.123175
 21 12.896100 3.303364 -12.884903 -0.357675 -0.195014 -0.887652
 22 9.818130 -2.393085 -11.768440 -0.280533 0.016352 -0.156232
 23 11.684982 2.308933 -7.513317 0.000000 -0.000000 0.000000
 24 3.667336 0.402561 -5.537413 0.000000 -0.000000 0.000000
 25 -8.155169 -0.644955 16.761322 0.256452 0.893541 0.874547
 26 -12.364449 3.544239 -13.402779 0.032495 0.004038 -0.038882
 27 -10.403900 -2.206012 -11.274452 0.517770 0.285023 -0.904191
 28 -3.567741 0.641571 -8.254753 0.090879 -0.665118 -0.278922
 29 -16.088959 -105.559029 -25.635765 0.000000 -0.000000 0.000000
 30 -3.127525 0.571327 -6.062378 0.000000 -0.000000 0.000000
 31 -0.040495 -0.674470 8.862854 0.000000 -0.000000 0.000000
 32 0.289211 3.291785 167.749756 0.000000 -0.000000 0.000000
 33 0.000000 0.000000 0.000000 0.000000 -0.000000 0.000000
time 14
  0 -1.005915 2.634505 0.937462 0.000000 -0.000000 0.000000
  1 -1.005915 2.634505 0.937462 0.000000 -0.000000 0.000000
  2 -1.005915 2.634505 0.937462 0.000000 -0.000000 0.000000
  3 0.000000 -23.131126 67.960358 0.117696 -0.069959 0.607354
  4 0.325039 0.314665 -2.968956 -0.052360 -0.000000 0.000000
  5 6.206746 -0.124160 -11.733650 -0.093943 -0.491733 -0.059675
  6 2.955696 1.729846 -23.848038 1.304068 -0.273350 0.319001
  7 0.292404 0.418294 -30.938549 0.099954 -0.062994 -0.043397
  8 0.025497 -3.137416 -3.970855 0.000000 -0.000000 0.000000
  9 -6.833120 -0.124161 -11.733650 -0.871349 0.416806 -0.418375
 10 -3.240681 1.520668 -23.848036 1.027583 -0.586863 -0.259023
 11 -0.355291 0.627464 -30.760899 0.050129 0.090052 -0.080766
 12 0.209677 -3.137413 -4.537352 0.000000 -0.000000 0.000000
 13 -0.336473 18.320858 -10.789925 0.522705 -0.000000 0.000000
 14 0.011431 14.669041 -0.377857 0.161324 -0.000000 -0.000000
 15 0.210524 25.621662 6.087193 1.170863 0.000000 -0.000000
 16 0.325038 0.314666 5.117508 -0.098168 -0.010083 0.352774
 17 -0.409781 2.182662 26.434906 0.328645 0.068578 -0.316382
 18 -2.968807 36.066559 32.693214 0.240593 0.003610 -0.042174
 19 -0.380095 -2.640911 16.751854 0.000000 -0.000000 0.000000
 20 7.187248 -0.460703 16.472298 -0.473831 -0.284072 1.123175
 21 12.896101 3.303364 -12.884911 -0.350635 -0.196147 -0.877078
 22 9.818138 -2.393091 -11.768444 -0.280533 0.016352 -0.156232
 23 11.684982 2.308931 -7.513325 0.000000 -0.000000 0.000000
 24 3.667336 0.402559 -5.537418 0.000000 -0.000000 0.000000
 25 -8.155169 -0.644954 16.761330 0.256452 0.893541 0.874547
 26 -12.364456 3.544241 -13.402775 0.032495 0.004038 -0.038882
 27 -10.403900 -2.206008 -11.274460 0.517770 0.285023 -0.904191
 28 -3.567741 0.641579 -8.254745 0.088152 -0.641548 -0.268662
 29 -16.089008 -105.559036 -25.635803 0.000000 -0.000000 0.000000
 30 -3.127525 0.571327 -6.062374 0.000000 -0.000000 0.000000
 31 -0.040494 -0.674470 8.862862 0.000000 -0.000000 0.000000
 32 0.289211 3.291785 167.749756 0.000000 -0.000000 0.000000
 33 0.000000 0.000000 0.000000 0.000000 -0.000000 0.000000
time 15
  0 -1.005915 2.634505 0.937462 0.000000 -0.000000 0.000000
  1 -1.005915 2.634505 0.937462 0.000000 -0.000000 0.000000
  2 -1.005915 2.634505 0.937462 0.000000 -0.000000 0.000000
  3 0.000000 -23.129568 67.960770 0.117689 -0.069954 0.607314
  4 0.325039 0.314665 -2.968964 -0.052360 0.000000 0.000000
  5 6.206747 -0.124160 -11.733646 -0.093976 -0.491709 -0.059663
  6 2.955694 1.729840 -23.848034 1.304026 -0.273330 0.318987
  7 0.292406 0.418301 -30.938553 0.099954 -0.062994 -0.043396
  8 0.025496 -3.137414 -3.970853 0.000000 -0.000000 0.000000
  9 -6.833117 -0.124159 -11.733650 -0.871294 0.416789 -0.418360
 10 -3.240685 1.520657 -23.848038 1.027566 -0.586824 -0.259006
 11 -0.355291 0.627468 -30.760899 0.050107 0.090046 -0.080761
 12 0.209675 -3.137415 -4.537350 0.000000 -0.000000 0.000000
 13 -0.336473 18.320858 -10.789921 0.505679 -0.000000 -0.000000
 14 0.011430 14.669041 -0.377850 0.144430 -0.000000 -0.000000
 15 0.210526 25.621655 6.087189 1.150452 0.000000 -0.000000
 16 0.325040 0.314666 5.117508 -0.098181 -0.010086 0.352738
 17 -0.409781 2.182662 26.434914 0.328646 0.068575 -0.316343
 18 -2.968802 36.066559 32.693199 0.240593 0.003610 -0.042174
 19 -0.380094 -2.640913 16.751839 0.000000 -0.000000 0.000000
 20 7.187247 -0.460704 16.472290 -0.473819 -0.284065 1.123132
 21 12.896102 3.303360 -12.884903 -0.348461 -0.196498 -0.873812
 22 9.818138 -2.393087 -11.768444 -0.280533 0.016352 -0.156232
 23 11.684975 2.308933 -7.513317 -0.000000 -0.000000 0.000000
 24 3.667336 0.402565 -5.537416 0.000000 -0.000000 0.000000
 25 -8.155173 -0.644954 16.761322 0.256399 0.893520 0.874418
 26 -12.364449 3.544243 -13.402782 0.032499 0.004068 -0.038879
 27 -10.403900 -2.206008 -11.274456 0.517646 0.284949 -0.904134
 28 -3.567749 0.641571 -8.254749 0.084986 -0.614179 -0.256748
 29 -16.089001 -105.559021 -25.635788 0.000000 -0.000000 0.000000
 30 -3.127525 0.571327 -6.062374 0.000000 -0.000000 0.000000
 31 -0.040496 -0.674470 8.862862 0.000000 -0.000000 0.000000
 32 0.289211 3.291785 167.749756 0.000000 -0.000000 0.000000
 33 0.000000 0.000000 0.000000 0.000000 -0.000000 0.000000
time 16
  0 -1.005915 2.634505 0.937462 0.000000 -0.000000 0.000000
  1 -1.005915 2.634505 0.937462 0.000000 -0.000000 0.000000
  2 -1.005915 2.634505 0.937462 0.000000 -0.000000 0.000000
  3 0.000000 -22.926142 68.014297 0.116837 -0.069359 0.602151
  4 0.325039 0.314665 -2.968964 -0.052360 -0.000000 0.000000
  5 6.206745 -0.124160 -11.733650 -0.098332 -0.488547 -0.058195
  6 2.955698 1.729841 -23.848038 1.298480 -0.270816 0.317123
  7 0.292410 0.418296 -30.938553 0.099954 -0.062993 -0.043396
  8 0.025497 -3.137416 -3.970855 0.000000 -0.000000 0.000000
  9 -6.833120 -0.124158 -11.733643 -0.864093 0.414588 -0.416398
 10 -3.240688 1.520660 -23.848040 1.025359 -0.581835 -0.256804
 11 -0.355291 0.627470 -30.760895 0.047158 0.089280 -0.080074
 12 0.209677 -3.137413 -4.537352 0.000000 -0.000000 0.000000
 13 -0.336471 18.320858 -10.789921 0.487002 -0.000000 -0.000000
 14 0.011431 14.669044 -0.377850 0.124604 -0.000000 -0.000000
 15 0.210525 25.621651 6.087196 1.122849 0.000000 -0.000000
 16 0.325038 0.314665 5.117508 -0.099868 -0.010468 0.348044
 17 -0.409780 2.182661 26.434906 0.328732 0.068210 -0.311266
 18 -2.968815 36.066563 32.693230 0.240593 0.003610 -0.042174
 19 -0.380094 -2.640907 16.751854 0.000000 -0.000000 0.000000
 20 7.187249 -0.460706 16.472290 -0.472305 -0.283043 1.117481
 21 12.896102 3.303364 -12.884911 -0.350209 -0.196436 -0.876438
 22 9.818134 -2.393091 -11.768448 -0.280533 0.016352 -0.156232
 23 11.684990 2.308929 -7.513319 -0.000000 -0.000000 0.000000
 24 3.667343 0.402561 -5.537415 0.000000 -0.000000 0.000000
 25 -8.155172 -0.644957 16.761322 0.249541 0.890748 0.857515
 26 -12.364456 3.544243 -13.402782 0.032944 0.008086 -0.038464
 27 -10.403885 -2.206009 -11.274456 0.501487 0.275253 -0.896696
 28 -3.567749 0.641579 -8.254749 0.081435 -0.583488 -0.243389
 29 -16.088985 -105.558998 -25.635769 0.000000 -0.000000 0.000000
 30 -3.127533 0.571327 -6.062382 0.000000 -0.000000 0.000000
 31 -0.040495 -0.674472 8.862854 0.000000 -0.000000 0.000000
 32 0.289211 3.291785 167.749756 0.000000 -0.000000 0.000000
 33 0.000000 0.000000 0.000000 0.000000 -0.000000 0.000000
time 17
  0 -1.005915 2.634505 0.937462 0.000000 -0.000000 0.000000
  1 -1.005915 2.634505 0.937462 0.000000 -0.000000 0.000000
  2 -1.005915 2.634505 0.937462 0.000000 -0.000000 0.000000
  3 0.000000 -22.405821 68.151230 0.114657 -0.067838 0.588945
  4 0.325038 0.314665 -2.968971 -0.052360 0.000000 0.000000
  5 6.206747 -0.124161 -11.733643 -0.109473 -0.480459 -0.054439
  6 2.955696 1.729844 -23.848032 1.284296 -0.264383 0.312334
  7 0.292408 0.418294 -30.938549 0.099954 -0.062993 -0.043396
  8 0.025497 -3.137415 -3.970852 0.000000 -0.000000 0.000000
  9 -6.833119 -0.124161 -11.733643 -0.845674 0.408947 -0.411378
 10 -3.240683 1.520660 -23.848040 1.019714 -0.569075 -0.251172
 11 -0.355291 0.627470 -30.760899 0.039617 0.087322 -0.078318
 12 0.209673 -3.137413 -4.537352 0.000000 -0.000000 0.000000
 13 -0.336471 18.320858 -10.789913 0.466930 -0.000000 -0.000000
 14 0.011435 14.669041 -0.377853 0.102231 -0.000000 -0.000000
 15 0.210528 25.621651 6.087185 1.088895 0.000000 -0.000000
 16 0.325039 0.314666 5.117508 -0.104183 -0.011445 0.336037
 17 -0.409781 2.182662 26.434906 0.328952 0.067268 -0.298279
 18 -2.968809 36.066566 32.693207 0.240593 0.003610 -0.042174
 19 -0.380096 -2.640907 16.751846 0.000000 -0.000000 0.000000
 20 7.187246 -0.460703 16.472290 -0.468396 -0.280425 1.102940
 21 12.896104 3.303360 -12.884903 -0.354679 -0.196263 -0.883153
 22 9.818138 -2.393089 -11.768444 -0.280533 0.016352 -0.156232
 23 11.684982 2.308935 -7.513317 0.000000 -0.000000 0.000000
 24 3.667336 0.402563 -5.537415 0.000000 -0.000000 0.000000
 25 -8.155170 -0.644957 16.761322 0.231999 0.883586 0.814280
 26 -12.364449 3.544241 -13.402775 0.034081 0.018364 -0.037403
 27 -10.403893 -2.206009 -11.274464 0.460156 0.250452 -0.877627
 28 -3.567741 0.641571 -8.254745 0.077555 -0.549953 -0.228792
 29 -16.088982 -105.558990 -25.635780 0.000000 -0.000000 0.000000
 30 -3.127518 0.571335 -6.062374 0.000000 -0.000000 0.000000
 31 -0.040495 -0.674469 8.862854 0.000000 -0.000000 0.000000
 32 0.289211 3.291785 167.749756 0.000000 -0.000000 0.000000
 33 0.000000 0.000000 0.000000 0.000000 -0.000000 0.000000
time 18
  0 -1.005915 2.634505 0.937462 0.000000 -0.000000 0.000000
  1 -1.005915 2.634505 0.937462 0.000000 -0.000000 0.000000
  2 -1.005915 2.634505 0.937462 0.000000 -0.000000 0.000000
  3 0.000000 -21.604000 68.362236 0.111299 -0.065494 0.568595
  4 0.325039 0.314665 -2.968964 -0.052360 0.000000 -0.000000
  5 6.206746 -0.124161 -11.733646 -0.126640 -0.467995 -0.048651
  6 2.955698 1.729839 -23.848038 1.262439 -0.254470 0.304914
  7 0.292402 0.418299 -30.938545 0.099954 -0.062994 -0.043396
  8 0.025497 -3.137416 -3.970853 0.000000 -0.000000 0.000000
  9 -6.833120 -0.124160 -11.733646 -0.817290 0.400237 -0.403643
 10 -3.240681 1.520664 -23.848042 1.011014 -0.549411 -0.242493
 11 -0.355291 0.627464 -30.760895 0.027995 0.084305 -0.075612
 12 0.209673 -3.137415 -4.537351 0.000000 -0.000000 0.000000
 13 -0.336471 18.320858 -10.789917 0.445716 -0.000000 -0.000000
 14 0.011432 14.669048 -0.377850 0.077696 -0.000000 -0.000000
 15 0.210527 25.621651 6.087189 1.049430 0.000000 -0.000000
 16 0.325038 0.314666 5.117508 -0.110833 -0.012951 0.317534
 17 -0.409780 2.182663 26.434906 0.329292 0.065803 -0.278267
 18 -2.968817 36.066570 32.693214 0.240593 0.003610 -0.042174
 19 -0.380093 -2.640911 16.751846 0.000000 -0.000000 0.000000
 20 7.187246 -0.460704 16.472290 -0.462307 -0.276382 1.080378
 21 12.896101 3.303360 -12.884895 -0.361569 -0.195970 -0.893501
 22 9.818138 -2.393091 -11.768448 -0.280533 0.016352 -0.156232
 23 11.684982 2.308931 -7.513321 -0.000000 -0.000000 0.000000
 24 3.667336 0.402563 -5.537420 0.000000 -0.000000 0.000000
 25 -8.155173 -0.644954 16.761322 0.204967 0.872421 0.747655
 26 -12.364456 3.544244 -13.402775 0.035835 0.034201 -0.035767
 27 -10.403900 -2.206007 -11.274456 0.396464 0.212234 -0.848155
 28 -3.567749 0.641579 -8.254745 0.073401 -0.514052 -0.213165
 29 -16.088985 -105.558983 -25.635765 0.000000 -0.000000 0.000000
 30 -3.127533 0.571335 -6.062374 0.000000 -0.000000 0.000000
 31 -0.040494 -0.674471 8.862854 0.000000 -0.000000 0.000000
 32 0.289211 3.291785 167.749756 0.000000 -0.000000 0.000000
 33 0.000000 0.000000 0.000000 0.000000 -0.000000 0.000000
time 19
  0 -1.005915 2.634505 0.937462 0.000000 -0.000000 0.000000
  1 -1.005915 2.634505 0.937462 0.000000 -0.000000 0.000000
  2 -1.005915 2.634505 0.937462 0.000000 -0.000000 0.000000
  3 0.000000 -20.556078 68.638000 0.106909 -0.062431 0.541998
  4 0.325039 0.314666 -2.968964 -0.052360 -0.000000 0.000000
  5 6.206748 -0.124160 -11.733646 -0.149077 -0.451705 -0.041087
  6 2.955698 1.729845 -23.848036 1.233872 -0.241515 0.295157
  7 0.292408 0.418294 -30.938553 0.099954 -0.062993 -0.043396
  8 0.025497 -3.137416 -3.970854 0.000000 -0.000000 0.000000
  9 -6.833119 -0.124160 -11.733646 -0.780194 0.388827 -0.393533
 10 -3.240681 1.520660 -23.848042 0.999644 -0.523712 -0.231150
 11 -0.355293 0.627462 -30.760899 0.012807 0.080362 -0.072075
 12 0.209675 -3.137415 -4.537353 0.000000 -0.000000 0.000000
 13 -0.336470 18.320858 -10.789921 0.423616 -0.000000 0.000000
 14 0.011430 14.669041 -0.377853 0.051386 -0.000000 -0.000000
 15 0.210527 25.621651 6.087193 1.005292 0.000000 -0.000000
 16 0.325040 0.314665 5.117508 -0.119523 -0.014919 0.293353
 17 -0.409779 2.182663 26.434914 0.329736 0.063868 -0.252112
 18 -2.968807 36.066574 32.693214 0.240593 0.003610 -0.042174
 19 -0.380095 -2.640915 16.751846 0.000000 -0.000000 0.000000
 20 7.187249 -0.460703 16.472298 -0.454254 -0.271084 1.050659
 21 12.896104 3.303360 -12.884911 -0.370573 -0.195547 -0.907025
 22 9.818130 -2.393089 -11.768448 -0.280533 0.016352 -0.156232
 23 11.684982 2.308935 -7.513313 0.000000 -0.000000 0.000000
 24 3.667336 0.402563 -5.537413 0.000000 -0.000000 0.000000
 25 -8.155169 -0.644955 16.761330 0.169638 0.857637 0.660580
 26 -12.364449 3.544243 -13.402788 0.038126 0.054899 -0.033629
 27 -10.403900 -2.206008 -11.274460 0.313222 0.162285 -0.809511
 28 -3.567749 0.641579 -8.254757 0.069029 -0.476263 -0.196716
 29 -16.088997 -105.559044 -25.635811 0.000000 -0.000000 0.000000
 30 -3.127525 0.571327 -6.062378 0.000000 -0.000000 0.000000
 31 -0.040495 -0.674471 8.862854 0.000000 -0.000000 0.000000
 32 0.289211 3.291785 167.749756 0.000000 -0.000000 0.000000
 33 0.000000 0.000000 0.000000 0.000000 -0.000000 0.000000
time 20
  0 -1.005915 2.634505 0.937462 0.000000 -0.000000 0.000000
  1 -1.005915 2.634505 0.937462 0.000000 -0.000000 0.000000
  2 -1.005915 2.634505 0.937462 0.000000 -0.000000 0.000000
  3 0.000000 -19.297443 68.969223 0.101636 -0.058751 0.510053
  4 0.325040 0.314666 -2.968964 -0.052360 -0.000000 0.000000
  5 6.206747 -0.124159 -11.733646 -0.176026 -0.432140 -0.032002
  6 2.955700 1.729841 -23.848043 1.199561 -0.225955 0.283357
  7 0.292408 0.418300 -30.938553 0.099954 -0.062994 -0.043396
  8 0.025497 -3.137417 -3.970852 0.000000 -0.000000 0.000000
  9 -6.833120 -0.124159 -11.733646 -0.735639 0.375086 -0.381391
 10 -3.240686 1.520664 -23.848045 0.985988 -0.492844 -0.217526
 11 -0.355291 0.627466 -30.760899 -0.005436 0.075625 -0.067827
 12 0.209675 -3.137417 -4.537352 0.000000 -0.000000 0.000000
 13 -0.336470 18.320860 -10.789917 0.400883 -0.000000 0.000000
 14 0.011432 14.669046 -0.377853 0.023684 -0.000000 -0.000000
 15 0.210531 25.621658 6.087185 0.957323 0.000000 -0.000000
 16 0.325039 0.314667 5.117508 -0.129961 -0.017283 0.264308
 17 -0.409780 2.182664 26.434914 0.330269 0.061515 -0.220698
 18 -2.968813 36.066582 32.693207 0.240593 0.003610 -0.042174
 19 -0.380096 -2.640909 16.751839 0.000000 -0.000000 0.000000
 20 7.187248 -0.460702 16.472298 -0.444449 -0.264700 1.014651
 21 12.896101 3.303364 -12.884903 -0.381388 -0.194984 -0.923268
 22 9.818134 -2.393087 -11.768436 -0.280533 0.016352 -0.156232
 23 11.684982 2.308931 -7.513313 0.000000 -0.000000 0.000000
 24 3.667336 0.402563 -5.537411 0.000000 -0.000000 0.000000
 25 -8.155172 -0.644953 16.761322 0.127206 0.839620 0.555997
 26 -12.364449 3.544242 -13.402782 0.040878 0.079759 -0.031062
 27 -10.403900 -2.206008 -11.274452 0.213244 0.102292 -0.762925
 28 -3.567741 0.641571 -8.254749 0.064493 -0.437063 -0.179653
 29 -16.088985 -105.559021 -25.635784 0.000000 -0.000000 0.000000
 30 -3.127525 0.571327 -6.062374 0.000000 -0.000000 0.000000
 31 -0.040494 -0.674471 8.862854 0.000000 -0.000000 0.000000
 32 0.289211 3.291785 167.749756 0.000000 -0.000000 0.000000
 33 0.000000 0.000000 0.000000 0.000000 -0.000000 0.000000
time 21
  0 -1.005915 2.634505 0.937462 0.000000 -0.000000 0.000000
  1 -1.005915 2.634505 0.937462 0.000000 -0.000000 0.000000
  2 -1.005915 2.634505 0.937462 0.000000 -0.000000 0.000000
  3 0.000000 -17.863495 69.346573 0.095630 -0.054559 0.473659
  4 0.325038 0.314665 -2.968964 -0.052360 0.000000 -0.000000
  5 6.206747 -0.124159 -11.733643 -0.206728 -0.409850 -0.021651
  6 2.955698 1.729843 -23.848042 1.160472 -0.208228 0.269809
  7 0.292412 0.418302 -30.938555 0.099954 -0.062993 -0.043396
  8 0.025499 -3.137414 -3.970853 0.000000 -0.000000 0.000000
  9 -6.833118 -0.124159 -11.733646 -0.684879 0.359384 -0.367557
 10 -3.240685 1.520657 -23.848042 0.970430 -0.457678 -0.202005
 11 -0.355293 0.627468 -30.760895 -0.026219 0.070229 -0.062987
 12 0.209675 -3.137414 -4.537350 0.000000 -0.000000 0.000000
 13 -0.336470 18.320858 -10.789913 0.377773 -0.000000 -0.000000
 14 0.011432 14.669043 -0.377853 -0.005023 -0.000000 -0.000000
 15 0.210526 25.621643 6.087181 0.906361 0.000000 -0.000000
 16 0.325039 0.314666 5.117500 -0.141852 -0.019977 0.231219
 17 -0.409780 2.182662 26.434906 0.330877 0.058798 -0.184908
 18 -2.968812 36.066566 32.693207 0.240593 0.003610 -0.042174
 19 -0.380095 -2.640913 16.751846 0.000000 -0.000000 0.000000
 20 7.187247 -0.460704 16.472290 -0.433110 -0.257404 0.973221
 21 12.896107 3.303360 -12.884911 -0.393709 -0.194273 -0.941775
 22 9.818138 -2.393089 -11.768444 -0.280533 0.016352 -0.156232
 23 11.684990 2.308933 -7.513321 -0.000000 -0.000000 0.000000
 24 3.667336 0.402563 -5.537418 0.000000 -0.000000 0.000000
 25 -8.155172 -0.644958 16.761322 0.078863 0.818755 0.436847
 26 -12.364456 3.544243 -13.402786 0.044013 0.108081 -0.028137
 27 -10.403900 -2.206008 -11.274460 0.099339 0.033944 -0.709626
 28 -3.567749 0.641571 -8.254749 0.059850 -0.396930 -0.162184
 29 -16.088997 -105.559021 -25.635784 0.000000 -0.000000 0.000000
 30 -3.127525 0.571327 -6.062378 0.000000 -0.000000 0.000000
 31 -0.040495 -0.674470 8.862854 0.000000 -0.000000 0.000000
 32 0.289211 3.291785 167.749756 0.000000 -0.000000 0.000000
 33 0.000000 0.000000 0.000000 0.000000 -0.000000 0.000000
time 22
  0 -1.005915 2.634505 0.937462 0.000000 -0.000000 0.000000
  1 -1.005915 2.634505 0.937462 0.000000 -0.000000 0.000000
  2 -1.005915 2.634505 0.937462 0.000000 -0.000000 0.000000
  3 0.000000 -16.289625 69.760750 0.089037 -0.049958 0.433713
  4 0.325038 0.314665 -2.968964 -0.052360 0.000000 0.000000
  5 6.206747 -0.124161 -11.733646 -0.240426 -0.385385 -0.010291
  6 2.955700 1.729839 -23.848042 1.117568 -0.188771 0.254807
  7 0.292412 0.418301 -30.938553 0.099954 -0.062994 -0.043397
  8 0.025497 -3.137416 -3.970851 0.000000 -0.000000 0.000000
  9 -6.833119 -0.124160 -11.733643 -0.629165 0.342090 -0.352374
 10 -3.240683 1.520660 -23.848042 0.953353 -0.419080 -0.184969
 11 -0.355289 0.627462 -30.760895 -0.049031 0.064306 -0.057675
 12 0.209674 -3.137414 -4.537352 0.000000 -0.000000 0.000000
 13 -0.336472 18.320858 -10.789913 0.354540 -0.000000 0.000000
 14 0.011431 14.669041 -0.377850 -0.034350 -0.000000 -0.000000
 15 0.210526 25.621639 6.087196 0.853248 0.000000 -0.000000
 16 0.325039 0.314665 5.117516 -0.154904 -0.022933 0.194901
 17 -0.409781 2.182663 26.434906 0.331543 0.055771 -0.145626
 18 -2.968814 36.066574 32.693237 0.240593 0.003610 -0.042174
 19 -0.380095 -2.640907 16.751846 0.000000 -0.000000 0.000000
 20 7.187247 -0.460703 16.472290 -0.420449 -0.249364 0.927234
 21 12.896102 3.303360 -12.884903 -0.407233 -0.193404 -0.962086
 22 9.818138 -2.393089 -11.768444 -0.280533 0.016352 -0.156232
 23 11.684982 2.308933 -7.513319 -0.000000 -0.000000 0.000000
 24 3.667336 0.402565 -5.537416 0.000000 -0.000000 0.000000
 25 -8.155173 -0.644953 16.761322 0.025803 0.795427 0.306071
 26 -12.364456 3.544243 -13.402786 0.047455 0.139168 -0.024926
 27 -10.403893 -2.206009 -11.274462 -0.025680 -0.041074 -0.650845
 28 -3.567749 0.641571 -8.254749 0.055154 -0.356342 -0.144516
 29 -16.088989 -105.559052 -25.635784 0.000000 -0.000000 0.000000
 30 -3.127533 0.571335 -6.062378 0.000000 -0.000000 0.000000
 31 -0.040495 -0.674469 8.862854 0.000000 -0.000000 0.000000
 32 0.289211 3.291785 167.749756 0.000000 -0.000000 0.000000
 33 0.000000 0.000000 0.000000 0.000000 -0.000000 0.000000
time 23
  0 -1.005915 2.634505 0.937462 0.000000 -0.000000 0.000000
  1 -1.005915 2.634505 0.937462 0.000000 -0.000000 0.000000
  2 -1.005915 2.634505 0.937462 0.000000 -0.000000 0.000000
  3 0.000000 -14.611232 70.202438 0.082006 -0.045051 0.391114
  4 0.325039 0.314665 -2.968964 -0.052360 0.000000 -0.000000
  5 6.206746 -0.124161 -11.733650 -0.276362 -0.359295 0.001824
  6 2.955700 1.729845 -23.848045 1.071814 -0.168021 0.238645
  7 0.292412 0.418298 -30.938560 0.099954 -0.062994 -0.043397
  8 0.025496 -3.137416 -3.970852 0.000000 -0.000000 0.000000
  9 -6.833120 -0.124160 -11.733650 -0.569752 0.323573 -0.336182
 10 -3.240685 1.520660 -23.848045 0.935143 -0.377919 -0.166802
 11 -0.355294 0.627469 -30.760904 -0.073357 0.057990 -0.052011
 12 0.209674 -3.137415 -4.537352 0.000000 -0.000000 0.000000
 13 -0.336471 18.320860 -10.789921 0.331437 -0.000000 -0.000000
 14 0.011431 14.669044 -0.377853 -0.063912 -0.000000 -0.000000
 15 0.210528 25.621651 6.087181 0.798822 0.000000 -0.000000
 16 0.325040 0.314665 5.117500 -0.168823 -0.026085 0.156171
 17 -0.409777 2.182665 26.434914 0.332254 0.052486 -0.103735
 18 -2.968812 36.066574 32.693199 0.240593 0.003610 -0.042174
 19 -0.380095 -2.640913 16.751846 0.000000 -0.000000 0.000000
 20 7.187249 -0.460701 16.472298 -0.406683 -0.240751 0.877557
 21 12.896107 3.303356 -12.884895 -0.421654 -0.192367 -0.983747
 22 9.818130 -2.393093 -11.768444 -0.280533 0.016352 -0.156232
 23 11.684982 2.308933 -7.513317 -0.000000 -0.000000 0.000000
 24 3.667336 0.402565 -5.537413 0.000000 -0.000000 0.000000
 25 -8.155170 -0.644953 16.761322 -0.030781 0.770021 0.166609
 26 -12.364449 3.544239 -13.402782 0.051125 0.172318 -0.021502
 27 -10.403900 -2.206010 -11.274464 -0.159002 -0.121074 -0.587812
 28 -3.567749 0.641571 -8.254753 0.050460 -0.315777 -0.126859
 29 -16.088943 -105.559036 -25.635815 0.000000 -0.000000 0.000000
 30 -3.127525 0.571335 -6.062382 0.000000 -0.000000 0.000000
 31 -0.040494 -0.674469 8.862854 0.000000 -0.000000 0.000000
 32 0.289211 3.291785 167.749756 0.000000 -0.000000 0.000000
 33 0.000000 0.000000 0.000000 0.000000 -0.000000 0.000000
time 24
  0 -1.005915 2.634505 0.937462 0.000000 -0.000000 0.000000
  1 -1.005915 2.634505 0.937462 0.000000 -0.000000 0.000000
  2 -1.005915 2.634505 0.937462 0.000000 -0.000000 0.000000
  3 0.000000 -12.863707 70.662308 0.074685 -0.039942 0.346761
  4 0.325039 0.314665 -2.968948 -0.052360 0.000000 -0.000000
  5 6.206746 -0.124160 -11.733646 -0.313778 -0.332130 0.014438
  6 2.955702 1.729843 -23.848038 1.024177 -0.146417 0.221617
  7 0.292416 0.418307 -30.938559 0.099954 -0.062994 -0.043397
  8 0.025497 -3.137415 -3.970854 0.000000 -0.000000 0.000000
  9 -6.833118 -0.124161 -11.733646 -0.507891 0.304204 -0.319323
 10 -3.240688 1.520657 -23.848038 0.916182 -0.335062 -0.147886
 11 -0.355294 0.627465 -30.760895 -0.098685 0.051414 -0.046112
 12 0.209673 -3.137416 -4.537351 0.000000 -0.000000 0.000000
 13 -0.336471 18.320860 -10.789917 0.308721 -0.000000 -0.000000
 14 0.011433 14.669048 -0.377850 -0.093323 -0.000000 -0.000000
 15 0.210528 25.621647 6.087193 0.743923 0.000000 -0.000000
 16 0.325039 0.314664 5.117516 -0.183315 -0.029368 0.115845
 17 -0.409779 2.182663 26.434921 0.332995 0.048997 -0.060119
 18 -2.968810 36.066574 32.693214 0.240593 0.003610 -0.042174
 19 -0.380096 -2.640913 16.751854 0.000000 -0.000000 0.000000
 20 7.187249 -0.460703 16.472298 -0.392025 -0.231736 0.825057
 21 12.896105 3.303364 -12.884903 -0.436670 -0.191154 -1.006300
 22 9.818130 -2.393093 -11.768452 -0.280533 0.016352 -0.156232
 23 11.684990 2.308929 -7.513313 0.000000 -0.000001 0.000000
 24 3.667336 0.402561 -5.537415 0.000000 -0.000000 0.000000
 25 -8.155170 -0.644955 16.761322 -0.089696 0.742923 0.021403
 26 -12.364449 3.544239 -13.402786 0.054946 0.206835 -0.017937
 27 -10.403893 -2.206013 -11.274460 -0.297815 -0.204369 -0.521757
 28 -3.567734 0.641579 -8.254753 0.045824 -0.275711 -0.109419
 29 -16.088989 -105.559067 -25.635803 0.000000 -0.000000 0.000000
 30 -3.127518 0.571335 -6.062378 0.000000 -0.000000 0.000000
 31 -0.040494 -0.674469 8.862862 0.000000 -0.000000 0.000000
 32 0.289211 3.291785 167.749756 0.000000 -0.000000 0.000000
 33 0.000000 0.000000 0.000000 0.000000 -0.000000 0.000000
time 25
  0 -1.005915 2.634505 0.937462 0.000000 -0.000000 0.000000
  1 -1.005915 2.634505 0.937462 0.000000 -0.000000 0.000000
  2 -1.005915 2.634505 0.937462 0.000000 -0.000000 0.000000
  3 0.000000 -11.082445 71.131065 0.067224 -0.034735 0.301552
  4 0.325039 0.314665 -2.968971 -0.052360 -0.000000 -0.000000
  5 6.206746 -0.124160 -11.733646 -0.351916 -0.304442 0.027296
  6 2.955700 1.729841 -23.848045 0.975619 -0.124396 0.204017
  7 0.292414 0.418301 -30.938557 0.099954 -0.062994 -0.043396
  8 0.025499 -3.137416 -3.970854 0.000000 -0.000000 0.000000
  9 -6.833119 -0.124160 -11.733646 -0.444835 0.284350 -0.302138
 10 -3.240686 1.520660 -23.848042 0.896856 -0.291378 -0.128605
 11 -0.355296 0.627467 -30.760899 -0.124502 0.044711 -0.040100
 12 0.209675 -3.137415 -4.537352 0.000000 -0.000000 0.000000
 13 -0.336471 18.320856 -10.789913 0.286644 -0.000000 -0.000000
 14 0.011434 14.669043 -0.377853 -0.122199 -0.000000 -0.000000
 15 0.210529 25.621655 6.087196 0.689392 0.000000 -0.000000
 16 0.325039 0.314665 5.117508 -0.198087 -0.032713 0.074741
 17 -0.409780 2.182662 26.434921 0.333749 0.045357 -0.015660
 18 -2.968814 36.066570 32.693222 0.240593 0.003610 -0.042174
 19 -0.380095 -2.640909 16.751846 0.000000 -0.000000 0.000000
 20 7.187249 -0.460705 16.472305 -0.376690 -0.222490 0.770599
 21 12.896105 3.303360 -12.884903 -0.451975 -0.189754 -1.029288
 22 9.818130 -2.393084 -11.768440 -0.280533 0.016352 -0.156232
 23 11.684982 2.308937 -7.513321 0.000000 -0.000000 0.000000
 24 3.667328 0.402565 -5.537418 0.000000 -0.000000 0.000000
 25 -8.155172 -0.644955 16.761337 -0.149748 0.714517 -0.126607
 26 -12.364452 3.544241 -13.402779 0.058840 0.242017 -0.014304
 27 -10.403900 -2.206005 -11.274464 -0.439309 -0.289272 -0.453909
 28 -3.567749 0.641571 -8.254749 0.041302 -0.236623 -0.092404
 29 -16.088989 -105.559044 -25.635799 0.000000 -0.000000 0.000000
 30 -3.127533 0.571320 -6.062374 0.000000 -0.000000 0.000000
 31 -0.040495 -0.674469 8.862862 0.000000 -0.000000 0.000000
 32 0.289211 3.291785 167.749756 0.000000 -0.000000 0.000000
 33 0.000000 0.000000 0.000000 0.000000 -0.000000 0.000000
time 26
  0 -1.005915 2.634505 0.937462 0.000000 -0.000000 0.000000
  1 -1.005915 2.634505 0.937462 0.000000 -0.000000 0.000000
  2 -1.005915 2.634505 0.937462 0.000000 -0.000000 0.000000
  3 0.000000 -9.302843 71.599380 0.059769 -0.029532 0.256384
  4 0.325039 0.314665 -2.968964 -0.052360 -0.000000 -0.000000
  5 6.206746 -0.124159 -11.733646 -0.390019 -0.276778 0.040142
  6 2.955704 1.729841 -23.848042 0.927107 -0.102395 0.186141
  7 0.292414 0.418310 -30.938557 0.099954 -0.062993 -0.043396
  8 0.025497 -3.137415 -3.970852 0.000000 -0.000000 0.000000
  9 -6.833120 -0.124160 -11.733646 -0.381839 0.264383 -0.284970
 10 -3.240686 1.520660 -23.848045 0.877547 -0.247734 -0.109342
 11 -0.355295 0.627466 -30.760899 -0.150296 0.038014 -0.034094
 12 0.209675 -3.137414 -4.537352 0.000000 -0.000000 0.000000
 13 -0.336471 18.320858 -10.789917 0.265463 -0.000000 -0.000000
 14 0.011432 14.669044 -0.377853 -0.150153 -0.000000 -0.000000
 15 0.210527 25.621647 6.087181 0.636069 0.000000 -0.000000
 16 0.325039 0.314665 5.117508 -0.212845 -0.036056 0.033675
 17 -0.409781 2.182662 26.434906 0.334503 0.041618 0.028757
 18 -2.968812 36.066574 32.693222 0.240593 0.003610 -0.042174
 19 -0.380097 -2.640911 16.751854 0.000000 -0.000000 0.000000
 20 7.187249 -0.460705 16.472290 -0.360893 -0.213183 0.715051
 21 12.896109 3.303360 -12.884911 -0.467266 -0.188158 -1.052255
 22 9.818130 -2.393089 -11.768452 -0.280533 0.016352 -0.156232
 23 11.684982 2.308933 -7.513321 -0.000000 -0.000000 0.000000
 24 3.667336 0.402563 -5.537418 0.000000 -0.000000 0.000000
 25 -8.155172 -0.644957 16.761330 -0.209744 0.685190 -0.274478
 26 -12.364456 3.544243 -13.402782 0.062731 0.277167 -0.010673
 27 -10.403900 -2.206009 -11.274460 -0.580670 -0.374096 -0.385500
 28 -3.567741 0.641571 -8.254747 0.036948 -0.198991 -0.076024
 29 -16.088951 -105.559059 -25.635838 0.000000 -0.000000 0.000000
 30 -3.127525 0.571327 -6.062372 0.000000 -0.000000 0.000000
 31 -0.040495 -0.674471 8.862854 0.000000 -0.000000 0.000000
 32 0.289211 3.291785 167.749756 0.000000 -0.000000 0.000000
 33 0.000000 0.000000 0.000000 0.000000 -0.000000 0.000000
time 27
  0 -1.005915 2.634505 0.937462 0.000000 -0.000000 0.000000
  1 -1.005915 2.634505 0.937462 0.000000 -0.000000 0.000000
  2 -1.005915 2.634505 0.937462 0.000000 -0.000000 0.000000
  3 0.000000 -7.560295 72.057945 0.052469 -0.024438 0.212158
  4 0.325039 0.314666 -2.968964 -0.052360 -0.000000 -0.000000
  5 6.206747 -0.124160 -11.733643 -0.427329 -0.249691 0.052720
  6 2.955700 1.729841 -23.848042 0.879605 -0.080853 0.168281
  7 0.292416 0.418310 -30.938560 0.099954 -0.062994 -0.043396
  8 0.025496 -3.137414 -3.970854 0.000000 -0.000000 0.000000
  9 -6.833119 -0.124160 -11.733646 -0.320154 0.244671 -0.268159
 10 -3.240686 1.520658 -23.848042 0.858641 -0.205000 -0.090481
 11 -0.355296 0.627465 -30.760893 -0.175552 0.031456 -0.028213
 12 0.209675 -3.137414 -4.537351 0.000000 -0.000000 0.000000
 13 -0.336472 18.320860 -10.789913 0.245430 -0.000000 -0.000000
 14 0.011433 14.669044 -0.377850 -0.176801 -0.000000 -0.000000
 15 0.210528 25.621655 6.087189 0.584792 0.000000 -0.000000
 16 0.325039 0.314665 5.117508 -0.227296 -0.039329 -0.006535
 17 -0.409780 2.182661 26.434906 0.335241 0.037834 0.072249
 18 -2.968815 36.066574 32.693214 0.240593 0.003610 -0.042174
 19 -0.380096 -2.640910 16.751846 0.000000 -0.000000 0.000000
 20 7.187249 -0.460705 16.472290 -0.344849 -0.203985 0.659279
 21 12.896105 3.303368 -12.884903 -0.482239 -0.186357 -1.074744
 22 9.818130 -2.393085 -11.768444 -0.280533 0.016352 -0.156232
 23 11.684975 2.308931 -7.513317 -0.000000 -0.000000 0.000000
 24 3.667328 0.402559 -5.537415 0.000000 -0.000000 0.000000
 25 -8.155172 -0.644957 16.761322 -0.268491 0.655325 -0.419271
 26 -12.364456 3.544247 -13.402790 0.066542 0.311585 -0.007119
 27 -10.403900 -2.206009 -11.274460 -0.719088 -0.457154 -0.317758
 28 -3.567745 0.641563 -8.254751 0.032817 -0.163291 -0.060484
 29 -16.088966 -105.559067 -25.635818 0.000000 -0.000000 0.000000
 30 -3.127529 0.571320 -6.062374 0.000000 -0.000000 0.000000
 31 -0.040495 -0.674471 8.862846 0.000000 -0.000000 0.000000
 32 0.289211 3.291785 167.749756 0.000000 -0.000000 0.000000
 33 0.000000 0.000000 0.000000 0.000000 -0.000000 0.000000
time 28
  0 -1.005915 2.634505 0.937462 0.000000 -0.000000 0.000000
  1 -1.005915 2.634505 0.937462 0.000000 -0.000000 0.000000
  2 -1.005915 2.634505 0.937462 0.000000 -0.000000 0.000000
  3 0.000000 -5.890197 72.497444 0.045473 -0.019555 0.169770
  4 0.325039 0.314665 -2.968964 -0.052360 -0.000000 -0.000000
  5 6.206747 -0.124160 -11.733643 -0.463087 -0.223730 0.064775
  6 2.955700 1.729849 -23.848042 0.834078 -0.060206 0.150733
  7 0.292418 0.418310 -30.938557 0.099954 -0.062994 -0.043396
  8 0.025497 -3.137415 -3.970853 0.000000 -0.000000 0.000000
  9 -6.833120 -0.124160 -11.733643 -0.261034 0.225584 -0.252047
 10 -3.240685 1.520660 -23.848038 0.840520 -0.164042 -0.072403
 11 -0.355298 0.627461 -30.760893 -0.199758 0.025172 -0.022576
 12 0.209673 -3.137415 -4.537352 0.000000 -0.000000 0.000000
 13 -0.336472 18.320856 -10.789913 0.226801 -0.000000 0.000000
 14 0.011431 14.669037 -0.377853 -0.201757 -0.000000 -0.000000
 15 0.210527 25.621641 6.087189 0.536403 0.000000 -0.000000
 16 0.325039 0.314665 5.117508 -0.241146 -0.042466 -0.045074
 17 -0.409779 2.182660 26.434921 0.335949 0.034059 0.113933
 18 -2.968816 36.066574 32.693237 0.240593 0.003610 -0.042174
 19 -0.380099 -2.640911 16.751854 0.000000 -0.000000 0.000000
 20 7.187248 -0.460703 16.472298 -0.328772 -0.195068 0.604150
 21 12.896103 3.303364 -12.884903 -0.496590 -0.184341 -1.096298
 22 9.818130 -2.393095 -11.768444 -0.280533 0.016352 -0.156232
 23 11.684990 2.308929 -7.513317 -0.000000 -0.000000 0.000000
 24 3.667336 0.402561 -5.537415 0.000000 -0.000000 0.000000
 25 -8.155171 -0.644955 16.761330 -0.324795 0.625310 -0.558043
 26 -12.364456 3.544247 -13.402782 0.070193 0.344572 -0.003712
 27 -10.403893 -2.206009 -11.274464 -0.851751 -0.536758 -0.251914
 28 -3.567745 0.641571 -8.254752 0.028966 -0.130003 -0.045994
 29 -16.088997 -105.559059 -25.635803 0.000000 -0.000000 0.000000
 30 -3.127525 0.571327 -6.062380 0.000000 -0.000000 0.000000
 31 -0.040494 -0.674471 8.862869 0.000000 -0.000000 0.000000
 32 0.289211 3.291785 167.749756 0.000000 -0.000000 0.000000
 33 0.000000 0.000000 0.000000 0.000000 -0.000000 0.000000
time 29
  0 -1.005915 2.634505 0.937462 0.000000 -0.000000 0.000000
  1 -1.005915 2.634505 0.937462 0.000000 -0.000000 0.000000
  2 -1.005915 2.634505 0.937462 0.000000 -0.000000 0.000000
  3 0.000000 -4.327942 72.908562 0.038929 -0.014988 0.130119
  4 0.325039 0.314665 -2.968956 -0.052360 0.000000 -0.000000
  5 6.206746 -0.124160 -11.733646 -0.496536 -0.199446 0.076052
  6 2.955698 1.729845 -23.848036 0.791491 -0.040892 0.133790
  7 0.292418 0.418319 -30.938557 0.099954 -0.062994 -0.043396
  8 0.025497 -3.137414 -3.970853 0.000000 -0.000000 0.000000
  9 -6.833119 -0.124160 -11.733646 -0.205732 0.207491 -0.236976
 10 -3.240685 1.520660 -23.848043 0.823570 -0.125729 -0.055493
 11 -0.355299 0.627472 -30.760897 -0.222401 0.019293 -0.017303
 12 0.209673 -3.137414 -4.537351 0.000000 -0.000000 0.000000
 13 -0.336472 18.320858 -10.789917 0.209831 -0.000000 -0.000000
 14 0.011432 14.669044 -0.377857 -0.224636 -0.000000 -0.000000
 15 0.210528 25.621649 6.087181 0.491740 0.000000 -0.000000
 16 0.325039 0.314665 5.117508 -0.254102 -0.045400 -0.081124
 17 -0.409779 2.182663 26.434906 0.336611 0.030345 0.152925
 18 -2.968809 36.066566 32.693214 0.240593 0.003610 -0.042174
 19 -0.380095 -2.640913 16.751846 0.000000 -0.000000 0.000000
 20 7.187249 -0.460703 16.472298 -0.312878 -0.186603 0.550529
 21 12.896105 3.303368 -12.884911 -0.510013 -0.182101 -1.116459
 22 9.818138 -2.393089 -11.768444 -0.280533 0.016352 -0.156232
 23 11.684982 2.308939 -7.513321 -0.000000 -0.000000 0.000000
 24 3.667336 0.402561 -5.537413 0.000000 -0.000000 0.000000
 25 -8.155172 -0.644955 16.761330 -0.377464 0.595528 -0.687855
 26 -12.364449 3.544243 -13.402790 0.073609 0.375429 -0.000525
 27 -10.403900 -2.206013 -11.274460 -0.975848 -0.611223 -0.189197
 28 -3.567749 0.641571 -8.254751 0.025448 -0.099603 -0.032762
 29 -16.088985 -105.559021 -25.635826 0.000000 -0.000000 0.000000
 30 -3.127525 0.571327 -6.062376 0.000000 -0.000000 0.000000
 31 -0.040494 -0.674469 8.862862 0.000000 -0.000000 0.000000
 32 0.289211 3.291785 167.749756 0.000000 -0.000000 0.000000
 33 0.000000 0.000000 0.000000 0.000000 -0.000000 0.000000
time 30
  0 -1.005915 2.634505 0.937462 0.000000 -0.000000 0.000000
  1 -1.005915 2.634505 0.937462 0.000000 -0.000000 0.000000
  2 -1.005915 2.634505 0.937462 0.000000 -0.000000 0.000000
  3 0.000000 -2.908926 73.281990 0.032985 -0.010839 0.094103
  4 0.325039 0.314665 -2.968964 -0.052360 0.000000 -0.000000
  5 6.206746 -0.124160 -11.733639 -0.526919 -0.177388 0.086295
  6 2.955700 1.729849 -23.848042 0.752808 -0.023349 0.117746
  7 0.292414 0.418313 -30.938560 0.099954 -0.062994 -0.043396
  8 0.025499 -3.137414 -3.970853 0.000000 -0.000000 0.000000
  9 -6.833119 -0.124160 -11.733639 -0.155500 0.190762 -0.223286
 10 -3.240685 1.520660 -23.848042 0.808173 -0.090928 -0.040133
 11 -0.355299 0.627464 -30.760891 -0.242968 0.013953 -0.012514
 12 0.209673 -3.137412 -4.537351 0.000000 -0.000000 0.000000
 13 -0.336471 18.320858 -10.789909 0.194773 -0.000000 -0.000000
 14 0.011433 14.669041 -0.377853 -0.245052 -0.000000 -0.000000
 15 0.210528 25.621645 6.087181 0.451645 0.000000 -0.000000
 16 0.325039 0.314665 5.117508 -0.265869 -0.048065 -0.113869
 17 -0.409780 2.182661 26.434906 0.337212 0.026745 0.188342
 18 -2.968813 36.066555 32.693214 0.240593 0.003610 -0.042174
 19 -0.380095 -2.640913 16.751854 0.000000 -0.000000 0.000000
 20 7.187248 -0.460705 16.472298 -0.297380 -0.178758 0.499284
 21 12.896107 3.303368 -12.884911 -0.522206 -0.179628 -1.134773
 22 9.818130 -2.393091 -11.768448 -0.280533 0.016352 -0.156232
 23 11.684982 2.308933 -7.513315 0.000000 -0.000000 0.000000
 24 3.667328 0.402565 -5.537415 0.000000 -0.000000 0.000000
 25 -8.155170 -0.644957 16.761330 -0.425303 0.566365 -0.805764
 26 -12.364452 3.544239 -13.402786 0.076712 0.403457 0.002370
 27 -10.403908 -2.206013 -11.274456 -1.088566 -0.678859 -0.130839
 28 -3.567749 0.641571 -8.254753 0.022321 -0.072570 -0.020995
 29 -16.089012 -105.559059 -25.635803 0.000000 -0.000000 0.000000
 30 -3.127525 0.571320 -6.062378 0.000000 -0.000000 0.000000
 31 -0.040495 -0.674473 8.862862 0.000000 -0.000000 0.000000
 32 0.289211 3.291785 167.749756 0.000000 -0.000000 0.000000
 33 0.000000 0.000000 0.000000 0.000000 -0.000000 0.000000
time 31
  0 -1.005915 2.634505 0.937462 0.000000 -0.000000 0.000000
  1 -1.005915 2.634505 0.937462 0.000000 -0.000000 0.000000
  2 -1.005915 2.634505 0.937462 0.000000 -0.000000 0.000000
  3 0.000000 -1.668543 73.608406 0.027789 -0.007213 0.062622
  4 0.325039 0.314666 -2.968956 -0.052360 0.000000 -0.000000
  5 6.206747 -0.124160 -11.733643 -0.553476 -0.158107 0.095248
  6 2.955698 1.729845 -23.848045 0.718995 -0.008015 0.102897
  7 0.292417 0.418316 -30.938560 0.099954 -0.062994 -0.043396
  8 0.025497 -3.137413 -3.970853 0.000000 -0.000000 0.000000
  9 -6.833119 -0.124160 -11.733639 -0.111591 0.175765 -0.211320
 10 -3.240685 1.520659 -23.848042 0.794715 -0.060509 -0.026707
 11 -0.355303 0.627468 -30.760897 -0.260946 0.009285 -0.008327
 12 0.209671 -3.137415 -4.537352 0.000000 -0.000000 0.000000
 13 -0.336471 18.320858 -10.789909 0.181882 -0.000000 -0.000000
 14 0.011432 14.669044 -0.377853 -0.262620 -0.000000 -0.000000
 15 0.210527 25.621655 6.087189 0.416956 0.000000 -0.000000
 16 0.325039 0.314665 5.117508 -0.276156 -0.050395 -0.142492
 17 -0.409780 2.182663 26.434906 0.337738 0.023313 0.219301
 18 -2.968812 36.066570 32.693214 0.240593 0.003610 -0.042174
 19 -0.380097 -2.640913 16.751846 0.000000 -0.000000 0.000000
 20 7.187249 -0.460703 16.472290 -0.282495 -0.171706 0.451280
 21 12.896107 3.303364 -12.884911 -0.532864 -0.176912 -1.150781
 22 9.818130 -2.393087 -11.768452 -0.280533 0.016352 -0.156232
 23 11.684990 2.308931 -7.513321 0.000000 -0.000000 0.000000
 24 3.667336 0.402561 -5.537415 0.000000 -0.000000 0.000000
 25 -8.155172 -0.644955 16.761314 -0.467120 0.538206 -0.908830
 26 -12.364452 3.544243 -13.402786 0.079424 0.427956 0.004900
 27 -10.403908 -2.206013 -11.274466 -1.187095 -0.737982 -0.078068
 28 -3.567745 0.641563 -8.254749 0.019637 -0.049380 -0.010901
 29 -16.089020 -105.559044 -25.635807 0.000000 -0.000000 0.000000
 30 -3.127525 0.571320 -6.062378 0.000000 -0.000000 0.000000
 31 -0.040495 -0.674469 8.862846 0.000000 -0.000000 0.000000
 32 0.289211 3.291785 167.749756 0.000000 -0.000000 0.000000
 33 0.000000 0.000000 0.000000 0.000000 -0.000000 0.000000
time 32
  0 -1.005915 2.634505 0.937462 0.000000 -0.000000 0.000000
  1 -1.005915 2.634505 0.937462 0.000000 -0.000000 0.000000
  2 -1.005915 2.634505 0.937462 0.000000 -0.000000 0.000000
  3 0.000000 -0.642186 73.878502 0.023489 -0.004213 0.036572
  4 0.325039 0.314665 -2.968964 -0.052360 0.000000 -0.000000
  5 6.206746 -0.124160 -11.733650 -0.575452 -0.142152 0.102657
  6 2.955698 1.729843 -23.848043 0.691016 0.004674 0.089535
  7 0.292418 0.418323 -30.938564 0.099954 -0.062994 -0.043396
  8 0.025498 -3.137413 -3.970853 0.000000 -0.000000 0.000000
  9 -6.833119 -0.124160 -11.733650 -0.075259 0.162872 -0.201418
 10 -3.240685 1.520660 -23.848042 0.783579 -0.035338 -0.015597
 11 -0.355303 0.627464 -30.760895 -0.275821 0.005423 -0.004863
 12 0.209673 -3.137415 -4.537351 0.000000 -0.000000 0.000000
 13 -0.336471 18.320860 -10.789921 0.171413 -0.000000 -0.000000
 14 0.011432 14.669048 -0.377853 -0.276955 -0.000000 -0.000000
 15 0.210527 25.621653 6.087189 0.388514 0.000000 -0.000000
 16 0.325039 0.314665 5.117508 -0.284667 -0.052323 -0.166176
 17 -0.409780 2.182661 26.434906 0.338173 0.020102 0.244917
 18 -2.968813 36.066559 32.693207 0.240593 0.003610 -0.042174
 19 -0.380097 -2.640913 16.751846 0.000000 -0.000000 0.000000
 20 7.187249 -0.460707 16.472290 -0.268435 -0.165617 0.407385
 21 12.896105 3.303360 -12.884903 -0.541683 -0.173944 -1.164026
 22 9.818134 -2.393093 -11.768444 -0.280533 0.016352 -0.156232
 23 11.684982 2.308933 -7.513321 -0.000000 -0.000000 0.000000
 24 3.667336 0.402563 -5.537415 0.000000 -0.000000 0.000000
 25 -8.155171 -0.644957 16.761322 -0.501722 0.511437 -0.994113
 26 -12.364456 3.544247 -13.402782 0.081668 0.448228 0.006994
 27 -10.403900 -2.206009 -11.274460 -1.268623 -0.786903 -0.032115
 28 -3.567745 0.641571 -8.254749 0.017454 -0.030513 -0.002688
 29 -16.088993 -105.559013 -25.635803 0.000000 -0.000000 0.000000
 30 -3.127525 0.571327 -6.062382 0.000000 -0.000000 0.000000
 31 -0.040494 -0.674471 8.862854 0.000000 -0.000000 0.000000
 32 0.289211 3.291785 167.749756 0.000000 -0.000000 0.000000
 33 0.000000 0.000000 0.000000 0.000000 -0.000000 0.000000
time 33
  0 -1.005915 2.634505 0.937462 0.000000 -0.000000 0.000000
  1 -1.005915 2.634505 0.937462 0.000000 -0.000000 0.000000
  2 -1.005915 2.634505 0.937462 0.000000 -0.000000 0.000000
  3 0.000000 0.134744 74.082954 0.020235 -0.001941 0.016853
  4 0.325039 0.314666 -2.968964 -0.052360 0.000000 0.000000
  5 6.206746 -0.124160 -11.733646 -0.592086 -0.130075 0.108265
  6 2.955697 1.729847 -23.848036 0.669837 0.014279 0.077956
  7 0.292418 0.418324 -30.938560 0.099954 -0.062994 -0.043396
  8 0.025497 -3.137413 -3.970852 0.000000 -0.000000 0.000000
  9 -6.833119 -0.124160 -11.733650 -0.047756 0.152450 -0.193923
 10 -3.240683 1.520660 -23.848042 0.775150 -0.016285 -0.007188
 11 -0.355301 0.627468 -30.760895 -0.287082 0.002499 -0.002241
 12 0.209671 -3.137415 -4.537352 0.000000 -0.000000 0.000000
 13 -0.336471 18.320856 -10.789917 0.163619 -0.000000 -0.000000
 14 0.011432 14.669044 -0.377846 -0.287671 -0.000000 -0.000000
 15 0.210528 25.621651 6.087189 0.367158 0.000000 -0.000000
 16 0.325039 0.314666 5.117508 -0.291110 -0.053782 -0.184104
 17 -0.409779 2.182659 26.434906 0.338502 0.017164 0.264309
 18 -2.968811 36.066559 32.693222 0.240593 0.003610 -0.042174
 19 -0.380097 -2.640915 16.751854 0.000000 -0.000000 0.000000
 20 7.187250 -0.460705 16.472290 -0.255417 -0.160661 0.368465
 21 12.896107 3.303368 -12.884903 -0.548359 -0.170714 -1.174053
 22 9.818130 -2.393091 -11.768444 -0.280533 0.016352 -0.156232
 23 11.684982 2.308929 -7.513317 0.000000 -0.000000 0.000000
 24 3.667328 0.402563 -5.537418 0.000000 -0.000000 0.000000
 25 -8.155170 -0.644957 16.761322 -0.527915 0.486442 -1.058670
 26 -12.364456 3.544243 -13.402786 0.083367 0.463574 0.008579
 27 -10.403908 -2.206005 -11.274464 -1.330338 -0.823935 0.005790
 28 -3.567741 0.641571 -8.254749 0.015827 -0.016444 0.003436
 29 -16.088997 -105.559052 -25.635822 0.000000 -0.000000 0.000000
 30 -3.127522 0.571327 -6.062374 0.000000 -0.000000 0.000000
 31 -0.040494 -0.674471 8.862854 0.000000 -0.000000 0.000000
 32 0.289211 3.291785 167.749756 0.000000 -0.000000 0.000000
 33 0.000000 0.000000 0.000000 0.000000 -0.000000 0.000000
time 34
  0 -1.005915 2.634505 0.937462 0.000000 -0.000000 0.000000
  1 -1.005915 2.634505 0.937462 0.000000 -0.000000 0.000000
  2 -1.005915 2.634505 0.937462 0.000000 -0.000000 0.000000
  3 0.000000 0.626860 74.212463 0.018173 -0.000503 0.004363
  4 0.325039 0.314665 -2.968971 -0.052360 -0.000000 -0.000000
  5 6.206747 -0.124160 -11.733646 -0.602623 -0.122426 0.111817
  6 2.955697 1.729849 -23.848042 0.656422 0.020362 0.068454
  7 0.292417 0.418323 -30.938564 0.099954 -0.062994 -0.043396
  8 0.025498 -3.137413 -3.970853 0.000000 -0.000000 0.000000
  9 -6.833120 -0.124160 -11.733646 -0.030336 0.144869 -0.189175
 10 -3.240685 1.520660 -23.848042 0.769810 -0.004216 -0.001861
 11 -0.355303 0.627466 -30.760893 -0.294215 0.000647 -0.000580
 12 0.209673 -3.137417 -4.537351 0.000000 -0.000000 0.000000
 13 -0.336471 18.320858 -10.789917 0.158757 -0.000000 0.000000
 14 0.011432 14.669048 -0.377850 -0.294384 -0.000000 -0.000000
 15 0.210528 25.621655 6.087189 0.353729 0.000000 -0.000000
 16 0.325039 0.314665 5.117508 -0.295191 -0.054707 -0.195460
 17 -0.409778 2.182661 26.434914 0.338710 0.014554 0.276591
 18 -2.968812 36.066566 32.693230 0.240593 0.003610 -0.042174
 19 -0.380096 -2.640911 16.751846 0.000000 -0.000000 0.000000
 20 7.187249 -0.460703 16.472290 -0.243654 -0.157009 0.335385
 21 12.896107 3.303360 -12.884911 -0.552587 -0.167213 -1.180404
 22 9.818123 -2.393091 -11.768448 -0.280533 0.016352 -0.156232
 23 11.684982 2.308933 -7.513321 -0.000000 -0.000000 0.000000
 24 3.667336 0.402563 -5.537418 0.000000 -0.000000 0.000000
 25 -8.155170 -0.644957 16.761322 -0.544506 0.463607 -1.099561
 26 -12.364450 3.544243 -13.402786 0.084443 0.473294 0.009583
 27 -10.403900 -2.206013 -11.274456 -1.369429 -0.847391 0.034417
 28 -3.567749 0.641579 -8.254753 0.014809 -0.007653 0.007263
 29 -16.089016 -105.559059 -25.635803 0.000000 -0.000000 0.000000
 30 -3.127529 0.571327 -6.062378 0.000000 -0.000000 0.000000
 31 -0.040494 -0.674469 8.862854 0.000000 -0.000000 0.000000
 32 0.289211 3.291785 167.749756 0.000000 -0.000000 0.000000
 33 0.000000 0.000000 0.000000 0.000000 -0.000000 0.000000
time 35
  0 -1.005915 2.634505 0.937462 0.000000 -0.000000 0.000000
  1 -1.005915 2.634505 0.937462 0.000000 -0.000000 0.000000
  2 -1.005915 2.634505 0.937462 0.000000 -0.000000 0.000000
  3 0.000000 0.798765 74.257698 0.017453 -0.000000 0.000000
  4 0.325039 0.314665 -2.968964 -0.052360 0.000000 0.000000
  5 6.206746 -0.124160 -11.733646 -0.606304 -0.119753 0.113058
  6 2.955699 1.729847 -23.848040 0.651736 0.022488 0.061322
  7 0.292418 0.418324 -30.938560 0.099954 -0.062994 -0.043396
  8 0.025497 -3.137413 -3.970852 0.000000 -0.000000 0.000000
  9 -6.833119 -0.124160 -11.733646 -0.024251 0.140499 -0.187517
 10 -3.240683 1.520659 -23.848042 0.767945 0.000000 -0.000000
 11 -0.355305 0.627464 -30.760897 -0.296706 -0.000000 0.000000
 12 0.209675 -3.137413 -4.537352 0.000000 -0.000000 0.000000
 13 -0.336471 18.320860 -10.789921 0.157080 -0.000000 -0.000000
 14 0.011432 14.669043 -0.377853 -0.296707 -0.000000 -0.000000
 15 0.210528 25.621645 6.087189 0.349066 0.000000 -0.000000
 16 0.325039 0.314665 5.117516 -0.296617 -0.055029 -0.199427
 17 -0.409778 2.182663 26.434914 0.338783 0.012324 0.280882
 18 -2.968811 36.066582 32.693230 0.240593 0.003610 -0.042174
 19 -0.380096 -2.640913 16.751846 0.000000 -0.000000 0.000000
 20 7.187250 -0.460703 16.472290 -0.233362 -0.154832 0.309014
 21 12.896107 3.303368 -12.884911 -0.554064 -0.163431 -1.182623
 22 9.818130 -2.393095 -11.768452 -0.280533 0.016352 -0.156232
 23 11.684982 2.308929 -7.513313 0.000000 -0.000000 0.000000
 24 3.667336 0.402559 -5.537415 0.000000 -0.000000 0.000000
 25 -8.155171 -0.644951 16.761314 -0.550301 0.443317 -1.113845
 26 -12.364458 3.544247 -13.402779 0.084819 0.476689 0.009933
 27 -10.403893 -2.206009 -11.274462 -1.383084 -0.855585 0.052537
 28 -3.567749 0.641571 -8.254753 0.014458 -0.004616 0.008584
 29 -16.088993 -105.559036 -25.635792 0.000000 -0.000000 0.000000
 30 -3.127525 0.571335 -6.062378 0.000000 -0.000000 0.000000
 31 -0.040493 -0.674471 8.862854 0.000000 -0.000000 0.000000
 32 0.289211 3.291785 167.749756 0.000000 -0.000000 0.000000
 33 0.000000 0.000000 0.000000 0.000000 -0.000000 0.000000
end
