version 1
nodes
  0 "bone24"  -1
  1 "bone25"  -1
  2 "bone35"  -1
  3 "bone21"   2
  4 "bone20"   3
  5 "bone16"   4
  6 "bone17"   5
  7 "bone19"   6
  8 "bone26"   7
  9 "bone05"   4
 10 "bone22"   9
 11 "bone18"  10
 12 "bone27"  11
 13 "bone14"   4
 14 "bone12"  13
 15 "bone15"  14
 16 "bone02"   3
 17 "bone03"  16
 18 "bone09"  17
 19 "bone28"  17
 20 "bone01"  16
 21 "bone08"  20
 22 "bone11"  21
 23 "bone10"  22
 24 "bone29"  22
 25 "bone07"  16
 26 "bone04"  25
 27 "bone06"  26
 28 "bone13"  27
 29 "bone30"  28
 30 "bone31"  27
 31 "bone32"  16
 32 "bone33"   2
 33 "bone34"   2
end
skeleton
time 0
  0 -1.005915 2.634505 0.937462 0.000000 -0.000000 0.000000
  1 -1.005915 2.634505 0.937462 0.000000 -0.000000 0.000000
  2 -1.005915 2.634505 0.937462 0.000000 -0.000000 0.000000
  3 0.000000 0.798765 65.000000 0.314159 -0.000000 0.000000
  4 0.325039 0.314667 -2.968964 -0.139626 0.000000 0.000000
  5 6.206746 -0.124159 -11.733646 -0.378549 -0.142079 0.083197
  6 2.955698 1.729848 -23.848045 1.357179 0.000068 -0.051241
  7 0.292416 0.418285 -30.938553 0.291190 -0.081712 -0.068666
  8 0.025500 -3.137419 -3.970850 0.000000 -0.000000 0.000000
  9 -6.833119 -0.124160 -11.733646 -1.203011 -0.122443 -0.199695
 10 -3.240686 1.520660 -23.848038 0.513995 -0.052104 -0.030748
 11 -0.355301 0.627476 -30.760893 -0.671565 -0.084622 0.025759
 12 0.209673 -3.137411 -4.537350 0.000000 -0.000000 0.000000
 13 -0.336471 18.320862 -10.789917 0.166411 0.056564 0.326928
 14 0.011433 14.669044 -0.377850 -0.296707 -0.000000 0.000000
 15 0.210530 25.621647 6.087196 0.349066 0.000000 0.000000
 16 0.325039 0.314667 5.117516 0.102303 0.048339 -0.043279
 17 -0.409779 2.182657 26.434921 -0.266731 -0.060075 0.083965
 18 -2.968821 36.066578 32.693222 0.240593 0.003610 -0.042174
 19 -0.380096 -2.640918 16.751854 0.000000 -0.000000 0.000000
 20 7.187250 -0.460707 16.472305 0.287005 -0.647671 -1.692482
 21 12.896109 3.303366 -12.884903 -0.284066 -0.217606 -0.842265
 22 9.818134 -2.393084 -11.768440 -0.280533 0.016352 -0.156232
 23 11.684990 2.308937 -7.513317 -0.000000 -0.000000 0.000000
 24 3.667336 0.402560 -5.537411 0.000000 -0.000000 0.000000
 25 -8.155173 -0.644958 16.761330 0.635232 0.268259 -0.131189
 26 -12.364460 3.544250 -13.402786 0.118182 0.069141 -0.356956
 27 -10.403900 -2.206013 -11.274462 -0.437913 0.127524 0.204234
 28 -3.567749 0.641575 -8.254753 -0.658055 0.581084 -0.068083
 29 -16.088943 -105.559036 -25.635811 0.000000 -0.000000 0.000000
 30 -3.127525 0.571327 -6.062380 0.000000 -0.000000 0.000000
 31 -0.040494 -0.674473 8.862854 0.000000 -0.000000 0.000000
 32 0.289211 3.291785 167.749756 0.000000 -0.000000 0.000000
 33 0.000000 0.000000 0.000000 0.000000 -0.000000 0.000000
time 1
  0 -1.005915 2.634505 0.937462 0.000000 -0.000000 0.000000
  1 -1.005915 2.634505 0.937462 0.000000 -0.000000 0.000000
  2 -1.005915 2.634505 0.937462 0.000000 -0.000000 0.000000
  3 0.000000 0.798765 66.970268 0.314159 -0.000000 0.000000
  4 0.325039 0.314665 -2.968960 -0.139626 0.000000 0.000000
  5 6.206746 -0.124160 -11.733643 -0.384472 -0.141310 0.083750
  6 2.955699 1.729845 -23.848042 1.351199 0.000326 -0.050310
  7 0.292418 0.418289 -30.938549 0.287134 -0.081225 -0.068219
  8 0.025497 -3.137419 -3.970852 0.000000 -0.000000 0.000000
  9 -6.833119 -0.124160 -11.733646 -1.197326 -0.121143 -0.199881
 10 -3.240686 1.520660 -23.848042 0.520054 -0.051166 -0.029719
 11 -0.355302 0.627476 -30.760902 -0.671356 -0.084577 0.025709
 12 0.209672 -3.137411 -4.537348 0.000000 -0.000000 0.000000
 13 -0.336471 18.320858 -10.789913 0.166752 0.055604 0.321334
 14 0.011433 14.669044 -0.377853 -0.295833 0.006641 0.019559
 15 0.210528 25.621643 6.087185 0.349086 0.000374 0.010811
 16 0.325039 0.310003 5.103165 0.101538 0.048304 -0.044066
 17 -0.409779 2.182657 26.434914 -0.265880 -0.060621 0.083706
 18 -2.975587 36.068077 32.418358 0.240593 0.003610 -0.042174
 19 -0.380095 -2.640915 16.751854 0.000000 -0.000000 0.000000
 20 7.187249 -0.460707 16.472298 0.285682 -0.658606 -1.687849
 21 12.896107 3.303362 -12.884903 -0.288836 -0.223943 -0.841674
 22 9.818136 -2.393082 -11.768444 -0.280533 0.016352 -0.156232
 23 11.684986 2.308940 -7.513309 -0.000000 -0.000000 0.000000
 24 3.667336 0.402566 -5.537411 0.000000 -0.000000 0.000000
 25 -8.155172 -0.644958 16.761330 0.634113 0.268048 -0.134471
 26 -12.364464 3.544235 -13.402786 0.117926 0.064926 -0.358083
 27 -10.403900 -2.206009 -11.274464 -0.437913 0.127524 0.204234
 28 -3.567741 0.641571 -8.254757 -0.658055 0.581084 -0.068083
 29 -16.088951 -105.559059 -25.635782 0.000000 -0.000000 0.000000
 30 -3.127518 0.571331 -6.062378 0.000000 -0.000000 0.000000
 31 -0.040494 -0.674471 8.862862 0.000000 -0.000000 0.000000
 32 0.289211 3.291785 167.749756 0.000000 -0.000000 0.000000
 33 0.000000 0.000000 0.000000 0.000000 -0.000000 0.000000
time 2
  0 -1.005915 2.634505 0.937462 0.000000 -0.000000 0.000000
  1 -1.005915 2.634505 0.937462 0.000000 -0.000000 0.000000
  2 -1.005915 2.634505 0.937462 0.000000 -0.000000 0.000000
  3 0.000000 0.798765 68.667450 0.314159 -0.000000 0.000000
  4 0.325039 0.314665 -2.968967 -0.139626 0.000000 0.000000
  5 6.206746 -0.124159 -11.733650 -0.401431 -0.139106 0.085332
  6 2.955699 1.729852 -23.848042 1.334074 0.001054 -0.047644
  7 0.292418 0.418282 -30.938551 0.275518 -0.079831 -0.066940
  8 0.025497 -3.137421 -3.970854 0.000000 -0.000000 0.000000
  9 -6.833118 -0.124159 -11.733650 -1.181045 -0.117421 -0.200414
 10 -3.240685 1.520660 -23.848038 0.537403 -0.048479 -0.026771
 11 -0.355301 0.627474 -30.760902 -0.670740 -0.084447 0.025568
 12 0.209672 -3.137411 -4.537348 0.000000 -0.000000 0.000000
 13 -0.336471 18.320862 -10.789921 0.167125 0.052857 0.305332
 14 0.011434 14.669041 -0.377861 -0.293651 0.023222 0.068397
 15 0.210527 25.621643 6.087185 0.349146 0.001360 0.039379
 16 0.325039 0.296740 5.062347 0.099335 0.048201 -0.044784
 17 -0.409779 2.182659 26.434929 -0.263452 -0.061110 0.083471
 18 -2.994113 36.072868 31.666039 0.240593 0.003610 -0.042174
 19 -0.380095 -2.640915 16.751854 0.000000 -0.000000 0.000000
 20 7.187249 -0.460707 16.472305 0.281868 -0.668708 -1.674494
 21 12.896116 3.303360 -12.884911 -0.294016 -0.230451 -0.839968
 22 9.818134 -2.393084 -11.768448 -0.280533 0.016352 -0.156232
 23 11.684986 2.308938 -7.513317 -0.000000 -0.000000 0.000000
 24 3.667336 0.402564 -5.537415 0.000000 -0.000000 0.000000
 25 -8.155173 -0.644958 16.761330 0.630963 0.267454 -0.137554
 26 -12.364460 3.544243 -13.402786 0.117193 0.061082 -0.359116
 27 -10.403900 -2.206013 -11.274458 -0.437913 0.127524 0.204234
 28 -3.567749 0.641571 -8.254753 -0.658055 0.581084 -0.068083
 29 -16.088974 -105.559052 -25.635805 0.000000 -0.000000 0.000000
 30 -3.127525 0.571331 -6.062382 0.000000 -0.000000 0.000000
 31 -0.040495 -0.674471 8.862869 0.000000 -0.000000 0.000000
 32 0.289211 3.291785 167.749756 0.000000 -0.000000 0.000000
 33 0.000000 0.000000 0.000000 0.000000 -0.000000 0.000000
time 3
  0 -1.005915 2.634505 0.937462 0.000000 -0.000000 0.000000
  1 -1.005915 2.634505 0.937462 0.000000 -0.000000 0.000000
  2 -1.005915 2.634505 0.937462 0.000000 -0.000000 0.000000
  3 0.000000 0.798765 70.111420 0.314159 -0.000000 0.000000
  4 0.325039 0.314665 -2.968967 -0.139626 0.000000 0.000000
  5 6.206746 -0.124161 -11.733646 -0.428216 -0.135625 0.087831
  6 2.955698 1.729846 -23.848047 1.307029 0.002201 -0.043433
  7 0.292416 0.418283 -30.938545 0.257173 -0.077628 -0.064920
  8 0.025498 -3.137419 -3.970858 0.000000 -0.000000 0.000000
  9 -6.833119 -0.124161 -11.733650 -1.155332 -0.111542 -0.201256
 10 -3.240685 1.520660 -23.848034 0.564805 -0.044237 -0.022116
 11 -0.355303 0.627472 -30.760893 -0.669735 -0.084233 0.025348
 12 0.209673 -3.137411 -4.537350 0.000000 -0.000000 0.000000
 13 -0.336471 18.320858 -10.789917 0.167525 0.048524 0.280089
 14 0.011432 14.669044 -0.377850 -0.290820 0.044735 0.131760
 15 0.210526 25.621647 6.087189 0.349243 0.002759 0.079905
 16 0.325039 0.275970 4.998421 0.095830 0.048038 -0.045437
 17 -0.409779 2.182659 26.434921 -0.259633 -0.061545 0.083259
 18 -3.021724 36.081413 30.544601 0.240593 0.003610 -0.042174
 19 -0.380096 -2.640912 16.751854 0.000000 -0.000000 0.000000
 20 7.187249 -0.460705 16.472298 0.275795 -0.678010 -1.653230
 21 12.896109 3.303360 -12.884911 -0.299554 -0.237090 -0.837245
 22 9.818134 -2.393082 -11.768440 -0.280533 0.016352 -0.156232
 23 11.684986 2.308945 -7.513321 -0.000000 -0.000000 0.000000
 24 3.667336 0.402564 -5.537422 0.000000 -0.000000 0.000000
 25 -8.155172 -0.644955 16.761337 0.626093 0.266536 -0.140435
 26 -12.364452 3.544235 -13.402786 0.116031 0.057594 -0.360059
 27 -10.403893 -2.206009 -11.274458 -0.437913 0.127524 0.204234
 28 -3.567741 0.641571 -8.254749 -0.658055 0.581084 -0.068083
 29 -16.088921 -105.559029 -25.635801 0.000000 -0.000000 0.000000
 30 -3.127525 0.571327 -6.062372 0.000000 -0.000000 0.000000
 31 -0.040494 -0.674471 8.862862 0.000000 -0.000000 0.000000
 32 0.289211 3.291785 167.749756 0.000000 -0.000000 0.000000
 33 0.000000 0.000000 0.000000 0.000000 -0.000000 0.000000
time 4
  0 -1.005915 2.634505 0.937462 0.000000 -0.000000 0.000000
  1 -1.005915 2.634505 0.937462 0.000000 -0.000000 0.000000
  2 -1.005915 2.634505 0.937462 0.000000 -0.000000 0.000000
  3 0.000000 0.798765 71.322044 0.314159 -0.000000 0.000000
  4 0.325039 0.314663 -2.968964 -0.139626 0.000000 0.000000
  5 6.206747 -0.124159 -11.733650 -0.463616 -0.131024 0.091134
  6 2.955698 1.729845 -23.848042 1.271286 0.003716 -0.037868
  7 0.292418 0.418280 -30.938540 0.232928 -0.074717 -0.062251
  8 0.025497 -3.137419 -3.970850 0.000000 -0.000000 0.000000
  9 -6.833118 -0.124159 -11.733650 -1.121351 -0.103772 -0.202369
 10 -3.240685 1.520660 -23.848040 0.601019 -0.038630 -0.015964
 11 -0.355300 0.627480 -30.760897 -0.668358 -0.083941 0.025062
 12 0.209673 -3.137409 -4.537350 0.000000 -0.000000 0.000000
 13 -0.336471 18.320858 -10.789921 0.167946 0.042805 0.246775
 14 0.011433 14.669041 -0.377853 -0.288000 0.066170 0.194892
 15 0.210526 25.621647 6.087189 0.349375 0.004371 0.126591
 16 0.325039 0.248779 4.914742 0.091160 0.047821 -0.046028
 17 -0.409779 2.182659 26.434914 -0.254611 -0.061929 0.083069
 18 -3.055756 36.094151 29.162437 0.240593 0.003610 -0.042174
 19 -0.380095 -2.640915 16.751854 0.000000 -0.000000 0.000000
 20 7.187249 -0.460709 16.472298 0.267696 -0.686544 -1.624870
 21 12.896107 3.303362 -12.884918 -0.305396 -0.243823 -0.833603
 22 9.818134 -2.393082 -11.768440 -0.280533 0.016352 -0.156232
 23 11.684984 2.308942 -7.513321 0.000000 -0.000000 0.000000
 24 3.667337 0.402563 -5.537415 0.000000 -0.000000 0.000000
 25 -8.155172 -0.644960 16.761322 0.619815 0.265352 -0.143109
 26 -12.364456 3.544235 -13.402782 0.114490 0.054443 -0.360918
 27 -10.403900 -2.206009 -11.274456 -0.437913 0.127524 0.204234
 28 -3.567749 0.641575 -8.254749 -0.658055 0.581084 -0.068083
 29 -16.088921 -105.559021 -25.635820 0.000000 -0.000000 0.000000
 30 -3.127525 0.571327 -6.062378 0.000000 -0.000000 0.000000
 31 -0.040495 -0.674471 8.862862 0.000000 -0.000000 0.000000
 32 0.289211 3.291785 167.749756 0.000000 -0.000000 0.000000
 33 0.000000 0.000000 0.000000 0.000000 -0.000000 0.000000
time 5
  0 -1.005915 2.634505 0.937462 0.000000 -0.000000 0.000000
  1 -1.005915 2.634505 0.937462 0.000000 -0.000000 0.000000
  2 -1.005915 2.634505 0.937462 0.000000 -0.000000 0.000000
  3 0.000000 0.798765 72.319214 0.314159 -0.000000 0.000000
  4 0.325039 0.314665 -2.968964 -0.139626 0.000000 0.000000
  5 6.206747 -0.124161 -11.733650 -0.506417 -0.125462 0.095127
  6 2.955696 1.729847 -23.848045 1.228070 0.005546 -0.031140
  7 0.292416 0.418280 -30.938545 0.203614 -0.071198 -0.059023
  8 0.025497 -3.137419 -3.970850 0.000000 -0.000000 0.000000
  9 -6.833118 -0.124159 -11.733650 -1.080263 -0.094377 -0.203715
 10 -3.240685 1.520660 -23.848038 0.644805 -0.031851 -0.008525
 11 -0.355302 0.627472 -30.760895 -0.666627 -0.083574 0.024724
 12 0.209672 -3.137411 -4.537348 0.000000 -0.000000 0.000000
 13 -0.336471 18.320858 -10.789921 0.168383 0.035902 0.206558
 14 0.011433 14.669041 -0.377857 -0.285849 0.082517 0.243038
 15 0.210526 25.621655 6.087189 0.349539 0.005996 0.173640
 16 0.325039 0.216259 4.814651 0.085461 0.047556 -0.046560
 17 -0.409779 2.182659 26.434914 -0.248573 -0.062265 0.082900
 18 -3.093541 36.111542 27.627892 0.240593 0.003610 -0.042174
 19 -0.380095 -2.640917 16.751862 0.000000 -0.000000 0.000000
 20 7.187249 -0.460705 16.472298 0.257803 -0.694343 -1.590229
 21 12.896107 3.303362 -12.884903 -0.311490 -0.250614 -0.829141
 22 9.818134 -2.393087 -11.768456 -0.280533 0.016352 -0.156232
 23 11.684986 2.308937 -7.513306 -0.000000 -0.000000 0.000000
 24 3.667336 0.402561 -5.537407 0.000000 -0.000000 0.000000
 25 -8.155172 -0.644955 16.761330 0.612438 0.263962 -0.145572
 26 -12.364456 3.544235 -13.402782 0.112620 0.051613 -0.361694
 27 -10.403900 -2.206017 -11.274460 -0.437913 0.127524 0.204234
 28 -3.567741 0.641575 -8.254753 -0.658055 0.581084 -0.068083
 29 -16.088936 -105.559036 -25.635828 0.000000 -0.000000 0.000000
 30 -3.127525 0.571331 -6.062376 0.000000 -0.000000 0.000000
 31 -0.040494 -0.674471 8.862862 0.000000 -0.000000 0.000000
 32 0.289211 3.291785 167.749756 0.000000 -0.000000 0.000000
 33 0.000000 0.000000 0.000000 0.000000 -0.000000 0.000000
time 6
  0 -1.005915 2.634505 0.937462 0.000000 -0.000000 0.000000
  1 -1.005915 2.634505 0.937462 0.000000 -0.000000 0.000000
  2 -1.005915 2.634505 0.937462 0.000000 -0.000000 0.000000
  3 0.000000 0.798765 73.122787 0.314159 -0.000000 0.000000
  4 0.325039 0.314665 -2.968964 -0.139626 0.000000 0.000000
  5 6.206747 -0.124159 -11.733650 -0.555409 -0.119095 0.099699
  6 2.955698 1.729850 -23.848042 1.178602 0.007639 -0.023438
  7 0.292416 0.418283 -30.938553 0.170059 -0.067169 -0.055329
  8 0.025497 -3.137415 -3.970854 0.000000 -0.000000 0.000000
  9 -6.833118 -0.124159 -11.733650 -1.033233 -0.083624 -0.205255
 10 -3.240684 1.520657 -23.848036 0.694924 -0.024092 -0.000010
 11 -0.355303 0.627470 -30.760893 -0.664558 -0.083135 0.024345
 12 0.209674 -3.137413 -4.537349 0.000000 -0.000000 0.000000
 13 -0.336471 18.320862 -10.789921 0.168831 0.028014 0.160608
 14 0.011433 14.669041 -0.377853 -0.285026 0.088771 0.261460
 15 0.210527 25.621651 6.087189 0.349733 0.007433 0.215253
 16 0.325039 0.179499 4.701515 0.078870 0.047250 -0.047036
 17 -0.409779 2.182659 26.434914 -0.241705 -0.062557 0.082750
 18 -3.132407 36.134052 26.049301 0.240593 0.003610 -0.042174
 19 -0.380095 -2.640912 16.751846 0.000000 -0.000000 0.000000
 20 7.187249 -0.460705 16.472290 0.246349 -0.701439 -1.550121
 21 12.896111 3.303360 -12.884911 -0.317785 -0.257425 -0.823957
 22 9.818136 -2.393085 -11.768440 -0.280533 0.016352 -0.156232
 23 11.684986 2.308941 -7.513306 0.000000 -0.000000 0.000000
 24 3.667336 0.402562 -5.537407 0.000000 -0.000000 0.000000
 25 -8.155172 -0.644955 16.761330 0.604274 0.262423 -0.147822
 26 -12.364456 3.544243 -13.402779 0.110470 0.049086 -0.362394
 27 -10.403900 -2.206009 -11.274460 -0.437913 0.127524 0.204234
 28 -3.567749 0.641579 -8.254757 -0.658055 0.581084 -0.068083
 29 -16.088913 -105.559021 -25.635822 0.000000 -0.000000 0.000000
 30 -3.127525 0.571331 -6.062382 0.000000 -0.000000 0.000000
 31 -0.040494 -0.674469 8.862854 0.000000 -0.000000 0.000000
 32 0.289211 3.291785 167.749756 0.000000 -0.000000 0.000000
 33 0.000000 0.000000 0.000000 0.000000 -0.000000 0.000000
time 7
  0 -1.005915 2.634505 0.937462 0.000000 -0.000000 0.000000
  1 -1.005915 2.634505 0.937462 0.000000 -0.000000 0.000000
  2 -1.005915 2.634505 0.937462 0.000000 -0.000000 0.000000
  3 0.000000 0.798765 73.752647 0.314159 -0.000000 0.000000
  4 0.325039 0.314665 -2.968971 -0.139626 0.000000 0.000000
  5 6.206746 -0.124161 -11.733650 -0.609380 -0.112081 0.104734
  6 2.955698 1.729845 -23.848045 1.124107 0.009945 -0.014953
  7 0.292418 0.418285 -30.938551 0.133094 -0.062731 -0.051259
  8 0.025496 -3.137417 -3.970852 0.000000 -0.000000 0.000000
  9 -6.833119 -0.124159 -11.733650 -0.981423 -0.071778 -0.206952
 10 -3.240685 1.520660 -23.848034 0.750137 -0.015544 0.009370
 11 -0.355305 0.627473 -30.760897 -0.662171 -0.082629 0.023939
 12 0.209672 -3.137411 -4.537350 0.000000 -0.000000 0.000000
 13 -0.336471 18.320858 -10.789921 0.169283 0.019343 0.110092
 14 0.011433 14.669044 -0.377853 -0.285028 0.086843 0.255785
 15 0.210525 25.621651 6.087189 0.349953 0.008482 0.245633
 16 0.325039 0.139589 4.578682 0.071523 0.046908 -0.047459
 17 -0.409779 2.182661 26.434914 -0.234194 -0.062808 0.082618
 18 -3.169692 36.162098 24.535042 0.240593 0.003610 -0.042174
 19 -0.380095 -2.640916 16.751846 0.000000 -0.000000 0.000000
 20 7.187249 -0.460707 16.472290 0.233566 -0.707864 -1.505358
 21 12.896111 3.303360 -12.884911 -0.324227 -0.264219 -0.818150
 22 9.818136 -2.393082 -11.768448 -0.280533 0.016352 -0.156232
 23 11.684982 2.308938 -7.513313 0.000000 -0.000000 0.000000
 24 3.667336 0.402563 -5.537407 0.000000 -0.000000 0.000000
 25 -8.155170 -0.644955 16.761322 0.595635 0.260794 -0.149853
 26 -12.364456 3.544235 -13.402786 0.108090 0.046846 -0.363019
 27 -10.403900 -2.206009 -11.274464 -0.437913 0.127524 0.204234
 28 -3.567749 0.641579 -8.254753 -0.658055 0.581084 -0.068083
 29 -16.088936 -105.559036 -25.635803 0.000000 -0.000000 0.000000
 30 -3.127525 0.571335 -6.062374 0.000000 -0.000000 0.000000
 31 -0.040494 -0.674469 8.862854 0.000000 -0.000000 0.000000
 32 0.289211 3.291785 167.749756 0.000000 -0.000000 0.000000
 33 0.000000 0.000000 0.000000 0.000000 -0.000000 0.000000
time 8
  0 -1.005915 2.634505 0.937462 0.000000 -0.000000 0.000000
  1 -1.005915 2.634505 0.937462 0.000000 -0.000000 0.000000
  2 -1.005915 2.634505 0.937462 0.000000 -0.000000 0.000000
  3 0.000000 0.798765 74.228661 0.314159 -0.000000 0.000000
  4 0.325039 0.314665 -2.968971 -0.139626 0.000000 0.000000
  5 6.206747 -0.124159 -11.733650 -0.667118 -0.104577 0.110121
  6 2.955700 1.729847 -23.848047 1.065808 0.012412 -0.005876
  7 0.292416 0.418291 -30.938557 0.093550 -0.057983 -0.046905
  8 0.025497 -3.137417 -3.970854 0.000000 -0.000000 0.000000
  9 -6.833118 -0.124161 -11.733650 -0.925996 -0.059105 -0.208767
 10 -3.240685 1.520657 -23.848030 0.809204 -0.006399 0.019405
 11 -0.355305 0.627472 -30.760895 -0.659482 -0.082060 0.023518
 12 0.209673 -3.137411 -4.537351 0.000000 -0.000000 0.000000
 13 -0.336471 18.320860 -10.789921 0.169736 0.010088 0.056179
 14 0.011433 14.669041 -0.377857 -0.285034 0.081600 0.240351
 15 0.210523 25.621651 6.087196 0.350199 0.008943 0.258980
 16 0.325039 0.097620 4.449516 0.063558 0.046538 -0.047833
 17 -0.409779 2.182663 26.434929 -0.226228 -0.063020 0.082504
 18 -3.202723 36.196159 23.193512 0.240593 0.003610 -0.042174
 19 -0.380095 -2.640913 16.751862 0.000000 -0.000000 0.000000
 20 7.187249 -0.460701 16.472298 0.219686 -0.713652 -1.456756
 21 12.896107 3.303364 -12.884903 -0.330764 -0.270958 -0.811819
 22 9.818136 -2.393084 -11.768448 -0.280533 0.016352 -0.156232
 23 11.684986 2.308943 -7.513313 -0.000000 -0.000000 0.000000
 24 3.667336 0.402565 -5.537415 0.000000 -0.000000 0.000000
 25 -8.155172 -0.644957 16.761337 0.586830 0.259135 -0.151662
 26 -12.364460 3.544243 -13.402786 0.105528 0.044875 -0.363576
 27 -10.403908 -2.206013 -11.274460 -0.437913 0.127524 0.204234
 28 -3.567749 0.641579 -8.254753 -0.658055 0.581084 -0.068083
 29 -16.088951 -105.559029 -25.635815 0.000000 -0.000000 0.000000
 30 -3.127525 0.571331 -6.062378 0.000000 -0.000000 0.000000
 31 -0.040494 -0.674471 8.862854 0.000000 -0.000000 0.000000
 32 0.289211 3.291785 167.749756 0.000000 -0.000000 0.000000
 33 0.000000 0.000000 0.000000 0.000000 -0.000000 0.000000
time 9
  0 -1.005915 2.634505 0.937462 0.000000 -0.000000 0.000000
  1 -1.005915 2.634505 0.937462 0.000000 -0.000000 0.000000
  2 -1.005915 2.634505 0.937462 0.000000 -0.000000 0.000000
  3 0.000000 0.798765 74.570709 0.314159 -0.000000 0.000000
  4 0.325039 0.314665 -2.968971 -0.139626 0.000000 0.000000
  5 6.206746 -0.124159 -11.733650 -0.727413 -0.096742 0.115747
  6 2.955697 1.729843 -23.848043 1.004929 0.014987 0.003602
  7 0.292416 0.418289 -30.938557 0.052254 -0.053025 -0.042358
  8 0.025496 -3.137418 -3.970853 0.000000 -0.000000 0.000000
  9 -6.833119 -0.124159 -11.733650 -0.868116 -0.045871 -0.210662
 10 -3.240685 1.520657 -23.848036 0.870885 0.003151 0.029884
 11 -0.355305 0.627473 -30.760895 -0.656508 -0.081430 0.023095
 12 0.209673 -3.137413 -4.537350 0.000000 -0.000000 0.000000
 13 -0.336471 18.320860 -10.789921 0.170182 0.000451 0.000039
 14 0.011433 14.669037 -0.377846 -0.285044 0.073498 0.216506
 15 0.210524 25.621647 6.087189 0.350477 0.008735 0.252708
 16 0.325039 0.054678 4.317352 0.055110 0.046145 -0.048160
 17 -0.409779 2.182663 26.434921 -0.217993 -0.063197 0.082405
 18 -3.228832 36.236687 22.133041 0.240593 0.003610 -0.042174
 19 -0.380096 -2.640912 16.751854 0.000000 -0.000000 0.000000
 20 7.187248 -0.460705 16.472298 0.204942 -0.718834 -1.405127
 21 12.896107 3.303360 -12.884911 -0.337344 -0.277605 -0.805061
 22 9.818138 -2.393085 -11.768440 -0.280533 0.016352 -0.156232
 23 11.684986 2.308939 -7.513313 -0.000000 -0.000000 0.000000
 24 3.667336 0.402565 -5.537407 0.000000 -0.000000 0.000000
 25 -8.155170 -0.644957 16.761330 0.578171 0.257502 -0.153244
 26 -12.364456 3.544250 -13.402779 0.102835 0.043157 -0.364066
 27 -10.403893 -2.206013 -11.274462 -0.437913 0.127524 0.204234
 28 -3.567749 0.641579 -8.254745 -0.658055 0.581084 -0.068083
 29 -16.088936 -105.559029 -25.635815 0.000000 -0.000000 0.000000
 30 -3.127525 0.571327 -6.062374 0.000000 -0.000000 0.000000
 31 -0.040494 -0.674471 8.862862 0.000000 -0.000000 0.000000
 32 0.289211 3.291785 167.749756 0.000000 -0.000000 0.000000
 33 0.000000 0.000000 0.000000 0.000000 -0.000000 0.000000
time 10
  0 -1.005915 2.634505 0.937462 0.000000 -0.000000 0.000000
  1 -1.005915 2.634505 0.937462 0.000000 -0.000000 0.000000
  2 -1.005915 2.634505 0.937462 0.000000 -0.000000 0.000000
  3 0.000000 0.798765 74.798660 0.314159 -0.000000 0.000000
  4 0.325039 0.314665 -2.968964 -0.139626 0.000000 0.000000
  5 6.206746 -0.124159 -11.733650 -0.789051 -0.088731 0.121498
  6 2.955698 1.729851 -23.848047 0.942692 0.017619 0.013292
  7 0.292415 0.418292 -30.938560 0.010038 -0.047956 -0.037710
  8 0.025497 -3.137415 -3.970855 0.000000 -0.000000 0.000000
  9 -6.833119 -0.124159 -11.733650 -0.808946 -0.032342 -0.212600
 10 -3.240685 1.520658 -23.848038 0.933942 0.012913 0.040597
 11 -0.355306 0.627473 -30.760887 -0.653267 -0.080744 0.022682
 12 0.209673 -3.137413 -4.537350 0.000000 -0.000000 0.000000
 13 -0.336471 18.320858 -10.789921 0.170617 -0.009367 -0.057161
 14 0.011433 14.669044 -0.377857 -0.285061 0.062995 0.185594
 15 0.210525 25.621643 6.087189 0.350797 0.008004 0.230693
 16 0.325039 0.011856 4.185562 0.046317 0.045736 -0.048443
 17 -0.409779 2.182659 26.434921 -0.209675 -0.063342 0.082322
 18 -3.245355 36.284111 21.461990 0.240593 0.003610 -0.042174
 19 -0.380095 -2.640914 16.751854 0.000000 -0.000000 0.000000
 20 7.187250 -0.460705 16.472298 0.189567 -0.723444 -1.351286
 21 12.896111 3.303362 -12.884911 -0.343913 -0.284123 -0.797975
 22 9.818138 -2.393084 -11.768448 -0.280533 0.016352 -0.156232
 23 11.684986 2.308939 -7.513313 0.000000 -0.000000 0.000000
 24 3.667332 0.402563 -5.537422 0.000000 -0.000000 0.000000
 25 -8.155172 -0.644958 16.761322 0.569968 0.255956 -0.154597
 26 -12.364460 3.544243 -13.402786 0.100060 0.041673 -0.364495
 27 -10.403900 -2.206013 -11.274464 -0.437913 0.127524 0.204234
 28 -3.567749 0.641571 -8.254745 -0.658055 0.581084 -0.068083
 29 -16.088936 -105.559044 -25.635832 0.000000 -0.000000 0.000000
 30 -3.127525 0.571331 -6.062370 0.000000 -0.000000 0.000000
 31 -0.040494 -0.674471 8.862854 0.000000 -0.000000 0.000000
 32 0.289211 3.291785 167.749756 0.000000 -0.000000 0.000000
 33 0.000000 0.000000 0.000000 0.000000 -0.000000 0.000000
time 11
  0 -1.005915 2.634505 0.937462 0.000000 -0.000000 0.000000
  1 -1.005915 2.634505 0.937462 0.000000 -0.000000 0.000000
  2 -1.005915 2.634505 0.937462 0.000000 -0.000000 0.000000
  3 0.000000 0.798765 74.932396 0.314159 -0.000000 0.000000
  4 0.325039 0.314665 -2.968971 -0.139626 0.000000 0.000000
  5 6.206746 -0.124161 -11.733654 -0.850822 -0.080703 0.127261
  6 2.955698 1.729845 -23.848045 0.880321 0.020256 0.023003
  7 0.292415 0.418298 -30.938564 -0.032269 -0.042877 -0.033052
  8 0.025498 -3.137414 -3.970854 0.000000 -0.000000 0.000000
  9 -6.833119 -0.124161 -11.733654 -0.749648 -0.018784 -0.214542
 10 -3.240685 1.520658 -23.848043 0.997134 0.022697 0.051333
 11 -0.355306 0.627469 -30.760889 -0.649777 -0.080006 0.022293
 12 0.209673 -3.137414 -4.537350 0.000000 -0.000000 0.000000
 13 -0.336471 18.320858 -10.789921 0.171036 -0.019167 -0.114251
 14 0.011433 14.669044 -0.377850 -0.285085 0.050550 0.148961
 15 0.210527 25.621651 6.087189 0.351152 0.006818 0.194980
 16 0.325039 -0.029755 4.057487 0.037315 0.045318 -0.048686
 17 -0.409778 2.182657 26.434906 -0.201464 -0.063459 0.082252
 18 -3.248860 36.347965 21.307922 0.240593 0.003610 -0.042174
 19 -0.380095 -2.640917 16.751862 0.000000 -0.000000 0.000000
 20 7.187249 -0.460707 16.472298 0.173791 -0.727512 -1.296046
 21 12.896118 3.303360 -12.884911 -0.350421 -0.290475 -0.790660
 22 9.818138 -2.393084 -11.768440 -0.280533 0.016352 -0.156232
 23 11.684990 2.308939 -7.513321 0.000000 -0.000000 0.000000
 24 3.667336 0.402563 -5.537415 0.000000 -0.000000 0.000000
 25 -8.155170 -0.644958 16.761322 0.562533 0.254555 -0.155715
 26 -12.364456 3.544243 -13.402786 0.097253 0.040408 -0.364866
 27 -10.403900 -2.206013 -11.274464 -0.437913 0.127524 0.204234
 28 -3.567749 0.641575 -8.254757 -0.658055 0.581084 -0.068083
 29 -16.088951 -105.559067 -25.635794 0.000000 -0.000000 0.000000
 30 -3.127525 0.571331 -6.062382 0.000000 -0.000000 0.000000
 31 -0.040494 -0.674473 8.862854 0.000000 -0.000000 0.000000
 32 0.289211 3.291785 167.749756 0.000000 -0.000000 0.000000
 33 0.000000 0.000000 0.000000 0.000000 -0.000000 0.000000
time 12
  0 -1.005915 2.634505 0.937462 0.000000 -0.000000 0.000000
  1 -1.005915 2.634505 0.937462 0.000000 -0.000000 0.000000
  2 -1.005915 2.634505 0.937462 0.000000 -0.000000 0.000000
  3 0.000000 0.798765 74.991783 0.314159 -0.000000 0.000000
  4 0.325039 0.314665 -2.968971 -0.139626 0.000000 0.000000
  5 6.206747 -0.124159 -11.733646 -0.911514 -0.072816 0.132924
  6 2.955698 1.729847 -23.848043 0.819040 0.022848 0.032544
  7 0.292417 0.418306 -30.938562 -0.073836 -0.037886 -0.028475
  8 0.025497 -3.137413 -3.970852 0.000000 -0.000000 0.000000
  9 -6.833118 -0.124159 -11.733646 -0.691387 -0.005463 -0.216450
 10 -3.240685 1.520657 -23.848040 1.059222 0.032309 0.061881
 11 -0.355309 0.627472 -30.760887 -0.646055 -0.079219 0.021941
 12 0.209672 -3.137414 -4.537353 0.000000 -0.000000 0.000000
 13 -0.336471 18.320862 -10.789921 0.171432 -0.028748 -0.170062
 14 0.011434 14.669044 -0.377857 -0.285116 0.036617 0.107955
 15 0.210528 25.621643 6.087181 0.351534 0.005243 0.147564
 16 0.325039 -0.069071 3.936485 0.028240 0.044896 -0.048892
 17 -0.409779 2.182663 26.434914 -0.193544 -0.063550 0.082194
 18 -3.212907 36.724026 22.355461 0.240593 0.003610 -0.042174
 19 -0.380095 -2.640916 16.751862 0.000000 -0.000000 0.000000
 20 7.187249 -0.460705 16.472298 0.157849 -0.731073 -1.240221
 21 12.896111 3.303358 -12.884911 -0.356813 -0.296624 -0.783215
 22 9.818138 -2.393080 -11.768456 -0.280533 0.016352 -0.156232
 23 11.684986 2.308945 -7.513313 0.000000 -0.000000 0.000000
 24 3.667336 0.402567 -5.537415 0.000000 -0.000000 0.000000
 25 -8.155171 -0.644955 16.761322 0.556177 0.253357 -0.156595
 26 -12.364456 3.544243 -13.402786 0.094462 0.039343 -0.365184
 27 -10.403900 -2.206005 -11.274456 -0.437913 0.127524 0.204234
 28 -3.567749 0.641579 -8.254749 -0.658055 0.581084 -0.068083
 29 -16.088936 -105.559067 -25.635847 0.000000 -0.000000 0.000000
 30 -3.127533 0.571331 -6.062374 0.000000 -0.000000 0.000000
 31 -0.040494 -0.674471 8.862862 0.000000 -0.000000 0.000000
 32 0.289211 3.291785 167.749756 0.000000 -0.000000 0.000000
 33 0.000000 0.000000 0.000000 0.000000 -0.000000 0.000000
time 13
  0 -1.005915 2.634505 0.937462 0.000000 -0.000000 0.000000
  1 -1.005915 2.634505 0.937462 0.000000 -0.000000 0.000000
  2 -1.005915 2.634505 0.937462 0.000000 -0.000000 0.000000
  3 0.000000 0.798765 74.917870 0.314159 -0.000000 0.000000
  4 0.325039 0.314665 -2.968971 -0.139626 0.000000 0.000000
  5 6.206746 -0.124159 -11.733646 -0.969915 -0.065226 0.138373
  6 2.955699 1.729851 -23.848047 0.760072 0.025341 0.041725
  7 0.292418 0.418312 -30.938572 -0.113835 -0.033084 -0.024071
  8 0.025496 -3.137410 -3.970851 0.000000 -0.000000 0.000000
  9 -6.833119 -0.124159 -11.733646 -0.635324 0.007356 -0.218286
 10 -3.240686 1.520657 -23.848038 1.118967 0.041559 0.072031
 11 -0.355307 0.627480 -30.760893 -0.642119 -0.078387 0.021637
 12 0.209673 -3.137414 -4.537350 0.000000 -0.000000 0.000000
 13 -0.336471 18.320860 -10.789913 0.171800 -0.037908 -0.223427
 14 0.011434 14.669044 -0.377853 -0.285157 0.021656 0.063920
 15 0.210528 25.621651 6.087189 0.351936 0.003346 0.090444
 16 0.325039 -0.104996 3.825920 0.019229 0.044477 -0.049064
 17 -0.409779 2.182659 26.434921 -0.186104 -0.063618 0.082148
 18 -3.137683 37.427795 24.558891 0.240593 0.003610 -0.042174
 19 -0.380095 -2.640915 16.751846 0.000000 -0.000000 0.000000
 20 7.187248 -0.460705 16.472298 0.141972 -0.734158 -1.184625
 21 12.896103 3.303358 -12.884911 -0.363039 -0.302531 -0.775737
 22 9.818138 -2.393085 -11.768440 -0.280533 0.016352 -0.156232
 23 11.684986 2.308939 -7.513321 -0.000000 -0.000000 0.000000
 24 3.667336 0.402565 -5.537415 0.000000 -0.000000 0.000000
 25 -8.155170 -0.644957 16.761322 0.551210 0.252420 -0.157233
 26 -12.364456 3.544235 -13.402786 0.091738 0.038462 -0.365451
 27 -10.403900 -2.206013 -11.274460 -0.437913 0.127524 0.204234
 28 -3.567749 0.641575 -8.254749 -0.658055 0.581084 -0.068083
 29 -16.088966 -105.559052 -25.635817 0.000000 -0.000000 0.000000
 30 -3.127525 0.571331 -6.062374 0.000000 -0.000000 0.000000
 31 -0.040494 -0.674471 8.862862 0.000000 -0.000000 0.000000
 32 0.289211 3.291785 167.749756 0.000000 -0.000000 0.000000
 33 0.000000 0.000000 0.000000 0.000000 -0.000000 0.000000
time 14
  0 -1.005915 2.634505 0.937462 0.000000 -0.000000 0.000000
  1 -1.005915 2.634505 0.937462 0.000000 -0.000000 0.000000
  2 -1.005915 2.634505 0.937462 0.000000 -0.000000 0.000000
  3 0.000000 0.798765 74.105072 0.314159 -0.000000 0.000000
  4 0.325039 0.314665 -2.968971 -0.139626 0.000000 0.000000
  5 6.206747 -0.124161 -11.733650 -1.024814 -0.058092 0.143495
  6 2.955699 1.729851 -23.848045 0.704641 0.027685 0.050355
  7 0.292418 0.418310 -30.938566 -0.151435 -0.028569 -0.019931
  8 0.025496 -3.137413 -3.970851 0.000000 -0.000000 0.000000
  9 -6.833118 -0.124161 -11.733650 -0.582624 0.019406 -0.220012
 10 -3.240686 1.520658 -23.848042 1.175129 0.050254 0.081572
 11 -0.355309 0.627478 -30.760887 -0.637986 -0.077514 0.021396
 12 0.209675 -3.137415 -4.537351 0.000000 -0.000000 0.000000
 13 -0.336471 18.320860 -10.789921 0.172136 -0.046448 -0.273176
 14 0.011433 14.669044 -0.377857 -0.285207 0.006124 0.018202
 15 0.210529 25.621643 6.087189 0.352352 0.001193 0.025615
 16 0.325039 -0.136440 3.729141 0.010418 0.044067 -0.049204
 17 -0.409780 2.182659 26.434921 -0.179329 -0.063667 0.082113
 18 -3.039813 38.285408 27.448547 0.240593 0.003610 -0.042174
 19 -0.380095 -2.640916 16.751854 0.000000 -0.000000 0.000000
 20 7.187249 -0.460705 16.472298 0.126393 -0.736800 -1.130072
 21 12.896107 3.303362 -12.884911 -0.369044 -0.308161 -0.768325
 22 9.818142 -2.393089 -11.768436 -0.280533 0.016352 -0.156232
 23 11.684982 2.308933 -7.513306 -0.000000 -0.000000 0.000000
 24 3.667332 0.402563 -5.537415 0.000000 -0.000000 0.000000
 25 -8.155171 -0.644957 16.761330 0.547944 0.251805 -0.157626
 26 -12.364456 3.544243 -13.402786 0.089131 0.037748 -0.365673
 27 -10.403900 -2.206009 -11.274456 -0.437913 0.127524 0.204234
 28 -3.567734 0.641571 -8.254757 -0.658055 0.581084 -0.068083
 29 -16.088943 -105.559036 -25.635832 0.000000 -0.000000 0.000000
 30 -3.127518 0.571323 -6.062386 0.000000 -0.000000 0.000000
 31 -0.040494 -0.674471 8.862862 0.000000 -0.000000 0.000000
 32 0.289211 3.291785 167.749756 0.000000 -0.000000 0.000000
 33 0.000000 0.000000 0.000000 0.000000 -0.000000 0.000000
time 15
  0 -1.005915 2.634505 0.937462 0.000000 -0.000000 0.000000
  1 -1.005915 2.634505 0.937462 0.000000 -0.000000 0.000000
  2 -1.005915 2.634505 0.937462 0.000000 -0.000000 0.000000
  3 0.000000 0.798765 72.640938 0.314159 -0.000000 0.000000
  4 0.325039 0.314665 -2.968971 -0.139626 0.000000 0.000000
  5 6.206746 -0.124159 -11.733646 -1.074998 -0.051570 0.148177
  6 2.955700 1.729843 -23.848043 0.653969 0.029827 0.058245
  7 0.292417 0.418312 -30.938566 -0.185807 -0.024443 -0.016147
  8 0.025498 -3.137411 -3.970852 0.000000 -0.000000 0.000000
  9 -6.833119 -0.124161 -11.733646 -0.534448 0.030421 -0.221590
 10 -3.240685 1.520658 -23.848034 1.226469 0.058202 0.090295
 11 -0.355309 0.627478 -30.760891 -0.633673 -0.076604 0.021229
 12 0.209673 -3.137415 -4.537350 0.000000 -0.000000 0.000000
 13 -0.336471 18.320862 -10.789917 0.172432 -0.054166 -0.318140
 14 0.011432 14.669044 -0.377850 -0.285269 -0.009523 -0.027851
 15 0.210529 25.621647 6.087181 0.352774 -0.001149 -0.044924
 16 0.325039 -0.162321 3.649490 0.001945 0.043673 -0.049317
 17 -0.409780 2.182663 26.434921 -0.173407 -0.063700 0.082086
 18 -2.935922 39.123016 30.554741 0.240593 0.003610 -0.042174
 19 -0.380096 -2.640917 16.751846 0.000000 -0.000000 0.000000
 20 7.187249 -0.460705 16.472298 0.111344 -0.739031 -1.077375
 21 12.896103 3.303358 -12.884911 -0.374778 -0.313474 -0.761078
 22 9.818138 -2.393082 -11.768448 -0.280533 0.016352 -0.156232
 23 11.684990 2.308941 -7.513317 -0.000000 -0.000000 0.000000
 24 3.667336 0.402565 -5.537415 0.000000 -0.000000 0.000000
 25 -8.155172 -0.644957 16.761322 0.546689 0.251568 -0.157768
 26 -12.364456 3.544235 -13.402786 0.086688 0.037184 -0.365853
 27 -10.403900 -2.206013 -11.274458 -0.437913 0.127524 0.204234
 28 -3.567749 0.641579 -8.254753 -0.658055 0.581084 -0.068083
 29 -16.088943 -105.559036 -25.635813 0.000000 -0.000000 0.000000
 30 -3.127525 0.571331 -6.062378 0.000000 -0.000000 0.000000
 31 -0.040494 -0.674471 8.862862 0.000000 -0.000000 0.000000
 32 0.289211 3.291785 167.749756 0.000000 -0.000000 0.000000
 33 0.000000 0.000000 0.000000 0.000000 -0.000000 0.000000
time 16
  0 -1.005915 2.634505 0.937462 0.000000 -0.000000 0.000000
  1 -1.005915 2.634505 0.937462 0.000000 -0.000000 0.000000
  2 -1.005915 2.634505 0.937462 0.000000 -0.000000 0.000000
  3 0.000000 0.798765 70.796158 0.314159 -0.000000 0.000000
  4 0.325039 0.314665 -2.968971 -0.139626 0.000000 0.000000
  5 6.206746 -0.124159 -11.733650 -1.119257 -0.045818 0.152307
  6 2.955699 1.729843 -23.848045 0.609280 0.031716 0.065203
  7 0.292418 0.418324 -30.938568 -0.216120 -0.020803 -0.012809
  8 0.025497 -3.137409 -3.970850 0.000000 -0.000000 0.000000
  9 -6.833119 -0.124159 -11.733650 -0.491961 0.040135 -0.222981
 10 -3.240685 1.520658 -23.848038 1.271746 0.065212 0.097987
 11 -0.355309 0.627474 -30.760887 -0.629198 -0.075660 0.021149
 12 0.209673 -3.137413 -4.537353 0.000000 -0.000000 0.000000
 13 -0.336471 18.320860 -10.789921 0.172685 -0.060863 -0.357152
 14 0.011433 14.669041 -0.377850 -0.285342 -0.024827 -0.072896
 15 0.210530 25.621647 6.087196 0.353194 -0.003615 -0.119177
 16 0.325039 -0.181543 3.590340 -0.006055 0.043301 -0.049405
 17 -0.409778 2.182659 26.434929 -0.168525 -0.063721 0.082068
 18 -2.842634 39.766731 33.407845 0.240593 0.003610 -0.042174
 19 -0.380096 -2.640914 16.751854 0.000000 -0.000000 0.000000
 20 7.187250 -0.460705 16.472305 0.097057 -0.740884 -1.027349
 21 12.896103 3.303368 -12.884903 -0.380187 -0.318436 -0.754094
 22 9.818134 -2.393093 -11.768440 -0.280533 0.016352 -0.156232
 23 11.684986 2.308929 -7.513309 0.000000 -0.000000 0.000000
 24 3.667336 0.402559 -5.537415 0.000000 -0.000000 0.000000
 25 -8.155172 -0.644957 16.761337 0.547253 0.251616 -0.157597
 26 -12.364460 3.544231 -13.402790 0.084461 0.036751 -0.365995
 27 -10.403900 -2.206013 -11.274460 -0.437913 0.127524 0.204234
 28 -3.567749 0.641571 -8.254757 -0.658055 0.581084 -0.068083
 29 -16.088943 -105.559006 -25.635807 0.000000 -0.000000 0.000000
 30 -3.127533 0.571327 -6.062382 0.000000 -0.000000 0.000000
 31 -0.040494 -0.674473 8.862862 0.000000 -0.000000 0.000000
 32 0.289211 3.291785 167.749756 0.000000 -0.000000 0.000000
 33 0.000000 0.000000 0.000000 0.000000 -0.000000 0.000000
time 17
  0 -1.005915 2.634505 0.937462 0.000000 -0.000000 0.000000
  1 -1.005915 2.634505 0.937462 0.000000 -0.000000 0.000000
  2 -1.005915 2.634505 0.937462 0.000000 -0.000000 0.000000
  3 0.000000 0.798765 68.841408 0.314159 -0.000000 0.000000
  4 0.325039 0.314665 -2.968967 -0.139626 0.000000 0.000000
  5 6.206746 -0.124161 -11.733646 -1.156379 -0.040994 0.155770
  6 2.955699 1.729855 -23.848045 0.571798 0.033301 0.071038
  7 0.292418 0.418324 -30.938566 -0.241545 -0.017751 -0.010010
  8 0.025497 -3.137409 -3.970849 0.000000 -0.000000 0.000000
  9 -6.833119 -0.124161 -11.733650 -0.456326 0.048283 -0.224148
 10 -3.240685 1.520659 -23.848036 1.309722 0.071092 0.104439
 11 -0.355307 0.627474 -30.760887 -0.548083 -0.057202 0.021740
 12 0.209673 -3.137413 -4.537348 0.000000 -0.000000 0.000000
 13 -0.336471 18.320858 -10.789917 0.172887 -0.066337 -0.389041
 14 0.011431 14.669044 -0.377853 -0.285428 -0.039331 -0.115585
 15 0.210527 25.621647 6.087181 0.353605 -0.006138 -0.195146
 16 0.325039 -0.193016 3.555023 -0.013444 0.042958 -0.049471
 17 -0.409779 2.182663 26.434929 -0.164870 -0.063731 0.082056
 18 -2.776574 40.042744 35.538193 0.240593 0.003610 -0.042174
 19 -0.380095 -2.640913 16.751854 0.000000 -0.000000 0.000000
 20 7.187249 -0.460703 16.472298 0.083766 -0.742391 -0.980806
 21 12.896103 3.303358 -12.884911 -0.385219 -0.323007 -0.747472
 22 9.818138 -2.393085 -11.768440 -0.280533 0.016352 -0.156232
 23 11.684986 2.308937 -7.513321 -0.000000 -0.000000 0.000000
 24 3.667336 0.402563 -5.537422 0.000000 -0.000000 0.000000
 25 -8.155170 -0.644957 16.761330 0.549030 0.251771 -0.157064
 26 -12.364456 3.544235 -13.402790 0.082498 0.036435 -0.366103
 27 -10.403893 -2.206013 -11.274467 -0.437913 0.127524 0.204234
 28 -3.567749 0.641579 -8.254753 -0.658055 0.581084 -0.068083
 29 -16.088921 -105.559021 -25.635826 0.000000 -0.000000 0.000000
 30 -3.127533 0.571327 -6.062378 0.000000 -0.000000 0.000000
 31 -0.040494 -0.674469 8.862862 0.000000 -0.000000 0.000000
 32 0.289211 3.291785 167.749756 0.000000 -0.000000 0.000000
 33 0.000000 0.000000 0.000000 0.000000 -0.000000 0.000000
time 18
  0 -1.005915 2.634505 0.937462 0.000000 -0.000000 0.000000
  1 -1.005915 2.634505 0.937462 0.000000 -0.000000 0.000000
  2 -1.005915 2.634505 0.937462 0.000000 -0.000000 0.000000
  3 0.000000 0.798765 67.047379 0.314159 -0.000000 0.000000
  4 0.325039 0.314665 -2.968967 -0.139626 0.000000 0.000000
  5 6.206746 -0.124160 -11.733646 -1.185152 -0.037254 0.158455
  6 2.955702 1.729843 -23.848043 0.542745 0.034529 0.075562
  7 0.292418 0.418318 -30.938568 -0.261251 -0.015385 -0.007840
  8 0.025499 -3.137409 -3.970850 0.000000 -0.000000 0.000000
  9 -6.833119 -0.124160 -11.733646 -0.428705 0.054598 -0.225053
 10 -3.240683 1.520658 -23.848040 1.339157 0.075649 0.109439
 11 -0.355310 0.627478 -30.760889 -0.248426 0.011212 0.024041
 12 0.209673 -3.137417 -4.537350 0.000000 -0.000000 0.000000
 13 -0.336471 18.320862 -10.789917 0.173035 -0.070388 -0.412641
 14 0.011435 14.669044 -0.377853 -0.285528 -0.052577 -0.154573
 15 0.210531 25.621655 6.087181 0.354001 -0.008652 -0.270834
 16 0.325039 -0.195641 3.546944 -0.020086 0.042649 -0.049518
 17 -0.409778 2.182661 26.434921 -0.162629 -0.063735 0.082050
 18 -2.733937 40.037186 37.079773 0.240593 0.003610 -0.042174
 19 -0.380094 -2.640916 16.751854 0.000000 -0.000000 0.000000
 20 7.187248 -0.460705 16.472305 0.071701 -0.743585 -0.938562
 21 12.896103 3.303356 -12.884911 -0.389821 -0.327151 -0.741309
 22 9.818134 -2.393089 -11.768440 -0.280533 0.016352 -0.156232
 23 11.684986 2.308939 -7.513321 0.000000 -0.000000 0.000000
 24 3.667336 0.402563 -5.537418 0.000000 -0.000000 0.000000
 25 -8.155170 -0.644957 16.761337 0.551884 0.252031 -0.156207
 26 -12.364452 3.544239 -13.402782 0.080849 0.036216 -0.366182
 27 -10.403900 -2.206009 -11.274466 -0.437913 0.127524 0.204234
 28 -3.567741 0.641575 -8.254749 -0.658055 0.581084 -0.068083
 29 -16.088951 -105.559036 -25.635796 0.000000 -0.000000 0.000000
 30 -3.127525 0.571335 -6.062374 0.000000 -0.000000 0.000000
 31 -0.040494 -0.674469 8.862869 0.000000 -0.000000 0.000000
 32 0.289211 3.291785 167.749756 0.000000 -0.000000 0.000000
 33 0.000000 0.000000 0.000000 0.000000 -0.000000 0.000000
time 19
  0 -1.005915 2.634505 0.937462 0.000000 -0.000000 0.000000
  1 -1.005915 2.634505 0.937462 0.000000 -0.000000 0.000000
  2 -1.005915 2.634505 0.937462 0.000000 -0.000000 0.000000
  3 0.000000 0.798765 65.684753 0.314159 -0.000000 0.000000
  4 0.325039 0.314665 -2.968960 -0.139626 0.000000 0.000000
  5 6.206747 -0.124160 -11.733646 -1.204365 -0.034757 0.160248
  6 2.955699 1.729847 -23.848042 0.523346 0.035349 0.078582
  7 0.292418 0.418327 -30.938570 -0.274410 -0.013805 -0.006391
  8 0.025497 -3.137407 -3.970848 0.000000 -0.000000 0.000000
  9 -6.833118 -0.124160 -11.733650 -0.410262 0.058815 -0.225657
 10 -3.240683 1.520659 -23.848042 1.358812 0.078692 0.112778
 11 -0.355310 0.627480 -30.760889 0.100128 0.090820 0.026731
 12 0.209673 -3.137415 -4.537346 0.000000 -0.000000 0.000000
 13 -0.336471 18.320858 -10.789917 0.173123 -0.072815 -0.426781
 14 0.011436 14.669044 -0.377853 -0.285642 -0.064108 -0.188513
 15 0.210535 25.621643 6.087189 0.354373 -0.011090 -0.344244
 16 0.325039 -0.188576 3.568695 -0.025844 0.042381 -0.049550
 17 -0.409779 2.182661 26.434921 -0.161993 -0.063736 0.082049
 18 -2.695112 40.014442 38.601952 0.240593 0.003610 -0.042174
 19 -0.380095 -2.640915 16.751854 0.000000 -0.000000 0.000000
 20 7.187250 -0.460705 16.472298 0.061097 -0.744497 -0.901428
 21 12.896111 3.303356 -12.884911 -0.393941 -0.330830 -0.735706
 22 9.818138 -2.393084 -11.768444 -0.280533 0.016352 -0.156232
 23 11.684986 2.308945 -7.513321 -0.000000 -0.000000 0.000000
 24 3.667339 0.402569 -5.537415 0.000000 -0.000000 0.000000
 25 -8.155173 -0.644957 16.761330 0.555681 0.252389 -0.155068
 26 -12.364460 3.544239 -13.402790 0.079563 0.036079 -0.366234
 27 -10.403908 -2.206009 -11.274460 -0.437913 0.127524 0.204234
 28 -3.567757 0.641575 -8.254757 -0.658055 0.581084 -0.068083
 29 -16.088959 -105.559036 -25.635796 0.000000 -0.000000 0.000000
 30 -3.127525 0.571331 -6.062378 0.000000 -0.000000 0.000000
 31 -0.040494 -0.674471 8.862862 0.000000 -0.000000 0.000000
 32 0.289211 3.291785 167.749756 0.000000 -0.000000 0.000000
 33 0.000000 0.000000 0.000000 0.000000 -0.000000 0.000000
time 20
  0 -1.005915 2.634505 0.937462 0.000000 -0.000000 0.000000
  1 -1.005915 2.634505 0.937462 0.000000 -0.000000 0.000000
  2 -1.005915 2.634505 0.937462 0.000000 -0.000000 0.000000
  3 0.000000 0.798765 65.024216 0.314159 -0.000000 0.000000
  4 0.325039 0.314665 -2.968960 -0.139626 0.000000 0.000000
  5 6.206746 -0.124160 -11.733646 -1.212805 -0.033661 0.161035
  6 2.955699 1.729847 -23.848045 0.514824 0.035709 0.079909
  7 0.292419 0.418329 -30.938564 -0.280190 -0.013111 -0.005755
  8 0.025496 -3.137407 -3.970850 0.000000 -0.000000 0.000000
  9 -6.833119 -0.124160 -11.733646 -0.402159 0.060668 -0.225922
 10 -3.240684 1.520661 -23.848038 1.367447 0.080029 0.114245
 11 -0.355310 0.627476 -30.760883 0.309066 0.138547 0.028347
 12 0.209670 -3.137413 -4.537350 0.000000 -0.000000 0.000000
 13 -0.336471 18.320858 -10.789917 0.173144 -0.073394 -0.430154
 14 0.011435 14.669044 -0.377853 -0.285773 -0.073468 -0.216060
 15 0.210531 25.621655 6.087185 0.354715 -0.013386 -0.413379
 16 0.325039 -0.172642 3.617741 -0.030583 0.042161 -0.049569
 17 -0.409779 2.182661 26.434921 -0.163433 -0.063713 0.082061
 18 -2.660208 39.973915 40.071686 0.240593 0.003610 -0.042174
 19 -0.380095 -2.640920 16.751862 0.000000 -0.000000 0.000000
 20 7.187248 -0.460703 16.472305 0.052185 -0.745162 -0.870221
 21 12.896107 3.303356 -12.884911 -0.397527 -0.334008 -0.730759
 22 9.818142 -2.393085 -11.768452 -0.280533 0.016352 -0.156232
 23 11.684990 2.308937 -7.513317 -0.000000 -0.000000 0.000000
 24 3.667339 0.402563 -5.537411 0.000000 -0.000000 0.000000
 25 -8.155172 -0.644955 16.761330 0.560286 0.252843 -0.153685
 26 -12.364456 3.544243 -13.402786 0.078691 0.036006 -0.366264
 27 -10.403900 -2.206013 -11.274466 -0.437913 0.127524 0.204234
 28 -3.567749 0.641579 -8.254749 -0.658055 0.581084 -0.068083
 29 -16.088974 -105.559036 -25.635792 0.000000 -0.000000 0.000000
 30 -3.127518 0.571335 -6.062374 0.000000 -0.000000 0.000000
 31 -0.040494 -0.674471 8.862854 0.000000 -0.000000 0.000000
 32 0.289211 3.291785 167.749756 0.000000 -0.000000 0.000000
 33 0.000000 0.000000 0.000000 0.000000 -0.000000 0.000000
time 21
  0 -1.005915 2.634505 0.937462 0.000000 -0.000000 0.000000
  1 -1.005915 2.634505 0.937462 0.000000 -0.000000 0.000000
  2 -1.005915 2.634505 0.937462 0.000000 -0.000000 0.000000
  3 0.000000 0.798765 65.284370 0.314159 -0.000000 0.000000
  4 0.325039 0.314667 -2.968960 -0.139626 0.000000 0.000000
  5 6.206746 -0.124159 -11.733646 -1.206348 -0.034500 0.160433
  6 2.955698 1.729855 -23.848042 0.521344 0.035433 0.078894
  7 0.292418 0.418329 -30.938568 -0.275768 -0.013642 -0.006242
  8 0.025497 -3.137407 -3.970846 0.000000 -0.000000 0.000000
  9 -6.833119 -0.124159 -11.733646 -0.408357 0.059251 -0.225800
 10 -3.240683 1.520657 -23.848038 1.360841 0.079006 0.113123
 11 -0.355310 0.627480 -30.760891 0.309577 0.138671 0.028404
 12 0.209673 -3.137413 -4.537346 0.000000 -0.000000 0.000000
 13 -0.336471 18.320862 -10.789917 0.173101 -0.071193 -0.417330
 14 0.011434 14.669044 -0.377853 -0.285920 -0.080197 -0.235868
 15 0.210531 25.621647 6.087189 0.355019 -0.015473 -0.476241
 16 0.325039 -0.149035 3.690388 -0.034165 0.041994 -0.049579
 17 -0.409779 2.182663 26.434921 -0.166953 -0.063657 0.082092
 18 -2.629430 39.913937 41.453514 0.240593 0.003610 -0.042174
 19 -0.380094 -2.640916 16.751854 0.000000 -0.000000 0.000000
 20 7.187248 -0.460703 16.472298 0.045197 -0.745610 -0.845752
 21 12.896107 3.303358 -12.884899 -0.400526 -0.336646 -0.726568
 22 9.818138 -2.393085 -11.768452 -0.280533 0.016352 -0.156232
 23 11.684986 2.308937 -7.513317 -0.000000 -0.000000 0.000000
 24 3.667339 0.402561 -5.537418 0.000000 -0.000000 0.000000
 25 -8.155169 -0.644953 16.761330 0.565566 0.253388 -0.152101
 26 -12.364460 3.544239 -13.402782 0.078280 0.035980 -0.366276
 27 -10.403893 -2.206017 -11.274462 -0.437913 0.127524 0.204234
 28 -3.567749 0.641575 -8.254757 -0.658055 0.581084 -0.068083
 29 -16.088936 -105.558975 -25.635782 0.000000 -0.000000 0.000000
 30 -3.127533 0.571335 -6.062374 0.000000 -0.000000 0.000000
 31 -0.040494 -0.674471 8.862854 0.000000 -0.000000 0.000000
 32 0.289211 3.291785 167.749756 0.000000 -0.000000 0.000000
 33 0.000000 0.000000 0.000000 0.000000 -0.000000 0.000000
time 22
  0 -1.005915 2.634505 0.937462 0.000000 -0.000000 0.000000
  1 -1.005915 2.634505 0.937462 0.000000 -0.000000 0.000000
  2 -1.005915 2.634505 0.937462 0.000000 -0.000000 0.000000
  3 0.000000 0.798765 66.341949 0.314159 -0.000000 0.000000
  4 0.325039 0.314665 -2.968964 -0.139626 0.000000 0.000000
  5 6.206746 -0.124160 -11.733646 -1.179659 -0.037968 0.157943
  6 2.955700 1.729851 -23.848045 0.548292 0.034293 0.074698
  7 0.292418 0.418324 -30.938572 -0.257489 -0.015836 -0.008254
  8 0.025499 -3.137407 -3.970849 0.000000 -0.000000 0.000000
  9 -6.833119 -0.124160 -11.733650 -0.433978 0.053393 -0.225269
 10 -3.240685 1.520656 -23.848040 1.333538 0.074779 0.108485
 11 -0.355312 0.627478 -30.760887 0.277944 0.131472 0.028369
 12 0.209669 -3.137413 -4.537348 0.000000 -0.000000 0.000000
 13 -0.336471 18.320858 -10.789917 0.172994 -0.066138 -0.387885
 14 0.011436 14.669041 -0.377853 -0.286084 -0.083841 -0.246591
 15 0.210537 25.621647 6.087185 0.355278 -0.017286 -0.530834
 16 0.325039 -0.118961 3.782951 -0.036453 0.041888 -0.049582
 17 -0.409779 2.182661 26.434921 -0.172253 -0.063567 0.082141
 18 -2.602975 39.832870 42.711998 0.240593 0.003610 -0.042174
 19 -0.380095 -2.640917 16.751862 0.000000 -0.000000 0.000000
 20 7.187249 -0.460707 16.472290 0.040366 -0.745874 -0.828836
 21 12.896103 3.303356 -12.884907 -0.402886 -0.338708 -0.723230
 22 9.818138 -2.393085 -11.768448 -0.280533 0.016352 -0.156232
 23 11.684990 2.308945 -7.513317 -0.000000 -0.000000 0.000000
 24 3.667336 0.402567 -5.537411 0.000000 -0.000000 0.000000
 25 -8.155170 -0.644957 16.761330 0.571387 0.254020 -0.150353
 26 -12.364460 3.544243 -13.402782 0.078547 0.036073 -0.366248
 27 -10.403908 -2.206017 -11.274456 -0.437913 0.127524 0.204234
 28 -3.567749 0.641579 -8.254755 -0.658055 0.581084 -0.068083
 29 -16.088959 -105.559021 -25.635786 0.000000 -0.000000 0.000000
 30 -3.127533 0.571331 -6.062374 0.000000 -0.000000 0.000000
 31 -0.040494 -0.674471 8.862862 0.000000 -0.000000 0.000000
 32 0.289211 3.291785 167.749756 0.000000 -0.000000 0.000000
 33 0.000000 0.000000 0.000000 0.000000 -0.000000 0.000000
time 23
  0 -1.005915 2.634505 0.937462 0.000000 -0.000000 0.000000
  1 -1.005915 2.634505 0.937462 0.000000 -0.000000 0.000000
  2 -1.005915 2.634505 0.937462 0.000000 -0.000000 0.000000
  3 0.000000 0.798765 67.939285 0.314159 -0.000000 0.000000
  4 0.325039 0.314665 -2.968964 -0.139626 0.000000 0.000000
  5 6.206746 -0.124160 -11.733650 -1.135575 -0.043697 0.153829
  6 2.955697 1.729847 -23.848045 0.592804 0.032410 0.067768
  7 0.292417 0.418318 -30.938568 -0.227296 -0.019461 -0.011579
  8 0.025497 -3.137405 -3.970851 0.000000 -0.000000 0.000000
  9 -6.833119 -0.124159 -11.733650 -0.476297 0.043717 -0.224370
 10 -3.240684 1.520657 -23.848038 1.288439 0.067797 0.100823
 11 -0.355310 0.627476 -30.760889 0.225694 0.119580 0.028307
 12 0.209671 -3.137413 -4.537348 0.000000 -0.000000 0.000000
 13 -0.336471 18.320860 -10.789921 0.172826 -0.058676 -0.344412
 14 0.011433 14.669044 -0.377857 -0.286303 -0.084015 -0.247104
 15 0.210535 25.621647 6.087185 0.355485 -0.018758 -0.575161
 16 0.325039 -0.083616 3.891724 -0.037312 0.041848 -0.049583
 17 -0.409779 2.182661 26.434921 -0.179033 -0.063446 0.082207
 18 -2.581038 39.729061 43.811707 0.240593 0.003610 -0.042174
 19 -0.380094 -2.640915 16.751854 0.000000 -0.000000 0.000000
 20 7.187249 -0.460705 16.472298 0.037925 -0.745988 -0.820287
 21 12.896099 3.303358 -12.884903 -0.404554 -0.340157 -0.720846
 22 9.818138 -2.393093 -11.768440 -0.280533 0.016352 -0.156232
 23 11.684986 2.308935 -7.513317 0.000000 -0.000000 0.000000
 24 3.667336 0.402563 -5.537415 0.000000 -0.000000 0.000000
 25 -8.155170 -0.644957 16.761322 0.577613 0.254735 -0.148484
 26 -12.364456 3.544243 -13.402782 0.079926 0.036542 -0.366106
 27 -10.403893 -2.206005 -11.274462 -0.437913 0.127524 0.204234
 28 -3.567749 0.641575 -8.254757 -0.658055 0.581084 -0.068083
 29 -16.088982 -105.559021 -25.635777 0.000000 -0.000000 0.000000
 30 -3.127525 0.571331 -6.062378 0.000000 -0.000000 0.000000
 31 -0.040494 -0.674469 8.862862 0.000000 -0.000000 0.000000
 32 0.289211 3.291785 167.749756 0.000000 -0.000000 0.000000
 33 0.000000 0.000000 0.000000 0.000000 -0.000000 0.000000
time 24
  0 -1.005915 2.634505 0.937462 0.000000 -0.000000 0.000000
  1 -1.005915 2.634505 0.937462 0.000000 -0.000000 0.000000
  2 -1.005915 2.634505 0.937462 0.000000 -0.000000 0.000000
  3 0.000000 0.798765 69.818581 0.314159 -0.000000 0.000000
  4 0.325039 0.314665 -2.968960 -0.139626 0.000000 0.000000
  5 6.206746 -0.124159 -11.733646 -1.077198 -0.051284 0.148383
  6 2.955699 1.729847 -23.848043 0.651748 0.029916 0.058591
  7 0.292417 0.418318 -30.938564 -0.187313 -0.024262 -0.015981
  8 0.025498 -3.137411 -3.970851 0.000000 -0.000000 0.000000
  9 -6.833119 -0.124161 -11.733650 -0.532337 0.030903 -0.223143
 10 -3.240684 1.520658 -23.848038 1.228718 0.058551 0.090677
 11 -0.355309 0.627472 -30.760885 0.156502 0.103833 0.028220
 12 0.209671 -3.137413 -4.537348 0.000000 -0.000000 0.000000
 13 -0.336471 18.320860 -10.789917 0.172598 -0.049251 -0.289508
 14 0.011436 14.669044 -0.377850 -0.286794 -0.081127 -0.238612
 15 0.210537 25.621655 6.087200 0.355633 -0.019823 -0.607223
 16 0.325039 -0.044205 4.013023 -0.034867 0.041962 -0.049472
 17 -0.409778 2.182661 26.434914 -0.186994 -0.063294 0.082289
 18 -2.563824 39.600853 44.717148 0.240593 0.003610 -0.042174
 19 -0.380095 -2.640918 16.751854 0.000000 -0.000000 0.000000
 20 7.187249 -0.460705 16.472290 0.039381 -0.745809 -0.825384
 21 12.896095 3.303356 -12.884895 -0.405478 -0.340954 -0.719512
 22 9.818134 -2.393085 -11.768444 -0.280533 0.016352 -0.156232
 23 11.684990 2.308939 -7.513317 0.000000 -0.000000 0.000000
 24 3.667336 0.402565 -5.537415 0.000000 -0.000000 0.000000
 25 -8.155169 -0.644955 16.761330 0.584112 0.255528 -0.146534
 26 -12.364456 3.544247 -13.402786 0.082268 0.037395 -0.365850
 27 -10.403893 -2.206013 -11.274462 -0.437913 0.127524 0.204234
 28 -3.567749 0.641575 -8.254747 -0.658055 0.581084 -0.068083
 29 -16.088943 -105.559029 -25.635788 0.000000 -0.000000 0.000000
 30 -3.127518 0.571327 -6.062378 0.000000 -0.000000 0.000000
 31 -0.040494 -0.674473 8.862854 0.000000 -0.000000 0.000000
 32 0.289211 3.291785 167.749756 0.000000 -0.000000 0.000000
 33 0.000000 0.000000 0.000000 0.000000 -0.000000 0.000000
time 25
  0 -1.005915 2.634505 0.937462 0.000000 -0.000000 0.000000
  1 -1.005915 2.634505 0.937462 0.000000 -0.000000 0.000000
  2 -1.005915 2.634505 0.937462 0.000000 -0.000000 0.000000
  3 0.000000 0.798765 71.722054 0.314159 -0.000000 0.000000
  4 0.325039 0.314663 -2.968964 -0.139626 0.000000 0.000000
  5 6.206746 -0.124161 -11.733646 -1.007628 -0.060325 0.141892
  6 2.955698 1.729851 -23.848045 0.721994 0.026944 0.047654
  7 0.292416 0.418306 -30.938564 -0.139665 -0.029983 -0.021227
  8 0.025498 -3.137410 -3.970852 0.000000 -0.000000 0.000000
  9 -6.833119 -0.124161 -11.733650 -0.599121 0.015633 -0.221630
 10 -3.240684 1.520660 -23.848038 1.157548 0.047532 0.078585
 11 -0.355305 0.627470 -30.760889 0.074045 0.085067 0.028107
 12 0.209675 -3.137413 -4.537347 0.000000 -0.000000 0.000000
 13 -0.336471 18.320858 -10.789917 0.172310 -0.038309 -0.225766
 14 0.011435 14.669041 -0.377857 -0.287546 -0.075751 -0.222800
 15 0.210534 25.621651 6.087189 0.355714 -0.020414 -0.625025
 16 0.325039 -0.001925 4.143150 -0.027475 0.042305 -0.049139
 17 -0.409779 2.182663 26.434914 -0.195836 -0.063115 0.082385
 18 -2.551532 39.446594 45.392921 0.240593 0.003610 -0.042174
 19 -0.380095 -2.640918 16.751862 0.000000 -0.000000 0.000000
 20 7.187249 -0.460703 16.472305 0.050097 -0.744504 -0.862909
 21 12.896103 3.303358 -12.884907 -0.405261 -0.340844 -0.719313
 22 9.818138 -2.393089 -11.768440 -0.280533 0.016352 -0.156232
 23 11.684986 2.308937 -7.513325 -0.000000 -0.000000 0.000000
 24 3.667339 0.402563 -5.537418 0.000000 -0.000000 0.000000
 25 -8.155169 -0.644955 16.761337 0.590750 0.256396 -0.144541
 26 -12.364460 3.544231 -13.402782 0.085387 0.038621 -0.365486
 27 -10.403900 -2.206017 -11.274462 -0.437913 0.127524 0.204234
 28 -3.567757 0.641575 -8.254749 -0.658055 0.581084 -0.068083
 29 -16.088974 -105.559021 -25.635786 0.000000 -0.000000 0.000000
 30 -3.127525 0.571327 -6.062374 0.000000 -0.000000 0.000000
 31 -0.040494 -0.674469 8.862862 0.000000 -0.000000 0.000000
 32 0.289211 3.291785 167.749756 0.000000 -0.000000 0.000000
 33 0.000000 0.000000 0.000000 0.000000 -0.000000 0.000000
time 26
  0 -1.005915 2.634505 0.937462 0.000000 -0.000000 0.000000
  1 -1.005915 2.634505 0.937462 0.000000 -0.000000 0.000000
  2 -1.005915 2.634505 0.937462 0.000000 -0.000000 0.000000
  3 0.000000 0.798765 73.391891 0.314159 -0.000000 0.000000
  4 0.325039 0.314665 -2.968971 -0.139626 0.000000 0.000000
  5 6.206746 -0.124159 -11.733646 -0.929966 -0.070418 0.134646
  6 2.955698 1.729843 -23.848043 0.800409 0.023626 0.035445
  7 0.292418 0.418304 -30.938562 -0.086474 -0.036369 -0.027084
  8 0.025496 -3.137413 -3.970853 0.000000 -0.000000 0.000000
  9 -6.833118 -0.124159 -11.733650 -0.673673 -0.001413 -0.219870
 10 -3.240685 1.520660 -23.848038 1.078099 0.035232 0.065088
 11 -0.355307 0.627470 -30.760885 -0.018003 0.064119 0.027970
 12 0.209671 -3.137414 -4.537350 0.000000 -0.000000 0.000000
 13 -0.336471 18.320862 -10.789921 0.171964 -0.026296 -0.155780
 14 0.011434 14.669044 -0.377853 -0.288503 -0.068409 -0.201204
 15 0.210534 25.621651 6.087181 0.355691 -0.020403 -0.624617
 16 0.325039 0.042028 4.278419 -0.016113 0.042834 -0.048626
 17 -0.409779 2.182661 26.434914 -0.205258 -0.062908 0.082496
 18 -2.544351 39.264633 45.803513 0.240593 0.003610 -0.042174
 19 -0.380095 -2.640915 16.751846 0.000000 -0.000000 0.000000
 20 7.187249 -0.460705 16.472298 0.068979 -0.741899 -0.929027
 21 12.896103 3.303358 -12.884911 -0.400032 -0.337297 -0.720266
 22 9.818138 -2.393087 -11.768452 -0.280533 0.016352 -0.156232
 23 11.684990 2.308937 -7.513321 -0.000000 -0.000000 0.000000
 24 3.667336 0.402563 -5.537422 0.000000 -0.000000 0.000000
 25 -8.155170 -0.644957 16.761322 0.597391 0.257334 -0.142548
 26 -12.364456 3.544243 -13.402779 0.089096 0.040211 -0.365017
 27 -10.403900 -2.206017 -11.274462 -0.437913 0.127524 0.204234
 28 -3.567741 0.641579 -8.254753 -0.658055 0.581084 -0.068083
 29 -16.088959 -105.559036 -25.635807 0.000000 -0.000000 0.000000
 30 -3.127525 0.571331 -6.062382 0.000000 -0.000000 0.000000
 31 -0.040494 -0.674469 8.862862 0.000000 -0.000000 0.000000
 32 0.289211 3.291785 167.749756 0.000000 -0.000000 0.000000
 33 0.000000 0.000000 0.000000 0.000000 -0.000000 0.000000
time 27
  0 -1.005915 2.634505 0.937462 0.000000 -0.000000 0.000000
  1 -1.005915 2.634505 0.937462 0.000000 -0.000000 0.000000
  2 -1.005915 2.634505 0.937462 0.000000 -0.000000 0.000000
  3 0.000000 0.798765 74.570313 0.314159 -0.000000 0.000000
  4 0.325039 0.314665 -2.968964 -0.139626 0.000000 0.000000
  5 6.206746 -0.124161 -11.733654 -0.847313 -0.081159 0.126934
  6 2.955697 1.729855 -23.848049 0.883864 0.020095 0.022451
  7 0.292416 0.418299 -30.938568 -0.029866 -0.043165 -0.033316
  8 0.025497 -3.137414 -3.970855 0.000000 -0.000000 0.000000
  9 -6.833119 -0.124161 -11.733658 -0.753016 -0.019554 -0.217905
 10 -3.240685 1.520660 -23.848038 0.993545 0.022141 0.050723
 11 -0.355306 0.627470 -30.760887 -0.115966 0.041824 0.027810
 12 0.209672 -3.137415 -4.537350 0.000000 -0.000000 0.000000
 13 -0.336471 18.320858 -10.789921 0.171561 -0.013656 -0.082146
 14 0.011433 14.669041 -0.377853 -0.289605 -0.059622 -0.175360
 15 0.210529 25.621651 6.087181 0.355325 -0.019276 -0.590116
 16 0.325039 0.086447 4.415131 -0.001766 0.043501 -0.047978
 17 -0.409779 2.182659 26.434914 -0.214962 -0.062675 0.082620
 18 -2.542883 39.051701 45.903236 0.240593 0.003610 -0.042174
 19 -0.380095 -2.640914 16.751854 0.000000 -0.000000 0.000000
 20 7.187248 -0.460707 16.472298 0.094091 -0.737919 -1.016962
 21 12.896103 3.303358 -12.884895 -0.389756 -0.330101 -0.722690
 22 9.818134 -2.393085 -11.768448 -0.280533 0.016352 -0.156232
 23 11.684986 2.308939 -7.513313 -0.000000 -0.000000 0.000000
 24 3.667336 0.402563 -5.537407 0.000000 -0.000000 0.000000
 25 -8.155171 -0.644958 16.761330 0.603903 0.258338 -0.140593
 26 -12.364456 3.544235 -13.402786 0.093207 0.042153 -0.364450
 27 -10.403900 -2.206009 -11.274458 -0.437913 0.127524 0.204234
 28 -3.567749 0.641571 -8.254753 -0.658055 0.581084 -0.068083
 29 -16.088936 -105.559021 -25.635811 0.000000 -0.000000 0.000000
 30 -3.127525 0.571327 -6.062378 0.000000 -0.000000 0.000000
 31 -0.040494 -0.674473 8.862854 0.000000 -0.000000 0.000000
 32 0.289211 3.291785 167.749756 0.000000 -0.000000 0.000000
 33 0.000000 0.000000 0.000000 0.000000 -0.000000 0.000000
time 28
  0 -1.005915 2.634505 0.937462 0.000000 -0.000000 0.000000
  1 -1.005915 2.634505 0.937462 0.000000 -0.000000 0.000000
  2 -1.005915 2.634505 0.937462 0.000000 -0.000000 0.000000
  3 0.000000 0.798765 74.999413 0.314159 -0.000000 0.000000
  4 0.325039 0.314665 -2.968971 -0.139626 0.000000 0.000000
  5 6.206747 -0.124159 -11.733646 -0.762771 -0.092146 0.119046
  6 2.955702 1.729851 -23.848047 0.969226 0.016483 0.009161
  7 0.292417 0.418297 -30.938566 0.028037 -0.050117 -0.039692
  8 0.025498 -3.137414 -3.970854 0.000000 -0.000000 0.000000
  9 -6.833118 -0.124159 -11.733650 -0.834173 -0.038110 -0.215775
 10 -3.240685 1.520660 -23.848038 0.907058 0.008751 0.036030
 11 -0.355304 0.627472 -30.760895 -0.216169 0.019019 0.027626
 12 0.209673 -3.137414 -4.537349 0.000000 -0.000000 0.000000
 13 -0.336471 18.320860 -10.789921 0.171102 -0.000836 -0.007458
 14 0.011433 14.669044 -0.377850 -0.290796 -0.049913 -0.146804
 15 0.210531 25.621647 6.087189 0.354643 -0.017174 -0.525761
 16 0.325039 0.130135 4.549583 0.014582 0.044261 -0.047240
 17 -0.409779 2.182661 26.434921 -0.224647 -0.062419 0.082756
 18 -2.565697 38.734528 45.195679 0.240593 0.003610 -0.042174
 19 -0.380095 -2.640917 16.751854 0.000000 -0.000000 0.000000
 20 7.187248 -0.460705 16.472298 0.123498 -0.732489 -1.119935
 21 12.896107 3.303360 -12.884903 -0.375752 -0.319894 -0.726980
 22 9.818138 -2.393085 -11.768433 -0.280533 0.016352 -0.156232
 23 11.684990 2.308939 -7.513313 -0.000000 -0.000000 0.000000
 24 3.667332 0.402567 -5.537415 0.000000 -0.000000 0.000000
 25 -8.155169 -0.644957 16.761322 0.610151 0.259405 -0.138718
 26 -12.364460 3.544243 -13.402782 0.097535 0.044438 -0.363789
 27 -10.403893 -2.206013 -11.274454 -0.437913 0.127524 0.204234
 28 -3.567749 0.641575 -8.254745 -0.658055 0.581084 -0.068083
 29 -16.088943 -105.558998 -25.635803 0.000000 -0.000000 0.000000
 30 -3.127525 0.571327 -6.062374 0.000000 -0.000000 0.000000
 31 -0.040494 -0.674471 8.862846 0.000000 -0.000000 0.000000
 32 0.289211 3.291785 167.749756 0.000000 -0.000000 0.000000
 33 0.000000 0.000000 0.000000 0.000000 -0.000000 0.000000
time 29
  0 -1.005915 2.634505 0.937462 0.000000 -0.000000 0.000000
  1 -1.005915 2.634505 0.937462 0.000000 -0.000000 0.000000
  2 -1.005915 2.634505 0.937462 0.000000 -0.000000 0.000000
  3 0.000000 0.798765 74.417763 0.314159 -0.000000 0.000000
  4 0.325039 0.314663 -2.968971 -0.139626 0.000000 0.000000
  5 6.206746 -0.124159 -11.733646 -0.679441 -0.102976 0.111271
  6 2.955701 1.729853 -23.848043 1.053366 0.012923 -0.003939
  7 0.292416 0.418285 -30.938557 0.085110 -0.056970 -0.045976
  8 0.025496 -3.137417 -3.970854 0.000000 -0.000000 0.000000
  9 -6.833119 -0.124159 -11.733650 -0.914167 -0.056400 -0.213522
 10 -3.240685 1.520657 -23.848038 0.821810 -0.004447 0.021547
 11 -0.355303 0.627471 -30.760893 -0.314936 -0.003459 0.027420
 12 0.209672 -3.137413 -4.537350 0.000000 -0.000000 0.000000
 13 -0.336471 18.320860 -10.789921 0.170588 0.011721 0.065689
 14 0.011433 14.669041 -0.377850 -0.292016 -0.039804 -0.117072
 15 0.210531 25.621647 6.087189 0.353739 -0.014392 -0.440606
 16 0.325039 0.171890 4.678101 0.031946 0.045068 -0.046456
 17 -0.409779 2.182663 26.434914 -0.234013 -0.062140 0.082903
 18 -2.616065 38.307693 43.633553 0.240593 0.003610 -0.042174
 19 -0.380095 -2.640915 16.751846 0.000000 -0.000000 0.000000
 20 7.187249 -0.460703 16.472305 0.155264 -0.725536 -1.231169
 21 12.896107 3.303356 -12.884903 -0.359337 -0.307311 -0.733528
 22 9.818134 -2.393085 -11.768448 -0.280533 0.016352 -0.156232
 23 11.684986 2.308939 -7.513313 0.000000 -0.000000 0.000000
 24 3.667336 0.402565 -5.537407 0.000000 -0.000000 0.000000
 25 -8.155170 -0.644958 16.761322 0.616000 0.260529 -0.136962
 26 -12.364460 3.544243 -13.402786 0.101892 0.047055 -0.363039
 27 -10.403908 -2.206013 -11.274462 -0.437913 0.127524 0.204234
 28 -3.567749 0.641571 -8.254749 -0.658055 0.581084 -0.068083
 29 -16.088943 -105.559044 -25.635809 0.000000 -0.000000 0.000000
 30 -3.127525 0.571327 -6.062382 0.000000 -0.000000 0.000000
 31 -0.040494 -0.674473 8.862862 0.000000 -0.000000 0.000000
 32 0.289211 3.291785 167.749756 0.000000 -0.000000 0.000000
 33 0.000000 0.000000 0.000000 0.000000 -0.000000 0.000000
time 30
  0 -1.005915 2.634505 0.937462 0.000000 -0.000000 0.000000
  1 -1.005915 2.634505 0.937462 0.000000 -0.000000 0.000000
  2 -1.005915 2.634505 0.937462 0.000000 -0.000000 0.000000
  3 0.000000 0.798765 72.978493 0.314159 -0.000000 0.000000
  4 0.325039 0.314665 -2.968971 -0.139626 0.000000 0.000000
  5 6.206746 -0.124161 -11.733646 -0.600423 -0.113245 0.103898
  6 2.955700 1.729855 -23.848042 1.133151 0.009547 -0.016362
  7 0.292418 0.418282 -30.938560 0.139229 -0.063467 -0.051934
  8 0.025496 -3.137419 -3.970857 0.000000 -0.000000 0.000000
  9 -6.833119 -0.124161 -11.733650 -0.990021 -0.073744 -0.211186
 10 -3.240685 1.520657 -23.848042 0.740973 -0.016962 0.007813
 11 -0.355301 0.627466 -30.760891 -0.408592 -0.024773 0.027193
 12 0.209674 -3.137413 -4.537351 0.000000 -0.000000 0.000000
 13 -0.336471 18.320858 -10.789917 0.170020 0.023567 0.134702
 14 0.011432 14.669041 -0.377853 -0.293207 -0.029818 -0.087700
 15 0.210528 25.621651 6.087189 0.352712 -0.011227 -0.343708
 16 0.325039 0.210516 4.796974 0.049340 0.045877 -0.045670
 17 -0.409779 2.182665 26.434929 -0.242761 -0.061840 0.083060
 18 -2.684558 37.818039 41.509285 0.240593 0.003610 -0.042174
 19 -0.380095 -2.640913 16.751846 0.000000 -0.000000 0.000000
 20 7.187249 -0.460705 16.472298 0.187453 -0.716985 -1.343885
 21 12.896111 3.303356 -12.884903 -0.341831 -0.292991 -0.742728
 22 9.818138 -2.393084 -11.768448 -0.280533 0.016352 -0.156232
 23 11.684986 2.308944 -7.513313 0.000000 -0.000000 0.000000
 24 3.667336 0.402564 -5.537415 0.000000 -0.000000 0.000000
 25 -8.155171 -0.644955 16.761330 0.621318 0.261707 -0.135366
 26 -12.364452 3.544250 -13.402786 0.106091 0.049993 -0.362205
 27 -10.403900 -2.206013 -11.274460 -0.437913 0.127524 0.204234
 28 -3.567749 0.641575 -8.254753 -0.658055 0.581084 -0.068083
 29 -16.088951 -105.559036 -25.635788 0.000000 -0.000000 0.000000
 30 -3.127533 0.571327 -6.062378 0.000000 -0.000000 0.000000
 31 -0.040494 -0.674471 8.862862 0.000000 -0.000000 0.000000
 32 0.289211 3.291785 167.749756 0.000000 -0.000000 0.000000
 33 0.000000 0.000000 0.000000 0.000000 -0.000000 0.000000
time 31
  0 -1.005915 2.634505 0.937462 0.000000 -0.000000 0.000000
  1 -1.005915 2.634505 0.937462 0.000000 -0.000000 0.000000
  2 -1.005915 2.634505 0.937462 0.000000 -0.000000 0.000000
  3 0.000000 0.798765 71.026794 0.314159 -0.000000 0.000000
  4 0.325039 0.314665 -2.968964 -0.139626 0.000000 0.000000
  5 6.206746 -0.124159 -11.733650 -0.528817 -0.122551 0.097218
  6 2.955700 1.729845 -23.848049 1.205451 0.006488 -0.027618
  7 0.292419 0.418285 -30.938549 0.188272 -0.069356 -0.057334
  8 0.025497 -3.137417 -3.970854 0.000000 -0.000000 0.000000
  9 -6.833119 -0.124159 -11.733650 -1.058759 -0.089461 -0.208808
 10 -3.240684 1.520653 -23.848042 0.667721 -0.028304 -0.004632
 11 -0.355302 0.627472 -30.760895 -0.493461 -0.044088 0.026945
 12 0.209673 -3.137413 -4.537349 0.000000 -0.000000 0.000000
 13 -0.336471 18.320858 -10.789921 0.169399 0.034258 0.196984
 14 0.011434 14.669044 -0.377857 -0.294312 -0.020476 -0.060224
 15 0.210531 25.621647 6.087196 0.351655 -0.007974 -0.244121
 16 0.325039 0.244810 4.902519 0.065780 0.046641 -0.044928
 17 -0.409779 2.182663 26.434921 -0.250591 -0.061520 0.083227
 18 -2.761748 37.312389 39.115440 0.240593 0.003610 -0.042174
 19 -0.380095 -2.640918 16.751854 0.000000 -0.000000 0.000000
 20 7.187248 -0.460703 16.472298 0.218130 -0.706763 -1.451306
 21 12.896107 3.303360 -12.884911 -0.324551 -0.277569 -0.754972
 22 9.818138 -2.393087 -11.768440 -0.280533 0.016352 -0.156232
 23 11.684986 2.308939 -7.513321 -0.000000 -0.000000 0.000000
 24 3.667336 0.402563 -5.537407 0.000000 -0.000000 0.000000
 25 -8.155172 -0.644957 16.761322 0.625969 0.262935 -0.133970
 26 -12.364460 3.544235 -13.402786 0.109945 0.053242 -0.361293
 27 -10.403900 -2.206013 -11.274460 -0.437913 0.127524 0.204234
 28 -3.567741 0.641571 -8.254753 -0.658055 0.581084 -0.068083
 29 -16.088951 -105.559013 -25.635811 0.000000 -0.000000 0.000000
 30 -3.127525 0.571331 -6.062374 0.000000 -0.000000 0.000000
 31 -0.040494 -0.674473 8.862854 0.000000 -0.000000 0.000000
 32 0.289211 3.291785 167.749756 0.000000 -0.000000 0.000000
 33 0.000000 0.000000 0.000000 0.000000 -0.000000 0.000000
time 32
  0 -1.005915 2.634505 0.937462 0.000000 -0.000000 0.000000
  1 -1.005915 2.634505 0.937462 0.000000 -0.000000 0.000000
  2 -1.005915 2.634505 0.937462 0.000000 -0.000000 0.000000
  3 0.000000 0.798765 68.907890 0.314159 -0.000000 0.000000
  4 0.325039 0.314665 -2.968964 -0.139626 0.000000 0.000000
  5 6.206746 -0.124159 -11.733650 -0.467726 -0.130490 0.091518
  6 2.955699 1.729845 -23.848043 1.267136 0.003878 -0.037222
  7 0.292416 0.418285 -30.938553 0.230113 -0.074379 -0.061941
  8 0.025497 -3.137419 -3.970850 0.000000 -0.000000 0.000000
  9 -6.833119 -0.124159 -11.733650 -1.117404 -0.102870 -0.206429
 10 -3.240683 1.520657 -23.848040 0.605224 -0.037979 -0.015249
 11 -0.355301 0.627472 -30.760893 -0.565869 -0.060567 0.026677
 12 0.209673 -3.137413 -4.537350 0.000000 -0.000000 0.000000
 13 -0.336471 18.320858 -10.789921 0.168727 0.043349 0.249943
 14 0.011433 14.669044 -0.377857 -0.295273 -0.012301 -0.036180
 15 0.210530 25.621647 6.087185 0.350666 -0.004929 -0.150901
 16 0.325039 0.273571 4.991035 0.080281 0.047315 -0.044273
 17 -0.409779 2.182655 26.434914 -0.257203 -0.061182 0.083401
 18 -2.838194 36.837597 36.744415 0.240593 0.003610 -0.042174
 19 -0.380095 -2.640918 16.751854 0.000000 -0.000000 0.000000
 20 7.187248 -0.460707 16.472298 0.245359 -0.694794 -1.546654
 21 12.896111 3.303360 -12.884903 -0.308816 -0.261683 -0.770655
 22 9.818136 -2.393080 -11.768452 -0.280533 0.016352 -0.156232
 23 11.684986 2.308944 -7.513313 -0.000000 -0.000000 0.000000
 24 3.667336 0.402566 -5.537407 0.000000 -0.000000 0.000000
 25 -8.155170 -0.644957 16.761330 0.629821 0.264208 -0.132814
 26 -12.364456 3.544243 -13.402786 0.113268 0.056792 -0.360306
 27 -10.403900 -2.206005 -11.274462 -0.437913 0.127524 0.204234
 28 -3.567749 0.641575 -8.254753 -0.658055 0.581084 -0.068083
 29 -16.088928 -105.559021 -25.635799 0.000000 -0.000000 0.000000
 30 -3.127525 0.571335 -6.062378 0.000000 -0.000000 0.000000
 31 -0.040494 -0.674473 8.862854 0.000000 -0.000000 0.000000
 32 0.289211 3.291785 167.749756 0.000000 -0.000000 0.000000
 33 0.000000 0.000000 0.000000 0.000000 -0.000000 0.000000
time 33
  0 -1.005915 2.634505 0.937462 0.000000 -0.000000 0.000000
  1 -1.005915 2.634505 0.937462 0.000000 -0.000000 0.000000
  2 -1.005915 2.634505 0.937462 0.000000 -0.000000 0.000000
  3 0.000000 0.798765 66.966980 0.314159 -0.000000 0.000000
  4 0.325039 0.314665 -2.968967 -0.139626 0.000000 0.000000
  5 6.206746 -0.124160 -11.733646 -0.420251 -0.136660 0.087088
  6 2.955700 1.729850 -23.848043 1.315072 0.001850 -0.044686
  7 0.292416 0.418282 -30.938553 0.262629 -0.078283 -0.065521
  8 0.025497 -3.137419 -3.970852 0.000000 -0.000000 0.000000
  9 -6.833119 -0.124159 -11.733646 -1.162979 -0.113290 -0.204090
 10 -3.240684 1.520657 -23.848034 0.556656 -0.045499 -0.023501
 11 -0.355302 0.627466 -30.760893 -0.622139 -0.073373 0.026389
 12 0.209675 -3.137411 -4.537350 0.000000 -0.000000 0.000000
 13 -0.336471 18.320860 -10.789917 0.168004 0.050394 0.290983
 14 0.011434 14.669041 -0.377850 -0.296031 -0.005815 -0.017104
 15 0.210531 25.621643 6.087185 0.349841 -0.002388 -0.073104
 16 0.325039 0.295601 5.058830 0.091859 0.047854 -0.043751
 17 -0.409778 2.182661 26.434921 -0.262296 -0.060828 0.083583
 18 -2.904478 36.440475 34.688736 0.240593 0.003610 -0.042174
 19 -0.380095 -2.640916 16.751862 0.000000 -0.000000 0.000000
 20 7.187250 -0.460707 16.472298 0.267205 -0.681005 -1.623151
 21 12.896107 3.303362 -12.884895 -0.295945 -0.245969 -0.790169
 22 9.818136 -2.393085 -11.768440 -0.280533 0.016352 -0.156232
 23 11.684986 2.308935 -7.513317 -0.000000 -0.000000 0.000000
 24 3.667339 0.402561 -5.537411 0.000000 -0.000000 0.000000
 25 -8.155170 -0.644958 16.761337 0.632737 0.265522 -0.131938
 26 -12.364456 3.544235 -13.402782 0.115874 0.060632 -0.359252
 27 -10.403908 -2.206009 -11.274458 -0.437913 0.127524 0.204234
 28 -3.567749 0.641571 -8.254753 -0.658055 0.581084 -0.068083
 29 -16.088928 -105.558983 -25.635788 0.000000 -0.000000 0.000000
 30 -3.127525 0.571327 -6.062372 0.000000 -0.000000 0.000000
 31 -0.040494 -0.674473 8.862862 0.000000 -0.000000 0.000000
 32 0.289211 3.291785 167.749756 0.000000 -0.000000 0.000000
 33 0.000000 0.000000 0.000000 0.000000 -0.000000 0.000000
time 34
  0 -1.005915 2.634505 0.937462 0.000000 -0.000000 0.000000
  1 -1.005915 2.634505 0.937462 0.000000 -0.000000 0.000000
  2 -1.005915 2.634505 0.937462 0.000000 -0.000000 0.000000
  3 0.000000 0.798765 65.549278 0.314159 -0.000000 0.000000
  4 0.325039 0.314667 -2.968964 -0.139626 0.000000 0.000000
  5 6.206747 -0.124160 -11.733646 -0.389491 -0.140657 0.084218
  6 2.955700 1.729847 -23.848042 1.346130 0.000535 -0.049521
  7 0.292416 0.418280 -30.938545 0.283696 -0.080812 -0.067840
  8 0.025496 -3.137419 -3.970852 0.000000 -0.000000 0.000000
  9 -6.833118 -0.124161 -11.733650 -1.192507 -0.120041 -0.201832
 10 -3.240685 1.520660 -23.848038 0.525189 -0.050370 -0.028847
 11 -0.355301 0.627472 -30.760895 -0.658596 -0.081670 0.026083
 12 0.209672 -3.137409 -4.537350 0.000000 -0.000000 0.000000
 13 -0.336471 18.320858 -10.789917 0.167232 0.054947 0.317509
 14 0.011432 14.669037 -0.377853 -0.296528 -0.001541 -0.004532
 15 0.210530 25.621651 6.087181 0.349275 -0.000646 -0.019785
 16 0.325039 0.309698 5.102222 0.099527 0.048210 -0.043404
 17 -0.409778 2.182661 26.434921 -0.265573 -0.060458 0.083771
 18 -2.951163 36.167854 33.240845 0.240593 0.003610 -0.042174
 19 -0.380095 -2.640916 16.751854 0.000000 -0.000000 0.000000
 20 7.187249 -0.460705 16.472298 0.281732 -0.665322 -1.674020
 21 12.896111 3.303360 -12.884911 -0.287255 -0.231064 -0.813908
 22 9.818138 -2.393085 -11.768456 -0.280533 0.016352 -0.156232
 23 11.684990 2.308942 -7.513309 0.000000 -0.000000 0.000000
 24 3.667337 0.402565 -5.537407 0.000000 -0.000000 0.000000
 25 -8.155169 -0.644957 16.761330 0.634586 0.266874 -0.131383
 26 -12.364456 3.544243 -13.402786 0.117574 0.064752 -0.358133
 27 -10.403893 -2.206009 -11.274460 -0.437913 0.127524 0.204234
 28 -3.567749 0.641579 -8.254749 -0.658055 0.581084 -0.068083
 29 -16.088943 -105.559021 -25.635798 0.000000 -0.000000 0.000000
 30 -3.127525 0.571331 -6.062380 0.000000 -0.000000 0.000000
 31 -0.040494 -0.674471 8.862854 0.000000 -0.000000 0.000000
 32 0.289211 3.291785 167.749756 0.000000 -0.000000 0.000000
 33 0.000000 0.000000 0.000000 0.000000 -0.000000 0.000000
time 35
  0 -1.005915 2.634505 0.937462 0.000000 -0.000000 0.000000
  1 -1.005915 2.634505 0.937462 0.000000 -0.000000 0.000000
  2 -1.005915 2.634505 0.937462 0.000000 -0.000000 0.000000
  3 0.000000 0.798765 65.000000 0.314159 -0.000000 0.000000
  4 0.325039 0.314667 -2.968964 -0.139626 0.000000 0.000000
  5 6.206746 -0.124159 -11.733646 -0.378549 -0.142079 0.083197
  6 2.955699 1.729853 -23.848045 1.357179 0.000068 -0.051241
  7 0.292416 0.418280 -30.938549 0.291190 -0.081712 -0.068665
  8 0.025498 -3.137420 -3.970852 0.000000 -0.000000 0.000000
  9 -6.833119 -0.124160 -11.733646 -1.203011 -0.122443 -0.199695
 10 -3.240683 1.520664 -23.848036 0.513995 -0.052104 -0.030748
 11 -0.355300 0.627481 -30.760895 -0.671566 -0.084622 0.025759
 12 0.209673 -3.137411 -4.537346 0.000000 -0.000000 0.000000
 13 -0.336471 18.320862 -10.789917 0.166411 0.056564 0.326928
 14 0.011435 14.669044 -0.377850 -0.296707 -0.000000 0.000000
 15 0.210530 25.621639 6.087193 0.349066 0.000000 -0.000000
 16 0.325039 0.314667 5.117516 0.102303 0.048339 -0.043279
 17 -0.409778 2.182663 26.434921 -0.266731 -0.060075 0.083965
 18 -2.968822 36.066574 32.693214 0.240593 0.003610 -0.042174
 19 -0.380095 -2.640918 16.751846 0.000000 -0.000000 0.000000
 20 7.187250 -0.460705 16.472298 0.287005 -0.647671 -1.692482
 21 12.896107 3.303362 -12.884903 -0.284066 -0.217606 -0.842265
 22 9.818134 -2.393085 -11.768452 -0.280533 0.016352 -0.156232
 23 11.684986 2.308937 -7.513313 -0.000000 -0.000000 0.000000
 24 3.667336 0.402564 -5.537415 0.000000 -0.000000 0.000000
 25 -8.155172 -0.644955 16.761330 0.635232 0.268259 -0.131189
 26 -12.364456 3.544243 -13.402784 0.118182 0.069141 -0.356956
 27 -10.403900 -2.206013 -11.274458 -0.437913 0.127524 0.204234
 28 -3.567749 0.641579 -8.254749 -0.658055 0.581084 -0.068083
 29 -16.088928 -105.559006 -25.635807 0.000000 -0.000000 0.000000
 30 -3.127525 0.571331 -6.062378 0.000000 -0.000000 0.000000
 31 -0.040494 -0.674469 8.862854 0.000000 -0.000000 0.000000
 32 0.289211 3.291785 167.749756 0.000000 -0.000000 0.000000
 33 0.000000 0.000000 0.000000 0.000000 -0.000000 0.000000
end
