version 1
nodes
  0 "bone36"  -1
  1 "bone37"  -1
  2 "bone39"  -1
  3 "bone21"   2
  4 "bone20"   3
  5 "bone07"   4
  6 "bone22"   5
  7 "bone18"   6
  8 "bone25"   7
  9 "bone14"   4
 10 "bone16"   9
 11 "bone19"  10
 12 "bone24"  11
 13 "bone01"   4
 14 "bone15"  13
 15 "bone001"  14
 16 "bone17"  13
 17 "bone38"  16
 18 "bone03"   3
 19 "bone06"  18
 20 "bone13"  19
 21 "bone12"  20
 22 "bone26"  19
 23 "bone08"  18
 24 "bone05"  23
 25 "bone09"  24
 26 "bone11"  25
 27 "bone29"  26
 28 "bone30"  25
 29 "bone02"  18
 30 "bone04"  29
 31 "bone10"  30
 32 "bone31"  31
 33 "bone32"  18
 34 "bone34"   2
end
skeleton
time 0
  0 -2.408944 2.128008 -1.071352 0.000000 -0.000000 0.000000
  1 -2.408944 2.128008 -1.071352 0.000000 -0.000000 0.000000
  2 -2.408944 2.128008 -1.071352 0.000000 -0.000000 0.000000
  3 0.000000 -0.593194 84.457069 0.034907 0.000000 0.000000
  4 0.000000 0.380081 -2.358139 -0.034906 0.000000 0.000000
  5 -6.962072 -1.123270 -14.918671 -0.117611 0.103397 -0.142897
  6 -0.762899 1.783215 -29.522812 0.436331 -0.000000 0.000000
  7 -1.525354 0.897305 -28.921164 -0.292388 -0.049164 -0.003695
  8 0.354393 -2.635784 -5.445797 0.000000 -0.000000 0.000000
  9 7.456964 -0.120268 -14.357979 -0.068305 -0.155899 -0.019300
 10 0.913363 0.804958 -30.266220 0.349312 0.031101 0.015853
 11 1.054037 0.998067 -28.738491 -0.260399 0.006793 0.020443
 12 0.073698 -2.761297 -5.395100 0.000000 -0.000000 0.000000
 13 0.184103 2.405381 6.536697 -0.017453 0.000000 0.000000
 14 -2.507427 0.706861 2.240990 -0.001952 0.004631 -0.293297
 15 3.250292 -0.229967 -90.900162 0.017445 -0.006626 0.385211
 16 1.065002 0.706861 2.240982 -0.001760 -0.001893 0.144948
 17 -2.362350 -0.468017 -90.905487 0.017471 0.007558 -0.441260
 18 0.000000 -0.154718 2.376091 -0.226892 0.000000 0.000001
 19 0.646873 -1.121443 24.709145 0.244345 -0.000000 0.000000
 20 -0.331074 15.401075 -4.448273 -0.174533 0.000000 -0.000000
 21 0.294691 4.810116 -18.307007 -0.174532 0.000000 -0.000000
 22 -1.097139 0.677547 9.228622 0.000000 -0.000000 0.000000
 23 -7.043964 -0.624741 16.699585 -0.103099 0.589055 1.342894
 24 -13.119781 0.402665 -15.778526 -0.639340 0.212496 0.456580
 25 -6.930336 -3.869404 -10.071308 -0.271619 0.244372 -0.041531
 26 -1.440521 -1.851318 -5.643755 0.052020 0.091792 0.093927
 27 30.607483 4.937168 -71.660202 0.000000 -0.000000 0.000000
 28 -2.740807 -1.783823 -4.956823 0.000000 -0.000000 0.000000
 29 8.158013 -0.446264 16.846817 0.184047 -0.253896 0.183937
 30 12.284382 0.200995 -15.879509 -1.073499 -0.618246 -1.108256
 31 6.919270 -3.849014 -10.201527 -0.088245 -0.076199 -0.105809
 32 1.801674 -1.439342 -4.598675 0.000000 -0.000000 0.000000
 33 0.275625 -0.653330 2.573700 0.000000 -0.000000 0.000000
 34 -2.128445 3.188605 168.111557 0.000000 -0.000000 0.000000
time 1
  0 -2.408944 2.128008 -1.071352 0.000000 -0.000000 0.000000
  1 -2.408944 2.128008 -1.071352 0.000000 -0.000000 0.000000
  2 -2.408944 2.128008 -1.071352 0.000000 -0.000000 0.000000
  3 0.000000 -0.031960 84.497414 0.034907 0.000000 0.000000
  4 0.000000 0.380081 -2.358139 -0.034906 0.000000 0.000000
  5 -6.962072 -1.123270 -14.918671 -0.101719 0.101875 -0.142606
  6 -0.762899 1.783216 -29.522812 0.427741 -0.001317 -0.000342
  7 -1.525354 0.897306 -28.921165 -0.269507 -0.045383 -0.003537
  8 0.354395 -2.635787 -5.445798 0.000000 -0.000000 0.000000
  9 7.456964 -0.120268 -14.357979 -0.087725 -0.147263 -0.018231
 10 0.913363 0.804958 -30.266216 0.352199 0.029378 0.014974
 11 1.054037 0.998068 -28.738487 -0.234373 0.006417 0.019311
 12 0.073698 -2.761299 -5.395100 0.000000 -0.000000 0.000000
 13 0.184103 2.405381 6.536697 -0.017453 0.000000 0.000000
 14 -2.507427 0.706861 2.240997 -0.002011 0.004722 -0.299632
 15 3.250292 -0.229966 -90.900154 0.017445 -0.006626 0.385211
 16 1.065001 0.706861 2.240990 -0.001874 -0.002044 0.156273
 17 -2.362349 -0.468018 -90.905495 0.017471 0.007558 -0.441260
 18 0.000000 -0.154718 2.376091 -0.228659 -0.011581 -0.002857
 19 0.646873 -1.121444 24.709152 0.251272 0.007925 0.004535
 20 -0.331074 15.401074 -4.448265 -0.174533 0.000000 -0.000000
 21 0.294691 4.810116 -18.307007 -0.168527 0.000000 -0.000000
 22 -1.097138 0.677547 9.228622 0.000000 -0.000000 0.000000
 23 -7.043963 -0.624742 16.699593 -0.126418 0.600025 1.209997
 24 -13.119781 0.402665 -15.778522 -0.593886 0.197178 0.385528
 25 -6.930321 -3.869404 -10.071308 -0.211004 0.256843 0.029745
 26 -1.440514 -1.851316 -5.643758 0.108385 0.061949 0.060422
 27 30.607498 4.937173 -71.660210 0.000000 -0.000000 0.000000
 28 -2.740799 -1.783823 -4.956824 0.000000 -0.000000 0.000000
 29 8.158014 -0.446265 16.846825 0.190229 -0.258461 0.181675
 30 12.284374 0.200994 -15.879501 -1.074605 -0.610968 -1.099422
 31 6.919273 -3.849010 -10.201530 -0.088245 -0.076199 -0.105809
 32 1.801674 -1.439339 -4.598675 0.000000 -0.000000 0.000000
 33 0.275626 -0.653332 2.573700 0.000000 -0.000000 0.000000
 34 -2.128445 3.188605 168.111557 0.000000 -0.000000 0.000000
time 2
  0 -2.408944 2.128008 -1.071352 0.000000 -0.000000 0.000000
  1 -2.408944 2.128008 -1.071352 0.000000 -0.000000 0.000000
  2 -2.408944 2.128008 -1.071352 0.000000 -0.000000 0.000000
  3 0.000000 1.493508 84.607071 0.034907 0.000000 0.000000
  4 0.000000 0.380081 -2.358139 -0.034906 0.000000 0.000000
  5 -6.962072 -1.123270 -14.918671 -0.060732 0.097948 -0.141856
  6 -0.762897 1.783215 -29.522808 0.405587 -0.004711 -0.001223
  7 -1.525356 0.897310 -28.921164 -0.210500 -0.035634 -0.003131
  8 0.354393 -2.635786 -5.445796 0.000000 -0.000000 0.000000
  9 7.456964 -0.120268 -14.357979 -0.137807 -0.124992 -0.015474
 10 0.913361 0.804959 -30.266224 0.359643 0.024935 0.012710
 11 1.054035 0.998068 -28.738501 -0.167254 0.005447 0.016390
 12 0.073699 -2.761298 -5.395102 0.000000 -0.000000 0.000000
 13 0.184103 2.405381 6.536690 -0.017453 0.000000 0.000000
 14 -2.507427 0.706860 2.240990 -0.002179 0.004981 -0.317534
 15 3.250292 -0.229966 -90.900146 0.017445 -0.006626 0.385211
 16 1.065002 0.706860 2.240982 -0.002198 -0.002470 0.188279
 17 -2.362349 -0.468018 -90.905487 0.017471 0.007558 -0.441260
 18 0.000000 -0.154718 2.376091 -0.233215 -0.041448 -0.010228
 19 0.646873 -1.121445 24.709152 0.269136 0.028364 0.016230
 20 -0.331074 15.401074 -4.448265 -0.174533 0.000000 -0.000000
 21 0.294691 4.810113 -18.306999 -0.152421 0.000000 -0.000000
 22 -1.097139 0.677547 9.228615 0.000000 -0.000000 0.000000
 23 -7.043963 -0.624741 16.699593 -0.186557 0.628316 0.867262
 24 -13.119774 0.402664 -15.778526 -0.476661 0.157676 0.202288
 25 -6.930321 -3.869408 -10.071306 -0.054680 0.289005 0.213560
 26 -1.440529 -1.851316 -5.643753 0.253750 -0.015013 -0.025986
 27 30.607483 4.937150 -71.660172 0.000000 -0.000000 0.000000
 28 -2.740814 -1.783823 -4.956821 0.000000 -0.000000 0.000000
 29 8.158013 -0.446265 16.846825 0.206873 -0.270610 0.175494
 30 12.284378 0.200994 -15.879509 -1.077459 -0.591496 -1.075834
 31 6.919266 -3.849010 -10.201534 -0.088245 -0.076199 -0.105809
 32 1.801666 -1.439339 -4.598675 0.000000 -0.000000 0.000000
 33 0.275625 -0.653331 2.573708 0.000000 -0.000000 0.000000
 34 -2.128445 3.188605 168.111557 0.000000 -0.000000 0.000000
time 3
  0 -2.408944 2.128008 -1.071352 0.000000 -0.000000 0.000000
  1 -2.408944 2.128008 -1.071352 0.000000 -0.000000 0.000000
  2 -2.408944 2.128008 -1.071352 0.000000 -0.000000 0.000000
  3 0.000000 3.745860 84.768974 0.034907 0.000000 0.000000
  4 0.000000 0.380081 -2.358139 -0.034906 0.000000 0.000000
  5 -6.962072 -1.123270 -14.918671 -0.004689 0.092580 -0.140831
  6 -0.762899 1.783215 -29.522804 0.375294 -0.009352 -0.002429
  7 -1.525352 0.897310 -28.921165 -0.129816 -0.022303 -0.002574
  8 0.354393 -2.635785 -5.445798 0.000000 -0.000000 0.000000
  9 7.456964 -0.120268 -14.357979 -0.206286 -0.094540 -0.011704
 10 0.913362 0.804958 -30.266216 0.369823 0.018860 0.009613
 11 1.054037 0.998068 -28.738497 -0.075478 0.004120 0.012397
 12 0.073697 -2.761298 -5.395101 0.000000 -0.000000 0.000000
 13 0.184103 2.405381 6.536697 -0.017453 0.000000 0.000000
 14 -2.507427 0.706861 2.240990 -0.002440 0.005383 -0.345352
 15 3.250292 -0.229967 -90.900154 0.017445 -0.006626 0.385211
 16 1.065001 0.706861 2.240982 -0.002700 -0.003133 0.238011
 17 -2.362350 -0.468018 -90.905495 0.017471 0.007558 -0.441260
 18 0.000000 -0.154718 2.376091 -0.239444 -0.082286 -0.020307
 19 0.646873 -1.121445 24.709152 0.293563 0.056311 0.032221
 20 -0.331074 15.401073 -4.448257 -0.174533 0.000000 -0.000000
 21 0.294691 4.810110 -18.307007 -0.129082 0.000000 -0.000000
 22 -1.097138 0.677547 9.228630 0.000000 -0.000000 0.000000
 23 -7.043964 -0.624741 16.699593 -0.268788 0.667000 0.398624
 24 -13.119774 0.402662 -15.778526 -0.316374 0.103661 -0.048266
 25 -6.930328 -3.869404 -10.071304 0.159070 0.332982 0.464899
 26 -1.440521 -1.851318 -5.643753 0.452515 -0.120248 -0.144136
 27 30.607491 4.937172 -71.660187 0.000000 -0.000000 0.000000
 28 -2.740814 -1.783823 -4.956820 0.000000 -0.000000 0.000000
 29 8.158012 -0.446264 16.846817 0.231128 -0.288021 0.166301
 30 12.284370 0.200994 -15.879509 -1.081361 -0.563370 -1.041864
 31 6.919270 -3.849014 -10.201534 -0.088245 -0.076199 -0.105809
 32 1.801682 -1.439337 -4.598679 0.000000 -0.000000 0.000000
 33 0.275624 -0.653329 2.573700 0.000000 -0.000000 0.000000
 34 -2.128445 3.188605 168.111557 0.000000 -0.000000 0.000000
time 4
  0 -2.408944 2.128008 -1.071352 0.000000 -0.000000 0.000000
  1 -2.408944 2.128008 -1.071352 0.000000 -0.000000 0.000000
  2 -2.408944 2.128008 -1.071352 0.000000 -0.000000 0.000000
  3 0.000000 6.487747 84.966072 0.034907 0.000000 0.000000
  4 0.000000 0.380079 -2.358139 -0.034906 0.000000 0.000000
  5 -6.962072 -1.123270 -14.918671 0.056373 0.086730 -0.139715
  6 -0.762899 1.783216 -29.522812 0.342289 -0.014409 -0.003742
  7 -1.525356 0.897314 -28.921165 -0.041907 -0.007779 -0.001968
  8 0.354391 -2.635784 -5.445797 0.000000 -0.000000 0.000000
  9 7.456964 -0.120269 -14.357979 -0.280899 -0.061360 -0.007596
 10 0.913363 0.804955 -30.266216 0.380914 0.012241 0.006239
 11 1.054037 0.998073 -28.738495 0.024517 0.002674 0.008046
 12 0.073699 -2.761299 -5.395100 0.000000 -0.000000 0.000000
 13 0.184103 2.405381 6.536697 -0.017453 0.000000 0.000000
 14 -2.507427 0.706861 2.240990 -0.002778 0.005904 -0.381433
 15 3.250293 -0.229967 -90.900139 0.017445 -0.006626 0.385211
 16 1.065001 0.706861 2.240982 -0.003353 -0.003992 0.302515
 17 -2.362349 -0.468017 -90.905495 0.017471 0.007558 -0.441260
 18 0.000000 -0.154719 2.376076 -0.246231 -0.126782 -0.031288
 19 0.646873 -1.121443 24.709145 0.320176 0.086761 0.049644
 20 -0.331074 15.401073 -4.448265 -0.174533 0.000000 -0.000000
 21 0.294691 4.810114 -18.306999 -0.101376 0.000000 -0.000000
 22 -1.097139 0.677546 9.228622 0.000000 -0.000000 0.000000
 23 -7.043963 -0.624740 16.699585 -0.358383 0.709148 -0.111982
 24 -13.119781 0.402672 -15.778522 -0.141733 0.044810 -0.321257
 25 -6.930328 -3.869408 -10.071304 0.391961 0.380898 0.738746
 26 -1.440521 -1.851316 -5.643753 0.669078 -0.234907 -0.272866
 27 30.607483 4.937213 -71.660172 0.000000 -0.000000 0.000000
 28 -2.740814 -1.783823 -4.956818 0.000000 -0.000000 0.000000
 29 8.158014 -0.446267 16.846825 0.260140 -0.308374 0.155005
 30 12.284378 0.200995 -15.879509 -1.085612 -0.530132 -1.001883
 31 6.919266 -3.849010 -10.201538 -0.088245 -0.076199 -0.105809
 32 1.801666 -1.439342 -4.598671 0.000000 -0.000000 0.000000
 33 0.275625 -0.653330 2.573700 0.000000 -0.000000 0.000000
 34 -2.128445 3.188605 168.111557 0.000000 -0.000000 0.000000
time 5
  0 -2.408944 2.128008 -1.071352 0.000000 -0.000000 0.000000
  1 -2.408944 2.128008 -1.071352 0.000000 -0.000000 0.000000
  2 -2.408944 2.128008 -1.071352 0.000000 -0.000000 0.000000
  3 0.000000 9.481817 85.181290 0.034907 0.000000 0.000000
  4 0.000000 0.380081 -2.358139 -0.034906 0.000000 0.000000
  5 -6.962072 -1.123271 -14.918671 0.112416 0.081362 -0.138690
  6 -0.762899 1.783216 -29.522804 0.311996 -0.019050 -0.004947
  7 -1.525356 0.897312 -28.921165 0.038777 0.005552 -0.001412
  8 0.354393 -2.635784 -5.445798 0.000000 -0.000000 0.000000
  9 7.456964 -0.120268 -14.357979 -0.349378 -0.030907 -0.003826
 10 0.913362 0.804958 -30.266224 0.391094 0.006166 0.003143
 11 1.054037 0.998068 -28.738495 0.116293 0.001347 0.004053
 12 0.073697 -2.761300 -5.395102 0.000000 -0.000000 0.000000
 13 0.184103 2.405381 6.536690 -0.017453 0.000000 0.000000
 14 -2.507427 0.706861 2.240997 -0.003178 0.006521 -0.424123
 15 3.250292 -0.229967 -90.900146 0.017445 -0.006626 0.385211
 16 1.065001 0.706861 2.240990 -0.004124 -0.005009 0.378837
 17 -2.362350 -0.468018 -90.905487 0.017471 0.007558 -0.441260
 18 0.000000 -0.154717 2.376083 -0.252461 -0.167621 -0.041366
 19 0.646872 -1.121445 24.709145 0.344603 0.114708 0.065635
 20 -0.331074 15.401073 -4.448265 -0.174533 0.000000 0.000000
 21 0.294692 4.810112 -18.306992 -0.072169 0.000000 -0.000000
 22 -1.097139 0.677547 9.228622 0.000000 -0.000000 0.000000
 23 -7.043963 -0.624741 16.699593 -0.440614 0.747832 -0.580621
 24 -13.119781 0.402668 -15.778526 0.018554 -0.009204 -0.571810
 25 -6.930321 -3.869400 -10.071304 0.605710 0.424875 0.990085
 26 -1.440521 -1.851315 -5.643749 0.867843 -0.340142 -0.391016
 27 30.607502 4.937214 -71.660179 0.000000 -0.000000 0.000000
 28 -2.740814 -1.783820 -4.956821 0.000000 -0.000000 0.000000
 29 8.158013 -0.446263 16.846817 0.291056 -0.329348 0.142512
 30 12.284378 0.200994 -15.879509 -1.089514 -0.495322 -0.960262
 31 6.919270 -3.849016 -10.201523 -0.088245 -0.076199 -0.105809
 32 1.801674 -1.439346 -4.598679 0.000000 -0.000000 0.000000
 33 0.275626 -0.653329 2.573700 0.000000 -0.000000 0.000000
 34 -2.128445 3.188605 168.111557 0.000000 -0.000000 0.000000
time 6
  0 -2.408944 2.128008 -1.071352 0.000000 -0.000000 0.000000
  1 -2.408944 2.128008 -1.071352 0.000000 -0.000000 0.000000
  2 -2.408944 2.128008 -1.071352 0.000000 -0.000000 0.000000
  3 0.000000 12.490721 85.397583 0.034907 0.000000 0.000000
  4 0.000000 0.380081 -2.358139 -0.034906 0.000000 0.000000
  5 -6.962072 -1.123271 -14.918671 0.153403 0.077435 -0.137940
  6 -0.762901 1.783215 -29.522808 0.289842 -0.022444 -0.005828
  7 -1.525356 0.897308 -28.921167 0.097784 0.015301 -0.001006
  8 0.354391 -2.635784 -5.445798 0.000000 -0.000000 0.000000
  9 7.456964 -0.120268 -14.357979 -0.399460 -0.008636 -0.001069
 10 0.913362 0.804958 -30.266220 0.398539 0.001723 0.000878
 11 1.054038 0.998068 -28.738493 0.183413 0.000376 0.001133
 12 0.073699 -2.761300 -5.395100 0.000000 -0.000000 0.000000
 13 0.184103 2.405381 6.536690 -0.017453 0.000000 0.000000
 14 -2.507426 0.706860 2.241005 -0.003624 0.007210 -0.471772
 15 3.250291 -0.229968 -90.900154 0.017445 -0.006626 0.385211
 16 1.065002 0.706860 2.240997 -0.004985 -0.006143 0.464022
 17 -2.362349 -0.468019 -90.905495 0.017471 0.007558 -0.441260
 18 0.000000 -0.154718 2.376083 -0.257016 -0.197488 -0.048737
 19 0.646874 -1.121444 24.709145 0.362467 0.135147 0.077330
 20 -0.331074 15.401073 -4.448265 -0.174533 0.000000 0.000000
 21 0.294691 4.810114 -18.307007 -0.044328 0.000000 -0.000000
 22 -1.097139 0.677551 9.228615 0.000000 -0.000000 0.000000
 23 -7.043965 -0.624742 16.699593 -0.500753 0.776123 -0.923356
 24 -13.119774 0.402668 -15.778526 0.135779 -0.048707 -0.755051
 25 -6.930326 -3.869408 -10.071308 0.762034 0.457037 1.173900
 26 -1.440521 -1.851311 -5.643749 1.013208 -0.417104 -0.477424
 27 30.607498 4.937218 -71.660187 0.000000 -0.000000 0.000000
 28 -2.740799 -1.783821 -4.956821 0.000000 -0.000000 0.000000
 29 8.158013 -0.446265 16.846817 0.321025 -0.348623 0.129730
 30 12.284378 0.200994 -15.879524 -1.092368 -0.462482 -0.921374
 31 6.919277 -3.849014 -10.201530 -0.088245 -0.076199 -0.105809
 32 1.801666 -1.439337 -4.598679 0.000000 -0.000000 0.000000
 33 0.275624 -0.653329 2.573692 0.000000 -0.000000 0.000000
 34 -2.128445 3.188605 168.111557 0.000000 -0.000000 0.000000
time 7
  0 -2.408944 2.128008 -1.071352 0.000000 -0.000000 0.000000
  1 -2.408944 2.128008 -1.071352 0.000000 -0.000000 0.000000
  2 -2.408944 2.128008 -1.071352 0.000000 -0.000000 0.000000
  3 0.000000 15.277111 85.597870 0.034907 0.000000 0.000000
  4 0.000000 0.380083 -2.358139 -0.034906 0.000000 0.000000
  5 -6.962072 -1.123272 -14.918678 0.169296 0.075913 -0.137650
  6 -0.762899 1.783215 -29.522812 0.281252 -0.023760 -0.006170
  7 -1.525352 0.897312 -28.921165 0.120665 0.019082 -0.000848
  8 0.354393 -2.635784 -5.445799 0.000000 -0.000000 0.000000
  9 7.456964 -0.120270 -14.357979 -0.418880 -0.000000 -0.000000
 10 0.913361 0.804957 -30.266216 0.401426 0.000000 -0.000000
 11 1.054037 0.998068 -28.738499 0.209439 0.000000 0.000000
 12 0.073698 -2.761301 -5.395101 0.000000 -0.000000 0.000000
 13 0.184103 2.405380 6.536682 -0.017453 0.000000 0.000000
 14 -2.507427 0.706861 2.240997 -0.004102 0.007946 -0.522726
 15 3.250293 -0.229968 -90.900146 0.017445 -0.006626 0.385211
 16 1.065001 0.706861 2.240997 -0.005906 -0.007357 0.555116
 17 -2.362350 -0.468018 -90.905495 0.017471 0.007558 -0.441260
 18 0.000000 -0.154718 2.376091 -0.258783 -0.209069 -0.051595
 19 0.646872 -1.121443 24.709152 0.369394 0.143072 0.081865
 20 -0.331074 15.401070 -4.448265 -0.174533 0.000000 0.000000
 21 0.294691 4.810112 -18.307007 -0.020719 0.000000 -0.000000
 22 -1.097139 0.677547 9.228630 0.000000 -0.000000 0.000000
 23 -7.043964 -0.624739 16.699585 -0.524072 0.787093 -1.056253
 24 -13.119781 0.402664 -15.778526 0.181234 -0.064024 -0.826103
 25 -6.930325 -3.869408 -10.071304 0.822649 0.469508 1.245175
 26 -1.440514 -1.851315 -5.643757 1.069573 -0.446947 -0.510929
 27 30.607521 4.937210 -71.660194 0.000000 -0.000000 0.000000
 28 -2.740799 -1.783819 -4.956821 0.000000 -0.000000 0.000000
 29 8.158012 -0.446264 16.846817 0.347194 -0.363877 0.117568
 30 12.284370 0.200994 -15.879517 -1.093475 -0.435153 -0.889588
 31 6.919273 -3.849018 -10.201523 -0.088245 -0.076199 -0.105809
 32 1.801674 -1.439341 -4.598671 0.000000 -0.000000 0.000000
 33 0.275624 -0.653328 2.573700 0.000000 -0.000000 0.000000
 34 -2.128445 3.188605 168.111557 0.000000 -0.000000 0.000000
time 8
  0 -2.408944 2.128008 -1.071352 0.000000 -0.000000 0.000000
  1 -2.408944 2.128008 -1.071352 0.000000 -0.000000 0.000000
  2 -2.408944 2.128008 -1.071352 0.000000 -0.000000 0.000000
  3 0.000000 17.603636 85.765114 0.034907 0.000000 0.008060
  4 0.000000 0.380083 -2.358139 -0.034906 -0.000000 0.000000
  5 -6.962072 -1.123270 -14.918678 0.169296 0.075913 -0.137650
  6 -0.762899 1.783213 -29.522812 0.281252 -0.023760 -0.006170
  7 -1.525352 0.897305 -28.921165 0.120664 0.019082 -0.000848
  8 0.354391 -2.635784 -5.445797 0.000000 -0.000000 0.000000
  9 7.456964 -0.120266 -14.357979 -0.418880 -0.000000 0.000000
 10 0.913362 0.804961 -30.266220 0.401426 0.000000 0.000000
 11 1.054037 0.998069 -28.738495 0.209439 -0.000000 0.000000
 12 0.073699 -2.761301 -5.395101 0.000000 -0.000000 0.000000
 13 0.184103 2.405382 6.536690 -0.017453 0.000000 0.000000
 14 -2.507427 0.706863 2.240990 -0.004595 0.008706 -0.575332
 15 3.250292 -0.229965 -90.900154 0.017445 -0.006626 0.385211
 16 1.065001 0.706861 2.240982 -0.006857 -0.008610 0.649164
 17 -2.362350 -0.468018 -90.905479 0.017471 0.007558 -0.441260
 18 0.000000 -0.154718 2.376083 -0.258783 -0.209069 -0.051595
 19 0.646875 -1.121443 24.709145 0.369394 0.143072 0.081865
 20 -0.331074 15.401070 -4.448265 -0.174533 0.000000 -0.000000
 21 0.294692 4.810116 -18.306999 0.000749 0.000000 -0.000000
 22 -1.097139 0.677544 9.228615 0.000000 -0.000000 0.000000
 23 -7.043962 -0.624741 16.699585 -0.524072 0.787093 -1.056253
 24 -13.119774 0.402664 -15.778534 0.181234 -0.064025 -0.826103
 25 -6.930323 -3.869400 -10.071304 0.822649 0.469508 1.245175
 26 -1.440521 -1.851316 -5.643753 1.069487 -0.433625 -0.483378
 27 30.607521 4.937199 -71.660194 0.000000 -0.000000 0.000000
 28 -2.740807 -1.783821 -4.956821 0.000000 -0.000000 0.000000
 29 8.158014 -0.446266 16.846825 0.371862 -0.376822 0.105190
 30 12.284378 0.200996 -15.879509 -1.092584 -0.410617 -0.861603
 31 6.919273 -3.849016 -10.201523 -0.088245 -0.076199 -0.105809
 32 1.801670 -1.439339 -4.598671 0.000000 -0.000000 0.000000
 33 0.275626 -0.653330 2.573700 0.000000 -0.000000 0.000000
 34 -2.128445 3.188605 168.111557 0.000000 -0.000000 0.000000
time 9
  0 -2.408944 2.128008 -1.071352 0.000000 -0.000000 0.000000
  1 -2.408944 2.128008 -1.071352 0.000000 -0.000000 0.000000
  2 -2.408944 2.128008 -1.071352 0.000000 -0.000000 0.000000
  3 0.000000 19.232944 85.882233 0.034907 0.000000 0.029898
  4 -0.000000 0.380083 -2.358139 -0.034906 -0.000000 -0.000000
  5 -6.962072 -1.123270 -14.918678 0.169296 0.075913 -0.137650
  6 -0.762899 1.783215 -29.522812 0.281252 -0.023760 -0.006170
  7 -1.525356 0.897308 -28.921165 0.120665 0.019082 -0.000848
  8 0.354393 -2.635784 -5.445801 0.000000 -0.000000 0.000000
  9 7.456965 -0.120268 -14.357979 -0.418880 -0.000000 0.000000
 10 0.913362 0.804955 -30.266220 0.401426 0.000000 -0.000000
 11 1.054038 0.998069 -28.738499 0.209439 -0.000000 0.000000
 12 0.073699 -2.761300 -5.395102 0.000000 -0.000000 0.000000
 13 0.184103 2.405382 6.536682 -0.017453 0.000000 0.000000
 14 -2.507426 0.706860 2.240997 -0.005088 0.009466 -0.627938
 15 3.250292 -0.229967 -90.900154 0.017445 -0.006626 0.385211
 16 1.065001 0.706861 2.240990 -0.007808 -0.009863 0.743212
 17 -2.362350 -0.468018 -90.905487 0.017471 0.007558 -0.441260
 18 -0.000000 -0.154718 2.376091 -0.258783 -0.209069 -0.051595
 19 0.646873 -1.121445 24.709145 0.369394 0.143072 0.081865
 20 -0.331074 15.401077 -4.448273 -0.174533 0.000000 0.000000
 21 0.294692 4.810108 -18.306999 0.023866 0.000000 -0.000000
 22 -1.097139 0.677547 9.228615 0.000000 -0.000000 0.000000
 23 -7.043962 -0.624741 16.699585 -0.524072 0.787093 -1.056253
 24 -13.119781 0.402666 -15.778530 0.181234 -0.064024 -0.826103
 25 -6.930330 -3.869400 -10.071304 0.822649 0.469508 1.245175
 26 -1.440521 -1.851313 -5.643753 1.069170 -0.398176 -0.411232
 27 30.607498 4.937225 -71.660202 0.000000 -0.000000 0.000000
 28 -2.740814 -1.783819 -4.956821 0.000000 -0.000000 0.000000
 29 8.158014 -0.446266 16.846817 0.398874 -0.390566 0.091362
 30 12.284370 0.200996 -15.879517 -1.090065 -0.384116 -0.831552
 31 6.919277 -3.849018 -10.201530 -0.088245 -0.076199 -0.105809
 32 1.801678 -1.439344 -4.598679 0.000000 -0.000000 0.000000
 33 0.275626 -0.653330 2.573700 0.000000 -0.000000 0.000000
 34 -2.128445 3.188605 168.111557 0.000000 -0.000000 0.000000
time 10
  0 -2.408944 2.128008 -1.071352 0.000000 -0.000000 0.000000
  1 -2.408944 2.128008 -1.071352 0.000000 -0.000000 0.000000
  2 -2.408944 2.128008 -1.071352 0.000000 -0.000000 0.000000
  3 0.000000 19.927685 85.932167 0.034907 0.000000 0.062002
  4 0.000000 0.380081 -2.358131 -0.034906 -0.000000 0.000000
  5 -6.962073 -1.123270 -14.918678 0.169296 0.075913 -0.137650
  6 -0.762898 1.783215 -29.522808 0.281252 -0.023760 -0.006170
  7 -1.525354 0.897308 -28.921165 0.120665 0.019082 -0.000848
  8 0.354391 -2.635788 -5.445796 0.000000 -0.000000 0.000000
  9 7.456965 -0.120270 -14.357979 -0.418879 -0.000000 0.000000
 10 0.913363 0.804958 -30.266216 0.401426 0.000000 -0.000000
 11 1.054038 0.998074 -28.738489 0.209439 -0.000000 0.000000
 12 0.073698 -2.761299 -5.395101 0.000000 -0.000000 0.000000
 13 0.184103 2.405380 6.536697 -0.017453 0.000000 0.000000
 14 -2.507427 0.706861 2.240997 -0.005565 0.010203 -0.678891
 15 3.250292 -0.229966 -90.900146 0.017445 -0.006626 0.385211
 16 1.065002 0.706861 2.240990 -0.008729 -0.011076 0.834306
 17 -2.362350 -0.468018 -90.905495 0.017471 0.007558 -0.441260
 18 0.000000 -0.154718 2.376091 -0.258783 -0.209069 -0.051595
 19 0.646874 -1.121443 24.709152 0.369394 0.143072 0.081865
 20 -0.331074 15.401070 -4.448273 -0.174533 0.000000 -0.000000
 21 0.294692 4.810120 -18.307007 0.048320 0.000000 -0.000000
 22 -1.097138 0.677544 9.228622 0.000000 -0.000000 0.000000
 23 -7.043964 -0.624741 16.699585 -0.524072 0.787093 -1.056253
 24 -13.119774 0.402668 -15.778526 0.181234 -0.064025 -0.826103
 25 -6.930328 -3.869408 -10.071312 0.822649 0.469508 1.245175
 26 -1.440521 -1.851316 -5.643757 1.068539 -0.347375 -0.310251
 27 30.607491 4.937220 -71.660187 0.000000 -0.000000 0.000000
 28 -2.740814 -1.783821 -4.956821 0.000000 -0.000000 0.000000
 29 8.158015 -0.446262 16.846817 0.427700 -0.404889 0.076387
 30 12.284378 0.200993 -15.879513 -1.086146 -0.356130 -0.799956
 31 6.919273 -3.849014 -10.201530 -0.088245 -0.076199 -0.105809
 32 1.801670 -1.439339 -4.598679 0.000000 -0.000000 0.000000
 33 0.275626 -0.653330 2.573700 0.000000 -0.000000 0.000000
 34 -2.128445 3.188605 168.111557 0.000000 -0.000000 0.000000
time 11
  0 -2.408944 2.128008 -1.071352 0.000000 -0.000000 0.000000
  1 -2.408944 2.128008 -1.071352 0.000000 -0.000000 0.000000
  2 -2.408944 2.128008 -1.071352 0.000000 -0.000000 0.000000
  3 0.000000 17.017651 85.932846 0.034906 0.000000 0.100857
  4 -0.000000 0.380081 -2.358139 -0.034906 -0.000000 0.000000
  5 -6.962073 -1.123274 -14.918671 0.167677 0.076068 -0.137679
  6 -0.762900 1.783213 -29.522812 0.282127 -0.023626 -0.006135
  7 -1.525355 0.897308 -28.921164 0.118333 0.018696 -0.000864
  8 0.354391 -2.635788 -5.445799 0.000000 -0.000000 0.000000
  9 7.456964 -0.120270 -14.357979 -0.416901 -0.000880 -0.000109
 10 0.913361 0.804955 -30.266220 0.429825 0.000764 -0.000516
 11 1.054036 0.998064 -28.738497 0.206787 0.000038 0.000116
 12 0.073698 -2.761301 -5.395103 0.000000 -0.000000 0.000000
 13 0.184103 2.405378 6.536690 -0.017453 0.000000 0.000000
 14 -2.507427 0.706861 2.240997 -0.006012 0.010891 -0.726540
 15 3.250291 -0.229967 -90.900154 0.017445 -0.006626 0.385211
 16 1.065001 0.706861 2.240997 -0.009590 -0.012211 0.919491
 17 -2.362350 -0.468018 -90.905495 0.017471 0.007558 -0.441260
 18 -0.000000 -0.154720 2.376091 -0.244183 -0.186931 -0.011787
 19 0.646873 -1.121445 24.709145 0.368744 0.143173 0.076025
 20 -0.331074 15.401077 -4.448273 -0.174533 0.000000 0.000000
 21 0.294693 4.810116 -18.307007 0.073798 0.000000 -0.000000
 22 -1.097139 0.677547 9.228615 0.000000 -0.000000 0.000000
 23 -7.043964 -0.624741 16.699585 -0.655296 0.627171 -0.696100
 24 -13.119774 0.402664 -15.778526 0.211649 -0.056638 -0.715262
 25 -6.930325 -3.869400 -10.071304 0.823422 0.467839 1.246832
 26 -1.440521 -1.851315 -5.643753 1.067509 -0.287997 -0.196194
 27 30.607475 4.937201 -71.660179 0.000000 -0.000000 0.000000
 28 -2.740814 -1.783821 -4.956821 0.000000 -0.000000 0.000000
 29 8.158014 -0.446264 16.846817 0.457807 -0.419571 0.060571
 30 12.284378 0.201000 -15.879509 -1.081057 -0.327138 -0.767340
 31 6.919273 -3.849018 -10.201546 -0.088245 -0.076199 -0.105809
 32 1.801678 -1.439342 -4.598671 0.000000 -0.000000 0.000000
 33 0.275627 -0.653332 2.573700 0.000000 -0.000000 0.000000
 34 -2.128445 3.188605 168.111557 0.000000 -0.000000 0.000000
time 12
  0 -2.408944 2.128008 -1.071352 0.000000 -0.000000 0.000000
  1 -2.408944 2.128008 -1.071352 0.000000 -0.000000 0.000000
  2 -2.408944 2.128008 -1.071352 0.000000 -0.000000 0.000000
  3 0.000000 8.931625 85.932846 0.034906 0.000000 0.142951
  4 -0.000000 0.380081 -2.358139 -0.034906 0.000000 0.000000
  5 -6.962072 -1.123270 -14.918671 0.162118 0.076601 -0.137781
  6 -0.762899 1.783216 -29.522808 0.285132 -0.023166 -0.006016
  7 -1.525356 0.897310 -28.921165 0.110330 0.017374 -0.000919
  8 0.354392 -2.635784 -5.445799 0.000000 -0.000000 0.000000
  9 7.456966 -0.120270 -14.357979 -0.410108 -0.003901 -0.000483
 10 0.913362 0.804958 -30.266212 0.514260 0.003100 -0.002051
 11 1.054038 0.998069 -28.738491 0.197683 0.000170 0.000512
 12 0.073698 -2.761301 -5.395101 0.000000 -0.000000 0.000000
 13 0.184103 2.405380 6.536690 -0.017453 0.000000 0.000000
 14 -2.507426 0.706861 2.240997 -0.006412 0.011508 -0.769231
 15 3.250292 -0.229967 -90.900146 0.017445 -0.006626 0.385211
 16 1.065001 0.706861 2.240997 -0.010362 -0.013228 0.995813
 17 -2.362350 -0.468019 -90.905495 0.017471 0.007558 -0.441260
 18 0.000000 -0.154717 2.376083 -0.199026 -0.118461 0.111335
 19 0.646872 -1.121442 24.709145 0.366524 0.143512 0.056479
 20 -0.331075 15.401077 -4.448273 -0.174533 0.000000 0.000000
 21 0.294693 4.810116 -18.307007 0.099988 0.000000 -0.000000
 22 -1.097139 0.677547 9.228615 0.000000 -0.000000 0.000000
 23 -7.043965 -0.624739 16.699593 -0.953721 0.267503 0.125546
 24 -13.119781 0.402657 -15.778530 0.279703 -0.040111 -0.462291
 25 -6.930325 -3.869400 -10.071301 0.826011 0.462170 1.252376
 26 -1.440521 -1.851317 -5.643751 1.065996 -0.226817 -0.084821
 27 30.607498 4.937206 -71.660187 0.000000 -0.000000 0.000000
 28 -2.740807 -1.783822 -4.956820 0.000000 -0.000000 0.000000
 29 8.158014 -0.446264 16.846825 0.488663 -0.434391 0.044216
 30 12.284374 0.200993 -15.879517 -1.075027 -0.297619 -0.734226
 31 6.919277 -3.849018 -10.201530 -0.088245 -0.076199 -0.105809
 32 1.801678 -1.439342 -4.598671 0.000000 -0.000000 0.000000
 33 0.275625 -0.653330 2.573708 0.000000 -0.000000 0.000000
 34 -2.128445 3.188605 168.111557 0.000000 -0.000000 0.000000
time 13
  0 -2.408944 2.128008 -1.071352 0.000000 -0.000000 0.000000
  1 -2.408944 2.128008 -1.071352 0.000000 -0.000000 0.000000
  2 -2.408944 2.128008 -1.071352 0.000000 -0.000000 0.000000
  3 0.000000 -0.295640 85.932846 0.034906 0.000000 0.184770
  4 0.000000 0.380081 -2.358139 -0.034906 -0.000000 -0.000000
  5 -6.962073 -1.123270 -14.918671 0.153023 0.077472 -0.137947
  6 -0.762899 1.783216 -29.522812 0.290048 -0.022413 -0.005820
  7 -1.525355 0.897310 -28.921162 0.097236 0.015211 -0.001009
  8 0.354392 -2.635782 -5.445796 0.000000 -0.000000 0.000000
  9 7.456965 -0.120268 -14.357979 -0.398995 -0.008843 -0.001095
 10 0.913361 0.804955 -30.266220 0.625402 0.006336 -0.004072
 11 1.054036 0.998066 -28.738491 0.182789 0.000385 0.001160
 12 0.073699 -2.761301 -5.395101 0.000000 -0.000000 0.000000
 13 0.184103 2.405381 6.536690 -0.017453 0.000000 0.000000
 14 -2.507427 0.706861 2.240997 -0.006750 0.012030 -0.805312
 15 3.250292 -0.229967 -90.900146 0.017445 -0.006626 0.385211
 16 1.065001 0.706861 2.240990 -0.011014 -0.014087 1.060317
 17 -2.362349 -0.468017 -90.905487 0.017471 0.007558 -0.441260
 18 0.000000 -0.154718 2.376091 -0.135414 -0.022009 0.284773
 19 0.646873 -1.121443 24.709145 0.362916 0.144047 0.025539
 20 -0.331075 15.401073 -4.448265 -0.174533 0.000000 0.000000
 21 0.294690 4.810120 -18.306992 0.126577 0.000000 -0.000001
 22 -1.097138 0.677547 9.228630 0.000000 -0.000000 0.000000
 23 -7.043963 -0.624740 16.699585 -1.127895 0.070116 0.613193
 24 -13.119781 0.402664 -15.778530 0.315793 -0.031308 -0.311854
 25 -6.930326 -3.869400 -10.071304 0.830107 0.453026 1.261152
 26 -1.440521 -1.851315 -5.643757 1.063916 -0.170612 0.008109
 27 30.607506 4.937195 -71.660202 0.000000 -0.000000 0.000000
 28 -2.740814 -1.783822 -4.956821 0.000000 -0.000000 0.000000
 29 8.158014 -0.446265 16.846817 0.519735 -0.449128 0.027628
 30 12.284382 0.200993 -15.879509 -1.068284 -0.268053 -0.701137
 31 6.919277 -3.849016 -10.201530 -0.088245 -0.076199 -0.105809
 32 1.801674 -1.439337 -4.598679 0.000000 -0.000000 0.000000
 33 0.275625 -0.653330 2.573700 0.000000 -0.000000 0.000000
 34 -2.128445 3.188605 168.111557 0.000000 -0.000000 0.000000
time 14
  0 -2.408944 2.128008 -1.071352 0.000000 -0.000000 0.000000
  1 -2.408944 2.128008 -1.071352 0.000000 -0.000000 0.000000
  2 -2.408944 2.128008 -1.071352 0.000000 -0.000000 0.000000
  3 0.000000 -6.568430 85.932846 0.034906 0.000000 0.222802
  4 0.000000 0.380081 -2.358139 -0.034906 -0.000000 -0.000000
  5 -6.962072 -1.123270 -14.918671 0.140831 0.078640 -0.138170
  6 -0.762900 1.783216 -29.522808 0.296638 -0.021403 -0.005558
  7 -1.525355 0.897310 -28.921169 0.079683 0.012310 -0.001130
  8 0.354391 -2.635782 -5.445798 0.000000 -0.000000 0.000000
  9 7.456964 -0.120268 -14.357979 -0.384097 -0.015468 -0.001915
 10 0.913362 0.804955 -30.266218 0.733264 0.009779 -0.006033
 11 1.054037 0.998073 -28.738491 0.162823 0.000674 0.002028
 12 0.073698 -2.761299 -5.395100 0.000000 -0.000000 0.000000
 13 0.184103 2.405381 6.536690 -0.017453 0.000000 0.000000
 14 -2.507427 0.706861 2.240997 -0.007011 0.012432 -0.833129
 15 3.250292 -0.229968 -90.900154 0.017445 -0.006626 0.385211
 16 1.065001 0.706861 2.240990 -0.011517 -0.014749 1.110049
 17 -2.362350 -0.468018 -90.905479 0.017471 0.007558 -0.441260
 18 0.000000 -0.154719 2.376083 -0.065781 0.083574 0.474631
 19 0.646873 -1.121443 24.709145 0.358112 0.144738 -0.014356
 20 -0.331074 15.401077 -4.448257 -0.174533 0.000000 0.000000
 21 0.294691 4.810114 -18.307007 0.153253 0.000000 -0.000000
 22 -1.097137 0.677544 9.228622 0.000000 -0.000000 0.000000
 23 -7.043964 -0.624741 16.699593 -1.152719 0.060469 0.690424
 24 -13.119778 0.402664 -15.778526 0.205458 -0.031847 -0.301974
 25 -6.930326 -3.869400 -10.071304 0.835390 0.440966 1.272468
 26 -1.440521 -1.851315 -5.643753 1.061184 -0.126155 0.066836
 27 30.607491 4.937208 -71.660202 0.000000 -0.000000 0.000000
 28 -2.740799 -1.783821 -4.956825 0.000000 -0.000000 0.000000
 29 8.158014 -0.446264 16.846817 0.550492 -0.463561 0.011110
 30 12.284378 0.200996 -15.879517 -1.061059 -0.238918 -0.668595
 31 6.919277 -3.849020 -10.201538 -0.088245 -0.076199 -0.105809
 32 1.801670 -1.439342 -4.598679 0.000000 -0.000000 0.000000
 33 0.275625 -0.653330 2.573700 0.000000 -0.000000 0.000000
 34 -2.128445 3.188605 168.111557 0.000000 -0.000000 0.000000
time 15
  0 -2.408944 2.128008 -1.071352 0.000000 -0.000000 0.000000
  1 -2.408944 2.128008 -1.071352 0.000000 -0.000000 0.000000
  2 -2.408944 2.128008 -1.071352 0.000000 -0.000000 0.000000
  3 0.000000 -8.445317 85.932846 0.034906 0.000000 0.253533
  4 0.000000 0.380081 -2.358139 -0.034906 0.000000 -0.000000
  5 -6.962072 -1.123271 -14.918671 0.125980 0.080062 -0.138442
  6 -0.762899 1.783216 -29.522812 0.304665 -0.020173 -0.005239
  7 -1.525357 0.897310 -28.921165 0.058303 0.008778 -0.001278
  8 0.354391 -2.635785 -5.445798 0.000000 -0.000000 0.000000
  9 7.456964 -0.120268 -14.357979 -0.365951 -0.023538 -0.002914
 10 0.913363 0.804958 -30.266220 0.807859 0.012738 -0.007390
 11 1.054038 0.998073 -28.738491 0.138504 0.001026 0.003087
 12 0.073699 -2.761298 -5.395099 0.000000 -0.000000 0.000000
 13 0.184103 2.405381 6.536690 -0.017453 0.000000 0.000000
 14 -2.507427 0.706861 2.240997 -0.007179 0.012690 -0.851032
 15 3.250292 -0.229967 -90.900139 0.017445 -0.006626 0.385211
 16 1.065001 0.706861 2.240990 -0.011840 -0.015176 1.142055
 17 -2.362350 -0.468018 -90.905479 0.017471 0.007558 -0.441260
 18 0.000000 -0.154718 2.376083 -0.002558 0.179438 0.647010
 19 0.646873 -1.121444 24.709152 0.352308 0.145542 -0.060766
 20 -0.331078 15.401073 -4.448265 -0.174533 0.000000 0.000000
 21 0.294693 4.810120 -18.306999 0.179702 0.000000 -0.000000
 22 -1.097141 0.677547 9.228622 0.000000 -0.000000 0.000000
 23 -7.043964 -0.624740 16.699600 -1.174715 0.051615 0.751984
 24 -13.119778 0.402664 -15.778526 0.117538 -0.039692 -0.287312
 25 -6.930326 -3.869408 -10.071301 0.841536 0.426547 1.285632
 26 -1.440529 -1.851312 -5.643753 1.056068 -0.098635 0.079933
 27 30.607506 4.937185 -71.660210 0.000000 -0.000000 0.000000
 28 -2.740814 -1.783822 -4.956821 0.000000 -0.000000 0.000000
 29 8.158013 -0.446265 16.846825 0.580401 -0.477470 -0.005033
 30 12.284378 0.200989 -15.879509 -1.053579 -0.210694 -0.637125
 31 6.919279 -3.849010 -10.201538 -0.088245 -0.076199 -0.105809
 32 1.801674 -1.439339 -4.598679 0.000000 -0.000000 0.000000
 33 0.275625 -0.653330 2.573708 0.000000 -0.000000 0.000000
 34 -2.128445 3.188605 168.111557 0.000000 -0.000000 0.000000
time 16
  0 -2.408944 2.128008 -1.071352 0.000000 -0.000000 0.000000
  1 -2.408944 2.128008 -1.071352 0.000000 -0.000000 0.000000
  2 -2.408944 2.128008 -1.071352 0.000000 -0.000000 0.000000
  3 0.000000 -9.846021 85.932846 0.034906 0.000000 0.273449
  4 0.000000 0.380081 -2.358139 -0.034906 -0.000000 -0.000000
  5 -6.962072 -1.123270 -14.918671 0.108909 0.081698 -0.138754
  6 -0.762901 1.783216 -29.522804 0.313892 -0.018759 -0.004872
  7 -1.525354 0.897308 -28.921165 0.033727 0.004717 -0.001447
  8 0.354393 -2.635785 -5.445797 0.000000 -0.000000 0.000000
  9 7.456965 -0.120268 -14.357979 -0.345092 -0.032813 -0.004062
 10 0.913362 0.804956 -30.266216 0.823500 0.014624 -0.007649
 11 1.054038 0.998069 -28.738499 0.110549 0.001430 0.004303
 12 0.073698 -2.761300 -5.395101 0.000000 -0.000000 0.000000
 13 0.184103 2.405381 6.536690 -0.017453 0.000000 0.000000
 14 -2.507427 0.706861 2.240997 -0.007238 0.012782 -0.857367
 15 3.250292 -0.229966 -90.900162 0.017445 -0.006626 0.385211
 16 1.065001 0.706861 2.240997 -0.011955 -0.015327 1.153380
 17 -2.362350 -0.468018 -90.905495 0.017471 0.007558 -0.441260
 18 -0.000000 -0.154719 2.376091 0.041822 0.246729 0.768013
 19 0.646875 -1.121444 24.709145 0.345699 0.146416 -0.111254
 20 -0.331074 15.401073 -4.448273 -0.174533 0.000000 0.000000
 21 0.294693 4.810112 -18.306999 0.205612 0.000000 -0.000000
 22 -1.097137 0.677544 9.228615 0.000000 -0.000000 0.000000
 23 -7.043961 -0.624741 16.699593 -1.193947 0.043599 0.800663
 24 -13.119781 0.402664 -15.778530 0.073795 -0.115241 -0.251523
 25 -6.930327 -3.869408 -10.071308 0.848221 0.410329 1.299953
 26 -1.440521 -1.851314 -5.643753 1.032323 -0.076148 0.081859
 27 30.607513 4.937197 -71.660202 0.000000 -0.000000 0.000000
 28 -2.740814 -1.783823 -4.956821 0.000000 -0.000000 0.000000
 29 8.158014 -0.446265 16.846825 0.608931 -0.490635 -0.020497
 30 12.284376 0.200996 -15.879517 -1.046074 -0.183860 -0.607248
 31 6.919279 -3.849014 -10.201530 -0.088245 -0.076199 -0.105809
 32 1.801678 -1.439342 -4.598671 0.000000 -0.000000 0.000000
 33 0.275627 -0.653330 2.573708 0.000000 -0.000000 0.000000
 34 -2.128445 3.188605 168.111557 0.000000 -0.000000 0.000000
time 17
  0 -2.408944 2.128008 -1.071352 0.000000 -0.000000 0.000000
  1 -2.408944 2.128008 -1.071352 0.000000 -0.000000 0.000000
  2 -2.408944 2.128008 -1.071352 0.000000 -0.000000 0.000000
  3 0.000000 -10.973194 85.932846 0.034906 0.000000 0.279135
  4 0.000000 0.380080 -2.358139 -0.034906 0.000000 0.000000
  5 -6.962071 -1.123270 -14.918678 0.090057 0.083504 -0.139099
  6 -0.762899 1.783216 -29.522800 0.324082 -0.017198 -0.004466
  7 -1.525354 0.897310 -28.921167 0.006586 0.000233 -0.001634
  8 0.354391 -2.635784 -5.445797 0.000000 -0.000000 0.000000
  9 7.456964 -0.120268 -14.357979 -0.322056 -0.043057 -0.005330
 10 0.913363 0.804955 -30.266212 0.812580 0.016230 -0.007107
 11 1.054037 0.998070 -28.738487 0.079676 0.001876 0.005646
 12 0.073698 -2.761300 -5.395101 0.000000 -0.000000 0.000000
 13 0.184102 2.405380 6.536690 -0.017453 0.000000 0.000000
 14 -2.507427 0.706861 2.240997 -0.007161 0.012663 -0.849144
 15 3.250291 -0.229968 -90.900146 0.017445 -0.006626 0.385211
 16 1.065001 0.706861 2.240990 -0.011806 -0.015131 1.138680
 17 -2.362350 -0.468018 -90.905479 0.017471 0.007558 -0.441260
 18 -0.000000 -0.154719 2.376091 0.054956 0.266961 0.804791
 19 0.646873 -1.121443 24.709152 0.338479 0.147318 -0.163381
 20 -0.331074 15.401077 -4.448265 -0.174533 0.000000 0.000000
 21 0.294689 4.810114 -18.306999 0.230671 0.000000 -0.000000
 22 -1.097137 0.677547 9.228615 0.000000 -0.000000 0.000000
 23 -7.043961 -0.624741 16.699593 -1.210476 0.036467 0.839251
 24 -13.119778 0.402664 -15.778526 0.035489 -0.255647 -0.200434
 25 -6.930326 -3.869400 -10.071308 0.855124 0.392870 1.314738
 26 -1.440521 -1.851315 -5.643749 0.988391 -0.054787 0.083627
 27 30.607498 4.937202 -71.660225 0.000000 -0.000000 0.000000
 28 -2.740814 -1.783823 -4.956821 0.000000 -0.000000 0.000000
 29 8.158014 -0.446263 16.846825 0.635550 -0.502834 -0.034979
 30 12.284378 0.200996 -15.879517 -1.038773 -0.158895 -0.579489
 31 6.919279 -3.849022 -10.201530 -0.088245 -0.076199 -0.105809
 32 1.801676 -1.439346 -4.598686 0.000000 -0.000000 0.000000
 33 0.275627 -0.653329 2.573700 0.000000 -0.000000 0.000000
 34 -2.128445 3.188605 168.111557 0.000000 -0.000000 0.000000
time 18
  0 -2.408944 2.128008 -1.071352 0.000000 -0.000000 0.000000
  1 -2.408944 2.128008 -1.071352 0.000000 -0.000000 0.000000
  2 -2.408944 2.128008 -1.071352 0.000000 -0.000000 0.000000
  3 0.000000 -11.854288 85.932846 0.034906 0.000000 0.273161
  4 -0.000000 0.380081 -2.358139 -0.034906 0.000000 0.000000
  5 -6.962073 -1.123270 -14.918678 0.069861 0.085438 -0.139468
  6 -0.762899 1.783215 -29.522808 0.334998 -0.015526 -0.004032
  7 -1.525354 0.897312 -28.921164 -0.022489 -0.004571 -0.001835
  8 0.354391 -2.635784 -5.445796 0.000000 -0.000000 0.000000
  9 7.456965 -0.120268 -14.357979 -0.297379 -0.054031 -0.006689
 10 0.913363 0.804956 -30.266216 0.790404 0.017865 -0.006008
 11 1.054035 0.998068 -28.738497 0.046604 0.002354 0.007085
 12 0.073699 -2.761299 -5.395100 0.000000 -0.000000 0.000000
 13 0.184103 2.405382 6.536690 -0.017453 0.000000 0.000000
 14 -2.507427 0.706861 2.240997 -0.006945 0.012330 -0.826121
 15 3.250291 -0.229967 -90.900146 0.017445 -0.006626 0.385211
 16 1.065001 0.706861 2.240990 -0.011390 -0.014582 1.097520
 17 -2.362351 -0.468018 -90.905479 0.017471 0.007558 -0.441260
 18 -0.000000 -0.154717 2.376083 0.031524 0.246629 0.786671
 19 0.646872 -1.121442 24.709152 0.330841 0.148207 -0.214708
 20 -0.331074 15.401073 -4.448273 -0.174533 0.000000 -0.000000
 21 0.294689 4.810116 -18.306999 0.254565 0.000000 -0.000000
 22 -1.097137 0.677547 9.228630 0.000000 -0.000000 0.000000
 23 -7.043962 -0.624741 16.699585 -1.224367 0.030265 0.870537
 24 -13.119778 0.402672 -15.778526 0.000743 -0.438654 -0.138098
 25 -6.930323 -3.869408 -10.071304 0.861921 0.374729 1.329296
 26 -1.440521 -1.851312 -5.643755 0.927506 -0.034615 0.085241
 27 30.607491 4.937179 -71.660202 0.000000 -0.000000 0.000000
 28 -2.740807 -1.783820 -4.956823 0.000000 -0.000000 0.000000
 29 8.158012 -0.446262 16.846825 0.659725 -0.513847 -0.048172
 30 12.284376 0.200996 -15.879520 -1.031905 -0.136278 -0.554368
 31 6.919278 -3.849017 -10.201538 -0.088245 -0.076199 -0.105809
 32 1.801676 -1.439341 -4.598679 0.000000 -0.000000 0.000000
 33 0.275627 -0.653330 2.573700 0.000000 -0.000000 0.000000
 34 -2.128445 3.188605 168.111557 0.000000 -0.000000 0.000000
time 19
  0 -2.408944 2.128008 -1.071352 0.000000 -0.000000 0.000000
  1 -2.408944 2.128008 -1.071352 0.000000 -0.000000 0.000000
  2 -2.408944 2.128008 -1.071352 0.000000 -0.000000 0.000000
  3 0.000000 -12.516750 85.932846 0.034906 0.000000 0.259208
  4 0.000000 0.380080 -2.358139 -0.034906 -0.000000 -0.000000
  5 -6.962073 -1.123271 -14.918678 0.048762 0.087459 -0.139854
  6 -0.762899 1.783216 -29.522808 0.346403 -0.013778 -0.003578
  7 -1.525356 0.897311 -28.921167 -0.052866 -0.009590 -0.002044
  8 0.354389 -2.635785 -5.445798 0.000000 -0.000000 0.000000
  9 7.456964 -0.120269 -14.357979 -0.271598 -0.065496 -0.008108
 10 0.913362 0.804958 -30.266216 0.758902 0.019503 -0.004447
 11 1.054036 0.998075 -28.738495 0.012051 0.002854 0.008589
 12 0.073698 -2.761298 -5.395100 0.000000 -0.000000 0.000000
 13 0.184103 2.405380 6.536690 -0.017453 0.000000 0.000000
 14 -2.507427 0.706861 2.240997 -0.006614 0.011819 -0.790764
 15 3.250291 -0.229966 -90.900139 0.017445 -0.006626 0.385211
 16 1.065001 0.706861 2.240990 -0.010751 -0.013740 1.034309
 17 -2.362350 -0.468019 -90.905487 0.017471 0.007558 -0.441260
 18 0.000000 -0.154719 2.376091 -0.017909 0.203521 0.745865
 19 0.646873 -1.121443 24.709145 0.322982 0.149039 -0.262795
 20 -0.331078 15.401073 -4.448265 -0.174533 0.000000 0.000000
 21 0.294689 4.810116 -18.306999 0.276982 0.000000 -0.000000
 22 -1.097137 0.677547 9.228622 0.000000 -0.000000 0.000000
 23 -7.043964 -0.624740 16.699585 -1.235681 0.025040 0.897310
 24 -13.119776 0.402672 -15.778530 -0.032322 -0.642007 -0.068570
 25 -6.930326 -3.869392 -10.071308 0.868288 0.356465 1.342936
 26 -1.440521 -1.851314 -5.643757 0.852904 -0.015695 0.086703
 27 30.607513 4.937168 -71.660210 0.000000 -0.000000 0.000000
 28 -2.740807 -1.783819 -4.956825 0.000000 -0.000000 0.000000
 29 8.158016 -0.446265 16.846809 0.680924 -0.523453 -0.059775
 30 12.284374 0.200996 -15.879509 -1.025700 -0.116489 -0.532411
 31 6.919277 -3.849015 -10.201538 -0.088245 -0.076199 -0.105809
 32 1.801678 -1.439342 -4.598679 0.000000 -0.000000 0.000000
 33 0.275625 -0.653330 2.573700 0.000000 -0.000000 0.000000
 34 -2.128445 3.188605 168.111557 0.000000 -0.000000 0.000000
time 20
  0 -2.408944 2.128008 -1.071352 0.000000 -0.000000 0.000000
  1 -2.408944 2.128008 -1.071352 0.000000 -0.000000 0.000000
  2 -2.408944 2.128008 -1.071352 0.000000 -0.000000 0.000000
  3 0.000000 -12.988028 85.932846 0.034906 0.000000 0.238748
  4 0.000000 0.380080 -2.358139 -0.034906 -0.000000 -0.000000
  5 -6.962073 -1.123269 -14.918671 0.027196 0.089525 -0.140248
  6 -0.762899 1.783215 -29.522816 0.358060 -0.011992 -0.003114
  7 -1.525356 0.897307 -28.921165 -0.083913 -0.014719 -0.002258
  8 0.354393 -2.635785 -5.445799 0.000000 -0.000000 0.000000
  9 7.456964 -0.120267 -14.357979 -0.245246 -0.077214 -0.009559
 10 0.913361 0.804956 -30.266216 0.720007 0.021123 -0.002519
 11 1.054036 0.998067 -28.738487 -0.023264 0.003365 0.010125
 12 0.073698 -2.761299 -5.395100 0.000000 -0.000000 0.000000
 13 0.184103 2.405381 6.536690 -0.017453 0.000000 0.000000
 14 -2.507427 0.706861 2.240997 -0.006190 0.011166 -0.745539
 15 3.250292 -0.229968 -90.900139 0.017445 -0.006626 0.385211
 16 1.065002 0.706861 2.240990 -0.009934 -0.012663 0.953458
 17 -2.362350 -0.468017 -90.905479 0.017471 0.007558 -0.441260
 18 -0.000000 -0.154718 2.376091 -0.080653 0.148370 0.688816
 19 0.646872 -1.121443 24.709145 0.315095 0.149773 -0.305205
 20 -0.331074 15.401073 -4.448280 -0.174533 0.000000 0.000000
 21 0.294693 4.810118 -18.306999 0.297609 0.000000 -0.000000
 22 -1.097141 0.677547 9.228622 0.000000 -0.000000 0.000000
 23 -7.043964 -0.624741 16.699593 -1.244481 0.020837 0.922360
 24 -13.119776 0.402672 -15.778526 -0.065586 -0.843451 0.004098
 25 -6.930336 -3.869408 -10.071304 0.873904 0.338638 1.354965
 26 -1.440514 -1.851315 -5.643755 0.767819 0.001911 0.088020
 27 30.607506 4.937160 -71.660202 0.000000 -0.000000 0.000000
 28 -2.740799 -1.783823 -4.956825 0.000000 -0.000000 0.000000
 29 8.158012 -0.446264 16.846825 0.698615 -0.531432 -0.069481
 30 12.284378 0.200989 -15.879517 -1.020385 -0.100007 -0.514139
 31 6.919273 -3.849012 -10.201538 -0.088245 -0.076199 -0.105809
 32 1.801674 -1.439342 -4.598671 0.000000 -0.000000 0.000000
 33 0.275623 -0.653330 2.573708 0.000000 -0.000000 0.000000
 34 -2.128445 3.188605 168.111557 0.000000 -0.000000 0.000000
time 21
  0 -2.408944 2.128008 -1.071352 0.000000 -0.000000 0.000000
  1 -2.408944 2.128008 -1.071352 0.000000 -0.000000 0.000000
  2 -2.408944 2.128008 -1.071352 0.000000 -0.000000 0.000000
  3 0.000000 -13.295570 85.932846 0.034906 0.000000 0.213252
  4 -0.000000 0.380081 -2.358139 -0.034906 0.000000 0.000000
  5 -6.962072 -1.123270 -14.918671 0.005603 0.091594 -0.140643
  6 -0.762899 1.783215 -29.522808 0.369731 -0.010204 -0.002650
  7 -1.525354 0.897308 -28.921164 -0.115000 -0.019856 -0.002472
  8 0.354391 -2.635786 -5.445800 0.000000 -0.000000 0.000000
  9 7.456965 -0.120268 -14.357979 -0.218861 -0.088948 -0.011011
 10 0.913363 0.804955 -30.266216 0.675649 0.022701 -0.000321
 11 1.054037 0.998066 -28.738487 -0.058625 0.003876 0.011664
 12 0.073700 -2.761298 -5.395101 0.000000 -0.000000 0.000000
 13 0.184103 2.405382 6.536690 -0.017453 0.000000 0.000000
 14 -2.507427 0.706861 2.240997 -0.005697 0.010405 -0.692915
 15 3.250293 -0.229967 -90.900131 0.017445 -0.006626 0.385211
 16 1.065001 0.706861 2.240990 -0.008982 -0.011410 0.859377
 17 -2.362350 -0.468018 -90.905487 0.017471 0.007558 -0.441260
 18 0.000000 -0.154717 2.376083 -0.144017 0.091908 0.621966
 19 0.646873 -1.121444 24.709152 0.307374 0.150367 -0.339498
 20 -0.331074 15.401073 -4.448265 -0.174533 0.000000 0.000000
 21 0.294693 4.810114 -18.306999 0.316134 0.000000 -0.000000
 22 -1.097141 0.677547 9.228630 0.000000 -0.000000 0.000000
 23 -7.043964 -0.624742 16.699593 -1.250830 0.017702 0.948478
 24 -13.119778 0.402664 -15.778530 -0.100927 -1.020729 0.075851
 25 -6.930328 -3.869400 -10.071308 0.878445 0.321805 1.364692
 26 -1.440521 -1.851316 -5.643755 0.675485 0.018138 0.089193
 27 30.607513 4.937165 -71.660217 0.000000 -0.000000 0.000000
 28 -2.740807 -1.783823 -4.956825 0.000000 -0.000000 0.000000
 29 8.158014 -0.446263 16.846817 0.712266 -0.537562 -0.076988
 30 12.284374 0.200996 -15.879505 -1.016191 -0.087311 -0.500075
 31 6.919273 -3.849016 -10.201538 -0.088245 -0.076199 -0.105809
 32 1.801674 -1.439342 -4.598671 0.000000 -0.000000 0.000000
 33 0.275626 -0.653331 2.573700 0.000000 -0.000000 0.000000
 34 -2.128445 3.188605 168.111557 0.000000 -0.000000 0.000000
time 22
  0 -2.408944 2.128008 -1.071352 0.000000 -0.000000 0.000000
  1 -2.408944 2.128008 -1.071352 0.000000 -0.000000 0.000000
  2 -2.408944 2.128008 -1.071352 0.000000 -0.000000 0.000000
  3 0.000000 -13.466825 85.932846 0.034906 0.000000 0.184192
  4 0.000000 0.380081 -2.358139 -0.034906 -0.000000 -0.000000
  5 -6.962073 -1.123272 -14.918671 -0.015579 0.093623 -0.141031
  6 -0.762900 1.783216 -29.522812 0.381181 -0.008450 -0.002194
  7 -1.525356 0.897310 -28.921165 -0.145495 -0.024894 -0.002682
  8 0.354393 -2.635786 -5.445798 0.000000 -0.000000 0.000000
  9 7.456965 -0.120270 -14.357979 -0.192979 -0.100457 -0.012436
 10 0.913363 0.804956 -30.266209 0.627760 0.024213 0.002052
 11 1.054036 0.998070 -28.738495 -0.093313 0.004378 0.013173
 12 0.073698 -2.761298 -5.395101 0.000000 -0.000000 0.000000
 13 0.184103 2.405380 6.536690 -0.017453 0.000000 0.000000
 14 -2.507427 0.706861 2.240997 -0.005157 0.009574 -0.635357
 15 3.250292 -0.229966 -90.900146 0.017445 -0.006626 0.385211
 16 1.065001 0.706861 2.240990 -0.007942 -0.010039 0.756475
 17 -2.362350 -0.468018 -90.905495 0.017471 0.007558 -0.441260
 18 0.000000 -0.154718 2.376083 -0.195310 0.044867 0.551757
 19 0.646873 -1.121443 24.709145 0.300015 0.150778 -0.363236
 20 -0.331074 15.401073 -4.448265 -0.174533 0.000000 -0.000000
 21 0.294693 4.810113 -18.307007 0.332244 0.000000 -0.000000
 22 -1.097137 0.677547 9.228630 0.000000 -0.000000 0.000000
 23 -7.043963 -0.624743 16.699593 -1.254791 0.015681 0.978451
 24 -13.119774 0.402664 -15.778526 -0.140226 -1.151587 0.142637
 25 -6.930331 -3.869408 -10.071308 0.881588 0.306525 1.371425
 26 -1.440521 -1.851316 -5.643755 0.579137 0.032925 0.090226
 27 30.607506 4.937167 -71.660194 0.000000 -0.000000 0.000000
 28 -2.740814 -1.783823 -4.956821 0.000000 -0.000000 0.000000
 29 8.158014 -0.446264 16.846817 0.721345 -0.541624 -0.081990
 30 12.284378 0.200996 -15.879509 -1.013346 -0.078880 -0.490743
 31 6.919273 -3.849014 -10.201530 -0.088245 -0.076199 -0.105809
 32 1.801678 -1.439342 -4.598679 0.000000 -0.000000 0.000000
 33 0.275626 -0.653330 2.573700 0.000000 -0.000000 0.000000
 34 -2.128445 3.188605 168.111557 0.000000 -0.000000 0.000000
time 23
  0 -2.408944 2.128008 -1.071352 0.000000 -0.000000 0.000000
  1 -2.408944 2.128008 -1.071352 0.000000 -0.000000 0.000000
  2 -2.408944 2.128008 -1.071352 0.000000 -0.000000 0.000000
  3 0.000000 -13.529243 85.932846 0.034906 0.000000 0.153040
  4 -0.000000 0.380081 -2.358139 -0.034906 -0.000000 -0.000000
  5 -6.962073 -1.123270 -14.918671 -0.035912 0.095571 -0.141402
  6 -0.762898 1.783216 -29.522812 0.392171 -0.006766 -0.001757
  7 -1.525354 0.897310 -28.921165 -0.174767 -0.029730 -0.002884
  8 0.354393 -2.635784 -5.445799 0.000000 -0.000000 0.000000
  9 7.456964 -0.120269 -14.357979 -0.168135 -0.111506 -0.013804
 10 0.913362 0.804956 -30.266216 0.578273 0.025634 0.004505
 11 1.054037 0.998071 -28.738491 -0.126609 0.004859 0.014622
 12 0.073698 -2.761297 -5.395101 0.000000 -0.000000 0.000000
 13 0.184103 2.405381 6.536690 -0.017453 0.000000 0.000000
 14 -2.507427 0.706861 2.240997 -0.004595 0.008706 -0.575332
 15 3.250292 -0.229968 -90.900154 0.017445 -0.006626 0.385211
 16 1.065001 0.706861 2.240990 -0.006857 -0.008610 0.649164
 17 -2.362350 -0.468018 -90.905479 0.017471 0.007558 -0.441260
 18 0.000000 -0.154719 2.376091 -0.221840 0.017981 0.484631
 19 0.646873 -1.121445 24.709160 0.293212 0.150964 -0.373980
 20 -0.331076 15.401074 -4.448265 -0.174533 0.000000 -0.000000
 21 0.294691 4.810116 -18.307007 0.345627 0.000000 -0.000000
 22 -1.097139 0.677547 9.228622 0.000000 -0.000000 0.000000
 23 -7.043963 -0.624743 16.699593 -1.256427 0.014821 1.015071
 24 -13.119774 0.402664 -15.778526 -0.185360 -1.213768 0.200402
 25 -6.930329 -3.869400 -10.071312 0.883011 0.293357 1.374473
 26 -1.440521 -1.851313 -5.643751 0.482010 0.046207 0.091124
 27 30.607498 4.937168 -71.660233 0.000000 -0.000000 0.000000
 28 -2.740807 -1.783819 -4.956821 0.000000 -0.000000 0.000000
 29 8.158013 -0.446264 16.846825 0.725320 -0.543397 -0.084183
 30 12.284378 0.200996 -15.879509 -1.012080 -0.075194 -0.486665
 31 6.919281 -3.849016 -10.201538 -0.088245 -0.076199 -0.105809
 32 1.801674 -1.439339 -4.598686 0.000000 -0.000000 0.000000
 33 0.275625 -0.653332 2.573700 0.000000 -0.000000 0.000000
 34 -2.128445 3.188605 168.111557 0.000000 -0.000000 0.000000
time 24
  0 -2.408944 2.128008 -1.071352 0.000000 -0.000000 0.000000
  1 -2.408944 2.128008 -1.071352 0.000000 -0.000000 0.000000
  2 -2.408944 2.128008 -1.071352 0.000000 -0.000000 0.000000
  3 0.000000 -13.055500 85.878593 0.034906 0.000000 0.121267
  4 0.000000 0.380080 -2.358139 -0.034906 -0.000000 -0.000000
  5 -6.962072 -1.123270 -14.918671 -0.054956 0.097395 -0.141751
  6 -0.762899 1.783216 -29.522812 0.402465 -0.005189 -0.001347
  7 -1.525354 0.897310 -28.921162 -0.202185 -0.034260 -0.003073
  8 0.354393 -2.635784 -5.445797 0.000000 -0.000000 0.000000
  9 7.456965 -0.120268 -14.357979 -0.144864 -0.121854 -0.015085
 10 0.913361 0.804956 -30.266216 0.529116 0.026943 0.006941
 11 1.054036 0.998073 -28.738495 -0.157796 0.005310 0.015979
 12 0.073698 -2.761297 -5.395100 0.000000 -0.000000 0.000000
 13 0.184103 2.405382 6.536690 -0.017453 0.000000 0.000000
 14 -2.507427 0.706861 2.240997 -0.004032 0.007839 -0.515307
 15 3.250291 -0.229967 -90.900162 0.017445 -0.006626 0.385211
 16 1.065001 0.706861 2.240990 -0.005772 -0.007180 0.541853
 17 -2.362350 -0.468018 -90.905495 0.017471 0.007558 -0.441260
 18 0.000000 -0.154719 2.376083 -0.224101 0.011459 0.416250
 19 0.646873 -1.121441 24.709152 0.286224 0.145421 -0.360597
 20 -0.331075 15.401073 -4.448265 -0.174533 0.000000 0.000000
 21 0.294692 4.810114 -18.307007 0.355969 0.000000 -0.000000
 22 -1.097139 0.677547 9.228622 0.000000 -0.000000 0.000000
 23 -7.043964 -0.624739 16.699593 -1.216902 0.035902 1.062257
 24 -13.119778 0.402664 -15.778526 -0.243318 -1.163509 0.250383
 25 -6.930330 -3.869400 -10.071312 0.840615 0.282178 1.322524
 26 -1.440521 -1.851315 -5.643755 0.387339 0.057923 0.091890
 27 30.607513 4.937179 -71.660233 0.000000 -0.000000 0.000000
 28 -2.740807 -1.783821 -4.956825 0.000000 -0.000000 0.000000
 29 8.158014 -0.446262 16.846825 0.705555 -0.534632 -0.074400
 30 12.284370 0.200996 -15.879524 -1.014295 -0.095035 -0.509380
 31 6.919277 -3.849014 -10.201523 -0.088245 -0.076199 -0.105809
 32 1.801674 -1.439342 -4.598671 0.000000 -0.000000 0.000000
 33 0.275625 -0.653330 2.573708 0.000000 -0.000000 0.000000
 34 -2.128445 3.188605 168.111557 0.000000 -0.000000 0.000000
time 25
  0 -2.408944 2.128008 -1.071352 0.000000 -0.000000 0.000000
  1 -2.408944 2.128008 -1.071352 0.000000 -0.000000 0.000000
  2 -2.408944 2.128008 -1.071352 0.000000 -0.000000 0.000000
  3 0.000000 -11.322033 85.680862 0.034906 0.000000 0.090345
  4 0.000000 0.380081 -2.358131 -0.034906 -0.000000 0.000000
  5 -6.962073 -1.123270 -14.918671 -0.072274 0.099054 -0.142067
  6 -0.762898 1.783216 -29.522816 0.411825 -0.003755 -0.000975
  7 -1.525354 0.897307 -28.921164 -0.227116 -0.038380 -0.003245
  8 0.354391 -2.635786 -5.445799 0.000000 -0.000000 0.000000
  9 7.456964 -0.120268 -14.357979 -0.123704 -0.131264 -0.016250
 10 0.913364 0.804958 -30.266220 0.482224 0.028115 0.009265
 11 1.054037 0.998072 -28.738495 -0.186154 0.005720 0.017213
 12 0.073699 -2.761297 -5.395099 0.000000 -0.000000 0.000000
 13 0.184103 2.405382 6.536690 -0.017453 0.000000 0.000000
 14 -2.507427 0.706861 2.240997 -0.003493 0.007007 -0.457749
 15 3.250292 -0.229968 -90.900139 0.017445 -0.006626 0.385211
 16 1.065001 0.706861 2.240990 -0.004732 -0.005810 0.438951
 17 -2.362350 -0.468018 -90.905479 0.017471 0.007558 -0.441260
 18 -0.000000 -0.154718 2.376083 -0.225118 0.007118 0.331310
 19 0.646873 -1.121441 24.709137 0.277619 0.125193 -0.310439
 20 -0.331074 15.401073 -4.448273 -0.174533 0.000000 -0.000000
 21 0.294691 4.810115 -18.306999 0.362957 0.000000 -0.000000
 22 -1.097138 0.677547 9.228622 0.000000 -0.000000 0.000000
 23 -7.043962 -0.624741 16.699577 -1.071762 0.112843 1.120293
 24 -13.119774 0.402664 -15.778530 -0.320677 -0.972112 0.300691
 25 -6.930332 -3.869408 -10.071312 0.685907 0.271914 1.132789
 26 -1.440529 -1.851315 -5.643757 0.298358 0.068010 0.092528
 27 30.607491 4.937192 -71.660240 0.000000 -0.000000 0.000000
 28 -2.740822 -1.783821 -4.956823 0.000000 -0.000000 0.000000
 29 8.158013 -0.446264 16.846817 0.633015 -0.501896 -0.038466
 30 12.284374 0.200994 -15.879517 -1.022530 -0.167812 -0.592681
 31 6.919277 -3.849014 -10.201530 -0.088245 -0.076199 -0.105809
 32 1.801670 -1.439341 -4.598682 0.000000 -0.000000 0.000000
 33 0.275626 -0.653328 2.573692 0.000000 -0.000000 0.000000
 34 -2.128445 3.188605 168.111557 0.000000 -0.000000 0.000000
time 26
  0 -2.408944 2.128008 -1.071352 0.000000 -0.000000 0.000000
  1 -2.408944 2.128008 -1.071352 0.000000 -0.000000 0.000000
  2 -2.408944 2.128008 -1.071352 0.000000 -0.000000 0.000000
  3 0.000000 -8.787304 85.391739 0.034907 0.000000 0.061745
  4 0.000000 0.380081 -2.358139 -0.034906 -0.000000 -0.000000
  5 -6.962071 -1.123270 -14.918671 -0.087426 0.100505 -0.142345
  6 -0.762899 1.783214 -29.522804 0.420015 -0.002500 -0.000649
  7 -1.525354 0.897307 -28.921165 -0.248930 -0.041984 -0.003395
  8 0.354393 -2.635786 -5.445799 0.000000 -0.000000 0.000000
  9 7.456964 -0.120269 -14.357979 -0.105190 -0.139497 -0.017269
 10 0.913361 0.804959 -30.266216 0.439526 0.029127 0.011381
 11 1.054036 0.998064 -28.738495 -0.210968 0.006079 0.018292
 12 0.073700 -2.761296 -5.395101 0.000000 -0.000000 0.000000
 13 0.184103 2.405381 6.536690 -0.017453 0.000000 0.000000
 14 -2.507427 0.706861 2.240997 -0.003000 0.006247 -0.405124
 15 3.250291 -0.229967 -90.900146 0.017445 -0.006626 0.385211
 16 1.065001 0.706861 2.240997 -0.003781 -0.004556 0.344870
 17 -2.362350 -0.468018 -90.905487 0.017471 0.007558 -0.441260
 18 0.000000 -0.154718 2.376076 -0.225862 0.004018 0.239077
 19 0.646873 -1.121445 24.709152 0.268323 0.095616 -0.237097
 20 -0.331073 15.401074 -4.448265 -0.174533 0.000000 -0.000000
 21 0.294692 4.810117 -18.306992 0.366281 0.000000 -0.000000
 22 -1.097138 0.677547 9.228615 0.000000 -0.000000 0.000000
 23 -7.043963 -0.624743 16.699593 -0.857405 0.225350 1.182693
 24 -13.119770 0.402657 -15.778522 -0.407461 -0.692243 0.348685
 25 -6.930332 -3.869415 -10.071312 0.459688 0.262824 0.855351
 26 -1.440514 -1.851315 -5.643757 0.218302 0.076403 0.093042
 27 30.607483 4.937179 -71.660202 0.000000 -0.000000 0.000000
 28 -2.740814 -1.783823 -4.956829 0.000000 -0.000000 0.000000
 29 8.158014 -0.446264 16.846817 0.526944 -0.452655 0.014078
 30 12.284378 0.200993 -15.879517 -1.034572 -0.274228 -0.714488
 31 6.919277 -3.849014 -10.201538 -0.088245 -0.076199 -0.105809
 32 1.801678 -1.439339 -4.598675 0.000000 -0.000000 0.000000
 33 0.275625 -0.653330 2.573692 0.000000 -0.000000 0.000000
 34 -2.128445 3.188605 168.111557 0.000000 -0.000000 0.000000
time 27
  0 -2.408944 2.128008 -1.071352 0.000000 -0.000000 0.000000
  1 -2.408944 2.128008 -1.071352 0.000000 -0.000000 0.000000
  2 -2.408944 2.128008 -1.071352 0.000000 -0.000000 0.000000
  3 0.000000 -5.949183 85.068008 0.034907 0.000000 0.036939
  4 -0.000000 0.380081 -2.358131 -0.034906 0.000000 0.000000
  5 -6.962073 -1.123270 -14.918671 -0.099974 0.101707 -0.142574
  6 -0.762899 1.783215 -29.522808 0.426798 -0.001461 -0.000379
  7 -1.525356 0.897308 -28.921165 -0.266996 -0.044969 -0.003520
  8 0.354393 -2.635786 -5.445799 0.000000 -0.000000 0.000000
  9 7.456965 -0.120268 -14.357979 -0.089857 -0.146315 -0.018114
 10 0.913361 0.804957 -30.266216 0.402955 0.029955 0.013194
 11 1.054034 0.998070 -28.738489 -0.231517 0.006376 0.019186
 12 0.073697 -2.761296 -5.395100 0.000000 -0.000000 0.000000
 13 0.184103 2.405381 6.536690 -0.017453 0.000000 0.000000
 14 -2.507427 0.706861 2.240990 -0.002576 0.005593 -0.359900
 15 3.250292 -0.229967 -90.900146 0.017445 -0.006626 0.385211
 16 1.065002 0.706861 2.240982 -0.002963 -0.003479 0.264019
 17 -2.362350 -0.468017 -90.905487 0.017471 0.007558 -0.441260
 18 -0.000000 -0.154718 2.376091 -0.226372 0.001958 0.149690
 19 0.646873 -1.121443 24.709152 0.259341 0.062498 -0.154976
 20 -0.331074 15.401076 -4.448273 -0.174533 0.000000 -0.000000
 21 0.294691 4.810114 -18.306992 0.320486 0.000000 -0.000000
 22 -1.097139 0.677547 9.228622 0.000000 -0.000000 0.000000
 23 -7.043964 -0.624741 16.699593 -0.613595 0.351324 1.242804
 24 -13.119774 0.402664 -15.778526 -0.493195 -0.378877 0.391318
 25 -6.930328 -3.869408 -10.071308 0.206392 0.255215 0.544706
 26 -1.440529 -1.851316 -5.643751 0.150406 0.083041 0.093434
 27 30.607475 4.937186 -71.660187 0.000000 -0.000000 0.000000
 28 -2.740814 -1.783825 -4.956820 0.000000 -0.000000 0.000000
 29 8.158014 -0.446262 16.846825 0.408178 -0.395072 0.072910
 30 12.284374 0.200996 -15.879509 -1.048055 -0.393383 -0.850873
 31 6.919277 -3.849012 -10.201538 -0.088245 -0.076199 -0.105809
 32 1.801674 -1.439339 -4.598671 0.000000 -0.000000 0.000000
 33 0.275626 -0.653330 2.573708 0.000000 -0.000000 0.000000
 34 -2.128445 3.188605 168.111557 0.000000 -0.000000 0.000000
time 28
  0 -2.408944 2.128008 -1.071352 0.000000 -0.000000 0.000000
  1 -2.408944 2.128008 -1.071352 0.000000 -0.000000 0.000000
  2 -2.408944 2.128008 -1.071352 0.000000 -0.000000 0.000000
  3 0.000000 -3.305543 84.766457 0.034907 0.000000 0.017398
  4 0.000000 0.380081 -2.358131 -0.034906 0.000000 0.000000
  5 -6.962072 -1.123271 -14.918671 -0.109480 0.102618 -0.142748
  6 -0.762899 1.783215 -29.522812 0.431936 -0.000674 -0.000175
  7 -1.525354 0.897313 -28.921164 -0.280681 -0.047230 -0.003614
  8 0.354391 -2.635785 -5.445797 0.000000 -0.000000 0.000000
  9 7.456965 -0.120268 -14.357979 -0.078241 -0.151481 -0.018753
 10 0.913363 0.804957 -30.266212 0.374441 0.030576 0.014607
 11 1.054036 0.998072 -28.738493 -0.247084 0.006601 0.019864
 12 0.073700 -2.761296 -5.395099 0.000000 -0.000000 0.000000
 13 0.184103 2.405381 6.536697 -0.017453 0.000000 0.000000
 14 -2.507427 0.706861 2.240990 -0.002245 0.005082 -0.324543
 15 3.250292 -0.229968 -90.900146 0.017445 -0.006626 0.385211
 16 1.065001 0.706861 2.240982 -0.002324 -0.002637 0.200808
 17 -2.362350 -0.468018 -90.905495 0.017471 0.007558 -0.441260
 18 0.000000 -0.154718 2.376091 -0.226687 0.000736 0.073289
 19 0.646873 -1.121441 24.709137 0.251681 0.031650 -0.078482
 20 -0.331074 15.401075 -4.448273 -0.174533 0.000000 -0.000000
 21 0.294691 4.810115 -18.306999 0.134033 0.000000 -0.000000
 22 -1.097139 0.677547 9.228622 0.000000 -0.000000 0.000000
 23 -7.043965 -0.624741 16.699593 -0.380097 0.468664 1.293976
 24 -13.119774 0.402666 -15.778526 -0.567403 -0.086984 0.425543
 25 -6.930321 -3.869406 -10.071304 -0.029548 0.249397 0.255348
 26 -1.440521 -1.851316 -5.643753 0.097903 0.087861 0.093710
 27 30.607491 4.937177 -71.660187 0.000000 -0.000000 0.000000
 28 -2.740814 -1.783823 -4.956821 0.000000 -0.000000 0.000000
 29 8.158013 -0.446264 16.846817 0.297550 -0.337309 0.127712
 30 12.284378 0.200994 -15.879517 -1.060614 -0.504372 -0.977913
 31 6.919277 -3.849012 -10.201527 -0.088245 -0.076199 -0.105809
 32 1.801682 -1.439342 -4.598675 0.000000 -0.000000 0.000000
 33 0.275625 -0.653330 2.573700 0.000000 -0.000000 0.000000
 34 -2.128445 3.188605 168.111557 0.000000 -0.000000 0.000000
time 29
  0 -2.408944 2.128008 -1.071352 0.000000 -0.000000 0.000000
  1 -2.408944 2.128008 -1.071352 0.000000 -0.000000 0.000000
  2 -2.408944 2.128008 -1.071352 0.000000 -0.000000 0.000000
  3 0.000000 -1.354257 84.543884 0.034907 0.000000 0.004595
  4 -0.000000 0.380081 -2.358139 -0.034906 0.000000 0.000000
  5 -6.962072 -1.123271 -14.918671 -0.115506 0.103195 -0.142858
  6 -0.762899 1.783215 -29.522808 0.435193 -0.000175 -0.000045
  7 -1.525356 0.897309 -28.921165 -0.289356 -0.048663 -0.003674
  8 0.354391 -2.635785 -5.445798 0.000000 -0.000000 0.000000
  9 7.456964 -0.120268 -14.357979 -0.070879 -0.154755 -0.019158
 10 0.913363 0.804958 -30.266220 0.355916 0.030966 0.015525
 11 1.054037 0.998069 -28.738495 -0.256951 0.006744 0.020293
 12 0.073698 -2.761295 -5.395101 0.000000 -0.000000 0.000000
 13 0.184103 2.405381 6.536690 -0.017453 0.000000 0.000000
 14 -2.507427 0.706861 2.240997 -0.002029 0.004750 -0.301519
 15 3.250292 -0.229967 -90.900154 0.017445 -0.006626 0.385211
 16 1.065001 0.706861 2.240990 -0.001908 -0.002089 0.159648
 17 -2.362350 -0.468018 -90.905479 0.017471 0.007558 -0.441260
 18 0.000000 -0.154718 2.376091 -0.226848 0.000150 0.020013
 19 0.646873 -1.121444 24.709152 0.246347 0.008880 -0.022021
 20 -0.331074 15.401075 -4.448257 -0.174533 0.000000 0.000000
 21 0.294691 4.810113 -18.306992 -0.075252 0.000000 -0.000000
 22 -1.097139 0.677547 9.228630 0.000000 -0.000000 0.000000
 23 -7.043964 -0.624740 16.699593 -0.196677 0.555274 1.329556
 24 -13.119781 0.402664 -15.778511 -0.619610 0.128464 0.448313
 25 -6.930321 -3.869410 -10.071304 -0.203695 0.245680 0.041771
 26 -1.440521 -1.851318 -5.643753 0.064030 0.090798 0.093873
 27 30.607506 4.937162 -71.660202 0.000000 -0.000000 0.000000
 28 -2.740814 -1.783823 -4.956820 0.000000 -0.000000 0.000000
 29 8.158012 -0.446263 16.846825 0.215895 -0.287529 0.168161
 30 12.284378 0.200994 -15.879517 -1.069883 -0.586294 -1.071682
 31 6.919273 -3.849010 -10.201530 -0.088245 -0.076199 -0.105809
 32 1.801666 -1.439339 -4.598675 0.000000 -0.000000 0.000000
 33 0.275625 -0.653329 2.573708 0.000000 -0.000000 0.000000
 34 -2.128445 3.188605 168.111557 0.000000 -0.000000 0.000000
time 30
  0 -2.408944 2.128008 -1.071352 0.000000 -0.000000 0.000000
  1 -2.408944 2.128008 -1.071352 0.000000 -0.000000 0.000000
  2 -2.408944 2.128008 -1.071352 0.000000 -0.000000 0.000000
  3 0.000000 -0.593194 84.457069 0.034907 0.000000 0.000000
  4 0.000000 0.380081 -2.358139 -0.034906 0.000000 0.000000
  5 -6.962072 -1.123270 -14.918671 -0.117611 0.103397 -0.142897
  6 -0.762899 1.783215 -29.522812 0.436331 -0.000000 0.000000
  7 -1.525354 0.897306 -28.921164 -0.292388 -0.049164 -0.003695
  8 0.354393 -2.635785 -5.445796 0.000000 -0.000000 0.000000
  9 7.456964 -0.120268 -14.357979 -0.068305 -0.155899 -0.019300
 10 0.913362 0.804958 -30.266216 0.349312 0.031101 0.015852
 11 1.054035 0.998068 -28.738493 -0.260399 0.006793 0.020443
 12 0.073698 -2.761296 -5.395100 0.000000 -0.000000 0.000000
 13 0.184103 2.405381 6.536697 -0.017453 0.000000 0.000000
 14 -2.507427 0.706861 2.240990 -0.001952 0.004631 -0.293297
 15 3.250292 -0.229967 -90.900162 0.017445 -0.006626 0.385211
 16 1.065002 0.706861 2.240982 -0.001760 -0.001893 0.144948
 17 -2.362350 -0.468017 -90.905487 0.017471 0.007558 -0.441260
 18 0.000000 -0.154718 2.376091 -0.226892 0.000000 0.000001
 19 0.646873 -1.121443 24.709145 0.244345 -0.000000 -0.000000
 20 -0.331074 15.401075 -4.448273 -0.174533 0.000000 -0.000000
 21 0.294691 4.810116 -18.307007 -0.174532 0.000000 -0.000000
 22 -1.097139 0.677547 9.228622 0.000000 -0.000000 0.000000
 23 -7.043964 -0.624741 16.699585 -0.103099 0.589055 1.342894
 24 -13.119774 0.402665 -15.778526 -0.639340 0.212496 0.456580
 25 -6.930321 -3.869408 -10.071308 -0.271619 0.244372 -0.041531
 26 -1.440529 -1.851320 -5.643750 0.052020 0.091792 0.093927
 27 30.607506 4.937162 -71.660202 0.000000 -0.000000 0.000000
 28 -2.740814 -1.783825 -4.956820 0.000000 -0.000000 0.000000
 29 8.158013 -0.446264 16.846817 0.184047 -0.253896 0.183938
 30 12.284372 0.200995 -15.879509 -1.073499 -0.618246 -1.108255
 31 6.919277 -3.849014 -10.201530 -0.088245 -0.076199 -0.105809
 32 1.801682 -1.439339 -4.598675 0.000000 -0.000000 0.000000
 33 0.275625 -0.653330 2.573700 0.000000 -0.000000 0.000000
 34 -2.128445 3.188605 168.111557 0.000000 -0.000000 0.000000
end
