version 1
nodes
  0 "bone36"  -1
  1 "bone37"  -1
  2 "bone39"  -1
  3 "bone21"   2
  4 "bone20"   3
  5 "bone07"   4
  6 "bone22"   5
  7 "bone18"   6
  8 "bone25"   7
  9 "bone14"   4
 10 "bone16"   9
 11 "bone19"  10
 12 "bone24"  11
 13 "bone01"   4
 14 "bone15"  13
 15 "bone001"  14
 16 "bone17"  13
 17 "bone38"  16
 18 "bone03"   3
 19 "bone06"  18
 20 "bone13"  19
 21 "bone12"  20
 22 "bone26"  19
 23 "bone08"  18
 24 "bone05"  23
 25 "bone09"  24
 26 "bone11"  25
 27 "bone29"  26
 28 "bone30"  25
 29 "bone02"  18
 30 "bone04"  29
 31 "bone10"  30
 32 "bone31"  31
 33 "bone32"  18
 34 "bone34"   2
end
skeleton
time 0
  0 -2.408944 2.128008 -1.071352 0.000000 -0.000000 0.000000
  1 -2.408944 2.128008 -1.071352 0.000000 -0.000000 0.000000
  2 -2.408944 2.128008 -1.071352 0.000000 -0.000000 0.000000
  3 0.000000 -0.593194 84.457069 0.034907 0.000000 0.000000
  4 0.000000 0.380081 -2.358139 -0.034906 0.000000 0.000000
  5 -6.962072 -1.123270 -14.918671 -0.117611 0.103397 -0.142897
  6 -0.762899 1.783215 -29.522812 0.436331 -0.000000 0.000000
  7 -1.525354 0.897305 -28.921164 -0.292388 -0.049164 -0.003695
  8 0.354395 -2.635783 -5.445797 0.000000 -0.000000 0.000000
  9 7.456964 -0.120268 -14.357979 -0.068305 -0.155899 -0.019300
 10 0.913361 0.804957 -30.266216 0.349312 0.031101 0.015853
 11 1.054036 0.998075 -28.738483 -0.260399 0.006793 0.020443
 12 0.073698 -2.761297 -5.395099 0.000000 -0.000000 0.000000
 13 0.184103 2.405381 6.536697 -0.017453 0.000000 0.000000
 14 -2.507427 0.706861 2.240990 -0.001952 0.004631 -0.293297
 15 3.250292 -0.229967 -90.900162 0.017445 -0.006626 0.385211
 16 1.065002 0.706861 2.240982 -0.001760 -0.001893 0.144948
 17 -2.362350 -0.468017 -90.905487 0.017471 0.007558 -0.441260
 18 0.000000 -0.154718 2.376091 -0.226892 0.000000 0.000001
 19 0.646873 -1.121443 24.709145 0.244345 -0.000000 0.000000
 20 -0.331074 15.401075 -4.448273 -0.174533 0.000000 -0.000000
 21 0.294691 4.810116 -18.307007 -0.174532 0.000000 -0.000000
 22 -1.097139 0.677547 9.228622 0.000000 -0.000000 0.000000
 23 -7.043964 -0.624741 16.699585 -0.103099 0.589055 1.342894
 24 -13.119789 0.402666 -15.778522 -0.639340 0.212496 0.456580
 25 -6.930328 -3.869404 -10.071308 -0.271619 0.244372 -0.041531
 26 -1.440529 -1.851318 -5.643753 0.052020 0.091792 0.093927
 27 30.607513 4.937169 -71.660194 0.000000 -0.000000 0.000000
 28 -2.740814 -1.783823 -4.956823 0.000000 -0.000000 0.000000
 29 8.158013 -0.446264 16.846817 0.184047 -0.253896 0.183937
 30 12.284374 0.200995 -15.879509 -1.073499 -0.618246 -1.108255
 31 6.919270 -3.849018 -10.201530 -0.088245 -0.076199 -0.105809
 32 1.801666 -1.439342 -4.598675 0.000000 -0.000000 0.000000
 33 0.275625 -0.653330 2.573700 0.000000 -0.000000 0.000000
 34 -2.128445 3.188605 168.111557 0.000000 -0.000000 0.000000
time 1
  0 -2.408944 2.128008 -1.071352 0.000000 -0.000000 0.000000
  1 -2.408944 2.128008 -1.071352 0.000000 -0.000000 0.000000
  2 -2.408944 2.128008 -1.071352 0.000000 -0.000000 0.000000
  3 0.000000 -0.234541 84.502968 0.032192 0.000000 0.000000
  4 0.000000 0.380081 -2.358139 -0.034906 -0.000000 -0.000000
  5 -6.962073 -1.123270 -14.918671 -0.123977 0.101133 -0.143126
  6 -0.762901 1.783216 -29.522800 0.439882 0.000525 0.000220
  7 -1.525358 0.897309 -28.921162 -0.294283 -0.049351 -0.003291
  8 0.354393 -2.635783 -5.445797 0.000000 -0.000000 0.000000
  9 7.456964 -0.120268 -14.357979 -0.063997 -0.153079 -0.018951
 10 0.913361 0.804958 -30.266224 0.349312 0.031101 0.015853
 11 1.054036 0.998070 -28.738487 -0.257233 0.006715 0.020073
 12 0.073698 -2.761296 -5.395098 0.000000 -0.000000 0.000000
 13 0.184103 2.405382 6.536690 -0.017453 0.000000 0.000000
 14 -2.507427 0.706861 2.240997 -0.001952 0.004631 -0.300981
 15 3.250291 -0.229967 -90.900139 0.017445 -0.006626 0.385211
 16 1.065002 0.706861 2.240997 -0.001760 -0.001893 0.150014
 17 -2.362349 -0.468017 -90.905495 0.017471 0.007558 -0.441260
 18 -0.000000 -0.154718 2.376091 -0.230850 0.003315 -0.012908
 19 0.646873 -1.121442 24.709145 0.242567 -0.005255 0.015464
 20 -0.331074 15.401075 -4.448273 -0.172930 -0.000004 0.000085
 21 0.294691 4.810115 -18.307007 -0.170134 0.000000 -0.000000
 22 -1.097138 0.677547 9.228622 0.000000 -0.000000 0.000000
 23 -7.043964 -0.624741 16.699593 -0.182648 0.563860 1.299176
 24 -13.119774 0.402666 -15.778526 -0.638264 0.212097 0.456067
 25 -6.930328 -3.869402 -10.071304 -0.272935 0.243210 -0.050237
 26 -1.440514 -1.851318 -5.643752 0.052020 0.091792 0.093927
 27 30.607521 4.937182 -71.660210 0.000000 -0.000000 0.000000
 28 -2.740807 -1.783823 -4.956820 0.000000 -0.000000 0.000000
 29 8.158014 -0.446262 16.846817 0.184047 -0.253896 0.183937
 30 12.284374 0.200994 -15.879517 -1.073499 -0.618246 -1.108256
 31 6.919273 -3.849014 -10.201527 -0.088245 -0.076199 -0.105809
 32 1.801666 -1.439339 -4.598675 0.000000 -0.000000 0.000000
 33 0.275625 -0.653328 2.573692 0.000000 -0.000000 0.000000
 34 -2.128445 3.188605 168.111557 0.000000 -0.000000 0.000000
time 2
  0 -2.408944 2.128008 -1.071352 0.000000 -0.000000 0.000000
  1 -2.408944 2.128008 -1.071352 0.000000 -0.000000 0.000000
  2 -2.408944 2.128008 -1.071352 0.000000 -0.000000 0.000000
  3 0.000000 0.732761 84.626778 0.024871 0.000000 0.000000
  4 0.000000 0.380080 -2.358147 -0.034906 -0.000000 -0.000000
  5 -6.962073 -1.123271 -14.918678 -0.141644 0.094850 -0.143762
  6 -0.762901 1.783215 -29.522808 0.450067 0.002024 0.000863
  7 -1.525356 0.897310 -28.921164 -0.299542 -0.049872 -0.002170
  8 0.354393 -2.635784 -5.445798 0.000000 -0.000000 0.000000
  9 7.456964 -0.120268 -14.357986 -0.051720 -0.145253 -0.017982
 10 0.913361 0.804957 -30.266224 0.349312 0.031101 0.015853
 11 1.054036 0.998075 -28.738487 -0.248181 0.006492 0.019047
 12 0.073698 -2.761297 -5.395101 0.000000 -0.000000 0.000000
 13 0.184103 2.405380 6.536697 -0.017453 0.000000 0.000000
 14 -2.507427 0.706860 2.240990 -0.001952 0.004631 -0.322497
 15 3.250292 -0.229967 -90.900154 0.017445 -0.006626 0.385211
 16 1.065001 0.706860 2.240997 -0.001760 -0.001893 0.164200
 17 -2.362349 -0.468017 -90.905495 0.017471 0.007558 -0.441260
 18 0.000000 -0.154719 2.376083 -0.241523 0.012257 -0.047723
 19 0.646873 -1.121443 24.709137 0.237599 -0.019427 0.057172
 20 -0.331074 15.401071 -4.448265 -0.168333 -0.000015 0.000329
 21 0.294691 4.810115 -18.307007 -0.157447 0.000000 -0.000000
 22 -1.097139 0.677547 9.228622 0.000000 -0.000000 0.000000
 23 -7.043964 -0.624743 16.699585 -0.397195 0.495910 1.181266
 24 -13.119766 0.402666 -15.778530 -0.634996 0.210846 0.454405
 25 -6.930321 -3.869400 -10.071304 -0.276650 0.239930 -0.074806
 26 -1.440514 -1.851316 -5.643752 0.052020 0.091792 0.093927
 27 30.607521 4.937193 -71.660194 0.000000 -0.000000 0.000000
 28 -2.740799 -1.783823 -4.956821 0.000000 -0.000000 0.000000
 29 8.158014 -0.446264 16.846817 0.184047 -0.253896 0.183937
 30 12.284376 0.200995 -15.879509 -1.073499 -0.618246 -1.108255
 31 6.919270 -3.849018 -10.201530 -0.088245 -0.076199 -0.105809
 32 1.801674 -1.439339 -4.598671 0.000000 -0.000000 0.000000
 33 0.275626 -0.653332 2.573692 0.000000 -0.000000 0.000000
 34 -2.128445 3.188605 168.111557 0.000000 -0.000000 0.000000
time 3
  0 -2.408944 2.128008 -1.071352 0.000000 -0.000000 0.000000
  1 -2.408944 2.128008 -1.071352 0.000000 -0.000000 0.000000
  2 -2.408944 2.128008 -1.071352 0.000000 -0.000000 0.000000
  3 0.000000 2.145726 84.807625 0.014178 0.000000 0.000000
  4 0.000000 0.380081 -2.358139 -0.034906 -0.000000 0.000000
  5 -6.962073 -1.123270 -14.918671 -0.168465 0.085310 -0.144729
  6 -0.762900 1.783215 -29.522808 0.466183 0.004380 0.001901
  7 -1.525356 0.897311 -28.921165 -0.307528 -0.050663 -0.000468
  8 0.354393 -2.635784 -5.445796 0.000000 -0.000000 0.000000
  9 7.456964 -0.120268 -14.357979 -0.032450 -0.133372 -0.016511
 10 0.913359 0.804957 -30.266216 0.349312 0.031101 0.015853
 11 1.054035 0.998075 -28.738487 -0.233911 0.006144 0.017489
 12 0.073697 -2.761297 -5.395098 0.000000 -0.000000 0.000000
 13 0.184103 2.405381 6.536690 -0.017453 0.000000 0.000000
 14 -2.507427 0.706861 2.240990 -0.001952 0.004631 -0.355540
 15 3.250292 -0.229968 -90.900139 0.017445 -0.006626 0.385211
 16 1.065001 0.706861 2.240990 -0.001760 -0.001893 0.185985
 17 -2.362349 -0.468018 -90.905487 0.017471 0.007558 -0.441260
 18 0.000000 -0.154718 2.376091 -0.257113 0.025317 -0.098579
 19 0.646873 -1.121443 24.709145 0.229994 -0.040128 0.118095
 20 -0.331074 15.401075 -4.448257 -0.161055 -0.000032 0.000714
 21 0.294691 4.810112 -18.307007 -0.137230 0.000000 -0.000000
 22 -1.097138 0.677549 9.228622 0.000000 -0.000000 0.000000
 23 -7.043963 -0.624739 16.699600 -0.710589 0.396652 1.009031
 24 -13.119778 0.402664 -15.778526 -0.629472 0.208665 0.451414
 25 -6.930328 -3.869408 -10.071307 -0.282411 0.234843 -0.112907
 26 -1.440514 -1.851315 -5.643753 0.052020 0.091792 0.093927
 27 30.607513 4.937174 -71.660225 0.000000 -0.000000 0.000000
 28 -2.740814 -1.783825 -4.956821 0.000000 -0.000000 0.000000
 29 8.158014 -0.446264 16.846825 0.184047 -0.253896 0.183937
 30 12.284374 0.200994 -15.879517 -1.073499 -0.618246 -1.108256
 31 6.919277 -3.849007 -10.201534 -0.088245 -0.076199 -0.105809
 32 1.801674 -1.439342 -4.598671 0.000000 -0.000000 0.000000
 33 0.275626 -0.653330 2.573708 0.000000 -0.000000 0.000000
 34 -2.128445 3.188605 168.111557 0.000000 -0.000000 0.000000
time 4
  0 -2.408944 2.128008 -1.071352 0.000000 -0.000000 0.000000
  1 -2.408944 2.128008 -1.071352 0.000000 -0.000000 0.000000
  2 -2.408944 2.128008 -1.071352 0.000000 -0.000000 0.000000
  3 0.000000 3.841368 85.024651 0.001344 0.000000 0.000000
  4 0.000000 0.380081 -2.358139 -0.034906 0.000000 -0.000000
  5 -6.962072 -1.123270 -14.918663 -0.202294 0.073278 -0.145947
  6 -0.762899 1.783215 -29.522808 0.487527 0.007479 0.003305
  7 -1.525357 0.897307 -28.921164 -0.317600 -0.051660 0.001679
  8 0.354393 -2.635783 -5.445797 0.000000 -0.000000 0.000000
  9 7.456964 -0.120268 -14.357971 -0.007162 -0.118386 -0.014656
 10 0.913360 0.804957 -30.266216 0.349312 0.031101 0.015853
 11 1.054036 0.998074 -28.738482 -0.215092 0.005687 0.015524
 12 0.073699 -2.761298 -5.395099 0.000000 -0.000000 0.000000
 13 0.184103 2.405380 6.536697 -0.017453 0.000000 0.000000
 14 -2.507427 0.706861 2.241005 -0.001952 0.004631 -0.397805
 15 3.250292 -0.229966 -90.900154 0.017445 -0.006626 0.385211
 16 1.065002 0.706861 2.240997 -0.001760 -0.001893 0.213850
 17 -2.362350 -0.468018 -90.905495 0.017471 0.007558 -0.441260
 18 0.000000 -0.154719 2.376091 -0.275822 0.040991 -0.159609
 19 0.646873 -1.121445 24.709160 0.220306 -0.064970 0.191207
 20 -0.331074 15.401075 -4.448265 -0.151411 -0.000056 0.001225
 21 0.294691 4.810114 -18.307007 -0.110245 0.000000 -0.000001
 22 -1.097139 0.677547 9.228622 0.000000 -0.000000 0.000000
 23 -7.043963 -0.624741 16.699600 -1.086682 0.277538 0.802339
 24 -13.119778 0.402672 -15.778526 -0.621631 0.205473 0.446912
 25 -6.930321 -3.869404 -10.071302 -0.289866 0.228260 -0.162213
 26 -1.440514 -1.851311 -5.643753 0.052020 0.091792 0.093927
 27 30.607521 4.937199 -71.660202 0.000000 -0.000000 0.000000
 28 -2.740807 -1.783817 -4.956818 0.000000 -0.000000 0.000000
 29 8.158013 -0.446266 16.846825 0.184047 -0.253896 0.183937
 30 12.284380 0.200996 -15.879509 -1.073499 -0.618246 -1.108256
 31 6.919270 -3.849014 -10.201530 -0.088245 -0.076199 -0.105809
 32 1.801666 -1.439342 -4.598671 0.000000 -0.000000 0.000000
 33 0.275626 -0.653330 2.573708 0.000000 -0.000000 0.000000
 34 -2.128445 3.188605 168.111557 0.000000 -0.000000 0.000000
time 5
  0 -2.408944 2.128008 -1.071352 0.000000 -0.000000 0.000000
  1 -2.408944 2.128008 -1.071352 0.000000 -0.000000 0.000000
  2 -2.408944 2.128008 -1.071352 0.000000 -0.000000 0.000000
  3 0.000000 5.656703 85.256989 -0.012395 0.000000 0.000000
  4 -0.000000 0.380081 -2.358147 -0.034906 0.000000 -0.000000
  5 -6.962073 -1.123271 -14.918671 -0.240986 0.059517 -0.147341
  6 -0.762901 1.783214 -29.522804 0.513395 0.011204 0.005049
  7 -1.525354 0.897310 -28.921162 -0.329120 -0.052801 0.004134
  8 0.354392 -2.635784 -5.445796 0.000000 -0.000000 0.000000
  9 7.456964 -0.120268 -14.357971 0.023170 -0.101246 -0.012534
 10 0.913361 0.804957 -30.266212 0.349312 0.031101 0.015853
 11 1.054035 0.998075 -28.738482 -0.192394 0.005140 0.013277
 12 0.073698 -2.761298 -5.395098 0.000000 -0.000000 0.000000
 13 0.184103 2.405381 6.536705 -0.017453 0.000000 0.000000
 14 -2.507427 0.706862 2.240990 -0.001952 0.004631 -0.446985
 15 3.250291 -0.229968 -90.900131 0.017445 -0.006626 0.385211
 16 1.065002 0.706862 2.240997 -0.001760 -0.001893 0.246274
 17 -2.362350 -0.468018 -90.905487 0.017471 0.007558 -0.441260
 18 0.000000 -0.154719 2.376083 -0.295852 0.057771 -0.224947
 19 0.646873 -1.121443 24.709152 0.209086 -0.091566 0.269479
 20 -0.331074 15.401073 -4.448257 -0.139717 -0.000084 0.001845
 21 0.294691 4.810116 -18.307007 -0.077250 0.000000 -0.000001
 22 -1.097139 0.677548 9.228630 0.000000 -0.000000 0.000000
 23 -7.043964 -0.624741 16.699593 -1.489322 0.150014 0.581057
 24 -13.119774 0.402664 -15.778526 -0.611410 0.201190 0.440717
 25 -6.930321 -3.869404 -10.071304 -0.298664 0.220492 -0.220396
 26 -1.440521 -1.851318 -5.643753 0.052020 0.091792 0.093927
 27 30.607540 4.937195 -71.660225 0.000000 -0.000000 0.000000
 28 -2.740803 -1.783821 -4.956810 0.000000 -0.000000 0.000000
 29 8.158013 -0.446266 16.846825 0.184047 -0.253896 0.183937
 30 12.284380 0.200995 -15.879517 -1.073499 -0.618246 -1.108255
 31 6.919270 -3.849018 -10.201527 -0.088245 -0.076199 -0.105809
 32 1.801674 -1.439342 -4.598673 0.000000 -0.000000 0.000000
 33 0.275625 -0.653332 2.573708 0.000000 -0.000000 0.000000
 34 -2.128445 3.188605 168.111557 0.000000 -0.000000 0.000000
time 6
  0 -2.408944 2.128008 -1.071352 0.000000 -0.000000 0.000000
  1 -2.408944 2.128008 -1.071352 0.000000 -0.000000 0.000000
  2 -2.408944 2.128008 -1.071352 0.000000 -0.000000 0.000000
  3 0.000000 7.428745 85.483795 -0.025806 0.000000 0.000000
  4 0.000000 0.380082 -2.358147 -0.034906 0.000000 0.000000
  5 -6.962073 -1.123270 -14.918678 -0.282394 0.044789 -0.148833
  6 -0.762898 1.783217 -29.522812 0.543084 0.015439 0.007105
  7 -1.525355 0.897308 -28.921167 -0.341448 -0.054022 0.006762
  8 0.354393 -2.635783 -5.445797 0.000000 -0.000000 0.000000
  9 7.456964 -0.120268 -14.357979 0.057571 -0.082903 -0.010263
 10 0.913361 0.804956 -30.266212 0.349312 0.031101 0.015853
 11 1.054035 0.998068 -28.738489 -0.166486 0.004522 0.010871
 12 0.073697 -2.761295 -5.395099 0.000000 -0.000000 0.000000
 13 0.184103 2.405382 6.536690 -0.017453 0.000000 0.000000
 14 -2.507427 0.706861 2.240997 -0.001952 0.004631 -0.500775
 15 3.250292 -0.229968 -90.900146 0.017445 -0.006626 0.385211
 16 1.065001 0.706860 2.240997 -0.001760 -0.001893 0.281738
 17 -2.362350 -0.468018 -90.905487 0.017471 0.007558 -0.441260
 18 0.000000 -0.154718 2.376083 -0.315405 0.074151 -0.288726
 19 0.646873 -1.121437 24.709145 0.196888 -0.117528 0.345885
 20 -0.331074 15.401073 -4.448265 -0.126286 -0.000117 0.002556
 21 0.294691 4.810114 -18.306999 -0.039006 0.000000 -0.000001
 22 -1.097138 0.677550 9.228622 0.000000 -0.000000 0.000000
 23 -7.043964 -0.624737 16.699593 -1.882360 0.025533 0.365052
 24 -13.119774 0.402672 -15.778519 -0.598747 0.195738 0.432648
 25 -6.930321 -3.869406 -10.071297 -0.308452 0.211850 -0.285127
 26 -1.440521 -1.851317 -5.643753 0.052020 0.091792 0.093927
 27 30.607536 4.937176 -71.660187 0.000000 -0.000000 0.000000
 28 -2.740807 -1.783823 -4.956818 0.000000 -0.000000 0.000000
 29 8.158014 -0.446262 16.846825 0.184047 -0.253896 0.183937
 30 12.284376 0.200994 -15.879501 -1.073499 -0.618246 -1.108255
 31 6.919273 -3.849010 -10.201534 -0.088245 -0.076199 -0.105809
 32 1.801674 -1.439342 -4.598675 0.000000 -0.000000 0.000000
 33 0.275625 -0.653328 2.573700 0.000000 -0.000000 0.000000
 34 -2.128445 3.188605 168.111557 0.000000 -0.000000 0.000000
time 7
  0 -2.408944 2.128008 -1.071352 0.000000 -0.000000 0.000000
  1 -2.408944 2.128008 -1.071352 0.000000 -0.000000 0.000000
  2 -2.408944 2.128008 -1.071352 0.000000 -0.000000 0.000000
  3 0.000000 8.994509 85.684196 -0.037656 0.000000 0.000000
  4 0.000000 0.380081 -2.358147 -0.034906 0.000000 0.000000
  5 -6.962072 -1.123271 -14.918663 -0.324372 0.029859 -0.150345
  6 -0.762900 1.783216 -29.522808 0.575893 0.020070 0.009445
  7 -1.525354 0.897312 -28.921169 -0.353946 -0.055259 0.009426
  8 0.354392 -2.635784 -5.445798 0.000000 -0.000000 0.000000
  9 7.456964 -0.120268 -14.357971 0.095066 -0.064308 -0.007961
 10 0.913362 0.804956 -30.266220 0.349312 0.031101 0.015853
 11 1.054037 0.998072 -28.738483 -0.138036 0.003851 0.008433
 12 0.073697 -2.761301 -5.395099 0.000000 -0.000000 0.000000
 13 0.184103 2.405380 6.536690 -0.017453 0.000000 0.000000
 14 -2.507427 0.706861 2.240982 -0.001952 0.004631 -0.556871
 15 3.250290 -0.229967 -90.900154 0.017445 -0.006626 0.385211
 16 1.065001 0.706860 2.240982 -0.001760 -0.001893 0.318722
 17 -2.362349 -0.468018 -90.905495 0.017471 0.007558 -0.441260
 18 0.000000 -0.154718 2.376083 -0.332681 0.088624 -0.345081
 19 0.646873 -1.121443 24.709145 0.184263 -0.140468 0.413397
 20 -0.331074 15.401075 -4.448273 -0.111434 -0.000153 0.003343
 21 0.294692 4.810114 -18.306999 0.003727 0.000000 -0.000001
 22 -1.097139 0.677548 9.228615 0.000000 -0.000000 0.000000
 23 -7.043962 -0.624743 16.699585 -2.229645 -0.084459 0.174192
 24 -13.119780 0.402664 -15.778519 -0.583580 0.189035 0.422523
 25 -6.930321 -3.869405 -10.071304 -0.318877 0.202644 -0.354078
 26 -1.440517 -1.851318 -5.643745 0.052020 0.091792 0.093927
 27 30.607529 4.937170 -71.660202 0.000000 -0.000000 0.000000
 28 -2.740805 -1.783821 -4.956825 0.000000 -0.000000 0.000000
 29 8.158014 -0.446266 16.846817 0.184047 -0.253896 0.183937
 30 12.284378 0.200994 -15.879501 -1.073499 -0.618246 -1.108256
 31 6.919273 -3.849014 -10.201534 -0.088245 -0.076199 -0.105809
 32 1.801674 -1.439335 -4.598675 0.000000 -0.000000 0.000000
 33 0.275625 -0.653330 2.573700 0.000000 -0.000000 0.000000
 34 -2.128445 3.188605 168.111557 0.000000 -0.000000 0.000000
time 8
  0 -2.408944 2.128008 -1.071352 0.000000 -0.000000 0.000000
  1 -2.408944 2.128008 -1.071352 0.000000 -0.000000 0.000000
  2 -2.408944 2.128008 -1.071352 0.000000 -0.000000 0.000000
  3 0.000000 10.191010 85.837334 -0.046712 0.000000 0.000000
  4 0.000000 0.380081 -2.358131 -0.034906 -0.000000 0.000000
  5 -6.962073 -1.123271 -14.918671 -0.364774 0.015489 -0.151801
  6 -0.762899 1.783215 -29.522808 0.611116 0.024980 0.012041
  7 -1.525355 0.897308 -28.921167 -0.365975 -0.056451 0.011990
  8 0.354393 -2.635784 -5.445798 0.000000 -0.000000 0.000000
  9 7.456965 -0.120269 -14.357979 0.134681 -0.046411 -0.005746
 10 0.913361 0.804958 -30.266216 0.349312 0.031101 0.015853
 11 1.054035 0.998074 -28.738487 -0.107713 0.003144 0.006086
 12 0.073698 -2.761295 -5.395099 0.000000 -0.000000 0.000000
 13 0.184103 2.405381 6.536697 -0.017453 0.000000 0.000000
 14 -2.507427 0.706861 2.240990 -0.001952 0.004631 -0.612967
 15 3.250292 -0.229969 -90.900146 0.017445 -0.006626 0.385211
 16 1.065002 0.706861 2.240990 -0.001760 -0.001893 0.355706
 17 -2.362349 -0.468019 -90.905502 0.017471 0.007558 -0.441260
 18 0.000000 -0.154718 2.376083 -0.345883 0.099684 -0.388146
 19 0.646872 -1.121445 24.709152 0.171765 -0.157997 0.464987
 20 -0.331074 15.401073 -4.448265 -0.095476 -0.000192 0.004189
 21 0.294692 4.810120 -18.306992 0.050189 0.000000 -0.000001
 22 -1.097138 0.677549 9.228622 0.000000 -0.000000 0.000000
 23 -7.043964 -0.624741 16.699593 -2.495028 -0.168510 0.028343
 24 -13.119780 0.402664 -15.778526 -0.565847 0.181003 0.410160
 25 -6.930323 -3.869404 -10.071312 -0.329589 0.193186 -0.424921
 26 -1.440516 -1.851318 -5.643753 0.052020 0.091792 0.093927
 27 30.607548 4.937183 -71.660233 0.000000 -0.000000 0.000000
 28 -2.740805 -1.783829 -4.956818 0.000000 -0.000000 0.000000
 29 8.158012 -0.446268 16.846825 0.184047 -0.253896 0.183937
 30 12.284376 0.200994 -15.879517 -1.073499 -0.618246 -1.108255
 31 6.919266 -3.849014 -10.201534 -0.088245 -0.076199 -0.105809
 32 1.801659 -1.439342 -4.598675 0.000000 -0.000000 0.000000
 33 0.275625 -0.653330 2.573692 0.000000 -0.000000 0.000000
 34 -2.128445 3.188605 168.111557 0.000000 -0.000000 0.000000
time 9
  0 -2.408944 2.128008 -1.071352 0.000000 -0.000000 0.000000
  1 -2.408944 2.128008 -1.071352 0.000000 -0.000000 0.000000
  2 -2.408944 2.128008 -1.071352 0.000000 -0.000000 0.000000
  3 0.000000 10.855259 85.922348 -0.051739 0.000000 0.000000
  4 0.000000 0.380082 -2.358131 -0.034906 -0.000000 -0.000000
  5 -6.962073 -1.123270 -14.918663 -0.401454 0.002444 -0.153122
  6 -0.762897 1.783215 -29.522812 0.648052 0.030054 0.014866
  7 -1.525354 0.897308 -28.921167 -0.376895 -0.057532 0.014318
  8 0.354393 -2.635783 -5.445799 0.000000 -0.000000 0.000000
  9 7.456964 -0.120268 -14.357971 0.175441 -0.030162 -0.003734
 10 0.913360 0.804956 -30.266220 0.349312 0.031101 0.015853
 11 1.054036 0.998074 -28.738491 -0.076186 0.002421 0.003955
 12 0.073698 -2.761301 -5.395099 0.000000 -0.000000 0.000000
 13 0.184103 2.405380 6.536697 -0.017453 0.000000 0.000000
 14 -2.507427 0.706860 2.240997 -0.001952 0.004631 -0.666758
 15 3.250292 -0.229967 -90.900162 0.017445 -0.006626 0.385211
 16 1.065001 0.706860 2.240997 -0.001760 -0.001893 0.391170
 17 -2.362350 -0.468017 -90.905495 0.017471 0.007558 -0.441260
 18 0.000000 -0.154718 2.376091 -0.353212 0.105824 -0.412054
 19 0.646872 -1.121443 24.709137 0.159946 -0.167729 0.493627
 20 -0.331074 15.401073 -4.448265 -0.078726 -0.000232 0.005077
 21 0.294692 4.810114 -18.307007 0.099619 0.000000 -0.000001
 22 -1.097139 0.677549 9.228615 0.000000 -0.000000 0.000000
 23 -7.043962 -0.624739 16.699585 -2.642358 -0.215172 -0.052627
 24 -13.119774 0.402668 -15.778534 -0.545485 0.171562 0.395379
 25 -6.930323 -3.869408 -10.071297 -0.340234 0.183786 -0.495327
 26 -1.440517 -1.851326 -5.643761 0.052020 0.091792 0.093927
 27 30.607544 4.937180 -71.660225 0.000000 -0.000000 0.000000
 28 -2.740807 -1.783821 -4.956825 0.000000 -0.000000 0.000000
 29 8.158014 -0.446262 16.846809 0.184047 -0.253896 0.183937
 30 12.284379 0.200996 -15.879517 -1.073499 -0.618245 -1.108255
 31 6.919281 -3.849018 -10.201530 -0.088245 -0.076199 -0.105809
 32 1.801674 -1.439342 -4.598675 0.000000 -0.000000 0.000000
 33 0.275625 -0.653330 2.573692 0.000000 -0.000000 0.000000
 34 -2.128445 3.188605 168.111557 0.000000 -0.000000 0.000000
time 10
  0 -2.408944 2.128008 -1.071352 0.000000 -0.000000 0.000000
  1 -2.408944 2.128008 -1.071352 0.000000 -0.000000 0.000000
  2 -2.408944 2.128008 -1.071352 0.000000 -0.000000 0.000000
  3 0.000000 10.287355 85.932846 -0.044536 0.000000 0.000000
  4 0.000000 0.380081 -2.358139 -0.034906 0.000000 0.000000
  5 -6.962073 -1.123271 -14.918678 -0.432265 -0.008515 -0.154232
  6 -0.762899 1.783216 -29.522808 0.685997 0.035175 0.017892
  7 -1.525355 0.897310 -28.921173 -0.386069 -0.058440 0.016273
  8 0.354393 -2.635783 -5.445798 0.000000 -0.000000 0.000000
  9 7.456964 -0.120268 -14.357979 0.216371 -0.016513 -0.002044
 10 0.913360 0.804956 -30.266220 0.349312 0.031101 0.015853
 11 1.054035 0.998077 -28.738487 -0.044124 0.001699 0.002166
 12 0.073698 -2.761299 -5.395100 0.000000 -0.000000 0.000000
 13 0.184103 2.405381 6.536690 -0.017453 0.000000 0.000000
 14 -2.507427 0.706861 2.240990 -0.001952 0.004631 -0.715938
 15 3.250291 -0.229970 -90.900139 0.017445 -0.006626 0.385211
 16 1.065002 0.706861 2.240990 -0.001760 -0.001893 0.423595
 17 -2.362350 -0.468018 -90.905495 0.017471 0.007558 -0.441260
 18 0.000000 -0.154718 2.376091 -0.345919 0.106271 -0.396797
 19 0.646873 -1.121441 24.709152 0.148449 -0.168437 0.476311
 20 -0.331075 15.401075 -4.448265 -0.061499 -0.000274 0.005989
 21 0.294692 4.810112 -18.306999 0.151259 0.000000 -0.000001
 22 -1.097137 0.677549 9.228615 0.000000 -0.000000 0.000000
 23 -7.043962 -0.624739 16.699600 -2.616437 -0.213703 -0.051644
 24 -13.119777 0.402662 -15.778519 -0.482320 0.154777 0.368543
 25 -6.930323 -3.869406 -10.071297 -0.350462 0.174756 -0.562968
 26 -1.440517 -1.851318 -5.643745 0.052020 0.091792 0.093927
 27 30.607540 4.937183 -71.660194 0.000000 -0.000000 0.000000
 28 -2.740805 -1.783825 -4.956818 0.000000 -0.000000 0.000000
 29 8.158013 -0.446264 16.846825 0.184047 -0.253896 0.183937
 30 12.284378 0.200995 -15.879509 -1.073499 -0.618246 -1.108255
 31 6.919270 -3.849014 -10.201534 -0.088245 -0.076199 -0.105809
 32 1.801674 -1.439346 -4.598673 0.000000 -0.000000 0.000000
 33 0.275625 -0.653326 2.573700 0.000000 -0.000000 0.000000
 34 -2.128445 3.188605 168.111557 0.000000 -0.000000 0.000000
time 11
  0 -2.408944 2.128008 -1.071352 0.000000 -0.000000 0.000000
  1 -2.408944 2.128008 -1.071352 0.000000 -0.000000 0.000000
  2 -2.408944 2.128008 -1.071352 0.000000 -0.000000 0.000000
  3 0.000000 6.158418 85.932846 -0.003362 0.000000 0.000000
  4 0.000000 0.380081 -2.358139 -0.034906 0.000000 0.000000
  5 -6.962073 -1.123270 -14.918678 -0.455062 -0.016623 -0.155054
  6 -0.762899 1.783215 -29.522812 0.724249 0.040229 0.021091
  7 -1.525355 0.897310 -28.921167 -0.392856 -0.059112 0.017720
  8 0.354393 -2.635783 -5.445797 0.000000 -0.000000 0.000000
  9 7.456964 -0.120268 -14.357971 0.256498 -0.006415 -0.000794
 10 0.913361 0.804960 -30.266216 0.349312 0.031101 0.015853
 11 1.054035 0.998081 -28.738487 -0.012197 0.000996 0.000841
 12 0.073698 -2.761299 -5.395097 0.000000 -0.000000 0.000000
 13 0.184103 2.405381 6.536690 -0.017453 0.000000 0.000000
 14 -2.507427 0.706861 2.240982 -0.001952 0.004631 -0.758202
 15 3.250291 -0.229966 -90.900146 0.017445 -0.006626 0.385211
 16 1.065001 0.706861 2.240982 -0.001760 -0.001893 0.451459
 17 -2.362349 -0.468018 -90.905487 0.017471 0.007558 -0.441260
 18 0.000000 -0.154718 2.376083 -0.293840 0.104207 -0.281118
 19 0.646873 -1.121447 24.709152 0.133670 -0.165161 0.343838
 20 -0.331075 15.401067 -4.448265 -0.044109 -0.000316 0.006911
 21 0.294692 4.810114 -18.306999 0.204348 0.000000 -0.000001
 22 -1.097139 0.677547 9.228630 0.000000 -0.000000 0.000000
 23 -7.043966 -0.624743 16.699593 -2.358083 -0.175667 0.020522
 24 -13.119778 0.402664 -15.778526 -0.234775 0.103833 0.294842
 25 -6.930319 -3.869402 -10.071304 -0.359920 0.166405 -0.625516
 26 -1.440517 -1.851315 -5.643753 0.052020 0.091792 0.093927
 27 30.607529 4.937191 -71.660217 0.000000 -0.000000 0.000000
 28 -2.740808 -1.783823 -4.956818 0.000000 -0.000000 0.000000
 29 8.158013 -0.446266 16.846817 0.184047 -0.253896 0.183937
 30 12.284378 0.200995 -15.879509 -1.073499 -0.618246 -1.108256
 31 6.919277 -3.849014 -10.201530 -0.088245 -0.076199 -0.105809
 32 1.801674 -1.439335 -4.598675 0.000000 -0.000000 0.000000
 33 0.275625 -0.653330 2.573700 0.000000 -0.000000 0.000000
 34 -2.128445 3.188605 168.111557 0.000000 -0.000000 0.000000
time 12
  0 -2.408944 2.128008 -1.071352 0.000000 -0.000000 0.000000
  1 -2.408944 2.128008 -1.071352 0.000000 -0.000000 0.000000
  2 -2.408944 2.128008 -1.071352 0.000000 -0.000000 0.000000
  3 0.000000 -0.426186 85.932846 0.037811 -0.000000 0.000000
  4 0.000000 0.380081 -2.358147 -0.034906 0.000000 0.000000
  5 -6.962073 -1.123270 -14.918663 -0.467699 -0.021118 -0.155509
  6 -0.762898 1.783213 -29.522804 0.762103 0.045100 0.024435
  7 -1.525355 0.897308 -28.921165 -0.396618 -0.059485 0.018522
  8 0.354393 -2.635784 -5.445797 0.000000 -0.000000 0.000000
  9 7.456964 -0.120268 -14.357971 0.294845 -0.000817 -0.000101
 10 0.913360 0.804958 -30.266209 0.349312 0.031101 0.015853
 11 1.054035 0.998077 -28.738487 0.018928 0.000331 0.000107
 12 0.073699 -2.761299 -5.395101 0.000000 -0.000000 0.000000
 13 0.184103 2.405381 6.536705 -0.017453 0.000000 0.000000
 14 -2.507427 0.706861 2.240982 -0.001952 0.004631 -0.791245
 15 3.250292 -0.229967 -90.900154 0.017445 -0.006626 0.385211
 16 1.065002 0.706861 2.240982 -0.001760 -0.001893 0.473245
 17 -2.362349 -0.468018 -90.905502 0.017471 0.007558 -0.441260
 18 0.000000 -0.154718 2.376083 -0.210787 0.100653 -0.096639
 19 0.646873 -1.121443 24.709137 0.117108 -0.159522 0.132578
 20 -0.331074 15.401075 -4.448265 -0.026872 -0.000358 0.007824
 21 0.294691 4.810112 -18.306999 0.258125 0.000000 -0.000001
 22 -1.097139 0.677547 9.228622 0.000000 -0.000000 0.000000
 23 -7.043963 -0.624741 16.699585 -2.008795 -0.137631 0.142608
 24 -13.119778 0.402664 -15.778530 0.052417 0.024790 0.205067
 25 -6.930317 -3.869400 -10.071304 -0.368255 0.159045 -0.680643
 26 -1.440521 -1.851318 -5.643761 0.052020 0.091792 0.093927
 27 30.607533 4.937180 -71.660233 0.000000 -0.000000 0.000000
 28 -2.740810 -1.783821 -4.956818 0.000000 -0.000000 0.000000
 29 8.158015 -0.446264 16.846817 0.184047 -0.253896 0.183937
 30 12.284382 0.200994 -15.879517 -1.073499 -0.618245 -1.108255
 31 6.919281 -3.849010 -10.201530 -0.088245 -0.076199 -0.105809
 32 1.801674 -1.439342 -4.598679 0.000000 -0.000000 0.000000
 33 0.275626 -0.653330 2.573692 0.000000 -0.000000 0.000000
 34 -2.128445 3.188605 168.111557 0.000000 -0.000000 0.000000
time 13
  0 -2.408944 2.128008 -1.071352 0.000000 -0.000000 0.000000
  1 -2.408944 2.128008 -1.071352 0.000000 -0.000000 0.000000
  2 -2.408944 2.128008 -1.071352 0.000000 -0.000000 0.000000
  3 0.000000 -7.878957 85.932846 0.045635 -0.000000 0.000000
  4 0.000000 0.380081 -2.358147 -0.034906 0.000000 0.000000
  5 -6.962073 -1.123270 -14.918678 -0.469089 -0.021612 -0.155559
  6 -0.762900 1.783215 -29.522812 0.808359 0.050584 0.029160
  7 -1.525354 0.897305 -28.921165 -0.373651 -0.055992 0.017621
  8 0.354393 -2.635784 -5.445798 0.000000 -0.000000 0.000000
  9 7.456964 -0.120268 -14.357979 0.336844 -0.000789 -0.000630
 10 0.913360 0.804958 -30.266220 0.349312 0.031101 0.015853
 11 1.054036 0.998074 -28.738491 0.055278 -0.000372 0.000292
 12 0.073698 -2.761297 -5.395099 0.000000 -0.000000 0.000000
 13 0.184103 2.405381 6.536682 -0.017453 0.000000 0.000000
 14 -2.507427 0.706861 2.240990 -0.001952 0.004631 -0.812761
 15 3.250291 -0.229967 -90.900154 0.017445 -0.006626 0.385211
 16 1.065001 0.706861 2.240982 -0.001760 -0.001893 0.487430
 17 -2.362350 -0.468018 -90.905479 0.017471 0.007558 -0.441260
 18 0.000000 -0.154719 2.376083 -0.116783 0.096134 0.112163
 19 0.646873 -1.121444 24.709145 0.101035 -0.152351 -0.106537
 20 -0.331074 15.401074 -4.448265 -0.010102 -0.000399 0.008713
 21 0.294692 4.810116 -18.306999 0.311831 0.000000 -0.000001
 22 -1.097138 0.677548 9.228622 0.000000 -0.000000 0.000000
 23 -7.043962 -0.624741 16.699585 -1.697603 -0.132730 0.310020
 24 -13.119775 0.402664 -15.778532 0.219257 -0.082648 0.132462
 25 -6.930317 -3.869408 -10.071305 -0.375116 0.152987 -0.726020
 26 -1.440517 -1.851318 -5.643753 0.052020 0.091792 0.093927
 27 30.607563 4.937180 -71.660210 0.000000 -0.000000 0.000000
 28 -2.740810 -1.783821 -4.956821 0.000000 -0.000000 0.000000
 29 8.158013 -0.446265 16.846817 0.184047 -0.253896 0.183937
 30 12.284376 0.200996 -15.879517 -1.073499 -0.618246 -1.108255
 31 6.919281 -3.849018 -10.201534 -0.088245 -0.076199 -0.105809
 32 1.801674 -1.439339 -4.598675 0.000000 -0.000000 0.000000
 33 0.275626 -0.653329 2.573692 0.000000 -0.000000 0.000000
 34 -2.128445 3.188605 168.111557 0.000000 -0.000000 0.000000
time 14
  0 -2.408944 2.128008 -1.071352 0.000000 -0.000000 0.000000
  1 -2.408944 2.128008 -1.071352 0.000000 -0.000000 0.000000
  2 -2.408944 2.128008 -1.071352 0.000000 -0.000000 0.000000
  3 0.000000 -14.612392 85.932846 0.045635 -0.000000 0.000000
  4 0.000000 0.380080 -2.358147 -0.034906 0.000000 0.000000
  5 -6.962073 -1.123271 -14.918678 -0.465228 -0.020239 -0.155420
  6 -0.762899 1.783218 -29.522812 0.902324 0.060400 0.040567
  7 -1.525353 0.897308 -28.921164 -0.218888 -0.032619 0.010981
  8 0.354391 -2.635783 -5.445798 0.000000 -0.000000 0.000000
  9 7.456964 -0.120269 -14.357979 0.408383 -0.006466 -0.004771
 10 0.913360 0.804958 -30.266224 0.349312 0.031101 0.015853
 11 1.054035 0.998079 -28.738495 0.124350 -0.001492 0.002256
 12 0.073698 -2.761299 -5.395102 0.000000 -0.000000 0.000000
 13 0.184103 2.405380 6.536682 -0.017453 0.000000 0.000000
 14 -2.507427 0.706862 2.240990 -0.001952 0.004631 -0.820446
 15 3.250291 -0.229967 -90.900146 0.017445 -0.006626 0.385211
 16 1.065001 0.706861 2.240982 -0.001760 -0.001893 0.492497
 17 -2.362350 -0.468018 -90.905479 0.017471 0.007558 -0.441260
 18 0.000000 -0.154719 2.376083 -0.031852 0.091175 0.300812
 19 0.646873 -1.121444 24.709145 0.087722 -0.144484 -0.322573
 20 -0.331074 15.401073 -4.448273 0.005886 -0.000437 0.009560
 21 0.294692 4.810116 -18.307007 0.364706 0.000000 -0.000001
 22 -1.097138 0.677547 9.228622 0.000000 -0.000000 0.000000
 23 -7.043962 -0.624740 16.699585 -1.343690 -0.147766 0.568380
 24 -13.119773 0.402672 -15.778528 0.307259 -0.251414 0.063610
 25 -6.930321 -3.869408 -10.071304 -0.380151 0.148541 -0.759320
 26 -1.440517 -1.851311 -5.643753 0.052020 0.091792 0.093927
 27 30.607557 4.937187 -71.660233 0.000000 -0.000000 0.000000
 28 -2.740807 -1.783813 -4.956825 0.000000 -0.000000 0.000000
 29 8.158013 -0.446264 16.846817 0.184047 -0.253896 0.183937
 30 12.284378 0.200993 -15.879509 -1.073499 -0.618246 -1.108256
 31 6.919277 -3.849010 -10.201534 -0.088245 -0.076199 -0.105809
 32 1.801674 -1.439339 -4.598675 0.000000 -0.000000 0.000000
 33 0.275625 -0.653330 2.573692 0.000000 -0.000000 0.000000
 34 -2.128445 3.188605 168.111557 0.000000 -0.000000 0.000000
time 15
  0 -2.408944 2.128008 -1.071352 0.000000 -0.000000 0.000000
  1 -2.408944 2.128008 -1.071352 0.000000 -0.000000 0.000000
  2 -2.408944 2.128008 -1.071352 0.000000 -0.000000 0.000000
  3 0.000000 -19.038986 85.932846 0.045635 -0.000000 0.000000
  4 0.000000 0.380080 -2.358147 -0.034906 0.000000 0.000000
  5 -6.962073 -1.123271 -14.918671 -0.457730 -0.017572 -0.155150
  6 -0.762899 1.783218 -29.522808 0.989851 0.069268 0.051566
  7 -1.525355 0.897306 -28.921169 -0.042072 -0.005809 0.003593
  8 0.354391 -2.635783 -5.445797 0.000000 -0.000000 0.000000
  9 7.456964 -0.120269 -14.357971 0.472166 -0.014664 -0.009496
 10 0.913360 0.804956 -30.266220 0.349312 0.031101 0.015853
 11 1.054036 0.998075 -28.738493 0.187702 -0.002472 0.004647
 12 0.073698 -2.761301 -5.395100 0.000000 -0.000000 0.000000
 13 0.184103 2.405381 6.536690 -0.017453 0.000000 0.000000
 14 -2.507427 0.706862 2.240990 -0.001952 0.004631 -0.816974
 15 3.250291 -0.229965 -90.900146 0.017445 -0.006626 0.385211
 16 1.065001 0.706861 2.240982 -0.001760 -0.001893 0.490207
 17 -2.362350 -0.468018 -90.905487 0.017471 0.007558 -0.441260
 18 0.000000 -0.154717 2.376083 0.023982 0.086300 0.424830
 19 0.646873 -1.121445 24.709145 0.079441 -0.136753 -0.464596
 20 -0.331076 15.401075 -4.448273 0.020777 -0.000474 0.010349
 21 0.294690 4.810116 -18.307007 0.415989 0.000000 -0.000001
 22 -1.097139 0.677546 9.228622 0.000000 -0.000000 0.000000
 23 -7.043963 -0.624742 16.699585 -1.043823 -0.163990 0.804363
 24 -13.119776 0.402672 -15.778526 0.347707 -0.396932 0.004439
 25 -6.930317 -3.869400 -10.071312 -0.383008 0.146019 -0.778213
 26 -1.440514 -1.851318 -5.643753 0.052020 0.091792 0.093927
 27 30.607573 4.937172 -71.660217 0.000000 -0.000000 0.000000
 28 -2.740805 -1.783829 -4.956818 0.000000 -0.000000 0.000000
 29 8.158014 -0.446265 16.846817 0.184047 -0.253896 0.183937
 30 12.284380 0.200998 -15.879509 -1.073499 -0.618246 -1.108256
 31 6.919281 -3.849018 -10.201534 -0.088245 -0.076199 -0.105809
 32 1.801674 -1.439339 -4.598675 0.000000 -0.000000 0.000000
 33 0.275626 -0.653332 2.573692 0.000000 -0.000000 0.000000
 34 -2.128445 3.188605 168.111557 0.000000 -0.000000 0.000000
time 16
  0 -2.408944 2.128008 -1.071352 0.000000 -0.000000 0.000000
  1 -2.408944 2.128008 -1.071352 0.000000 -0.000000 0.000000
  2 -2.408944 2.128008 -1.071352 0.000000 -0.000000 0.000000
  3 0.000000 -19.851910 85.932846 0.045635 -0.000000 0.000000
  4 0.000000 0.380080 -2.358147 -0.034906 0.000000 0.000000
  5 -6.962073 -1.123270 -14.918671 -0.446969 -0.013745 -0.154762
  6 -0.762899 1.783218 -29.522812 1.009727 0.071246 0.054114
  7 -1.525355 0.897311 -28.921165 0.025804 0.004732 0.001235
  8 0.354392 -2.635783 -5.445797 0.000000 -0.000000 0.000000
  9 7.456964 -0.120268 -14.357971 0.486270 -0.022144 -0.011323
 10 0.913360 0.804958 -30.266216 0.349312 0.031101 0.015853
 11 1.054035 0.998068 -28.738489 0.201956 -0.002686 0.005947
 12 0.073697 -2.761299 -5.395098 0.000000 -0.000000 0.000000
 13 0.184103 2.405381 6.536690 -0.017453 0.000000 0.000000
 14 -2.507427 0.706862 2.240997 -0.001952 0.004631 -0.807012
 15 3.250292 -0.229967 -90.900162 0.017445 -0.006626 0.385211
 16 1.065001 0.706861 2.240990 -0.001760 -0.001893 0.483640
 17 -2.362349 -0.468018 -90.905495 0.017471 0.007558 -0.441260
 18 0.000000 -0.154719 2.376083 0.034914 0.081931 0.449261
 19 0.646873 -1.121444 24.709152 0.078015 -0.129827 -0.492597
 20 -0.331074 15.401071 -4.448257 0.034257 -0.000506 0.011063
 21 0.294692 4.810116 -18.306999 0.464921 0.000000 -0.000001
 22 -1.097138 0.677547 9.228630 0.000000 -0.000000 0.000000
 23 -7.043963 -0.624743 16.699593 -0.917263 -0.167131 0.897057
 24 -13.119776 0.402664 -15.778526 0.353567 -0.423512 -0.033777
 25 -6.930321 -3.869404 -10.071304 -0.383406 0.145667 -0.780850
 26 -1.440517 -1.851326 -5.643753 0.052020 0.091792 0.093927
 27 30.607546 4.937176 -71.660217 0.000000 -0.000000 0.000000
 28 -2.740805 -1.783829 -4.956818 0.000000 -0.000000 0.000000
 29 8.158012 -0.446265 16.846825 0.184047 -0.253896 0.183937
 30 12.284378 0.200994 -15.879509 -1.073499 -0.618246 -1.108256
 31 6.919273 -3.849014 -10.201530 -0.088245 -0.076199 -0.105809
 32 1.801682 -1.439339 -4.598675 0.000000 -0.000000 0.000000
 33 0.275624 -0.653331 2.573708 0.000000 -0.000000 0.000000
 34 -2.128445 3.188605 168.111557 0.000000 -0.000000 0.000000
time 17
  0 -2.408944 2.128008 -1.071352 0.000000 -0.000000 0.000000
  1 -2.408944 2.128008 -1.071352 0.000000 -0.000000 0.000000
  2 -2.408944 2.128008 -1.071352 0.000000 -0.000000 0.000000
  3 0.000000 -18.958410 85.932846 0.045635 -0.000000 0.000000
  4 0.000000 0.380080 -2.358139 -0.034906 0.000000 0.000000
  5 -6.962073 -1.123271 -14.918678 -0.433317 -0.008889 -0.154270
  6 -0.762898 1.783215 -29.522808 1.002102 0.070298 0.053394
  7 -1.525356 0.897312 -28.921167 0.045595 0.007924 0.000853
  8 0.354392 -2.635784 -5.445798 0.000000 -0.000000 0.000000
  9 7.456964 -0.120269 -14.357971 0.478895 -0.029688 -0.012143
 10 0.913360 0.804956 -30.266216 0.349312 0.031101 0.015853
 11 1.054035 0.998077 -28.738487 0.195807 -0.002560 0.006896
 12 0.073698 -2.761299 -5.395100 0.000000 -0.000000 0.000000
 13 0.184103 2.405380 6.536690 -0.017453 0.000000 0.000000
 14 -2.507427 0.706861 2.240990 -0.001952 0.004631 -0.791245
 15 3.250293 -0.229969 -90.900154 0.017445 -0.006626 0.385211
 16 1.065001 0.706861 2.240982 -0.001760 -0.001893 0.473245
 17 -2.362350 -0.468018 -90.905495 0.017471 0.007558 -0.441260
 18 0.000000 -0.154717 2.376083 0.031432 0.077373 0.443285
 19 0.646873 -1.121445 24.709145 0.080227 -0.122602 -0.486045
 20 -0.331075 15.401077 -4.448273 0.046010 -0.000535 0.011686
 21 0.294690 4.810114 -18.307007 0.510741 0.000000 -0.000001
 22 -1.097138 0.677548 9.228615 0.000000 -0.000000 0.000000
 23 -7.043962 -0.624740 16.699593 -0.842112 -0.157074 0.944487
 24 -13.119776 0.402664 -15.778522 0.349224 -0.354405 -0.059022
 25 -6.930321 -3.869400 -10.071304 -0.381920 0.146980 -0.771017
 26 -1.440523 -1.851318 -5.643749 0.052020 0.091792 0.093927
 27 30.607546 4.937191 -71.660202 0.000000 -0.000000 0.000000
 28 -2.740808 -1.783829 -4.956814 0.000000 -0.000000 0.000000
 29 8.158014 -0.446264 16.846809 0.184047 -0.253896 0.183937
 30 12.284378 0.201000 -15.879509 -1.073499 -0.618246 -1.108256
 31 6.919277 -3.849018 -10.201534 -0.088245 -0.076199 -0.105809
 32 1.801682 -1.439342 -4.598679 0.000000 -0.000000 0.000000
 33 0.275627 -0.653330 2.573692 0.000000 -0.000000 0.000000
 34 -2.128445 3.188605 168.111557 0.000000 -0.000000 0.000000
time 18
  0 -2.408944 2.128008 -1.071352 0.000000 -0.000000 0.000000
  1 -2.408944 2.128008 -1.071352 0.000000 -0.000000 0.000000
  2 -2.408944 2.128008 -1.071352 0.000000 -0.000000 0.000000
  3 0.000000 -17.222191 85.932846 0.045635 -0.000000 0.000000
  4 0.000000 0.380080 -2.358147 -0.034906 0.000000 0.000000
  5 -6.962073 -1.123271 -14.918678 -0.417146 -0.003138 -0.153688
  6 -0.762900 1.783211 -29.522808 0.986603 0.068372 0.051931
  7 -1.525353 0.897310 -28.921165 0.054337 0.009324 0.000688
  8 0.354392 -2.635783 -5.445798 0.000000 -0.000000 0.000000
  9 7.456964 -0.120269 -14.357979 0.463904 -0.037823 -0.012918
 10 0.913360 0.804955 -30.266220 0.349312 0.031101 0.015853
 11 1.054035 0.998075 -28.738485 0.183309 -0.002304 0.007881
 12 0.073697 -2.761299 -5.395099 0.000000 -0.000000 0.000000
 13 0.184103 2.405380 6.536682 -0.017453 0.000000 0.000000
 14 -2.507427 0.706862 2.240997 -0.001952 0.004631 -0.770355
 15 3.250292 -0.229968 -90.900154 0.017445 -0.006626 0.385211
 16 1.065001 0.706861 2.240990 -0.001760 -0.001893 0.459472
 17 -2.362349 -0.468019 -90.905502 0.017471 0.007558 -0.441260
 18 0.000000 -0.154718 2.376083 0.024356 0.072439 0.431142
 19 0.646873 -1.121442 24.709152 0.084723 -0.114783 -0.472731
 20 -0.331073 15.401074 -4.448265 0.055723 -0.000558 0.012201
 21 0.294691 4.810114 -18.306999 0.552691 0.000000 -0.000001
 22 -1.097138 0.677548 9.228615 0.000000 -0.000000 0.000000
 23 -7.043962 -0.624740 16.699600 -0.769679 -0.136634 0.989072
 24 -13.119778 0.402668 -15.778534 0.338111 -0.242722 -0.075846
 25 -6.930319 -3.869408 -10.071304 -0.378898 0.149648 -0.751033
 26 -1.440519 -1.851318 -5.643749 0.052020 0.091792 0.093927
 27 30.607546 4.937168 -71.660210 0.000000 -0.000000 0.000000
 28 -2.740808 -1.783829 -4.956818 0.000000 -0.000000 0.000000
 29 8.158014 -0.446264 16.846825 0.184047 -0.253896 0.183937
 30 12.284378 0.200993 -15.879509 -1.073499 -0.618246 -1.108256
 31 6.919281 -3.849010 -10.201534 -0.088245 -0.076199 -0.105809
 32 1.801682 -1.439339 -4.598679 0.000000 -0.000000 0.000000
 33 0.275625 -0.653329 2.573708 0.000000 -0.000000 0.000000
 34 -2.128445 3.188605 168.111557 0.000000 -0.000000 0.000000
time 19
  0 -2.408944 2.128008 -1.071352 0.000000 -0.000000 0.000000
  1 -2.408944 2.128008 -1.071352 0.000000 -0.000000 0.000000
  2 -2.408944 2.128008 -1.071352 0.000000 -0.000000 0.000000
  3 0.000000 -14.843746 85.932846 0.045635 -0.000000 0.000000
  4 0.000000 0.380080 -2.358147 -0.034906 0.000000 0.000000
  5 -6.962073 -1.123271 -14.918671 -0.398828 0.003377 -0.153028
  6 -0.762898 1.783215 -29.522812 0.964178 0.065586 0.049815
  7 -1.525355 0.897308 -28.921164 0.056409 0.009650 0.000518
  8 0.354393 -2.635785 -5.445799 0.000000 -0.000000 0.000000
  9 7.456964 -0.120270 -14.357971 0.442216 -0.046435 -0.013648
 10 0.913360 0.804955 -30.266216 0.349312 0.031101 0.015853
 11 1.054034 0.998070 -28.738491 0.165228 -0.001933 0.008891
 12 0.073698 -2.761299 -5.395101 0.000000 -0.000000 0.000000
 13 0.184103 2.405380 6.536690 -0.017453 0.000000 0.000000
 14 -2.507427 0.706861 2.240990 -0.001952 0.004631 -0.745025
 15 3.250292 -0.229967 -90.900154 0.017445 -0.006626 0.385211
 16 1.065001 0.706861 2.240982 -0.001760 -0.001893 0.442772
 17 -2.362350 -0.468018 -90.905487 0.017471 0.007558 -0.441260
 18 0.000000 -0.154718 2.376083 0.014117 0.067200 0.413572
 19 0.646873 -1.121443 24.709137 0.091228 -0.106482 -0.453466
 20 -0.331073 15.401074 -4.448265 0.063079 -0.000576 0.012590
 21 0.294691 4.810112 -18.306992 0.590008 0.000000 -0.000001
 22 -1.097138 0.677547 9.228630 0.000000 -0.000000 0.000000
 23 -7.043964 -0.624740 16.699585 -0.700119 -0.107061 1.030844
 24 -13.119778 0.402664 -15.778526 0.318199 -0.129369 -0.085335
 25 -6.930323 -3.869404 -10.071304 -0.374526 0.153508 -0.722120
 26 -1.440519 -1.851315 -5.643757 0.052020 0.091792 0.093927
 27 30.607534 4.937191 -71.660217 0.000000 -0.000000 0.000000
 28 -2.740808 -1.783825 -4.956825 0.000000 -0.000000 0.000000
 29 8.158012 -0.446264 16.846817 0.184047 -0.253896 0.183937
 30 12.284378 0.200993 -15.879517 -1.073499 -0.618246 -1.108255
 31 6.919273 -3.849014 -10.201534 -0.088245 -0.076199 -0.105809
 32 1.801666 -1.439342 -4.598675 0.000000 -0.000000 0.000000
 33 0.275625 -0.653329 2.573700 0.000000 -0.000000 0.000000
 34 -2.128445 3.188605 168.111557 0.000000 -0.000000 0.000000
time 20
  0 -2.408944 2.128008 -1.071352 0.000000 -0.000000 0.000000
  1 -2.408944 2.128008 -1.071352 0.000000 -0.000000 0.000000
  2 -2.408944 2.128008 -1.071352 0.000000 -0.000000 0.000000
  3 0.000000 -12.023579 85.932846 0.045635 -0.000000 0.000000
  4 0.000000 0.380080 -2.358139 -0.034906 0.000000 0.000000
  5 -6.962073 -1.123270 -14.918678 -0.378736 0.010524 -0.152304
  6 -0.762899 1.783215 -29.522808 0.935775 0.062057 0.047135
  7 -1.525354 0.897311 -28.921169 0.053150 0.009101 0.000240
  8 0.354392 -2.635783 -5.445797 0.000000 -0.000000 0.000000
  9 7.456964 -0.120269 -14.357979 0.414745 -0.055410 -0.014334
 10 0.913361 0.804956 -30.266220 0.349312 0.031101 0.015853
 11 1.054035 0.998072 -28.738491 0.142325 -0.001463 0.009917
 12 0.073698 -2.761297 -5.395100 0.000000 -0.000000 0.000000
 13 0.184103 2.405381 6.536682 -0.017453 0.000000 0.000000
 14 -2.507427 0.706860 2.240997 -0.001952 0.004631 -0.715938
 15 3.250292 -0.229968 -90.900162 0.017445 -0.006626 0.385211
 16 1.065001 0.706860 2.240990 -0.001760 -0.001893 0.423595
 17 -2.362350 -0.468017 -90.905495 0.017471 0.007558 -0.441260
 18 0.000000 -0.154719 2.376083 0.001148 0.061729 0.391319
 19 0.646873 -1.121445 24.709145 0.099467 -0.097811 -0.429066
 20 -0.331075 15.401075 -4.448280 0.067766 -0.000588 0.012839
 21 0.294691 4.810116 -18.306999 0.621934 0.000000 -0.000001
 22 -1.097139 0.677547 9.228615 0.000000 -0.000000 0.000000
 23 -7.043963 -0.624742 16.699585 -0.633584 -0.069604 1.069836
 24 -13.119779 0.402664 -15.778526 0.287458 -0.055255 -0.088577
 25 -6.930319 -3.869406 -10.071304 -0.368989 0.158397 -0.685498
 26 -1.440518 -1.851318 -5.643753 0.052020 0.091792 0.093927
 27 30.607555 4.937191 -71.660225 0.000000 -0.000000 0.000000
 28 -2.740807 -1.783829 -4.956814 0.000000 -0.000000 0.000000
 29 8.158013 -0.446265 16.846817 0.184047 -0.253896 0.183937
 30 12.284376 0.200994 -15.879509 -1.073499 -0.618246 -1.108256
 31 6.919277 -3.849010 -10.201534 -0.088245 -0.076199 -0.105809
 32 1.801674 -1.439342 -4.598679 0.000000 -0.000000 0.000000
 33 0.275624 -0.653330 2.573692 0.000000 -0.000000 0.000000
 34 -2.128445 3.188605 168.111557 0.000000 -0.000000 0.000000
time 21
  0 -2.408944 2.128008 -1.071352 0.000000 -0.000000 0.000000
  1 -2.408944 2.128008 -1.071352 0.000000 -0.000000 0.000000
  2 -2.408944 2.128008 -1.071352 0.000000 -0.000000 0.000000
  3 0.000000 -8.962187 85.932846 0.045635 -0.000000 0.000000
  4 0.000000 0.380081 -2.358139 -0.034906 0.000000 0.000000
  5 -6.962073 -1.123271 -14.918678 -0.357242 0.018168 -0.151530
  6 -0.762899 1.783211 -29.522812 0.902341 0.057903 0.043979
  7 -1.525356 0.897307 -28.921169 0.042589 0.007320 -0.000066
  8 0.354392 -2.635784 -5.445799 0.000000 -0.000000 0.000000
  9 7.456964 -0.120268 -14.357979 0.382408 -0.064632 -0.014976
 10 0.913362 0.804960 -30.266212 0.349312 0.031101 0.015853
 11 1.054035 0.998072 -28.738491 0.115365 -0.000911 0.010949
 12 0.073698 -2.761301 -5.395099 0.000000 -0.000000 0.000000
 13 0.184103 2.405381 6.536682 -0.017453 0.000000 0.000000
 14 -2.507427 0.706860 2.240990 -0.001952 0.004631 -0.683778
 15 3.250292 -0.229967 -90.900154 0.017445 -0.006626 0.385211
 16 1.065001 0.706861 2.240982 -0.001760 -0.001893 0.402391
 17 -2.362350 -0.468018 -90.905479 0.017471 0.007558 -0.441260
 18 0.000000 -0.154719 2.376083 -0.014117 0.056095 0.365122
 19 0.646873 -1.121444 24.709145 0.109166 -0.088883 -0.400342
 20 -0.331073 15.401073 -4.448265 0.069466 -0.000592 0.012929
 21 0.294692 4.810116 -18.307007 0.647708 0.000000 -0.000001
 22 -1.097138 0.677547 9.228622 0.000000 -0.000000 0.000000
 23 -7.043962 -0.624740 16.699593 -0.570228 -0.025511 1.106080
 24 -13.119776 0.402664 -15.778526 0.243712 -0.022457 -0.082799
 25 -6.930320 -3.869404 -10.071304 -0.362471 0.164153 -0.642389
 26 -1.440521 -1.851315 -5.643753 0.052020 0.091792 0.093927
 27 30.607546 4.937191 -71.660233 0.000000 -0.000000 0.000000
 28 -2.740810 -1.783825 -4.956818 0.000000 -0.000000 0.000000
 29 8.158015 -0.446265 16.846817 0.184047 -0.253896 0.183937
 30 12.284380 0.200994 -15.879517 -1.073499 -0.618246 -1.108256
 31 6.919277 -3.849014 -10.201534 -0.088245 -0.076199 -0.105809
 32 1.801674 -1.439342 -4.598675 0.000000 -0.000000 0.000000
 33 0.275625 -0.653330 2.573708 0.000000 -0.000000 0.000000
 34 -2.128445 3.188605 168.111557 0.000000 -0.000000 0.000000
time 22
  0 -2.408944 2.128008 -1.071352 0.000000 -0.000000 0.000000
  1 -2.408944 2.128008 -1.071352 0.000000 -0.000000 0.000000
  2 -2.408944 2.128008 -1.071352 0.000000 -0.000000 0.000000
  3 0.000000 -5.860067 85.932846 0.045635 -0.000000 0.000000
  4 0.000000 0.380081 -2.358139 -0.034906 0.000000 0.000000
  5 -6.962073 -1.123270 -14.918678 -0.334718 0.026179 -0.150718
  6 -0.762899 1.783215 -29.522804 0.864822 0.053241 0.040438
  7 -1.525354 0.897306 -28.921164 0.025740 0.004479 -0.000393
  8 0.354392 -2.635785 -5.445799 0.000000 -0.000000 0.000000
  9 7.456964 -0.120268 -14.357979 0.346121 -0.073989 -0.015573
 10 0.913361 0.804958 -30.266216 0.349312 0.031101 0.015853
 11 1.054034 0.998075 -28.738487 0.085112 -0.000290 0.011977
 12 0.073699 -2.761299 -5.395098 0.000000 -0.000000 0.000000
 13 0.184103 2.405381 6.536682 -0.017453 0.000000 0.000000
 14 -2.507427 0.706861 2.240990 -0.001952 0.004631 -0.649226
 15 3.250292 -0.229968 -90.900146 0.017445 -0.006626 0.385211
 16 1.065001 0.706861 2.240982 -0.001760 -0.001893 0.379612
 17 -2.362350 -0.468017 -90.905487 0.017471 0.007558 -0.441260
 18 0.000000 -0.154719 2.376091 -0.031248 0.050370 0.335726
 19 0.646873 -1.121443 24.709145 0.120049 -0.079811 -0.368111
 20 -0.331073 15.401072 -4.448257 0.066110 -0.000584 0.012751
 21 0.294692 4.810116 -18.307007 0.666571 -0.000000 -0.000001
 22 -1.097138 0.677547 9.228630 0.000000 -0.000000 0.000000
 23 -7.043963 -0.624740 16.699593 -0.510205 0.023968 1.139607
 24 -13.119778 0.402660 -15.778519 0.187352 0.008165 -0.064132
 25 -6.930319 -3.869406 -10.071312 -0.355156 0.170611 -0.594013
 26 -1.440519 -1.851318 -5.643753 0.052020 0.091792 0.093927
 27 30.607542 4.937172 -71.660217 0.000000 -0.000000 0.000000
 28 -2.740808 -1.783829 -4.956818 0.000000 -0.000000 0.000000
 29 8.158014 -0.446264 16.846817 0.184047 -0.253896 0.183937
 30 12.284378 0.200995 -15.879517 -1.073499 -0.618246 -1.108256
 31 6.919281 -3.849014 -10.201527 -0.088245 -0.076199 -0.105809
 32 1.801674 -1.439346 -4.598675 0.000000 -0.000000 0.000000
 33 0.275626 -0.653330 2.573700 0.000000 -0.000000 0.000000
 34 -2.128445 3.188605 168.111557 0.000000 -0.000000 0.000000
time 23
  0 -2.408944 2.128008 -1.071352 0.000000 -0.000000 0.000000
  1 -2.408944 2.128008 -1.071352 0.000000 -0.000000 0.000000
  2 -2.408944 2.128008 -1.071352 0.000000 -0.000000 0.000000
  3 0.000000 -2.917720 85.932846 0.045635 -0.000000 0.000000
  4 0.000000 0.380081 -2.358147 -0.034906 0.000000 0.000000
  5 -6.962073 -1.123270 -14.918671 -0.311537 0.034424 -0.149883
  6 -0.762899 1.783213 -29.522812 0.824166 0.048189 0.036602
  7 -1.525353 0.897310 -28.921165 0.003641 0.000752 -0.000733
  8 0.354392 -2.635784 -5.445797 0.000000 -0.000000 0.000000
  9 7.456964 -0.120268 -14.357971 0.306800 -0.083366 -0.016125
 10 0.913361 0.804956 -30.266220 0.349312 0.031101 0.015853
 11 1.054035 0.998075 -28.738487 0.052330 0.000382 0.012991
 12 0.073698 -2.761299 -5.395100 0.000000 -0.000000 0.000000
 13 0.184103 2.405381 6.536690 -0.017453 0.000000 0.000000
 14 -2.507427 0.706861 2.240990 -0.001952 0.004631 -0.612967
 15 3.250292 -0.229967 -90.900169 0.017445 -0.006626 0.385211
 16 1.065001 0.706861 2.240982 -0.001760 -0.001893 0.355706
 17 -2.362350 -0.468017 -90.905487 0.017471 0.007558 -0.441260
 18 0.000000 -0.154718 2.376083 -0.049811 0.044625 0.303872
 19 0.646873 -1.121444 24.709152 0.131842 -0.070708 -0.333184
 20 -0.331074 15.401074 -4.448265 0.056294 -0.000560 0.012231
 21 0.294691 4.810112 -18.307007 0.677762 -0.000000 -0.000001
 22 -1.097139 0.677547 9.228622 0.000000 -0.000000 0.000000
 23 -7.043964 -0.624741 16.699593 -0.453669 0.077584 1.170450
 24 -13.119775 0.402668 -15.778526 0.120687 0.036906 -0.034509
 25 -6.930319 -3.869404 -10.071297 -0.347230 0.177610 -0.541593
 26 -1.440519 -1.851318 -5.643753 0.052020 0.091792 0.093927
 27 30.607540 4.937195 -71.660202 0.000000 -0.000000 0.000000
 28 -2.740807 -1.783829 -4.956818 0.000000 -0.000000 0.000000
 29 8.158013 -0.446265 16.846817 0.184047 -0.253896 0.183937
 30 12.284378 0.200993 -15.879517 -1.073499 -0.618246 -1.108256
 31 6.919273 -3.849014 -10.201534 -0.088245 -0.076199 -0.105809
 32 1.801666 -1.439339 -4.598679 0.000000 -0.000000 0.000000
 33 0.275625 -0.653330 2.573692 0.000000 -0.000000 0.000000
 34 -2.128445 3.188605 168.111557 0.000000 -0.000000 0.000000
time 24
  0 -2.408944 2.128008 -1.071352 0.000000 -0.000000 0.000000
  1 -2.408944 2.128008 -1.071352 0.000000 -0.000000 0.000000
  2 -2.408944 2.128008 -1.071352 0.000000 -0.000000 0.000000
  3 0.000000 -0.335645 85.932846 0.045635 -0.000000 0.000000
  4 0.000000 0.380081 -2.358147 -0.034906 0.000000 0.000000
  5 -6.962073 -1.123270 -14.918671 -0.288071 0.042770 -0.149038
  6 -0.762898 1.783215 -29.522812 0.781320 0.042865 0.032558
  7 -1.525354 0.897312 -28.921165 -0.022667 -0.003684 -0.001082
  8 0.354391 -2.635784 -5.445797 0.000000 -0.000000 0.000000
  9 7.456964 -0.120268 -14.357971 0.265360 -0.092649 -0.016633
 10 0.913361 0.804955 -30.266220 0.349312 0.031101 0.015853
 11 1.054036 0.998066 -28.738487 0.017781 0.001090 0.013980
 12 0.073697 -2.761297 -5.395100 0.000000 -0.000000 0.000000
 13 0.184103 2.405381 6.536690 -0.017453 0.000000 0.000000
 14 -2.507427 0.706861 2.240990 -0.001952 0.004631 -0.575684
 15 3.250291 -0.229968 -90.900154 0.017445 -0.006626 0.385211
 16 1.065001 0.706861 2.240982 -0.001760 -0.001893 0.331125
 17 -2.362349 -0.468018 -90.905495 0.017471 0.007558 -0.441260
 18 0.000000 -0.154718 2.376083 -0.069374 0.038931 0.270302
 19 0.646873 -1.121443 24.709160 0.144271 -0.061686 -0.296375
 20 -0.331074 15.401074 -4.448273 0.041089 -0.000523 0.011425
 21 0.294691 4.810116 -18.306999 0.679968 0.000000 -0.000001
 22 -1.097139 0.677547 9.228615 0.000000 -0.000000 0.000000
 23 -7.043962 -0.624740 16.699600 -0.400773 0.134089 1.198641
 24 -13.119776 0.402666 -15.778526 0.046036 0.063703 0.004095
 25 -6.930321 -3.869402 -10.071304 -0.338877 0.184985 -0.486348
 26 -1.440521 -1.851318 -5.643757 0.052020 0.091792 0.093927
 27 30.607523 4.937180 -71.660217 0.000000 -0.000000 0.000000
 28 -2.740810 -1.783829 -4.956821 0.000000 -0.000000 0.000000
 29 8.158014 -0.446264 16.846825 0.184047 -0.253896 0.183937
 30 12.284378 0.200993 -15.879509 -1.073499 -0.618246 -1.108256
 31 6.919273 -3.849018 -10.201538 -0.088245 -0.076199 -0.105809
 32 1.801674 -1.439346 -4.598679 0.000000 -0.000000 0.000000
 33 0.275625 -0.653330 2.573708 0.000000 -0.000000 0.000000
 34 -2.128445 3.188605 168.111557 0.000000 -0.000000 0.000000
time 25
  0 -2.408944 2.128008 -1.071352 0.000000 -0.000000 0.000000
  1 -2.408944 2.128008 -1.071352 0.000000 -0.000000 0.000000
  2 -2.408944 2.128008 -1.071352 0.000000 -0.000000 0.000000
  3 0.000000 1.685658 85.932846 0.045635 -0.000000 0.000000
  4 0.000000 0.380081 -2.358147 -0.034906 0.000000 0.000000
  5 -6.962073 -1.123270 -14.918671 -0.264692 0.051085 -0.148195
  6 -0.762899 1.783214 -29.522804 0.737231 0.037387 0.028397
  7 -1.525354 0.897303 -28.921164 -0.052143 -0.008654 -0.001433
  8 0.354391 -2.635784 -5.445798 0.000000 -0.000000 0.000000
  9 7.456964 -0.120268 -14.357971 0.222718 -0.101724 -0.017097
 10 0.913360 0.804956 -30.266224 0.349312 0.031101 0.015853
 11 1.054035 0.998074 -28.738487 -0.017770 0.001819 0.014936
 12 0.073697 -2.761299 -5.395099 0.000000 -0.000000 0.000000
 13 0.184103 2.405381 6.536690 -0.017453 0.000000 0.000000
 14 -2.507427 0.706861 2.240990 -0.001952 0.004631 -0.538059
 15 3.250292 -0.229967 -90.900154 0.017445 -0.006626 0.385211
 16 1.065001 0.706861 2.240990 -0.001760 -0.001893 0.306319
 17 -2.362350 -0.468018 -90.905495 0.017471 0.007558 -0.441260
 18 0.000000 -0.154719 2.376083 -0.089505 0.033359 0.235758
 19 0.646873 -1.121443 24.709152 0.157061 -0.052857 -0.258499
 20 -0.331075 15.401074 -4.448273 0.021571 -0.000476 0.010391
 21 0.294691 4.810116 -18.306999 0.653820 -0.000000 -0.000001
 22 -1.097138 0.677548 9.228630 0.000000 -0.000000 0.000000
 23 -7.043964 -0.624740 16.699593 -0.351671 0.192233 1.224212
 24 -13.119781 0.402662 -15.778526 -0.034283 0.088495 0.049705
 25 -6.930321 -3.869402 -10.071312 -0.330281 0.192575 -0.429501
 26 -1.440525 -1.851326 -5.643749 0.052020 0.091792 0.093927
 27 30.607527 4.937183 -71.660217 0.000000 -0.000000 0.000000
 28 -2.740814 -1.783829 -4.956825 0.000000 -0.000000 0.000000
 29 8.158014 -0.446265 16.846817 0.184047 -0.253896 0.183937
 30 12.284374 0.200994 -15.879517 -1.073499 -0.618246 -1.108255
 31 6.919281 -3.849014 -10.201530 -0.088245 -0.076199 -0.105809
 32 1.801666 -1.439342 -4.598675 0.000000 -0.000000 0.000000
 33 0.275625 -0.653330 2.573700 0.000000 -0.000000 0.000000
 34 -2.128445 3.188605 168.111557 0.000000 -0.000000 0.000000
time 26
  0 -2.408944 2.128008 -1.071352 0.000000 -0.000000 0.000000
  1 -2.408944 2.128008 -1.071352 0.000000 -0.000000 0.000000
  2 -2.408944 2.128008 -1.071352 0.000000 -0.000000 0.000000
  3 0.000000 2.945693 85.932846 0.045635 -0.000000 0.000000
  4 0.000000 0.380081 -2.358139 -0.034906 0.000000 0.000000
  5 -6.962073 -1.123270 -14.918671 -0.241773 0.059237 -0.147370
  6 -0.762899 1.783216 -29.522808 0.692846 0.031872 0.024208
  7 -1.525352 0.897307 -28.921167 -0.083749 -0.013983 -0.001780
  8 0.354391 -2.635784 -5.445798 0.000000 -0.000000 0.000000
  9 7.456964 -0.120268 -14.357971 0.179789 -0.110476 -0.017516
 10 0.913360 0.804955 -30.266220 0.349312 0.031101 0.015853
 11 1.054034 0.998074 -28.738482 -0.053560 0.002553 0.015848
 12 0.073698 -2.761295 -5.395098 0.000000 -0.000000 0.000000
 13 0.184103 2.405381 6.536690 -0.017453 0.000000 0.000000
 14 -2.507427 0.706861 2.240990 -0.001952 0.004631 -0.500775
 15 3.250290 -0.229968 -90.900154 0.017445 -0.006626 0.385211
 16 1.065001 0.706861 2.240982 -0.001760 -0.001893 0.281738
 17 -2.362349 -0.468017 -90.905495 0.017471 0.007558 -0.441260
 18 0.000000 -0.154718 2.376091 -0.109771 0.027981 0.200981
 19 0.646873 -1.121442 24.709152 0.169936 -0.044335 -0.220368
 20 -0.331074 15.401073 -4.448273 -0.001186 -0.000420 0.009185
 21 0.294692 4.810116 -18.306999 0.595377 0.000000 -0.000001
 22 -1.097139 0.677546 9.228615 0.000000 -0.000000 0.000000
 23 -7.043963 -0.624741 16.699600 -0.306516 0.250768 1.247196
 24 -13.119776 0.402664 -15.778526 -0.117954 0.111219 0.100346
 25 -6.930317 -3.869400 -10.071312 -0.321628 0.200215 -0.372272
 26 -1.440525 -1.851322 -5.643751 0.052020 0.091792 0.093927
 27 30.607525 4.937176 -71.660202 0.000000 -0.000000 0.000000
 28 -2.740814 -1.783825 -4.956818 0.000000 -0.000000 0.000000
 29 8.158014 -0.446264 16.846825 0.184047 -0.253896 0.183937
 30 12.284378 0.200996 -15.879509 -1.073499 -0.618246 -1.108255
 31 6.919277 -3.849018 -10.201530 -0.088245 -0.076199 -0.105809
 32 1.801674 -1.439342 -4.598682 0.000000 -0.000000 0.000000
 33 0.275626 -0.653330 2.573700 0.000000 -0.000000 0.000000
 34 -2.128445 3.188605 168.111557 0.000000 -0.000000 0.000000
time 27
  0 -2.408944 2.128008 -1.071352 0.000000 -0.000000 0.000000
  1 -2.408944 2.128008 -1.071352 0.000000 -0.000000 0.000000
  2 -2.408944 2.128008 -1.071352 0.000000 -0.000000 0.000000
  3 0.000000 3.263004 85.929764 0.045612 0.000000 0.000000
  4 0.000000 0.380081 -2.358139 -0.034906 0.000000 -0.000000
  5 -6.962073 -1.123271 -14.918678 -0.219686 0.067092 -0.146574
  6 -0.762898 1.783216 -29.522812 0.649112 0.026438 0.020081
  7 -1.525356 0.897306 -28.921169 -0.116443 -0.019496 -0.002116
  8 0.354391 -2.635784 -5.445799 0.000000 -0.000000 0.000000
  9 7.456964 -0.120268 -14.357971 0.137491 -0.118791 -0.017891
 10 0.913362 0.804957 -30.266216 0.349312 0.031101 0.015853
 11 1.054036 0.998081 -28.738487 -0.088825 0.003276 0.016707
 12 0.073698 -2.761297 -5.395098 0.000000 -0.000000 0.000000
 13 0.184103 2.405382 6.536690 -0.017453 0.000000 0.000000
 14 -2.507427 0.706862 2.240990 -0.001952 0.004631 -0.464516
 15 3.250292 -0.229967 -90.900154 0.017445 -0.006626 0.385211
 16 1.065001 0.706862 2.240990 -0.001760 -0.001893 0.257833
 17 -2.362350 -0.468019 -90.905487 0.017471 0.007558 -0.441260
 18 0.000000 -0.154718 2.376083 -0.129739 0.022867 0.166716
 19 0.646873 -1.121443 24.709152 0.182622 -0.036231 -0.182797
 20 -0.331073 15.401073 -4.448265 -0.026109 -0.000360 0.007865
 21 0.294691 4.810112 -18.307007 0.511969 0.000000 -0.000001
 22 -1.097138 0.677547 9.228622 0.000000 -0.000000 0.000000
 23 -7.043963 -0.624741 16.699593 -0.265462 0.308444 1.267623
 24 -13.119778 0.402668 -15.778534 -0.202657 0.131815 0.154042
 25 -6.930325 -3.869406 -10.071293 -0.313102 0.207744 -0.315883
 26 -1.440521 -1.851318 -5.643747 0.052020 0.091792 0.093927
 27 30.607513 4.937180 -71.660202 0.000000 -0.000000 0.000000
 28 -2.740814 -1.783821 -4.956818 0.000000 -0.000000 0.000000
 29 8.158014 -0.446265 16.846825 0.184047 -0.253896 0.183937
 30 12.284378 0.200994 -15.879517 -1.073499 -0.618246 -1.108256
 31 6.919273 -3.849018 -10.201530 -0.088245 -0.076199 -0.105809
 32 1.801666 -1.439342 -4.598679 0.000000 -0.000000 0.000000
 33 0.275625 -0.653330 2.573700 0.000000 -0.000000 0.000000
 34 -2.128445 3.188605 168.111557 0.000000 -0.000000 0.000000
time 28
  0 -2.408944 2.128008 -1.071352 0.000000 -0.000000 0.000000
  1 -2.408944 2.128008 -1.071352 0.000000 -0.000000 0.000000
  2 -2.408944 2.128008 -1.071352 0.000000 -0.000000 0.000000
  3 0.000000 3.041352 85.845116 0.044997 0.000000 0.000000
  4 0.000000 0.380081 -2.358139 -0.034906 -0.000000 -0.000000
  5 -6.962073 -1.123270 -14.918671 -0.198803 0.074520 -0.145822
  6 -0.762900 1.783215 -29.522808 0.606976 0.021203 0.016104
  7 -1.525354 0.897306 -28.921162 -0.149186 -0.025017 -0.002436
  8 0.354395 -2.635783 -5.445796 0.000000 -0.000000 0.000000
  9 7.456964 -0.120269 -14.357979 0.096738 -0.126556 -0.018221
 10 0.913362 0.804959 -30.266209 0.349312 0.031101 0.015853
 11 1.054035 0.998066 -28.738487 -0.122801 0.003972 0.017501
 12 0.073699 -2.761299 -5.395100 0.000000 -0.000000 0.000000
 13 0.184103 2.405381 6.536697 -0.017453 0.000000 0.000000
 14 -2.507427 0.706861 2.240990 -0.001952 0.004631 -0.429965
 15 3.250291 -0.229967 -90.900146 0.017445 -0.006626 0.385211
 16 1.065002 0.706861 2.240990 -0.001760 -0.001893 0.235053
 17 -2.362350 -0.468018 -90.905495 0.017471 0.007558 -0.441260
 18 0.000000 -0.154717 2.376091 -0.148978 0.018088 0.133702
 19 0.646873 -1.121443 24.709152 0.194845 -0.028660 -0.146598
 20 -0.331074 15.401073 -4.448265 -0.052123 -0.000297 0.006486
 21 0.294691 4.810116 -18.306999 0.410926 0.000000 -0.000001
 22 -1.097138 0.677547 9.228622 0.000000 -0.000000 0.000000
 23 -7.043964 -0.624740 16.699600 -0.228663 0.364012 1.285527
 24 -13.119778 0.402665 -15.778526 -0.286076 0.150219 0.208819
 25 -6.930328 -3.869404 -10.071297 -0.304887 0.214997 -0.261554
 26 -1.440521 -1.851318 -5.643757 0.052020 0.091792 0.093927
 27 30.607521 4.937180 -71.660202 0.000000 -0.000000 0.000000
 28 -2.740807 -1.783821 -4.956823 0.000000 -0.000000 0.000000
 29 8.158014 -0.446264 16.846825 0.184047 -0.253896 0.183937
 30 12.284378 0.200994 -15.879517 -1.073499 -0.618246 -1.108256
 31 6.919273 -3.849014 -10.201530 -0.088245 -0.076199 -0.105809
 32 1.801674 -1.439339 -4.598675 0.000000 -0.000000 0.000000
 33 0.275625 -0.653330 2.573700 0.000000 -0.000000 0.000000
 34 -2.128445 3.188605 168.111557 0.000000 -0.000000 0.000000
time 29
  0 -2.408944 2.128008 -1.071352 0.000000 -0.000000 0.000000
  1 -2.408944 2.128008 -1.071352 0.000000 -0.000000 0.000000
  2 -2.408944 2.128008 -1.071352 0.000000 -0.000000 0.000000
  3 0.000000 2.578251 85.668251 0.043711 0.000000 0.000000
  4 0.000000 0.380081 -2.358139 -0.034906 0.000000 0.000000
  5 -6.962073 -1.123271 -14.918678 -0.179496 0.081387 -0.145126
  6 -0.762901 1.783214 -29.522808 0.567385 0.016283 0.012368
  7 -1.525356 0.897309 -28.921162 -0.180938 -0.030371 -0.002733
  8 0.354393 -2.635783 -5.445797 0.000000 -0.000000 0.000000
  9 7.456964 -0.120268 -14.357979 0.058447 -0.133656 -0.018508
 10 0.913359 0.804957 -30.266220 0.349312 0.031101 0.015853
 11 1.054035 0.998072 -28.738495 -0.154724 0.004627 0.018222
 12 0.073699 -2.761297 -5.395099 0.000000 -0.000000 0.000000
 13 0.184103 2.405381 6.536690 -0.017453 0.000000 0.000000
 14 -2.507427 0.706861 2.240990 -0.001952 0.004631 -0.397805
 15 3.250291 -0.229967 -90.900139 0.017445 -0.006626 0.385211
 16 1.065001 0.706861 2.240990 -0.001760 -0.001893 0.213850
 17 -2.362350 -0.468019 -90.905487 0.017471 0.007558 -0.441260
 18 0.000000 -0.154718 2.376091 -0.167055 0.013716 0.102682
 19 0.646873 -1.121444 24.709152 0.206329 -0.021732 -0.112587
 20 -0.331074 15.401074 -4.448265 -0.078154 -0.000233 0.005107
 21 0.294691 4.810114 -18.306999 0.299575 0.000000 -0.000001
 22 -1.097139 0.677547 9.228630 0.000000 -0.000000 0.000000
 23 -7.043964 -0.624740 16.699593 -0.196271 0.416223 1.300940
 24 -13.119770 0.402667 -15.778526 -0.365893 0.166370 0.262700
 25 -6.930328 -3.869406 -10.071301 -0.297169 0.221812 -0.210508
 26 -1.440514 -1.851318 -5.643749 0.052020 0.091792 0.093927
 27 30.607521 4.937176 -71.660210 0.000000 -0.000000 0.000000
 28 -2.740807 -1.783825 -4.956818 0.000000 -0.000000 0.000000
 29 8.158014 -0.446265 16.846817 0.184047 -0.253896 0.183937
 30 12.284372 0.200994 -15.879524 -1.073499 -0.618246 -1.108256
 31 6.919266 -3.849014 -10.201534 -0.088245 -0.076199 -0.105809
 32 1.801682 -1.439342 -4.598671 0.000000 -0.000000 0.000000
 33 0.275625 -0.653330 2.573708 0.000000 -0.000000 0.000000
 34 -2.128445 3.188605 168.111557 0.000000 -0.000000 0.000000
time 30
  0 -2.408944 2.128008 -1.071352 0.000000 -0.000000 0.000000
  1 -2.408944 2.128008 -1.071352 0.000000 -0.000000 0.000000
  2 -2.408944 2.128008 -1.071352 0.000000 -0.000000 0.000000
  3 0.000000 1.957231 85.431084 0.041987 0.000000 0.000000
  4 0.000000 0.380082 -2.358147 -0.034906 -0.000000 -0.000000
  5 -6.962072 -1.123271 -14.918678 -0.162138 0.087560 -0.144501
  6 -0.762901 1.783215 -29.522808 0.531287 0.011798 0.008961
  7 -1.525356 0.897310 -28.921162 -0.210658 -0.035383 -0.003001
  8 0.354391 -2.635784 -5.445796 0.000000 -0.000000 0.000000
  9 7.456964 -0.120268 -14.357971 0.023534 -0.139977 -0.018750
 10 0.913359 0.804958 -30.266224 0.349312 0.031101 0.015853
 11 1.054033 0.998072 -28.738493 -0.183832 0.005224 0.018859
 12 0.073699 -2.761299 -5.395100 0.000000 -0.000000 0.000000
 13 0.184103 2.405381 6.536690 -0.017453 0.000000 0.000000
 14 -2.507427 0.706861 2.240982 -0.001952 0.004631 -0.368718
 15 3.250291 -0.229967 -90.900146 0.017445 -0.006626 0.385211
 16 1.065001 0.706861 2.240982 -0.001760 -0.001893 0.194673
 17 -2.362350 -0.468018 -90.905487 0.017471 0.007558 -0.441260
 18 -0.000000 -0.154718 2.376083 -0.183537 0.009821 0.074399
 19 0.646873 -1.121443 24.709145 0.216801 -0.015561 -0.081575
 20 -0.331074 15.401075 -4.448265 -0.103127 -0.000173 0.003784
 21 0.294691 4.810116 -18.307007 0.185248 0.000000 -0.000001
 22 -1.097139 0.677547 9.228622 0.000000 -0.000000 0.000000
 23 -7.043963 -0.624740 16.699593 -0.168442 0.463829 1.313893
 24 -13.119774 0.402665 -15.778519 -0.439788 0.180206 0.313711
 25 -6.930321 -3.869406 -10.071304 -0.290131 0.228026 -0.163964
 26 -1.440521 -1.851318 -5.643751 0.052020 0.091792 0.093927
 27 30.607521 4.937183 -71.660202 0.000000 -0.000000 0.000000
 28 -2.740814 -1.783829 -4.956820 0.000000 -0.000000 0.000000
 29 8.158014 -0.446263 16.846817 0.184047 -0.253896 0.183937
 30 12.284376 0.200994 -15.879509 -1.073499 -0.618246 -1.108255
 31 6.919270 -3.849018 -10.201530 -0.088245 -0.076199 -0.105809
 32 1.801682 -1.439339 -4.598675 0.000000 -0.000000 0.000000
 33 0.275625 -0.653330 2.573700 0.000000 -0.000000 0.000000
 34 -2.128445 3.188605 168.111557 0.000000 -0.000000 0.000000
time 31
  0 -2.408944 2.128008 -1.071352 0.000000 -0.000000 0.000000
  1 -2.408944 2.128008 -1.071352 0.000000 -0.000000 0.000000
  2 -2.408944 2.128008 -1.071352 0.000000 -0.000000 0.000000
  3 0.000000 1.261818 85.165504 0.040057 0.000000 0.000000
  4 0.000000 0.380081 -2.358139 -0.034906 0.000000 -0.000000
  5 -6.962072 -1.123270 -14.918678 -0.147101 0.092908 -0.143959
  6 -0.762898 1.783215 -29.522812 0.499629 0.007864 0.005974
  7 -1.525354 0.897310 -28.921165 -0.237307 -0.039876 -0.003235
  8 0.354395 -2.635783 -5.445796 0.000000 -0.000000 0.000000
  9 7.456964 -0.120269 -14.357979 -0.007086 -0.145404 -0.018948
 10 0.913363 0.804958 -30.266209 0.349312 0.031101 0.015853
 11 1.054035 0.998072 -28.738495 -0.209360 0.005747 0.019403
 12 0.073697 -2.761297 -5.395100 0.000000 -0.000000 0.000000
 13 0.184103 2.405381 6.536690 -0.017453 0.000000 0.000000
 14 -2.507427 0.706861 2.240990 -0.001952 0.004631 -0.343388
 15 3.250293 -0.229967 -90.900146 0.017445 -0.006626 0.385211
 16 1.065002 0.706861 2.240997 -0.001760 -0.001893 0.177973
 17 -2.362349 -0.468017 -90.905487 0.017471 0.007558 -0.441260
 18 0.000000 -0.154718 2.376083 -0.197992 0.006475 0.049595
 19 0.646873 -1.121443 24.709145 0.225984 -0.010260 -0.054378
 20 -0.331074 15.401073 -4.448257 -0.125968 -0.000117 0.002573
 21 0.294691 4.810114 -18.307007 0.075272 0.000000 -0.000001
 22 -1.097138 0.677547 9.228638 0.000000 -0.000000 0.000000
 23 -7.043963 -0.624741 16.699600 -0.145328 0.505579 1.324419
 24 -13.119778 0.402664 -15.778526 -0.505446 0.191665 0.359877
 25 -6.930328 -3.869407 -10.071308 -0.283959 0.233476 -0.123144
 26 -1.440529 -1.851316 -5.643755 0.052020 0.091792 0.093927
 27 30.607521 4.937174 -71.660217 0.000000 -0.000000 0.000000
 28 -2.740807 -1.783823 -4.956823 0.000000 -0.000000 0.000000
 29 8.158014 -0.446264 16.846817 0.184047 -0.253896 0.183937
 30 12.284376 0.200995 -15.879509 -1.073499 -0.618245 -1.108255
 31 6.919273 -3.849018 -10.201527 -0.088245 -0.076199 -0.105809
 32 1.801682 -1.439342 -4.598671 0.000000 -0.000000 0.000000
 33 0.275626 -0.653330 2.573700 0.000000 -0.000000 0.000000
 34 -2.128445 3.188605 168.111557 0.000000 -0.000000 0.000000
time 32
  0 -2.408944 2.128008 -1.071352 0.000000 -0.000000 0.000000
  1 -2.408944 2.128008 -1.071352 0.000000 -0.000000 0.000000
  2 -2.408944 2.128008 -1.071352 0.000000 -0.000000 0.000000
  3 0.000000 0.575542 84.903412 0.038151 0.000000 0.000000
  4 0.000000 0.380081 -2.358131 -0.034906 -0.000000 0.000000
  5 -6.962074 -1.123271 -14.918671 -0.134758 0.097298 -0.143514
  6 -0.762897 1.783215 -29.522812 0.473357 0.004600 0.003494
  7 -1.525354 0.897307 -28.921169 -0.259845 -0.043677 -0.003427
  8 0.354391 -2.635785 -5.445798 0.000000 -0.000000 0.000000
  9 7.456964 -0.120268 -14.357971 -0.032495 -0.149825 -0.019102
 10 0.913361 0.804957 -30.266220 0.349312 0.031101 0.015853
 11 1.054034 0.998073 -28.738491 -0.230544 0.006181 0.019843
 12 0.073698 -2.761296 -5.395100 0.000000 -0.000000 0.000000
 13 0.184103 2.405381 6.536697 -0.017453 0.000000 0.000000
 14 -2.507426 0.706861 2.240990 -0.001952 0.004631 -0.322497
 15 3.250291 -0.229968 -90.900154 0.017445 -0.006626 0.385211
 16 1.065002 0.706861 2.240990 -0.001760 -0.001893 0.164200
 17 -2.362349 -0.468017 -90.905495 0.017471 0.007558 -0.441260
 18 0.000000 -0.154718 2.376083 -0.209987 0.003749 0.029010
 19 0.646873 -1.121442 24.709145 0.233605 -0.005940 -0.031808
 20 -0.331074 15.401076 -4.448273 -0.145604 -0.000070 0.001533
 21 0.294691 4.810115 -18.307007 -0.023024 0.000000 -0.000001
 22 -1.097139 0.677547 9.228622 0.000000 -0.000000 0.000000
 23 -7.043964 -0.624740 16.699593 -0.127083 0.540227 1.332550
 24 -13.119781 0.402668 -15.778534 -0.560548 0.200686 0.399222
 25 -6.930321 -3.869402 -10.071308 -0.278837 0.237998 -0.089270
 26 -1.440521 -1.851318 -5.643753 0.052020 0.091792 0.093927
 27 30.607498 4.937185 -71.660202 0.000000 -0.000000 0.000000
 28 -2.740814 -1.783825 -4.956821 0.000000 -0.000000 0.000000
 29 8.158014 -0.446263 16.846817 0.184047 -0.253896 0.183937
 30 12.284378 0.200995 -15.879509 -1.073499 -0.618246 -1.108255
 31 6.919270 -3.849010 -10.201530 -0.088245 -0.076199 -0.105809
 32 1.801666 -1.439342 -4.598675 0.000000 -0.000000 0.000000
 33 0.275626 -0.653330 2.573692 0.000000 -0.000000 0.000000
 34 -2.128445 3.188605 168.111557 0.000000 -0.000000 0.000000
time 33
  0 -2.408944 2.128008 -1.071352 0.000000 -0.000000 0.000000
  1 -2.408944 2.128008 -1.071352 0.000000 -0.000000 0.000000
  2 -2.408944 2.128008 -1.071352 0.000000 -0.000000 0.000000
  3 0.000000 -0.018071 84.676704 0.036503 0.000000 0.000000
  4 0.000000 0.380081 -2.358131 -0.034906 0.000000 -0.000000
  5 -6.962073 -1.123270 -14.918671 -0.125480 0.100598 -0.143180
  6 -0.762897 1.783215 -29.522804 0.453418 0.002123 0.001613
  7 -1.525356 0.897309 -28.921165 -0.277231 -0.046608 -0.003572
  8 0.354395 -2.635784 -5.445797 0.000000 -0.000000 0.000000
  9 7.456964 -0.120268 -14.357971 -0.051779 -0.153123 -0.019212
 10 0.913360 0.804958 -30.266224 0.349312 0.031101 0.015853
 11 1.054033 0.998073 -28.738493 -0.246621 0.006511 0.020170
 12 0.073696 -2.761296 -5.395100 0.000000 -0.000000 0.000000
 13 0.184103 2.405381 6.536697 -0.017453 0.000000 0.000000
 14 -2.507427 0.706861 2.240990 -0.001952 0.004631 -0.306730
 15 3.250292 -0.229968 -90.900154 0.017445 -0.006626 0.385211
 16 1.065001 0.706861 2.240990 -0.001760 -0.001893 0.153804
 17 -2.362349 -0.468018 -90.905487 0.017471 0.007558 -0.441260
 18 0.000000 -0.154718 2.376091 -0.219091 0.001714 0.013388
 19 0.646873 -1.121443 24.709137 0.239389 -0.002715 -0.014679
 20 -0.331074 15.401075 -4.448257 -0.160959 -0.000032 0.000719
 21 0.294691 4.810117 -18.306999 -0.102309 0.000000 -0.000001
 22 -1.097138 0.677547 9.228630 0.000000 -0.000000 0.000000
 23 -7.043964 -0.624741 16.699593 -0.113861 0.566521 1.338318
 24 -13.119774 0.402665 -15.778519 -0.602776 0.207206 0.429771
 25 -6.930328 -3.869402 -10.071308 -0.274950 0.241431 -0.063562
 26 -1.440514 -1.851316 -5.643755 0.052020 0.091792 0.093927
 27 30.607513 4.937182 -71.660217 0.000000 -0.000000 0.000000
 28 -2.740799 -1.783823 -4.956823 0.000000 -0.000000 0.000000
 29 8.158013 -0.446264 16.846817 0.184047 -0.253896 0.183937
 30 12.284372 0.200994 -15.879517 -1.073499 -0.618246 -1.108256
 31 6.919273 -3.849010 -10.201534 -0.088245 -0.076199 -0.105809
 32 1.801674 -1.439339 -4.598675 0.000000 -0.000000 0.000000
 33 0.275625 -0.653330 2.573700 0.000000 -0.000000 0.000000
 34 -2.128445 3.188605 168.111557 0.000000 -0.000000 0.000000
time 34
  0 -2.408944 2.128008 -1.071352 0.000000 -0.000000 0.000000
  1 -2.408944 2.128008 -1.071352 0.000000 -0.000000 0.000000
  2 -2.408944 2.128008 -1.071352 0.000000 -0.000000 0.000000
  3 0.000000 -0.435492 84.517288 0.035344 0.000000 0.000000
  4 0.000000 0.380081 -2.358147 -0.034906 -0.000000 0.000000
  5 -6.962073 -1.123270 -14.918678 -0.119641 0.102675 -0.142970
  6 -0.762899 1.783215 -29.522816 0.440761 0.000550 0.000418
  7 -1.525358 0.897313 -28.921165 -0.288425 -0.048496 -0.003663
  8 0.354395 -2.635783 -5.445798 0.000000 -0.000000 0.000000
  9 7.456964 -0.120268 -14.357971 -0.064021 -0.155186 -0.019278
 10 0.913362 0.804957 -30.266224 0.349312 0.031101 0.015853
 11 1.054037 0.998072 -28.738493 -0.256828 0.006720 0.020373
 12 0.073696 -2.761297 -5.395101 0.000000 -0.000000 0.000000
 13 0.184103 2.405381 6.536690 -0.017453 0.000000 0.000000
 14 -2.507427 0.706861 2.240982 -0.001952 0.004631 -0.296769
 15 3.250292 -0.229967 -90.900146 0.017445 -0.006626 0.385211
 16 1.065002 0.706861 2.240982 -0.001760 -0.001893 0.147237
 17 -2.362350 -0.468017 -90.905495 0.017471 0.007558 -0.441260
 18 0.000000 -0.154718 2.376083 -0.224870 0.000440 0.003471
 19 0.646873 -1.121444 24.709145 0.243061 -0.000698 -0.003805
 20 -0.331074 15.401076 -4.448257 -0.170960 -0.000008 0.000189
 21 0.294691 4.810116 -18.307007 -0.155255 0.000000 -0.000000
 22 -1.097139 0.677547 9.228630 0.000000 -0.000000 0.000000
 23 -7.043963 -0.624741 16.699585 -0.105815 0.583214 1.341756
 24 -13.119781 0.402666 -15.778519 -0.629813 0.211163 0.449549
 25 -6.930313 -3.869402 -10.071304 -0.272482 0.243609 -0.047242
 26 -1.440521 -1.851315 -5.643752 0.052020 0.091792 0.093927
 27 30.607491 4.937172 -71.660202 0.000000 -0.000000 0.000000
 28 -2.740814 -1.783821 -4.956821 0.000000 -0.000000 0.000000
 29 8.158012 -0.446264 16.846817 0.184047 -0.253896 0.183937
 30 12.284378 0.200994 -15.879517 -1.073499 -0.618246 -1.108256
 31 6.919273 -3.849014 -10.201527 -0.088245 -0.076199 -0.105809
 32 1.801674 -1.439342 -4.598675 0.000000 -0.000000 0.000000
 33 0.275625 -0.653331 2.573700 0.000000 -0.000000 0.000000
 34 -2.128445 3.188605 168.111557 0.000000 -0.000000 0.000000
time 35
  0 -2.408944 2.128008 -1.071352 0.000000 -0.000000 0.000000
  1 -2.408944 2.128008 -1.071352 0.000000 -0.000000 0.000000
  2 -2.408944 2.128008 -1.071352 0.000000 -0.000000 0.000000
  3 0.000000 -0.593194 84.457069 0.034907 0.000000 0.000000
  4 0.000000 0.380081 -2.358139 -0.034906 0.000000 0.000000
  5 -6.962072 -1.123270 -14.918671 -0.117611 0.103397 -0.142897
  6 -0.762899 1.783216 -29.522816 0.436331 -0.000000 0.000000
  7 -1.525352 0.897307 -28.921162 -0.292388 -0.049164 -0.003695
  8 0.354395 -2.635784 -5.445797 0.000000 -0.000000 0.000000
  9 7.456964 -0.120268 -14.357979 -0.068305 -0.155899 -0.019300
 10 0.913362 0.804958 -30.266216 0.349312 0.031101 0.015853
 11 1.054037 0.998073 -28.738495 -0.260399 0.006793 0.020443
 12 0.073696 -2.761296 -5.395100 0.000000 -0.000000 0.000000
 13 0.184103 2.405381 6.536697 -0.017453 0.000000 0.000000
 14 -2.507427 0.706861 2.240990 -0.001952 0.004631 -0.293297
 15 3.250292 -0.229967 -90.900162 0.017445 -0.006626 0.385211
 16 1.065002 0.706861 2.240982 -0.001760 -0.001893 0.144948
 17 -2.362350 -0.468017 -90.905487 0.017471 0.007558 -0.441260
 18 0.000000 -0.154718 2.376091 -0.226892 0.000000 0.000001
 19 0.646873 -1.121443 24.709145 0.244345 -0.000000 -0.000000
 20 -0.331074 15.401075 -4.448273 -0.174533 0.000000 -0.000000
 21 0.294691 4.810116 -18.307007 -0.174532 0.000000 -0.000000
 22 -1.097139 0.677547 9.228622 0.000000 -0.000000 0.000000
 23 -7.043964 -0.624741 16.699585 -0.103099 0.589055 1.342894
 24 -13.119789 0.402663 -15.778519 -0.639340 0.212496 0.456580
 25 -6.930328 -3.869406 -10.071312 -0.271619 0.244372 -0.041531
 26 -1.440529 -1.851316 -5.643755 0.052020 0.091792 0.093927
 27 30.607513 4.937174 -71.660225 0.000000 -0.000000 0.000000
 28 -2.740814 -1.783823 -4.956824 0.000000 -0.000000 0.000000
 29 8.158013 -0.446264 16.846817 0.184047 -0.253896 0.183937
 30 12.284376 0.200995 -15.879517 -1.073499 -0.618246 -1.108256
 31 6.919281 -3.849018 -10.201530 -0.088245 -0.076199 -0.105809
 32 1.801666 -1.439339 -4.598671 0.000000 -0.000000 0.000000
 33 0.275625 -0.653330 2.573700 0.000000 -0.000000 0.000000
 34 -2.128445 3.188605 168.111557 0.000000 -0.000000 0.000000
end
