version 1
nodes
  0 "bone36"  -1
  1 "bone37"  -1
  2 "bone39"  -1
  3 "bone21"   2
  4 "bone20"   3
  5 "bone07"   4
  6 "bone22"   5
  7 "bone18"   6
  8 "bone25"   7
  9 "bone14"   4
 10 "bone16"   9
 11 "bone19"  10
 12 "bone24"  11
 13 "bone01"   4
 14 "bone15"  13
 15 "bone001"  14
 16 "bone17"  13
 17 "bone38"  16
 18 "bone03"   3
 19 "bone06"  18
 20 "bone13"  19
 21 "bone12"  20
 22 "bone26"  19
 23 "bone08"  18
 24 "bone05"  23
 25 "bone09"  24
 26 "bone11"  25
 27 "bone29"  26
 28 "bone30"  25
 29 "bone02"  18
 30 "bone04"  29
 31 "bone10"  30
 32 "bone31"  31
 33 "bone32"  18
 34 "bone34"   2
end
skeleton
time 0
  0 -2.408944 2.128008 -1.071352 0.000000 -0.000000 0.000000
  1 -2.408944 2.128008 -1.071352 0.000000 -0.000000 0.000000
  2 -2.408944 2.128008 -1.071352 0.000000 -0.000000 0.000000
  3 0.000000 -0.593194 84.457069 0.034907 0.000000 0.000000
  4 0.000000 0.380081 -2.358139 -0.034906 0.000000 0.000000
  5 -6.962072 -1.123270 -14.918671 -0.117611 0.103397 -0.142897
  6 -0.762899 1.783215 -29.522812 0.436331 -0.000000 0.000000
  7 -1.525354 0.897305 -28.921164 -0.292388 -0.049164 -0.003695
  8 0.354395 -2.635783 -5.445796 0.000000 -0.000000 0.000000
  9 7.456964 -0.120268 -14.357979 -0.068305 -0.155899 -0.019300
 10 0.913359 0.804958 -30.266216 0.349312 0.031101 0.015853
 11 1.054033 0.998076 -28.738478 -0.260399 0.006793 0.020443
 12 0.073698 -2.761296 -5.395097 0.000000 -0.000000 0.000000
 13 0.184103 2.405381 6.536697 -0.017453 0.000000 0.000000
 14 -2.507427 0.706861 2.240990 -0.001952 0.004631 -0.293297
 15 3.250292 -0.229967 -90.900162 0.017445 -0.006626 0.385211
 16 1.065002 0.706861 2.240982 -0.001760 -0.001893 0.144948
 17 -2.362350 -0.468017 -90.905487 0.017471 0.007558 -0.441260
 18 0.000000 -0.154718 2.376091 -0.226892 0.000000 0.000001
 19 0.646873 -1.121443 24.709145 0.244345 -0.000000 0.000000
 20 -0.331074 15.401075 -4.448273 -0.174533 0.000000 -0.000000
 21 0.294691 4.810116 -18.307007 -0.174532 0.000000 -0.000000
 22 -1.097139 0.677547 9.228622 0.000000 -0.000000 0.000000
 23 -7.043964 -0.624741 16.699585 -0.103099 0.589055 1.342894
 24 -13.119781 0.402667 -15.778530 -0.639340 0.212496 0.456580
 25 -6.930321 -3.869404 -10.071304 -0.271619 0.244372 -0.041531
 26 -1.440521 -1.851316 -5.643754 0.052020 0.091792 0.093927
 27 30.607506 4.937177 -71.660194 0.000000 -0.000000 0.000000
 28 -2.740807 -1.783825 -4.956821 0.000000 -0.000000 0.000000
 29 8.158013 -0.446264 16.846817 0.184047 -0.253896 0.183938
 30 12.284370 0.200997 -15.879501 -1.073499 -0.618246 -1.108255
 31 6.919277 -3.849014 -10.201530 -0.088245 -0.076199 -0.105809
 32 1.801674 -1.439342 -4.598675 0.000000 -0.000000 0.000000
 33 0.275625 -0.653330 2.573700 0.000000 -0.000000 0.000000
 34 -2.128445 3.188605 168.111557 0.000000 -0.000000 0.000000
time 1
  0 -2.408944 2.128008 -1.071352 0.000000 -0.000000 0.000000
  1 -2.408944 2.128008 -1.071352 0.000000 -0.000000 0.000000
  2 -2.408944 2.128008 -1.071352 0.000000 -0.000000 0.000000
  3 0.000000 -0.095207 84.486855 0.032793 0.000000 -0.000000
  4 0.000000 0.380081 -2.358147 -0.039838 0.000000 0.000000
  5 -6.962073 -1.123271 -14.918671 -0.118704 0.102117 -0.143175
  6 -0.762899 1.783216 -29.522804 0.439465 0.000454 0.000197
  7 -1.525354 0.897308 -28.921165 -0.283355 -0.047676 -0.003634
  8 0.354393 -2.635783 -5.445796 0.000000 -0.000000 0.000000
  9 7.456964 -0.120268 -14.357971 -0.060939 -0.152753 -0.018910
 10 0.913358 0.804957 -30.266224 0.351421 0.030473 0.015533
 11 1.054036 0.998075 -28.738476 -0.254087 0.006656 0.020031
 12 0.073696 -2.761298 -5.395098 0.000000 -0.000000 0.000000
 13 0.184103 2.405381 6.536697 -0.017453 0.000000 0.000000
 14 -2.507427 0.706861 2.240990 -0.002735 0.005555 -0.302754
 15 3.250292 -0.229967 -90.900131 0.017445 -0.006626 0.385211
 16 1.065002 0.706861 2.240982 -0.002033 -0.002356 0.151941
 17 -2.362349 -0.468018 -90.905479 0.017471 0.007558 -0.441260
 18 -0.000000 -0.154718 2.376076 -0.226824 0.000524 0.016903
 19 0.646873 -1.121443 24.709152 0.248762 0.002731 -0.016396
 20 -0.331074 15.401072 -4.448265 -0.166820 -0.000690 -0.000505
 21 0.294691 4.810113 -18.306992 -0.166079 0.000000 -0.000000
 22 -1.097139 0.677547 9.228615 0.000000 -0.000000 0.000000
 23 -7.043963 -0.624741 16.699585 -0.179296 0.581524 1.338675
 24 -13.119774 0.402666 -15.778522 -0.630194 0.209028 0.454955
 25 -6.930321 -3.869400 -10.071301 -0.264098 0.245200 -0.041331
 26 -1.440514 -1.851315 -5.643751 0.052020 0.091792 0.093927
 27 30.607529 4.937205 -71.660194 0.000000 -0.000000 0.000000
 28 -2.740799 -1.783823 -4.956819 0.000000 -0.000000 0.000000
 29 8.158013 -0.446265 16.846825 0.184047 -0.253896 0.183938
 30 12.284378 0.200997 -15.879509 -1.073499 -0.618245 -1.108255
 31 6.919270 -3.849014 -10.201534 -0.088245 -0.076199 -0.105809
 32 1.801674 -1.439342 -4.598675 0.000000 -0.000000 0.000000
 33 0.275625 -0.653328 2.573700 0.000000 -0.000000 0.000000
 34 -2.128445 3.188605 168.111557 0.000000 -0.000000 0.000000
time 2
  0 -2.408944 2.128008 -1.071352 0.000000 -0.000000 0.000000
  1 -2.408944 2.128008 -1.071352 0.000000 -0.000000 0.000000
  2 -2.408944 2.128008 -1.071352 0.000000 -0.000000 0.000000
  3 0.000000 1.279942 84.569107 0.026957 0.000000 -0.000000
  4 -0.000000 0.380081 -2.358139 -0.053456 0.000000 0.000000
  5 -6.962072 -1.123270 -14.918678 -0.121960 0.098505 -0.143945
  6 -0.762899 1.783215 -29.522804 0.448118 0.001709 0.000742
  7 -1.525356 0.897310 -28.921169 -0.258413 -0.043569 -0.003465
  8 0.354393 -2.635783 -5.445796 0.000000 -0.000000 0.000000
  9 7.456964 -0.120268 -14.357979 -0.040595 -0.144064 -0.017835
 10 0.913359 0.804957 -30.266220 0.357243 0.028740 0.014649
 11 1.054035 0.998075 -28.738482 -0.236656 0.006278 0.018891
 12 0.073697 -2.761299 -5.395097 0.000000 -0.000000 0.000000
 13 0.184103 2.405381 6.536690 -0.017453 0.000000 0.000000
 14 -2.507427 0.706861 2.240990 -0.004940 0.008154 -0.329366
 15 3.250293 -0.229967 -90.900162 0.017445 -0.006626 0.385211
 16 1.065002 0.706861 2.240990 -0.002802 -0.003658 0.171618
 17 -2.362349 -0.468016 -90.905487 0.017471 0.007558 -0.441260
 18 0.000000 -0.154718 2.376083 -0.226613 0.001969 0.063576
 19 0.646873 -1.121444 24.709145 0.260959 0.010273 -0.061671
 20 -0.331074 15.401076 -4.448265 -0.144679 -0.002672 -0.001956
 21 0.294691 4.810115 -18.307007 -0.142124 0.000000 -0.000000
 22 -1.097139 0.677547 9.228622 0.000000 -0.000000 0.000000
 23 -7.043964 -0.624740 16.699577 -0.275682 0.560728 1.325457
 24 -13.119781 0.402666 -15.778522 -0.603958 0.199113 0.450383
 25 -6.930321 -3.869398 -10.071301 -0.243330 0.247486 -0.040782
 26 -1.440521 -1.851315 -5.643751 0.052020 0.091792 0.093927
 27 30.607513 4.937208 -71.660187 0.000000 -0.000000 0.000000
 28 -2.740814 -1.783819 -4.956819 0.000000 -0.000000 0.000000
 29 8.158013 -0.446265 16.846817 0.184047 -0.253896 0.183938
 30 12.284370 0.200999 -15.879501 -1.073499 -0.618246 -1.108255
 31 6.919273 -3.849014 -10.201534 -0.088245 -0.076199 -0.105809
 32 1.801674 -1.439342 -4.598675 0.000000 -0.000000 0.000000
 33 0.275625 -0.653330 2.573692 0.000000 -0.000000 0.000000
 34 -2.128445 3.188605 168.111557 0.000000 -0.000000 0.000000
time 3
  0 -2.408944 2.128008 -1.071352 0.000000 -0.000000 0.000000
  1 -2.408944 2.128008 -1.071352 0.000000 -0.000000 0.000000
  2 -2.408944 2.128008 -1.071352 0.000000 -0.000000 0.000000
  3 0.000000 3.354037 84.693161 0.018154 0.000000 -0.000000
  4 0.000000 0.380081 -2.358147 -0.073996 -0.000000 0.000000
  5 -6.962073 -1.123270 -14.918671 -0.127347 0.092906 -0.145105
  6 -0.762901 1.783213 -29.522804 0.461170 0.003602 0.001563
  7 -1.525356 0.897311 -28.921165 -0.220793 -0.037373 -0.003210
  8 0.354393 -2.635783 -5.445796 0.000000 -0.000000 0.000000
  9 7.456964 -0.120268 -14.357971 -0.009912 -0.130959 -0.016212
 10 0.913358 0.804957 -30.266209 0.366025 0.026125 0.013317
 11 1.054034 0.998076 -28.738472 -0.210365 0.005707 0.017173
 12 0.073698 -2.761297 -5.395097 0.000000 -0.000000 0.000000
 13 0.184103 2.405381 6.536690 -0.017453 0.000000 0.000000
 14 -2.507427 0.706861 2.240990 -0.008348 0.012172 -0.370493
 15 3.250292 -0.229969 -90.900131 0.017445 -0.006626 0.385211
 16 1.065001 0.706861 2.240990 -0.003990 -0.005670 0.202029
 17 -2.362350 -0.468018 -90.905495 0.017471 0.007558 -0.441260
 18 -0.000000 -0.154718 2.376083 -0.226252 0.004150 0.133973
 19 0.646873 -1.121444 24.709152 0.279355 0.021648 -0.129958
 20 -0.331074 15.401073 -4.448265 -0.109606 -0.005811 -0.004255
 21 0.294691 4.810114 -18.307007 -0.104773 0.000000 -0.000001
 22 -1.097139 0.677547 9.228615 0.000000 -0.000000 0.000000
 23 -7.043963 -0.624742 16.699600 -0.387827 0.529363 1.302399
 24 -13.119781 0.402664 -15.778530 -0.562436 0.183486 0.443317
 25 -6.930321 -3.869402 -10.071304 -0.212006 0.250933 -0.039952
 26 -1.440521 -1.851311 -5.643753 0.052020 0.091792 0.093927
 27 30.607521 4.937187 -71.660202 0.000000 -0.000000 0.000000
 28 -2.740807 -1.783823 -4.956820 0.000000 -0.000000 0.000000
 29 8.158013 -0.446265 16.846825 0.184047 -0.253896 0.183938
 30 12.284382 0.200997 -15.879509 -1.073499 -0.618246 -1.108256
 31 6.919277 -3.849014 -10.201527 -0.088245 -0.076199 -0.105809
 32 1.801674 -1.439346 -4.598671 0.000000 -0.000000 0.000000
 33 0.275625 -0.653330 2.573700 0.000000 -0.000000 0.000000
 34 -2.128445 3.188605 168.111557 0.000000 -0.000000 0.000000
time 4
  0 -2.408944 2.128008 -1.071352 0.000000 -0.000000 0.000000
  1 -2.408944 2.128008 -1.071352 0.000000 -0.000000 0.000000
  2 -2.408944 2.128008 -1.071352 0.000000 -0.000000 0.000000
  3 0.000000 5.948860 84.848358 0.007141 -0.000000 -0.000000
  4 0.000000 0.380080 -2.358139 -0.099693 -0.000000 0.000000
  5 -6.962072 -1.123270 -14.918678 -0.134833 0.085662 -0.146557
  6 -0.762899 1.783215 -29.522808 0.477498 0.005971 0.002590
  7 -1.525354 0.897310 -28.921164 -0.173728 -0.029622 -0.002892
  8 0.354391 -2.635784 -5.445796 0.000000 -0.000000 0.000000
  9 7.456964 -0.120268 -14.357979 0.028475 -0.114564 -0.014183
 10 0.913359 0.804958 -30.266216 0.377012 0.022855 0.011649
 11 1.054034 0.998079 -28.738476 -0.177474 0.004992 0.015023
 12 0.073697 -2.761297 -5.395097 0.000000 -0.000000 0.000000
 13 0.184103 2.405382 6.536690 -0.017453 0.000000 0.000000
 14 -2.507427 0.706861 2.240982 -0.012740 0.017349 -0.423496
 15 3.250291 -0.229969 -90.900139 0.017445 -0.006626 0.385211
 16 1.065002 0.706861 2.240982 -0.005522 -0.008264 0.241221
 17 -2.362350 -0.468014 -90.905495 0.017471 0.007558 -0.441260
 18 0.000000 -0.154719 2.376083 -0.225734 0.006877 0.222043
 19 0.646873 -1.121445 24.709145 0.302370 0.035879 -0.215390
 20 -0.331074 15.401075 -4.448273 -0.063098 -0.009973 -0.007303
 21 0.294691 4.810112 -18.306999 -0.056134 0.000000 -0.000001
 22 -1.097138 0.677547 9.228622 0.000000 -0.000000 0.000000
 23 -7.043964 -0.624741 16.699585 -0.511297 0.490122 1.268659
 24 -13.119785 0.402664 -15.778526 -0.507432 0.162878 0.434210
 25 -6.930328 -3.869404 -10.071304 -0.172818 0.255247 -0.038915
 26 -1.440529 -1.851318 -5.643751 0.052020 0.091792 0.093927
 27 30.607521 4.937189 -71.660210 0.000000 -0.000000 0.000000
 28 -2.740807 -1.783825 -4.956820 0.000000 -0.000000 0.000000
 29 8.158013 -0.446266 16.846817 0.184047 -0.253896 0.183938
 30 12.284374 0.200996 -15.879501 -1.073499 -0.618246 -1.108256
 31 6.919270 -3.849018 -10.201530 -0.088245 -0.076199 -0.105809
 32 1.801674 -1.439342 -4.598675 0.000000 -0.000000 0.000000
 33 0.275625 -0.653330 2.573700 0.000000 -0.000000 0.000000
 34 -2.128445 3.188605 168.111557 0.000000 -0.000000 0.000000
time 5
  0 -2.408944 2.128008 -1.071352 0.000000 -0.000000 0.000000
  1 -2.408944 2.128008 -1.071352 0.000000 -0.000000 0.000000
  2 -2.408944 2.128008 -1.071352 0.000000 -0.000000 0.000000
  3 0.000000 8.886196 85.024040 -0.005325 -0.000000 -0.000000
  4 -0.000000 0.380080 -2.358139 -0.128781 0.000000 0.000000
  5 -6.962072 -1.123272 -14.918678 -0.144385 0.077118 -0.148201
  6 -0.762900 1.783214 -29.522812 0.495982 0.008652 0.003753
  7 -1.525353 0.897310 -28.921165 -0.120451 -0.020848 -0.002531
  8 0.354391 -2.635783 -5.445795 0.000000 -0.000000 0.000000
  9 7.456964 -0.120269 -14.357979 0.071928 -0.096004 -0.011885
 10 0.913358 0.804957 -30.266216 0.389449 0.019152 0.009762
 11 1.054032 0.998075 -28.738483 -0.140241 0.004184 0.012590
 12 0.073697 -2.761297 -5.395098 0.000000 -0.000000 0.000000
 13 0.184103 2.405380 6.536690 -0.017453 0.000000 0.000000
 14 -2.507427 0.706861 2.240997 -0.017897 0.023429 -0.485737
 15 3.250293 -0.229971 -90.900131 0.017445 -0.006626 0.385211
 16 1.065001 0.706861 2.240997 -0.007321 -0.011309 0.287244
 17 -2.362347 -0.468017 -90.905487 0.017471 0.007558 -0.441260
 18 0.000000 -0.154719 2.376083 -0.225051 0.009965 0.321739
 19 0.646873 -1.121443 24.709145 0.328422 0.051989 -0.312098
 20 -0.331074 15.401073 -4.448265 -0.006652 -0.015025 -0.011002
 21 0.294692 4.810112 -18.306999 0.001689 0.000000 -0.000001
 22 -1.097139 0.677547 9.228615 0.000000 -0.000000 0.000000
 23 -7.043964 -0.624740 16.699585 -0.641661 0.445702 1.223396
 24 -13.119781 0.402664 -15.778522 -0.440749 0.138024 0.423516
 25 -6.930313 -3.869404 -10.071302 -0.128457 0.260129 -0.037740
 26 -1.440521 -1.851318 -5.643752 0.052020 0.091792 0.093927
 27 30.607513 4.937187 -71.660194 0.000000 -0.000000 0.000000
 28 -2.740807 -1.783825 -4.956819 0.000000 -0.000000 0.000000
 29 8.158013 -0.446265 16.846817 0.184047 -0.253896 0.183938
 30 12.284378 0.200997 -15.879509 -1.073499 -0.618246 -1.108256
 31 6.919273 -3.849014 -10.201530 -0.088245 -0.076199 -0.105809
 32 1.801674 -1.439342 -4.598675 0.000000 -0.000000 0.000000
 33 0.275626 -0.653331 2.573692 0.000000 -0.000000 0.000000
 34 -2.128445 3.188605 168.111557 0.000000 -0.000000 0.000000
time 6
  0 -2.408944 2.128008 -1.071352 0.000000 -0.000000 0.000000
  1 -2.408944 2.128008 -1.071352 0.000000 -0.000000 0.000000
  2 -2.408944 2.128008 -1.071352 0.000000 -0.000000 0.000000
  3 0.000000 11.987825 85.209557 -0.018489 -0.000000 -0.000000
  4 -0.000000 0.380079 -2.358139 -0.159497 0.000000 0.000000
  5 -6.962072 -1.123270 -14.918678 -0.155970 0.067616 -0.149937
  6 -0.762899 1.783214 -29.522812 0.515499 0.011483 0.004981
  7 -1.525353 0.897309 -28.921167 -0.064193 -0.011583 -0.002151
  8 0.354393 -2.635784 -5.445796 0.000000 -0.000000 0.000000
  9 7.456964 -0.120269 -14.357979 0.117812 -0.076407 -0.009459
 10 0.913361 0.804955 -30.266212 0.402582 0.015243 0.007769
 11 1.054034 0.998074 -28.738474 -0.100926 0.003330 0.010020
 12 0.073698 -2.761299 -5.395096 0.000000 -0.000000 0.000000
 13 0.184103 2.405380 6.536690 -0.017453 0.000000 0.000000
 14 -2.507427 0.706863 2.240990 -0.023601 0.030154 -0.554575
 15 3.250291 -0.229964 -90.900146 0.017445 -0.006626 0.385211
 16 1.065001 0.706863 2.240990 -0.009310 -0.014677 0.338145
 17 -2.362351 -0.468019 -90.905495 0.017471 0.007558 -0.441260
 18 0.000000 -0.154718 2.376076 -0.224196 0.013226 0.427010
 19 0.646873 -1.121442 24.709145 0.355932 0.069000 -0.414216
 20 -0.331074 15.401073 -4.448265 0.058236 -0.020832 -0.015254
 21 0.294691 4.810120 -18.307007 0.066587 0.000000 -0.000001
 22 -1.097139 0.677544 9.228622 0.000000 -0.000000 0.000000
 23 -7.043964 -0.624742 16.699593 -0.774488 0.398798 1.165768
 24 -13.119785 0.402664 -15.778526 -0.364191 0.109657 0.411689
 25 -6.930328 -3.869400 -10.071302 -0.081615 0.265285 -0.036500
 26 -1.440514 -1.851315 -5.643751 0.052020 0.091792 0.093927
 27 30.607513 4.937187 -71.660202 0.000000 -0.000000 0.000000
 28 -2.740807 -1.783821 -4.956821 0.000000 -0.000000 0.000000
 29 8.158014 -0.446261 16.846817 0.184047 -0.253896 0.183938
 30 12.284378 0.200997 -15.879509 -1.073499 -0.618245 -1.108255
 31 6.919273 -3.849014 -10.201534 -0.088245 -0.076199 -0.105809
 32 1.801674 -1.439342 -4.598675 0.000000 -0.000000 0.000000
 33 0.275626 -0.653330 2.573700 0.000000 -0.000000 0.000000
 34 -2.128445 3.188605 168.111557 0.000000 -0.000000 0.000000
time 7
  0 -2.408944 2.128008 -1.071352 0.000000 -0.000000 0.000000
  1 -2.408944 2.128008 -1.071352 0.000000 -0.000000 0.000000
  2 -2.408944 2.128008 -1.071352 0.000000 -0.000000 0.000000
  3 0.000000 15.075531 85.394234 -0.031594 -0.000000 -0.000000
  4 0.000000 0.380081 -2.358139 -0.190075 0.000000 0.000000
  5 -6.962072 -1.123270 -14.918678 -0.169558 0.057501 -0.151664
  6 -0.762900 1.783216 -29.522808 0.534929 0.014301 0.006203
  7 -1.525355 0.897310 -28.921169 -0.008189 -0.002360 -0.001772
  8 0.354391 -2.635782 -5.445796 0.000000 -0.000000 0.000000
  9 7.456964 -0.120269 -14.357971 0.163490 -0.056897 -0.007044
 10 0.913360 0.804957 -30.266212 0.415656 0.011351 0.005786
 11 1.054036 0.998075 -28.738468 -0.061787 0.002480 0.007462
 12 0.073697 -2.761297 -5.395096 0.000000 -0.000000 0.000000
 13 0.184103 2.405382 6.536682 -0.017453 0.000000 0.000000
 14 -2.507427 0.706861 2.240982 -0.029633 0.037265 -0.627373
 15 3.250291 -0.229969 -90.900124 0.017445 -0.006626 0.385211
 16 1.065002 0.706861 2.240982 -0.011414 -0.018239 0.391974
 17 -2.362348 -0.468019 -90.905479 0.017471 0.007558 -0.441260
 18 -0.000000 -0.154717 2.376083 -0.223160 0.016472 0.531810
 19 0.646872 -1.121444 24.709145 0.383318 0.085934 -0.515875
 20 -0.331074 15.401077 -4.448265 0.130069 -0.027261 -0.019961
 21 0.294692 4.810112 -18.307007 0.136456 0.000000 -0.000001
 22 -1.097139 0.677551 9.228622 0.000000 -0.000000 0.000000
 23 -7.043965 -0.624740 16.699593 -0.905345 0.352104 1.094934
 24 -13.119778 0.402664 -15.778526 -0.279561 0.078510 0.399181
 25 -6.930328 -3.869408 -10.071302 -0.034983 0.270417 -0.035265
 26 -1.440514 -1.851315 -5.643750 0.052020 0.091792 0.093927
 27 30.607506 4.937180 -71.660202 0.000000 -0.000000 0.000000
 28 -2.740807 -1.783821 -4.956819 0.000000 -0.000000 0.000000
 29 8.158014 -0.446263 16.846825 0.184047 -0.253896 0.183938
 30 12.284374 0.200996 -15.879501 -1.073499 -0.618245 -1.108255
 31 6.919277 -3.849018 -10.201530 -0.088245 -0.076199 -0.105809
 32 1.801674 -1.439339 -4.598675 0.000000 -0.000000 0.000000
 33 0.275625 -0.653331 2.573708 0.000000 -0.000000 0.000000
 34 -2.128445 3.188605 168.111557 0.000000 -0.000000 0.000000
time 8
  0 -2.408944 2.128008 -1.071352 0.000000 -0.000000 0.000000
  1 -2.408944 2.128008 -1.071352 0.000000 -0.000000 0.000000
  2 -2.408944 2.128008 -1.071352 0.000000 -0.000000 0.000000
  3 0.000000 17.971096 85.567421 -0.043883 -0.000000 -0.000000
  4 -0.000000 0.380083 -2.358147 -0.218750 0.000000 0.000000
  5 -6.962073 -1.123271 -14.918671 -0.185115 0.047116 -0.153285
  6 -0.762899 1.783214 -29.522808 0.553150 0.016944 0.007350
  7 -1.525354 0.897310 -28.921162 0.044331 0.006289 -0.001416
  8 0.354391 -2.635781 -5.445796 0.000000 -0.000000 0.000000
  9 7.456964 -0.120268 -14.357971 0.206326 -0.038602 -0.004779
 10 0.913360 0.804957 -30.266220 0.427917 0.007701 0.003925
 11 1.054035 0.998075 -28.738480 -0.025083 0.001683 0.005063
 12 0.073698 -2.761299 -5.395098 0.000000 -0.000000 0.000000
 13 0.184103 2.405380 6.536697 -0.017453 0.000000 0.000000
 14 -2.507427 0.706860 2.240990 -0.035775 0.044505 -0.701489
 15 3.250290 -0.229960 -90.900154 0.017445 -0.006626 0.385211
 16 1.065001 0.706860 2.240990 -0.013556 -0.021866 0.446778
 17 -2.362347 -0.468015 -90.905487 0.017471 0.007558 -0.441260
 18 0.000000 -0.154716 2.376091 -0.221936 0.019516 0.630088
 19 0.646872 -1.121441 24.709145 0.409000 0.101815 -0.611209
 20 -0.331073 15.401077 -4.448265 0.207351 -0.034177 -0.025026
 21 0.294692 4.810112 -18.306999 0.209188 0.000000 -0.000001
 22 -1.097139 0.677544 9.228622 0.000000 -0.000000 0.000000
 23 -7.043965 -0.624739 16.699585 -1.029801 0.308315 1.010052
 24 -13.119781 0.402664 -15.778519 -0.188663 0.045318 0.386447
 25 -6.930321 -3.869400 -10.071301 0.008747 0.275231 -0.034107
 26 -1.440521 -1.851311 -5.643749 0.052020 0.091792 0.093927
 27 30.607498 4.937199 -71.660179 0.000000 -0.000000 0.000000
 28 -2.740807 -1.783821 -4.956821 0.000000 -0.000000 0.000000
 29 8.158012 -0.446264 16.846817 0.184047 -0.253896 0.183938
 30 12.284378 0.200996 -15.879509 -1.073499 -0.618246 -1.108256
 31 6.919273 -3.849014 -10.201523 -0.088245 -0.076199 -0.105809
 32 1.801674 -1.439342 -4.598671 0.000000 -0.000000 0.000000
 33 0.275625 -0.653330 2.573700 0.000000 -0.000000 0.000000
 34 -2.128445 3.188605 168.111557 0.000000 -0.000000 0.000000
time 9
  0 -2.408944 2.128008 -1.071352 0.000000 -0.000000 0.000000
  1 -2.408944 2.128008 -1.071352 0.000000 -0.000000 0.000000
  2 -2.408944 2.128008 -1.071352 0.000000 -0.000000 0.000000
  3 0.000000 20.496305 85.718460 -0.054600 -0.000000 -0.000000
  4 0.000000 0.380081 -2.358139 -0.243757 0.000000 0.000000
  5 -6.962072 -1.123268 -14.918671 -0.202608 0.036804 -0.154698
  6 -0.762900 1.783218 -29.522808 0.569040 0.019249 0.008350
  7 -1.525356 0.897308 -28.921167 0.090133 0.013832 -0.001106
  8 0.354393 -2.635783 -5.445798 0.000000 -0.000000 0.000000
  9 7.456965 -0.120266 -14.357971 0.243683 -0.022647 -0.002804
 10 0.913359 0.804955 -30.266216 0.438609 0.004518 0.002303
 11 1.054035 0.998074 -28.738487 0.006926 0.000987 0.002970
 12 0.073698 -2.761299 -5.395099 0.000000 -0.000000 0.000000
 13 0.184103 2.405386 6.536697 -0.017453 0.000000 0.000000
 14 -2.507427 0.706860 2.240990 -0.041807 0.051616 -0.774287
 15 3.250291 -0.229967 -90.900139 0.017445 -0.006626 0.385211
 16 1.065001 0.706860 2.240990 -0.015659 -0.025428 0.500607
 17 -2.362346 -0.468015 -90.905502 0.017471 0.007558 -0.441260
 18 -0.000000 -0.154716 2.376083 -0.220517 0.022170 0.715795
 19 0.646874 -1.121441 24.709145 0.431397 0.115664 -0.694348
 20 -0.331074 15.401070 -4.448273 0.288585 -0.041448 -0.030349
 21 0.294692 4.810112 -18.307003 0.282677 0.000000 -0.000001
 22 -1.097139 0.677547 9.228622 0.000000 -0.000000 0.000000
 23 -7.043963 -0.624741 16.699593 -1.143424 0.270127 0.910281
 24 -13.119780 0.402672 -15.778526 -0.093301 0.010813 0.373939
 25 -6.930321 -3.869408 -10.071304 0.046884 0.279428 -0.033097
 26 -1.440514 -1.851318 -5.643751 0.052020 0.091792 0.093927
 27 30.607517 4.937195 -71.660187 0.000000 -0.000000 0.000000
 28 -2.740807 -1.783821 -4.956820 0.000000 -0.000000 0.000000
 29 8.158013 -0.446266 16.846825 0.184047 -0.253896 0.183937
 30 12.284374 0.200994 -15.879509 -1.073499 -0.618246 -1.108256
 31 6.919277 -3.849020 -10.201523 -0.088245 -0.076199 -0.105809
 32 1.801674 -1.439342 -4.598671 0.000000 -0.000000 0.000000
 33 0.275626 -0.653328 2.573700 0.000000 -0.000000 0.000000
 34 -2.128445 3.188605 168.111557 0.000000 -0.000000 0.000000
time 10
  0 -2.408944 2.128008 -1.071352 0.000000 -0.000000 0.000000
  1 -2.408944 2.128008 -1.071352 0.000000 -0.000000 0.000000
  2 -2.408944 2.128008 -1.071352 0.000000 -0.000000 0.000000
  3 0.000000 22.472935 85.836685 -0.062990 -0.000000 -0.000000
  4 0.000000 0.380081 -2.358139 -0.263332 -0.000000 0.000000
  5 -6.962072 -1.123270 -14.918671 -0.222006 0.026909 -0.155804
  6 -0.762900 1.783216 -29.522816 0.581478 0.021053 0.009132
  7 -1.525353 0.897310 -28.921162 0.125985 0.019736 -0.000864
  8 0.354391 -2.635784 -5.445796 0.000000 -0.000000 0.000000
  9 7.456964 -0.120268 -14.357979 0.272924 -0.010157 -0.001258
 10 0.913359 0.804958 -30.266216 0.446978 0.002027 0.001033
 11 1.054035 0.998081 -28.738476 0.031981 0.000443 0.001333
 12 0.073698 -2.761297 -5.395097 0.000000 -0.000000 0.000000
 13 0.184103 2.405382 6.536690 -0.017453 0.000000 0.000000
 14 -2.507427 0.706858 2.240990 -0.047510 0.058340 -0.843125
 15 3.250289 -0.229972 -90.900154 0.017445 -0.006626 0.385211
 16 1.065002 0.706860 2.240990 -0.017649 -0.028796 0.551508
 17 -2.362352 -0.468022 -90.905502 0.017471 0.007558 -0.441260
 18 0.000000 -0.154718 2.376083 -0.218896 0.024248 0.782883
 19 0.646871 -1.121445 24.709152 0.448929 0.126505 -0.759427
 20 -0.331075 15.401070 -4.448273 0.372274 -0.048937 -0.035833
 21 0.294691 4.810112 -18.306999 0.354816 0.000000 -0.000001
 22 -1.097139 0.677547 9.228622 0.000000 -0.000000 0.000000
 23 -7.043964 -0.624739 16.699585 -1.241782 0.240236 0.794780
 24 -13.119783 0.402664 -15.778526 0.004721 -0.024272 0.362111
 25 -6.930321 -3.869392 -10.071303 0.076736 0.282714 -0.032307
 26 -1.440521 -1.851318 -5.643751 0.052020 0.091792 0.093927
 27 30.607510 4.937202 -71.660187 0.000000 -0.000000 0.000000
 28 -2.740799 -1.783821 -4.956821 0.000000 -0.000000 0.000000
 29 8.158014 -0.446264 16.846817 0.184047 -0.253896 0.183938
 30 12.284374 0.200992 -15.879501 -1.073499 -0.618246 -1.108256
 31 6.919277 -3.849016 -10.201530 -0.088245 -0.076199 -0.105809
 32 1.801674 -1.439341 -4.598671 0.000000 -0.000000 0.000000
 33 0.275623 -0.653332 2.573700 0.000000 -0.000000 0.000000
 34 -2.128445 3.188605 168.111557 0.000000 -0.000000 0.000000
time 11
  0 -2.408944 2.128008 -1.071352 0.000000 -0.000000 0.000000
  1 -2.408944 2.128008 -1.071352 0.000000 -0.000000 0.000000
  2 -2.408944 2.128008 -1.071352 0.000000 -0.000000 0.000000
  3 0.000000 23.722775 85.911438 -0.068294 -0.000000 -0.000000
  4 0.000000 0.380081 -2.358139 -0.275709 0.000000 0.000000
  5 -6.962073 -1.123268 -14.918678 -0.243277 0.017775 -0.156503
  6 -0.762899 1.783216 -29.522816 0.589343 0.022194 0.009627
  7 -1.525355 0.897307 -28.921162 0.148655 0.023470 -0.000710
  8 0.354391 -2.635784 -5.445796 0.000000 -0.000000 0.000000
  9 7.456964 -0.120270 -14.357971 0.291414 -0.002260 -0.000280
 10 0.913360 0.804956 -30.266209 0.452270 0.000452 0.000230
 11 1.054035 0.998077 -28.738476 0.047823 0.000099 0.000297
 12 0.073698 -2.761295 -5.395098 0.000000 -0.000000 0.000000
 13 0.184103 2.405380 6.536690 -0.017453 0.000000 0.000000
 14 -2.507427 0.706861 2.240997 -0.052668 0.064420 -0.905366
 15 3.250295 -0.229971 -90.900139 0.017445 -0.006626 0.385211
 16 1.065001 0.706861 2.240997 -0.019447 -0.031841 0.597531
 17 -2.362350 -0.468014 -90.905495 0.017471 0.007558 -0.441260
 18 -0.000000 -0.154718 2.376091 -0.217063 0.025562 0.825304
 19 0.646870 -1.121445 24.709152 0.460014 0.133360 -0.800576
 20 -0.331072 15.401073 -4.448273 0.456922 -0.056513 -0.041380
 21 0.294692 4.810112 -18.307003 0.423500 0.000000 -0.000001
 22 -1.097138 0.677547 9.228615 0.000000 -0.000000 0.000000
 23 -7.043967 -0.624744 16.699593 -1.320444 0.221335 0.662707
 24 -13.119780 0.402672 -15.778526 0.103601 -0.059202 0.351417
 25 -6.930321 -3.869408 -10.071300 0.095612 0.284791 -0.031807
 26 -1.440514 -1.851311 -5.643750 0.052020 0.091792 0.093927
 27 30.607513 4.937187 -71.660187 0.000000 -0.000000 0.000000
 28 -2.740807 -1.783829 -4.956816 0.000000 -0.000000 0.000000
 29 8.158012 -0.446264 16.846817 0.184047 -0.253896 0.183938
 30 12.284374 0.200998 -15.879501 -1.073499 -0.618246 -1.108255
 31 6.919273 -3.849020 -10.201530 -0.088245 -0.076199 -0.105809
 32 1.801674 -1.439342 -4.598671 0.000000 -0.000000 0.000000
 33 0.275623 -0.653332 2.573700 0.000000 -0.000000 0.000000
 34 -2.128445 3.188605 168.111557 0.000000 -0.000000 0.000000
time 12
  0 -2.408944 2.128008 -1.071352 0.000000 -0.000000 0.000000
  1 -2.408944 2.128008 -1.071352 0.000000 -0.000000 0.000000
  2 -2.408944 2.128008 -1.071352 0.000000 -0.000000 0.000000
  3 0.000000 23.952417 85.932846 -0.069024 -0.000000 -0.000000
  4 0.000000 0.380081 -2.358139 -0.279219 -0.000000 0.000000
  5 -6.962072 -1.123268 -14.918678 -0.266706 0.009704 -0.156700
  6 -0.762898 1.783216 -29.522812 0.591573 0.022517 0.009767
  7 -1.525354 0.897308 -28.921165 0.155084 0.024528 -0.000667
  8 0.354391 -2.635783 -5.445797 0.000000 -0.000000 0.000000
  9 7.456964 -0.120268 -14.357979 0.296446 0.000000 -0.000000
 10 0.913358 0.804958 -30.266209 0.453771 0.000005 0.000002
 11 1.054034 0.998077 -28.738476 0.051571 0.000000 0.000000
 12 0.073698 -2.761295 -5.395097 0.000000 -0.000000 0.000000
 13 0.184103 2.405378 6.536697 -0.017453 0.000000 0.000000
 14 -2.507427 0.706858 2.240997 -0.057060 0.069598 -0.958369
 15 3.250293 -0.229970 -90.900146 0.017445 -0.006626 0.385211
 16 1.065001 0.706860 2.240997 -0.020979 -0.034435 0.636723
 17 -2.362346 -0.468012 -90.905495 0.017471 0.007558 -0.441260
 18 0.000000 -0.154718 2.376083 -0.214468 0.025819 0.834908
 19 0.646873 -1.121441 24.709137 0.462281 0.135114 -0.809579
 20 -0.331075 15.401070 -4.448265 0.541032 -0.064041 -0.046892
 21 0.294691 4.810112 -18.306995 0.486621 0.000001 -0.000001
 22 -1.097138 0.677544 9.228622 0.000000 -0.000000 0.000000
 23 -7.043963 -0.624741 16.699585 -1.375146 0.215936 0.510568
 24 -13.119780 0.402672 -15.778527 0.201535 -0.093244 0.342311
 25 -6.930321 -3.869392 -10.071301 0.100965 0.285380 -0.031665
 26 -1.440521 -1.851318 -5.643750 0.052020 0.091792 0.093927
 27 30.607498 4.937218 -71.660187 0.000000 -0.000000 0.000000
 28 -2.740814 -1.783829 -4.956819 0.000000 -0.000000 0.000000
 29 8.158012 -0.446264 16.846817 0.184047 -0.253896 0.183938
 30 12.284374 0.201001 -15.879509 -1.073499 -0.618246 -1.108255
 31 6.919281 -3.849018 -10.201530 -0.088245 -0.076199 -0.105809
 32 1.801682 -1.439342 -4.598671 0.000000 -0.000000 0.000000
 33 0.275625 -0.653332 2.573700 0.000000 -0.000000 0.000000
 34 -2.128445 3.188605 168.111557 0.000000 -0.000000 0.000000
time 13
  0 -2.408944 2.128008 -1.071352 0.000000 -0.000000 0.000000
  1 -2.408944 2.128008 -1.071352 0.000000 -0.000000 0.000000
  2 -2.408944 2.128008 -1.071352 0.000000 -0.000000 0.000000
  3 0.000000 18.042006 85.932846 -0.031677 -0.000000 -0.000000
  4 0.000000 0.380079 -2.358139 -0.277486 0.000000 0.000000
  5 -6.962072 -1.123267 -14.918678 -0.306488 0.001058 -0.156512
  6 -0.762898 1.783215 -29.522812 0.590472 0.022358 0.009698
  7 -1.525355 0.897310 -28.921167 0.151909 0.024006 -0.000688
  8 0.354392 -2.635783 -5.445796 0.000000 -0.000000 0.000000
  9 7.456964 -0.120269 -14.357971 0.283761 0.000000 0.000000
 10 0.913359 0.804957 -30.266220 0.453030 0.000225 0.000115
 11 1.054035 0.998074 -28.738476 0.014259 0.000000 0.000000
 12 0.073698 -2.761297 -5.395099 0.000000 -0.000000 0.000000
 13 0.184103 2.405382 6.536697 -0.017453 0.000000 0.000000
 14 -2.507427 0.706860 2.240990 -0.060467 0.073615 -0.999496
 15 3.250286 -0.229966 -90.900154 0.017445 -0.006626 0.385211
 16 1.065002 0.706860 2.240990 -0.022168 -0.036447 0.667134
 17 -2.362346 -0.468016 -90.905502 0.017471 0.007558 -0.441260
 18 0.000000 -0.154720 2.376091 -0.186455 0.020202 0.714623
 19 0.646873 -1.121441 24.709152 0.419359 0.125198 -0.678095
 20 -0.331075 15.401070 -4.448257 0.623107 -0.071386 -0.052271
 21 0.294690 4.810120 -18.307007 0.542074 0.000001 -0.000001
 22 -1.097138 0.677544 9.228638 0.000000 -0.000000 0.000000
 23 -7.043964 -0.624743 16.699608 -1.411724 0.216740 0.221053
 24 -13.119778 0.402664 -15.778529 0.296718 -0.125666 0.335245
 25 -6.930321 -3.869400 -10.071302 0.098322 0.285089 -0.031735
 26 -1.440514 -1.851311 -5.643748 0.052020 0.091792 0.093927
 27 30.607513 4.937180 -71.660187 0.000000 -0.000000 0.000000
 28 -2.740807 -1.783821 -4.956819 0.000000 -0.000000 0.000000
 29 8.158013 -0.446266 16.846832 0.184047 -0.253896 0.183937
 30 12.284378 0.200995 -15.879509 -1.073499 -0.618246 -1.108256
 31 6.919277 -3.849018 -10.201530 -0.088245 -0.076199 -0.105809
 32 1.801666 -1.439342 -4.598675 0.000000 -0.000000 0.000000
 33 0.275626 -0.653328 2.573708 0.000000 -0.000000 0.000000
 34 -2.128445 3.188605 168.111557 0.000000 -0.000000 0.000000
time 14
  0 -2.408944 2.128008 -1.071352 0.000000 -0.000000 0.000000
  1 -2.408944 2.128008 -1.071352 0.000000 -0.000000 0.000000
  2 -2.408944 2.128008 -1.071352 0.000000 -0.000000 0.000000
  3 0.000000 6.491306 85.932846 0.045167 -0.000000 -0.000000
  4 0.000000 0.380080 -2.358147 -0.273291 0.000000 0.000000
  5 -6.962073 -1.123269 -14.918671 -0.362818 -0.008412 -0.156091
  6 -0.762899 1.783215 -29.522810 0.587807 0.021971 0.009530
  7 -1.525356 0.897307 -28.921162 0.144226 0.022740 -0.000740
  8 0.354392 -2.635782 -5.445796 0.000000 -0.000000 0.000000
  9 7.456964 -0.120269 -14.357979 0.256448 0.000000 0.000000
 10 0.913360 0.804957 -30.266212 0.451237 0.000759 0.000387
 11 1.054035 0.998075 -28.738478 -0.062511 0.000000 0.000000
 12 0.073698 -2.761299 -5.395097 0.000000 -0.000000 0.000000
 13 0.184103 2.405381 6.536690 -0.017453 0.000000 0.000000
 14 -2.507427 0.706859 2.240990 -0.062672 0.076215 -1.026108
 15 3.250291 -0.229963 -90.900162 0.017445 -0.006626 0.385211
 16 1.065002 0.706860 2.240990 -0.022937 -0.037749 0.686811
 17 -2.362351 -0.468021 -90.905495 0.017471 0.007558 -0.441260
 18 0.000000 -0.154718 2.376083 -0.131179 0.008643 0.467130
 19 0.646873 -1.121443 24.709152 0.331045 0.104576 -0.407559
 20 -0.331076 15.401073 -4.448257 0.701652 -0.078416 -0.057418
 21 0.294690 4.810112 -18.306999 0.587751 0.000001 -0.000001
 22 -1.097139 0.677547 9.228638 0.000000 -0.000000 0.000000
 23 -7.043965 -0.624740 16.699593 -1.436571 0.219247 -0.201817
 24 -13.119781 0.402664 -15.778526 0.387347 -0.155732 0.330672
 25 -6.930321 -3.869408 -10.071304 0.091925 0.284385 -0.031905
 26 -1.440521 -1.851318 -5.643749 0.052020 0.091792 0.093927
 27 30.607494 4.937210 -71.660179 0.000000 -0.000000 0.000000
 28 -2.740814 -1.783821 -4.956818 0.000000 -0.000000 0.000000
 29 8.158012 -0.446265 16.846825 0.184047 -0.253896 0.183938
 30 12.284378 0.200996 -15.879509 -1.073499 -0.618246 -1.108256
 31 6.919273 -3.849022 -10.201530 -0.088245 -0.076199 -0.105809
 32 1.801666 -1.439346 -4.598675 0.000000 -0.000000 0.000000
 33 0.275625 -0.653330 2.573700 0.000000 -0.000000 0.000000
 34 -2.128445 3.188605 168.111557 0.000000 -0.000000 0.000000
time 15
  0 -2.408944 2.128008 -1.071352 0.000000 -0.000000 0.000000
  1 -2.408944 2.128008 -1.071352 0.000000 -0.000000 0.000000
  2 -2.408944 2.128008 -1.071352 0.000000 -0.000000 0.000000
  3 0.000000 -6.297509 85.932846 0.138735 -0.000000 -0.000000
  4 -0.000000 0.380081 -2.358147 -0.266871 0.000000 0.000000
  5 -6.962073 -1.123270 -14.918671 -0.425362 -0.017671 -0.155506
  6 -0.762899 1.783218 -29.522808 0.583727 0.021379 0.009274
  7 -1.525355 0.897308 -28.921164 0.132468 0.020804 -0.000820
  8 0.354392 -2.635780 -5.445797 0.000000 -0.000000 0.000000
  9 7.456964 -0.120268 -14.357971 0.220657 0.000000 0.000000
 10 0.913359 0.804957 -30.266216 0.448492 0.001576 0.000803
 11 1.054034 0.998077 -28.738480 -0.155990 0.000000 0.000000
 12 0.073698 -2.761299 -5.395097 0.000000 -0.000000 0.000000
 13 0.184103 2.405382 6.536697 -0.017453 0.000000 0.000000
 14 -2.507427 0.706862 2.240982 -0.063456 0.077139 -1.035565
 15 3.250294 -0.229969 -90.900131 0.017445 -0.006626 0.385211
 16 1.065001 0.706862 2.240982 -0.023210 -0.038212 0.693804
 17 -2.362350 -0.468016 -90.905487 0.017471 0.007558 -0.441260
 18 -0.000000 -0.154718 2.376076 -0.064571 -0.005431 0.165775
 19 0.646873 -1.121443 24.709145 0.223512 0.079006 -0.078145
 20 -0.331074 15.401072 -4.448265 0.775169 -0.084995 -0.062236
 21 0.294692 4.810112 -18.306995 0.621547 0.000001 -0.000001
 22 -1.097139 0.677546 9.228622 0.000000 -0.000000 0.000000
 23 -7.043963 -0.624741 16.699585 -1.451922 0.224082 -0.665629
 24 -13.119776 0.402672 -15.778532 0.471620 -0.182711 0.329047
 25 -6.930313 -3.869400 -10.071301 0.082134 0.283308 -0.032164
 26 -1.440514 -1.851318 -5.643749 0.052020 0.091792 0.093927
 27 30.607521 4.937206 -71.660202 0.000000 -0.000000 0.000000
 28 -2.740807 -1.783829 -4.956818 0.000000 -0.000000 0.000000
 29 8.158014 -0.446265 16.846817 0.184047 -0.253896 0.183937
 30 12.284378 0.200994 -15.879509 -1.073499 -0.618246 -1.108255
 31 6.919273 -3.849014 -10.201538 -0.088245 -0.076199 -0.105809
 32 1.801674 -1.439342 -4.598675 0.000000 -0.000000 0.000000
 33 0.275625 -0.653330 2.573700 0.000000 -0.000000 0.000000
 34 -2.128445 3.188605 168.111557 0.000000 -0.000000 0.000000
time 16
  0 -2.408944 2.128008 -1.071352 0.000000 -0.000000 0.000000
  1 -2.408944 2.128008 -1.071352 0.000000 -0.000000 0.000000
  2 -2.408944 2.128008 -1.071352 0.000000 -0.000000 0.000000
  3 0.000000 -15.922256 85.932846 0.226254 -0.000000 -0.000000
  4 0.000000 0.380082 -2.358147 -0.258463 0.000000 0.000000
  5 -6.962073 -1.123270 -14.918671 -0.483785 -0.025684 -0.154829
  6 -0.762900 1.783215 -29.522808 0.578384 0.020604 0.008937
  7 -1.525354 0.897312 -28.921165 0.117068 0.018268 -0.000924
  8 0.354393 -2.635784 -5.445797 0.000000 -0.000000 0.000000
  9 7.456964 -0.120268 -14.357971 0.182536 0.000000 -0.000000
 10 0.913360 0.804957 -30.266220 0.444897 0.002647 0.001349
 11 1.054035 0.998072 -28.738478 -0.243425 0.000000 0.000000
 12 0.073697 -2.761299 -5.395098 0.000000 -0.000000 0.000000
 13 0.184102 2.405380 6.536690 -0.017453 0.000000 0.000000
 14 -2.507427 0.706861 2.240997 -0.063010 0.076613 -1.030183
 15 3.250293 -0.229967 -90.900146 0.017445 -0.006626 0.385211
 16 1.065001 0.706861 2.240997 -0.023055 -0.037949 0.689825
 17 -2.362349 -0.468019 -90.905487 0.017471 0.007558 -0.441260
 18 0.000000 -0.154719 2.376076 -0.002563 -0.018595 -0.116098
 19 0.646873 -1.121443 24.709145 0.122930 0.054245 0.229972
 20 -0.331074 15.401077 -4.448265 0.842161 -0.090991 -0.066626
 21 0.294692 4.810120 -18.306999 0.641355 0.000001 -0.000001
 22 -1.097139 0.677551 9.228622 0.000000 -0.000000 0.000000
 23 -7.043964 -0.624741 16.699593 -1.460015 0.231870 -1.077975
 24 -13.119780 0.402672 -15.778530 0.602413 -0.208205 0.341444
 25 -6.930321 -3.869400 -10.071297 0.069311 0.281896 -0.032503
 26 -1.440521 -1.851318 -5.643753 0.052020 0.091792 0.093927
 27 30.607513 4.937210 -71.660217 0.000000 -0.000000 0.000000
 28 -2.740807 -1.783821 -4.956818 0.000000 -0.000000 0.000000
 29 8.158014 -0.446266 16.846817 0.184047 -0.253896 0.183937
 30 12.284374 0.200996 -15.879509 -1.073499 -0.618246 -1.108256
 31 6.919270 -3.849014 -10.201530 -0.088245 -0.076199 -0.105809
 32 1.801674 -1.439342 -4.598671 0.000000 -0.000000 0.000000
 33 0.275625 -0.653330 2.573692 0.000000 -0.000000 0.000000
 34 -2.128445 3.188605 168.111557 0.000000 -0.000000 0.000000
time 17
  0 -2.408944 2.128008 -1.071352 0.000000 -0.000000 0.000000
  1 -2.408944 2.128008 -1.071352 0.000000 -0.000000 0.000000
  2 -2.408944 2.128008 -1.071352 0.000000 -0.000000 0.000000
  3 0.000000 -18.408949 85.931808 0.284951 -0.000000 -0.000000
  4 0.000000 0.380082 -2.358131 -0.248302 -0.000000 0.000000
  5 -6.962073 -1.123269 -14.918671 -0.527753 -0.031416 -0.154128
  6 -0.762898 1.783215 -29.522804 0.571928 0.019668 0.008531
  7 -1.525354 0.897310 -28.921158 0.098458 0.015203 -0.001050
  8 0.354390 -2.635782 -5.445795 0.000000 -0.000000 0.000000
  9 7.456964 -0.120268 -14.357971 0.148233 0.000000 0.000000
 10 0.913359 0.804956 -30.266220 0.440552 0.003940 0.002008
 11 1.054034 0.998069 -28.738480 -0.302066 0.000000 0.000000
 12 0.073698 -2.761299 -5.395098 0.000000 -0.000000 0.000000
 13 0.184103 2.405381 6.536690 -0.017453 0.000000 0.000000
 14 -2.507427 0.706861 2.240990 -0.061734 0.075108 -1.014781
 15 3.250290 -0.229968 -90.900139 0.017445 -0.006626 0.385211
 16 1.065001 0.706861 2.240990 -0.022609 -0.037195 0.678436
 17 -2.362351 -0.468017 -90.905487 0.017471 0.007558 -0.441260
 18 0.000000 -0.154716 2.376091 0.038915 -0.027424 -0.305144
 19 0.646872 -1.121445 24.709152 0.055472 0.036053 0.436620
 20 -0.331073 15.401073 -4.448265 0.901133 -0.096269 -0.070490
 21 0.294692 4.810112 -18.307003 0.645196 0.000001 -0.000001
 22 -1.097139 0.677547 9.228630 0.000000 -0.000000 0.000000
 23 -7.043964 -0.624743 16.699593 -1.463085 0.243237 -1.346446
 24 -13.119781 0.402664 -15.778528 0.744436 -0.227359 0.366710
 25 -6.930328 -3.869400 -10.071304 0.053815 0.280191 -0.032914
 26 -1.440514 -1.851311 -5.643753 0.052020 0.091792 0.093927
 27 30.607506 4.937225 -71.660194 0.000000 -0.000000 0.000000
 28 -2.740807 -1.783821 -4.956818 0.000000 -0.000000 0.000000
 29 8.158012 -0.446266 16.846825 0.184047 -0.253896 0.183937
 30 12.284378 0.201002 -15.879501 -1.073499 -0.618246 -1.108256
 31 6.919273 -3.849014 -10.201530 -0.088245 -0.076199 -0.105809
 32 1.801678 -1.439346 -4.598671 0.000000 -0.000000 0.000000
 33 0.275625 -0.653330 2.573708 0.000000 -0.000000 0.000000
 34 -2.128445 3.188605 168.111557 0.000000 -0.000000 0.000000
time 18
  0 -2.408944 2.128008 -1.071352 0.000000 -0.000000 0.000000
  1 -2.408944 2.128008 -1.071352 0.000000 -0.000000 0.000000
  2 -2.408944 2.128008 -1.071352 0.000000 -0.000000 0.000000
  3 0.000000 -18.171038 85.912117 0.296520 0.000000 0.000000
  4 0.000000 0.380081 -2.358147 -0.236624 0.000000 0.000000
  5 -6.962072 -1.123270 -14.918671 -0.546932 -0.033832 -0.153474
  6 -0.762900 1.783211 -29.522816 0.564507 0.018592 0.008064
  7 -1.525354 0.897310 -28.921164 0.077069 0.011681 -0.001195
  8 0.354392 -2.635784 -5.445796 0.000000 -0.000000 0.000000
  9 7.456964 -0.120268 -14.357971 0.123899 0.000000 -0.000000
 10 0.913359 0.804957 -30.266224 0.435559 0.005426 0.002766
 11 1.054035 0.998075 -28.738480 -0.313912 0.000009 0.000028
 12 0.073698 -2.761298 -5.395099 0.000000 -0.000000 0.000000
 13 0.184103 2.405381 6.536697 -0.017453 0.000000 0.000000
 14 -2.507427 0.706861 2.240997 -0.059720 0.072734 -0.990472
 15 3.250292 -0.229968 -90.900139 0.017445 -0.006626 0.385211
 16 1.065001 0.706861 2.240997 -0.021907 -0.036005 0.660461
 17 -2.362348 -0.468016 -90.905487 0.017471 0.007558 -0.441260
 18 0.000000 -0.154717 2.376076 0.046955 -0.029178 -0.343096
 19 0.646872 -1.121441 24.709152 0.042040 0.029041 0.477963
 20 -0.331075 15.401072 -4.448273 0.950587 -0.100695 -0.073731
 21 0.294691 4.810120 -18.306997 0.634250 0.000001 -0.000001
 22 -1.097138 0.677547 9.228622 0.000000 -0.000000 0.000000
 23 -7.043963 -0.624737 16.699600 -1.461573 0.258684 -1.396337
 24 -13.119774 0.402672 -15.778528 0.774175 -0.230212 0.388730
 25 -6.930321 -3.869404 -10.071304 0.036007 0.278231 -0.033385
 26 -1.440521 -1.851318 -5.643747 0.052020 0.091792 0.093927
 27 30.607506 4.937195 -71.660194 0.000000 -0.000000 0.000000
 28 -2.740807 -1.783825 -4.956820 0.000000 -0.000000 0.000000
 29 8.158013 -0.446264 16.846825 0.184047 -0.253896 0.183937
 30 12.284378 0.200996 -15.879509 -1.073499 -0.618246 -1.108255
 31 6.919273 -3.849010 -10.201530 -0.088245 -0.076199 -0.105809
 32 1.801678 -1.439342 -4.598679 0.000000 -0.000000 0.000000
 33 0.275625 -0.653328 2.573700 0.000000 -0.000000 0.000000
 34 -2.128445 3.188605 168.111557 0.000000 -0.000000 0.000000
time 19
  0 -2.408944 2.128008 -1.071352 0.000000 -0.000000 0.000000
  1 -2.408944 2.128008 -1.071352 0.000000 -0.000000 0.000000
  2 -2.408944 2.128008 -1.071352 0.000000 -0.000000 0.000000
  3 0.000000 -17.657919 85.869637 0.292219 0.000000 0.000000
  4 0.000000 0.380080 -2.358147 -0.223666 -0.000000 0.000000
  5 -6.962073 -1.123271 -14.918678 -0.543519 -0.032710 -0.152846
  6 -0.762900 1.783215 -29.522806 0.556274 0.017397 0.007546
  7 -1.525355 0.897308 -28.921165 0.053336 0.007772 -0.001355
  8 0.354392 -2.635782 -5.445798 0.000000 -0.000000 0.000000
  9 7.456964 -0.120268 -14.357979 0.107969 -0.001296 -0.000160
 10 0.913360 0.804957 -30.266220 0.430019 0.007076 0.003606
 11 1.054035 0.998071 -28.738485 -0.313032 0.000121 0.000364
 12 0.073698 -2.761297 -5.395100 0.000000 -0.000000 0.000000
 13 0.184103 2.405381 6.536690 -0.017453 0.000000 0.000000
 14 -2.507427 0.706861 2.240990 -0.057060 0.069598 -0.958369
 15 3.250293 -0.229963 -90.900169 0.017445 -0.006626 0.385211
 16 1.065001 0.706861 2.240990 -0.020979 -0.034435 0.636723
 17 -2.362350 -0.468017 -90.905495 0.017471 0.007558 -0.441260
 18 0.000000 -0.154718 2.376083 0.042452 -0.028698 -0.337454
 19 0.646873 -1.121445 24.709145 0.045366 0.025181 0.470104
 20 -0.331075 15.401075 -4.448265 0.989028 -0.104135 -0.076250
 21 0.294691 4.810112 -18.307001 0.610640 0.000001 -0.000001
 22 -1.097138 0.677549 9.228630 0.000000 -0.000000 0.000000
 23 -7.043964 -0.624741 16.699585 -1.439238 0.277215 -1.351299
 24 -13.119781 0.402664 -15.778526 0.717633 -0.216152 0.412307
 25 -6.930313 -3.869400 -10.071301 0.016246 0.276056 -0.033908
 26 -1.440529 -1.851318 -5.643753 0.052020 0.091792 0.093927
 27 30.607491 4.937191 -71.660187 0.000000 -0.000000 0.000000
 28 -2.740814 -1.783829 -4.956825 0.000000 -0.000000 0.000000
 29 8.158014 -0.446262 16.846817 0.184047 -0.253896 0.183937
 30 12.284370 0.200998 -15.879509 -1.073499 -0.618246 -1.108255
 31 6.919273 -3.849018 -10.201530 -0.088245 -0.076199 -0.105809
 32 1.801670 -1.439339 -4.598675 0.000000 -0.000000 0.000000
 33 0.275626 -0.653330 2.573700 0.000000 -0.000000 0.000000
 34 -2.128445 3.188605 168.111557 0.000000 -0.000000 0.000000
time 20
  0 -2.408944 2.128008 -1.071352 0.000000 -0.000000 0.000000
  1 -2.408944 2.128008 -1.071352 0.000000 -0.000000 0.000000
  2 -2.408944 2.128008 -1.071352 0.000000 -0.000000 0.000000
  3 0.000000 -16.904606 85.807281 0.283535 0.000000 0.000000
  4 0.000000 0.380079 -2.358147 -0.209664 0.000000 0.000000
  5 -6.962073 -1.123270 -14.918671 -0.531939 -0.029010 -0.152152
  6 -0.762899 1.783211 -29.522812 0.547376 0.016107 0.006987
  7 -1.525355 0.897308 -28.921162 0.027691 0.003549 -0.001529
  8 0.354393 -2.635782 -5.445795 0.000000 -0.000000 0.000000
  9 7.456964 -0.120267 -14.357971 0.091969 -0.005499 -0.000681
 10 0.913359 0.804956 -30.266216 0.424032 0.008858 0.004515
 11 1.054034 0.998079 -28.738483 -0.311255 0.000346 0.001042
 12 0.073698 -2.761296 -5.395097 0.000000 -0.000000 0.000000
 13 0.184103 2.405381 6.536697 -0.017453 0.000000 0.000000
 14 -2.507427 0.706861 2.240997 -0.053846 0.065809 -0.919585
 15 3.250292 -0.229965 -90.900146 0.017445 -0.006626 0.385211
 16 1.065001 0.706861 2.240997 -0.019858 -0.032537 0.608045
 17 -2.362349 -0.468018 -90.905479 0.017471 0.007558 -0.441260
 18 0.000000 -0.154720 2.376083 0.033362 -0.027730 -0.326066
 19 0.646873 -1.121445 24.709145 0.052081 0.021654 0.454239
 20 -0.331074 15.401075 -4.448273 1.014957 -0.106456 -0.077949
 21 0.294691 4.810112 -18.306999 0.575979 0.000001 -0.000001
 22 -1.097139 0.677549 9.228615 0.000000 -0.000000 0.000000
 23 -7.043964 -0.624741 16.699585 -1.394144 0.298108 -1.260373
 24 -13.119781 0.402672 -15.778530 0.618165 -0.190935 0.436918
 25 -6.930328 -3.869400 -10.071304 -0.005108 0.273705 -0.034474
 26 -1.440529 -1.851315 -5.643749 0.052020 0.091792 0.093927
 27 30.607491 4.937183 -71.660172 0.000000 -0.000000 0.000000
 28 -2.740822 -1.783825 -4.956818 0.000000 -0.000000 0.000000
 29 8.158014 -0.446268 16.846809 0.184047 -0.253896 0.183937
 30 12.284382 0.200994 -15.879501 -1.073499 -0.618246 -1.108255
 31 6.919270 -3.849018 -10.201538 -0.088245 -0.076199 -0.105809
 32 1.801674 -1.439342 -4.598679 0.000000 -0.000000 0.000000
 33 0.275626 -0.653330 2.573700 0.000000 -0.000000 0.000000
 34 -2.128445 3.188605 168.111557 0.000000 -0.000000 0.000000
time 21
  0 -2.408944 2.128008 -1.071352 0.000000 -0.000000 0.000000
  1 -2.408944 2.128008 -1.071352 0.000000 -0.000000 0.000000
  2 -2.408944 2.128008 -1.071352 0.000000 -0.000000 0.000000
  3 0.000000 -15.946119 85.727943 0.271068 0.000000 0.000000
  4 0.000000 0.380081 -2.358147 -0.194854 0.000000 0.000000
  5 -6.962073 -1.123269 -14.918678 -0.513378 -0.023078 -0.151403
  6 -0.762900 1.783218 -29.522810 0.537966 0.014742 0.006395
  7 -1.525355 0.897310 -28.921164 0.000565 -0.000919 -0.001712
  8 0.354393 -2.635782 -5.445796 0.000000 -0.000000 0.000000
  9 7.456964 -0.120267 -14.357979 0.075968 -0.012237 -0.001515
 10 0.913360 0.804957 -30.266220 0.417700 0.010743 0.005476
 11 1.054035 0.998077 -28.738480 -0.308705 0.000669 0.002014
 12 0.073698 -2.761297 -5.395098 0.000000 -0.000000 0.000000
 13 0.184103 2.405382 6.536690 -0.017453 0.000000 0.000000
 14 -2.507427 0.706862 2.240982 -0.050171 0.061477 -0.875235
 15 3.250290 -0.229967 -90.900131 0.017445 -0.006626 0.385211
 16 1.065002 0.706862 2.240990 -0.018577 -0.030367 0.575251
 17 -2.362349 -0.468018 -90.905487 0.017471 0.007558 -0.441260
 18 -0.000000 -0.154719 2.376083 0.020312 -0.026339 -0.309715
 19 0.646872 -1.121444 24.709145 0.061722 0.018447 0.431461
 20 -0.331075 15.401072 -4.448273 1.026879 -0.107523 -0.078731
 21 0.294690 4.810120 -18.307003 0.531878 0.000001 -0.000001
 22 -1.097138 0.677549 9.228622 0.000000 -0.000000 0.000000
 23 -7.043964 -0.624740 16.699600 -1.329405 0.320913 -1.129833
 24 -13.119778 0.402664 -15.778530 0.500151 -0.160078 0.457991
 25 -6.930321 -3.869400 -10.071304 -0.027694 0.271219 -0.035072
 26 -1.440521 -1.851318 -5.643751 0.052020 0.091792 0.093927
 27 30.607491 4.937172 -71.660187 0.000000 -0.000000 0.000000
 28 -2.740814 -1.783829 -4.956820 0.000000 -0.000000 0.000000
 29 8.158013 -0.446263 16.846817 0.184047 -0.253896 0.183937
 30 12.284378 0.200996 -15.879509 -1.073499 -0.618246 -1.108255
 31 6.919270 -3.849018 -10.201530 -0.088245 -0.076199 -0.105809
 32 1.801670 -1.439342 -4.598675 0.000000 -0.000000 0.000000
 33 0.275625 -0.653329 2.573700 0.000000 -0.000000 0.000000
 34 -2.128445 3.188605 168.111557 0.000000 -0.000000 0.000000
time 22
  0 -2.408944 2.128008 -1.071352 0.000000 -0.000000 0.000000
  1 -2.408944 2.128008 -1.071352 0.000000 -0.000000 0.000000
  2 -2.408944 2.128008 -1.071352 0.000000 -0.000000 0.000000
  3 0.000000 -14.817474 85.634514 0.255416 0.000000 0.000000
  4 -0.000000 0.380079 -2.358147 -0.179472 0.000000 0.000000
  5 -6.962072 -1.123271 -14.918663 -0.488900 -0.015256 -0.150615
  6 -0.762899 1.783215 -29.522808 0.528191 0.013324 0.005780
  7 -1.525356 0.897306 -28.921169 -0.027608 -0.005558 -0.001903
  8 0.354393 -2.635784 -5.445796 0.000000 -0.000000 0.000000
  9 7.456965 -0.120268 -14.357971 0.060109 -0.021122 -0.002615
 10 0.913360 0.804956 -30.266224 0.411123 0.012701 0.006474
 11 1.054036 0.998073 -28.738491 -0.305504 0.001075 0.003236
 12 0.073697 -2.761296 -5.395098 0.000000 -0.000000 0.000000
 13 0.184103 2.405381 6.536690 -0.017453 0.000000 0.000000
 14 -2.507427 0.706861 2.240997 -0.046127 0.056710 -0.826431
 15 3.250291 -0.229965 -90.900154 0.017445 -0.006626 0.385211
 16 1.065001 0.706861 2.240997 -0.017166 -0.027979 0.539164
 17 -2.362350 -0.468018 -90.905495 0.017471 0.007558 -0.441260
 18 0.000000 -0.154717 2.376083 0.003929 -0.024594 -0.289189
 19 0.646873 -1.121445 24.709145 0.073825 0.015547 0.402867
 20 -0.331074 15.401077 -4.448273 1.017951 -0.106724 -0.078146
 21 0.294691 4.810120 -18.306999 0.479947 0.000001 -0.000001
 22 -1.097139 0.677547 9.228615 0.000000 -0.000000 0.000000
 23 -7.043963 -0.624741 16.699593 -1.248134 0.345180 -0.965957
 24 -13.119778 0.402664 -15.778524 0.387968 -0.129100 0.470954
 25 -6.930321 -3.869400 -10.071299 -0.051152 0.268638 -0.035693
 26 -1.440514 -1.851318 -5.643753 0.052020 0.091792 0.093927
 27 30.607521 4.937187 -71.660194 0.000000 -0.000000 0.000000
 28 -2.740814 -1.783825 -4.956818 0.000000 -0.000000 0.000000
 29 8.158014 -0.446266 16.846825 0.184047 -0.253896 0.183937
 30 12.284374 0.200998 -15.879517 -1.073499 -0.618246 -1.108256
 31 6.919270 -3.849022 -10.201523 -0.088245 -0.076199 -0.105809
 32 1.801674 -1.439339 -4.598675 0.000000 -0.000000 0.000000
 33 0.275626 -0.653332 2.573700 0.000000 -0.000000 0.000000
 34 -2.128445 3.188605 168.111557 0.000000 -0.000000 0.000000
time 23
  0 -2.408944 2.128008 -1.071352 0.000000 -0.000000 0.000000
  1 -2.408944 2.128008 -1.071352 0.000000 -0.000000 0.000000
  2 -2.408944 2.128008 -1.071352 0.000000 -0.000000 0.000000
  3 0.000000 -13.553688 85.529907 0.237180 0.000000 0.000000
  4 0.000000 0.380081 -2.358139 -0.163754 0.000000 0.000000
  5 -6.962073 -1.123270 -14.918671 -0.459573 -0.005884 -0.149800
  6 -0.762899 1.783218 -29.522810 0.518204 0.011875 0.005151
  7 -1.525354 0.897308 -28.921167 -0.056396 -0.010299 -0.002098
  8 0.354392 -2.635785 -5.445796 0.000000 -0.000000 0.000000
  9 7.456964 -0.120268 -14.357971 0.044535 -0.031768 -0.003933
 10 0.913359 0.804956 -30.266220 0.404402 0.014701 0.007493
 11 1.054034 0.998072 -28.738478 -0.301774 0.001548 0.004659
 12 0.073697 -2.761298 -5.395098 0.000000 -0.000000 0.000000
 13 0.184103 2.405381 6.536697 -0.017453 0.000000 0.000000
 14 -2.507427 0.706861 2.240982 -0.041807 0.051616 -0.774287
 15 3.250294 -0.229965 -90.900162 0.017445 -0.006626 0.385211
 16 1.065001 0.706861 2.240982 -0.015659 -0.025428 0.500607
 17 -2.362351 -0.468019 -90.905510 0.017471 0.007558 -0.441260
 18 0.000000 -0.154719 2.376083 -0.015160 -0.022560 -0.265274
 19 0.646873 -1.121445 24.709152 0.087927 0.012942 0.369550
 20 -0.331075 15.401073 -4.448273 0.975629 -0.102936 -0.075372
 21 0.294690 4.810112 -18.306999 0.421799 0.000000 -0.000001
 22 -1.097139 0.677547 9.228622 0.000000 -0.000000 0.000000
 23 -7.043962 -0.624743 16.699593 -1.153441 0.370460 -0.775018
 24 -13.119781 0.402672 -15.778530 0.299615 -0.102042 0.472905
 25 -6.930328 -3.869400 -10.071304 -0.075123 0.265999 -0.036328
 26 -1.440521 -1.851318 -5.643753 0.052020 0.091792 0.093927
 27 30.607483 4.937176 -71.660172 0.000000 -0.000000 0.000000
 28 -2.740814 -1.783821 -4.956821 0.000000 -0.000000 0.000000
 29 8.158013 -0.446266 16.846817 0.184047 -0.253896 0.183937
 30 12.284374 0.201000 -15.879501 -1.073499 -0.618246 -1.108255
 31 6.919273 -3.849014 -10.201523 -0.088245 -0.076199 -0.105809
 32 1.801670 -1.439346 -4.598671 0.000000 -0.000000 0.000000
 33 0.275625 -0.653331 2.573700 0.000000 -0.000000 0.000000
 34 -2.128445 3.188605 168.111557 0.000000 -0.000000 0.000000
time 24
  0 -2.408944 2.128008 -1.071352 0.000000 -0.000000 0.000000
  1 -2.408944 2.128008 -1.071352 0.000000 -0.000000 0.000000
  2 -2.408944 2.128008 -1.071352 0.000000 -0.000000 0.000000
  3 0.000000 -12.189775 85.417000 0.216959 0.000000 0.000000
  4 0.000000 0.380081 -2.358139 -0.147936 -0.000000 0.000000
  5 -6.962072 -1.123271 -14.918663 -0.426463 0.004697 -0.148972
  6 -0.762899 1.783215 -29.522804 0.508153 0.010417 0.004519
  7 -1.525354 0.897309 -28.921167 -0.085367 -0.015070 -0.002294
  8 0.354393 -2.635781 -5.445797 0.000000 -0.000000 0.000000
  9 7.456964 -0.120268 -14.357971 0.029387 -0.043787 -0.005421
 10 0.913360 0.804958 -30.266212 0.397639 0.016714 0.008519
 11 1.054035 0.998074 -28.738476 -0.297638 0.002073 0.006237
 12 0.073699 -2.761299 -5.395098 0.000000 -0.000000 0.000000
 13 0.184103 2.405380 6.536690 -0.017453 0.000000 0.000000
 14 -2.507427 0.706861 2.240990 -0.037301 0.046305 -0.719915
 15 3.250290 -0.229967 -90.900139 0.017445 -0.006626 0.385211
 16 1.065001 0.706861 2.240990 -0.014088 -0.022767 0.460403
 17 -2.362348 -0.468017 -90.905479 0.017471 0.007558 -0.441260
 18 0.000000 -0.154716 2.376091 -0.036326 -0.020304 -0.238754
 19 0.646873 -1.121442 24.709145 0.103564 0.010618 0.332606
 20 -0.331075 15.401073 -4.448265 0.904588 -0.096578 -0.070717
 21 0.294691 4.810112 -18.307003 0.359043 0.000000 -0.000001
 22 -1.097139 0.677547 9.228615 0.000000 -0.000000 0.000000
 23 -7.043963 -0.624741 16.699593 -1.048439 0.396303 -0.563292
 24 -13.119778 0.402664 -15.778528 0.208243 -0.072736 0.472344
 25 -6.930321 -3.869400 -10.071308 -0.099245 0.263344 -0.036966
 26 -1.440529 -1.851318 -5.643749 0.052020 0.091792 0.093927
 27 30.607506 4.937183 -71.660202 0.000000 -0.000000 0.000000
 28 -2.740814 -1.783821 -4.956821 0.000000 -0.000000 0.000000
 29 8.158012 -0.446261 16.846817 0.184047 -0.253896 0.183937
 30 12.284378 0.200998 -15.879501 -1.073499 -0.618246 -1.108256
 31 6.919277 -3.849022 -10.201530 -0.088245 -0.076199 -0.105809
 32 1.801674 -1.439342 -4.598675 0.000000 -0.000000 0.000000
 33 0.275625 -0.653329 2.573700 0.000000 -0.000000 0.000000
 34 -2.128445 3.188605 168.111557 0.000000 -0.000000 0.000000
time 25
  0 -2.408944 2.128008 -1.071352 0.000000 -0.000000 0.000000
  1 -2.408944 2.128008 -1.071352 0.000000 -0.000000 0.000000
  2 -2.408944 2.128008 -1.071352 0.000000 -0.000000 0.000000
  3 0.000000 -10.760756 85.298706 0.195352 0.000000 0.000000
  4 0.000000 0.380081 -2.358147 -0.132255 -0.000000 0.000000
  5 -6.962072 -1.123270 -14.918678 -0.390636 0.016146 -0.148144
  6 -0.762900 1.783215 -29.522810 0.498189 0.008972 0.003892
  7 -1.525355 0.897309 -28.921165 -0.114088 -0.019800 -0.002488
  8 0.354393 -2.635784 -5.445796 0.000000 -0.000000 0.000000
  9 7.456964 -0.120267 -14.357979 0.014808 -0.056792 -0.007031
 10 0.913360 0.804957 -30.266220 0.390935 0.018710 0.009537
 11 1.054034 0.998079 -28.738483 -0.293218 0.002633 0.007923
 12 0.073698 -2.761299 -5.395098 0.000000 -0.000000 0.000000
 13 0.184103 2.405381 6.536690 -0.017453 0.000000 0.000000
 14 -2.507427 0.706861 2.240997 -0.032704 0.040885 -0.664431
 15 3.250292 -0.229968 -90.900146 0.017445 -0.006626 0.385211
 16 1.065001 0.706861 2.240997 -0.012485 -0.020052 0.419376
 17 -2.362350 -0.468017 -90.905487 0.017471 0.007558 -0.441260
 18 0.000000 -0.154717 2.376076 -0.058944 -0.017895 -0.210418
 19 0.646873 -1.121443 24.709145 0.120273 0.008563 0.293131
 20 -0.331073 15.401076 -4.448265 0.810414 -0.088150 -0.064545
 21 0.294691 4.810112 -18.306999 0.293292 0.000000 -0.000001
 22 -1.097138 0.677549 9.228622 0.000000 -0.000000 0.000000
 23 -7.043962 -0.624740 16.699585 -0.936240 0.422258 -0.337055
 24 -13.119778 0.402664 -15.778522 0.109572 -0.040533 0.471299
 25 -6.930313 -3.869404 -10.071304 -0.123159 0.260712 -0.037600
 26 -1.440521 -1.851318 -5.643749 0.052020 0.091792 0.093927
 27 30.607521 4.937191 -71.660210 0.000000 -0.000000 0.000000
 28 -2.740814 -1.783821 -4.956821 0.000000 -0.000000 0.000000
 29 8.158013 -0.446263 16.846817 0.184047 -0.253896 0.183937
 30 12.284374 0.200996 -15.879509 -1.073499 -0.618246 -1.108256
 31 6.919270 -3.849014 -10.201530 -0.088245 -0.076199 -0.105809
 32 1.801682 -1.439342 -4.598675 0.000000 -0.000000 0.000000
 33 0.275625 -0.653329 2.573692 0.000000 -0.000000 0.000000
 34 -2.128445 3.188605 168.111557 0.000000 -0.000000 0.000000
time 26
  0 -2.408944 2.128008 -1.071352 0.000000 -0.000000 0.000000
  1 -2.408944 2.128008 -1.071352 0.000000 -0.000000 0.000000
  2 -2.408944 2.128008 -1.071352 0.000000 -0.000000 0.000000
  3 0.000000 -9.301641 85.177925 0.172958 0.000000 0.000000
  4 0.000000 0.380082 -2.358139 -0.116947 0.000000 0.000000
  5 -6.962073 -1.123270 -14.918678 -0.353160 0.028123 -0.147331
  6 -0.762898 1.783213 -29.522808 0.488462 0.007561 0.003280
  7 -1.525354 0.897311 -28.921165 -0.142126 -0.024418 -0.002678
  8 0.354391 -2.635783 -5.445796 0.000000 -0.000000 0.000000
  9 7.456964 -0.120268 -14.357979 0.000941 -0.070396 -0.008715
 10 0.913360 0.804957 -30.266212 0.384390 0.020659 0.010530
 11 1.054035 0.998078 -28.738482 -0.288637 0.003214 0.009670
 12 0.073698 -2.761299 -5.395098 0.000000 -0.000000 0.000000
 13 0.184103 2.405381 6.536690 -0.017453 0.000000 0.000000
 14 -2.507427 0.706861 2.240990 -0.028106 0.035465 -0.608946
 15 3.250292 -0.229967 -90.900146 0.017445 -0.006626 0.385211
 16 1.065002 0.706861 2.240990 -0.010881 -0.017338 0.378349
 17 -2.362350 -0.468018 -90.905487 0.017471 0.007558 -0.441260
 18 0.000000 -0.154718 2.376083 -0.082385 -0.015397 -0.181049
 19 0.646873 -1.121444 24.709145 0.137590 0.006764 0.252218
 20 -0.331074 15.401076 -4.448265 0.698694 -0.078151 -0.057224
 21 0.294691 4.810112 -18.307007 0.226156 0.000000 -0.000001
 22 -1.097139 0.677547 9.228615 0.000000 -0.000000 0.000000
 23 -7.043963 -0.624742 16.699600 -0.819957 0.447877 -0.102581
 24 -13.119778 0.402672 -15.778534 0.006507 -0.006470 0.469872
 25 -6.930321 -3.869400 -10.071304 -0.146504 0.258143 -0.038218
 26 -1.440529 -1.851315 -5.643745 0.052020 0.091792 0.093927
 27 30.607498 4.937208 -71.660194 0.000000 -0.000000 0.000000
 28 -2.740807 -1.783825 -4.956821 0.000000 -0.000000 0.000000
 29 8.158012 -0.446264 16.846817 0.184047 -0.253896 0.183937
 30 12.284378 0.200998 -15.879509 -1.073499 -0.618246 -1.108256
 31 6.919270 -3.849010 -10.201530 -0.088245 -0.076199 -0.105809
 32 1.801674 -1.439342 -4.598675 0.000000 -0.000000 0.000000
 33 0.275625 -0.653330 2.573700 0.000000 -0.000000 0.000000
 34 -2.128445 3.188605 168.111557 0.000000 -0.000000 0.000000
time 27
  0 -2.408944 2.128008 -1.071352 0.000000 -0.000000 0.000000
  1 -2.408944 2.128008 -1.071352 0.000000 -0.000000 0.000000
  2 -2.408944 2.128008 -1.071352 0.000000 -0.000000 0.000000
  3 0.000000 -7.847452 85.057556 0.150377 0.000000 0.000000
  4 -0.000000 0.380080 -2.358139 -0.102248 -0.000000 0.000000
  5 -6.962073 -1.123271 -14.918678 -0.315100 0.040285 -0.146545
  6 -0.762899 1.783215 -29.522808 0.479121 0.006206 0.002692
  7 -1.525354 0.897310 -28.921165 -0.169049 -0.028852 -0.002860
  8 0.354392 -2.635783 -5.445797 0.000000 -0.000000 0.000000
  9 7.456964 -0.120269 -14.357979 -0.012072 -0.084211 -0.010425
 10 0.913361 0.804957 -30.266212 0.378105 0.022530 0.011484
 11 1.054037 0.998076 -28.738483 -0.284018 0.003799 0.011432
 12 0.073698 -2.761297 -5.395098 0.000000 -0.000000 0.000000
 13 0.184103 2.405381 6.536690 -0.017453 0.000000 0.000000
 14 -2.507426 0.706861 2.240997 -0.023601 0.030153 -0.554575
 15 3.250291 -0.229967 -90.900131 0.017445 -0.006626 0.385211
 16 1.065001 0.706861 2.240997 -0.009310 -0.014677 0.338145
 17 -2.362349 -0.468017 -90.905487 0.017471 0.007558 -0.441260
 18 0.000000 -0.154719 2.376091 -0.106022 -0.012879 -0.151435
 19 0.646873 -1.121444 24.709145 0.155052 0.005208 0.210963
 20 -0.331074 15.401075 -4.448265 0.575016 -0.067082 -0.049119
 21 0.294691 4.810120 -18.306999 0.159247 0.000000 -0.000001
 22 -1.097138 0.677547 9.228630 0.000000 -0.000000 0.000000
 23 -7.043964 -0.624740 16.699593 -0.702701 0.472709 0.133854
 24 -13.119781 0.402668 -15.778530 -0.098046 0.028414 0.468165
 25 -6.930321 -3.869400 -10.071304 -0.168922 0.255675 -0.038811
 26 -1.440521 -1.851318 -5.643753 0.052020 0.091792 0.093927
 27 30.607498 4.937189 -71.660202 0.000000 -0.000000 0.000000
 28 -2.740807 -1.783829 -4.956821 0.000000 -0.000000 0.000000
 29 8.158014 -0.446265 16.846817 0.184047 -0.253896 0.183937
 30 12.284378 0.200994 -15.879509 -1.073499 -0.618246 -1.108255
 31 6.919273 -3.849018 -10.201530 -0.088245 -0.076199 -0.105809
 32 1.801674 -1.439342 -4.598671 0.000000 -0.000000 0.000000
 33 0.275626 -0.653330 2.573700 0.000000 -0.000000 0.000000
 34 -2.128445 3.188605 168.111557 0.000000 -0.000000 0.000000
time 28
  0 -2.408944 2.128008 -1.071352 0.000000 -0.000000 0.000000
  1 -2.408944 2.128008 -1.071352 0.000000 -0.000000 0.000000
  2 -2.408944 2.128008 -1.071352 0.000000 -0.000000 0.000000
  3 0.000000 -6.433203 84.940491 0.128209 0.000000 0.000000
  4 0.000000 0.380081 -2.358139 -0.088393 0.000000 0.000000
  5 -6.962073 -1.123271 -14.918678 -0.277524 0.052294 -0.145801
  6 -0.762898 1.783218 -29.522812 0.470318 0.004929 0.002138
  7 -1.525354 0.897309 -28.921169 -0.194424 -0.033031 -0.003032
  8 0.354393 -2.635783 -5.445796 0.000000 -0.000000 0.000000
  9 7.456964 -0.120268 -14.357979 -0.024087 -0.097851 -0.012114
 10 0.913358 0.804957 -30.266216 0.372181 0.024293 0.012383
 11 1.054033 0.998075 -28.738480 -0.279484 0.004374 0.013162
 12 0.073698 -2.761298 -5.395098 0.000000 -0.000000 0.000000
 13 0.184103 2.405381 6.536690 -0.017453 0.000000 0.000000
 14 -2.507426 0.706861 2.240982 -0.019281 0.025060 -0.502431
 15 3.250292 -0.229967 -90.900162 0.017445 -0.006626 0.385211
 16 1.065002 0.706861 2.240982 -0.007803 -0.012126 0.299588
 17 -2.362350 -0.468018 -90.905495 0.017471 0.007558 -0.441260
 18 0.000000 -0.154719 2.376091 -0.129227 -0.010406 -0.122361
 19 0.646873 -1.121443 24.709152 0.172195 0.003884 0.170461
 20 -0.331074 15.401075 -4.448273 0.444965 -0.055443 -0.040597
 21 0.294691 4.810104 -18.306999 0.094175 0.000000 -0.000001
 22 -1.097139 0.677547 9.228622 0.000000 -0.000000 0.000000
 23 -7.043962 -0.624741 16.699585 -0.587585 0.496304 0.365974
 24 -13.119778 0.402660 -15.778530 -0.201181 0.063081 0.466279
 25 -6.930328 -3.869404 -10.071297 -0.190050 0.253350 -0.039371
 26 -1.440521 -1.851322 -5.643745 0.052020 0.091792 0.093927
 27 30.607506 4.937191 -71.660187 0.000000 -0.000000 0.000000
 28 -2.740814 -1.783825 -4.956814 0.000000 -0.000000 0.000000
 29 8.158012 -0.446265 16.846817 0.184047 -0.253896 0.183937
 30 12.284378 0.200997 -15.879509 -1.073499 -0.618246 -1.108256
 31 6.919277 -3.849014 -10.201534 -0.088245 -0.076199 -0.105809
 32 1.801674 -1.439342 -4.598675 0.000000 -0.000000 0.000000
 33 0.275626 -0.653330 2.573700 0.000000 -0.000000 0.000000
 34 -2.128445 3.188605 168.111557 0.000000 -0.000000 0.000000
time 29
  0 -2.408944 2.128008 -1.071352 0.000000 -0.000000 0.000000
  1 -2.408944 2.128008 -1.071352 0.000000 -0.000000 0.000000
  2 -2.408944 2.128008 -1.071352 0.000000 -0.000000 0.000000
  3 0.000000 -5.093912 84.829628 0.107051 0.000000 0.000000
  4 0.000000 0.380080 -2.358139 -0.075620 0.000000 0.000000
  5 -6.962073 -1.123270 -14.918663 -0.241497 0.063807 -0.145112
  6 -0.762900 1.783216 -29.522812 0.462201 0.003752 0.001628
  7 -1.525355 0.897309 -28.921165 -0.217819 -0.036883 -0.003190
  8 0.354391 -2.635783 -5.445797 0.000000 -0.000000 0.000000
  9 7.456964 -0.120268 -14.357964 -0.034963 -0.110929 -0.013733
 10 0.913360 0.804957 -30.266220 0.366719 0.025919 0.013211
 11 1.054034 0.998078 -28.738482 -0.275156 0.004923 0.014813
 12 0.073698 -2.761297 -5.395097 0.000000 -0.000000 0.000000
 13 0.184103 2.405380 6.536697 -0.017453 0.000000 0.000000
 14 -2.507427 0.706861 2.240997 -0.015237 0.020292 -0.453627
 15 3.250292 -0.229967 -90.900131 0.017445 -0.006626 0.385211
 16 1.065001 0.706861 2.240997 -0.006393 -0.009738 0.263501
 17 -2.362349 -0.468017 -90.905495 0.017471 0.007558 -0.441260
 18 0.000000 -0.154718 2.376091 -0.151374 -0.008046 -0.094614
 19 0.646873 -1.121444 24.709145 0.188556 0.002777 0.131806
 20 -0.331073 15.401075 -4.448265 0.314128 -0.043734 -0.032023
 21 0.294691 4.810116 -18.306999 0.032553 0.000000 -0.000001
 22 -1.097138 0.677547 9.228622 0.000000 -0.000000 0.000000
 23 -7.043964 -0.624741 16.699593 -0.477721 0.518212 0.587505
 24 -13.119781 0.402664 -15.778522 -0.299993 0.096494 0.464314
 25 -6.930321 -3.869404 -10.071304 -0.209530 0.251206 -0.039887
 26 -1.440521 -1.851315 -5.643753 0.052020 0.091792 0.093927
 27 30.607506 4.937193 -71.660202 0.000000 -0.000000 0.000000
 28 -2.740807 -1.783823 -4.956821 0.000000 -0.000000 0.000000
 29 8.158014 -0.446264 16.846817 0.184047 -0.253896 0.183937
 30 12.284378 0.200995 -15.879509 -1.073499 -0.618245 -1.108255
 31 6.919273 -3.849010 -10.201530 -0.088245 -0.076199 -0.105809
 32 1.801674 -1.439339 -4.598671 0.000000 -0.000000 0.000000
 33 0.275626 -0.653330 2.573700 0.000000 -0.000000 0.000000
 34 -2.128445 3.188605 168.111557 0.000000 -0.000000 0.000000
time 30
  0 -2.408944 2.128008 -1.071352 0.000000 -0.000000 0.000000
  1 -2.408944 2.128008 -1.071352 0.000000 -0.000000 0.000000
  2 -2.408944 2.128008 -1.071352 0.000000 -0.000000 0.000000
  3 0.000000 -3.864594 84.727859 0.087504 0.000000 0.000000
  4 0.000000 0.380080 -2.358147 -0.064163 0.000000 0.000000
  5 -6.962073 -1.123271 -14.918678 -0.208087 0.074484 -0.144492
  6 -0.762899 1.783215 -29.522808 0.454922 0.002696 0.001170
  7 -1.525354 0.897310 -28.921162 -0.238802 -0.040339 -0.003332
  8 0.354393 -2.635783 -5.445797 0.000000 -0.000000 0.000000
  9 7.456964 -0.120268 -14.357979 -0.044557 -0.123057 -0.015234
 10 0.913359 0.804957 -30.266220 0.361821 0.027377 0.013954
 11 1.054034 0.998077 -28.738478 -0.271158 0.005429 0.016339
 12 0.073698 -2.761297 -5.395098 0.000000 -0.000000 0.000000
 13 0.184103 2.405381 6.536690 -0.017453 0.000000 0.000000
 14 -2.507427 0.706861 2.240997 -0.011562 0.015960 -0.409276
 15 3.250291 -0.229967 -90.900139 0.017445 -0.006626 0.385211
 16 1.065001 0.706861 2.240990 -0.005111 -0.007568 0.230707
 17 -2.362350 -0.468017 -90.905487 0.017471 0.007558 -0.441260
 18 0.000000 -0.154719 2.376076 -0.171835 -0.005866 -0.068979
 19 0.646873 -1.121443 24.709145 0.203672 0.001875 0.096094
 20 -0.331074 15.401076 -4.448265 0.188093 -0.032454 -0.023764
 21 0.294691 4.810116 -18.306992 -0.024010 0.000000 -0.000001
 22 -1.097139 0.677547 9.228622 0.000000 -0.000000 0.000000
 23 -7.043963 -0.624741 16.699593 -0.376220 0.537984 0.792172
 24 -13.119781 0.402668 -15.778526 -0.391575 0.127614 0.462374
 25 -6.930313 -3.869404 -10.071312 -0.227001 0.249283 -0.040349
 26 -1.440529 -1.851316 -5.643749 0.052020 0.091792 0.093927
 27 30.607521 4.937185 -71.660202 0.000000 -0.000000 0.000000
 28 -2.740814 -1.783821 -4.956820 0.000000 -0.000000 0.000000
 29 8.158012 -0.446264 16.846825 0.184047 -0.253896 0.183937
 30 12.284378 0.200995 -15.879509 -1.073499 -0.618246 -1.108256
 31 6.919273 -3.849010 -10.201530 -0.088245 -0.076199 -0.105809
 32 1.801682 -1.439339 -4.598675 0.000000 -0.000000 0.000000
 33 0.275625 -0.653330 2.573708 0.000000 -0.000000 0.000000
 34 -2.128445 3.188605 168.111557 0.000000 -0.000000 0.000000
time 31
  0 -2.408944 2.128008 -1.071352 0.000000 -0.000000 0.000000
  1 -2.408944 2.128008 -1.071352 0.000000 -0.000000 0.000000
  2 -2.408944 2.128008 -1.071352 0.000000 -0.000000 0.000000
  3 0.000000 -2.780268 84.638107 0.070167 0.000000 0.000000
  4 0.000000 0.380081 -2.358147 -0.054261 -0.000000 0.000000
  5 -6.962073 -1.123271 -14.918686 -0.178360 0.083983 -0.143954
  6 -0.762898 1.783215 -29.522808 0.448629 0.001783 0.000774
  7 -1.525355 0.897308 -28.921162 -0.256939 -0.043326 -0.003455
  8 0.354393 -2.635783 -5.445796 0.000000 -0.000000 0.000000
  9 7.456964 -0.120268 -14.357979 -0.052726 -0.133848 -0.016570
 10 0.913359 0.804957 -30.266216 0.357587 0.028637 0.014597
 11 1.054034 0.998077 -28.738480 -0.267612 0.005879 0.017692
 12 0.073697 -2.761297 -5.395098 0.000000 -0.000000 0.000000
 13 0.184103 2.405381 6.536690 -0.017453 0.000000 0.000000
 14 -2.507427 0.706861 2.240982 -0.008348 0.012172 -0.370493
 15 3.250292 -0.229966 -90.900146 0.017445 -0.006626 0.385211
 16 1.065001 0.706861 2.240982 -0.003990 -0.005670 0.202029
 17 -2.362349 -0.468018 -90.905479 0.017471 0.007558 -0.441260
 18 0.000000 -0.154718 2.376083 -0.189983 -0.003933 -0.046242
 19 0.646873 -1.121443 24.709145 0.217078 0.001166 0.064420
 20 -0.331074 15.401073 -4.448273 0.072446 -0.022103 -0.016185
 21 0.294691 4.810120 -18.306999 -0.073902 0.000000 -0.000001
 22 -1.097139 0.677547 9.228615 0.000000 -0.000000 0.000000
 23 -7.043964 -0.624741 16.699593 -0.286195 0.555170 0.973698
 24 -13.119781 0.402666 -15.778534 -0.473021 0.155403 0.460559
 25 -6.930321 -3.869400 -10.071304 -0.242103 0.247621 -0.040749
 26 -1.440521 -1.851318 -5.643751 0.052020 0.091792 0.093927
 27 30.607491 4.937185 -71.660202 0.000000 -0.000000 0.000000
 28 -2.740814 -1.783823 -4.956821 0.000000 -0.000000 0.000000
 29 8.158012 -0.446263 16.846817 0.184047 -0.253896 0.183937
 30 12.284372 0.200998 -15.879509 -1.073499 -0.618246 -1.108256
 31 6.919273 -3.849014 -10.201530 -0.088245 -0.076199 -0.105809
 32 1.801674 -1.439339 -4.598679 0.000000 -0.000000 0.000000
 33 0.275625 -0.653330 2.573700 0.000000 -0.000000 0.000000
 34 -2.128445 3.188605 168.111557 0.000000 -0.000000 0.000000
time 32
  0 -2.408944 2.128008 -1.071352 0.000000 -0.000000 0.000000
  1 -2.408944 2.128008 -1.071352 0.000000 -0.000000 0.000000
  2 -2.408944 2.128008 -1.071352 0.000000 -0.000000 0.000000
  3 0.000000 -1.875947 84.563255 0.055640 0.000000 0.000000
  4 0.000000 0.380081 -2.358139 -0.046147 0.000000 0.000000
  5 -6.962073 -1.123270 -14.918678 -0.153382 0.091966 -0.143512
  6 -0.762899 1.783215 -29.522812 0.443474 0.001036 0.000449
  7 -1.525356 0.897309 -28.921165 -0.271799 -0.045773 -0.003556
  8 0.354393 -2.635783 -5.445796 0.000000 -0.000000 0.000000
  9 7.456964 -0.120268 -14.357979 -0.059328 -0.142914 -0.017692
 10 0.913359 0.804957 -30.266224 0.354118 0.029670 0.015123
 11 1.054035 0.998074 -28.738487 -0.264640 0.006256 0.018825
 12 0.073698 -2.761297 -5.395099 0.000000 -0.000000 0.000000
 13 0.184103 2.405381 6.536697 -0.017453 0.000000 0.000000
 14 -2.507427 0.706861 2.240982 -0.005688 0.009036 -0.338390
 15 3.250292 -0.229967 -90.900169 0.017445 -0.006626 0.385211
 16 1.065001 0.706861 2.240982 -0.003063 -0.004099 0.178291
 17 -2.362350 -0.468018 -90.905487 0.017471 0.007558 -0.441260
 18 0.000000 -0.154719 2.376083 -0.205190 -0.002312 -0.027190
 19 0.646873 -1.121442 24.709145 0.228313 0.000637 0.037879
 20 -0.331074 15.401074 -4.448265 -0.027227 -0.013183 -0.009653
 21 0.294691 4.810116 -18.307007 -0.115511 0.000000 -0.000001
 22 -1.097139 0.677547 9.228630 0.000000 -0.000000 0.000000
 23 -7.043964 -0.624741 16.699593 -0.210759 0.569320 1.125808
 24 -13.119781 0.402667 -15.778530 -0.541427 0.178824 0.458970
 25 -6.930321 -3.869400 -10.071308 -0.254476 0.246259 -0.041077
 26 -1.440529 -1.851316 -5.643751 0.052020 0.091792 0.093927
 27 30.607521 4.937188 -71.660194 0.000000 -0.000000 0.000000
 28 -2.740822 -1.783823 -4.956820 0.000000 -0.000000 0.000000
 29 8.158014 -0.446263 16.846817 0.184047 -0.253896 0.183937
 30 12.284376 0.200997 -15.879501 -1.073499 -0.618246 -1.108255
 31 6.919277 -3.849014 -10.201530 -0.088245 -0.076199 -0.105809
 32 1.801674 -1.439339 -4.598675 0.000000 -0.000000 0.000000
 33 0.275625 -0.653329 2.573700 0.000000 -0.000000 0.000000
 34 -2.128445 3.188605 168.111557 0.000000 -0.000000 0.000000
time 33
  0 -2.408944 2.128008 -1.071352 0.000000 -0.000000 0.000000
  1 -2.408944 2.128008 -1.071352 0.000000 -0.000000 0.000000
  2 -2.408944 2.128008 -1.071352 0.000000 -0.000000 0.000000
  3 0.000000 -1.186651 84.506195 0.044521 0.000000 0.000000
  4 0.000000 0.380081 -2.358154 -0.040060 0.000000 0.000000
  5 -6.962073 -1.123270 -14.918678 -0.134221 0.098089 -0.143179
  6 -0.762899 1.783215 -29.522808 0.439606 0.000475 0.000206
  7 -1.525354 0.897311 -28.921165 -0.282949 -0.047609 -0.003631
  8 0.354389 -2.635783 -5.445797 0.000000 -0.000000 0.000000
  9 7.456964 -0.120268 -14.357979 -0.064221 -0.149870 -0.018554
 10 0.913357 0.804958 -30.266220 0.351515 0.030445 0.015518
 11 1.054032 0.998075 -28.738483 -0.262366 0.006544 0.019693
 12 0.073696 -2.761298 -5.395099 0.000000 -0.000000 0.000000
 13 0.184103 2.405381 6.536690 -0.017453 0.000000 0.000000
 14 -2.507427 0.706861 2.240990 -0.003674 0.006661 -0.314080
 15 3.250292 -0.229967 -90.900154 0.017445 -0.006626 0.385211
 16 1.065001 0.706861 2.240990 -0.002360 -0.002910 0.160316
 17 -2.362349 -0.468017 -90.905479 0.017471 0.007558 -0.441260
 18 0.000000 -0.154718 2.376076 -0.216829 -0.001072 -0.012608
 19 0.646873 -1.121442 24.709145 0.236911 0.000274 0.017565
 20 -0.331074 15.401073 -4.448265 -0.105339 -0.006192 -0.004534
 21 0.294691 4.810116 -18.306999 -0.147226 0.000000 -0.000000
 22 -1.097139 0.677547 9.228622 0.000000 -0.000000 0.000000
 23 -7.043964 -0.624741 16.699585 -0.153023 0.579984 1.242228
 24 -13.119781 0.402664 -15.778526 -0.593886 0.196839 0.457710
 25 -6.930321 -3.869404 -10.071308 -0.263760 0.245237 -0.041323
 26 -1.440521 -1.851316 -5.643749 0.052020 0.091792 0.093927
 27 30.607513 4.937182 -71.660194 0.000000 -0.000000 0.000000
 28 -2.740807 -1.783823 -4.956821 0.000000 -0.000000 0.000000
 29 8.158014 -0.446264 16.846817 0.184047 -0.253896 0.183937
 30 12.284374 0.200996 -15.879501 -1.073499 -0.618246 -1.108256
 31 6.919277 -3.849018 -10.201530 -0.088245 -0.076199 -0.105809
 32 1.801666 -1.439339 -4.598671 0.000000 -0.000000 0.000000
 33 0.275625 -0.653329 2.573692 0.000000 -0.000000 0.000000
 34 -2.128445 3.188605 168.111557 0.000000 -0.000000 0.000000
time 34
  0 -2.408944 2.128008 -1.071352 0.000000 -0.000000 0.000000
  1 -2.408944 2.128008 -1.071352 0.000000 -0.000000 0.000000
  2 -2.408944 2.128008 -1.071352 0.000000 -0.000000 0.000000
  3 0.000000 -0.747393 84.469833 0.037410 0.000000 0.000000
  4 0.000000 0.380080 -2.358139 -0.036234 -0.000000 0.000000
  5 -6.962073 -1.123270 -14.918678 -0.121941 0.102013 -0.142970
  6 -0.762897 1.783216 -29.522812 0.437175 0.000122 0.000053
  7 -1.525356 0.897307 -28.921165 -0.289956 -0.048763 -0.003679
  8 0.354391 -2.635782 -5.445797 0.000000 -0.000000 0.000000
  9 7.456964 -0.120268 -14.357979 -0.067261 -0.154327 -0.019105
 10 0.913357 0.804956 -30.266212 0.349880 0.030932 0.015766
 11 1.054035 0.998076 -28.738483 -0.260911 0.006729 0.020248
 12 0.073696 -2.761297 -5.395098 0.000000 -0.000000 0.000000
 13 0.184103 2.405381 6.536690 -0.017453 0.000000 0.000000
 14 -2.507427 0.706861 2.240990 -0.002398 0.005156 -0.298678
 15 3.250292 -0.229967 -90.900154 0.017445 -0.006626 0.385211
 16 1.065002 0.706861 2.240990 -0.001915 -0.002156 0.148927
 17 -2.362350 -0.468018 -90.905487 0.017471 0.007558 -0.441260
 18 0.000000 -0.154718 2.376083 -0.224272 -0.000279 -0.003283
 19 0.646873 -1.121445 24.709145 0.242409 0.000066 0.004574
 20 -0.331074 15.401074 -4.448265 -0.156303 -0.001631 -0.001195
 21 0.294691 4.810116 -18.306999 -0.167437 0.000000 -0.000000
 22 -1.097139 0.677547 9.228615 0.000000 -0.000000 0.000000
 23 -7.043962 -0.624742 16.699585 -0.116098 0.586712 1.316682
 24 -13.119781 0.402665 -15.778534 -0.627492 0.208409 0.456880
 25 -6.930321 -3.869404 -10.071304 -0.269594 0.244595 -0.041477
 26 -1.440521 -1.851318 -5.643753 0.052020 0.091792 0.093927
 27 30.607513 4.937162 -71.660194 0.000000 -0.000000 0.000000
 28 -2.740807 -1.783823 -4.956822 0.000000 -0.000000 0.000000
 29 8.158014 -0.446263 16.846809 0.184047 -0.253896 0.183937
 30 12.284380 0.200998 -15.879501 -1.073499 -0.618246 -1.108255
 31 6.919277 -3.849018 -10.201534 -0.088245 -0.076199 -0.105809
 32 1.801666 -1.439342 -4.598679 0.000000 -0.000000 0.000000
 33 0.275625 -0.653330 2.573692 0.000000 -0.000000 0.000000
 34 -2.128445 3.188605 168.111557 0.000000 -0.000000 0.000000
time 35
  0 -2.408944 2.128008 -1.071352 0.000000 -0.000000 0.000000
  1 -2.408944 2.128008 -1.071352 0.000000 -0.000000 0.000000
  2 -2.408944 2.128008 -1.071352 0.000000 -0.000000 0.000000
  3 0.000000 -0.593194 84.457069 0.034907 0.000000 0.000000
  4 0.000000 0.380081 -2.358139 -0.034906 0.000000 0.000000
  5 -6.962072 -1.123270 -14.918671 -0.117611 0.103397 -0.142897
  6 -0.762899 1.783216 -29.522816 0.436331 -0.000000 0.000000
  7 -1.525352 0.897307 -28.921162 -0.292388 -0.049164 -0.003695
  8 0.354395 -2.635782 -5.445796 0.000000 -0.000000 0.000000
  9 7.456964 -0.120268 -14.357979 -0.068305 -0.155899 -0.019300
 10 0.913359 0.804958 -30.266220 0.349312 0.031101 0.015853
 11 1.054034 0.998074 -28.738480 -0.260399 0.006793 0.020443
 12 0.073698 -2.761296 -5.395098 0.000000 -0.000000 0.000000
 13 0.184103 2.405381 6.536697 -0.017453 0.000000 0.000000
 14 -2.507427 0.706861 2.240990 -0.001952 0.004631 -0.293297
 15 3.250292 -0.229967 -90.900162 0.017445 -0.006626 0.385211
 16 1.065002 0.706861 2.240982 -0.001760 -0.001893 0.144948
 17 -2.362350 -0.468017 -90.905487 0.017471 0.007558 -0.441260
 18 0.000000 -0.154718 2.376091 -0.226892 -0.000000 0.000000
 19 0.646873 -1.121443 24.709145 0.244345 -0.000000 0.000000
 20 -0.331074 15.401075 -4.448265 -0.174533 0.000000 -0.000000
 21 0.294691 4.810116 -18.307007 -0.174532 0.000000 -0.000000
 22 -1.097139 0.677547 9.228622 0.000000 -0.000000 0.000000
 23 -7.043964 -0.624741 16.699585 -0.103099 0.589055 1.342894
 24 -13.119774 0.402666 -15.778526 -0.639340 0.212496 0.456580
 25 -6.930321 -3.869404 -10.071301 -0.271619 0.244372 -0.041531
 26 -1.440529 -1.851320 -5.643750 0.052020 0.091792 0.093927
 27 30.607529 4.937181 -71.660202 0.000000 -0.000000 0.000000
 28 -2.740814 -1.783825 -4.956820 0.000000 -0.000000 0.000000
 29 8.158012 -0.446264 16.846817 0.184047 -0.253896 0.183937
 30 12.284376 0.200996 -15.879509 -1.073499 -0.618246 -1.108256
 31 6.919273 -3.849014 -10.201530 -0.088245 -0.076199 -0.105809
 32 1.801674 -1.439339 -4.598671 0.000000 -0.000000 0.000000
 33 0.275625 -0.653330 2.573700 0.000000 -0.000000 0.000000
 34 -2.128445 3.188605 168.111557 0.000000 -0.000000 0.000000
end
