version 1
nodes
  0 "bone33"  -1
  1 "bone21"  -1
  2 "bone20"   1
  3 "bone07"   2
  4 "bone22"   3
  5 "bone18"   4
  6 "bone14"   2
  7 "bone16"   6
  8 "bone19"   7
  9 "bone03"   1
 10 "bone06"   9
 11 "bone08"   9
 12 "bone05"  11
 13 "bone09"  12
 14 "bone11"  13
 15 "BOX001"  14
 16 "bone02"   9
 17 "bone04"  16
 18 "bone10"  17
end
skeleton
time 0
  0 1.089372 -2.364846 -2.772400 0.000000 -0.000000 0.000000
  1 -0.114210 -4.321804 92.531555 0.000000 -0.000000 0.000000
  2 0.000000 0.426100 -2.643661 -0.034906 0.000000 0.000000
  3 -7.805030 -1.259274 -16.725006 -0.117611 0.103397 -0.142897
  4 -0.855268 1.999125 -33.097389 0.436331 -0.000000 0.000000
  5 -1.710042 1.005950 -32.422897 -0.292388 -0.049164 -0.003695
  6 8.359842 -0.134830 -16.096420 -0.068305 -0.155899 -0.019300
  7 1.023949 0.902421 -33.930801 0.349312 0.031101 0.015853
  8 1.181654 1.118915 -32.218094 -0.260399 0.006793 0.020443
  9 0.000000 -0.173451 2.663780 -0.226893 0.000000 0.000001
 10 0.725195 -1.257227 27.700890 0.244345 -0.000000 0.000000
 11 -7.896836 -0.700382 18.721550 -0.103099 0.589055 1.342894
 12 -14.708305 0.451420 -17.688972 -0.639340 0.212496 0.456580
 13 -7.769432 -4.337902 -11.290722 -0.271619 0.244372 -0.041531
 14 -1.614937 -2.075470 -6.327097 0.052019 0.091792 0.093927
 15 34.313499 6.017464 -79.785133 -0.000000 -0.000000 0.000000
 16 9.145774 -0.500296 18.886604 0.184047 -0.253896 0.183937
 17 13.771751 0.225331 -17.802185 -1.073499 -0.618246 -1.108256
 18 7.757050 -4.315044 -11.436718 -0.088245 -0.076199 -0.105809
time 1
  0 1.089372 -2.364846 -2.772400 0.000000 -0.000000 0.000000
  1 -0.114210 -3.581287 92.626335 -0.002714 -0.000000 -0.000000
  2 0.000000 0.426100 -2.643654 -0.034906 -0.000000 0.000000
  3 -7.805030 -1.259274 -16.725014 -0.123977 0.101133 -0.143126
  4 -0.855270 1.999123 -33.097382 0.439882 0.000525 0.000220
  5 -1.710043 1.005954 -32.422890 -0.294283 -0.049351 -0.003291
  6 8.359842 -0.134830 -16.096420 -0.063997 -0.153079 -0.018951
  7 1.023949 0.902419 -33.930801 0.349312 0.031101 0.015853
  8 1.181656 1.118919 -32.218094 -0.257233 0.006715 0.020073
  9 0.000000 -0.173452 2.663780 -0.230850 0.003315 -0.012908
 10 0.725195 -1.257225 27.700897 0.242567 -0.005255 0.015464
 11 -7.896836 -0.700382 18.721558 -0.182648 0.563861 1.299176
 12 -14.708290 0.451420 -17.688961 -0.638264 0.212097 0.456067
 13 -7.769440 -4.337910 -11.290722 -0.272935 0.243210 -0.050237
 14 -1.614944 -2.075470 -6.327096 0.052019 0.091792 0.093927
 15 34.313538 6.017438 -79.785156 -0.000000 -0.000000 -0.000000
 16 9.145774 -0.500298 18.886620 0.184047 -0.253896 0.183937
 17 13.771755 0.225330 -17.802177 -1.073499 -0.618246 -1.108256
 18 7.757050 -4.315048 -11.436718 -0.088245 -0.076199 -0.105809
time 2
  0 1.089372 -2.364846 -2.772400 0.000000 -0.000000 0.000000
  1 -0.114210 -1.584082 92.881958 -0.010035 -0.000000 -0.000000
  2 0.000000 0.426100 -2.643661 -0.034906 -0.000000 0.000000
  3 -7.805030 -1.259274 -16.725006 -0.141644 0.094850 -0.143762
  4 -0.855270 1.999125 -33.097389 0.450067 0.002024 0.000863
  5 -1.710043 1.005953 -32.422894 -0.299543 -0.049872 -0.002170
  6 8.359842 -0.134830 -16.096420 -0.051720 -0.145253 -0.017982
  7 1.023949 0.902420 -33.930805 0.349312 0.031101 0.015853
  8 1.181658 1.118919 -32.218105 -0.248181 0.006492 0.019047
  9 0.000000 -0.173452 2.663773 -0.241523 0.012257 -0.047723
 10 0.725195 -1.257227 27.700890 0.237599 -0.019427 0.057172
 11 -7.896837 -0.700384 18.721550 -0.397195 0.495910 1.181266
 12 -14.708298 0.451420 -17.688957 -0.634996 0.210846 0.454405
 13 -7.769432 -4.337906 -11.290722 -0.276650 0.239929 -0.074806
 14 -1.614952 -2.075470 -6.327097 0.052019 0.091792 0.093927
 15 34.313522 6.017447 -79.785133 0.000000 -0.000000 0.000000
 16 9.145774 -0.500298 18.886604 0.184047 -0.253896 0.183937
 17 13.771759 0.225330 -17.802177 -1.073499 -0.618246 -1.108255
 18 7.757042 -4.315048 -11.436714 -0.088245 -0.076199 -0.105809
time 3
  0 1.089372 -2.364846 -2.772400 0.000000 -0.000000 0.000000
  1 -0.114210 1.333292 93.255348 -0.020729 -0.000000 -0.000000
  2 0.000000 0.426100 -2.643654 -0.034906 0.000000 -0.000000
  3 -7.805030 -1.259274 -16.725006 -0.168465 0.085310 -0.144729
  4 -0.855270 1.999124 -33.097389 0.466183 0.004380 0.001901
  5 -1.710043 1.005953 -32.422890 -0.307528 -0.050663 -0.000468
  6 8.359841 -0.134830 -16.096420 -0.032450 -0.133372 -0.016511
  7 1.023947 0.902421 -33.930805 0.349312 0.031101 0.015853
  8 1.181654 1.118915 -32.218098 -0.233911 0.006144 0.017489
  9 0.000000 -0.173452 2.663780 -0.257113 0.025317 -0.098579
 10 0.725195 -1.257221 27.700890 0.229994 -0.040128 0.118095
 11 -7.896836 -0.700382 18.721550 -0.710589 0.396652 1.009031
 12 -14.708313 0.451416 -17.688972 -0.629472 0.208665 0.451414
 13 -7.769432 -4.337902 -11.290725 -0.282411 0.234843 -0.112907
 14 -1.614944 -2.075478 -6.327099 0.052019 0.091792 0.093927
 15 34.313522 6.017479 -79.785156 -0.000000 -0.000000 0.000000
 16 9.145771 -0.500296 18.886604 0.184047 -0.253896 0.183937
 17 13.771751 0.225332 -17.802185 -1.073499 -0.618246 -1.108256
 18 7.757057 -4.315044 -11.436718 -0.088245 -0.076199 -0.105809
time 4
  0 1.089372 -2.364846 -2.772400 0.000000 -0.000000 0.000000
  1 -0.114210 4.834316 93.703445 -0.033562 -0.000000 -0.000000
  2 -0.000000 0.426100 -2.643669 -0.034906 -0.000000 -0.000000
  3 -7.805030 -1.259274 -16.724998 -0.202294 0.073278 -0.145947
  4 -0.855270 1.999123 -33.097389 0.487527 0.007479 0.003305
  5 -1.710041 1.005953 -32.422897 -0.317600 -0.051660 0.001679
  6 8.359843 -0.134830 -16.096413 -0.007162 -0.118386 -0.014656
  7 1.023947 0.902420 -33.930817 0.349312 0.031101 0.015853
  8 1.181654 1.118918 -32.218102 -0.215092 0.005687 0.015524
  9 0.000000 -0.173452 2.663773 -0.275822 0.040991 -0.159609
 10 0.725195 -1.257225 27.700890 0.220306 -0.064970 0.191207
 11 -7.896836 -0.700382 18.721550 -1.086682 0.277537 0.802339
 12 -14.708305 0.451424 -17.688971 -0.621631 0.205473 0.446912
 13 -7.769432 -4.337902 -11.290724 -0.289866 0.228260 -0.162213
 14 -1.614929 -2.075470 -6.327095 0.052019 0.091792 0.093927
 15 34.313522 6.017502 -79.785156 -0.000000 0.000000 -0.000000
 16 9.145773 -0.500298 18.886612 0.184047 -0.253896 0.183937
 17 13.771755 0.225331 -17.802170 -1.073499 -0.618246 -1.108255
 18 7.757042 -4.315048 -11.436718 -0.088245 -0.076199 -0.105809
time 5
  0 1.089372 -2.364846 -2.772400 0.000000 -0.000000 0.000000
  1 -0.114210 8.582471 94.183167 -0.047301 -0.000000 -0.000000
  2 0.000000 0.426101 -2.643654 -0.034906 0.000000 -0.000000
  3 -7.805030 -1.259274 -16.725014 -0.240986 0.059517 -0.147341
  4 -0.855268 1.999123 -33.097385 0.513395 0.011204 0.005050
  5 -1.710043 1.005952 -32.422894 -0.329120 -0.052801 0.004134
  6 8.359842 -0.134830 -16.096420 0.023170 -0.101246 -0.012534
  7 1.023946 0.902421 -33.930805 0.349312 0.031101 0.015853
  8 1.181654 1.118916 -32.218098 -0.192394 0.005140 0.013277
  9 0.000000 -0.173451 2.663773 -0.295852 0.057771 -0.224947
 10 0.725196 -1.257221 27.700890 0.209086 -0.091566 0.269479
 11 -7.896835 -0.700382 18.721550 -1.489322 0.150014 0.581057
 12 -14.708298 0.451424 -17.688967 -0.611410 0.201190 0.440717
 13 -7.769432 -4.337906 -11.290726 -0.298664 0.220492 -0.220396
 14 -1.614937 -2.075470 -6.327087 0.052019 0.091792 0.093927
 15 34.313530 6.017471 -79.785141 0.000000 -0.000000 0.000000
 16 9.145775 -0.500298 18.886612 0.184047 -0.253896 0.183937
 17 13.771755 0.225333 -17.802177 -1.073499 -0.618246 -1.108256
 18 7.757050 -4.315048 -11.436714 -0.088245 -0.076199 -0.105809
time 6
  0 1.089372 -2.364846 -2.772400 0.000000 -0.000000 0.000000
  1 -0.114210 12.241239 94.651451 -0.060713 -0.000000 -0.000000
  2 0.000000 0.426100 -2.643661 -0.034906 -0.000000 0.000000
  3 -7.805030 -1.259274 -16.725006 -0.282394 0.044789 -0.148833
  4 -0.855269 1.999125 -33.097382 0.543084 0.015439 0.007105
  5 -1.710042 1.005952 -32.422897 -0.341448 -0.054022 0.006762
  6 8.359842 -0.134830 -16.096420 0.057571 -0.082903 -0.010263
  7 1.023949 0.902421 -33.930798 0.349312 0.031101 0.015853
  8 1.181656 1.118917 -32.218094 -0.166486 0.004522 0.010871
  9 0.000000 -0.173452 2.663773 -0.315405 0.074151 -0.288726
 10 0.725197 -1.257225 27.700897 0.196888 -0.117528 0.345885
 11 -7.896835 -0.700382 18.721550 -1.882360 0.025533 0.365052
 12 -14.708296 0.451416 -17.688969 -0.598747 0.195738 0.432648
 13 -7.769432 -4.337906 -11.290718 -0.308452 0.211850 -0.285127
 14 -1.614941 -2.075470 -6.327103 0.052019 0.091792 0.093927
 15 34.313530 6.017506 -79.785141 -0.000000 0.000000 0.000000
 16 9.145774 -0.500296 18.886604 0.184047 -0.253896 0.183937
 17 13.771753 0.225330 -17.802177 -1.073499 -0.618246 -1.108255
 18 7.757042 -4.315048 -11.436718 -0.088245 -0.076199 -0.105809
time 7
  0 1.089372 -2.364846 -2.772400 0.000000 -0.000000 0.000000
  1 -0.114210 15.474099 95.065224 -0.072563 -0.000000 -0.000000
  2 0.000000 0.426101 -2.643661 -0.034906 -0.000000 -0.000000
  3 -7.805030 -1.259274 -16.724998 -0.324372 0.029859 -0.150345
  4 -0.855271 1.999125 -33.097389 0.575893 0.020070 0.009445
  5 -1.710043 1.005956 -32.422897 -0.353946 -0.055259 0.009426
  6 8.359842 -0.134830 -16.096413 0.095066 -0.064308 -0.007961
  7 1.023952 0.902420 -33.930794 0.349312 0.031101 0.015853
  8 1.181657 1.118921 -32.218090 -0.138036 0.003851 0.008433
  9 -0.000000 -0.173450 2.663773 -0.332681 0.088624 -0.345081
 10 0.725193 -1.257225 27.700897 0.184263 -0.140468 0.413397
 11 -7.896835 -0.700380 18.721550 -2.229645 -0.084459 0.174192
 12 -14.708298 0.451424 -17.688957 -0.583580 0.189035 0.422523
 13 -7.769432 -4.337902 -11.290726 -0.318877 0.202644 -0.354078
 14 -1.614939 -2.075466 -6.327103 0.052019 0.091792 0.093927
 15 34.313538 6.017498 -79.785141 0.000000 -0.000000 -0.000000
 16 9.145773 -0.500298 18.886612 0.184047 -0.253896 0.183937
 17 13.771748 0.225332 -17.802185 -1.073499 -0.618246 -1.108256
 18 7.757057 -4.315048 -11.436714 -0.088245 -0.076199 -0.105809
time 8
  0 1.089372 -2.364846 -2.772400 0.000000 -0.000000 0.000000
  1 -0.114210 17.944534 95.381416 -0.081618 -0.000000 -0.000000
  2 0.000000 0.426101 -2.643661 -0.034906 -0.000000 -0.000000
  3 -7.805029 -1.259274 -16.725006 -0.364774 0.015489 -0.151801
  4 -0.855271 1.999125 -33.097389 0.611116 0.024980 0.012041
  5 -1.710042 1.005954 -32.422890 -0.365975 -0.056451 0.011990
  6 8.359842 -0.134830 -16.096413 0.134681 -0.046411 -0.005746
  7 1.023947 0.902420 -33.930805 0.349312 0.031101 0.015853
  8 1.181655 1.118916 -32.218102 -0.107713 0.003144 0.006086
  9 0.000000 -0.173450 2.663780 -0.345883 0.099684 -0.388146
 10 0.725193 -1.257225 27.700897 0.171765 -0.157997 0.464987
 11 -7.896837 -0.700384 18.721558 -2.495028 -0.168510 0.028343
 12 -14.708300 0.451420 -17.688950 -0.565847 0.181003 0.410160
 13 -7.769436 -4.337906 -11.290726 -0.329589 0.193186 -0.424921
 14 -1.614939 -2.075462 -6.327087 0.052019 0.091792 0.093927
 15 34.313534 6.017525 -79.785156 -0.000000 0.000000 -0.000000
 16 9.145774 -0.500298 18.886604 0.184047 -0.253896 0.183937
 17 13.771757 0.225330 -17.802177 -1.073499 -0.618245 -1.108255
 18 7.757050 -4.315056 -11.436718 -0.088245 -0.076199 -0.105809
time 9
  0 1.089372 -2.364846 -2.772400 0.000000 -0.000000 0.000000
  1 -0.114210 19.316025 95.556953 -0.086646 -0.000000 -0.000000
  2 -0.000000 0.426100 -2.643661 -0.034906 -0.000000 -0.000000
  3 -7.805030 -1.259274 -16.725006 -0.401454 0.002444 -0.153122
  4 -0.855270 1.999126 -33.097393 0.648052 0.030054 0.014866
  5 -1.710043 1.005951 -32.422901 -0.376895 -0.057532 0.014318
  6 8.359842 -0.134830 -16.096420 0.175441 -0.030162 -0.003734
  7 1.023948 0.902422 -33.930798 0.349312 0.031101 0.015853
  8 1.181656 1.118927 -32.218098 -0.076186 0.002421 0.003955
  9 0.000000 -0.173453 2.663780 -0.353212 0.105824 -0.412054
 10 0.725193 -1.257231 27.700890 0.159946 -0.167729 0.493627
 11 -7.896835 -0.700386 18.721542 -2.642358 -0.215172 -0.052627
 12 -14.708298 0.451420 -17.688957 -0.545485 0.171562 0.395379
 13 -7.769436 -4.337914 -11.290710 -0.340234 0.183786 -0.495327
 14 -1.614935 -2.075462 -6.327103 0.052019 0.091792 0.093927
 15 34.313534 6.017487 -79.785126 0.000000 0.000000 0.000000
 16 9.145771 -0.500299 18.886612 0.184047 -0.253896 0.183937
 17 13.771746 0.225332 -17.802177 -1.073499 -0.618246 -1.108256
 18 7.757065 -4.315052 -11.436718 -0.088245 -0.076199 -0.105809
time 10
  0 1.089372 -2.364846 -2.772400 0.000000 -0.000000 0.000000
  1 -0.114210 18.887003 95.578613 -0.079443 -0.000000 -0.000000
  2 0.000000 0.426100 -2.643661 -0.034906 0.000000 0.000000
  3 -7.805030 -1.259274 -16.724991 -0.432265 -0.008515 -0.154232
  4 -0.855272 1.999125 -33.097385 0.685997 0.035175 0.017892
  5 -1.710042 1.005952 -32.422897 -0.386069 -0.058440 0.016273
  6 8.359842 -0.134830 -16.096405 0.216372 -0.016513 -0.002044
  7 1.023947 0.902420 -33.930801 0.349312 0.031101 0.015853
  8 1.181656 1.118919 -32.218102 -0.044124 0.001699 0.002166
  9 0.000000 -0.173453 2.663788 -0.345919 0.106271 -0.396797
 10 0.725197 -1.257221 27.700890 0.148449 -0.168437 0.476311
 11 -7.896835 -0.700382 18.721558 -2.616437 -0.213703 -0.051644
 12 -14.708300 0.451416 -17.688957 -0.482320 0.154777 0.368543
 13 -7.769432 -4.337910 -11.290710 -0.350462 0.174756 -0.562968
 14 -1.614939 -2.075470 -6.327103 0.052019 0.091792 0.093927
 15 34.313526 6.017513 -79.785126 0.000000 -0.000000 -0.000000
 16 9.145774 -0.500294 18.886604 0.184047 -0.253896 0.183937
 17 13.771748 0.225328 -17.802170 -1.073499 -0.618246 -1.108256
 18 7.757050 -4.315048 -11.436718 -0.088245 -0.076199 -0.105809
time 11
  0 1.089372 -2.364846 -2.772400 0.000000 -0.000000 0.000000
  1 -0.114210 14.976498 95.578613 -0.038269 -0.000000 -0.000000
  2 0.000000 0.426100 -2.643661 -0.034906 0.000000 -0.000000
  3 -7.805030 -1.259275 -16.725006 -0.455062 -0.016623 -0.155054
  4 -0.855269 1.999125 -33.097385 0.724249 0.040229 0.021091
  5 -1.710043 1.005956 -32.422897 -0.392856 -0.059112 0.017720
  6 8.359842 -0.134830 -16.096420 0.256498 -0.006415 -0.000794
  7 1.023947 0.902420 -33.930809 0.349312 0.031101 0.015853
  8 1.181656 1.118916 -32.218102 -0.012197 0.000996 0.000841
  9 0.000000 -0.173452 2.663780 -0.293840 0.104207 -0.281118
 10 0.725196 -1.257225 27.700890 0.133670 -0.165161 0.343838
 11 -7.896835 -0.700384 18.721558 -2.358083 -0.175667 0.020522
 12 -14.708298 0.451424 -17.688965 -0.234775 0.103833 0.294842
 13 -7.769432 -4.337902 -11.290726 -0.359920 0.166405 -0.625516
 14 -1.614941 -2.075472 -6.327087 0.052019 0.091792 0.093927
 15 34.313519 6.017550 -79.785126 0.000000 -0.000000 -0.000000
 16 9.145775 -0.500298 18.886612 0.184047 -0.253896 0.183937
 17 13.771753 0.225331 -17.802177 -1.073499 -0.618246 -1.108256
 18 7.757050 -4.315052 -11.436718 -0.088245 -0.076199 -0.105809
time 12
  0 1.089372 -2.364846 -2.772400 0.000000 -0.000000 0.000000
  1 -0.114210 8.426178 95.578613 0.002905 -0.000000 -0.000000
  2 0.000000 0.426100 -2.643661 -0.034906 -0.000000 0.000000
  3 -7.805030 -1.259273 -16.725006 -0.467699 -0.021118 -0.155509
  4 -0.855271 1.999119 -33.097382 0.762103 0.045100 0.024435
  5 -1.710044 1.005955 -32.422894 -0.396618 -0.059485 0.018522
  6 8.359842 -0.134830 -16.096420 0.294845 -0.000817 -0.000101
  7 1.023948 0.902418 -33.930794 0.349312 0.031101 0.015853
  8 1.181655 1.118916 -32.218102 0.018928 0.000331 0.000107
  9 0.000000 -0.173451 2.663773 -0.210787 0.100653 -0.096639
 10 0.725196 -1.257226 27.700897 0.117108 -0.159522 0.132578
 11 -7.896834 -0.700383 18.721550 -2.008795 -0.137631 0.142608
 12 -14.708302 0.451424 -17.688972 0.052417 0.024790 0.205067
 13 -7.769432 -4.337906 -11.290726 -0.368255 0.159045 -0.680643
 14 -1.614944 -2.075470 -6.327095 0.052019 0.091792 0.093927
 15 34.313522 6.017578 -79.785141 0.000000 -0.000000 -0.000000
 16 9.145774 -0.500299 18.886604 0.184047 -0.253896 0.183937
 17 13.771753 0.225331 -17.802185 -1.073499 -0.618246 -1.108256
 18 7.757050 -4.315048 -11.436726 -0.088245 -0.076199 -0.105809
time 13
  0 1.089372 -2.364846 -2.772400 0.000000 -0.000000 0.000000
  1 -0.114210 0.417504 95.578613 0.010728 -0.000000 -0.000000
  2 0.000000 0.426101 -2.643661 -0.034906 0.000000 0.000000
  3 -7.805030 -1.259274 -16.725006 -0.469089 -0.021612 -0.155559
  4 -0.855269 1.999123 -33.097382 0.808359 0.050584 0.029160
  5 -1.710043 1.005955 -32.422897 -0.373652 -0.055992 0.017621
  6 8.359842 -0.134830 -16.096413 0.336844 -0.000789 -0.000630
  7 1.023950 0.902418 -33.930794 0.349312 0.031101 0.015853
  8 1.181657 1.118919 -32.218094 0.055278 -0.000372 0.000292
  9 0.000000 -0.173452 2.663780 -0.116783 0.096134 0.112163
 10 0.725194 -1.257226 27.700897 0.101035 -0.152351 -0.106537
 11 -7.896839 -0.700384 18.721558 -1.697603 -0.132730 0.310020
 12 -14.708296 0.451416 -17.688963 0.219257 -0.082648 0.132462
 13 -7.769432 -4.337906 -11.290720 -0.375116 0.152987 -0.726021
 14 -1.614929 -2.075470 -6.327095 0.052019 0.091792 0.093927
 15 34.313530 6.017540 -79.785149 -0.000000 -0.000000 0.000000
 16 9.145773 -0.500298 18.886604 0.184047 -0.253896 0.183937
 17 13.771748 0.225329 -17.802185 -1.073499 -0.618246 -1.108256
 18 7.757046 -4.315044 -11.436718 -0.088245 -0.076199 -0.105809
time 14
  0 1.089372 -2.364846 -2.772400 0.000000 -0.000000 0.000000
  1 -0.114210 -7.868074 95.578613 0.010728 -0.000000 -0.000000
  2 0.000000 0.426100 -2.643661 -0.034906 0.000000 0.000000
  3 -7.805030 -1.259274 -16.725006 -0.465228 -0.020239 -0.155420
  4 -0.855270 1.999123 -33.097389 0.902324 0.060400 0.040566
  5 -1.710042 1.005950 -32.422897 -0.218888 -0.032619 0.010981
  6 8.359842 -0.134830 -16.096420 0.408383 -0.006466 -0.004771
  7 1.023948 0.902416 -33.930805 0.349312 0.031101 0.015853
  8 1.181656 1.118912 -32.218105 0.124350 -0.001492 0.002256
  9 0.000000 -0.173451 2.663780 -0.031852 0.091175 0.300812
 10 0.725194 -1.257226 27.700890 0.087722 -0.144484 -0.322573
 11 -7.896837 -0.700384 18.721550 -1.343690 -0.147766 0.568380
 12 -14.708301 0.451416 -17.688967 0.307259 -0.251414 0.063610
 13 -7.769434 -4.337898 -11.290718 -0.380151 0.148541 -0.759320
 14 -1.614937 -2.075478 -6.327095 0.052019 0.091792 0.093927
 15 34.313538 6.017555 -79.785156 -0.000000 -0.000000 0.000000
 16 9.145774 -0.500298 18.886604 0.184047 -0.253896 0.183937
 17 13.771749 0.225332 -17.802177 -1.073499 -0.618246 -1.108256
 18 7.757057 -4.315041 -11.436722 -0.088245 -0.076199 -0.105809
time 15
  0 1.089372 -2.364846 -2.772400 0.000000 -0.000000 0.000000
  1 -0.114210 -15.249102 95.578613 0.010728 -0.000000 -0.000000
  2 0.000000 0.426101 -2.643661 -0.034906 0.000000 0.000000
  3 -7.805030 -1.259274 -16.725006 -0.457730 -0.017572 -0.155150
  4 -0.855271 1.999126 -33.097393 0.989851 0.069268 0.051566
  5 -1.710043 1.005954 -32.422897 -0.042072 -0.005809 0.003593
  6 8.359842 -0.134829 -16.096413 0.472166 -0.014664 -0.009496
  7 1.023948 0.902422 -33.930809 0.349312 0.031101 0.015853
  8 1.181655 1.118923 -32.218102 0.187702 -0.002472 0.004647
  9 0.000000 -0.173451 2.663780 0.023982 0.086300 0.424830
 10 0.725196 -1.257228 27.700897 0.079441 -0.136753 -0.464596
 11 -7.896835 -0.700382 18.721565 -1.043823 -0.163990 0.804363
 12 -14.708304 0.451431 -17.688965 0.347707 -0.396932 0.004439
 13 -7.769428 -4.337906 -11.290726 -0.383008 0.146019 -0.778213
 14 -1.614941 -2.075470 -6.327099 0.052019 0.091792 0.093927
 15 34.313530 6.017563 -79.785141 -0.000000 0.000000 -0.000000
 16 9.145775 -0.500298 18.886604 0.184047 -0.253896 0.183937
 17 13.771751 0.225333 -17.802170 -1.073499 -0.618246 -1.108256
 18 7.757053 -4.315052 -11.436726 -0.088245 -0.076199 -0.105809
time 16
  0 1.089372 -2.364846 -2.772400 0.000000 -0.000000 0.000000
  1 -0.114210 -20.544125 95.578613 0.010728 -0.000000 -0.000000
  2 0.000000 0.426100 -2.643661 -0.034906 0.000000 0.000000
  3 -7.805030 -1.259275 -16.725006 -0.446969 -0.013745 -0.154762
  4 -0.855269 1.999123 -33.097389 1.009728 0.071246 0.054114
  5 -1.710044 1.005957 -32.422890 0.025804 0.004732 0.001235
  6 8.359842 -0.134829 -16.096413 0.486270 -0.022144 -0.011323
  7 1.023951 0.902420 -33.930805 0.349312 0.031101 0.015853
  8 1.181658 1.118923 -32.218102 0.201956 -0.002686 0.005947
  9 0.000000 -0.173452 2.663780 0.034914 0.081931 0.449261
 10 0.725195 -1.257227 27.700890 0.078015 -0.129827 -0.492597
 11 -7.896835 -0.700384 18.721550 -0.917263 -0.167131 0.897057
 12 -14.708302 0.451424 -17.688972 0.353568 -0.423512 -0.033777
 13 -7.769432 -4.337906 -11.290726 -0.383407 0.145667 -0.780850
 14 -1.614941 -2.075470 -6.327099 0.052019 0.091792 0.093927
 15 34.313511 6.017563 -79.785141 0.000000 0.000000 -0.000000
 16 9.145773 -0.500299 18.886597 0.184047 -0.253896 0.183937
 17 13.771751 0.225332 -17.802177 -1.073499 -0.618246 -1.108256
 18 7.757050 -4.315056 -11.436714 -0.088245 -0.076199 -0.105809
time 17
  0 1.089372 -2.364846 -2.772400 0.000000 -0.000000 0.000000
  1 -0.114210 -22.571682 95.578613 0.010728 -0.000000 -0.000000
  2 0.000000 0.426100 -2.643661 -0.034906 0.000000 0.000000
  3 -7.805030 -1.259275 -16.725006 -0.433317 -0.008889 -0.154270
  4 -0.855269 1.999126 -33.097382 1.002101 0.070298 0.053394
  5 -1.710042 1.005953 -32.422897 0.045595 0.007924 0.000853
  6 8.359842 -0.134830 -16.096413 0.478895 -0.029688 -0.012143
  7 1.023947 0.902414 -33.930809 0.349312 0.031101 0.015853
  8 1.181655 1.118917 -32.218102 0.195807 -0.002560 0.006896
  9 0.000000 -0.173452 2.663780 0.031432 0.077373 0.443285
 10 0.725193 -1.257227 27.700897 0.080227 -0.122602 -0.486045
 11 -7.896835 -0.700386 18.721550 -0.842112 -0.157074 0.944487
 12 -14.708305 0.451416 -17.688972 0.349224 -0.354405 -0.059022
 13 -7.769428 -4.337906 -11.290710 -0.381920 0.146980 -0.771017
 14 -1.614937 -2.075470 -6.327095 0.052019 0.091792 0.093927
 15 34.313492 6.017578 -79.785126 -0.000000 0.000000 -0.000000
 16 9.145773 -0.500298 18.886604 0.184047 -0.253896 0.183937
 17 13.771755 0.225330 -17.802170 -1.073499 -0.618245 -1.108255
 18 7.757050 -4.315044 -11.436718 -0.088245 -0.076199 -0.105809
time 18
  0 1.089372 -2.364846 -2.772400 0.000000 -0.000000 0.000000
  1 -0.114210 -22.087990 95.578613 0.010728 -0.000000 -0.000000
  2 0.000000 0.426100 -2.643661 -0.034906 0.000000 0.000000
  3 -7.805030 -1.259275 -16.725006 -0.417146 -0.003138 -0.153688
  4 -0.855270 1.999130 -33.097389 0.986602 0.068372 0.051931
  5 -1.710042 1.005958 -32.422897 0.054337 0.009324 0.000688
  6 8.359842 -0.134830 -16.096413 0.463904 -0.037823 -0.012918
  7 1.023947 0.902418 -33.930805 0.349312 0.031101 0.015853
  8 1.181656 1.118919 -32.218105 0.183309 -0.002304 0.007881
  9 0.000000 -0.173452 2.663780 0.024356 0.072439 0.431142
 10 0.725195 -1.257225 27.700897 0.084723 -0.114783 -0.472731
 11 -7.896835 -0.700384 18.721558 -0.769679 -0.136634 0.989072
 12 -14.708306 0.451424 -17.688965 0.338111 -0.242722 -0.075846
 13 -7.769440 -4.337898 -11.290726 -0.378898 0.149648 -0.751033
 14 -1.614935 -2.075470 -6.327087 0.052019 0.091792 0.093927
 15 34.313469 6.017563 -79.785110 0.000000 0.000000 0.000000
 16 9.145773 -0.500298 18.886604 0.184047 -0.253896 0.183937
 17 13.771749 0.225330 -17.802185 -1.073498 -0.618246 -1.108255
 18 7.757057 -4.315048 -11.436726 -0.088245 -0.076199 -0.105809
time 19
  0 1.089372 -2.364846 -2.772400 0.000000 -0.000000 0.000000
  1 -0.114210 -20.789757 95.578613 0.010728 -0.000000 -0.000000
  2 0.000000 0.426100 -2.643661 -0.034906 0.000000 0.000000
  3 -7.805030 -1.259275 -16.725006 -0.398828 0.003377 -0.153028
  4 -0.855271 1.999123 -33.097389 0.964178 0.065586 0.049815
  5 -1.710043 1.005951 -32.422897 0.056408 0.009650 0.000518
  6 8.359842 -0.134830 -16.096413 0.442216 -0.046435 -0.013648
  7 1.023949 0.902416 -33.930809 0.349312 0.031101 0.015853
  8 1.181656 1.118914 -32.218098 0.165228 -0.001933 0.008891
  9 0.000000 -0.173452 2.663780 0.014117 0.067200 0.413572
 10 0.725195 -1.257225 27.700897 0.091228 -0.106482 -0.453466
 11 -7.896835 -0.700382 18.721558 -0.700119 -0.107061 1.030844
 12 -14.708303 0.451424 -17.688965 0.318199 -0.129369 -0.085336
 13 -7.769432 -4.337906 -11.290710 -0.374526 0.153508 -0.722120
 14 -1.614939 -2.075470 -6.327095 0.052019 0.091792 0.093927
 15 34.313484 6.017563 -79.785126 0.000000 -0.000000 -0.000000
 16 9.145774 -0.500298 18.886604 0.184047 -0.253896 0.183937
 17 13.771757 0.225334 -17.802170 -1.073499 -0.618246 -1.108255
 18 7.757050 -4.315048 -11.436726 -0.088245 -0.076199 -0.105809
time 20
  0 1.089372 -2.364846 -2.772400 0.000000 -0.000000 0.000000
  1 -0.114210 -18.906256 95.578613 0.010728 -0.000000 -0.000000
  2 0.000000 0.426100 -2.643661 -0.034906 0.000000 0.000000
  3 -7.805030 -1.259275 -16.725006 -0.378736 0.010524 -0.152304
  4 -0.855271 1.999119 -33.097389 0.935775 0.062057 0.047135
  5 -1.710043 1.005952 -32.422894 0.053150 0.009101 0.000240
  6 8.359842 -0.134829 -16.096413 0.414745 -0.055410 -0.014334
  7 1.023947 0.902420 -33.930813 0.349312 0.031101 0.015853
  8 1.181657 1.118921 -32.218105 0.142325 -0.001463 0.009917
  9 0.000000 -0.173452 2.663780 0.001148 0.061729 0.391319
 10 0.725195 -1.257225 27.700890 0.099467 -0.097811 -0.429066
 11 -7.896836 -0.700384 18.721550 -0.633584 -0.069604 1.069836
 12 -14.708303 0.451420 -17.688972 0.287459 -0.055255 -0.088577
 13 -7.769430 -4.337902 -11.290726 -0.368989 0.158397 -0.685498
 14 -1.614939 -2.075478 -6.327103 0.052019 0.091792 0.093927
 15 34.313469 6.017555 -79.785141 0.000000 -0.000000 -0.000000
 16 9.145773 -0.500296 18.886604 0.184047 -0.253896 0.183937
 17 13.771748 0.225331 -17.802185 -1.073499 -0.618246 -1.108256
 18 7.757057 -4.315044 -11.436718 -0.088245 -0.076199 -0.105809
time 21
  0 1.089372 -2.364846 -2.772400 0.000000 -0.000000 0.000000
  1 -0.114210 -16.666752 95.578613 0.010728 -0.000000 -0.000000
  2 0.000000 0.426101 -2.643661 -0.034906 0.000000 0.000000
  3 -7.805030 -1.259275 -16.725014 -0.357242 0.018168 -0.151530
  4 -0.855271 1.999123 -33.097389 0.902341 0.057903 0.043979
  5 -1.710043 1.005950 -32.422901 0.042589 0.007320 -0.000066
  6 8.359842 -0.134830 -16.096420 0.382408 -0.064632 -0.014976
  7 1.023950 0.902424 -33.930801 0.349312 0.031101 0.015853
  8 1.181656 1.118929 -32.218094 0.115365 -0.000911 0.010949
  9 0.000000 -0.173451 2.663780 -0.014117 0.056095 0.365122
 10 0.725195 -1.257227 27.700890 0.109166 -0.088883 -0.400343
 11 -7.896838 -0.700384 18.721550 -0.570228 -0.025511 1.106080
 12 -14.708300 0.451424 -17.688972 0.243712 -0.022457 -0.082799
 13 -7.769434 -4.337910 -11.290726 -0.362471 0.164153 -0.642389
 14 -1.614937 -2.075462 -6.327103 0.052019 0.091792 0.093927
 15 34.313488 6.017502 -79.785156 0.000000 0.000000 -0.000000
 16 9.145774 -0.500298 18.886604 0.184047 -0.253896 0.183937
 17 13.771753 0.225330 -17.802177 -1.073499 -0.618246 -1.108256
 18 7.757050 -4.315052 -11.436718 -0.088245 -0.076199 -0.105809
time 22
  0 1.089372 -2.364846 -2.772400 0.000000 -0.000000 0.000000
  1 -0.114210 -14.300511 95.578613 0.010728 -0.000000 -0.000000
  2 0.000000 0.426102 -2.643661 -0.034906 0.000000 0.000000
  3 -7.805030 -1.259274 -16.725006 -0.334718 0.026179 -0.150718
  4 -0.855269 1.999123 -33.097385 0.864822 0.053241 0.040438
  5 -1.710042 1.005953 -32.422897 0.025740 0.004479 -0.000393
  6 8.359842 -0.134830 -16.096413 0.346121 -0.073989 -0.015573
  7 1.023949 0.902423 -33.930805 0.349312 0.031101 0.015853
  8 1.181656 1.118921 -32.218105 0.085112 -0.000290 0.011977
  9 0.000000 -0.173450 2.663788 -0.031248 0.050370 0.335726
 10 0.725195 -1.257226 27.700905 0.120049 -0.079812 -0.368111
 11 -7.896837 -0.700383 18.721550 -0.510205 0.023968 1.139607
 12 -14.708298 0.451416 -17.688972 0.187352 0.008165 -0.064132
 13 -7.769432 -4.337906 -11.290718 -0.355156 0.170611 -0.594013
 14 -1.614937 -2.075478 -6.327095 0.052019 0.091792 0.093927
 15 34.313477 6.017517 -79.785141 0.000000 0.000000 0.000000
 16 9.145775 -0.500299 18.886604 0.184047 -0.253896 0.183937
 17 13.771749 0.225331 -17.802185 -1.073499 -0.618246 -1.108255
 18 7.757057 -4.315056 -11.436714 -0.088245 -0.076199 -0.105809
time 23
  0 1.089372 -2.364846 -2.772400 0.000000 -0.000000 0.000000
  1 -0.114210 -12.036805 95.578613 0.010728 -0.000000 -0.000000
  2 0.000000 0.426102 -2.643661 -0.034906 0.000000 0.000000
  3 -7.805030 -1.259274 -16.725006 -0.311537 0.034424 -0.149883
  4 -0.855270 1.999123 -33.097393 0.824166 0.048189 0.036602
  5 -1.710042 1.005957 -32.422901 0.003641 0.000752 -0.000733
  6 8.359842 -0.134831 -16.096413 0.306800 -0.083366 -0.016125
  7 1.023947 0.902421 -33.930813 0.349312 0.031101 0.015853
  8 1.181655 1.118925 -32.218102 0.052330 0.000382 0.012991
  9 0.000000 -0.173451 2.663780 -0.049811 0.044625 0.303872
 10 0.725195 -1.257226 27.700897 0.131842 -0.070708 -0.333184
 11 -7.896836 -0.700383 18.721558 -0.453669 0.077584 1.170450
 12 -14.708294 0.451420 -17.688965 0.120687 0.036906 -0.034509
 13 -7.769424 -4.337902 -11.290718 -0.347230 0.177610 -0.541593
 14 -1.614941 -2.075470 -6.327095 0.052019 0.091792 0.093927
 15 34.313492 6.017525 -79.785133 -0.000000 -0.000000 0.000000
 16 9.145775 -0.500297 18.886604 0.184047 -0.253896 0.183937
 17 13.771748 0.225331 -17.802177 -1.073499 -0.618246 -1.108256
 18 7.757057 -4.315052 -11.436718 -0.088245 -0.076199 -0.105809
time 24
  0 1.089372 -2.364846 -2.772400 0.000000 -0.000000 0.000000
  1 -0.114210 -10.104897 95.578613 0.010728 -0.000000 -0.000000
  2 0.000000 0.426102 -2.643661 -0.034906 0.000000 0.000000
  3 -7.805030 -1.259274 -16.725006 -0.288071 0.042770 -0.149038
  4 -0.855268 1.999123 -33.097389 0.781320 0.042865 0.032558
  5 -1.710044 1.005956 -32.422905 -0.022667 -0.003684 -0.001082
  6 8.359842 -0.134830 -16.096420 0.265360 -0.092649 -0.016633
  7 1.023946 0.902416 -33.930805 0.349312 0.031101 0.015853
  8 1.181655 1.118916 -32.218105 0.017781 0.001090 0.013980
  9 0.000000 -0.173450 2.663780 -0.069374 0.038931 0.270302
 10 0.725195 -1.257226 27.700897 0.144271 -0.061686 -0.296375
 11 -7.896836 -0.700383 18.721550 -0.400773 0.134089 1.198641
 12 -14.708298 0.451424 -17.688965 0.046036 0.063703 0.004095
 13 -7.769424 -4.337902 -11.290733 -0.338877 0.184985 -0.486348
 14 -1.614937 -2.075478 -6.327091 0.052019 0.091792 0.093927
 15 34.313477 6.017509 -79.785141 0.000000 -0.000000 0.000000
 16 9.145775 -0.500299 18.886604 0.184047 -0.253896 0.183937
 17 13.771749 0.225329 -17.802185 -1.073498 -0.618246 -1.108256
 18 7.757057 -4.315056 -11.436722 -0.088245 -0.076199 -0.105809
time 25
  0 1.089372 -2.364846 -2.772400 0.000000 -0.000000 0.000000
  1 -0.114210 -8.734056 95.578613 0.010728 -0.000000 -0.000000
  2 0.000000 0.426100 -2.643661 -0.034906 0.000000 0.000000
  3 -7.805030 -1.259274 -16.725014 -0.264692 0.051085 -0.148195
  4 -0.855268 1.999123 -33.097389 0.737231 0.037387 0.028397
  5 -1.710042 1.005951 -32.422894 -0.052143 -0.008654 -0.001433
  6 8.359842 -0.134830 -16.096420 0.222718 -0.101724 -0.017097
  7 1.023947 0.902419 -33.930813 0.349312 0.031101 0.015853
  8 1.181658 1.118914 -32.218105 -0.017770 0.001819 0.014936
  9 0.000000 -0.173452 2.663780 -0.089505 0.033359 0.235758
 10 0.725195 -1.257227 27.700897 0.157061 -0.052857 -0.258499
 11 -7.896835 -0.700384 18.721550 -0.351671 0.192234 1.224212
 12 -14.708302 0.451420 -17.688972 -0.034283 0.088495 0.049705
 13 -7.769432 -4.337906 -11.290733 -0.330281 0.192575 -0.429501
 14 -1.614937 -2.075470 -6.327101 0.052019 0.091792 0.093927
 15 34.313499 6.017502 -79.785164 0.000000 -0.000000 0.000000
 16 9.145774 -0.500296 18.886604 0.184047 -0.253896 0.183937
 17 13.771749 0.225332 -17.802177 -1.073499 -0.618246 -1.108256
 18 7.757050 -4.315048 -11.436714 -0.088245 -0.076199 -0.105809
time 26
  0 1.089372 -2.364846 -2.772400 0.000000 -0.000000 0.000000
  1 -0.114210 -7.789269 95.493294 0.010428 -0.000000 -0.000000
  2 0.000000 0.426100 -2.643669 -0.034906 -0.000000 0.000000
  3 -7.805029 -1.259274 -16.725006 -0.241773 0.059237 -0.147370
  4 -0.855271 1.999123 -33.097385 0.692846 0.031872 0.024208
  5 -1.710042 1.005952 -32.422894 -0.083749 -0.013983 -0.001780
  6 8.359841 -0.134830 -16.096413 0.179789 -0.110476 -0.017516
  7 1.023949 0.902420 -33.930801 0.349312 0.031101 0.015853
  8 1.181660 1.118919 -32.218094 -0.053560 0.002553 0.015848
  9 0.000000 -0.173452 2.663780 -0.109771 0.027981 0.200981
 10 0.725195 -1.257223 27.700890 0.169936 -0.044335 -0.220368
 11 -7.896837 -0.700382 18.721550 -0.306516 0.250768 1.247196
 12 -14.708302 0.451418 -17.688957 -0.117954 0.111220 0.100346
 13 -7.769440 -4.337904 -11.290722 -0.321628 0.200215 -0.372272
 14 -1.614944 -2.075470 -6.327099 0.052019 0.091792 0.093927
 15 34.313484 6.017456 -79.785126 -0.000000 0.000000 -0.000000
 16 9.145774 -0.500296 18.886612 0.184047 -0.253896 0.183937
 17 13.771753 0.225332 -17.802177 -1.073499 -0.618246 -1.108255
 18 7.757057 -4.315052 -11.436718 -0.088245 -0.076199 -0.105809
time 27
  0 1.089372 -2.364846 -2.772400 0.000000 -0.000000 0.000000
  1 -0.114210 -6.977414 95.261719 0.009612 -0.000000 -0.000000
  2 0.000000 0.426100 -2.643661 -0.034906 -0.000000 -0.000000
  3 -7.805029 -1.259274 -16.724998 -0.219686 0.067092 -0.146574
  4 -0.855270 1.999126 -33.097393 0.649111 0.026438 0.020081
  5 -1.710043 1.005954 -32.422897 -0.116443 -0.019496 -0.002116
  6 8.359842 -0.134830 -16.096413 0.137491 -0.118791 -0.017891
  7 1.023951 0.902420 -33.930798 0.349312 0.031101 0.015853
  8 1.181658 1.118921 -32.218094 -0.088825 0.003276 0.016707
  9 0.000000 -0.173451 2.663780 -0.129739 0.022867 0.166716
 10 0.725195 -1.257225 27.700890 0.182622 -0.036231 -0.182797
 11 -7.896836 -0.700382 18.721550 -0.265462 0.308444 1.267623
 12 -14.708305 0.451422 -17.688965 -0.202657 0.131815 0.154042
 13 -7.769432 -4.337902 -11.290726 -0.313102 0.207744 -0.315883
 14 -1.614944 -2.075470 -6.327103 0.052019 0.091792 0.093927
 15 34.313477 6.017509 -79.785156 0.000000 0.000000 0.000000
 16 9.145774 -0.500296 18.886604 0.184047 -0.253896 0.183937
 17 13.771748 0.225331 -17.802177 -1.073499 -0.618245 -1.108255
 18 7.757050 -4.315052 -11.436718 -0.088245 -0.076199 -0.105809
time 28
  0 1.089372 -2.364846 -2.772400 0.000000 -0.000000 0.000000
  1 -0.114210 -6.290604 94.920448 0.008411 -0.000000 -0.000000
  2 0.000000 0.426101 -2.643661 -0.034906 0.000000 0.000000
  3 -7.805030 -1.259274 -16.724998 -0.198803 0.074520 -0.145822
  4 -0.855270 1.999121 -33.097382 0.606976 0.021203 0.016104
  5 -1.710042 1.005954 -32.422897 -0.149186 -0.025017 -0.002436
  6 8.359842 -0.134830 -16.096420 0.096738 -0.126556 -0.018221
  7 1.023951 0.902421 -33.930798 0.349312 0.031101 0.015853
  8 1.181658 1.118917 -32.218105 -0.122801 0.003972 0.017501
  9 0.000000 -0.173451 2.663780 -0.148978 0.018088 0.133702
 10 0.725195 -1.257225 27.700890 0.194845 -0.028660 -0.146598
 11 -7.896836 -0.700382 18.721558 -0.228663 0.364012 1.285527
 12 -14.708305 0.451418 -17.688965 -0.286076 0.150219 0.208819
 13 -7.769440 -4.337902 -11.290726 -0.304887 0.214997 -0.261554
 14 -1.614944 -2.075478 -6.327097 0.052019 0.091792 0.093927
 15 34.313484 6.017471 -79.785141 0.000000 -0.000000 -0.000000
 16 9.145774 -0.500298 18.886604 0.184047 -0.253896 0.183937
 17 13.771751 0.225330 -17.802177 -1.073499 -0.618246 -1.108255
 18 7.757050 -4.315052 -11.436714 -0.088245 -0.076199 -0.105809
time 29
  0 1.089372 -2.364846 -2.772400 0.000000 -0.000000 0.000000
  1 -0.114210 -5.720953 94.506050 0.006952 -0.000000 -0.000000
  2 -0.000000 0.426100 -2.643661 -0.034906 0.000000 0.000000
  3 -7.805030 -1.259274 -16.724998 -0.179496 0.081387 -0.145126
  4 -0.855270 1.999123 -33.097385 0.567385 0.016283 0.012368
  5 -1.710043 1.005955 -32.422894 -0.180938 -0.030371 -0.002733
  6 8.359841 -0.134830 -16.096413 0.058447 -0.133656 -0.018508
  7 1.023949 0.902420 -33.930813 0.349312 0.031101 0.015853
  8 1.181658 1.118914 -32.218109 -0.154724 0.004627 0.018222
  9 -0.000000 -0.173452 2.663780 -0.167055 0.013716 0.102682
 10 0.725195 -1.257227 27.700890 0.206329 -0.021732 -0.112587
 11 -7.896835 -0.700382 18.721550 -0.196271 0.416223 1.300940
 12 -14.708298 0.451420 -17.688965 -0.365893 0.166370 0.262700
 13 -7.769440 -4.337904 -11.290718 -0.297169 0.221812 -0.210508
 14 -1.614952 -2.075470 -6.327095 0.052019 0.091792 0.093927
 15 34.313484 6.017469 -79.785156 0.000000 -0.000000 -0.000000
 16 9.145774 -0.500298 18.886604 0.184047 -0.253896 0.183937
 17 13.771753 0.225331 -17.802177 -1.073499 -0.618246 -1.108256
 18 7.757050 -4.315044 -11.436722 -0.088245 -0.076199 -0.105809
time 30
  0 1.089372 -2.364846 -2.772400 0.000000 -0.000000 0.000000
  1 -0.114210 -5.260578 94.055084 0.005364 -0.000000 -0.000000
  2 0.000000 0.426101 -2.643661 -0.034906 -0.000000 -0.000000
  3 -7.805030 -1.259274 -16.725006 -0.162138 0.087560 -0.144501
  4 -0.855270 1.999123 -33.097389 0.531287 0.011798 0.008961
  5 -1.710042 1.005954 -32.422897 -0.210659 -0.035383 -0.003001
  6 8.359842 -0.134830 -16.096420 0.023534 -0.139977 -0.018750
  7 1.023949 0.902421 -33.930798 0.349312 0.031101 0.015853
  8 1.181656 1.118917 -32.218102 -0.183832 0.005224 0.018859
  9 0.000000 -0.173451 2.663780 -0.183537 0.009821 0.074399
 10 0.725195 -1.257225 27.700890 0.216801 -0.015561 -0.081575
 11 -7.896836 -0.700384 18.721550 -0.168442 0.463829 1.313893
 12 -14.708298 0.451419 -17.688965 -0.439789 0.180206 0.313711
 13 -7.769432 -4.337904 -11.290730 -0.290131 0.228026 -0.163964
 14 -1.614944 -2.075474 -6.327097 0.052019 0.091792 0.093927
 15 34.313469 6.017454 -79.785149 -0.000000 0.000000 -0.000000
 16 9.145775 -0.500299 18.886612 0.184047 -0.253896 0.183937
 17 13.771751 0.225329 -17.802177 -1.073499 -0.618246 -1.108255
 18 7.757042 -4.315044 -11.436718 -0.088245 -0.076199 -0.105809
time 31
  0 1.089372 -2.364846 -2.772400 0.000000 -0.000000 0.000000
  1 -0.114210 -4.901590 93.604118 0.003776 -0.000000 -0.000000
  2 0.000000 0.426101 -2.643661 -0.034906 0.000000 0.000000
  3 -7.805030 -1.259274 -16.724998 -0.147101 0.092908 -0.143959
  4 -0.855269 1.999126 -33.097378 0.499628 0.007864 0.005974
  5 -1.710041 1.005952 -32.422897 -0.237307 -0.039876 -0.003235
  6 8.359842 -0.134830 -16.096420 -0.007086 -0.145404 -0.018948
  7 1.023949 0.902421 -33.930801 0.349312 0.031101 0.015853
  8 1.181654 1.118919 -32.218102 -0.209360 0.005747 0.019403
  9 0.000000 -0.173451 2.663780 -0.197992 0.006475 0.049595
 10 0.725195 -1.257227 27.700897 0.225984 -0.010260 -0.054378
 11 -7.896837 -0.700384 18.721558 -0.145328 0.505579 1.324419
 12 -14.708298 0.451421 -17.688965 -0.505446 0.191665 0.359877
 13 -7.769440 -4.337910 -11.290726 -0.283959 0.233476 -0.123144
 14 -1.614944 -2.075474 -6.327101 0.052019 0.091792 0.093927
 15 34.313484 6.017456 -79.785179 -0.000000 -0.000000 0.000000
 16 9.145775 -0.500298 18.886604 0.184047 -0.253896 0.183937
 17 13.771748 0.225332 -17.802170 -1.073499 -0.618245 -1.108255
 18 7.757042 -4.315048 -11.436714 -0.088245 -0.076199 -0.105809
time 32
  0 1.089372 -2.364846 -2.772400 0.000000 -0.000000 0.000000
  1 -0.114210 -4.636105 93.189720 0.002317 -0.000000 -0.000000
  2 0.000000 0.426101 -2.643661 -0.034906 0.000000 -0.000000
  3 -7.805030 -1.259274 -16.725006 -0.134758 0.097298 -0.143514
  4 -0.855270 1.999125 -33.097385 0.473357 0.004600 0.003494
  5 -1.710043 1.005956 -32.422897 -0.259845 -0.043676 -0.003427
  6 8.359841 -0.134830 -16.096420 -0.032495 -0.149825 -0.019102
  7 1.023945 0.902421 -33.930809 0.349312 0.031101 0.015853
  8 1.181656 1.118917 -32.218109 -0.230544 0.006181 0.019843
  9 0.000000 -0.173451 2.663780 -0.209987 0.003749 0.029010
 10 0.725195 -1.257229 27.700897 0.233605 -0.005940 -0.031808
 11 -7.896835 -0.700384 18.721565 -0.127083 0.540227 1.332550
 12 -14.708298 0.451420 -17.688965 -0.560548 0.200686 0.399222
 13 -7.769424 -4.337906 -11.290718 -0.278837 0.237998 -0.089270
 14 -1.614937 -2.075468 -6.327101 0.052019 0.091792 0.093927
 15 34.313522 6.017473 -79.785156 0.000000 -0.000000 0.000000
 16 9.145773 -0.500299 18.886620 0.184047 -0.253896 0.183937
 17 13.771749 0.225331 -17.802185 -1.073499 -0.618246 -1.108256
 18 7.757050 -4.315048 -11.436718 -0.088245 -0.076199 -0.105809
time 33
  0 1.089372 -2.364846 -2.772400 0.000000 -0.000000 0.000000
  1 -0.114210 -4.456236 92.848450 0.001116 -0.000000 -0.000000
  2 0.000000 0.426101 -2.643661 -0.034906 0.000000 -0.000000
  3 -7.805030 -1.259274 -16.725006 -0.125480 0.100598 -0.143180
  4 -0.855269 1.999123 -33.097385 0.453418 0.002123 0.001613
  5 -1.710043 1.005952 -32.422897 -0.277231 -0.046608 -0.003572
  6 8.359842 -0.134830 -16.096420 -0.051779 -0.153123 -0.019212
  7 1.023945 0.902422 -33.930817 0.349312 0.031101 0.015853
  8 1.181656 1.118914 -32.218113 -0.246621 0.006511 0.020170
  9 0.000000 -0.173452 2.663773 -0.219091 0.001714 0.013388
 10 0.725195 -1.257227 27.700897 0.239389 -0.002715 -0.014679
 11 -7.896835 -0.700384 18.721550 -0.113861 0.566521 1.338318
 12 -14.708305 0.451419 -17.688969 -0.602776 0.207206 0.429771
 13 -7.769440 -4.337902 -11.290726 -0.274950 0.241431 -0.063562
 14 -1.614937 -2.075468 -6.327097 0.052019 0.091792 0.093927
 15 34.313477 6.017468 -79.785164 -0.000000 -0.000000 -0.000000
 16 9.145773 -0.500298 18.886604 0.184047 -0.253896 0.183937
 17 13.771751 0.225331 -17.802193 -1.073499 -0.618246 -1.108256
 18 7.757050 -4.315048 -11.436714 -0.088245 -0.076199 -0.105809
time 34
  0 1.089372 -2.364846 -2.772400 0.000000 -0.000000 0.000000
  1 -0.114210 -4.354098 92.616875 0.000300 -0.000000 -0.000000
  2 0.000000 0.426100 -2.643654 -0.034906 -0.000000 -0.000000
  3 -7.805030 -1.259274 -16.724991 -0.119641 0.102675 -0.142970
  4 -0.855272 1.999125 -33.097378 0.440761 0.000550 0.000418
  5 -1.710043 1.005955 -32.422894 -0.288425 -0.048496 -0.003663
  6 8.359842 -0.134830 -16.096405 -0.064021 -0.155186 -0.019278
  7 1.023951 0.902420 -33.930801 0.349312 0.031101 0.015853
  8 1.181660 1.118912 -32.218105 -0.256828 0.006720 0.020373
  9 0.000000 -0.173451 2.663780 -0.224870 0.000440 0.003471
 10 0.725195 -1.257225 27.700882 0.243061 -0.000698 -0.003805
 11 -7.896837 -0.700384 18.721542 -0.105815 0.583213 1.341756
 12 -14.708305 0.451421 -17.688957 -0.629813 0.211163 0.449549
 13 -7.769440 -4.337906 -11.290722 -0.272482 0.243609 -0.047242
 14 -1.614944 -2.075472 -6.327097 0.052019 0.091792 0.093927
 15 34.313477 6.017433 -79.785149 -0.000000 0.000000 0.000000
 16 9.145773 -0.500298 18.886597 0.184047 -0.253896 0.183937
 17 13.771744 0.225330 -17.802185 -1.073499 -0.618246 -1.108256
 18 7.757050 -4.315044 -11.436710 -0.088245 -0.076199 -0.105809
time 35
  0 1.089372 -2.364846 -2.772400 0.000000 -0.000000 0.000000
  1 -0.114210 -4.321804 92.531555 0.000000 -0.000000 0.000000
  2 0.000000 0.426100 -2.643661 -0.034906 0.000000 0.000000
  3 -7.805030 -1.259274 -16.725006 -0.117611 0.103397 -0.142897
  4 -0.855268 1.999125 -33.097389 0.436331 -0.000000 0.000000
  5 -1.710041 1.005951 -32.422897 -0.292388 -0.049164 -0.003695
  6 8.359842 -0.134830 -16.096420 -0.068305 -0.155899 -0.019300
  7 1.023949 0.902421 -33.930801 0.349312 0.031101 0.015853
  8 1.181656 1.118915 -32.218098 -0.260399 0.006794 0.020443
  9 0.000000 -0.173451 2.663780 -0.226893 0.000000 0.000001
 10 0.725195 -1.257227 27.700890 0.244345 -0.000000 0.000000
 11 -7.896836 -0.700382 18.721550 -0.103099 0.589055 1.342894
 12 -14.708313 0.451418 -17.688972 -0.639340 0.212496 0.456580
 13 -7.769440 -4.337905 -11.290726 -0.271619 0.244372 -0.041531
 14 -1.614937 -2.075470 -6.327097 0.052019 0.091792 0.093927
 15 34.313507 6.017460 -79.785172 0.000000 -0.000000 0.000000
 16 9.145774 -0.500296 18.886604 0.184047 -0.253896 0.183937
 17 13.771749 0.225331 -17.802185 -1.073499 -0.618246 -1.108255
 18 7.757057 -4.315052 -11.436714 -0.088245 -0.076199 -0.105809
end
