version 1
nodes
  0 "bone36"  -1
  1 "bone37"  -1
  2 "bone39"  -1
  3 "bone21"   2
  4 "bone20"   3
  5 "bone07"   4
  6 "bone22"   5
  7 "bone18"   6
  8 "bone25"   7
  9 "bone14"   4
 10 "bone16"   9
 11 "bone19"  10
 12 "bone24"  11
 13 "bone01"   4
 14 "bone15"  13
 15 "bone001"  14
 16 "bone17"  13
 17 "bone38"  16
 18 "bone03"   3
 19 "bone06"  18
 20 "bone13"  19
 21 "bone12"  20
 22 "bone26"  19
 23 "bone08"  18
 24 "bone05"  23
 25 "bone09"  24
 26 "bone11"  25
 27 "bone29"  26
 28 "bone30"  25
 29 "bone02"  18
 30 "bone04"  29
 31 "bone10"  30
 32 "bone31"  31
 33 "bone32"  18
 34 "bone34"   2
end
skeleton
time 0
  0 -2.408944 2.128008 -1.071352 0.000000 -0.000000 0.000000
  1 -2.408944 2.128008 -1.071352 0.000000 -0.000000 0.000000
  2 -2.408944 2.128008 -1.071352 0.000000 -0.000000 0.000000
  3 0.000000 -0.593194 84.457069 0.034907 0.000000 0.000000
  4 0.000000 0.380081 -2.358139 -0.034906 0.000000 0.000000
  5 -6.962072 -1.123270 -14.918671 -0.117611 0.103397 -0.142897
  6 -0.762899 1.783215 -29.522812 0.436331 -0.000000 0.000000
  7 -1.525354 0.897305 -28.921164 -0.292387 -0.049164 -0.003695
  8 0.354395 -2.635786 -5.445798 0.000000 -0.000000 0.000000
  9 7.456964 -0.120268 -14.357979 -0.068306 -0.155899 -0.019300
 10 0.913363 0.804958 -30.266216 0.349312 0.031101 0.015853
 11 1.054037 0.998073 -28.738499 -0.260399 0.006793 0.020443
 12 0.073698 -2.761296 -5.395101 0.000000 -0.000000 0.000000
 13 0.184103 2.405381 6.536697 -0.017453 0.000000 0.000000
 14 -2.507427 0.706861 2.240990 -0.002471 0.006107 -0.382975
 15 3.250292 -0.229967 -90.900162 0.017445 -0.006626 0.385211
 16 1.065002 0.706861 2.240982 -0.003229 -0.006785 0.438678
 17 -2.362350 -0.468017 -90.905502 0.017471 0.007558 -0.441260
 18 0.000000 -0.154718 2.376091 -0.226892 0.000000 0.000001
 19 0.646873 -1.121443 24.709145 0.244345 -0.000000 0.000000
 20 -0.331074 15.401075 -4.448273 -0.174533 0.000000 -0.000000
 21 0.294691 4.810116 -18.307007 -0.174532 0.000000 -0.000000
 22 -1.097139 0.677547 9.228622 0.000000 -0.000000 0.000000
 23 -7.043964 -0.624741 16.699585 0.366547 0.017132 0.003330
 24 -13.119773 0.402666 -15.778519 -0.639340 0.212496 0.456580
 25 -6.930328 -3.869413 -10.071304 -0.271619 0.244372 -0.041531
 26 -1.440525 -1.851318 -5.643753 0.052020 0.091792 0.093927
 27 30.607500 4.937160 -71.660210 0.000000 -0.000000 0.000000
 28 -2.740814 -1.783825 -4.956821 0.000000 -0.000000 0.000000
 29 8.158013 -0.446264 16.846817 0.297948 0.295893 -0.150448
 30 12.284372 0.200995 -15.879517 -1.073499 -0.618246 -1.108256
 31 6.919281 -3.849014 -10.201529 -0.088245 -0.076199 -0.105809
 32 1.801674 -1.439339 -4.598673 0.000000 -0.000000 0.000000
 33 0.275625 -0.653330 2.573700 0.000000 -0.000000 0.000000
 34 -2.128445 3.188605 168.111557 0.000000 -0.000000 0.000000
time 1
  0 -2.408944 2.128008 -1.071352 0.000000 -0.000000 0.000000
  1 -2.408944 2.128008 -1.071352 0.000000 -0.000000 0.000000
  2 -2.408944 2.128008 -1.062405 0.000000 -0.000000 0.000000
  3 0.000000 -0.593194 83.117332 0.034907 0.000000 0.000000
  4 0.000000 0.380081 -2.358131 -0.057873 0.000000 -0.000000
  5 -6.962073 -1.123270 -14.918678 -0.117611 0.103397 -0.142897
  6 -0.762899 1.783215 -29.522812 0.545345 0.000765 0.017344
  7 -1.525354 0.897307 -28.921165 -0.292388 -0.049164 -0.003695
  8 0.354391 -2.635785 -5.445798 0.000000 -0.000000 0.000000
  9 7.456964 -0.120268 -14.357971 -0.068305 -0.155899 -0.019300
 10 0.913364 0.804960 -30.266209 0.464028 0.041423 0.008338
 11 1.054038 0.998070 -28.738499 -0.260399 0.006793 0.020443
 12 0.073700 -2.761298 -5.395100 0.000000 -0.000000 0.000000
 13 0.184103 2.405381 6.536690 -0.017453 0.000000 0.000000
 14 -2.507427 0.706861 2.240997 -0.002471 0.006107 -0.382975
 15 3.250291 -0.229966 -90.900162 0.017445 -0.006626 0.385211
 16 1.065001 0.706861 2.240997 -0.003229 -0.006785 0.438678
 17 -2.362351 -0.468017 -90.905502 0.017471 0.007558 -0.441260
 18 0.000000 -0.154718 2.376091 -0.161619 0.000000 0.000001
 19 0.646873 -1.121444 24.709152 0.275773 -0.000001 0.000000
 20 -0.331074 15.401077 -4.448273 -0.174533 0.000000 0.000000
 21 0.294691 4.810116 -18.306992 -0.174532 0.000000 -0.000000
 22 -1.097139 0.677549 9.228622 0.000000 -0.000000 0.000000
 23 -7.043963 -0.624741 16.699593 0.307882 0.028841 -0.003535
 24 -13.119775 0.402666 -15.778534 -0.585363 0.177615 0.468870
 25 -6.930325 -3.869402 -10.071304 -0.271619 0.244372 -0.041531
 26 -1.440521 -1.851315 -5.643753 0.052020 0.091792 0.093927
 27 30.607502 4.937187 -71.660217 0.000000 -0.000000 0.000000
 28 -2.740807 -1.783821 -4.956821 0.000000 -0.000000 0.000000
 29 8.158013 -0.446265 16.846817 0.235892 0.280012 -0.162497
 30 12.284377 0.200994 -15.879517 -0.977104 -0.584343 -1.025438
 31 6.919279 -3.849014 -10.201527 -0.088245 -0.076199 -0.105809
 32 1.801674 -1.439339 -4.598675 0.000000 -0.000000 0.000000
 33 0.275625 -0.653330 2.573692 0.000000 -0.000000 0.000000
 34 -2.128445 3.188605 168.111557 0.000000 -0.000000 0.000000
time 2
  0 -2.408944 2.128008 -1.071352 0.000000 -0.000000 0.000000
  1 -2.408944 2.128008 -1.071352 0.000000 -0.000000 0.000000
  2 -2.408944 2.128008 -1.036378 0.000000 -0.000000 0.000000
  3 0.000000 -0.593194 79.468575 0.034907 0.000000 0.000000
  4 0.000000 0.380081 -2.358139 -0.115742 0.000000 -0.000000
  5 -6.962072 -1.123270 -14.918674 -0.117611 0.103397 -0.142897
  6 -0.762899 1.783215 -29.522808 0.820028 0.002694 0.061047
  7 -1.525356 0.897309 -28.921165 -0.292387 -0.049164 -0.003695
  8 0.354391 -2.635785 -5.445798 0.000000 -0.000000 0.000000
  9 7.456964 -0.120268 -14.357979 -0.068305 -0.155899 -0.019300
 10 0.913363 0.804959 -30.266211 0.753081 0.067431 -0.010597
 11 1.054037 0.998070 -28.738491 -0.260399 0.006793 0.020443
 12 0.073698 -2.761297 -5.395101 0.000000 -0.000000 0.000000
 13 0.184103 2.405382 6.536690 -0.017453 0.000000 0.000000
 14 -2.507427 0.706861 2.240990 -0.002471 0.006107 -0.382975
 15 3.250290 -0.229966 -90.900154 0.017445 -0.006626 0.385211
 16 1.065001 0.706861 2.240990 -0.003229 -0.006785 0.438678
 17 -2.362350 -0.468017 -90.905502 0.017471 0.007558 -0.441260
 18 0.000000 -0.154718 2.376091 0.002852 0.000000 0.000001
 19 0.646873 -1.121444 24.709152 0.354963 -0.000001 0.000000
 20 -0.331074 15.401073 -4.448273 -0.174533 0.000000 0.000000
 21 0.294691 4.810112 -18.306999 -0.174532 0.000000 -0.000000
 22 -1.097139 0.677547 9.228615 0.000000 -0.000000 0.000000
 23 -7.043963 -0.624741 16.699600 0.160064 0.058345 -0.020834
 24 -13.119776 0.402666 -15.778526 -0.449356 0.089727 0.499838
 25 -6.930323 -3.869407 -10.071304 -0.271619 0.244372 -0.041531
 26 -1.440521 -1.851322 -5.643753 0.052020 0.091792 0.093927
 27 30.607494 4.937176 -71.660194 0.000000 -0.000000 0.000000
 28 -2.740810 -1.783829 -4.956821 0.000000 -0.000000 0.000000
 29 8.158013 -0.446265 16.846825 0.079531 0.239998 -0.192855
 30 12.284377 0.200996 -15.879509 -0.734217 -0.498918 -0.816761
 31 6.919277 -3.849014 -10.201530 -0.088245 -0.076199 -0.105809
 32 1.801670 -1.439339 -4.598675 0.000000 -0.000000 0.000000
 33 0.275626 -0.653330 2.573700 0.000000 -0.000000 0.000000
 34 -2.128445 3.188605 168.111557 0.000000 -0.000000 0.000000
time 3
  0 -2.408944 2.128008 -1.071352 0.000000 -0.000000 0.000000
  1 -2.408944 2.128008 -1.071352 0.000000 -0.000000 0.000000
  2 -2.408944 2.128008 -0.994490 0.000000 -0.000000 0.000000
  3 0.000000 -0.593194 74.066505 0.034907 0.000000 0.000000
  4 0.000000 0.380081 -2.358139 -0.191968 0.000000 -0.000000
  5 -6.962072 -1.123270 -14.918671 -0.117611 0.103397 -0.142897
  6 -0.762899 1.783216 -29.522810 1.181842 0.005235 0.118612
  7 -1.525356 0.897310 -28.921169 -0.292387 -0.049164 -0.003695
  8 0.354393 -2.635786 -5.445798 0.000000 -0.000000 0.000000
  9 7.456964 -0.120268 -14.357971 -0.068305 -0.155899 -0.019300
 10 0.913362 0.804958 -30.266216 1.133821 0.101689 -0.035537
 11 1.054037 0.998068 -28.738491 -0.260399 0.006793 0.020443
 12 0.073697 -2.761297 -5.395102 0.000000 -0.000000 0.000000
 13 0.184103 2.405382 6.536697 -0.017453 0.000000 0.000000
 14 -2.507427 0.706861 2.240990 -0.002471 0.006107 -0.382975
 15 3.250291 -0.229969 -90.900162 0.017445 -0.006626 0.385211
 16 1.065001 0.706861 2.240990 -0.003229 -0.006785 0.438678
 17 -2.362352 -0.468021 -90.905518 0.017471 0.007558 -0.441260
 18 0.000000 -0.154718 2.376083 0.219492 0.000000 0.000001
 19 0.646873 -1.121445 24.709137 0.459272 -0.000001 0.000000
 20 -0.331074 15.401077 -4.448273 -0.174533 0.000000 0.000000
 21 0.294691 4.810112 -18.307007 -0.174532 0.000000 -0.000000
 22 -1.097139 0.677547 9.228615 0.000000 -0.000000 0.000000
 23 -7.043963 -0.624743 16.699585 -0.034644 0.097207 -0.043620
 24 -13.119776 0.402664 -15.778526 -0.270207 -0.026041 0.540628
 25 -6.930326 -3.869406 -10.071312 -0.271619 0.244372 -0.041531
 26 -1.440521 -1.851318 -5.643753 0.052020 0.091792 0.093927
 27 30.607504 4.937150 -71.660202 0.000000 -0.000000 0.000000
 28 -2.740807 -1.783822 -4.956825 0.000000 -0.000000 0.000000
 29 8.158013 -0.446264 16.846817 -0.126428 0.187292 -0.232843
 30 12.284375 0.200995 -15.879509 -0.414285 -0.386396 -0.541891
 31 6.919273 -3.849016 -10.201530 -0.088245 -0.076199 -0.105809
 32 1.801670 -1.439339 -4.598671 0.000000 -0.000000 0.000000
 33 0.275625 -0.653330 2.573700 0.000000 -0.000000 0.000000
 34 -2.128445 3.188605 168.111557 0.000000 -0.000000 0.000000
time 4
  0 -2.408944 2.128008 -1.071352 0.000000 -0.000000 0.000000
  1 -2.408944 2.128008 -1.071352 0.000000 -0.000000 0.000000
  2 -2.408944 2.128008 -0.937962 0.000000 -0.000000 0.000000
  3 0.000000 -0.593194 67.466850 0.034907 0.000000 0.000000
  4 0.000000 0.380081 -2.358139 -0.270003 0.000000 -0.000000
  5 -6.962072 -1.123271 -14.918671 -0.117611 0.103397 -0.142897
  6 -0.762899 1.783216 -29.522808 1.552246 0.007836 0.177544
  7 -1.525356 0.897307 -28.921164 -0.292388 -0.049164 -0.003695
  8 0.354391 -2.635786 -5.445796 0.000000 -0.000000 0.000000
  9 7.456964 -0.120269 -14.357975 -0.068305 -0.155899 -0.019300
 10 0.913363 0.804956 -30.266211 1.523601 0.136760 -0.061070
 11 1.054039 0.998074 -28.738499 -0.260399 0.006793 0.020443
 12 0.073699 -2.761299 -5.395102 0.000000 -0.000000 0.000000
 13 0.184103 2.405381 6.536694 -0.017453 0.000000 0.000000
 14 -2.507427 0.706861 2.240997 -0.002471 0.006107 -0.382975
 15 3.250292 -0.229967 -90.900154 0.017445 -0.006626 0.385211
 16 1.065001 0.706861 2.240997 -0.003229 -0.006785 0.438678
 17 -2.362351 -0.468018 -90.905502 0.017471 0.007558 -0.441260
 18 0.000000 -0.154718 2.376091 0.441277 0.000000 0.000001
 19 0.646873 -1.121441 24.709152 0.566057 -0.000001 0.000001
 20 -0.331074 15.401070 -4.448269 -0.174533 0.000000 0.000000
 21 0.294691 4.810104 -18.307007 -0.174532 0.000000 -0.000000
 22 -1.097139 0.677551 9.228622 0.000000 -0.000000 0.000000
 23 -7.043964 -0.624741 16.699593 -0.233973 0.136992 -0.066947
 24 -13.119774 0.402664 -15.778534 -0.086805 -0.144556 0.582387
 25 -6.930326 -3.869408 -10.071308 -0.271619 0.244372 -0.041531
 26 -1.440521 -1.851320 -5.643753 0.052020 0.091792 0.093927
 27 30.607498 4.937150 -71.660225 0.000000 -0.000000 0.000000
 28 -2.740810 -1.783826 -4.956825 0.000000 -0.000000 0.000000
 29 8.158013 -0.446266 16.846817 -0.337278 0.133334 -0.273781
 30 12.284377 0.200994 -15.879509 -0.086758 -0.271202 -0.260495
 31 6.919267 -3.849014 -10.201527 -0.088245 -0.076199 -0.105809
 32 1.801672 -1.439340 -4.598675 0.000000 -0.000000 0.000000
 33 0.275626 -0.653328 2.573704 0.000000 -0.000000 0.000000
 34 -2.128445 3.188605 168.111557 0.000000 -0.000000 0.000000
time 5
  0 -2.408944 2.128008 -1.071352 0.000000 -0.000000 0.000000
  1 -2.408944 2.128008 -1.071352 0.000000 -0.000000 0.000000
  2 -2.408944 2.128008 -0.868014 0.000000 -0.000000 0.000000
  3 0.000000 -0.593194 60.225307 0.034907 0.000000 0.000000
  4 0.000000 0.380081 -2.358139 -0.333302 0.000000 -0.000000
  5 -6.962073 -1.123270 -14.918674 -0.117611 0.103397 -0.142897
  6 -0.762899 1.783215 -29.522812 1.852701 0.009945 0.225347
  7 -1.525354 0.897311 -28.921167 -0.292388 -0.049164 -0.003695
  8 0.354391 -2.635786 -5.445799 0.000000 -0.000000 0.000000
  9 7.456964 -0.120269 -14.357971 -0.068305 -0.155899 -0.019300
 10 0.913362 0.804962 -30.266220 1.839772 0.165208 -0.081781
 11 1.054041 0.998075 -28.738493 -0.260399 0.006793 0.020443
 12 0.073697 -2.761298 -5.395098 0.000000 -0.000000 0.000000
 13 0.184103 2.405382 6.536697 -0.017453 0.000000 0.000000
 14 -2.507427 0.706861 2.240990 -0.002471 0.006107 -0.382975
 15 3.250289 -0.229970 -90.900162 0.017445 -0.006626 0.385211
 16 1.065001 0.706861 2.240990 -0.003229 -0.006785 0.438678
 17 -2.362350 -0.468019 -90.905525 0.017471 0.007558 -0.441260
 18 0.000000 -0.154719 2.376087 0.621178 0.000000 0.000001
 19 0.646873 -1.121445 24.709141 0.652676 -0.000001 0.000001
 20 -0.331074 15.401077 -4.448267 -0.174533 0.000000 0.000000
 21 0.294691 4.810112 -18.307001 -0.174532 0.000000 -0.000000
 22 -1.097139 0.677551 9.228622 0.000000 -0.000000 0.000000
 23 -7.043964 -0.624741 16.699589 -0.395660 0.169264 -0.085869
 24 -13.119774 0.402668 -15.778526 0.061962 -0.240691 0.616260
 25 -6.930326 -3.869411 -10.071312 -0.271619 0.244372 -0.041531
 26 -1.440519 -1.851318 -5.643757 0.052020 0.091792 0.093927
 27 30.607502 4.937140 -71.660217 0.000000 -0.000000 0.000000
 28 -2.740808 -1.783824 -4.956825 0.000000 -0.000000 0.000000
 29 8.158013 -0.446262 16.846821 -0.508309 0.089566 -0.306988
 30 12.284378 0.200995 -15.879509 0.178917 -0.177762 -0.032240
 31 6.919269 -3.849016 -10.201534 -0.088245 -0.076199 -0.105809
 32 1.801674 -1.439342 -4.598679 0.000000 -0.000000 0.000000
 33 0.275626 -0.653332 2.573700 0.000000 -0.000000 0.000000
 34 -2.128445 3.188605 168.111557 0.000000 -0.000000 0.000000
time 6
  0 -2.408944 2.128008 -1.071352 0.000000 -0.000000 0.000000
  1 -2.408944 2.128008 -1.071352 0.000000 -0.000000 0.000000
  2 -2.408944 2.128008 -0.785866 0.000000 -0.000000 0.000000
  3 0.000000 -0.593194 52.897614 0.034907 0.000000 0.000000
  4 0.000000 0.380081 -2.358139 -0.365317 0.000000 -0.000000
  5 -6.962073 -1.123269 -14.918678 -0.117611 0.103397 -0.142897
  6 -0.762898 1.783215 -29.522808 2.004666 0.011013 0.249525
  7 -1.525356 0.897309 -28.921165 -0.292388 -0.049164 -0.003695
  8 0.354389 -2.635785 -5.445799 0.000000 -0.000000 0.000000
  9 7.456964 -0.120267 -14.357975 -0.068305 -0.155899 -0.019300
 10 0.913363 0.804956 -30.266220 1.999686 0.179597 -0.092257
 11 1.054042 0.998079 -28.738499 -0.260399 0.006793 0.020443
 12 0.073698 -2.761297 -5.395102 0.000000 -0.000000 0.000000
 13 0.184103 2.405383 6.536694 -0.017453 0.000000 0.000000
 14 -2.507427 0.706863 2.240990 -0.002471 0.006107 -0.382975
 15 3.250293 -0.229970 -90.900162 0.017445 -0.006626 0.385211
 16 1.065002 0.706861 2.240990 -0.003229 -0.006785 0.438678
 17 -2.362351 -0.468019 -90.905518 0.017471 0.007558 -0.441260
 18 0.000000 -0.154718 2.376087 0.712169 0.000000 0.000001
 19 0.646873 -1.121441 24.709148 0.696487 -0.000001 0.000001
 20 -0.331074 15.401070 -4.448265 -0.174533 0.000000 0.000000
 21 0.294691 4.810112 -18.306999 -0.174532 0.000000 -0.000000
 22 -1.097139 0.677544 9.228622 0.000000 -0.000000 0.000000
 23 -7.043964 -0.624741 16.699589 -0.477439 0.185587 -0.095440
 24 -13.119770 0.402665 -15.778526 0.137207 -0.289314 0.633393
 25 -6.930322 -3.869411 -10.071308 -0.271619 0.244372 -0.041531
 26 -1.440521 -1.851320 -5.643757 0.052020 0.091792 0.093927
 27 30.607492 4.937136 -71.660202 0.000000 -0.000000 0.000000
 28 -2.740810 -1.783825 -4.956825 0.000000 -0.000000 0.000000
 29 8.158014 -0.446266 16.846817 -0.594814 0.067429 -0.323783
 30 12.284373 0.200995 -15.879509 0.313292 -0.130502 0.083208
 31 6.919268 -3.849014 -10.201534 -0.088245 -0.076199 -0.105809
 32 1.801670 -1.439342 -4.598675 0.000000 -0.000000 0.000000
 33 0.275625 -0.653332 2.573696 0.000000 -0.000000 0.000000
 34 -2.128445 3.188605 168.111557 0.000000 -0.000000 0.000000
time 7
  0 -2.408944 2.128008 -1.071352 0.000000 -0.000000 0.000000
  1 -2.408944 2.128008 -1.071352 0.000000 -0.000000 0.000000
  2 -2.408944 2.128008 -0.692737 0.000000 -0.000000 0.000000
  3 0.000000 -0.593194 45.548946 0.034907 0.000000 0.000000
  4 0.000000 0.380081 -2.358143 -0.366519 0.000000 -0.000000
  5 -6.962072 -1.123269 -14.918674 -0.117611 0.103397 -0.142897
  6 -0.762899 1.783217 -29.522810 2.010372 0.011053 0.250433
  7 -1.525356 0.897309 -28.921167 -0.292388 -0.049164 -0.003695
  8 0.354393 -2.635786 -5.445796 0.000000 -0.000000 0.000000
  9 7.456964 -0.120267 -14.357975 -0.068305 -0.155899 -0.019300
 10 0.913363 0.804958 -30.266212 2.005691 0.180137 -0.092650
 11 1.054042 0.998077 -28.738491 -0.260399 0.006793 0.020443
 12 0.073699 -2.761296 -5.395098 0.000000 -0.000000 0.000000
 13 0.184103 2.405382 6.536694 -0.017453 0.000000 0.000000
 14 -2.507427 0.706860 2.240993 -0.002471 0.006107 -0.382975
 15 3.250289 -0.229962 -90.900146 0.017445 -0.006626 0.385211
 16 1.065002 0.706860 2.240993 -0.003229 -0.006785 0.438678
 17 -2.362353 -0.468019 -90.905502 0.017471 0.007558 -0.441260
 18 -0.000000 -0.154719 2.376087 0.715586 0.000000 0.000001
 19 0.646873 -1.121441 24.709148 0.698132 -0.000001 0.000001
 20 -0.331074 15.401066 -4.448267 -0.174533 0.000000 -0.000000
 21 0.294691 4.810112 -18.306999 -0.174532 0.000000 -0.000000
 22 -1.097139 0.677544 9.228624 0.000000 -0.000000 0.000000
 23 -7.043963 -0.624741 16.699589 -0.480510 0.186200 -0.095799
 24 -13.119774 0.402665 -15.778526 0.140032 -0.291140 0.634036
 25 -6.930326 -3.869410 -10.071306 -0.271619 0.244372 -0.041531
 26 -1.224979 -1.864109 -5.067739 0.046814 0.122685 0.090429
 27 30.607498 4.937145 -71.660202 0.000000 -0.000000 0.000000
 28 -2.740810 -1.783827 -4.956823 0.000000 -0.000000 0.000000
 29 8.158013 -0.446266 16.846817 -0.598062 0.066598 -0.324414
 30 12.284378 0.200994 -15.879513 0.318337 -0.128727 0.087543
 31 6.919273 -3.849015 -10.201536 -0.088245 -0.076199 -0.105809
 32 1.801674 -1.439341 -4.598675 0.000000 -0.000000 0.000000
 33 0.275625 -0.653328 2.573700 0.000000 -0.000000 0.000000
 34 -2.128445 3.188605 168.111557 0.000000 -0.000000 0.000000
time 8
  0 -2.408944 2.128008 -1.071352 0.000000 -0.000000 0.000000
  1 -2.408944 2.128008 -1.071352 0.000000 -0.000000 0.000000
  2 -2.408944 2.128008 -0.589848 0.000000 -0.000000 0.000000
  3 0.000000 -0.593194 37.477932 0.034907 0.000000 0.000000
  4 0.000000 0.380081 -2.358139 -0.366519 0.000000 -0.000000
  5 -6.962072 -1.123269 -14.918674 -0.117611 0.103397 -0.142897
  6 -0.762898 1.783216 -29.522812 2.010372 0.011053 0.250433
  7 -1.525356 0.897310 -28.921167 -0.292388 -0.049164 -0.003695
  8 0.354391 -2.635785 -5.445796 0.000000 -0.000000 0.000000
  9 7.456964 -0.120268 -14.357973 -0.068305 -0.155899 -0.019300
 10 0.913363 0.804958 -30.266214 2.005691 0.180137 -0.092650
 11 1.054043 0.998077 -28.738491 -0.260399 0.006793 0.020443
 12 0.073698 -2.761297 -5.395102 0.000000 -0.000000 0.000000
 13 0.184103 2.405382 6.536694 -0.017453 0.000000 0.000000
 14 -2.507427 0.706861 2.240990 -0.002471 0.006107 -0.382975
 15 3.250291 -0.229965 -90.900139 0.017445 -0.006626 0.385211
 16 1.065001 0.706861 2.240990 -0.003229 -0.006785 0.438678
 17 -2.362349 -0.468018 -90.905502 0.017471 0.007558 -0.441260
 18 -0.000000 -0.154719 2.376087 0.715586 0.000000 0.000001
 19 0.646873 -1.121445 24.709143 0.698132 -0.000001 0.000001
 20 -0.331074 15.401073 -4.448267 -0.174533 0.000000 -0.000000
 21 0.294691 4.810112 -18.307003 -0.174532 0.000000 -0.000000
 22 -1.097138 0.677547 9.228622 0.000000 -0.000000 0.000000
 23 -7.043964 -0.624741 16.699591 -0.480510 0.186200 -0.095799
 24 -13.119774 0.402664 -15.778526 0.140032 -0.291140 0.634036
 25 -6.930326 -3.869411 -10.071310 -0.271619 0.244372 -0.041531
 26 -0.385828 -1.912837 -2.815243 0.026980 0.240387 0.077104
 27 30.607492 4.937140 -71.660217 0.000000 -0.000000 0.000000
 28 -2.740810 -1.783829 -4.956823 0.000000 -0.000000 0.000000
 29 8.158013 -0.446264 16.846819 -0.598062 0.066598 -0.324414
 30 12.284377 0.200995 -15.879513 0.318337 -0.128727 0.087543
 31 6.919271 -3.849013 -10.201530 -0.088245 -0.076199 -0.105809
 32 1.801672 -1.439341 -4.598675 0.000000 -0.000000 0.000000
 33 0.275625 -0.653330 2.573700 0.000000 -0.000000 0.000000
 34 -2.128445 3.188605 168.111557 0.000000 -0.000000 0.000000
time 9
  0 -2.408944 2.128008 -1.071352 0.000000 -0.000000 0.000000
  1 -2.408944 2.128008 -1.071352 0.000000 -0.000000 0.000000
  2 -2.408944 2.128008 -0.478419 0.000000 -0.000000 0.000000
  3 0.000000 -0.593194 28.866453 0.034907 0.000000 0.000000
  4 0.000000 0.380081 -2.358141 -0.366519 0.000000 -0.000000
  5 -6.962073 -1.123271 -14.918674 -0.117611 0.103397 -0.142897
  6 -0.762898 1.783216 -29.522812 2.010372 0.011053 0.250433
  7 -1.525354 0.897310 -28.921169 -0.292388 -0.049164 -0.003695
  8 0.354392 -2.635784 -5.445797 0.000000 -0.000000 0.000000
  9 7.456964 -0.120268 -14.357976 -0.068305 -0.155899 -0.019300
 10 0.913363 0.804955 -30.266214 2.005691 0.180137 -0.092650
 11 1.054043 0.998078 -28.738497 -0.260399 0.006793 0.020443
 12 0.073699 -2.761296 -5.395098 0.000000 -0.000000 0.000000
 13 0.184103 2.405381 6.536692 -0.017453 0.000000 0.000000
 14 -2.507427 0.706861 2.240992 -0.002471 0.006107 -0.382975
 15 3.250288 -0.229968 -90.900139 0.017445 -0.006626 0.385211
 16 1.065001 0.706861 2.240988 -0.003229 -0.006785 0.438678
 17 -2.362351 -0.468017 -90.905502 0.017471 0.007558 -0.441260
 18 0.000000 -0.154719 2.376083 0.715586 0.000000 0.000001
 19 0.646873 -1.121447 24.709143 0.698132 -0.000001 0.000001
 20 -0.331074 15.401073 -4.448269 -0.174533 0.000000 -0.000000
 21 0.294691 4.810116 -18.306999 -0.174532 0.000000 -0.000000
 22 -1.097138 0.677544 9.228621 0.000000 -0.000000 0.000000
 23 -7.043964 -0.624743 16.699591 -0.480510 0.186200 -0.095799
 24 -13.119774 0.402664 -15.778524 0.140032 -0.291140 0.634036
 25 -6.930325 -3.869408 -10.071306 -0.271619 0.244372 -0.041531
 26 0.970444 -1.989177 0.847773 -0.004093 0.424803 0.056227
 27 30.607496 4.937137 -71.660225 0.000000 -0.000000 0.000000
 28 -2.740812 -1.783828 -4.956824 0.000000 -0.000000 0.000000
 29 8.158013 -0.446264 16.846819 -0.598062 0.066598 -0.324414
 30 12.284378 0.200993 -15.879519 0.318337 -0.128727 0.087543
 31 6.919273 -3.849015 -10.201530 -0.088245 -0.076199 -0.105809
 32 1.801672 -1.439340 -4.598675 0.000000 -0.000000 0.000000
 33 0.275625 -0.653332 2.573700 0.000000 -0.000000 0.000000
 34 -2.128445 3.188605 168.111557 0.000000 -0.000000 0.000000
time 10
  0 -2.408944 2.128008 -1.071352 0.000000 -0.000000 0.000000
  1 -2.408944 2.128008 -1.071352 0.000000 -0.000000 0.000000
  2 -2.408944 2.128008 -0.359670 0.000000 -0.000000 0.000000
  3 0.000000 -0.593194 19.932121 0.034907 0.000000 0.000000
  4 0.000000 0.380081 -2.358141 -0.366519 0.000000 -0.000000
  5 -6.962073 -1.123271 -14.918673 -0.117611 0.103397 -0.142897
  6 -0.762899 1.783216 -29.522810 2.010372 0.011053 0.250433
  7 -1.525354 0.897310 -28.921169 -0.292388 -0.049164 -0.003695
  8 0.354392 -2.635782 -5.445797 0.000000 -0.000000 0.000000
  9 7.456964 -0.120268 -14.357974 -0.068305 -0.155899 -0.019300
 10 0.913363 0.804958 -30.266212 2.005691 0.180137 -0.092650
 11 1.054043 0.998079 -28.738493 -0.260399 0.006793 0.020443
 12 0.073698 -2.761295 -5.395100 0.000000 -0.000000 0.000000
 13 0.184103 2.405381 6.536694 -0.017453 0.000000 0.000000
 14 -2.507427 0.706862 2.240992 -0.002471 0.006107 -0.382975
 15 3.250288 -0.229968 -90.900146 0.017445 -0.006626 0.385211
 16 1.065001 0.706861 2.240992 -0.003229 -0.006785 0.438678
 17 -2.362352 -0.468024 -90.905502 0.017471 0.007558 -0.441260
 18 0.000000 -0.154718 2.376083 0.715586 0.000000 0.000001
 19 0.646873 -1.121444 24.709146 0.698132 -0.000001 0.000001
 20 -0.331074 15.401077 -4.448265 -0.174533 0.000000 -0.000000
 21 0.294691 4.810120 -18.306999 -0.174532 0.000000 -0.000000
 22 -1.097139 0.677547 9.228622 0.000000 -0.000000 0.000000
 23 -7.043964 -0.624740 16.699593 -0.480510 0.186200 -0.095799
 24 -13.119776 0.402666 -15.778532 0.140032 -0.291140 0.634036
 25 -6.930326 -3.869408 -10.071309 -0.271619 0.244372 -0.041531
 26 2.719467 -2.083731 5.607695 -0.042580 0.653239 0.030369
 27 30.607529 4.937163 -71.660240 0.000000 -0.000000 0.000000
 28 -2.740810 -1.783826 -4.956823 0.000000 -0.000000 0.000000
 29 8.158013 -0.446263 16.846823 -0.598062 0.066598 -0.324414
 30 12.284376 0.200996 -15.879513 0.318337 -0.128727 0.087543
 31 6.919272 -3.849016 -10.201532 -0.088245 -0.076199 -0.105809
 32 1.801676 -1.439341 -4.598675 0.000000 -0.000000 0.000000
 33 0.275625 -0.653329 2.573702 0.000000 -0.000000 0.000000
 34 -2.128445 3.188605 168.111557 0.000000 -0.000000 0.000000
time 11
  0 -2.408944 2.128008 -1.071352 0.000000 -0.000000 0.000000
  1 -2.408944 2.128008 -1.071352 0.000000 -0.000000 0.000000
  2 -2.408944 2.128008 -0.234820 0.000000 -0.000000 0.000000
  3 0.000000 -0.593194 10.892552 0.034907 0.000000 0.000000
  4 0.000000 0.380081 -2.358141 -0.366519 0.000000 -0.000000
  5 -6.962073 -1.123270 -14.918673 -0.117611 0.103397 -0.142897
  6 -0.762898 1.783216 -29.522810 2.010372 0.011053 0.250433
  7 -1.525354 0.897312 -28.921164 -0.292387 -0.049164 -0.003695
  8 0.354391 -2.635782 -5.445797 0.000000 -0.000000 0.000000
  9 7.456964 -0.120268 -14.357974 -0.068305 -0.155899 -0.019300
 10 0.913363 0.804960 -30.266214 2.005691 0.180137 -0.092650
 11 1.054042 0.998077 -28.738491 -0.260399 0.006793 0.020443
 12 0.073698 -2.761299 -5.395100 0.000000 -0.000000 0.000000
 13 0.184103 2.405381 6.536694 -0.017453 0.000000 0.000000
 14 -2.507427 0.706861 2.240990 -0.002471 0.006107 -0.382975
 15 3.250289 -0.229967 -90.900146 0.017445 -0.006626 0.385211
 16 1.065002 0.706861 2.240992 -0.003229 -0.006785 0.438678
 17 -2.362350 -0.468019 -90.905510 0.017471 0.007558 -0.441260
 18 -0.000000 -0.154719 2.376084 0.715586 0.000000 0.000001
 19 0.646873 -1.121443 24.709146 0.698132 -0.000001 0.000001
 20 -0.331074 15.401077 -4.448267 -0.174533 0.000000 -0.000000
 21 0.294691 4.810116 -18.306999 -0.174532 0.000000 -0.000000
 22 -1.097138 0.677546 9.228622 0.000000 -0.000000 0.000000
 23 -7.043964 -0.624741 16.699589 -0.480510 0.186200 -0.095799
 24 -13.119776 0.402665 -15.778528 0.140032 -0.291140 0.634036
 25 -6.930325 -3.869411 -10.071308 -0.271619 0.244372 -0.041531
 26 4.736855 -2.187094 11.150908 -0.084654 0.903000 0.002101
 27 30.607531 4.937160 -71.660233 0.000000 -0.000000 0.000000
 28 -2.740812 -1.783826 -4.956823 0.000000 -0.000000 0.000000
 29 8.158013 -0.446264 16.846821 -0.598062 0.066598 -0.324414
 30 12.284376 0.200995 -15.879513 0.318337 -0.128727 0.087543
 31 6.919271 -3.849015 -10.201532 -0.088245 -0.076199 -0.105809
 32 1.801672 -1.439341 -4.598676 0.000000 -0.000000 0.000000
 33 0.275625 -0.653329 2.573700 0.000000 -0.000000 0.000000
 34 -2.128445 3.188605 168.111557 0.000000 -0.000000 0.000000
time 12
  0 -2.408944 2.128008 -1.071352 0.000000 -0.000000 0.000000
  1 -2.408944 2.128008 -1.071352 0.000000 -0.000000 0.000000
  2 -2.408944 2.128008 -0.105091 0.000000 -0.000000 0.000000
  3 0.000000 -0.593194 1.965366 0.034907 0.000000 0.000000
  4 0.000000 0.380081 -2.358141 -0.366519 0.000000 -0.000000
  5 -6.962073 -1.123270 -14.918673 -0.117611 0.103397 -0.142897
  6 -0.762898 1.783216 -29.522812 2.010372 0.011053 0.250433
  7 -1.525354 0.897308 -28.921162 -0.292387 -0.049164 -0.003695
  8 0.354390 -2.635780 -5.445799 0.000000 -0.000000 0.000000
  9 7.456964 -0.120268 -14.357975 -0.068305 -0.155899 -0.019300
 10 0.913362 0.804959 -30.266211 2.005691 0.180137 -0.092650
 11 1.054042 0.998074 -28.738491 -0.260399 0.006793 0.020443
 12 0.073700 -2.761295 -5.395100 0.000000 -0.000000 0.000000
 13 0.184103 2.405381 6.536693 -0.017453 0.000000 0.000000
 14 -2.507427 0.706861 2.240991 -0.002471 0.006107 -0.382975
 15 3.250289 -0.229969 -90.900146 0.017445 -0.006626 0.385211
 16 1.065001 0.706861 2.240990 -0.003229 -0.006785 0.438678
 17 -2.362353 -0.468027 -90.905502 0.017471 0.007558 -0.441260
 18 0.000000 -0.154719 2.376084 0.715586 0.000000 0.000001
 19 0.646873 -1.121445 24.709146 0.698132 -0.000001 0.000001
 20 -0.331074 15.401073 -4.448265 -0.174533 0.000000 -0.000000
 21 0.294691 4.810116 -18.306999 -0.174532 0.000000 -0.000000
 22 -1.097139 0.677547 9.228622 0.000000 -0.000000 0.000000
 23 -7.043964 -0.624740 16.699593 -0.480510 0.186200 -0.095799
 24 -13.119773 0.402665 -15.778527 0.140032 -0.291140 0.634036
 25 -6.930326 -3.869411 -10.071309 -0.271619 0.244372 -0.041531
 26 6.898224 -2.289869 17.163794 -0.126489 1.151389 -0.026007
 27 30.607555 4.937169 -71.660233 0.000000 -0.000000 0.000000
 28 -2.740810 -1.783827 -4.956822 0.000000 -0.000000 0.000000
 29 8.158013 -0.446265 16.846821 -0.598062 0.066598 -0.324414
 30 12.284374 0.200996 -15.879511 0.318337 -0.128727 0.087543
 31 6.919270 -3.849015 -10.201531 -0.088245 -0.076199 -0.105809
 32 1.801672 -1.439342 -4.598675 0.000000 -0.000000 0.000000
 33 0.275625 -0.653330 2.573700 0.000000 -0.000000 0.000000
 34 -2.128445 3.188605 168.111557 0.000000 -0.000000 0.000000
time 13
  0 -2.408944 2.128008 -1.071352 0.000000 -0.000000 0.000000
  1 -2.408944 2.128008 -1.071352 0.000000 -0.000000 0.000000
  2 -2.408944 2.128008 0.028299 0.000000 -0.000000 0.000000
  3 0.000000 -0.593194 -6.631825 0.034907 0.000000 0.000000
  4 0.000000 0.380081 -2.358141 -0.366519 0.000000 -0.000000
  5 -6.962073 -1.123271 -14.918673 -0.117611 0.103397 -0.142897
  6 -0.762898 1.783217 -29.522818 2.010372 0.011053 0.250433
  7 -1.525355 0.897312 -28.921162 -0.292388 -0.049164 -0.003695
  8 0.354390 -2.635784 -5.445797 0.000000 -0.000000 0.000000
  9 7.456964 -0.120268 -14.357973 -0.068305 -0.155899 -0.019300
 10 0.913363 0.804959 -30.266211 2.005691 0.180137 -0.092650
 11 1.054042 0.998077 -28.738491 -0.260399 0.006793 0.020443
 12 0.073698 -2.761292 -5.395100 0.000000 -0.000000 0.000000
 13 0.184103 2.405381 6.536693 -0.017453 0.000000 0.000000
 14 -2.507427 0.706861 2.240990 -0.002471 0.006107 -0.382975
 15 3.250288 -0.229967 -90.900154 0.017445 -0.006626 0.385211
 16 1.065002 0.706861 2.240990 -0.003229 -0.006785 0.438678
 17 -2.362351 -0.468015 -90.905495 0.017471 0.007558 -0.441260
 18 0.000000 -0.154719 2.376084 0.715586 0.000000 0.000001
 19 0.646873 -1.121443 24.709146 0.698132 -0.000001 0.000001
 20 -0.331074 15.401073 -4.448267 -0.174533 0.000000 -0.000000
 21 0.294691 4.810116 -18.306999 -0.174532 0.000000 -0.000000
 22 -1.097139 0.677547 9.228622 0.000000 -0.000000 0.000000
 23 -7.043963 -0.624740 16.699591 -0.480510 0.186200 -0.095799
 24 -13.119774 0.402666 -15.778526 0.140032 -0.291140 0.634036
 25 -6.930326 -3.869412 -10.071311 -0.271619 0.244372 -0.041531
 26 9.079216 -2.382655 23.332758 -0.164259 1.375712 -0.051382
 27 30.607563 4.937193 -71.660240 0.000000 -0.000000 0.000000
 28 -2.740810 -1.783824 -4.956825 0.000000 -0.000000 0.000000
 29 8.158013 -0.446264 16.846821 -0.598062 0.066598 -0.324414
 30 12.284376 0.200994 -15.879515 0.318337 -0.128727 0.087543
 31 6.919270 -3.849013 -10.201529 -0.088245 -0.076199 -0.105809
 32 1.801674 -1.439342 -4.598675 0.000000 -0.000000 0.000000
 33 0.275625 -0.653330 2.573700 0.000000 -0.000000 0.000000
 34 -2.128445 3.188605 168.111557 0.000000 -0.000000 0.000000
time 14
  0 -2.408944 2.128008 -1.071352 0.000000 -0.000000 0.000000
  1 -2.408944 2.128008 -1.071352 0.000000 -0.000000 0.000000
  2 -2.408944 2.128008 0.164128 0.000000 -0.000000 0.000000
  3 0.000000 -0.593194 -14.681399 0.034907 0.000000 0.000000
  4 0.000000 0.380081 -2.358140 -0.366519 0.000000 -0.000000
  5 -6.962072 -1.123270 -14.918674 -0.117611 0.103397 -0.142897
  6 -0.762898 1.783216 -29.522812 2.010372 0.011053 0.250433
  7 -1.525356 0.897305 -28.921162 -0.292388 -0.049164 -0.003695
  8 0.354391 -2.635784 -5.445797 0.000000 -0.000000 0.000000
  9 7.456964 -0.120268 -14.357974 -0.068305 -0.155899 -0.019300
 10 0.913364 0.804960 -30.266212 2.005691 0.180137 -0.092650
 11 1.054046 0.998077 -28.738493 -0.260399 0.006793 0.020443
 12 0.073699 -2.761295 -5.395100 0.000000 -0.000000 0.000000
 13 0.184103 2.405382 6.536694 -0.017453 0.000000 0.000000
 14 -2.507427 0.706861 2.240991 -0.002471 0.006107 -0.382975
 15 3.250291 -0.229968 -90.900139 0.017445 -0.006626 0.385211
 16 1.065002 0.706861 2.240991 -0.003229 -0.006785 0.438678
 17 -2.362349 -0.468014 -90.905495 0.017471 0.007558 -0.441260
 18 0.000000 -0.154719 2.376084 0.715586 0.000000 0.000001
 19 0.646873 -1.121443 24.709145 0.698132 -0.000001 0.000001
 20 -0.331074 15.401073 -4.448268 -0.174533 0.000000 -0.000000
 21 0.294691 4.810116 -18.306999 -0.174532 0.000000 -0.000000
 22 -1.097138 0.677547 9.228622 0.000000 -0.000000 0.000000
 23 -7.043964 -0.624740 16.699589 -0.480510 0.186200 -0.095799
 24 -13.119772 0.402666 -15.778523 0.140032 -0.291140 0.634036
 25 -6.930323 -3.869412 -10.071306 -0.271619 0.244372 -0.041531
 26 11.155437 -2.456055 29.344166 -0.194135 1.553272 -0.071455
 27 30.607544 4.937171 -71.660217 0.000000 -0.000000 0.000000
 28 -2.740808 -1.783827 -4.956821 0.000000 -0.000000 0.000000
 29 8.158013 -0.446264 16.846821 -0.598062 0.066598 -0.324414
 30 12.284380 0.200994 -15.879515 0.318337 -0.128727 0.087543
 31 6.919271 -3.849014 -10.201532 -0.088245 -0.076199 -0.105809
 32 1.801670 -1.439342 -4.598675 0.000000 -0.000000 0.000000
 33 0.275625 -0.653330 2.573699 0.000000 -0.000000 0.000000
 34 -2.128445 3.188605 168.111557 0.000000 -0.000000 0.000000
time 15
  0 -2.408944 2.128008 -1.071352 0.000000 -0.000000 0.000000
  1 -2.408944 2.128008 -1.071352 0.000000 -0.000000 0.000000
  2 -2.408944 2.128008 0.301178 0.000000 -0.000000 0.000000
  3 0.000000 -0.593194 -21.965740 0.034907 0.000000 0.000000
  4 0.000000 0.380081 -2.358139 -0.366519 0.000000 -0.000000
  5 -6.962073 -1.123271 -14.918673 -0.117611 0.103397 -0.142897
  6 -0.762898 1.783217 -29.522808 2.010372 0.011053 0.250433
  7 -1.525356 0.897308 -28.921162 -0.292388 -0.049164 -0.003695
  8 0.354391 -2.635784 -5.445797 0.000000 -0.000000 0.000000
  9 7.456964 -0.120268 -14.357973 -0.068305 -0.155899 -0.019300
 10 0.913363 0.804961 -30.266216 2.005691 0.180137 -0.092650
 11 1.054042 0.998077 -28.738499 -0.260399 0.006793 0.020443
 12 0.073698 -2.761303 -5.395102 0.000000 -0.000000 0.000000
 13 0.184103 2.405381 6.536694 -0.017453 0.000000 0.000000
 14 -2.507427 0.706861 2.240991 -0.002471 0.006107 -0.382975
 15 3.250292 -0.229970 -90.900139 0.017445 -0.006626 0.385211
 16 1.065001 0.706861 2.240990 -0.003229 -0.006785 0.438678
 17 -2.362350 -0.468021 -90.905518 0.017471 0.007558 -0.441260
 18 0.000000 -0.154718 2.376083 0.715586 0.000000 0.000001
 19 0.646873 -1.121443 24.709146 0.698132 -0.000001 0.000001
 20 -0.331074 15.401074 -4.448266 -0.174533 0.000000 -0.000000
 21 0.294691 4.810116 -18.306999 -0.174532 0.000000 -0.000000
 22 -1.097139 0.677547 9.228622 0.000000 -0.000000 0.000000
 23 -7.043964 -0.624740 16.699591 -0.480510 0.186200 -0.095799
 24 -13.119770 0.402666 -15.778527 0.140032 -0.291140 0.634036
 25 -6.930326 -3.869411 -10.071308 -0.271619 0.244372 -0.041531
 26 13.002525 -2.500673 34.884418 -0.212296 1.661378 -0.083657
 27 30.607553 4.937212 -71.660217 0.000000 -0.000000 0.000000
 28 -2.740810 -1.783825 -4.956825 0.000000 -0.000000 0.000000
 29 8.158014 -0.446264 16.846821 -0.598062 0.066598 -0.324414
 30 12.284376 0.200995 -15.879511 0.318337 -0.128727 0.087543
 31 6.919271 -3.849014 -10.201530 -0.088245 -0.076199 -0.105809
 32 1.801672 -1.439341 -4.598669 0.000000 -0.000000 0.000000
 33 0.275625 -0.653329 2.573701 0.000000 -0.000000 0.000000
 34 -2.128445 3.188605 168.111557 0.000000 -0.000000 0.000000
time 16
  0 -2.408944 2.128008 -1.071352 0.000000 -0.000000 0.000000
  1 -2.408944 2.128008 -1.071352 0.000000 -0.000000 0.000000
  2 -2.408944 2.128008 0.438228 0.000000 -0.000000 0.000000
  3 0.000000 -0.593194 -28.351244 0.034907 0.000000 0.000000
  4 0.000000 0.380081 -2.358141 -0.366519 0.000000 -0.000000
  5 -6.962073 -1.123269 -14.918676 -0.117611 0.103397 -0.142897
  6 -0.762899 1.783215 -29.522808 2.010372 0.011053 0.250433
  7 -1.525356 0.897316 -28.921162 -0.292388 -0.049164 -0.003695
  8 0.354390 -2.635780 -5.445797 0.000000 -0.000000 0.000000
  9 7.456964 -0.120268 -14.357973 -0.068305 -0.155899 -0.019300
 10 0.913363 0.804960 -30.266209 2.005691 0.180138 -0.092650
 11 1.054045 0.998070 -28.738495 -0.260399 0.006793 0.020443
 12 0.073698 -2.761292 -5.395100 0.000000 -0.000000 0.000000
 13 0.184103 2.405382 6.536692 -0.017453 0.000000 0.000000
 14 -2.507427 0.706861 2.240992 -0.002471 0.006107 -0.382975
 15 3.250292 -0.229971 -90.900139 0.017445 -0.006626 0.385211
 16 1.065002 0.706861 2.240992 -0.003229 -0.006785 0.438678
 17 -2.362350 -0.468017 -90.905533 0.017471 0.007558 -0.441260
 18 0.000000 -0.154718 2.376083 0.715586 0.000000 0.000001
 19 0.646873 -1.121443 24.709146 0.698132 -0.000001 0.000001
 20 -0.331074 15.401073 -4.448267 -0.174533 0.000000 -0.000000
 21 0.294691 4.810115 -18.306999 -0.174532 0.000000 -0.000000
 22 -1.097139 0.677547 9.228623 0.000000 -0.000000 0.000000
 23 -7.043964 -0.624741 16.699591 -0.480510 0.186200 -0.095799
 24 -13.119770 0.402666 -15.778524 0.140032 -0.291140 0.634036
 25 -6.930326 -3.869413 -10.071310 -0.271619 0.244372 -0.041531
 26 14.530851 -2.461531 39.737381 -0.215297 1.683805 -0.085442
 27 30.607555 4.937217 -71.660225 0.000000 -0.000000 0.000000
 28 -2.740807 -1.783827 -4.956829 0.000000 -0.000000 0.000000
 29 8.158013 -0.446264 16.846821 -0.598062 0.066598 -0.324414
 30 12.284378 0.200994 -15.879515 0.318337 -0.128727 0.087543
 31 6.919270 -3.849012 -10.201529 -0.088245 -0.076199 -0.105809
 32 1.801672 -1.439342 -4.598675 0.000000 -0.000000 0.000000
 33 0.275625 -0.653330 2.573702 0.000000 -0.000000 0.000000
 34 -2.128445 3.188605 168.111557 0.000000 -0.000000 0.000000
time 17
  0 -2.408944 2.128008 -1.071352 0.000000 -0.000000 0.000000
  1 -2.408944 2.128008 -1.071352 0.000000 -0.000000 0.000000
  2 -2.408944 2.128008 0.574057 0.000000 -0.000000 0.000000
  3 0.000000 -0.593194 -34.687855 0.034907 0.000000 0.000000
  4 0.000000 0.380081 -2.358143 -0.366519 0.000000 -0.000000
  5 -6.962072 -1.123268 -14.918678 -0.117611 0.103397 -0.142897
  6 -0.762899 1.783216 -29.522812 2.010372 0.011053 0.250433
  7 -1.525356 0.897316 -28.921164 -0.292388 -0.049164 -0.003695
  8 0.354390 -2.635780 -5.445797 0.000000 -0.000000 0.000000
  9 7.456964 -0.120268 -14.357975 -0.068305 -0.155899 -0.019300
 10 0.913363 0.804958 -30.266216 2.005691 0.180137 -0.092650
 11 1.054046 0.998070 -28.738499 -0.260399 0.006793 0.020443
 12 0.073700 -2.761292 -5.395100 0.000000 -0.000000 0.000000
 13 0.184103 2.405382 6.536692 -0.017453 0.000000 0.000000
 14 -2.507427 0.706861 2.240992 -0.002471 0.006107 -0.382975
 15 3.250291 -0.229965 -90.900154 0.017445 -0.006626 0.385211
 16 1.065001 0.706860 2.240992 -0.003229 -0.006785 0.438678
 17 -2.362351 -0.468016 -90.905518 0.017471 0.007558 -0.441260
 18 0.000000 -0.154718 2.376083 0.715586 0.000000 0.000001
 19 0.646873 -1.121445 24.709146 0.698132 -0.000001 0.000001
 20 -0.331074 15.401075 -4.448267 -0.174533 0.000000 -0.000000
 21 0.294691 4.810115 -18.306999 -0.174532 0.000000 -0.000000
 22 -1.097138 0.677547 9.228622 0.000000 -0.000000 0.000000
 23 -7.043964 -0.624743 16.699591 -0.480510 0.186200 -0.095799
 24 -13.119772 0.402665 -15.778530 0.140032 -0.291140 0.634036
 25 -6.930328 -3.869412 -10.071314 -0.271619 0.244372 -0.041531
 26 16.070095 -1.807392 44.840553 -0.205717 1.684216 -0.075874
 27 30.607552 4.937204 -71.660217 0.000000 -0.000000 0.000000
 28 -2.740810 -1.783828 -4.956821 0.000000 -0.000000 0.000000
 29 8.158013 -0.446266 16.846821 -0.598062 0.066598 -0.324414
 30 12.284378 0.200996 -15.879511 0.318337 -0.128727 0.087543
 31 6.919268 -3.849014 -10.201527 -0.088245 -0.076199 -0.105809
 32 1.801668 -1.439339 -4.598675 0.000000 -0.000000 0.000000
 33 0.275625 -0.653330 2.573702 0.000000 -0.000000 0.000000
 34 -2.128445 3.188605 168.111557 0.000000 -0.000000 0.000000
time 18
  0 -2.408944 2.128008 -1.071352 0.000000 -0.000000 0.000000
  1 -2.408944 2.128008 -1.071352 0.000000 -0.000000 0.000000
  2 -2.408944 2.128008 0.707447 0.000000 -0.000000 0.000000
  3 0.000000 -0.593194 -41.174206 0.034907 0.000000 0.000000
  4 0.000000 0.380081 -2.358143 -0.366519 0.000000 -0.000000
  5 -6.962073 -1.123269 -14.918674 -0.117611 0.103397 -0.142897
  6 -0.762898 1.783218 -29.522812 2.010372 0.011053 0.250433
  7 -1.525356 0.897316 -28.921164 -0.292388 -0.049164 -0.003695
  8 0.354391 -2.635780 -5.445793 0.000000 -0.000000 0.000000
  9 7.456964 -0.120267 -14.357975 -0.068305 -0.155899 -0.019300
 10 0.913363 0.804956 -30.266209 2.005691 0.180137 -0.092650
 11 1.054043 0.998070 -28.738497 -0.260399 0.006793 0.020443
 12 0.073699 -2.761292 -5.395096 0.000000 -0.000000 0.000000
 13 0.184103 2.405381 6.536694 -0.017453 0.000000 0.000000
 14 -2.507427 0.706861 2.240993 -0.002471 0.006107 -0.382975
 15 3.250290 -0.229965 -90.900162 0.017445 -0.006626 0.385211
 16 1.065002 0.706860 2.240993 -0.003229 -0.006785 0.438678
 17 -2.362352 -0.468014 -90.905518 0.017471 0.007558 -0.441260
 18 0.000000 -0.154719 2.376087 0.715586 0.000000 0.000001
 19 0.646873 -1.121443 24.709146 0.698132 -0.000001 0.000001
 20 -0.331074 15.401074 -4.448267 -0.174533 0.000000 -0.000000
 21 0.294691 4.810115 -18.306999 -0.174532 0.000000 -0.000000
 22 -1.097139 0.677547 9.228621 0.000000 -0.000000 0.000000
 23 -7.043964 -0.624741 16.699591 -0.480510 0.186200 -0.095799
 24 -13.119774 0.402666 -15.778528 0.140032 -0.291140 0.634036
 25 -6.930325 -3.869411 -10.071316 -0.271619 0.244372 -0.041531
 26 17.706631 -0.478951 50.402412 -0.186260 1.684588 -0.056442
 27 30.607553 4.937221 -71.660225 0.000000 -0.000000 0.000000
 28 -2.740810 -1.783825 -4.956818 0.000000 -0.000000 0.000000
 29 8.158013 -0.446266 16.846821 -0.598062 0.066598 -0.324414
 30 12.284376 0.200995 -15.879517 0.318337 -0.128727 0.087543
 31 6.919270 -3.849014 -10.201530 -0.088245 -0.076199 -0.105809
 32 1.801672 -1.439341 -4.598675 0.000000 -0.000000 0.000000
 33 0.275625 -0.653330 2.573702 0.000000 -0.000000 0.000000
 34 -2.128445 3.188605 168.111557 0.000000 -0.000000 0.000000
time 19
  0 -2.408944 2.128008 -1.071352 0.000000 -0.000000 0.000000
  1 -2.408944 2.128008 -1.071352 0.000000 -0.000000 0.000000
  2 -2.408944 2.128008 0.837176 0.000000 -0.000000 0.000000
  3 0.000000 -0.593194 -47.711185 0.034907 0.000000 0.000000
  4 0.000000 0.380081 -2.358143 -0.366519 0.000000 -0.000000
  5 -6.962072 -1.123270 -14.918674 -0.117611 0.103397 -0.142897
  6 -0.762899 1.783220 -29.522812 2.010372 0.011053 0.250433
  7 -1.525356 0.897316 -28.921162 -0.292388 -0.049164 -0.003695
  8 0.354391 -2.635788 -5.445797 0.000000 -0.000000 0.000000
  9 7.456964 -0.120268 -14.357975 -0.068305 -0.155899 -0.019300
 10 0.913364 0.804956 -30.266212 2.005691 0.180137 -0.092650
 11 1.054043 0.998085 -28.738495 -0.260399 0.006793 0.020443
 12 0.073698 -2.761292 -5.395100 0.000000 -0.000000 0.000000
 13 0.184103 2.405380 6.536694 -0.017453 0.000000 0.000000
 14 -2.507427 0.706861 2.240990 -0.002471 0.006107 -0.382975
 15 3.250287 -0.229969 -90.900146 0.017445 -0.006626 0.385211
 16 1.065001 0.706860 2.240990 -0.003229 -0.006785 0.438678
 17 -2.362355 -0.468019 -90.905510 0.017471 0.007558 -0.441260
 18 0.000000 -0.154719 2.376087 0.715586 0.000000 0.000001
 19 0.646873 -1.121445 24.709145 0.698132 -0.000001 0.000001
 20 -0.331074 15.401075 -4.448267 -0.174533 0.000000 -0.000000
 21 0.294691 4.810116 -18.306999 -0.174532 0.000000 -0.000000
 22 -1.097139 0.677547 9.228621 0.000000 -0.000000 0.000000
 23 -7.043964 -0.624741 16.699591 -0.480510 0.186200 -0.095799
 24 -13.119770 0.402666 -15.778526 0.140032 -0.291140 0.634036
 25 -6.930325 -3.869411 -10.071316 -0.271619 0.244372 -0.041531
 26 19.406612 1.408122 56.288986 -0.158623 1.684919 -0.028840
 27 30.607548 4.937218 -71.660217 0.000000 -0.000000 0.000000
 28 -2.740807 -1.783824 -4.956829 0.000000 -0.000000 0.000000
 29 8.158013 -0.446264 16.846821 -0.598062 0.066598 -0.324414
 30 12.284378 0.200995 -15.879519 0.318337 -0.128727 0.087543
 31 6.919271 -3.849014 -10.201530 -0.088245 -0.076199 -0.105809
 32 1.801670 -1.439341 -4.598675 0.000000 -0.000000 0.000000
 33 0.275625 -0.653330 2.573702 0.000000 -0.000000 0.000000
 34 -2.128445 3.188605 168.111557 0.000000 -0.000000 0.000000
time 20
  0 -2.408944 2.128008 -1.071352 0.000000 -0.000000 0.000000
  1 -2.408944 2.128008 -1.071352 0.000000 -0.000000 0.000000
  2 -2.408944 2.128008 0.962026 0.000000 -0.000000 0.000000
  3 0.000000 -0.593194 -54.199696 0.034907 0.000000 0.000000
  4 0.000000 0.380081 -2.358139 -0.366519 0.000000 -0.000000
  5 -6.962073 -1.123272 -14.918671 -0.117611 0.103397 -0.142897
  6 -0.762899 1.783215 -29.522804 2.010372 0.011053 0.250433
  7 -1.525357 0.897316 -28.921162 -0.292388 -0.049164 -0.003695
  8 0.354392 -2.635780 -5.445797 0.000000 -0.000000 0.000000
  9 7.456964 -0.120268 -14.357979 -0.068305 -0.155899 -0.019300
 10 0.913363 0.804956 -30.266205 2.005691 0.180137 -0.092650
 11 1.054045 0.998070 -28.738499 -0.260399 0.006793 0.020443
 12 0.073698 -2.761292 -5.395103 0.000000 -0.000000 0.000000
 13 0.184103 2.405382 6.536694 -0.017453 0.000000 0.000000
 14 -2.507427 0.706860 2.240990 -0.002471 0.006107 -0.382975
 15 3.250286 -0.229967 -90.900146 0.017445 -0.006626 0.385211
 16 1.065002 0.706860 2.240990 -0.003229 -0.006785 0.438678
 17 -2.362354 -0.468018 -90.905518 0.017471 0.007558 -0.441260
 18 -0.000000 -0.154719 2.376087 0.715586 0.000000 0.000001
 19 0.646873 -1.121441 24.709148 0.698132 -0.000001 0.000001
 20 -0.331074 15.401072 -4.448268 -0.174533 0.000000 -0.000000
 21 0.294691 4.810116 -18.306999 -0.174532 0.000000 -0.000000
 22 -1.097138 0.677547 9.228622 0.000000 -0.000000 0.000000
 23 -7.043964 -0.624737 16.699593 -0.480510 0.186200 -0.095799
 24 -13.119770 0.402664 -15.778530 0.140032 -0.291140 0.634036
 25 -6.930328 -3.869411 -10.071312 -0.271619 0.244372 -0.041531
 26 21.136229 3.738106 62.366356 -0.124497 1.685212 0.005241
 27 30.607553 4.937205 -71.660210 0.000000 -0.000000 0.000000
 28 -2.740807 -1.783824 -4.956825 0.000000 -0.000000 0.000000
 29 8.158013 -0.446262 16.846825 -0.598062 0.066598 -0.324414
 30 12.284376 0.200994 -15.879520 0.318337 -0.128727 0.087543
 31 6.919268 -3.849018 -10.201530 -0.088245 -0.076199 -0.105809
 32 1.801670 -1.439342 -4.598679 0.000000 -0.000000 0.000000
 33 0.275625 -0.653328 2.573704 0.000000 -0.000000 0.000000
 34 -2.128445 3.188605 168.111557 0.000000 -0.000000 0.000000
time 21
  0 -2.408944 2.128008 -1.071352 0.000000 -0.000000 0.000000
  1 -2.408944 2.128008 -1.071352 0.000000 -0.000000 0.000000
  2 -2.408944 2.128008 1.080775 0.000000 -0.000000 0.000000
  3 0.000000 -0.593194 -60.540619 0.034907 0.000000 0.000000
  4 0.000000 0.380081 -2.358143 -0.366519 0.000000 -0.000000
  5 -6.962073 -1.123270 -14.918678 -0.117611 0.103397 -0.142897
  6 -0.762899 1.783220 -29.522804 2.010372 0.011053 0.250433
  7 -1.525356 0.897316 -28.921164 -0.292388 -0.049164 -0.003695
  8 0.354392 -2.635780 -5.445797 0.000000 -0.000000 0.000000
  9 7.456964 -0.120268 -14.357979 -0.068305 -0.155899 -0.019300
 10 0.913363 0.804958 -30.266212 2.005691 0.180138 -0.092650
 11 1.054043 0.998077 -28.738495 -0.260399 0.006793 0.020443
 12 0.073699 -2.761299 -5.395100 0.000000 -0.000000 0.000000
 13 0.184103 2.405380 6.536690 -0.017453 0.000000 0.000000
 14 -2.507427 0.706861 2.240993 -0.002471 0.006107 -0.382975
 15 3.250288 -0.229969 -90.900131 0.017445 -0.006626 0.385211
 16 1.065001 0.706861 2.240993 -0.003229 -0.006785 0.438678
 17 -2.362353 -0.468019 -90.905518 0.017471 0.007558 -0.441260
 18 0.000000 -0.154719 2.376087 0.715586 0.000000 0.000001
 19 0.646873 -1.121441 24.709145 0.698132 -0.000001 0.000001
 20 -0.331074 15.401072 -4.448267 -0.174533 0.000000 -0.000000
 21 0.294691 4.810116 -18.306999 -0.174532 0.000000 -0.000000
 22 -1.097139 0.677544 9.228622 0.000000 -0.000000 0.000000
 23 -7.043964 -0.624737 16.699594 -0.480510 0.186200 -0.095799
 24 -13.119774 0.402664 -15.778526 0.140032 -0.291140 0.634036
 25 -6.930321 -3.869411 -10.071316 -0.271619 0.244372 -0.041531
 26 22.861652 6.395318 68.500587 -0.085580 1.685470 0.044108
 27 30.607555 4.937201 -71.660210 0.000000 -0.000000 0.000000
 28 -2.740810 -1.783827 -4.956818 0.000000 -0.000000 0.000000
 29 8.158013 -0.446262 16.846825 -0.598062 0.066598 -0.324414
 30 12.284376 0.200994 -15.879517 0.318337 -0.128727 0.087543
 31 6.919271 -3.849014 -10.201530 -0.088245 -0.076199 -0.105809
 32 1.801674 -1.439341 -4.598671 0.000000 -0.000000 0.000000
 33 0.275625 -0.653328 2.573704 0.000000 -0.000000 0.000000
 34 -2.128445 3.188605 168.111557 0.000000 -0.000000 0.000000
time 22
  0 -2.408944 2.128008 -1.071352 0.000000 -0.000000 0.000000
  1 -2.408944 2.128008 -1.071352 0.000000 -0.000000 0.000000
  2 -2.408944 2.128008 1.192204 0.000000 -0.000000 0.000000
  3 0.000000 -0.593194 -66.634850 0.034907 0.000000 0.000000
  4 0.000000 0.380081 -2.358139 -0.366519 0.000000 -0.000000
  5 -6.962072 -1.123270 -14.918678 -0.117611 0.103397 -0.142897
  6 -0.762899 1.783216 -29.522804 2.010372 0.011053 0.250433
  7 -1.525356 0.897316 -28.921164 -0.292388 -0.049164 -0.003695
  8 0.354392 -2.635788 -5.445797 0.000000 -0.000000 0.000000
  9 7.456964 -0.120268 -14.357979 -0.068305 -0.155899 -0.019300
 10 0.913363 0.804958 -30.266212 2.005691 0.180137 -0.092650
 11 1.054044 0.998085 -28.738499 -0.260399 0.006793 0.020443
 12 0.073699 -2.761292 -5.395103 0.000000 -0.000000 0.000000
 13 0.184103 2.405380 6.536690 -0.017453 0.000000 0.000000
 14 -2.507427 0.706861 2.240990 -0.002471 0.006107 -0.382975
 15 3.250287 -0.229971 -90.900146 0.017445 -0.006626 0.385211
 16 1.065001 0.706861 2.240990 -0.003229 -0.006785 0.438678
 17 -2.362355 -0.468025 -90.905510 0.017471 0.007558 -0.441260
 18 0.000000 -0.154718 2.376087 0.715586 0.000000 0.000001
 19 0.646873 -1.121441 24.709152 0.698132 -0.000001 0.000001
 20 -0.331074 15.401073 -4.448267 -0.174533 0.000000 -0.000000
 21 0.294691 4.810114 -18.306999 -0.174532 0.000000 -0.000000
 22 -1.097139 0.677544 9.228622 0.000000 -0.000000 0.000000
 23 -7.043964 -0.624737 16.699594 -0.480510 0.186200 -0.095799
 24 -13.119773 0.402664 -15.778530 0.140032 -0.291140 0.634036
 25 -6.930325 -3.869411 -10.071312 -0.271619 0.244372 -0.041531
 26 24.549049 9.264014 74.557732 -0.043565 1.685693 0.086070
 27 30.607550 4.937209 -71.660217 0.000000 -0.000000 0.000000
 28 -2.740810 -1.783827 -4.956825 0.000000 -0.000000 0.000000
 29 8.158013 -0.446262 16.846825 -0.598062 0.066598 -0.324414
 30 12.284378 0.200994 -15.879524 0.318337 -0.128727 0.087543
 31 6.919271 -3.849014 -10.201534 -0.088245 -0.076199 -0.105809
 32 1.801674 -1.439339 -4.598679 0.000000 -0.000000 0.000000
 33 0.275625 -0.653328 2.573704 0.000000 -0.000000 0.000000
 34 -2.128445 3.188605 168.111557 0.000000 -0.000000 0.000000
time 23
  0 -2.408944 2.128008 -1.071352 0.000000 -0.000000 0.000000
  1 -2.408944 2.128008 -1.071352 0.000000 -0.000000 0.000000
  2 -2.408944 2.128008 1.295093 0.000000 -0.000000 0.000000
  3 0.000000 -0.593194 -72.383278 0.034907 0.000000 0.000000
  4 0.000000 0.380081 -2.358139 -0.366519 0.000000 -0.000000
  5 -6.962072 -1.123270 -14.918678 -0.117611 0.103397 -0.142897
  6 -0.762899 1.783215 -29.522804 2.010372 0.011053 0.250433
  7 -1.525356 0.897316 -28.921164 -0.292388 -0.049164 -0.003695
  8 0.354392 -2.635780 -5.445797 0.000000 -0.000000 0.000000
  9 7.456964 -0.120270 -14.357979 -0.068305 -0.155899 -0.019300
 10 0.913364 0.804960 -30.266212 2.005691 0.180137 -0.092650
 11 1.054044 0.998070 -28.738499 -0.260399 0.006793 0.020443
 12 0.073699 -2.761292 -5.395100 0.000000 -0.000000 0.000000
 13 0.184103 2.405382 6.536682 -0.017453 0.000000 0.000000
 14 -2.507427 0.706860 2.240990 -0.002471 0.006107 -0.382975
 15 3.250291 -0.229967 -90.900154 0.017445 -0.006626 0.385211
 16 1.065002 0.706860 2.240990 -0.003229 -0.006785 0.438678
 17 -2.362353 -0.468019 -90.905510 0.017471 0.007558 -0.441260
 18 -0.000000 -0.154718 2.376091 0.715586 0.000000 0.000001
 19 0.646873 -1.121441 24.709148 0.698132 -0.000001 0.000001
 20 -0.331074 15.401073 -4.448267 -0.174533 0.000000 -0.000000
 21 0.294691 4.810116 -18.306999 -0.174532 0.000000 -0.000000
 22 -1.097139 0.677547 9.228623 0.000000 -0.000000 0.000000
 23 -7.043964 -0.624737 16.699589 -0.480510 0.186200 -0.095799
 24 -13.119775 0.402662 -15.778522 0.140032 -0.291140 0.634036
 25 -6.930325 -3.869415 -10.071308 -0.271619 0.244372 -0.041531
 26 26.164616 12.228555 80.403908 -0.000146 1.685883 0.129433
 27 30.607555 4.937210 -71.660217 0.000000 -0.000000 0.000000
 28 -2.740810 -1.783827 -4.956825 0.000000 -0.000000 0.000000
 29 8.158013 -0.446262 16.846825 -0.598062 0.066598 -0.324414
 30 12.284376 0.200994 -15.879524 0.318337 -0.128728 0.087543
 31 6.919268 -3.849014 -10.201534 -0.088245 -0.076199 -0.105809
 32 1.801670 -1.439339 -4.598679 0.000000 -0.000000 0.000000
 33 0.275625 -0.653328 2.573700 0.000000 -0.000000 0.000000
 34 -2.128445 3.188605 168.111557 0.000000 -0.000000 0.000000
time 24
  0 -2.408944 2.128008 -1.071352 0.000000 -0.000000 0.000000
  1 -2.408944 2.128008 -1.071352 0.000000 -0.000000 0.000000
  2 -2.408944 2.128008 1.388222 0.000000 -0.000000 0.000000
  3 0.000000 -0.593194 -77.686806 0.034907 0.000000 0.000000
  4 0.000000 0.380081 -2.358139 -0.366519 0.000000 -0.000000
  5 -6.962073 -1.123270 -14.918678 -0.117611 0.103397 -0.142897
  6 -0.762899 1.783215 -29.522812 2.010372 0.011053 0.250433
  7 -1.525356 0.897308 -28.921162 -0.292388 -0.049164 -0.003695
  8 0.354390 -2.635780 -5.445801 0.000000 -0.000000 0.000000
  9 7.456964 -0.120268 -14.357979 -0.068305 -0.155899 -0.019300
 10 0.913362 0.804955 -30.266220 2.005691 0.180137 -0.092650
 11 1.054044 0.998085 -28.738497 -0.260399 0.006793 0.020443
 12 0.073698 -2.761292 -5.395103 0.000000 -0.000000 0.000000
 13 0.184103 2.405380 6.536697 -0.017453 0.000000 0.000000
 14 -2.507427 0.706860 2.240982 -0.002471 0.006107 -0.382975
 15 3.250291 -0.229979 -90.900139 0.017445 -0.006626 0.385211
 16 1.065001 0.706860 2.240990 -0.003229 -0.006785 0.438678
 17 -2.362350 -0.468018 -90.905525 0.017471 0.007558 -0.441260
 18 0.000000 -0.154718 2.376091 0.715586 0.000000 0.000001
 19 0.646873 -1.121445 24.709148 0.698132 -0.000001 0.000001
 20 -0.331074 15.401070 -4.448267 -0.174533 0.000000 -0.000000
 21 0.294691 4.810120 -18.306999 -0.174532 0.000000 -0.000000
 22 -1.097138 0.677544 9.228623 0.000000 -0.000000 0.000000
 23 -7.043964 -0.624737 16.699593 -0.480510 0.186200 -0.095799
 24 -13.119774 0.402664 -15.778530 0.140032 -0.291140 0.634036
 25 -6.930328 -3.869411 -10.071316 -0.271619 0.244372 -0.041531
 26 27.674511 15.173203 85.905121 0.042981 1.686043 0.172504
 27 30.607555 4.937192 -71.660210 0.000000 -0.000000 0.000000
 28 -2.740810 -1.783827 -4.956833 0.000000 -0.000000 0.000000
 29 8.158014 -0.446262 16.846825 -0.598062 0.066598 -0.324414
 30 12.284376 0.200998 -15.879517 0.318337 -0.128727 0.087543
 31 6.919270 -3.849014 -10.201538 -0.088245 -0.076199 -0.105809
 32 1.801672 -1.439342 -4.598679 0.000000 -0.000000 0.000000
 33 0.275625 -0.653328 2.573704 0.000000 -0.000000 0.000000
 34 -2.128445 3.188605 168.111557 0.000000 -0.000000 0.000000
time 25
  0 -2.408944 2.128008 -1.071352 0.000000 -0.000000 0.000000
  1 -2.408944 2.128008 -1.071352 0.000000 -0.000000 0.000000
  2 -2.408944 2.128008 1.470370 0.000000 -0.000000 0.000000
  3 0.000000 -0.593194 -82.446312 0.034907 0.000000 0.000000
  4 0.000000 0.380081 -2.358131 -0.366519 0.000000 -0.000000
  5 -6.962073 -1.123270 -14.918678 -0.117611 0.103397 -0.142897
  6 -0.762899 1.783215 -29.522804 2.010372 0.011053 0.250433
  7 -1.525356 0.897316 -28.921162 -0.292388 -0.049164 -0.003695
  8 0.354390 -2.635788 -5.445797 0.000000 -0.000000 0.000000
  9 7.456964 -0.120270 -14.357979 -0.068305 -0.155899 -0.019300
 10 0.913365 0.804958 -30.266205 2.005691 0.180138 -0.092650
 11 1.054044 0.998070 -28.738497 -0.260399 0.006793 0.020443
 12 0.073698 -2.761292 -5.395103 0.000000 -0.000000 0.000000
 13 0.184103 2.405380 6.536690 -0.017453 0.000000 0.000000
 14 -2.507427 0.706863 2.240982 -0.002471 0.006107 -0.382975
 15 3.250289 -0.229967 -90.900139 0.017445 -0.006626 0.385211
 16 1.065001 0.706860 2.240990 -0.003229 -0.006785 0.438678
 17 -2.362350 -0.468014 -90.905518 0.017471 0.007558 -0.441260
 18 0.000000 -0.154718 2.376091 0.715586 0.000000 0.000001
 19 0.646873 -1.121445 24.709148 0.698132 -0.000001 0.000001
 20 -0.331074 15.401077 -4.448267 -0.174533 0.000000 -0.000000
 21 0.294691 4.810116 -18.306997 -0.174532 0.000000 -0.000000
 22 -1.097139 0.677551 9.228621 0.000000 -0.000000 0.000000
 23 -7.043964 -0.624741 16.699596 -0.480510 0.186200 -0.095799
 24 -13.119772 0.402664 -15.778522 0.140032 -0.291140 0.634036
 25 -6.930325 -3.869417 -10.071304 -0.271619 0.244372 -0.041531
 26 29.044901 17.982254 90.927444 0.084122 1.686173 0.213593
 27 30.607544 4.937201 -71.660210 0.000000 -0.000000 0.000000
 28 -2.740808 -1.783826 -4.956825 0.000000 -0.000000 0.000000
 29 8.158013 -0.446262 16.846825 -0.598062 0.066598 -0.324414
 30 12.284378 0.200993 -15.879509 0.318337 -0.128728 0.087543
 31 6.919270 -3.849014 -10.201530 -0.088245 -0.076199 -0.105809
 32 1.801670 -1.439342 -4.598679 0.000000 -0.000000 0.000000
 33 0.275625 -0.653332 2.573704 0.000000 -0.000000 0.000000
 34 -2.128445 3.188605 168.111557 0.000000 -0.000000 0.000000
time 26
  0 -2.408944 2.128008 -1.071352 0.000000 -0.000000 0.000000
  1 -2.408944 2.128008 -1.071352 0.000000 -0.000000 0.000000
  2 -2.408944 2.128008 1.540318 0.000000 -0.000000 0.000000
  3 0.000000 -0.593194 -86.562698 0.034907 0.000000 0.000000
  4 0.000000 0.380081 -2.358139 -0.366519 0.000000 -0.000000
  5 -6.962072 -1.123270 -14.918671 -0.117611 0.103397 -0.142897
  6 -0.762899 1.783215 -29.522804 2.010372 0.011053 0.250433
  7 -1.525356 0.897324 -28.921162 -0.292388 -0.049164 -0.003695
  8 0.354392 -2.635796 -5.445801 0.000000 -0.000000 0.000000
  9 7.456964 -0.120270 -14.357971 -0.068305 -0.155899 -0.019300
 10 0.913362 0.804955 -30.266205 2.005691 0.180137 -0.092650
 11 1.054043 0.998077 -28.738497 -0.260399 0.006793 0.020443
 12 0.073698 -2.761292 -5.395100 0.000000 -0.000000 0.000000
 13 0.184103 2.405382 6.536690 -0.017453 0.000000 0.000000
 14 -2.507427 0.706863 2.240982 -0.002471 0.006107 -0.382975
 15 3.250291 -0.229963 -90.900124 0.017445 -0.006626 0.385211
 16 1.065002 0.706860 2.240990 -0.003229 -0.006785 0.438678
 17 -2.362355 -0.468021 -90.905510 0.017471 0.007558 -0.441260
 18 -0.000000 -0.154718 2.376083 0.715586 0.000000 0.000001
 19 0.646873 -1.121445 24.709148 0.698132 -0.000001 0.000001
 20 -0.331074 15.401077 -4.448267 -0.174533 0.000000 -0.000000
 21 0.294691 4.810116 -18.306999 -0.174532 0.000000 -0.000000
 22 -1.097139 0.677551 9.228622 0.000000 -0.000000 0.000000
 23 -7.043964 -0.624741 16.699593 -0.480510 0.186200 -0.095799
 24 -13.119775 0.402662 -15.778526 0.140032 -0.291140 0.634036
 25 -6.930325 -3.869411 -10.071304 -0.271619 0.244372 -0.041531
 26 30.241999 20.540028 95.336960 0.121584 1.686276 0.251006
 27 30.607553 4.937209 -71.660225 0.000000 -0.000000 0.000000
 28 -2.740810 -1.783826 -4.956825 0.000000 -0.000000 0.000000
 29 8.158013 -0.446262 16.846825 -0.598062 0.066598 -0.324414
 30 12.284376 0.200994 -15.879509 0.318337 -0.128727 0.087543
 31 6.919270 -3.849014 -10.201538 -0.088245 -0.076199 -0.105809
 32 1.801672 -1.439342 -4.598671 0.000000 -0.000000 0.000000
 33 0.275625 -0.653332 2.573704 0.000000 -0.000000 0.000000
 34 -2.128445 3.188605 168.111557 0.000000 -0.000000 0.000000
time 27
  0 -2.408944 2.128008 -1.071352 0.000000 -0.000000 0.000000
  1 -2.408944 2.128008 -1.071352 0.000000 -0.000000 0.000000
  2 -2.408944 2.128008 1.596846 0.000000 -0.000000 0.000000
  3 0.000000 -0.593194 -89.936852 0.034907 0.000000 0.000000
  4 0.000000 0.380081 -2.358131 -0.366519 0.000000 -0.000000
  5 -6.962073 -1.123272 -14.918671 -0.117611 0.103397 -0.142897
  6 -0.762899 1.783215 -29.522812 2.010372 0.011053 0.250433
  7 -1.525356 0.897308 -28.921162 -0.292388 -0.049164 -0.003695
  8 0.354392 -2.635796 -5.445801 0.000000 -0.000000 0.000000
  9 7.456964 -0.120272 -14.357971 -0.068305 -0.155899 -0.019300
 10 0.913363 0.804951 -30.266212 2.005691 0.180138 -0.092650
 11 1.054043 0.998077 -28.738495 -0.260399 0.006793 0.020443
 12 0.073699 -2.761292 -5.395103 0.000000 -0.000000 0.000000
 13 0.184103 2.405380 6.536690 -0.017453 0.000000 0.000000
 14 -2.507427 0.706860 2.240982 -0.002471 0.006107 -0.382975
 15 3.250290 -0.229975 -90.900131 0.017445 -0.006626 0.385211
 16 1.065002 0.706860 2.240990 -0.003229 -0.006785 0.438678
 17 -2.362350 -0.468021 -90.905525 0.017471 0.007558 -0.441260
 18 0.000000 -0.154718 2.376091 0.715586 0.000000 0.000001
 19 0.646873 -1.121445 24.709148 0.698132 -0.000001 0.000001
 20 -0.331074 15.401073 -4.448267 -0.174533 0.000000 -0.000000
 21 0.294691 4.810120 -18.306999 -0.174532 0.000000 -0.000000
 22 -1.097138 0.677544 9.228622 0.000000 -0.000000 0.000000
 23 -7.043964 -0.624737 16.699589 -0.480510 0.186200 -0.095799
 24 -13.119772 0.402664 -15.778526 0.140032 -0.291140 0.634036
 25 -6.930321 -3.869417 -10.071304 -0.271619 0.244372 -0.041531
 26 31.231932 22.730801 98.999725 0.153669 1.686353 0.283051
 27 30.607546 4.937193 -71.660210 0.000000 -0.000000 0.000000
 28 -2.740810 -1.783827 -4.956825 0.000000 -0.000000 0.000000
 29 8.158013 -0.446262 16.846825 -0.598062 0.066598 -0.324414
 30 12.284382 0.200994 -15.879517 0.318337 -0.128727 0.087543
 31 6.919270 -3.849014 -10.201538 -0.088245 -0.076199 -0.105809
 32 1.801670 -1.439342 -4.598679 0.000000 -0.000000 0.000000
 33 0.275625 -0.653328 2.573704 0.000000 -0.000000 0.000000
 34 -2.128445 3.188605 168.111557 0.000000 -0.000000 0.000000
time 28
  0 -2.408944 2.128008 -1.071352 0.000000 -0.000000 0.000000
  1 -2.408944 2.128008 -1.071352 0.000000 -0.000000 0.000000
  2 -2.408944 2.128008 1.638734 0.000000 -0.000000 0.000000
  3 0.000000 -0.593194 -92.469666 0.034907 0.000000 0.000000
  4 0.000000 0.380081 -2.358139 -0.366519 0.000000 -0.000000
  5 -6.962073 -1.123272 -14.918678 -0.117611 0.103397 -0.142897
  6 -0.762898 1.783218 -29.522812 2.010372 0.011053 0.250433
  7 -1.525356 0.897308 -28.921164 -0.292388 -0.049164 -0.003695
  8 0.354395 -2.635788 -5.445797 0.000000 -0.000000 0.000000
  9 7.456964 -0.120274 -14.357979 -0.068305 -0.155899 -0.019300
 10 0.913364 0.804958 -30.266228 2.005691 0.180137 -0.092650
 11 1.054045 0.998077 -28.738497 -0.260399 0.006793 0.020443
 12 0.073698 -2.761292 -5.395100 0.000000 -0.000000 0.000000
 13 0.184103 2.405380 6.536697 -0.017453 0.000000 0.000000
 14 -2.507427 0.706860 2.240982 -0.002471 0.006107 -0.382975
 15 3.250289 -0.229961 -90.900146 0.017445 -0.006626 0.385211
 16 1.065001 0.706860 2.240990 -0.003229 -0.006785 0.438678
 17 -2.362349 -0.468021 -90.905518 0.017471 0.007558 -0.441260
 18 0.000000 -0.154718 2.376091 0.715586 0.000000 0.000001
 19 0.646873 -1.121445 24.709141 0.698132 -0.000001 0.000001
 20 -0.331074 15.401077 -4.448267 -0.174533 0.000000 -0.000000
 21 0.294691 4.810120 -18.306999 -0.174532 0.000000 -0.000000
 22 -1.097138 0.677544 9.228622 0.000000 -0.000000 0.000000
 23 -7.043964 -0.624737 16.699585 -0.480510 0.186200 -0.095799
 24 -13.119771 0.402664 -15.778519 0.140032 -0.291140 0.634036
 25 -6.930325 -3.869411 -10.071312 -0.271619 0.244372 -0.041531
 26 31.980915 24.438883 101.781815 0.178686 1.686406 0.308036
 27 30.607550 4.937216 -71.660210 0.000000 -0.000000 0.000000
 28 -2.740810 -1.783824 -4.956833 0.000000 -0.000000 0.000000
 29 8.158014 -0.446262 16.846817 -0.598062 0.066598 -0.324414
 30 12.284378 0.200993 -15.879509 0.318337 -0.128728 0.087543
 31 6.919266 -3.849014 -10.201530 -0.088245 -0.076199 -0.105809
 32 1.801674 -1.439342 -4.598679 0.000000 -0.000000 0.000000
 33 0.275625 -0.653328 2.573696 0.000000 -0.000000 0.000000
 34 -2.128445 3.188605 168.111557 0.000000 -0.000000 0.000000
time 29
  0 -2.408944 2.128008 -1.071352 0.000000 -0.000000 0.000000
  1 -2.408944 2.128008 -1.071352 0.000000 -0.000000 0.000000
  2 -2.408944 2.128008 1.664761 0.000000 -0.000000 0.000000
  3 0.000000 -0.593194 -94.062042 0.034907 0.000000 0.000000
  4 0.000000 0.380081 -2.358139 -0.366519 0.000000 -0.000000
  5 -6.962073 -1.123268 -14.918671 -0.117611 0.103397 -0.142897
  6 -0.762899 1.783215 -29.522827 2.010372 0.011053 0.250433
  7 -1.525356 0.897308 -28.921162 -0.292387 -0.049164 -0.003695
  8 0.354393 -2.635803 -5.445797 0.000000 -0.000000 0.000000
  9 7.456964 -0.120270 -14.357971 -0.068305 -0.155899 -0.019300
 10 0.913364 0.804958 -30.266212 2.005691 0.180138 -0.092650
 11 1.054042 0.998093 -28.738497 -0.260399 0.006793 0.020443
 12 0.073699 -2.761307 -5.395100 0.000000 -0.000000 0.000000
 13 0.184103 2.405380 6.536697 -0.017453 0.000000 0.000000
 14 -2.507427 0.706863 2.240982 -0.002471 0.006107 -0.382975
 15 3.250286 -0.229965 -90.900146 0.017445 -0.006626 0.385211
 16 1.065002 0.706860 2.240990 -0.003229 -0.006785 0.438678
 17 -2.362350 -0.468021 -90.905525 0.017471 0.007558 -0.441260
 18 0.000000 -0.154718 2.376091 0.715586 0.000000 0.000001
 19 0.646873 -1.121445 24.709141 0.698132 -0.000001 0.000001
 20 -0.331074 15.401077 -4.448267 -0.174533 0.000000 -0.000000
 21 0.294692 4.810116 -18.307001 -0.174532 0.000000 -0.000000
 22 -1.097138 0.677551 9.228621 0.000000 -0.000000 0.000000
 23 -7.043964 -0.624737 16.699585 -0.480510 0.186200 -0.095799
 24 -13.119767 0.402664 -15.778519 0.140032 -0.291140 0.634036
 25 -6.930321 -3.869417 -10.071312 -0.271619 0.244372 -0.041531
 26 32.455109 25.548601 103.549286 0.194939 1.686437 0.324268
 27 30.607552 4.937222 -71.660210 0.000000 -0.000000 0.000000
 28 -2.740810 -1.783827 -4.956825 0.000000 -0.000000 0.000000
 29 8.158014 -0.446262 16.846821 -0.598062 0.066598 -0.324414
 30 12.284378 0.200996 -15.879509 0.318337 -0.128727 0.087543
 31 6.919271 -3.849022 -10.201538 -0.088245 -0.076199 -0.105809
 32 1.801674 -1.439342 -4.598679 0.000000 -0.000000 0.000000
 33 0.275625 -0.653328 2.573692 0.000000 -0.000000 0.000000
 34 -2.128445 3.188605 168.111557 0.000000 -0.000000 0.000000
time 30
  0 -2.408944 2.128008 -1.071352 0.000000 -0.000000 0.000000
  1 -2.408944 2.128008 -1.071352 0.000000 -0.000000 0.000000
  2 -2.408944 2.128008 1.673708 0.000000 -0.000000 0.000000
  3 0.000000 -0.593194 -94.614853 0.034907 0.000000 0.000000
  4 0.000000 0.380081 -2.358139 -0.366519 0.000000 -0.000000
  5 -6.962073 -1.123268 -14.918678 -0.117611 0.103397 -0.142897
  6 -0.762898 1.783215 -29.522820 2.010372 0.011053 0.250433
  7 -1.525356 0.897308 -28.921162 -0.292388 -0.049164 -0.003695
  8 0.354392 -2.635796 -5.445801 0.000000 -0.000000 0.000000
  9 7.456964 -0.120270 -14.357979 -0.068305 -0.155899 -0.019300
 10 0.913363 0.804958 -30.266205 2.005691 0.180138 -0.092650
 11 1.054046 0.998093 -28.738497 -0.260399 0.006793 0.020443
 12 0.073699 -2.761292 -5.395100 0.000000 -0.000000 0.000000
 13 0.184103 2.405380 6.536697 -0.017453 0.000000 0.000000
 14 -2.507427 0.706863 2.240982 -0.002471 0.006107 -0.382975
 15 3.250291 -0.229973 -90.900131 0.017445 -0.006626 0.385211
 16 1.065001 0.706860 2.240990 -0.003229 -0.006785 0.438678
 17 -2.362352 -0.468021 -90.905510 0.017471 0.007558 -0.441260
 18 0.000000 -0.154718 2.376091 0.715586 0.000000 0.000001
 19 0.646873 -1.121445 24.709141 0.698132 -0.000001 0.000001
 20 -0.331074 15.401073 -4.448267 -0.174533 0.000000 -0.000000
 21 0.294691 4.810116 -18.306997 -0.174532 0.000000 -0.000000
 22 -1.097138 0.677544 9.228621 0.000000 -0.000000 0.000000
 23 -7.043963 -0.624737 16.699585 -0.480510 0.186200 -0.095799
 24 -13.119771 0.402664 -15.778526 0.140032 -0.291140 0.634036
 25 -6.930328 -3.869415 -10.071312 -0.271619 0.244372 -0.041531
 26 32.620693 25.944208 104.168213 0.200733 1.686447 0.330054
 27 30.607548 4.937212 -71.660217 0.000000 -0.000000 0.000000
 28 -2.740810 -1.783828 -4.956833 0.000000 -0.000000 0.000000
 29 8.158013 -0.446262 16.846817 -0.598062 0.066598 -0.324414
 30 12.284378 0.200996 -15.879517 0.318337 -0.128727 0.087543
 31 6.919271 -3.849018 -10.201538 -0.088245 -0.076199 -0.105809
 32 1.801674 -1.439342 -4.598679 0.000000 -0.000000 0.000000
 33 0.275625 -0.653328 2.573692 0.000000 -0.000000 0.000000
 34 -2.128445 3.188605 168.111557 0.000000 -0.000000 0.000000
end
