version 1
nodes
  0 "bone35"  -1
  1 "bone36"  -1
  2 "bone37"  -1
  3 "bone39"  -1
  4 "bone21"   3
  5 "bone20"   4
  6 "bone07"   5
  7 "bone22"   6
  8 "bone18"   7
  9 "bone25"   8
 10 "bone14"   5
 11 "bone16"  10
 12 "bone19"  11
 13 "bone24"  12
 14 "bone01"   5
 15 "bone15"  14
 16 "bone001"  15
 17 "bone17"  14
 18 "bone38"  17
 19 "bone03"   4
 20 "bone06"  19
 21 "bone13"  20
 22 "bone12"  21
 23 "bone26"  20
 24 "bone08"  19
 25 "bone05"  24
 26 "bone09"  25
 27 "bone11"  26
 28 "bone29"  27
 29 "bone30"  26
 30 "bone02"  19
 31 "bone04"  30
 32 "bone10"  31
 33 "bone31"  32
 34 "bone32"  19
 35 "bone34"   3
 36 "_M3_Anim_Data"  -1
end
skeleton
time 0
  0 0.000000 0.000000 0.000000 0.000000 -0.000000 0.000000
  1 -1.498810 2.154104 -2.821136 0.000000 -0.000000 0.000000
  2 -1.498810 2.154104 -2.821136 0.000000 -0.000000 0.000000
  3 -1.498810 2.154104 -2.821136 0.000000 -0.000000 0.000000
  4 0.000000 -0.622488 88.627968 0.034907 0.000000 0.000000
  5 0.000000 0.398852 -2.474602 -0.034906 0.000000 -0.000000
  6 -7.305893 -1.178743 -15.655434 -0.117611 0.103397 -0.142897
  7 -0.800573 1.871280 -30.980785 0.436331 -0.000000 0.000000
  8 -1.600683 0.941622 -30.349436 -0.292387 -0.049164 -0.003695
  9 0.371895 -2.765950 -5.714737 0.000000 -0.000000 0.000000
 10 7.825225 -0.126208 -15.067039 -0.068305 -0.155899 -0.019300
 11 0.958460 0.844710 -31.760906 0.349312 0.031101 0.015853
 12 1.106085 1.047363 -30.157721 -0.260399 0.006793 0.020443
 13 0.077335 -2.897663 -5.661533 0.000000 -0.000000 0.000000
 14 0.193195 2.524171 6.859505 -0.017453 0.000000 0.000000
 15 -2.631256 0.741770 2.351654 -0.005554 0.011115 -0.721635
 16 3.410807 -0.241325 -95.389206 0.017445 -0.006626 0.385211
 17 1.117596 0.741769 2.351654 -0.001934 -0.002908 0.204006
 18 -2.479014 -0.491131 -95.394829 0.017471 0.007558 -0.441260
 19 0.000000 -0.162359 2.493423 -0.226892 0.000000 0.000001
 20 0.678818 -1.176824 25.929405 0.244345 -0.000000 0.000000
 21 -0.347424 16.161650 -4.667938 -0.174533 0.000000 -0.000000
 22 0.309244 5.047662 -19.211090 -0.174532 0.000000 -0.000000
 23 -1.151321 0.711008 9.684372 0.000000 -0.000000 0.000000
 24 -7.391829 -0.655593 17.524300 0.366547 0.017132 0.003330
 25 -13.767697 0.422550 -16.557755 -0.639340 0.212496 0.456580
 26 -7.272575 -4.060490 -10.568665 -0.271619 0.244372 -0.041531
 27 -1.511662 -1.942741 -5.922466 0.052020 0.091792 0.093927
 28 32.119068 5.181034 -75.199127 0.000000 -0.000000 0.000000
 29 -2.876163 -1.871914 -5.201607 0.000000 -0.000000 0.000000
 30 8.560896 -0.468303 17.678802 0.297948 0.295893 -0.150448
 31 12.891042 0.210918 -16.663719 -1.073499 -0.618246 -1.108255
 32 7.260983 -4.039101 -10.705336 -0.088245 -0.076199 -0.105809
 33 1.890648 -1.510422 -4.825779 0.000000 -0.000000 0.000000
 34 0.289237 -0.685594 2.700806 0.000000 -0.000000 0.000000
 35 -2.233558 3.346073 176.413712 0.000000 -0.000000 0.000000
 36 0.000000 0.000000 0.000000 0.000000 -0.000000 0.000000
time 1
  0 0.000000 0.000000 0.000000 0.000000 -0.000000 0.000000
  1 -1.498810 2.154104 -2.821136 0.000000 -0.000000 0.000000
  2 -1.498810 2.154104 -2.821136 0.000000 -0.000000 0.000000
  3 -1.498810 2.154104 -2.821136 0.000000 -0.000000 0.000000
  4 0.000000 -0.597996 88.632057 0.034907 0.000000 0.000000
  5 0.000000 0.398851 -2.474602 -0.034906 0.000000 -0.000000
  6 -7.305893 -1.178743 -15.655434 -0.121012 0.103360 -0.143206
  7 -0.800574 1.871279 -30.980793 0.435293 -0.000120 -0.000243
  8 -1.600687 0.941622 -30.349434 -0.290604 -0.048838 -0.003589
  9 0.371895 -2.765951 -5.714737 0.000000 -0.000000 0.000000
 10 7.825225 -0.126208 -15.067039 -0.067438 -0.155879 -0.020267
 11 0.958464 0.844710 -31.760910 0.349076 0.031009 0.015118
 12 1.106087 1.047366 -30.157715 -0.259399 0.006737 0.020274
 13 0.077337 -2.897664 -5.661531 0.000000 -0.000000 0.000000
 14 0.193195 2.524171 6.859505 -0.017453 0.000000 0.000000
 15 -2.631256 0.741770 2.351654 -0.006037 0.011199 -0.741708
 16 3.410807 -0.241325 -95.389198 0.017445 -0.006626 0.385211
 17 1.117596 0.741769 2.351654 -0.001991 -0.003038 0.212219
 18 -2.479014 -0.491131 -95.394852 0.017471 0.007558 -0.441260
 19 0.000000 -0.171457 2.475693 -0.226419 0.000000 0.000001
 20 0.678818 -1.176826 25.929413 0.244345 -0.000000 0.000000
 21 -0.347424 16.161655 -4.667938 -0.174533 0.000000 0.000000
 22 0.309245 5.047663 -19.211090 -0.174532 0.000000 -0.000000
 23 -1.151320 0.711009 9.684372 0.000000 -0.000000 0.000000
 24 -7.391828 -0.655592 17.524300 0.365180 0.017174 0.003306
 25 -13.767695 0.422552 -16.557755 -0.664880 0.221799 0.456012
 26 -7.272575 -4.060492 -10.568672 -0.271619 0.244372 -0.041531
 27 -1.511662 -1.942741 -5.922466 0.052020 0.091792 0.093927
 28 32.119064 5.181026 -75.199142 0.000000 -0.000000 0.000000
 29 -2.876163 -1.871922 -5.201611 0.000000 -0.000000 0.000000
 30 8.560896 -0.468301 17.678802 0.294655 0.295267 -0.157870
 31 12.891042 0.210919 -16.663719 -1.076645 -0.621254 -1.140846
 32 7.260983 -4.039101 -10.705334 -0.087211 -0.075144 -0.110582
 33 1.890652 -1.510422 -4.825778 0.000000 -0.000000 0.000000
 34 0.289237 -0.685593 2.700806 0.000000 -0.000000 0.000000
 35 -2.233558 3.346073 176.413712 0.000000 -0.000000 0.000000
 36 0.000000 0.000000 0.000000 0.000000 -0.000000 0.000000
time 2
  0 0.000000 0.000000 0.000000 0.000000 -0.000000 0.000000
  1 -1.498810 2.154104 -2.821136 0.000000 -0.000000 0.000000
  2 -1.498810 2.154104 -2.821136 0.000000 -0.000000 0.000000
  3 -1.498810 2.154104 -2.821136 0.000000 -0.000000 0.000000
  4 0.000000 -0.528414 88.643700 0.034907 0.000000 0.000000
  5 0.000000 0.398851 -2.474602 -0.034906 0.000000 -0.000000
  6 -7.305893 -1.178743 -15.655434 -0.123938 0.103258 -0.143477
  7 -0.800574 1.871279 -30.980797 0.432427 -0.000449 -0.000915
  8 -1.600685 0.941623 -30.349430 -0.285588 -0.047923 -0.003291
  9 0.371897 -2.765951 -5.714736 0.000000 -0.000000 0.000000
 10 7.825225 -0.126208 -15.067039 -0.065019 -0.155823 -0.021212
 11 0.958460 0.844709 -31.760910 0.348406 0.030750 0.013037
 12 1.106087 1.047360 -30.157726 -0.256545 0.006577 0.019791
 13 0.077335 -2.897664 -5.661534 0.000000 -0.000000 0.000000
 14 0.193195 2.524171 6.859505 -0.017453 0.000000 0.000000
 15 -2.631256 0.741770 2.351662 -0.006588 0.011430 -0.771801
 16 3.410807 -0.241324 -95.389214 0.017445 -0.006626 0.385211
 17 1.117596 0.741769 2.351669 -0.002149 -0.003399 0.234925
 18 -2.479013 -0.491131 -95.394844 0.017471 0.007558 -0.441260
 19 0.000000 -0.179541 2.425545 -0.225073 0.000000 0.000001
 20 0.678818 -1.176826 25.929405 0.244345 -0.000000 0.000000
 21 -0.347424 16.161654 -4.667946 -0.174533 0.000000 -0.000000
 22 0.309245 5.047664 -19.211090 -0.174532 0.000000 -0.000000
 23 -1.151321 0.711008 9.684387 0.000000 -0.000000 0.000000
 24 -7.391829 -0.655593 17.524292 0.361335 0.017211 0.003240
 25 -13.767699 0.422554 -16.557747 -0.688091 0.230609 0.454408
 26 -7.272572 -4.060492 -10.568672 -0.271619 0.244372 -0.041531
 27 -1.511658 -1.942745 -5.922466 0.052020 0.091792 0.093927
 28 32.119061 5.181015 -75.199112 0.000000 -0.000000 0.000000
 29 -2.876160 -1.871918 -5.201611 0.000000 -0.000000 0.000000
 30 8.560896 -0.468303 17.678795 0.285322 0.293494 -0.165276
 31 12.891040 0.210920 -16.663719 -1.079553 -0.624031 -1.170363
 32 7.260979 -4.039101 -10.705336 -0.084266 -0.072141 -0.115252
 33 1.890648 -1.510429 -4.825777 0.000000 -0.000000 0.000000
 34 0.289237 -0.685596 2.700798 0.000000 -0.000000 0.000000
 35 -2.233558 3.346073 176.413712 0.000000 -0.000000 0.000000
 36 0.000000 0.000000 0.000000 0.000000 -0.000000 0.000000
time 3
  0 0.000000 0.000000 0.000000 0.000000 -0.000000 0.000000
  1 -1.498810 2.154104 -2.821136 0.000000 -0.000000 0.000000
  2 -1.498810 2.154104 -2.821136 0.000000 -0.000000 0.000000
  3 -1.498810 2.154104 -2.821136 0.000000 -0.000000 0.000000
  4 0.000000 -0.419585 88.661911 0.034907 0.000000 0.000000
  5 0.000000 0.398851 -2.474602 -0.034906 0.000000 -0.000000
  6 -7.305893 -1.178743 -15.655426 -0.126423 0.103101 -0.143714
  7 -0.800573 1.871278 -30.980782 0.428106 -0.000946 -0.001929
  8 -1.600683 0.941623 -30.349436 -0.277842 -0.046511 -0.002831
  9 0.371893 -2.765951 -5.714736 0.000000 -0.000000 0.000000
 10 7.825225 -0.126208 -15.067047 -0.061327 -0.155738 -0.022126
 11 0.958462 0.844710 -31.760910 0.347362 0.030346 0.009792
 12 1.106087 1.047371 -30.157722 -0.252061 0.006324 0.019032
 13 0.077335 -2.897664 -5.661533 0.000000 -0.000000 0.000000
 14 0.193195 2.524171 6.859505 -0.017453 0.000000 0.000000
 15 -2.631256 0.741770 2.351654 -0.007185 0.011780 -0.809673
 16 3.410807 -0.241325 -95.389198 0.017445 -0.006626 0.385211
 17 1.117596 0.741769 2.351654 -0.002387 -0.003943 0.269227
 18 -2.479014 -0.491131 -95.394859 0.017471 0.007558 -0.441260
 19 0.000000 -0.186668 2.347504 -0.222963 0.000000 0.000001
 20 0.678819 -1.176825 25.929405 0.244345 -0.000000 0.000000
 21 -0.347424 16.161654 -4.667938 -0.174533 0.000000 0.000000
 22 0.309244 5.047663 -19.211090 -0.174532 0.000000 -0.000000
 23 -1.151321 0.711008 9.684372 0.000000 -0.000000 0.000000
 24 -7.391829 -0.655594 17.524292 0.355399 0.017243 0.003138
 25 -13.767696 0.422554 -16.557755 -0.709066 0.238907 0.451921
 26 -7.272568 -4.060488 -10.568680 -0.271619 0.244372 -0.041531
 27 -1.511658 -1.942741 -5.922466 0.052020 0.091792 0.093927
 28 32.119072 5.181038 -75.199127 0.000000 -0.000000 0.000000
 29 -2.876160 -1.871914 -5.201611 0.000000 -0.000000 0.000000
 30 8.560896 -0.468303 17.678802 0.270770 0.290730 -0.172608
 31 12.891042 0.210919 -16.663719 -1.082232 -0.626583 -1.196958
 32 7.260979 -4.039101 -10.705332 -0.079650 -0.067432 -0.119799
 33 1.890648 -1.510422 -4.825779 0.000000 -0.000000 0.000000
 34 0.289237 -0.685594 2.700798 0.000000 -0.000000 0.000000
 35 -2.233558 3.346073 176.413712 0.000000 -0.000000 0.000000
 36 0.000000 0.000000 0.000000 0.000000 -0.000000 0.000000
time 4
  0 0.000000 0.000000 0.000000 0.000000 -0.000000 0.000000
  1 -1.498810 2.154104 -2.821136 0.000000 -0.000000 0.000000
  2 -1.498810 2.154104 -2.821136 0.000000 -0.000000 0.000000
  3 -1.498810 2.154104 -2.821136 0.000000 -0.000000 0.000000
  4 0.000000 -0.277348 88.685699 0.034907 0.000000 0.000000
  5 0.000000 0.398851 -2.474586 -0.034906 0.000000 -0.000000
  6 -7.305893 -1.178743 -15.655426 -0.128505 0.102899 -0.143918
  7 -0.800573 1.871279 -30.980793 0.422702 -0.001568 -0.003196
  8 -1.600683 0.941620 -30.349438 -0.267872 -0.044692 -0.002239
  9 0.371891 -2.765952 -5.714737 0.000000 -0.000000 0.000000
 10 7.825225 -0.126208 -15.067047 -0.056639 -0.155629 -0.022999
 11 0.958464 0.844709 -31.760902 0.346002 0.029820 0.005566
 12 1.106083 1.047367 -30.157717 -0.246168 0.005993 0.018034
 13 0.077335 -2.897663 -5.661531 0.000000 -0.000000 0.000000
 14 0.193195 2.524171 6.859505 -0.017453 0.000000 0.000000
 15 -2.631256 0.741769 2.351662 -0.007809 0.012219 -0.853080
 16 3.410806 -0.241325 -95.389206 0.017445 -0.006626 0.385211
 17 1.117596 0.741769 2.351662 -0.002686 -0.004626 0.312224
 18 -2.479014 -0.491131 -95.394859 0.017471 0.007558 -0.441260
 19 0.000000 -0.192901 2.246124 -0.220200 0.000000 0.000001
 20 0.678819 -1.176825 25.929405 0.244345 -0.000000 0.000000
 21 -0.347424 16.161654 -4.667938 -0.174533 0.000000 0.000000
 22 0.309245 5.047663 -19.211098 -0.174532 0.000000 -0.000000
 23 -1.151321 0.711008 9.684380 0.000000 -0.000000 0.000000
 24 -7.391828 -0.655592 17.524300 0.347760 0.017272 0.003006
 25 -13.767699 0.422554 -16.557747 -0.727895 0.246677 0.448701
 26 -7.272572 -4.060493 -10.568665 -0.271619 0.244372 -0.041531
 27 -1.511658 -1.942741 -5.922466 0.052020 0.091792 0.093927
 28 32.119064 5.181034 -75.199127 0.000000 -0.000000 0.000000
 29 -2.876163 -1.871918 -5.201611 0.000000 -0.000000 0.000000
 30 8.560897 -0.468301 17.678795 0.251820 0.287130 -0.179809
 31 12.891039 0.210922 -16.663712 -1.084690 -0.628919 -1.220783
 32 7.260983 -4.039108 -10.705330 -0.073599 -0.061261 -0.124201
 33 1.890652 -1.510414 -4.825778 0.000000 -0.000000 0.000000
 34 0.289237 -0.685593 2.700806 0.000000 -0.000000 0.000000
 35 -2.233558 3.346073 176.413712 0.000000 -0.000000 0.000000
 36 0.000000 0.000000 0.000000 0.000000 -0.000000 0.000000
time 5
  0 0.000000 0.000000 0.000000 0.000000 -0.000000 0.000000
  1 -1.498810 2.154104 -2.821136 0.000000 -0.000000 0.000000
  2 -1.498810 2.154104 -2.821136 0.000000 -0.000000 0.000000
  3 -1.498810 2.154104 -2.821136 0.000000 -0.000000 0.000000
  4 0.000000 -0.107547 88.714111 0.034907 0.000000 0.000000
  5 0.000000 0.398851 -2.474594 -0.034906 0.000000 -0.000000
  6 -7.305893 -1.178743 -15.655426 -0.130218 0.102665 -0.144092
  7 -0.800573 1.871278 -30.980789 0.416588 -0.002270 -0.004630
  8 -1.600685 0.941620 -30.349438 -0.256179 -0.042559 -0.001545
  9 0.371893 -2.765952 -5.714736 0.000000 -0.000000 0.000000
 10 7.825225 -0.126208 -15.067047 -0.051231 -0.155504 -0.023821
 11 0.958462 0.844710 -31.760910 0.344386 0.029195 0.000542
 12 1.106083 1.047366 -30.157722 -0.239088 0.005595 0.016836
 13 0.077339 -2.897663 -5.661532 0.000000 -0.000000 0.000000
 14 0.193195 2.524171 6.859505 -0.017453 0.000000 0.000000
 15 -2.631256 0.741770 2.351654 -0.008437 0.012717 -0.899781
 16 3.410807 -0.241325 -95.389214 0.017445 -0.006626 0.385211
 17 1.117596 0.741769 2.351654 -0.003025 -0.005400 0.361019
 18 -2.479014 -0.491132 -95.394844 0.017471 0.007558 -0.441260
 19 0.000000 -0.198297 2.125938 -0.216894 -0.000000 0.000001
 20 0.678818 -1.176826 25.929413 0.244345 -0.000000 0.000000
 21 -0.347424 16.161655 -4.667953 -0.174533 0.000000 0.000000
 22 0.309244 5.047662 -19.211082 -0.174532 0.000000 -0.000000
 23 -1.151321 0.711007 9.684372 0.000000 -0.000000 0.000000
 24 -7.391828 -0.655592 17.524300 0.338803 0.017296 0.002851
 25 -13.767698 0.422552 -16.557755 -0.744668 0.253902 0.444901
 26 -7.272568 -4.060490 -10.568672 -0.271619 0.244372 -0.041531
 27 -1.511658 -1.942745 -5.922466 0.052020 0.091792 0.093927
 28 32.119072 5.181038 -75.199142 0.000000 -0.000000 0.000000
 29 -2.876160 -1.871918 -5.201611 0.000000 -0.000000 0.000000
 30 8.560896 -0.468302 17.678795 0.229293 0.282851 -0.186820
 31 12.891040 0.210920 -16.663727 -1.086936 -0.631049 -1.241990
 32 7.260983 -4.039101 -10.705332 -0.066351 -0.053869 -0.128439
 33 1.890652 -1.510437 -4.825778 0.000000 -0.000000 0.000000
 34 0.289237 -0.685593 2.700806 0.000000 -0.000000 0.000000
 35 -2.233558 3.346073 176.413712 0.000000 -0.000000 0.000000
 36 0.000000 0.000000 0.000000 0.000000 -0.000000 0.000000
time 6
  0 0.000000 0.000000 0.000000 0.000000 -0.000000 0.000000
  1 -1.498810 2.154104 -2.821136 0.000000 -0.000000 0.000000
  2 -1.498810 2.154104 -2.821136 0.000000 -0.000000 0.000000
  3 -1.498810 2.154104 -2.821136 0.000000 -0.000000 0.000000
  4 0.000000 0.083977 88.746147 0.034907 0.000000 0.000000
  5 0.000000 0.398851 -2.474586 -0.034906 0.000000 -0.000000
  6 -7.305893 -1.178743 -15.655434 -0.131599 0.102409 -0.144237
  7 -0.800575 1.871279 -30.980785 0.410136 -0.003012 -0.006142
  8 -1.600687 0.941623 -30.349434 -0.243267 -0.040204 -0.000778
  9 0.371893 -2.765951 -5.714736 0.000000 -0.000000 0.000000
 10 7.825225 -0.126208 -15.067039 -0.045382 -0.155369 -0.024585
 11 0.958462 0.844709 -31.760906 0.342572 0.028493 -0.005097
 12 1.106085 1.047366 -30.157722 -0.231044 0.005142 0.015474
 13 0.077339 -2.897664 -5.661532 0.000000 -0.000000 0.000000
 14 0.193195 2.524171 6.859505 -0.017453 0.000000 0.000000
 15 -2.631256 0.741769 2.351662 -0.009049 0.013244 -0.947531
 16 3.410807 -0.241325 -95.389214 0.017445 -0.006626 0.385211
 17 1.117596 0.741769 2.351662 -0.003385 -0.006221 0.412712
 18 -2.479013 -0.491131 -95.394844 0.017471 0.007558 -0.441260
 19 0.000000 -0.202915 1.991501 -0.213155 -0.000000 0.000001
 20 0.678818 -1.176825 25.929398 0.244345 -0.000000 0.000000
 21 -0.347424 16.161655 -4.667946 -0.174533 0.000000 0.000000
 22 0.309245 5.047663 -19.211082 -0.174532 0.000000 -0.000000
 23 -1.151320 0.711008 9.684372 0.000000 -0.000000 0.000000
 24 -7.391829 -0.655592 17.524292 0.328915 0.017317 0.002680
 25 -13.767699 0.422554 -16.557747 -0.759477 0.260565 0.440672
 26 -7.272568 -4.060486 -10.568672 -0.271619 0.244372 -0.041531
 27 -1.511662 -1.942745 -5.922466 0.052020 0.091792 0.093927
 28 32.119068 5.181023 -75.199127 0.000000 -0.000000 0.000000
 29 -2.876167 -1.871922 -5.201611 0.000000 -0.000000 0.000000
 30 8.560896 -0.468304 17.678795 0.204009 0.278047 -0.193583
 31 12.891041 0.210920 -16.663719 -1.088978 -0.632980 -1.260731
 32 7.260983 -4.039101 -10.705334 -0.058145 -0.045499 -0.132491
 33 1.890648 -1.510414 -4.825778 0.000000 -0.000000 0.000000
 34 0.289237 -0.685596 2.700806 0.000000 -0.000000 0.000000
 35 -2.233558 3.346073 176.413712 0.000000 -0.000000 0.000000
 36 0.000000 0.000000 0.000000 0.000000 -0.000000 0.000000
time 7
  0 0.000000 0.000000 0.000000 0.000000 -0.000000 0.000000
  1 -1.498810 2.154104 -2.821136 0.000000 -0.000000 0.000000
  2 -1.498810 2.154104 -2.821136 0.000000 -0.000000 0.000000
  3 -1.498810 2.154104 -2.821136 0.000000 -0.000000 0.000000
  4 0.000000 0.291384 88.780846 0.034907 0.000000 0.000000
  5 0.000000 0.398851 -2.474594 -0.034906 0.000000 -0.000000
  6 -7.305893 -1.178743 -15.655434 -0.132683 0.102142 -0.144357
  7 -0.800573 1.871278 -30.980789 0.403719 -0.003750 -0.007647
  8 -1.600685 0.941621 -30.349432 -0.229639 -0.037718 0.000031
  9 0.371895 -2.765950 -5.714737 0.000000 -0.000000 0.000000
 10 7.825225 -0.126208 -15.067039 -0.039368 -0.155230 -0.025280
 11 0.958466 0.844709 -31.760902 0.340619 0.027737 -0.011168
 12 1.106089 1.047369 -30.157711 -0.222257 0.004648 0.013987
 13 0.077337 -2.897661 -5.661530 0.000000 -0.000000 0.000000
 14 0.193195 2.524171 6.859505 -0.017453 0.000000 0.000000
 15 -2.631256 0.741770 2.351662 -0.009625 0.013771 -0.994089
 16 3.410808 -0.241325 -95.389221 0.017445 -0.006626 0.385211
 17 1.117596 0.741769 2.351662 -0.003744 -0.007041 0.464406
 18 -2.479014 -0.491131 -95.394836 0.017471 0.007558 -0.441260
 19 0.000000 -0.206816 1.847328 -0.209092 -0.000000 0.000001
 20 0.678818 -1.176826 25.929398 0.244345 -0.000000 0.000000
 21 -0.347424 16.161659 -4.667946 -0.174533 0.000000 0.000000
 22 0.309245 5.047663 -19.211098 -0.174532 0.000000 -0.000000
 23 -1.151321 0.711007 9.684380 0.000000 -0.000000 0.000000
 24 -7.391828 -0.655595 17.524300 0.318484 0.017335 0.002500
 25 -13.767697 0.422552 -16.557747 -0.772412 0.266649 0.436166
 26 -7.272572 -4.060486 -10.568680 -0.271619 0.244372 -0.041531
 27 -1.511658 -1.942741 -5.922474 0.052020 0.091792 0.093927
 28 32.119064 5.181030 -75.199150 0.000000 -0.000000 0.000000
 29 -2.876160 -1.871914 -5.201614 0.000000 -0.000000 0.000000
 30 8.560895 -0.468303 17.678795 0.176788 0.272876 -0.200040
 31 12.891040 0.210920 -16.663712 -1.090825 -0.634722 -1.277157
 32 7.260983 -4.039093 -10.705332 -0.049218 -0.036394 -0.136339
 33 1.890652 -1.510422 -4.825777 0.000000 -0.000000 0.000000
 34 0.289237 -0.685595 2.700798 0.000000 -0.000000 0.000000
 35 -2.233558 3.346073 176.413712 0.000000 -0.000000 0.000000
 36 0.000000 0.000000 0.000000 0.000000 -0.000000 0.000000
time 8
  0 0.000000 0.000000 0.000000 0.000000 -0.000000 0.000000
  1 -1.498810 2.154104 -2.821136 0.000000 -0.000000 0.000000
  2 -1.498810 2.154104 -2.821136 0.000000 -0.000000 0.000000
  3 -1.498810 2.154104 -2.821136 0.000000 -0.000000 0.000000
  4 0.000000 0.508830 88.817215 0.034907 0.000000 0.000000
  5 0.000000 0.398851 -2.474602 -0.034906 0.000000 -0.000000
  6 -7.305893 -1.178743 -15.655426 -0.133506 0.101876 -0.144453
  7 -0.800575 1.871279 -30.980785 0.397710 -0.004441 -0.009056
  8 -1.600685 0.941622 -30.349434 -0.215800 -0.035194 0.000853
  9 0.371895 -2.765951 -5.714736 0.000000 -0.000000 0.000000
 10 7.825225 -0.126208 -15.067047 -0.033467 -0.155093 -0.025897
 11 0.958464 0.844710 -31.760910 0.338586 0.026950 -0.017487
 12 1.106087 1.047366 -30.157722 -0.212950 0.004124 0.012411
 13 0.077337 -2.897664 -5.661531 0.000000 -0.000000 0.000000
 14 0.193195 2.524171 6.859505 -0.017453 0.000000 0.000000
 15 -2.631256 0.741770 2.351654 -0.010142 0.014269 -1.037211
 16 3.410807 -0.241325 -95.389206 0.017445 -0.006626 0.385211
 17 1.117596 0.741769 2.351654 -0.004083 -0.007816 0.513200
 18 -2.479013 -0.491131 -95.394836 0.017471 0.007558 -0.441260
 19 0.000000 -0.210058 1.697975 -0.204817 -0.000000 0.000001
 20 0.678818 -1.176826 25.929405 0.244345 -0.000000 0.000000
 21 -0.347424 16.161657 -4.667946 -0.174533 0.000000 0.000000
 22 0.309244 5.047662 -19.211090 -0.174532 0.000000 -0.000000
 23 -1.151321 0.711009 9.684380 0.000000 -0.000000 0.000000
 24 -7.391828 -0.655596 17.524300 0.307896 0.017349 0.002317
 25 -13.767700 0.422552 -16.557762 -0.783565 0.272138 0.431534
 26 -7.272572 -4.060482 -10.568672 -0.271619 0.244372 -0.041531
 27 -1.511662 -1.942741 -5.922466 0.052020 0.091792 0.093927
 28 32.119072 5.181023 -75.199135 0.000000 -0.000000 0.000000
 29 -2.876163 -1.871918 -5.201607 0.000000 -0.000000 0.000000
 30 8.560897 -0.468304 17.678802 0.148452 0.267493 -0.206133
 31 12.891035 0.210921 -16.663712 -1.092484 -0.636283 -1.291422
 32 7.260979 -4.039101 -10.705336 -0.039808 -0.026796 -0.139961
 33 1.890648 -1.510429 -4.825777 0.000000 -0.000000 0.000000
 34 0.289237 -0.685595 2.700798 0.000000 -0.000000 0.000000
 35 -2.233558 3.346073 176.413712 0.000000 -0.000000 0.000000
 36 0.000000 0.000000 0.000000 0.000000 -0.000000 0.000000
time 9
  0 0.000000 0.000000 0.000000 0.000000 -0.000000 0.000000
  1 -1.498810 2.154104 -2.821136 0.000000 -0.000000 0.000000
  2 -1.498810 2.154104 -2.821136 0.000000 -0.000000 0.000000
  3 -1.498810 2.154104 -2.821136 0.000000 -0.000000 0.000000
  4 0.000000 0.730476 88.854301 0.034907 0.000000 0.000000
  5 0.000000 0.398851 -2.474602 -0.034906 0.000000 -0.000000
  6 -7.305893 -1.178743 -15.655434 -0.134105 0.101620 -0.144528
  7 -0.800575 1.871279 -30.980789 0.392481 -0.005042 -0.010282
  8 -1.600685 0.941622 -30.349434 -0.202251 -0.032722 0.001658
  9 0.371897 -2.765951 -5.714737 0.000000 -0.000000 0.000000
 10 7.825225 -0.126208 -15.067039 -0.027956 -0.154966 -0.026427
 11 0.958464 0.844710 -31.760906 0.336532 0.026155 -0.023872
 12 1.106085 1.047359 -30.157715 -0.203344 0.003584 0.010785
 13 0.077335 -2.897664 -5.661533 0.000000 -0.000000 0.000000
 14 0.193195 2.524171 6.859505 -0.017453 0.000000 0.000000
 15 -2.631256 0.741770 2.351654 -0.010581 0.014708 -1.074654
 16 3.410806 -0.241325 -95.389214 0.017445 -0.006626 0.385211
 17 1.117596 0.741769 2.351654 -0.004382 -0.008498 0.556198
 18 -2.479014 -0.491131 -95.394844 0.017471 0.007558 -0.441260
 19 0.000000 -0.212701 1.547981 -0.200438 -0.000000 0.000001
 20 0.678819 -1.176826 25.929405 0.244345 -0.000000 0.000000
 21 -0.347424 16.161655 -4.667946 -0.174533 0.000000 0.000000
 22 0.309244 5.047661 -19.211090 -0.174532 0.000000 -0.000000
 23 -1.151321 0.711009 9.684380 0.000000 -0.000000 0.000000
 24 -7.391829 -0.655594 17.524300 0.297537 0.017361 0.002138
 25 -13.767695 0.422554 -16.557747 -0.793025 0.277014 0.426928
 26 -7.272572 -4.060490 -10.568680 -0.271619 0.244372 -0.041531
 27 -1.511665 -1.942741 -5.922462 0.052020 0.091792 0.093927
 28 32.119068 5.181023 -75.199142 0.000000 -0.000000 0.000000
 29 -2.876167 -1.871918 -5.201607 0.000000 -0.000000 0.000000
 30 8.560896 -0.468304 17.678802 0.119821 0.262055 -0.211804
 31 12.891042 0.210921 -16.663727 -1.093965 -0.637671 -1.303676
 32 7.260979 -4.039101 -10.705336 -0.030153 -0.016948 -0.143338
 33 1.890648 -1.510422 -4.825778 0.000000 -0.000000 0.000000
 34 0.289237 -0.685596 2.700806 0.000000 -0.000000 0.000000
 35 -2.233558 3.346073 176.413712 0.000000 -0.000000 0.000000
 36 0.000000 0.000000 0.000000 0.000000 -0.000000 0.000000
time 10
  0 0.000000 0.000000 0.000000 0.000000 -0.000000 0.000000
  1 -1.498810 2.154104 -2.821136 0.000000 -0.000000 0.000000
  2 -1.498810 2.154104 -2.821136 0.000000 -0.000000 0.000000
  3 -1.498810 2.154104 -2.821136 0.000000 -0.000000 0.000000
  4 0.000000 0.950478 88.891098 0.034907 0.000000 0.000000
  5 0.000000 0.398851 -2.474602 -0.034906 0.000000 -0.000000
  6 -7.305893 -1.178743 -15.655426 -0.134514 0.101387 -0.144585
  7 -0.800574 1.871278 -30.980793 0.388404 -0.005511 -0.011238
  8 -1.600683 0.941624 -30.349434 -0.189496 -0.030396 0.002415
  9 0.371895 -2.765951 -5.714736 0.000000 -0.000000 0.000000
 10 7.825225 -0.126208 -15.067047 -0.023112 -0.154854 -0.026862
 11 0.958464 0.844710 -31.760910 0.334515 0.025375 -0.030140
 12 1.106087 1.047367 -30.157721 -0.193662 0.003039 0.009147
 13 0.077335 -2.897663 -5.661532 0.000000 -0.000000 0.000000
 14 0.193195 2.524171 6.859505 -0.017453 0.000000 0.000000
 15 -2.631255 0.741770 2.351662 -0.010921 0.015058 -1.104176
 16 3.410807 -0.241325 -95.389214 0.017445 -0.006626 0.385211
 17 1.117596 0.741769 2.351662 -0.004620 -0.009043 0.590499
 18 -2.479014 -0.491131 -95.394844 0.017471 0.007558 -0.441260
 19 0.000000 -0.214802 1.401901 -0.196066 -0.000000 0.000001
 20 0.678819 -1.176825 25.929405 0.244345 -0.000000 0.000000
 21 -0.347424 16.161657 -4.667938 -0.174533 0.000000 0.000000
 22 0.309245 5.047660 -19.211098 -0.174532 0.000000 -0.000000
 23 -1.151321 0.711008 9.684372 0.000000 -0.000000 0.000000
 24 -7.391829 -0.655594 17.524300 0.287795 0.017370 0.001970
 25 -13.767695 0.422550 -16.557747 -0.800884 0.281260 0.422500
 26 -7.272572 -4.060486 -10.568676 -0.271619 0.244372 -0.041531
 27 -1.511658 -1.942741 -5.922462 0.052020 0.091792 0.093927
 28 32.119072 5.181042 -75.199127 0.000000 -0.000000 0.000000
 29 -2.876160 -1.871910 -5.201611 0.000000 -0.000000 0.000000
 30 8.560896 -0.468304 17.678802 0.091716 0.256716 -0.216994
 31 12.891037 0.210921 -16.663712 -1.095275 -0.638896 -1.314073
 32 7.260979 -4.039101 -10.705334 -0.020490 -0.007092 -0.146448
 33 1.890640 -1.510422 -4.825779 0.000000 -0.000000 0.000000
 34 0.289237 -0.685595 2.700798 0.000000 -0.000000 0.000000
 35 -2.233558 3.346073 176.413712 0.000000 -0.000000 0.000000
 36 0.000000 0.000000 0.000000 0.000000 -0.000000 0.000000
time 11
  0 0.000000 0.000000 0.000000 0.000000 -0.000000 0.000000
  1 -1.498810 2.154104 -2.821136 0.000000 -0.000000 0.000000
  2 -1.498810 2.154104 -2.821136 0.000000 -0.000000 0.000000
  3 -1.498810 2.154104 -2.821136 0.000000 -0.000000 0.000000
  4 0.000000 1.162996 88.926651 0.034907 0.000000 0.000000
  5 0.000000 0.398851 -2.474594 -0.034906 0.000000 -0.000000
  6 -7.305893 -1.178743 -15.655426 -0.134770 0.101187 -0.144624
  7 -0.800575 1.871279 -30.980797 0.385853 -0.005804 -0.011837
  8 -1.600687 0.941622 -30.349434 -0.178039 -0.028306 0.003095
  9 0.371895 -2.765951 -5.714736 0.000000 -0.000000 0.000000
 10 7.825225 -0.126208 -15.067047 -0.019212 -0.154764 -0.027190
 11 0.958466 0.844709 -31.760902 0.332595 0.024632 -0.036108
 12 1.106087 1.047371 -30.157721 -0.184125 0.002503 0.007532
 13 0.077337 -2.897663 -5.661532 0.000000 -0.000000 0.000000
 14 0.193195 2.524171 6.859505 -0.017453 0.000000 0.000000
 15 -2.631256 0.741770 2.351654 -0.011139 0.015290 -1.123534
 16 3.410807 -0.241325 -95.389198 0.017445 -0.006626 0.385211
 17 1.117596 0.741769 2.351662 -0.004778 -0.009403 0.613205
 18 -2.479013 -0.491132 -95.394836 0.017471 0.007558 -0.441260
 19 0.000000 -0.216424 1.264275 -0.191811 -0.000001 0.000001
 20 0.678818 -1.176826 25.929405 0.244345 -0.000000 0.000000
 21 -0.347424 16.161655 -4.667946 -0.174533 0.000000 0.000000
 22 0.309244 5.047663 -19.211082 -0.174532 0.000000 -0.000000
 23 -1.151320 0.711008 9.684380 0.000000 -0.000000 0.000000
 24 -7.391829 -0.655592 17.524300 0.279056 0.017377 0.001819
 25 -13.767697 0.422552 -16.557755 -0.807234 0.284861 0.418402
 26 -7.272572 -4.060490 -10.568665 -0.271619 0.244372 -0.041531
 27 -1.511658 -1.942749 -5.922466 0.052020 0.091792 0.093927
 28 32.119072 5.181030 -75.199150 0.000000 -0.000000 0.000000
 29 -2.876160 -1.871922 -5.201611 0.000000 -0.000000 0.000000
 30 8.560896 -0.468302 17.678795 0.064957 0.251632 -0.221645
 31 12.891042 0.210921 -16.663712 -1.096423 -0.639965 -1.322764
 32 7.260983 -4.039093 -10.705334 -0.011057 0.002529 -0.149272
 33 1.890656 -1.510429 -4.825776 0.000000 -0.000000 0.000000
 34 0.289237 -0.685595 2.700806 0.000000 -0.000000 0.000000
 35 -2.233558 3.346073 176.413712 0.000000 -0.000000 0.000000
 36 0.000000 0.000000 0.000000 0.000000 -0.000000 0.000000
time 12
  0 0.000000 0.000000 0.000000 0.000000 -0.000000 0.000000
  1 -1.498810 2.154104 -2.821136 0.000000 -0.000000 0.000000
  2 -1.498810 2.154104 -2.821136 0.000000 -0.000000 0.000000
  3 -1.498810 2.154104 -2.821136 0.000000 -0.000000 0.000000
  4 0.000000 1.362188 88.959976 0.034907 0.000000 0.000000
  5 0.000000 0.398851 -2.474586 -0.034906 0.000000 -0.000000
  6 -7.305894 -1.178743 -15.655426 -0.134908 0.101031 -0.144650
  7 -0.800574 1.871280 -30.980793 0.385176 -0.005882 -0.011995
  8 -1.600685 0.941621 -30.349434 -0.168383 -0.026545 0.003669
  9 0.371893 -2.765950 -5.714737 0.000000 -0.000000 0.000000
 10 7.825225 -0.126208 -15.067047 -0.016533 -0.154702 -0.027404
 11 0.958462 0.844711 -31.760906 0.330831 0.023949 -0.041592
 12 1.106087 1.047372 -30.157717 -0.174957 0.001987 0.005980
 13 0.077337 -2.897663 -5.661533 0.000000 -0.000000 0.000000
 14 0.193195 2.524171 6.859505 -0.017453 0.000000 0.000000
 15 -2.631256 0.741770 2.351654 -0.011217 0.015373 -1.130486
 16 3.410807 -0.241325 -95.389206 0.017445 -0.006626 0.385211
 17 1.117596 0.741770 2.351654 -0.004835 -0.009533 0.621418
 18 -2.479014 -0.491132 -95.394829 0.017471 0.007558 -0.441260
 19 0.000000 -0.217623 1.139610 -0.187783 -0.000001 0.000001
 20 0.678818 -1.176824 25.929398 0.244345 -0.000000 0.000000
 21 -0.347424 16.161659 -4.667946 -0.174533 0.000000 0.000000
 22 0.309245 5.047661 -19.211090 -0.174532 0.000000 -0.000000
 23 -1.151321 0.711010 9.684364 0.000000 -0.000000 0.000000
 24 -7.391829 -0.655592 17.524292 0.271706 0.017382 0.001692
 25 -13.767698 0.422552 -16.557755 -0.812163 0.287798 0.414784
 26 -7.272572 -4.060486 -10.568672 -0.271619 0.244372 -0.041531
 27 -1.511658 -1.942741 -5.922466 0.052020 0.091792 0.093927
 28 32.119061 5.181026 -75.199120 0.000000 -0.000000 0.000000
 29 -2.876167 -1.871914 -5.201611 0.000000 -0.000000 0.000000
 30 8.560896 -0.468302 17.678795 0.040366 0.246961 -0.225700
 31 12.891038 0.210922 -16.663719 -1.097418 -0.640888 -1.329900
 32 7.260986 -4.039101 -10.705334 -0.002093 0.011672 -0.151789
 33 1.890648 -1.510426 -4.825778 0.000000 -0.000000 0.000000
 34 0.289237 -0.685594 2.700798 0.000000 -0.000000 0.000000
 35 -2.233558 3.346073 176.413712 0.000000 -0.000000 0.000000
 36 0.000000 0.000000 0.000000 0.000000 -0.000000 0.000000
time 13
  0 0.000000 0.000000 0.000000 0.000000 -0.000000 0.000000
  1 -1.498810 2.154104 -2.821136 0.000000 -0.000000 0.000000
  2 -1.498810 2.154104 -2.821136 0.000000 -0.000000 0.000000
  3 -1.498810 2.154104 -2.821136 0.000000 -0.000000 0.000000
  4 0.000000 1.542212 88.990089 0.034907 0.000000 0.000000
  5 0.000000 0.398851 -2.474602 -0.034906 0.000000 -0.000000
  6 -7.305894 -1.178743 -15.655434 -0.134965 0.100930 -0.144663
  7 -0.800573 1.871279 -30.980793 0.385786 -0.005812 -0.011852
  8 -1.600685 0.941623 -30.349438 -0.161031 -0.025204 0.004105
  9 0.371893 -2.765953 -5.714737 0.000000 -0.000000 0.000000
 10 7.825225 -0.126207 -15.067039 -0.015354 -0.154674 -0.027494
 11 0.958462 0.844710 -31.760910 0.329281 0.023350 -0.046410
 12 1.106081 1.047367 -30.157728 -0.166378 0.001505 0.004528
 13 0.077335 -2.897663 -5.661533 0.000000 -0.000000 0.000000
 14 0.193195 2.524171 6.859505 -0.017453 0.000000 0.000000
 15 -2.631256 0.741770 2.351662 -0.011181 0.015350 -1.128029
 16 3.410807 -0.241325 -95.389206 0.017445 -0.006626 0.385211
 17 1.117596 0.741770 2.351662 -0.004809 -0.009474 0.617697
 18 -2.479014 -0.491131 -95.394852 0.017471 0.007558 -0.441260
 19 0.000000 -0.218460 1.032471 -0.184092 -0.000001 0.000001
 20 0.678818 -1.176826 25.929398 0.244345 -0.000000 0.000000
 21 -0.347424 16.161652 -4.667946 -0.174533 0.000000 0.000000
 22 0.309244 5.047664 -19.211090 -0.174532 0.000000 -0.000000
 23 -1.151321 0.711008 9.684372 0.000000 -0.000000 0.000000
 24 -7.391828 -0.655594 17.524300 0.266133 0.017385 0.001595
 25 -13.767697 0.422554 -16.557747 -0.815765 0.290054 0.411799
 26 -7.272572 -4.060490 -10.568672 -0.271619 0.244372 -0.041531
 27 -1.511662 -1.942745 -5.922466 0.052020 0.091792 0.093927
 28 32.119076 5.181030 -75.199127 0.000000 -0.000000 0.000000
 29 -2.876167 -1.871910 -5.201607 0.000000 -0.000000 0.000000
 30 8.560897 -0.468304 17.678795 0.018761 0.242857 -0.229100
 31 12.891040 0.210920 -16.663712 -1.098267 -0.641672 -1.335634
 32 7.260979 -4.039101 -10.705336 0.006165 0.020095 -0.153979
 33 1.890656 -1.510426 -4.825778 0.000000 -0.000000 0.000000
 34 0.289237 -0.685595 2.700798 0.000000 -0.000000 0.000000
 35 -2.233558 3.346073 176.413712 0.000000 -0.000000 0.000000
 36 0.000000 0.000000 0.000000 0.000000 -0.000000 0.000000
time 14
  0 0.000000 0.000000 0.000000 0.000000 -0.000000 0.000000
  1 -1.498810 2.154104 -2.821136 0.000000 -0.000000 0.000000
  2 -1.498810 2.154104 -2.821136 0.000000 -0.000000 0.000000
  3 -1.498810 2.154104 -2.821136 0.000000 -0.000000 0.000000
  4 0.000000 1.697226 89.016022 0.034907 0.000000 0.000000
  5 0.000000 0.398851 -2.474602 -0.034906 0.000000 -0.000000
  6 -7.305894 -1.178743 -15.655426 -0.134975 0.100896 -0.144667
  7 -0.800573 1.871279 -30.980785 0.387202 -0.005649 -0.011520
  8 -1.600685 0.941622 -30.349436 -0.156487 -0.024375 0.004375
  9 0.371893 -2.765951 -5.714737 0.000000 -0.000000 0.000000
 10 7.825225 -0.126207 -15.067047 -0.015681 -0.154682 -0.027441
 11 0.958462 0.844710 -31.760910 0.328004 0.022856 -0.050379
 12 1.106083 1.047367 -30.157719 -0.158611 0.001068 0.003213
 13 0.077337 -2.897663 -5.661532 0.000000 -0.000000 0.000000
 14 0.193195 2.524171 6.859505 -0.017453 0.000000 0.000000
 15 -2.631256 0.741770 2.351662 -0.011075 0.015283 -1.120939
 16 3.410807 -0.241325 -95.389221 0.017445 -0.006626 0.385211
 17 1.117596 0.741770 2.351662 -0.004736 -0.009306 0.607104
 18 -2.479014 -0.491131 -95.394852 0.017471 0.007558 -0.441260
 19 0.000000 -0.218995 0.947411 -0.180848 -0.000001 0.000001
 20 0.678819 -1.176826 25.929413 0.244345 -0.000000 0.000000
 21 -0.347424 16.161652 -4.667946 -0.174533 0.000000 -0.000000
 22 0.309244 5.047663 -19.211082 -0.174532 0.000000 -0.000000
 23 -1.151321 0.711008 9.684372 0.000000 -0.000000 0.000000
 24 -7.391829 -0.655593 17.524300 0.262723 0.017386 0.001537
 25 -13.767697 0.422552 -16.557755 -0.818128 0.291614 0.409598
 26 -7.272575 -4.060486 -10.568668 -0.271619 0.244372 -0.041531
 27 -1.511658 -1.942741 -5.922468 0.052020 0.091792 0.093927
 28 32.119072 5.181042 -75.199127 0.000000 -0.000000 0.000000
 29 -2.876163 -1.871918 -5.201614 0.000000 -0.000000 0.000000
 30 8.560896 -0.468304 17.678802 0.000966 0.239476 -0.231787
 31 12.891042 0.210921 -16.663719 -1.098979 -0.642328 -1.340117
 32 7.260990 -4.039104 -10.705334 0.013479 0.027555 -0.155822
 33 1.890656 -1.510422 -4.825777 0.000000 -0.000000 0.000000
 34 0.289237 -0.685594 2.700806 0.000000 -0.000000 0.000000
 35 -2.233558 3.346073 176.413712 0.000000 -0.000000 0.000000
 36 0.000000 0.000000 0.000000 0.000000 -0.000000 0.000000
time 15
  0 0.000000 0.000000 0.000000 0.000000 -0.000000 0.000000
  1 -1.498810 2.154104 -2.821136 0.000000 -0.000000 0.000000
  2 -1.498810 2.154104 -2.821136 0.000000 -0.000000 0.000000
  3 -1.498810 2.154104 -2.821136 0.000000 -0.000000 0.000000
  4 0.000000 1.821390 89.036789 0.034907 0.000000 0.000000
  5 0.000000 0.398851 -2.474594 -0.034906 0.000000 -0.000000
  6 -7.305894 -1.178743 -15.655426 -0.134769 0.100926 -0.144646
  7 -0.800575 1.871279 -30.980789 0.389324 -0.005405 -0.011023
  8 -1.600685 0.941624 -30.349438 -0.155251 -0.024149 0.004449
  9 0.371895 -2.765950 -5.714737 0.000000 -0.000000 0.000000
 10 7.825225 -0.126207 -15.067047 -0.017036 -0.154713 -0.027232
 11 0.958466 0.844710 -31.760906 0.327060 0.022490 -0.053315
 12 1.106087 1.047369 -30.157722 -0.151878 0.000689 0.002074
 13 0.077337 -2.897663 -5.661532 0.000000 -0.000000 0.000000
 14 0.193195 2.524171 6.859505 -0.017453 0.000000 0.000000
 15 -2.631256 0.741770 2.351662 -0.010908 0.015175 -1.109639
 16 3.410807 -0.241325 -95.389214 0.017445 -0.006626 0.385211
 17 1.117596 0.741770 2.351662 -0.004620 -0.009043 0.590499
 18 -2.479013 -0.491131 -95.394844 0.017471 0.007558 -0.441260
 19 0.000000 -0.219285 0.888962 -0.178161 -0.000001 0.000001
 20 0.678818 -1.176826 25.929398 0.244345 -0.000000 0.000000
 21 -0.347424 16.161654 -4.667946 -0.174533 0.000000 -0.000000
 22 0.309244 5.047663 -19.211090 -0.174532 0.000000 -0.000000
 23 -1.151321 0.711008 9.684372 0.000000 -0.000000 0.000000
 24 -7.391829 -0.655592 17.524292 0.261860 0.017386 0.001521
 25 -13.767698 0.422552 -16.557747 -0.819345 0.292460 0.408333
 26 -7.272572 -4.060493 -10.568676 -0.271619 0.244372 -0.041531
 27 -1.511658 -1.942734 -5.922466 0.052020 0.091792 0.093927
 28 32.119072 5.181026 -75.199135 0.000000 -0.000000 0.000000
 29 -2.876160 -1.871910 -5.201611 0.000000 -0.000000 0.000000
 30 8.560896 -0.468304 17.678795 -0.012201 0.236975 -0.233703
 31 12.891040 0.210921 -16.663704 -1.099563 -0.642862 -1.343503
 32 7.260979 -4.039101 -10.705334 0.019612 0.033810 -0.157296
 33 1.890656 -1.510422 -4.825779 0.000000 -0.000000 0.000000
 34 0.289237 -0.685594 2.700790 0.000000 -0.000000 0.000000
 35 -2.233558 3.346073 176.413712 0.000000 -0.000000 0.000000
 36 0.000000 0.000000 0.000000 0.000000 -0.000000 0.000000
time 16
  0 0.000000 0.000000 0.000000 0.000000 -0.000000 0.000000
  1 -1.498810 2.154104 -2.821136 0.000000 -0.000000 0.000000
  2 -1.498810 2.154104 -2.821136 0.000000 -0.000000 0.000000
  3 -1.498810 2.154104 -2.821136 0.000000 -0.000000 0.000000
  4 0.000000 1.908861 89.051422 0.034907 0.000000 0.000000
  5 0.000000 0.398850 -2.474602 -0.034906 0.000000 -0.000000
  6 -7.305894 -1.178743 -15.655426 -0.134210 0.101006 -0.144589
  7 -0.800575 1.871279 -30.980789 0.392048 -0.005092 -0.010384
  8 -1.600683 0.941623 -30.349440 -0.157481 -0.024556 0.004316
  9 0.371895 -2.765951 -5.714737 0.000000 -0.000000 0.000000
 10 7.825225 -0.126207 -15.067047 -0.019274 -0.154765 -0.026885
 11 0.958464 0.844709 -31.760910 0.326506 0.022276 -0.055036
 12 1.106087 1.047371 -30.157724 -0.146402 0.000381 0.001147
 13 0.077337 -2.897663 -5.661532 0.000000 -0.000000 0.000000
 14 0.193195 2.524171 6.859505 -0.017453 0.000000 0.000000
 15 -2.631256 0.741770 2.351669 -0.010686 0.015030 -1.094549
 16 3.410807 -0.241325 -95.389206 0.017445 -0.006626 0.385211
 17 1.117596 0.741770 2.351669 -0.004469 -0.008697 0.568741
 18 -2.479014 -0.491131 -95.394836 0.017471 0.007558 -0.441260
 19 0.000000 -0.219391 0.861649 -0.176140 -0.000001 0.000001
 20 0.678818 -1.176825 25.929405 0.244345 -0.000000 0.000000
 21 -0.347424 16.161659 -4.667946 -0.174533 0.000000 -0.000000
 22 0.309245 5.047663 -19.211082 -0.174532 0.000000 -0.000000
 23 -1.151320 0.711008 9.684380 0.000000 -0.000000 0.000000
 24 -7.391829 -0.655592 17.524292 0.263633 0.017382 0.001526
 25 -13.767696 0.422552 -16.557755 -0.819258 0.292483 0.408167
 26 -7.272575 -4.060486 -10.568672 -0.271619 0.244372 -0.041531
 27 -1.511658 -1.942741 -5.922462 0.052020 0.091792 0.093927
 28 32.119064 5.181057 -75.199135 0.000000 -0.000000 0.000000
 29 -2.876167 -1.871918 -5.201607 0.000000 -0.000000 0.000000
 30 8.560895 -0.468303 17.678787 -0.019918 0.235509 -0.234790
 31 12.891040 0.210920 -16.663712 -1.100027 -0.643284 -1.345942
 32 7.260983 -4.039101 -10.705336 0.024325 0.038617 -0.158383
 33 1.890640 -1.510426 -4.825779 0.000000 -0.000000 0.000000
 34 0.289237 -0.685594 2.700798 0.000000 -0.000000 0.000000
 35 -2.233558 3.346073 176.413712 0.000000 -0.000000 0.000000
 36 0.000000 0.000000 0.000000 0.000000 -0.000000 0.000000
time 17
  0 0.000000 0.000000 0.000000 0.000000 -0.000000 0.000000
  1 -1.498810 2.154104 -2.821136 0.000000 -0.000000 0.000000
  2 -1.498810 2.154104 -2.821136 0.000000 -0.000000 0.000000
  3 -1.498810 2.154104 -2.821136 0.000000 -0.000000 0.000000
  4 0.000000 1.953799 89.058945 0.034907 0.000000 0.000000
  5 0.000000 0.398851 -2.474586 -0.034906 0.000000 -0.000000
  6 -7.305894 -1.178743 -15.655426 -0.133348 0.101131 -0.144501
  7 -0.800575 1.871280 -30.980801 0.395274 -0.004721 -0.009628
  8 -1.600685 0.941621 -30.349434 -0.162747 -0.025517 0.004004
  9 0.371893 -2.765952 -5.714736 0.000000 -0.000000 0.000000
 10 7.825225 -0.126207 -15.067047 -0.022260 -0.154834 -0.026423
 11 0.958462 0.844710 -31.760918 0.326413 0.022240 -0.055325
 12 1.106089 1.047365 -30.157728 -0.142403 0.000156 0.000470
 13 0.077337 -2.897664 -5.661534 0.000000 -0.000000 0.000000
 14 0.193195 2.524171 6.859505 -0.017453 0.000000 0.000000
 15 -2.631255 0.741770 2.351654 -0.010415 0.014852 -1.076092
 16 3.410807 -0.241326 -95.389191 0.017445 -0.006626 0.385211
 17 1.117596 0.741770 2.351662 -0.004288 -0.008284 0.542688
 18 -2.479013 -0.491131 -95.394852 0.017471 0.007558 -0.441260
 19 0.000000 -0.218941 0.873184 -0.174897 -0.000001 0.000001
 20 0.678818 -1.176825 25.929405 0.244345 -0.000000 0.000000
 21 -0.347424 16.161657 -4.667938 -0.174533 0.000000 0.000000
 22 0.309244 5.047663 -19.211090 -0.174532 0.000000 -0.000000
 23 -1.151321 0.711008 9.684387 0.000000 -0.000000 0.000000
 24 -7.391829 -0.655592 17.524300 0.267705 0.017372 0.001541
 25 -13.767697 0.422554 -16.557739 -0.815115 0.290641 0.409282
 26 -7.272575 -4.060490 -10.568668 -0.271619 0.244372 -0.041531
 27 -1.511662 -1.942745 -5.922464 0.052020 0.091792 0.093927
 28 32.119053 5.181019 -75.199127 0.000000 -0.000000 0.000000
 29 -2.876160 -1.871918 -5.201612 0.000000 -0.000000 0.000000
 30 8.560896 -0.468304 17.678802 -0.021215 0.235262 -0.235001
 31 12.891040 0.210921 -16.663712 -1.100379 -0.643603 -1.347587
 32 7.260979 -4.039108 -10.705334 0.027381 0.041734 -0.159061
 33 1.890656 -1.510426 -4.825778 0.000000 -0.000000 0.000000
 34 0.289237 -0.685593 2.700798 0.000000 -0.000000 0.000000
 35 -2.233558 3.346073 176.413712 0.000000 -0.000000 0.000000
 36 0.000000 0.000000 0.000000 0.000000 -0.000000 0.000000
time 18
  0 0.000000 0.000000 0.000000 0.000000 -0.000000 0.000000
  1 -1.498810 2.154104 -2.821136 0.000000 -0.000000 0.000000
  2 -1.498810 2.154104 -2.821136 0.000000 -0.000000 0.000000
  3 -1.498810 2.154104 -2.821136 0.000000 -0.000000 0.000000
  4 0.000000 1.943531 89.057220 0.034907 0.000000 0.000000
  5 0.000000 0.398851 -2.474594 -0.034906 0.000000 -0.000000
  6 -7.305894 -1.178743 -15.655426 -0.132234 0.101291 -0.144388
  7 -0.800573 1.871280 -30.980793 0.398898 -0.004304 -0.008778
  8 -1.600683 0.941621 -30.349438 -0.170577 -0.026945 0.003539
  9 0.371893 -2.765951 -5.714737 0.000000 -0.000000 0.000000
 10 7.825225 -0.126207 -15.067047 -0.025860 -0.154917 -0.025866
 11 0.958462 0.844709 -31.760914 0.326981 0.022460 -0.053558
 12 1.106085 1.047363 -30.157724 -0.140105 0.000027 0.000081
 13 0.077337 -2.897664 -5.661534 0.000000 -0.000000 0.000000
 14 0.193195 2.524171 6.859505 -0.017453 0.000000 0.000000
 15 -2.631255 0.741770 2.351654 -0.010102 0.014644 -1.054690
 16 3.410808 -0.241325 -95.389206 0.017445 -0.006626 0.385211
 17 1.117596 0.741770 2.351654 -0.004083 -0.007816 0.513200
 18 -2.479013 -0.491131 -95.394836 0.017471 0.007558 -0.441260
 19 0.000000 -0.216933 0.930687 -0.174550 -0.000001 0.000001
 20 0.678818 -1.176826 25.929405 0.244345 -0.000000 0.000000
 21 -0.347424 16.161652 -4.667946 -0.174533 0.000000 0.000000
 22 0.309245 5.047661 -19.211075 -0.174532 0.000000 -0.000000
 23 -1.151321 0.711008 9.684380 0.000000 -0.000000 0.000000
 24 -7.391828 -0.655593 17.524292 0.273716 0.017357 0.001567
 25 -13.767700 0.422550 -16.557747 -0.806700 0.286900 0.411546
 26 -7.272572 -4.060486 -10.568665 -0.271619 0.244372 -0.041531
 27 -1.511658 -1.942741 -5.922466 0.052020 0.091792 0.093927
 28 32.119057 5.181042 -75.199112 0.000000 -0.000000 0.000000
 29 -2.876163 -1.871922 -5.201611 0.000000 -0.000000 0.000000
 30 8.560896 -0.468304 17.678795 -0.013290 0.236768 -0.234471
 31 12.891042 0.210921 -16.663712 -1.100628 -0.643826 -1.348589
 32 7.260983 -4.039101 -10.705335 0.028542 0.042918 -0.159310
 33 1.890640 -1.510422 -4.825777 0.000000 -0.000000 0.000000
 34 0.289237 -0.685594 2.700798 0.000000 -0.000000 0.000000
 35 -2.233558 3.346073 176.413712 0.000000 -0.000000 0.000000
 36 0.000000 0.000000 0.000000 0.000000 -0.000000 0.000000
time 19
  0 0.000000 0.000000 0.000000 0.000000 -0.000000 0.000000
  1 -1.498810 2.154104 -2.821136 0.000000 -0.000000 0.000000
  2 -1.498810 2.154104 -2.821136 0.000000 -0.000000 0.000000
  3 -1.498810 2.154104 -2.821136 0.000000 -0.000000 0.000000
  4 0.000000 1.848737 89.041367 0.034907 0.000000 0.000000
  5 0.000000 0.398852 -2.474602 -0.034906 0.000000 -0.000000
  6 -7.305894 -1.178743 -15.655426 -0.130918 0.101480 -0.144253
  7 -0.800573 1.871280 -30.980801 0.402818 -0.003853 -0.007858
  8 -1.600683 0.941623 -30.349438 -0.180498 -0.028754 0.002949
  9 0.371897 -2.765950 -5.714736 0.000000 -0.000000 0.000000
 10 7.825225 -0.126207 -15.067047 -0.029942 -0.155012 -0.025235
 11 0.958464 0.844711 -31.760906 0.328180 0.022923 -0.049834
 12 1.106087 1.047368 -30.157722 -0.139898 0.000015 0.000046
 13 0.077339 -2.897663 -5.661532 0.000000 -0.000000 0.000000
 14 0.193195 2.524171 6.859505 -0.017453 0.000000 0.000000
 15 -2.631256 0.741770 2.351662 -0.009755 0.014409 -1.030764
 16 3.410807 -0.241325 -95.389206 0.017445 -0.006626 0.385211
 17 1.117596 0.741770 2.351662 -0.003860 -0.007307 0.481136
 18 -2.479014 -0.491131 -95.394852 0.017471 0.007558 -0.441260
 19 0.000000 -0.213562 1.027206 -0.175802 -0.000001 0.000001
 20 0.678818 -1.176826 25.929405 0.244345 -0.000000 0.000000
 21 -0.347424 16.161655 -4.667946 -0.174533 0.000000 0.000000
 22 0.309245 5.047661 -19.211090 -0.174532 0.000000 -0.000000
 23 -1.151320 0.711008 9.684380 0.000000 -0.000000 0.000000
 24 -7.391829 -0.655593 17.524300 0.281308 0.017339 0.001606
 25 -13.767700 0.422552 -16.557755 -0.794748 0.281587 0.414762
 26 -7.272575 -4.060493 -10.568672 -0.271619 0.244372 -0.041531
 27 -1.511658 -1.942738 -5.922470 0.052020 0.091792 0.093927
 28 32.119064 5.181034 -75.199120 0.000000 -0.000000 0.000000
 29 -2.876160 -1.871906 -5.201618 0.000000 -0.000000 0.000000
 30 8.560896 -0.468303 17.678795 0.003408 0.239940 -0.233205
 31 12.891042 0.210921 -16.663719 -1.100781 -0.643963 -1.349101
 32 7.260986 -4.039108 -10.705334 0.026498 0.040833 -0.158373
 33 1.890648 -1.510418 -4.825779 0.000000 -0.000000 0.000000
 34 0.289237 -0.685595 2.700806 0.000000 -0.000000 0.000000
 35 -2.233558 3.346073 176.413712 0.000000 -0.000000 0.000000
 36 0.000000 0.000000 0.000000 0.000000 -0.000000 0.000000
time 20
  0 0.000000 0.000000 0.000000 0.000000 -0.000000 0.000000
  1 -1.498810 2.154104 -2.821136 0.000000 -0.000000 0.000000
  2 -1.498810 2.154104 -2.821136 0.000000 -0.000000 0.000000
  3 -1.498810 2.154104 -2.821136 0.000000 -0.000000 0.000000
  4 0.000000 1.680224 89.013176 0.034907 0.000000 0.000000
  5 0.000000 0.398851 -2.474594 -0.034906 0.000000 -0.000000
  6 -7.305894 -1.178743 -15.655434 -0.129452 0.101692 -0.144104
  7 -0.800575 1.871278 -30.980785 0.406933 -0.003380 -0.006893
  8 -1.600685 0.941623 -30.349434 -0.192036 -0.030859 0.002264
  9 0.371893 -2.765950 -5.714736 0.000000 -0.000000 0.000000
 10 7.825225 -0.126207 -15.067039 -0.034370 -0.155114 -0.024550
 11 0.958464 0.844710 -31.760902 0.329890 0.023585 -0.044519
 12 1.106085 1.047366 -30.157721 -0.144126 0.000253 0.000762
 13 0.077337 -2.897663 -5.661532 0.000000 -0.000000 0.000000
 14 0.193195 2.524171 6.859505 -0.017453 0.000000 0.000000
 15 -2.631256 0.741769 2.351662 -0.009379 0.014152 -1.004736
 16 3.410807 -0.241325 -95.389221 0.017445 -0.006626 0.385211
 17 1.117596 0.741769 2.351662 -0.003625 -0.006770 0.447353
 18 -2.479014 -0.491132 -95.394821 0.017471 0.007558 -0.441260
 19 0.000000 -0.209094 1.155182 -0.178794 -0.000001 0.000001
 20 0.678818 -1.176827 25.929398 0.244345 -0.000000 0.000000
 21 -0.347424 16.161659 -4.667946 -0.174533 0.000000 -0.000000
 22 0.309244 5.047663 -19.211090 -0.174532 0.000000 -0.000000
 23 -1.151321 0.711008 9.684380 0.000000 -0.000000 0.000000
 24 -7.391828 -0.655594 17.524292 0.290122 0.017318 0.001658
 25 -13.767701 0.422552 -16.557747 -0.779990 0.275026 0.418733
 26 -7.272568 -4.060486 -10.568672 -0.271619 0.244372 -0.041531
 27 -1.511662 -1.942745 -5.922466 0.052020 0.091792 0.093927
 28 32.119072 5.181034 -75.199135 0.000000 -0.000000 0.000000
 29 -2.876163 -1.871918 -5.201611 0.000000 -0.000000 0.000000
 30 8.560896 -0.468304 17.678787 0.027243 0.244468 -0.231132
 31 12.891041 0.210921 -16.663719 -1.100848 -0.644023 -1.349275
 32 7.260986 -4.039108 -10.705335 0.020315 0.034527 -0.155541
 33 1.890648 -1.510426 -4.825779 0.000000 -0.000000 0.000000
 34 0.289237 -0.685595 2.700798 0.000000 -0.000000 0.000000
 35 -2.233558 3.346073 176.413712 0.000000 -0.000000 0.000000
 36 0.000000 0.000000 0.000000 0.000000 -0.000000 0.000000
time 21
  0 0.000000 0.000000 0.000000 0.000000 -0.000000 0.000000
  1 -1.498810 2.154104 -2.821136 0.000000 -0.000000 0.000000
  2 -1.498810 2.154104 -2.821136 0.000000 -0.000000 0.000000
  3 -1.498810 2.154104 -2.821136 0.000000 -0.000000 0.000000
  4 0.000000 1.453615 88.975266 0.034907 0.000000 0.000000
  5 0.000000 0.398852 -2.474594 -0.034906 0.000000 -0.000000
  6 -7.305894 -1.178743 -15.655426 -0.127885 0.101917 -0.143944
  7 -0.800575 1.871279 -30.980785 0.411141 -0.002897 -0.005907
  8 -1.600685 0.941622 -30.349436 -0.204720 -0.033173 0.001511
  9 0.371895 -2.765952 -5.714737 0.000000 -0.000000 0.000000
 10 7.825225 -0.126208 -15.067047 -0.039012 -0.155222 -0.023832
 11 0.958462 0.844710 -31.760914 0.331994 0.024399 -0.037977
 12 1.106085 1.047373 -30.157722 -0.152704 0.000736 0.002214
 13 0.077337 -2.897662 -5.661532 0.000000 -0.000000 0.000000
 14 0.193195 2.524171 6.859505 -0.017453 0.000000 0.000000
 15 -2.631256 0.741769 2.351654 -0.008982 0.013876 -0.977027
 16 3.410808 -0.241324 -95.389206 0.017445 -0.006626 0.385211
 17 1.117596 0.741769 2.351654 -0.003385 -0.006221 0.412712
 18 -2.479013 -0.491132 -95.394844 0.017471 0.007558 -0.441260
 19 0.000000 -0.203793 1.306961 -0.183174 -0.000001 0.000001
 20 0.678818 -1.176826 25.929413 0.244345 -0.000000 0.000000
 21 -0.347424 16.161652 -4.667938 -0.174533 0.000000 0.000000
 22 0.309245 5.047663 -19.211090 -0.174532 0.000000 -0.000000
 23 -1.151320 0.711006 9.684380 0.000000 -0.000000 0.000000
 24 -7.391829 -0.655594 17.524300 0.299799 0.017294 0.001727
 25 -13.767700 0.422554 -16.557739 -0.763160 0.267543 0.423262
 26 -7.272575 -4.060486 -10.568672 -0.271619 0.244372 -0.041531
 27 -1.511662 -1.942741 -5.922462 0.052020 0.091792 0.093927
 28 32.119068 5.181030 -75.199135 0.000000 -0.000000 0.000000
 29 -2.876163 -1.871910 -5.201611 0.000000 -0.000000 0.000000
 30 8.560896 -0.468304 17.678795 0.056577 0.250040 -0.228181
 31 12.891042 0.210920 -16.663719 -1.100491 -0.643686 -1.346095
 32 7.260986 -4.039101 -10.705334 0.010811 0.024833 -0.151187
 33 1.890648 -1.510426 -4.825779 0.000000 -0.000000 0.000000
 34 0.289237 -0.685595 2.700798 0.000000 -0.000000 0.000000
 35 -2.233558 3.346073 176.413712 0.000000 -0.000000 0.000000
 36 0.000000 0.000000 0.000000 0.000000 -0.000000 0.000000
time 22
  0 0.000000 0.000000 0.000000 0.000000 -0.000000 0.000000
  1 -1.498810 2.154104 -2.821136 0.000000 -0.000000 0.000000
  2 -1.498810 2.154104 -2.821136 0.000000 -0.000000 0.000000
  3 -1.498810 2.154104 -2.821136 0.000000 -0.000000 0.000000
  4 0.000000 1.184531 88.930252 0.034907 0.000000 0.000000
  5 0.000000 0.398851 -2.474602 -0.034906 0.000000 -0.000000
  6 -7.305893 -1.178743 -15.655426 -0.126268 0.102150 -0.143779
  7 -0.800574 1.871279 -30.980789 0.415339 -0.002414 -0.004922
  8 -1.600683 0.941620 -30.349436 -0.218076 -0.035609 0.000718
  9 0.371891 -2.765950 -5.714737 0.000000 -0.000000 0.000000
 10 7.825225 -0.126208 -15.067047 -0.043733 -0.155331 -0.023102
 11 0.958460 0.844710 -31.760914 0.334376 0.025321 -0.030573
 12 1.106081 1.047369 -30.157724 -0.164628 0.001406 0.004232
 13 0.077333 -2.897664 -5.661533 0.000000 -0.000000 0.000000
 14 0.193195 2.524171 6.859505 -0.017453 0.000000 0.000000
 15 -2.631256 0.741770 2.351662 -0.008570 0.013584 -0.948060
 16 3.410807 -0.241325 -95.389214 0.017445 -0.006626 0.385211
 17 1.117596 0.741769 2.351662 -0.003144 -0.005671 0.378071
 18 -2.479014 -0.491131 -95.394859 0.017471 0.007558 -0.441260
 19 0.000000 -0.197924 1.475006 -0.188590 -0.000001 0.000001
 20 0.678818 -1.176826 25.929413 0.244345 -0.000000 0.000000
 21 -0.347424 16.161654 -4.667938 -0.174533 0.000000 0.000000
 22 0.309245 5.047662 -19.211090 -0.174532 0.000000 -0.000000
 23 -1.151321 0.711008 9.684387 0.000000 -0.000000 0.000000
 24 -7.391829 -0.655593 17.524292 0.309981 0.017269 0.001813
 25 -13.767696 0.422552 -16.557755 -0.744990 0.259465 0.428151
 26 -7.272568 -4.060490 -10.568665 -0.271619 0.244372 -0.041531
 27 -1.511658 -1.942738 -5.922466 0.052020 0.091792 0.093927
 28 32.119061 5.181011 -75.199120 0.000000 -0.000000 0.000000
 29 -2.876160 -1.871914 -5.201611 0.000000 -0.000000 0.000000
 30 8.560896 -0.468305 17.678802 0.089774 0.256346 -0.224281
 31 12.891041 0.210921 -16.663719 -1.098714 -0.642011 -1.330443
 32 7.260979 -4.039101 -10.705336 -0.001191 0.012592 -0.145689
 33 1.890648 -1.510426 -4.825780 0.000000 -0.000000 0.000000
 34 0.289237 -0.685594 2.700806 0.000000 -0.000000 0.000000
 35 -2.233558 3.346073 176.413712 0.000000 -0.000000 0.000000
 36 0.000000 0.000000 0.000000 0.000000 -0.000000 0.000000
time 23
  0 0.000000 0.000000 0.000000 0.000000 -0.000000 0.000000
  1 -1.498810 2.154104 -2.821136 0.000000 -0.000000 0.000000
  2 -1.498810 2.154104 -2.821136 0.000000 -0.000000 0.000000
  3 -1.498810 2.154104 -2.821136 0.000000 -0.000000 0.000000
  4 0.000000 0.888596 88.880745 0.034907 0.000000 0.000000
  5 0.000000 0.398851 -2.474602 -0.034906 0.000000 -0.000000
  6 -7.305893 -1.178743 -15.655434 -0.124652 0.102383 -0.143615
  7 -0.800575 1.871278 -30.980785 0.419426 -0.001944 -0.003964
  8 -1.600685 0.941622 -30.349440 -0.231631 -0.038081 -0.000087
  9 0.371895 -2.765952 -5.714737 0.000000 -0.000000 0.000000
 10 7.825225 -0.126208 -15.067039 -0.048399 -0.155439 -0.022380
 11 0.958464 0.844710 -31.760910 0.336917 0.026305 -0.022674
 12 1.106085 1.047362 -30.157724 -0.178899 0.002209 0.006648
 13 0.077337 -2.897662 -5.661533 0.000000 -0.000000 0.000000
 14 0.193195 2.524171 6.859505 -0.017453 0.000000 0.000000
 15 -2.631255 0.741770 2.351662 -0.008150 0.013280 -0.918257
 16 3.410808 -0.241325 -95.389206 0.017445 -0.006626 0.385211
 17 1.117596 0.741769 2.351662 -0.002909 -0.005134 0.344289
 18 -2.479014 -0.491132 -95.394836 0.017471 0.007558 -0.441260
 19 0.000000 -0.191753 1.651703 -0.194688 -0.000001 0.000001
 20 0.678818 -1.176826 25.929405 0.244345 -0.000000 0.000000
 21 -0.347424 16.161659 -4.667953 -0.174533 0.000000 -0.000000
 22 0.309245 5.047662 -19.211090 -0.174532 0.000000 -0.000000
 23 -1.151321 0.711008 9.684372 0.000000 -0.000000 0.000000
 24 -7.391828 -0.655592 17.524292 0.320309 0.017244 0.001918
 25 -13.767696 0.422554 -16.557755 -0.726213 0.251118 0.433204
 26 -7.272572 -4.060493 -10.568672 -0.271619 0.244372 -0.041531
 27 -1.511662 -1.942741 -5.922466 0.052020 0.091792 0.093927
 28 32.119053 5.181023 -75.199142 0.000000 -0.000000 0.000000
 29 -2.876163 -1.871914 -5.201611 0.000000 -0.000000 0.000000
 30 8.560897 -0.468302 17.678795 0.125195 0.263075 -0.219362
 31 12.891040 0.210921 -16.663719 -1.095782 -0.639248 -1.304603
 32 7.260983 -4.039093 -10.705336 -0.014866 -0.001356 -0.139424
 33 1.890648 -1.510414 -4.825779 0.000000 -0.000000 0.000000
 34 0.289237 -0.685595 2.700806 0.000000 -0.000000 0.000000
 35 -2.233558 3.346073 176.413712 0.000000 -0.000000 0.000000
 36 0.000000 0.000000 0.000000 0.000000 -0.000000 0.000000
time 24
  0 0.000000 0.000000 0.000000 0.000000 -0.000000 0.000000
  1 -1.498810 2.154104 -2.821136 0.000000 -0.000000 0.000000
  2 -1.498810 2.154104 -2.821136 0.000000 -0.000000 0.000000
  3 -1.498810 2.154104 -2.821136 0.000000 -0.000000 0.000000
  4 0.000000 0.581432 88.829369 0.034907 0.000000 0.000000
  5 0.000000 0.398851 -2.474602 -0.034906 0.000000 -0.000000
  6 -7.305893 -1.178743 -15.655434 -0.123088 0.102608 -0.143455
  7 -0.800575 1.871279 -30.980785 0.423298 -0.001499 -0.003056
  8 -1.600685 0.941624 -30.349432 -0.244913 -0.040504 -0.000876
  9 0.371897 -2.765951 -5.714739 0.000000 -0.000000 0.000000
 10 7.825225 -0.126208 -15.067039 -0.052878 -0.155542 -0.021687
 11 0.958464 0.844710 -31.760914 0.339501 0.027304 -0.014643
 12 1.106087 1.047365 -30.157722 -0.194515 0.003087 0.009291
 13 0.077337 -2.897662 -5.661533 0.000000 -0.000000 0.000000
 14 0.193195 2.524171 6.859505 -0.017453 0.000000 0.000000
 15 -2.631256 0.741769 2.351654 -0.007729 0.012968 -0.888038
 16 3.410807 -0.241326 -95.389191 0.017445 -0.006626 0.385211
 17 1.117596 0.741769 2.351654 -0.002686 -0.004626 0.312224
 18 -2.479014 -0.491131 -95.394852 0.017471 0.007558 -0.441260
 19 0.000000 -0.185546 1.829475 -0.201118 -0.000001 0.000001
 20 0.678818 -1.176826 25.929405 0.244345 -0.000000 0.000000
 21 -0.347424 16.161657 -4.667946 -0.174533 0.000000 0.000000
 22 0.309244 5.047663 -19.211075 -0.174532 0.000000 -0.000000
 23 -1.151321 0.711008 9.684380 0.000000 -0.000000 0.000000
 24 -7.391828 -0.655594 17.524300 0.330424 0.017220 0.002044
 25 -13.767696 0.422552 -16.557747 -0.707562 0.242826 0.438223
 26 -7.272575 -4.060490 -10.568672 -0.271619 0.244372 -0.041531
 27 -1.511662 -1.942745 -5.922466 0.052020 0.091792 0.093927
 28 32.119068 5.181034 -75.199142 0.000000 -0.000000 0.000000
 29 -2.876163 -1.871918 -5.201611 0.000000 -0.000000 0.000000
 30 8.560896 -0.468303 17.678795 0.161206 0.269916 -0.213352
 31 12.891036 0.210922 -16.663704 -1.092057 -0.635737 -1.271784
 32 7.260983 -4.039093 -10.705332 -0.029391 -0.016171 -0.132770
 33 1.890648 -1.510429 -4.825777 0.000000 -0.000000 0.000000
 34 0.289237 -0.685595 2.700798 0.000000 -0.000000 0.000000
 35 -2.233558 3.346073 176.413712 0.000000 -0.000000 0.000000
 36 0.000000 0.000000 0.000000 0.000000 -0.000000 0.000000
time 25
  0 0.000000 0.000000 0.000000 0.000000 -0.000000 0.000000
  1 -1.498810 2.154104 -2.821136 0.000000 -0.000000 0.000000
  2 -1.498810 2.154104 -2.821136 0.000000 -0.000000 0.000000
  3 -1.498810 2.154104 -2.821136 0.000000 -0.000000 0.000000
  4 0.000000 0.278662 88.778717 0.034907 0.000000 0.000000
  5 0.000000 0.398851 -2.474602 -0.034906 0.000000 -0.000000
  6 -7.305893 -1.178743 -15.655426 -0.121625 0.102819 -0.143306
  7 -0.800573 1.871280 -30.980793 0.426855 -0.001090 -0.002222
  8 -1.600683 0.941620 -30.349438 -0.257449 -0.042791 -0.001620
  9 0.371897 -2.765953 -5.714737 0.000000 -0.000000 0.000000
 10 7.825225 -0.126208 -15.067047 -0.057034 -0.155638 -0.021044
 11 0.958462 0.844709 -31.760914 0.342009 0.028275 -0.006846
 12 1.106085 1.047363 -30.157732 -0.210475 0.003985 0.011993
 13 0.077335 -2.897662 -5.661534 0.000000 -0.000000 0.000000
 14 0.193195 2.524171 6.859505 -0.017453 0.000000 0.000000
 15 -2.631256 0.741770 2.351662 -0.007313 0.012650 -0.857827
 16 3.410807 -0.241325 -95.389221 0.017445 -0.006626 0.385211
 17 1.117596 0.741770 2.351662 -0.002481 -0.004157 0.282736
 18 -2.479014 -0.491132 -95.394829 0.017471 0.007558 -0.441260
 19 0.000000 -0.179565 2.000725 -0.207525 -0.000000 0.000001
 20 0.678818 -1.176826 25.929405 0.244345 -0.000000 0.000000
 21 -0.347424 16.161652 -4.667946 -0.174533 0.000000 0.000000
 22 0.309244 5.047661 -19.211090 -0.174532 0.000000 -0.000000
 23 -1.151320 0.711006 9.684364 0.000000 -0.000000 0.000000
 24 -7.391829 -0.655594 17.524300 0.339967 0.017197 0.002193
 25 -13.767698 0.422552 -16.557755 -0.689770 0.234916 0.443010
 26 -7.272575 -4.060490 -10.568672 -0.271619 0.244372 -0.041531
 27 -1.511658 -1.942741 -5.922470 0.052020 0.091792 0.093927
 28 32.119057 5.181034 -75.199142 0.000000 -0.000000 0.000000
 29 -2.876163 -1.871918 -5.201614 0.000000 -0.000000 0.000000
 30 8.560896 -0.468305 17.678802 0.196167 0.276558 -0.206182
 31 12.891040 0.210922 -16.663712 -1.087906 -0.631824 -1.235202
 32 7.260983 -4.039101 -10.705338 -0.043941 -0.031012 -0.126104
 33 1.890648 -1.510422 -4.825779 0.000000 -0.000000 0.000000
 34 0.289237 -0.685595 2.700806 0.000000 -0.000000 0.000000
 35 -2.233558 3.346073 176.413712 0.000000 -0.000000 0.000000
 36 0.000000 0.000000 0.000000 0.000000 -0.000000 0.000000
time 26
  0 0.000000 0.000000 0.000000 0.000000 -0.000000 0.000000
  1 -1.498810 2.154104 -2.821136 0.000000 -0.000000 0.000000
  2 -1.498810 2.154104 -2.821136 0.000000 -0.000000 0.000000
  3 -1.498810 2.154104 -2.821136 0.000000 -0.000000 0.000000
  4 0.000000 -0.004092 88.731407 0.034907 0.000000 0.000000
  5 0.000000 0.398851 -2.474594 -0.034906 0.000000 -0.000000
  6 -7.305893 -1.178743 -15.655434 -0.120315 0.103008 -0.143172
  7 -0.800574 1.871279 -30.980782 0.429994 -0.000729 -0.001486
  8 -1.600683 0.941622 -30.349430 -0.268766 -0.044855 -0.002292
  9 0.371891 -2.765952 -5.714736 0.000000 -0.000000 0.000000
 10 7.825225 -0.126208 -15.067039 -0.060735 -0.155724 -0.020471
 11 0.958464 0.844710 -31.760910 0.344325 0.029171 0.000352
 12 1.106085 1.047366 -30.157719 -0.225778 0.004846 0.014583
 13 0.077337 -2.897663 -5.661531 0.000000 -0.000000 0.000000
 14 0.193195 2.524171 6.859505 -0.017453 0.000000 0.000000
 15 -2.631256 0.741770 2.351662 -0.006910 0.012332 -0.828044
 16 3.410807 -0.241324 -95.389214 0.017445 -0.006626 0.385211
 17 1.117596 0.741769 2.351662 -0.002300 -0.003744 0.256684
 18 -2.479014 -0.491131 -95.394852 0.017471 0.007558 -0.441260
 19 0.000000 -0.174078 2.157852 -0.213557 -0.000000 0.000001
 20 0.678819 -1.176826 25.929413 0.244345 -0.000000 0.000000
 21 -0.347424 16.161655 -4.667946 -0.174533 0.000000 0.000000
 22 0.309244 5.047661 -19.211090 -0.174532 0.000000 -0.000000
 23 -1.151321 0.711008 9.684364 0.000000 -0.000000 0.000000
 24 -7.391829 -0.655593 17.524300 0.348579 0.017176 0.002366
 25 -13.767697 0.422552 -16.557755 -0.673569 0.227713 0.447370
 26 -7.272575 -4.060495 -10.568665 -0.271619 0.244372 -0.041531
 27 -1.511665 -1.942745 -5.922466 0.052020 0.091792 0.093927
 28 32.119057 5.181015 -75.199135 0.000000 -0.000000 0.000000
 29 -2.876163 -1.871910 -5.201614 0.000000 -0.000000 0.000000
 30 8.560897 -0.468302 17.678795 0.228443 0.282689 -0.197781
 31 12.891036 0.210920 -16.663712 -1.083691 -0.627852 -1.198068
 32 7.260979 -4.039101 -10.705338 -0.057694 -0.045038 -0.119804
 33 1.890652 -1.510422 -4.825778 0.000000 -0.000000 0.000000
 34 0.289237 -0.685596 2.700798 0.000000 -0.000000 0.000000
 35 -2.233558 3.346073 176.413712 0.000000 -0.000000 0.000000
 36 0.000000 0.000000 0.000000 0.000000 -0.000000 0.000000
time 27
  0 0.000000 0.000000 0.000000 0.000000 -0.000000 0.000000
  1 -1.498810 2.154104 -2.821136 0.000000 -0.000000 0.000000
  2 -1.498810 2.154104 -2.821136 0.000000 -0.000000 0.000000
  3 -1.498810 2.154104 -2.821136 0.000000 -0.000000 0.000000
  4 0.000000 -0.251206 88.690079 0.034907 0.000000 0.000000
  5 0.000000 0.398851 -2.474594 -0.034906 0.000000 -0.000000
  6 -7.305893 -1.178743 -15.655426 -0.119208 0.103167 -0.143059
  7 -0.800575 1.871279 -30.980789 0.432614 -0.000428 -0.000872
  8 -1.600685 0.941622 -30.349432 -0.278391 -0.046611 -0.002864
  9 0.371895 -2.765951 -5.714736 0.000000 -0.000000 0.000000
 10 7.825225 -0.126208 -15.067047 -0.063846 -0.155796 -0.019990
 11 0.958464 0.844710 -31.760918 0.346331 0.029947 0.006586
 12 1.106089 1.047361 -30.157722 -0.239423 0.005614 0.016893
 13 0.077337 -2.897663 -5.661534 0.000000 -0.000000 0.000000
 14 0.193195 2.524171 6.859505 -0.017453 0.000000 0.000000
 15 -2.631256 0.741770 2.351669 -0.006525 0.012015 -0.799112
 16 3.410807 -0.241325 -95.389214 0.017445 -0.006626 0.385211
 17 1.117596 0.741770 2.351669 -0.002149 -0.003399 0.234925
 18 -2.479013 -0.491131 -95.394844 0.017471 0.007558 -0.441260
 19 0.000000 -0.169349 2.293282 -0.218863 -0.000000 0.000001
 20 0.678819 -1.176826 25.929398 0.244345 -0.000000 0.000000
 21 -0.347424 16.161652 -4.667946 -0.174533 0.000000 -0.000000
 22 0.309244 5.047662 -19.211090 -0.174532 0.000000 -0.000000
 23 -1.151321 0.711007 9.684380 0.000000 -0.000000 0.000000
 24 -7.391828 -0.655592 17.524292 0.355902 0.017158 0.002564
 25 -13.767696 0.422552 -16.557755 -0.659693 0.221544 0.451104
 26 -7.272573 -4.060488 -10.568672 -0.271619 0.244372 -0.041531
 27 -1.511658 -1.942745 -5.922466 0.052020 0.091792 0.093927
 28 32.119064 5.181030 -75.199135 0.000000 -0.000000 0.000000
 29 -2.876163 -1.871918 -5.201607 0.000000 -0.000000 0.000000
 30 8.560896 -0.468303 17.678795 0.256396 0.287999 -0.188078
 31 12.891041 0.210922 -16.663719 -1.079779 -0.624165 -1.163593
 32 7.260983 -4.039108 -10.705334 -0.069824 -0.057411 -0.114247
 33 1.890648 -1.510422 -4.825779 0.000000 -0.000000 0.000000
 34 0.289237 -0.685593 2.700790 0.000000 -0.000000 0.000000
 35 -2.233558 3.346073 176.413712 0.000000 -0.000000 0.000000
 36 0.000000 0.000000 0.000000 0.000000 -0.000000 0.000000
time 28
  0 0.000000 0.000000 0.000000 0.000000 -0.000000 0.000000
  1 -1.498810 2.154104 -2.821136 0.000000 -0.000000 0.000000
  2 -1.498810 2.154104 -2.821136 0.000000 -0.000000 0.000000
  3 -1.498810 2.154104 -2.821136 0.000000 -0.000000 0.000000
  4 0.000000 -0.447059 88.657310 0.034907 0.000000 0.000000
  5 0.000000 0.398851 -2.474594 -0.034906 0.000000 -0.000000
  6 -7.305893 -1.178743 -15.655434 -0.118355 0.103290 -0.142972
  7 -0.800575 1.871279 -30.980789 0.434611 -0.000198 -0.000403
  8 -1.600687 0.941621 -30.349438 -0.285852 -0.047972 -0.003307
  9 0.371895 -2.765951 -5.714738 0.000000 -0.000000 0.000000
 10 7.825225 -0.126208 -15.067039 -0.066235 -0.155851 -0.019620
 11 0.958462 0.844711 -31.760918 0.347909 0.030558 0.011490
 12 1.106085 1.047360 -30.157724 -0.250409 0.006231 0.018752
 13 0.077337 -2.897663 -5.661532 0.000000 -0.000000 0.000000
 14 0.193195 2.524171 6.859505 -0.017453 0.000000 0.000000
 15 -2.631256 0.741770 2.351654 -0.006167 0.011705 -0.771452
 16 3.410807 -0.241325 -95.389206 0.017445 -0.006626 0.385211
 17 1.117596 0.741769 2.351662 -0.002034 -0.003135 0.218320
 18 -2.479014 -0.491131 -95.394852 0.017471 0.007558 -0.441260
 19 0.000000 -0.165642 2.399422 -0.223089 -0.000000 0.000001
 20 0.678818 -1.176824 25.929398 0.244345 -0.000000 0.000000
 21 -0.347424 16.161652 -4.667938 -0.174533 0.000000 0.000000
 22 0.309244 5.047661 -19.211090 -0.174532 0.000000 -0.000000
 23 -1.151321 0.711007 9.684372 0.000000 -0.000000 0.000000
 24 -7.391829 -0.655593 17.524292 0.361577 0.017144 0.002790
 25 -13.767698 0.422554 -16.557747 -0.648874 0.216735 0.454015
 26 -7.272575 -4.060488 -10.568665 -0.271619 0.244372 -0.041531
 27 -1.511665 -1.942745 -5.922466 0.052020 0.091792 0.093927
 28 32.119072 5.181053 -75.199135 0.000000 -0.000000 0.000000
 29 -2.876167 -1.871918 -5.201611 0.000000 -0.000000 0.000000
 30 8.560896 -0.468302 17.678787 0.278389 0.292177 -0.177001
 31 12.891039 0.210920 -16.663719 -1.076533 -0.621105 -1.134992
 32 7.260983 -4.039101 -10.705334 -0.079509 -0.067288 -0.109811
 33 1.890652 -1.510429 -4.825779 0.000000 -0.000000 0.000000
 34 0.289237 -0.685594 2.700798 0.000000 -0.000000 0.000000
 35 -2.233558 3.346073 176.413712 0.000000 -0.000000 0.000000
 36 0.000000 0.000000 0.000000 0.000000 -0.000000 0.000000
time 29
  0 0.000000 0.000000 0.000000 0.000000 -0.000000 0.000000
  1 -1.498810 2.154104 -2.821136 0.000000 -0.000000 0.000000
  2 -1.498810 2.154104 -2.821136 0.000000 -0.000000 0.000000
  3 -1.498810 2.154104 -2.821136 0.000000 -0.000000 0.000000
  4 0.000000 -0.576027 88.635735 0.034907 0.000000 0.000000
  5 0.000000 0.398851 -2.474586 -0.034906 0.000000 -0.000000
  6 -7.305893 -1.178743 -15.655434 -0.117806 0.103369 -0.142916
  7 -0.800574 1.871279 -30.980785 0.435884 -0.000052 -0.000105
  8 -1.600685 0.941626 -30.349434 -0.290675 -0.048851 -0.003593
  9 0.371893 -2.765952 -5.714738 0.000000 -0.000000 0.000000
 10 7.825225 -0.126208 -15.067039 -0.067765 -0.155887 -0.019384
 11 0.958462 0.844710 -31.760910 0.348941 0.030957 0.014701
 12 1.106085 1.047360 -30.157722 -0.257735 0.006644 0.019992
 13 0.077337 -2.897664 -5.661532 0.000000 -0.000000 0.000000
 14 0.193195 2.524171 6.859505 -0.017453 0.000000 0.000000
 15 -2.631256 0.741770 2.351654 -0.005841 0.011403 -0.745486
 16 3.410807 -0.241325 -95.389206 0.017445 -0.006626 0.385211
 17 1.117596 0.741770 2.351662 -0.001960 -0.002967 0.207728
 18 -2.479013 -0.491132 -95.394852 0.017471 0.007558 -0.441260
 19 0.000000 -0.163224 2.468666 -0.225883 -0.000000 0.000001
 20 0.678819 -1.176825 25.929405 0.244345 -0.000000 0.000000
 21 -0.347424 16.161652 -4.667946 -0.174533 0.000000 0.000000
 22 0.309244 5.047664 -19.211090 -0.174532 0.000000 -0.000000
 23 -1.151320 0.711007 9.684372 0.000000 -0.000000 0.000000
 24 -7.391829 -0.655592 17.524300 0.365245 0.017135 0.003045
 25 -13.767697 0.422552 -16.557755 -0.641846 0.213610 0.455906
 26 -7.272575 -4.060493 -10.568672 -0.271619 0.244372 -0.041531
 27 -1.511658 -1.942749 -5.922466 0.052020 0.091792 0.093927
 28 32.119068 5.181038 -75.199158 0.000000 -0.000000 0.000000
 29 -2.876160 -1.871918 -5.201614 0.000000 -0.000000 0.000000
 30 8.560896 -0.468303 17.678802 0.292785 0.294912 -0.164482
 31 12.891037 0.210922 -16.663712 -1.074318 -0.619018 -1.115475
 32 7.260983 -4.039101 -10.705334 -0.085924 -0.073831 -0.106872
 33 1.890648 -1.510422 -4.825781 0.000000 -0.000000 0.000000
 34 0.289237 -0.685593 2.700806 0.000000 -0.000000 0.000000
 35 -2.233558 3.346073 176.413712 0.000000 -0.000000 0.000000
 36 0.000000 0.000000 0.000000 0.000000 -0.000000 0.000000
time 30
  0 0.000000 0.000000 0.000000 0.000000 -0.000000 0.000000
  1 -1.498810 2.154104 -2.821136 0.000000 -0.000000 0.000000
  2 -1.498810 2.154104 -2.821136 0.000000 -0.000000 0.000000
  3 -1.498810 2.154104 -2.821136 0.000000 -0.000000 0.000000
  4 0.000000 -0.622488 88.627968 0.034907 0.000000 0.000000
  5 0.000000 0.398852 -2.474602 -0.034906 0.000000 -0.000000
  6 -7.305893 -1.178743 -15.655434 -0.117611 0.103397 -0.142897
  7 -0.800572 1.871280 -30.980785 0.436331 -0.000000 -0.000000
  8 -1.600683 0.941620 -30.349440 -0.292388 -0.049164 -0.003695
  9 0.371893 -2.765950 -5.714736 0.000000 -0.000000 0.000000
 10 7.825225 -0.126208 -15.067039 -0.068305 -0.155899 -0.019300
 11 0.958466 0.844710 -31.760906 0.349312 0.031101 0.015852
 12 1.106085 1.047361 -30.157724 -0.260399 0.006793 0.020443
 13 0.077339 -2.897663 -5.661534 0.000000 -0.000000 0.000000
 14 0.193195 2.524171 6.859505 -0.017453 0.000000 0.000000
 15 -2.631256 0.741770 2.351654 -0.005554 0.011115 -0.721635
 16 3.410807 -0.241325 -95.389206 0.017445 -0.006626 0.385211
 17 1.117596 0.741769 2.351654 -0.001934 -0.002908 0.204006
 18 -2.479014 -0.491131 -95.394829 0.017471 0.007558 -0.441260
 19 0.000000 -0.162359 2.493423 -0.226892 0.000000 0.000001
 20 0.678818 -1.176824 25.929405 0.244345 -0.000000 0.000000
 21 -0.347424 16.161650 -4.667938 -0.174533 0.000000 -0.000000
 22 0.309244 5.047662 -19.211090 -0.174532 0.000000 -0.000000
 23 -1.151320 0.711008 9.684372 0.000000 -0.000000 0.000000
 24 -7.391829 -0.655593 17.524300 0.366547 0.017132 0.003330
 25 -13.767698 0.422552 -16.557747 -0.639340 0.212496 0.456580
 26 -7.272575 -4.060490 -10.568665 -0.271619 0.244372 -0.041531
 27 -1.511662 -1.942738 -5.922466 0.052020 0.091792 0.093927
 28 32.119068 5.181042 -75.199127 0.000000 -0.000000 0.000000
 29 -2.876167 -1.871914 -5.201607 0.000000 -0.000000 0.000000
 30 8.560896 -0.468303 17.678795 0.297948 0.295893 -0.150448
 31 12.891039 0.210920 -16.663712 -1.073499 -0.618246 -1.108256
 32 7.260983 -4.039101 -10.705336 -0.088245 -0.076199 -0.105809
 33 1.890648 -1.510422 -4.825778 0.000000 -0.000000 0.000000
 34 0.289237 -0.685594 2.700806 0.000000 -0.000000 0.000000
 35 -2.233558 3.346073 176.413712 0.000000 -0.000000 0.000000
 36 0.000000 0.000000 0.000000 0.000000 -0.000000 0.000000
end
