version 1
nodes
  0 "bone35"  -1
  1 "bone36"  -1
  2 "bone37"  -1
  3 "bone39"  -1
  4 "bone21"   3
  5 "bone20"   4
  6 "bone07"   5
  7 "bone22"   6
  8 "bone18"   7
  9 "bone25"   8
 10 "bone14"   5
 11 "bone16"  10
 12 "bone19"  11
 13 "bone24"  12
 14 "bone01"   5
 15 "bone15"  14
 16 "bone001"  15
 17 "bone17"  14
 18 "bone38"  17
 19 "bone03"   4
 20 "bone06"  19
 21 "bone13"  20
 22 "bone12"  21
 23 "bone26"  20
 24 "bone08"  19
 25 "bone05"  24
 26 "bone09"  25
 27 "bone11"  26
 28 "bone29"  27
 29 "bone30"  26
 30 "bone02"  19
 31 "bone04"  30
 32 "bone10"  31
 33 "bone31"  32
 34 "bone32"  19
 35 "bone34"   3
 36 "_M3_Anim_Data"  -1
end
skeleton
time 0
  0 0.000000 0.000000 0.000000 0.000000 -0.000000 0.000000
  1 -1.498810 2.154104 -2.821136 0.000000 -0.000000 0.000000
  2 -1.498810 2.154104 -2.821136 0.000000 -0.000000 0.000000
  3 -1.498810 2.154104 -2.821136 0.000000 -0.000000 0.000000
  4 0.000000 -0.622488 88.627968 0.034907 0.000000 0.000000
  5 0.000000 0.398852 -2.474602 -0.034906 0.000000 -0.000000
  6 -7.305893 -1.178743 -15.655434 0.193792 0.001734 -0.105480
  7 -0.800575 1.871280 -30.980789 0.196239 0.086583 -0.047242
  8 -1.600685 0.941622 -30.349430 -0.189260 -0.031322 -0.002357
  9 0.371893 -2.765951 -5.714736 0.000000 -0.000000 0.000000
 10 7.825225 -0.126208 -15.067039 -0.261702 -0.069433 0.010939
 11 0.958469 0.844712 -31.760910 -0.014172 0.017255 0.056291
 12 1.106091 1.047367 -30.157745 0.276557 -0.002357 -0.044983
 13 0.077338 -2.897666 -5.661538 0.000000 -0.000000 0.000000
 14 0.193195 2.524171 6.859505 -0.017453 0.000000 0.000000
 15 -2.631256 0.741770 2.351654 -0.002471 0.006107 -0.382975
 16 3.410807 -0.241324 -95.389236 0.017445 -0.006626 0.385211
 17 1.117596 0.741769 2.351654 -0.001725 0.002901 -0.130544
 18 -2.479014 -0.491130 -95.394859 0.017471 0.007558 -0.441260
 19 0.000000 -0.162359 2.493423 -0.226892 0.000000 0.000001
 20 0.678818 -1.176824 25.929405 0.139626 0.000000 0.000000
 21 -0.347424 16.161652 -4.667938 -0.174533 0.000000 0.000000
 22 0.309245 5.047661 -19.211082 -0.174532 0.000000 -0.000000
 23 -1.151321 0.711008 9.684380 0.000000 -0.000000 0.000000
 24 -7.391829 -0.655593 17.524300 0.366547 0.017132 0.003330
 25 -13.767689 0.422548 -16.557739 -0.639340 0.212496 0.456580
 26 -7.272573 -4.060499 -10.568680 -0.271619 0.244372 -0.041531
 27 -1.511658 -1.942749 -5.922470 0.052020 0.091792 0.093927
 28 32.119053 5.181000 -75.199120 0.000000 -0.000000 0.000000
 29 -2.876167 -1.871918 -5.201611 0.000000 -0.000000 0.000000
 30 8.560896 -0.468303 17.678802 0.675609 0.463080 -1.349524
 31 12.891039 0.210915 -16.663727 -0.241737 -0.410647 -0.453915
 32 7.260977 -4.039101 -10.705330 -0.088245 -0.076199 -0.105809
 33 1.890647 -1.510424 -4.825790 0.000000 -0.000000 0.000000
 34 0.289237 -0.685594 2.700806 0.000000 -0.000000 0.000000
 35 -2.233558 3.346073 176.413712 0.000000 -0.000000 0.000000
 36 0.000000 0.000000 0.000000 0.000000 -0.000000 0.000000
time 1
  0 0.000000 0.000000 0.000000 0.000000 -0.000000 0.000000
  1 -1.498810 2.154104 -2.821136 0.000000 -0.000000 0.000000
  2 -1.498810 2.154104 -2.821136 0.000000 -0.000000 0.000000
  3 -1.498810 2.154104 -2.821136 0.000000 -0.000000 0.000000
  4 0.000000 -0.622488 88.627968 0.034907 0.000000 0.000000
  5 0.000000 0.398852 -2.474602 -0.034906 0.000000 -0.000000
  6 -7.305893 -1.178743 -15.655434 0.129166 -0.012746 -0.112048
  7 -0.800576 1.871277 -30.980793 0.280368 0.086543 -0.031879
  8 -1.600684 0.941620 -30.349434 -0.276261 -0.045178 0.002083
  9 0.371893 -2.765951 -5.714738 0.000000 -0.000000 0.000000
 10 7.825225 -0.126208 -15.067039 -0.241547 -0.060646 0.007614
 11 0.958470 0.844714 -31.760910 -0.006020 0.010103 0.055200
 12 1.106094 1.047368 -30.157751 0.259209 -0.002538 -0.042825
 13 0.077338 -2.897666 -5.661540 0.000000 -0.000000 0.000000
 14 0.193195 2.524171 6.859505 -0.017453 0.000000 0.000000
 15 -2.631256 0.741770 2.351654 -0.002649 0.006292 -0.398060
 16 3.410806 -0.241324 -95.389236 0.017445 -0.006626 0.385211
 17 1.117596 0.741769 2.351654 -0.001816 0.002620 -0.113086
 18 -2.479014 -0.491131 -95.394859 0.017471 0.007558 -0.441260
 19 0.000000 -0.162359 2.493423 -0.243251 0.000000 0.000001
 20 0.678819 -1.176826 25.929413 0.141881 -0.000000 0.000000
 21 -0.347424 16.161652 -4.667938 -0.174533 0.000000 -0.000000
 22 0.309244 5.047659 -19.211082 -0.174532 0.000000 -0.000000
 23 -1.151321 0.711008 9.684380 0.000000 -0.000000 0.000000
 24 -7.391828 -0.655594 17.524300 0.388303 0.002833 0.007706
 25 -13.767693 0.422550 -16.557739 -0.663217 0.234859 0.450965
 26 -7.272575 -4.060493 -10.568672 -0.271619 0.244372 -0.041531
 27 -1.511665 -1.942745 -5.922470 0.052020 0.091792 0.093927
 28 32.119053 5.180981 -75.199120 0.000000 -0.000000 0.000000
 29 -2.876163 -1.871918 -5.201614 0.000000 -0.000000 0.000000
 30 8.560896 -0.468304 17.678795 0.675609 0.463080 -1.349524
 31 12.891037 0.210922 -16.663715 -0.266537 -0.405717 -0.450646
 32 7.260977 -4.039101 -10.705330 -0.088245 -0.076199 -0.105809
 33 1.890647 -1.510424 -4.825783 0.000000 -0.000000 0.000000
 34 0.289237 -0.685595 2.700798 0.000000 -0.000000 0.000000
 35 -2.233558 3.346073 176.413712 0.000000 -0.000000 0.000000
 36 0.000000 0.000000 0.000000 0.000000 -0.000000 0.000000
time 2
  0 0.000000 0.000000 0.000000 0.000000 -0.000000 0.000000
  1 -1.498810 2.154104 -2.821136 0.000000 -0.000000 0.000000
  2 -1.498810 2.154104 -2.821136 0.000000 -0.000000 0.000000
  3 -1.498810 2.154104 -2.821136 0.000000 -0.000000 0.000000
  4 0.000000 -0.622488 88.627968 0.034907 0.000000 0.000000
  5 0.000000 0.398852 -2.474602 -0.034906 0.000000 -0.000000
  6 -7.305893 -1.178743 -15.655434 -0.025786 -0.039768 -0.127795
  7 -0.800575 1.871278 -30.980797 0.482082 0.086372 0.004956
  8 -1.600683 0.941620 -30.349432 -0.484858 -0.078400 0.012646
  9 0.371894 -2.765952 -5.714739 0.000000 -0.000000 0.000000
 10 7.825225 -0.126208 -15.067039 -0.190749 -0.045022 -0.000732
 11 0.958468 0.844716 -31.760906 0.014524 0.000285 0.052459
 12 1.106092 1.047368 -30.157749 0.215987 -0.002696 -0.037451
 13 0.077338 -2.897666 -5.661538 0.000000 -0.000000 0.000000
 14 0.193195 2.524171 6.859505 -0.017453 0.000000 0.000000
 15 -2.631256 0.741770 2.351654 -0.003142 0.006804 -0.439764
 16 3.410807 -0.241324 -95.389244 0.017445 -0.006626 0.385211
 17 1.117596 0.741769 2.351654 -0.002067 0.001845 -0.064820
 18 -2.479014 -0.491131 -95.394867 0.017471 0.007558 -0.441260
 19 0.000000 -0.162359 2.493423 -0.257460 0.000000 0.000001
 20 0.678818 -1.176825 25.929405 0.148171 0.000000 0.000000
 21 -0.347424 16.161654 -4.667946 -0.174533 0.000000 0.000000
 22 0.309245 5.047661 -19.211090 -0.174532 0.000000 -0.000000
 23 -1.151321 0.711008 9.684380 0.000000 -0.000000 0.000000
 24 -7.391828 -0.655592 17.524307 0.410032 -0.018329 0.013341
 25 -13.767689 0.422550 -16.557747 -0.688619 0.265737 0.444808
 26 -7.272579 -4.060493 -10.568672 -0.271619 0.244372 -0.041531
 27 -1.511662 -1.942745 -5.922466 0.052020 0.091792 0.093927
 28 32.119053 5.180996 -75.199112 0.000000 -0.000000 0.000000
 29 -2.876167 -1.871914 -5.201614 0.000000 -0.000000 0.000000
 30 8.560896 -0.468304 17.678802 0.675609 0.463080 -1.349524
 31 12.891037 0.210915 -16.663715 -0.297969 -0.391877 -0.441467
 32 7.260977 -4.039101 -10.705330 -0.088245 -0.076199 -0.105809
 33 1.890647 -1.510424 -4.825775 0.000000 -0.000000 0.000000
 34 0.289237 -0.685595 2.700798 0.000000 -0.000000 0.000000
 35 -2.233558 3.346073 176.413712 0.000000 -0.000000 0.000000
 36 0.000000 0.000000 0.000000 0.000000 -0.000000 0.000000
time 3
  0 0.000000 0.000000 0.000000 0.000000 -0.000000 0.000000
  1 -1.498810 2.154104 -2.821136 0.000000 -0.000000 0.000000
  2 -1.498810 2.154104 -2.821136 0.000000 -0.000000 0.000000
  3 -1.498810 2.154104 -2.821136 0.000000 -0.000000 0.000000
  4 0.000000 -0.622488 88.627968 0.034907 0.000000 0.000000
  5 0.000000 0.398852 -2.474602 -0.034906 0.000000 -0.000000
  6 -7.305893 -1.178743 -15.655434 -0.212671 -0.070553 -0.146788
  7 -0.800575 1.871277 -30.980793 0.725366 0.085993 0.049383
  8 -1.600686 0.941624 -30.349434 -0.736445 -0.118470 0.025367
  9 0.371894 -2.765952 -5.714736 0.000000 -0.000000 0.000000
 10 7.825225 -0.126208 -15.067039 -0.123807 -0.027456 -0.011662
 11 0.958470 0.844712 -31.760906 0.041597 -0.009838 0.048864
 12 1.106095 1.047365 -30.157749 0.160123 -0.002821 -0.030508
 13 0.077338 -2.897666 -5.661539 0.000000 -0.000000 0.000000
 14 0.193195 2.524171 6.859505 -0.017453 0.000000 0.000000
 15 -2.631256 0.741770 2.351654 -0.003886 0.007577 -0.502765
 16 3.410806 -0.241323 -95.389244 0.017445 -0.006626 0.385211
 17 1.117596 0.741769 2.351654 -0.002446 0.000673 0.008092
 18 -2.479015 -0.491131 -95.394859 0.017471 0.007558 -0.441260
 19 0.000000 -0.162359 2.493423 -0.269668 0.000000 0.000001
 20 0.678819 -1.176825 25.929405 0.157780 0.000000 0.000000
 21 -0.347424 16.161654 -4.667946 -0.174533 0.000000 0.000000
 22 0.309244 5.047661 -19.211090 -0.174532 0.000000 -0.000000
 23 -1.151320 0.711007 9.684380 0.000000 -0.000000 0.000000
 24 -7.391829 -0.655594 17.524307 0.431448 -0.044998 0.019963
 25 -13.767690 0.422550 -16.557747 -0.711787 0.297646 0.439096
 26 -7.272579 -4.060497 -10.568672 -0.271619 0.244372 -0.041531
 27 -1.511658 -1.942741 -5.922470 0.052020 0.091792 0.093927
 28 32.119041 5.180996 -75.199120 0.000000 -0.000000 0.000000
 29 -2.876160 -1.871914 -5.201614 0.000000 -0.000000 0.000000
 30 8.560896 -0.468304 17.678802 0.675609 0.463080 -1.349524
 31 12.891036 0.210922 -16.663715 -0.334744 -0.370548 -0.427323
 32 7.260979 -4.039099 -10.705338 -0.088245 -0.076199 -0.105809
 33 1.890648 -1.510425 -4.825775 0.000000 -0.000000 0.000000
 34 0.289237 -0.685595 2.700798 0.000000 -0.000000 0.000000
 35 -2.233558 3.346073 176.413712 0.000000 -0.000000 0.000000
 36 0.000000 0.000000 0.000000 0.000000 -0.000000 0.000000
time 4
  0 0.000000 0.000000 0.000000 0.000000 -0.000000 0.000000
  1 -1.498810 2.154104 -2.821136 0.000000 -0.000000 0.000000
  2 -1.498810 2.154104 -2.821136 0.000000 -0.000000 0.000000
  3 -1.498810 2.154104 -2.821136 0.000000 -0.000000 0.000000
  4 0.000000 -0.622488 88.627968 0.034907 0.000000 0.000000
  5 0.000000 0.398852 -2.474602 -0.034906 0.000000 -0.000000
  6 -7.305893 -1.178743 -15.655434 -0.373098 -0.096323 -0.163091
  7 -0.800575 1.871277 -30.980789 0.934205 0.085329 0.087519
  8 -1.600684 0.941619 -30.349438 -0.952412 -0.152866 0.036280
  9 0.371893 -2.765951 -5.714736 0.000000 -0.000000 0.000000
 10 7.825225 -0.126208 -15.067039 -0.055218 -0.012841 -0.022736
 11 0.958470 0.844714 -31.760906 0.069333 -0.017903 0.045213
 12 1.106092 1.047368 -30.157745 0.104852 -0.002904 -0.023643
 13 0.077340 -2.897665 -5.661538 0.000000 -0.000000 0.000000
 14 0.193195 2.524171 6.859505 -0.017453 0.000000 0.000000
 15 -2.631256 0.741770 2.351654 -0.004818 0.008545 -0.581738
 16 3.410807 -0.241324 -95.389221 0.017445 -0.006626 0.385211
 17 1.117596 0.741769 2.351654 -0.002921 -0.000795 0.099489
 18 -2.479015 -0.491131 -95.394852 0.017471 0.007558 -0.441260
 19 0.000000 -0.162359 2.493423 -0.280022 0.000000 0.000001
 20 0.678818 -1.176826 25.929405 0.169992 0.000000 0.000000
 21 -0.347424 16.161655 -4.667938 -0.174533 0.000000 -0.000000
 22 0.309244 5.047659 -19.211082 -0.174532 0.000000 -0.000000
 23 -1.151320 0.711008 9.684372 0.000000 -0.000000 0.000000
 24 -7.391829 -0.655594 17.524300 0.452268 -0.075818 0.027300
 25 -13.767692 0.422550 -16.557747 -0.728959 0.323097 0.434816
 26 -7.272575 -4.060493 -10.568672 -0.271619 0.244372 -0.041531
 27 -1.511662 -1.942749 -5.922470 0.052020 0.091792 0.093927
 28 32.119049 5.180984 -75.199112 0.000000 -0.000000 0.000000
 29 -2.876163 -1.871918 -5.201618 0.000000 -0.000000 0.000000
 30 8.560897 -0.468304 17.678802 0.675609 0.463079 -1.349524
 31 12.891040 0.210922 -16.663727 -0.375572 -0.343152 -0.409156
 32 7.260979 -4.039099 -10.705330 -0.088245 -0.076199 -0.105809
 33 1.890647 -1.510423 -4.825783 0.000000 -0.000000 0.000000
 34 0.289237 -0.685595 2.700806 0.000000 -0.000000 0.000000
 35 -2.233558 3.346073 176.413712 0.000000 -0.000000 0.000000
 36 0.000000 0.000000 0.000000 0.000000 -0.000000 0.000000
time 5
  0 0.000000 0.000000 0.000000 0.000000 -0.000000 0.000000
  1 -1.498810 2.154104 -2.821136 0.000000 -0.000000 0.000000
  2 -1.498810 2.154104 -2.821136 0.000000 -0.000000 0.000000
  3 -1.498810 2.154104 -2.821136 0.000000 -0.000000 0.000000
  4 0.000000 -0.622488 88.627968 0.034907 0.000000 0.000000
  5 0.000000 0.398852 -2.474602 -0.034906 0.000000 -0.000000
  6 -7.305893 -1.178743 -15.655434 -0.448672 -0.108301 -0.170772
  7 -0.800575 1.871279 -30.980793 1.032587 0.084304 0.105485
  8 -1.600687 0.941622 -30.349436 -1.054151 -0.169070 0.041419
  9 0.371893 -2.765952 -5.714738 0.000000 -0.000000 0.000000
 10 7.825225 -0.126208 -15.067039 0.000518 -0.006071 -0.031513
 11 0.958469 0.844713 -31.760910 0.091869 -0.021547 0.042303
 12 1.106094 1.047365 -30.157749 0.063407 -0.002938 -0.018505
 13 0.077339 -2.897665 -5.661538 0.000000 -0.000000 0.000000
 14 0.193195 2.524171 6.859505 -0.017453 0.000000 0.000000
 15 -2.631256 0.741770 2.351654 -0.005877 0.009645 -0.671359
 16 3.410806 -0.241324 -95.389236 0.017445 -0.006626 0.385211
 17 1.117596 0.741769 2.351654 -0.003461 -0.002462 0.203209
 18 -2.479015 -0.491130 -95.394852 0.017471 0.007558 -0.441260
 19 0.000000 -0.162359 2.493423 -0.288670 0.000000 0.000001
 20 0.678818 -1.176826 25.929405 0.184093 0.000000 0.000000
 21 -0.347424 16.161654 -4.667953 -0.174533 0.000000 0.000000
 22 0.309245 5.047661 -19.211082 -0.174532 0.000000 -0.000000
 23 -1.151321 0.711008 9.684380 0.000000 -0.000000 0.000000
 24 -7.391829 -0.655594 17.524292 0.472207 -0.109433 0.035079
 25 -13.767690 0.422550 -16.557747 -0.736374 0.334606 0.432954
 26 -7.272577 -4.060499 -10.568680 -0.271619 0.244372 -0.041531
 27 -1.511658 -1.942745 -5.922470 0.052020 0.091792 0.093927
 28 32.119045 5.180981 -75.199142 0.000000 -0.000000 0.000000
 29 -2.876160 -1.871918 -5.201614 0.000000 -0.000000 0.000000
 30 8.560896 -0.468302 17.678795 0.675609 0.463080 -1.349524
 31 12.891039 0.210922 -16.663723 -0.419163 -0.311113 -0.387908
 32 7.260980 -4.039101 -10.705330 -0.088245 -0.076199 -0.105809
 33 1.890648 -1.510425 -4.825783 0.000000 -0.000000 0.000000
 34 0.289237 -0.685595 2.700798 0.000000 -0.000000 0.000000
 35 -2.233558 3.346073 176.413712 0.000000 -0.000000 0.000000
 36 0.000000 0.000000 0.000000 0.000000 -0.000000 0.000000
time 6
  0 0.000000 0.000000 0.000000 0.000000 -0.000000 0.000000
  1 -1.498810 2.154104 -2.821136 0.000000 -0.000000 0.000000
  2 -1.498810 2.154104 -2.821136 0.000000 -0.000000 0.000000
  3 -1.498810 2.154104 -2.821136 0.000000 -0.000000 0.000000
  4 0.000000 -0.622488 88.627968 0.034907 0.000000 0.000000
  5 0.000000 0.398852 -2.474602 -0.034906 0.000000 -0.000000
  6 -7.305893 -1.178743 -15.655434 -0.446508 -0.107704 -0.170692
  7 -0.800576 1.871277 -30.980791 0.997383 0.080851 0.102321
  8 -1.600687 0.941627 -30.349430 -1.005354 -0.161371 0.041451
  9 0.371895 -2.765954 -5.714737 0.000000 -0.000000 0.000000
 10 7.825225 -0.126208 -15.067039 0.044416 -0.006971 -0.038100
 11 0.958468 0.844713 -31.760902 0.105824 -0.019420 0.040556
 12 1.106094 1.047363 -30.157749 0.040613 -0.002921 -0.015692
 13 0.077338 -2.897665 -5.661539 0.000000 -0.000000 0.000000
 14 0.193195 2.524171 6.859505 -0.017453 0.000000 0.000000
 15 -2.631256 0.741770 2.351654 -0.006998 0.010810 -0.766304
 16 3.410806 -0.241324 -95.389229 0.017445 -0.006626 0.385211
 17 1.117596 0.741769 2.351654 -0.004032 -0.004227 0.313091
 18 -2.479014 -0.491131 -95.394859 0.017471 0.007558 -0.441260
 19 0.000000 -0.162359 2.493423 -0.295759 0.000000 0.000001
 20 0.678818 -1.176825 25.929405 0.199368 0.000000 0.000000
 21 -0.347424 16.161654 -4.667946 -0.174533 0.000000 0.000000
 22 0.309244 5.047659 -19.211082 -0.174532 0.000000 -0.000000
 23 -1.151321 0.711008 9.684380 0.000000 -0.000000 0.000000
 24 -7.391829 -0.655592 17.524292 0.490980 -0.144489 0.043030
 25 -13.767694 0.422550 -16.557739 -0.730177 0.331770 0.433314
 26 -7.272579 -4.060490 -10.568672 -0.271619 0.244372 -0.041531
 27 -1.511665 -1.942745 -5.922462 0.052020 0.091792 0.093927
 28 32.119045 5.180988 -75.199112 0.000000 -0.000000 0.000000
 29 -2.876167 -1.871918 -5.201607 0.000000 -0.000000 0.000000
 30 8.560896 -0.468302 17.678787 0.675609 0.463080 -1.349524
 31 12.891039 0.210915 -16.663723 -0.464226 -0.275851 -0.364525
 32 7.260978 -4.039101 -10.705338 -0.088245 -0.076199 -0.105809
 33 1.890648 -1.510424 -4.825783 0.000000 -0.000000 0.000000
 34 0.289237 -0.685595 2.700798 0.000000 -0.000000 0.000000
 35 -2.233558 3.346073 176.413712 0.000000 -0.000000 0.000000
 36 0.000000 0.000000 0.000000 0.000000 -0.000000 0.000000
time 7
  0 0.000000 0.000000 0.000000 0.000000 -0.000000 0.000000
  1 -1.498810 2.154104 -2.821136 0.000000 -0.000000 0.000000
  2 -1.498810 2.154104 -2.821136 0.000000 -0.000000 0.000000
  3 -1.498810 2.154104 -2.821136 0.000000 -0.000000 0.000000
  4 0.000000 -0.622488 88.627968 0.034907 0.000000 0.000000
  5 0.000000 0.398852 -2.474602 -0.034906 0.000000 -0.000000
  6 -7.305893 -1.178743 -15.655434 -0.437505 -0.105423 -0.170208
  7 -0.800576 1.871273 -30.980787 0.887970 0.072977 0.092099
  8 -1.600684 0.941627 -30.349436 -0.854589 -0.137583 0.041402
  9 0.371894 -2.765952 -5.714737 0.000000 -0.000000 0.000000
 10 7.825225 -0.126208 -15.067039 0.091294 -0.009877 -0.044958
 11 0.958469 0.844713 -31.760902 0.114096 -0.012829 0.039543
 12 1.106093 1.047364 -30.157749 0.027325 -0.002852 -0.014067
 13 0.077338 -2.897665 -5.661538 0.000000 -0.000000 0.000000
 14 0.193195 2.524171 6.859505 -0.017453 0.000000 0.000000
 15 -2.631256 0.741770 2.351654 -0.008119 0.011975 -0.861249
 16 3.410806 -0.241323 -95.389252 0.017445 -0.006626 0.385211
 17 1.117596 0.741769 2.351654 -0.004604 -0.005992 0.422973
 18 -2.479015 -0.491131 -95.394859 0.017471 0.007558 -0.441260
 19 0.000000 -0.162359 2.493423 -0.301437 0.000000 0.000001
 20 0.678818 -1.176825 25.929405 0.215100 -0.000000 0.000000
 21 -0.347424 16.161657 -4.667946 -0.174533 0.000000 -0.000000
 22 0.309245 5.047661 -19.211090 -0.174532 0.000000 -0.000000
 23 -1.151321 0.711008 9.684372 0.000000 -0.000000 0.000000
 24 -7.391829 -0.655592 17.524292 0.508304 -0.179628 0.050880
 25 -13.767694 0.422552 -16.557747 -0.709950 0.322294 0.434526
 26 -7.272577 -4.060497 -10.568672 -0.271619 0.244372 -0.041531
 27 -1.511662 -1.942741 -5.922470 0.052020 0.091792 0.093927
 28 32.119053 5.181000 -75.199112 0.000000 -0.000000 0.000000
 29 -2.876163 -1.871914 -5.201618 0.000000 -0.000000 0.000000
 30 8.560896 -0.468302 17.678795 0.675609 0.463079 -1.349524
 31 12.891037 0.210930 -16.663719 -0.509474 -0.238789 -0.339947
 32 7.260978 -4.039099 -10.705338 -0.088245 -0.076199 -0.105809
 33 1.890647 -1.510422 -4.825775 0.000000 -0.000000 0.000000
 34 0.289237 -0.685593 2.700798 0.000000 -0.000000 0.000000
 35 -2.233558 3.346073 176.413712 0.000000 -0.000000 0.000000
 36 0.000000 0.000000 0.000000 0.000000 -0.000000 0.000000
time 8
  0 0.000000 0.000000 0.000000 0.000000 -0.000000 0.000000
  1 -1.498810 2.154104 -2.821136 0.000000 -0.000000 0.000000
  2 -1.498810 2.154104 -2.821136 0.000000 -0.000000 0.000000
  3 -1.498810 2.154104 -2.821136 0.000000 -0.000000 0.000000
  4 0.000000 -0.622488 88.627968 0.034907 0.000000 0.000000
  5 0.000000 0.398852 -2.474602 -0.034906 0.000000 -0.000000
  6 -7.305893 -1.178743 -15.655434 -0.423298 -0.101734 -0.169411
  7 -0.800574 1.871281 -30.980793 0.727916 0.062102 0.076819
  8 -1.600684 0.941622 -30.349430 -0.634046 -0.102785 0.041299
  9 0.371895 -2.765952 -5.714737 0.000000 -0.000000 0.000000
 10 7.825225 -0.126208 -15.067039 0.138714 -0.014127 -0.051775
 11 0.958468 0.844712 -31.760914 0.119456 -0.003105 0.038916
 12 1.106091 1.047365 -30.157755 0.019536 -0.002709 -0.013129
 13 0.077338 -2.897664 -5.661538 0.000000 -0.000000 0.000000
 14 0.193195 2.524171 6.859505 -0.017453 0.000000 0.000000
 15 -2.631256 0.741770 2.351654 -0.009177 0.013074 -0.950870
 16 3.410807 -0.241324 -95.389236 0.017445 -0.006626 0.385211
 17 1.117596 0.741769 2.351654 -0.005143 -0.007659 0.526693
 18 -2.479014 -0.491131 -95.394859 0.017471 0.007558 -0.441260
 19 0.000000 -0.162359 2.493423 -0.305852 0.000000 0.000001
 20 0.678818 -1.176825 25.929398 0.230576 0.000000 0.000000
 21 -0.347424 16.161659 -4.667946 -0.174533 0.000000 0.000000
 22 0.309244 5.047661 -19.211090 -0.174532 0.000000 -0.000000
 23 -1.151320 0.711008 9.684372 0.000000 -0.000000 0.000000
 24 -7.391828 -0.655594 17.524300 0.523893 -0.213496 0.058356
 25 -13.767693 0.422548 -16.557755 -0.677671 0.307172 0.436460
 26 -7.272577 -4.060495 -10.568665 -0.271619 0.244372 -0.041531
 27 -1.511658 -1.942745 -5.922462 0.052020 0.091792 0.093927
 28 32.119049 5.181004 -75.199127 0.000000 -0.000000 0.000000
 29 -2.876163 -1.871918 -5.201611 0.000000 -0.000000 0.000000
 30 8.560896 -0.468302 17.678795 0.675609 0.463080 -1.349524
 31 12.891039 0.210922 -16.663727 -0.553615 -0.201349 -0.315119
 32 7.260977 -4.039098 -10.705330 -0.088245 -0.076199 -0.105809
 33 1.890647 -1.510424 -4.825783 0.000000 -0.000000 0.000000
 34 0.289237 -0.685595 2.700798 0.000000 -0.000000 0.000000
 35 -2.233558 3.346073 176.413712 0.000000 -0.000000 0.000000
 36 0.000000 0.000000 0.000000 0.000000 -0.000000 0.000000
time 9
  0 0.000000 0.000000 0.000000 0.000000 -0.000000 0.000000
  1 -1.498810 2.154104 -2.821136 0.000000 -0.000000 0.000000
  2 -1.498810 2.154104 -2.821136 0.000000 -0.000000 0.000000
  3 -1.498810 2.154104 -2.821136 0.000000 -0.000000 0.000000
  4 0.000000 -0.622488 88.627968 0.034907 0.000000 0.000000
  5 0.000000 0.398852 -2.474602 -0.034906 0.000000 -0.000000
  6 -7.305893 -1.178743 -15.655434 -0.404908 -0.096821 -0.168327
  7 -0.800576 1.871281 -30.980789 0.540372 0.049669 0.058364
  8 -1.600684 0.941619 -30.349438 -0.375623 -0.062010 0.041124
  9 0.371894 -2.765950 -5.714738 0.000000 -0.000000 0.000000
 10 7.825225 -0.126208 -15.067039 0.184092 -0.019108 -0.058213
 11 0.958468 0.844715 -31.760910 0.124664 0.008432 0.038327
 12 1.106091 1.047367 -30.157759 0.013307 -0.002474 -0.012386
 13 0.077338 -2.897665 -5.661540 0.000000 -0.000000 0.000000
 14 0.193195 2.524171 6.859505 -0.017453 0.000000 0.000000
 15 -2.631256 0.741770 2.351654 -0.010110 0.014043 -1.029842
 16 3.410807 -0.241324 -95.389214 0.017445 -0.006626 0.385211
 17 1.117596 0.741769 2.351654 -0.005619 -0.009127 0.618090
 18 -2.479014 -0.491131 -95.394852 0.017471 0.007558 -0.441260
 19 0.000000 -0.162359 2.493423 -0.309151 0.000000 0.000001
 20 0.678818 -1.176825 25.929398 0.245079 -0.000000 0.000000
 21 -0.347424 16.161657 -4.667946 -0.174533 0.000000 0.000000
 22 0.309245 5.047661 -19.211082 -0.174532 0.000000 -0.000000
 23 -1.151320 0.711009 9.684380 0.000000 -0.000000 0.000000
 24 -7.391829 -0.655592 17.524300 0.537464 -0.244737 0.065188
 25 -13.767691 0.422554 -16.557739 -0.635330 0.287335 0.438996
 26 -7.272573 -4.060493 -10.568672 -0.271619 0.244372 -0.041531
 27 -1.511662 -1.942745 -5.922466 0.052020 0.091792 0.093927
 28 32.119064 5.180984 -75.199127 0.000000 -0.000000 0.000000
 29 -2.876163 -1.871918 -5.201614 0.000000 -0.000000 0.000000
 30 8.560896 -0.468302 17.678802 0.675609 0.463079 -1.349524
 31 12.891037 0.210922 -16.663723 -0.595360 -0.164954 -0.290983
 32 7.260979 -4.039100 -10.705330 -0.088245 -0.076199 -0.105809
 33 1.890648 -1.510422 -4.825775 0.000000 -0.000000 0.000000
 34 0.289237 -0.685595 2.700798 0.000000 -0.000000 0.000000
 35 -2.233558 3.346073 176.413712 0.000000 -0.000000 0.000000
 36 0.000000 0.000000 0.000000 0.000000 -0.000000 0.000000
time 10
  0 0.000000 0.000000 0.000000 0.000000 -0.000000 0.000000
  1 -1.498810 2.154104 -2.821136 0.000000 -0.000000 0.000000
  2 -1.498810 2.154104 -2.821136 0.000000 -0.000000 0.000000
  3 -1.498810 2.154104 -2.821136 0.000000 -0.000000 0.000000
  4 0.000000 -0.622488 88.627968 0.034907 0.000000 0.000000
  5 0.000000 0.398852 -2.474602 -0.034906 0.000000 -0.000000
  6 -7.305893 -1.178743 -15.655434 -0.383355 -0.090865 -0.166982
  7 -0.800576 1.871275 -30.980789 0.348488 0.037122 0.038618
  8 -1.600684 0.941618 -30.349442 -0.111219 -0.020291 0.040862
  9 0.371893 -2.765951 -5.714738 0.000000 -0.000000 0.000000
 10 7.825225 -0.126208 -15.067039 0.224844 -0.024204 -0.063938
 11 0.958469 0.844715 -31.760902 0.132476 0.020459 0.037431
 12 1.106091 1.047365 -30.157753 0.004695 -0.002126 -0.011348
 13 0.077338 -2.897663 -5.661538 0.000000 -0.000000 0.000000
 14 0.193195 2.524171 6.859505 -0.017453 0.000000 0.000000
 15 -2.631256 0.741770 2.351654 -0.010854 0.014816 -1.092843
 16 3.410806 -0.241324 -95.389244 0.017445 -0.006626 0.385211
 17 1.117596 0.741769 2.351654 -0.005998 -0.010299 0.691002
 18 -2.479014 -0.491131 -95.394852 0.017471 0.007558 -0.441260
 19 0.000000 -0.162359 2.493423 -0.311482 0.000000 0.000001
 20 0.678818 -1.176828 25.929405 0.257895 0.000000 0.000000
 21 -0.347424 16.161654 -4.667946 -0.174533 0.000000 -0.000000
 22 0.309244 5.047659 -19.211082 -0.174532 0.000000 -0.000000
 23 -1.151321 0.711007 9.684372 0.000000 -0.000000 0.000000
 24 -7.391828 -0.655596 17.524307 0.548731 -0.271995 0.071103
 25 -13.767689 0.422550 -16.557755 -0.584913 0.263715 0.442017
 26 -7.272574 -4.060493 -10.568672 -0.271619 0.244372 -0.041531
 27 -1.511658 -1.942741 -5.922466 0.052020 0.091792 0.093927
 28 32.119064 5.180992 -75.199112 0.000000 -0.000000 0.000000
 29 -2.876163 -1.871918 -5.201607 0.000000 -0.000000 0.000000
 30 8.560896 -0.468306 17.678802 0.675609 0.463079 -1.349524
 31 12.891041 0.210922 -16.663727 -0.633419 -0.131026 -0.268483
 32 7.260974 -4.039096 -10.705330 -0.088245 -0.076199 -0.105809
 33 1.890646 -1.510422 -4.825783 0.000000 -0.000000 0.000000
 34 0.289237 -0.685596 2.700806 0.000000 -0.000000 0.000000
 35 -2.233558 3.346073 176.413712 0.000000 -0.000000 0.000000
 36 0.000000 0.000000 0.000000 0.000000 -0.000000 0.000000
time 11
  0 0.000000 0.000000 0.000000 0.000000 -0.000000 0.000000
  1 -1.498810 2.154104 -2.821136 0.000000 -0.000000 0.000000
  2 -1.498810 2.154104 -2.821136 0.000000 -0.000000 0.000000
  3 -1.498810 2.154104 -2.821136 0.000000 -0.000000 0.000000
  4 0.000000 -0.622488 88.627968 0.034907 0.000000 0.000000
  5 0.000000 0.398852 -2.474602 -0.034906 0.000000 -0.000000
  6 -7.305893 -1.178743 -15.655434 -0.359661 -0.084049 -0.165403
  7 -0.800575 1.871275 -30.980789 0.175413 0.025902 0.019465
  8 -1.600683 0.941620 -30.349434 0.127267 0.017338 0.040495
  9 0.371895 -2.765952 -5.714737 0.000000 -0.000000 0.000000
 10 7.825225 -0.126208 -15.067039 0.258384 -0.028800 -0.068613
 11 0.958469 0.844713 -31.760906 0.145651 0.031653 0.035882
 12 1.106090 1.047363 -30.157749 -0.010239 -0.001646 -0.009523
 13 0.077337 -2.897667 -5.661540 0.000000 -0.000000 0.000000
 14 0.193195 2.524171 6.859505 -0.017453 0.000000 0.000000
 15 -2.631256 0.741770 2.351654 -0.011347 0.015328 -1.134548
 16 3.410806 -0.241323 -95.389229 0.017445 -0.006626 0.385211
 17 1.117596 0.741769 2.351654 -0.006249 -0.011074 0.739268
 18 -2.479015 -0.491132 -95.394844 0.017471 0.007558 -0.441260
 19 0.000000 -0.162359 2.493423 -0.312993 0.000000 0.000001
 20 0.678819 -1.176825 25.929398 0.268309 -0.000000 0.000000
 21 -0.347424 16.161655 -4.667946 -0.174533 0.000000 0.000000
 22 0.309244 5.047665 -19.211105 -0.174532 0.000000 -0.000000
 23 -1.151321 0.711008 9.684372 0.000000 -0.000000 0.000000
 24 -7.391829 -0.655594 17.524307 0.557411 -0.293915 0.075828
 25 -13.767685 0.422550 -16.557739 -0.528408 0.237243 0.445403
 26 -7.272571 -4.060493 -10.568672 -0.271619 0.244372 -0.041531
 27 -1.511660 -1.942741 -5.922470 0.052020 0.091792 0.093927
 28 32.119080 5.181011 -75.199135 0.000000 -0.000000 0.000000
 29 -2.876165 -1.871914 -5.201614 0.000000 -0.000000 0.000000
 30 8.560896 -0.468302 17.678795 0.675609 0.463080 -1.349524
 31 12.891038 0.210915 -16.663719 -0.666502 -0.100986 -0.248562
 32 7.260977 -4.039097 -10.705322 -0.088245 -0.076199 -0.105809
 33 1.890648 -1.510423 -4.825775 0.000000 -0.000000 0.000000
 34 0.289237 -0.685593 2.700798 0.000000 -0.000000 0.000000
 35 -2.233558 3.346073 176.413712 0.000000 -0.000000 0.000000
 36 0.000000 0.000000 0.000000 0.000000 -0.000000 0.000000
time 12
  0 0.000000 0.000000 0.000000 0.000000 -0.000000 0.000000
  1 -1.498810 2.154104 -2.821136 0.000000 -0.000000 0.000000
  2 -1.498810 2.154104 -2.821136 0.000000 -0.000000 0.000000
  3 -1.498810 2.154104 -2.821136 0.000000 -0.000000 0.000000
  4 0.000000 -0.622488 88.627968 0.034907 0.000000 0.000000
  5 0.000000 0.398852 -2.474602 -0.034906 0.000000 -0.000000
  6 -7.305893 -1.178743 -15.655434 -0.334846 -0.076556 -0.163614
  7 -0.800575 1.871279 -30.980789 0.044296 0.017453 0.002787
  8 -1.600686 0.941622 -30.349436 0.307936 0.045845 0.040008
  9 0.371894 -2.765953 -5.714737 0.000000 -0.000000 0.000000
 10 7.825225 -0.126208 -15.067039 0.282128 -0.032282 -0.071901
 11 0.958469 0.844715 -31.760902 0.166947 0.040692 0.033332
 12 1.106091 1.047363 -30.157749 -0.035437 -0.001014 -0.006419
 13 0.077338 -2.897667 -5.661539 0.000000 -0.000000 0.000000
 14 0.193195 2.524171 6.859505 -0.017453 0.000000 0.000000
 15 -2.631256 0.741770 2.351654 -0.011525 0.015513 -1.149632
 16 3.410807 -0.241324 -95.389229 0.017445 -0.006626 0.385211
 17 1.117596 0.741769 2.351654 -0.006340 -0.011354 0.756726
 18 -2.479015 -0.491132 -95.394859 0.017471 0.007558 -0.441260
 19 0.000000 -0.162359 2.493423 -0.313832 0.000000 0.000001
 20 0.678818 -1.176825 25.929405 0.275604 0.000000 0.000000
 21 -0.347424 16.161654 -4.667946 -0.174533 0.000000 -0.000000
 22 0.309244 5.047662 -19.211075 -0.174532 0.000000 -0.000000
 23 -1.151321 0.711008 9.684364 0.000000 -0.000000 0.000000
 24 -7.391829 -0.655592 17.524292 0.563219 -0.309141 0.079093
 25 -13.767689 0.422550 -16.557732 -0.467804 0.208851 0.449034
 26 -7.272575 -4.060495 -10.568672 -0.271619 0.244372 -0.041531
 27 -1.511660 -1.942741 -5.922474 0.052020 0.091792 0.093927
 28 32.119057 5.180971 -75.199127 0.000000 -0.000000 0.000000
 29 -2.876163 -1.871922 -5.201614 0.000000 -0.000000 0.000000
 30 8.560896 -0.468300 17.678795 0.675609 0.463080 -1.349524
 31 12.891041 0.210915 -16.663731 -0.693321 -0.076257 -0.232163
 32 7.260979 -4.039096 -10.705338 -0.088245 -0.076199 -0.105809
 33 1.890649 -1.510422 -4.825775 0.000000 -0.000000 0.000000
 34 0.289237 -0.685595 2.700798 0.000000 -0.000000 0.000000
 35 -2.233558 3.346073 176.413712 0.000000 -0.000000 0.000000
 36 0.000000 0.000000 0.000000 0.000000 -0.000000 0.000000
time 13
  0 0.000000 0.000000 0.000000 0.000000 -0.000000 0.000000
  1 -1.498810 2.154104 -2.821136 0.000000 -0.000000 0.000000
  2 -1.498810 2.154104 -2.821136 0.000000 -0.000000 0.000000
  3 -1.498810 2.154104 -2.821136 0.000000 -0.000000 0.000000
  4 0.000000 -0.622488 88.627968 0.034907 0.000000 0.000000
  5 0.000000 0.398852 -2.474602 -0.034906 0.000000 -0.000000
  6 -7.305893 -1.178743 -15.655434 -0.309932 -0.068569 -0.161643
  7 -0.800576 1.871279 -30.980785 -0.021712 0.013217 -0.009531
  8 -1.600686 0.941626 -30.349434 0.398891 0.060196 0.039384
  9 0.371895 -2.765951 -5.714736 0.000000 -0.000000 0.000000
 10 7.825225 -0.126208 -15.067039 0.293491 -0.034035 -0.073467
 11 0.958469 0.844711 -31.760899 0.199122 0.046253 0.029436
 12 1.106090 1.047365 -30.157745 -0.074840 -0.000210 -0.001544
 13 0.077338 -2.897663 -5.661537 0.000000 -0.000000 0.000000
 14 0.193195 2.524171 6.859505 -0.017453 0.000000 0.000000
 15 -2.631256 0.741770 2.351654 -0.011372 0.015354 -1.136721
 16 3.410808 -0.241323 -95.389221 0.017445 -0.006626 0.385211
 17 1.117596 0.741769 2.351654 -0.006262 -0.011114 0.741783
 18 -2.479015 -0.491131 -95.394844 0.017471 0.007558 -0.441260
 19 0.000000 -0.162359 2.493423 -0.314145 0.000000 0.000001
 20 0.678818 -1.176825 25.929405 0.279067 0.000000 0.000000
 21 -0.347424 16.161655 -4.667938 -0.174533 0.000000 -0.000000
 22 0.309245 5.047662 -19.211090 -0.174532 0.000000 -0.000000
 23 -1.151320 0.711008 9.684372 0.000000 -0.000000 0.000000
 24 -7.391829 -0.655590 17.524292 0.565871 -0.316317 0.080625
 25 -13.767687 0.422550 -16.557747 -0.405087 0.179468 0.452791
 26 -7.272570 -4.060494 -10.568672 -0.271619 0.244372 -0.041531
 27 -1.511658 -1.942741 -5.922474 0.052020 0.091792 0.093927
 28 32.119072 5.180979 -75.199127 0.000000 -0.000000 0.000000
 29 -2.876162 -1.871918 -5.201614 0.000000 -0.000000 0.000000
 30 8.560896 -0.468304 17.678802 0.675609 0.463080 -1.349524
 31 12.891038 0.210922 -16.663712 -0.712584 -0.058262 -0.220230
 32 7.260977 -4.039100 -10.705338 -0.088245 -0.076199 -0.105809
 33 1.890649 -1.510424 -4.825790 0.000000 -0.000000 0.000000
 34 0.289237 -0.685593 2.700806 0.000000 -0.000000 0.000000
 35 -2.233558 3.346073 176.413712 0.000000 -0.000000 0.000000
 36 0.000000 0.000000 0.000000 0.000000 -0.000000 0.000000
time 14
  0 0.000000 0.000000 0.000000 0.000000 -0.000000 0.000000
  1 -1.498810 2.154104 -2.821136 0.000000 -0.000000 0.000000
  2 -1.498810 2.154104 -2.821136 0.000000 -0.000000 0.000000
  3 -1.498810 2.154104 -2.821136 0.000000 -0.000000 0.000000
  4 0.000000 -0.622488 88.627968 0.034907 0.000000 0.000000
  5 0.000000 0.398852 -2.474602 -0.034906 0.000000 -0.000000
  6 -7.305893 -1.178743 -15.655434 -0.285375 -0.059212 -0.159534
  7 -0.800576 1.871283 -30.980789 -0.023385 0.013779 -0.017198
  8 -1.600685 0.941626 -30.349434 0.396309 0.059857 0.038078
  9 0.371893 -2.765949 -5.714736 0.000000 -0.000000 0.000000
 10 7.825225 -0.126208 -15.067039 0.276877 -0.033632 -0.070915
 11 0.958469 0.844713 -31.760895 0.250889 0.048316 0.023315
 12 1.106089 1.047367 -30.157742 -0.143388 0.002414 0.006198
 13 0.077339 -2.897665 -5.661536 0.000000 -0.000000 0.000000
 14 0.193195 2.524171 6.859505 -0.017453 0.000000 0.000000
 15 -2.631256 0.741770 2.351654 -0.010948 0.014913 -1.100778
 16 3.410806 -0.241324 -95.389229 0.017445 -0.006626 0.385211
 17 1.117596 0.741769 2.351654 -0.006046 -0.010446 0.700186
 18 -2.479015 -0.491131 -95.394867 0.017471 0.007558 -0.441260
 19 0.000000 -0.162359 2.493423 -0.313214 0.000000 0.000001
 20 0.678818 -1.176825 25.929398 0.277740 0.000000 0.000000
 21 -0.347424 16.161652 -4.667931 -0.174533 0.000000 -0.000000
 22 0.309245 5.047664 -19.211098 -0.174532 0.000000 -0.000000
 23 -1.151321 0.711008 9.684380 0.000000 -0.000000 0.000000
 24 -7.391829 -0.655594 17.524300 0.564444 -0.313888 0.079869
 25 -13.767691 0.422546 -16.557739 -0.342247 0.150028 0.456557
 26 -7.272573 -4.060493 -10.568680 -0.271619 0.244372 -0.041531
 27 -1.511659 -1.942741 -5.922462 0.052020 0.091792 0.093927
 28 32.119057 5.180984 -75.199120 0.000000 -0.000000 0.000000
 29 -2.876163 -1.871918 -5.201607 0.000000 -0.000000 0.000000
 30 8.560896 -0.468304 17.678795 0.675609 0.463080 -1.349524
 31 12.891041 0.210922 -16.663719 -0.723002 -0.048421 -0.213704
 32 7.260979 -4.039099 -10.705338 -0.088245 -0.076199 -0.105809
 33 1.890648 -1.510424 -4.825775 0.000000 -0.000000 0.000000
 34 0.289237 -0.685596 2.700806 0.000000 -0.000000 0.000000
 35 -2.233558 3.346073 176.413712 0.000000 -0.000000 0.000000
 36 0.000000 0.000000 0.000000 0.000000 -0.000000 0.000000
time 15
  0 0.000000 0.000000 0.000000 0.000000 -0.000000 0.000000
  1 -1.498810 2.154104 -2.821136 0.000000 -0.000000 0.000000
  2 -1.498810 2.154104 -2.821136 0.000000 -0.000000 0.000000
  3 -1.498810 2.154104 -2.821136 0.000000 -0.000000 0.000000
  4 0.000000 -0.622488 88.627968 0.034907 0.000000 0.000000
  5 0.000000 0.398852 -2.474602 -0.034906 0.000000 -0.000000
  6 -7.305893 -1.178743 -15.655434 -0.259949 -0.046427 -0.157313
  7 -0.800575 1.871279 -30.980785 -0.014599 0.017268 -0.023619
  8 -1.600685 0.941623 -30.349430 0.363430 0.054960 0.034901
  9 0.371895 -2.765952 -5.714736 0.000000 -0.000000 0.000000
 10 7.825225 -0.126208 -15.067039 0.204634 -0.031533 -0.059861
 11 0.958467 0.844711 -31.760899 0.333933 0.049770 0.013969
 12 1.106088 1.047359 -30.157745 -0.263553 0.010393 0.017932
 13 0.077338 -2.897665 -5.661537 0.000000 -0.000000 0.000000
 14 0.193195 2.524171 6.859505 -0.017453 0.000000 0.000000
 15 -2.631256 0.741770 2.351654 -0.010301 0.014241 -1.045992
 16 3.410806 -0.241324 -95.389221 0.017445 -0.006626 0.385211
 17 1.117596 0.741769 2.351654 -0.005716 -0.009427 0.636781
 18 -2.479015 -0.491131 -95.394859 0.017471 0.007558 -0.441260
 19 0.000000 -0.162359 2.493423 -0.309078 0.000000 0.000001
 20 0.678819 -1.176828 25.929405 0.271122 -0.000000 0.000000
 21 -0.347424 16.161655 -4.667938 -0.174533 0.000000 -0.000000
 22 0.309244 5.047664 -19.211090 -0.174532 0.000000 -0.000000
 23 -1.151321 0.711008 9.684380 0.000000 -0.000000 0.000000
 24 -7.391828 -0.655594 17.524300 0.557479 -0.301435 0.076201
 25 -13.767689 0.422550 -16.557755 -0.281269 0.121460 0.460210
 26 -7.272573 -4.060492 -10.568680 -0.271619 0.244372 -0.041531
 27 -1.511660 -1.942741 -5.922462 0.052020 0.091792 0.093927
 28 32.119068 5.180984 -75.199135 0.000000 -0.000000 0.000000
 29 -2.876162 -1.871916 -5.201614 0.000000 -0.000000 0.000000
 30 8.560896 -0.468304 17.678795 0.675609 0.463080 -1.349524
 31 12.891041 0.210915 -16.663727 -0.721680 -0.048868 -0.213773
 32 7.260977 -4.039101 -10.705330 -0.088245 -0.076199 -0.105809
 33 1.890648 -1.510425 -4.825775 0.000000 -0.000000 0.000000
 34 0.289237 -0.685595 2.700806 0.000000 -0.000000 0.000000
 35 -2.233558 3.346073 176.413712 0.000000 -0.000000 0.000000
 36 0.000000 0.000000 0.000000 0.000000 -0.000000 0.000000
time 16
  0 0.000000 0.000000 0.000000 0.000000 -0.000000 0.000000
  1 -1.498810 2.154104 -2.821136 0.000000 -0.000000 0.000000
  2 -1.498810 2.154104 -2.821136 0.000000 -0.000000 0.000000
  3 -1.498810 2.154104 -2.821136 0.000000 -0.000000 0.000000
  4 0.000000 -0.622488 88.627968 0.034907 0.000000 0.000000
  5 0.000000 0.398852 -2.474602 -0.034906 0.000000 -0.000000
  6 -7.305893 -1.178743 -15.655434 -0.233143 -0.031515 -0.154909
  7 -0.800575 1.871281 -30.980789 0.000085 0.023029 -0.029084
  8 -1.600684 0.941622 -30.349430 0.310377 0.047044 0.030270
  9 0.371892 -2.765951 -5.714737 0.000000 -0.000000 0.000000
 10 7.825225 -0.126208 -15.067039 0.092837 -0.028284 -0.042755
 11 0.958468 0.844712 -31.760910 0.437364 0.050851 0.002562
 12 1.106091 1.047359 -30.157749 -0.418169 0.022179 0.032207
 13 0.077338 -2.897665 -5.661536 0.000000 -0.000000 0.000000
 14 0.193195 2.524171 6.859505 -0.017453 0.000000 0.000000
 15 -2.631256 0.741770 2.351654 -0.009481 0.013389 -0.976550
 16 3.410807 -0.241324 -95.389229 0.017445 -0.006626 0.385211
 17 1.117596 0.741769 2.351654 -0.005298 -0.008136 0.556414
 18 -2.479015 -0.491131 -95.394859 0.017471 0.007558 -0.441260
 19 0.000000 -0.162359 2.493423 -0.302247 0.000000 0.000001
 20 0.678819 -1.176823 25.929405 0.260193 -0.000000 0.000000
 21 -0.347424 16.161655 -4.667946 -0.174533 0.000000 -0.000000
 22 0.309244 5.047665 -19.211098 -0.174532 0.000000 -0.000000
 23 -1.151321 0.711007 9.684380 0.000000 -0.000000 0.000000
 24 -7.391829 -0.655590 17.524300 0.545726 -0.280529 0.070145
 25 -13.767687 0.422550 -16.557747 -0.224144 0.094697 0.463633
 26 -7.272573 -4.060499 -10.568672 -0.271619 0.244372 -0.041531
 27 -1.511661 -1.942745 -5.922462 0.052020 0.091792 0.093927
 28 32.119061 5.180963 -75.199120 0.000000 -0.000000 0.000000
 29 -2.876164 -1.871918 -5.201607 0.000000 -0.000000 0.000000
 30 8.560897 -0.468302 17.678802 0.675609 0.463080 -1.349524
 31 12.891041 0.210922 -16.663734 -0.698656 -0.064237 -0.222178
 32 7.260981 -4.039099 -10.705338 -0.088245 -0.076199 -0.105809
 33 1.890649 -1.510423 -4.825783 0.000000 -0.000000 0.000000
 34 0.289237 -0.685593 2.700806 0.000000 -0.000000 0.000000
 35 -2.233558 3.346073 176.413712 0.000000 -0.000000 0.000000
 36 0.000000 0.000000 0.000000 0.000000 -0.000000 0.000000
time 17
  0 0.000000 0.000000 0.000000 0.000000 -0.000000 0.000000
  1 -1.498810 2.154104 -2.821136 0.000000 -0.000000 0.000000
  2 -1.498810 2.154104 -2.821136 0.000000 -0.000000 0.000000
  3 -1.498810 2.154104 -2.821136 0.000000 -0.000000 0.000000
  4 0.000000 -0.622488 88.627968 0.034907 0.000000 0.000000
  5 0.000000 0.398852 -2.474602 -0.034906 0.000000 -0.000000
  6 -7.305893 -1.178743 -15.655434 -0.204517 -0.015957 -0.152250
  7 -0.800574 1.871280 -30.980789 0.019445 0.030513 -0.033668
  8 -1.600685 0.941624 -30.349428 0.243476 0.037037 0.024691
  9 0.371893 -2.765951 -5.714736 0.000000 -0.000000 0.000000
 10 7.825225 -0.126208 -15.067039 -0.040170 -0.024419 -0.022404
 11 0.958468 0.844712 -31.760906 0.549184 0.051614 -0.009642
 12 1.106089 1.047367 -30.157745 -0.588083 0.035950 0.047450
 13 0.077337 -2.897664 -5.661536 0.000000 -0.000000 0.000000
 14 0.193195 2.524171 6.859505 -0.017453 0.000000 0.000000
 15 -2.631256 0.741770 2.351654 -0.008537 0.012409 -0.896639
 16 3.410806 -0.241324 -95.389236 0.017445 -0.006626 0.385211
 17 1.117596 0.741769 2.351654 -0.004817 -0.006650 0.463931
 18 -2.479015 -0.491131 -95.394852 0.017471 0.007558 -0.441260
 19 0.000000 -0.162359 2.493423 -0.293373 0.000000 0.000001
 20 0.678819 -1.176825 25.929413 0.245994 -0.000000 0.000000
 21 -0.347424 16.161657 -4.667938 -0.174533 0.000000 -0.000000
 22 0.309245 5.047661 -19.211082 -0.174532 0.000000 -0.000000
 23 -1.151321 0.711008 9.684387 0.000000 -0.000000 0.000000
 24 -7.391828 -0.655596 17.524307 0.530045 -0.252813 0.062276
 25 -13.767684 0.422550 -16.557755 -0.172857 0.070670 0.466706
 26 -7.272572 -4.060496 -10.568672 -0.271619 0.244372 -0.041531
 27 -1.511657 -1.942744 -5.922470 0.052020 0.091792 0.093927
 28 32.119083 5.180975 -75.199142 0.000000 -0.000000 0.000000
 29 -2.876161 -1.871919 -5.201607 0.000000 -0.000000 0.000000
 30 8.560896 -0.468304 17.678802 0.675609 0.463080 -1.349524
 31 12.891041 0.210915 -16.663731 -0.656618 -0.092536 -0.237900
 32 7.260981 -4.039098 -10.705330 -0.088245 -0.076199 -0.105809
 33 1.890648 -1.510422 -4.825783 0.000000 -0.000000 0.000000
 34 0.289237 -0.685595 2.700806 0.000000 -0.000000 0.000000
 35 -2.233558 3.346073 176.413712 0.000000 -0.000000 0.000000
 36 0.000000 0.000000 0.000000 0.000000 -0.000000 0.000000
time 18
  0 0.000000 0.000000 0.000000 0.000000 -0.000000 0.000000
  1 -1.498810 2.154104 -2.821136 0.000000 -0.000000 0.000000
  2 -1.498810 2.154104 -2.821136 0.000000 -0.000000 0.000000
  3 -1.498810 2.154104 -2.821136 0.000000 -0.000000 0.000000
  4 0.000000 -0.622488 88.627968 0.034907 0.000000 0.000000
  5 0.000000 0.398852 -2.474602 -0.034906 0.000000 -0.000000
  6 -7.305893 -1.178743 -15.655434 -0.173628 -0.001232 -0.149260
  7 -0.800575 1.871279 -30.980782 0.042261 0.039173 -0.037440
  8 -1.600685 0.941624 -30.349421 0.169055 0.025869 0.018672
  9 0.371894 -2.765951 -5.714735 0.000000 -0.000000 0.000000
 10 7.825225 -0.126208 -15.067039 -0.176043 -0.020470 -0.001614
 11 0.958469 0.844712 -31.760906 0.657398 0.052112 -0.021376
 12 1.106091 1.047358 -30.157738 -0.754141 0.049883 0.062090
 13 0.077338 -2.897664 -5.661536 0.000000 -0.000000 0.000000
 14 0.193195 2.524171 6.859505 -0.017453 0.000000 0.000000
 15 -2.631256 0.741770 2.351654 -0.007519 0.011351 -0.810447
 16 3.410806 -0.241324 -95.389252 0.017445 -0.006626 0.385211
 17 1.117596 0.741769 2.351654 -0.004298 -0.005048 0.364179
 18 -2.479014 -0.491131 -95.394859 0.017471 0.007558 -0.441260
 19 0.000000 -0.162359 2.493423 -0.283106 0.000000 0.000001
 20 0.678818 -1.176826 25.929405 0.229567 -0.000000 0.000000
 21 -0.347424 16.161655 -4.667946 -0.174533 0.000000 0.000000
 22 0.309244 5.047659 -19.211090 -0.174532 0.000000 -0.000000
 23 -1.151320 0.711008 9.684380 0.000000 -0.000000 0.000000
 24 -7.391829 -0.655594 17.524292 0.511298 -0.219926 0.053172
 25 -13.767690 0.422550 -16.557747 -0.129397 0.050309 0.469310
 26 -7.272572 -4.060497 -10.568672 -0.271619 0.244372 -0.041531
 27 -1.511658 -1.942744 -5.922462 0.052020 0.091792 0.093927
 28 32.119064 5.180963 -75.199127 0.000000 -0.000000 0.000000
 29 -2.876163 -1.871918 -5.201614 0.000000 -0.000000 0.000000
 30 8.560896 -0.468304 17.678795 0.675609 0.463080 -1.349524
 31 12.891041 0.210922 -16.663727 -0.600616 -0.130652 -0.259497
 32 7.260977 -4.039100 -10.705330 -0.088245 -0.076199 -0.105809
 33 1.890648 -1.510425 -4.825783 0.000000 -0.000000 0.000000
 34 0.289237 -0.685595 2.700798 0.000000 -0.000000 0.000000
 35 -2.233558 3.346073 176.413712 0.000000 -0.000000 0.000000
 36 0.000000 0.000000 0.000000 0.000000 -0.000000 0.000000
time 19
  0 0.000000 0.000000 0.000000 0.000000 -0.000000 0.000000
  1 -1.498810 2.154104 -2.821136 0.000000 -0.000000 0.000000
  2 -1.498810 2.154104 -2.821136 0.000000 -0.000000 0.000000
  3 -1.498810 2.154104 -2.821136 0.000000 -0.000000 0.000000
  4 0.000000 -0.622488 88.627968 0.034907 0.000000 0.000000
  5 0.000000 0.398852 -2.474602 -0.034906 0.000000 -0.000000
  6 -7.305893 -1.178743 -15.655434 -0.140034 0.011178 -0.145867
  7 -0.800576 1.871280 -30.980789 0.067314 0.048458 -0.040475
  8 -1.600685 0.941623 -30.349430 0.093441 0.014468 0.012719
  9 0.371894 -2.765951 -5.714737 0.000000 -0.000000 0.000000
 10 7.825225 -0.126208 -15.067039 -0.296438 -0.016972 0.016808
 11 0.958470 0.844711 -31.760910 0.750009 0.052402 -0.031375
 12 1.106091 1.047357 -30.157743 -0.897190 0.062155 0.074555
 13 0.077338 -2.897663 -5.661536 0.000000 -0.000000 0.000000
 14 0.193195 2.524171 6.859505 -0.017453 0.000000 0.000000
 15 -2.631256 0.741770 2.351654 -0.006477 0.010268 -0.722161
 16 3.410806 -0.241324 -95.389244 0.017445 -0.006626 0.385211
 17 1.117596 0.741769 2.351654 -0.003767 -0.003406 0.262003
 18 -2.479014 -0.491131 -95.394852 0.017471 0.007558 -0.441260
 19 0.000000 -0.162359 2.493423 -0.272096 0.000000 0.000001
 20 0.678819 -1.176825 25.929398 0.211951 0.000000 0.000000
 21 -0.347424 16.161654 -4.667938 -0.174533 0.000000 0.000000
 22 0.309244 5.047661 -19.211082 -0.174532 0.000000 -0.000000
 23 -1.151321 0.711008 9.684387 0.000000 -0.000000 0.000000
 24 -7.391829 -0.655594 17.524300 0.490346 -0.183512 0.043411
 25 -13.767687 0.422552 -16.557747 -0.095753 0.034547 0.471325
 26 -7.272575 -4.060497 -10.568680 -0.271619 0.244372 -0.041531
 27 -1.511658 -1.942743 -5.922470 0.052020 0.091792 0.093927
 28 32.119064 5.180967 -75.199135 0.000000 -0.000000 0.000000
 29 -2.876160 -1.871916 -5.201614 0.000000 -0.000000 0.000000
 30 8.560897 -0.468304 17.678795 0.675609 0.463080 -1.349524
 31 12.891040 0.210922 -16.663715 -0.535698 -0.175469 -0.285524
 32 7.260981 -4.039102 -10.705330 -0.088245 -0.076199 -0.105809
 33 1.890649 -1.510425 -4.825775 0.000000 -0.000000 0.000000
 34 0.289237 -0.685595 2.700798 0.000000 -0.000000 0.000000
 35 -2.233558 3.346073 176.413712 0.000000 -0.000000 0.000000
 36 0.000000 0.000000 0.000000 0.000000 -0.000000 0.000000
time 20
  0 0.000000 0.000000 0.000000 0.000000 -0.000000 0.000000
  1 -1.498810 2.154104 -2.821136 0.000000 -0.000000 0.000000
  2 -1.498810 2.154104 -2.821136 0.000000 -0.000000 0.000000
  3 -1.498810 2.154104 -2.821136 0.000000 -0.000000 0.000000
  4 0.000000 -0.622488 88.627968 0.034907 0.000000 0.000000
  5 0.000000 0.398852 -2.474602 -0.034906 0.000000 -0.000000
  6 -7.305893 -1.178743 -15.655434 -0.103293 0.019795 -0.141996
  7 -0.800574 1.871280 -30.980793 0.093381 0.057820 -0.042844
  8 -1.600684 0.941623 -30.349434 0.022961 0.003763 0.007338
  9 0.371894 -2.765951 -5.714737 0.000000 -0.000000 0.000000
 10 7.825225 -0.126208 -15.067039 -0.383012 -0.014456 0.030054
 11 0.958470 0.844713 -31.760914 0.815020 0.052536 -0.038371
 12 1.106091 1.047359 -30.157745 -0.998075 0.070944 0.083273
 13 0.077338 -2.897664 -5.661537 0.000000 -0.000000 0.000000
 14 0.193195 2.524171 6.859505 -0.017453 0.000000 0.000000
 15 -2.631256 0.741770 2.351654 -0.005459 0.009211 -0.635969
 16 3.410806 -0.241324 -95.389229 0.017445 -0.006626 0.385211
 17 1.117596 0.741769 2.351654 -0.003248 -0.001804 0.162251
 18 -2.479014 -0.491131 -95.394859 0.017471 0.007558 -0.441260
 19 0.000000 -0.162359 2.493423 -0.260995 0.000000 0.000001
 20 0.678818 -1.176825 25.929405 0.194190 -0.000000 0.000000
 21 -0.347424 16.161655 -4.667938 -0.174533 0.000000 0.000000
 22 0.309244 5.047661 -19.211090 -0.174532 0.000000 -0.000000
 23 -1.151320 0.711008 9.684380 0.000000 -0.000000 0.000000
 24 -7.391829 -0.655592 17.524300 0.468050 -0.145211 0.033568
 25 -13.767685 0.422554 -16.557739 -0.073910 0.024314 0.472634
 26 -7.272572 -4.060495 -10.568672 -0.271619 0.244372 -0.041531
 27 -1.511658 -1.942743 -5.922470 0.052020 0.091792 0.093927
 28 32.119057 5.180967 -75.199112 0.000000 -0.000000 0.000000
 29 -2.876162 -1.871916 -5.201614 0.000000 -0.000000 0.000000
 30 8.560896 -0.468304 17.678802 0.675609 0.463080 -1.349524
 31 12.891039 0.210922 -16.663731 -0.466916 -0.223872 -0.314540
 32 7.260982 -4.039101 -10.705330 -0.088245 -0.076199 -0.105809
 33 1.890647 -1.510423 -4.825775 0.000000 -0.000000 0.000000
 34 0.289237 -0.685595 2.700806 0.000000 -0.000000 0.000000
 35 -2.233558 3.346073 176.413712 0.000000 -0.000000 0.000000
 36 0.000000 0.000000 0.000000 0.000000 -0.000000 0.000000
time 21
  0 0.000000 0.000000 0.000000 0.000000 -0.000000 0.000000
  1 -1.498810 2.154104 -2.821136 0.000000 -0.000000 0.000000
  2 -1.498810 2.154104 -2.821136 0.000000 -0.000000 0.000000
  3 -1.498810 2.154104 -2.821136 0.000000 -0.000000 0.000000
  4 0.000000 -0.622488 88.627968 0.034907 0.000000 0.000000
  5 0.000000 0.398852 -2.474602 -0.034906 0.000000 -0.000000
  6 -7.305893 -1.178743 -15.655434 -0.062964 0.023137 -0.137573
  7 -0.800575 1.871281 -30.980785 0.119244 0.066711 -0.044620
  8 -1.600686 0.941625 -30.349430 -0.036057 -0.005317 0.003036
  9 0.371894 -2.765951 -5.714737 0.000000 -0.000000 0.000000
 10 7.825225 -0.126208 -15.067039 -0.417422 -0.013456 0.035319
 11 0.958469 0.844715 -31.760906 0.840435 0.052569 -0.041101
 12 1.106092 1.047354 -30.157740 -1.037642 0.074428 0.086672
 13 0.077338 -2.897662 -5.661537 0.000000 -0.000000 0.000000
 14 0.193195 2.524171 6.859505 -0.017453 0.000000 0.000000
 15 -2.631256 0.741770 2.351654 -0.004515 0.008230 -0.556058
 16 3.410806 -0.241324 -95.389236 0.017445 -0.006626 0.385211
 17 1.117596 0.741769 2.351654 -0.002767 -0.000318 0.069768
 18 -2.479014 -0.491131 -95.394867 0.017471 0.007558 -0.441260
 19 0.000000 -0.162359 2.493423 -0.250453 0.000000 0.000001
 20 0.678818 -1.176823 25.929398 0.177323 0.000000 0.000000
 21 -0.347424 16.161654 -4.667946 -0.174533 0.000000 0.000000
 22 0.309245 5.047661 -19.211090 -0.174532 0.000000 -0.000000
 23 -1.151321 0.711009 9.684372 0.000000 -0.000000 0.000000
 24 -7.391829 -0.655594 17.524300 0.445270 -0.106665 0.024221
 25 -13.767688 0.422548 -16.557739 -0.065859 0.020542 0.473116
 26 -7.272574 -4.060495 -10.568680 -0.271619 0.244372 -0.041531
 27 -1.511662 -1.942743 -5.922470 0.052020 0.091792 0.093927
 28 32.119057 5.180972 -75.199120 0.000000 -0.000000 0.000000
 29 -2.876163 -1.871917 -5.201614 0.000000 -0.000000 0.000000
 30 8.560896 -0.468300 17.678795 0.675609 0.463080 -1.349524
 31 12.891039 0.210915 -16.663727 -0.399316 -0.272746 -0.345099
 32 7.260977 -4.039103 -10.705330 -0.088245 -0.076199 -0.105809
 33 1.890647 -1.510424 -4.825783 0.000000 -0.000000 0.000000
 34 0.289237 -0.685595 2.700806 0.000000 -0.000000 0.000000
 35 -2.233558 3.346073 176.413712 0.000000 -0.000000 0.000000
 36 0.000000 0.000000 0.000000 0.000000 -0.000000 0.000000
time 22
  0 0.000000 0.000000 0.000000 0.000000 -0.000000 0.000000
  1 -1.498810 2.154104 -2.821136 0.000000 -0.000000 0.000000
  2 -1.498810 2.154104 -2.821136 0.000000 -0.000000 0.000000
  3 -1.498810 2.154104 -2.821136 0.000000 -0.000000 0.000000
  4 0.000000 -0.622488 88.627968 0.034907 0.000000 0.000000
  5 0.000000 0.398852 -2.474602 -0.034906 0.000000 -0.000000
  6 -7.305893 -1.178743 -15.655434 0.000055 0.019937 -0.130019
  7 -0.800574 1.871280 -30.980789 0.143682 0.074582 -0.045876
  8 -1.600683 0.941621 -30.349434 -0.087188 -0.013580 0.000183
  9 0.371895 -2.765951 -5.714738 0.000000 -0.000000 0.000000
 10 7.825225 -0.126208 -15.067039 -0.395749 -0.021179 0.031926
 11 0.958470 0.844709 -31.760910 0.712557 0.047284 -0.026527
 12 1.106091 1.047362 -30.157745 -0.840995 0.062939 0.066972
 13 0.077338 -2.897663 -5.661537 0.000000 -0.000000 0.000000
 14 0.193195 2.524171 6.859505 -0.017453 0.000000 0.000000
 15 -2.631256 0.741770 2.351654 -0.003695 0.007378 -0.486615
 16 3.410806 -0.241324 -95.389214 0.017445 -0.006626 0.385211
 17 1.117596 0.741769 2.351654 -0.002349 0.000974 -0.010599
 18 -2.479014 -0.491130 -95.394859 0.017471 0.007558 -0.441260
 19 0.000000 -0.162359 2.493423 -0.241122 0.000000 0.000001
 20 0.678818 -1.176825 25.929413 0.162392 0.000000 0.000000
 21 -0.347424 16.161652 -4.667938 -0.174533 0.000000 -0.000000
 22 0.309244 5.047659 -19.211082 -0.174532 0.000000 -0.000000
 23 -1.151320 0.711008 9.684372 0.000000 -0.000000 0.000000
 24 -7.391829 -0.655592 17.524300 0.422869 -0.069517 0.015947
 25 -13.767690 0.422554 -16.557739 -0.151678 0.049266 0.470642
 26 -7.272571 -4.060494 -10.568672 -0.271619 0.244372 -0.041531
 27 -1.511662 -1.942743 -5.922462 0.052020 0.091792 0.093927
 28 32.119061 5.180961 -75.199112 0.000000 -0.000000 0.000000
 29 -2.876163 -1.871917 -5.201614 0.000000 -0.000000 0.000000
 30 8.560896 -0.468304 17.678802 0.675609 0.463079 -1.349524
 31 12.891037 0.210922 -16.663719 -0.337949 -0.318976 -0.375760
 32 7.260979 -4.039104 -10.705330 -0.088245 -0.076199 -0.105809
 33 1.890648 -1.510425 -4.825775 0.000000 -0.000000 0.000000
 34 0.289237 -0.685593 2.700806 0.000000 -0.000000 0.000000
 35 -2.233558 3.346073 176.413712 0.000000 -0.000000 0.000000
 36 0.000000 0.000000 0.000000 0.000000 -0.000000 0.000000
time 23
  0 0.000000 0.000000 0.000000 0.000000 -0.000000 0.000000
  1 -1.498810 2.154104 -2.821136 0.000000 -0.000000 0.000000
  2 -1.498810 2.154104 -2.821136 0.000000 -0.000000 0.000000
  3 -1.498810 2.154104 -2.821136 0.000000 -0.000000 0.000000
  4 0.000000 -0.622488 88.627968 0.034907 0.000000 0.000000
  5 0.000000 0.398852 -2.474602 -0.034906 0.000000 -0.000000
  6 -7.305893 -1.178743 -15.655434 0.085764 0.012563 -0.119270
  7 -0.800575 1.871280 -30.980789 0.165474 0.080883 -0.046683
  8 -1.600684 0.941625 -30.349432 -0.134647 -0.021678 -0.001426
  9 0.371893 -2.765952 -5.714737 0.000000 -0.000000 0.000000
 10 7.825225 -0.126208 -15.067039 -0.344912 -0.039313 0.023966
 11 0.958470 0.844707 -31.760902 0.418191 0.035121 0.007019
 12 1.106091 1.047368 -30.157742 -0.388323 0.036490 0.021624
 13 0.077337 -2.897666 -5.661537 0.000000 -0.000000 0.000000
 14 0.193195 2.524171 6.859505 -0.017453 0.000000 0.000000
 15 -2.631256 0.741770 2.351654 -0.003048 0.006706 -0.431829
 16 3.410805 -0.241324 -95.389252 0.017445 -0.006626 0.385211
 17 1.117596 0.741769 2.351654 -0.002019 0.001992 -0.074004
 18 -2.479015 -0.491131 -95.394852 0.017471 0.007558 -0.441260
 19 0.000000 -0.162359 2.493423 -0.233650 0.000000 0.000001
 20 0.678819 -1.176828 25.929398 0.150438 0.000000 0.000000
 21 -0.347424 16.161657 -4.667953 -0.174533 0.000000 0.000000
 22 0.309245 5.047661 -19.211082 -0.174532 0.000000 -0.000000
 23 -1.151320 0.711008 9.684372 0.000000 -0.000000 0.000000
 24 -7.391828 -0.655594 17.524292 0.401708 -0.035407 0.009322
 25 -13.767686 0.422554 -16.557747 -0.349209 0.115384 0.464946
 26 -7.272571 -4.060493 -10.568665 -0.271619 0.244372 -0.041531
 27 -1.511658 -1.942741 -5.922470 0.052020 0.091792 0.093927
 28 32.119053 5.180990 -75.199120 0.000000 -0.000000 0.000000
 29 -2.876160 -1.871916 -5.201618 0.000000 -0.000000 0.000000
 30 8.560896 -0.468304 17.678787 0.675609 0.463080 -1.349524
 31 12.891037 0.210922 -16.663719 -0.287864 -0.359446 -0.405078
 32 7.260980 -4.039104 -10.705330 -0.088245 -0.076199 -0.105809
 33 1.890648 -1.510424 -4.825783 0.000000 -0.000000 0.000000
 34 0.289237 -0.685595 2.700798 0.000000 -0.000000 0.000000
 35 -2.233558 3.346073 176.413712 0.000000 -0.000000 0.000000
 36 0.000000 0.000000 0.000000 0.000000 -0.000000 0.000000
time 24
  0 0.000000 0.000000 0.000000 0.000000 -0.000000 0.000000
  1 -1.498810 2.154104 -2.821136 0.000000 -0.000000 0.000000
  2 -1.498810 2.154104 -2.821136 0.000000 -0.000000 0.000000
  3 -1.498810 2.154104 -2.821136 0.000000 -0.000000 0.000000
  4 0.000000 -0.622488 88.627968 0.034907 0.000000 0.000000
  5 0.000000 0.398852 -2.474602 -0.034906 0.000000 -0.000000
  6 -7.305893 -1.178743 -15.655434 0.161305 0.005126 -0.109648
  7 -0.800575 1.871282 -30.980793 0.183400 0.085066 -0.047114
  8 -1.600684 0.941624 -30.349438 -0.171114 -0.028098 -0.002152
  9 0.371893 -2.765953 -5.714738 0.000000 -0.000000 0.000000
 10 7.825225 -0.126208 -15.067039 -0.291402 -0.058515 0.015588
 11 0.958469 0.844709 -31.760902 0.121262 0.022852 0.040857
 12 1.106091 1.047367 -30.157753 0.068290 0.009811 -0.024119
 13 0.077337 -2.897665 -5.661538 0.000000 -0.000000 0.000000
 14 0.193195 2.524171 6.859505 -0.017453 0.000000 0.000000
 15 -2.631256 0.741770 2.351654 -0.002623 0.006265 -0.395887
 16 3.410805 -0.241323 -95.389236 0.017445 -0.006626 0.385211
 17 1.117596 0.741769 2.351654 -0.001802 0.002661 -0.115601
 18 -2.479015 -0.491131 -95.394867 0.017471 0.007558 -0.441260
 19 0.000000 -0.162359 2.493423 -0.228690 0.000000 0.000001
 20 0.678819 -1.176826 25.929413 0.142502 -0.000000 0.000000
 21 -0.347424 16.161654 -4.667938 -0.174533 0.000000 -0.000000
 22 0.309245 5.047659 -19.211082 -0.174532 0.000000 -0.000000
 23 -1.151320 0.711008 9.684372 0.000000 -0.000000 0.000000
 24 -7.391829 -0.655594 17.524300 0.382646 -0.005977 0.004924
 25 -13.767687 0.422552 -16.557739 -0.548459 0.182076 0.459201
 26 -7.272573 -4.060493 -10.568672 -0.271619 0.244372 -0.041531
 27 -1.511658 -1.942741 -5.922466 0.052020 0.091792 0.093927
 28 32.119053 5.180983 -75.199104 0.000000 -0.000000 0.000000
 29 -2.876163 -1.871918 -5.201614 0.000000 -0.000000 0.000000
 30 8.560896 -0.468304 17.678802 0.675609 0.463080 -1.349524
 31 12.891041 0.210915 -16.663734 -0.254110 -0.391041 -0.431611
 32 7.260975 -4.039103 -10.705322 -0.088245 -0.076199 -0.105809
 33 1.890646 -1.510426 -4.825783 0.000000 -0.000000 0.000000
 34 0.289237 -0.685596 2.700813 0.000000 -0.000000 0.000000
 35 -2.233558 3.346073 176.413712 0.000000 -0.000000 0.000000
 36 0.000000 0.000000 0.000000 0.000000 -0.000000 0.000000
time 25
  0 0.000000 0.000000 0.000000 0.000000 -0.000000 0.000000
  1 -1.498810 2.154104 -2.821136 0.000000 -0.000000 0.000000
  2 -1.498810 2.154104 -2.821136 0.000000 -0.000000 0.000000
  3 -1.498810 2.154104 -2.821136 0.000000 -0.000000 0.000000
  4 0.000000 -0.622488 88.627968 0.034907 0.000000 0.000000
  5 0.000000 0.398852 -2.474602 -0.034906 0.000000 -0.000000
  6 -7.305893 -1.178743 -15.655434 0.193792 0.001734 -0.105480
  7 -0.800575 1.871277 -30.980789 0.196239 0.086583 -0.047242
  8 -1.600686 0.941618 -30.349430 -0.189260 -0.031322 -0.002357
  9 0.371895 -2.765949 -5.714736 0.000000 -0.000000 0.000000
 10 7.825225 -0.126208 -15.067039 -0.261702 -0.069433 0.010939
 11 0.958467 0.844713 -31.760910 -0.014172 0.017255 0.056291
 12 1.106091 1.047367 -30.157742 0.276557 -0.002357 -0.044983
 13 0.077338 -2.897666 -5.661538 0.000000 -0.000000 0.000000
 14 0.193195 2.524171 6.859505 -0.017453 0.000000 0.000000
 15 -2.631256 0.741770 2.351654 -0.002471 0.006107 -0.382975
 16 3.410806 -0.241324 -95.389236 0.017445 -0.006626 0.385211
 17 1.117596 0.741769 2.351654 -0.001725 0.002901 -0.130544
 18 -2.479014 -0.491130 -95.394859 0.017471 0.007558 -0.441260
 19 0.000000 -0.162359 2.493423 -0.226892 0.000000 0.000001
 20 0.678818 -1.176824 25.929405 0.139626 0.000000 0.000000
 21 -0.347424 16.161652 -4.667938 -0.174533 0.000000 0.000000
 22 0.309245 5.047661 -19.211082 -0.174532 0.000000 -0.000000
 23 -1.151321 0.711008 9.684380 0.000000 -0.000000 0.000000
 24 -7.391829 -0.655593 17.524300 0.366547 0.017132 0.003330
 25 -13.767688 0.422550 -16.557739 -0.639340 0.212496 0.456580
 26 -7.272572 -4.060497 -10.568672 -0.271619 0.244372 -0.041531
 27 -1.511658 -1.942745 -5.922462 0.052020 0.091792 0.093927
 28 32.119057 5.180996 -75.199112 0.000000 -0.000000 0.000000
 29 -2.876160 -1.871922 -5.201611 0.000000 -0.000000 0.000000
 30 8.560896 -0.468303 17.678802 0.675609 0.463079 -1.349524
 31 12.891041 0.210922 -16.663731 -0.241737 -0.410647 -0.453915
 32 7.260979 -4.039103 -10.705338 -0.088245 -0.076199 -0.105809
 33 1.890648 -1.510426 -4.825783 0.000000 -0.000000 0.000000
 34 0.289237 -0.685594 2.700806 0.000000 -0.000000 0.000000
 35 -2.233558 3.346073 176.413712 0.000000 -0.000000 0.000000
 36 0.000000 0.000000 0.000000 0.000000 -0.000000 0.000000
end
