version 1
nodes
  0 "bone_27"  -1
  1 "bone_29"   0
  2 "bone_30"   1
  3 "bone_26"   0
  4 "bone_3"   3
  5 "bone_28"   3
  6 "bone_7"   5
  7 "bone_10"   5
  8 "bone_11"   5
  9 "bone_12"   5
 10 "bone_13"   5
 11 "bone_0"   3
 12 "bone_14"  11
 13 "bone_1"  12
 14 "bone_5"  13
 15 "bons_041"  14
 16 "bons_40"  15
 17 "bone_23"   3
 18 "bone_24"  17
 19 "bone_2"  18
 20 "bone_19"  19
 21 "bone_20"   3
 22 "bone_34"   0
 23 "bone_21"  -1
end
skeleton
time 0
  0 4.103848 9.021107 140.955063 0.000000 -0.000000 0.000000
  1 -0.186268 0.167365 -1.425583 -0.104720 -0.000000 0.000000
  2 0.923380 -2.004174 -52.426407 0.209440 0.000000 0.000000
  3 0.209927 0.167365 2.417709 0.087267 0.000000 0.000000
  4 -0.585070 71.233528 -54.342323 0.087266 0.000000 -0.000000
  5 -0.737603 -0.548840 40.203659 -0.069813 0.000000 0.000000
  6 2.553308 7.297700 96.216110 0.000000 -0.000000 0.000000
  7 25.337772 -9.646729 2.086899 -0.000011 -0.139632 -0.000607
  8 -23.810328 -7.093719 2.086914 -0.226045 0.064723 0.026189
  9 -7.352506 52.005482 -48.397385 0.261799 0.000000 -0.000000
 10 -0.684172 -0.276031 30.967361 0.000000 -0.000000 0.000000
 11 -13.534456 -1.160923 22.015198 3.019416 0.000000 0.000000
 12 -20.972828 -0.005867 -27.595062 0.000000 0.209439 -0.000000
 13 -18.070221 -6.045794 -20.586182 2.577425 0.599609 -0.374444
 14 5.932716 -5.752594 0.181641 -1.147836 0.866904 -0.065273
 15 0.492661 -33.874756 19.443890 0.000000 -0.000000 -0.000000
 16 0.000019 -0.000015 -0.000011 -0.000000 0.000000 -0.000000
 17 12.176292 -0.829269 23.085022 -0.330962 0.156863 0.008289
 18 23.438757 1.362869 -28.210815 0.622482 0.147093 -0.046223
 19 17.520046 -4.855549 -21.387657 -0.559663 -0.318451 0.327741
 20 6.597046 5.855780 -9.931351 0.000000 -0.000000 0.000000
 21 -0.072890 -1.214048 9.388031 0.000000 -0.000000 0.000000
 22 0.000010 -5.381660 -154.110336 -0.034538 -0.005058 -0.145357
 23 4.103848 8.412071 291.691650 0.000000 -0.000000 0.000000
time 1
  0 4.103848 9.021107 139.919479 0.000000 -0.000000 0.000000
  1 -0.186268 0.167365 -1.425583 -0.122571 0.000000 0.000000
  2 0.923380 -2.004174 -52.426407 0.240680 -0.000000 0.000000
  3 0.209927 0.167365 2.417709 0.095555 0.000000 0.000000
  4 -0.585070 71.233521 -54.342323 0.087266 0.000000 0.000000
  5 -0.737603 -0.548841 40.203659 -0.069813 0.000000 -0.000000
  6 2.553308 7.297703 96.216125 0.000000 -0.000000 0.000000
  7 25.337772 -9.646731 2.086899 -0.000011 -0.139632 -0.000607
  8 -23.810328 -7.093719 2.086899 -0.226045 0.064723 0.026189
  9 -7.352507 52.005489 -48.397400 0.249686 0.000000 0.000000
 10 -0.684172 -0.276031 30.967377 0.000000 -0.000000 0.000000
 11 -13.534456 -1.160923 22.015198 3.019416 0.000000 0.000000
 12 -20.972828 -0.005867 -27.595078 -0.000000 0.209439 0.000000
 13 -18.070223 -6.045795 -20.586182 2.577424 0.599609 -0.374444
 14 6.322525 -5.756149 0.678268 -1.147492 0.893170 -0.062408
 15 0.492653 -33.874756 19.443897 0.000000 0.000000 -0.000000
 16 0.000019 0.000000 -0.000010 0.000000 -0.000000 0.000000
 17 12.176292 -0.829269 23.085022 -0.330962 0.156863 0.008289
 18 23.438757 1.362867 -28.210815 0.622482 0.147093 -0.046223
 19 17.520039 -4.855545 -21.387650 -0.559663 -0.318451 0.327741
 20 6.597042 5.855780 -9.931335 0.000000 -0.000000 0.000000
 21 -0.072890 -1.214048 9.388046 0.000000 -0.000000 0.000000
 22 0.000010 -5.381660 -154.110336 -0.034538 -0.005058 -0.145357
 23 4.103848 8.412071 291.691650 0.000000 -0.000000 0.000000
time 2
  0 4.103848 9.021107 136.906845 0.000000 -0.000000 0.000000
  1 -0.186268 0.167365 -1.425583 -0.172092 0.000000 0.000000
  2 0.923381 -2.004174 -52.426399 0.327342 -0.000000 0.000000
  3 0.209927 0.167365 2.417709 0.118547 0.000000 0.000000
  4 -0.585070 71.233528 -54.342308 0.087266 0.000000 0.000000
  5 -0.737603 -0.548838 40.203690 -0.069813 0.000000 -0.000000
  6 2.553308 7.297701 96.216110 0.000000 -0.000000 0.000000
  7 25.337772 -9.646730 2.086929 -0.000011 -0.139632 -0.000607
  8 -23.810328 -7.093719 2.086914 -0.226045 0.064723 0.026189
  9 -7.352506 52.005478 -48.397385 0.216082 -0.000000 0.000000
 10 -0.684172 -0.276030 30.967407 0.000000 -0.000000 0.000000
 11 -13.534456 -1.160921 22.015198 3.019416 0.000000 0.000000
 12 -20.972832 -0.005867 -27.595078 0.000000 0.209439 0.000000
 13 -18.070221 -6.045794 -20.586182 2.577424 0.599609 -0.374444
 14 7.434013 -5.769096 2.058853 -1.146538 0.966125 -0.054458
 15 0.492672 -33.874756 19.443897 0.000000 -0.000000 -0.000000
 16 0.000015 -0.000015 -0.000011 -0.000000 0.000000 -0.000000
 17 12.176292 -0.829269 23.085022 -0.330962 0.156863 0.008289
 18 23.438759 1.362869 -28.210815 0.622483 0.147093 -0.046223
 19 17.520042 -4.855545 -21.387657 -0.559663 -0.318451 0.327741
 20 6.597046 5.855782 -9.931335 0.000000 -0.000000 0.000000
 21 -0.072891 -1.214050 9.388031 0.000000 -0.000000 0.000000
 22 0.000010 -5.381660 -154.110336 -0.034538 -0.005058 -0.145357
 23 4.103848 8.412071 291.691650 0.000000 -0.000000 0.000000
time 3
  0 4.103848 9.021107 132.058411 0.000000 -0.000000 0.000000
  1 -0.186268 0.167365 -1.425583 -0.247233 0.000000 0.000000
  2 0.923380 -2.004173 -52.426399 0.458838 -0.000000 0.000000
  3 0.209927 0.167365 2.417709 0.153433 0.000000 -0.000000
  4 -0.585070 71.233536 -54.342323 0.087266 0.000000 0.000000
  5 -0.737603 -0.548840 40.203659 -0.069813 0.000000 0.000000
  6 2.553308 7.297699 96.216095 0.000000 -0.000000 0.000000
  7 25.337772 -9.646730 2.086899 -0.000011 -0.139632 -0.000607
  8 -23.810329 -7.093718 2.086914 -0.226045 0.064723 0.026189
  9 -7.352507 52.005482 -48.397400 0.165094 -0.000000 0.000000
 10 -0.684172 -0.276030 30.967377 0.000000 -0.000000 0.000000
 11 -13.534456 -1.160923 22.015213 3.019416 -0.000000 0.000000
 12 -20.972828 -0.005867 -27.595062 0.000000 0.209439 0.000000
 13 -18.070219 -6.045794 -20.586166 2.577424 0.599609 -0.374444
 14 9.180145 -5.794884 4.159393 -1.145091 1.077003 -0.042395
 15 0.492691 -33.874771 19.443907 0.000000 0.000000 0.000000
 16 0.000023 -0.000015 -0.000010 -0.000000 0.000000 0.000000
 17 12.176292 -0.829269 23.085022 -0.330962 0.156863 0.008289
 18 23.438761 1.362871 -28.210823 0.622482 0.147093 -0.046223
 19 17.520037 -4.855545 -21.387650 -0.559663 -0.318451 0.327741
 20 6.597042 5.855780 -9.931335 0.000000 -0.000000 0.000000
 21 -0.072890 -1.214048 9.388031 0.000000 -0.000000 0.000000
 22 0.000010 -5.381660 -154.110336 -0.034538 -0.005058 -0.145357
 23 4.103848 8.412071 291.691650 0.000000 -0.000000 0.000000
time 4
  0 4.103848 9.021107 125.515373 0.000000 -0.000000 0.000000
  1 -0.186268 0.167365 -1.425583 -0.341942 0.000000 0.000000
  2 0.923381 -2.004169 -52.426407 0.624579 -0.000000 0.000000
  3 0.209927 0.167365 2.417709 0.197406 0.000000 0.000000
  4 -0.585070 71.233543 -54.342316 0.087266 0.000000 -0.000000
  5 -0.737603 -0.548836 40.203674 -0.069813 0.000000 0.000000
  6 2.553308 7.297699 96.216125 0.000000 -0.000000 0.000000
  7 25.337772 -9.646730 2.086914 -0.000011 -0.139632 -0.000607
  8 -23.810328 -7.093721 2.086914 -0.226045 0.064723 0.026189
  9 -7.352506 52.005478 -48.397385 0.100827 0.000000 0.000000
 10 -0.684172 -0.276031 30.967392 0.000000 -0.000000 0.000000
 11 -13.534456 -1.160919 22.015198 3.019416 0.000000 0.000000
 12 -20.972832 -0.005867 -27.595078 -0.000000 0.209439 -0.000000
 13 -18.070223 -6.045795 -20.586182 2.577424 0.599609 -0.374444
 14 11.473907 -5.836960 6.815826 -1.143267 1.217041 -0.027192
 15 0.492706 -33.874771 19.443924 0.000000 -0.000000 -0.000000
 16 0.000015 -0.000015 -0.000011 -0.000000 0.000000 -0.000000
 17 12.176292 -0.829269 23.085022 -0.330962 0.156863 0.008289
 18 23.438765 1.362868 -28.210823 0.622482 0.147093 -0.046223
 19 17.520037 -4.855553 -21.387657 -0.559663 -0.318451 0.327741
 20 6.597050 5.855781 -9.931343 0.000000 -0.000000 0.000000
 21 -0.072890 -1.214046 9.388031 0.000000 -0.000000 0.000000
 22 0.000010 -5.381660 -154.110336 -0.034538 -0.005058 -0.145357
 23 4.103848 8.412071 291.691650 0.000000 -0.000000 0.000000
time 5
  0 4.103848 9.021107 117.418945 0.000000 -0.000000 0.000000
  1 -0.186268 0.167365 -1.425583 -0.450170 0.000000 0.000000
  2 0.923381 -2.004173 -52.426407 0.813979 -0.000000 0.000000
  3 0.209927 0.167365 2.417709 0.247654 0.000000 -0.000000
  4 -0.585070 71.233536 -54.342319 0.087267 0.000000 0.000000
  5 -0.737603 -0.548836 40.203682 -0.069813 0.000000 -0.000000
  6 2.553308 7.297705 96.216141 0.000000 -0.000000 0.000000
  7 25.337772 -9.646730 2.086914 -0.000011 -0.139632 -0.000607
  8 -23.810328 -7.093721 2.086899 -0.226045 0.064723 0.026189
  9 -7.352506 52.005486 -48.397392 0.027387 -0.000000 0.000000
 10 -0.684172 -0.276031 30.967377 0.000000 -0.000000 0.000000
 11 -13.534456 -1.160919 22.015205 3.019416 -0.000000 0.000000
 12 -20.972828 -0.005867 -27.595078 -0.000000 0.209439 -0.000000
 13 -18.070219 -6.045797 -20.586182 2.577424 0.599609 -0.374444
 14 14.228317 -5.898766 9.864227 -1.141183 1.377472 -0.009818
 15 0.492706 -33.874786 19.443924 -0.000000 -0.000000 -0.000000
 16 0.000015 -0.000015 -0.000011 -0.000000 0.000000 -0.000000
 17 12.176292 -0.829269 23.085014 -0.330962 0.156863 0.008289
 18 23.438759 1.362868 -28.210808 0.622482 0.147093 -0.046223
 19 17.520042 -4.855545 -21.387657 -0.559663 -0.318451 0.327741
 20 6.597042 5.855780 -9.931335 0.000000 -0.000000 0.000000
 21 -0.072890 -1.214046 9.388046 0.000000 -0.000000 0.000000
 22 0.000010 -5.381660 -154.110336 -0.034538 -0.005058 -0.145357
 23 4.103848 8.412071 291.691650 0.000000 -0.000000 0.000000
time 6
  0 4.103848 9.021107 107.910355 0.000000 -0.000000 0.000000
  1 -0.186268 0.167365 -1.425583 -0.565867 0.000000 0.000000
  2 0.923380 -2.004173 -52.426411 1.016448 -0.000000 0.000000
  3 0.209927 0.167365 2.417709 0.301371 0.000000 -0.000000
  4 -0.585070 71.233521 -54.342308 0.087266 0.000000 0.000000
  5 -0.737603 -0.548836 40.203682 -0.069813 0.000000 -0.000000
  6 2.553308 7.297703 96.216125 0.000000 -0.000000 0.000000
  7 25.337772 -9.646729 2.086899 -0.000011 -0.139632 -0.000607
  8 -23.810329 -7.093719 2.086899 -0.226045 0.064723 0.026189
  9 -7.352507 52.005482 -48.397385 -0.051122 -0.000000 0.000000
 10 -0.684172 -0.276031 30.967377 0.000000 -0.000000 0.000000
 11 -13.534456 -1.160923 22.015205 3.019416 -0.000000 0.000000
 12 -20.972830 -0.005867 -27.595047 0.000000 0.209439 -0.000000
 13 -18.070225 -6.045792 -20.586166 2.577424 0.599609 -0.374444
 14 17.356354 -5.983742 13.140549 -1.138955 1.549535 0.008752
 15 0.492722 -33.874802 19.443951 0.000000 0.000000 0.000000
 16 0.000015 -0.000015 -0.000011 -0.000000 0.000000 -0.000000
 17 12.176292 -0.829269 23.085030 -0.330962 0.156863 0.008289
 18 23.438757 1.362868 -28.210823 0.622482 0.147093 -0.046223
 19 17.520037 -4.855553 -21.387657 -0.559663 -0.318451 0.327741
 20 6.597046 5.855782 -9.931339 0.000000 -0.000000 0.000000
 21 -0.072890 -1.214050 9.388039 0.000000 -0.000000 0.000000
 22 0.000010 -5.381660 -154.110336 -0.034538 -0.005058 -0.145357
 23 4.103848 8.412071 291.691650 0.000000 -0.000000 0.000000
time 7
  0 4.103848 9.021107 97.130821 0.000000 -0.000000 0.000000
  1 -0.186268 0.167365 -1.425583 -0.682981 0.000000 0.000000
  2 0.923380 -2.004169 -52.426403 1.221398 -0.000000 0.000000
  3 0.209927 0.167365 2.417709 0.355745 0.000000 0.000000
  4 -0.585070 71.233536 -54.342327 0.087266 0.000000 -0.000000
  5 -0.737603 -0.548832 40.203667 -0.069813 0.000000 -0.000000
  6 2.553308 7.297703 96.216110 0.000000 -0.000000 0.000000
  7 25.337772 -9.646734 2.086899 -0.000011 -0.139632 -0.000607
  8 -23.810328 -7.093718 2.086899 -0.226045 0.064723 0.026189
  9 -7.352507 52.005486 -48.397392 -0.130592 -0.000000 0.000000
 10 -0.684172 -0.276031 30.967377 0.000000 -0.000000 0.000000
 11 -13.534456 -1.160919 22.015198 3.019416 -0.000000 0.000000
 12 -20.972828 -0.005867 -27.595078 0.000000 0.209439 0.000000
 13 -18.070223 -6.045795 -20.586166 2.577424 0.599609 -0.374444
 14 20.770988 -6.095325 16.480774 -1.136698 1.724459 0.027556
 15 0.492691 -33.874817 19.443958 0.000000 -0.000000 -0.000000
 16 0.000015 -0.000015 -0.000011 -0.000000 -0.000000 0.000000
 17 12.176291 -0.829266 23.085022 -0.330962 0.156863 0.008289
 18 23.438759 1.362868 -28.210815 0.622482 0.147093 -0.046223
 19 17.520041 -4.855556 -21.387661 -0.559663 -0.318451 0.327741
 20 6.597038 5.855782 -9.931332 0.000000 -0.000000 0.000000
 21 -0.072890 -1.214046 9.388031 0.000000 -0.000000 0.000000
 22 0.000010 -5.381660 -154.110336 -0.034538 -0.005058 -0.145357
 23 4.103848 8.412071 291.691650 0.000000 -0.000000 0.000000
time 8
  0 4.103848 9.021107 85.221535 0.000000 -0.000000 0.000000
  1 -0.186268 0.167365 -1.425583 -0.795464 0.000000 0.000000
  2 0.923381 -2.004169 -52.426407 1.418242 -0.000000 0.000000
  3 0.209927 0.167365 2.417709 0.407969 0.000000 0.000000
  4 -0.585070 71.233521 -54.342319 0.087267 0.000000 0.000000
  5 -0.737603 -0.548836 40.203667 -0.069813 0.000000 -0.000000
  6 2.553308 7.297699 96.216133 0.000000 -0.000000 0.000000
  7 25.337772 -9.646730 2.086899 -0.000011 -0.139632 -0.000607
  8 -23.810328 -7.093719 2.086899 -0.226045 0.064723 0.026189
  9 -7.352506 52.005486 -48.397385 -0.206919 -0.000000 0.000000
 10 -0.684172 -0.276028 30.967369 0.000000 -0.000000 0.000000
 11 -13.534456 -1.160919 22.015190 3.019416 0.000000 0.000000
 12 -20.972832 -0.005869 -27.595078 -0.000000 0.209439 0.000000
 13 -18.070221 -6.045795 -20.586166 2.577424 0.599609 -0.374444
 14 24.385262 -6.236980 19.720932 -1.134532 1.893484 0.045613
 15 0.492691 -33.874817 19.443975 0.000000 -0.000000 -0.000000
 16 0.000000 -0.000015 -0.000010 -0.000000 -0.000000 0.000000
 17 12.176291 -0.829266 23.085014 -0.330962 0.156863 0.008289
 18 23.438759 1.362867 -28.210823 0.622482 0.147093 -0.046223
 19 17.520039 -4.855545 -21.387653 -0.559663 -0.318451 0.327741
 20 6.597042 5.855780 -9.931343 0.000000 -0.000000 0.000000
 21 -0.072890 -1.214046 9.388031 0.000000 -0.000000 0.000000
 22 0.000010 -5.381660 -154.110336 -0.034538 -0.005058 -0.145357
 23 4.103848 8.412071 291.691650 0.000000 -0.000000 0.000000
time 9
  0 4.103848 9.021107 72.323753 0.000000 -0.000000 0.000000
  1 -0.186268 0.167365 -1.425583 -0.897263 0.000000 0.000000
  2 0.923380 -2.004177 -52.426407 1.596391 -0.000000 0.000000
  3 0.209927 0.167365 2.417709 0.455233 0.000000 -0.000000
  4 -0.585070 71.233536 -54.342312 0.087266 0.000000 0.000000
  5 -0.737603 -0.548840 40.203667 -0.069813 0.000000 -0.000000
  6 2.553308 7.297699 96.216118 0.000000 -0.000000 0.000000
  7 25.337772 -9.646725 2.086906 -0.000011 -0.139632 -0.000607
  8 -23.810328 -7.093716 2.086899 -0.226045 0.064723 0.026189
  9 -7.352506 52.005493 -48.397385 -0.275998 -0.000000 0.000000
 10 -0.684172 -0.276028 30.967369 0.000000 -0.000000 0.000000
 11 -13.534456 -1.160919 22.015205 3.019416 -0.000000 0.000000
 12 -20.972828 -0.005867 -27.595070 0.000000 0.209439 0.000000
 13 -18.070223 -6.045792 -20.586166 2.577424 0.599609 -0.374444
 14 28.112137 -6.412140 22.696976 -1.132572 2.047844 0.061955
 15 0.492676 -33.874825 19.443981 0.000000 -0.000000 -0.000000
 16 0.000031 -0.000008 -0.000011 -0.000000 -0.000000 -0.000000
 17 12.176291 -0.829266 23.085022 -0.330962 0.156863 0.008289
 18 23.438759 1.362869 -28.210815 0.622482 0.147093 -0.046223
 19 17.520035 -4.855553 -21.387653 -0.559663 -0.318451 0.327741
 20 6.597042 5.855782 -9.931335 0.000000 -0.000000 0.000000
 21 -0.072890 -1.214046 9.388039 0.000000 -0.000000 0.000000
 22 0.000010 -5.381660 -154.110336 -0.034538 -0.005058 -0.145357
 23 4.103848 8.412071 291.691650 0.000000 -0.000000 0.000000
time 10
  0 4.103848 9.021107 58.578655 0.000000 -0.000000 0.000000
  1 -0.186268 0.167365 -1.425587 -0.982330 0.000000 0.000000
  2 0.923380 -2.004173 -52.426411 1.745258 -0.000000 0.000000
  3 0.209927 0.167365 2.417706 0.494728 0.000000 0.000000
  4 -0.585070 71.233528 -54.342319 0.087267 0.000000 0.000000
  5 -0.737603 -0.548836 40.203667 -0.069813 0.000000 0.000000
  6 2.553308 7.297699 96.216141 0.000000 -0.000000 0.000000
  7 25.337772 -9.646732 2.086906 -0.000011 -0.139632 -0.000607
  8 -23.810328 -7.093719 2.086914 -0.226045 0.064723 0.026189
  9 -7.352506 52.005493 -48.397381 -0.333721 -0.000000 0.000000
 10 -0.684172 -0.276030 30.967392 0.000000 -0.000000 0.000000
 11 -13.534456 -1.160923 22.015205 3.019416 -0.000000 0.000000
 12 -20.972828 -0.005869 -27.595070 0.000000 0.209439 0.000000
 13 -18.070225 -6.045792 -20.586174 2.577424 0.599609 -0.374444
 14 31.864605 -6.624243 25.244949 -1.130934 2.178774 0.075611
 15 0.492645 -33.874844 19.443993 0.000000 -0.000000 0.000000
 16 0.000031 -0.000011 -0.000011 0.000000 0.000000 -0.000000
 17 12.176291 -0.829269 23.085022 -0.330962 0.156863 0.008289
 18 23.438755 1.362868 -28.210819 0.622482 0.147093 -0.046223
 19 17.520039 -4.855549 -21.387659 -0.559663 -0.318451 0.327741
 20 6.597042 5.855783 -9.931339 0.000000 -0.000000 0.000000
 21 -0.072890 -1.214050 9.388035 0.000000 -0.000000 0.000000
 22 0.000010 -5.381660 -154.110336 -0.034538 -0.005058 -0.145357
 23 4.103848 8.412071 291.691650 0.000000 -0.000000 0.000000
time 11
  0 4.103848 9.021107 44.127487 0.000000 -0.000000 0.000000
  1 -0.186268 0.167365 -1.425587 -1.044614 0.000000 0.000000
  2 0.923381 -2.004173 -52.426411 1.854254 -0.000000 0.000000
  3 0.209927 0.167365 2.417706 0.523646 0.000000 0.000000
  4 -0.585070 71.233528 -54.342316 0.087266 0.000000 -0.000000
  5 -0.737603 -0.548840 40.203671 -0.069813 0.000000 0.000000
  6 2.553308 7.297701 96.216125 0.000000 -0.000000 0.000000
  7 25.337772 -9.646730 2.086914 -0.000011 -0.139632 -0.000607
  8 -23.810328 -7.093721 2.086914 -0.226045 0.064723 0.026189
  9 -7.352506 52.005486 -48.397381 -0.375985 -0.000000 0.000000
 10 -0.684172 -0.276031 30.967384 0.000000 -0.000000 0.000000
 11 -13.534456 -1.160921 22.015202 3.019416 -0.000000 0.000000
 12 -20.972830 -0.005869 -27.595081 -0.000000 0.209439 -0.000000
 13 -18.070221 -6.045792 -20.586166 2.577424 0.599609 -0.374444
 14 35.555698 -6.876740 27.200844 -1.129734 2.277509 0.085609
 15 0.492599 -33.874840 19.443989 0.000000 -0.000000 0.000000
 16 0.000015 -0.000011 -0.000011 -0.000000 0.000000 -0.000000
 17 12.176291 -0.829269 23.085014 -0.330962 0.156863 0.008289
 18 23.438763 1.362869 -28.210815 0.622482 0.147093 -0.046223
 19 17.520039 -4.855547 -21.387651 -0.559663 -0.318451 0.327741
 20 6.597046 5.855782 -9.931340 0.000000 -0.000000 0.000000
 21 -0.072890 -1.214046 9.388035 0.000000 -0.000000 0.000000
 22 0.000010 -5.381660 -154.110336 -0.034538 -0.005058 -0.145357
 23 4.103848 8.412071 291.691650 0.000000 -0.000000 0.000000
time 12
  0 4.103848 9.021107 29.111437 0.000000 -0.000000 0.000000
  1 -0.186268 0.167365 -1.425587 -1.078064 0.000000 0.000000
  2 0.923380 -2.004175 -52.426407 1.912792 -0.000000 0.000000
  3 0.209927 0.167365 2.417706 0.539176 0.000000 0.000000
  4 -0.585070 71.233528 -54.342316 0.087266 0.000000 -0.000000
  5 -0.737603 -0.548834 40.203674 -0.069813 0.000000 -0.000000
  6 2.553308 7.297701 96.216118 0.000000 -0.000000 0.000000
  7 25.337772 -9.646730 2.086906 -0.000011 -0.139632 -0.000607
  8 -23.810328 -7.093719 2.086906 -0.226045 0.064723 0.026189
  9 -7.352506 52.005478 -48.397377 -0.398683 -0.000000 0.000000
 10 -0.684172 -0.276030 30.967384 0.000000 -0.000000 0.000000
 11 -13.534456 -1.160921 22.015200 3.019416 0.000000 0.000000
 12 -20.972832 -0.005869 -27.595074 0.000000 0.209439 -0.000000
 13 -18.070225 -6.045794 -20.586166 2.577424 0.599609 -0.374444
 14 39.098358 -7.173077 28.400589 -1.129090 2.335284 0.090979
 15 0.492630 -33.874847 19.443993 0.000000 -0.000000 -0.000000
 16 0.000015 -0.000011 -0.000011 -0.000000 0.000000 -0.000000
 17 12.176291 -0.829268 23.085024 -0.330962 0.156863 0.008289
 18 23.438763 1.362869 -28.210819 0.622482 0.147093 -0.046223
 19 17.520041 -4.855547 -21.387653 -0.559663 -0.318451 0.327741
 20 6.597042 5.855780 -9.931338 0.000000 -0.000000 0.000000
 21 -0.072890 -1.214048 9.388039 0.000000 -0.000000 0.000000
 22 0.000010 -5.381660 -154.110336 -0.034538 -0.005058 -0.145357
 23 4.103848 8.412071 291.691650 0.000000 -0.000000 0.000000
time 13
  0 4.103848 9.021107 13.671749 0.000000 -0.000000 0.000000
  1 -0.186268 0.167365 -1.425586 -1.079466 0.000000 0.000000
  2 0.923381 -2.004172 -52.426407 1.915246 -0.000000 0.000000
  3 0.209927 0.167365 2.417706 0.539827 0.000000 -0.000000
  4 -0.585070 71.233536 -54.342316 0.087266 0.000000 -0.000000
  5 -0.737603 -0.548841 40.203671 -0.069813 0.000000 0.000000
  6 2.553308 7.297700 96.216110 0.000000 -0.000000 0.000000
  7 25.337774 -9.646729 2.086906 -0.000011 -0.139632 -0.000607
  8 -23.810326 -7.093720 2.086906 -0.226045 0.064723 0.026189
  9 -7.352506 52.005478 -48.397381 -0.400074 0.000000 0.000000
 10 -0.684171 -0.276031 30.967373 0.000000 -0.000000 0.000000
 11 -13.534456 -1.160923 22.015200 3.019416 0.000000 0.000000
 12 -20.972830 -0.005867 -27.595074 0.000000 0.209439 0.000000
 13 -18.070225 -6.045797 -20.586166 2.577424 0.599609 -0.374444
 14 42.516514 -7.626434 28.820930 -1.131311 2.351025 0.089884
 15 0.492630 -33.874832 19.443993 0.000000 -0.000000 0.000000
 16 0.000015 -0.000010 -0.000013 -0.000000 -0.000000 -0.000000
 17 12.176291 -0.829269 23.085026 -0.330962 0.156863 0.008289
 18 23.438757 1.362869 -28.210815 0.622483 0.147093 -0.046223
 19 17.520042 -4.855548 -21.387650 -0.559663 -0.318451 0.327741
 20 6.597046 5.855779 -9.931335 0.000000 -0.000000 0.000000
 21 -0.072890 -1.214048 9.388039 0.000000 -0.000000 0.000000
 22 0.000010 -5.381660 -154.110336 -0.034538 -0.005058 -0.145357
 23 4.103848 8.412071 291.691650 0.000000 -0.000000 0.000000
time 14
  0 4.103848 9.021107 -2.050366 0.000000 -0.000000 0.000000
  1 -0.186268 0.167365 -1.425586 -1.061037 0.000000 0.000000
  2 0.923381 -2.004173 -52.426399 1.882995 -0.000000 0.000000
  3 0.209927 0.167365 2.417706 0.531271 0.000000 -0.000000
  4 -0.585070 71.233536 -54.342316 0.087266 0.000000 -0.000000
  5 -0.737603 -0.548838 40.203671 -0.069813 0.000000 -0.000000
  6 2.553308 7.297701 96.216133 0.000000 -0.000000 0.000000
  7 25.337772 -9.646731 2.086910 -0.000011 -0.139632 -0.000607
  8 -23.810328 -7.093719 2.086914 -0.226045 0.064723 0.026189
  9 -7.352506 52.005486 -48.397388 -0.390563 0.000000 0.000000
 10 -0.684172 -0.276031 30.967384 0.000000 -0.000000 0.000000
 11 -13.534456 -1.160921 22.015200 3.019416 -0.000000 0.000000
 12 -20.972830 -0.005867 -27.595074 -0.000000 0.209439 -0.000000
 13 -18.070225 -6.045795 -20.586174 2.577424 0.599609 -0.374444
 14 46.314644 -8.782825 29.109009 -1.147374 2.360220 0.077701
 15 0.492615 -33.874847 19.443993 0.000000 -0.000000 -0.000000
 16 0.000015 -0.000011 -0.000013 -0.000000 -0.000000 0.000000
 17 12.176291 -0.829268 23.085020 -0.330962 0.156863 0.008289
 18 23.438759 1.362869 -28.210819 0.622482 0.147093 -0.046223
 19 17.520039 -4.855555 -21.387655 -0.559663 -0.318451 0.327741
 20 6.597042 5.855781 -9.931343 0.000000 -0.000000 0.000000
 21 -0.072890 -1.214047 9.388037 0.000000 -0.000000 0.000000
 22 0.000010 -5.381660 -154.110336 -0.034538 -0.005058 -0.145357
 23 4.103848 8.412071 291.691650 0.000000 -0.000000 0.000000
time 15
  0 4.103848 9.021107 -17.913712 0.000000 -0.000000 0.000000
  1 -0.186268 0.167365 -1.425587 -1.026861 0.000000 0.000000
  2 0.923381 -2.004173 -52.426407 1.823187 -0.000000 0.000000
  3 0.209927 0.167365 2.417706 0.515403 0.000000 -0.000000
  4 -0.585070 71.233521 -54.342316 0.087267 0.000000 0.000000
  5 -0.737603 -0.548841 40.203667 -0.069813 0.000000 0.000000
  6 2.553308 7.297702 96.216118 0.000000 -0.000000 0.000000
  7 25.337774 -9.646729 2.086908 -0.000011 -0.139632 -0.000607
  8 -23.810326 -7.093719 2.086906 -0.226045 0.064723 0.026189
  9 -7.352506 52.005478 -48.397377 -0.372736 0.000000 0.000000
 10 -0.684172 -0.276031 30.967373 0.000000 -0.000000 0.000000
 11 -13.534456 -1.160922 22.015200 3.019416 -0.000000 0.000000
 12 -20.972828 -0.005867 -27.595074 -0.000000 0.209439 -0.000000
 13 -18.070221 -6.045794 -20.586170 2.577424 0.599609 -0.374444
 14 50.499222 -10.632856 29.369560 -1.177162 2.368572 0.055109
 15 0.492615 -33.874847 19.443989 0.000000 -0.000000 -0.000000
 16 0.000023 -0.000011 -0.000011 -0.000000 0.000000 0.000000
 17 12.176291 -0.829270 23.085022 -0.330962 0.156863 0.008289
 18 23.438763 1.362870 -28.210819 0.622482 0.147093 -0.046223
 19 17.520039 -4.855548 -21.387653 -0.559663 -0.318451 0.327741
 20 6.597042 5.855778 -9.931335 0.000000 -0.000000 0.000000
 21 -0.072890 -1.214047 9.388037 0.000000 -0.000000 0.000000
 22 0.000010 -5.381660 -154.110336 -0.034538 -0.005058 -0.145357
 23 4.103848 8.412071 291.691650 0.000000 -0.000000 0.000000
time 16
  0 4.103848 9.021107 -33.777069 0.000000 -0.000000 0.000000
  1 -0.186268 0.167365 -1.425587 -0.979114 0.000000 0.000000
  2 0.923380 -2.004173 -52.426411 1.739630 -0.000000 0.000000
  3 0.209927 0.167365 2.417706 0.493235 0.000000 0.000000
  4 -0.585070 71.233521 -54.342316 0.087266 0.000000 0.000000
  5 -0.737603 -0.548837 40.203674 -0.069813 0.000000 0.000000
  6 2.553308 7.297699 96.216125 0.000000 -0.000000 0.000000
  7 25.337772 -9.646729 2.086907 -0.000011 -0.139632 -0.000607
  8 -23.810328 -7.093719 2.086907 -0.226045 0.064723 0.026189
  9 -7.352506 52.005482 -48.397385 -0.347518 0.000000 0.000000
 10 -0.684172 -0.276031 30.967381 0.000000 -0.000000 0.000000
 11 -13.534456 -1.160923 22.015202 3.019416 0.000000 0.000000
 12 -20.972830 -0.005866 -27.595074 0.000000 0.209439 0.000000
 13 -18.070223 -6.045794 -20.586170 2.577424 0.599609 -0.374444
 14 54.990669 -13.077942 29.603943 -1.218779 2.376118 0.023546
 15 0.492615 -33.874847 19.443996 0.000000 -0.000000 -0.000000
 16 0.000023 -0.000011 -0.000011 0.000000 -0.000000 0.000000
 17 12.176291 -0.829269 23.085022 -0.330962 0.156863 0.008289
 18 23.438763 1.362869 -28.210819 0.622482 0.147093 -0.046223
 19 17.520042 -4.855556 -21.387655 -0.559663 -0.318451 0.327741
 20 6.597046 5.855780 -9.931343 0.000000 -0.000000 0.000000
 21 -0.072890 -1.214047 9.388039 0.000000 -0.000000 0.000000
 22 0.000010 -5.381660 -154.110336 -0.034538 -0.005058 -0.145357
 23 4.103848 8.412071 291.691650 0.000000 -0.000000 0.000000
time 17
  0 4.103848 9.021107 -49.499176 0.000000 -0.000000 0.000000
  1 -0.186268 0.167365 -1.425587 -0.919974 0.000000 0.000000
  2 0.923381 -2.004173 -52.426403 1.636135 -0.000000 0.000000
  3 0.209927 0.167365 2.417706 0.465777 0.000000 -0.000000
  4 -0.585070 71.233528 -54.342319 0.087266 0.000000 -0.000000
  5 -0.737603 -0.548837 40.203667 -0.069813 0.000000 -0.000000
  6 2.553308 7.297699 96.216110 0.000000 -0.000000 0.000000
  7 25.337772 -9.646729 2.086908 -0.000011 -0.139632 -0.000607
  8 -23.810328 -7.093718 2.086907 -0.226045 0.064723 0.026189
  9 -7.352506 52.005486 -48.397385 -0.315839 0.000000 0.000000
 10 -0.684172 -0.276031 30.967377 0.000000 -0.000000 0.000000
 11 -13.534456 -1.160921 22.015198 3.019416 -0.000000 0.000000
 12 -20.972828 -0.005868 -27.595076 -0.000000 0.209439 -0.000000
 13 -18.070223 -6.045793 -20.586170 2.577424 0.599609 -0.374444
 14 59.709396 -16.019512 29.813393 -1.270326 2.382893 -0.015549
 15 0.492615 -33.874847 19.443996 0.000000 -0.000000 -0.000000
 16 0.000023 -0.000011 -0.000011 0.000000 0.000000 -0.000000
 17 12.176291 -0.829268 23.085022 -0.330962 0.156863 0.008289
 18 23.438763 1.362868 -28.210815 0.622482 0.147093 -0.046223
 19 17.520042 -4.855545 -21.387653 -0.559663 -0.318451 0.327741
 20 6.597046 5.855781 -9.931351 0.000000 -0.000000 0.000000
 21 -0.072890 -1.214047 9.388035 0.000000 -0.000000 0.000000
 22 0.000010 -5.381660 -154.110336 -0.034538 -0.005058 -0.145357
 23 4.103848 8.412071 291.691650 0.000000 -0.000000 0.000000
time 18
  0 4.103848 9.021107 -64.938866 0.000000 -0.000000 0.000000
  1 -0.186268 0.167365 -1.425583 -0.851616 0.000000 0.000000
  2 0.923381 -2.004166 -52.426407 1.516508 -0.000000 0.000000
  3 0.209927 0.167365 2.417706 0.434040 0.000000 -0.000000
  4 -0.585070 71.233536 -54.342319 0.087267 0.000000 0.000000
  5 -0.737603 -0.548838 40.203674 -0.069813 0.000000 -0.000000
  6 2.553308 7.297701 96.216125 0.000000 -0.000000 0.000000
  7 25.337772 -9.646730 2.086908 -0.000011 -0.139632 -0.000607
  8 -23.810328 -7.093718 2.086908 -0.226045 0.064723 0.026189
  9 -7.352506 52.005486 -48.397385 -0.278627 0.000000 0.000000
 10 -0.684172 -0.276030 30.967384 0.000000 -0.000000 0.000000
 11 -13.534456 -1.160923 22.015205 3.019416 0.000000 0.000000
 12 -20.972830 -0.005867 -27.595074 -0.000000 0.209439 -0.000000
 13 -18.070221 -6.045794 -20.586174 2.577424 0.599609 -0.374444
 14 64.575775 -19.358994 29.999237 -1.329907 2.388937 -0.060737
 15 0.492615 -33.874832 19.443989 0.000000 -0.000000 0.000000
 16 0.000015 -0.000010 -0.000011 -0.000000 0.000000 -0.000000
 17 12.176291 -0.829271 23.085022 -0.330962 0.156863 0.008289
 18 23.438763 1.362867 -28.210812 0.622482 0.147093 -0.046223
 19 17.520039 -4.855549 -21.387653 -0.559663 -0.318451 0.327741
 20 6.597040 5.855780 -9.931343 0.000000 -0.000000 0.000000
 21 -0.072890 -1.214050 9.388039 0.000000 -0.000000 0.000000
 22 0.000010 -5.381660 -154.110321 -0.034538 -0.005058 -0.145357
 23 4.103848 8.412071 291.691650 0.000000 -0.000000 0.000000
time 19
  0 4.103848 9.021107 -79.954903 0.000000 -0.000000 0.000000
  1 -0.186268 0.167365 -1.425583 -0.776218 0.000000 0.000000
  2 0.923381 -2.004169 -52.426407 1.384561 -0.000000 0.000000
  3 0.209927 0.167365 2.417709 0.399033 0.000000 0.000000
  4 -0.585070 71.233536 -54.342331 0.087267 0.000000 0.000000
  5 -0.737603 -0.548838 40.203678 -0.069813 0.000000 0.000000
  6 2.553309 7.297701 96.216141 0.000000 -0.000000 0.000000
  7 25.337772 -9.646730 2.086906 -0.000011 -0.139632 -0.000607
  8 -23.810328 -7.093719 2.086906 -0.226045 0.064723 0.026189
  9 -7.352506 52.005493 -48.397385 -0.236809 0.000000 0.000000
 10 -0.684172 -0.276030 30.967382 0.000000 -0.000000 0.000000
 11 -13.534456 -1.160921 22.015209 3.019416 0.000000 0.000000
 12 -20.972828 -0.005869 -27.595074 0.000000 0.209439 0.000000
 13 -18.070225 -6.045794 -20.586174 2.577424 0.599609 -0.374444
 14 69.510246 -22.997787 30.162754 -1.395625 2.394284 -0.110579
 15 0.492622 -33.874840 19.443993 0.000000 -0.000000 0.000000
 16 0.000015 -0.000011 -0.000011 0.000000 0.000000 -0.000000
 17 12.176291 -0.829269 23.085026 -0.330962 0.156863 0.008289
 18 23.438755 1.362869 -28.210812 0.622483 0.147093 -0.046223
 19 17.520035 -4.855553 -21.387650 -0.559663 -0.318451 0.327741
 20 6.597042 5.855780 -9.931343 0.000000 -0.000000 0.000000
 21 -0.072890 -1.214046 9.388039 0.000000 -0.000000 0.000000
 22 0.000010 -5.381660 -154.110352 -0.034538 -0.005058 -0.145357
 23 4.103848 8.412071 291.691650 0.000000 -0.000000 0.000000
time 20
  0 4.103848 9.021107 -94.406097 0.000000 -0.000000 0.000000
  1 -0.186268 0.167365 -1.425583 -0.695956 0.000000 0.000000
  2 0.923380 -2.004173 -52.426399 1.244103 -0.000000 0.000000
  3 0.209927 0.167365 2.417709 0.361769 0.000000 0.000000
  4 -0.585070 71.233521 -54.342316 0.087267 0.000000 0.000000
  5 -0.737603 -0.548838 40.203674 -0.069813 0.000000 -0.000000
  6 2.553308 7.297698 96.216141 0.000000 -0.000000 0.000000
  7 25.337772 -9.646730 2.086910 -0.000011 -0.139632 -0.000607
  8 -23.810328 -7.093719 2.086910 -0.226045 0.064723 0.026189
  9 -7.352507 52.005486 -48.397377 -0.191312 0.000000 0.000000
 10 -0.684172 -0.276030 30.967382 0.000000 -0.000000 0.000000
 11 -13.534456 -1.160921 22.015205 3.019416 0.000000 0.000000
 12 -20.972830 -0.005867 -27.595070 -0.000000 0.209439 0.000000
 13 -18.070221 -6.045794 -20.586170 2.577424 0.599609 -0.374444
 14 74.433205 -26.837355 30.305256 -1.465582 2.398972 -0.163637
 15 0.492634 -33.874832 19.443987 0.000000 0.000000 -0.000000
 16 0.000019 -0.000012 -0.000011 -0.000000 0.000000 0.000000
 17 12.176291 -0.829269 23.085014 -0.330962 0.156863 0.008289
 18 23.438763 1.362867 -28.210815 0.622483 0.147093 -0.046223
 19 17.520042 -4.855545 -21.387642 -0.559663 -0.318451 0.327741
 20 6.597048 5.855778 -9.931320 0.000000 -0.000000 0.000000
 21 -0.072890 -1.214046 9.388039 0.000000 -0.000000 0.000000
 22 0.000010 -5.381660 -154.110336 -0.034538 -0.005058 -0.145357
 23 4.103848 8.412071 291.691650 0.000000 -0.000000 0.000000
time 21
  0 4.103848 9.021107 -108.151161 0.000000 -0.000000 0.000000
  1 -0.186268 0.167365 -1.425583 -0.613007 0.000000 0.000000
  2 0.923380 -2.004173 -52.426407 1.098943 -0.000000 0.000000
  3 0.209927 0.167365 2.417709 0.323257 0.000000 -0.000000
  4 -0.585070 71.233521 -54.342323 0.087266 0.000000 -0.000000
  5 -0.737603 -0.548840 40.203667 -0.069813 0.000000 0.000000
  6 2.553308 7.297697 96.216125 0.000000 -0.000000 0.000000
  7 25.337772 -9.646732 2.086910 -0.000011 -0.139632 -0.000607
  8 -23.810328 -7.093719 2.086914 -0.226045 0.064723 0.026189
  9 -7.352506 52.005486 -48.397377 -0.143066 0.000000 0.000000
 10 -0.684172 -0.276031 30.967384 0.000000 -0.000000 0.000000
 11 -13.534456 -1.160923 22.015190 3.019416 0.000000 0.000000
 12 -20.972828 -0.005868 -27.595074 0.000000 0.209439 0.000000
 13 -18.070221 -6.045794 -20.586170 2.577424 0.599609 -0.374444
 14 79.265060 -30.779087 30.428030 -1.537881 2.403039 -0.218470
 15 0.492630 -33.874851 19.443989 0.000000 -0.000000 0.000000
 16 0.000019 -0.000012 -0.000012 0.000000 0.000000 -0.000000
 17 12.176291 -0.829269 23.085014 -0.330962 0.156863 0.008289
 18 23.438759 1.362868 -28.210815 0.622482 0.147093 -0.046223
 19 17.520035 -4.855545 -21.387642 -0.559663 -0.318451 0.327741
 20 6.597046 5.855778 -9.931351 0.000000 -0.000000 0.000000
 21 -0.072890 -1.214048 9.388039 0.000000 -0.000000 0.000000
 22 0.000010 -5.381660 -154.110352 -0.034538 -0.005058 -0.145357
 23 4.103848 8.412071 291.691650 0.000000 -0.000000 0.000000
time 22
  0 4.103848 9.021107 -121.048965 0.000000 -0.000000 0.000000
  1 -0.186268 0.167365 -1.425583 -0.529548 0.000000 0.000000
  2 0.923381 -2.004166 -52.426399 0.952889 -0.000000 0.000000
  3 0.209927 0.167365 2.417709 0.284508 0.000000 0.000000
  4 -0.585070 71.233536 -54.342323 0.087266 0.000000 -0.000000
  5 -0.737603 -0.548836 40.203674 -0.069813 0.000000 -0.000000
  6 2.553308 7.297701 96.216133 0.000000 -0.000000 0.000000
  7 25.337770 -9.646732 2.086906 -0.000011 -0.139632 -0.000607
  8 -23.810329 -7.093719 2.086914 -0.226045 0.064723 0.026189
  9 -7.352507 52.005493 -48.397385 -0.092997 0.000000 0.000000
 10 -0.684172 -0.276031 30.967384 0.000000 -0.000000 0.000000
 11 -13.534456 -1.160919 22.015213 3.019416 0.000000 0.000000
 12 -20.972828 -0.005866 -27.595062 0.000000 0.209439 0.000000
 13 -18.070217 -6.045795 -20.586178 2.577424 0.599609 -0.374444
 14 83.926224 -34.724411 30.532379 1.530968 0.735072 2.867952
 15 0.492641 -33.874855 19.443995 0.000000 -0.000000 -0.000000
 16 0.000015 -0.000011 -0.000011 -0.000000 0.000000 -0.000000
 17 12.176291 -0.829266 23.085030 -0.330962 0.156863 0.008289
 18 23.438763 1.362866 -28.210808 0.622483 0.147093 -0.046223
 19 17.520042 -4.855549 -21.387657 -0.559663 -0.318451 0.327741
 20 6.597046 5.855779 -9.931335 0.000000 -0.000000 0.000000
 21 -0.072890 -1.214046 9.388039 0.000000 -0.000000 0.000000
 22 0.000010 -5.381660 -154.110336 -0.034538 -0.005058 -0.145357
 23 4.103848 8.412071 291.691650 0.000000 -0.000000 0.000000
time 23
  0 4.103848 9.021107 -132.958221 0.000000 -0.000000 0.000000
  1 -0.186268 0.167365 -1.425583 -0.447756 0.000000 0.000000
  2 0.923381 -2.004173 -52.426414 0.809753 -0.000000 0.000000
  3 0.209927 0.167365 2.417709 0.246533 0.000000 0.000000
  4 -0.585070 71.233521 -54.342316 0.087266 0.000000 -0.000000
  5 -0.737603 -0.548838 40.203674 -0.069813 0.000000 0.000000
  6 2.553308 7.297699 96.216118 0.000000 -0.000000 0.000000
  7 25.337772 -9.646732 2.086906 -0.000011 -0.139632 -0.000607
  8 -23.810328 -7.093719 2.086906 -0.226045 0.064723 0.026189
  9 -7.352506 52.005482 -48.397377 -0.042035 0.000000 0.000000
 10 -0.684172 -0.276031 30.967377 0.000000 -0.000000 0.000000
 11 -13.534456 -1.160923 22.015213 3.019416 0.000000 0.000000
 12 -20.972828 -0.005867 -27.595078 0.000000 0.209439 0.000000
 13 -18.070221 -6.045795 -20.586166 2.577424 0.599609 -0.374444
 14 88.337112 -38.574768 30.619579 1.459677 0.732139 2.813883
 15 0.492643 -33.874863 19.443991 0.000000 0.000000 -0.000000
 16 0.000019 -0.000010 -0.000011 0.000000 0.000000 -0.000000
 17 12.176291 -0.829268 23.085030 -0.330962 0.156863 0.008289
 18 23.438763 1.362866 -28.210815 0.622482 0.147093 -0.046223
 19 17.520050 -4.855553 -21.387657 -0.559663 -0.318451 0.327741
 20 6.597042 5.855779 -9.931335 0.000000 -0.000000 0.000000
 21 -0.072890 -1.214050 9.388039 0.000000 -0.000000 0.000000
 22 0.000010 -5.381660 -154.110321 -0.034538 -0.005058 -0.145357
 23 4.103848 8.412071 291.691650 0.000000 -0.000000 0.000000
time 24
  0 4.103848 9.021107 -143.737808 0.000000 -0.000000 0.000000
  1 -0.186268 0.167365 -1.425583 -0.369806 0.000000 0.000000
  2 0.923381 -2.004181 -52.426407 0.673342 -0.000000 0.000000
  3 0.209927 0.167365 2.417709 0.210343 0.000000 -0.000000
  4 -0.585070 71.233521 -54.342331 0.087266 0.000000 0.000000
  5 -0.737603 -0.548840 40.203659 -0.069813 0.000000 -0.000000
  6 2.553308 7.297702 96.216133 0.000000 -0.000000 0.000000
  7 25.337772 -9.646730 2.086899 -0.000011 -0.139632 -0.000607
  8 -23.810328 -7.093719 2.086906 -0.226045 0.064723 0.026189
  9 -7.352506 52.005486 -48.397385 0.008894 0.000000 0.000000
 10 -0.684172 -0.276030 30.967384 0.000000 -0.000000 0.000000
 11 -13.534456 -1.160921 22.015198 3.019416 -0.000000 0.000000
 12 -20.972830 -0.005867 -27.595078 -0.000000 0.209439 -0.000000
 13 -18.070221 -6.045795 -20.586174 2.577424 0.599609 -0.374444
 14 92.418091 -42.231575 30.690979 1.391736 0.729716 2.762354
 15 0.492651 -33.874851 19.443985 0.000000 -0.000000 0.000000
 16 0.000015 -0.000011 -0.000012 -0.000000 0.000000 -0.000000
 17 12.176291 -0.829269 23.085014 -0.330962 0.156863 0.008289
 18 23.438759 1.362865 -28.210815 0.622482 0.147093 -0.046223
 19 17.520050 -4.855560 -21.387657 -0.559663 -0.318451 0.327741
 20 6.597044 5.855779 -9.931351 0.000000 -0.000000 0.000000
 21 -0.072890 -1.214050 9.388016 0.000000 -0.000000 0.000000
 22 0.000010 -5.381660 -154.110336 -0.034538 -0.005058 -0.145357
 23 4.103848 8.412071 291.691650 0.000000 -0.000000 0.000000
time 25
  0 4.103848 9.021107 -153.246384 0.000000 -0.000000 0.000000
  1 -0.186268 0.167365 -1.425583 -0.297878 0.000000 0.000000
  2 0.923380 -2.004173 -52.426407 0.547466 -0.000000 0.000000
  3 0.209927 0.167365 2.417709 0.176947 0.000000 0.000000
  4 -0.585070 71.233536 -54.342316 0.087266 0.000000 -0.000000
  5 -0.737603 -0.548838 40.203667 -0.069813 0.000000 -0.000000
  6 2.553308 7.297700 96.216125 0.000000 -0.000000 0.000000
  7 25.337772 -9.646730 2.086906 -0.000011 -0.139632 -0.000607
  8 -23.810328 -7.093719 2.086914 -0.226045 0.064723 0.026189
  9 -7.352506 52.005478 -48.397385 0.058862 0.000000 0.000000
 10 -0.684172 -0.276031 30.967377 0.000000 -0.000000 0.000000
 11 -13.534456 -1.160921 22.015198 3.019416 -0.000000 0.000000
 12 -20.972832 -0.005867 -27.595070 0.000000 0.209439 0.000000
 13 -18.070221 -6.045795 -20.586182 2.577424 0.599609 -0.374444
 14 96.089615 -45.596252 30.747820 1.329042 0.727767 2.714805
 15 0.492657 -33.874851 19.443985 0.000000 -0.000000 0.000000
 16 0.000015 -0.000011 -0.000010 0.000000 0.000000 -0.000000
 17 12.176291 -0.829268 23.085022 -0.330962 0.156863 0.008289
 18 23.438763 1.362865 -28.210823 0.622482 0.147093 -0.046223
 19 17.520042 -4.855556 -21.387665 -0.559663 -0.318451 0.327741
 20 6.597048 5.855780 -9.931335 0.000000 -0.000000 0.000000
 21 -0.072890 -1.214046 9.388016 0.000000 -0.000000 0.000000
 22 0.000010 -5.381660 -154.110336 -0.034538 -0.005058 -0.145357
 23 4.103848 8.412071 291.691650 0.000000 -0.000000 0.000000
time 26
  0 4.103848 9.021107 -161.342804 0.000000 -0.000000 0.000000
  1 -0.186268 0.167365 -1.425583 -0.234145 0.000000 0.000000
  2 0.923380 -2.004173 -52.426407 0.435935 -0.000000 0.000000
  3 0.209927 0.167365 2.417709 0.147357 0.000000 -0.000000
  4 -0.585070 71.233528 -54.342316 0.087266 0.000000 0.000000
  5 -0.737603 -0.548838 40.203667 -0.069813 0.000000 0.000000
  6 2.553308 7.297699 96.216118 0.000000 -0.000000 0.000000
  7 25.337772 -9.646729 2.086906 -0.000011 -0.139632 -0.000607
  8 -23.810328 -7.093719 2.086906 -0.226045 0.064723 0.026189
  9 -7.352506 52.005482 -48.397377 0.106940 0.000000 0.000000
 10 -0.684172 -0.276030 30.967377 0.000000 -0.000000 0.000000
 11 -13.534456 -1.160922 22.015198 3.019416 -0.000000 0.000000
 12 -20.972824 -0.005867 -27.595078 -0.000000 0.209439 -0.000000
 13 -18.070221 -6.045794 -20.586182 2.577424 0.599609 -0.374444
 14 99.272041 -48.570198 30.791405 1.273493 0.726256 2.672675
 15 0.492664 -33.874855 19.443981 0.000000 -0.000000 0.000000
 16 0.000015 -0.000011 -0.000013 -0.000000 0.000000 -0.000000
 17 12.176291 -0.829268 23.085037 -0.330962 0.156863 0.008289
 18 23.438759 1.362865 -28.210815 0.622482 0.147093 -0.046223
 19 17.520050 -4.855549 -21.387665 -0.559663 -0.318451 0.327741
 20 6.597046 5.855781 -9.931335 0.000000 -0.000000 0.000000
 21 -0.072891 -1.214046 9.388046 0.000000 -0.000000 0.000000
 22 0.000010 -5.381660 -154.110321 -0.034538 -0.005058 -0.145357
 23 4.103848 8.412071 291.691650 0.000000 -0.000000 0.000000
time 27
  0 4.103848 9.021107 -167.885834 0.000000 -0.000000 0.000000
  1 -0.186268 0.167365 -1.425583 -0.180787 0.000000 0.000000
  2 0.923380 -2.004177 -52.426407 0.342557 -0.000000 0.000000
  3 0.209927 0.167365 2.417709 0.122583 0.000000 0.000000
  4 -0.585070 71.233528 -54.342331 0.087266 0.000000 0.000000
  5 -0.737603 -0.548839 40.203674 -0.069813 0.000000 0.000000
  6 2.553308 7.297701 96.216125 0.000000 -0.000000 0.000000
  7 25.337772 -9.646730 2.086914 -0.000011 -0.139632 -0.000607
  8 -23.810328 -7.093720 2.086906 -0.226045 0.064723 0.026189
  9 -7.352506 52.005486 -48.397385 0.152200 0.000000 0.000000
 10 -0.684172 -0.276029 30.967384 0.000000 -0.000000 0.000000
 11 -13.534456 -1.160920 22.015198 3.019416 0.000000 0.000000
 12 -20.972826 -0.005868 -27.595070 0.000000 0.209439 0.000000
 13 -18.070213 -6.045794 -20.586166 2.577424 0.599609 -0.374444
 14 101.885857 -51.054878 30.823061 1.226985 0.725145 2.637402
 15 0.492669 -33.874863 19.443985 0.000000 -0.000000 -0.000000
 16 0.000016 -0.000011 -0.000010 -0.000000 0.000000 -0.000000
 17 12.176291 -0.829269 23.085022 -0.330962 0.156863 0.008289
 18 23.438766 1.362865 -28.210815 0.622482 0.147093 -0.046223
 19 17.520035 -4.855556 -21.387650 -0.559663 -0.318451 0.327741
 20 6.597044 5.855782 -9.931335 0.000000 -0.000000 0.000000
 21 -0.072890 -1.214047 9.388046 0.000000 -0.000000 0.000000
 22 0.000010 -5.381660 -154.110321 -0.034538 -0.005058 -0.145357
 23 4.103848 8.412071 291.691650 0.000000 -0.000000 0.000000
time 28
  0 4.103848 9.021107 -172.734253 0.000000 -0.000000 0.000000
  1 -0.186268 0.167365 -1.425583 -0.139978 0.000000 0.000000
  2 0.923380 -2.004177 -52.426407 0.271143 -0.000000 0.000000
  3 0.209927 0.167365 2.417709 0.103637 0.000000 -0.000000
  4 -0.585070 71.233528 -54.342316 0.087267 0.000000 0.000000
  5 -0.737603 -0.548838 40.203674 -0.069813 0.000000 0.000000
  6 2.553308 7.297699 96.216125 0.000000 -0.000000 0.000000
  7 25.337772 -9.646730 2.086899 -0.000011 -0.139632 -0.000607
  8 -23.810329 -7.093719 2.086899 -0.226045 0.064723 0.026189
  9 -7.352507 52.005478 -48.397385 0.193716 0.000000 0.000000
 10 -0.684172 -0.276030 30.967384 0.000000 -0.000000 0.000000
 11 -13.534456 -1.160921 22.015213 3.019416 0.000000 0.000000
 12 -20.972828 -0.005867 -27.595070 0.000000 0.209439 0.000000
 13 -18.070213 -6.045794 -20.586166 2.577425 0.599609 -0.374444
 14 103.851364 -52.951691 30.844069 1.191416 0.724397 2.610426
 15 0.492672 -33.874847 19.443977 0.000000 -0.000000 0.000000
 16 0.000015 -0.000011 -0.000013 -0.000000 0.000000 0.000000
 17 12.176291 -0.829269 23.085037 -0.330962 0.156863 0.008289
 18 23.438766 1.362869 -28.210800 0.622482 0.147093 -0.046223
 19 17.520050 -4.855545 -21.387665 -0.559663 -0.318451 0.327741
 20 6.597048 5.855782 -9.931351 0.000000 -0.000000 0.000000
 21 -0.072890 -1.214047 9.388046 0.000000 -0.000000 0.000000
 22 0.000010 -5.381660 -154.110352 -0.034538 -0.005058 -0.145357
 23 4.103848 8.412071 291.691650 0.000000 -0.000000 0.000000
time 29
  0 4.103848 9.021107 -175.746902 0.000000 -0.000000 0.000000
  1 -0.186268 0.167365 -1.425583 -0.113897 0.000000 0.000000
  2 0.923380 -2.004175 -52.426422 0.225500 -0.000000 0.000000
  3 0.209927 0.167365 2.417709 0.091527 0.000000 -0.000000
  4 -0.585070 71.233536 -54.342300 0.087266 0.000000 0.000000
  5 -0.737603 -0.548837 40.203690 -0.069813 0.000000 0.000000
  6 2.553308 7.297700 96.216125 0.000000 -0.000000 0.000000
  7 25.337772 -9.646730 2.086899 -0.000011 -0.139632 -0.000607
  8 -23.810329 -7.093719 2.086899 -0.226045 0.064723 0.026189
  9 -7.352506 52.005489 -48.397400 0.230558 0.000000 0.000000
 10 -0.684172 -0.276030 30.967377 0.000000 -0.000000 0.000000
 11 -13.534456 -1.160923 22.015213 3.019416 0.000000 0.000000
 12 -20.972828 -0.005867 -27.595062 -0.000000 0.209439 -0.000000
 13 -18.070221 -6.045794 -20.586182 2.577424 0.599609 -0.374444
 14 105.089058 -54.162086 30.855707 1.168684 0.723975 2.593185
 15 0.492676 -33.874847 19.443977 0.000000 -0.000000 -0.000000
 16 0.000016 -0.000011 -0.000011 -0.000000 0.000000 -0.000000
 17 12.176291 -0.829269 23.085022 -0.330962 0.156863 0.008289
 18 23.438763 1.362869 -28.210815 0.622483 0.147093 -0.046223
 19 17.520050 -4.855553 -21.387650 -0.559663 -0.318451 0.327741
 20 6.597044 5.855782 -9.931351 0.000000 -0.000000 0.000000
 21 -0.072890 -1.214048 9.388046 0.000000 -0.000000 0.000000
 22 0.000010 -5.381660 -154.110336 -0.034538 -0.005058 -0.145357
 23 4.103848 8.412071 291.691650 0.000000 -0.000000 0.000000
time 30
  0 4.103848 9.021107 -176.782486 0.000000 -0.000000 0.000000
  1 -0.186268 0.167365 -1.425583 -0.104720 0.000000 0.000000
  2 0.923380 -2.004173 -52.426407 0.209440 -0.000000 0.000000
  3 0.209927 0.167365 2.417709 0.087267 0.000000 0.000000
  4 -0.585070 71.233528 -54.342316 0.087266 0.000000 -0.000000
  5 -0.737603 -0.548838 40.203659 -0.069813 0.000000 0.000000
  6 2.553308 7.297700 96.216110 0.000000 -0.000000 0.000000
  7 25.337770 -9.646729 2.086884 -0.000011 -0.139632 -0.000607
  8 -23.810329 -7.093719 2.086899 -0.226045 0.064723 0.026189
  9 -7.352507 52.005482 -48.397385 0.261799 0.000000 0.000000
 10 -0.684172 -0.276030 30.967369 0.000000 -0.000000 0.000000
 11 -13.534456 -1.160920 22.015198 3.019416 0.000000 0.000000
 12 -20.972826 -0.005867 -27.595062 0.000000 0.209439 -0.000000
 13 -18.070221 -6.045794 -20.586166 2.577424 0.599609 -0.374444
 14 105.519325 -54.587460 30.859322 1.160684 0.723843 2.587118
 15 0.492679 -33.874851 19.443974 0.000000 -0.000000 0.000000
 16 0.000017 -0.000013 -0.000013 -0.000000 0.000000 -0.000000
 17 12.176291 -0.829268 23.085022 -0.330962 0.156863 0.008289
 18 23.438766 1.362865 -28.210800 0.622482 0.147093 -0.046223
 19 17.520050 -4.855545 -21.387665 -0.559663 -0.318451 0.327741
 20 6.597048 5.855782 -9.931351 0.000000 -0.000000 0.000000
 21 -0.072890 -1.214047 9.388031 0.000000 -0.000000 0.000000
 22 0.000010 -5.381660 -154.110336 -0.034538 -0.005058 -0.145357
 23 4.103848 8.412071 291.691650 0.000000 -0.000000 0.000000
end
