version 1
nodes
  0 "bone_27"  -1
  1 "bone_29"   0
  2 "bone_30"   1
  3 "bone_26"   0
  4 "bone_3"   3
  5 "bone_28"   3
  6 "bone_7"   5
  7 "bone_10"   5
  8 "bone_11"   5
  9 "bone_12"   5
 10 "bone_13"   5
 11 "bone_0"   3
 12 "bone_14"  11
 13 "bone_1"  12
 14 "bone_5"  13
 15 "bone_18"  13
 16 "bone_15"  13
 17 "bone_16"  16
 18 "bone_23"   3
 19 "bone_24"  18
 20 "bone_2"  19
 21 "bone_19"  20
 22 "bone_20"   3
 23 "bone_34"   0
 24 "bone_33"   0
 25 "bone_21"  -1
end
skeleton
time 0
  0 2.650860 -0.017416 127.640564 0.000000 0.000000 0.157080
  1 -0.186268 0.167365 -1.425583 0.209439 -0.000000 0.000000
  2 0.923380 -2.004173 -52.426407 -0.366519 -0.000000 0.000000
  3 0.209927 0.167365 2.417709 0.087267 0.000000 0.000000
  4 0.221454 70.430069 -54.272011 0.087266 0.000000 -0.000000
  5 -0.737603 -0.548837 40.203674 -0.070379 0.133015 -0.081757
  6 2.553314 7.297702 96.216125 0.000000 -0.000000 0.000000
  7 25.337776 -9.646731 2.086914 -0.000011 -0.139632 -0.000607
  8 -23.810326 -7.093720 2.086914 -0.226045 0.064723 0.026189
  9 -7.352509 52.005493 -48.397377 -0.168283 -0.043249 -0.051542
 10 -0.684172 -0.276030 30.967392 0.000000 -0.000000 0.000000
 11 -13.534457 -1.160922 22.015198 -1.658075 0.000000 -0.000000
 12 -20.972828 -0.005859 -27.595072 0.000000 0.209439 0.000000
 13 -18.070232 -6.045792 -20.586182 1.618406 -0.172146 -0.900554
 14 5.932732 -5.752625 0.181686 0.081626 0.974410 0.016749
 15 0.671974 2.506058 -6.693909 0.000000 -0.000000 0.000000
 16 18.407440 -176.793976 8.075241 -0.009445 0.966446 0.010673
 17 159.655533 207.705948 -43.129143 0.000000 0.000000 -0.000000
 18 12.176293 -0.829270 23.085022 -1.200580 -0.489028 -1.234559
 19 23.438759 1.362869 -28.210804 0.287996 0.520686 -0.354550
 20 17.520020 -4.855537 -21.387650 -0.559663 -0.318451 0.327741
 21 6.597046 5.855789 -9.931343 0.000000 -0.000000 0.000000
 22 -0.072890 -1.214047 9.388046 0.000000 -0.000000 0.000000
 23 0.000010 -5.381660 -154.110336 -0.034538 -0.005058 -0.145357
 24 0.000010 -5.381660 -154.110336 -0.034538 -0.005058 -0.145357
 25 2.650860 -0.017416 279.065491 0.000000 -0.000000 0.000000
time 1
  0 2.650860 -0.960247 127.640564 0.000000 0.000000 0.157080
  1 -0.186268 0.167365 -1.425583 0.208099 0.000201 -0.000017
  2 0.923380 -2.004175 -52.426414 -0.302950 -0.009860 -0.000917
  3 0.209927 0.167365 2.417709 0.089080 -0.000287 -0.000003
  4 -0.429624 66.298775 -53.853874 0.087266 0.000000 0.000000
  5 -0.737603 -0.548839 40.203674 -0.070379 0.133015 -0.081757
  6 2.553308 7.297701 96.216125 0.000000 -0.000000 0.000000
  7 25.337772 -9.646732 2.086884 -0.000011 -0.139632 -0.000607
  8 -23.810329 -7.093720 2.086899 -0.226045 0.064723 0.026189
  9 -7.352509 52.005489 -48.397385 -0.212043 -0.043216 -0.056168
 10 -0.684172 -0.276030 30.967377 0.000000 -0.000000 0.000000
 11 -13.534456 -1.160922 22.015182 -1.642959 -0.000764 0.000049
 12 -20.972828 -0.005859 -27.595076 -0.000000 0.209439 0.000000
 13 -18.070232 -6.045792 -20.586185 1.618406 -0.172146 -0.900554
 14 5.932724 -5.752617 0.181671 0.081626 0.974410 0.016749
 15 0.671982 2.506065 -6.693924 0.000000 -0.000000 0.000000
 16 18.407448 -176.793945 8.075226 -0.009445 0.966446 0.010673
 17 159.655518 207.705917 -43.129128 0.000000 0.000000 -0.000000
 18 12.176291 -0.829270 23.085007 -1.186094 -0.462247 -1.249525
 19 23.438759 1.362862 -28.210808 0.287996 0.520685 -0.354550
 20 17.520035 -4.855545 -21.387642 -0.559663 -0.318451 0.327741
 21 6.597031 5.855789 -9.931343 0.000000 -0.000000 0.000000
 22 -0.072890 -1.214048 9.388031 0.000000 -0.000000 0.000000
 23 0.000010 -5.381661 -154.110336 -0.034538 -0.005058 -0.145357
 24 0.000010 -5.381661 -154.110336 -0.034538 -0.005058 -0.145357
 25 2.650860 -0.017416 279.065491 0.000000 -0.000000 0.000000
time 2
  0 2.650860 -3.204321 127.640564 0.000000 0.000000 0.157080
  1 -0.186268 0.167365 -1.425583 0.201910 0.001159 -0.000076
  2 0.923381 -2.004171 -52.426399 -0.151648 -0.033327 -0.003099
  3 0.209926 0.167365 2.417709 0.093397 -0.000971 -0.000008
  4 -2.206850 55.109169 -52.720161 0.087266 0.000000 0.000000
  5 -0.737603 -0.548838 40.203659 -0.070379 0.133015 -0.081757
  6 2.553316 7.297700 96.216125 0.000000 -0.000000 0.000000
  7 25.337772 -9.646730 2.086899 -0.000011 -0.139632 -0.000607
  8 -23.810328 -7.093718 2.086899 -0.226045 0.064723 0.026189
  9 -7.352509 52.005482 -48.397400 -0.282687 -0.043128 -0.063469
 10 -0.684170 -0.276030 30.967377 0.000000 -0.000000 0.000000
 11 -13.534457 -1.160921 22.015198 -1.630224 -0.002583 0.000166
 12 -20.972828 -0.005875 -27.595074 -0.000000 0.209439 -0.000000
 13 -18.070230 -6.045776 -20.586185 1.618406 -0.172146 -0.900554
 14 5.932739 -5.752617 0.181671 0.081626 0.974409 0.016749
 15 0.671974 2.506065 -6.693939 0.000000 -0.000000 0.000000
 16 18.407463 -176.793915 8.075226 -0.009445 0.966446 0.010673
 17 159.655487 207.705902 -43.129150 -0.000000 0.000000 -0.000000
 18 12.176291 -0.829269 23.085022 -1.151613 -0.398502 -1.262080
 19 23.438763 1.362862 -28.210812 0.287996 0.520685 -0.354550
 20 17.520027 -4.855534 -21.387665 -0.559663 -0.318451 0.327741
 21 6.597038 5.855789 -9.931339 0.000000 -0.000000 0.000000
 22 -0.072890 -1.214048 9.388031 0.000000 -0.000000 0.000000
 23 0.000010 -5.381660 -154.110336 -0.034538 -0.005058 -0.145357
 24 0.000010 -5.381660 -154.110336 -0.034538 -0.005058 -0.145357
 25 2.650860 -0.017416 279.065491 0.000000 -0.000000 0.000000
time 3
  0 2.650860 -5.873012 127.640564 0.000000 0.000000 0.157080
  1 -0.186268 0.167366 -1.425583 0.187621 0.003403 -0.000185
  2 0.923380 -2.004174 -52.426407 0.028283 -0.061234 -0.005695
  3 0.209927 0.167365 2.417709 0.098531 -0.001784 -0.000016
  4 -4.846211 38.517097 -51.038689 0.087266 0.000000 0.000000
  5 -0.737603 -0.548838 40.203674 -0.070379 0.133015 -0.081757
  6 2.553310 7.297702 96.216156 0.000000 -0.000000 0.000000
  7 25.337774 -9.646732 2.086914 -0.000011 -0.139632 -0.000607
  8 -23.810326 -7.093721 2.086914 -0.226045 0.064723 0.026189
  9 -7.352509 52.005493 -48.397392 -0.371621 -0.043001 -0.072582
 10 -0.684170 -0.276030 30.967392 0.000000 -0.000000 0.000000
 11 -13.534458 -1.160923 22.015198 -1.620449 -0.004747 0.000306
 12 -20.972828 -0.005859 -27.595072 0.000000 0.209439 -0.000000
 13 -18.070229 -6.045807 -20.586178 1.618406 -0.172146 -0.900554
 14 5.932732 -5.752609 0.181671 0.081626 0.974410 0.016749
 15 0.671974 2.506065 -6.693909 0.000000 -0.000000 0.000000
 16 18.407463 -176.793930 8.075226 -0.009445 0.966446 0.010673
 17 159.655426 207.705887 -43.129150 -0.000000 0.000000 0.000000
 18 12.176292 -0.829269 23.085022 -1.110608 -0.322697 -1.271679
 19 23.438766 1.362862 -28.210804 0.287996 0.520685 -0.354550
 20 17.520027 -4.855537 -21.387665 -0.559663 -0.318451 0.327741
 21 6.597046 5.855789 -9.931343 0.000000 -0.000000 0.000000
 22 -0.072890 -1.214047 9.388031 0.000000 -0.000000 0.000000
 23 0.000010 -5.381660 -154.110336 -0.034538 -0.005058 -0.145357
 24 0.000010 -5.381660 -154.110336 -0.034538 -0.005058 -0.145357
 25 2.650860 -0.017416 279.065491 0.000000 -0.000000 0.000000
time 4
  0 2.650860 -8.089692 127.640564 0.000000 0.000000 0.157080
  1 -0.186268 0.167364 -1.425583 0.161979 0.007465 -0.000356
  2 0.923380 -2.004172 -52.426407 0.177739 -0.084415 -0.007850
  3 0.209927 0.167364 2.417709 0.102795 -0.002459 -0.000021
  4 -8.083704 18.178391 -48.977348 0.087266 0.000000 0.000000
  5 -0.737603 -0.548838 40.203674 -0.070379 0.133015 -0.081757
  6 2.553312 7.297701 96.216141 0.000000 -0.000000 0.000000
  7 25.337778 -9.646732 2.086914 -0.000011 -0.139632 -0.000607
  8 -23.810328 -7.093721 2.086914 -0.226045 0.064723 0.026189
  9 -7.352510 52.005489 -48.397377 -0.470251 -0.042850 -0.082642
 10 -0.684172 -0.276031 30.967377 0.000000 -0.000000 0.000000
 11 -13.534458 -1.160922 22.015213 -1.614217 -0.006544 0.000422
 12 -20.972832 -0.005875 -27.595076 -0.000000 0.209439 0.000000
 13 -18.070232 -6.045792 -20.586189 1.618406 -0.172146 -0.900554
 14 5.932739 -5.752625 0.181671 0.081626 0.974409 0.016749
 15 0.671982 2.506065 -6.693924 0.000000 -0.000000 0.000000
 16 18.407440 -176.793976 8.075241 -0.009445 0.966446 0.010673
 17 159.655502 207.705963 -43.129135 0.000000 0.000000 -0.000000
 18 12.176291 -0.829270 23.085022 -1.076549 -0.259730 -1.277779
 19 23.438766 1.362854 -28.210815 0.287996 0.520685 -0.354550
 20 17.520027 -4.855537 -21.387657 -0.559663 -0.318451 0.327741
 21 6.597046 5.855797 -9.931351 0.000000 -0.000000 0.000000
 22 -0.072890 -1.214047 9.388046 0.000000 -0.000000 0.000000
 23 0.000010 -5.381660 -154.110336 -0.034538 -0.005058 -0.145357
 24 0.000010 -5.381660 -154.110336 -0.034538 -0.005058 -0.145357
 25 2.650860 -0.017416 279.065491 0.000000 -0.000000 0.000000
time 5
  0 2.650860 -8.966718 127.640564 0.000000 0.000000 0.157080
  1 -0.186268 0.167364 -1.425583 0.121655 0.013886 -0.000602
  2 0.923381 -2.004175 -52.426422 0.237536 -0.093689 -0.008712
  3 0.209926 0.167364 2.417709 0.104505 -0.002730 -0.000024
  4 -11.655321 -4.251172 -46.703987 0.087266 0.000000 0.000000
  5 -0.737603 -0.548840 40.203659 -0.070379 0.133015 -0.081757
  6 2.553310 7.297701 96.216095 0.000000 -0.000000 0.000000
  7 25.337772 -9.646730 2.086899 -0.000011 -0.139632 -0.000607
  8 -23.810328 -7.093718 2.086899 -0.226045 0.064723 0.026189
  9 -7.352509 52.005489 -48.397392 -0.569982 -0.042692 -0.092786
 10 -0.684172 -0.276030 30.967361 0.000000 -0.000000 0.000000
 11 -13.534457 -1.160922 22.015182 -1.612425 -0.007225 0.000442
 12 -20.972824 -0.005859 -27.595074 -0.000000 0.209439 -0.000000
 13 -18.070230 -6.045807 -20.586182 1.618406 -0.172146 -0.900554
 14 5.932732 -5.752617 0.181671 0.081626 0.974410 0.016749
 15 0.671997 2.506065 -6.693924 0.000000 -0.000000 0.000000
 16 18.407440 -176.793930 8.075195 -0.009445 0.966446 0.010673
 17 159.655457 207.705917 -43.129105 -0.000000 0.000000 -0.000000
 18 12.176291 -0.829270 23.085007 -1.063275 -0.234745 -1.279553
 19 23.438759 1.362854 -28.210815 0.287996 0.520685 -0.354550
 20 17.520027 -4.855534 -21.387657 -0.559663 -0.318451 0.327741
 21 6.597038 5.855797 -9.931347 0.000000 -0.000000 0.000000
 22 -0.072890 -1.214048 9.388031 0.000000 -0.000000 0.000000
 23 0.000011 -5.381660 -154.110336 -0.034538 -0.005058 -0.145357
 24 0.000011 -5.381660 -154.110336 -0.034538 -0.005058 -0.145357
 25 2.650860 -0.017416 279.065491 0.000000 -0.000000 0.000000
time 6
  0 2.650860 1.354520 127.640564 0.000000 0.000000 0.157080
  1 -0.186268 0.167365 -1.425583 0.002483 0.032056 -0.004988
  2 0.923380 -2.004174 -52.426407 0.110107 -0.073957 -0.005867
  3 0.209927 0.167365 2.417709 0.104420 -0.002717 -0.000024
  4 -15.297066 -27.115780 -44.386459 0.087266 0.000000 0.000000
  5 -0.737603 -0.548837 40.203674 -0.070379 0.133015 -0.081757
  6 2.553312 7.297703 96.216141 0.000000 -0.000000 0.000000
  7 25.337778 -9.646732 2.086929 -0.000011 -0.139632 -0.000607
  8 -23.810324 -7.093719 2.086929 -0.226045 0.064723 0.026189
  9 -7.352505 52.005489 -48.397369 -0.662220 -0.042541 -0.102151
 10 -0.684172 -0.276029 30.967392 0.000000 -0.000000 0.000000
 11 -13.534458 -1.160922 22.015182 -1.884947 0.027050 -0.021859
 12 -20.972828 -0.005859 -27.595074 -0.000000 0.209439 0.000000
 13 -18.070230 -6.045807 -20.586174 1.618406 -0.172146 -0.900554
 14 5.932724 -5.752609 0.181656 0.081626 0.974410 0.016749
 15 0.671974 2.506073 -6.693924 0.000000 -0.000000 0.000000
 16 18.407455 -176.793915 8.075241 -0.009445 0.966446 0.010673
 17 159.655487 207.705902 -43.129112 0.000000 -0.000000 -0.000000
 18 12.176291 -0.829268 23.085022 -1.393806 -0.465434 -1.034100
 19 23.438759 1.362869 -28.210812 0.287996 0.520685 -0.354550
 20 17.520035 -4.855560 -21.387665 -0.559663 -0.318451 0.327741
 21 6.597038 5.855782 -9.931345 0.000000 -0.000000 0.000000
 22 -0.072890 -1.214047 9.388031 0.000000 -0.000000 0.000000
 23 0.000010 -5.381660 -154.110336 -0.034538 -0.005058 -0.145357
 24 0.000010 -5.381660 -154.110336 -0.034538 -0.005058 -0.145357
 25 2.650860 -0.017416 279.065491 0.000000 -0.000000 0.000000
time 7
  0 2.650860 20.146357 127.640564 0.000000 0.000000 0.157080
  1 -0.186268 0.167366 -1.425583 -0.166358 0.057458 -0.012695
  2 0.923380 -2.004174 -52.426414 -0.123237 -0.037821 -0.000688
  3 0.209927 0.167366 2.417709 0.104183 -0.002679 -0.000023
  4 -18.744934 -48.759655 -42.192627 0.087266 0.000000 -0.000000
  5 -0.737603 -0.548840 40.203667 -0.070379 0.133015 -0.081757
  6 2.553312 7.297701 96.216125 0.000000 -0.000000 0.000000
  7 25.337776 -9.646733 2.086884 -0.000011 -0.139632 -0.000607
  8 -23.810326 -7.093721 2.086899 -0.226045 0.064723 0.026189
  9 -7.352509 52.005493 -48.397400 -0.738372 -0.042415 -0.109871
 10 -0.684170 -0.276031 30.967377 0.000000 -0.000000 0.000000
 11 -13.534456 -1.160921 22.015190 -2.381126 0.089454 -0.062462
 12 -20.972826 -0.005875 -27.595070 -0.000000 0.209439 0.000000
 13 -18.070227 -6.045792 -20.586189 1.618406 -0.172146 -0.900554
 14 5.932728 -5.752625 0.181671 0.081626 0.974410 0.016749
 15 0.671974 2.506058 -6.693924 0.000000 -0.000000 0.000000
 16 18.407429 -176.793930 8.075233 -0.009445 0.966446 0.010673
 17 159.655487 207.705917 -43.129128 -0.000000 0.000000 -0.000000
 18 12.176291 -0.829269 23.085030 -1.995602 -0.885449 -0.587203
 19 23.438759 1.362869 -28.210812 0.287996 0.520685 -0.354550
 20 17.520050 -4.855539 -21.387665 -0.559663 -0.318451 0.327741
 21 6.597031 5.855789 -9.931343 0.000000 -0.000000 0.000000
 22 -0.072890 -1.214046 9.388039 0.000000 -0.000000 0.000000
 23 0.000010 -5.381660 -154.110336 -0.034538 -0.005058 -0.145357
 24 0.000010 -5.381660 -154.110336 -0.034538 -0.005058 -0.145357
 25 2.650860 -0.017416 279.065491 0.000000 -0.000000 0.000000
time 8
  0 2.650860 31.464148 127.640564 0.000000 0.000000 0.157080
  1 -0.186268 0.167366 -1.425583 -0.262414 0.071858 -0.017305
  2 0.923380 -2.004174 -52.426407 -0.267576 -0.015463 0.002431
  3 0.209926 0.167366 2.417709 0.103808 -0.002620 -0.000023
  4 -21.734921 -67.527008 -40.290291 0.087266 0.000000 0.000000
  5 -0.737603 -0.548840 40.203659 -0.070379 0.133015 -0.081757
  6 2.553314 7.297695 96.216125 0.000000 -0.000000 0.000000
  7 25.337776 -9.646734 2.086899 -0.000011 -0.139632 -0.000607
  8 -23.810328 -7.093721 2.086899 -0.226045 0.064723 0.026189
  9 -7.352510 52.005489 -48.397392 -0.789844 -0.042329 -0.115084
 10 -0.684172 -0.276031 30.967377 0.000000 -0.000000 0.000000
 11 -13.534456 -1.160923 22.015198 -2.679961 0.127038 -0.086916
 12 -20.972828 -0.005859 -27.595085 0.000000 0.209439 0.000000
 13 -18.070232 -6.045799 -20.586197 1.618406 -0.172146 -0.900554
 14 5.932732 -5.752625 0.181679 0.081626 0.974410 0.016749
 15 0.671982 2.506058 -6.693909 0.000000 -0.000000 0.000000
 16 18.407440 -176.793945 8.075233 -0.009445 0.966446 0.010673
 17 159.655487 207.705872 -43.129139 -0.000000 0.000000 0.000000
 18 12.176291 -0.829266 23.085022 -2.358046 -1.138412 -0.318050
 19 23.438766 1.362854 -28.210812 0.287996 0.520685 -0.354550
 20 17.520035 -4.855540 -21.387661 -0.559663 -0.318451 0.327741
 21 6.597046 5.855789 -9.931343 0.000000 -0.000000 0.000000
 22 -0.072889 -1.214046 9.388031 0.000000 -0.000000 0.000000
 23 0.000010 -5.381659 -154.110336 -0.034538 -0.005058 -0.145357
 24 0.000010 -5.381659 -154.110336 -0.034538 -0.005058 -0.145357
 25 2.650860 -0.017416 279.065491 0.000000 -0.000000 0.000000
time 9
  0 2.650860 31.413734 127.640564 0.000000 0.000000 0.157080
  1 -0.186268 0.167366 -1.425583 -0.260946 0.071633 -0.017262
  2 0.923380 -2.004174 -52.426407 -0.276205 -0.014114 0.002448
  3 0.209927 0.167366 2.417709 0.103308 -0.002541 -0.000022
  4 -24.003036 -81.762024 -38.847374 0.087266 0.000000 0.000000
  5 -0.737603 -0.548836 40.203674 -0.070379 0.133015 -0.081757
  6 2.553312 7.297699 96.216125 0.000000 -0.000000 0.000000
  7 25.337774 -9.646732 2.086899 -0.000011 -0.139632 -0.000607
  8 -23.810324 -7.093723 2.086899 -0.226045 0.064723 0.026189
  9 -7.352507 52.005493 -48.397385 -0.808057 -0.042298 -0.116927
 10 -0.684172 -0.276031 30.967361 0.000000 -0.000000 0.000000
 11 -13.534458 -1.160919 22.015198 -2.677678 0.126758 -0.086713
 12 -20.972830 -0.005859 -27.595070 -0.000000 0.209439 -0.000000
 13 -18.070232 -6.045792 -20.586166 1.618406 -0.172146 -0.900554
 14 5.932732 -5.752625 0.181679 0.081626 0.974410 0.016749
 15 0.671982 2.506058 -6.693924 0.000000 -0.000000 0.000000
 16 18.407452 -176.793976 8.075256 -0.009445 0.966446 0.010673
 17 159.655518 207.705948 -43.129124 0.000000 0.000000 0.000000
 18 12.176292 -0.829269 23.085037 -2.355687 -1.137556 -0.320087
 19 23.438766 1.362854 -28.210806 0.287996 0.520685 -0.354550
 20 17.520035 -4.855539 -21.387657 -0.559663 -0.318451 0.327741
 21 6.597046 5.855789 -9.931347 0.000000 -0.000000 0.000000
 22 -0.072891 -1.214046 9.388046 0.000000 -0.000000 0.000000
 23 0.000010 -5.381659 -154.110336 -0.034538 -0.005058 -0.145357
 24 0.000010 -5.381659 -154.110336 -0.034538 -0.005058 -0.145357
 25 2.650860 -0.017416 279.065491 0.000000 -0.000000 0.000000
time 10
  0 2.650860 30.895485 127.640564 0.000000 0.000000 0.157080
  1 -0.186267 0.167368 -1.425583 -0.253190 0.070451 -0.016977
  2 0.923380 -2.004173 -52.426399 -0.283380 -0.012992 0.002408
  3 0.209927 0.167366 2.417709 0.102696 -0.002444 -0.000021
  4 -25.285248 -89.808846 -38.031708 0.087266 0.000000 -0.000000
  5 -0.737603 -0.548840 40.203674 -0.070379 0.133015 -0.081757
  6 2.553310 7.297701 96.216110 0.000000 -0.000000 0.000000
  7 25.337772 -9.646730 2.086914 -0.000011 -0.139632 -0.000607
  8 -23.810326 -7.093721 2.086914 -0.226045 0.064723 0.026189
  9 -7.352509 52.005486 -48.397385 -0.803598 -0.042304 -0.116471
 10 -0.684170 -0.276031 30.967377 0.000000 -0.000000 0.000000
 11 -13.534457 -1.160923 22.015198 -2.660866 0.124668 -0.085283
 12 -20.972828 -0.005867 -27.595070 0.000000 0.209439 0.000000
 13 -18.070236 -6.045799 -20.586197 1.618406 -0.172146 -0.900554
 14 5.932735 -5.752640 0.181671 0.081626 0.974410 0.016749
 15 0.671978 2.506058 -6.693924 0.000000 -0.000000 0.000000
 16 18.407436 -176.794006 8.075226 -0.009445 0.966446 0.010673
 17 159.655487 207.706024 -43.129135 0.000000 0.000000 -0.000000
 18 12.176293 -0.829269 23.085022 -2.336641 -1.126863 -0.335165
 19 23.438751 1.362862 -28.210808 0.287996 0.520685 -0.354550
 20 17.520050 -4.855536 -21.387661 -0.559663 -0.318451 0.327741
 21 6.597046 5.855793 -9.931343 0.000000 -0.000000 0.000000
 22 -0.072890 -1.214046 9.388046 0.000000 -0.000000 0.000000
 23 0.000011 -5.381659 -154.110336 -0.034538 -0.005058 -0.145357
 24 0.000011 -5.381659 -154.110336 -0.034538 -0.005058 -0.145357
 25 2.650860 -0.017416 279.065491 0.000000 -0.000000 0.000000
time 11
  0 2.650860 30.051016 127.640564 0.000000 0.000000 0.157080
  1 -0.186267 0.167366 -1.425583 -0.240552 0.068527 -0.016513
  2 0.923381 -2.004177 -52.426414 -0.290383 -0.011896 0.002342
  3 0.209927 0.167366 2.417709 0.101985 -0.002331 -0.000020
  4 -25.430847 -90.722260 -37.939117 0.087266 0.000000 -0.000000
  5 -0.737603 -0.548836 40.203667 -0.070379 0.133015 -0.081757
  6 2.553314 7.297697 96.216141 0.000000 -0.000000 0.000000
  7 25.337774 -9.646732 2.086914 -0.000011 -0.139632 -0.000607
  8 -23.810329 -7.093721 2.086929 -0.226045 0.064723 0.026189
  9 -7.352507 52.005493 -48.397377 -0.791310 -0.042323 -0.115216
 10 -0.684174 -0.276031 30.967392 0.000000 -0.000000 0.000000
 11 -13.534456 -1.160919 22.015190 -2.633473 0.121262 -0.082954
 12 -20.972828 -0.005867 -27.595078 -0.000000 0.209439 -0.000000
 13 -18.070232 -6.045784 -20.586182 1.618406 -0.172146 -0.900554
 14 5.932732 -5.752609 0.181671 0.081626 0.974410 0.016749
 15 0.671982 2.506073 -6.693924 0.000000 -0.000000 0.000000
 16 18.407448 -176.793930 8.075218 -0.009445 0.966446 0.010673
 17 159.655487 207.705933 -43.129120 -0.000000 -0.000000 -0.000000
 18 12.176291 -0.829269 23.085030 -2.305606 -1.109438 -0.359734
 19 23.438766 1.362862 -28.210808 0.287996 0.520685 -0.354550
 20 17.520035 -4.855533 -21.387653 -0.559663 -0.318451 0.327741
 21 6.597031 5.855793 -9.931343 0.000000 -0.000000 0.000000
 22 -0.072890 -1.214043 9.388039 0.000000 -0.000000 0.000000
 23 0.000010 -5.381659 -154.110336 -0.034538 -0.005058 -0.145357
 24 0.000010 -5.381659 -154.110336 -0.034538 -0.005058 -0.145357
 25 2.650860 -0.017416 279.065491 0.000000 -0.000000 0.000000
time 12
  0 2.650860 28.916388 127.640564 0.000000 0.000000 0.157080
  1 -0.186268 0.167366 -1.425583 -0.223572 0.065941 -0.015890
  2 0.923381 -2.004176 -52.426399 -0.297197 -0.010830 0.002254
  3 0.209927 0.167366 2.417709 0.101189 -0.002205 -0.000019
  4 -25.058146 -88.380867 -38.176422 0.087266 0.000000 -0.000000
  5 -0.737603 -0.548840 40.203674 -0.070379 0.133015 -0.081757
  6 2.553312 7.297699 96.216110 0.000000 -0.000000 0.000000
  7 25.337772 -9.646732 2.086914 -0.000011 -0.139632 -0.000607
  8 -23.810328 -7.093721 2.086899 -0.226045 0.064723 0.026189
  9 -7.352507 52.005493 -48.397385 -0.772021 -0.042351 -0.113244
 10 -0.684172 -0.276031 30.967377 0.000000 -0.000000 0.000000
 11 -13.534456 -1.160923 22.015198 -2.596666 0.116687 -0.079823
 12 -20.972832 -0.005859 -27.595078 -0.000000 0.209439 -0.000000
 13 -18.070232 -6.045807 -20.586166 1.618406 -0.172146 -0.900554
 14 5.932735 -5.752625 0.181671 0.081626 0.974410 0.016749
 15 0.671986 2.506058 -6.693916 0.000000 -0.000000 0.000000
 16 18.407475 -176.793961 8.075272 -0.009445 0.966446 0.010673
 17 159.655502 207.705933 -43.129120 0.000000 0.000000 -0.000000
 18 12.176292 -0.829269 23.085022 -2.263908 -1.086027 -0.392746
 19 23.438751 1.362862 -28.210808 0.287996 0.520685 -0.354550
 20 17.520035 -4.855541 -21.387665 -0.559663 -0.318451 0.327741
 21 6.597031 5.855789 -9.931343 0.000000 -0.000000 0.000000
 22 -0.072891 -1.214050 9.388031 0.000000 -0.000000 0.000000
 23 0.000010 -5.381659 -154.110336 -0.034538 -0.005058 -0.145357
 24 0.000010 -5.381659 -154.110336 -0.034538 -0.005058 -0.145357
 25 2.650860 -0.017416 279.065491 0.000000 -0.000000 0.000000
time 13
  0 2.650860 27.527655 127.640564 0.000000 0.000000 0.157080
  1 -0.186268 0.167364 -1.425583 -0.202788 0.062776 -0.015128
  2 0.923379 -2.004173 -52.426414 -0.303803 -0.009797 0.002146
  3 0.209926 0.167366 2.417709 0.100320 -0.002068 -0.000018
  4 -24.340052 -83.869659 -38.633644 0.087266 0.000000 0.000000
  5 -0.737602 -0.548836 40.203674 -0.070379 0.133015 -0.081757
  6 2.553310 7.297699 96.216110 0.000000 -0.000000 0.000000
  7 25.337774 -9.646732 2.086914 -0.000011 -0.139632 -0.000607
  8 -23.810326 -7.093723 2.086914 -0.226045 0.064723 0.026189
  9 -7.352509 52.005486 -48.397385 -0.746555 -0.042389 -0.110642
 10 -0.684170 -0.276031 30.967392 0.000000 -0.000000 0.000000
 11 -13.534457 -1.160919 22.015198 -2.551616 0.111086 -0.075992
 12 -20.972828 -0.005867 -27.595070 -0.000000 0.209439 -0.000000
 13 -18.070230 -6.045799 -20.586197 1.618406 -0.172146 -0.900554
 14 5.932728 -5.752625 0.181671 0.081626 0.974410 0.016749
 15 0.671970 2.506073 -6.693909 0.000000 -0.000000 0.000000
 16 18.407452 -176.793945 8.075241 -0.009445 0.966446 0.010673
 17 159.655487 207.705948 -43.129135 0.000000 0.000000 -0.000000
 18 12.176292 -0.829269 23.085022 -2.212872 -1.057373 -0.433150
 19 23.438751 1.362862 -28.210800 0.287996 0.520685 -0.354550
 20 17.520020 -4.855541 -21.387653 -0.559663 -0.318451 0.327741
 21 6.597046 5.855785 -9.931347 0.000000 -0.000000 0.000000
 22 -0.072890 -1.214046 9.388031 0.000000 -0.000000 0.000000
 23 0.000010 -5.381659 -154.110336 -0.034538 -0.005058 -0.145357
 24 0.000010 -5.381659 -154.110336 -0.034538 -0.005058 -0.145357
 25 2.650860 -0.017416 279.065491 0.000000 -0.000000 0.000000
time 14
  0 2.650860 25.920879 127.640564 0.000000 0.000000 0.157080
  1 -0.186267 0.167366 -1.425583 -0.178742 0.059114 -0.014245
  2 0.923380 -2.004173 -52.426399 -0.310182 -0.008800 0.002020
  3 0.209927 0.167368 2.417709 0.099392 -0.001921 -0.000017
  4 -23.318348 -77.451134 -39.284157 0.087266 0.000000 -0.000000
  5 -0.737604 -0.548840 40.203659 -0.070379 0.133015 -0.081757
  6 2.553310 7.297699 96.216095 0.000000 -0.000000 0.000000
  7 25.337772 -9.646730 2.086899 -0.000011 -0.139632 -0.000608
  8 -23.810326 -7.093719 2.086899 -0.226045 0.064723 0.026189
  9 -7.352509 52.005478 -48.397385 -0.715737 -0.042435 -0.107492
 10 -0.684174 -0.276028 30.967377 0.000000 -0.000000 0.000000
 11 -13.534457 -1.160923 22.015213 -2.499494 0.104606 -0.071559
 12 -20.972828 -0.005867 -27.595070 0.000000 0.209439 -0.000000
 13 -18.070229 -6.045807 -20.586182 1.618406 -0.172146 -0.900554
 14 5.932735 -5.752625 0.181679 0.081626 0.974410 0.016749
 15 0.671982 2.506058 -6.693924 0.000000 -0.000000 0.000000
 16 18.407455 -176.793945 8.075241 -0.009445 0.966446 0.010673
 17 159.655472 207.705902 -43.129074 0.000000 -0.000000 -0.000000
 18 12.176291 -0.829269 23.085022 -2.153822 -1.024220 -0.479898
 19 23.438766 1.362862 -28.210814 0.287996 0.520685 -0.354550
 20 17.520020 -4.855537 -21.387665 -0.559663 -0.318451 0.327741
 21 6.597046 5.855789 -9.931347 0.000000 -0.000000 0.000000
 22 -0.072890 -1.214046 9.388031 0.000000 -0.000000 0.000000
 23 0.000010 -5.381660 -154.110336 -0.034538 -0.005058 -0.145357
 24 0.000010 -5.381660 -154.110336 -0.034538 -0.005058 -0.145357
 25 2.650860 -0.017416 279.065491 0.000000 -0.000000 0.000000
time 15
  0 2.650860 24.132120 127.640564 0.000000 0.000000 0.157080
  1 -0.186268 0.167366 -1.425583 -0.151972 0.055037 -0.013263
  2 0.923381 -2.004177 -52.426414 -0.316317 -0.007841 0.001881
  3 0.209927 0.167366 2.417709 0.098419 -0.001766 -0.000015
  4 -22.034822 -69.387825 -40.101387 0.087266 0.000000 0.000000
  5 -0.737603 -0.548840 40.203667 -0.070379 0.133015 -0.081757
  6 2.553308 7.297701 96.216125 0.000000 -0.000000 0.000000
  7 25.337776 -9.646732 2.086884 -0.000011 -0.139632 -0.000607
  8 -23.810326 -7.093721 2.086884 -0.226045 0.064723 0.026189
  9 -7.352509 52.005486 -48.397392 -0.680393 -0.042488 -0.103880
 10 -0.684172 -0.276030 30.967361 0.000000 -0.000000 0.000000
 11 -13.534457 -1.160919 22.015190 -2.441468 0.097392 -0.066625
 12 -20.972828 -0.005867 -27.595078 -0.000000 0.209439 0.000000
 13 -18.070232 -6.045784 -20.586166 1.618406 -0.172146 -0.900554
 14 5.932732 -5.752625 0.181671 0.081626 0.974410 0.016749
 15 0.671978 2.506058 -6.693924 0.000000 -0.000000 0.000000
 16 18.407475 -176.793976 8.075256 -0.009445 0.966446 0.010673
 17 159.655457 207.705872 -43.129166 -0.000000 -0.000000 -0.000000
 18 12.176292 -0.829269 23.085030 -2.088084 -0.987312 -0.531941
 19 23.438759 1.362862 -28.210808 0.287996 0.520685 -0.354550
 20 17.520020 -4.855537 -21.387661 -0.559663 -0.318451 0.327741
 21 6.597031 5.855793 -9.931347 0.000000 -0.000000 0.000000
 22 -0.072890 -1.214046 9.388039 0.000000 -0.000000 0.000000
 23 0.000010 -5.381659 -154.110336 -0.034538 -0.005058 -0.145357
 24 0.000010 -5.381659 -154.110336 -0.034538 -0.005058 -0.145357
 25 2.650860 -0.017416 279.065491 0.000000 -0.000000 0.000000
time 16
  0 2.650860 22.197433 127.640564 0.000000 0.000000 0.157080
  1 -0.186268 0.167366 -1.425583 -0.123019 0.050628 -0.012200
  2 0.923381 -2.004173 -52.426407 -0.322189 -0.006923 0.001730
  3 0.209927 0.167366 2.417709 0.097412 -0.001607 -0.000014
  4 -20.531265 -59.942215 -41.058708 0.087266 0.000000 -0.000000
  5 -0.737603 -0.548840 40.203674 -0.070379 0.133015 -0.081757
  6 2.553307 7.297701 96.216125 0.000000 -0.000000 0.000000
  7 25.337770 -9.646730 2.086914 -0.000011 -0.139632 -0.000607
  8 -23.810322 -7.093719 2.086914 -0.226045 0.064723 0.026189
  9 -7.352507 52.005482 -48.397377 -0.641347 -0.042546 -0.099889
 10 -0.684170 -0.276031 30.967377 0.000000 -0.000000 0.000000
 11 -13.534455 -1.160923 22.015182 -2.378708 0.089590 -0.061287
 12 -20.972828 -0.005859 -27.595078 0.000000 0.209439 0.000000
 13 -18.070227 -6.045792 -20.586182 1.618406 -0.172146 -0.900554
 14 5.932735 -5.752609 0.181664 0.081626 0.974410 0.016749
 15 0.671982 2.506073 -6.693924 0.000000 -0.000000 0.000000
 16 18.407425 -176.793961 8.075233 -0.009445 0.966446 0.010673
 17 159.655502 207.705994 -43.129120 -0.000000 0.000000 -0.000000
 18 12.176291 -0.829273 23.085022 -2.016984 -0.947393 -0.588230
 19 23.438766 1.362854 -28.210815 0.287996 0.520685 -0.354550
 20 17.520050 -4.855536 -21.387665 -0.559663 -0.318451 0.327741
 21 6.597061 5.855789 -9.931347 0.000000 -0.000000 0.000000
 22 -0.072891 -1.214050 9.388046 0.000000 -0.000000 0.000000
 23 0.000010 -5.381659 -154.110336 -0.034538 -0.005058 -0.145357
 24 0.000010 -5.381659 -154.110336 -0.034538 -0.005058 -0.145357
 25 2.650860 -0.017416 279.065491 0.000000 -0.000000 0.000000
time 17
  0 2.650860 20.152880 127.640564 0.000000 0.000000 0.157080
  1 -0.186268 0.167366 -1.425583 -0.092421 0.045969 -0.011077
  2 0.923380 -2.004177 -52.426407 -0.327780 -0.006050 0.001571
  3 0.209927 0.167366 2.417709 0.096386 -0.001444 -0.000013
  4 -18.849464 -49.376827 -42.129517 0.087266 0.000000 -0.000000
  5 -0.737603 -0.548840 40.203674 -0.070379 0.133015 -0.081757
  6 2.553308 7.297703 96.216156 0.000000 -0.000000 0.000000
  7 25.337772 -9.646730 2.086929 -0.000011 -0.139632 -0.000607
  8 -23.810326 -7.093719 2.086899 -0.226045 0.064723 0.026189
  9 -7.352507 52.005489 -48.397385 -0.599426 -0.042608 -0.095605
 10 -0.684172 -0.276030 30.967392 0.000000 -0.000000 0.000000
 11 -13.534456 -1.160921 22.015182 -2.312384 0.081345 -0.055646
 12 -20.972828 -0.005875 -27.595078 0.000000 0.209439 -0.000000
 13 -18.070230 -6.045792 -20.586182 1.618406 -0.172146 -0.900554
 14 5.932732 -5.752625 0.181679 0.081626 0.974410 0.016749
 15 0.671982 2.506073 -6.693916 0.000000 -0.000000 0.000000
 16 18.407471 -176.793961 8.075249 -0.009445 0.966446 0.010673
 17 159.655518 207.705948 -43.129150 -0.000000 0.000000 -0.000000
 18 12.176291 -0.829269 23.085022 -1.941846 -0.905207 -0.647715
 19 23.438766 1.362862 -28.210814 0.287996 0.520685 -0.354550
 20 17.520035 -4.855541 -21.387665 -0.559663 -0.318451 0.327741
 21 6.597031 5.855789 -9.931343 0.000000 -0.000000 0.000000
 22 -0.072890 -1.214046 9.388031 0.000000 -0.000000 0.000000
 23 0.000010 -5.381660 -154.110336 -0.034538 -0.005058 -0.145357
 24 0.000010 -5.381660 -154.110336 -0.034538 -0.005058 -0.145357
 25 2.650860 -0.017416 279.065491 0.000000 -0.000000 0.000000
time 18
  0 2.650860 18.034517 127.640564 0.000000 0.000000 0.157080
  1 -0.186268 0.167366 -1.425583 -0.060718 0.041141 -0.009914
  2 0.923380 -2.004174 -52.426414 -0.333070 -0.005223 0.001406
  3 0.209927 0.167366 2.417709 0.095353 -0.001281 -0.000011
  4 -17.031199 -37.954170 -43.287209 0.087266 0.000000 0.000000
  5 -0.737603 -0.548840 40.203667 -0.070379 0.133015 -0.081757
  6 2.553312 7.297701 96.216125 0.000000 -0.000000 0.000000
  7 25.337776 -9.646730 2.086899 -0.000011 -0.139632 -0.000607
  8 -23.810329 -7.093719 2.086899 -0.226045 0.064723 0.026189
  9 -7.352509 52.005486 -48.397392 -0.555455 -0.042673 -0.091111
 10 -0.684170 -0.276030 30.967377 0.000000 -0.000000 0.000000
 11 -13.534456 -1.160923 22.015190 -2.243666 0.072802 -0.049802
 12 -20.972830 -0.005875 -27.595070 -0.000000 0.209439 0.000000
 13 -18.070232 -6.045792 -20.586174 1.618406 -0.172146 -0.900554
 14 5.932724 -5.752609 0.181671 0.081626 0.974410 0.016749
 15 0.671974 2.506073 -6.693916 0.000000 -0.000000 0.000000
 16 18.407455 -176.793945 8.075241 -0.009445 0.966446 0.010673
 17 159.655487 207.705933 -43.129166 -0.000000 0.000000 -0.000000
 18 12.176291 -0.829269 23.085014 -1.863996 -0.861499 -0.709347
 19 23.438759 1.362862 -28.210810 0.287996 0.520685 -0.354550
 20 17.520035 -4.855530 -21.387672 -0.559663 -0.318451 0.327741
 21 6.597061 5.855789 -9.931351 0.000000 -0.000000 0.000000
 22 -0.072890 -1.214048 9.388039 0.000000 -0.000000 0.000000
 23 0.000011 -5.381660 -154.110336 -0.034538 -0.005058 -0.145357
 24 0.000011 -5.381660 -154.110336 -0.034538 -0.005058 -0.145357
 25 2.650860 -0.017416 279.065491 0.000000 -0.000000 0.000000
time 19
  0 2.650860 15.878407 127.640564 0.000000 0.000000 0.157080
  1 -0.186268 0.167364 -1.425583 -0.028451 0.036227 -0.008730
  2 0.923381 -2.004176 -52.426399 -0.338043 -0.004446 0.001238
  3 0.209927 0.167365 2.417709 0.094328 -0.001118 -0.000010
  4 -15.118262 -25.936760 -44.505180 0.087266 0.000000 -0.000000
  5 -0.737603 -0.548840 40.203674 -0.070379 0.133015 -0.081757
  6 2.553310 7.297701 96.216141 0.000000 -0.000000 0.000000
  7 25.337778 -9.646730 2.086899 -0.000011 -0.139632 -0.000607
  8 -23.810328 -7.093719 2.086899 -0.226045 0.064723 0.026189
  9 -7.352510 52.005489 -48.397392 -0.510259 -0.042740 -0.086492
 10 -0.684172 -0.276030 30.967377 0.000000 -0.000000 0.000000
 11 -13.534457 -1.160923 22.015198 -2.173723 0.064106 -0.043854
 12 -20.972824 -0.005859 -27.595074 0.000000 0.209439 0.000000
 13 -18.070232 -6.045792 -20.586174 1.618406 -0.172146 -0.900554
 14 5.932732 -5.752625 0.181671 0.081626 0.974410 0.016749
 15 0.671974 2.506065 -6.693924 0.000000 -0.000000 0.000000
 16 18.407448 -176.793991 8.075256 -0.009445 0.966446 0.010673
 17 159.655487 207.705963 -43.129150 0.000000 0.000000 -0.000000
 18 12.176292 -0.829269 23.085022 -1.784757 -0.817011 -0.772078
 19 23.438759 1.362862 -28.210815 0.287996 0.520685 -0.354550
 20 17.520020 -4.855537 -21.387661 -0.559663 -0.318451 0.327741
 21 6.597031 5.855789 -9.931351 0.000000 -0.000000 0.000000
 22 -0.072890 -1.214048 9.388046 0.000000 -0.000000 0.000000
 23 0.000011 -5.381660 -154.110336 -0.034538 -0.005058 -0.145357
 24 0.000011 -5.381660 -154.110336 -0.034538 -0.005058 -0.145357
 25 2.650860 -0.017416 279.065491 0.000000 -0.000000 0.000000
time 20
  0 2.650860 13.720605 127.640564 0.000000 0.000000 0.157080
  1 -0.186268 0.167364 -1.425583 0.003842 0.031309 -0.007545
  2 0.923381 -2.004173 -52.426407 -0.342680 -0.003722 0.001070
  3 0.209927 0.167364 2.417709 0.093322 -0.000959 -0.000008
  4 -13.152440 -13.587114 -45.756813 0.087266 0.000000 -0.000000
  5 -0.737604 -0.548838 40.203659 -0.070379 0.133015 -0.081757
  6 2.553308 7.297701 96.216110 0.000000 -0.000000 0.000000
  7 25.337774 -9.646731 2.086914 -0.000011 -0.139632 -0.000607
  8 -23.810328 -7.093719 2.086899 -0.226045 0.064723 0.026189
  9 -7.352507 52.005486 -48.397392 -0.464663 -0.042808 -0.081832
 10 -0.684170 -0.276030 30.967392 0.000000 -0.000000 0.000000
 11 -13.534457 -1.160921 22.015213 -2.103726 0.055404 -0.037901
 12 -20.972826 -0.005875 -27.595062 -0.000000 0.209439 -0.000000
 13 -18.070229 -6.045792 -20.586182 1.618406 -0.172146 -0.900554
 14 5.932739 -5.752625 0.181679 0.081626 0.974410 0.016749
 15 0.671982 2.506065 -6.693924 0.000000 -0.000000 0.000000
 16 18.407471 -176.793930 8.075279 -0.009445 0.966446 0.010673
 17 159.655533 207.705933 -43.129181 -0.000000 -0.000000 0.000000
 18 12.176291 -0.829269 23.085022 -1.705457 -0.772489 -0.834858
 19 23.438759 1.362862 -28.210810 0.287996 0.520685 -0.354550
 20 17.520020 -4.855537 -21.387669 -0.559663 -0.318451 0.327741
 21 6.597031 5.855789 -9.931347 0.000000 -0.000000 0.000000
 22 -0.072891 -1.214046 9.388031 0.000000 -0.000000 0.000000
 23 0.000010 -5.381660 -154.110336 -0.034538 -0.005058 -0.145357
 24 0.000010 -5.381660 -154.110336 -0.034538 -0.005058 -0.145357
 25 2.650860 -0.017416 279.065491 0.000000 -0.000000 0.000000
time 21
  0 2.650860 11.597172 127.640564 0.000000 0.000000 0.157080
  1 -0.186268 0.167363 -1.425583 0.035620 0.026470 -0.006379
  2 0.923381 -2.004173 -52.426399 -0.346962 -0.003053 0.000905
  3 0.209927 0.167364 2.417709 0.092350 -0.000805 -0.000007
  4 -11.175520 -1.167732 -47.015549 0.087266 0.000000 -0.000000
  5 -0.737603 -0.548840 40.203674 -0.070379 0.133015 -0.081757
  6 2.553314 7.297700 96.216110 0.000000 -0.000000 0.000000
  7 25.337776 -9.646730 2.086929 -0.000011 -0.139632 -0.000607
  8 -23.810331 -7.093720 2.086929 -0.226045 0.064723 0.026189
  9 -7.352507 52.005489 -48.397392 -0.419492 -0.042875 -0.077216
 10 -0.684172 -0.276031 30.967392 0.000000 -0.000000 0.000000
 11 -13.534459 -1.160923 22.015182 -2.034843 0.046841 -0.032043
 12 -20.972832 -0.005875 -27.595074 -0.000000 0.209439 0.000000
 13 -18.070232 -6.045807 -20.586182 1.618406 -0.172146 -0.900554
 14 5.932732 -5.752625 0.181671 0.081626 0.974409 0.016749
 15 0.671974 2.506058 -6.693916 0.000000 -0.000000 0.000000
 16 18.407463 -176.793976 8.075272 -0.009445 0.966446 0.010673
 17 159.655518 207.705994 -43.129196 0.000000 0.000000 -0.000000
 18 12.176293 -0.829269 23.084991 -1.627421 -0.728675 -0.896638
 19 23.438751 1.362854 -28.210810 0.287996 0.520685 -0.354550
 20 17.520020 -4.855541 -21.387672 -0.559663 -0.318451 0.327741
 21 6.597046 5.855782 -9.931347 0.000000 -0.000000 0.000000
 22 -0.072890 -1.214048 9.388016 0.000000 -0.000000 0.000000
 23 0.000010 -5.381661 -154.110336 -0.034538 -0.005058 -0.145357
 24 0.000010 -5.381661 -154.110336 -0.034538 -0.005058 -0.145357
 25 2.650860 -0.017416 279.065491 0.000000 -0.000000 0.000000
time 22
  0 2.650860 9.544166 127.640564 0.000000 0.000000 0.157080
  1 -0.186268 0.167365 -1.425583 0.066345 0.021791 -0.005251
  2 0.923381 -2.004173 -52.426407 -0.350871 -0.002443 0.000745
  3 0.209927 0.167365 2.417709 0.091424 -0.000658 -0.000006
  4 -9.229280 11.058870 -48.254700 0.087266 0.000000 -0.000000
  5 -0.737603 -0.548840 40.203674 -0.070379 0.133015 -0.081757
  6 2.553312 7.297703 96.216110 0.000000 -0.000000 0.000000
  7 25.337774 -9.646732 2.086899 -0.000011 -0.139632 -0.000607
  8 -23.810329 -7.093721 2.086899 -0.226045 0.064723 0.026189
  9 -7.352509 52.005501 -48.397377 -0.375573 -0.042941 -0.072727
 10 -0.684172 -0.276030 30.967377 0.000000 -0.000000 0.000000
 11 -13.534456 -1.160921 22.015213 -1.968245 0.038561 -0.026379
 12 -20.972830 -0.005875 -27.595074 0.000000 0.209439 0.000000
 13 -18.070232 -6.045776 -20.586182 1.618406 -0.172146 -0.900554
 14 5.932732 -5.752617 0.181671 0.081626 0.974410 0.016749
 15 0.671974 2.506065 -6.693924 0.000000 -0.000000 0.000000
 16 18.407440 -176.793976 8.075256 -0.009445 0.966446 0.010673
 17 159.655518 207.705978 -43.129181 0.000000 0.000000 -0.000000
 18 12.176292 -0.829269 23.085037 -1.551972 -0.686315 -0.956369
 19 23.438759 1.362869 -28.210812 0.287996 0.520685 -0.354550
 20 17.520035 -4.855537 -21.387665 -0.559663 -0.318451 0.327741
 21 6.597046 5.855789 -9.931349 0.000000 -0.000000 0.000000
 22 -0.072889 -1.214048 9.388062 0.000000 -0.000000 0.000000
 23 0.000010 -5.381660 -154.110336 -0.034538 -0.005058 -0.145357
 24 0.000010 -5.381660 -154.110336 -0.034538 -0.005058 -0.145357
 25 2.650860 -0.017416 279.065491 0.000000 -0.000000 0.000000
time 23
  0 2.650860 7.597649 127.640564 0.000000 0.000000 0.157080
  1 -0.186268 0.167366 -1.425583 0.095475 0.017355 -0.004182
  2 0.923381 -2.004173 -52.426414 -0.354389 -0.001893 0.000593
  3 0.209926 0.167366 2.417709 0.090557 -0.000521 -0.000005
  4 -7.355519 22.830177 -49.447746 0.087266 0.000000 0.000000
  5 -0.737603 -0.548840 40.203659 -0.070379 0.133015 -0.081757
  6 2.553307 7.297701 96.216171 0.000000 -0.000000 0.000000
  7 25.337774 -9.646730 2.086899 -0.000011 -0.139632 -0.000607
  8 -23.810333 -7.093720 2.086914 -0.226045 0.064723 0.026189
  9 -7.352510 52.005486 -48.397385 -0.333729 -0.043003 -0.068451
 10 -0.684174 -0.276030 30.967392 0.000000 -0.000000 0.000000
 11 -13.534457 -1.160921 22.015198 -1.905102 0.030711 -0.021009
 12 -20.972832 -0.005875 -27.595081 0.000000 0.209439 0.000000
 13 -18.070232 -6.045792 -20.586182 1.618406 -0.172146 -0.900554
 14 5.932732 -5.752617 0.181671 0.081626 0.974409 0.016749
 15 0.671982 2.506073 -6.693909 0.000000 -0.000000 0.000000
 16 18.407455 -176.793976 8.075272 -0.009445 0.966446 0.010673
 17 159.655548 207.705963 -43.129158 -0.000000 0.000000 0.000000
 18 12.176293 -0.829269 23.085022 -1.480437 -0.646152 -1.013002
 19 23.438751 1.362854 -28.210808 0.287996 0.520685 -0.354550
 20 17.520035 -4.855537 -21.387657 -0.559663 -0.318451 0.327741
 21 6.597046 5.855789 -9.931347 0.000000 -0.000000 0.000000
 22 -0.072890 -1.214046 9.388031 0.000000 -0.000000 0.000000
 23 0.000011 -5.381660 -154.110336 -0.034538 -0.005058 -0.145357
 24 0.000011 -5.381660 -154.110336 -0.034538 -0.005058 -0.145357
 25 2.650860 -0.017416 279.065491 0.000000 -0.000000 0.000000
time 24
  0 2.650860 5.793676 127.640564 0.000000 0.000000 0.157080
  1 -0.186268 0.167365 -1.425583 0.122473 0.013243 -0.003192
  2 0.923381 -2.004171 -52.426407 -0.357497 -0.001408 0.000453
  3 0.209927 0.167366 2.417709 0.089763 -0.000395 -0.000003
  4 -5.596020 33.883667 -50.568024 0.087266 0.000000 -0.000000
  5 -0.737603 -0.548836 40.203674 -0.070379 0.133015 -0.081757
  6 2.553308 7.297700 96.216125 0.000000 -0.000000 0.000000
  7 25.337774 -9.646730 2.086914 -0.000011 -0.139632 -0.000607
  8 -23.810326 -7.093719 2.086899 -0.226045 0.064723 0.026189
  9 -7.352507 52.005489 -48.397385 -0.294787 -0.043061 -0.064471
 10 -0.684170 -0.276030 30.967377 0.000000 -0.000000 0.000000
 11 -13.534458 -1.160920 22.015213 -1.846582 0.023436 -0.016032
 12 -20.972830 -0.005875 -27.595076 -0.000000 0.209439 -0.000000
 13 -18.070238 -6.045807 -20.586182 1.618406 -0.172146 -0.900554
 14 5.932732 -5.752625 0.181671 0.081626 0.974410 0.016749
 15 0.671974 2.506058 -6.693924 0.000000 -0.000000 0.000000
 16 18.407448 -176.793961 8.075272 -0.009445 0.966446 0.010673
 17 159.655533 207.705933 -43.129204 -0.000000 0.000000 -0.000000
 18 12.176292 -0.829268 23.085022 -1.414140 -0.608930 -1.065487
 19 23.438759 1.362862 -28.210817 0.287996 0.520686 -0.354550
 20 17.520050 -4.855537 -21.387665 -0.559663 -0.318451 0.327741
 21 6.597038 5.855789 -9.931347 0.000000 -0.000000 0.000000
 22 -0.072890 -1.214047 9.388031 0.000000 -0.000000 0.000000
 23 0.000010 -5.381660 -154.110336 -0.034538 -0.005058 -0.145357
 24 0.000010 -5.381660 -154.110336 -0.034538 -0.005058 -0.145357
 25 2.650860 -0.017416 279.065491 0.000000 -0.000000 0.000000
time 25
  0 2.650860 4.168308 127.640564 0.000000 0.000000 0.157080
  1 -0.186268 0.167366 -1.425583 0.146798 0.009539 -0.002299
  2 0.923380 -2.004173 -52.426407 -0.360177 -0.000990 0.000326
  3 0.209927 0.167365 2.417709 0.089055 -0.000283 -0.000002
  4 -3.992570 43.956841 -51.588943 0.087266 0.000000 -0.000000
  5 -0.737603 -0.548839 40.203674 -0.070379 0.133015 -0.081757
  6 2.553308 7.297700 96.216125 0.000000 -0.000000 0.000000
  7 25.337772 -9.646732 2.086929 -0.000011 -0.139632 -0.000607
  8 -23.810326 -7.093719 2.086914 -0.226045 0.064723 0.026189
  9 -7.352509 52.005497 -48.397385 -0.259572 -0.043113 -0.060872
 10 -0.684172 -0.276030 30.967392 0.000000 -0.000000 0.000000
 11 -13.534456 -1.160922 22.015198 -1.793856 0.016881 -0.011548
 12 -20.972832 -0.005859 -27.595070 0.000000 0.209439 -0.000000
 13 -18.070229 -6.045792 -20.586189 1.618406 -0.172146 -0.900554
 14 5.932732 -5.752625 0.181686 0.081626 0.974410 0.016749
 15 0.671982 2.506058 -6.693909 0.000000 -0.000000 0.000000
 16 18.407455 -176.793991 8.075241 -0.009445 0.966446 0.010673
 17 159.655548 207.705994 -43.129128 -0.000000 0.000000 -0.000000
 18 12.176291 -0.829270 23.085022 -1.354407 -0.575393 -1.112777
 19 23.438774 1.362869 -28.210814 0.287996 0.520685 -0.354550
 20 17.520035 -4.855526 -21.387657 -0.559663 -0.318451 0.327741
 21 6.597031 5.855804 -9.931345 0.000000 -0.000000 0.000000
 22 -0.072890 -1.214047 9.388046 0.000000 -0.000000 0.000000
 23 0.000010 -5.381660 -154.110336 -0.034538 -0.005058 -0.145357
 24 0.000010 -5.381660 -154.110336 -0.034538 -0.005058 -0.145357
 25 2.650860 -0.017416 279.065491 0.000000 -0.000000 0.000000
time 26
  0 2.650860 2.757603 127.640564 0.000000 0.000000 0.157080
  1 -0.186268 0.167365 -1.425583 0.167910 0.006324 -0.001524
  2 0.923381 -2.004173 -52.426407 -0.362412 -0.000641 0.000216
  3 0.209927 0.167365 2.417709 0.088446 -0.000187 -0.000002
  4 -2.586947 52.787193 -52.483910 0.087266 0.000000 0.000000
  5 -0.737604 -0.548839 40.203674 -0.070379 0.133015 -0.081757
  6 2.553307 7.297701 96.216141 0.000000 -0.000000 0.000000
  7 25.337772 -9.646731 2.086914 -0.000011 -0.139632 -0.000607
  8 -23.810326 -7.093721 2.086914 -0.226045 0.064723 0.026189
  9 -7.352509 52.005493 -48.397377 -0.228909 -0.043159 -0.057738
 10 -0.684174 -0.276030 30.967392 0.000000 -0.000000 0.000000
 11 -13.534458 -1.160922 22.015213 -1.748094 0.011192 -0.007656
 12 -20.972828 -0.005844 -27.595078 0.000000 0.209439 0.000000
 13 -18.070225 -6.045807 -20.586185 1.618406 -0.172146 -0.900554
 14 5.932732 -5.752617 0.181671 0.081626 0.974410 0.016749
 15 0.671989 2.506073 -6.693909 0.000000 -0.000000 0.000000
 16 18.407433 -176.793976 8.075241 -0.009445 0.966446 0.010673
 17 159.655457 207.705963 -43.129143 -0.000000 -0.000000 -0.000000
 18 12.176291 -0.829269 23.085022 -1.302563 -0.546286 -1.153821
 19 23.438766 1.362862 -28.210814 0.287996 0.520685 -0.354550
 20 17.520035 -4.855530 -21.387657 -0.559663 -0.318451 0.327741
 21 6.597038 5.855789 -9.931345 0.000000 -0.000000 0.000000
 22 -0.072891 -1.214047 9.388046 0.000000 -0.000000 0.000000
 23 0.000010 -5.381660 -154.110336 -0.034538 -0.005058 -0.145357
 24 0.000010 -5.381660 -154.110336 -0.034538 -0.005058 -0.145357
 25 2.650860 -0.017416 279.065491 0.000000 -0.000000 0.000000
time 27
  0 2.650860 1.597619 127.640564 0.000000 0.000000 0.157080
  1 -0.186268 0.167365 -1.425583 0.185269 0.003680 -0.000887
  2 0.923381 -2.004175 -52.426407 -0.364181 -0.000365 0.000126
  3 0.209927 0.167365 2.417709 0.087950 -0.000108 -0.000001
  4 -1.420949 60.112194 -53.226303 0.087266 0.000000 -0.000000
  5 -0.737603 -0.548839 40.203659 -0.070379 0.133015 -0.081757
  6 2.553307 7.297703 96.216125 0.000000 -0.000000 0.000000
  7 25.337774 -9.646731 2.086929 -0.000011 -0.139632 -0.000607
  8 -23.810326 -7.093719 2.086914 -0.226045 0.064723 0.026189
  9 -7.352509 52.005486 -48.397385 -0.203623 -0.043196 -0.055154
 10 -0.684170 -0.276030 30.967377 0.000000 -0.000000 0.000000
 11 -13.534458 -1.160921 22.015198 -1.710465 0.006514 -0.004456
 12 -20.972828 -0.005875 -27.595070 -0.000000 0.209439 0.000000
 13 -18.070230 -6.045792 -20.586189 1.618406 -0.172146 -0.900554
 14 5.932739 -5.752625 0.181671 0.081626 0.974410 0.016749
 15 0.671982 2.506065 -6.693916 0.000000 -0.000000 0.000000
 16 18.407448 -176.793976 8.075226 -0.009445 0.966446 0.010673
 17 159.655487 207.705978 -43.129158 0.000000 -0.000000 -0.000000
 18 12.176292 -0.829269 23.085007 -1.259933 -0.522352 -1.187570
 19 23.438759 1.362869 -28.210812 0.287996 0.520685 -0.354550
 20 17.520020 -4.855534 -21.387672 -0.559663 -0.318451 0.327741
 21 6.597038 5.855782 -9.931351 0.000000 -0.000000 0.000000
 22 -0.072890 -1.214047 9.388031 0.000000 -0.000000 0.000000
 23 0.000011 -5.381660 -154.110336 -0.034538 -0.005058 -0.145357
 24 0.000011 -5.381660 -154.110336 -0.034538 -0.005058 -0.145357
 25 2.650860 -0.017416 279.065491 0.000000 -0.000000 0.000000
time 28
  0 2.650860 0.724418 127.640564 0.000000 0.000000 0.157080
  1 -0.186268 0.167365 -1.425583 0.198337 0.001690 -0.000408
  2 0.923381 -2.004173 -52.426399 -0.365468 -0.000164 0.000058
  3 0.209926 0.167365 2.417709 0.087579 -0.000050 -0.000000
  4 -0.536362 65.669342 -53.789528 0.087266 0.000000 -0.000000
  5 -0.737603 -0.548838 40.203674 -0.070379 0.133015 -0.081757
  6 2.553312 7.297702 96.216125 0.000000 -0.000000 0.000000
  7 25.337774 -9.646732 2.086929 -0.000011 -0.139632 -0.000607
  8 -23.810326 -7.093719 2.086914 -0.226045 0.064723 0.026189
  9 -7.352507 52.005489 -48.397377 -0.184540 -0.043225 -0.053203
 10 -0.684172 -0.276030 30.967392 0.000000 -0.000000 0.000000
 11 -13.534456 -1.160922 22.015198 -1.682139 0.002992 -0.002047
 12 -20.972832 -0.005859 -27.595081 -0.000000 0.209439 -0.000000
 13 -18.070232 -6.045807 -20.586178 1.618406 -0.172146 -0.900554
 14 5.932732 -5.752609 0.181686 0.081626 0.974410 0.016749
 15 0.671974 2.506073 -6.693909 0.000000 -0.000000 0.000000
 16 18.407463 -176.793961 8.075256 -0.009445 0.966446 0.010673
 17 159.655533 207.705994 -43.129158 -0.000000 0.000000 0.000000
 18 12.176290 -0.829269 23.085007 -1.227843 -0.504335 -1.212975
 19 23.438759 1.362862 -28.210812 0.287996 0.520685 -0.354550
 20 17.520027 -4.855541 -21.387672 -0.559663 -0.318451 0.327741
 21 6.597038 5.855782 -9.931351 0.000000 -0.000000 0.000000
 22 -0.072890 -1.214047 9.388046 0.000000 -0.000000 0.000000
 23 0.000010 -5.381660 -154.110336 -0.034538 -0.005058 -0.145357
 24 0.000010 -5.381660 -154.110336 -0.034538 -0.005058 -0.145357
 25 2.650860 -0.017416 279.065491 0.000000 -0.000000 0.000000
time 29
  0 2.650860 0.174052 127.640564 0.000000 0.000000 0.157080
  1 -0.186267 0.167365 -1.425583 0.206574 0.000436 -0.000105
  2 0.923381 -2.004175 -52.426414 -0.366253 -0.000041 0.000015
  3 0.209927 0.167365 2.417709 0.087347 -0.000013 -0.000000
  4 0.025033 69.196144 -54.146965 0.087266 0.000000 0.000000
  5 -0.737603 -0.548839 40.203659 -0.070379 0.133015 -0.081757
  6 2.553308 7.297704 96.216156 0.000000 -0.000000 0.000000
  7 25.337776 -9.646732 2.086914 -0.000011 -0.139632 -0.000607
  8 -23.810329 -7.093720 2.086929 -0.226045 0.064723 0.026189
  9 -7.352507 52.005489 -48.397369 -0.172485 -0.043242 -0.051971
 10 -0.684170 -0.276030 30.967377 0.000000 -0.000000 0.000000
 11 -13.534456 -1.160924 22.015198 -1.664286 0.000773 -0.000529
 12 -20.972830 -0.005875 -27.595078 -0.000000 0.209439 0.000000
 13 -18.070230 -6.045792 -20.586182 1.618406 -0.172146 -0.900554
 14 5.932732 -5.752625 0.181686 0.081626 0.974410 0.016749
 15 0.671974 2.506058 -6.693909 0.000000 -0.000000 0.000000
 16 18.407455 -176.793991 8.075241 -0.009445 0.966446 0.010673
 17 159.655487 207.705963 -43.129120 0.000000 0.000000 -0.000000
 18 12.176291 -0.829270 23.085007 -1.207617 -0.492979 -1.228988
 19 23.438759 1.362854 -28.210819 0.287996 0.520685 -0.354550
 20 17.520035 -4.855534 -21.387672 -0.559663 -0.318451 0.327741
 21 6.597038 5.855782 -9.931343 0.000000 -0.000000 0.000000
 22 -0.072890 -1.214048 9.388031 0.000000 -0.000000 0.000000
 23 0.000011 -5.381660 -154.110336 -0.034538 -0.005058 -0.145357
 24 0.000011 -5.381660 -154.110336 -0.034538 -0.005058 -0.145357
 25 2.650860 -0.017416 279.065491 0.000000 -0.000000 0.000000
time 30
  0 2.650860 -0.017416 127.640564 0.000000 0.000000 0.157080
  1 -0.186268 0.167365 -1.425583 0.209439 -0.000000 -0.000000
  2 0.923380 -2.004175 -52.426407 -0.366519 0.000000 0.000000
  3 0.209927 0.167365 2.417709 0.087267 0.000000 0.000000
  4 0.221454 70.430069 -54.272011 0.087266 0.000000 -0.000000
  5 -0.737603 -0.548837 40.203674 -0.070379 0.133015 -0.081757
  6 2.553312 7.297703 96.216125 0.000000 -0.000000 0.000000
  7 25.337776 -9.646730 2.086914 -0.000011 -0.139632 -0.000607
  8 -23.810328 -7.093720 2.086914 -0.226045 0.064723 0.026189
  9 -7.352507 52.005489 -48.397377 -0.168283 -0.043249 -0.051542
 10 -0.684170 -0.276030 30.967392 0.000000 -0.000000 0.000000
 11 -13.534458 -1.160922 22.015198 -1.658075 0.000000 -0.000000
 12 -20.972828 -0.005859 -27.595072 0.000000 0.209439 0.000000
 13 -18.070232 -6.045792 -20.586182 1.618406 -0.172146 -0.900554
 14 5.932724 -5.752625 0.181671 0.081626 0.974409 0.016749
 15 0.671974 2.506065 -6.693924 0.000000 -0.000000 0.000000
 16 18.407448 -176.793961 8.075226 -0.009445 0.966446 0.010673
 17 159.655518 207.705994 -43.129120 0.000000 0.000000 -0.000000
 18 12.176292 -0.829270 23.085022 -1.200580 -0.489028 -1.234559
 19 23.438766 1.362869 -28.210808 0.287996 0.520685 -0.354550
 20 17.520027 -4.855534 -21.387665 -0.559663 -0.318451 0.327741
 21 6.597038 5.855797 -9.931351 0.000000 -0.000000 0.000000
 22 -0.072890 -1.214047 9.388046 0.000000 -0.000000 0.000000
 23 0.000010 -5.381660 -154.110336 -0.034538 -0.005058 -0.145357
 24 0.000010 -5.381660 -154.110336 -0.034538 -0.005058 -0.145357
 25 2.650860 -0.017416 279.065491 0.000000 -0.000000 0.000000
end
