version 1
nodes
  0 "bone33"  -1
  1 "bone34"  -1
  2 "bone35"  -1
  3 "bone36"  -1
  4 "bone24"  -1
  5 "bone19"  -1
  6 "bone18"   5
  7 "bone14"   6
  8 "bone15"   7
  9 "bone17"   8
 10 "bone26"   9
 11 "bone04"   6
 12 "bone20"  11
 13 "bone16"  12
 14 "bone27"  13
 15 "bone06"   5
 16 "bone07"  15
 17 "bone05"  16
 18 "bone11"  17
 19 "bone28"  18
 20 "bone02"  15
 21 "bone03"  20
 22 "bone09"  21
 23 "bone29"  22
 24 "bone01"  15
 25 "bone12"  24
 26 "bone30"  25
 27 "bone10"  24
 28 "bone31"  27
 29 "bone13"  24
 30 "bone08"  24
 31 "bone22"  24
 32 "bone23"  15
end
skeleton
time 0
  0 -5.180422 13.788269 -12.439880 0.000000 -0.000000 0.000000
  1 -5.180422 13.788269 -12.439880 0.000000 -0.000000 0.000000
  2 -5.180422 13.788269 -12.439880 0.000000 -0.000000 0.000000
  3 -5.180422 13.788269 -12.439880 0.000000 -0.000000 0.000000
  4 -4.455341 19.713478 299.953064 0.000000 -0.000000 0.000000
  5 -5.180422 18.668694 135.203812 0.087267 0.000000 -0.000000
  6 0.585070 4.634649 -15.754387 0.139627 0.000000 -0.000000
  7 44.000435 -0.454872 -14.063072 -0.279252 -0.000000 0.000000
  8 -1.648884 -14.263247 -46.038208 0.279253 0.000000 0.000000
  9 1.901329 0.000000 -35.274979 -0.191986 0.000000 0.000000
 10 1.220856 -0.000004 -27.561970 0.000000 -0.000000 0.000000
 11 -35.658199 -1.977135 -14.300331 -0.314159 -0.000000 0.000000
 12 2.095200 -12.740986 -45.800972 -0.052360 0.000000 0.000000
 13 -2.525253 -0.000000 -34.836559 0.139626 0.000000 0.000000
 14 -1.229671 -0.000004 -26.461926 0.000000 -0.000000 0.000000
 15 0.585070 -7.861071 40.912140 0.157080 0.000000 -0.000000
 16 -35.591049 -1.703068 41.085175 0.349065 0.000000 -0.087266
 17 -37.563442 14.762703 -50.295181 -0.279252 0.000000 -0.000000
 18 -10.963058 -41.811993 -33.818550 -0.366520 0.000001 0.000000
 19 -3.816719 -34.079010 -25.402428 0.000000 -0.000000 0.000000
 20 41.148888 -1.371414 40.606613 0.000000 0.000000 0.104720
 21 39.457146 17.377464 -50.174316 -0.245372 -0.019946 -0.001911
 22 11.722168 -44.271454 -32.982788 -0.242925 0.024226 0.007891
 23 2.616638 -33.926437 -25.777016 0.000000 -0.000000 0.000000
 24 -0.737603 -0.369770 42.251770 0.000000 -0.000000 0.000000
 25 59.548912 38.000324 11.633072 -0.104720 -0.000000 0.000000
 26 7.710041 -174.312286 82.914429 0.000000 -0.000000 0.000000
 27 -48.533001 39.089817 12.126022 -0.087267 -0.000000 0.000000
 28 -11.661724 -173.988113 81.962128 0.000000 -0.000000 0.000000
 29 2.355416 41.099155 8.166306 -0.174533 0.000000 -0.000000
 30 3.826383 -29.401634 7.538559 0.139626 0.000000 0.000000
 31 -0.684172 -11.661072 48.858292 0.000000 -0.000000 0.000000
 32 -0.072890 -1.756195 2.960083 0.000000 -0.000000 0.000000
time 1
  0 -5.180422 13.788269 -12.439880 0.000000 -0.000000 0.000000
  1 -5.180422 13.788269 -12.439880 0.000000 -0.000000 0.000000
  2 -5.180422 13.788269 -12.439880 0.000000 -0.000000 0.000000
  3 -5.180422 13.788269 -12.439880 0.000000 -0.000000 0.000000
  4 -4.455341 19.713478 299.953064 0.000000 -0.000000 0.000000
  5 -5.180422 30.429764 131.151688 0.087267 0.000000 -0.000000
  6 0.585070 4.634647 -15.754395 0.089955 0.000000 -0.000000
  7 44.000435 -0.454868 -14.063080 -0.328923 -0.000001 0.000000
  8 -1.648880 -14.263246 -46.038208 0.389238 0.000000 0.000000
  9 1.901333 -0.000002 -35.274979 -0.215048 -0.000000 -0.000000
 10 1.220856 -0.000004 -27.561966 0.000000 -0.000000 0.000000
 11 -35.658195 -1.977135 -14.300331 -0.358508 -0.000000 -0.000000
 12 2.095200 -12.740985 -45.800964 0.089557 0.000000 0.000000
 13 -2.525249 0.000000 -34.836559 0.084634 -0.000000 0.000000
 14 -1.229671 -0.000004 -26.461922 0.000000 -0.000000 0.000000
 15 0.585070 -7.861069 40.912109 0.157080 0.000000 -0.000000
 16 -35.591049 -1.703072 41.085175 0.274751 -0.005931 -0.084996
 17 -37.563423 14.762688 -50.295181 -0.279252 0.000000 -0.000000
 18 -10.963051 -41.811985 -33.818565 -0.366520 0.000001 0.000000
 19 -3.816727 -34.079018 -25.402435 0.000000 -0.000000 0.000000
 20 41.148888 -1.371414 40.606628 -0.045903 0.004659 0.103649
 21 39.457146 17.377464 -50.174332 -0.245372 -0.019946 -0.001911
 22 11.722160 -44.271454 -32.982758 -0.242925 0.024226 0.007891
 23 2.616638 -33.926437 -25.777008 0.000000 -0.000000 0.000000
 24 -0.737603 -0.369774 42.251785 0.000000 -0.000000 0.000000
 25 59.548912 38.000320 11.633057 -0.104720 0.000000 -0.000000
 26 7.710037 -174.312286 82.914398 0.000000 -0.000000 0.000000
 27 -48.533001 39.089813 12.126007 -0.087267 0.000000 -0.000000
 28 -11.661728 -173.988129 81.962158 0.000000 -0.000000 0.000000
 29 2.355416 41.099152 8.166306 -0.174533 0.000000 -0.000000
 30 3.826383 -29.401636 7.538528 0.139626 0.000000 0.000000
 31 -0.684172 -11.661068 48.858276 0.000000 -0.000000 0.000000
 32 -0.072890 -1.756195 2.960068 0.000000 -0.000000 0.000000
time 2
  0 -5.180422 13.788269 -12.439880 0.000000 -0.000000 0.000000
  1 -5.180422 13.788269 -12.439880 0.000000 -0.000000 0.000000
  2 -5.180422 13.788269 -12.439880 0.000000 -0.000000 0.000000
  3 -5.180422 13.788269 -12.439880 0.000000 -0.000000 0.000000
  4 -4.455341 19.713478 299.953064 0.000000 -0.000000 0.000000
  5 -5.180422 58.578300 121.453461 0.087267 0.000000 -0.000000
  6 0.585070 4.634651 -15.754395 -0.028925 0.000000 -0.000000
  7 44.000435 -0.454865 -14.063080 -0.447804 -0.000001 0.000000
  8 -1.648888 -14.263250 -46.038212 0.652474 0.000000 0.000000
  9 1.901333 0.000000 -35.274982 -0.270242 -0.000000 -0.000000
 10 1.220856 -0.000004 -27.561968 0.000000 -0.000000 0.000000
 11 -35.658195 -1.977135 -14.300331 -0.464651 -0.000000 -0.000000
 12 2.095196 -12.740978 -45.800957 0.429217 0.000000 0.000000
 13 -2.525246 -0.000004 -34.836555 -0.046985 0.000000 0.000000
 14 -1.229675 -0.000004 -26.461918 0.000000 -0.000000 0.000000
 15 0.585070 -7.861065 40.912140 0.157080 0.000000 -0.000000
 16 -35.591049 -1.703064 41.085175 0.096892 -0.020126 -0.079561
 17 -37.563438 14.762703 -50.295181 -0.279252 0.000000 -0.000000
 18 -10.963058 -41.811993 -33.818573 -0.366519 0.000001 -0.000000
 19 -3.816727 -34.079018 -25.402451 0.000000 -0.000000 0.000000
 20 41.148888 -1.371407 40.606598 -0.155767 0.015810 0.101087
 21 39.457138 17.377464 -50.174332 -0.245372 -0.019946 -0.001911
 22 11.722176 -44.271450 -32.982765 -0.242925 0.024226 0.007891
 23 2.616646 -33.926437 -25.777008 0.000000 -0.000000 0.000000
 24 -0.737603 -0.369766 42.251755 0.000000 -0.000000 0.000000
 25 59.548912 38.000320 11.633072 -0.104720 0.000000 -0.000000
 26 7.710041 -174.312286 82.914413 0.000000 -0.000000 0.000000
 27 -48.533005 39.089813 12.126038 -0.087267 0.000000 -0.000000
 28 -11.661724 -173.988129 81.962143 0.000000 -0.000000 0.000000
 29 2.355416 41.099152 8.166306 -0.174533 0.000000 -0.000000
 30 3.826383 -29.401634 7.538544 0.139626 0.000000 0.000000
 31 -0.684172 -11.661072 48.858292 0.000000 -0.000000 0.000000
 32 -0.072890 -1.756180 2.960052 0.000000 -0.000000 0.000000
time 3
  0 -5.180422 13.788269 -12.439880 0.000000 -0.000000 0.000000
  1 -5.180422 13.788269 -12.439880 0.000000 -0.000000 0.000000
  2 -5.180422 13.788269 -12.439880 0.000000 -0.000000 0.000000
  3 -5.180422 13.788269 -12.439880 0.000000 -0.000000 0.000000
  4 -4.455341 19.713478 299.953064 0.000000 -0.000000 0.000000
  5 -5.180422 92.412277 109.796387 0.087267 0.000000 -0.000000
  6 0.585070 4.634651 -15.754387 -0.171818 0.000000 -0.000000
  7 44.000435 -0.454880 -14.063080 -0.590696 -0.000001 0.000000
  8 -1.648884 -14.263248 -46.038216 0.968878 0.000000 0.000000
  9 1.901329 0.000000 -35.274986 -0.336585 -0.000000 0.000000
 10 1.220852 0.000000 -27.561974 0.000000 -0.000000 0.000000
 11 -35.658195 -1.977142 -14.300331 -0.592234 -0.000000 -0.000000
 12 2.095196 -12.740986 -45.800964 0.837481 0.000000 0.000000
 13 -2.525249 0.000000 -34.836559 -0.205187 -0.000000 0.000000
 14 -1.229671 -0.000004 -26.461924 0.000000 -0.000000 0.000000
 15 0.585070 -7.861069 40.912148 0.157080 0.000000 -0.000000
 16 -35.591049 -1.703072 41.085190 -0.116893 -0.037188 -0.073028
 17 -37.563438 14.762695 -50.295181 -0.279252 0.000000 -0.000000
 18 -10.963066 -41.811989 -33.818550 -0.366519 0.000001 -0.000000
 19 -3.816711 -34.079010 -25.402435 0.000000 -0.000000 0.000000
 20 41.148888 -1.371414 40.606628 -0.287821 0.029213 0.098007
 21 39.457146 17.377464 -50.174332 -0.245372 -0.019946 -0.001911
 22 11.722168 -44.271439 -32.982765 -0.242925 0.024226 0.007891
 23 2.616646 -33.926441 -25.777008 0.000000 -0.000000 0.000000
 24 -0.737603 -0.369774 42.251785 0.000000 -0.000000 0.000000
 25 59.548908 38.000320 11.633057 -0.104720 0.000000 -0.000000
 26 7.710037 -174.312271 82.914383 0.000000 -0.000000 0.000000
 27 -48.533005 39.089828 12.126022 -0.087267 0.000000 -0.000000
 28 -11.661728 -173.988113 81.962128 0.000000 -0.000000 0.000000
 29 2.355416 41.099152 8.166306 -0.174533 0.000000 0.000000
 30 3.826383 -29.401634 7.538528 0.139626 0.000000 0.000000
 31 -0.684172 -11.661072 48.858276 0.000000 -0.000000 0.000000
 32 -0.072890 -1.756203 2.960068 0.000000 -0.000000 0.000000
time 4
  0 -5.180422 13.788269 -12.439880 0.000000 -0.000000 0.000000
  1 -5.180422 13.788269 -12.439880 0.000000 -0.000000 0.000000
  2 -5.180422 13.788269 -12.439880 0.000000 -0.000000 0.000000
  3 -5.180422 13.788269 -12.439880 0.000000 -0.000000 0.000000
  4 -4.455341 19.713478 299.953064 0.000000 -0.000000 0.000000
  5 -5.180422 121.229691 99.867706 0.087267 0.000000 -0.000000
  6 0.585070 4.634644 -15.754395 -0.293524 0.000000 -0.000000
  7 44.000435 -0.454872 -14.063072 -0.712401 -0.000001 0.000000
  8 -1.648884 -14.263248 -46.038208 1.238369 0.000001 0.000000
  9 1.901325 0.000000 -35.274979 -0.393091 0.000000 0.000000
 10 1.220856 0.000000 -27.561968 0.000000 -0.000000 0.000000
 11 -35.658195 -1.977150 -14.300323 -0.700899 -0.000000 -0.000000
 12 2.095196 -12.740990 -45.800964 1.185212 0.000000 0.000000
 13 -2.525246 0.000000 -34.836555 -0.339932 0.000000 0.000000
 14 -1.229671 -0.000008 -26.461918 0.000000 -0.000000 0.000000
 15 0.585070 -7.861076 40.912140 0.157080 0.000000 -0.000000
 16 -35.591049 -1.703064 41.085175 -0.298979 -0.051720 -0.067464
 17 -37.563438 14.762703 -50.295166 -0.279252 0.000000 -0.000000
 18 -10.963043 -41.811974 -33.818535 -0.366519 0.000001 0.000000
 19 -3.816711 -34.079018 -25.402451 0.000000 -0.000000 0.000000
 20 41.148888 -1.371414 40.606628 -0.400295 0.040628 0.095384
 21 39.457138 17.377457 -50.174316 -0.245372 -0.019946 -0.001911
 22 11.722168 -44.271446 -32.982773 -0.242925 0.024226 0.007891
 23 2.616638 -33.926426 -25.777016 0.000000 -0.000000 0.000000
 24 -0.737604 -0.369781 42.251770 0.000000 -0.000000 0.000000
 25 59.548912 38.000336 11.633057 -0.104720 0.000000 0.000000
 26 7.710037 -174.312271 82.914413 0.000000 -0.000000 0.000000
 27 -48.533001 39.089813 12.126022 -0.087267 0.000000 0.000000
 28 -11.661724 -173.988129 81.962112 0.000000 -0.000000 0.000000
 29 2.355416 41.099152 8.166306 -0.174533 0.000000 0.000000
 30 3.826384 -29.401627 7.538544 0.139626 0.000000 0.000000
 31 -0.684171 -11.661057 48.858292 0.000000 -0.000000 0.000000
 32 -0.072890 -1.756195 2.960075 0.000000 -0.000000 0.000000
time 5
  0 -5.180422 13.788269 -12.439880 0.000000 -0.000000 0.000000
  1 -5.180422 13.788269 -12.439880 0.000000 -0.000000 0.000000
  2 -5.180422 13.788269 -12.439880 0.000000 -0.000000 0.000000
  3 -5.180422 13.788269 -12.439880 0.000000 -0.000000 0.000000
  4 -4.455341 19.713478 299.953064 0.000000 -0.000000 0.000000
  5 -5.180422 134.328506 95.354675 0.087267 0.000000 -0.000000
  6 0.585070 4.634644 -15.754395 -0.348845 0.000000 -0.000000
  7 44.000435 -0.454872 -14.063080 -0.767722 -0.000001 0.000000
  8 -1.648884 -14.263248 -46.038216 1.360865 0.000001 0.000000
  9 1.901329 -0.000008 -35.274979 -0.418776 -0.000000 0.000000
 10 1.220856 0.000000 -27.561970 0.000000 -0.000000 0.000000
 11 -35.658195 -1.977142 -14.300323 -0.750293 -0.000000 -0.000000
 12 2.095200 -12.740974 -45.800964 1.343271 0.000000 0.000001
 13 -2.525246 0.000008 -34.836563 -0.401181 0.000000 0.000000
 14 -1.229671 -0.000008 -26.461920 0.000000 -0.000000 0.000000
 15 0.585071 -7.861069 40.912140 0.157080 0.000000 -0.000000
 16 -35.591049 -1.703064 41.085167 -0.381746 -0.058326 -0.064935
 17 -37.563431 14.762703 -50.295181 -0.279252 0.000000 -0.000000
 18 -10.963051 -41.811993 -33.818558 -0.366519 0.000001 0.000000
 19 -3.816727 -34.079021 -25.402435 0.000000 -0.000000 0.000000
 20 41.148888 -1.371414 40.606621 -0.451419 0.045817 0.094192
 21 39.457142 17.377464 -50.174316 -0.245372 -0.019946 -0.001911
 22 11.722160 -44.271454 -32.982765 -0.242925 0.024226 0.007891
 23 2.616638 -33.926434 -25.777008 0.000000 -0.000000 0.000000
 24 -0.737603 -0.369781 42.251778 0.000000 -0.000000 0.000000
 25 59.548912 38.000351 11.633057 -0.104720 0.000000 -0.000000
 26 7.710041 -174.312286 82.914413 0.000000 -0.000000 0.000000
 27 -48.533001 39.089828 12.126038 -0.087267 0.000000 0.000000
 28 -11.661724 -173.988129 81.962128 0.000000 -0.000000 0.000000
 29 2.355416 41.099167 8.166306 -0.174533 0.000000 0.000000
 30 3.826383 -29.401627 7.538544 0.139626 0.000000 0.000000
 31 -0.684172 -11.661057 48.858276 0.000000 -0.000000 0.000000
 32 -0.072890 -1.756195 2.960075 0.000000 -0.000000 0.000000
time 6
  0 -5.180422 13.788269 -12.439880 0.000000 -0.000000 0.000000
  1 -5.180422 13.788269 -12.439880 0.000000 -0.000000 0.000000
  2 -5.180422 13.788269 -12.439880 0.000000 -0.000000 0.000000
  3 -5.180422 13.788269 -12.439880 0.000000 -0.000000 0.000000
  4 -4.455341 19.713478 299.953064 0.000000 -0.000000 0.000000
  5 -5.180422 133.902664 95.501389 0.087267 0.000000 -0.000000
  6 0.585070 4.634659 -15.754387 -0.347046 0.000000 -0.000000
  7 44.000435 -0.454865 -14.063072 -0.765924 -0.000001 0.000000
  8 -1.648880 -14.263252 -46.038208 1.356882 0.000001 0.000000
  9 1.901329 0.000008 -35.274986 -0.417941 -0.000000 -0.000000
 10 1.220856 -0.000008 -27.561974 0.000000 -0.000000 0.000000
 11 -35.658195 -1.977142 -14.300339 -0.748687 -0.000000 -0.000000
 12 2.095200 -12.740982 -45.800949 1.338133 0.000000 0.000001
 13 -2.525249 -0.000008 -34.836555 -0.399189 0.000000 0.000000
 14 -1.229668 -0.000008 -26.461920 0.000000 -0.000000 0.000000
 15 0.585071 -7.861069 40.912132 0.157080 0.000000 -0.000000
 16 -35.591049 -1.703064 41.085175 -0.379055 -0.058111 -0.065018
 17 -37.563435 14.762711 -50.295166 -0.279252 0.000000 -0.000000
 18 -10.963051 -41.811985 -33.818535 -0.366520 0.000001 0.000000
 19 -3.816719 -34.079021 -25.402428 0.000000 -0.000000 0.000000
 20 41.148888 -1.371399 40.606613 -0.449758 0.045649 0.094231
 21 39.457138 17.377464 -50.174316 -0.245372 -0.019946 -0.001911
 22 11.722160 -44.271446 -32.982765 -0.242925 0.024226 0.007891
 23 2.616653 -33.926434 -25.777016 0.000000 -0.000000 0.000000
 24 -0.737603 -0.369751 42.251770 0.000000 -0.000000 0.000000
 25 59.548931 44.696411 9.963531 -0.104720 0.000000 0.000000
 26 7.710041 -174.312271 82.914413 0.000000 -0.000000 0.000000
 27 -48.533020 61.104507 6.637207 -0.087267 0.000000 0.000000
 28 -11.661728 -173.988129 81.962128 0.000000 -0.000000 0.000000
 29 2.355416 41.099152 8.166290 -0.174533 0.000000 0.000000
 30 3.826383 -29.401642 7.538544 0.139626 0.000000 0.000000
 31 -0.684172 -11.661072 48.858292 0.000000 -0.000000 0.000000
 32 -0.072890 -1.756180 2.960068 0.000000 -0.000000 0.000000
time 7
  0 -5.180422 13.788269 -12.439880 0.000000 -0.000000 0.000000
  1 -5.180422 13.788269 -12.439880 0.000000 -0.000000 0.000000
  2 -5.180422 13.788269 -12.439880 0.000000 -0.000000 0.000000
  3 -5.180422 13.788269 -12.439880 0.000000 -0.000000 0.000000
  4 -4.455341 19.713478 299.953064 0.000000 -0.000000 0.000000
  5 -5.180422 132.394058 96.021164 0.087267 0.000000 -0.000000
  6 0.585070 4.634644 -15.754387 -0.340675 0.000000 -0.000000
  7 44.000435 -0.454880 -14.063065 -0.759553 -0.000001 0.000000
  8 -1.648884 -14.263245 -46.038208 1.342775 0.000001 0.000000
  9 1.901329 0.000000 -35.274979 -0.414983 0.000000 0.000000
 10 1.220856 0.000000 -27.561966 0.000000 -0.000000 0.000000
 11 -35.658195 -1.977142 -14.300323 -0.742998 -0.000000 -0.000000
 12 2.095200 -12.740974 -45.800964 1.319929 0.000000 0.000001
 13 -2.525249 0.000000 -34.836555 -0.392135 0.000000 0.000000
 14 -1.229668 -0.000008 -26.461916 0.000000 -0.000000 0.000000
 15 0.585071 -7.861069 40.912125 0.157080 0.000000 -0.000000
 16 -35.591049 -1.703064 41.085167 -0.369523 -0.057350 -0.065309
 17 -37.563431 14.762703 -50.295181 -0.279252 0.000000 -0.000000
 18 -10.963058 -41.811981 -33.818558 -0.366519 0.000001 -0.000000
 19 -3.816719 -34.079010 -25.402428 0.000000 -0.000000 0.000000
 20 41.148888 -1.371414 40.606621 -0.443869 0.045051 0.094368
 21 39.457142 17.377457 -50.174316 -0.245372 -0.019946 -0.001911
 22 11.722168 -44.271458 -32.982773 -0.242925 0.024226 0.007891
 23 2.616638 -33.926445 -25.777016 0.000000 -0.000000 0.000000
 24 -0.737603 -0.369766 42.251762 0.000000 -0.000000 0.000000
 25 59.548981 58.572067 6.503967 -0.104720 0.000000 0.000000
 26 7.710041 -174.312286 82.914398 0.000000 -0.000000 0.000000
 27 -48.533020 61.182831 6.617676 -0.087267 0.000000 0.000000
 28 -11.661728 -173.988129 81.962158 0.000000 -0.000000 0.000000
 29 2.355416 41.099152 8.166306 -0.174533 0.000000 0.000000
 30 3.826383 -29.401627 7.538559 0.139626 0.000000 0.000000
 31 -0.684172 -11.661072 48.858292 0.000000 -0.000000 0.000000
 32 -0.072890 -1.756195 2.960068 0.000000 -0.000000 0.000000
time 8
  0 -5.180422 13.788269 -12.439880 0.000000 -0.000000 0.000000
  1 -5.180422 13.788269 -12.439880 0.000000 -0.000000 0.000000
  2 -5.180422 13.788269 -12.439880 0.000000 -0.000000 0.000000
  3 -5.180422 13.788269 -12.439880 0.000000 -0.000000 0.000000
  4 -4.455341 19.713478 299.953064 0.000000 -0.000000 0.000000
  5 -5.180422 129.942520 96.865807 0.087267 0.000000 -0.000000
  6 0.585070 4.634644 -15.754395 -0.330321 0.000000 -0.000000
  7 44.000435 -0.454857 -14.063080 -0.749199 -0.000001 0.000000
  8 -1.648880 -14.263248 -46.038200 1.319848 0.000001 0.000000
  9 1.901329 0.000008 -35.274971 -0.410176 -0.000000 0.000000
 10 1.220856 0.000000 -27.561966 0.000000 -0.000000 0.000000
 11 -35.658195 -1.977127 -14.300323 -0.733754 -0.000000 -0.000000
 12 2.095200 -12.740990 -45.800972 1.290347 0.000000 0.000001
 13 -2.525249 0.000000 -34.836559 -0.380672 0.000000 0.000000
 14 -1.229668 0.000000 -26.461922 0.000000 -0.000000 0.000000
 15 0.585071 -7.861069 40.912132 0.157080 0.000000 -0.000000
 16 -35.591049 -1.703064 41.085182 -0.354032 -0.056114 -0.065782
 17 -37.563442 14.762703 -50.295181 -0.279252 0.000000 -0.000000
 18 -10.963051 -41.811989 -33.818558 -0.366520 0.000001 -0.000000
 19 -3.816719 -34.079021 -25.402435 0.000000 -0.000000 0.000000
 20 41.148888 -1.371399 40.606606 -0.434301 0.044080 0.094591
 21 39.457138 17.377449 -50.174332 -0.245372 -0.019946 -0.001911
 22 11.722176 -44.271454 -32.982773 -0.242925 0.024226 0.007891
 23 2.616638 -33.926430 -25.777031 0.000000 -0.000000 0.000000
 24 -0.737603 -0.369766 42.251747 0.000000 -0.000000 0.000000
 25 59.549015 66.834000 4.444031 -0.104720 0.000000 0.000000
 26 7.710041 -174.312271 82.914429 0.000000 -0.000000 0.000000
 27 -48.533020 55.693054 7.986435 -0.087267 0.000000 0.000000
 28 -11.661728 -173.988113 81.962143 0.000000 -0.000000 0.000000
 29 2.355416 41.099152 8.166306 -0.174533 0.000000 0.000000
 30 3.826383 -29.401634 7.538544 0.139626 0.000000 0.000000
 31 -0.684172 -11.661072 48.858276 0.000000 -0.000000 0.000000
 32 -0.072890 -1.756195 2.960060 0.000000 -0.000000 0.000000
time 9
  0 -5.180422 13.788269 -12.439880 0.000000 -0.000000 0.000000
  1 -5.180422 13.788269 -12.439880 0.000000 -0.000000 0.000000
  2 -5.180422 13.788269 -12.439880 0.000000 -0.000000 0.000000
  3 -5.180422 13.788269 -12.439880 0.000000 -0.000000 0.000000
  4 -4.455341 19.713478 299.953064 0.000000 -0.000000 0.000000
  5 -5.180422 126.637589 98.004486 0.087267 0.000000 -0.000000
  6 0.585070 4.634628 -15.754395 -0.316363 0.000000 -0.000000
  7 44.000435 -0.454872 -14.063087 -0.735241 -0.000001 0.000000
  8 -1.648884 -14.263245 -46.038208 1.288942 0.000001 0.000000
  9 1.901329 0.000000 -35.274975 -0.403696 -0.000000 0.000000
 10 1.220856 -0.000008 -27.561968 0.000000 -0.000000 0.000000
 11 -35.658195 -1.977135 -14.300331 -0.721292 -0.000000 -0.000000
 12 2.095200 -12.740986 -45.800964 1.250467 0.000000 0.000001
 13 -2.525249 -0.000008 -34.836555 -0.365219 -0.000000 0.000000
 14 -1.229668 -0.000015 -26.461924 0.000000 -0.000000 0.000000
 15 0.585070 -7.861076 40.912148 0.157080 0.000000 -0.000000
 16 -35.591049 -1.703079 41.085175 -0.333150 -0.054448 -0.066420
 17 -37.563435 14.762695 -50.295166 -0.279252 0.000000 -0.000000
 18 -10.963058 -41.812000 -33.818550 -0.366520 0.000001 -0.000000
 19 -3.816727 -34.079014 -25.402435 0.000000 -0.000000 0.000000
 20 41.148888 -1.371414 40.606628 -0.421402 0.042771 0.094892
 21 39.457127 17.377464 -50.174316 -0.245372 -0.019946 -0.001911
 22 11.722153 -44.271450 -32.982758 -0.242925 0.024226 0.007891
 23 2.616646 -33.926437 -25.777023 0.000000 -0.000000 0.000000
 24 -0.737603 -0.369781 42.251770 0.000000 -0.000000 0.000000
 25 59.549023 61.225052 5.842514 -0.104720 0.000000 0.000000
 26 7.710041 -174.312271 82.914398 0.000000 -0.000000 0.000000
 27 -48.533020 48.488663 9.782684 -0.087267 0.000000 0.000000
 28 -11.661728 -173.988129 81.962143 0.000000 -0.000000 0.000000
 29 2.355416 41.099167 8.166321 -0.174533 0.000000 0.000000
 30 3.826383 -29.401627 7.538544 0.139626 0.000000 0.000000
 31 -0.684172 -11.661057 48.858292 0.000000 -0.000000 0.000000
 32 -0.072890 -1.756195 2.960068 0.000000 -0.000000 0.000000
time 10
  0 -5.180422 13.788269 -12.439880 0.000000 -0.000000 0.000000
  1 -5.180422 13.788269 -12.439880 0.000000 -0.000000 0.000000
  2 -5.180422 13.788269 -12.439880 0.000000 -0.000000 0.000000
  3 -5.180422 13.788269 -12.439880 0.000000 -0.000000 0.000000
  4 -4.455341 19.713478 299.953064 0.000000 -0.000000 0.000000
  5 -5.180422 122.568787 99.406334 0.087267 0.000000 -0.000000
  6 0.585070 4.634644 -15.754395 -0.299179 0.000000 -0.000000
  7 44.000435 -0.454872 -14.063072 -0.718057 -0.000001 0.000000
  8 -1.648884 -14.263248 -46.038216 1.250892 0.000001 0.000000
  9 1.901325 0.000000 -35.274975 -0.395717 -0.000000 0.000000
 10 1.220856 0.000000 -27.561966 0.000000 -0.000000 0.000000
 11 -35.658195 -1.977135 -14.300323 -0.705949 -0.000000 -0.000000
 12 2.095196 -12.740982 -45.800964 1.201370 0.000000 0.000000
 13 -2.525246 0.000000 -34.836555 -0.346194 0.000000 0.000000
 14 -1.229671 -0.000008 -26.461920 0.000000 -0.000000 0.000000
 15 0.585070 -7.861084 40.912125 0.157080 0.000000 -0.000000
 16 -35.591049 -1.703064 41.085190 -0.307440 -0.052396 -0.067206
 17 -37.563446 14.762703 -50.295181 -0.279252 0.000000 -0.000000
 18 -10.963058 -41.811989 -33.818558 -0.366520 0.000001 0.000000
 19 -3.816719 -34.079018 -25.402435 0.000000 -0.000000 0.000000
 20 41.148888 -1.371414 40.606628 -0.405521 0.041159 0.095262
 21 39.457134 17.377464 -50.174316 -0.245372 -0.019946 -0.001911
 22 11.722160 -44.271450 -32.982765 -0.242925 0.024226 0.007891
 23 2.616638 -33.926441 -25.777008 0.000000 -0.000000 0.000000
 24 -0.737604 -0.369766 42.251755 0.000000 -0.000000 0.000000
 25 59.549026 48.738419 8.955795 -0.104720 0.000000 0.000000
 26 7.710041 -174.312271 82.914413 0.000000 -0.000000 0.000000
 27 -48.533020 41.764343 11.459229 -0.087267 0.000000 0.000000
 28 -11.661728 -173.988129 81.962128 0.000000 -0.000000 0.000000
 29 2.355417 41.099136 8.166321 -0.174533 0.000000 0.000000
 30 3.826384 -29.401642 7.538544 0.139626 0.000000 0.000000
 31 -0.684171 -11.661072 48.858292 0.000000 -0.000000 0.000000
 32 -0.072890 -1.756195 2.960075 0.000000 -0.000000 0.000000
time 11
  0 -5.180422 13.788269 -12.439880 0.000000 -0.000000 0.000000
  1 -5.180422 13.788269 -12.439880 0.000000 -0.000000 0.000000
  2 -5.180422 13.788269 -12.439880 0.000000 -0.000000 0.000000
  3 -5.180422 13.788269 -12.439880 0.000000 -0.000000 0.000000
  4 -4.455341 19.713478 299.953064 0.000000 -0.000000 0.000000
  5 -5.180422 117.825668 101.040520 0.087267 0.000000 -0.000000
  6 0.585070 4.634644 -15.754395 -0.279147 0.000000 -0.000000
  7 44.000435 -0.454865 -14.063080 -0.698025 -0.000001 0.000000
  8 -1.648888 -14.263248 -46.038208 1.206536 0.000001 0.000000
  9 1.901325 0.000000 -35.274979 -0.386417 -0.000000 0.000000
 10 1.220856 0.000000 -27.561970 0.000000 -0.000000 0.000000
 11 -35.658195 -1.977135 -14.300323 -0.688063 -0.000000 -0.000000
 12 2.095196 -12.740982 -45.800949 1.144136 0.000000 0.000000
 13 -2.525246 -0.000008 -34.836567 -0.324016 0.000000 0.000000
 14 -1.229671 0.000000 -26.461924 0.000000 -0.000000 0.000000
 15 0.585070 -7.861076 40.912132 0.157080 0.000000 -0.000000
 16 -35.591049 -1.703064 41.085182 -0.277470 -0.050004 -0.068122
 17 -37.563438 14.762695 -50.295181 -0.279252 0.000000 -0.000000
 18 -10.963051 -41.811977 -33.818542 -0.366519 0.000001 0.000000
 19 -3.816727 -34.079006 -25.402428 0.000000 -0.000000 0.000000
 20 41.148888 -1.371414 40.606606 -0.387009 0.039280 0.095694
 21 39.457127 17.377464 -50.174316 -0.245372 -0.019946 -0.001911
 22 11.722168 -44.271450 -32.982765 -0.242925 0.024226 0.007891
 23 2.616638 -33.926426 -25.777008 0.000000 -0.000000 0.000000
 24 -0.737604 -0.369766 42.251747 0.000000 -0.000000 0.000000
 25 59.549026 38.940781 11.398621 -0.104720 0.000000 0.000000
 26 7.710037 -174.312271 82.914429 0.000000 -0.000000 0.000000
 27 -48.533020 37.714844 12.468857 -0.087267 0.000000 0.000000
 28 -11.661728 -173.988129 81.962143 0.000000 -0.000000 0.000000
 29 2.355416 41.099152 8.166306 -0.174533 0.000000 0.000000
 30 3.826383 -29.401642 7.538559 0.139626 0.000000 0.000000
 31 -0.684172 -11.661079 48.858276 0.000000 -0.000000 0.000000
 32 -0.072890 -1.756195 2.960060 0.000000 -0.000000 0.000000
time 12
  0 -5.180422 13.788269 -12.439880 0.000000 -0.000000 0.000000
  1 -5.180422 13.788269 -12.439880 0.000000 -0.000000 0.000000
  2 -5.180422 13.788269 -12.439880 0.000000 -0.000000 0.000000
  3 -5.180422 13.788269 -12.439880 0.000000 -0.000000 0.000000
  4 -4.455341 19.713478 299.953064 0.000000 -0.000000 0.000000
  5 -5.180422 112.497749 102.876183 0.087267 0.000000 -0.000000
  6 0.585070 4.634644 -15.754395 -0.256646 0.000000 -0.000000
  7 44.000435 -0.454872 -14.063072 -0.675524 -0.000001 0.000000
  8 -1.648884 -14.263256 -46.038208 1.156711 0.000001 0.000000
  9 1.901329 0.000000 -35.274979 -0.375970 -0.000000 0.000000
 10 1.220856 0.000000 -27.561968 0.000000 -0.000000 0.000000
 11 -35.658195 -1.977127 -14.300323 -0.667973 -0.000000 -0.000000
 12 2.095196 -12.740990 -45.800964 1.079846 0.000000 0.000000
 13 -2.525249 0.000000 -34.836555 -0.299103 0.000000 0.000000
 14 -1.229675 -0.000008 -26.461924 0.000000 -0.000000 0.000000
 15 0.585070 -7.861069 40.912140 0.157080 0.000000 -0.000000
 16 -35.591049 -1.703064 41.085197 -0.243805 -0.047317 -0.069150
 17 -37.563438 14.762703 -50.295166 -0.279252 0.000000 -0.000000
 18 -10.963051 -41.811981 -33.818550 -0.366519 0.000001 -0.000000
 19 -3.816727 -34.079018 -25.402428 0.000000 -0.000000 0.000000
 20 41.148888 -1.371414 40.606621 -0.366214 0.037169 0.096179
 21 39.457130 17.377464 -50.174332 -0.245372 -0.019946 -0.001911
 22 11.722168 -44.271461 -32.982780 -0.242925 0.024226 0.007891
 23 2.616638 -33.926437 -25.777023 0.000000 -0.000000 0.000000
 24 -0.737603 -0.369781 42.251762 0.000000 -0.000000 0.000000
 25 59.549026 37.911652 11.655212 -0.104720 0.000000 0.000000
 26 7.710041 -174.312271 82.914398 0.000000 -0.000000 0.000000
 27 -48.533020 37.339691 12.562408 -0.087267 0.000000 0.000000
 28 -11.661728 -173.988129 81.962158 0.000000 -0.000000 0.000000
 29 2.355416 41.099167 8.166306 -0.174533 0.000000 0.000000
 30 3.826383 -29.401627 7.538544 0.139626 0.000000 0.000000
 31 -0.684172 -11.661072 48.858276 0.000000 -0.000000 0.000000
 32 -0.072890 -1.756195 2.960075 0.000000 -0.000000 0.000000
time 13
  0 -5.180422 13.788269 -12.439880 0.000000 -0.000000 0.000000
  1 -5.180422 13.788269 -12.439880 0.000000 -0.000000 0.000000
  2 -5.180422 13.788269 -12.439880 0.000000 -0.000000 0.000000
  3 -5.180422 13.788269 -12.439880 0.000000 -0.000000 0.000000
  4 -4.455341 19.713478 299.953064 0.000000 -0.000000 0.000000
  5 -5.180422 106.674591 104.882484 0.087267 0.000000 -0.000000
  6 0.585070 4.634644 -15.754379 -0.232053 0.000000 -0.000000
  7 44.000435 -0.454872 -14.063072 -0.650930 -0.000001 0.000000
  8 -1.648880 -14.263252 -46.038216 1.102255 0.000001 0.000000
  9 1.901329 0.000008 -35.274979 -0.364551 -0.000000 0.000000
 10 1.220856 -0.000008 -27.561968 0.000000 -0.000000 0.000000
 11 -35.658195 -1.977135 -14.300316 -0.646015 -0.000000 -0.000000
 12 2.095196 -12.740982 -45.800949 1.009580 0.000000 0.000000
 13 -2.525246 0.000000 -34.836559 -0.271875 -0.000000 0.000000
 14 -1.229675 0.000000 -26.461922 0.000000 -0.000000 0.000000
 15 0.585070 -7.861076 40.912125 0.157080 0.000000 -0.000000
 16 -35.591049 -1.703049 41.085167 -0.207011 -0.044380 -0.070275
 17 -37.563446 14.762688 -50.295166 -0.279252 0.000000 -0.000000
 18 -10.963058 -41.811993 -33.818565 -0.366519 0.000001 0.000000
 19 -3.816727 -34.079021 -25.402451 0.000000 -0.000000 0.000000
 20 41.148888 -1.371399 40.606621 -0.343487 0.034862 0.096709
 21 39.457138 17.377460 -50.174316 -0.245372 -0.019946 -0.001911
 22 11.722176 -44.271446 -32.982765 -0.242925 0.024226 0.007891
 23 2.616646 -33.926430 -25.777016 0.000000 -0.000000 0.000000
 24 -0.737604 -0.369766 42.251778 0.000000 -0.000000 0.000000
 25 59.549023 37.913269 11.654816 -0.104720 0.000000 0.000000
 26 7.710041 -174.312271 82.914383 0.000000 -0.000000 0.000000
 27 -48.533024 37.371658 12.554443 -0.087267 0.000000 0.000000
 28 -11.661728 -173.988129 81.962112 0.000000 -0.000000 0.000000
 29 2.355417 41.099152 8.166306 -0.174533 0.000000 0.000000
 30 3.826384 -29.401627 7.538544 0.139626 0.000000 0.000000
 31 -0.684171 -11.661072 48.858276 0.000000 -0.000000 0.000000
 32 -0.072890 -1.756187 2.960075 0.000000 -0.000000 0.000000
time 14
  0 -5.180422 13.788269 -12.439880 0.000000 -0.000000 0.000000
  1 -5.180422 13.788269 -12.439880 0.000000 -0.000000 0.000000
  2 -5.180422 13.788269 -12.439880 0.000000 -0.000000 0.000000
  3 -5.180422 13.788269 -12.439880 0.000000 -0.000000 0.000000
  4 -4.455341 19.713478 299.953064 0.000000 -0.000000 0.000000
  5 -5.180422 100.445717 107.028564 0.087267 0.000000 -0.000000
  6 0.585070 4.634651 -15.754395 -0.205746 0.000000 -0.000000
  7 44.000435 -0.454872 -14.063072 -0.624624 -0.000001 0.000000
  8 -1.648884 -14.263248 -46.038208 1.044004 0.000000 0.000000
  9 1.901321 0.000008 -35.274971 -0.352338 0.000000 -0.000000
 10 1.220856 -0.000008 -27.561966 0.000000 -0.000000 0.000000
 11 -35.658195 -1.977127 -14.300323 -0.622526 -0.000000 -0.000000
 12 2.095200 -12.740982 -45.800949 0.934418 0.000000 0.000000
 13 -2.525246 0.000000 -34.836555 -0.242750 0.000000 0.000000
 14 -1.229675 -0.000008 -26.461922 0.000000 -0.000000 0.000000
 15 0.585070 -7.861069 40.912140 0.157080 0.000000 -0.000000
 16 -35.591049 -1.703064 41.085175 -0.167653 -0.041239 -0.071477
 17 -37.563446 14.762688 -50.295166 -0.279252 0.000000 -0.000000
 18 -10.963058 -41.811981 -33.818558 -0.366520 0.000001 0.000000
 19 -3.816727 -34.079010 -25.402428 0.000000 -0.000000 0.000000
 20 41.148888 -1.371414 40.606613 -0.319175 0.032395 0.097276
 21 39.457138 17.377449 -50.174316 -0.245372 -0.019946 -0.001911
 22 11.722168 -44.271450 -32.982765 -0.242925 0.024226 0.007891
 23 2.616638 -33.926426 -25.777023 0.000000 -0.000000 0.000000
 24 -0.737603 -0.369766 42.251770 0.000000 -0.000000 0.000000
 25 59.549019 37.916153 11.654083 -0.104720 0.000000 0.000000
 26 7.710041 -174.312271 82.914413 0.000000 -0.000000 0.000000
 27 -48.533024 37.428696 12.540207 -0.087267 0.000000 0.000000
 28 -11.661728 -173.988113 81.962158 0.000000 -0.000000 0.000000
 29 2.355416 41.099152 8.166306 -0.174533 0.000000 0.000000
 30 3.826383 -29.401634 7.538544 0.139626 0.000000 0.000000
 31 -0.684172 -11.661072 48.858276 0.000000 -0.000000 0.000000
 32 -0.072890 -1.756187 2.960060 0.000000 -0.000000 0.000000
time 15
  0 -5.180422 13.788269 -12.439880 0.000000 -0.000000 0.000000
  1 -5.180422 13.788269 -12.439880 0.000000 -0.000000 0.000000
  2 -5.180422 13.788269 -12.439880 0.000000 -0.000000 0.000000
  3 -5.180422 13.788269 -12.439880 0.000000 -0.000000 0.000000
  4 -4.455341 19.713478 299.953064 0.000000 -0.000000 0.000000
  5 -5.180422 93.900665 109.283577 0.087267 0.000000 -0.000000
  6 0.585070 4.634644 -15.754387 -0.178104 0.000000 -0.000000
  7 44.000435 -0.454872 -14.063072 -0.596982 -0.000001 0.000000
  8 -1.648888 -14.263248 -46.038208 0.982797 0.000000 0.000000
  9 1.901329 0.000000 -35.274975 -0.339504 -0.000000 -0.000000
 10 1.220852 -0.000008 -27.561966 0.000000 -0.000000 0.000000
 11 -35.658195 -1.977142 -14.300323 -0.597846 -0.000000 -0.000000
 12 2.095196 -12.740986 -45.800949 0.855441 0.000000 0.000000
 13 -2.525249 0.000000 -34.836555 -0.212146 -0.000000 0.000000
 14 -1.229671 -0.000008 -26.461920 0.000000 -0.000000 0.000000
 15 0.585070 -7.861076 40.912132 0.157080 0.000000 -0.000000
 16 -35.591049 -1.703072 41.085175 -0.126297 -0.037939 -0.072741
 17 -37.563442 14.762695 -50.295181 -0.279252 0.000000 -0.000000
 18 -10.963058 -41.811989 -33.818550 -0.366520 0.000001 -0.000000
 19 -3.816711 -34.079014 -25.402443 0.000000 -0.000000 0.000000
 20 41.148888 -1.371414 40.606628 -0.293630 0.029802 0.097872
 21 39.457130 17.377457 -50.174332 -0.245372 -0.019946 -0.001911
 22 11.722168 -44.271446 -32.982773 -0.242925 0.024226 0.007891
 23 2.616638 -33.926430 -25.777008 0.000000 -0.000000 0.000000
 24 -0.737603 -0.369774 42.251770 0.000000 -0.000000 0.000000
 25 59.549011 37.920151 11.653091 -0.104720 0.000000 0.000000
 26 7.710041 -174.312271 82.914429 0.000000 -0.000000 0.000000
 27 -48.533024 37.507538 12.520554 -0.087267 0.000000 0.000000
 28 -11.661728 -173.988129 81.962158 0.000000 -0.000000 0.000000
 29 2.355416 41.099152 8.166306 -0.174533 0.000000 0.000000
 30 3.826383 -29.401634 7.538559 0.139626 0.000000 0.000000
 31 -0.684172 -11.661072 48.858292 0.000000 -0.000000 0.000000
 32 -0.072890 -1.756203 2.960075 0.000000 -0.000000 0.000000
time 16
  0 -5.180422 13.788269 -12.439880 0.000000 -0.000000 0.000000
  1 -5.180422 13.788269 -12.439880 0.000000 -0.000000 0.000000
  2 -5.180422 13.788269 -12.439880 0.000000 -0.000000 0.000000
  3 -5.180422 13.788269 -12.439880 0.000000 -0.000000 0.000000
  4 -4.455341 19.713478 299.953064 0.000000 -0.000000 0.000000
  5 -5.180422 87.128967 111.616684 0.087267 0.000000 -0.000000
  6 0.585070 4.634659 -15.754395 -0.149505 0.000000 -0.000000
  7 44.000435 -0.454880 -14.063072 -0.568383 -0.000001 0.000000
  8 -1.648888 -14.263254 -46.038208 0.919470 0.000000 0.000000
  9 1.901333 -0.000008 -35.274979 -0.326226 -0.000000 0.000000
 10 1.220856 -0.000008 -27.561974 0.000000 -0.000000 0.000000
 11 -35.658195 -1.977135 -14.300323 -0.572311 -0.000000 -0.000000
 12 2.095196 -12.740980 -45.800957 0.773729 0.000000 0.000000
 13 -2.525249 -0.000008 -34.836555 -0.180483 0.000000 0.000000
 14 -1.229671 -0.000004 -26.461922 0.000000 -0.000000 0.000000
 15 0.585070 -7.861061 40.912117 0.157080 0.000000 -0.000000
 16 -35.591049 -1.703064 41.085175 -0.083510 -0.034524 -0.074048
 17 -37.563442 14.762703 -50.295181 -0.279252 0.000000 -0.000000
 18 -10.963058 -41.811981 -33.818550 -0.366519 0.000001 -0.000000
 19 -3.816719 -34.079021 -25.402420 0.000000 -0.000000 0.000000
 20 41.148888 -1.371414 40.606628 -0.267200 0.027120 0.098488
 21 39.457134 17.377480 -50.174316 -0.245372 -0.019946 -0.001911
 22 11.722168 -44.271454 -32.982780 -0.242925 0.024226 0.007891
 23 2.616638 -33.926422 -25.777023 0.000000 -0.000000 0.000000
 24 -0.737603 -0.369766 42.251770 0.000000 -0.000000 0.000000
 25 59.549004 37.925079 11.651871 -0.104720 0.000000 0.000000
 26 7.710041 -174.312286 82.914398 0.000000 -0.000000 0.000000
 27 -48.533020 37.604935 12.496262 -0.087267 0.000000 0.000000
 28 -11.661724 -173.988129 81.962128 0.000000 -0.000000 0.000000
 29 2.355416 41.099152 8.166306 -0.174533 0.000000 0.000000
 30 3.826383 -29.401634 7.538544 0.139626 0.000000 0.000000
 31 -0.684172 -11.661072 48.858292 0.000000 -0.000000 0.000000
 32 -0.072890 -1.756195 2.960068 0.000000 -0.000000 0.000000
time 17
  0 -5.180422 13.788269 -12.439880 0.000000 -0.000000 0.000000
  1 -5.180422 13.788269 -12.439880 0.000000 -0.000000 0.000000
  2 -5.180422 13.788269 -12.439880 0.000000 -0.000000 0.000000
  3 -5.180422 13.788269 -12.439880 0.000000 -0.000000 0.000000
  4 -4.455341 19.713478 299.953064 0.000000 -0.000000 0.000000
  5 -5.180422 80.220177 113.997025 0.087267 0.000000 -0.000000
  6 0.585070 4.634651 -15.754387 -0.120327 0.000000 -0.000000
  7 44.000435 -0.454872 -14.063072 -0.539205 -0.000001 0.000000
  8 -1.648884 -14.263250 -46.038200 0.854862 0.000000 0.000000
  9 1.901329 0.000000 -35.274979 -0.312679 -0.000000 -0.000000
 10 1.220856 0.000000 -27.561964 0.000000 -0.000000 0.000000
 11 -35.658195 -1.977135 -14.300316 -0.546259 -0.000000 -0.000000
 12 2.095200 -12.740990 -45.800964 0.690363 0.000000 0.000000
 13 -2.525249 0.000004 -34.836555 -0.148179 -0.000000 0.000000
 14 -1.229671 -0.000004 -26.461920 0.000000 -0.000000 0.000000
 15 0.585070 -7.861069 40.912117 0.157080 0.000000 -0.000000
 16 -35.591049 -1.703064 41.085175 -0.039856 -0.031040 -0.075382
 17 -37.563438 14.762703 -50.295181 -0.279252 0.000000 -0.000000
 18 -10.963051 -41.811989 -33.818565 -0.366519 0.000001 -0.000000
 19 -3.816711 -34.079021 -25.402443 0.000000 -0.000000 0.000000
 20 41.148888 -1.371399 40.606628 -0.240235 0.024383 0.099117
 21 39.457146 17.377468 -50.174316 -0.245372 -0.019946 -0.001911
 22 11.722168 -44.271454 -32.982758 -0.242925 0.024226 0.007891
 23 2.616646 -33.926434 -25.777008 0.000000 -0.000000 0.000000
 24 -0.737603 -0.369766 42.251785 0.000000 -0.000000 0.000000
 25 59.548996 37.930801 11.650421 -0.104720 0.000000 0.000000
 26 7.710041 -174.312286 82.914444 0.000000 -0.000000 0.000000
 27 -48.533020 37.717636 12.468170 -0.087267 0.000000 0.000000
 28 -11.661724 -173.988129 81.962158 0.000000 -0.000000 0.000000
 29 2.355416 41.099152 8.166306 -0.174533 0.000000 0.000000
 30 3.826383 -29.401627 7.538528 0.139626 0.000000 0.000000
 31 -0.684172 -11.661072 48.858276 0.000000 -0.000000 0.000000
 32 -0.072890 -1.756187 2.960068 0.000000 -0.000000 0.000000
time 18
  0 -5.180422 13.788269 -12.439880 0.000000 -0.000000 0.000000
  1 -5.180422 13.788269 -12.439880 0.000000 -0.000000 0.000000
  2 -5.180422 13.788269 -12.439880 0.000000 -0.000000 0.000000
  3 -5.180422 13.788269 -12.439880 0.000000 -0.000000 0.000000
  4 -4.455341 19.713478 299.953064 0.000000 -0.000000 0.000000
  5 -5.180422 73.263809 116.393745 0.087267 0.000000 -0.000000
  6 0.585070 4.634644 -15.754395 -0.090947 0.000000 -0.000000
  7 44.000431 -0.454872 -14.063080 -0.509826 -0.000001 0.000000
  8 -1.648876 -14.263254 -46.038216 0.789808 0.000000 0.000000
  9 1.901325 0.000000 -35.274979 -0.299038 0.000000 0.000000
 10 1.220856 -0.000004 -27.561968 0.000000 -0.000000 0.000000
 11 -35.658199 -1.977135 -14.300316 -0.520028 -0.000000 -0.000000
 12 2.095200 -12.740986 -45.800964 0.606422 0.000000 0.000000
 13 -2.525253 0.000004 -34.836563 -0.115652 0.000000 0.000000
 14 -1.229671 -0.000004 -26.461924 0.000000 -0.000000 0.000000
 15 0.585070 -7.861069 40.912140 0.157080 0.000000 -0.000000
 16 -35.591049 -1.703064 41.085175 0.004099 -0.027532 -0.076725
 17 -37.563431 14.762695 -50.295197 -0.279252 0.000000 -0.000000
 18 -10.963058 -41.811981 -33.818573 -0.366519 0.000001 0.000000
 19 -3.816727 -34.079010 -25.402428 0.000000 -0.000000 0.000000
 20 41.148888 -1.371407 40.606613 -0.213085 0.021627 0.099750
 21 39.457138 17.377464 -50.174301 -0.245372 -0.019946 -0.001911
 22 11.722176 -44.271446 -32.982758 -0.242925 0.024226 0.007891
 23 2.616646 -33.926426 -25.777016 0.000000 -0.000000 0.000000
 24 -0.737604 -0.369766 42.251770 0.000000 -0.000000 0.000000
 25 59.548988 37.937119 11.648849 -0.104720 0.000000 0.000000
 26 7.710041 -174.312271 82.914413 0.000000 -0.000000 0.000000
 27 -48.533020 37.842346 12.437088 -0.087267 0.000000 0.000000
 28 -11.661724 -173.988129 81.962143 0.000000 -0.000000 0.000000
 29 2.355416 41.099152 8.166306 -0.174533 0.000000 0.000000
 30 3.826383 -29.401634 7.538544 0.139626 0.000000 0.000000
 31 -0.684172 -11.661072 48.858276 0.000000 -0.000000 0.000000
 32 -0.072890 -1.756187 2.960068 0.000000 -0.000000 0.000000
time 19
  0 -5.180422 13.788269 -12.439880 0.000000 -0.000000 0.000000
  1 -5.180422 13.788269 -12.439880 0.000000 -0.000000 0.000000
  2 -5.180422 13.788269 -12.439880 0.000000 -0.000000 0.000000
  3 -5.180422 13.788269 -12.439880 0.000000 -0.000000 0.000000
  4 -4.455341 19.713478 299.953064 0.000000 -0.000000 0.000000
  5 -5.180422 66.349411 118.776016 0.087267 0.000000 -0.000000
  6 0.585070 4.634644 -15.754395 -0.061746 0.000000 -0.000000
  7 44.000435 -0.454880 -14.063072 -0.480624 -0.000001 0.000000
  8 -1.648880 -14.263252 -46.038200 0.725147 0.000000 0.000000
  9 1.901329 0.000000 -35.274979 -0.285480 -0.000000 -0.000000
 10 1.220856 -0.000004 -27.561964 0.000000 -0.000000 0.000000
 11 -35.658195 -1.977135 -14.300316 -0.493955 -0.000000 -0.000000
 12 2.095196 -12.740982 -45.800964 0.522988 0.000000 0.000000
 13 -2.525246 0.000004 -34.836555 -0.083321 0.000000 0.000000
 14 -1.229675 -0.000004 -26.461924 0.000000 -0.000000 0.000000
 15 0.585070 -7.861076 40.912132 0.157080 0.000000 -0.000000
 16 -35.591049 -1.703064 41.085175 0.047789 -0.024045 -0.078060
 17 -37.563438 14.762680 -50.295181 -0.279252 0.000000 -0.000000
 18 -10.963066 -41.811989 -33.818558 -0.366520 0.000001 0.000000
 19 -3.816719 -34.079025 -25.402435 0.000000 -0.000000 0.000000
 20 41.148888 -1.371407 40.606628 -0.186098 0.018888 0.100380
 21 39.457130 17.377468 -50.174316 -0.245372 -0.019946 -0.001911
 22 11.722176 -44.271450 -32.982773 -0.242925 0.024226 0.007891
 23 2.616638 -33.926430 -25.777016 0.000000 -0.000000 0.000000
 24 -0.737603 -0.369766 42.251770 0.000000 -0.000000 0.000000
 25 59.548988 37.943878 11.647156 -0.104720 0.000000 0.000000
 26 7.710045 -174.312271 82.914429 0.000000 -0.000000 0.000000
 27 -48.533012 37.975830 12.403793 -0.087267 0.000000 0.000000
 28 -11.661724 -173.988129 81.962158 0.000000 -0.000000 0.000000
 29 2.355416 41.099152 8.166290 -0.174533 0.000000 0.000000
 30 3.826383 -29.401630 7.538544 0.139626 0.000000 0.000000
 31 -0.684172 -11.661072 48.858292 0.000000 -0.000000 0.000000
 32 -0.072890 -1.756187 2.960068 0.000000 -0.000000 0.000000
time 20
  0 -5.180422 13.788269 -12.439880 0.000000 -0.000000 0.000000
  1 -5.180422 13.788269 -12.439880 0.000000 -0.000000 0.000000
  2 -5.180422 13.788269 -12.439880 0.000000 -0.000000 0.000000
  3 -5.180422 13.788269 -12.439880 0.000000 -0.000000 0.000000
  4 -4.455341 19.713478 299.953064 0.000000 -0.000000 0.000000
  5 -5.180422 59.566536 121.112976 0.087267 0.000000 -0.000000
  6 0.585070 4.634644 -15.754387 -0.033099 0.000000 -0.000000
  7 44.000435 -0.454872 -14.063065 -0.451977 -0.000001 0.000000
  8 -1.648888 -14.263254 -46.038216 0.661716 0.000000 0.000000
  9 1.901333 -0.000004 -35.274975 -0.272180 -0.000000 -0.000000
 10 1.220856 -0.000004 -27.561968 0.000000 -0.000000 0.000000
 11 -35.658195 -1.977135 -14.300323 -0.468378 -0.000000 -0.000000
 12 2.095196 -12.740986 -45.800957 0.441142 0.000000 0.000000
 13 -2.525246 0.000000 -34.836555 -0.051605 -0.000000 0.000000
 14 -1.229675 -0.000004 -26.461922 0.000000 -0.000000 0.000000
 15 0.585070 -7.861069 40.912140 0.157080 0.000000 -0.000000
 16 -35.591049 -1.703072 41.085175 0.090647 -0.020624 -0.079370
 17 -37.563427 14.762695 -50.295181 -0.279252 0.000000 -0.000000
 18 -10.963058 -41.811981 -33.818558 -0.366519 0.000001 -0.000000
 19 -3.816719 -34.079018 -25.402443 0.000000 -0.000000 0.000000
 20 41.148888 -1.371414 40.606613 -0.159624 0.016201 0.100997
 21 39.457134 17.377460 -50.174316 -0.245372 -0.019946 -0.001911
 22 11.722168 -44.271446 -32.982765 -0.242925 0.024226 0.007891
 23 2.616638 -33.926430 -25.777008 0.000000 -0.000000 0.000000
 24 -0.737603 -0.369766 42.251770 0.000000 -0.000000 0.000000
 25 59.548973 37.950912 11.645401 -0.104720 0.000000 0.000000
 26 7.710041 -174.312271 82.914413 0.000000 -0.000000 0.000000
 27 -48.533012 38.114792 12.369141 -0.087267 0.000000 0.000000
 28 -11.661720 -173.988129 81.962143 0.000000 -0.000000 0.000000
 29 2.355416 41.099152 8.166306 -0.174533 0.000000 0.000000
 30 3.826383 -29.401638 7.538544 0.139626 0.000000 0.000000
 31 -0.684172 -11.661072 48.858276 0.000000 -0.000000 0.000000
 32 -0.072890 -1.756195 2.960068 0.000000 -0.000000 0.000000
time 21
  0 -5.180422 13.788269 -12.439880 0.000000 -0.000000 0.000000
  1 -5.180422 13.788269 -12.439880 0.000000 -0.000000 0.000000
  2 -5.180422 13.788269 -12.439880 0.000000 -0.000000 0.000000
  3 -5.180422 13.788269 -12.439880 0.000000 -0.000000 0.000000
  4 -4.455341 19.713478 299.953064 0.000000 -0.000000 0.000000
  5 -5.180422 53.004692 123.373772 0.087267 0.000000 -0.000000
  6 0.585070 4.634651 -15.754387 -0.005386 0.000000 -0.000000
  7 44.000435 -0.454872 -14.063065 -0.424265 -0.000001 0.000000
  8 -1.648884 -14.263248 -46.038200 0.600351 0.000000 0.000000
  9 1.901329 -0.000008 -35.274975 -0.259313 -0.000000 -0.000000
 10 1.220856 0.000004 -27.561962 0.000000 -0.000000 0.000000
 11 -35.658195 -1.977135 -14.300323 -0.443634 -0.000000 -0.000000
 12 2.095196 -12.740978 -45.800953 0.361962 0.000000 0.000000
 13 -2.525246 0.000002 -34.836552 -0.020923 0.000000 0.000000
 14 -1.229671 -0.000004 -26.461920 0.000000 -0.000000 0.000000
 15 0.585070 -7.861069 40.912140 0.157080 0.000000 -0.000000
 16 -35.591049 -1.703064 41.085190 0.132109 -0.017315 -0.080637
 17 -37.563427 14.762695 -50.295181 -0.279252 0.000000 -0.000000
 18 -10.963051 -41.811993 -33.818558 -0.366519 0.000001 -0.000000
 19 -3.816727 -34.079025 -25.402443 0.000000 -0.000000 0.000000
 20 41.148888 -1.371414 40.606628 -0.134013 0.013602 0.101594
 21 39.457130 17.377472 -50.174332 -0.245372 -0.019946 -0.001911
 22 11.722168 -44.271461 -32.982758 -0.242925 0.024226 0.007891
 23 2.616646 -33.926434 -25.777023 0.000000 -0.000000 0.000000
 24 -0.737604 -0.369774 42.251770 0.000000 -0.000000 0.000000
 25 59.548965 37.958069 11.643616 -0.104720 0.000000 0.000000
 26 7.710037 -174.312286 82.914413 0.000000 -0.000000 0.000000
 27 -48.533009 38.256020 12.333908 -0.087267 0.000000 0.000000
 28 -11.661716 -173.988113 81.962143 0.000000 -0.000000 0.000000
 29 2.355416 41.099159 8.166306 -0.174533 0.000000 0.000000
 30 3.826384 -29.401634 7.538544 0.139626 0.000000 0.000000
 31 -0.684172 -11.661072 48.858276 0.000000 -0.000000 0.000000
 32 -0.072890 -1.756195 2.960068 0.000000 -0.000000 0.000000
time 22
  0 -5.180422 13.788269 -12.439880 0.000000 -0.000000 0.000000
  1 -5.180422 13.788269 -12.439880 0.000000 -0.000000 0.000000
  2 -5.180422 13.788269 -12.439880 0.000000 -0.000000 0.000000
  3 -5.180422 13.788269 -12.439880 0.000000 -0.000000 0.000000
  4 -4.455341 19.713478 299.953064 0.000000 -0.000000 0.000000
  5 -5.180422 46.753433 125.527565 0.087267 0.000000 -0.000000
  6 0.585070 4.634651 -15.754387 0.021015 0.000000 -0.000000
  7 44.000435 -0.454872 -14.063072 -0.397863 -0.000001 0.000000
  8 -1.648884 -14.263250 -46.038204 0.541892 0.000000 0.000000
  9 1.901329 0.000000 -35.274979 -0.247056 0.000000 -0.000000
 10 1.220856 0.000000 -27.561968 0.000000 -0.000000 0.000000
 11 -35.658195 -1.977135 -14.300323 -0.420062 -0.000000 -0.000000
 12 2.095200 -12.740980 -45.800953 0.286530 0.000000 0.000000
 13 -2.525246 0.000002 -34.836555 0.008307 0.000000 0.000000
 14 -1.229671 -0.000002 -26.461922 0.000000 -0.000000 0.000000
 15 0.585070 -7.861073 40.912140 0.157080 0.000000 -0.000000
 16 -35.591049 -1.703072 41.085159 0.171608 -0.014163 -0.081844
 17 -37.563438 14.762711 -50.295181 -0.279252 0.000000 -0.000000
 18 -10.963066 -41.811996 -33.818558 -0.366519 0.000001 -0.000000
 19 -3.816734 -34.079021 -25.402435 0.000000 -0.000000 0.000000
 20 41.148888 -1.371422 40.606598 -0.109615 0.011126 0.102163
 21 39.457134 17.377464 -50.174332 -0.245372 -0.019946 -0.001911
 22 11.722160 -44.271454 -32.982773 -0.242925 0.024226 0.007891
 23 2.616638 -33.926426 -25.777016 0.000000 -0.000000 0.000000
 24 -0.737604 -0.369774 42.251755 0.000000 -0.000000 0.000000
 25 59.548958 37.965179 11.641846 -0.104720 0.000000 0.000000
 26 7.710037 -174.312286 82.914398 0.000000 -0.000000 0.000000
 27 -48.533009 38.396240 12.298965 -0.087267 0.000000 0.000000
 28 -11.661716 -173.988129 81.962158 0.000000 -0.000000 0.000000
 29 2.355416 41.099152 8.166306 -0.174533 0.000000 0.000000
 30 3.826383 -29.401634 7.538544 0.139626 0.000000 0.000000
 31 -0.684172 -11.661072 48.858276 0.000000 -0.000000 0.000000
 32 -0.072890 -1.756195 2.960052 0.000000 -0.000000 0.000000
time 23
  0 -5.180422 13.788269 -12.439880 0.000000 -0.000000 0.000000
  1 -5.180422 13.788269 -12.439880 0.000000 -0.000000 0.000000
  2 -5.180422 13.788269 -12.439880 0.000000 -0.000000 0.000000
  3 -5.180422 13.788269 -12.439880 0.000000 -0.000000 0.000000
  4 -4.455341 19.713478 299.953064 0.000000 -0.000000 0.000000
  5 -5.180422 40.902290 127.543503 0.087267 0.000000 -0.000000
  6 0.585070 4.634651 -15.754395 0.045726 0.000000 -0.000000
  7 44.000435 -0.454872 -14.063072 -0.373152 -0.000001 0.000000
  8 -1.648880 -14.263248 -46.038212 0.487174 0.000000 0.000000
  9 1.901329 0.000000 -35.274979 -0.235583 -0.000000 -0.000000
 10 1.220856 -0.000008 -27.561970 0.000000 -0.000000 0.000000
 11 -35.658195 -1.977139 -14.300331 -0.397998 -0.000000 -0.000000
 12 2.095192 -12.740984 -45.800964 0.215926 0.000000 0.000000
 13 -2.525249 0.000000 -34.836563 0.035666 0.000000 0.000000
 14 -1.229671 0.000000 -26.461926 0.000000 -0.000000 0.000000
 15 0.585070 -7.861073 40.912125 0.157080 0.000000 -0.000000
 16 -35.591049 -1.703072 41.085175 0.208579 -0.011212 -0.082974
 17 -37.563442 14.762703 -50.295197 -0.279252 0.000000 -0.000000
 18 -10.963058 -41.811985 -33.818550 -0.366519 0.000001 0.000000
 19 -3.816727 -34.079025 -25.402443 0.000000 -0.000000 0.000000
 20 41.148888 -1.371414 40.606628 -0.086778 0.008808 0.102696
 21 39.457134 17.377464 -50.174332 -0.245372 -0.019946 -0.001911
 22 11.722168 -44.271446 -32.982750 -0.242925 0.024226 0.007891
 23 2.616638 -33.926437 -25.777016 0.000000 -0.000000 0.000000
 24 -0.737604 -0.369766 42.251785 0.000000 -0.000000 0.000000
 25 59.548946 37.972061 11.640106 -0.104720 0.000000 0.000000
 26 7.710037 -174.312286 82.914398 0.000000 -0.000000 0.000000
 27 -48.533009 38.532150 12.265060 -0.087267 0.000000 0.000000
 28 -11.661716 -173.988144 81.962143 0.000000 -0.000000 0.000000
 29 2.355417 41.099152 8.166306 -0.174533 0.000000 0.000000
 30 3.826384 -29.401638 7.538528 0.139626 0.000000 0.000000
 31 -0.684171 -11.661076 48.858276 0.000000 -0.000000 0.000000
 32 -0.072890 -1.756187 2.960068 0.000000 -0.000000 0.000000
time 24
  0 -5.180422 13.788269 -12.439880 0.000000 -0.000000 0.000000
  1 -5.180422 13.788269 -12.439880 0.000000 -0.000000 0.000000
  2 -5.180422 13.788269 -12.439880 0.000000 -0.000000 0.000000
  3 -5.180422 13.788269 -12.439880 0.000000 -0.000000 0.000000
  4 -4.455341 19.713478 299.953064 0.000000 -0.000000 0.000000
  5 -5.180422 35.540798 129.390732 0.087267 0.000000 -0.000000
  6 0.585070 4.634651 -15.754395 0.068370 0.000000 -0.000000
  7 44.000435 -0.454872 -14.063072 -0.350509 -0.000001 0.000000
  8 -1.648884 -14.263247 -46.038208 0.437035 0.000000 0.000000
  9 1.901325 0.000000 -35.274979 -0.225070 0.000000 0.000000
 10 1.220860 0.000000 -27.561962 0.000000 -0.000000 0.000000
 11 -35.658195 -1.977135 -14.300323 -0.377781 -0.000000 -0.000000
 12 2.095196 -12.740979 -45.800957 0.151230 0.000000 0.000000
 13 -2.525249 -0.000001 -34.836555 0.060735 -0.000000 0.000000
 14 -1.229671 -0.000002 -26.461918 0.000000 -0.000000 0.000000
 15 0.585070 -7.861069 40.912117 0.157080 0.000000 -0.000000
 16 -35.591049 -1.703064 41.085159 0.242457 -0.008508 -0.084009
 17 -37.563446 14.762695 -50.295181 -0.279252 0.000000 -0.000000
 18 -10.963058 -41.811993 -33.818542 -0.366519 0.000001 -0.000000
 19 -3.816719 -34.079018 -25.402435 0.000000 -0.000000 0.000000
 20 41.148888 -1.371410 40.606613 -0.065852 0.006684 0.103184
 21 39.457130 17.377464 -50.174316 -0.245372 -0.019946 -0.001911
 22 11.722160 -44.271450 -32.982773 -0.242925 0.024226 0.007891
 23 2.616646 -33.926422 -25.777016 0.000000 -0.000000 0.000000
 24 -0.737603 -0.369766 42.251770 0.000000 -0.000000 0.000000
 25 59.548939 37.978561 11.638489 -0.104720 0.000000 0.000000
 26 7.710037 -174.312286 82.914413 0.000000 -0.000000 0.000000
 27 -48.533005 38.660538 12.233063 -0.087267 0.000000 0.000000
 28 -11.661720 -173.988129 81.962143 0.000000 -0.000000 0.000000
 29 2.355416 41.099152 8.166306 -0.174533 0.000000 0.000000
 30 3.826383 -29.401634 7.538544 0.139626 0.000000 0.000000
 31 -0.684172 -11.661076 48.858276 0.000000 -0.000000 0.000000
 32 -0.072890 -1.756187 2.960068 0.000000 -0.000000 0.000000
time 25
  0 -5.180422 13.788269 -12.439880 0.000000 -0.000000 0.000000
  1 -5.180422 13.788269 -12.439880 0.000000 -0.000000 0.000000
  2 -5.180422 13.788269 -12.439880 0.000000 -0.000000 0.000000
  3 -5.180422 13.788269 -12.439880 0.000000 -0.000000 0.000000
  4 -4.455341 19.713478 299.953064 0.000000 -0.000000 0.000000
  5 -5.180422 30.758503 131.038422 0.087267 0.000000 -0.000000
  6 0.585070 4.634651 -15.754395 0.088567 0.000000 -0.000000
  7 44.000435 -0.454868 -14.063080 -0.330311 -0.000001 0.000000
  8 -1.648880 -14.263250 -46.038208 0.392313 0.000000 0.000000
  9 1.901333 0.000002 -35.274979 -0.215692 -0.000000 -0.000000
 10 1.220856 -0.000004 -27.561964 0.000000 -0.000000 0.000000
 11 -35.658195 -1.977135 -14.300323 -0.359748 -0.000000 -0.000000
 12 2.095200 -12.740985 -45.800961 0.093524 0.000000 0.000000
 13 -2.525249 0.000001 -34.836563 0.083096 0.000000 0.000000
 14 -1.229671 -0.000004 -26.461926 0.000000 -0.000000 0.000000
 15 0.585070 -7.861073 40.912140 0.157080 0.000000 -0.000000
 16 -35.591049 -1.703064 41.085190 0.272674 -0.006097 -0.084932
 17 -37.563442 14.762703 -50.295181 -0.279252 0.000000 -0.000000
 18 -10.963058 -41.811996 -33.818558 -0.366519 0.000001 -0.000000
 19 -3.816727 -34.079025 -25.402428 0.000000 -0.000000 0.000000
 20 41.148888 -1.371410 40.606628 -0.047187 0.004789 0.103619
 21 39.457142 17.377468 -50.174332 -0.245372 -0.019946 -0.001911
 22 11.722168 -44.271446 -32.982758 -0.242925 0.024226 0.007891
 23 2.616646 -33.926422 -25.777008 0.000000 -0.000000 0.000000
 24 -0.737603 -0.369766 42.251785 0.000000 -0.000000 0.000000
 25 59.548931 37.984528 11.636993 -0.104720 0.000000 0.000000
 26 7.710037 -174.312271 82.914398 0.000000 -0.000000 0.000000
 27 -48.533005 38.778114 12.203735 -0.087267 0.000000 0.000000
 28 -11.661728 -173.988129 81.962143 0.000000 -0.000000 0.000000
 29 2.355416 41.099152 8.166306 -0.174533 0.000000 0.000000
 30 3.826383 -29.401638 7.538528 0.139626 0.000000 0.000000
 31 -0.684172 -11.661076 48.858276 0.000000 -0.000000 0.000000
 32 -0.072890 -1.756187 2.960068 0.000000 -0.000000 0.000000
time 26
  0 -5.180422 13.788269 -12.439880 0.000000 -0.000000 0.000000
  1 -5.180422 13.788269 -12.439880 0.000000 -0.000000 0.000000
  2 -5.180422 13.788269 -12.439880 0.000000 -0.000000 0.000000
  3 -5.180422 13.788269 -12.439880 0.000000 -0.000000 0.000000
  4 -4.455341 19.713478 299.953064 0.000000 -0.000000 0.000000
  5 -5.180422 26.644938 132.455704 0.087267 0.000000 -0.000000
  6 0.585070 4.634647 -15.754387 0.105940 0.000000 -0.000000
  7 44.000431 -0.454872 -14.063080 -0.312938 -0.000001 0.000000
  8 -1.648884 -14.263250 -46.038216 0.353844 0.000000 0.000000
  9 1.901333 0.000000 -35.274979 -0.207626 -0.000000 -0.000000
 10 1.220856 -0.000004 -27.561968 0.000000 -0.000000 0.000000
 11 -35.658199 -1.977139 -14.300323 -0.344236 -0.000000 -0.000000
 12 2.095196 -12.740982 -45.800961 0.043887 0.000000 0.000000
 13 -2.525249 0.000000 -34.836555 0.102331 0.000000 0.000000
 14 -1.229671 -0.000003 -26.461920 0.000000 -0.000000 0.000000
 15 0.585070 -7.861073 40.912140 0.157080 0.000000 -0.000000
 16 -35.591049 -1.703068 41.085175 0.298666 -0.004022 -0.085726
 17 -37.563435 14.762688 -50.295181 -0.279252 0.000000 -0.000000
 18 -10.963051 -41.811989 -33.818558 -0.366519 0.000001 -0.000000
 19 -3.816719 -34.079018 -25.402428 0.000000 -0.000000 0.000000
 20 41.148888 -1.371410 40.606628 -0.031131 0.003160 0.103994
 21 39.457134 17.377472 -50.174316 -0.245372 -0.019946 -0.001911
 22 11.722153 -44.271446 -32.982773 -0.242925 0.024226 0.007891
 23 2.616631 -33.926434 -25.777023 0.000000 -0.000000 0.000000
 24 -0.737603 -0.369770 42.251785 0.000000 -0.000000 0.000000
 25 59.548923 37.989780 11.635696 -0.104720 0.000000 0.000000
 26 7.710041 -174.312286 82.914398 0.000000 -0.000000 0.000000
 27 -48.533005 38.881634 12.177933 -0.087267 0.000000 0.000000
 28 -11.661728 -173.988129 81.962143 0.000000 -0.000000 0.000000
 29 2.355416 41.099155 8.166306 -0.174533 0.000000 0.000000
 30 3.826383 -29.401634 7.538528 0.139626 0.000000 0.000000
 31 -0.684172 -11.661072 48.858276 0.000000 -0.000000 0.000000
 32 -0.072890 -1.756187 2.960068 0.000000 -0.000000 0.000000
time 27
  0 -5.180422 13.788269 -12.439880 0.000000 -0.000000 0.000000
  1 -5.180422 13.788269 -12.439880 0.000000 -0.000000 0.000000
  2 -5.180422 13.788269 -12.439880 0.000000 -0.000000 0.000000
  3 -5.180422 13.788269 -12.439880 0.000000 -0.000000 0.000000
  4 -4.455341 19.713478 299.953064 0.000000 -0.000000 0.000000
  5 -5.180422 23.289635 133.611725 0.087267 0.000000 -0.000000
  6 0.585070 4.634644 -15.754387 0.120111 0.000000 -0.000000
  7 44.000435 -0.454872 -14.063080 -0.298768 -0.000000 0.000000
  8 -1.648884 -14.263250 -46.038212 0.322466 0.000000 0.000000
  9 1.901329 0.000000 -35.274975 -0.201047 0.000000 -0.000000
 10 1.220856 -0.000002 -27.561968 0.000000 -0.000000 0.000000
 11 -35.658199 -1.977135 -14.300323 -0.331584 -0.000000 -0.000000
 12 2.095192 -12.740982 -45.800957 0.003399 0.000000 0.000000
 13 -2.525249 0.000000 -34.836552 0.118020 0.000000 0.000000
 14 -1.229671 -0.000004 -26.461920 0.000000 -0.000000 0.000000
 15 0.585070 -7.861073 40.912140 0.157080 0.000000 -0.000000
 16 -35.591049 -1.703072 41.085175 0.319867 -0.002330 -0.086374
 17 -37.563438 14.762711 -50.295181 -0.279252 0.000000 -0.000000
 18 -10.963058 -41.811996 -33.818581 -0.366519 0.000001 -0.000000
 19 -3.816711 -34.079025 -25.402443 0.000000 -0.000000 0.000000
 20 41.148888 -1.371410 40.606628 -0.018036 0.001831 0.104299
 21 39.457130 17.377460 -50.174301 -0.245372 -0.019946 -0.001911
 22 11.722168 -44.271446 -32.982758 -0.242925 0.024226 0.007891
 23 2.616646 -33.926430 -25.777008 0.000000 -0.000000 0.000000
 24 -0.737604 -0.369770 42.251785 0.000000 -0.000000 0.000000
 25 59.548920 37.994141 11.634598 -0.104720 0.000000 0.000000
 26 7.710045 -174.312286 82.914429 0.000000 -0.000000 0.000000
 27 -48.533001 38.967819 12.156433 -0.087267 0.000000 0.000000
 28 -11.661724 -173.988129 81.962112 0.000000 -0.000000 0.000000
 29 2.355416 41.099152 8.166306 -0.174533 0.000000 0.000000
 30 3.826383 -29.401636 7.538528 0.139626 0.000000 0.000000
 31 -0.684171 -11.661072 48.858276 0.000000 -0.000000 0.000000
 32 -0.072890 -1.756191 2.960068 0.000000 -0.000000 0.000000
time 28
  0 -5.180422 13.788269 -12.439880 0.000000 -0.000000 0.000000
  1 -5.180422 13.788269 -12.439880 0.000000 -0.000000 0.000000
  2 -5.180422 13.788269 -12.439880 0.000000 -0.000000 0.000000
  3 -5.180422 13.788269 -12.439880 0.000000 -0.000000 0.000000
  4 -4.455341 19.713478 299.953064 0.000000 -0.000000 0.000000
  5 -5.180422 20.782131 134.475647 0.087267 0.000000 -0.000000
  6 0.585070 4.634647 -15.754402 0.130701 0.000000 -0.000000
  7 44.000435 -0.454872 -14.063072 -0.288178 -0.000000 0.000000
  8 -1.648884 -14.263247 -46.038216 0.299017 0.000000 0.000000
  9 1.901329 0.000000 -35.274979 -0.196130 0.000000 0.000000
 10 1.220856 -0.000004 -27.561964 0.000000 -0.000000 0.000000
 11 -35.658195 -1.977135 -14.300323 -0.322128 -0.000000 -0.000000
 12 2.095192 -12.740984 -45.800953 -0.026858 0.000000 0.000000
 13 -2.525253 0.000000 -34.836563 0.129744 0.000000 0.000000
 14 -1.229671 -0.000004 -26.461922 0.000000 -0.000000 0.000000
 15 0.585070 -7.861069 40.912125 0.157080 0.000000 -0.000000
 16 -35.591049 -1.703072 41.085159 0.335711 -0.001066 -0.086858
 17 -37.563438 14.762695 -50.295197 -0.279252 0.000000 -0.000000
 18 -10.963051 -41.811993 -33.818550 -0.366519 0.000001 0.000000
 19 -3.816727 -34.079018 -25.402435 0.000000 -0.000000 0.000000
 20 41.148888 -1.371418 40.606613 -0.008249 0.000837 0.104527
 21 39.457138 17.377460 -50.174316 -0.245372 -0.019946 -0.001911
 22 11.722176 -44.271454 -32.982773 -0.242925 0.024226 0.007891
 23 2.616631 -33.926430 -25.777023 0.000000 -0.000000 0.000000
 24 -0.737603 -0.369774 42.251770 0.000000 -0.000000 0.000000
 25 59.548920 37.997463 11.633789 -0.104720 0.000000 0.000000
 26 7.710045 -174.312286 82.914413 0.000000 -0.000000 0.000000
 27 -48.533001 39.033421 12.140091 -0.087267 0.000000 0.000000
 28 -11.661724 -173.988144 81.962128 0.000000 -0.000000 0.000000
 29 2.355416 41.099155 8.166306 -0.174533 0.000000 0.000000
 30 3.826383 -29.401634 7.538544 0.139626 0.000000 0.000000
 31 -0.684172 -11.661068 48.858292 0.000000 -0.000000 0.000000
 32 -0.072890 -1.756195 2.960068 0.000000 -0.000000 0.000000
time 29
  0 -5.180422 13.788269 -12.439880 0.000000 -0.000000 0.000000
  1 -5.180422 13.788269 -12.439880 0.000000 -0.000000 0.000000
  2 -5.180422 13.788269 -12.439880 0.000000 -0.000000 0.000000
  3 -5.180422 13.788269 -12.439880 0.000000 -0.000000 0.000000
  4 -4.455341 19.713478 299.953064 0.000000 -0.000000 0.000000
  5 -5.180422 19.211983 135.016632 0.087267 0.000000 -0.000000
  6 0.585070 4.634645 -15.754395 0.137332 0.000000 -0.000000
  7 44.000435 -0.454872 -14.063080 -0.281547 -0.000000 0.000000
  8 -1.648884 -14.263247 -46.038200 0.284333 0.000000 0.000000
  9 1.901329 0.000000 -35.274975 -0.193051 -0.000000 -0.000000
 10 1.220856 -0.000002 -27.561966 0.000000 -0.000000 0.000000
 11 -35.658199 -1.977139 -14.300323 -0.316208 -0.000000 -0.000000
 12 2.095200 -12.740986 -45.800957 -0.045804 0.000000 0.000000
 13 -2.525253 -0.000000 -34.836555 0.137086 -0.000000 0.000000
 14 -1.229671 -0.000003 -26.461918 0.000000 -0.000000 0.000000
 15 0.585070 -7.861071 40.912125 0.157080 0.000000 -0.000000
 16 -35.591049 -1.703068 41.085175 0.345632 -0.000274 -0.087162
 17 -37.563431 14.762703 -50.295181 -0.279252 0.000000 -0.000000
 18 -10.963066 -41.811993 -33.818558 -0.366519 0.000001 0.000000
 19 -3.816719 -34.079025 -25.402428 0.000000 -0.000000 0.000000
 20 41.148888 -1.371410 40.606613 -0.002120 0.000215 0.104670
 21 39.457138 17.377464 -50.174316 -0.245372 -0.019946 -0.001911
 22 11.722176 -44.271446 -32.982758 -0.242925 0.024226 0.007891
 23 2.616638 -33.926426 -25.777023 0.000000 -0.000000 0.000000
 24 -0.737603 -0.369766 42.251770 0.000000 -0.000000 0.000000
 25 59.548912 37.999573 11.633255 -0.104720 0.000000 0.000000
 26 7.710045 -174.312271 82.914444 0.000000 -0.000000 0.000000
 27 -48.533001 39.075172 12.129684 -0.087267 0.000000 0.000000
 28 -11.661724 -173.988113 81.962097 0.000000 -0.000000 0.000000
 29 2.355416 41.099152 8.166306 -0.174533 0.000000 0.000000
 30 3.826383 -29.401638 7.538544 0.139626 0.000000 0.000000
 31 -0.684172 -11.661076 48.858276 0.000000 -0.000000 0.000000
 32 -0.072890 -1.756191 2.960068 0.000000 -0.000000 0.000000
time 30
  0 -5.180422 13.788269 -12.439880 0.000000 -0.000000 0.000000
  1 -5.180422 13.788269 -12.439880 0.000000 -0.000000 0.000000
  2 -5.180422 13.788269 -12.439880 0.000000 -0.000000 0.000000
  3 -5.180422 13.788269 -12.439880 0.000000 -0.000000 0.000000
  4 -4.455341 19.713478 299.953064 0.000000 -0.000000 0.000000
  5 -5.180422 18.668694 135.203812 0.087267 0.000000 -0.000000
  6 0.585070 4.634647 -15.754387 0.139627 0.000000 -0.000000
  7 44.000435 -0.454872 -14.063072 -0.279252 -0.000000 -0.000000
  8 -1.648884 -14.263248 -46.038208 0.279253 0.000000 0.000000
  9 1.901329 0.000000 -35.274982 -0.191986 0.000000 0.000000
 10 1.220856 -0.000002 -27.561972 0.000000 -0.000000 0.000000
 11 -35.658199 -1.977135 -14.300331 -0.314159 -0.000000 0.000000
 12 2.095200 -12.740986 -45.800972 -0.052360 0.000000 0.000000
 13 -2.525253 0.000000 -34.836559 0.139627 0.000000 0.000000
 14 -1.229671 -0.000004 -26.461926 0.000000 -0.000000 0.000000
 15 0.585070 -7.861073 40.912140 0.157080 0.000000 -0.000000
 16 -35.591049 -1.703072 41.085175 0.349065 0.000000 -0.087266
 17 -37.563438 14.762711 -50.295197 -0.279252 0.000000 -0.000000
 18 -10.963058 -41.811989 -33.818565 -0.366519 0.000001 0.000000
 19 -3.816719 -34.079021 -25.402435 0.000000 -0.000000 0.000000
 20 41.148888 -1.371414 40.606613 -0.000000 0.000000 0.104720
 21 39.457146 17.377460 -50.174316 -0.245372 -0.019946 -0.001911
 22 11.722168 -44.271458 -32.982773 -0.242925 0.024226 0.007891
 23 2.616646 -33.926437 -25.777016 0.000000 -0.000000 0.000000
 24 -0.737603 -0.369774 42.251770 0.000000 -0.000000 0.000000
 25 59.548912 38.000324 11.633072 -0.104720 0.000000 0.000000
 26 7.710045 -174.312271 82.914429 0.000000 -0.000000 0.000000
 27 -48.533001 39.089817 12.126022 -0.087267 0.000000 0.000000
 28 -11.661724 -173.988129 81.962128 0.000000 -0.000000 0.000000
 29 2.355416 41.099155 8.166306 -0.174533 0.000000 0.000000
 30 3.826383 -29.401630 7.538559 0.139626 0.000000 0.000000
 31 -0.684172 -11.661068 48.858292 0.000000 -0.000000 0.000000
 32 -0.072890 -1.756191 2.960083 0.000000 -0.000000 0.000000
end
