version 1
nodes
  0 "bone33"  -1
  1 "bone34"  -1
  2 "bone35"  -1
  3 "bone36"  -1
  4 "bone24"  -1
  5 "bone19"  -1
  6 "bone18"   5
  7 "bone14"   6
  8 "bone15"   7
  9 "bone17"   8
 10 "bone26"   9
 11 "bone04"   6
 12 "bone20"  11
 13 "bone16"  12
 14 "bone27"  13
 15 "bone06"   5
 16 "bone07"  15
 17 "bone05"  16
 18 "bone11"  17
 19 "bone28"  18
 20 "bone02"  15
 21 "bone03"  20
 22 "bone09"  21
 23 "bone29"  22
 24 "bone01"  15
 25 "bone12"  24
 26 "bone30"  25
 27 "bone10"  24
 28 "bone31"  27
 29 "bone13"  24
 30 "bone08"  24
 31 "bone22"  24
 32 "bone23"  15
end
skeleton
time 0
  0 -5.180422 13.788269 -12.439880 0.000000 -0.000000 0.000000
  1 -5.180422 13.788269 -12.439880 0.000000 -0.000000 0.000000
  2 -5.180422 13.788269 -12.439880 0.000000 -0.000000 0.000000
  3 -5.180422 13.788269 -12.439880 0.000000 -0.000000 0.000000
  4 -4.455341 19.713478 299.953064 0.000000 -0.000000 0.000000
  5 -5.180422 18.668694 135.203812 0.087267 0.000000 -0.000000
  6 0.585070 4.634649 -15.754387 0.139627 0.000000 -0.000000
  7 44.000435 -0.454872 -14.063072 -0.279252 -0.000000 0.000000
  8 -1.648884 -14.263247 -46.038208 0.279253 0.000000 0.000000
  9 1.901329 0.000000 -35.274979 -0.191986 0.000000 0.000000
 10 1.220856 -0.000004 -27.561970 0.000000 -0.000000 0.000000
 11 -35.658199 -1.977135 -14.300331 -0.314159 -0.000000 0.000000
 12 2.095200 -12.740986 -45.800972 -0.052360 0.000000 0.000000
 13 -2.525253 -0.000000 -34.836559 0.139626 0.000000 0.000000
 14 -1.229671 -0.000004 -26.461926 0.000000 -0.000000 0.000000
 15 0.585070 -7.861071 40.912140 0.157080 0.000000 -0.000000
 16 -35.591049 -1.703068 41.085175 0.349065 0.000000 -0.087266
 17 -37.563442 14.762703 -50.295212 -0.279252 0.000000 -0.000000
 18 -10.963058 -41.811981 -33.818550 -0.366519 0.000001 -0.000000
 19 -3.816727 -34.079021 -25.402435 0.000000 -0.000000 0.000000
 20 41.148888 -1.371414 40.606613 0.000000 0.000000 0.104720
 21 39.457146 17.377464 -50.174316 -0.245372 -0.019946 -0.001911
 22 11.722168 -44.271454 -32.982788 -0.242925 0.024226 0.007891
 23 2.616638 -33.926430 -25.777016 0.000000 -0.000000 0.000000
 24 -0.737603 -0.369770 42.251770 0.000000 -0.000000 0.000000
 25 59.548912 38.000324 11.633072 -1.623153 -0.000000 -0.000000
 26 7.710041 -174.312256 82.914406 0.000000 -0.000000 0.000000
 27 -48.533001 39.089817 12.126022 -1.658062 -0.000000 0.000000
 28 -11.661724 -173.988174 81.962173 0.000000 -0.000000 0.000000
 29 2.355416 41.099155 8.166306 -0.174533 0.000000 -0.000000
 30 3.826383 -29.401634 7.538559 0.139626 0.000000 0.000000
 31 -0.684172 -11.661072 48.858292 0.000000 -0.000000 0.000000
 32 -0.072890 -1.756195 2.960083 0.000000 -0.000000 0.000000
time 1
  0 -5.180422 13.788269 -12.439880 0.000000 -0.000000 0.000000
  1 -5.180422 13.788269 -12.439880 0.000000 -0.000000 0.000000
  2 -5.180422 13.788269 -12.439880 0.000000 -0.000000 0.000000
  3 -5.180422 13.788269 -12.439880 0.000000 -0.000000 0.000000
  4 -4.455341 19.713478 299.953064 0.000000 -0.000000 0.000000
  5 -5.180422 18.668694 134.893326 0.087267 0.000000 -0.000000
  6 0.585070 4.634647 -15.754379 0.139627 0.000000 -0.000000
  7 44.000435 -0.454872 -14.063080 -0.282823 0.003477 -0.001408
  8 -1.648888 -14.263247 -46.038216 0.279253 0.000000 -0.000000
  9 1.901329 0.000002 -35.274986 -0.191986 0.000000 0.000000
 10 1.220856 -0.000004 -27.561972 0.000000 -0.000000 0.000000
 11 -35.658199 -1.977135 -14.300331 -0.310241 -0.006017 -0.003120
 12 2.095196 -12.740985 -45.800957 -0.052360 0.000000 0.000000
 13 -2.525253 -0.000001 -34.836555 0.139627 -0.000000 0.000000
 14 -1.229675 -0.000004 -26.461922 0.000000 -0.000000 0.000000
 15 0.585070 -7.913334 40.314789 0.157080 0.000000 -0.000000
 16 -35.591049 -1.703068 41.085175 0.345818 -0.004569 -0.082966
 17 -37.563442 14.762695 -50.295181 -0.279252 0.000000 -0.000000
 18 -10.963051 -41.811996 -33.818558 -0.366519 0.000001 -0.000000
 19 -3.816727 -34.079025 -25.402435 0.000000 -0.000000 0.000000
 20 41.148888 -1.371414 40.606628 0.003634 -0.000307 0.104528
 21 39.457138 17.377460 -50.174332 -0.245372 -0.019946 -0.001911
 22 11.722160 -44.271450 -32.982773 -0.242925 0.024226 0.007891
 23 2.616646 -33.926430 -25.777016 0.000000 -0.000000 0.000000
 24 -0.737603 -0.369770 42.251785 0.000000 -0.000000 0.000000
 25 59.548912 37.709404 11.705597 -1.646609 -0.000000 -0.000000
 26 7.710045 -174.312286 82.914406 0.000000 -0.000000 0.000000
 27 -48.215950 39.193893 12.543442 -1.655971 -0.004255 0.003784
 28 -11.661720 -173.988144 81.962135 0.000000 -0.000000 0.000000
 29 2.355416 41.099152 8.166306 -0.174533 0.000000 -0.000000
 30 3.826383 -29.401634 7.538544 0.139626 0.000000 0.000000
 31 -0.684171 -11.661072 48.858292 0.000000 -0.000000 0.000000
 32 -0.072890 -1.756191 2.960083 0.000000 -0.000000 0.000000
time 2
  0 -5.180422 13.788269 -12.439880 0.000000 -0.000000 0.000000
  1 -5.180422 13.788269 -12.439880 0.000000 -0.000000 0.000000
  2 -5.180422 13.788269 -12.439880 0.000000 -0.000000 0.000000
  3 -5.180422 13.788269 -12.439880 0.000000 -0.000000 0.000000
  4 -4.455341 19.713478 299.953064 0.000000 -0.000000 0.000000
  5 -5.180422 18.668694 133.990112 0.087267 0.000000 -0.000000
  6 0.585070 4.634647 -15.754387 0.139627 0.000000 -0.000000
  7 44.000435 -0.454872 -14.063072 -0.293211 0.013594 -0.005506
  8 -1.648884 -14.263251 -46.038212 0.279253 0.000000 0.000000
  9 1.901329 0.000002 -35.274975 -0.191986 0.000000 -0.000000
 10 1.220856 -0.000006 -27.561966 0.000000 -0.000000 0.000000
 11 -35.658195 -1.977135 -14.300339 -0.298842 -0.023520 -0.012197
 12 2.095196 -12.740984 -45.800964 -0.052360 0.000000 0.000000
 13 -2.525249 -0.000000 -34.836563 0.139626 -0.000000 0.000000
 14 -1.229668 -0.000003 -26.461926 0.000000 -0.000000 0.000000
 15 0.585070 -8.065369 38.576996 0.157080 0.000000 -0.000000
 16 -35.591049 -1.703068 41.085190 0.336372 -0.017860 -0.070454
 17 -37.563442 14.762711 -50.295212 -0.279252 0.000000 -0.000000
 18 -10.963066 -41.811985 -33.818542 -0.366519 0.000001 -0.000000
 19 -3.816719 -34.079029 -25.402428 0.000000 -0.000000 0.000000
 20 41.148888 -1.371414 40.606613 0.014204 -0.001199 0.103972
 21 39.457142 17.377464 -50.174316 -0.245372 -0.019946 -0.001911
 22 11.722168 -44.271446 -32.982758 -0.242925 0.024226 0.007891
 23 2.616653 -33.926430 -25.777016 0.000000 -0.000000 0.000000
 24 -0.737603 -0.369774 42.251755 0.000000 -0.000000 0.000000
 25 59.548912 36.863102 11.916611 -1.687705 -0.000000 -0.000000
 26 7.710037 -174.312271 82.914413 0.000000 -0.000000 0.000000
 27 -47.293621 39.496662 13.757797 -1.649891 -0.016632 0.014791
 28 -11.661724 -173.988144 81.962158 0.000000 -0.000000 0.000000
 29 2.355416 41.099155 8.166306 -0.174533 0.000000 -0.000000
 30 3.826383 -29.401638 7.538559 0.139626 0.000000 0.000000
 31 -0.684172 -11.661072 48.858276 0.000000 -0.000000 0.000000
 32 -0.072890 -1.756191 2.960068 0.000000 -0.000000 0.000000
time 3
  0 -5.180422 13.788269 -12.439880 0.000000 -0.000000 0.000000
  1 -5.180422 13.788269 -12.439880 0.000000 -0.000000 0.000000
  2 -5.180422 13.788269 -12.439880 0.000000 -0.000000 0.000000
  3 -5.180422 13.788269 -12.439880 0.000000 -0.000000 0.000000
  4 -4.455341 19.713478 299.953064 0.000000 -0.000000 0.000000
  5 -5.180422 18.668694 132.536514 0.087267 0.000000 -0.000000
  6 0.585070 4.634647 -15.754379 0.139627 0.000000 -0.000000
  7 44.000439 -0.454872 -14.063080 -0.309929 0.029876 -0.012100
  8 -1.648884 -14.263249 -46.038212 0.279253 0.000000 -0.000000
  9 1.901329 -0.000004 -35.274979 -0.191986 0.000000 -0.000000
 10 1.220856 0.000000 -27.561968 0.000000 -0.000000 0.000000
 11 -35.658195 -1.977135 -14.300331 -0.280498 -0.051688 -0.026805
 12 2.095196 -12.740987 -45.800968 -0.052360 0.000000 0.000000
 13 -2.525246 -0.000000 -34.836563 0.139626 0.000000 0.000000
 14 -1.229671 -0.000003 -26.461924 0.000000 -0.000000 0.000000
 15 0.585070 -8.310055 35.780258 0.157080 0.000000 -0.000000
 16 -35.591049 -1.703068 41.085175 0.321169 -0.039251 -0.050318
 17 -37.563438 14.762703 -50.295197 -0.279252 0.000000 -0.000000
 18 -10.963058 -41.811985 -33.818542 -0.366520 0.000001 0.000000
 19 -3.816719 -34.079025 -25.402435 0.000000 -0.000000 0.000000
 20 41.148888 -1.371410 40.606613 0.031216 -0.002634 0.103077
 21 39.457130 17.377453 -50.174301 -0.245372 -0.019946 -0.001911
 22 11.722168 -44.271446 -32.982758 -0.242925 0.024226 0.007891
 23 2.616638 -33.926434 -25.777023 0.000000 -0.000000 0.000000
 24 -0.737603 -0.369770 42.251770 0.000000 -0.000000 0.000000
 25 59.548912 35.501087 12.256195 -1.745147 -0.000000 -0.000000
 26 7.710037 -174.312302 82.914413 0.000000 -0.000000 0.000000
 27 -45.809242 39.983944 15.712158 -1.640104 -0.036551 0.032506
 28 -11.661720 -173.988159 81.962166 0.000000 -0.000000 0.000000
 29 2.355416 41.099155 8.166306 -0.174533 0.000000 -0.000000
 30 3.826383 -29.401634 7.538544 0.139626 0.000000 0.000000
 31 -0.684172 -11.661068 48.858276 0.000000 -0.000000 0.000000
 32 -0.072890 -1.756195 2.960068 0.000000 -0.000000 0.000000
time 4
  0 -5.180422 13.788269 -12.439880 0.000000 -0.000000 0.000000
  1 -5.180422 13.788269 -12.439880 0.000000 -0.000000 0.000000
  2 -5.180422 13.788269 -12.439880 0.000000 -0.000000 0.000000
  3 -5.180422 13.788269 -12.439880 0.000000 -0.000000 0.000000
  4 -4.455341 19.713478 299.953064 0.000000 -0.000000 0.000000
  5 -5.180422 18.668694 130.574844 0.087267 0.000000 -0.000000
  6 0.585070 4.634647 -15.754379 0.139627 0.000000 -0.000000
  7 44.000439 -0.454868 -14.063080 -0.332490 0.051848 -0.020999
  8 -1.648888 -14.263248 -46.038212 0.279253 0.000000 -0.000000
  9 1.901331 0.000000 -35.274986 -0.191986 0.000000 0.000000
 10 1.220856 -0.000001 -27.561970 0.000000 -0.000000 0.000000
 11 -35.658195 -1.977135 -14.300331 -0.255743 -0.089702 -0.046519
 12 2.095196 -12.740984 -45.800964 -0.052360 0.000000 0.000000
 13 -2.525246 0.000000 -34.836563 0.139627 -0.000000 0.000000
 14 -1.229675 -0.000003 -26.461922 0.000000 -0.000000 0.000000
 15 0.585070 -8.640259 32.006027 0.157080 0.000000 -0.000000
 16 -35.591049 -1.703064 41.085190 0.300653 -0.068119 -0.023144
 17 -37.563438 14.762703 -50.295197 -0.279252 0.000000 -0.000000
 18 -10.963051 -41.811981 -33.818550 -0.366519 0.000001 0.000000
 19 -3.816727 -34.079029 -25.402420 0.000000 -0.000000 0.000000
 20 41.148888 -1.371414 40.606628 0.054173 -0.004572 0.101868
 21 39.457134 17.377464 -50.174332 -0.245372 -0.019946 -0.001911
 22 11.722168 -44.271450 -32.982758 -0.242925 0.024226 0.007891
 23 2.616638 -33.926426 -25.777023 0.000000 -0.000000 0.000000
 24 -0.737603 -0.369774 42.251755 0.000000 -0.000000 0.000000
 25 59.548912 33.663029 12.714493 -1.817641 -0.000000 -0.000000
 26 7.710041 -174.312256 82.914421 0.000000 -0.000000 0.000000
 27 -43.806049 40.641537 18.349594 -1.626898 -0.063432 0.056413
 28 -11.661736 -173.988159 81.962158 0.000000 -0.000000 0.000000
 29 2.355416 41.099148 8.166306 -0.174533 0.000000 -0.000000
 30 3.826383 -29.401634 7.538559 0.139626 0.000000 0.000000
 31 -0.684172 -11.661068 48.858292 0.000000 -0.000000 0.000000
 32 -0.072890 -1.756191 2.960083 0.000000 -0.000000 0.000000
time 5
  0 -5.180422 13.788269 -12.439880 0.000000 -0.000000 0.000000
  1 -5.180422 13.788269 -12.439880 0.000000 -0.000000 0.000000
  2 -5.180422 13.788269 -12.439880 0.000000 -0.000000 0.000000
  3 -5.180422 13.788269 -12.439880 0.000000 -0.000000 0.000000
  4 -4.455341 19.713478 299.953064 0.000000 -0.000000 0.000000
  5 -5.180422 18.668694 128.147446 0.087267 0.000000 -0.000000
  6 0.585070 4.634647 -15.754387 0.139627 0.000000 -0.000000
  7 44.000439 -0.454872 -14.063080 -0.360408 0.079037 -0.032010
  8 -1.648886 -14.263248 -46.038208 0.279253 0.000000 0.000000
  9 1.901329 0.000000 -35.274979 -0.191986 0.000000 -0.000000
 10 1.220858 -0.000004 -27.561968 0.000000 -0.000000 0.000000
 11 -35.658195 -1.977135 -14.300331 -0.225110 -0.136740 -0.070914
 12 2.095192 -12.740985 -45.800961 -0.052360 0.000000 0.000000
 13 -2.525249 -0.000000 -34.836559 0.139627 0.000000 0.000000
 14 -1.229673 -0.000006 -26.461922 0.000000 -0.000000 0.000000
 15 0.585070 -9.048859 27.335724 0.157080 0.000000 -0.000000
 16 -35.591049 -1.703068 41.085175 0.275266 -0.103839 0.010481
 17 -37.563438 14.762711 -50.295189 -0.279252 0.000000 -0.000000
 18 -10.963058 -41.811985 -33.818550 -0.366519 0.000001 0.000000
 19 -3.816727 -34.079021 -25.402435 0.000000 -0.000000 0.000000
 20 41.148888 -1.371414 40.606613 0.082581 -0.006969 0.100373
 21 39.457153 17.377464 -50.174301 -0.245372 -0.019946 -0.001911
 22 11.722168 -44.271458 -32.982780 -0.242925 0.024226 0.007891
 23 2.616653 -33.926437 -25.777023 0.000000 -0.000000 0.000000
 24 -0.737603 -0.369770 42.251770 0.000000 -0.000000 0.000000
 25 59.548920 31.388603 13.281555 -1.903893 -0.000000 -0.000000
 26 7.710037 -174.312271 82.914413 0.000000 -0.000000 0.000000
 27 -41.327286 41.455246 21.613174 -1.610556 -0.096694 0.085996
 28 -11.661736 -173.988174 81.962143 0.000000 -0.000000 0.000000
 29 2.355416 41.099152 8.166306 -0.174533 0.000000 -0.000000
 30 3.826383 -29.401634 7.538559 0.139626 0.000000 0.000000
 31 -0.684172 -11.661072 48.858276 0.000000 -0.000000 0.000000
 32 -0.072890 -1.756191 2.960068 0.000000 -0.000000 0.000000
time 6
  0 -5.180422 13.788269 -12.439880 0.000000 -0.000000 0.000000
  1 -5.180422 13.788269 -12.439880 0.000000 -0.000000 0.000000
  2 -5.180422 13.788269 -12.439880 0.000000 -0.000000 0.000000
  3 -5.180422 13.788269 -12.439880 0.000000 -0.000000 0.000000
  4 -4.455341 19.713478 299.953064 0.000000 -0.000000 0.000000
  5 -5.180422 18.668694 125.296684 0.087267 0.000000 -0.000000
  6 0.585070 4.634649 -15.754387 0.139627 0.000000 -0.000000
  7 44.000439 -0.454872 -14.063080 -0.393195 0.110968 -0.044943
  8 -1.648880 -14.263248 -46.038212 0.279253 0.000000 -0.000000
  9 1.901329 0.000000 -35.274979 -0.191986 -0.000000 -0.000000
 10 1.220854 -0.000002 -27.561972 0.000000 -0.000000 0.000000
 11 -35.658195 -1.977135 -14.300331 -0.189134 -0.191983 -0.099563
 12 2.095196 -12.740986 -45.800964 -0.052360 0.000000 0.000000
 13 -2.525248 -0.000001 -34.836559 0.139626 -0.000000 0.000000
 14 -1.229673 -0.000004 -26.461922 0.000000 -0.000000 0.000000
 15 0.585071 -9.528725 21.850838 0.157080 0.000000 -0.000000
 16 -35.591049 -1.703072 41.085190 0.245451 -0.145790 0.049970
 17 -37.563446 14.762718 -50.295197 -0.279252 0.000000 -0.000000
 18 -10.963051 -41.811993 -33.818542 -0.366519 0.000001 -0.000000
 19 -3.816727 -34.079029 -25.402443 0.000000 -0.000000 0.000000
 20 41.148888 -1.371410 40.606628 0.115944 -0.009785 0.098617
 21 39.457138 17.377464 -50.174332 -0.245372 -0.019946 -0.001911
 22 11.722176 -44.271454 -32.982758 -0.242925 0.024226 0.007891
 23 2.616638 -33.926430 -25.777008 0.000000 -0.000000 0.000000
 24 -0.737603 -0.369766 42.251785 0.000000 -0.000000 0.000000
 25 59.548916 28.717453 13.947556 -2.002610 -0.000000 -0.000000
 26 7.710041 -174.312286 82.914383 0.000000 -0.000000 0.000000
 27 -38.416180 42.410873 25.445999 -1.591364 -0.135759 0.120738
 28 -11.661728 -173.988129 81.962158 0.000000 -0.000000 0.000000
 29 2.355416 41.099152 8.166306 -0.174533 0.000000 -0.000000
 30 3.826383 -29.401638 7.538544 0.139626 0.000000 0.000000
 31 -0.684172 -11.661072 48.858276 0.000000 -0.000000 0.000000
 32 -0.072890 -1.756191 2.960083 0.000000 -0.000000 0.000000
time 7
  0 -5.180422 13.788269 -12.439880 0.000000 -0.000000 0.000000
  1 -5.180422 13.788269 -12.439880 0.000000 -0.000000 0.000000
  2 -5.180422 13.788269 -12.439880 0.000000 -0.000000 0.000000
  3 -5.180422 13.788269 -12.439880 0.000000 -0.000000 0.000000
  4 -4.455341 19.713478 299.953064 0.000000 -0.000000 0.000000
  5 -5.180422 18.668694 122.064873 0.087267 0.000000 -0.000000
  6 0.585070 4.634651 -15.754387 0.139627 0.000000 -0.000000
  7 44.000439 -0.454872 -14.063072 -0.430364 0.147167 -0.059603
  8 -1.648884 -14.263248 -46.038212 0.279253 0.000000 -0.000000
  9 1.901329 0.000000 -35.274979 -0.191986 0.000000 -0.000000
 10 1.220854 -0.000003 -27.561970 0.000000 -0.000000 0.000000
 11 -35.658195 -1.977135 -14.300331 -0.148349 -0.254610 -0.132041
 12 2.095196 -12.740984 -45.800961 -0.052360 0.000000 0.000000
 13 -2.525249 0.000001 -34.836559 0.139627 0.000000 0.000000
 14 -1.229671 -0.000002 -26.461922 0.000000 -0.000000 0.000000
 15 0.585071 -10.072731 15.632851 0.157080 0.000000 -0.000000
 16 -35.591049 -1.703064 41.085190 0.211651 -0.193349 0.094739
 17 -37.563446 14.762703 -50.295204 -0.279252 0.000000 -0.000000
 18 -10.963058 -41.812004 -33.818565 -0.366520 0.000001 0.000000
 19 -3.816727 -34.079033 -25.402443 0.000000 -0.000000 0.000000
 20 41.148888 -1.371414 40.606613 0.153766 -0.012977 0.096627
 21 39.457146 17.377472 -50.174316 -0.245372 -0.019946 -0.001911
 22 11.722168 -44.271446 -32.982758 -0.242925 0.024226 0.007891
 23 2.616646 -33.926430 -25.777016 0.000000 -0.000000 0.000000
 24 -0.737603 -0.369774 42.251755 0.000000 -0.000000 0.000000
 25 59.548920 25.689297 14.702560 -2.112498 -0.000000 -0.000000
 26 7.710041 -174.312241 82.914413 0.000000 -0.000000 0.000000
 27 -35.115963 43.494244 29.791122 -1.569606 -0.180045 0.160124
 28 -11.661732 -173.988159 81.962143 0.000000 -0.000000 0.000000
 29 2.355416 41.099155 8.166306 -0.174533 0.000000 -0.000000
 30 3.826383 -29.401634 7.538559 0.139626 0.000000 0.000000
 31 -0.684172 -11.661072 48.858292 0.000000 -0.000000 0.000000
 32 -0.072890 -1.756191 2.960083 0.000000 -0.000000 0.000000
time 8
  0 -5.180422 13.788269 -12.439880 0.000000 -0.000000 0.000000
  1 -5.180422 13.788269 -12.439880 0.000000 -0.000000 0.000000
  2 -5.180422 13.788269 -12.439880 0.000000 -0.000000 0.000000
  3 -5.180422 13.788269 -12.439880 0.000000 -0.000000 0.000000
  4 -4.455341 19.713478 299.953064 0.000000 -0.000000 0.000000
  5 -5.180422 18.668694 118.494354 0.087267 0.000000 -0.000000
  6 0.585070 4.634647 -15.754387 0.139627 0.000000 -0.000000
  7 44.000435 -0.454868 -14.063072 -0.471429 0.187160 -0.075801
  8 -1.648880 -14.263246 -46.038212 0.279253 0.000000 -0.000000
  9 1.901329 0.000001 -35.274979 -0.191986 -0.000000 0.000000
 10 1.220856 0.000000 -27.561970 0.000000 -0.000000 0.000000
 11 -35.658199 -1.977131 -14.300331 -0.103291 -0.323800 -0.167924
 12 2.095196 -12.740983 -45.800964 -0.052360 0.000000 0.000000
 13 -2.525251 0.000001 -34.836563 0.139627 -0.000000 0.000000
 14 -1.229673 -0.000005 -26.461924 0.000000 -0.000000 0.000000
 15 0.585071 -10.673752 8.763168 0.157080 0.000000 -0.000000
 16 -35.591049 -1.703060 41.085182 0.174309 -0.245891 0.144199
 17 -37.563446 14.762703 -50.295204 -0.279252 0.000000 -0.000000
 18 -10.963058 -41.811985 -33.818558 -0.366519 0.000001 -0.000000
 19 -3.816723 -34.079025 -25.402439 0.000000 -0.000000 0.000000
 20 41.148888 -1.371410 40.606621 0.195552 -0.016504 0.094427
 21 39.457130 17.377460 -50.174339 -0.245372 -0.019946 -0.001911
 22 11.722160 -44.271446 -32.982765 -0.242925 0.024226 0.007891
 23 2.616653 -33.926434 -25.777004 0.000000 -0.000000 0.000000
 24 -0.737603 -0.369770 42.251747 0.000000 -0.000000 0.000000
 25 59.548923 22.343758 15.536713 -2.232263 -0.000000 -0.000000
 26 7.710037 -174.312271 82.914429 0.000000 -0.000000 0.000000
 27 -31.469872 44.691147 34.591629 -1.545568 -0.228972 0.203638
 28 -11.661743 -173.988129 81.962158 0.000000 -0.000000 0.000000
 29 2.355416 41.099152 8.166306 -0.174533 0.000000 -0.000000
 30 3.826383 -29.401634 7.538559 0.139626 0.000000 0.000000
 31 -0.684172 -11.661072 48.858292 0.000000 -0.000000 0.000000
 32 -0.072890 -1.756191 2.960060 0.000000 -0.000000 0.000000
time 9
  0 -5.180422 13.788269 -12.439880 0.000000 -0.000000 0.000000
  1 -5.180422 13.788269 -12.439880 0.000000 -0.000000 0.000000
  2 -5.180422 13.788269 -12.439880 0.000000 -0.000000 0.000000
  3 -5.180422 13.788269 -12.439880 0.000000 -0.000000 0.000000
  4 -4.455341 19.713478 299.953064 0.000000 -0.000000 0.000000
  5 -5.180422 18.668694 114.627472 0.087267 0.000000 -0.000000
  6 0.585070 4.634647 -15.754395 0.139627 0.000000 -0.000000
  7 44.000439 -0.454872 -14.063072 -0.515902 0.230472 -0.093342
  8 -1.648886 -14.263252 -46.038216 0.279253 0.000000 0.000000
  9 1.901328 -0.000000 -35.274979 -0.191986 -0.000000 0.000000
 10 1.220856 -0.000003 -27.561970 0.000000 -0.000000 0.000000
 11 -35.658195 -1.977135 -14.300331 -0.054492 -0.398733 -0.206784
 12 2.095197 -12.740982 -45.800964 -0.052360 0.000000 0.000000
 13 -2.525244 0.000000 -34.836555 0.139626 0.000000 0.000000
 14 -1.229673 -0.000002 -26.461922 0.000000 -0.000000 0.000000
 15 0.585071 -11.324661 1.323288 0.157080 0.000000 -0.000000
 16 -35.591049 -1.703068 41.085175 0.133867 -0.302795 0.197764
 17 -37.563438 14.762711 -50.295197 -0.279252 0.000000 -0.000000
 18 -10.963055 -41.811981 -33.818542 -0.366519 0.000001 -0.000000
 19 -3.816723 -34.079029 -25.402428 0.000000 -0.000000 0.000000
 20 41.148888 -1.371414 40.606613 0.240806 -0.020323 0.092045
 21 39.457134 17.377464 -50.174339 -0.245372 -0.019946 -0.001911
 22 11.722160 -44.271439 -32.982765 -0.242925 0.024226 0.007891
 23 2.616653 -33.926430 -25.777016 0.000000 -0.000000 0.000000
 24 -0.737603 -0.369770 42.251770 0.000000 -0.000000 0.000000
 25 59.548920 18.720535 16.440063 -2.360611 -0.000000 -0.000000
 26 7.710037 -174.312302 82.914429 0.000000 -0.000000 0.000000
 27 -27.521139 45.987396 39.790573 -1.519535 -0.281960 0.250764
 28 -11.661751 -173.988174 81.962173 0.000000 -0.000000 0.000000
 29 2.355416 41.099152 8.166306 -0.174533 0.000000 -0.000000
 30 3.826383 -29.401638 7.538544 0.139626 0.000000 0.000000
 31 -0.684172 -11.661072 48.858276 0.000000 -0.000000 0.000000
 32 -0.072890 -1.756191 2.960083 0.000000 -0.000000 0.000000
time 10
  0 -5.180422 13.788269 -12.439880 0.000000 -0.000000 0.000000
  1 -5.180422 13.788269 -12.439880 0.000000 -0.000000 0.000000
  2 -5.180422 13.788269 -12.439880 0.000000 -0.000000 0.000000
  3 -5.180422 13.788269 -12.439880 0.000000 -0.000000 0.000000
  4 -4.455341 19.713478 299.953064 0.000000 -0.000000 0.000000
  5 -5.180422 18.668694 110.506554 0.087267 0.000000 -0.000000
  6 0.585070 4.634647 -15.754387 0.139627 0.000000 -0.000000
  7 44.000439 -0.454872 -14.063080 -0.563297 0.276630 -0.112037
  8 -1.648883 -14.263248 -46.038219 0.279253 0.000000 -0.000000
  9 1.901327 -0.000003 -35.274979 -0.191986 0.000000 -0.000000
 10 1.220857 -0.000005 -27.561970 0.000000 -0.000000 0.000000
 11 -35.658195 -1.977135 -14.300331 -0.002487 -0.478589 -0.248198
 12 2.095193 -12.740986 -45.800964 -0.052360 0.000000 0.000000
 13 -2.525251 0.000000 -34.836559 0.139626 0.000000 0.000000
 14 -1.229674 -0.000006 -26.461922 0.000000 -0.000000 0.000000
 15 0.585071 -12.018330 -6.605339 0.157080 0.000000 -0.000000
 16 -35.591049 -1.703064 41.085175 0.090768 -0.363438 0.254848
 17 -37.563442 14.762711 -50.295189 -0.279252 0.000000 -0.000000
 18 -10.963047 -41.811985 -33.818542 -0.366519 0.000001 0.000000
 19 -3.816721 -34.079021 -25.402428 0.000000 -0.000000 0.000000
 20 41.148888 -1.371414 40.606613 0.289033 -0.024393 0.089507
 21 39.457138 17.377464 -50.174316 -0.245372 -0.019946 -0.001911
 22 11.722168 -44.271450 -32.982761 -0.242925 0.024226 0.007891
 23 2.616646 -33.926434 -25.777004 0.000000 -0.000000 0.000000
 24 -0.737603 -0.369770 42.251770 0.000000 -0.000000 0.000000
 25 59.548920 14.859289 17.402786 -2.496248 -0.000000 -0.000000
 26 7.710033 -174.312302 82.914406 0.000000 -0.000000 0.000000
 27 -23.313004 47.368820 45.331100 -1.491791 -0.338429 0.300986
 28 -11.661732 -173.988129 81.962151 0.000000 -0.000000 0.000000
 29 2.355416 41.099152 8.166306 -0.174533 0.000000 -0.000000
 30 3.826383 -29.401632 7.538544 0.139626 0.000000 0.000000
 31 -0.684172 -11.661072 48.858276 0.000000 -0.000000 0.000000
 32 -0.072890 -1.756189 2.960083 0.000000 -0.000000 0.000000
time 11
  0 -5.180422 13.788269 -12.439880 0.000000 -0.000000 0.000000
  1 -5.180422 13.788269 -12.439880 0.000000 -0.000000 0.000000
  2 -5.180422 13.788269 -12.439880 0.000000 -0.000000 0.000000
  3 -5.180422 13.788269 -12.439880 0.000000 -0.000000 0.000000
  4 -4.455341 19.713478 299.953064 0.000000 -0.000000 0.000000
  5 -5.180422 18.668694 106.173958 0.087267 0.000000 -0.000000
  6 0.585070 4.634651 -15.754387 0.139627 0.000000 -0.000000
  7 44.000439 -0.454872 -14.063080 -0.613126 0.325159 -0.131691
  8 -1.648883 -14.263248 -46.038216 0.279253 0.000000 0.000000
  9 1.901331 0.000002 -35.274979 -0.191986 0.000000 -0.000000
 10 1.220855 0.000000 -27.561972 0.000000 -0.000000 0.000000
 11 -35.658195 -1.977135 -14.300331 0.052189 -0.562547 -0.291739
 12 2.095194 -12.740986 -45.800953 -0.052360 0.000000 0.000000
 13 -2.525252 -0.000002 -34.836559 0.139626 0.000000 0.000000
 14 -1.229674 -0.000004 -26.461922 0.000000 -0.000000 0.000000
 15 0.585071 -12.747630 -14.941261 0.157080 0.000000 -0.000000
 16 -35.591049 -1.703068 41.085175 0.045455 -0.427195 0.314865
 17 -37.563438 14.762711 -50.295189 -0.279252 0.000000 -0.000000
 18 -10.963053 -41.811993 -33.818562 -0.366519 0.000001 0.000000
 19 -3.816721 -34.079033 -25.402439 0.000000 -0.000000 0.000000
 20 41.148888 -1.371412 40.606621 0.339738 -0.028672 0.086838
 21 39.457134 17.377457 -50.174316 -0.245372 -0.019946 -0.001911
 22 11.722160 -44.271446 -32.982777 -0.242925 0.024226 0.007891
 23 2.616638 -33.926430 -25.777018 0.000000 -0.000000 0.000000
 24 -0.737603 -0.369768 42.251778 0.000000 -0.000000 0.000000
 25 59.548931 10.799692 18.414963 -2.637882 -0.000000 -0.000000
 26 7.710037 -174.312302 82.914421 0.000000 -0.000000 0.000000
 27 -18.888693 48.821182 51.156204 -1.462623 -0.397799 0.353787
 28 -11.661720 -173.988129 81.962158 0.000000 -0.000000 0.000000
 29 2.355416 41.099152 8.166290 -0.174533 0.000000 -0.000000
 30 3.826383 -29.401636 7.538528 0.139626 0.000000 0.000000
 31 -0.684172 -11.661074 48.858276 0.000000 -0.000000 0.000000
 32 -0.072890 -1.756191 2.960068 0.000000 -0.000000 0.000000
time 12
  0 -5.180422 13.788269 -12.439880 0.000000 -0.000000 0.000000
  1 -5.180422 13.788269 -12.439880 0.000000 -0.000000 0.000000
  2 -5.180422 13.788269 -12.439880 0.000000 -0.000000 0.000000
  3 -5.180422 13.788269 -12.439880 0.000000 -0.000000 0.000000
  4 -4.455341 19.713478 299.953064 0.000000 -0.000000 0.000000
  5 -5.180422 18.668694 101.671997 0.087267 0.000000 -0.000000
  6 0.585070 4.634651 -15.754395 0.139627 0.000000 -0.000000
  7 44.000435 -0.454872 -14.063072 -0.664904 0.375584 -0.152114
  8 -1.648882 -14.263247 -46.038219 0.279253 0.000000 0.000000
  9 1.901329 0.000005 -35.274979 -0.191986 0.000000 -0.000000
 10 1.220856 0.000003 -27.561966 0.000000 -0.000000 0.000000
 11 -35.658195 -1.977135 -14.300331 0.109002 -0.649787 -0.336982
 12 2.095192 -12.740986 -45.800957 -0.052360 0.000000 0.000000
 13 -2.525249 -0.000002 -34.836559 0.139627 0.000000 0.000000
 14 -1.229672 -0.000006 -26.461922 0.000000 -0.000000 0.000000
 15 0.585071 -13.505440 -23.603020 0.157080 0.000000 -0.000000
 16 -35.591053 -1.703066 41.085182 -0.001629 -0.493444 0.377228
 17 -37.563438 14.762718 -50.295193 -0.279252 0.000000 -0.000000
 18 -10.963049 -41.811993 -33.818558 -0.366520 0.000001 -0.000000
 19 -3.816717 -34.079029 -25.402435 0.000000 -0.000000 0.000000
 20 41.148884 -1.371414 40.606628 0.392425 -0.033119 0.084065
 21 39.457150 17.377460 -50.174320 -0.245372 -0.019946 -0.001911
 22 11.722176 -44.271446 -32.982761 -0.242925 0.024226 0.007891
 23 2.616638 -33.926437 -25.777012 0.000000 -0.000000 0.000000
 24 -0.737604 -0.369772 42.251770 0.000000 -0.000000 0.000000
 25 59.548931 6.581415 19.466713 -2.784216 -0.000000 -0.000000
 26 7.710041 -174.312317 82.914421 0.000000 -0.000000 0.000000
 27 -14.291448 50.330330 57.209023 -1.432315 -0.459490 0.408653
 28 -11.661743 -173.988159 81.962173 0.000000 -0.000000 0.000000
 29 2.355416 41.099152 8.166298 -0.174533 0.000000 -0.000000
 30 3.826383 -29.401634 7.538544 0.139626 0.000000 0.000000
 31 -0.684171 -11.661070 48.858284 0.000000 -0.000000 0.000000
 32 -0.072890 -1.756191 2.960075 0.000000 -0.000000 0.000000
time 13
  0 -5.180422 13.788269 -12.439880 0.000000 -0.000000 0.000000
  1 -5.180422 13.788269 -12.439880 0.000000 -0.000000 0.000000
  2 -5.180422 13.788269 -12.439880 0.000000 -0.000000 0.000000
  3 -5.180422 13.788269 -12.439880 0.000000 -0.000000 0.000000
  4 -4.455341 19.713478 299.953064 0.000000 -0.000000 0.000000
  5 -5.180422 18.668694 97.043022 0.087267 0.000000 -0.000000
  6 0.585070 4.634651 -15.754395 0.139627 0.000000 -0.000000
  7 44.000435 -0.454868 -14.063076 -0.718142 0.427433 -0.173112
  8 -1.648878 -14.263247 -46.038223 0.279253 0.000000 0.000000
  9 1.901331 0.000000 -35.274982 -0.191986 -0.000000 0.000000
 10 1.220857 0.000000 -27.561972 0.000000 -0.000000 0.000000
 11 -35.658199 -1.977131 -14.300331 0.167419 -0.739488 -0.383501
 12 2.095192 -12.740982 -45.800964 -0.052360 0.000000 0.000000
 13 -2.525251 0.000000 -34.836555 0.139627 0.000000 0.000000
 14 -1.229676 -0.000004 -26.461922 0.000000 -0.000000 0.000000
 15 0.585071 -14.284630 -32.509151 0.157080 0.000000 -0.000000
 16 -35.591049 -1.703066 41.085178 -0.050041 -0.561563 0.441350
 17 -37.563423 14.762718 -50.295181 -0.279252 0.000000 -0.000000
 18 -10.963047 -41.811996 -33.818554 -0.366519 0.000001 0.000000
 19 -3.816713 -34.079025 -25.402437 0.000000 -0.000000 0.000000
 20 41.148888 -1.371414 40.606617 0.446598 -0.037691 0.081214
 21 39.457142 17.377468 -50.174332 -0.245372 -0.019946 -0.001911
 22 11.722168 -44.271450 -32.982765 -0.242925 0.024226 0.007891
 23 2.616638 -33.926434 -25.777012 0.000000 -0.000000 0.000000
 24 -0.737603 -0.369772 42.251766 0.000000 -0.000000 0.000000
 25 59.548935 2.244123 20.548111 -2.933959 -0.000000 -0.000000
 26 7.710041 -174.312286 82.914406 0.000000 -0.000000 0.000000
 27 -9.564503 51.882057 63.432594 -1.401151 -0.522921 0.465066
 28 -11.661751 -173.988159 81.962173 0.000000 -0.000000 0.000000
 29 2.355416 41.099152 8.166298 -0.174533 0.000000 -0.000000
 30 3.826383 -29.401632 7.538536 0.139626 0.000000 0.000000
 31 -0.684172 -11.661072 48.858269 0.000000 -0.000000 0.000000
 32 -0.072890 -1.756191 2.960072 0.000000 -0.000000 0.000000
time 14
  0 -5.180422 13.788269 -12.439880 0.000000 -0.000000 0.000000
  1 -5.180422 13.788269 -12.439880 0.000000 -0.000000 0.000000
  2 -5.180422 13.788269 -12.439880 0.000000 -0.000000 0.000000
  3 -5.180422 13.788269 -12.439880 0.000000 -0.000000 0.000000
  4 -4.455341 19.713478 299.953064 0.000000 -0.000000 0.000000
  5 -5.180422 18.668694 92.329384 0.087267 0.000000 -0.000000
  6 0.585070 4.634649 -15.754395 0.139627 0.000000 -0.000000
  7 44.000439 -0.454872 -14.063084 -0.772354 0.480230 -0.194495
  8 -1.648882 -14.263247 -46.038212 0.279253 0.000000 -0.000000
  9 1.901328 0.000000 -35.274979 -0.191986 0.000000 -0.000000
 10 1.220855 -0.000001 -27.561970 0.000000 -0.000000 0.000000
 11 -35.658195 -1.977135 -14.300335 0.226903 -0.830830 -0.430872
 12 2.095192 -12.740986 -45.800964 -0.052360 0.000000 0.000000
 13 -2.525251 -0.000006 -34.836563 0.139626 -0.000000 0.000000
 14 -1.229675 -0.000004 -26.461927 0.000000 -0.000000 0.000000
 15 0.585071 -15.078072 -41.578197 0.157080 0.000000 -0.000000
 16 -35.591049 -1.703066 41.085178 -0.099339 -0.630928 0.506645
 17 -37.563438 14.762718 -50.295189 -0.279252 0.000000 -0.000000
 18 -10.963047 -41.811985 -33.818546 -0.366520 0.000001 0.000000
 19 -3.816717 -34.079018 -25.402428 0.000000 -0.000000 0.000000
 20 41.148888 -1.371414 40.606617 0.501762 -0.042347 0.078311
 21 39.457142 17.377468 -50.174328 -0.245372 -0.019946 -0.001911
 22 11.722168 -44.271458 -32.982761 -0.242925 0.024226 0.007891
 23 2.616653 -33.926437 -25.777016 0.000000 -0.000000 0.000000
 24 -0.737603 -0.369772 42.251766 0.000000 -0.000000 0.000000
 25 59.548939 -2.172503 21.649307 -3.085815 -0.000000 -0.000000
 26 7.710041 -174.312271 82.914406 0.000000 -0.000000 0.000000
 27 -4.751088 53.462158 69.770027 -1.369417 -0.587513 0.522511
 28 -11.661728 -173.988174 81.962158 0.000000 -0.000000 0.000000
 29 2.355416 41.099152 8.166306 -0.174533 0.000000 -0.000000
 30 3.826383 -29.401634 7.538544 0.139626 0.000000 0.000000
 31 -0.684172 -11.661070 48.858284 0.000000 -0.000000 0.000000
 32 -0.072890 -1.756191 2.960075 0.000000 -0.000000 0.000000
time 15
  0 -5.180422 13.788269 -12.439880 0.000000 -0.000000 0.000000
  1 -5.180422 13.788269 -12.439880 0.000000 -0.000000 0.000000
  2 -5.180422 13.788269 -12.439880 0.000000 -0.000000 0.000000
  3 -5.180422 13.788269 -12.439880 0.000000 -0.000000 0.000000
  4 -4.455341 19.713478 299.953064 0.000000 -0.000000 0.000000
  5 -5.180422 18.668694 87.573395 0.087267 0.000000 0.000000
  6 0.585070 4.634647 -15.754395 0.139627 0.000000 -0.000000
  7 44.000439 -0.454872 -14.063084 -0.827053 0.533501 -0.216070
  8 -1.648885 -14.263253 -46.038216 0.279253 0.000000 -0.000000
  9 1.901325 -0.000002 -35.274975 -0.191986 -0.000000 0.000000
 10 1.220854 -0.000004 -27.561968 0.000000 -0.000000 0.000000
 11 -35.658195 -1.977135 -14.300335 0.286922 -0.922993 -0.478667
 12 2.095191 -12.740986 -45.800964 -0.052360 0.000000 0.000000
 13 -2.525249 0.000000 -34.836563 0.139626 0.000000 0.000000
 14 -1.229675 -0.000006 -26.461920 0.000000 -0.000000 0.000000
 15 0.585072 -15.878642 -50.728703 0.157080 0.000000 -0.000000
 16 -35.591049 -1.703068 41.085178 -0.149079 -0.700915 0.572526
 17 -37.563438 14.762718 -50.295181 -0.279252 0.000000 -0.000000
 18 -10.963051 -41.811985 -33.818546 -0.366520 0.000001 0.000000
 19 -3.816713 -34.079033 -25.402439 0.000000 -0.000000 0.000000
 20 41.148888 -1.371415 40.606617 0.557421 -0.047044 0.075381
 21 39.457130 17.377457 -50.174316 -0.245372 -0.019946 -0.001911
 22 11.722168 -44.271450 -32.982769 -0.242925 0.024226 0.007891
 23 2.616638 -33.926430 -25.777008 0.000000 -0.000000 0.000000
 24 -0.737603 -0.369770 42.251766 0.000000 -0.000000 0.000000
 25 59.548946 -6.628807 22.760384 3.044693 0.000000 0.000000
 26 7.710037 -174.312271 82.914413 0.000000 -0.000000 0.000000
 27 0.105564 55.056450 76.164375 -1.337398 -0.652684 0.580473
 28 -11.661758 -173.988144 81.962166 0.000000 -0.000000 0.000000
 29 2.355416 41.099148 8.166306 -0.174533 0.000000 0.000000
 30 3.826383 -29.401638 7.538544 0.139626 0.000000 0.000000
 31 -0.684172 -11.661074 48.858284 0.000000 -0.000000 0.000000
 32 -0.072890 -1.756191 2.960072 0.000000 -0.000000 0.000000
time 16
  0 -5.180422 13.788269 -12.439880 0.000000 -0.000000 0.000000
  1 -5.180422 13.788269 -12.439880 0.000000 -0.000000 0.000000
  2 -5.180422 13.788269 -12.439880 0.000000 -0.000000 0.000000
  3 -5.180422 13.788269 -12.439880 0.000000 -0.000000 0.000000
  4 -4.455341 19.713478 299.953064 0.000000 -0.000000 0.000000
  5 -5.180422 18.668694 82.817406 0.087267 0.000000 -0.000000
  6 0.585070 4.634647 -15.754395 0.139627 0.000000 -0.000000
  7 44.000435 -0.454872 -14.063080 -0.881752 0.586772 -0.237645
  8 -1.648886 -14.263247 -46.038204 0.279253 0.000000 0.000000
  9 1.901330 0.000000 -35.274975 -0.191986 0.000000 -0.000000
 10 1.220856 -0.000006 -27.561962 0.000000 -0.000000 0.000000
 11 -35.658195 -1.977135 -14.300331 0.346942 -1.015155 -0.526463
 12 2.095191 -12.740986 -45.800964 -0.052360 0.000000 0.000000
 13 -2.525249 0.000000 -34.836559 0.139626 0.000000 0.000000
 14 -1.229671 -0.000006 -26.461926 0.000000 -0.000000 0.000000
 15 0.585072 -16.679211 -59.879219 0.157080 0.000000 -0.000000
 16 -35.591049 -1.703067 41.085182 -0.198820 -0.770903 0.638408
 17 -37.563450 14.762701 -50.295204 -0.279252 0.000000 -0.000000
 18 -10.963057 -41.811989 -33.818558 -0.366520 0.000001 0.000000
 19 -3.816721 -34.079021 -25.402435 0.000000 -0.000000 0.000000
 20 41.148888 -1.371415 40.606621 0.613081 -0.051741 0.072452
 21 39.457138 17.377460 -50.174316 -0.245372 -0.019946 -0.001911
 22 11.722176 -44.271446 -32.982765 -0.242925 0.024226 0.007891
 23 2.616638 -33.926430 -25.777016 0.000000 -0.000000 0.000000
 24 -0.737603 -0.369772 42.251770 0.000000 -0.000000 0.000000
 25 59.548943 -11.085113 23.871468 2.892489 0.000000 0.000000
 26 7.710041 -174.312256 82.914406 0.000000 -0.000000 0.000000
 27 4.962221 56.650761 82.558746 -1.305379 -0.717856 0.638434
 28 -11.661743 -173.988174 81.962158 0.000000 -0.000000 0.000000
 29 2.355416 41.099152 8.166298 -0.174533 0.000000 0.000000
 30 3.826383 -29.401634 7.538544 0.139626 0.000000 0.000000
 31 -0.684172 -11.661073 48.858284 0.000000 -0.000000 0.000000
 32 -0.072890 -1.756191 2.960073 0.000000 -0.000000 0.000000
time 17
  0 -5.180422 13.788269 -12.439880 0.000000 -0.000000 0.000000
  1 -5.180422 13.788269 -12.439880 0.000000 -0.000000 0.000000
  2 -5.180422 13.788269 -12.439880 0.000000 -0.000000 0.000000
  3 -5.180422 13.788269 -12.439880 0.000000 -0.000000 0.000000
  4 -4.455341 19.713478 299.953064 0.000000 -0.000000 0.000000
  5 -5.180422 18.668694 78.103760 0.087267 0.000000 -0.000000
  6 0.585070 4.634647 -15.754395 0.139627 0.000000 -0.000000
  7 44.000435 -0.454872 -14.063072 -0.935964 0.639569 -0.259028
  8 -1.648879 -14.263246 -46.038216 0.279253 0.000000 0.000000
  9 1.901331 0.000000 -35.274979 -0.191986 -0.000000 0.000000
 10 1.220856 0.000002 -27.561970 0.000000 -0.000000 0.000000
 11 -35.658199 -1.977135 -14.300327 0.406426 -1.106497 -0.573834
 12 2.095194 -12.740982 -45.800964 -0.052360 0.000000 0.000000
 13 -2.525250 0.000000 -34.836555 0.139626 -0.000000 0.000000
 14 -1.229674 -0.000004 -26.461927 0.000000 -0.000000 0.000000
 15 0.585072 -17.472652 -68.948250 0.157080 0.000000 -0.000000
 16 -35.591049 -1.703068 41.085182 -0.248118 -0.840268 0.703703
 17 -37.563435 14.762707 -50.295185 -0.279252 0.000000 -0.000000
 18 -10.963049 -41.811993 -33.818562 -0.366519 0.000001 -0.000000
 19 -3.816719 -34.079021 -25.402437 0.000000 -0.000000 0.000000
 20 41.148888 -1.371415 40.606617 0.668245 -0.056397 0.069548
 21 39.457134 17.377457 -50.174320 -0.245372 -0.019946 -0.001911
 22 11.722160 -44.271450 -32.982773 -0.242925 0.024226 0.007891
 23 2.616638 -33.926445 -25.777027 0.000000 -0.000000 0.000000
 24 -0.737604 -0.369772 42.251766 0.000000 -0.000000 0.000000
 25 59.548943 -15.501740 24.972660 2.742053 0.000000 0.000000
 26 7.710041 -174.312241 82.914413 0.000000 -0.000000 0.000000
 27 9.775633 58.230862 88.896149 -1.273645 -0.782448 0.695879
 28 -11.661720 -173.988190 81.962151 0.000000 -0.000000 0.000000
 29 2.355416 41.099148 8.166302 -0.174533 0.000000 0.000000
 30 3.826383 -29.401634 7.538540 0.139626 0.000000 0.000000
 31 -0.684171 -11.661074 48.858280 0.000000 -0.000000 0.000000
 32 -0.072890 -1.756192 2.960073 0.000000 -0.000000 0.000000
time 18
  0 -5.180422 13.788269 -12.439880 0.000000 -0.000000 0.000000
  1 -5.180422 13.788269 -12.439880 0.000000 -0.000000 0.000000
  2 -5.180422 13.788269 -12.439880 0.000000 -0.000000 0.000000
  3 -5.180422 13.788269 -12.439880 0.000000 -0.000000 0.000000
  4 -4.455341 19.713478 299.953064 0.000000 -0.000000 0.000000
  5 -5.180422 18.668694 73.474792 0.087267 0.000000 -0.000000
  6 0.585070 4.634647 -15.754398 0.139627 0.000000 -0.000000
  7 44.000439 -0.454872 -14.063080 -0.989202 0.691417 -0.280027
  8 -1.648880 -14.263252 -46.038208 0.279253 0.000000 0.000000
  9 1.901329 -0.000004 -35.274979 -0.191986 0.000000 0.000000
 10 1.220855 -0.000006 -27.561970 0.000000 -0.000000 0.000000
 11 -35.658195 -1.977131 -14.300331 0.464843 -1.196199 -0.620353
 12 2.095200 -12.740986 -45.800972 -0.052360 0.000000 0.000000
 13 -2.525249 0.000002 -34.836567 0.139626 -0.000000 0.000000
 14 -1.229671 -0.000003 -26.461924 0.000000 -0.000000 0.000000
 15 0.585072 -18.251841 -77.854385 0.157080 0.000000 -0.000000
 16 -35.591049 -1.703067 41.085182 -0.296530 -0.908386 0.767825
 17 -37.563442 14.762693 -50.295193 -0.279252 0.000000 -0.000000
 18 -10.963055 -41.811989 -33.818565 -0.366519 0.000001 -0.000000
 19 -3.816715 -34.079018 -25.402437 0.000000 -0.000000 0.000000
 20 41.148888 -1.371415 40.606613 0.722418 -0.060969 0.066697
 21 39.457130 17.377462 -50.174316 -0.245372 -0.019946 -0.001911
 22 11.722153 -44.271454 -32.982761 -0.242925 0.024226 0.007891
 23 2.616646 -33.926430 -25.777008 0.000000 -0.000000 0.000000
 24 -0.737603 -0.369772 42.251762 0.000000 -0.000000 0.000000
 25 59.548954 -19.839031 26.054077 2.594678 0.000000 0.000000
 26 7.710041 -174.312286 82.914413 0.000000 -0.000000 0.000000
 27 14.502581 59.782585 95.119751 -1.242482 -0.845879 0.752292
 28 -11.661728 -173.988190 81.962189 0.000000 -0.000000 0.000000
 29 2.355416 41.099152 8.166306 -0.174533 0.000000 0.000000
 30 3.826383 -29.401636 7.538548 0.139626 0.000000 0.000000
 31 -0.684172 -11.661072 48.858280 0.000000 -0.000000 0.000000
 32 -0.072890 -1.756192 2.960073 0.000000 -0.000000 0.000000
time 19
  0 -5.180422 13.788269 -12.439880 0.000000 -0.000000 0.000000
  1 -5.180422 13.788269 -12.439880 0.000000 -0.000000 0.000000
  2 -5.180422 13.788269 -12.439880 0.000000 -0.000000 0.000000
  3 -5.180422 13.788269 -12.439880 0.000000 -0.000000 0.000000
  4 -4.455341 19.713478 299.953064 0.000000 -0.000000 0.000000
  5 -5.180422 18.668694 68.972839 0.087267 0.000000 -0.000000
  6 0.585070 4.634647 -15.754395 0.139627 0.000000 -0.000000
  7 44.000439 -0.454872 -14.063080 -1.040979 0.741843 -0.300450
  8 -1.648883 -14.263254 -46.038216 0.279253 0.000000 -0.000000
  9 1.901329 -0.000006 -35.274979 -0.191986 0.000000 -0.000000
 10 1.220858 -0.000004 -27.561970 0.000000 -0.000000 0.000000
 11 -35.658195 -1.977135 -14.300331 0.521656 -1.283438 -0.665596
 12 2.095196 -12.740982 -45.800957 -0.052360 0.000000 0.000000
 13 -2.525250 -0.000002 -34.836559 0.139626 -0.000000 0.000000
 14 -1.229673 -0.000004 -26.461924 0.000000 -0.000000 0.000000
 15 0.585072 -19.009649 -86.516136 0.157080 0.000000 -0.000000
 16 -35.591049 -1.703067 41.085182 -0.343614 -0.974636 0.830188
 17 -37.563438 14.762703 -50.295189 -0.279252 0.000000 -0.000000
 18 -10.963051 -41.811989 -33.818554 -0.366519 0.000001 0.000000
 19 -3.816719 -34.079018 -25.402435 0.000000 -0.000000 0.000000
 20 41.148888 -1.371415 40.606617 0.775105 -0.065416 0.063924
 21 39.457142 17.377470 -50.174328 -0.245372 -0.019946 -0.001911
 22 11.722168 -44.271454 -32.982765 -0.242925 0.024226 0.007891
 23 2.616653 -33.926426 -25.777016 0.000000 -0.000000 0.000000
 24 -0.737603 -0.369772 42.251762 0.000000 -0.000000 0.000000
 25 59.548958 -24.057308 27.105810 2.451657 0.000000 0.000000
 26 7.710037 -174.312271 82.914406 0.000000 -0.000000 0.000000
 27 19.099825 61.291721 101.172554 -1.212173 -0.907570 0.807158
 28 -11.661736 -173.988159 81.962189 0.000000 -0.000000 0.000000
 29 2.355416 41.099148 8.166304 -0.174533 0.000000 0.000000
 30 3.826383 -29.401634 7.538542 0.139626 0.000000 0.000000
 31 -0.684172 -11.661073 48.858284 0.000000 -0.000000 0.000000
 32 -0.072890 -1.756191 2.960073 0.000000 -0.000000 0.000000
time 20
  0 -5.180422 13.788269 -12.439880 0.000000 -0.000000 0.000000
  1 -5.180422 13.788269 -12.439880 0.000000 -0.000000 0.000000
  2 -5.180422 13.788269 -12.439880 0.000000 -0.000000 0.000000
  3 -5.180422 13.788269 -12.439880 0.000000 -0.000000 0.000000
  4 -4.455341 19.713478 299.953064 0.000000 -0.000000 0.000000
  5 -5.180422 18.668694 64.640228 0.087267 0.000000 -0.000000
  6 0.585070 4.634647 -15.754391 0.139627 0.000000 -0.000000
  7 44.000439 -0.454872 -14.063080 -1.090809 0.790372 -0.320104
  8 -1.648885 -14.263245 -46.038212 0.279253 0.000000 0.000000
  9 1.901326 0.000002 -35.274982 -0.191986 -0.000000 -0.000000
 10 1.220855 -0.000004 -27.561972 0.000000 -0.000000 0.000000
 11 -35.658195 -1.977131 -14.300331 0.576332 -1.367396 -0.709137
 12 2.095196 -12.740990 -45.800961 -0.052360 0.000000 0.000000
 13 -2.525248 -0.000004 -34.836559 0.139627 -0.000000 0.000000
 14 -1.229671 -0.000004 -26.461926 0.000000 -0.000000 0.000000
 15 0.585072 -19.738953 -94.852066 0.157080 0.000000 -0.000000
 16 -35.591049 -1.703067 41.085182 -0.388927 -1.038393 0.890205
 17 -37.563438 14.762709 -50.295189 -0.279252 0.000000 -0.000000
 18 -10.963051 -41.811989 -33.818558 -0.366520 0.000001 0.000000
 19 -3.816723 -34.079025 -25.402435 0.000000 -0.000000 0.000000
 20 41.148888 -1.371414 40.606617 0.825809 -0.069695 0.061255
 21 39.457130 17.377457 -50.174320 -0.245372 -0.019946 -0.001911
 22 11.722176 -44.271450 -32.982765 -0.242925 0.024226 0.007891
 23 2.616631 -33.926430 -25.777016 0.000000 -0.000000 0.000000
 24 -0.737604 -0.369772 42.251766 0.000000 -0.000000 0.000000
 25 59.548958 -28.116909 28.117985 2.314286 0.000000 0.000000
 26 7.710041 -174.312271 82.914406 0.000000 -0.000000 0.000000
 27 23.524136 62.744099 106.997681 -1.183005 -0.966940 0.859959
 28 -11.661728 -173.988190 81.962158 0.000000 -0.000000 0.000000
 29 2.355416 41.099148 8.166303 -0.174533 0.000000 0.000000
 30 3.826383 -29.401634 7.538541 0.139626 0.000000 0.000000
 31 -0.684171 -11.661073 48.858284 0.000000 -0.000000 0.000000
 32 -0.072890 -1.756192 2.960073 0.000000 -0.000000 0.000000
time 21
  0 -5.180422 13.788269 -12.439880 0.000000 -0.000000 0.000000
  1 -5.180422 13.788269 -12.439880 0.000000 -0.000000 0.000000
  2 -5.180422 13.788269 -12.439880 0.000000 -0.000000 0.000000
  3 -5.180422 13.788269 -12.439880 0.000000 -0.000000 0.000000
  4 -4.455341 19.713478 299.953064 0.000000 -0.000000 0.000000
  5 -5.180422 18.668694 60.519321 0.087267 0.000000 -0.000000
  6 0.585071 4.634647 -15.754395 0.139627 0.000000 -0.000000
  7 44.000435 -0.454872 -14.063076 -1.138204 0.836529 -0.338798
  8 -1.648880 -14.263244 -46.038219 0.279253 0.000000 -0.000000
  9 1.901327 0.000004 -35.274979 -0.191986 -0.000000 -0.000000
 10 1.220854 0.000002 -27.561968 0.000000 -0.000000 0.000000
 11 -35.658199 -1.977135 -14.300323 0.628337 -1.447253 -0.750551
 12 2.095198 -12.740984 -45.800964 -0.052360 0.000000 0.000000
 13 -2.525249 -0.000001 -34.836563 0.139627 0.000000 0.000000
 14 -1.229671 -0.000003 -26.461929 0.000000 -0.000000 0.000000
 15 0.585072 -20.432621 -102.780685 0.157080 0.000000 -0.000000
 16 -35.591049 -1.703068 41.085182 -0.432026 -1.099035 0.947289
 17 -37.563446 14.762711 -50.295197 -0.279252 0.000000 -0.000000
 18 -10.963058 -41.811981 -33.818550 -0.366519 0.000001 0.000000
 19 -3.816719 -34.079025 -25.402428 0.000000 -0.000000 0.000000
 20 41.148888 -1.371415 40.606621 0.874037 -0.073765 0.058717
 21 39.457138 17.377462 -50.174316 -0.245372 -0.019946 -0.001911
 22 11.722160 -44.271446 -32.982773 -0.242925 0.024226 0.007891
 23 2.616646 -33.926430 -25.777016 0.000000 -0.000000 0.000000
 24 -0.737604 -0.369772 42.251766 0.000000 -0.000000 0.000000
 25 59.548962 -31.978149 29.080704 2.183857 0.000000 0.000000
 26 7.710041 -174.312256 82.914398 0.000000 -0.000000 0.000000
 27 27.732267 64.125504 112.538162 -1.155262 -1.023409 0.910181
 28 -11.661720 -173.988159 81.962173 0.000000 -0.000000 0.000000
 29 2.355416 41.099152 8.166302 -0.174533 0.000000 0.000000
 30 3.826383 -29.401634 7.538542 0.139626 0.000000 0.000000
 31 -0.684171 -11.661073 48.858284 0.000000 -0.000000 0.000000
 32 -0.072890 -1.756191 2.960075 0.000000 -0.000000 0.000000
time 22
  0 -5.180422 13.788269 -12.439880 0.000000 -0.000000 0.000000
  1 -5.180422 13.788269 -12.439880 0.000000 -0.000000 0.000000
  2 -5.180422 13.788269 -12.439880 0.000000 -0.000000 0.000000
  3 -5.180422 13.788269 -12.439880 0.000000 -0.000000 0.000000
  4 -4.455341 19.713478 299.953064 0.000000 -0.000000 0.000000
  5 -5.180422 18.668694 56.652435 0.087267 0.000000 -0.000000
  6 0.585071 4.634647 -15.754391 0.139627 0.000000 -0.000000
  7 44.000439 -0.454872 -14.063082 -1.182677 0.879842 -0.356340
  8 -1.648883 -14.263254 -46.038216 0.279253 0.000000 -0.000000
  9 1.901326 -0.000004 -35.274986 -0.191986 -0.000000 0.000000
 10 1.220855 0.000000 -27.561972 0.000000 -0.000000 0.000000
 11 -35.658195 -1.977133 -14.300331 0.677137 -1.522186 -0.789413
 12 2.095196 -12.740984 -45.800972 -0.052360 0.000000 0.000000
 13 -2.525249 0.000002 -34.836563 0.139626 0.000000 0.000000
 14 -1.229671 -0.000003 -26.461914 0.000000 -0.000000 0.000000
 15 0.585073 -21.083529 -110.220581 0.157080 0.000000 -0.000000
 16 -35.591049 -1.703067 41.085178 -0.472468 -1.155939 1.000854
 17 -37.563435 14.762701 -50.295189 -0.279252 0.000000 -0.000000
 18 -10.963051 -41.811993 -33.818558 -0.366519 0.000001 0.000000
 19 -3.816727 -34.079021 -25.402439 0.000000 -0.000000 0.000000
 20 41.148888 -1.371414 40.606613 0.919291 -0.077584 0.056335
 21 39.457138 17.377464 -50.174320 -0.245372 -0.019946 -0.001911
 22 11.722168 -44.271458 -32.982773 -0.242925 0.024226 0.007891
 23 2.616638 -33.926434 -25.777016 0.000000 -0.000000 0.000000
 24 -0.737604 -0.369771 42.251762 0.000000 -0.000000 0.000000
 25 59.548962 -35.601376 29.984079 2.061665 0.000000 0.000000
 26 7.710041 -174.312271 82.914413 0.000000 -0.000000 0.000000
 27 31.681002 65.421761 117.737137 -1.129228 -1.076397 0.957307
 28 -11.661743 -173.988205 81.962166 0.000000 -0.000000 0.000000
 29 2.355416 41.099152 8.166304 -0.174533 0.000000 0.000000
 30 3.826383 -29.401634 7.538542 0.139626 0.000000 0.000000
 31 -0.684171 -11.661074 48.858284 0.000000 -0.000000 0.000000
 32 -0.072890 -1.756190 2.960072 0.000000 -0.000000 0.000000
time 23
  0 -5.180422 13.788269 -12.439880 0.000000 -0.000000 0.000000
  1 -5.180422 13.788269 -12.439880 0.000000 -0.000000 0.000000
  2 -5.180422 13.788269 -12.439880 0.000000 -0.000000 0.000000
  3 -5.180422 13.788269 -12.439880 0.000000 -0.000000 0.000000
  4 -4.455341 19.713478 299.953064 0.000000 -0.000000 0.000000
  5 -5.180422 18.668694 53.081921 0.087267 0.000000 -0.000000
  6 0.585071 4.634647 -15.754395 0.139627 0.000000 -0.000000
  7 44.000439 -0.454872 -14.063078 -1.223742 0.919834 -0.372537
  8 -1.648887 -14.263249 -46.038216 0.279253 0.000000 -0.000000
  9 1.901326 0.000002 -35.274982 -0.191986 -0.000000 0.000000
 10 1.220856 -0.000002 -27.561974 0.000000 -0.000000 0.000000
 11 -35.658195 -1.977135 -14.300325 0.722193 -1.591374 -0.825291
 12 2.095196 -12.740980 -45.800968 -0.052360 0.000000 0.000000
 13 -2.525249 0.000002 -34.836563 0.139627 0.000000 0.000000
 14 -1.229670 -0.000002 -26.461922 0.000000 -0.000000 0.000000
 15 0.585073 -21.684549 -117.090225 0.157080 0.000000 -0.000000
 16 -35.591045 -1.703066 41.085178 -0.509810 -1.208482 1.050314
 17 -37.563431 14.762707 -50.295197 -0.279252 0.000000 -0.000000
 18 -10.963058 -41.811989 -33.818554 -0.366520 0.000001 -0.000000
 19 -3.816727 -34.079025 -25.402435 0.000000 -0.000000 0.000000
 20 41.148891 -1.371414 40.606613 0.961077 -0.081111 0.054136
 21 39.457146 17.377468 -50.174320 -0.245372 -0.019946 -0.001911
 22 11.722168 -44.271439 -32.982746 -0.242925 0.024226 0.007891
 23 2.616646 -33.926434 -25.777016 0.000000 -0.000000 0.000000
 24 -0.737603 -0.369771 42.251762 0.000000 -0.000000 0.000000
 25 59.548965 -38.946903 30.818214 1.949002 0.000000 0.000000
 26 7.710037 -174.312256 82.914398 0.000000 -0.000000 0.000000
 27 35.327087 66.618660 122.537643 -1.105191 -1.125324 1.000821
 28 -11.661743 -173.988190 81.962158 0.000000 -0.000000 0.000000
 29 2.355416 41.099148 8.166303 -0.174533 0.000000 0.000000
 30 3.826383 -29.401638 7.538542 0.139626 0.000000 0.000000
 31 -0.684172 -11.661075 48.858284 0.000000 -0.000000 0.000000
 32 -0.072890 -1.756190 2.960068 0.000000 -0.000000 0.000000
time 24
  0 -5.180422 13.788269 -12.439880 0.000000 -0.000000 0.000000
  1 -5.180422 13.788269 -12.439880 0.000000 -0.000000 0.000000
  2 -5.180422 13.788269 -12.439880 0.000000 -0.000000 0.000000
  3 -5.180422 13.788269 -12.439880 0.000000 -0.000000 0.000000
  4 -4.455341 19.713478 299.953064 0.000000 -0.000000 0.000000
  5 -5.180422 18.668694 49.850098 0.087267 0.000000 -0.000000
  6 0.585071 4.634647 -15.754391 0.139627 0.000000 -0.000000
  7 44.000439 -0.454872 -14.063078 -1.260911 0.956034 -0.387198
  8 -1.648881 -14.263246 -46.038212 0.279253 0.000000 0.000000
  9 1.901329 -0.000004 -35.274979 -0.191986 0.000000 0.000000
 10 1.220858 -0.000006 -27.561972 0.000000 -0.000000 0.000000
 11 -35.658195 -1.977133 -14.300328 0.762979 -1.654003 -0.857772
 12 2.095198 -12.740983 -45.800957 -0.052360 0.000000 0.000000
 13 -2.525248 -0.000002 -34.836552 0.139626 0.000000 0.000000
 14 -1.229671 -0.000004 -26.461922 0.000000 -0.000000 0.000000
 15 0.585073 -22.228558 -123.308258 0.157080 0.000000 -0.000000
 16 -35.591045 -1.703066 41.085182 -0.543610 -1.256041 1.095082
 17 -37.563438 14.762697 -50.295193 -0.279252 0.000000 -0.000000
 18 -10.963051 -41.811981 -33.818573 -0.366519 0.000001 0.000000
 19 -3.816719 -34.079014 -25.402431 0.000000 -0.000000 0.000000
 20 41.148891 -1.371414 40.606617 0.998899 -0.084303 0.052145
 21 39.457134 17.377460 -50.174328 -0.245372 -0.019946 -0.001911
 22 11.722168 -44.271442 -32.982773 -0.242925 0.024226 0.007891
 23 2.616638 -33.926422 -25.777016 0.000000 -0.000000 0.000000
 24 -0.737603 -0.369772 42.251766 0.000000 -0.000000 0.000000
 25 59.548965 -41.975082 31.573227 1.847163 0.000000 0.000000
 26 7.710041 -174.312256 82.914398 0.000000 -0.000000 0.000000
 27 38.627319 67.702042 126.882767 -1.083432 -1.169610 1.040207
 28 -11.661736 -173.988174 81.962173 0.000000 -0.000000 0.000000
 29 2.355416 41.099152 8.166304 -0.174533 0.000000 0.000000
 30 3.826383 -29.401634 7.538546 0.139626 0.000000 0.000000
 31 -0.684172 -11.661072 48.858284 0.000000 -0.000000 0.000000
 32 -0.072890 -1.756191 2.960075 0.000000 -0.000000 0.000000
time 25
  0 -5.180422 13.788269 -12.439880 0.000000 -0.000000 0.000000
  1 -5.180422 13.788269 -12.439880 0.000000 -0.000000 0.000000
  2 -5.180422 13.788269 -12.439880 0.000000 -0.000000 0.000000
  3 -5.180422 13.788269 -12.439880 0.000000 -0.000000 0.000000
  4 -4.455341 19.713478 299.953064 0.000000 -0.000000 0.000000
  5 -5.180422 18.668694 46.999332 0.087267 0.000000 -0.000000
  6 0.585071 4.634647 -15.754393 0.139627 0.000000 -0.000000
  7 44.000439 -0.454872 -14.063076 -1.293698 0.987965 -0.400131
  8 -1.648882 -14.263248 -46.038212 0.279253 0.000000 0.000000
  9 1.901328 0.000006 -35.274979 -0.191986 0.000000 0.000000
 10 1.220858 0.000000 -27.561964 0.000000 -0.000000 0.000000
 11 -35.658195 -1.977135 -14.300326 0.798955 -1.709246 -0.886421
 12 2.095198 -12.740986 -45.800953 -0.052360 0.000000 0.000000
 13 -2.525248 -0.000001 -34.836555 0.139626 0.000000 0.000000
 14 -1.229672 -0.000005 -26.461922 0.000000 -0.000000 0.000000
 15 0.585073 -22.708424 -128.793121 0.157080 0.000000 -0.000000
 16 -35.591045 -1.703068 41.085178 -0.573425 -1.297991 1.134572
 17 -37.563438 14.762698 -50.295193 -0.279252 0.000000 -0.000000
 18 -10.963051 -41.811981 -33.818558 -0.366519 0.000001 0.000000
 19 -3.816719 -34.079018 -25.402435 0.000000 -0.000000 0.000000
 20 41.148891 -1.371415 40.606617 1.032262 -0.087119 0.050389
 21 39.457130 17.377464 -50.174316 -0.245372 -0.019946 -0.001911
 22 11.722168 -44.271446 -32.982773 -0.242925 0.024226 0.007891
 23 2.616646 -33.926434 -25.777016 0.000000 -0.000000 0.000000
 24 -0.737604 -0.369774 42.251766 0.000000 -0.000000 0.000000
 25 59.548965 -44.646217 32.239216 1.757442 0.000000 0.000000
 26 7.710041 -174.312256 82.914398 0.000000 -0.000000 0.000000
 27 41.538422 68.657677 130.715591 -1.064240 -1.208675 1.074949
 28 -11.661736 -173.988220 81.962173 0.000000 -0.000000 0.000000
 29 2.355416 41.099152 8.166302 -0.174533 0.000000 0.000000
 30 3.826383 -29.401636 7.538544 0.139626 0.000000 0.000000
 31 -0.684171 -11.661074 48.858284 0.000000 -0.000000 0.000000
 32 -0.072890 -1.756194 2.960068 0.000000 -0.000000 0.000000
time 26
  0 -5.180422 13.788269 -12.439880 0.000000 -0.000000 0.000000
  1 -5.180422 13.788269 -12.439880 0.000000 -0.000000 0.000000
  2 -5.180422 13.788269 -12.439880 0.000000 -0.000000 0.000000
  3 -5.180422 13.788269 -12.439880 0.000000 -0.000000 0.000000
  4 -4.455341 19.713478 299.953064 0.000000 -0.000000 0.000000
  5 -5.180422 18.668694 44.571945 0.087267 0.000000 -0.000000
  6 0.585070 4.634647 -15.754391 0.139627 0.000000 -0.000000
  7 44.000435 -0.454870 -14.063076 -1.321615 1.015153 -0.411142
  8 -1.648884 -14.263242 -46.038216 0.279253 0.000000 0.000000
  9 1.901329 0.000002 -35.274986 -0.191986 -0.000000 -0.000000
 10 1.220858 0.000002 -27.561966 0.000000 -0.000000 0.000000
 11 -35.658195 -1.977133 -14.300327 0.829587 -1.756284 -0.910815
 12 2.095196 -12.740986 -45.800961 -0.052360 0.000000 0.000000
 13 -2.525249 0.000000 -34.836563 0.139627 -0.000000 0.000000
 14 -1.229673 -0.000004 -26.461922 0.000000 -0.000000 0.000000
 15 0.585073 -23.117022 -133.463409 0.157080 0.000000 -0.000000
 16 -35.591049 -1.703068 41.085186 -0.598812 -1.333712 1.168197
 17 -37.563438 14.762710 -50.295204 -0.279252 0.000000 -0.000000
 18 -10.963058 -41.811993 -33.818558 -0.366519 0.000001 -0.000000
 19 -3.816719 -34.079029 -25.402435 0.000000 -0.000000 0.000000
 20 41.148888 -1.371416 40.606621 1.060670 -0.089516 0.048894
 21 39.457127 17.377468 -50.174328 -0.245372 -0.019946 -0.001911
 22 11.722168 -44.271446 -32.982765 -0.242925 0.024226 0.007891
 23 2.616631 -33.926434 -25.777023 0.000000 -0.000000 0.000000
 24 -0.737603 -0.369774 42.251770 0.000000 -0.000000 0.000000
 25 59.548977 -46.920647 32.806297 1.681134 0.000000 0.000000
 26 7.710041 -174.312256 82.914406 0.000000 -0.000000 0.000000
 27 44.017185 69.471375 133.979172 -1.047898 -1.241937 1.104532
 28 -11.661720 -173.988159 81.962166 0.000000 -0.000000 0.000000
 29 2.355416 41.099152 8.166306 -0.174533 0.000000 0.000000
 30 3.826383 -29.401634 7.538544 0.139626 0.000000 0.000000
 31 -0.684172 -11.661074 48.858284 0.000000 -0.000000 0.000000
 32 -0.072890 -1.756195 2.960075 0.000000 -0.000000 0.000000
time 27
  0 -5.180422 13.788269 -12.439880 0.000000 -0.000000 0.000000
  1 -5.180422 13.788269 -12.439880 0.000000 -0.000000 0.000000
  2 -5.180422 13.788269 -12.439880 0.000000 -0.000000 0.000000
  3 -5.180422 13.788269 -12.439880 0.000000 -0.000000 0.000000
  4 -4.455341 19.713478 299.953064 0.000000 -0.000000 0.000000
  5 -5.180422 18.668694 42.610279 0.087267 0.000000 -0.000000
  6 0.585070 4.634647 -15.754393 0.139627 0.000000 -0.000000
  7 44.000435 -0.454872 -14.063076 -1.344177 1.037126 -0.420041
  8 -1.648884 -14.263248 -46.038219 0.279253 0.000000 0.000000
  9 1.901327 0.000002 -35.274986 -0.191986 -0.000000 -0.000000
 10 1.220855 0.000000 -27.561975 0.000000 -0.000000 0.000000
 11 -35.658199 -1.977135 -14.300327 0.854343 -1.794297 -0.930529
 12 2.095196 -12.740986 -45.800961 -0.052360 0.000000 0.000000
 13 -2.525249 -0.000002 -34.836555 0.139626 0.000000 0.000000
 14 -1.229671 -0.000006 -26.461926 0.000000 -0.000000 0.000000
 15 0.585073 -23.447227 -137.237640 0.157080 0.000000 -0.000000
 16 -35.591049 -1.703066 41.085178 -0.619329 -1.362580 1.195371
 17 -37.563431 14.762712 -50.295189 -0.279252 0.000000 -0.000000
 18 -10.963058 -41.811989 -33.818558 -0.366519 0.000001 -0.000000
 19 -3.816727 -34.079029 -25.402439 0.000000 -0.000000 0.000000
 20 41.148888 -1.371412 40.606617 1.083627 -0.091454 0.047685
 21 39.457146 17.377468 -50.174316 -0.245372 -0.019946 -0.001911
 22 11.722168 -44.271454 -32.982773 -0.242925 0.024226 0.007891
 23 2.616646 -33.926445 -25.777023 0.000000 -0.000000 0.000000
 24 -0.737603 -0.369770 42.251766 0.000000 -0.000000 0.000000
 25 59.548977 -48.758705 33.264580 1.619529 0.000000 0.000000
 26 7.710033 -174.312271 82.914421 0.000000 -0.000000 0.000000
 27 46.020374 70.128967 136.616608 -1.034692 -1.268818 1.128439
 28 -11.661720 -173.988159 81.962173 0.000000 -0.000000 0.000000
 29 2.355416 41.099152 8.166302 -0.174533 0.000000 0.000000
 30 3.826383 -29.401634 7.538544 0.139626 0.000000 0.000000
 31 -0.684172 -11.661074 48.858284 0.000000 -0.000000 0.000000
 32 -0.072890 -1.756191 2.960068 0.000000 -0.000000 0.000000
time 28
  0 -5.180422 13.788269 -12.439880 0.000000 -0.000000 0.000000
  1 -5.180422 13.788269 -12.439880 0.000000 -0.000000 0.000000
  2 -5.180422 13.788269 -12.439880 0.000000 -0.000000 0.000000
  3 -5.180422 13.788269 -12.439880 0.000000 -0.000000 0.000000
  4 -4.455341 19.713478 299.953064 0.000000 -0.000000 0.000000
  5 -5.180422 18.668694 41.156677 0.087267 0.000000 -0.000000
  6 0.585070 4.634647 -15.754391 0.139627 0.000000 -0.000000
  7 44.000435 -0.454872 -14.063076 -1.360895 1.053407 -0.426635
  8 -1.648882 -14.263248 -46.038212 0.279253 0.000000 -0.000000
  9 1.901330 -0.000004 -35.274979 -0.191986 -0.000000 -0.000000
 10 1.220857 -0.000006 -27.561968 0.000000 -0.000000 0.000000
 11 -35.658199 -1.977133 -14.300326 0.872687 -1.822466 -0.945138
 12 2.095196 -12.740981 -45.800968 -0.052360 0.000000 0.000000
 13 -2.525248 0.000001 -34.836555 0.139627 0.000000 0.000000
 14 -1.229672 -0.000000 -26.461922 0.000000 -0.000000 0.000000
 15 0.585073 -23.691910 -140.034378 0.157080 0.000000 -0.000000
 16 -35.591049 -1.703066 41.085178 -0.634531 -1.383971 1.215507
 17 -37.563435 14.762703 -50.295200 -0.279252 0.000000 -0.000000
 18 -10.963058 -41.811989 -33.818562 -0.366519 0.000001 -0.000000
 19 -3.816719 -34.079018 -25.402435 0.000000 -0.000000 0.000000
 20 41.148888 -1.371412 40.606613 1.100639 -0.092889 0.046790
 21 39.457138 17.377464 -50.174324 -0.245372 -0.019946 -0.001911
 22 11.722176 -44.271439 -32.982773 -0.242925 0.024226 0.007891
 23 2.616638 -33.926422 -25.777008 0.000000 -0.000000 0.000000
 24 -0.737604 -0.369772 42.251766 0.000000 -0.000000 0.000000
 25 59.548977 -50.120712 33.604164 1.573925 0.000000 0.000000
 26 7.710041 -174.312256 82.914406 0.000000 -0.000000 0.000000
 27 47.504745 70.616234 138.570938 -1.024906 -1.288737 1.146154
 28 -11.661728 -173.988174 81.962173 0.000000 -0.000000 0.000000
 29 2.355416 41.099152 8.166302 -0.174533 0.000000 0.000000
 30 3.826383 -29.401632 7.538544 0.139626 0.000000 0.000000
 31 -0.684171 -11.661072 48.858284 0.000000 -0.000000 0.000000
 32 -0.072890 -1.756191 2.960068 0.000000 -0.000000 0.000000
time 29
  0 -5.180422 13.788269 -12.439880 0.000000 -0.000000 0.000000
  1 -5.180422 13.788269 -12.439880 0.000000 -0.000000 0.000000
  2 -5.180422 13.788269 -12.439880 0.000000 -0.000000 0.000000
  3 -5.180422 13.788269 -12.439880 0.000000 -0.000000 0.000000
  4 -4.455341 19.713478 299.953064 0.000000 -0.000000 0.000000
  5 -5.180422 18.668694 40.253456 0.087267 0.000000 -0.000000
  6 0.585070 4.634647 -15.754391 0.139627 0.000000 -0.000000
  7 44.000435 -0.454872 -14.063076 -1.371283 1.063524 -0.430732
  8 -1.648881 -14.263250 -46.038208 0.279253 0.000000 0.000000
  9 1.901331 0.000004 -35.274979 -0.191986 0.000000 -0.000000
 10 1.220858 0.000000 -27.561968 0.000000 -0.000000 0.000000
 11 -35.658199 -1.977135 -14.300325 0.884085 -1.839968 -0.954214
 12 2.095196 -12.740985 -45.800972 -0.052360 0.000000 0.000000
 13 -2.525249 -0.000001 -34.836563 0.139626 -0.000000 0.000000
 14 -1.229671 -0.000004 -26.461929 0.000000 -0.000000 0.000000
 15 0.585073 -23.843950 -141.772186 0.157080 0.000000 -0.000000
 16 -35.591049 -1.703068 41.085182 -0.643977 -1.397262 1.228018
 17 -37.563431 14.762699 -50.295185 -0.279252 0.000000 -0.000000
 18 -10.963058 -41.811989 -33.818554 -0.366520 0.000001 0.000000
 19 -3.816727 -34.079021 -25.402439 0.000000 -0.000000 0.000000
 20 41.148888 -1.371414 40.606621 1.111209 -0.093781 0.046234
 21 39.457130 17.377464 -50.174316 -0.245372 -0.019946 -0.001911
 22 11.722153 -44.271450 -32.982765 -0.242925 0.024226 0.007891
 23 2.616638 -33.926449 -25.777023 0.000000 -0.000000 0.000000
 24 -0.737603 -0.369772 42.251766 0.000000 -0.000000 0.000000
 25 59.548973 -50.967026 33.815178 1.545614 0.000000 0.000000
 26 7.710037 -174.312256 82.914421 0.000000 -0.000000 0.000000
 27 48.427086 70.919014 139.785324 -1.018825 -1.301114 1.157162
 28 -11.661728 -173.988159 81.962158 0.000000 -0.000000 0.000000
 29 2.355416 41.099152 8.166306 -0.174533 0.000000 0.000000
 30 3.826383 -29.401636 7.538548 0.139626 0.000000 0.000000
 31 -0.684172 -11.661074 48.858284 0.000000 -0.000000 0.000000
 32 -0.072890 -1.756191 2.960083 0.000000 -0.000000 0.000000
time 30
  0 -5.180422 13.788269 -12.439880 0.000000 -0.000000 0.000000
  1 -5.180422 13.788269 -12.439880 0.000000 -0.000000 0.000000
  2 -5.180422 13.788269 -12.439880 0.000000 -0.000000 0.000000
  3 -5.180422 13.788269 -12.439880 0.000000 -0.000000 0.000000
  4 -4.455341 19.713478 299.953064 0.000000 -0.000000 0.000000
  5 -5.180422 18.668694 39.942978 0.087267 0.000000 -0.000000
  6 0.585070 4.634647 -15.754393 0.139627 0.000000 -0.000000
  7 44.000435 -0.454872 -14.063076 -1.374853 1.067002 -0.432141
  8 -1.648886 -14.263247 -46.038216 0.279253 0.000000 0.000000
  9 1.901328 0.000000 -35.274979 -0.191986 0.000000 0.000000
 10 1.220857 -0.000004 -27.561968 0.000000 -0.000000 0.000000
 11 -35.658199 -1.977133 -14.300325 0.888004 -1.845985 -0.957335
 12 2.095198 -12.740982 -45.800968 -0.052360 0.000000 0.000000
 13 -2.525249 0.000000 -34.836567 0.139626 -0.000000 0.000000
 14 -1.229671 -0.000005 -26.461922 0.000000 -0.000000 0.000000
 15 0.585073 -23.896212 -142.369522 0.157080 0.000000 -0.000000
 16 -35.591049 -1.703068 41.085186 -0.647224 -1.401831 1.232319
 17 -37.563431 14.762697 -50.295185 -0.279252 0.000000 -0.000000
 18 -10.963051 -41.812000 -33.818573 -0.366519 0.000001 -0.000000
 19 -3.816711 -34.079025 -25.402435 0.000000 -0.000000 0.000000
 20 41.148888 -1.371414 40.606628 1.114843 -0.094088 0.046042
 21 39.457153 17.377468 -50.174320 -0.245372 -0.019946 -0.001911
 22 11.722160 -44.271454 -32.982765 -0.242925 0.024226 0.007891
 23 2.616646 -33.926437 -25.777023 0.000000 -0.000000 0.000000
 24 -0.737603 -0.369774 42.251770 0.000000 -0.000000 0.000000
 25 59.548973 -51.257935 33.887711 1.535889 0.000000 0.000000
 26 7.710037 -174.312256 82.914413 0.000000 -0.000000 0.000000
 27 48.744133 71.023094 140.202759 -1.016735 -1.305369 1.160945
 28 -11.661743 -173.988205 81.962181 0.000000 -0.000000 0.000000
 29 2.355416 41.099152 8.166306 -0.174533 0.000000 0.000000
 30 3.826383 -29.401634 7.538548 0.139626 0.000000 0.000000
 31 -0.684172 -11.661074 48.858284 0.000000 -0.000000 0.000000
 32 -0.072890 -1.756195 2.960075 0.000000 -0.000000 0.000000
end
