version 1
nodes
  0 "bone38"  -1
  1 "bone36"  -1
  2 "bone34"  -1
  3 "bone33"  -1
  4 "bone01"  -1
  5 "bone19"   4
  6 "bone15"   5
  7 "bone16"   6
  8 "bone18"   7
  9 "bone21"   8
 10 "bone07"   5
 11 "bone20"  10
 12 "bone17"  11
 13 "bone22"  12
 14 "bone03"   4
 15 "bone08"  14
 16 "bone05"  15
 17 "bone09"  16
 18 "bone11"  17
 19 "bone23"  18
 20 "bone24"  18
 21 "bone27"  18
 22 "bone28"  17
 23 "bone02"  14
 24 "bone04"  23
 25 "bone10"  24
 26 "bone29"  25
 27 "bone06"  14
 28 "bone12"  27
 29 "bone14"  27
 30 "bone30"  27
 31 "bone13"  14
 32 "bone32"  14
end
skeleton
time 0
  0 -2.437624 -1.142060 2.887016 0.000000 -0.000000 0.000000
  1 -2.437624 -1.142060 2.887016 0.000000 -0.000000 0.000000
  2 -2.437624 -1.142060 2.887016 0.000000 -0.000000 0.000000
  3 -4.744596 2.314000 171.985855 0.000000 -0.000000 0.000000
  4 -2.437624 -2.038301 81.382927 -0.069813 0.000000 0.000000
  5 0.000000 1.168599 -4.970116 0.070005 0.000000 0.000000
  6 9.220941 -0.130356 -8.947067 -0.052505 -0.000000 0.000000
  7 -0.379086 1.818013 -27.433559 -0.035002 0.000000 -0.000000
  8 0.656837 1.037760 -26.380829 0.122505 -0.000000 -0.000000
  9 0.796035 -3.894976 -5.943809 -0.000000 0.000000 -0.000000
 10 -8.723413 -0.130356 -8.508430 -0.105003 -0.000000 -0.000000
 11 0.166782 1.557050 -27.561691 0.017500 -0.000001 0.000000
 12 -0.000001 1.297750 -26.881956 0.140003 0.000000 0.000000
 13 -1.085476 -3.894565 -4.939403 -0.000000 0.000000 -0.000000
 14 0.000000 1.168600 2.657310 0.052515 0.017459 0.001220
 15 -8.954399 1.659624 23.005516 -0.232255 0.139671 1.241455
 16 -8.944315 1.465901 -13.462563 -0.219019 0.343564 0.616341
 17 -9.561531 -1.357553 -17.790222 -0.464149 -0.137384 -0.687520
 18 -2.070084 2.970726 -6.216942 -0.294278 1.155330 2.767118
 19 1.360785 127.032692 -0.873512 -0.000000 -0.000000 -0.000000
 20 81.101509 57.934624 -5.855019 -0.000000 -0.000000 -0.000000
 21 81.101509 57.934624 -5.855019 -0.000000 -0.000000 -0.000000
 22 -2.234226 -0.237770 -4.714935 0.000000 -0.000000 -0.000000
 23 10.123164 1.597976 23.100113 -0.459404 0.089633 -0.135530
 24 8.001965 1.546471 -13.734169 -0.630416 0.388552 -0.476947
 25 9.941496 -2.349922 -18.208973 -0.657410 0.391780 0.630563
 26 2.344055 0.208721 -5.340511 0.000000 -0.000000 0.000000
 27 0.245637 0.395494 37.922539 0.122503 -0.000000 -0.000000
 28 -1.052340 10.164501 41.856926 0.204731 0.000000 0.000000
 29 -0.811197 20.080637 -10.518127 0.139958 0.000000 0.000000
 30 -0.733660 -0.875966 4.161781 0.000000 -0.000000 0.000000
 31 0.212572 6.769415 15.607124 0.034998 -0.000022 0.000609
 32 0.298738 -0.708115 8.635880 0.000000 -0.000000 0.000000
time 1
  0 -2.437624 -1.142060 2.887016 0.000000 -0.000000 0.000000
  1 -2.437624 -1.142060 2.887016 0.000000 -0.000000 0.000000
  2 -2.437624 -1.142060 2.887016 0.000000 -0.000000 0.000000
  3 -4.744596 2.314000 171.985855 0.000000 -0.000000 0.000000
  4 -2.662610 -1.340845 81.382927 -0.072617 0.000000 0.007360
  5 -0.000000 1.168600 -4.970116 0.070005 0.000000 0.000000
  6 9.220941 -0.130356 -8.947067 -0.042314 -0.000000 0.000000
  7 -0.379086 1.818134 -27.431442 -0.013745 -0.005184 -0.000158
  8 0.656836 1.038083 -26.371384 0.110066 0.002659 -0.003740
  9 0.796034 -3.894521 -5.944616 -0.000000 -0.000000 0.000000
 10 -8.723414 -0.130356 -8.508438 -0.110274 -0.000000 0.000000
 11 0.166784 1.556929 -27.564163 0.024176 -0.000001 0.000000
 12 0.000000 1.297772 -26.881424 0.140003 0.000000 0.000000
 13 -1.085475 -3.894524 -4.939459 0.000000 -0.000000 0.000000
 14 -0.000000 1.168600 2.657318 0.048490 0.011524 0.013932
 15 -8.954493 1.659606 23.005524 -0.294464 0.201714 1.238537
 16 -8.929232 1.462786 -13.521027 -0.218951 0.343423 0.616359
 17 -9.501022 -1.357488 -17.908024 -0.464190 -0.137323 -0.687445
 18 -2.066597 2.962875 -6.242849 -0.294722 1.155576 2.765450
 19 1.368000 126.490250 -0.872379 0.000000 0.000000 0.000000
 20 81.532227 57.687241 -5.847488 0.000000 0.000000 0.000000
 21 81.532227 57.687241 -5.847488 0.000000 0.000000 0.000000
 22 -2.230465 -0.237129 -4.734585 0.000000 0.000000 0.000000
 23 10.123269 1.597959 23.100128 -0.528901 0.110004 -0.131537
 24 8.000124 1.539722 -13.802551 -0.630441 0.388499 -0.476978
 25 9.949791 -2.339050 -18.270380 -0.657406 0.391791 0.630574
 26 2.351368 0.208694 -5.325809 0.000000 0.000000 -0.000000
 27 0.245640 0.395489 37.922554 0.122645 0.000290 -0.013313
 28 -1.052351 10.165078 41.853661 0.204735 0.000000 0.000000
 29 -0.811205 20.081772 -10.517303 0.139960 0.000000 0.000000
 30 -0.733668 -0.876017 4.161453 -0.000000 -0.000000 -0.000000
 31 0.212574 6.769341 15.607140 0.034998 -0.000022 0.000609
 32 0.298741 -0.708107 8.635895 -0.000000 0.000000 0.000000
time 2
  0 -2.437624 -1.142060 2.887016 0.000000 -0.000000 0.000000
  1 -2.437624 -1.142060 2.887016 0.000000 -0.000000 0.000000
  2 -2.437624 -1.142060 2.887016 0.000000 -0.000000 0.000000
  3 -4.744596 2.314000 171.985855 0.000000 -0.000000 0.000000
  4 -3.284039 0.585586 81.382927 -0.080361 0.000000 0.027688
  5 0.000000 1.168601 -4.970123 0.070005 0.000000 0.000000
  6 9.220942 -0.130357 -8.947060 -0.014164 -0.000001 0.000000
  7 -0.379085 1.818334 -27.427956 0.044973 -0.019502 -0.000598
  8 0.656820 1.038239 -26.367504 0.075701 0.010005 -0.014071
  9 0.796031 -3.892251 -5.948669 0.000000 -0.000000 -0.000000
 10 -8.723415 -0.130357 -8.508430 -0.124830 -0.000000 0.000000
 11 0.166783 1.556564 -27.571644 0.042617 -0.000001 0.000000
 12 0.000000 1.297831 -26.880032 0.140003 0.000000 0.000000
 13 -1.085477 -3.894409 -4.939632 0.000000 0.000000 0.000000
 14 0.000000 1.168600 2.657310 0.037372 -0.004868 0.049043
 15 -8.954584 1.659538 23.006348 -0.357632 0.275009 1.230563
 16 -8.904285 1.458496 -13.607903 -0.218881 0.343287 0.616379
 17 -9.424980 -1.357791 -18.048496 -0.464273 -0.137251 -0.687359
 18 -2.060852 2.958298 -6.269215 -0.295806 1.156260 2.760846
 19 1.375135 126.002472 -0.870945 -0.000000 0.000000 -0.000000
 20 81.957405 57.464798 -5.837788 -0.000000 0.000000 -0.000000
 21 81.957405 57.464798 -5.837788 -0.000000 0.000000 -0.000000
 22 -2.224266 -0.236763 -4.754578 0.000000 -0.000000 -0.000000
 23 10.123375 1.597893 23.100952 -0.612880 0.132913 -0.127089
 24 7.999062 1.530273 -13.894485 -0.630543 0.388422 -0.477051
 25 9.960896 -2.327217 -18.332756 -0.657366 0.391776 0.630637
 26 2.363075 0.208591 -5.303680 0.000000 0.000000 -0.000000
 27 0.245642 0.395473 37.923904 0.123038 0.001093 -0.050083
 28 -1.052361 10.166466 41.846565 0.204743 0.000000 0.000000
 29 -0.811213 20.084511 -10.515526 0.139965 0.000000 -0.000000
 30 -0.733675 -0.876137 4.160751 0.000000 -0.000000 -0.000000
 31 0.212576 6.769061 15.607704 0.034998 -0.000022 0.000609
 32 0.298745 -0.708078 8.636200 -0.000000 0.000000 -0.000000
time 3
  0 -2.437624 -1.142060 2.887016 0.000000 -0.000000 0.000000
  1 -2.437624 -1.142060 2.887016 0.000000 -0.000000 0.000000
  2 -2.437624 -1.142060 2.887016 0.000000 -0.000000 0.000000
  3 -4.744596 2.314000 171.985855 0.000000 -0.000000 0.000000
  4 -4.221620 3.492085 81.382927 -0.092045 0.000000 0.058358
  5 0.000000 1.168600 -4.970123 0.070005 0.000000 0.000000
  6 9.220942 -0.130357 -8.947060 0.028308 -0.000001 0.000000
  7 -0.379086 1.818258 -27.429256 0.133541 -0.041100 -0.001270
  8 0.656760 1.036449 -26.422976 0.023850 0.021085 -0.029660
  9 0.796022 -3.886027 -5.959733 0.000000 0.000000 -0.000000
 10 -8.723413 -0.130356 -8.508430 -0.146789 -0.000000 0.000000
 11 0.166782 1.555929 -27.584625 0.070438 -0.000001 0.000000
 12 0.000000 1.297913 -26.878036 0.140003 0.000000 0.000000
 13 -1.085475 -3.894217 -4.939912 -0.000000 -0.000000 -0.000000
 14 0.000000 1.168601 2.657303 0.020598 -0.029600 0.102019
 15 -8.954279 1.659384 23.009727 -0.420495 0.356297 1.218577
 16 -8.868393 1.453358 -13.721024 -0.218819 0.343200 0.616401
 17 -9.340073 -1.358503 -18.197491 -0.464385 -0.137182 -0.687292
 18 -2.052620 2.959396 -6.292134 -0.297459 1.157344 2.753567
 19 1.380930 125.681656 -0.869267 -0.000000 0.000000 0.000000
 20 82.303001 57.318481 -5.826538 -0.000000 0.000000 0.000000
 21 82.303001 57.318481 -5.826538 -0.000000 0.000000 0.000000
 22 -2.215378 -0.236862 -4.771960 0.000000 -0.000000 -0.000000
 23 10.123028 1.597745 23.104355 -0.707351 0.157531 -0.122329
 24 7.998797 1.518517 -14.005341 -0.630739 0.388320 -0.477169
 25 9.970940 -2.316650 -18.387695 -0.657273 0.391721 0.630761
 26 2.378277 0.208492 -5.273865 -0.000000 0.000000 0.000000
 27 0.245633 0.395436 37.929497 0.123630 0.002305 -0.105561
 28 -1.052315 10.168037 41.841171 0.204752 0.000000 0.000000
 29 -0.811178 20.087618 -10.514160 0.139970 0.000000 0.000000
 30 -0.733643 -0.876270 4.160217 -0.000000 -0.000000 -0.000000
 31 0.212569 6.768434 15.609993 0.034998 -0.000022 0.000609
 32 0.298734 -0.708013 8.637466 -0.000000 -0.000000 -0.000000
time 4
  0 -2.437624 -1.142060 2.887016 0.000000 -0.000000 0.000000
  1 -2.437624 -1.142060 2.887016 0.000000 -0.000000 0.000000
  2 -2.437624 -1.142060 2.887016 0.000000 -0.000000 0.000000
  3 -4.744596 2.314000 171.985855 0.000000 -0.000000 0.000000
  4 -5.395058 7.129745 81.382927 -0.106668 0.000000 0.096743
  5 0.000000 1.168600 -4.970116 0.070005 0.000000 0.000000
  6 9.220942 -0.130356 -8.947067 0.081460 -0.000001 0.000000
  7 -0.379086 1.817530 -27.442047 0.244273 -0.068110 -0.002117
  8 0.656629 1.030962 -26.589220 -0.040995 0.034942 -0.049174
  9 0.796016 -3.873648 -5.981530 0.000000 -0.000000 0.000000
 10 -8.723413 -0.130357 -8.508430 -0.174268 -0.000000 0.000000
 11 0.166783 1.554994 -27.603725 0.105253 -0.000001 -0.000000
 12 -0.000002 1.298009 -26.875751 0.140003 0.000000 0.000000
 13 -1.085476 -3.893953 -4.940303 0.000000 -0.000000 -0.000000
 14 0.000000 1.168600 2.657310 -0.000396 -0.060552 0.168324
 15 -8.953123 1.659109 23.017609 -0.481813 0.442342 1.203623
 16 -8.822670 1.447968 -13.851532 -0.218772 0.343192 0.616430
 17 -9.255745 -1.359572 -18.337948 -0.464492 -0.137137 -0.687282
 18 -2.042137 2.967438 -6.308401 -0.299617 1.158798 2.743866
 19 1.384422 125.609421 -0.867474 -0.000000 0.000000 0.000000
 20 82.511131 57.285522 -5.814579 -0.000000 0.000000 0.000000
 21 82.511131 57.285522 -5.814579 -0.000000 0.000000 0.000000
 22 -2.204063 -0.237495 -4.784298 -0.000000 -0.000000 0.000000
 23 10.121723 1.597479 23.112267 -0.808365 0.183034 -0.117407
 24 7.999207 1.505325 -14.126312 -0.631011 0.388201 -0.477322
 25 9.976374 -2.309540 -18.426876 -0.657128 0.391627 0.630937
 26 2.395508 0.208450 -5.237656 -0.000000 0.000000 0.000000
 27 0.245602 0.395370 37.942474 0.124368 0.003822 -0.174994
 28 -1.052132 10.169312 41.843544 0.204759 0.000000 0.000000
 29 -0.811037 20.090139 -10.514763 0.139974 0.000000 0.000000
 30 -0.733515 -0.876383 4.160446 -0.000000 -0.000000 -0.000000
 31 0.212541 6.767308 15.615341 0.034997 -0.000022 0.000609
 32 0.298696 -0.707895 8.640427 -0.000000 0.000000 -0.000000
time 5
  0 -2.437624 -1.142060 2.887016 0.000000 -0.000000 0.000000
  1 -2.437624 -1.142060 2.887016 0.000000 -0.000000 0.000000
  2 -2.437624 -1.142060 2.887016 0.000000 -0.000000 0.000000
  3 -4.744596 2.314000 171.985855 0.000000 -0.000000 0.000000
  4 -6.724063 11.249660 81.382927 -0.123229 0.000000 0.140217
  5 0.000000 1.168601 -4.970116 0.070005 0.000000 0.000000
  6 9.220941 -0.130358 -8.947060 0.141646 -0.000001 0.000000
  7 -0.379085 1.815859 -27.471272 0.369455 -0.098668 -0.003065
  8 0.656408 1.021103 -26.882645 -0.114324 0.050618 -0.071281
  9 0.796017 -3.853987 -6.015755 -0.000000 0.000000 0.000000
 10 -8.723413 -0.130358 -8.508430 -0.205384 -0.000000 0.000000
 11 0.166782 1.553751 -27.629128 0.144677 -0.000001 -0.000000
 12 0.000000 1.298105 -26.873442 0.140003 -0.000000 0.000000
 13 -1.085476 -3.893618 -4.940794 0.000000 -0.000000 -0.000000
 14 -0.000000 1.168600 2.657310 -0.024171 -0.095605 0.243425
 15 -8.950784 1.658691 23.031273 -0.540366 0.529940 1.186725
 16 -8.770500 1.443069 -13.985954 -0.218738 0.343268 0.616474
 17 -9.182053 -1.360822 -18.454300 -0.464559 -0.137130 -0.687355
 18 -2.030190 2.982002 -6.316329 -0.302238 1.160592 2.731970
 19 1.385162 125.810059 -0.865749 -0.000000 -0.000000 -0.000000
 20 82.554962 57.377045 -5.802940 -0.000000 -0.000000 -0.000000
 21 82.554962 57.377045 -5.802940 -0.000000 -0.000000 -0.000000
 22 -2.191162 -0.238670 -4.790310 0.000000 -0.000000 -0.000000
 23 10.119080 1.597078 23.125984 -0.912001 0.208597 -0.112484
 24 8.000107 1.491989 -14.245602 -0.631302 0.388087 -0.477477
 25 9.974884 -2.307457 -18.443996 -0.656954 0.391510 0.631130
 26 2.412876 0.208511 -5.197853 -0.000000 0.000000 0.000000
 27 0.245537 0.395273 37.965012 0.125201 0.005539 -0.253632
 28 -1.051726 10.170067 41.858650 0.204759 0.000000 0.000000
 29 -0.810724 20.091629 -10.518562 0.139973 0.000000 -0.000000
 30 -0.733232 -0.876444 4.161942 0.000000 0.000000 -0.000000
 31 0.212486 6.765612 15.624611 0.034995 -0.000022 0.000609
 32 0.298617 -0.707717 8.645546 -0.000000 -0.000000 0.000000
time 6
  0 -2.437624 -1.142060 2.887016 0.000000 -0.000000 0.000000
  1 -2.437624 -1.142060 2.887016 0.000000 -0.000000 0.000000
  2 -2.437624 -1.142060 2.887016 0.000000 -0.000000 0.000000
  3 -4.744596 2.314000 171.985855 0.000000 -0.000000 0.000000
  4 -8.128342 15.602921 81.382927 -0.140729 0.000000 0.186153
  5 0.000000 1.168600 -4.970131 0.070005 0.000000 0.000000
  6 9.220941 -0.130360 -8.947060 0.205218 -0.000001 0.000000
  7 -0.379086 1.813137 -27.518658 0.501474 -0.130929 -0.004030
  8 0.656102 1.007908 -27.266605 -0.191696 0.067164 -0.094649
  9 0.796024 -3.827721 -6.060852 -0.000000 0.000000 -0.000000
 10 -8.723415 -0.130356 -8.508438 -0.238253 -0.000000 0.000000
 11 0.166783 1.552228 -27.660175 0.186325 -0.000001 -0.000000
 12 0.000000 1.298194 -26.871315 0.140003 -0.000000 0.000000
 13 -1.085476 -3.893225 -4.941371 -0.000000 -0.000000 -0.000000
 14 0.000000 1.168600 2.657303 -0.049291 -0.132636 0.322783
 15 -8.947114 1.658142 23.051048 -0.594938 0.615900 1.168894
 16 -8.716827 1.439240 -14.110275 -0.218711 0.343396 0.616536
 17 -9.126785 -1.362028 -18.536690 -0.464572 -0.137164 -0.687504
 18 -2.017906 3.001137 -6.316109 -0.305309 1.162694 2.718071
 19 1.383320 126.243767 -0.864178 0.000000 -0.000000 -0.000000
 20 82.444901 57.574821 -5.792503 0.000000 -0.000000 -0.000000
 21 82.444901 57.574821 -5.792503 0.000000 -0.000000 -0.000000
 22 -2.177917 -0.240204 -4.790144 0.000000 0.000000 -0.000000
 23 10.114929 1.596546 23.145851 -1.014337 0.233386 -0.107728
 24 8.001287 1.479912 -14.351212 -0.631542 0.388001 -0.477598
 25 9.965908 -2.310913 -18.436764 -0.656790 0.391399 0.631296
 26 2.428503 0.208702 -5.158310 -0.000000 -0.000000 -0.000000
 27 0.245437 0.395140 37.997597 0.126078 0.007353 -0.336725
 28 -1.051048 10.170277 41.888992 0.204751 0.000000 0.000000
 29 -0.810199 20.092041 -10.526169 0.139967 0.000000 -0.000000
 30 -0.732759 -0.876463 4.164970 -0.000000 -0.000000 0.000000
 31 0.212399 6.763363 15.638023 0.034992 -0.000022 0.000609
 32 0.298494 -0.707481 8.652977 -0.000000 0.000000 0.000000
time 7
  0 -2.437624 -1.142060 2.887016 0.000000 -0.000000 0.000000
  1 -2.437624 -1.142060 2.887016 0.000000 -0.000000 0.000000
  2 -2.437624 -1.142060 2.887016 0.000000 -0.000000 0.000000
  3 -4.744596 2.314000 171.985855 0.000000 -0.000000 0.000000
  4 -9.527602 19.940630 81.382927 -0.158166 0.000000 0.231925
  5 0.000000 1.168601 -4.970116 0.070005 0.000000 0.000000
  6 9.220942 -0.130359 -8.947067 0.268530 -0.000001 0.000000
  7 -0.379085 1.809498 -27.581909 0.632896 -0.163078 -0.004947
  8 0.655740 0.993919 -27.664551 -0.268779 0.083637 -0.117949
  9 0.796027 -3.797409 -6.112136 0.000000 0.000000 0.000000
 10 -8.723414 -0.130358 -8.508438 -0.270996 -0.000000 0.000000
 11 0.166783 1.550501 -27.695274 0.227813 -0.000001 -0.000000
 12 0.000000 1.298266 -26.869530 0.140002 0.000000 0.000000
 13 -1.085476 -3.892793 -4.942005 0.000000 0.000000 -0.000000
 14 -0.000000 1.168600 2.657310 -0.074318 -0.169527 0.401862
 15 -8.942229 1.657492 23.075996 -0.644311 0.697030 1.151132
 16 -8.666779 1.436783 -14.213821 -0.218685 0.343532 0.616611
 17 -9.093224 -1.362995 -18.583065 -0.464539 -0.137224 -0.687694
 18 -2.006462 3.022034 -6.309546 -0.308826 1.165064 2.702350
 19 1.379581 126.821304 -0.862923 -0.000000 0.000000 0.000000
 20 82.222229 57.838211 -5.783997 -0.000000 0.000000 0.000000
 21 82.222229 57.838211 -5.783997 -0.000000 0.000000 0.000000
 22 -2.165565 -0.241875 -4.785166 -0.000000 -0.000000 -0.000000
 23 10.109407 1.595922 23.170891 -1.111416 0.256551 -0.103308
 24 8.002556 1.470215 -14.434212 -0.631681 0.387958 -0.477661
 25 9.950706 -2.319145 -18.407894 -0.656672 0.391319 0.631402
 26 2.440977 0.208984 -5.122879 0.000000 0.000000 0.000000
 27 0.245303 0.394985 38.038719 0.126948 0.009161 -0.419520
 28 -1.050106 10.169945 41.933792 0.204735 0.000000 0.000000
 29 -0.809475 20.091389 -10.537445 0.139956 0.000000 0.000000
 30 -0.732101 -0.876436 4.169426 0.000000 0.000000 0.000000
 31 0.212283 6.760714 15.654945 0.034989 -0.000022 0.000609
 32 0.298334 -0.707205 8.662346 -0.000000 -0.000000 -0.000000
time 8
  0 -2.437624 -1.142060 2.887016 0.000000 -0.000000 0.000000
  1 -2.437624 -1.142060 2.887016 0.000000 -0.000000 0.000000
  2 -2.437624 -1.142060 2.887016 0.000000 -0.000000 0.000000
  3 -4.744596 2.314000 171.985855 0.000000 -0.000000 0.000000
  4 -10.841553 24.013876 81.382927 -0.174539 0.000000 0.274907
  5 0.000000 1.168597 -4.970116 0.070005 0.000000 0.000000
  6 9.220940 -0.130358 -8.947060 0.327947 -0.000001 -0.000000
  7 -0.379086 1.805271 -27.654884 0.756359 -0.193297 -0.005787
  8 0.655360 0.981987 -27.998165 -0.341258 0.099094 -0.139850
  9 0.796028 -3.766747 -6.163197 0.000000 0.000000 0.000000
 10 -8.723415 -0.130358 -8.508430 -0.301732 -0.000000 0.000000
 11 0.166782 1.548697 -27.731861 0.266760 -0.000001 -0.000000
 12 0.000000 1.298325 -26.868153 0.140001 0.000000 0.000000
 13 -1.085475 -3.892350 -4.942657 -0.000000 0.000000 0.000000
 14 -0.000000 1.168598 2.657310 -0.097815 -0.204159 0.476123
 15 -8.936517 1.656803 23.103981 -0.687246 0.770123 1.134443
 16 -8.624458 1.435631 -14.291512 -0.218660 0.343644 0.616687
 17 -9.079651 -1.363612 -18.598642 -0.464485 -0.137294 -0.687881
 18 -1.996796 3.041908 -6.299313 -0.312779 1.167659 2.684994
 19 1.374935 127.433578 -0.861988 -0.000000 0.000000 -0.000000
 20 81.944901 58.117447 -5.777760 -0.000000 0.000000 -0.000000
 21 81.944901 58.117447 -5.777760 -0.000000 0.000000 -0.000000
 22 -2.155128 -0.243462 -4.777405 -0.000000 -0.000000 0.000000
 23 10.102955 1.595257 23.198990 -1.199233 0.277237 -0.099378
 24 8.003747 1.463455 -14.490955 -0.631711 0.387959 -0.477665
 25 9.931877 -2.330368 -18.364485 -0.656618 0.391283 0.631440
 26 2.449669 0.209320 -5.094391 -0.000000 -0.000000 -0.000000
 27 0.245148 0.394819 38.084862 0.127763 0.010857 -0.497268
 28 -1.049006 10.169014 41.988899 0.204714 0.000000 0.000000
 29 -0.808624 20.089546 -10.551292 0.139941 0.000000 -0.000000
 30 -0.731334 -0.876356 4.174896 -0.000000 -0.000000 -0.000000
 31 0.212147 6.757895 15.673943 0.034985 -0.000022 0.000609
 32 0.298141 -0.706911 8.672844 -0.000000 -0.000000 -0.000000
time 9
  0 -2.437624 -1.142060 2.887016 0.000000 -0.000000 0.000000
  1 -2.437624 -1.142060 2.887016 0.000000 -0.000000 0.000000
  2 -2.437624 -1.142060 2.887016 0.000000 -0.000000 0.000000
  3 -4.744596 2.314000 171.985855 0.000000 -0.000000 0.000000
  4 -11.989900 27.573751 81.382927 -0.188850 -0.000000 0.312471
  5 0.000000 1.168601 -4.970123 0.070005 0.000000 0.000000
  6 9.220939 -0.130356 -8.947067 0.379844 -0.000001 0.000000
  7 -0.379086 1.800995 -27.728539 0.864405 -0.219735 -0.006530
  8 0.655014 0.973923 -28.223392 -0.404718 0.112592 -0.159003
  9 0.796021 -3.739510 -6.207918 0.000000 -0.000000 0.000000
 10 -8.723415 -0.130356 -8.508438 -0.328586 -0.000000 0.000000
 11 0.166782 1.546974 -27.766613 0.300788 -0.000001 -0.000000
 12 0.000000 1.298365 -26.867176 0.140001 -0.000000 0.000000
 13 -1.085475 -3.891933 -4.943267 0.000000 0.000000 -0.000000
 14 0.000001 1.168600 2.657310 -0.118348 -0.234418 0.541027
 15 -8.930630 1.656143 23.131920 -0.722489 0.831951 1.119843
 16 -8.592064 1.435440 -14.343834 -0.218638 0.343715 0.616751
 17 -9.080490 -1.363890 -18.593349 -0.464430 -0.137355 -0.688031
 18 -1.989395 3.058640 -6.288185 -0.317142 1.170428 2.666214
 19 1.370354 127.979050 -0.861408 0.000000 0.000000 -0.000000
 20 81.672409 58.366226 -5.773865 0.000000 0.000000 -0.000000
 21 81.672409 58.366226 -5.773865 0.000000 0.000000 -0.000000
 22 -2.147141 -0.244804 -4.768967 -0.000000 -0.000000 0.000000
 23 10.096296 1.594625 23.227051 -1.273747 0.294595 -0.096081
 24 8.004744 1.459488 -14.523468 -0.631663 0.387989 -0.477628
 25 9.912632 -2.342331 -18.316242 -0.656619 0.391284 0.631427
 26 2.454794 0.209648 -5.073990 0.000000 -0.000000 0.000000
 27 0.244989 0.394665 38.130905 0.128473 0.012340 -0.565217
 28 -1.047884 10.167503 42.047134 0.204689 0.000000 0.000000
 29 -0.807766 20.086567 -10.565918 0.139924 0.000000 -0.000000
 30 -0.730555 -0.876225 4.180695 0.000000 0.000000 -0.000000
 31 0.212008 6.755215 15.692894 0.034982 -0.000022 0.000609
 32 0.297947 -0.706631 8.683342 -0.000000 -0.000000 -0.000000
time 10
  0 -2.437624 -1.142060 2.887016 0.000000 -0.000000 0.000000
  1 -2.437624 -1.142060 2.887016 0.000000 -0.000000 0.000000
  2 -2.437624 -1.142060 2.887016 0.000000 -0.000000 0.000000
  3 -4.744596 2.314000 171.985855 0.000000 -0.000000 0.000000
  4 -12.892353 30.371355 81.382927 -0.200096 0.000000 0.341992
  5 0.000001 1.168602 -4.970123 0.070005 0.000000 0.000000
  6 9.220940 -0.130358 -8.947067 0.420607 -0.000001 0.000000
  7 -0.379086 1.797268 -27.792313 0.949432 -0.240523 -0.007135
  8 0.654740 0.969769 -28.342125 -0.454651 0.123193 -0.174056
  9 0.796010 -3.718605 -6.241894 -0.000000 -0.000000 -0.000000
 10 -8.723415 -0.130356 -8.508430 -0.349685 -0.000000 0.000000
 11 0.166782 1.545536 -27.795650 0.327523 -0.000001 -0.000000
 12 0.000000 1.298390 -26.866579 0.140000 0.000000 0.000000
 13 -1.085476 -3.891587 -4.943776 -0.000000 -0.000000 -0.000000
 14 0.000002 1.168600 2.657303 -0.134481 -0.258191 0.592034
 15 -8.925415 1.655598 23.156059 -0.748775 0.879272 1.108357
 16 -8.570030 1.435745 -14.374996 -0.218622 0.343752 0.616797
 17 -9.088425 -1.363936 -18.578716 -0.464390 -0.137400 -0.688133
 18 -1.984367 3.070992 -6.278530 -0.321875 1.173329 2.646238
 19 1.366714 128.378448 -0.861168 -0.000000 0.000000 -0.000000
 20 81.454926 58.548370 -5.772194 -0.000000 0.000000 -0.000000
 21 81.454926 58.548370 -5.772194 -0.000000 0.000000 -0.000000
 22 -2.141708 -0.245789 -4.761646 -0.000000 0.000000 -0.000000
 23 10.090405 1.594103 23.251282 -1.330914 0.307786 -0.093553
 24 8.005471 1.457642 -14.537968 -0.631587 0.388029 -0.477578
 25 9.896152 -2.352745 -18.273197 -0.656649 0.391305 0.631392
 26 2.457206 0.209923 -5.061211 0.000000 -0.000000 0.000000
 27 0.244846 0.394533 38.170708 0.129030 0.013504 -0.618617
 28 -1.046930 10.165665 42.099289 0.204667 0.000000 -0.000000
 29 -0.807030 20.082928 -10.579033 0.139909 0.000000 -0.000000
 30 -0.729889 -0.876064 4.185875 -0.000000 0.000000 -0.000000
 31 0.211887 6.752991 15.709274 0.034978 -0.000022 0.000609
 32 0.297775 -0.706396 8.692398 0.000000 0.000000 0.000000
time 11
  0 -2.437624 -1.142060 2.887016 0.000000 -0.000000 0.000000
  1 -2.437624 -1.142060 2.887016 0.000000 -0.000000 0.000000
  2 -2.437624 -1.142060 2.887016 0.000000 -0.000000 0.000000
  3 -4.744596 2.314000 171.985855 0.000000 -0.000000 0.000000
  4 -13.468618 32.157780 81.382927 -0.207277 0.000000 0.360842
  5 0.000000 1.168604 -4.970123 0.070005 0.000000 0.000000
  6 9.220940 -0.130356 -8.947067 0.446628 -0.000001 0.000000
  7 -0.379085 1.794731 -27.835499 1.003776 -0.253798 -0.007533
  8 0.654567 0.968285 -28.387539 -0.486550 0.129960 -0.183665
  9 0.795991 -3.705765 -6.262634 0.000000 -0.000000 -0.000000
 10 -8.723413 -0.130354 -8.508438 -0.363155 -0.000000 0.000000
 11 0.166784 1.544579 -27.814964 0.344592 -0.000001 -0.000000
 12 0.000000 1.298403 -26.866257 0.139999 -0.000000 0.000000
 13 -1.085475 -3.891357 -4.944115 -0.000000 0.000000 -0.000000
 14 0.000000 1.168602 2.657303 -0.144782 -0.273369 0.624605
 15 -8.921818 1.655239 23.172432 -0.764838 0.908841 1.101017
 16 -8.557686 1.436111 -14.390478 -0.218613 0.343766 0.616822
 17 -9.096397 -1.363886 -18.565273 -0.464366 -0.137425 -0.688187
 18 -1.981537 3.078384 -6.272110 -0.326929 1.176319 2.625306
 19 1.364616 128.574951 -0.861214 -0.000000 -0.000000 -0.000000
 20 81.329941 58.637985 -5.772636 -0.000000 -0.000000 -0.000000
 21 81.329941 58.637985 -5.772636 -0.000000 -0.000000 -0.000000
 22 -2.138672 -0.246384 -4.756775 -0.000000 -0.000000 -0.000000
 23 10.086323 1.593750 23.267723 -1.366700 0.315977 -0.091931
 24 8.005911 1.457054 -14.542280 -0.631524 0.388059 -0.477538
 25 9.885174 -2.359711 -18.244007 -0.656681 0.391326 0.631361
 26 2.458014 0.210098 -5.054657 0.000000 0.000000 0.000000
 27 0.244743 0.394451 38.197693 0.129384 0.014248 -0.652715
 28 -1.046299 10.164097 42.135429 0.204652 0.000000 -0.000000
 29 -0.806541 20.079838 -10.588097 0.139899 0.000000 -0.000000
 30 -0.729452 -0.875931 4.189468 -0.000000 -0.000000 -0.000000
 31 0.211796 6.751518 15.720375 0.034976 -0.000022 0.000609
 32 0.297649 -0.706242 8.698540 -0.000000 0.000000 -0.000000
time 12
  0 -2.437624 -1.142060 2.887016 0.000000 -0.000000 0.000000
  1 -2.437624 -1.142060 2.887016 0.000000 -0.000000 0.000000
  2 -2.437624 -1.142060 2.887016 0.000000 -0.000000 0.000000
  3 -4.744596 2.314000 171.985855 0.000000 -0.000000 0.000000
  4 -13.642126 32.695648 81.382927 -0.209439 -0.000000 0.366518
  5 -0.000000 1.168602 -4.970116 0.070005 0.000000 0.000000
  6 9.220941 -0.130356 -8.947067 0.454460 -0.000001 0.000000
  7 -0.379085 1.793949 -27.848869 1.020140 -0.257793 -0.007655
  8 0.654517 0.968029 -28.396374 -0.496152 0.131997 -0.186556
  9 0.795983 -3.702011 -6.268702 0.000000 0.000000 0.000000
 10 -8.723413 -0.130352 -8.508430 -0.367211 -0.000000 0.000000
 11 0.166784 1.544283 -27.820900 0.349729 -0.000001 -0.000000
 12 0.000000 1.298406 -26.866173 0.139999 -0.000000 0.000000
 13 -1.085476 -3.891290 -4.944217 0.000000 -0.000000 -0.000000
 14 0.000001 1.168606 2.657310 -0.147883 -0.277939 0.634412
 15 -8.920691 1.655127 23.177513 -0.769514 0.917599 1.098813
 16 -8.554253 1.436241 -14.394470 -0.218610 0.343769 0.616829
 17 -9.099182 -1.363859 -18.560688 -0.464359 -0.137433 -0.688202
 18 -1.980766 3.080505 -6.270164 -0.332261 1.179356 2.603650
 19 1.364487 128.527496 -0.861588 0.000000 0.000000 -0.000000
 20 81.322617 58.616356 -5.775200 0.000000 0.000000 -0.000000
 21 81.322617 58.616356 -5.775200 0.000000 0.000000 -0.000000
 22 -2.137825 -0.246559 -4.755295 0.000000 -0.000000 0.000000
 23 10.085056 1.593645 23.272827 -1.377314 0.318393 -0.091346
 24 8.006042 1.456963 -14.542850 -0.631504 0.388069 -0.477525
 25 9.881824 -2.361839 -18.235046 -0.656692 0.391333 0.631350
 26 2.458150 0.210152 -5.052917 0.000000 -0.000000 -0.000000
 27 0.244713 0.394419 38.206070 0.129491 0.014471 -0.662982
 28 -1.046108 10.163559 42.146721 0.204647 0.000000 0.000000
 29 -0.806396 20.078773 -10.590950 0.139895 0.000000 -0.000000
 30 -0.729317 -0.875885 4.190590 -0.000000 -0.000000 -0.000000
 31 0.211769 6.751066 15.723824 0.034976 -0.000022 0.000609
 32 0.297615 -0.706196 8.700447 -0.000000 -0.000000 0.000000
time 13
  0 -2.437624 -1.142060 2.887016 0.000000 -0.000000 0.000000
  1 -2.437624 -1.142060 2.887016 0.000000 -0.000000 0.000000
  2 -2.437624 -1.142060 2.887016 0.000000 -0.000000 0.000000
  3 -4.744596 2.314000 171.985855 0.000000 -0.000000 0.000000
  4 -13.639290 32.686638 81.382927 -0.209403 -0.000007 0.366425
  5 -0.000001 1.168598 -4.970116 0.070005 0.000000 0.000000
  6 9.220942 -0.130358 -8.947052 0.454330 -0.000001 -0.000000
  7 -0.379085 1.793964 -27.848640 1.019636 -0.257687 -0.007590
  8 0.654517 0.968037 -28.396156 -0.495858 0.131965 -0.186453
  9 0.795981 -3.702103 -6.268562 0.000000 0.000000 0.000000
 10 -8.723413 -0.130356 -8.508430 -0.367143 -0.000001 0.000000
 11 0.166782 1.544287 -27.820793 0.349575 -0.000001 -0.000000
 12 0.000000 1.298408 -26.866177 0.139999 0.000000 0.000000
 13 -1.085476 -3.891294 -4.944208 -0.000000 0.000000 0.000000
 14 0.000000 1.168598 2.657310 -0.147806 -0.277882 0.634235
 15 -8.920702 1.655130 23.177429 -0.769289 0.917412 1.099298
 16 -8.554268 1.436256 -14.394386 -0.218610 0.343769 0.616829
 17 -9.099121 -1.363859 -18.560802 -0.464359 -0.137432 -0.688202
 18 -1.980759 3.080475 -6.270222 -0.337825 1.182408 2.581500
 19 1.365211 128.374268 -0.862137 0.000000 0.000000 0.000000
 20 81.366234 58.546471 -5.778732 0.000000 0.000000 0.000000
 21 81.366234 58.546471 -5.778732 0.000000 0.000000 0.000000
 22 -2.137825 -0.246552 -4.755344 -0.000000 -0.000000 0.000000
 23 10.085075 1.593649 23.272743 -1.377070 0.318333 -0.091229
 24 8.006037 1.456963 -14.542841 -0.631504 0.388069 -0.477526
 25 9.881882 -2.361794 -18.235256 -0.656692 0.391333 0.631351
 26 2.458148 0.210159 -5.052963 -0.000000 -0.000000 0.000000
 27 0.244717 0.394423 38.205933 0.129490 0.014457 -0.662810
 28 -1.046114 10.163570 42.146591 0.204647 0.000000 0.000000
 29 -0.806396 20.078785 -10.590904 0.139896 0.000000 0.000000
 30 -0.729317 -0.875889 4.190590 0.000000 -0.000000 0.000000
 31 0.211773 6.751081 15.723763 0.034976 -0.000022 0.000609
 32 0.297615 -0.706194 8.700417 -0.000000 -0.000000 -0.000000
time 14
  0 -2.437624 -1.142060 2.887016 0.000000 -0.000000 0.000000
  1 -2.437624 -1.142060 2.887016 0.000000 -0.000000 0.000000
  2 -2.437624 -1.142060 2.887016 0.000000 -0.000000 0.000000
  3 -4.744596 2.314000 171.985855 0.000000 -0.000000 0.000000
  4 -13.629410 32.655811 81.382927 -0.209281 -0.000029 0.366103
  5 0.000001 1.168600 -4.970123 0.070005 0.000000 0.000000
  6 9.220941 -0.130356 -8.947067 0.453881 -0.000001 0.000000
  7 -0.379087 1.794010 -27.847878 1.018465 -0.257439 -0.007435
  8 0.654520 0.968048 -28.395657 -0.495175 0.131890 -0.186213
  9 0.795982 -3.702339 -6.268175 0.000000 0.000000 0.000000
 10 -8.723414 -0.130356 -8.508438 -0.366910 -0.000000 0.000000
 11 0.166782 1.544308 -27.820454 0.349218 -0.000001 -0.000000
 12 0.000002 1.298407 -26.866194 0.139999 -0.000000 0.000000
 13 -1.085476 -3.891305 -4.944197 -0.000000 -0.000000 0.000000
 14 -0.000001 1.168600 2.657303 -0.147543 -0.277686 0.633630
 15 -8.920750 1.655138 23.177132 -0.768520 0.916772 1.100099
 16 -8.554474 1.436249 -14.394058 -0.218610 0.343769 0.616829
 17 -9.098877 -1.363861 -18.561222 -0.464360 -0.137432 -0.688200
 18 -1.980812 3.080315 -6.270416 -0.343582 1.185434 2.559079
 19 1.366005 128.213959 -0.862690 -0.000000 0.000000 -0.000000
 20 81.412491 58.473335 -5.782375 -0.000000 0.000000 -0.000000
 21 81.412491 58.473335 -5.782375 -0.000000 0.000000 -0.000000
 22 -2.137871 -0.246529 -4.755493 -0.000000 0.000000 0.000000
 23 10.085125 1.593660 23.272438 -1.376232 0.318126 -0.091162
 24 8.006042 1.456970 -14.542809 -0.631506 0.388068 -0.477526
 25 9.882092 -2.361618 -18.236053 -0.656691 0.391332 0.631351
 26 2.458139 0.210144 -5.053139 -0.000000 0.000000 -0.000000
 27 0.244713 0.394423 38.205444 0.129489 0.014433 -0.662222
 28 -1.046127 10.163586 42.146042 0.204647 0.000000 -0.000000
 29 -0.806408 20.078823 -10.590775 0.139896 0.000000 -0.000000
 30 -0.729328 -0.875885 4.190529 0.000000 0.000000 -0.000000
 31 0.211769 6.751116 15.723564 0.034976 -0.000021 0.000609
 32 0.297615 -0.706202 8.700310 -0.000000 0.000000 -0.000000
time 15
  0 -2.437624 -1.142060 2.887016 0.000000 -0.000000 0.000000
  1 -2.437624 -1.142060 2.887016 0.000000 -0.000000 0.000000
  2 -2.437624 -1.142060 2.887016 0.000000 -0.000000 0.000000
  3 -4.744596 2.314000 171.985855 0.000000 -0.000000 0.000000
  4 -13.609129 32.593250 81.382927 -0.209032 -0.000075 0.365440
  5 -0.000000 1.168598 -4.970123 0.070005 0.000000 0.000000
  6 9.220939 -0.130356 -8.947075 0.452969 -0.000001 -0.000000
  7 -0.379086 1.794102 -27.846313 1.016811 -0.257090 -0.007205
  8 0.654519 0.968079 -28.394798 -0.494210 0.131784 -0.185874
  9 0.795985 -3.702759 -6.267511 0.000000 -0.000000 -0.000000
 10 -8.723414 -0.130354 -8.508438 -0.366439 -0.000000 0.000000
 11 0.166785 1.544344 -27.819767 0.348713 -0.000001 -0.000000
 12 0.000000 1.298406 -26.866196 0.139999 -0.000000 0.000000
 13 -1.085475 -3.891304 -4.944196 0.000000 0.000000 -0.000000
 14 -0.000000 1.168598 2.657303 -0.147009 -0.277287 0.632403
 15 -8.920841 1.655163 23.176537 -0.766958 0.915471 1.100603
 16 -8.555107 1.436226 -14.393318 -0.218610 0.343768 0.616828
 17 -9.098335 -1.363869 -18.562092 -0.464361 -0.137431 -0.688198
 18 -1.980949 3.079918 -6.270779 -0.349495 1.188398 2.536609
 19 1.366844 128.043503 -0.863243 0.000000 -0.000000 0.000000
 20 81.462204 58.395615 -5.786171 0.000000 -0.000000 0.000000
 21 81.462204 58.395615 -5.786171 0.000000 -0.000000 0.000000
 22 -2.138031 -0.246506 -4.755768 0.000000 0.000000 -0.000000
 23 10.085228 1.593681 23.271843 -1.374523 0.317708 -0.091137
 24 8.006041 1.456978 -14.542732 -0.631509 0.388066 -0.477528
 25 9.882504 -2.361282 -18.237720 -0.656689 0.391331 0.631353
 26 2.458121 0.210136 -5.053505 0.000000 -0.000000 0.000000
 27 0.244717 0.394432 38.204460 0.129486 0.014418 -0.661028
 28 -1.046143 10.163612 42.144852 0.204647 0.000000 0.000000
 29 -0.806421 20.078876 -10.590477 0.139896 0.000000 -0.000000
 30 -0.729338 -0.875889 4.190407 0.000000 -0.000000 0.000000
 31 0.211777 6.751205 15.723152 0.034976 -0.000022 0.000609
 32 0.297619 -0.706205 8.700073 0.000000 -0.000000 -0.000000
time 16
  0 -2.437624 -1.142060 2.887016 0.000000 -0.000000 0.000000
  1 -2.437624 -1.142060 2.887016 0.000000 -0.000000 0.000000
  2 -2.437624 -1.142060 2.887016 0.000000 -0.000000 0.000000
  3 -4.744596 2.314000 171.985855 0.000000 -0.000000 0.000000
  4 -13.089751 20.275713 81.382927 -0.176310 -0.007730 0.347879
  5 0.000000 1.168600 -4.970123 0.070005 0.000000 0.000000
  6 9.220941 -0.130358 -8.947067 0.337168 0.023057 -0.002710
  7 -0.379072 1.804558 -27.668358 1.009398 -0.255397 -0.006909
  8 0.654756 0.970497 -28.322701 -0.489705 0.131025 -0.184499
  9 0.796032 -3.734818 -6.215473 -0.000000 0.000000 -0.000000
 10 -8.723415 -0.130358 -8.508438 -0.263634 -0.021764 -0.008088
 11 0.166777 1.550908 -27.687984 0.346534 -0.000001 -0.000001
 12 -0.000002 1.297819 -26.881311 0.139968 0.000000 0.000000
 13 -1.085441 -3.882143 -4.957802 -0.000000 0.000000 0.000000
 14 -0.000001 1.168600 2.657303 -0.015110 -0.237100 0.428771
 15 -8.928297 1.658957 23.093842 -0.524952 0.779788 0.911263
 16 -8.701744 1.439217 -14.134567 -0.218701 0.343427 0.616566
 17 -9.116768 -1.362435 -18.548958 -0.464564 -0.137178 -0.687556
 18 -2.014435 3.006836 -6.315382 -0.363259 1.193643 2.490380
 19 1.384705 125.130692 -0.870308 -0.000000 0.000000 0.000000
 20 82.527229 57.067200 -5.833534 -0.000000 0.000000 0.000000
 21 82.527229 57.067200 -5.833534 -0.000000 0.000000 0.000000
 22 -2.174164 -0.240662 -4.789593 -0.000000 0.000000 -0.000000
 23 10.093653 1.597332 23.188797 -1.253460 0.232371 -0.291256
 24 8.007936 1.466805 -14.454208 -0.631684 0.387957 -0.477623
 25 9.920410 -2.326103 -18.415426 -0.656742 0.391358 0.631432
 26 2.447918 0.207985 -5.132736 -0.000000 0.000000 0.000000
 27 0.244921 0.395332 38.068138 0.129401 0.072277 -0.515731
 28 -1.050793 10.154045 41.977821 0.204662 0.000000 0.000000
 29 -0.810006 20.059975 -10.548492 0.139912 0.000000 -0.000000
 30 -0.732584 -0.875065 4.173813 -0.000000 0.000000 0.000000
 31 0.211950 6.766687 15.667046 0.034988 -0.000022 0.000609
 32 0.297867 -0.707830 8.669037 -0.000000 0.000000 0.000000
time 17
  0 -2.437624 -1.142060 2.887016 0.000000 -0.000000 0.000000
  1 -2.437624 -1.142060 2.887016 0.000000 -0.000000 0.000000
  2 -2.437624 -1.142060 2.887016 0.000000 -0.000000 0.000000
  3 -4.744596 2.314000 171.985855 0.000000 -0.000000 0.000000
  4 -11.754205 -10.394432 81.382927 -0.095025 -0.026775 0.302757
  5 -0.000001 1.168601 -4.970116 0.070005 0.000000 0.000000
  6 9.220942 -0.130357 -8.947060 0.049028 0.080780 -0.009533
  7 -0.378915 1.818060 -27.447060 0.988243 -0.250204 -0.006662
  8 0.655550 0.985012 -27.910229 -0.476813 0.128557 -0.180587
  9 0.795888 -3.815708 -6.082430 -0.000000 0.000000 -0.000000
 10 -8.723416 -0.130356 -8.508430 -0.007170 -0.076234 -0.028365
 11 0.166716 1.558226 -27.550358 0.339744 -0.000001 -0.000000
 12 -0.000002 1.288890 -27.105400 0.139802 0.000000 0.000000
 13 -1.085041 -3.839458 -5.021523 0.000000 -0.000000 0.000000
 14 -0.000002 1.168601 2.657310 0.313604 -0.136033 -0.077707
 15 -8.942342 1.653133 23.145302 0.077825 0.442751 0.438272
 16 -8.934254 1.465252 -13.486679 -0.219165 0.343883 0.616296
 17 -9.696304 -1.362858 -17.447910 -0.464693 -0.137581 -0.687602
 18 -2.067543 3.068909 -6.028641 -0.386311 1.202070 2.413665
 19 1.318069 131.144714 -0.873474 0.000000 -0.000000 0.000000
 20 78.555634 59.809952 -5.854736 0.000000 -0.000000 0.000000
 21 78.555634 59.809952 -5.854736 0.000000 -0.000000 0.000000
 22 -2.231483 -0.245628 -4.572128 0.000000 -0.000000 0.000000
 23 10.109536 1.591728 23.240486 -0.951431 0.019890 -0.792084
 24 8.003519 1.526192 -13.924637 -0.630604 0.388399 -0.477096
 25 9.969645 -2.324356 -18.336554 -0.657357 0.391774 0.630714
 26 2.371979 0.208023 -5.299072 0.000000 -0.000000 -0.000000
 27 0.245309 0.393950 38.152969 0.128949 0.216920 -0.155030
 28 -1.051525 10.070934 42.335480 0.204433 0.000000 0.000000
 29 -0.810570 19.895790 -10.638382 0.139757 0.000000 -0.000000
 30 -0.733093 -0.867905 4.209366 0.000000 0.000000 -0.000000
 31 0.212287 6.742935 15.701973 0.034971 -0.000022 0.000609
 32 0.298335 -0.705346 8.688347 -0.000000 0.000000 -0.000000
time 18
  0 -2.437624 -1.142060 2.887016 0.000000 -0.000000 0.000000
  1 -2.437624 -1.142060 2.887016 0.000000 -0.000000 0.000000
  2 -2.437624 -1.142060 2.887016 0.000000 -0.000000 0.000000
  3 -4.744596 2.314000 171.985855 0.000000 -0.000000 0.000000
  4 -10.545388 -32.439251 81.382927 -0.036619 -0.040462 0.262183
  5 0.000000 1.168600 -4.970123 0.070005 0.000000 0.000000
  6 9.220940 -0.130358 -8.947060 -0.158150 0.122267 -0.014498
  7 -0.378696 1.815292 -27.513786 0.954673 -0.241842 -0.006416
  8 0.656209 1.001357 -27.441967 -0.457036 0.124422 -0.174505
  9 0.795551 -3.863595 -6.003067 -0.000000 -0.000000 -0.000000
 10 -8.723413 -0.130360 -8.508430 0.177226 -0.115381 -0.042994
 11 0.166630 1.554930 -27.634232 0.328762 -0.000001 -0.000000
 12 0.000001 1.277447 -27.389084 0.139681 -0.000000 0.000000
 13 -1.084484 -3.797753 -5.083231 0.000000 -0.000000 0.000000
 14 -0.000001 1.168598 2.657303 0.549362 -0.059583 -0.441575
 15 -8.949655 1.634615 23.415474 0.510473 0.197279 0.097926
 16 -8.959356 1.398460 -14.111160 -0.218540 0.343326 0.616650
 17 -9.743683 -1.336163 -17.733940 -0.464840 -0.137438 -0.687679
 18 -2.073528 3.133700 -5.872414 -0.402669 1.207449 2.361470
 19 1.308937 132.771759 -0.868294 -0.000000 -0.000000 -0.000000
 20 78.011810 60.551991 -5.820076 -0.000000 -0.000000 -0.000000
 21 78.011810 60.551991 -5.820076 -0.000000 -0.000000 -0.000000
 22 -2.237953 -0.250811 -4.453644 0.000000 -0.000000 0.000000
 23 10.117805 1.573896 23.511765 -0.720770 -0.132575 -1.152159
 24 7.967854 1.551361 -13.752167 -0.630376 0.388474 -0.476885
 25 9.876999 -2.355911 -18.286125 -0.657369 0.391802 0.630478
 26 2.321316 0.210815 -5.335529 0.000000 0.000000 -0.000000
 27 0.245507 0.389536 38.598335 0.128402 0.320738 0.104104
 28 -1.050770 9.947075 42.940216 0.204282 0.000000 0.000000
 29 -0.809990 19.651100 -10.790344 0.139637 0.000000 0.000000
 30 -0.732567 -0.857231 4.269485 0.000000 0.000000 0.000000
 31 0.212460 6.667393 15.885254 0.034929 -0.000021 0.000609
 32 0.298580 -0.697443 8.789772 -0.000000 0.000000 -0.000000
time 19
  0 -2.437624 -1.142060 2.887016 0.000000 -0.000000 0.000000
  1 -2.437624 -1.142060 2.887016 0.000000 -0.000000 0.000000
  2 -2.437624 -1.142060 2.887016 0.000000 -0.000000 0.000000
  3 -4.744596 2.314000 171.985855 0.000000 -0.000000 0.000000
  4 -9.943049 -33.202187 81.382927 -0.034300 -0.040800 0.242453
  5 0.000000 1.168602 -4.970131 0.070005 0.000000 0.000000
  6 9.220940 -0.130358 -8.947067 -0.166449 0.123292 -0.014622
  7 -0.378689 1.814960 -27.520035 0.909527 -0.230803 -0.006022
  8 0.656332 1.005179 -27.331680 -0.430622 0.118799 -0.166490
  9 0.795545 -3.868290 -5.994949 -0.000000 0.000000 -0.000000
 10 -8.723415 -0.130360 -8.508430 0.183429 -0.116349 -0.043356
 11 0.166629 1.554695 -27.639469 0.314539 -0.000001 -0.000000
 12 -0.000002 1.278058 -27.375278 0.139686 -0.000000 0.000000
 13 -1.084465 -3.799877 -5.080355 0.000000 -0.000000 -0.000000
 14 0.000000 1.168602 2.657303 0.556434 -0.048207 -0.454533
 15 -8.950752 1.633844 23.424294 0.524517 0.182394 0.090392
 16 -8.959394 1.396080 -14.133652 -0.218539 0.343315 0.616665
 17 -9.738901 -1.334728 -17.763519 -0.464797 -0.137426 -0.687688
 18 -2.073547 3.132158 -5.875710 -0.402654 1.207382 2.361845
 19 1.310555 132.669937 -0.867989 -0.000000 0.000000 -0.000000
 20 78.108482 60.505543 -5.818012 -0.000000 0.000000 -0.000000
 21 78.108482 60.505543 -5.818012 -0.000000 0.000000 -0.000000
 22 -2.237961 -0.250690 -4.456154 0.000000 0.000000 0.000000
 23 10.119043 1.573160 23.520615 -0.682463 -0.137777 -1.161339
 24 7.965254 1.553566 -13.735779 -0.630378 0.388473 -0.476880
 25 9.865498 -2.360413 -18.275394 -0.657363 0.391803 0.630490
 26 2.317371 0.210983 -5.339630 0.000000 -0.000000 0.000000
 27 0.245538 0.389357 38.612846 0.128028 0.323212 0.114668
 28 -1.050640 9.942356 42.967484 0.204279 0.000000 0.000000
 29 -0.809887 19.641792 -10.797188 0.139635 0.000000 -0.000000
 30 -0.732471 -0.856823 4.272202 0.000000 0.000000 0.000000
 31 0.212485 6.664251 15.891235 0.034927 -0.000021 0.000609
 32 0.298617 -0.697115 8.793083 -0.000000 0.000000 0.000000
time 20
  0 -2.437624 -1.142060 2.887016 0.000000 -0.000000 0.000000
  1 -2.437624 -1.142060 2.887016 0.000000 -0.000000 0.000000
  2 -2.437624 -1.142060 2.887016 0.000000 -0.000000 0.000000
  3 -4.744596 2.314000 171.985855 0.000000 -0.000000 0.000000
  4 -9.342076 -32.414753 81.382927 -0.035197 -0.039769 0.222872
  5 0.000001 1.168602 -4.970123 0.070005 0.000000 0.000000
  6 9.220942 -0.130358 -8.947060 -0.163571 0.120178 -0.014252
  7 -0.378710 1.815075 -27.516430 0.854830 -0.217430 -0.005595
  8 0.656424 1.008882 -27.225138 -0.398609 0.111959 -0.156796
  9 0.795582 -3.871572 -5.988892 0.000000 -0.000000 -0.000000
 10 -8.723413 -0.130356 -8.508438 0.176145 -0.113411 -0.042259
 11 0.166635 1.554966 -27.632484 0.297332 -0.000001 -0.000000
 12 0.000000 1.279873 -27.331814 0.139700 -0.000000 0.000000
 13 -1.084516 -3.806161 -5.071311 -0.000000 -0.000000 0.000000
 14 0.000000 1.168600 2.657303 0.543733 -0.040297 -0.443014
 15 -8.951543 1.635061 23.402969 0.505440 0.178089 0.119497
 16 -8.959679 1.399460 -14.100937 -0.218540 0.343330 0.616637
 17 -9.743946 -1.337238 -17.718346 -0.464865 -0.137448 -0.687673
 18 -2.073624 3.134301 -5.870819 -0.399923 1.206010 2.372079
 19 1.307949 132.799942 -0.868710 -0.000000 -0.000000 -0.000000
 20 77.952965 60.564827 -5.822842 -0.000000 -0.000000 -0.000000
 21 77.952965 60.564827 -5.822842 -0.000000 -0.000000 -0.000000
 22 -2.238049 -0.250857 -4.452438 0.000000 0.000000 -0.000000
 23 10.119939 1.574327 23.499214 -0.654866 -0.132039 -1.135412
 24 7.967949 1.555264 -13.714104 -0.630384 0.388480 -0.476880
 25 9.862167 -2.364159 -18.254822 -0.657362 0.391796 0.630503
 26 2.315491 0.210960 -5.344063 -0.000000 -0.000000 0.000000
 27 0.245559 0.389643 38.577721 0.127628 0.315058 0.111771
 28 -1.050518 9.950092 42.937996 0.204283 0.000000 0.000000
 29 -0.809792 19.657043 -10.789780 0.139638 0.000000 0.000000
 30 -0.732391 -0.857491 4.269272 -0.000000 -0.000000 -0.000000
 31 0.212505 6.669226 15.876778 0.034930 -0.000022 0.000609
 32 0.298644 -0.697634 8.785080 -0.000000 -0.000000 -0.000000
time 21
  0 -2.437624 -1.142060 2.887016 0.000000 -0.000000 0.000000
  1 -2.437624 -1.142060 2.887016 0.000000 -0.000000 0.000000
  2 -2.437624 -1.142060 2.887016 0.000000 -0.000000 0.000000
  3 -4.744596 2.314000 171.985855 0.000000 -0.000000 0.000000
  4 -8.720373 -31.100981 81.382927 -0.036694 -0.038049 0.202664
  5 -0.000001 1.168600 -4.970123 0.070005 0.000000 0.000000
  6 9.220942 -0.130358 -8.947067 -0.158770 0.114982 -0.013634
  7 -0.378742 1.815258 -27.510544 0.792183 -0.202111 -0.005144
  8 0.656505 1.012952 -27.108162 -0.361932 0.104105 -0.145704
  9 0.795641 -3.874866 -5.982620 0.000000 -0.000000 0.000000
 10 -8.723413 -0.130358 -8.508438 0.163991 -0.108509 -0.040429
 11 0.166647 1.555395 -27.621357 0.277622 -0.000001 -0.000000
 12 0.000000 1.282129 -27.276943 0.139721 -0.000000 0.000000
 13 -1.084596 -3.814145 -5.059687 0.000000 -0.000000 -0.000000
 14 -0.000001 1.168600 2.657303 0.522539 -0.032891 -0.423798
 15 -8.952244 1.637074 23.369499 0.473621 0.173897 0.168052
 16 -8.960091 1.405380 -14.043510 -0.218556 0.343367 0.616590
 17 -9.751635 -1.341434 -17.643944 -0.464976 -0.137488 -0.687649
 18 -2.073753 3.136759 -5.865097 -0.395362 1.203726 2.389159
 19 1.303852 132.989456 -0.869923 0.000000 -0.000000 -0.000000
 20 77.708725 60.651264 -5.830994 0.000000 -0.000000 -0.000000
 21 77.708725 60.651264 -5.830994 0.000000 -0.000000 -0.000000
 22 -2.238182 -0.251053 -4.448090 0.000000 -0.000000 -0.000000
 23 10.120728 1.576263 23.465607 -0.629177 -0.122465 -1.092160
 24 7.972794 1.556835 -13.689445 -0.630397 0.388492 -0.476884
 25 9.862270 -2.367943 -18.227600 -0.657360 0.391782 0.630518
 26 2.314495 0.210869 -5.348534 0.000000 -0.000000 0.000000
 27 0.245578 0.390121 38.522560 0.127202 0.301454 0.106939
 28 -1.050442 9.963314 42.881226 0.204290 0.000000 0.000000
 29 -0.809731 19.683159 -10.775528 0.139645 0.000000 0.000000
 30 -0.732334 -0.858624 4.263618 0.000000 0.000000 0.000000
 31 0.212521 6.677433 15.854073 0.034934 -0.000021 0.000609
 32 0.298666 -0.698494 8.772522 0.000000 0.000000 -0.000000
time 22
  0 -2.437624 -1.142060 2.887016 0.000000 -0.000000 0.000000
  1 -2.437624 -1.142060 2.887016 0.000000 -0.000000 0.000000
  2 -2.437624 -1.142060 2.887016 0.000000 -0.000000 0.000000
  3 -4.744596 2.314000 171.985855 0.000000 -0.000000 0.000000
  4 -8.086150 -29.340504 81.382927 -0.038701 -0.035744 0.182090
  5 0.000000 1.168600 -4.970116 0.070005 0.000000 0.000000
  6 9.220941 -0.130356 -8.947060 -0.152335 0.108019 -0.012807
  7 -0.378780 1.815498 -27.502979 0.723160 -0.185233 -0.004672
  8 0.656575 1.017193 -26.985710 -0.321510 0.095438 -0.133493
  9 0.795712 -3.878068 -5.976394 -0.000000 0.000000 -0.000000
 10 -8.723414 -0.130360 -8.508430 0.147704 -0.101940 -0.037976
 11 0.166665 1.555925 -27.607529 0.255904 -0.000001 -0.000000
 12 0.000000 1.284665 -27.214645 0.139748 -0.000000 0.000000
 13 -1.084699 -3.823370 -5.046144 0.000000 -0.000000 0.000000
 14 0.000000 1.168600 2.657310 0.494129 -0.025988 -0.398049
 15 -8.952847 1.639675 23.326981 0.430994 0.169846 0.233108
 16 -8.960363 1.413635 -13.963272 -0.218603 0.343436 0.616530
 17 -9.761135 -1.346642 -17.550911 -0.465107 -0.137539 -0.687621
 18 -2.073841 3.137722 -5.862686 -0.389238 1.200686 2.412060
 19 1.299290 133.183456 -0.871391 -0.000000 -0.000000 -0.000000
 20 77.436943 60.739754 -5.840748 -0.000000 -0.000000 -0.000000
 21 77.436943 60.739754 -5.840748 -0.000000 -0.000000 -0.000000
 22 -2.238281 -0.251131 -4.446259 -0.000000 0.000000 -0.000000
 23 10.121413 1.578770 23.422905 -0.605377 -0.109635 -1.034204
 24 7.978907 1.558170 -13.664650 -0.630417 0.388509 -0.476892
 25 9.865753 -2.371490 -18.195770 -0.657358 0.391763 0.630535
 26 2.314552 0.210693 -5.352505 -0.000000 0.000000 -0.000000
 27 0.245595 0.390739 38.452446 0.126758 0.283223 0.100463
 28 -1.050423 9.980942 42.801422 0.204303 0.000000 0.000000
 29 -0.809719 19.718010 -10.755470 0.139656 0.000000 0.000000
 30 -0.732323 -0.860149 4.255692 -0.000000 0.000000 0.000000
 31 0.212535 6.688053 15.825226 0.034939 -0.000021 0.000609
 32 0.298687 -0.699602 8.756561 0.000000 -0.000000 0.000000
time 23
  0 -2.437624 -1.142060 2.887016 0.000000 -0.000000 0.000000
  1 -2.437624 -1.142060 2.887016 0.000000 -0.000000 0.000000
  2 -2.437624 -1.142060 2.887016 0.000000 -0.000000 0.000000
  3 -4.744596 2.314000 171.985855 0.000000 -0.000000 0.000000
  4 -7.447617 -27.212961 81.382927 -0.041125 -0.032959 0.161412
  5 0.000000 1.168598 -4.970123 0.070005 0.000000 0.000000
  6 9.220940 -0.130356 -8.947060 -0.144558 0.099604 -0.011807
  7 -0.378827 1.815781 -27.494328 0.649329 -0.167184 -0.004182
  8 0.656636 1.021415 -26.863331 -0.278264 0.086156 -0.120442
  9 0.795787 -3.881089 -5.970451 0.000000 0.000000 0.000000
 10 -8.723413 -0.130356 -8.508430 0.128018 -0.094000 -0.035013
 11 0.166681 1.556490 -27.592503 0.232672 -0.000001 -0.000000
 12 0.000001 1.287311 -27.149082 0.139779 0.000000 0.000000
 13 -1.084816 -3.833345 -5.031404 -0.000000 -0.000000 0.000000
 14 0.000000 1.168598 2.657310 0.459785 -0.019590 -0.366933
 15 -8.953354 1.642653 23.278702 0.379482 0.165961 0.311718
 16 -8.960390 1.423706 -13.864372 -0.218692 0.343545 0.616464
 17 -9.770876 -1.352089 -17.453117 -0.465220 -0.137592 -0.687598
 18 -2.073879 3.135277 -5.867882 -0.381812 1.197051 2.439762
 19 1.295502 133.307465 -0.872829 0.000000 -0.000000 0.000000
 20 77.211258 60.796303 -5.850426 0.000000 -0.000000 0.000000
 21 77.211258 60.796303 -5.850426 0.000000 -0.000000 0.000000
 22 -2.238319 -0.250935 -4.450211 0.000000 -0.000000 0.000000
 23 10.121986 1.581636 23.374435 -0.583445 -0.094127 -0.964167
 24 7.985386 1.559158 -13.642540 -0.630442 0.388531 -0.476903
 25 9.872334 -2.374451 -18.162289 -0.657355 0.391742 0.630552
 26 2.315739 0.210480 -5.355629 0.000000 0.000000 -0.000000
 27 0.245609 0.391447 38.372864 0.126304 0.261186 0.092638
 28 -1.050470 10.001816 42.703468 0.204323 0.000000 0.000000
 29 -0.809757 19.759239 -10.730850 0.139672 0.000000 -0.000000
 30 -0.732357 -0.861942 4.245956 0.000000 -0.000000 0.000000
 31 0.212547 6.700199 15.792473 0.034946 -0.000021 0.000609
 32 0.298704 -0.700876 8.738434 -0.000000 0.000000 0.000000
time 24
  0 -2.437624 -1.142060 2.887016 0.000000 -0.000000 0.000000
  1 -2.437624 -1.142060 2.887016 0.000000 -0.000000 0.000000
  2 -2.437624 -1.142060 2.887016 0.000000 -0.000000 0.000000
  3 -4.744596 2.314000 171.985855 0.000000 -0.000000 0.000000
  4 -6.812984 -24.797983 81.382927 -0.043877 -0.029797 0.140889
  5 -0.000000 1.168600 -4.970116 0.070005 0.000000 0.000000
  6 9.220941 -0.130356 -8.947067 -0.135730 0.090052 -0.010673
  7 -0.378874 1.816076 -27.485146 0.572260 -0.148349 -0.003681
  8 0.656687 1.025415 -26.746662 -0.233113 0.076461 -0.106830
  9 0.795856 -3.883859 -5.964984 -0.000000 -0.000000 0.000000
 10 -8.723417 -0.130356 -8.508438 0.105669 -0.084986 -0.031649
 11 0.166700 1.557045 -27.577698 0.208422 -0.000001 -0.000000
 12 0.000000 1.289908 -27.084324 0.139815 -0.000000 0.000000
 13 -1.084935 -3.843566 -5.016205 -0.000000 -0.000000 -0.000000
 14 0.000000 1.168600 2.657303 0.420784 -0.013697 -0.331614
 15 -8.953769 1.645782 23.228096 0.320992 0.162261 0.400933
 16 -8.960260 1.434780 -13.754379 -0.218823 0.343688 0.616398
 17 -9.778412 -1.357018 -17.366570 -0.465268 -0.137635 -0.687584
 18 -2.073872 3.127863 -5.883919 -0.373351 1.192982 2.471241
 19 1.293743 133.277908 -0.874077 -0.000000 -0.000000 0.000000
 20 77.106140 60.782837 -5.858795 -0.000000 -0.000000 0.000000
 21 77.106140 60.782837 -5.858795 -0.000000 -0.000000 0.000000
 22 -2.238316 -0.250343 -4.462372 0.000000 0.000000 -0.000000
 23 10.122452 1.584654 23.323616 -0.563362 -0.076519 -0.884670
 24 7.991425 1.559708 -13.625458 -0.630468 0.388555 -0.476915
 25 9.881367 -2.376495 -18.130753 -0.657351 0.391722 0.630566
 26 2.318008 0.210205 -5.357777 0.000000 0.000000 -0.000000
 27 0.245619 0.392191 38.289444 0.125847 0.236166 0.083755
 28 -1.050592 10.024643 42.592819 0.204351 0.000000 0.000000
 29 -0.809851 19.804340 -10.703041 0.139694 0.000000 0.000000
 30 -0.732443 -0.863914 4.234955 0.000000 -0.000000 0.000000
 31 0.212556 6.712971 15.758133 0.034954 -0.000021 0.000609
 32 0.298717 -0.702209 8.719437 0.000000 0.000000 -0.000000
time 25
  0 -2.437624 -1.142060 2.887016 0.000000 -0.000000 0.000000
  1 -2.437624 -1.142060 2.887016 0.000000 -0.000000 0.000000
  2 -2.437624 -1.142060 2.887016 0.000000 -0.000000 0.000000
  3 -4.744596 2.314000 171.985855 0.000000 -0.000000 0.000000
  4 -6.190463 -22.175207 81.382927 -0.046866 -0.026363 0.120783
  5 0.000001 1.168600 -4.970123 0.070005 0.000000 0.000000
  6 9.220940 -0.130356 -8.947060 -0.126141 0.079676 -0.009441
  7 -0.378920 1.816385 -27.475956 0.493525 -0.129111 -0.003175
  8 0.656729 1.029017 -26.640944 -0.186984 0.066552 -0.092938
  9 0.795915 -3.886322 -5.960133 -0.000000 -0.000000 0.000000
 10 -8.723416 -0.130358 -8.508430 0.081395 -0.075195 -0.027997
 11 0.166718 1.557525 -27.564396 0.183650 -0.000001 -0.000000
 12 0.000000 1.292301 -27.024170 0.139853 -0.000000 0.000000
 13 -1.085053 -3.853548 -5.001280 -0.000000 0.000000 0.000000
 14 0.000001 1.168600 2.657303 0.378407 -0.008310 -0.293256
 15 -8.954082 1.648869 23.178391 0.257420 0.158766 0.497810
 16 -8.960188 1.445709 -13.643951 -0.218975 0.343843 0.616339
 17 -9.780834 -1.360798 -17.306511 -0.465217 -0.137658 -0.687584
 18 -2.073864 3.114815 -5.911957 -0.364131 1.188625 2.505457
 19 1.294952 133.024612 -0.875019 0.000000 -0.000000 0.000000
 20 77.178864 60.667301 -5.865143 0.000000 -0.000000 0.000000
 21 77.178864 60.667301 -5.865143 0.000000 -0.000000 0.000000
 22 -2.238297 -0.249298 -4.483635 0.000000 -0.000000 -0.000000
 23 10.122809 1.587618 23.273697 -0.545106 -0.057391 -0.798336
 24 7.996437 1.559772 -13.615044 -0.630489 0.388579 -0.476926
 25 9.891903 -2.377342 -18.104950 -0.657348 0.391708 0.630579
 26 2.321152 0.209885 -5.359003 -0.000000 0.000000 -0.000000
 27 0.245629 0.392929 38.207497 0.125394 0.208985 0.074107
 28 -1.050777 10.048161 42.475533 0.204387 0.000000 0.000000
 29 -0.809992 19.850807 -10.673576 0.139722 0.000000 -0.000000
 30 -0.732571 -0.865940 4.223282 0.000000 -0.000000 -0.000000
 31 0.212563 6.725531 15.724411 0.034962 -0.000022 0.000609
 32 0.298728 -0.703524 8.700768 -0.000000 -0.000000 0.000000
time 26
  0 -2.437624 -1.142060 2.887016 0.000000 -0.000000 0.000000
  1 -2.437624 -1.142060 2.887016 0.000000 -0.000000 0.000000
  2 -2.437624 -1.142060 2.887016 0.000000 -0.000000 0.000000
  3 -4.744596 2.314000 171.985855 0.000000 -0.000000 0.000000
  4 -5.588263 -19.424271 81.382927 -0.050001 -0.022762 0.101355
  5 0.000000 1.168600 -4.970123 0.070005 0.000000 0.000000
  6 9.220942 -0.130358 -8.947060 -0.116083 0.068793 -0.008150
  7 -0.378962 1.816685 -27.467201 0.414702 -0.109855 -0.002673
  8 0.656762 1.032083 -26.550449 -0.140804 0.056630 -0.079044
  9 0.795961 -3.888452 -5.955985 -0.000000 0.000000 -0.000000
 10 -8.723415 -0.130356 -8.508430 0.055932 -0.064925 -0.024168
 11 0.166735 1.557897 -27.553600 0.158856 -0.000001 -0.000000
 12 0.000000 1.294372 -26.971781 0.139889 0.000000 0.000000
 13 -1.085161 -3.862851 -4.987307 -0.000000 0.000000 0.000000
 14 0.000000 1.168600 2.657303 0.333939 -0.003430 -0.253024
 15 -8.954315 1.651709 23.132454 0.190667 0.155491 0.599411
 16 -8.960279 1.455364 -13.544807 -0.219115 0.343973 0.616296
 17 -9.775509 -1.363102 -17.283699 -0.465066 -0.137657 -0.687595
 18 -2.073872 3.096588 -5.950596 -0.354451 1.184103 2.541350
 19 1.299526 132.516388 -0.875648 -0.000000 -0.000000 0.000000
 20 77.451294 60.435516 -5.869320 -0.000000 -0.000000 0.000000
 21 77.451294 60.435516 -5.869320 -0.000000 -0.000000 0.000000
 22 -2.238316 -0.247837 -4.512943 0.000000 -0.000000 -0.000000
 23 10.123071 1.590357 23.227592 -0.528658 -0.037320 -0.707786
 24 8.000168 1.559349 -13.612030 -0.630500 0.388599 -0.476935
 25 9.902830 -2.376854 -18.088074 -0.657348 0.391701 0.630588
 26 2.324825 0.209572 -5.359425 -0.000000 -0.000000 -0.000000
 27 0.245635 0.393606 38.131813 0.124951 0.180466 0.063987
 28 -1.051016 10.071157 42.357819 0.204430 0.000000 0.000000
 29 -0.810175 19.896227 -10.643974 0.139754 0.000000 0.000000
 30 -0.732737 -0.867922 4.211586 -0.000000 -0.000000 0.000000
 31 0.212569 6.737131 15.693253 0.034970 -0.000022 0.000609
 32 0.298735 -0.704741 8.683533 0.000000 -0.000000 0.000000
time 27
  0 -2.437624 -1.142060 2.887016 0.000000 -0.000000 0.000000
  1 -2.437624 -1.142060 2.887016 0.000000 -0.000000 0.000000
  2 -2.437624 -1.142060 2.887016 0.000000 -0.000000 0.000000
  3 -4.744596 2.314000 171.985855 0.000000 -0.000000 0.000000
  4 -5.014595 -16.624805 81.382927 -0.053191 -0.019097 0.082864
  5 -0.000000 1.168600 -4.970116 0.070005 0.000000 0.000000
  6 9.220940 -0.130358 -8.947067 -0.105847 0.057718 -0.006836
  7 -0.378998 1.816961 -27.459244 0.337379 -0.090968 -0.002187
  8 0.656787 1.034527 -26.478012 -0.095509 0.046896 -0.065427
  9 0.795993 -3.890233 -5.952563 -0.000000 0.000000 -0.000000
 10 -8.723413 -0.130358 -8.508430 0.030019 -0.054472 -0.020273
 11 0.166750 1.558134 -27.545979 0.134539 -0.000001 -0.000000
 12 -0.000001 1.296035 -26.929420 0.139923 -0.000000 0.000000
 13 -1.085254 -3.871123 -4.974836 -0.000000 -0.000000 -0.000000
 14 0.000000 1.168602 2.657310 0.288665 0.000942 -0.212084
 15 -8.954468 1.654181 23.092598 0.122652 0.152457 0.702795
 16 -8.960403 1.462835 -13.466942 -0.219212 0.344046 0.616270
 17 -9.760937 -1.363926 -17.301346 -0.464847 -0.137635 -0.687612
 18 -2.073875 3.074783 -5.996223 -0.344626 1.179523 2.577842
 19 1.307091 131.777390 -0.875961 0.000000 0.000000 0.000000
 20 77.901657 60.098495 -5.871464 0.000000 0.000000 0.000000
 21 77.901657 60.098495 -5.871464 0.000000 0.000000 0.000000
 22 -2.238323 -0.246094 -4.547539 -0.000000 -0.000000 0.000000
 23 10.123244 1.592734 23.187561 -0.513998 -0.016888 -0.615641
 24 8.002645 1.558418 -13.616333 -0.630501 0.388613 -0.476940
 25 9.913105 -2.375031 -18.082077 -0.657352 0.391704 0.630594
 26 2.328674 0.209259 -5.359119 0.000000 -0.000000 0.000000
 27 0.245640 0.394197 38.066086 0.124524 0.151432 0.053687
 28 -1.051277 10.092560 42.245659 0.204478 0.000000 0.000000
 29 -0.810379 19.938503 -10.615799 0.139789 0.000000 -0.000000
 30 -0.732920 -0.869768 4.200432 -0.000000 -0.000000 -0.000000
 31 0.212573 6.747212 15.666214 0.034978 -0.000022 0.000609
 32 0.298741 -0.705792 8.668571 0.000000 0.000000 0.000000
time 28
  0 -2.437624 -1.142060 2.887016 0.000000 -0.000000 0.000000
  1 -2.437624 -1.142060 2.887016 0.000000 -0.000000 0.000000
  2 -2.437624 -1.142060 2.887016 0.000000 -0.000000 0.000000
  3 -4.744596 2.314000 171.985855 0.000000 -0.000000 0.000000
  4 -4.477668 -13.856445 81.382927 -0.056346 -0.015472 0.065572
  5 0.000000 1.168600 -4.970116 0.070005 0.000000 0.000000
  6 9.220940 -0.130357 -8.947067 -0.095725 0.046764 -0.005537
  7 -0.379028 1.817215 -27.452335 0.263154 -0.072838 -0.001728
  8 0.656807 1.036316 -26.424717 -0.052035 0.037551 -0.052369
  9 0.796013 -3.891670 -5.949847 -0.000000 0.000000 0.000000
 10 -8.723414 -0.130357 -8.508438 0.004392 -0.044134 -0.016422
 11 0.166761 1.558228 -27.541798 0.111203 -0.000001 -0.000000
 12 0.000000 1.297244 -26.898266 0.139951 -0.000000 0.000000
 13 -1.085328 -3.878117 -4.964260 0.000000 0.000000 0.000000
 14 0.000000 1.168600 2.657310 0.243874 0.004804 -0.171599
 15 -8.954554 1.656186 23.060257 0.055321 0.149683 0.805027
 16 -8.960205 1.467731 -13.415970 -0.219252 0.344049 0.616264
 17 -9.737377 -1.363575 -17.354454 -0.464614 -0.137599 -0.687626
 18 -2.073807 3.051685 -6.044079 -0.334961 1.174987 2.613868
 19 1.316643 130.884308 -0.876022 0.000000 -0.000000 0.000000
 20 78.471634 59.691196 -5.871822 0.000000 -0.000000 0.000000
 21 78.471634 59.691196 -5.871822 0.000000 -0.000000 0.000000
 22 -2.238247 -0.244247 -4.583832 -0.000000 0.000000 -0.000000
 23 10.123340 1.594665 23.155090 -0.501109 0.003324 -0.524522
 24 8.004076 1.557037 -13.627136 -0.630491 0.388619 -0.476942
 25 9.921970 -2.372017 -18.087173 -0.657359 0.391713 0.630596
 26 2.332371 0.209000 -5.358063 -0.000000 0.000000 -0.000000
 27 0.245641 0.394673 38.012787 0.124119 0.122710 0.043501
 28 -1.051546 10.111551 42.144264 0.204529 0.000000 0.000000
 29 -0.810585 19.976015 -10.590332 0.139824 0.000000 0.000000
 30 -0.733105 -0.871397 4.190346 0.000000 -0.000000 0.000000
 31 0.212575 6.755390 15.644279 0.034985 -0.000022 0.000609
 32 0.298743 -0.706649 8.656441 -0.000000 0.000000 -0.000000
time 29
  0 -2.437624 -1.142060 2.887016 0.000000 -0.000000 0.000000
  1 -2.437624 -1.142060 2.887016 0.000000 -0.000000 0.000000
  2 -2.437624 -1.142060 2.887016 0.000000 -0.000000 0.000000
  3 -4.744596 2.314000 171.985855 0.000000 -0.000000 0.000000
  4 -3.985694 -11.198833 81.382927 -0.059374 -0.011993 0.049740
  5 0.000000 1.168600 -4.970123 0.070005 0.000000 0.000000
  6 9.220940 -0.130356 -8.947052 -0.086006 0.036249 -0.004291
  7 -0.379051 1.817432 -27.446583 0.193630 -0.055856 -0.001306
  8 0.656820 1.037481 -26.389856 -0.011324 0.028798 -0.040147
  9 0.796025 -3.892783 -5.947774 -0.000000 0.000000 -0.000000
 10 -8.723414 -0.130357 -8.508430 -0.020210 -0.034210 -0.012727
 11 0.166770 1.558188 -27.540947 0.089349 -0.000001 -0.000000
 12 0.000000 1.298007 -26.878284 0.139973 0.000000 0.000000
 13 -1.085389 -3.883712 -4.955782 -0.000000 -0.000000 -0.000000
 14 0.000000 1.168600 2.657303 0.200859 0.008155 -0.132735
 15 -8.954586 1.657691 23.036041 -0.009358 0.147192 0.903165
 16 -8.959270 1.470161 -13.391953 -0.219241 0.343991 0.616272
 17 -9.706814 -1.362494 -17.431961 -0.464416 -0.137556 -0.687629
 18 -2.073570 3.029644 -6.089634 -0.325745 1.170611 2.648386
 19 1.326958 129.943680 -0.875851 0.000000 0.000000 -0.000000
 20 79.085617 59.262226 -5.870670 0.000000 0.000000 -0.000000
 21 79.085617 59.262226 -5.870670 0.000000 0.000000 -0.000000
 22 -2.237991 -0.242481 -4.618378 -0.000000 0.000000 -0.000000
 23 10.123376 1.596112 23.130775 -0.489977 0.022731 -0.437049
 24 8.004722 1.555283 -13.643074 -0.630474 0.388617 -0.476943
 25 9.929024 -2.368149 -18.101837 -0.657370 0.391727 0.630594
 26 2.335659 0.208794 -5.356216 0.000000 0.000000 -0.000000
 27 0.245642 0.395034 37.972878 0.123742 0.095127 0.033720
 28 -1.051789 10.127560 42.057465 0.204578 0.000000 0.000000
 29 -0.810774 20.007654 -10.568527 0.139858 0.000000 0.000000
 30 -0.733276 -0.872784 4.181717 0.000000 0.000000 -0.000000
 31 0.212576 6.761522 15.627853 0.034990 -0.000022 0.000609
 32 0.298744 -0.707291 8.647346 -0.000000 0.000000 -0.000000
time 30
  0 -2.437624 -1.142060 2.887016 0.000000 -0.000000 0.000000
  1 -2.437624 -1.142060 2.887016 0.000000 -0.000000 0.000000
  2 -2.437624 -1.142060 2.887016 0.000000 -0.000000 0.000000
  3 -4.744596 2.314000 171.985855 0.000000 -0.000000 0.000000
  4 -3.546882 -8.731593 81.382927 -0.062186 -0.008763 0.035628
  5 0.000000 1.168600 -4.970116 0.070005 0.000000 0.000000
  6 9.220942 -0.130356 -8.947060 -0.076984 0.026486 -0.003135
  7 -0.379067 1.817616 -27.442043 0.130415 -0.040414 -0.000932
  8 0.656828 1.038104 -26.371122 0.025687 0.020837 -0.029041
  9 0.796031 -3.893609 -5.946260 -0.000000 0.000000 -0.000000
 10 -8.723414 -0.130356 -8.508438 -0.043050 -0.024996 -0.009298
 11 0.166775 1.558032 -27.542931 0.069481 -0.000001 -0.000000
 12 0.000001 1.298372 -26.868366 0.139989 -0.000000 0.000000
 13 -1.085429 -3.887925 -4.949401 0.000000 -0.000000 0.000000
 14 -0.000000 1.168600 2.657310 0.160915 0.010994 -0.096655
 15 -8.954578 1.658710 23.019714 -0.069416 0.145009 0.994274
 16 -8.957325 1.470648 -13.390198 -0.219197 0.343896 0.616289
 17 -9.672512 -1.361139 -17.520340 -0.464276 -0.137512 -0.687618
 18 -2.073105 3.010468 -6.129524 -0.317240 1.166523 2.680383
 19 1.336800 129.060608 -0.875488 -0.000000 -0.000000 -0.000000
 20 79.672569 58.859474 -5.868298 -0.000000 -0.000000 -0.000000
 21 79.672569 58.859474 -5.868298 -0.000000 -0.000000 -0.000000
 22 -2.237484 -0.240944 -4.648636 -0.000000 0.000000 -0.000000
 23 10.123367 1.597095 23.114380 -0.480588 0.040751 -0.355841
 24 8.004787 1.553303 -13.662354 -0.630455 0.388608 -0.476942
 25 9.934193 -2.363838 -18.123158 -0.657382 0.391743 0.630589
 26 2.338394 0.208672 -5.353580 0.000000 0.000000 -0.000000
 27 0.245642 0.395276 37.945953 0.123400 0.069513 0.024639
 28 -1.051995 10.140381 41.987480 0.204623 0.000000 0.000000
 29 -0.810930 20.032974 -10.550934 0.139889 0.000000 -0.000000
 30 -0.733419 -0.873890 4.174767 -0.000000 -0.000000 -0.000000
 31 0.212575 6.765679 15.616776 0.034994 -0.000022 0.000609
 32 0.298744 -0.707725 8.641220 -0.000000 -0.000000 -0.000000
time 31
  0 -2.437624 -1.142060 2.887016 0.000000 -0.000000 0.000000
  1 -2.437624 -1.142060 2.887016 0.000000 -0.000000 0.000000
  2 -2.437624 -1.142060 2.887016 0.000000 -0.000000 0.000000
  3 -4.744596 2.314000 171.985855 0.000000 -0.000000 0.000000
  4 -3.169443 -6.534367 81.382927 -0.064690 -0.005886 0.023497
  5 0.000000 1.168601 -4.970116 0.070005 0.000000 0.000000
  6 9.220942 -0.130356 -8.947052 -0.068948 0.017791 -0.002105
  7 -0.379078 1.817763 -27.438622 0.075113 -0.026904 -0.000612
  8 0.656834 1.038305 -26.364950 0.058059 0.013873 -0.019329
  9 0.796033 -3.894192 -5.945208 0.000000 0.000000 -0.000000
 10 -8.723415 -0.130356 -8.508430 -0.063389 -0.016790 -0.006244
 11 0.166780 1.557800 -27.546932 0.052102 -0.000001 -0.000000
 12 -0.000001 1.298424 -26.866390 0.139998 -0.000000 0.000000
 13 -1.085453 -3.890874 -4.944936 -0.000000 0.000000 -0.000000
 14 0.000000 1.168600 2.657310 0.125334 0.013318 -0.064525
 15 -8.954540 1.659307 23.010185 -0.122894 0.143160 1.075413
 16 -8.954426 1.469887 -13.403259 -0.219142 0.343791 0.616307
 17 -9.638210 -1.359852 -17.607056 -0.464195 -0.137470 -0.687595
 18 -2.072422 2.995148 -6.161961 -0.309694 1.162863 2.708855
 19 1.345341 128.312225 -0.875015 -0.000000 0.000000 -0.000000
 20 80.181046 58.518181 -5.865093 -0.000000 0.000000 -0.000000
 21 80.181046 58.518181 -5.865093 -0.000000 0.000000 -0.000000
 22 -2.236752 -0.239723 -4.673241 0.000000 -0.000000 0.000000
 23 10.123324 1.597670 23.104813 -0.472931 0.056799 -0.283521
 24 8.004410 1.551266 -13.682869 -0.630438 0.388594 -0.476942
 25 9.937662 -2.359543 -18.147495 -0.657394 0.391757 0.630582
 26 2.340542 0.208626 -5.350338 -0.000000 0.000000 0.000000
 27 0.245641 0.395418 37.930260 0.123100 0.046697 0.016551
 28 -1.052146 10.150051 41.934608 0.204662 0.000000 0.000000
 29 -0.811049 20.052082 -10.537636 0.139914 0.000000 -0.000000
 30 -0.733526 -0.874718 4.169510 0.000000 0.000000 -0.000000
 31 0.212575 6.768122 15.610313 0.034996 -0.000022 0.000609
 32 0.298743 -0.707980 8.637634 -0.000000 0.000000 0.000000
time 32
  0 -2.437624 -1.142060 2.887016 0.000000 -0.000000 0.000000
  1 -2.437624 -1.142060 2.887016 0.000000 -0.000000 0.000000
  2 -2.437624 -1.142060 2.887016 0.000000 -0.000000 0.000000
  3 -4.744596 2.314000 171.985855 0.000000 -0.000000 0.000000
  4 -2.861588 -4.686793 81.382927 -0.066795 -0.003467 0.013608
  5 0.000000 1.168600 -4.970131 0.070005 0.000000 0.000000
  6 9.220942 -0.130357 -8.947060 -0.062191 0.010480 -0.001240
  7 -0.379083 1.817874 -27.436230 0.029325 -0.015718 -0.000353
  8 0.656836 1.038230 -26.367035 0.084859 0.008105 -0.011291
  9 0.796035 -3.894577 -5.944517 0.000000 -0.000000 -0.000000
 10 -8.723415 -0.130357 -8.508423 -0.080490 -0.009890 -0.003678
 11 0.166782 1.557535 -27.551929 0.037714 -0.000001 -0.000000
 12 -0.000001 1.298271 -26.869659 0.140002 -0.000000 0.000000
 13 -1.085467 -3.892770 -4.942077 0.000000 0.000000 0.000000
 14 0.000000 1.168601 2.657303 0.095412 0.015128 -0.037508
 15 -8.954491 1.659585 23.005867 -0.167847 0.141674 1.143643
 16 -8.950993 1.468562 -13.423141 -0.219091 0.343696 0.616322
 17 -9.607430 -1.358822 -17.682556 -0.464159 -0.137435 -0.687569
 18 -2.071625 2.983917 -6.186512 -0.303359 1.159773 2.732792
 19 1.352097 127.737068 -0.874477 -0.000000 -0.000000 0.000000
 20 80.583244 58.255852 -5.861534 -0.000000 -0.000000 0.000000
 21 80.583244 58.255852 -5.861534 -0.000000 -0.000000 0.000000
 22 -2.235889 -0.238815 -4.691853 0.000000 0.000000 -0.000000
 23 10.123268 1.597938 23.100471 -0.466995 0.070292 -0.222708
 24 8.003719 1.549393 -13.702484 -0.630426 0.388579 -0.476943
 25 9.939758 -2.355667 -18.171177 -0.657402 0.391768 0.630575
 26 2.342125 0.208626 -5.346859 0.000000 -0.000000 -0.000000
 27 0.245640 0.395484 37.923119 0.122852 0.027509 0.009750
 28 -1.052248 10.156876 41.897537 0.204692 0.000000 0.000000
 29 -0.811125 20.065565 -10.528320 0.139934 0.000000 0.000000
 30 -0.733596 -0.875310 4.165825 -0.000000 -0.000000 -0.000000
 31 0.212574 6.769256 15.607368 0.034998 -0.000022 0.000609
 32 0.298741 -0.708099 8.636009 0.000000 -0.000000 0.000000
time 33
  0 -2.437624 -1.142060 2.887016 0.000000 -0.000000 0.000000
  1 -2.437624 -1.142060 2.887016 0.000000 -0.000000 0.000000
  2 -2.437624 -1.142060 2.887016 0.000000 -0.000000 0.000000
  3 -4.744596 2.314000 171.985855 0.000000 -0.000000 0.000000
  4 -2.631526 -3.268499 81.382927 -0.068411 -0.001611 0.006222
  5 0.000000 1.168600 -4.970116 0.070005 0.000000 0.000000
  6 9.220941 -0.130356 -8.947060 -0.057004 0.004868 -0.000576
  7 -0.379085 1.817952 -27.434692 -0.005352 -0.007245 -0.000161
  8 0.656837 1.038029 -26.372904 0.105153 0.003736 -0.005204
  9 0.796035 -3.894812 -5.944097 0.000000 -0.000000 0.000000
 10 -8.723413 -0.130356 -8.508438 -0.093618 -0.004594 -0.001708
 11 0.166782 1.557292 -27.556782 0.026817 -0.000001 -0.000000
 12 0.000000 1.298036 -26.875153 0.140003 -0.000000 0.000000
 13 -1.085473 -3.893866 -4.940437 0.000000 0.000000 -0.000000
 14 0.000000 1.168600 2.657303 0.072441 0.016422 -0.016769
 15 -8.954447 1.659659 23.004814 -0.202344 0.140579 1.196021
 16 -8.947681 1.467229 -13.442894 -0.219052 0.343624 0.616333
 17 -9.583015 -1.358109 -17.740585 -0.464148 -0.137407 -0.687544
 18 -2.070858 2.976418 -6.203510 -0.298497 1.157396 2.751171
 19 1.356890 127.340408 -0.873985 0.000000 -0.000000 -0.000000
 20 80.870285 58.074966 -5.858253 0.000000 -0.000000 -0.000000
 21 80.870285 58.074966 -5.858253 0.000000 -0.000000 -0.000000
 22 -2.235065 -0.238220 -4.704750 0.000000 0.000000 0.000000
 23 10.123220 1.598009 23.099426 -0.462769 0.080650 -0.176024
 24 8.002912 1.547852 -13.718910 -0.630419 0.388565 -0.476945
 25 9.940866 -2.352615 -18.190937 -0.657407 0.391775 0.630568
 26 2.343208 0.208668 -5.343666 0.000000 0.000000 -0.000000
 27 0.245638 0.395502 37.921402 0.122664 0.012777 0.004529
 28 -1.052305 10.161272 41.873917 0.204714 0.000000 0.000000
 29 -0.811170 20.074257 -10.522385 0.139947 0.000000 0.000000
 30 -0.733636 -0.875690 4.163467 0.000000 -0.000000 0.000000
 31 0.212573 6.769554 15.606659 0.034998 -0.000022 0.000609
 32 0.298740 -0.708130 8.635620 0.000000 0.000000 -0.000000
time 34
  0 -2.437624 -1.142060 2.887016 0.000000 -0.000000 0.000000
  1 -2.437624 -1.142060 2.887016 0.000000 -0.000000 0.000000
  2 -2.437624 -1.142060 2.887016 0.000000 -0.000000 0.000000
  3 -4.744596 2.314000 171.985855 0.000000 -0.000000 0.000000
  4 -2.487468 -2.359124 81.382927 -0.069448 -0.000420 0.001599
  5 0.000000 1.168600 -4.970123 0.070005 0.000000 0.000000
  6 9.220941 -0.130357 -8.947067 -0.053678 0.001269 -0.000150
  7 -0.379086 1.817997 -27.433834 -0.027324 -0.001876 -0.000041
  8 0.656837 1.037838 -26.378523 0.118012 0.000968 -0.001348
  9 0.796035 -3.894936 -5.943877 -0.000000 0.000000 -0.000000
 10 -8.723413 -0.130357 -8.508438 -0.102034 -0.001198 -0.000445
 11 0.166782 1.557115 -27.560345 0.019913 -0.000001 -0.000000
 12 -0.000001 1.297832 -26.880001 0.140003 0.000000 0.000000
 13 -1.085475 -3.894405 -4.939636 0.000000 0.000000 -0.000000
 14 0.000000 1.168601 2.657303 0.057711 0.017200 -0.003471
 15 -8.954411 1.659642 23.005196 -0.224456 0.139903 1.229606
 16 -8.945240 1.466260 -13.457237 -0.219028 0.343579 0.616339
 17 -9.567154 -1.357694 -17.777367 -0.464148 -0.137390 -0.687526
 18 -2.070297 2.972137 -6.213554 -0.295378 1.155869 2.762959
 19 1.359789 127.109535 -0.873638 0.000000 -0.000000 0.000000
 20 81.042854 57.969658 -5.855888 0.000000 -0.000000 0.000000
 21 81.042854 57.969658 -5.855888 0.000000 -0.000000 0.000000
 22 -2.234455 -0.237885 -4.712364 0.000000 -0.000000 0.000000
 23 10.123177 1.597993 23.099800 -0.460244 0.087290 -0.146091
 24 8.002234 1.546833 -13.730103 -0.630416 0.388555 -0.476946
 25 9.941359 -2.350624 -18.204201 -0.657409 0.391779 0.630564
 26 2.343849 0.208706 -5.341373 -0.000000 0.000000 0.000000
 27 0.245637 0.395498 37.922005 0.122545 0.003332 0.001181
 28 -1.052332 10.163715 41.861053 0.204727 0.000000 0.000000
 29 -0.811191 20.079081 -10.519157 0.139955 0.000000 0.000000
 30 -0.733655 -0.875899 4.162186 0.000000 0.000000 0.000000
 31 0.212572 6.769487 15.606911 0.034998 -0.000022 0.000609
 32 0.298738 -0.708123 8.635765 0.000000 -0.000000 0.000000
time 35
  0 -2.437624 -1.142060 2.887016 0.000000 -0.000000 0.000000
  1 -2.437624 -1.142060 2.887016 0.000000 -0.000000 0.000000
  2 -2.437624 -1.142060 2.887016 0.000000 -0.000000 0.000000
  3 -4.744596 2.314000 171.985855 0.000000 -0.000000 0.000000
  4 -2.437624 -2.038301 81.382927 -0.069813 0.000000 0.000000
  5 0.000000 1.168599 -4.970116 0.070005 0.000000 0.000000
  6 9.220941 -0.130356 -8.947067 -0.052505 -0.000000 0.000000
  7 -0.379086 1.818013 -27.433559 -0.035002 -0.000000 0.000000
  8 0.656837 1.037760 -26.380829 0.122505 -0.000000 -0.000000
  9 0.796036 -3.894977 -5.943809 0.000000 0.000000 0.000000
 10 -8.723413 -0.130356 -8.508430 -0.105003 -0.000000 -0.000000
 11 0.166782 1.557050 -27.561691 0.017500 -0.000001 -0.000000
 12 -0.000001 1.297751 -26.881956 0.140003 0.000000 0.000000
 13 -1.085475 -3.894565 -4.939402 -0.000000 0.000000 0.000000
 14 0.000000 1.168600 2.657310 0.052515 0.017459 0.001220
 15 -8.954398 1.659625 23.005516 -0.232256 0.139671 1.241455
 16 -8.944323 1.465903 -13.462555 -0.219019 0.343564 0.616341
 17 -9.561543 -1.357555 -17.790234 -0.464149 -0.137384 -0.687520
 18 -2.070080 2.970726 -6.216944 -0.294278 1.155330 2.767118
 19 1.360771 127.032761 -0.873512 0.000000 -0.000000 0.000000
 20 81.101501 57.934677 -5.855030 0.000000 -0.000000 0.000000
 21 81.101501 57.934677 -5.855030 0.000000 -0.000000 0.000000
 22 -2.234222 -0.237762 -4.714939 -0.000000 0.000000 -0.000000
 23 10.123165 1.597976 23.100121 -0.459404 0.089633 -0.135530
 24 8.001966 1.546474 -13.734169 -0.630416 0.388552 -0.476947
 25 9.941497 -2.349907 -18.208981 -0.657410 0.391780 0.630562
 26 2.344063 0.208721 -5.340515 -0.000000 0.000000 0.000000
 27 0.245637 0.395494 37.922539 0.122503 -0.000000 -0.000000
 28 -1.052340 10.164504 41.856926 0.204731 0.000000 0.000000
 29 -0.811197 20.080635 -10.518127 0.139958 0.000000 0.000000
 30 -0.733660 -0.875967 4.161781 -0.000000 -0.000000 -0.000000
 31 0.212572 6.769416 15.607124 0.034998 -0.000022 0.000609
 32 0.298738 -0.708115 8.635880 0.000000 -0.000000 0.000000
end
