version 1
nodes
  0 "bone38"  -1
  1 "bone36"  -1
  2 "bone34"  -1
  3 "bone33"  -1
  4 "bone01"  -1
  5 "bone19"   4
  6 "bone15"   5
  7 "bone16"   6
  8 "bone18"   7
  9 "bone21"   8
 10 "bone07"   5
 11 "bone20"  10
 12 "bone17"  11
 13 "bone22"  12
 14 "bone03"   4
 15 "bone08"  14
 16 "bone05"  15
 17 "bone09"  16
 18 "bone11"  17
 19 "bone23"  18
 20 "bone24"  18
 21 "bone27"  18
 22 "bone28"  17
 23 "bone02"  14
 24 "bone04"  23
 25 "bone10"  24
 26 "bone29"  25
 27 "bone06"  14
 28 "bone12"  27
 29 "bone14"  27
 30 "bone30"  27
 31 "bone13"  14
 32 "bone32"  14
end
skeleton
time 0
  0 -2.437624 -1.142060 2.887016 0.000000 -0.000000 0.000000
  1 -2.437624 -1.142060 2.887016 0.000000 -0.000000 0.000000
  2 -2.437624 -1.142060 2.887016 0.000000 -0.000000 0.000000
  3 -4.744596 2.314000 171.985855 0.000000 -0.000000 0.000000
  4 -2.437624 -21.335337 83.197258 0.069813 0.000000 0.000000
  5 0.000000 1.168602 -4.970108 0.070005 0.000000 0.000000
  6 9.220941 -0.130359 -8.947075 0.232317 -0.000000 -0.000000
  7 -0.379086 1.811689 -27.543827 0.686820 0.000000 -0.000000
  8 0.656837 0.991741 -27.674305 0.031254 -0.000000 -0.000000
  9 0.796035 -3.712151 -6.252048 0.000000 -0.000000 0.000000
 10 -8.723413 -0.130357 -8.508438 -0.679844 -0.000001 0.000000
 11 0.166782 1.514931 -28.400085 0.200388 -0.000002 0.000000
 12 0.000001 1.279140 -27.321791 -0.081897 -0.000000 0.000000
 13 -1.085475 -3.818020 -5.049691 0.000000 -0.000000 0.000000
 14 0.000000 1.168600 2.657310 -0.007319 -0.089486 0.125129
 15 -8.950589 1.658987 23.027145 0.270725 -0.195129 -0.314308
 16 -8.907833 1.466219 -13.521835 -0.183892 0.620424 0.352500
 17 -9.734337 -1.363317 -17.364388 -0.464572 -0.137592 -0.687630
 18 -2.097792 2.642494 -6.027798 -0.293948 1.155100 2.767526
 19 1.323837 130.546249 -0.873848 0.000000 -0.000000 0.000000
 20 78.900085 59.537022 -5.857285 0.000000 -0.000000 0.000000
 21 78.900085 59.537022 -5.857285 0.000000 -0.000000 0.000000
 22 -2.238281 -0.243881 -4.590828 -0.000000 -0.000000 0.000000
 23 10.118857 1.597362 23.121849 -0.318184 -0.112150 0.695310
 24 7.999519 1.550827 -13.696686 -0.577373 0.594405 -0.553599
 25 9.937356 -2.387794 -17.943481 -0.288976 0.090863 0.172917
 26 2.428305 0.202469 -5.314074 -0.000000 0.000000 0.000000
 27 0.245532 0.395343 37.958206 0.175642 0.067073 -0.105499
 28 -1.052329 10.164085 41.859428 0.204729 0.000000 0.000000
 29 -0.811188 20.079817 -10.518753 0.139956 0.000000 0.000000
 30 -0.733653 -0.875929 4.162041 0.000000 -0.000000 -0.000000
 31 0.384187 6.873096 15.763496 -0.021619 -0.014065 -0.064751
 32 0.298611 -0.707844 8.644005 0.000000 -0.000000 0.000000
time 1
  0 -2.437624 -1.142060 2.887016 0.000000 -0.000000 0.000000
  1 -2.437624 -1.142060 2.887016 0.000000 -0.000000 0.000000
  2 -2.437624 -1.142060 2.887016 0.000000 -0.000000 0.000000
  3 -4.744596 2.314000 171.985855 0.000000 -0.000000 0.000000
  4 -2.437624 -21.335337 83.125305 0.069813 0.000000 0.000000
  5 0.000000 1.168601 -4.970116 0.070005 0.000000 0.000000
  6 9.220941 -0.130360 -8.947067 0.127360 -0.000000 -0.000000
  7 -0.379086 1.816335 -27.462936 1.031224 0.000000 -0.000000
  8 0.656837 0.975933 -28.091837 -0.122717 -0.000000 -0.000000
  9 0.796035 -3.689720 -6.287828 -0.000000 -0.000000 0.000000
 10 -8.723413 -0.130358 -8.508430 -0.570446 -0.000001 0.000000
 11 0.166782 1.526432 -28.175880 0.244362 -0.000001 0.000000
 12 0.000000 1.289173 -27.086279 -0.115889 -0.000000 0.000000
 13 -1.085475 -3.845642 -5.010421 -0.000000 -0.000000 -0.000000
 14 0.000000 1.168601 2.657310 -0.002248 -0.084674 0.154694
 15 -8.951240 1.659079 23.023758 0.270728 -0.195134 -0.314309
 16 -8.910624 1.466064 -13.518661 -0.163095 0.604834 0.360711
 17 -9.737759 -1.363617 -17.353058 -0.464622 -0.137601 -0.687625
 18 -2.118502 2.296036 -5.994949 -0.293954 1.155082 2.767523
 19 1.322433 130.746918 -0.873417 -0.000000 0.000000 -0.000000
 20 78.815979 59.628532 -5.854317 -0.000000 0.000000 -0.000000
 21 78.815979 59.628532 -5.854317 -0.000000 0.000000 -0.000000
 22 -2.238235 -0.244308 -4.582607 -0.000000 -0.000000 -0.000000
 23 10.119593 1.597450 23.118446 -0.318196 -0.112152 0.695311
 24 7.999754 1.551514 -13.689514 -0.577378 0.594408 -0.553600
 25 9.935132 -2.389053 -17.938454 -0.288970 0.090862 0.172912
 26 2.427435 0.202583 -5.312956 -0.000000 0.000000 0.000000
 27 0.245550 0.395365 37.952606 0.171608 0.066877 -0.136985
 28 -1.052343 10.163607 41.861053 0.204726 0.000000 0.000000
 29 -0.811199 20.078873 -10.519157 0.139955 0.000000 0.000000
 30 -0.733662 -0.875891 4.162201 0.000000 -0.000000 0.000000
 31 0.384215 6.873470 15.761177 -0.021619 -0.014066 -0.064751
 32 0.298633 -0.707882 8.642731 0.000000 -0.000000 0.000000
time 2
  0 -2.437624 -1.142060 2.887016 0.000000 -0.000000 0.000000
  1 -2.437624 -1.142060 2.887016 0.000000 -0.000000 0.000000
  2 -2.437624 -1.142060 2.887016 0.000000 -0.000000 0.000000
  3 -4.744596 2.314000 171.985855 0.000000 -0.000000 0.000000
  4 -2.437624 -21.335337 82.924873 0.069813 0.000000 0.000000
  5 0.000000 1.168599 -4.970108 0.070005 0.000000 0.000000
  6 9.220941 -0.130359 -8.947067 0.011362 -0.000000 -0.000000
  7 -0.379086 1.818340 -27.427795 1.380788 0.000000 0.000000
  8 0.656837 0.966019 -28.347309 -0.278821 -0.000000 -0.000000
  9 0.796035 -3.671131 -6.317168 0.000000 0.000000 0.000000
 10 -8.723413 -0.130357 -8.508430 -0.449189 -0.000001 0.000000
 11 0.166783 1.537769 -27.951458 0.288972 -0.000001 0.000000
 12 0.000001 1.296146 -26.920385 -0.150360 -0.000000 0.000000
 13 -1.085474 -3.870068 -4.975202 0.000000 -0.000000 -0.000000
 14 0.000000 1.168600 2.657310 0.003980 -0.078764 0.190999
 15 -8.951957 1.659181 23.019951 0.270731 -0.195140 -0.314310
 16 -8.913958 1.465876 -13.514961 -0.137622 0.585736 0.370768
 17 -9.741817 -1.363855 -17.341362 -0.464684 -0.137610 -0.687620
 18 -2.143911 1.868858 -5.954830 -0.293965 1.155059 2.767515
 19 1.320797 130.987991 -0.872833 -0.000000 0.000000 -0.000000
 20 78.718491 59.738495 -5.850471 -0.000000 0.000000 -0.000000
 21 78.718491 59.738495 -5.850471 -0.000000 0.000000 -0.000000
 22 -2.238169 -0.244843 -4.572598 0.000000 0.000000 -0.000000
 23 10.120406 1.597547 23.114609 -0.318211 -0.112155 0.695313
 24 8.000027 1.552357 -13.680817 -0.577385 0.594411 -0.553601
 25 9.932333 -2.390633 -17.932243 -0.288963 0.090860 0.172906
 26 2.426365 0.202744 -5.311552 -0.000000 0.000000 0.000000
 27 0.245569 0.395387 37.946335 0.166654 0.066637 -0.175648
 28 -1.052357 10.163080 41.863029 0.204724 0.000000 0.000000
 29 -0.811210 20.077827 -10.519646 0.139953 0.000000 0.000000
 30 -0.733673 -0.875845 4.162392 0.000000 -0.000000 -0.000000
 31 0.384247 6.873897 15.758568 -0.021620 -0.014066 -0.064751
 32 0.298657 -0.707925 8.641296 -0.000000 0.000000 0.000000
time 3
  0 -2.437624 -1.142060 2.887016 0.000000 -0.000000 0.000000
  1 -2.437624 -1.142060 2.887016 0.000000 -0.000000 0.000000
  2 -2.437624 -1.142060 2.887016 0.000000 -0.000000 0.000000
  3 -4.744596 2.314000 171.985855 0.000000 -0.000000 0.000000
  4 -2.437624 -21.335337 82.619141 0.069813 0.000000 0.000000
  5 0.000000 1.168599 -4.970108 0.070005 0.000000 0.000000
  6 9.220941 -0.130359 -8.947067 -0.103528 -0.000000 -0.000000
  7 -0.379086 1.817016 -27.450966 1.679463 0.000000 0.000000
  8 0.656837 0.963581 -28.409256 -0.411992 -0.000000 -0.000000
  9 0.796036 -3.660137 -6.334393 0.000000 -0.000000 -0.000000
 10 -8.723413 -0.130357 -8.508430 -0.328486 -0.000001 0.000000
 11 0.166784 1.546984 -27.766464 0.327045 -0.000001 0.000001
 12 0.000000 1.298432 -26.865520 -0.179769 -0.000000 0.000001
 13 -1.085476 -3.886560 -4.951151 -0.000000 -0.000000 -0.000000
 14 0.000000 1.168601 2.657310 0.011094 -0.072012 0.232475
 15 -8.952672 1.659286 23.016090 0.270734 -0.195146 -0.314310
 16 -8.917643 1.465649 -13.511047 -0.108608 0.563979 0.382222
 17 -9.746246 -1.363941 -17.331123 -0.464755 -0.137621 -0.687614
 18 -2.172913 1.378548 -5.909374 -0.293982 1.155034 2.767502
 19 1.319069 131.255157 -0.872135 -0.000000 0.000000 0.000000
 20 78.615524 59.860313 -5.845821 -0.000000 0.000000 0.000000
 21 78.615524 59.860313 -5.845821 -0.000000 0.000000 0.000000
 22 -2.238062 -0.245422 -4.561348 0.000000 0.000000 -0.000000
 23 10.121213 1.597649 23.110748 -0.318227 -0.112159 0.695315
 24 8.000326 1.553295 -13.671043 -0.577395 0.594415 -0.553603
 25 9.929047 -2.392456 -17.925091 -0.288956 0.090858 0.172899
 26 2.425125 0.202911 -5.309904 0.000000 0.000000 0.000000
 27 0.245591 0.395412 37.939987 0.160995 0.066363 -0.219818
 28 -1.052362 10.162565 41.865166 0.204721 0.000000 0.000000
 29 -0.811214 20.076809 -10.520203 0.139952 0.000000 0.000000
 30 -0.733676 -0.875803 4.162605 -0.000000 0.000000 0.000000
 31 0.384276 6.874340 15.755920 -0.021620 -0.014066 -0.064751
 32 0.298680 -0.707973 8.639854 0.000000 0.000000 0.000000
time 4
  0 -2.437624 -1.142060 2.887016 0.000000 -0.000000 0.000000
  1 -2.437624 -1.142060 2.887016 0.000000 -0.000000 0.000000
  2 -2.437624 -1.142060 2.887016 0.000000 -0.000000 0.000000
  3 -4.744596 2.314000 171.985855 0.000000 -0.000000 0.000000
  4 -2.437624 -21.335337 82.231255 0.069813 0.000000 0.000000
  5 0.000000 1.168599 -4.970116 0.070005 0.000000 0.000000
  6 9.220941 -0.130360 -8.947067 -0.205160 -0.000000 -0.000000
  7 -0.379086 1.813139 -27.518608 1.870740 0.000000 0.000000
  8 0.656837 0.964272 -28.391720 -0.497228 -0.000000 -0.000000
  9 0.796035 -3.659237 -6.335793 -0.000000 0.000000 -0.000000
 10 -8.723413 -0.130357 -8.508438 -0.220841 -0.000001 0.000000
 11 0.166782 1.553061 -27.643185 0.351412 -0.000001 0.000001
 12 0.000000 1.296913 -26.902037 -0.198580 -0.000000 0.000001
 13 -1.085476 -3.894066 -4.940135 -0.000000 -0.000000 -0.000000
 14 0.000000 1.168600 2.657310 0.018827 -0.064674 0.277554
 15 -8.953320 1.659390 23.012505 0.270737 -0.195153 -0.314311
 16 -8.921486 1.465391 -13.507156 -0.077190 0.540415 0.394623
 17 -9.750801 -1.363800 -17.323914 -0.464829 -0.137630 -0.687609
 18 -2.204397 0.842907 -5.860512 -0.294006 1.155009 2.767482
 19 1.317375 131.533829 -0.871342 -0.000000 0.000000 -0.000000
 20 78.514793 59.987408 -5.840485 -0.000000 0.000000 -0.000000
 21 78.514793 59.987408 -5.840485 -0.000000 0.000000 -0.000000
 22 -2.237913 -0.246052 -4.549389 0.000000 -0.000000 0.000000
 23 10.121944 1.597751 23.107140 -0.318244 -0.112162 0.695317
 24 8.000636 1.554298 -13.660622 -0.577405 0.594418 -0.553605
 25 9.925370 -2.394463 -17.917271 -0.288948 0.090855 0.172891
 26 2.423777 0.203125 -5.308075 0.000000 0.000000 0.000000
 27 0.245607 0.395437 37.934082 0.154844 0.066064 -0.267825
 28 -1.052356 10.162144 41.867500 0.204719 0.000000 0.000000
 29 -0.811210 20.075977 -10.520782 0.139950 0.000000 0.000000
 30 -0.733672 -0.875763 4.162834 0.000000 -0.000000 -0.000000
 31 0.384305 6.874767 15.753471 -0.021621 -0.014066 -0.064751
 32 0.298703 -0.708015 8.638504 -0.000000 -0.000000 0.000000
time 5
  0 -2.437624 -1.142060 2.887016 0.000000 -0.000000 0.000000
  1 -2.437624 -1.142060 2.887016 0.000000 -0.000000 0.000000
  2 -2.437624 -1.142060 2.887016 0.000000 -0.000000 0.000000
  3 -4.744596 2.314000 171.985855 0.000000 -0.000000 0.000000
  4 -2.437624 -21.335337 81.784386 0.069813 0.000000 0.000000
  5 0.000000 1.168600 -4.970108 0.070005 0.000000 0.000000
  6 9.220941 -0.130359 -8.947067 -0.283905 -0.000001 -0.000000
  7 -0.379086 1.808474 -27.599575 1.901953 0.000000 0.000000
  8 0.656837 0.963753 -28.404926 -0.511861 -0.000000 -0.000000
  9 0.796035 -3.672821 -6.314516 0.000000 -0.000000 0.000000
 10 -8.723413 -0.130357 -8.508430 -0.136204 -0.000001 -0.000000
 11 0.166784 1.556246 -27.578121 0.356421 -0.000001 0.000001
 12 0.000000 1.294147 -26.968193 -0.200012 -0.000000 0.000001
 13 -1.085475 -3.895194 -4.938476 -0.000000 0.000000 -0.000000
 14 0.000000 1.168600 2.657310 0.026909 -0.057003 0.324668
 15 -8.953854 1.659483 23.009460 0.270739 -0.195158 -0.314311
 16 -8.925325 1.465109 -13.503525 -0.044508 0.515895 0.407521
 17 -9.755260 -1.363383 -17.320938 -0.464902 -0.137637 -0.687605
 18 -2.237255 0.280132 -5.810196 -0.294035 1.154983 2.767455
 19 1.315842 131.809891 -0.870476 -0.000000 -0.000000 -0.000000
 20 78.422943 60.113327 -5.834621 -0.000000 -0.000000 -0.000000
 21 78.422943 60.113327 -5.834621 -0.000000 -0.000000 -0.000000
 22 -2.237713 -0.246685 -4.537342 0.000000 0.000000 0.000000
 23 10.122548 1.597839 23.104088 -0.318262 -0.112166 0.695319
 24 8.000933 1.555328 -13.649979 -0.577418 0.594421 -0.553609
 25 9.921419 -2.396591 -17.909039 -0.288941 0.090853 0.172884
 26 2.422356 0.203331 -5.306097 0.000000 0.000000 0.000000
 27 0.245622 0.395457 37.929047 0.148415 0.065752 -0.317999
 28 -1.052331 10.161865 41.869957 0.204717 0.000000 0.000000
 29 -0.811191 20.075420 -10.521400 0.139949 0.000000 -0.000000
 30 -0.733654 -0.875740 4.163078 0.000000 0.000000 -0.000000
 31 0.384327 6.875147 15.751389 -0.021621 -0.014067 -0.064751
 32 0.298719 -0.708054 8.637360 -0.000000 -0.000000 0.000000
time 6
  0 -2.437624 -1.142060 2.887016 0.000000 -0.000000 0.000000
  1 -2.437624 -1.142060 2.887016 0.000000 -0.000000 0.000000
  2 -2.437624 -1.142060 2.887016 0.000000 -0.000000 0.000000
  3 -4.744596 2.314000 171.985855 0.000000 -0.000000 0.000000
  4 -2.437624 -21.335337 81.301689 0.069813 0.000000 0.000000
  5 0.000000 1.168600 -4.970123 0.070005 0.000000 0.000000
  6 9.220941 -0.130359 -8.947067 -0.360438 -0.000001 -0.000000
  7 -0.379086 1.802658 -27.699978 1.783181 0.000000 0.000001
  8 0.656837 0.965260 -28.366539 -0.469091 -0.000000 -0.000000
  9 0.796035 -3.711037 -6.253824 -0.000000 -0.000000 -0.000000
 10 -8.723413 -0.130359 -8.508430 -0.052518 -0.000001 -0.000000
 11 0.166783 1.557936 -27.543537 0.354846 -0.000001 0.000001
 12 0.000000 1.290454 -27.055965 -0.167279 -0.000000 0.000000
 13 -1.085476 -3.890419 -4.945492 0.000000 0.000000 -0.000000
 14 0.000000 1.168601 2.657310 0.035070 -0.049257 0.372248
 15 -8.954241 1.659555 23.007095 0.270741 -0.195164 -0.314311
 16 -8.929005 1.464815 -13.500290 -0.011700 0.491271 0.420467
 17 -9.759445 -1.362679 -17.322746 -0.464969 -0.137640 -0.687602
 18 -2.270374 -0.291115 -5.760273 -0.294068 1.154961 2.767424
 19 1.314529 132.070633 -0.869541 -0.000000 -0.000000 -0.000000
 20 78.345177 60.232239 -5.828423 -0.000000 -0.000000 -0.000000
 21 78.345177 60.232239 -5.828423 -0.000000 -0.000000 -0.000000
 22 -2.237450 -0.247299 -4.525734 -0.000000 -0.000000 0.000000
 23 10.122988 1.597909 23.101707 -0.318279 -0.112169 0.695321
 24 8.001213 1.556347 -13.639503 -0.577432 0.594423 -0.553613
 25 9.917318 -2.398781 -17.900673 -0.288933 0.090850 0.172876
 26 2.420918 0.203537 -5.304052 -0.000000 0.000000 -0.000000
 27 0.245634 0.395474 37.925148 0.141923 0.065436 -0.368668
 28 -1.052287 10.161768 41.872505 0.204716 0.000000 0.000000
 29 -0.811156 20.075232 -10.522041 0.139948 0.000000 0.000000
 30 -0.733624 -0.875734 4.163330 0.000000 -0.000000 0.000000
 31 0.384344 6.875452 15.749771 -0.021621 -0.014067 -0.064751
 32 0.298733 -0.708087 8.636475 0.000000 0.000000 0.000000
time 7
  0 -2.437624 -1.142060 2.887016 0.000000 -0.000000 0.000000
  1 -2.437624 -1.142060 2.887016 0.000000 -0.000000 0.000000
  2 -2.437624 -1.142060 2.887016 0.000000 -0.000000 0.000000
  3 -4.744596 2.314000 171.985855 0.000000 -0.000000 0.000000
  4 -2.437624 -21.335337 80.806328 0.069813 0.000000 0.000000
  5 0.000000 1.168600 -4.970123 0.070005 0.000000 0.000000
  6 9.220941 -0.130359 -8.947067 -0.439333 -0.000001 -0.000000
  7 -0.379085 1.795460 -27.823210 1.556573 0.000000 0.000001
  8 0.656837 0.978329 -28.029434 -0.387686 -0.000000 -0.000000
  9 0.796035 -3.773151 -6.152546 0.000000 0.000000 0.000000
 10 -8.723413 -0.130357 -8.508430 0.034739 -0.000001 -0.000000
 11 0.166783 1.558103 -27.540119 0.351837 -0.000001 0.000001
 12 -0.000001 1.285611 -27.170300 -0.104839 -0.000000 0.000000
 13 -1.085475 -3.874439 -4.968850 -0.000000 -0.000000 -0.000000
 14 0.000000 1.168600 2.657310 0.043043 -0.041691 0.418725
 15 -8.954483 1.659612 23.005516 0.270741 -0.195168 -0.314312
 16 -8.932415 1.464508 -13.497604 0.020092 0.467400 0.433010
 17 -9.763187 -1.361712 -17.329254 -0.465027 -0.137641 -0.687599
 18 -2.302673 -0.851761 -5.712532 -0.294104 1.154942 2.767390
 19 1.313511 132.305542 -0.868610 -0.000000 0.000000 0.000000
 20 78.284760 60.339355 -5.822155 -0.000000 0.000000 0.000000
 21 78.284760 60.339355 -5.822155 -0.000000 0.000000 0.000000
 22 -2.237160 -0.247864 -4.515057 0.000000 0.000000 -0.000000
 23 10.123260 1.597961 23.100121 -0.318294 -0.112172 0.695323
 24 8.001473 1.557308 -13.629562 -0.577447 0.594424 -0.553618
 25 9.913223 -2.400940 -17.892464 -0.288927 0.090848 0.172869
 26 2.419510 0.203743 -5.302000 -0.000000 -0.000000 0.000000
 27 0.245639 0.395491 37.922539 0.135580 0.065128 -0.418163
 28 -1.052218 10.161869 41.875153 0.204716 0.000000 0.000000
 29 -0.811104 20.075434 -10.522697 0.139948 0.000000 -0.000000
 30 -0.733576 -0.875742 4.163589 -0.000000 0.000000 0.000000
 31 0.384355 6.875676 15.748688 -0.021621 -0.014067 -0.064751
 32 0.298741 -0.708110 8.635887 -0.000000 -0.000000 -0.000000
time 8
  0 -2.437624 -1.142060 2.887016 0.000000 -0.000000 0.000000
  1 -2.437624 -1.142060 2.887016 0.000000 -0.000000 0.000000
  2 -2.437624 -1.142060 2.887016 0.000000 -0.000000 0.000000
  3 -4.744596 2.314000 171.985855 0.000000 -0.000000 0.000000
  4 -2.437624 -21.335337 80.321457 0.069813 0.000000 0.000000
  5 0.000000 1.168600 -4.970116 0.070005 0.000000 0.000000
  6 9.220941 -0.130359 -8.947067 -0.516792 -0.000001 -0.000000
  7 -0.379086 1.787361 -27.960567 1.260194 0.000000 0.000001
  8 0.656837 1.004725 -27.321411 -0.281654 -0.000000 -0.000000
  9 0.796035 -3.841156 -6.037739 0.000000 0.000000 0.000000
 10 -8.723413 -0.130359 -8.508430 0.121112 -0.000001 -0.000000
 11 0.166783 1.556662 -27.569645 0.347892 -0.000001 0.000001
 12 -0.000001 1.279961 -27.302652 -0.023099 -0.000000 0.000000
 13 -1.085475 -3.844883 -5.011512 0.000000 -0.000000 -0.000000
 14 0.000000 1.168600 2.657310 0.050557 -0.034559 0.462531
 15 -8.954582 1.659645 23.004677 0.270741 -0.195172 -0.314312
 16 -8.935455 1.464216 -13.495491 0.049731 0.445136 0.444701
 17 -9.766396 -1.360550 -17.339653 -0.465071 -0.137638 -0.687599
 18 -2.333069 -1.382347 -5.668579 -0.294139 1.154929 2.767357
 19 1.312813 132.507095 -0.867714 -0.000000 -0.000000 0.000000
 20 78.242645 60.431286 -5.816086 -0.000000 -0.000000 0.000000
 21 78.242645 60.431286 -5.816086 -0.000000 -0.000000 0.000000
 22 -2.236839 -0.248367 -4.505714 -0.000000 0.000000 -0.000000
 23 10.123373 1.597993 23.099281 -0.318309 -0.112174 0.695324
 24 8.001701 1.558189 -13.620453 -0.577461 0.594425 -0.553624
 25 9.909286 -2.403000 -17.884693 -0.288920 0.090846 0.172863
 26 2.418179 0.203949 -5.300026 0.000000 0.000000 -0.000000
 27 0.245642 0.395499 37.921165 0.129602 0.064837 -0.464813
 28 -1.052132 10.162144 41.877869 0.204716 0.000000 0.000000
 29 -0.811036 20.075972 -10.523384 0.139948 0.000000 0.000000
 30 -0.733515 -0.875761 4.163872 0.000000 -0.000000 0.000000
 31 0.384359 6.875816 15.748116 -0.021622 -0.014067 -0.064751
 32 0.298744 -0.708122 8.635567 -0.000000 0.000000 -0.000000
time 9
  0 -2.437624 -1.142060 2.887016 0.000000 -0.000000 0.000000
  1 -2.437624 -1.142060 2.887016 0.000000 -0.000000 0.000000
  2 -2.437624 -1.142060 2.887016 0.000000 -0.000000 0.000000
  3 -4.744596 2.314000 171.985855 0.000000 -0.000000 0.000000
  4 -2.437624 -21.335337 79.870239 0.069813 0.000000 0.000000
  5 0.000000 1.168600 -4.970123 0.070005 0.000000 0.000000
  6 9.220941 -0.130356 -8.947075 -0.589036 -0.000001 -0.000000
  7 -0.379086 1.779060 -28.100208 0.931343 0.000000 0.000001
  8 0.656837 1.030157 -26.603041 -0.164069 -0.000000 -0.000000
  9 0.796035 -3.886762 -5.958326 -0.000000 -0.000000 -0.000000
 10 -8.723413 -0.130356 -8.508438 0.202147 -0.000001 -0.000000
 11 0.166783 1.553888 -27.626301 0.343518 -0.000001 0.000001
 12 0.000000 1.274012 -27.440599 0.067565 -0.000000 -0.000000
 13 -1.085475 -3.804976 -5.068031 -0.000000 0.000000 -0.000000
 14 0.000000 1.168600 2.657310 0.057344 -0.028117 0.502097
 15 -8.954571 1.659657 23.004471 0.270741 -0.195175 -0.314311
 16 -8.938057 1.463940 -13.493912 0.076077 0.425337 0.455092
 17 -9.769009 -1.359304 -17.352516 -0.465103 -0.137632 -0.687599
 18 -2.360470 -1.863182 -5.629879 -0.294171 1.154920 2.767325
 19 1.312389 132.670700 -0.866875 0.000000 -0.000000 0.000000
 20 78.217590 60.505898 -5.810520 0.000000 -0.000000 0.000000
 21 78.217590 60.505898 -5.810520 0.000000 -0.000000 0.000000
 22 -2.236507 -0.248795 -4.497971 0.000000 0.000000 -0.000000
 23 10.123360 1.598009 23.099083 -0.318321 -0.112176 0.695325
 24 8.001892 1.558968 -13.612480 -0.577475 0.594425 -0.553629
 25 9.905668 -2.404892 -17.877651 -0.288915 0.090844 0.172857
 26 2.416977 0.204132 -5.298199 -0.000000 0.000000 -0.000000
 27 0.245643 0.395502 37.920830 0.124203 0.064575 -0.506948
 28 -1.052032 10.162537 41.880577 0.204717 0.000000 0.000000
 29 -0.810960 20.076750 -10.524063 0.139948 0.000000 -0.000000
 30 -0.733445 -0.875799 4.164131 0.000000 0.000000 0.000000
 31 0.384358 6.875877 15.747978 -0.021622 -0.014067 -0.064751
 32 0.298744 -0.708130 8.635498 -0.000000 0.000000 -0.000000
time 10
  0 -2.437624 -1.142060 2.887016 0.000000 -0.000000 0.000000
  1 -2.437624 -1.142060 2.887016 0.000000 -0.000000 0.000000
  2 -2.437624 -1.142060 2.887016 0.000000 -0.000000 0.000000
  3 -4.744596 2.314000 171.985855 0.000000 -0.000000 0.000000
  4 -2.437624 -21.335337 79.475845 0.069813 0.000000 0.000000
  5 0.000000 1.168600 -4.970123 0.070005 0.000000 0.000000
  6 9.220942 -0.130357 -8.947067 -0.652295 -0.000001 -0.000000
  7 -0.379086 1.771313 -28.229164 0.606761 0.000000 0.000001
  8 0.656837 1.038158 -26.369097 -0.047677 -0.000000 -0.000000
  9 0.796035 -3.892967 -5.947361 0.000000 0.000000 0.000000
 10 -8.723413 -0.130356 -8.508430 0.273413 -0.000001 -0.000000
 11 0.166783 1.550363 -27.698013 0.339220 -0.000001 0.000001
 12 0.000000 1.268373 -27.570110 0.156862 -0.000000 -0.000000
 13 -1.085476 -3.762447 -5.126945 0.000000 -0.000000 0.000000
 14 0.000000 1.168600 2.657303 0.063134 -0.022621 0.535855
 15 -8.954483 1.659657 23.004730 0.270740 -0.195177 -0.314311
 16 -8.940163 1.463696 -13.492844 0.097994 0.408860 0.463735
 17 -9.770981 -1.358110 -17.365921 -0.465123 -0.137625 -0.687600
 18 -2.383808 -2.274445 -5.597687 -0.294198 1.154916 2.767299
 19 1.312206 132.794907 -0.866158 0.000000 -0.000000 0.000000
 20 78.206421 60.562546 -5.805737 0.000000 -0.000000 0.000000
 21 78.206421 60.562546 -5.805737 0.000000 -0.000000 0.000000
 22 -2.236202 -0.249115 -4.491974 0.000000 -0.000000 -0.000000
 23 10.123260 1.598008 23.099335 -0.318330 -0.112178 0.695327
 24 8.002045 1.559608 -13.605843 -0.577488 0.594425 -0.553634
 25 9.902543 -2.406494 -17.871647 -0.288911 0.090843 0.172853
 26 2.415955 0.204285 -5.296614 -0.000000 0.000000 0.000000
 27 0.245640 0.395499 37.921242 0.119596 0.064350 -0.542896
 28 -1.051932 10.162979 41.883102 0.204717 0.000000 0.000000
 29 -0.810883 20.077621 -10.524704 0.139949 0.000000 -0.000000
 30 -0.733376 -0.875834 4.164383 -0.000000 -0.000000 -0.000000
 31 0.384355 6.875880 15.748154 -0.021622 -0.014067 -0.064751
 32 0.298740 -0.708131 8.635590 0.000000 -0.000000 0.000000
time 11
  0 -2.437624 -1.142060 2.887016 0.000000 -0.000000 0.000000
  1 -2.437624 -1.142060 2.887016 0.000000 -0.000000 0.000000
  2 -2.437624 -1.142060 2.887016 0.000000 -0.000000 0.000000
  3 -4.744596 2.314000 171.985855 0.000000 -0.000000 0.000000
  4 -2.437624 -21.335337 79.161423 0.069813 0.000000 0.000000
  5 0.000000 1.168600 -4.970123 0.070005 0.000000 0.000000
  6 9.220941 -0.130356 -8.947075 -0.702805 -0.000001 -0.000000
  7 -0.379085 1.764893 -28.335094 0.324140 0.000000 0.000001
  8 0.656837 1.028416 -26.653191 0.053644 -0.000000 -0.000000
  9 0.796035 -3.867657 -5.991837 -0.000000 0.000000 0.000000
 10 -8.723413 -0.130356 -8.508438 0.330499 -0.000001 -0.000000
 11 0.166782 1.546848 -27.769176 0.335495 -0.000001 0.000001
 12 0.000000 1.263651 -27.677624 0.234545 -0.000000 -0.000001
 13 -1.085475 -3.725861 -5.176563 -0.000000 -0.000000 0.000000
 14 0.000000 1.168600 2.657303 0.067659 -0.018326 0.562235
 15 -8.954365 1.659654 23.005188 0.270739 -0.195179 -0.314311
 16 -8.941732 1.463493 -13.492188 0.114347 0.396563 0.470183
 17 -9.772318 -1.357107 -17.377678 -0.465134 -0.137618 -0.687601
 18 -2.402031 -2.596348 -5.573227 -0.294218 1.154914 2.767279
 19 1.312183 132.880280 -0.865608 -0.000000 -0.000000 0.000000
 20 78.204933 60.601482 -5.802044 -0.000000 -0.000000 0.000000
 21 78.204933 60.601482 -5.802044 -0.000000 -0.000000 0.000000
 22 -2.235943 -0.249359 -4.487808 -0.000000 -0.000000 0.000000
 23 10.123130 1.598003 23.099792 -0.318338 -0.112179 0.695327
 24 8.002160 1.560101 -13.600800 -0.577498 0.594425 -0.553639
 25 9.900068 -2.407753 -17.866936 -0.288908 0.090842 0.172849
 26 2.415159 0.204407 -5.295355 -0.000000 0.000000 -0.000000
 27 0.245637 0.395500 37.922005 0.115995 0.064175 -0.570989
 28 -1.051842 10.163385 41.885262 0.204719 0.000000 0.000000
 29 -0.810813 20.078424 -10.525246 0.139949 0.000000 0.000000
 30 -0.733313 -0.875870 4.164604 -0.000000 -0.000000 0.000000
 31 0.384350 6.875853 15.748459 -0.021622 -0.014067 -0.064751
 32 0.298738 -0.708127 8.635757 -0.000000 0.000000 -0.000000
time 12
  0 -2.437624 -1.142060 2.887016 0.000000 -0.000000 0.000000
  1 -2.437624 -1.142060 2.887016 0.000000 -0.000000 0.000000
  2 -2.437624 -1.142060 2.887016 0.000000 -0.000000 0.000000
  3 -4.744596 2.314000 171.985855 0.000000 -0.000000 0.000000
  4 -2.437624 -21.335337 78.950142 0.069813 0.000000 0.000000
  5 0.000000 1.168599 -4.970131 0.070005 0.000000 0.000000
  6 9.220941 -0.130356 -8.947067 -0.736793 -0.000001 -0.000000
  7 -0.379086 1.760498 -28.407246 0.121286 0.000000 0.000001
  8 0.656837 1.014015 -27.063210 0.126221 -0.000000 -0.000000
  9 0.796035 -3.835155 -6.048037 -0.000000 -0.000000 0.000000
 10 -8.723413 -0.130356 -8.508430 0.369008 -0.000001 -0.000000
 11 0.166783 1.544153 -27.823544 0.332830 -0.000001 0.000001
 12 0.000000 1.260397 -27.751316 0.290335 -0.000000 -0.000001
 13 -1.085475 -3.701223 -5.209441 0.000000 0.000000 0.000000
 14 0.000000 1.168599 2.657303 0.070650 -0.015488 0.579670
 15 -8.954267 1.659645 23.005630 0.270738 -0.195180 -0.314311
 16 -8.942732 1.463367 -13.491829 0.124000 0.389302 0.473989
 17 -9.773027 -1.356461 -17.385666 -0.465138 -0.137613 -0.687602
 18 -2.414055 -2.809185 -5.557594 -0.294231 1.154915 2.767267
 19 1.312237 132.927917 -0.865246 0.000000 -0.000000 0.000000
 20 78.208748 60.623215 -5.799644 0.000000 -0.000000 0.000000
 21 78.208748 60.623215 -5.799644 0.000000 -0.000000 0.000000
 22 -2.235764 -0.249493 -4.485470 0.000000 -0.000000 0.000000
 23 10.123014 1.597994 23.100235 -0.318343 -0.112180 0.695328
 24 8.002232 1.560421 -13.597519 -0.577505 0.594424 -0.553641
 25 9.898432 -2.408592 -17.863834 -0.288907 0.090841 0.172847
 26 2.414633 0.204491 -5.294518 0.000000 0.000000 0.000000
 27 0.245633 0.395499 37.922737 0.113616 0.064059 -0.589555
 28 -1.051778 10.163683 41.886765 0.204719 0.000000 0.000000
 29 -0.810765 20.079014 -10.525627 0.139950 0.000000 0.000000
 30 -0.733270 -0.875893 4.164749 -0.000000 0.000000 0.000000
 31 0.384345 6.875816 15.748772 -0.021622 -0.014067 -0.064751
 32 0.298734 -0.708124 8.635933 0.000000 0.000000 0.000000
time 13
  0 -2.437624 -1.142060 2.887016 0.000000 -0.000000 0.000000
  1 -2.437624 -1.142060 2.887016 0.000000 -0.000000 0.000000
  2 -2.437624 -1.142060 2.887016 0.000000 -0.000000 0.000000
  3 -4.744596 2.314000 171.985855 0.000000 -0.000000 0.000000
  4 -2.437624 -21.335337 78.865158 0.069813 0.000000 0.000000
  5 0.000000 1.168600 -4.970116 0.070005 0.000000 0.000000
  6 9.220941 -0.130356 -8.947075 -0.750480 -0.000001 -0.000000
  7 -0.379085 1.758717 -28.436405 0.035593 0.000000 0.000001
  8 0.656837 1.006889 -27.261909 0.156862 -0.000000 -0.000000
  9 0.796035 -3.818794 -6.075954 0.000000 -0.000000 0.000000
 10 -8.723413 -0.130356 -8.508438 0.384547 -0.000000 -0.000000
 11 0.166783 1.542994 -27.846828 0.331706 -0.000001 0.000001
 12 0.000001 1.259069 -27.781183 0.313916 -0.000000 -0.000001
 13 -1.085475 -3.691479 -5.222334 0.000000 -0.000000 0.000000
 14 0.000000 1.168600 2.657303 0.071837 -0.014361 0.586590
 15 -8.954224 1.659636 23.005814 0.270738 -0.195180 -0.314311
 16 -8.943126 1.463312 -13.491699 0.125859 0.387903 0.474722
 17 -9.773071 -1.356285 -17.388092 -0.465138 -0.137612 -0.687603
 18 -2.418819 -2.893440 -5.552040 -0.294234 1.154917 2.767264
 19 1.312332 132.937592 -0.865128 0.000000 -0.000000 -0.000000
 20 78.214539 60.627605 -5.798817 0.000000 -0.000000 -0.000000
 21 78.214539 60.627605 -5.798817 0.000000 -0.000000 -0.000000
 22 -2.235683 -0.249519 -4.485065 0.000000 -0.000000 0.000000
 23 10.122964 1.597988 23.100426 -0.318344 -0.112180 0.695328
 24 8.002258 1.560543 -13.596230 -0.577507 0.594424 -0.553643
 25 9.897778 -2.408928 -17.862602 -0.288906 0.090841 0.172846
 26 2.414427 0.204529 -5.294186 -0.000000 0.000000 -0.000000
 27 0.245632 0.395497 37.923042 0.112672 0.064013 -0.596924
 28 -1.051751 10.163801 41.887383 0.204719 0.000000 0.000000
 29 -0.810743 20.079250 -10.525787 0.139950 0.000000 0.000000
 30 -0.733251 -0.875906 4.164810 -0.000000 0.000000 -0.000000
 31 0.384341 6.875795 15.748894 -0.021622 -0.014067 -0.064751
 32 0.298731 -0.708121 8.635994 -0.000000 0.000000 -0.000000
time 14
  0 -2.437624 -1.142060 2.887016 0.000000 -0.000000 0.000000
  1 -2.437624 -1.142060 2.887016 0.000000 -0.000000 0.000000
  2 -2.437624 -1.142060 2.887016 0.000000 -0.000000 0.000000
  3 -4.744596 2.314000 171.985855 0.000000 -0.000000 0.000000
  4 -2.437624 -21.335337 78.900513 0.069813 0.000000 0.000000
  5 0.000000 1.168600 -4.970123 0.070005 0.000000 0.000000
  6 9.220941 -0.130357 -8.947067 -0.735574 -0.000001 0.000000
  7 -0.379086 1.760658 -28.404648 0.048584 0.000000 0.000001
  8 0.656837 1.008926 -27.205296 0.131786 -0.000000 -0.000000
  9 0.796035 -3.819504 -6.074756 -0.000000 -0.000000 0.000000
 10 -8.723413 -0.130357 -8.508430 0.360780 -0.000000 -0.000000
 11 0.166783 1.544750 -27.811512 0.403806 -0.000001 0.000001
 12 0.000001 1.254593 -27.881817 0.310917 0.000000 -0.000001
 13 -1.085475 -3.680325 -5.236998 -0.000000 -0.000000 0.000000
 14 0.000000 1.168600 2.657295 0.071024 -0.015132 0.581853
 15 -8.954254 1.659643 23.005684 0.270738 -0.195180 -0.314311
 16 -8.942863 1.463348 -13.491791 0.120105 0.392230 0.472453
 17 -9.772512 -1.356613 -17.384537 -0.465135 -0.137614 -0.687602
 18 -2.415550 -2.835155 -5.557236 -0.294228 1.154918 2.767270
 19 1.312424 132.911057 -0.865250 0.000000 -0.000000 0.000000
 20 78.219574 60.615520 -5.799656 0.000000 -0.000000 0.000000
 21 78.219574 60.615520 -5.799656 0.000000 -0.000000 0.000000
 22 -2.235729 -0.249447 -4.486469 -0.000000 0.000000 0.000000
 23 10.123003 1.597993 23.100288 -0.318343 -0.112180 0.695328
 24 8.002241 1.560459 -13.597115 -0.577506 0.594424 -0.553642
 25 9.898228 -2.408699 -17.863434 -0.288906 0.090841 0.172847
 26 2.414570 0.204506 -5.294416 0.000000 -0.000000 0.000000
 27 0.245634 0.395497 37.922829 0.113318 0.064044 -0.591880
 28 -1.051771 10.163719 41.886963 0.204719 0.000000 0.000000
 29 -0.810759 20.079086 -10.525673 0.139950 0.000000 0.000000
 30 -0.733264 -0.875902 4.164764 0.000000 -0.000000 0.000000
 31 0.384344 6.875813 15.748802 -0.021622 -0.014067 -0.064751
 32 0.298733 -0.708123 8.635941 0.000000 -0.000000 0.000000
time 15
  0 -2.437624 -1.142060 2.887016 0.000000 -0.000000 0.000000
  1 -2.437624 -1.142060 2.887016 0.000000 -0.000000 0.000000
  2 -2.437624 -1.142060 2.887016 0.000000 -0.000000 0.000000
  3 -4.744596 2.314000 171.985855 0.000000 -0.000000 0.000000
  4 -2.437624 -21.335337 79.017326 0.069813 0.000000 0.000000
  5 0.000000 1.168600 -4.970131 0.070005 0.000000 0.000000
  6 9.220941 -0.130357 -8.947067 -0.688870 -0.000001 0.000000
  7 -0.379086 1.766678 -28.305676 0.089669 0.000000 0.000001
  8 0.656837 1.015152 -27.031342 0.056396 -0.000000 -0.000000
  9 0.796035 -3.822567 -6.069533 0.000000 -0.000000 0.000000
 10 -8.723413 -0.130357 -8.508430 0.287263 -0.000001 -0.000000
 11 0.166782 1.549564 -27.714211 0.620174 -0.000001 0.000000
 12 -0.000001 1.241283 -28.176384 0.300889 0.000000 -0.000001
 13 -1.085476 -3.651489 -5.274536 0.000000 0.000000 -0.000000
 14 0.000000 1.168600 2.657295 0.068372 -0.017650 0.566388
 15 -8.954346 1.659649 23.005287 0.270739 -0.195179 -0.314311
 16 -8.941973 1.463470 -13.492081 0.107799 0.401485 0.467601
 17 -9.771399 -1.357342 -17.376137 -0.465127 -0.137619 -0.687601
 18 -2.404877 -2.645855 -5.572315 -0.294214 1.154921 2.767283
 19 1.312515 132.850388 -0.865608 -0.000000 -0.000000 0.000000
 20 78.224716 60.587856 -5.802021 -0.000000 -0.000000 0.000000
 21 78.224716 60.587856 -5.802021 -0.000000 -0.000000 0.000000
 22 -2.235889 -0.249279 -4.489517 0.000000 0.000000 0.000000
 23 10.123106 1.598001 23.099892 -0.318339 -0.112179 0.695327
 24 8.002179 1.560173 -13.600021 -0.577499 0.594425 -0.553639
 25 9.899690 -2.407959 -17.866207 -0.288908 0.090842 0.172849
 26 2.415031 0.204430 -5.295158 0.000000 -0.000000 -0.000000
 27 0.245636 0.395500 37.922165 0.115429 0.064147 -0.575412
 28 -1.051827 10.163452 41.885605 0.204719 0.000000 0.000000
 29 -0.810802 20.078560 -10.525330 0.139949 0.000000 -0.000000
 30 -0.733304 -0.875875 4.164635 0.000000 0.000000 -0.000000
 31 0.384348 6.875843 15.748528 -0.021622 -0.014067 -0.064751
 32 0.298737 -0.708128 8.635796 0.000000 0.000000 0.000000
time 16
  0 -2.437624 -1.142060 2.887016 0.000000 -0.000000 0.000000
  1 -2.437624 -1.142060 2.887016 0.000000 -0.000000 0.000000
  2 -2.437624 -1.142060 2.887016 0.000000 -0.000000 0.000000
  3 -4.744596 2.314000 171.985855 0.000000 -0.000000 0.000000
  4 -2.437624 -21.335337 79.204582 0.069813 0.000000 0.000000
  5 0.000000 1.168600 -4.970123 0.070005 0.000000 0.000000
  6 9.220941 -0.130357 -8.947075 -0.618067 -0.000001 0.000000
  7 -0.379086 1.775547 -28.158758 0.148822 0.000000 0.000000
  8 0.656837 1.023495 -26.794910 -0.050676 -0.000000 -0.000000
  9 0.796035 -3.828114 -6.060084 0.000000 0.000000 0.000000
 10 -8.723413 -0.130357 -8.508438 0.177509 -0.000001 -0.000000
 11 0.166783 1.554875 -27.606190 0.931419 -0.000001 0.000000
 12 0.000000 1.224091 -28.547821 0.285390 0.000000 -0.000001
 13 -1.085476 -3.623938 -5.309877 0.000000 0.000000 0.000000
 14 0.000000 1.168600 2.657303 0.064145 -0.021662 0.541745
 15 -8.954461 1.659659 23.004799 0.270740 -0.195178 -0.314311
 16 -8.940514 1.463652 -13.492691 0.089913 0.414934 0.460548
 17 -9.769722 -1.358370 -17.364693 -0.465113 -0.137625 -0.687600
 18 -2.387856 -2.344826 -5.596149 -0.294193 1.154924 2.767304
 19 1.312656 132.754883 -0.866154 -0.000000 -0.000000 0.000000
 20 78.233658 60.544296 -5.805676 -0.000000 -0.000000 0.000000
 21 78.233658 60.544296 -5.805676 -0.000000 -0.000000 0.000000
 22 -2.236126 -0.249023 -4.494202 0.000000 -0.000000 -0.000000
 23 10.123235 1.598007 23.099411 -0.318332 -0.112178 0.695327
 24 8.002072 1.559723 -13.604721 -0.577490 0.594425 -0.553635
 25 9.901996 -2.406776 -17.870598 -0.288911 0.090842 0.172852
 26 2.415775 0.204315 -5.296337 -0.000000 -0.000000 0.000000
 27 0.245638 0.395501 37.921371 0.118792 0.064311 -0.549169
 28 -1.051911 10.163061 41.883560 0.204718 0.000000 0.000000
 29 -0.810867 20.077789 -10.524811 0.139949 0.000000 0.000000
 30 -0.733362 -0.875841 4.164429 0.000000 -0.000000 -0.000000
 31 0.384353 6.875875 15.748199 -0.021622 -0.014067 -0.064751
 32 0.298740 -0.708129 8.635620 0.000000 0.000000 -0.000000
time 17
  0 -2.437624 -1.142060 2.887016 0.000000 -0.000000 0.000000
  1 -2.437624 -1.142060 2.887016 0.000000 -0.000000 0.000000
  2 -2.437624 -1.142060 2.887016 0.000000 -0.000000 0.000000
  3 -4.744596 2.314000 171.985855 0.000000 -0.000000 0.000000
  4 -2.437624 -21.335337 79.451530 0.069813 0.000000 0.000000
  5 0.000000 1.168600 -4.970123 0.070005 0.000000 0.000000
  6 9.220942 -0.130357 -8.947075 -0.530911 -0.000001 0.000000
  7 -0.379086 1.785789 -27.987082 0.216553 0.000000 0.000000
  8 0.656837 1.031414 -26.566534 -0.170733 -0.000000 -0.000000
  9 0.796035 -3.836220 -6.046203 0.000000 0.000000 -0.000000
 10 -8.723413 -0.130355 -8.508438 0.045238 -0.000001 0.000000
 11 0.166782 1.558011 -27.541973 1.288029 -0.000000 -0.000000
 12 0.000000 1.210331 -28.838043 0.265620 0.000000 -0.000000
 13 -1.085475 -3.615185 -5.320993 -0.000000 -0.000000 -0.000000
 14 0.000000 1.168600 2.657303 0.058609 -0.026916 0.509474
 15 -8.954557 1.659660 23.004501 0.270740 -0.195176 -0.314311
 16 -8.938528 1.463886 -13.493668 0.067418 0.431844 0.451676
 17 -9.767498 -1.359541 -17.352112 -0.465091 -0.137632 -0.687600
 18 -2.365547 -1.951492 -5.627609 -0.294165 1.154930 2.767331
 19 1.312943 132.623703 -0.866852 0.000000 -0.000000 0.000000
 20 78.250580 60.484470 -5.810352 0.000000 -0.000000 0.000000
 21 78.250580 60.484470 -5.810352 0.000000 -0.000000 0.000000
 22 -2.236420 -0.248680 -4.500473 -0.000000 0.000000 0.000000
 23 10.123344 1.598008 23.099098 -0.318323 -0.112177 0.695325
 24 8.001932 1.559105 -13.611015 -0.577478 0.594425 -0.553630
 25 9.904994 -2.405235 -17.876358 -0.288914 0.090844 0.172856
 26 2.416756 0.204163 -5.297855 0.000000 0.000000 -0.000000
 27 0.245641 0.395501 37.920868 0.123196 0.064526 -0.514803
 28 -1.052011 10.162624 41.881088 0.204717 0.000000 0.000000
 29 -0.810944 20.076925 -10.524200 0.139948 0.000000 0.000000
 30 -0.733431 -0.875805 4.164185 -0.000000 0.000000 -0.000000
 31 0.384357 6.875881 15.747986 -0.021622 -0.014067 -0.064751
 32 0.298742 -0.708130 8.635498 0.000000 0.000000 -0.000000
time 18
  0 -2.437624 -1.142060 2.887016 0.000000 -0.000000 0.000000
  1 -2.437624 -1.142060 2.887016 0.000000 -0.000000 0.000000
  2 -2.437624 -1.142060 2.887016 0.000000 -0.000000 0.000000
  3 -4.744596 2.314000 171.985855 0.000000 -0.000000 0.000000
  4 -2.437624 -21.335337 79.747398 0.069813 0.000000 0.000000
  5 0.000000 1.168599 -4.970131 0.070005 0.000000 0.000000
  6 9.220941 -0.130357 -8.947067 -0.435145 -0.000001 0.000000
  7 -0.379086 1.795868 -27.816217 0.283319 0.000000 0.000000
  8 0.656837 1.036659 -26.413092 -0.285011 -0.000000 -0.000000
  9 0.796035 -3.846771 -6.028066 0.000000 0.000000 0.000000
 10 -8.723413 -0.130355 -8.508430 -0.095716 -0.000001 0.000000
 11 0.166783 1.557248 -27.557610 1.639894 -0.000000 -0.000001
 12 0.000000 1.205055 -28.947550 0.242830 0.000000 -0.000000
 13 -1.085474 -3.628273 -5.304348 0.000000 -0.000000 -0.000000
 14 0.000000 1.168599 2.657303 0.052031 -0.033159 0.471124
 15 -8.954590 1.659651 23.004601 0.270741 -0.195173 -0.314312
 16 -8.936037 1.464157 -13.495117 0.041284 0.451481 0.441369
 17 -9.764736 -1.360733 -17.340324 -0.465057 -0.137637 -0.687599
 18 -2.339001 -1.485386 -5.665520 -0.294134 1.154939 2.767362
 19 1.313423 132.456787 -0.867661 0.000000 0.000000 -0.000000
 20 78.279251 60.408348 -5.815826 0.000000 0.000000 -0.000000
 21 78.279251 60.408348 -5.815826 0.000000 0.000000 -0.000000
 22 -2.236748 -0.248245 -4.508286 0.000000 -0.000000 -0.000000
 23 10.123383 1.597998 23.099190 -0.318311 -0.112175 0.695324
 24 8.001745 1.558361 -13.618713 -0.577464 0.594425 -0.553625
 25 9.908506 -2.403412 -17.883167 -0.288919 0.090846 0.172862
 26 2.417915 0.203987 -5.299631 0.000000 -0.000000 0.000000
 27 0.245642 0.395498 37.921021 0.128429 0.064780 -0.473964
 28 -1.052112 10.162220 41.878433 0.204716 0.000000 0.000000
 29 -0.811022 20.076122 -10.523529 0.139948 0.000000 -0.000000
 30 -0.733501 -0.875769 4.163925 0.000000 0.000000 0.000000
 31 0.384360 6.875834 15.748055 -0.021622 -0.014067 -0.064751
 32 0.298744 -0.708126 8.635536 -0.000000 -0.000000 -0.000000
time 19
  0 -2.437624 -1.142060 2.887016 0.000000 -0.000000 0.000000
  1 -2.437624 -1.142060 2.887016 0.000000 -0.000000 0.000000
  2 -2.437624 -1.142060 2.887016 0.000000 -0.000000 0.000000
  3 -4.744596 2.314000 171.985855 0.000000 -0.000000 0.000000
  4 -2.437624 -21.335337 80.081429 0.069813 0.000000 0.000000
  5 0.000000 1.168600 -4.970131 0.070005 0.000000 0.000000
  6 9.220941 -0.130357 -8.947067 -0.338539 -0.000001 0.000000
  7 -0.379086 1.804443 -27.669209 0.339504 0.000000 0.000000
  8 0.656837 1.038309 -26.364700 -0.374684 -0.000000 -0.000000
  9 0.796035 -3.859243 -6.006476 -0.000000 0.000000 -0.000000
 10 -8.723413 -0.130355 -8.508430 -0.231465 -0.000001 0.000000
 11 0.166783 1.552559 -27.653404 1.935742 0.000000 -0.000001
 12 0.000000 1.206696 -28.913502 0.218545 0.000000 -0.000000
 13 -1.085476 -3.649288 -5.277374 0.000000 -0.000000 -0.000000
 14 0.000000 1.168600 2.657303 0.044676 -0.040140 0.428246
 15 -8.954515 1.659619 23.005280 0.270741 -0.195169 -0.314312
 16 -8.933093 1.464447 -13.497108 0.012486 0.473112 0.430009
 17 -9.761467 -1.361830 -17.330940 -0.465012 -0.137640 -0.687600
 18 -2.309265 -0.966042 -5.708607 -0.294100 1.154953 2.767394
 19 1.314148 132.256134 -0.868557 0.000000 0.000000 0.000000
 20 78.322342 60.316833 -5.821774 0.000000 0.000000 0.000000
 21 78.322342 60.316833 -5.821774 0.000000 0.000000 0.000000
 22 -2.237076 -0.247753 -4.517494 0.000000 -0.000000 -0.000000
 23 10.123297 1.597971 23.099876 -0.318298 -0.112172 0.695323
 24 8.001528 1.557507 -13.627556 -0.577450 0.594424 -0.553619
 25 9.912377 -2.401390 -17.890774 -0.288925 0.090848 0.172868
 26 2.419218 0.203796 -5.301575 0.000000 -0.000000 0.000000
 27 0.245640 0.395494 37.922157 0.134281 0.065065 -0.428303
 28 -1.052200 10.161913 41.875725 0.204716 0.000000 0.000000
 29 -0.811090 20.075523 -10.522842 0.139948 0.000000 -0.000000
 30 -0.733563 -0.875746 4.163651 -0.000000 0.000000 0.000000
 31 0.384356 6.875714 15.748528 -0.021622 -0.014067 -0.064751
 32 0.298742 -0.708112 8.635788 -0.000000 0.000000 0.000000
time 20
  0 -2.437624 -1.142060 2.887016 0.000000 -0.000000 0.000000
  1 -2.437624 -1.142060 2.887016 0.000000 -0.000000 0.000000
  2 -2.437624 -1.142060 2.887016 0.000000 -0.000000 0.000000
  3 -4.744596 2.314000 171.985855 0.000000 -0.000000 0.000000
  4 -2.437624 -21.335337 80.442856 0.069813 0.000000 0.000000
  5 0.000000 1.168600 -4.970123 0.070005 0.000000 0.000000
  6 9.220941 -0.130357 -8.947067 -0.248905 -0.000001 0.000000
  7 -0.379086 1.810722 -27.560654 0.375489 0.000000 0.000000
  8 0.656837 1.037162 -26.398405 -0.420933 -0.000000 -0.000000
  9 0.796036 -3.872583 -5.983224 -0.000000 -0.000000 -0.000000
 10 -8.723413 -0.130355 -8.508430 -0.348186 -0.000001 0.000000
 11 0.166782 1.545643 -27.793545 2.124985 0.000000 -0.000001
 12 0.000000 1.209038 -28.864964 0.194349 0.000000 -0.000000
 13 -1.085475 -3.658817 -5.265049 0.000000 -0.000000 0.000000
 14 0.000000 1.168600 2.657303 0.036810 -0.047606 0.382390
 15 -8.954309 1.659571 23.006706 0.270741 -0.195165 -0.314312
 16 -8.929773 1.464746 -13.499680 -0.018002 0.496003 0.417980
 17 -9.757782 -1.362743 -17.325165 -0.464956 -0.137639 -0.687602
 18 -2.277412 -0.412872 -5.755451 -0.294066 1.154970 2.767426
 19 1.315136 132.026306 -0.869473 -0.000000 -0.000000 0.000000
 20 78.380936 60.212029 -5.827942 -0.000000 -0.000000 0.000000
 21 78.380936 60.212029 -5.827942 -0.000000 -0.000000 0.000000
 22 -2.237373 -0.247200 -4.527817 -0.000000 -0.000000 0.000000
 23 10.123063 1.597922 23.101311 -0.318282 -0.112169 0.695321
 24 8.001277 1.556557 -13.637321 -0.577435 0.594423 -0.553614
 25 9.916437 -2.399246 -17.898888 -0.288932 0.090850 0.172875
 26 2.420607 0.203583 -5.303608 0.000000 0.000000 -0.000000
 27 0.245635 0.395480 37.924492 0.140539 0.065369 -0.379469
 28 -1.052273 10.161776 41.873062 0.204716 0.000000 0.000000
 29 -0.811146 20.075247 -10.522179 0.139948 0.000000 0.000000
 30 -0.733615 -0.875731 4.163391 -0.000000 -0.000000 -0.000000
 31 0.384346 6.875510 15.749496 -0.021621 -0.014067 -0.064751
 32 0.298735 -0.708094 8.636330 0.000000 0.000000 -0.000000
time 21
  0 -2.437624 -1.142060 2.887016 0.000000 -0.000000 0.000000
  1 -2.437624 -1.142060 2.887016 0.000000 -0.000000 0.000000
  2 -2.437624 -1.142060 2.887016 0.000000 -0.000000 0.000000
  3 -4.744596 2.314000 171.985855 0.000000 -0.000000 0.000000
  4 -2.437624 -21.335337 80.820938 0.069813 0.000000 0.000000
  5 0.000000 1.168600 -4.970123 0.070005 0.000000 0.000000
  6 9.220941 -0.130358 -8.947067 -0.172290 -0.000000 0.000000
  7 -0.379086 1.814667 -27.492043 0.382785 0.000000 -0.000000
  8 0.656837 1.035171 -26.456921 0.003367 0.000000 -0.000000
  9 0.796035 -3.883158 -5.964674 -0.000000 0.000000 0.000000
 10 -8.723413 -0.130355 -8.508438 -0.434277 -0.000001 0.000000
 11 0.166784 1.539028 -27.926281 2.158397 0.000000 -0.000001
 12 0.000000 1.207249 -28.902143 0.171174 -0.000000 0.000000
 13 -1.085475 -3.644367 -5.283726 -0.000000 0.000000 -0.000000
 14 0.000000 1.168600 2.657303 0.028699 -0.055304 0.335105
 15 -8.953949 1.659501 23.008888 0.270740 -0.195160 -0.314311
 16 -8.926151 1.465044 -13.502785 -0.049207 0.519422 0.405666
 17 -9.753761 -1.363405 -17.323647 -0.464892 -0.137635 -0.687605
 18 -2.244503 0.154930 -5.804512 -0.294034 1.154991 2.767456
 19 1.316353 131.774658 -0.870380 -0.000000 0.000000 -0.000000
 20 78.454086 60.097260 -5.834045 -0.000000 0.000000 -0.000000
 21 78.454086 60.097260 -5.834045 -0.000000 0.000000 -0.000000
 22 -2.237637 -0.246613 -4.538933 0.000000 0.000000 -0.000000
 23 10.122658 1.597856 23.103500 -0.318266 -0.112166 0.695319
 24 8.001000 1.555557 -13.647659 -0.577421 0.594421 -0.553610
 25 9.920528 -2.397072 -17.907207 -0.288939 0.090852 0.172882
 26 2.422037 0.203362 -5.305655 -0.000000 0.000000 -0.000000
 27 0.245625 0.395466 37.928101 0.146991 0.065683 -0.329114
 28 -1.052323 10.161821 41.870499 0.204717 0.000000 0.000000
 29 -0.811184 20.075338 -10.521538 0.139949 0.000000 0.000000
 30 -0.733649 -0.875736 4.163132 -0.000000 0.000000 0.000000
 31 0.384331 6.875222 15.750992 -0.021621 -0.014067 -0.064751
 32 0.298723 -0.708063 8.637154 0.000000 0.000000 -0.000000
time 22
  0 -2.437624 -1.142060 2.887016 0.000000 -0.000000 0.000000
  1 -2.437624 -1.142060 2.887016 0.000000 -0.000000 0.000000
  2 -2.437624 -1.142060 2.887016 0.000000 -0.000000 0.000000
  3 -4.744596 2.314000 171.985855 0.000000 -0.000000 0.000000
  4 -2.437624 -21.335337 81.204903 0.069813 0.000000 0.000000
  5 0.000000 1.168600 -4.970131 0.070005 0.000000 0.000000
  6 9.220941 -0.130358 -8.947067 -0.089731 -0.000000 0.000000
  7 -0.379086 1.817349 -27.445156 0.371219 0.000000 -0.000000
  8 0.656837 1.032756 -26.527477 0.058935 0.000000 -0.000000
  9 0.796035 -3.865171 -5.996170 0.000000 -0.000000 -0.000000
 10 -8.723413 -0.130355 -8.508430 -0.510071 -0.000001 0.000000
 11 0.166782 1.532299 -28.060131 2.023421 0.000000 -0.000001
 12 0.000001 1.205303 -28.942360 0.142963 -0.000000 -0.000000
 13 -1.085476 -3.617069 -5.318611 -0.000000 -0.000000 0.000000
 14 0.000000 1.168600 2.657303 0.020609 -0.062982 0.287942
 15 -8.953449 1.659414 23.011780 0.270737 -0.195154 -0.314311
 16 -8.922350 1.465334 -13.506317 -0.080152 0.542638 0.393453
 17 -9.749569 -1.363802 -17.326424 -0.464822 -0.137629 -0.687609
 18 -2.211634 0.718533 -5.854099 -0.294006 1.155014 2.767481
 19 1.317780 131.510651 -0.871239 -0.000000 0.000000 0.000000
 20 78.539146 59.976856 -5.839832 -0.000000 0.000000 0.000000
 21 78.539146 59.976856 -5.839832 -0.000000 0.000000 0.000000
 22 -2.237856 -0.245998 -4.550385 -0.000000 0.000000 0.000000
 23 10.122092 1.597773 23.106422 -0.318248 -0.112163 0.695317
 24 8.000704 1.554531 -13.658257 -0.577408 0.594419 -0.553606
 25 9.924513 -2.394936 -17.915462 -0.288947 0.090855 0.172889
 26 2.423470 0.203156 -5.307638 -0.000000 0.000000 -0.000000
 27 0.245611 0.395443 37.932884 0.153427 0.065995 -0.278888
 28 -1.052352 10.162067 41.868050 0.204718 0.000000 0.000000
 29 -0.811206 20.075823 -10.520912 0.139950 0.000000 0.000000
 30 -0.733668 -0.875753 4.162895 -0.000000 0.000000 -0.000000
 31 0.384310 6.874860 15.752983 -0.021621 -0.014067 -0.064751
 32 0.298707 -0.708025 8.638245 0.000000 -0.000000 -0.000000
time 23
  0 -2.437624 -1.142060 2.887016 0.000000 -0.000000 0.000000
  1 -2.437624 -1.142060 2.887016 0.000000 -0.000000 0.000000
  2 -2.437624 -1.142060 2.887016 0.000000 -0.000000 0.000000
  3 -4.744596 2.314000 171.985855 0.000000 -0.000000 0.000000
  4 -2.437624 -21.335337 81.583984 0.069813 0.000000 0.000000
  5 0.000000 1.168600 -4.970116 0.070005 0.000000 0.000000
  6 9.220941 -0.130356 -8.947067 0.001073 -0.000000 0.000000
  7 -0.379086 1.818357 -27.427502 0.348814 0.000000 -0.000000
  8 0.656837 1.029841 -26.612164 0.107897 0.000000 -0.000000
  9 0.796035 -3.842332 -6.035710 -0.000000 0.000000 0.000000
 10 -8.723413 -0.130356 -8.508430 -0.582539 -0.000001 0.000000
 11 0.166783 1.525215 -28.199871 1.762068 0.000000 -0.000001
 12 0.000001 1.218998 -28.655888 0.109614 -0.000000 0.000000
 13 -1.085475 -3.637360 -5.292721 0.000000 0.000000 0.000000
 14 0.000000 1.168600 2.657303 0.012805 -0.070388 0.242450
 15 -8.952827 1.659315 23.015251 0.270735 -0.195148 -0.314310
 16 -8.918509 1.465591 -13.510155 -0.109864 0.564922 0.381725
 17 -9.745350 -1.363942 -17.332970 -0.464752 -0.137620 -0.687614
 18 -2.179876 1.259468 -5.902454 -0.293983 1.155038 2.767500
 19 1.319332 131.245514 -0.872047 -0.000000 0.000000 0.000000
 20 78.631683 59.855938 -5.845150 -0.000000 0.000000 0.000000
 21 78.631683 59.855938 -5.845150 -0.000000 0.000000 0.000000
 22 -2.238024 -0.245407 -4.561718 -0.000000 -0.000000 -0.000000
 23 10.121387 1.597676 23.109886 -0.318231 -0.112160 0.695315
 24 8.000399 1.553520 -13.668716 -0.577397 0.594416 -0.553603
 25 9.928244 -2.392891 -17.923382 -0.288954 0.090857 0.172897
 26 2.424833 0.202965 -5.309507 0.000000 -0.000000 0.000000
 27 0.245593 0.395419 37.938583 0.159634 0.066297 -0.230441
 28 -1.052362 10.162464 41.865700 0.204721 0.000000 0.000000
 29 -0.811214 20.076607 -10.520325 0.139951 0.000000 0.000000
 30 -0.733675 -0.875788 4.162651 0.000000 0.000000 -0.000000
 31 0.384283 6.874443 15.755341 -0.021620 -0.014066 -0.064751
 32 0.298685 -0.707983 8.639534 -0.000000 0.000000 -0.000000
time 24
  0 -2.437624 -1.142060 2.887016 0.000000 -0.000000 0.000000
  1 -2.437624 -1.142060 2.887016 0.000000 -0.000000 0.000000
  2 -2.437624 -1.142060 2.887016 0.000000 -0.000000 0.000000
  3 -4.744596 2.314000 171.985855 0.000000 -0.000000 0.000000
  4 -2.437624 -21.335337 81.947441 0.069813 0.000000 0.000000
  5 0.000000 1.168600 -4.970131 0.070005 0.000000 0.000000
  6 9.220941 -0.130355 -8.947067 0.093808 -0.000000 0.000000
  7 -0.379086 1.817256 -27.446789 0.319557 0.000000 -0.000000
  8 0.656837 1.026661 -26.703959 0.149914 0.000000 -0.000000
  9 0.796035 -3.817705 -6.077807 0.000000 0.000000 0.000000
 10 -8.723413 -0.130355 -8.508430 -0.649398 -0.000001 0.000000
 11 0.166783 1.518223 -28.336296 1.421231 -0.000000 -0.000001
 12 -0.000001 1.253817 -27.899170 0.074203 -0.000000 0.000000
 13 -1.085475 -3.740664 -5.156601 -0.000000 -0.000000 0.000000
 14 0.000000 1.168600 2.657303 0.005554 -0.077270 0.200179
 15 -8.952127 1.659206 23.019058 0.270732 -0.195141 -0.314310
 16 -8.914787 1.465826 -13.514069 -0.137367 0.585545 0.370868
 17 -9.741295 -1.363870 -17.342255 -0.464685 -0.137610 -0.687619
 18 -2.150328 1.759697 -5.947769 -0.293967 1.155061 2.767514
 19 1.320915 130.991364 -0.872734 -0.000000 -0.000000 0.000000
 20 78.726105 59.740021 -5.849804 -0.000000 -0.000000 0.000000
 21 78.726105 59.740021 -5.849804 -0.000000 -0.000000 0.000000
 22 -2.238140 -0.244846 -4.572418 -0.000000 0.000000 0.000000
 23 10.120596 1.597571 23.113716 -0.318215 -0.112156 0.695314
 24 8.000096 1.552563 -13.678642 -0.577387 0.594412 -0.553601
 25 9.931616 -2.391029 -17.930672 -0.288962 0.090860 0.172904
 26 2.426096 0.202782 -5.311193 0.000000 0.000000 -0.000000
 27 0.245574 0.395395 37.944862 0.165402 0.066577 -0.185425
 28 -1.052358 10.162960 41.863503 0.204723 0.000000 0.000000
 29 -0.811211 20.077585 -10.519775 0.139953 0.000000 0.000000
 30 -0.733673 -0.875835 4.162437 0.000000 0.000000 0.000000
 31 0.384254 6.874002 15.757957 -0.021620 -0.014066 -0.064751
 32 0.298663 -0.707938 8.640968 -0.000000 -0.000000 -0.000000
time 25
  0 -2.437624 -1.142060 2.887016 0.000000 -0.000000 0.000000
  1 -2.437624 -1.142060 2.887016 0.000000 -0.000000 0.000000
  2 -2.437624 -1.142060 2.887016 0.000000 -0.000000 0.000000
  3 -4.744596 2.314000 171.985855 0.000000 -0.000000 0.000000
  4 -2.437624 -21.335337 82.284500 0.069813 0.000000 0.000000
  5 0.000000 1.168600 -4.970123 0.070005 0.000000 0.000000
  6 9.220941 -0.130355 -8.947060 0.182157 -0.000000 0.000000
  7 -0.379086 1.814234 -27.499554 0.287445 0.000000 -0.000000
  8 0.656837 1.023502 -26.794624 0.184656 0.000000 -0.000000
  9 0.796035 -3.794151 -6.117543 -0.000000 -0.000000 0.000000
 10 -8.723413 -0.130355 -8.508430 -0.708369 -0.000001 0.000000
 11 0.166781 1.511795 -28.460510 1.047322 -0.000001 -0.000000
 12 0.000001 1.288432 -27.103825 0.039774 -0.000000 -0.000000
 13 -1.085475 -3.858181 -4.992405 0.000000 -0.000000 0.000000
 14 0.000000 1.168600 2.657295 -0.000878 -0.083374 0.162679
 15 -8.951406 1.659101 23.022888 0.270728 -0.195136 -0.314309
 16 -8.911369 1.466032 -13.517822 -0.161688 0.603780 0.361266
 17 -9.737587 -1.363650 -17.352974 -0.464626 -0.137601 -0.687625
 18 -2.124090 2.201500 -5.988190 -0.293955 1.155081 2.767522
 19 1.322430 130.760864 -0.873314 -0.000000 0.000000 -0.000000
 20 78.816055 59.634895 -5.853699 -0.000000 0.000000 -0.000000
 21 78.816055 59.634895 -5.853699 -0.000000 0.000000 -0.000000
 22 -2.238220 -0.244339 -4.581997 0.000000 -0.000000 -0.000000
 23 10.119783 1.597473 23.117569 -0.318199 -0.112153 0.695312
 24 7.999817 1.551701 -13.687599 -0.577380 0.594409 -0.553600
 25 9.934528 -2.389404 -17.937099 -0.288969 0.090861 0.172910
 26 2.427200 0.202621 -5.312647 -0.000000 -0.000000 -0.000000
 27 0.245555 0.395370 37.951180 0.170518 0.066825 -0.145488
 28 -1.052348 10.163486 41.861496 0.204726 0.000000 0.000000
 29 -0.811203 20.078630 -10.519264 0.139955 0.000000 0.000000
 30 -0.733666 -0.875881 4.162247 -0.000000 -0.000000 -0.000000
 31 0.384223 6.873568 15.760582 -0.021619 -0.014066 -0.064751
 32 0.298639 -0.707892 8.642403 0.000000 0.000000 0.000000
time 26
  0 -2.437624 -1.142060 2.887016 0.000000 -0.000000 0.000000
  1 -2.437624 -1.142060 2.887016 0.000000 -0.000000 0.000000
  2 -2.437624 -1.142060 2.887016 0.000000 -0.000000 0.000000
  3 -4.744596 2.314000 171.985855 0.000000 -0.000000 0.000000
  4 -2.437624 -21.335337 82.584396 0.069813 0.000000 0.000000
  5 0.000000 1.168600 -4.970123 0.070005 0.000000 0.000000
  6 9.220941 -0.130355 -8.947067 0.259822 -0.000000 0.000000
  7 -0.379086 1.810052 -27.572304 0.256470 0.000000 -0.000000
  8 0.656837 1.020662 -26.875687 0.211789 0.000000 -0.000000
  9 0.796035 -3.773996 -6.151146 -0.000000 0.000000 0.000000
 10 -8.723413 -0.130355 -8.508430 -0.757168 -0.000001 0.000000
 11 0.166782 1.506371 -28.564713 0.686257 -0.000001 -0.000000
 12 0.000000 1.297983 -26.876379 0.008803 -0.000000 -0.000000
 13 -1.085475 -3.894266 -4.939846 0.000000 -0.000000 0.000000
 14 0.000000 1.168600 2.657303 -0.006227 -0.088450 0.131499
 15 -8.950735 1.659010 23.026398 0.270725 -0.195130 -0.314308
 16 -8.908442 1.466185 -13.521149 -0.181856 0.618898 0.353304
 17 -9.734432 -1.363363 -17.363548 -0.464577 -0.137593 -0.687629
 18 -2.102251 2.567444 -6.021927 -0.293949 1.155098 2.767525
 19 1.323742 130.566193 -0.873787 0.000000 -0.000000 0.000000
 20 78.894867 59.546116 -5.856777 0.000000 -0.000000 0.000000
 21 78.894867 59.546116 -5.856777 0.000000 -0.000000 0.000000
 22 -2.238264 -0.243927 -4.589989 0.000000 0.000000 -0.000000
 23 10.119022 1.597383 23.121094 -0.318187 -0.112150 0.695310
 24 7.999569 1.550972 -13.695137 -0.577374 0.594406 -0.553599
 25 9.936881 -2.388077 -17.942406 -0.288975 0.090863 0.172916
 26 2.428116 0.202484 -5.313841 0.000000 -0.000000 -0.000000
 27 0.245536 0.395348 37.956970 0.174773 0.067031 -0.112283
 28 -1.052333 10.163986 41.859802 0.204728 0.000000 0.000000
 29 -0.811191 20.079615 -10.518837 0.139956 0.000000 -0.000000
 30 -0.733655 -0.875921 4.162064 -0.000000 0.000000 0.000000
 31 0.384193 6.873178 15.762985 -0.021619 -0.014065 -0.064751
 32 0.298615 -0.707851 8.643715 0.000000 -0.000000 -0.000000
time 27
  0 -2.437624 -1.142060 2.887016 0.000000 -0.000000 0.000000
  1 -2.437624 -1.142060 2.887016 0.000000 -0.000000 0.000000
  2 -2.437624 -1.142060 2.887016 0.000000 -0.000000 0.000000
  3 -4.744596 2.314000 171.985855 0.000000 -0.000000 0.000000
  4 -2.437624 -21.335337 82.836388 0.069813 0.000000 0.000000
  5 0.000000 1.168599 -4.970131 0.070005 0.000000 0.000000
  6 9.220941 -0.130356 -8.947060 0.320535 -0.000000 0.000000
  7 -0.379086 1.805841 -27.645103 0.230612 0.000000 -0.000000
  8 0.656837 1.018423 -26.939171 0.230968 0.000000 -0.000000
  9 0.796035 -3.758919 -6.176052 -0.000000 0.000000 0.000000
 10 -8.723413 -0.130355 -8.508430 -0.793505 -0.000001 0.000000
 11 0.166783 1.502293 -28.642504 0.384633 -0.000002 0.000000
 12 -0.000001 1.284115 -27.205471 -0.015794 -0.000000 0.000000
 13 -1.085476 -3.849148 -5.005386 -0.000000 -0.000000 -0.000000
 14 0.000000 1.168599 2.657303 -0.010225 -0.092244 0.108190
 15 -8.950191 1.658935 23.029213 0.270723 -0.195126 -0.314308
 16 -8.906210 1.466301 -13.523743 -0.196899 0.630174 0.347365
 17 -9.732040 -1.363089 -17.372398 -0.464541 -0.137586 -0.687633
 18 -2.085920 2.840187 -6.047211 -0.293945 1.155111 2.767526
 19 1.324772 130.419357 -0.874115 0.000000 -0.000000 0.000000
 20 78.955933 59.479149 -5.858978 0.000000 -0.000000 0.000000
 21 78.955933 59.479149 -5.858978 0.000000 -0.000000 0.000000
 22 -2.238297 -0.243614 -4.595963 -0.000000 -0.000000 0.000000
 23 10.118406 1.597310 23.123917 -0.318177 -0.112148 0.695309
 24 7.999384 1.550423 -13.700821 -0.577370 0.594403 -0.553599
 25 9.938608 -2.387085 -17.946335 -0.288979 0.090864 0.172920
 26 2.428795 0.202400 -5.314713 -0.000000 -0.000000 -0.000000
 27 0.245522 0.395329 37.961601 0.177953 0.067185 -0.087459
 28 -1.052320 10.164383 41.858490 0.204730 0.000000 0.000000
 29 -0.811181 20.080397 -10.518509 0.139957 0.000000 0.000000
 30 -0.733646 -0.875959 4.161942 0.000000 0.000000 -0.000000
 31 0.384170 6.872871 15.764908 -0.021619 -0.014065 -0.064751
 32 0.298597 -0.707820 8.644775 -0.000000 -0.000000 0.000000
time 28
  0 -2.437624 -1.142060 2.887016 0.000000 -0.000000 0.000000
  1 -2.437624 -1.142060 2.887016 0.000000 -0.000000 0.000000
  2 -2.437624 -1.142060 2.887016 0.000000 -0.000000 0.000000
  3 -4.744596 2.314000 171.985855 0.000000 -0.000000 0.000000
  4 -2.437624 -21.335337 83.029694 0.069813 0.000000 0.000000
  5 0.000000 1.168600 -4.970123 0.070005 0.000000 0.000000
  6 9.220941 -0.130356 -8.947067 0.358052 -0.000000 0.000000
  7 -0.379086 1.802856 -27.696552 0.213840 0.000000 -0.000000
  8 0.656837 1.017046 -26.978018 0.241840 0.000000 -0.000000
  9 0.796035 -3.750046 -6.190613 -0.000000 -0.000000 0.000000
 10 -8.723413 -0.130355 -8.508430 -0.815086 -0.000000 0.000000
 11 0.166782 1.499866 -28.688587 0.188968 -0.000002 0.000000
 12 -0.000001 1.267117 -27.598856 -0.031133 -0.000000 0.000000
 13 -1.085476 -3.793072 -5.084656 0.000000 0.000000 -0.000000
 14 0.000000 1.168600 2.657295 -0.012607 -0.094505 0.094300
 15 -8.949850 1.658888 23.030952 0.270722 -0.195124 -0.314308
 16 -8.904859 1.466373 -13.525337 -0.205845 0.636880 0.343833
 17 -9.730606 -1.362902 -17.378029 -0.464519 -0.137582 -0.687635
 18 -2.076181 3.002388 -6.062294 -0.293944 1.155119 2.767526
 19 1.325401 130.331451 -0.874283 0.000000 -0.000000 -0.000000
 20 78.993134 59.439053 -5.860237 0.000000 -0.000000 -0.000000
 21 78.993134 59.439053 -5.860237 0.000000 -0.000000 -0.000000
 22 -2.238308 -0.243423 -4.599529 -0.000000 0.000000 0.000000
 23 10.118021 1.597266 23.125671 -0.318171 -0.112147 0.695309
 24 7.999268 1.550095 -13.704239 -0.577367 0.594402 -0.553599
 25 9.939623 -2.386513 -17.948700 -0.288982 0.090865 0.172922
 26 2.429203 0.202339 -5.315229 0.000000 -0.000000 -0.000000
 27 0.245512 0.395318 37.964470 0.179848 0.067277 -0.072667
 28 -1.052313 10.164635 41.857681 0.204732 0.000000 0.000000
 29 -0.811176 20.080891 -10.518311 0.139958 0.000000 -0.000000
 30 -0.733642 -0.875977 4.161850 0.000000 0.000000 -0.000000
 31 0.384157 6.872683 15.766106 -0.021619 -0.014065 -0.064751
 32 0.298586 -0.707802 8.645432 0.000000 -0.000000 0.000000
time 29
  0 -2.437624 -1.142060 2.887016 0.000000 -0.000000 0.000000
  1 -2.437624 -1.142060 2.887016 0.000000 -0.000000 0.000000
  2 -2.437624 -1.142060 2.887016 0.000000 -0.000000 0.000000
  3 -4.744596 2.314000 171.985855 0.000000 -0.000000 0.000000
  4 -2.437624 -21.335337 83.153572 0.069813 0.000000 0.000000
  5 0.000000 1.168600 -4.970131 0.070005 0.000000 0.000000
  6 9.220941 -0.130356 -8.947060 0.367150 -0.000000 0.000000
  7 -0.379086 1.802090 -27.709724 0.209575 -0.000000 -0.000000
  8 0.656837 1.016718 -26.987167 0.244310 0.000000 -0.000000
  9 0.796035 -3.747995 -6.193968 -0.000000 -0.000000 0.000000
 10 -8.723413 -0.130356 -8.508430 -0.820101 -0.000000 -0.000000
 11 0.166783 1.499310 -28.699272 0.139600 -0.000002 0.000000
 12 0.000000 1.262260 -27.709223 -0.034881 -0.000000 0.000000
 13 -1.085475 -3.777225 -5.106628 0.000000 0.000000 0.000000
 14 0.000000 1.168600 2.657303 -0.013164 -0.095026 0.090984
 15 -8.949767 1.658875 23.031372 0.270647 -0.195074 -0.314079
 16 -8.904562 1.466393 -13.525635 -0.207971 0.638430 0.343034
 17 -9.730244 -1.362855 -17.379471 -0.464514 -0.137581 -0.687636
 18 -2.073866 3.040909 -6.065926 -0.293944 1.155121 2.767525
 19 1.325562 130.309692 -0.874344 -0.000000 -0.000000 -0.000000
 20 79.002502 59.429138 -5.860550 -0.000000 -0.000000 -0.000000
 21 79.002502 59.429138 -5.860550 -0.000000 -0.000000 -0.000000
 22 -2.238312 -0.243378 -4.600403 -0.000000 -0.000000 -0.000000
 23 10.117929 1.597255 23.126083 -0.318191 -0.112117 0.695186
 24 7.999243 1.550018 -13.705048 -0.577375 0.594371 -0.553588
 25 9.939856 -2.386368 -17.949265 -0.289036 0.090909 0.172990
 26 2.429285 0.202324 -5.315367 -0.000000 -0.000000 -0.000000
 27 0.245510 0.395314 37.965164 0.180290 0.067289 -0.069139
 28 -1.052309 10.164682 41.857483 0.204732 0.000000 0.000000
 29 -0.811173 20.080999 -10.518257 0.139958 0.000000 -0.000000
 30 -0.733639 -0.875982 4.161835 0.000000 0.000000 -0.000000
 31 0.384127 6.872620 15.766365 -0.021610 -0.014063 -0.064742
 32 0.298585 -0.707796 8.645599 0.000000 -0.000000 0.000000
time 30
  0 -2.437624 -1.142060 2.887016 0.000000 -0.000000 0.000000
  1 -2.437624 -1.142060 2.887016 0.000000 -0.000000 0.000000
  2 -2.437624 -1.142060 2.887016 0.000000 -0.000000 0.000000
  3 -4.744596 2.314000 171.985855 0.000000 -0.000000 0.000000
  4 -2.437624 -21.335337 83.197258 0.069813 0.000000 0.000000
  5 0.000000 1.168599 -4.970123 0.070005 0.000000 0.000000
  6 9.220941 -0.130356 -8.947060 0.365342 -0.000000 0.000000
  7 -0.379086 1.802240 -27.707092 0.208523 0.000000 -0.000000
  8 0.656837 1.016912 -26.981758 0.243784 0.000000 -0.000000
  9 0.796035 -3.748947 -6.192414 0.000000 -0.000000 -0.000000
 10 -8.723413 -0.130356 -8.508430 -0.817022 -0.000000 -0.000000
 11 0.166783 1.499649 -28.692713 0.139073 -0.000002 0.000000
 12 0.000000 1.262497 -27.703964 -0.034128 -0.000000 0.000000
 13 -1.085476 -3.778137 -5.105366 0.000000 -0.000000 -0.000000
 14 0.000000 1.168599 2.657303 -0.012881 -0.094540 0.090596
 15 -8.949817 1.658882 23.031143 0.268480 -0.193632 -0.307365
 16 -8.905384 1.466490 -13.523170 -0.208020 0.637161 0.344213
 17 -9.729576 -1.362817 -17.381378 -0.464509 -0.137580 -0.687636
 18 -2.073864 3.040298 -6.067139 -0.293944 1.155123 2.767525
 19 1.325790 130.285950 -0.874352 0.000000 -0.000000 0.000000
 20 79.015762 59.418297 -5.860645 0.000000 -0.000000 0.000000
 21 79.015762 59.418297 -5.860645 0.000000 -0.000000 0.000000
 22 -2.238306 -0.243332 -4.601322 -0.000000 -0.000000 0.000000
 23 10.117987 1.597260 23.125854 -0.318801 -0.111246 0.691601
 24 7.999327 1.550011 -13.704941 -0.577604 0.593483 -0.553257
 25 9.939963 -2.386223 -17.950066 -0.290626 0.092208 0.174969
 26 2.429024 0.202316 -5.316004 0.000000 -0.000000 -0.000000
 27 0.245511 0.395314 37.964790 0.180041 0.066998 -0.068840
 28 -1.052310 10.164692 41.857414 0.204732 0.000000 0.000000
 29 -0.811175 20.081013 -10.518250 0.139958 0.000000 -0.000000
 30 -0.733640 -0.875982 4.161827 -0.000000 -0.000000 -0.000000
 31 0.383389 6.872183 15.765602 -0.021366 -0.014002 -0.064460
 32 0.298585 -0.707798 8.645500 0.000000 0.000000 -0.000000
end
