version 1
nodes
  0 "bone38"  -1
  1 "bone36"  -1
  2 "bone34"  -1
  3 "bone33"  -1
  4 "bone01"  -1
  5 "bone19"   4
  6 "bone15"   5
  7 "bone16"   6
  8 "bone18"   7
  9 "bone21"   8
 10 "bone07"   5
 11 "bone20"  10
 12 "bone17"  11
 13 "bone22"  12
 14 "bone03"   4
 15 "bone08"  14
 16 "bone05"  15
 17 "bone09"  16
 18 "bone11"  17
 19 "bone23"  18
 20 "bone24"  18
 21 "bone27"  18
 22 "bone28"  17
 23 "bone02"  14
 24 "bone04"  23
 25 "bone10"  24
 26 "bone29"  25
 27 "bone06"  14
 28 "bone12"  27
 29 "bone14"  27
 30 "bone30"  27
 31 "bone13"  14
 32 "bone32"  14
end
skeleton
time 0
  0 -1.599601 -2.208250 -1.507164 0.000000 -0.000000 0.000000
  1 -1.599601 -2.208250 -1.507164 0.000000 -0.000000 0.000000
  2 -1.599601 -2.208250 -1.507164 0.000000 -0.000000 0.000000
  3 -3.569056 0.742170 154.046814 0.000000 -0.000000 0.000000
  4 -1.599601 -2.973366 70.701195 -0.069813 0.000000 0.000000
  5 0.000000 0.997964 -4.570213 0.069813 0.000000 0.000000
  6 7.871869 -0.111284 -8.230400 -0.052360 -0.000000 0.000000
  7 -0.323623 1.552323 -25.230556 -0.034906 0.000000 0.000000
  8 0.560739 0.886398 -24.252878 0.122173 0.000000 -0.000000
  9 0.679571 -3.325401 -5.467171 0.000000 -0.000000 0.000000
 10 -7.447134 -0.111284 -7.826904 -0.104720 0.000000 -0.000000
 11 0.142383 1.330254 -25.331699 0.017453 -0.000001 0.000000
 12 0.000000 1.108467 -24.713581 0.139626 -0.000000 0.000000
 13 -0.926665 -3.325402 -4.542753 0.000000 -0.000000 0.000000
 14 -0.000000 0.997965 2.443497 0.052370 0.017411 0.001218
 15 -7.644489 1.416842 21.161728 0.569183 -0.290068 0.149638
 16 -7.649448 1.255524 -12.312485 0.004427 0.267645 0.285985
 17 -8.349894 -1.164387 -15.877777 -0.464388 -0.137408 -0.687688
 18 -1.770458 2.678688 -5.392933 -0.294160 1.155384 2.767322
 19 1.182461 113.813698 -0.750214 0.000000 -0.000000 0.000000
 20 70.480576 51.905899 -5.027893 0.000000 -0.000000 0.000000
 21 70.480576 51.905899 -5.027893 0.000000 -0.000000 0.000000
 22 -1.910845 -0.214391 -4.090008 0.000000 -0.000000 0.000000
 23 8.642280 1.364211 21.248764 -0.044039 -0.093717 -0.173018
 24 6.836393 1.339848 -12.415375 -0.463349 0.446821 -0.385078
 25 8.517088 -2.122139 -15.745979 -0.288910 0.090829 0.172798
 26 2.098619 0.181797 -4.578861 0.000000 -0.000000 0.000000
 27 0.209703 0.337634 34.883232 0.122173 -0.000000 0.000000
 28 -0.898396 8.683962 38.469429 0.204290 0.000000 0.000000
 29 -0.692529 17.155756 -9.666901 0.139626 0.000000 0.000000
 30 -0.626336 -0.748377 3.824966 0.000000 -0.000000 0.000000
 31 0.186493 5.784158 14.068840 0.017451 -0.000008 0.000304
 32 0.255036 -0.604529 7.943764 0.000000 -0.000000 0.000000
time 1
  0 -1.599601 -2.208250 -1.507164 0.000000 -0.000000 0.000000
  1 -1.599601 -2.208250 -1.507164 0.000000 -0.000000 0.000000
  2 -1.599601 -2.208250 -1.507164 0.000000 -0.000000 0.000000
  3 -3.569056 0.742170 154.046814 0.000000 -0.000000 0.000000
  4 -1.599601 -2.973366 70.701195 -0.069813 0.000000 0.000000
  5 0.000000 0.997964 -4.570213 0.069813 0.000000 0.000000
  6 7.871869 -0.111284 -8.230400 -0.052360 -0.000000 0.000000
  7 -0.323623 1.552323 -25.230556 -0.034906 0.000000 0.000000
  8 0.560739 0.886398 -24.252878 0.122173 0.000000 -0.000000
  9 0.679571 -3.325401 -5.467171 0.000000 -0.000000 0.000000
 10 -7.447134 -0.111284 -7.826904 -0.104720 0.000000 -0.000000
 11 0.142383 1.330254 -25.331699 0.017453 -0.000001 0.000000
 12 0.000000 1.108467 -24.713581 0.139626 -0.000000 0.000000
 13 -0.926665 -3.325402 -4.542753 0.000000 -0.000000 0.000000
 14 -0.000000 0.997965 2.443497 0.052370 0.017411 0.001218
 15 -7.644489 1.416841 21.161728 0.569183 -0.290068 0.149638
 16 -7.649449 1.255524 -12.312485 0.007964 0.266265 0.286047
 17 -8.349895 -1.164383 -15.877781 -0.464388 -0.137408 -0.687688
 18 -1.770460 2.678690 -5.392925 -0.294160 1.155384 2.767322
 19 1.182430 113.813675 -0.750198 0.000000 -0.000000 0.000000
 20 70.480545 51.905872 -5.027878 0.000000 -0.000000 0.000000
 21 70.480545 51.905872 -5.027878 0.000000 -0.000000 0.000000
 22 -1.910843 -0.214389 -4.090000 0.000000 -0.000000 0.000000
 23 8.642281 1.364211 21.248756 -0.044039 -0.093717 -0.173018
 24 6.836391 1.339848 -12.415382 -0.454784 0.445831 -0.380473
 25 8.517090 -2.122133 -15.745983 -0.288910 0.090829 0.172798
 26 2.098619 0.181797 -4.578861 0.000000 -0.000000 0.000000
 27 0.209704 0.337634 34.883232 0.122845 -0.000000 -0.000000
 28 -0.898396 8.683961 38.469414 0.204290 0.000000 0.000000
 29 -0.692529 17.155758 -9.666885 0.139626 0.000000 -0.000000
 30 -0.626336 -0.748377 3.824966 0.000000 -0.000000 0.000000
 31 0.186494 5.784158 14.068840 0.017451 -0.000008 0.000304
 32 0.255037 -0.604529 7.943756 0.000000 -0.000000 0.000000
time 2
  0 -1.599601 -2.208250 -1.507164 0.000000 -0.000000 0.000000
  1 -1.599601 -2.208250 -1.507164 0.000000 -0.000000 0.000000
  2 -1.599601 -2.208250 -1.507164 0.000000 -0.000000 0.000000
  3 -3.569056 0.742170 154.046814 0.000000 -0.000000 0.000000
  4 -1.599601 -2.973366 70.701195 -0.069813 0.000000 0.000000
  5 0.000000 0.997964 -4.570213 0.069813 0.000000 0.000000
  6 7.871869 -0.111284 -8.230400 -0.052360 -0.000000 0.000000
  7 -0.323623 1.552323 -25.230556 -0.034906 0.000000 0.000000
  8 0.560739 0.886398 -24.252878 0.122173 0.000000 -0.000000
  9 0.679571 -3.325401 -5.467171 0.000000 -0.000000 0.000000
 10 -7.447134 -0.111284 -7.826904 -0.104720 0.000000 -0.000000
 11 0.142383 1.330254 -25.331699 0.017453 -0.000001 0.000000
 12 0.000000 1.108467 -24.713581 0.139626 -0.000000 0.000000
 13 -0.926665 -3.325402 -4.542753 0.000000 -0.000000 0.000000
 14 -0.000000 0.997965 2.443497 0.052370 0.017411 0.001218
 15 -7.644490 1.416842 21.161728 0.569183 -0.290068 0.149638
 16 -7.649451 1.255527 -12.312485 0.011266 0.264980 0.286227
 17 -8.349895 -1.164383 -15.877777 -0.464388 -0.137408 -0.687688
 18 -1.770462 2.678691 -5.392933 -0.294160 1.155384 2.767322
 19 1.182438 113.813690 -0.750214 0.000000 -0.000000 0.000000
 20 70.480568 51.905880 -5.027874 0.000000 -0.000000 0.000000
 21 70.480568 51.905880 -5.027874 0.000000 -0.000000 0.000000
 22 -1.910845 -0.214388 -4.090004 0.000000 -0.000000 0.000000
 23 8.642281 1.364211 21.248764 -0.044039 -0.093717 -0.173019
 24 6.836396 1.339849 -12.415375 -0.446508 0.442987 -0.376043
 25 8.517086 -2.122135 -15.745979 -0.288910 0.090829 0.172798
 26 2.098619 0.181797 -4.578861 0.000000 -0.000000 0.000000
 27 0.209703 0.337634 34.883232 0.124774 -0.000000 0.000000
 28 -0.898396 8.683961 38.469414 0.204290 0.000000 0.000000
 29 -0.692529 17.155758 -9.666893 0.139626 0.000000 -0.000000
 30 -0.626335 -0.748377 3.824966 0.000000 -0.000000 0.000000
 31 0.186493 5.784158 14.068840 0.017451 -0.000008 0.000304
 32 0.255037 -0.604529 7.943764 0.000000 -0.000000 0.000000
time 3
  0 -1.599601 -2.208250 -1.507164 0.000000 -0.000000 0.000000
  1 -1.599601 -2.208250 -1.507164 0.000000 -0.000000 0.000000
  2 -1.599601 -2.208250 -1.507164 0.000000 -0.000000 0.000000
  3 -3.569056 0.742170 154.046814 0.000000 -0.000000 0.000000
  4 -1.599601 -2.973366 70.701195 -0.069813 0.000000 0.000000
  5 0.000000 0.997964 -4.570213 0.069813 0.000000 0.000000
  6 7.871869 -0.111284 -8.230400 -0.052360 -0.000000 0.000000
  7 -0.323623 1.552323 -25.230556 -0.034906 0.000000 0.000000
  8 0.560739 0.886398 -24.252878 0.122173 0.000000 -0.000000
  9 0.679571 -3.325401 -5.467171 0.000000 -0.000000 0.000000
 10 -7.447134 -0.111284 -7.826904 -0.104720 0.000000 -0.000000
 11 0.142383 1.330254 -25.331699 0.017453 -0.000001 0.000000
 12 0.000000 1.108467 -24.713581 0.139626 -0.000000 0.000000
 13 -0.926665 -3.325402 -4.542753 0.000000 -0.000000 0.000000
 14 -0.000000 0.997965 2.443497 0.052370 0.017411 0.001218
 15 -7.644489 1.416841 21.161728 0.569183 -0.290068 0.149638
 16 -7.649448 1.255524 -12.312492 0.014337 0.263787 0.286511
 17 -8.349895 -1.164383 -15.877781 -0.464388 -0.137408 -0.687688
 18 -1.770462 2.678690 -5.392929 -0.294160 1.155384 2.767322
 19 1.182442 113.813698 -0.750191 0.000000 -0.000000 0.000000
 20 70.480560 51.905888 -5.027870 0.000000 -0.000000 0.000000
 21 70.480560 51.905888 -5.027870 0.000000 -0.000000 0.000000
 22 -1.910847 -0.214388 -4.089996 0.000000 -0.000000 0.000000
 23 8.642280 1.364211 21.248756 -0.044039 -0.093717 -0.173018
 24 6.836395 1.339849 -12.415375 -0.438532 0.438473 -0.371792
 25 8.517086 -2.122135 -15.745987 -0.288910 0.090829 0.172798
 26 2.098619 0.181797 -4.578861 0.000000 -0.000000 0.000000
 27 0.209703 0.337634 34.883232 0.127829 -0.000000 0.000000
 28 -0.898397 8.683962 38.469429 0.204290 0.000000 0.000000
 29 -0.692529 17.155754 -9.666901 0.139626 0.000000 -0.000000
 30 -0.626336 -0.748377 3.824966 0.000000 -0.000000 0.000000
 31 0.186493 5.784157 14.068840 0.017451 -0.000008 0.000304
 32 0.255037 -0.604529 7.943756 0.000000 -0.000000 0.000000
time 4
  0 -1.599601 -2.208250 -1.507164 0.000000 -0.000000 0.000000
  1 -1.599601 -2.208250 -1.507164 0.000000 -0.000000 0.000000
  2 -1.599601 -2.208250 -1.507164 0.000000 -0.000000 0.000000
  3 -3.569056 0.742170 154.046814 0.000000 -0.000000 0.000000
  4 -1.599601 -2.973366 70.701195 -0.069813 0.000000 0.000000
  5 0.000000 0.997964 -4.570213 0.069813 0.000000 0.000000
  6 7.871869 -0.111284 -8.230400 -0.052360 -0.000000 0.000000
  7 -0.323623 1.552323 -25.230556 -0.034906 0.000000 0.000000
  8 0.560739 0.886398 -24.252878 0.122173 0.000000 -0.000000
  9 0.679571 -3.325401 -5.467171 0.000000 -0.000000 0.000000
 10 -7.447134 -0.111284 -7.826904 -0.104720 0.000000 -0.000000
 11 0.142383 1.330254 -25.331699 0.017453 -0.000001 0.000000
 12 0.000000 1.108467 -24.713581 0.139626 -0.000000 0.000000
 13 -0.926665 -3.325402 -4.542753 0.000000 -0.000000 0.000000
 14 -0.000000 0.997965 2.443497 0.052370 0.017411 0.001218
 15 -7.644489 1.416841 21.161736 0.569183 -0.290068 0.149638
 16 -7.649451 1.255520 -12.312485 0.017186 0.262684 0.286888
 17 -8.349897 -1.164383 -15.877777 -0.464388 -0.137408 -0.687688
 18 -1.770462 2.678689 -5.392929 -0.294160 1.155384 2.767322
 19 1.182465 113.813660 -0.750179 0.000000 -0.000000 0.000000
 20 70.480576 51.905876 -5.027851 0.000000 -0.000000 0.000000
 21 70.480576 51.905876 -5.027851 0.000000 -0.000000 0.000000
 22 -1.910847 -0.214389 -4.090000 0.000000 -0.000000 0.000000
 23 8.642280 1.364211 21.248764 -0.044039 -0.093717 -0.173019
 24 6.836394 1.339849 -12.415375 -0.430866 0.432475 -0.367724
 25 8.517088 -2.122133 -15.745979 -0.288911 0.090829 0.172798
 26 2.098620 0.181801 -4.578865 0.000000 -0.000000 0.000000
 27 0.209703 0.337634 34.883240 0.131881 -0.000000 0.000000
 28 -0.898396 8.683962 38.469444 0.204290 0.000000 0.000000
 29 -0.692529 17.155758 -9.666893 0.139626 0.000000 -0.000000
 30 -0.626336 -0.748377 3.824966 0.000000 -0.000000 0.000000
 31 0.186493 5.784156 14.068848 0.017451 -0.000008 0.000304
 32 0.255036 -0.604528 7.943764 0.000000 -0.000000 0.000000
time 5
  0 -1.599601 -2.208250 -1.507164 0.000000 -0.000000 0.000000
  1 -1.599601 -2.208250 -1.507164 0.000000 -0.000000 0.000000
  2 -1.599601 -2.208250 -1.507164 0.000000 -0.000000 0.000000
  3 -3.569056 0.742170 154.046814 0.000000 -0.000000 0.000000
  4 -1.599601 -2.973366 70.701195 -0.069813 0.000000 0.000000
  5 0.000000 0.997964 -4.570213 0.069813 0.000000 0.000000
  6 7.871869 -0.111284 -8.230400 -0.052360 -0.000000 0.000000
  7 -0.323623 1.552323 -25.230556 -0.034906 0.000000 0.000000
  8 0.560739 0.886398 -24.252878 0.122173 0.000000 -0.000000
  9 0.679571 -3.325401 -5.467171 0.000000 -0.000000 0.000000
 10 -7.447134 -0.111284 -7.826904 -0.104720 0.000000 -0.000000
 11 0.142383 1.330254 -25.331699 0.017453 -0.000001 0.000000
 12 0.000000 1.108467 -24.713581 0.139626 -0.000000 0.000000
 13 -0.926665 -3.325402 -4.542753 0.000000 -0.000000 0.000000
 14 -0.000000 0.997965 2.443497 0.052370 0.017411 0.001218
 15 -7.644488 1.416841 21.161736 0.569183 -0.290068 0.149638
 16 -7.649446 1.255524 -12.312477 0.019819 0.261666 0.287346
 17 -8.349889 -1.164383 -15.877789 -0.464388 -0.137408 -0.687688
 18 -1.770460 2.678691 -5.392925 -0.294160 1.155384 2.767322
 19 1.182434 113.813667 -0.750191 0.000000 -0.000000 0.000000
 20 70.480560 51.905865 -5.027882 0.000000 -0.000000 0.000000
 21 70.480560 51.905865 -5.027882 0.000000 -0.000000 0.000000
 22 -1.910845 -0.214388 -4.090000 0.000000 -0.000000 0.000000
 23 8.642280 1.364211 21.248764 -0.044039 -0.093717 -0.173019
 24 6.836395 1.339849 -12.415375 -0.423522 0.425180 -0.363842
 25 8.517089 -2.122135 -15.745975 -0.288910 0.090829 0.172798
 26 2.098618 0.181797 -4.578857 0.000000 -0.000000 0.000000
 27 0.209703 0.337634 34.883240 0.136799 -0.000000 0.000000
 28 -0.898396 8.683959 38.469429 0.204290 0.000000 0.000000
 29 -0.692529 17.155762 -9.666901 0.139626 0.000000 -0.000000
 30 -0.626335 -0.748378 3.824974 0.000000 -0.000000 0.000000
 31 0.186493 5.784158 14.068848 0.017451 -0.000008 0.000304
 32 0.255037 -0.604529 7.943764 0.000000 -0.000000 0.000000
time 6
  0 -1.599601 -2.208250 -1.507164 0.000000 -0.000000 0.000000
  1 -1.599601 -2.208250 -1.507164 0.000000 -0.000000 0.000000
  2 -1.599601 -2.208250 -1.507164 0.000000 -0.000000 0.000000
  3 -3.569056 0.742170 154.046814 0.000000 -0.000000 0.000000
  4 -1.599601 -2.973366 70.701195 -0.069813 0.000000 0.000000
  5 0.000000 0.997964 -4.570213 0.069813 0.000000 0.000000
  6 7.871869 -0.111284 -8.230400 -0.052360 -0.000000 0.000000
  7 -0.323623 1.552323 -25.230556 -0.034906 0.000000 0.000000
  8 0.560739 0.886398 -24.252878 0.122173 0.000000 -0.000000
  9 0.679571 -3.325401 -5.467171 0.000000 -0.000000 0.000000
 10 -7.447134 -0.111284 -7.826904 -0.104720 0.000000 -0.000000
 11 0.142383 1.330254 -25.331699 0.017453 -0.000001 0.000000
 12 0.000000 1.108467 -24.713581 0.139626 -0.000000 0.000000
 13 -0.926665 -3.325402 -4.542753 0.000000 -0.000000 0.000000
 14 -0.000000 0.997965 2.443497 0.052370 0.017411 0.001218
 15 -7.644488 1.416842 21.161728 0.569183 -0.290068 0.149638
 16 -7.649448 1.255524 -12.312477 0.022242 0.260732 0.287872
 17 -8.349893 -1.164391 -15.877785 -0.464388 -0.137408 -0.687688
 18 -1.770462 2.678688 -5.392929 -0.294160 1.155384 2.767322
 19 1.182465 113.813667 -0.750191 0.000000 -0.000000 0.000000
 20 70.480553 51.905884 -5.027866 0.000000 -0.000000 0.000000
 21 70.480553 51.905884 -5.027866 0.000000 -0.000000 0.000000
 22 -1.910845 -0.214389 -4.090004 0.000000 -0.000000 0.000000
 23 8.642280 1.364211 21.248764 -0.044039 -0.093717 -0.173019
 24 6.836393 1.339849 -12.415375 -0.416510 0.416773 -0.360151
 25 8.517087 -2.122133 -15.745987 -0.288910 0.090829 0.172798
 26 2.098619 0.181801 -4.578861 0.000000 -0.000000 0.000000
 27 0.209704 0.337635 34.883232 0.142452 -0.000000 0.000000
 28 -0.898395 8.683960 38.469429 0.204290 0.000000 0.000000
 29 -0.692529 17.155758 -9.666885 0.139626 0.000000 -0.000000
 30 -0.626336 -0.748377 3.824966 0.000000 -0.000000 0.000000
 31 0.186494 5.784158 14.068840 0.017451 -0.000008 0.000304
 32 0.255037 -0.604529 7.943764 0.000000 -0.000000 0.000000
time 7
  0 -1.599601 -2.208250 -1.507164 0.000000 -0.000000 0.000000
  1 -1.599601 -2.208250 -1.507164 0.000000 -0.000000 0.000000
  2 -1.599601 -2.208250 -1.507164 0.000000 -0.000000 0.000000
  3 -3.569056 0.742170 154.046814 0.000000 -0.000000 0.000000
  4 -1.599601 -2.973366 70.701195 -0.069813 0.000000 0.000000
  5 0.000000 0.997964 -4.570213 0.069813 0.000000 0.000000
  6 7.871869 -0.111284 -8.230400 -0.052360 -0.000000 0.000000
  7 -0.323623 1.552323 -25.230556 -0.034906 0.000000 0.000000
  8 0.560739 0.886398 -24.252878 0.122173 0.000000 -0.000000
  9 0.679571 -3.325401 -5.467171 0.000000 -0.000000 0.000000
 10 -7.447134 -0.111284 -7.826904 -0.104720 0.000000 -0.000000
 11 0.142383 1.330254 -25.331699 0.017453 -0.000001 0.000000
 12 0.000000 1.108467 -24.713581 0.139626 -0.000000 0.000000
 13 -0.926665 -3.325402 -4.542753 0.000000 -0.000000 0.000000
 14 -0.000000 0.997965 2.443497 0.052370 0.017411 0.001218
 15 -7.644488 1.416842 21.161728 0.569183 -0.290068 0.149638
 16 -7.649449 1.255524 -12.312485 0.024463 0.259878 0.288454
 17 -8.349894 -1.164383 -15.877773 -0.464388 -0.137408 -0.687688
 18 -1.770462 2.678690 -5.392925 -0.294160 1.155384 2.767322
 19 1.182453 113.813690 -0.750175 0.000000 -0.000000 0.000000
 20 70.480560 51.905888 -5.027870 0.000000 -0.000000 0.000000
 21 70.480560 51.905888 -5.027870 0.000000 -0.000000 0.000000
 22 -1.910845 -0.214389 -4.090000 0.000000 -0.000000 0.000000
 23 8.642279 1.364211 21.248756 -0.044039 -0.093717 -0.173018
 24 6.836393 1.339849 -12.415375 -0.409842 0.407439 -0.356654
 25 8.517088 -2.122129 -15.745983 -0.288910 0.090829 0.172798
 26 2.098619 0.181797 -4.578857 0.000000 -0.000000 0.000000
 27 0.209703 0.337634 34.883232 0.148710 -0.000000 0.000000
 28 -0.898396 8.683958 38.469421 0.204290 0.000000 0.000000
 29 -0.692529 17.155760 -9.666885 0.139626 0.000000 0.000000
 30 -0.626336 -0.748377 3.824974 0.000000 -0.000000 0.000000
 31 0.186493 5.784158 14.068840 0.017451 -0.000008 0.000304
 32 0.255037 -0.604528 7.943756 0.000000 -0.000000 0.000000
time 8
  0 -1.599601 -2.208250 -1.507164 0.000000 -0.000000 0.000000
  1 -1.599601 -2.208250 -1.507164 0.000000 -0.000000 0.000000
  2 -1.599601 -2.208250 -1.507164 0.000000 -0.000000 0.000000
  3 -3.569056 0.742170 154.046814 0.000000 -0.000000 0.000000
  4 -1.599601 -2.973366 70.701195 -0.069813 0.000000 0.000000
  5 0.000000 0.997964 -4.570213 0.069813 0.000000 0.000000
  6 7.871869 -0.111284 -8.230400 -0.052360 -0.000000 0.000000
  7 -0.323623 1.552323 -25.230556 -0.034906 0.000000 0.000000
  8 0.560739 0.886398 -24.252878 0.122173 0.000000 -0.000000
  9 0.679571 -3.325401 -5.467171 0.000000 -0.000000 0.000000
 10 -7.447134 -0.111284 -7.826904 -0.104720 0.000000 -0.000000
 11 0.142383 1.330254 -25.331699 0.017453 -0.000001 0.000000
 12 0.000000 1.108467 -24.713581 0.139626 -0.000000 0.000000
 13 -0.926665 -3.325402 -4.542753 0.000000 -0.000000 0.000000
 14 -0.000000 0.997965 2.443497 0.052370 0.017411 0.001218
 15 -7.644489 1.416842 21.161728 0.569183 -0.290068 0.149638
 16 -7.649449 1.255524 -12.312485 0.026487 0.259102 0.289080
 17 -8.349895 -1.164383 -15.877785 -0.464388 -0.137408 -0.687688
 18 -1.770460 2.678689 -5.392929 -0.294160 1.155384 2.767322
 19 1.182453 113.813660 -0.750175 0.000000 -0.000000 0.000000
 20 70.480545 51.905876 -5.027851 0.000000 -0.000000 0.000000
 21 70.480545 51.905876 -5.027851 0.000000 -0.000000 0.000000
 22 -1.910845 -0.214388 -4.090000 0.000000 -0.000000 0.000000
 23 8.642281 1.364211 21.248756 -0.044039 -0.093717 -0.173019
 24 6.836393 1.339849 -12.415375 -0.403526 0.397366 -0.353356
 25 8.517090 -2.122131 -15.745987 -0.288910 0.090829 0.172798
 26 2.098619 0.181801 -4.578861 0.000000 -0.000000 0.000000
 27 0.209704 0.337634 34.883232 0.155442 -0.000000 0.000000
 28 -0.898396 8.683955 38.469414 0.204290 0.000000 0.000000
 29 -0.692529 17.155754 -9.666885 0.139626 0.000000 -0.000000
 30 -0.626335 -0.748379 3.824966 0.000000 -0.000000 0.000000
 31 0.186494 5.784157 14.068840 0.017451 -0.000008 0.000304
 32 0.255037 -0.604529 7.943756 0.000000 -0.000000 0.000000
time 9
  0 -1.599601 -2.208250 -1.507164 0.000000 -0.000000 0.000000
  1 -1.599601 -2.208250 -1.507164 0.000000 -0.000000 0.000000
  2 -1.599601 -2.208250 -1.507164 0.000000 -0.000000 0.000000
  3 -3.569056 0.742170 154.046814 0.000000 -0.000000 0.000000
  4 -1.599601 -2.973366 70.701195 -0.069813 0.000000 0.000000
  5 0.000000 0.997964 -4.570213 0.069813 0.000000 0.000000
  6 7.871869 -0.111284 -8.230400 -0.052360 -0.000000 0.000000
  7 -0.323623 1.552323 -25.230556 -0.034906 0.000000 0.000000
  8 0.560739 0.886398 -24.252878 0.122173 0.000000 -0.000000
  9 0.679571 -3.325401 -5.467171 0.000000 -0.000000 0.000000
 10 -7.447134 -0.111284 -7.826904 -0.104720 0.000000 -0.000000
 11 0.142383 1.330254 -25.331699 0.017453 -0.000001 0.000000
 12 0.000000 1.108467 -24.713581 0.139626 -0.000000 0.000000
 13 -0.926665 -3.325402 -4.542753 0.000000 -0.000000 0.000000
 14 -0.000000 0.997965 2.443497 0.052370 0.017411 0.001218
 15 -7.644487 1.416842 21.161728 0.569183 -0.290068 0.149638
 16 -7.649447 1.255531 -12.312485 0.028322 0.258401 0.289739
 17 -8.349892 -1.164379 -15.877792 -0.464388 -0.137408 -0.687688
 18 -1.770460 2.678689 -5.392929 -0.294160 1.155384 2.767322
 19 1.182438 113.813690 -0.750160 0.000000 -0.000000 0.000000
 20 70.480568 51.905876 -5.027866 0.000000 -0.000000 0.000000
 21 70.480568 51.905876 -5.027866 0.000000 -0.000000 0.000000
 22 -1.910847 -0.214389 -4.089996 0.000000 -0.000000 0.000000
 23 8.642279 1.364211 21.248764 -0.044039 -0.093717 -0.173018
 24 6.836393 1.339848 -12.415375 -0.397575 0.386738 -0.350260
 25 8.517094 -2.122139 -15.745987 -0.288910 0.090829 0.172798
 26 2.098620 0.181797 -4.578861 0.000000 -0.000000 0.000000
 27 0.209703 0.337634 34.883232 0.162519 -0.000000 0.000000
 28 -0.898396 8.683955 38.469414 0.204290 0.000000 0.000000
 29 -0.692529 17.155758 -9.666893 0.139626 0.000000 0.000000
 30 -0.626336 -0.748378 3.824966 0.000000 -0.000000 0.000000
 31 0.186493 5.784158 14.068840 0.017451 -0.000008 0.000304
 32 0.255036 -0.604529 7.943764 0.000000 -0.000000 0.000000
time 10
  0 -1.599601 -2.208250 -1.507164 0.000000 -0.000000 0.000000
  1 -1.599601 -2.208250 -1.507164 0.000000 -0.000000 0.000000
  2 -1.599601 -2.208250 -1.507164 0.000000 -0.000000 0.000000
  3 -3.569056 0.742170 154.046814 0.000000 -0.000000 0.000000
  4 -1.599601 -2.973366 70.701195 -0.069813 0.000000 0.000000
  5 0.000000 0.997964 -4.570213 0.069813 0.000000 0.000000
  6 7.871869 -0.111284 -8.230400 -0.052360 -0.000000 0.000000
  7 -0.323623 1.552323 -25.230556 -0.034906 0.000000 0.000000
  8 0.560739 0.886398 -24.252878 0.122173 0.000000 -0.000000
  9 0.679571 -3.325401 -5.467171 0.000000 -0.000000 0.000000
 10 -7.447134 -0.111284 -7.826904 -0.104720 0.000000 -0.000000
 11 0.142383 1.330254 -25.331699 0.017453 -0.000001 0.000000
 12 0.000000 1.108467 -24.713581 0.139626 -0.000000 0.000000
 13 -0.926665 -3.325402 -4.542753 0.000000 -0.000000 0.000000
 14 -0.000000 0.997965 2.443497 0.052370 0.017411 0.001218
 15 -7.644486 1.416842 21.161728 0.569183 -0.290068 0.149638
 16 -7.649448 1.255531 -12.312477 0.029973 0.257771 0.290417
 17 -8.349895 -1.164379 -15.877785 -0.464388 -0.137408 -0.687688
 18 -1.770462 2.678689 -5.392925 -0.294160 1.155384 2.767322
 19 1.182446 113.813728 -0.750153 0.000000 -0.000000 0.000000
 20 70.480560 51.905899 -5.027859 0.000000 -0.000000 0.000000
 21 70.480560 51.905899 -5.027859 0.000000 -0.000000 0.000000
 22 -1.910847 -0.214389 -4.090000 0.000000 -0.000000 0.000000
 23 8.642279 1.364211 21.248764 -0.044039 -0.093717 -0.173018
 24 6.836393 1.339848 -12.415375 -0.391999 0.375741 -0.347369
 25 8.517094 -2.122135 -15.745991 -0.288910 0.090829 0.172798
 26 2.098619 0.181805 -4.578861 0.000000 -0.000000 0.000000
 27 0.209703 0.337634 34.883232 0.169810 -0.000000 0.000000
 28 -0.898396 8.683954 38.469421 0.204290 0.000000 0.000000
 29 -0.692529 17.155762 -9.666885 0.139626 0.000000 0.000000
 30 -0.626335 -0.748378 3.824966 0.000000 -0.000000 0.000000
 31 0.186493 5.784158 14.068840 0.017451 -0.000008 0.000304
 32 0.255036 -0.604529 7.943764 0.000000 -0.000000 0.000000
time 11
  0 -1.599601 -2.208250 -1.507164 0.000000 -0.000000 0.000000
  1 -1.599601 -2.208250 -1.507164 0.000000 -0.000000 0.000000
  2 -1.599601 -2.208250 -1.507164 0.000000 -0.000000 0.000000
  3 -3.569056 0.742170 154.046814 0.000000 -0.000000 0.000000
  4 -1.599601 -2.973366 70.701195 -0.069813 0.000000 0.000000
  5 0.000000 0.997964 -4.570213 0.069813 0.000000 0.000000
  6 7.871869 -0.111284 -8.230400 -0.052360 -0.000000 0.000000
  7 -0.323623 1.552323 -25.230556 -0.034906 0.000000 0.000000
  8 0.560739 0.886398 -24.252878 0.122173 0.000000 -0.000000
  9 0.679571 -3.325401 -5.467171 0.000000 -0.000000 0.000000
 10 -7.447134 -0.111284 -7.826904 -0.104720 0.000000 -0.000000
 11 0.142383 1.330254 -25.331699 0.017453 -0.000001 0.000000
 12 0.000000 1.108467 -24.713581 0.139626 -0.000000 0.000000
 13 -0.926665 -3.325402 -4.542753 0.000000 -0.000000 0.000000
 14 -0.000000 0.997965 2.443497 0.052370 0.017411 0.001218
 15 -7.644489 1.416841 21.161728 0.569183 -0.290068 0.149638
 16 -7.649446 1.255527 -12.312485 0.031449 0.257210 0.291103
 17 -8.349890 -1.164383 -15.877777 -0.464388 -0.137408 -0.687688
 18 -1.770460 2.678691 -5.392929 -0.294160 1.155384 2.767322
 19 1.182430 113.813690 -0.750168 0.000000 -0.000000 0.000000
 20 70.480553 51.905876 -5.027855 0.000000 -0.000000 0.000000
 21 70.480553 51.905876 -5.027855 0.000000 -0.000000 0.000000
 22 -1.910845 -0.214389 -4.090004 0.000000 -0.000000 0.000000
 23 8.642280 1.364211 21.248756 -0.044039 -0.093717 -0.173018
 24 6.836393 1.339848 -12.415375 -0.386809 0.364561 -0.344689
 25 8.517090 -2.122135 -15.745975 -0.288910 0.090829 0.172798
 26 2.098621 0.181801 -4.578861 0.000000 -0.000000 0.000000
 27 0.209703 0.337633 34.883232 0.177184 -0.000000 0.000000
 28 -0.898396 8.683954 38.469437 0.204290 0.000000 0.000000
 29 -0.692529 17.155758 -9.666893 0.139626 0.000000 0.000000
 30 -0.626336 -0.748379 3.824974 0.000000 -0.000000 0.000000
 31 0.186493 5.784158 14.068840 0.017451 -0.000008 0.000304
 32 0.255037 -0.604529 7.943756 0.000000 -0.000000 0.000000
time 12
  0 -1.599601 -2.208250 -1.507164 0.000000 -0.000000 0.000000
  1 -1.599601 -2.208250 -1.507164 0.000000 -0.000000 0.000000
  2 -1.599601 -2.208250 -1.507164 0.000000 -0.000000 0.000000
  3 -3.569056 0.742170 154.046814 0.000000 -0.000000 0.000000
  4 -1.599601 -2.973366 70.701195 -0.069813 0.000000 0.000000
  5 0.000000 0.997964 -4.570213 0.069813 0.000000 0.000000
  6 7.871869 -0.111284 -8.230400 -0.052360 -0.000000 0.000000
  7 -0.323623 1.552323 -25.230556 -0.034906 0.000000 0.000000
  8 0.560739 0.886398 -24.252878 0.122173 0.000000 -0.000000
  9 0.679571 -3.325401 -5.467171 0.000000 -0.000000 0.000000
 10 -7.447134 -0.111284 -7.826904 -0.104720 0.000000 -0.000000
 11 0.142383 1.330254 -25.331699 0.017453 -0.000001 0.000000
 12 0.000000 1.108467 -24.713581 0.139626 -0.000000 0.000000
 13 -0.926665 -3.325402 -4.542753 0.000000 -0.000000 0.000000
 14 -0.000000 0.997965 2.443497 0.052370 0.017411 0.001218
 15 -7.644487 1.416841 21.161736 0.569183 -0.290068 0.149638
 16 -7.649450 1.255527 -12.312477 0.032755 0.256716 0.291785
 17 -8.349894 -1.164383 -15.877789 -0.464388 -0.137408 -0.687688
 18 -1.770460 2.678690 -5.392925 -0.294160 1.155384 2.767322
 19 1.182457 113.813705 -0.750191 0.000000 -0.000000 0.000000
 20 70.480560 51.905899 -5.027889 0.000000 -0.000000 0.000000
 21 70.480560 51.905899 -5.027889 0.000000 -0.000000 0.000000
 22 -1.910845 -0.214390 -4.089996 0.000000 -0.000000 0.000000
 23 8.642279 1.364211 21.248764 -0.044039 -0.093717 -0.173018
 24 6.836392 1.339848 -12.415375 -0.382015 0.353385 -0.342222
 25 8.517092 -2.122135 -15.745987 -0.288910 0.090829 0.172798
 26 2.098621 0.181797 -4.578861 0.000000 -0.000000 0.000000
 27 0.209703 0.337634 34.883240 0.184512 -0.000000 0.000000
 28 -0.898396 8.683956 38.469437 0.204290 0.000000 0.000000
 29 -0.692529 17.155756 -9.666893 0.139626 0.000000 -0.000000
 30 -0.626336 -0.748377 3.824974 0.000000 -0.000000 0.000000
 31 0.186493 5.784158 14.068848 0.017451 -0.000008 0.000304
 32 0.255036 -0.604529 7.943764 0.000000 -0.000000 0.000000
time 13
  0 -1.599601 -2.208250 -1.507164 0.000000 -0.000000 0.000000
  1 -1.599601 -2.208250 -1.507164 0.000000 -0.000000 0.000000
  2 -1.599601 -2.208250 -1.507164 0.000000 -0.000000 0.000000
  3 -3.569056 0.742170 154.046814 0.000000 -0.000000 0.000000
  4 -1.599601 -2.973366 70.701195 -0.069813 0.000000 0.000000
  5 0.000000 0.997964 -4.570213 0.069813 0.000000 0.000000
  6 7.871869 -0.111284 -8.230400 -0.052360 -0.000000 0.000000
  7 -0.323623 1.552323 -25.230556 -0.034906 0.000000 0.000000
  8 0.560739 0.886398 -24.252878 0.122173 0.000000 -0.000000
  9 0.679571 -3.325401 -5.467171 0.000000 -0.000000 0.000000
 10 -7.447134 -0.111284 -7.826904 -0.104720 0.000000 -0.000000
 11 0.142383 1.330254 -25.331699 0.017453 -0.000001 0.000000
 12 0.000000 1.108467 -24.713581 0.139626 -0.000000 0.000000
 13 -0.926665 -3.325402 -4.542753 0.000000 -0.000000 0.000000
 14 -0.000000 0.997965 2.443497 0.052370 0.017411 0.001218
 15 -7.644489 1.416842 21.161728 0.569183 -0.290068 0.149638
 16 -7.649447 1.255524 -12.312485 0.033899 0.256285 0.292450
 17 -8.349894 -1.164379 -15.877781 -0.464388 -0.137408 -0.687688
 18 -1.770458 2.678688 -5.392933 -0.294160 1.155384 2.767322
 19 1.182457 113.813683 -0.750149 0.000000 -0.000000 0.000000
 20 70.480545 51.905880 -5.027847 0.000000 -0.000000 0.000000
 21 70.480545 51.905880 -5.027847 0.000000 -0.000000 0.000000
 22 -1.910841 -0.214389 -4.090008 0.000000 -0.000000 0.000000
 23 8.642280 1.364211 21.248764 -0.044039 -0.093717 -0.173018
 24 6.836392 1.339849 -12.415375 -0.377628 0.342397 -0.339972
 25 8.517089 -2.122135 -15.745983 -0.288910 0.090829 0.172798
 26 2.098619 0.181801 -4.578861 0.000000 -0.000000 0.000000
 27 0.209703 0.337634 34.883232 0.191662 -0.000000 0.000000
 28 -0.898396 8.683956 38.469421 0.204290 0.000000 0.000000
 29 -0.692529 17.155762 -9.666885 0.139626 0.000000 0.000000
 30 -0.626336 -0.748379 3.824974 0.000000 -0.000000 0.000000
 31 0.186493 5.784157 14.068840 0.017451 -0.000008 0.000304
 32 0.255037 -0.604529 7.943764 0.000000 -0.000000 0.000000
time 14
  0 -1.599601 -2.208250 -1.507164 0.000000 -0.000000 0.000000
  1 -1.599601 -2.208250 -1.507164 0.000000 -0.000000 0.000000
  2 -1.599601 -2.208250 -1.507164 0.000000 -0.000000 0.000000
  3 -3.569056 0.742170 154.046814 0.000000 -0.000000 0.000000
  4 -1.599601 -2.973366 70.701195 -0.069813 0.000000 0.000000
  5 0.000000 0.997964 -4.570213 0.069813 0.000000 0.000000
  6 7.871869 -0.111284 -8.230400 -0.052360 -0.000000 0.000000
  7 -0.323623 1.552323 -25.230556 -0.034906 0.000000 0.000000
  8 0.560739 0.886398 -24.252878 0.122173 0.000000 -0.000000
  9 0.679571 -3.325401 -5.467171 0.000000 -0.000000 0.000000
 10 -7.447134 -0.111284 -7.826904 -0.104720 0.000000 -0.000000
 11 0.142383 1.330254 -25.331699 0.017453 -0.000001 0.000000
 12 0.000000 1.108467 -24.713581 0.139626 -0.000000 0.000000
 13 -0.926665 -3.325402 -4.542753 0.000000 -0.000000 0.000000
 14 -0.000000 0.997965 2.443497 0.052370 0.017411 0.001218
 15 -7.644488 1.416842 21.161736 0.569183 -0.290068 0.149638
 16 -7.649447 1.255527 -12.312485 0.034886 0.255914 0.293087
 17 -8.349894 -1.164379 -15.877785 -0.464388 -0.137408 -0.687688
 18 -1.770458 2.678688 -5.392929 -0.294160 1.155384 2.767322
 19 1.182453 113.813705 -0.750168 0.000000 -0.000000 0.000000
 20 70.480545 51.905895 -5.027878 0.000000 -0.000000 0.000000
 21 70.480545 51.905895 -5.027878 0.000000 -0.000000 0.000000
 22 -1.910845 -0.214391 -4.090000 0.000000 -0.000000 0.000000
 23 8.642280 1.364211 21.248764 -0.044039 -0.093717 -0.173019
 24 6.836393 1.339849 -12.415375 -0.373660 0.331783 -0.337944
 25 8.517096 -2.122133 -15.745987 -0.288910 0.090829 0.172798
 26 2.098621 0.181801 -4.578865 0.000000 -0.000000 0.000000
 27 0.209703 0.337634 34.883240 0.198505 -0.000000 0.000000
 28 -0.898396 8.683954 38.469421 0.204290 0.000000 0.000000
 29 -0.692529 17.155754 -9.666901 0.139626 0.000000 0.000000
 30 -0.626335 -0.748379 3.824959 0.000000 -0.000000 0.000000
 31 0.186493 5.784158 14.068848 0.017451 -0.000008 0.000304
 32 0.255037 -0.604529 7.943764 0.000000 -0.000000 0.000000
time 15
  0 -1.599601 -2.208250 -1.507164 0.000000 -0.000000 0.000000
  1 -1.599601 -2.208250 -1.507164 0.000000 -0.000000 0.000000
  2 -1.599601 -2.208250 -1.507164 0.000000 -0.000000 0.000000
  3 -3.569056 0.742170 154.046814 0.000000 -0.000000 0.000000
  4 -1.599601 -2.973366 70.701195 -0.069813 0.000000 0.000000
  5 0.000000 0.997964 -4.570213 0.069813 0.000000 0.000000
  6 7.871869 -0.111284 -8.230400 -0.052360 -0.000000 0.000000
  7 -0.323623 1.552323 -25.230556 -0.034906 0.000000 0.000000
  8 0.560739 0.886398 -24.252878 0.122173 0.000000 -0.000000
  9 0.679571 -3.325401 -5.467171 0.000000 -0.000000 0.000000
 10 -7.447134 -0.111284 -7.826904 -0.104720 0.000000 -0.000000
 11 0.142383 1.330254 -25.331699 0.017453 -0.000001 0.000000
 12 0.000000 1.108467 -24.713581 0.139626 -0.000000 0.000000
 13 -0.926665 -3.325402 -4.542753 0.000000 -0.000000 0.000000
 14 -0.000000 0.997965 2.443497 0.052370 0.017411 0.001218
 15 -7.644486 1.416841 21.161728 0.569183 -0.290068 0.149638
 16 -7.649448 1.255527 -12.312485 0.035724 0.255600 0.293683
 17 -8.349894 -1.164375 -15.877781 -0.464388 -0.137408 -0.687688
 18 -1.770458 2.678689 -5.392921 -0.294160 1.155384 2.767322
 19 1.182453 113.813690 -0.750179 0.000000 -0.000000 0.000000
 20 70.480545 51.905884 -5.027885 0.000000 -0.000000 0.000000
 21 70.480545 51.905884 -5.027885 0.000000 -0.000000 0.000000
 22 -1.910843 -0.214390 -4.089996 0.000000 -0.000000 0.000000
 23 8.642279 1.364211 21.248764 -0.044039 -0.093717 -0.173018
 24 6.836393 1.339848 -12.415375 -0.370120 0.321730 -0.336140
 25 8.517093 -2.122135 -15.745987 -0.288910 0.090829 0.172798
 26 2.098619 0.181801 -4.578857 0.000000 -0.000000 0.000000
 27 0.209703 0.337634 34.883232 0.204909 -0.000000 0.000000
 28 -0.898396 8.683956 38.469429 0.204290 0.000000 0.000000
 29 -0.692529 17.155762 -9.666893 0.139626 0.000000 0.000000
 30 -0.626335 -0.748377 3.824974 0.000000 -0.000000 0.000000
 31 0.186493 5.784158 14.068840 0.017451 -0.000008 0.000304
 32 0.255036 -0.604529 7.943764 0.000000 -0.000000 0.000000
time 16
  0 -1.599601 -2.208250 -1.507164 0.000000 -0.000000 0.000000
  1 -1.599601 -2.208250 -1.507164 0.000000 -0.000000 0.000000
  2 -1.599601 -2.208250 -1.507164 0.000000 -0.000000 0.000000
  3 -3.569056 0.742170 154.046814 0.000000 -0.000000 0.000000
  4 -1.599601 -2.973366 70.701195 -0.069813 0.000000 0.000000
  5 0.000000 0.997964 -4.570213 0.069813 0.000000 0.000000
  6 7.871869 -0.111284 -8.230400 -0.052360 -0.000000 0.000000
  7 -0.323623 1.552323 -25.230556 -0.034906 0.000000 0.000000
  8 0.560739 0.886398 -24.252878 0.122173 0.000000 -0.000000
  9 0.679571 -3.325401 -5.467171 0.000000 -0.000000 0.000000
 10 -7.447134 -0.111284 -7.826904 -0.104720 0.000000 -0.000000
 11 0.142383 1.330254 -25.331699 0.017453 -0.000001 0.000000
 12 0.000000 1.108467 -24.713581 0.139626 -0.000000 0.000000
 13 -0.926665 -3.325402 -4.542753 0.000000 -0.000000 0.000000
 14 -0.000000 0.997965 2.443497 0.052370 0.017411 0.001218
 15 -7.644489 1.416841 21.161728 0.569183 -0.290068 0.149638
 16 -7.649450 1.255524 -12.312477 0.036419 0.255341 0.294226
 17 -8.349896 -1.164379 -15.877781 -0.464388 -0.137408 -0.687688
 18 -1.770460 2.678690 -5.392929 -0.294160 1.155384 2.767322
 19 1.182449 113.813713 -0.750172 0.000000 -0.000000 0.000000
 20 70.480553 51.905891 -5.027889 0.000000 -0.000000 0.000000
 21 70.480553 51.905891 -5.027889 0.000000 -0.000000 0.000000
 22 -1.910847 -0.214390 -4.090008 0.000000 -0.000000 0.000000
 23 8.642280 1.364211 21.248764 -0.044039 -0.093717 -0.173018
 24 6.836394 1.339849 -12.415375 -0.367019 0.312423 -0.334566
 25 8.517092 -2.122131 -15.745979 -0.288910 0.090829 0.172798
 26 2.098623 0.181805 -4.578865 0.000000 -0.000000 0.000000
 27 0.209703 0.337633 34.883232 0.210746 -0.000000 0.000000
 28 -0.898396 8.683956 38.469444 0.204290 0.000000 0.000000
 29 -0.692529 17.155758 -9.666901 0.139626 0.000000 -0.000000
 30 -0.626336 -0.748379 3.824966 0.000000 -0.000000 0.000000
 31 0.186493 5.784158 14.068840 0.017451 -0.000008 0.000304
 32 0.255037 -0.604529 7.943764 0.000000 -0.000000 0.000000
time 17
  0 -1.599601 -2.208250 -1.507164 0.000000 -0.000000 0.000000
  1 -1.599601 -2.208250 -1.507164 0.000000 -0.000000 0.000000
  2 -1.599601 -2.208250 -1.507164 0.000000 -0.000000 0.000000
  3 -3.569056 0.742170 154.046814 0.000000 -0.000000 0.000000
  4 -1.599601 -2.973366 70.701195 -0.069813 0.000000 0.000000
  5 0.000000 0.997964 -4.570213 0.069813 0.000000 0.000000
  6 7.871869 -0.111284 -8.230400 -0.052360 -0.000000 0.000000
  7 -0.323623 1.552323 -25.230556 -0.034906 0.000000 0.000000
  8 0.560739 0.886398 -24.252878 0.122173 0.000000 -0.000000
  9 0.679571 -3.325401 -5.467171 0.000000 -0.000000 0.000000
 10 -7.447134 -0.111284 -7.826904 -0.104720 0.000000 -0.000000
 11 0.142383 1.330254 -25.331699 0.017453 -0.000001 0.000000
 12 0.000000 1.108467 -24.713581 0.139626 -0.000000 0.000000
 13 -0.926665 -3.325402 -4.542753 0.000000 -0.000000 0.000000
 14 -0.000000 0.997965 2.443497 0.052370 0.017411 0.001218
 15 -7.644488 1.416841 21.161728 0.569183 -0.290068 0.149638
 16 -7.649446 1.255527 -12.312485 0.036978 0.255133 0.294704
 17 -8.349891 -1.164379 -15.877785 -0.464388 -0.137408 -0.687688
 18 -1.770460 2.678689 -5.392929 -0.294160 1.155384 2.767322
 19 1.182438 113.813721 -0.750168 0.000000 -0.000000 0.000000
 20 70.480537 51.905891 -5.027882 0.000000 -0.000000 0.000000
 21 70.480537 51.905891 -5.027882 0.000000 -0.000000 0.000000
 22 -1.910843 -0.214389 -4.090000 0.000000 -0.000000 0.000000
 23 8.642280 1.364211 21.248756 -0.044039 -0.093717 -0.173018
 24 6.836395 1.339849 -12.415375 -0.364368 0.304047 -0.333225
 25 8.517094 -2.122137 -15.745983 -0.288910 0.090829 0.172798
 26 2.098621 0.181801 -4.578861 0.000000 -0.000000 0.000000
 27 0.209704 0.337633 34.883232 0.215883 -0.000000 0.000000
 28 -0.898396 8.683950 38.469437 0.204290 0.000000 0.000000
 29 -0.692529 17.155764 -9.666885 0.139626 0.000000 0.000000
 30 -0.626336 -0.748377 3.824974 0.000000 -0.000000 0.000000
 31 0.186494 5.784158 14.068840 0.017451 -0.000008 0.000304
 32 0.255037 -0.604529 7.943756 0.000000 -0.000000 0.000000
time 18
  0 -1.599601 -2.208250 -1.507164 0.000000 -0.000000 0.000000
  1 -1.599601 -2.208250 -1.507164 0.000000 -0.000000 0.000000
  2 -1.599601 -2.208250 -1.507164 0.000000 -0.000000 0.000000
  3 -3.569056 0.742170 154.046814 0.000000 -0.000000 0.000000
  4 -1.599601 -2.973366 70.701195 -0.069813 0.000000 0.000000
  5 0.000000 0.997964 -4.570213 0.069813 0.000000 0.000000
  6 7.871869 -0.111284 -8.230400 -0.052360 -0.000000 0.000000
  7 -0.323623 1.552323 -25.230556 -0.034906 0.000000 0.000000
  8 0.560739 0.886398 -24.252878 0.122173 0.000000 -0.000000
  9 0.679571 -3.325401 -5.467171 0.000000 -0.000000 0.000000
 10 -7.447134 -0.111284 -7.826904 -0.104720 0.000000 -0.000000
 11 0.142383 1.330254 -25.331699 0.017453 -0.000001 0.000000
 12 0.000000 1.108467 -24.713581 0.139626 -0.000000 0.000000
 13 -0.926665 -3.325402 -4.542753 0.000000 -0.000000 0.000000
 14 -0.000000 0.997965 2.443497 0.052370 0.017411 0.001218
 15 -7.644486 1.416841 21.161728 0.569183 -0.290068 0.149638
 16 -7.649446 1.255524 -12.312485 0.037408 0.254975 0.295105
 17 -8.349892 -1.164383 -15.877785 -0.464388 -0.137408 -0.687688
 18 -1.770458 2.678692 -5.392925 -0.294160 1.155384 2.767322
 19 1.182423 113.813705 -0.750145 0.000000 -0.000000 0.000000
 20 70.480537 51.905880 -5.027866 0.000000 -0.000000 0.000000
 21 70.480537 51.905880 -5.027866 0.000000 -0.000000 0.000000
 22 -1.910845 -0.214388 -4.090000 0.000000 -0.000000 0.000000
 23 8.642279 1.364211 21.248764 -0.044039 -0.093717 -0.173018
 24 6.836392 1.339849 -12.415382 -0.362179 0.296790 -0.332120
 25 8.517092 -2.122135 -15.745975 -0.288910 0.090829 0.172798
 26 2.098619 0.181797 -4.578861 0.000000 -0.000000 0.000000
 27 0.209703 0.337633 34.883232 0.220191 -0.000000 0.000000
 28 -0.898396 8.683947 38.469421 0.204290 0.000000 0.000000
 29 -0.692529 17.155760 -9.666901 0.139626 0.000000 0.000000
 30 -0.626335 -0.748381 3.824966 0.000000 -0.000000 0.000000
 31 0.186493 5.784158 14.068840 0.017451 -0.000008 0.000304
 32 0.255036 -0.604529 7.943764 0.000000 -0.000000 0.000000
time 19
  0 -1.599601 -2.208250 -1.507164 0.000000 -0.000000 0.000000
  1 -1.599601 -2.208250 -1.507164 0.000000 -0.000000 0.000000
  2 -1.599601 -2.208250 -1.507164 0.000000 -0.000000 0.000000
  3 -3.569056 0.742170 154.046814 0.000000 -0.000000 0.000000
  4 -1.599601 -2.973366 70.701195 -0.069813 0.000000 0.000000
  5 0.000000 0.997964 -4.570213 0.069813 0.000000 0.000000
  6 7.871869 -0.111284 -8.230400 -0.052360 -0.000000 0.000000
  7 -0.323623 1.552323 -25.230556 -0.034906 0.000000 0.000000
  8 0.560739 0.886398 -24.252878 0.122173 0.000000 -0.000000
  9 0.679571 -3.325401 -5.467171 0.000000 -0.000000 0.000000
 10 -7.447134 -0.111284 -7.826904 -0.104720 0.000000 -0.000000
 11 0.142383 1.330254 -25.331699 0.017453 -0.000001 0.000000
 12 0.000000 1.108467 -24.713581 0.139626 -0.000000 0.000000
 13 -0.926665 -3.325402 -4.542753 0.000000 -0.000000 0.000000
 14 -0.000000 0.997965 2.443497 0.052370 0.017411 0.001218
 15 -7.644489 1.416841 21.161728 0.569183 -0.290068 0.149638
 16 -7.649450 1.255531 -12.312485 0.037714 0.254862 0.295417
 17 -8.349895 -1.164379 -15.877781 -0.464388 -0.137408 -0.687688
 18 -1.770460 2.678693 -5.392918 -0.294160 1.155384 2.767322
 19 1.182415 113.813736 -0.750160 0.000000 -0.000000 0.000000
 20 70.480530 51.905876 -5.027863 0.000000 -0.000000 0.000000
 21 70.480530 51.905876 -5.027863 0.000000 -0.000000 0.000000
 22 -1.910843 -0.214389 -4.089993 0.000000 -0.000000 0.000000
 23 8.642280 1.364211 21.248764 -0.044039 -0.093717 -0.173018
 24 6.836395 1.339849 -12.415375 -0.360460 0.290836 -0.331256
 25 8.517093 -2.122135 -15.745991 -0.288910 0.090829 0.172798
 26 2.098619 0.181797 -4.578861 0.000000 -0.000000 0.000000
 27 0.209704 0.337633 34.883232 0.223540 -0.000000 0.000000
 28 -0.898395 8.683949 38.469421 0.204290 0.000000 0.000000
 29 -0.692529 17.155760 -9.666893 0.139626 0.000000 -0.000000
 30 -0.626336 -0.748377 3.824974 0.000000 -0.000000 0.000000
 31 0.186493 5.784158 14.068840 0.017451 -0.000008 0.000304
 32 0.255037 -0.604529 7.943764 0.000000 -0.000000 0.000000
time 20
  0 -1.599601 -2.208250 -1.507164 0.000000 -0.000000 0.000000
  1 -1.599601 -2.208250 -1.507164 0.000000 -0.000000 0.000000
  2 -1.599601 -2.208250 -1.507164 0.000000 -0.000000 0.000000
  3 -3.569056 0.742170 154.046814 0.000000 -0.000000 0.000000
  4 -1.599601 -2.973366 70.701195 -0.069813 0.000000 0.000000
  5 0.000000 0.997964 -4.570213 0.069813 0.000000 0.000000
  6 7.871869 -0.111284 -8.230400 -0.052360 -0.000000 0.000000
  7 -0.323623 1.552324 -25.230556 -0.034906 0.000000 0.000000
  8 0.560739 0.886398 -24.252878 0.122173 0.000000 -0.000000
  9 0.679571 -3.325401 -5.467171 0.000000 -0.000000 0.000000
 10 -7.447134 -0.111284 -7.826904 -0.104720 0.000000 -0.000000
 11 0.142383 1.330254 -25.331699 0.017453 -0.000001 0.000000
 12 0.000000 1.108467 -24.713581 0.139626 -0.000000 0.000000
 13 -0.926665 -3.325402 -4.542753 0.000000 -0.000000 0.000000
 14 -0.000000 0.997965 2.443497 0.052370 0.017411 0.001218
 15 -7.644488 1.416841 21.161728 0.569183 -0.290068 0.149638
 16 -7.649449 1.255524 -12.312485 0.037905 0.254793 0.295627
 17 -8.349895 -1.164383 -15.877781 -0.464388 -0.137408 -0.687688
 18 -1.770458 2.678690 -5.392933 -0.294160 1.155384 2.767322
 19 1.182449 113.813698 -0.750137 0.000000 -0.000000 0.000000
 20 70.480545 51.905891 -5.027870 0.000000 -0.000000 0.000000
 21 70.480545 51.905891 -5.027870 0.000000 -0.000000 0.000000
 22 -1.910843 -0.214390 -4.090008 0.000000 -0.000000 0.000000
 23 8.642280 1.364211 21.248764 -0.044039 -0.093717 -0.173018
 24 6.836395 1.339849 -12.415375 -0.359224 0.286371 -0.330637
 25 8.517095 -2.122135 -15.745987 -0.288910 0.090829 0.172798
 26 2.098621 0.181801 -4.578865 0.000000 -0.000000 0.000000
 27 0.209704 0.337633 34.883232 0.225799 -0.000000 0.000000
 28 -0.898396 8.683950 38.469421 0.204290 0.000000 0.000000
 29 -0.692529 17.155758 -9.666893 0.139626 0.000000 0.000000
 30 -0.626336 -0.748379 3.824974 0.000000 -0.000000 0.000000
 31 0.186494 5.784158 14.068840 0.017451 -0.000008 0.000304
 32 0.255037 -0.604529 7.943764 0.000000 -0.000000 0.000000
time 21
  0 -1.599601 -2.208250 -1.507164 0.000000 -0.000000 0.000000
  1 -1.599601 -2.208250 -1.507164 0.000000 -0.000000 0.000000
  2 -1.599601 -2.208250 -1.507164 0.000000 -0.000000 0.000000
  3 -3.569056 0.742170 154.046814 0.000000 -0.000000 0.000000
  4 -1.599601 -2.973366 70.701195 -0.069813 0.000000 0.000000
  5 0.000000 0.997964 -4.570213 0.069813 0.000000 0.000000
  6 7.871869 -0.111284 -8.230400 -0.052360 -0.000000 0.000000
  7 -0.323623 1.552324 -25.230556 -0.034906 0.000000 0.000000
  8 0.560739 0.886398 -24.252878 0.122173 0.000000 -0.000000
  9 0.679571 -3.325401 -5.467171 0.000000 -0.000000 0.000000
 10 -7.447134 -0.111284 -7.826904 -0.104720 0.000000 -0.000000
 11 0.142383 1.330254 -25.331699 0.017453 -0.000001 0.000000
 12 0.000000 1.108467 -24.713581 0.139626 -0.000000 0.000000
 13 -0.926665 -3.325402 -4.542753 0.000000 -0.000000 0.000000
 14 -0.000000 0.997965 2.443497 0.052370 0.017411 0.001218
 15 -7.644488 1.416841 21.161728 0.569183 -0.290068 0.149638
 16 -7.649447 1.255527 -12.312485 0.037986 0.254763 0.295723
 17 -8.349895 -1.164379 -15.877796 -0.464388 -0.137408 -0.687688
 18 -1.770458 2.678692 -5.392929 -0.294160 1.155384 2.767322
 19 1.182415 113.813721 -0.750141 0.000000 -0.000000 0.000000
 20 70.480560 51.905872 -5.027885 0.000000 -0.000000 0.000000
 21 70.480560 51.905872 -5.027885 0.000000 -0.000000 0.000000
 22 -1.910843 -0.214388 -4.089996 0.000000 -0.000000 0.000000
 23 8.642280 1.364211 21.248764 -0.044039 -0.093717 -0.173018
 24 6.836395 1.339849 -12.415375 -0.358481 0.283582 -0.330265
 25 8.517090 -2.122133 -15.745991 -0.288910 0.090829 0.172798
 26 2.098619 0.181801 -4.578861 0.000000 -0.000000 0.000000
 27 0.209704 0.337633 34.883232 0.226838 0.000000 0.000000
 28 -0.898396 8.683950 38.469421 0.204290 0.000000 0.000000
 29 -0.692529 17.155756 -9.666893 0.139626 0.000000 0.000000
 30 -0.626335 -0.748379 3.824966 0.000000 -0.000000 0.000000
 31 0.186494 5.784158 14.068840 0.017451 -0.000008 0.000304
 32 0.255037 -0.604529 7.943764 0.000000 -0.000000 0.000000
time 22
  0 -1.599601 -2.208250 -1.507164 0.000000 -0.000000 0.000000
  1 -1.599601 -2.208250 -1.507164 0.000000 -0.000000 0.000000
  2 -1.599601 -2.208250 -1.507164 0.000000 -0.000000 0.000000
  3 -3.569056 0.742170 154.046814 0.000000 -0.000000 0.000000
  4 -1.599601 -2.973366 70.701195 -0.069813 0.000000 0.000000
  5 0.000000 0.997964 -4.570213 0.069813 0.000000 0.000000
  6 7.871869 -0.111284 -8.230400 -0.052360 -0.000000 0.000000
  7 -0.323623 1.552324 -25.230556 -0.034906 0.000000 0.000000
  8 0.560739 0.886398 -24.252878 0.122173 0.000000 -0.000000
  9 0.679571 -3.325401 -5.467171 0.000000 -0.000000 0.000000
 10 -7.447134 -0.111284 -7.826904 -0.104720 0.000000 -0.000000
 11 0.142383 1.330254 -25.331699 0.017453 -0.000001 0.000000
 12 0.000000 1.108467 -24.713581 0.139626 -0.000000 0.000000
 13 -0.926665 -3.325402 -4.542753 0.000000 -0.000000 0.000000
 14 -0.000000 0.997965 2.443497 0.052370 0.017411 0.001218
 15 -7.644489 1.416841 21.161728 0.569183 -0.290068 0.149638
 16 -7.649449 1.255527 -12.312485 0.037985 0.254769 0.295686
 17 -8.349899 -1.164383 -15.877792 -0.464388 -0.137408 -0.687688
 18 -1.770458 2.678690 -5.392929 -0.294160 1.155384 2.767322
 19 1.182449 113.813690 -0.750134 0.000000 -0.000000 0.000000
 20 70.480560 51.905888 -5.027870 0.000000 -0.000000 0.000000
 21 70.480560 51.905888 -5.027870 0.000000 -0.000000 0.000000
 22 -1.910843 -0.214390 -4.090000 0.000000 -0.000000 0.000000
 23 8.642280 1.364211 21.248756 -0.044039 -0.093717 -0.173018
 24 6.836395 1.339849 -12.415375 -0.358242 0.282654 -0.330146
 25 8.517091 -2.122137 -15.745983 -0.288910 0.090829 0.172798
 26 2.098619 0.181797 -4.578861 0.000000 -0.000000 0.000000
 27 0.209704 0.337634 34.883232 0.226441 -0.000000 0.000000
 28 -0.898396 8.683949 38.469429 0.204290 0.000000 0.000000
 29 -0.692530 17.155756 -9.666885 0.139626 0.000000 0.000000
 30 -0.626336 -0.748379 3.824974 0.000000 -0.000000 0.000000
 31 0.186494 5.784156 14.068840 0.017451 -0.000008 0.000304
 32 0.255037 -0.604528 7.943756 0.000000 -0.000000 0.000000
time 23
  0 -1.599601 -2.208250 -1.507164 0.000000 -0.000000 0.000000
  1 -1.599601 -2.208250 -1.507164 0.000000 -0.000000 0.000000
  2 -1.599601 -2.208250 -1.507164 0.000000 -0.000000 0.000000
  3 -3.569056 0.742170 154.046814 0.000000 -0.000000 0.000000
  4 -1.599601 -2.973366 70.701195 -0.069813 0.000000 0.000000
  5 0.000000 0.997964 -4.570213 0.069813 0.000000 0.000000
  6 7.871869 -0.111284 -8.230400 -0.052360 -0.000000 0.000000
  7 -0.323623 1.552324 -25.230556 -0.034906 0.000000 0.000000
  8 0.560739 0.886398 -24.252878 0.122173 0.000000 -0.000000
  9 0.679571 -3.325401 -5.467171 0.000000 -0.000000 0.000000
 10 -7.447134 -0.111284 -7.826904 -0.104720 0.000000 -0.000000
 11 0.142383 1.330254 -25.331699 0.017453 -0.000001 0.000000
 12 0.000000 1.108467 -24.713581 0.139626 -0.000000 0.000000
 13 -0.926665 -3.325402 -4.542753 0.000000 -0.000000 0.000000
 14 -0.000000 0.997965 2.443497 0.052370 0.017411 0.001218
 15 -7.644489 1.416841 21.161728 0.569183 -0.290068 0.149638
 16 -7.649449 1.255524 -12.312477 0.037948 0.254807 0.295497
 17 -8.349894 -1.164375 -15.877789 -0.464388 -0.137408 -0.687688
 18 -1.770458 2.678689 -5.392925 -0.294160 1.155384 2.767322
 19 1.182419 113.813705 -0.750153 0.000000 -0.000000 0.000000
 20 70.480545 51.905876 -5.027885 0.000000 -0.000000 0.000000
 21 70.480545 51.905876 -5.027885 0.000000 -0.000000 0.000000
 22 -1.910845 -0.214388 -4.090000 0.000000 -0.000000 0.000000
 23 8.642280 1.364211 21.248764 -0.044039 -0.093717 -0.173018
 24 6.836395 1.339849 -12.415382 -0.358918 0.284202 -0.330494
 25 8.517091 -2.122137 -15.745987 -0.288910 0.090829 0.172798
 26 2.098619 0.181801 -4.578865 0.000000 -0.000000 0.000000
 27 0.209704 0.337634 34.883232 0.224406 -0.000000 0.000000
 28 -0.898396 8.683954 38.469429 0.204290 0.000000 0.000000
 29 -0.692529 17.155762 -9.666901 0.139626 0.000000 -0.000000
 30 -0.626336 -0.748379 3.824966 0.000000 -0.000000 0.000000
 31 0.186494 5.784158 14.068840 0.017451 -0.000008 0.000304
 32 0.255037 -0.604529 7.943764 0.000000 -0.000000 0.000000
time 24
  0 -1.599601 -2.208250 -1.507164 0.000000 -0.000000 0.000000
  1 -1.599601 -2.208250 -1.507164 0.000000 -0.000000 0.000000
  2 -1.599601 -2.208250 -1.507164 0.000000 -0.000000 0.000000
  3 -3.569056 0.742170 154.046814 0.000000 -0.000000 0.000000
  4 -1.599601 -2.973366 70.701195 -0.069813 0.000000 0.000000
  5 0.000000 0.997964 -4.570213 0.069813 0.000000 0.000000
  6 7.871869 -0.111284 -8.230400 -0.052360 -0.000000 0.000000
  7 -0.323623 1.552324 -25.230556 -0.034906 0.000000 0.000000
  8 0.560739 0.886398 -24.252878 0.122173 0.000000 -0.000000
  9 0.679571 -3.325401 -5.467171 0.000000 -0.000000 0.000000
 10 -7.447134 -0.111284 -7.826904 -0.104720 0.000000 -0.000000
 11 0.142383 1.330254 -25.331699 0.017453 -0.000001 0.000000
 12 0.000000 1.108467 -24.713581 0.139626 -0.000000 0.000000
 13 -0.926665 -3.325402 -4.542753 0.000000 -0.000000 0.000000
 14 -0.000000 0.997965 2.443497 0.052370 0.017411 0.001218
 15 -7.644489 1.416841 21.161728 0.569183 -0.290068 0.149638
 16 -7.649449 1.255527 -12.312485 0.037850 0.254884 0.295172
 17 -8.349896 -1.164375 -15.877785 -0.464388 -0.137408 -0.687688
 18 -1.770458 2.678691 -5.392929 -0.294160 1.155384 2.767322
 19 1.182430 113.813721 -0.750160 0.000000 -0.000000 0.000000
 20 70.480553 51.905880 -5.027882 0.000000 -0.000000 0.000000
 21 70.480553 51.905880 -5.027882 0.000000 -0.000000 0.000000
 22 -1.910843 -0.214388 -4.090004 0.000000 -0.000000 0.000000
 23 8.642280 1.364211 21.248764 -0.044039 -0.093717 -0.173019
 24 6.836395 1.339849 -12.415375 -0.360790 0.288433 -0.331459
 25 8.517093 -2.122137 -15.745987 -0.288910 0.090829 0.172798
 26 2.098618 0.181805 -4.578861 0.000000 -0.000000 0.000000
 27 0.209704 0.337634 34.883232 0.220907 -0.000000 0.000000
 28 -0.898396 8.683950 38.469421 0.204290 0.000000 0.000000
 29 -0.692529 17.155760 -9.666901 0.139626 0.000000 -0.000000
 30 -0.626336 -0.748379 3.824966 0.000000 -0.000000 0.000000
 31 0.186494 5.784158 14.068840 0.017451 -0.000008 0.000304
 32 0.255037 -0.604529 7.943764 0.000000 -0.000000 0.000000
time 25
  0 -1.599601 -2.208250 -1.507164 0.000000 -0.000000 0.000000
  1 -1.599601 -2.208250 -1.507164 0.000000 -0.000000 0.000000
  2 -1.599601 -2.208250 -1.507164 0.000000 -0.000000 0.000000
  3 -3.569056 0.742170 154.046814 0.000000 -0.000000 0.000000
  4 -1.599601 -2.973366 70.701195 -0.069813 0.000000 0.000000
  5 0.000000 0.997964 -4.570213 0.069813 0.000000 0.000000
  6 7.871869 -0.111284 -8.230400 -0.052360 -0.000000 0.000000
  7 -0.323623 1.552324 -25.230556 -0.034906 0.000000 0.000000
  8 0.560739 0.886398 -24.252878 0.122173 0.000000 -0.000000
  9 0.679571 -3.325401 -5.467171 0.000000 -0.000000 0.000000
 10 -7.447134 -0.111284 -7.826904 -0.104720 0.000000 -0.000000
 11 0.142383 1.330254 -25.331699 0.017453 -0.000001 0.000000
 12 0.000000 1.108467 -24.713581 0.139626 -0.000000 0.000000
 13 -0.926665 -3.325402 -4.542753 0.000000 -0.000000 0.000000
 14 -0.000000 0.997965 2.443497 0.052370 0.017411 0.001218
 15 -7.644489 1.416841 21.161728 0.569183 -0.290068 0.149638
 16 -7.649449 1.255524 -12.312477 0.037662 0.255008 0.294728
 17 -8.349896 -1.164379 -15.877785 -0.464388 -0.137408 -0.687688
 18 -1.770458 2.678692 -5.392925 -0.294160 1.155384 2.767322
 19 1.182419 113.813713 -0.750130 0.000000 -0.000000 0.000000
 20 70.480553 51.905876 -5.027870 0.000000 -0.000000 0.000000
 21 70.480553 51.905876 -5.027870 0.000000 -0.000000 0.000000
 22 -1.910843 -0.214388 -4.090000 0.000000 -0.000000 0.000000
 23 8.642282 1.364211 21.248764 -0.044039 -0.093717 -0.173019
 24 6.836395 1.339849 -12.415375 -0.363748 0.295011 -0.332985
 25 8.517091 -2.122137 -15.745983 -0.288910 0.090829 0.172798
 26 2.098619 0.181797 -4.578865 0.000000 -0.000000 0.000000
 27 0.209704 0.337633 34.883232 0.216135 -0.000000 0.000000
 28 -0.898396 8.683950 38.469421 0.204290 0.000000 0.000000
 29 -0.692529 17.155760 -9.666893 0.139626 0.000000 -0.000000
 30 -0.626336 -0.748379 3.824974 0.000000 -0.000000 0.000000
 31 0.186493 5.784158 14.068840 0.017451 -0.000008 0.000304
 32 0.255037 -0.604529 7.943764 0.000000 -0.000000 0.000000
time 26
  0 -1.599601 -2.208250 -1.507164 0.000000 -0.000000 0.000000
  1 -1.599601 -2.208250 -1.507164 0.000000 -0.000000 0.000000
  2 -1.599601 -2.208250 -1.507164 0.000000 -0.000000 0.000000
  3 -3.569056 0.742170 154.046814 0.000000 -0.000000 0.000000
  4 -1.599601 -2.973366 70.701195 -0.069813 0.000000 0.000000
  5 0.000000 0.997964 -4.570213 0.069813 0.000000 0.000000
  6 7.871869 -0.111284 -8.230400 -0.052360 -0.000000 0.000000
  7 -0.323623 1.552324 -25.230556 -0.034906 0.000000 0.000000
  8 0.560739 0.886398 -24.252878 0.122173 0.000000 -0.000000
  9 0.679571 -3.325401 -5.467171 0.000000 -0.000000 0.000000
 10 -7.447134 -0.111284 -7.826904 -0.104720 0.000000 -0.000000
 11 0.142383 1.330254 -25.331699 0.017453 -0.000001 0.000000
 12 0.000000 1.108467 -24.713581 0.139626 -0.000000 0.000000
 13 -0.926665 -3.325402 -4.542753 0.000000 -0.000000 0.000000
 14 -0.000000 0.997965 2.443497 0.052370 0.017411 0.001218
 15 -7.644489 1.416841 21.161728 0.569183 -0.290068 0.149638
 16 -7.649450 1.255527 -12.312485 0.037355 0.255187 0.294183
 17 -8.349895 -1.164375 -15.877792 -0.464388 -0.137408 -0.687688
 18 -1.770460 2.678693 -5.392929 -0.294160 1.155384 2.767322
 19 1.182430 113.813736 -0.750164 0.000000 -0.000000 0.000000
 20 70.480560 51.905888 -5.027901 0.000000 -0.000000 0.000000
 21 70.480560 51.905888 -5.027901 0.000000 -0.000000 0.000000
 22 -1.910843 -0.214389 -4.090004 0.000000 -0.000000 0.000000
 23 8.642280 1.364211 21.248764 -0.044039 -0.093717 -0.173019
 24 6.836394 1.339849 -12.415375 -0.367682 0.303600 -0.335015
 25 8.517095 -2.122135 -15.745983 -0.288910 0.090829 0.172798
 26 2.098619 0.181801 -4.578865 0.000000 -0.000000 0.000000
 27 0.209703 0.337633 34.883232 0.210283 -0.000000 0.000000
 28 -0.898396 8.683952 38.469429 0.204290 0.000000 0.000000
 29 -0.692529 17.155758 -9.666893 0.139626 0.000000 0.000000
 30 -0.626335 -0.748379 3.824974 0.000000 -0.000000 0.000000
 31 0.186493 5.784158 14.068840 0.017451 -0.000008 0.000304
 32 0.255036 -0.604529 7.943764 0.000000 -0.000000 0.000000
time 27
  0 -1.599601 -2.208250 -1.507164 0.000000 -0.000000 0.000000
  1 -1.599601 -2.208250 -1.507164 0.000000 -0.000000 0.000000
  2 -1.599601 -2.208250 -1.507164 0.000000 -0.000000 0.000000
  3 -3.569056 0.742170 154.046814 0.000000 -0.000000 0.000000
  4 -1.599601 -2.973366 70.701195 -0.069813 0.000000 0.000000
  5 0.000000 0.997964 -4.570213 0.069813 0.000000 0.000000
  6 7.871869 -0.111284 -8.230400 -0.052360 -0.000000 0.000000
  7 -0.323623 1.552324 -25.230556 -0.034906 0.000000 0.000000
  8 0.560739 0.886398 -24.252878 0.122173 0.000000 -0.000000
  9 0.679571 -3.325401 -5.467171 0.000000 -0.000000 0.000000
 10 -7.447134 -0.111284 -7.826904 -0.104720 0.000000 -0.000000
 11 0.142383 1.330254 -25.331699 0.017453 -0.000001 0.000000
 12 0.000000 1.108467 -24.713581 0.139626 -0.000000 0.000000
 13 -0.926665 -3.325402 -4.542753 0.000000 -0.000000 0.000000
 14 -0.000000 0.997965 2.443497 0.052370 0.017411 0.001218
 15 -7.644489 1.416841 21.161736 0.569183 -0.290068 0.149638
 16 -7.649449 1.255527 -12.312485 0.036900 0.255428 0.293556
 17 -8.349894 -1.164383 -15.877792 -0.464388 -0.137408 -0.687688
 18 -1.770456 2.678692 -5.392933 -0.294160 1.155384 2.767322
 19 1.182407 113.813728 -0.750172 0.000000 -0.000000 0.000000
 20 70.480545 51.905876 -5.027901 0.000000 -0.000000 0.000000
 21 70.480545 51.905876 -5.027901 0.000000 -0.000000 0.000000
 22 -1.910841 -0.214388 -4.090008 0.000000 -0.000000 0.000000
 23 8.642280 1.364211 21.248764 -0.044039 -0.093717 -0.173018
 24 6.836391 1.339848 -12.415375 -0.372480 0.313865 -0.337494
 25 8.517095 -2.122133 -15.745983 -0.288910 0.090829 0.172798
 26 2.098621 0.181801 -4.578861 0.000000 -0.000000 0.000000
 27 0.209703 0.337633 34.883240 0.203542 -0.000000 0.000000
 28 -0.898396 8.683954 38.469444 0.204290 0.000000 0.000000
 29 -0.692529 17.155758 -9.666893 0.139626 0.000000 -0.000000
 30 -0.626336 -0.748377 3.824974 0.000000 -0.000000 0.000000
 31 0.186493 5.784158 14.068848 0.017451 -0.000008 0.000304
 32 0.255037 -0.604529 7.943764 0.000000 -0.000000 0.000000
time 28
  0 -1.599601 -2.208250 -1.507164 0.000000 -0.000000 0.000000
  1 -1.599601 -2.208250 -1.507164 0.000000 -0.000000 0.000000
  2 -1.599601 -2.208250 -1.507164 0.000000 -0.000000 0.000000
  3 -3.569056 0.742170 154.046814 0.000000 -0.000000 0.000000
  4 -1.599601 -2.973366 70.701195 -0.069813 0.000000 0.000000
  5 0.000000 0.997964 -4.570213 0.069813 0.000000 0.000000
  6 7.871869 -0.111284 -8.230400 -0.052360 -0.000000 0.000000
  7 -0.323623 1.552324 -25.230556 -0.034906 0.000000 0.000000
  8 0.560739 0.886398 -24.252878 0.122173 0.000000 -0.000000
  9 0.679571 -3.325401 -5.467171 0.000000 -0.000000 0.000000
 10 -7.447134 -0.111284 -7.826904 -0.104720 0.000000 -0.000000
 11 0.142383 1.330254 -25.331699 0.017453 -0.000001 0.000000
 12 0.000000 1.108467 -24.713581 0.139626 -0.000000 0.000000
 13 -0.926665 -3.325402 -4.542753 0.000000 -0.000000 0.000000
 14 -0.000000 0.997965 2.443497 0.052370 0.017411 0.001218
 15 -7.644489 1.416841 21.161736 0.569183 -0.290068 0.149638
 16 -7.649449 1.255527 -12.312485 0.036269 0.255738 0.292864
 17 -8.349895 -1.164379 -15.877792 -0.464388 -0.137408 -0.687688
 18 -1.770460 2.678691 -5.392937 -0.294160 1.155384 2.767322
 19 1.182423 113.813698 -0.750160 0.000000 -0.000000 0.000000
 20 70.480560 51.905872 -5.027889 0.000000 -0.000000 0.000000
 21 70.480560 51.905872 -5.027889 0.000000 -0.000000 0.000000
 22 -1.910845 -0.214388 -4.090008 0.000000 -0.000000 0.000000
 23 8.642282 1.364211 21.248764 -0.044039 -0.093717 -0.173018
 24 6.836393 1.339849 -12.415375 -0.378033 0.325468 -0.340366
 25 8.517095 -2.122137 -15.745991 -0.288910 0.090829 0.172798
 26 2.098621 0.181797 -4.578865 0.000000 -0.000000 0.000000
 27 0.209704 0.337634 34.883240 0.196104 -0.000000 0.000000
 28 -0.898397 8.683954 38.469437 0.204290 0.000000 0.000000
 29 -0.692529 17.155760 -9.666893 0.139626 0.000000 0.000000
 30 -0.626336 -0.748379 3.824966 0.000000 -0.000000 0.000000
 31 0.186493 5.784158 14.068848 0.017451 -0.000008 0.000304
 32 0.255037 -0.604529 7.943764 0.000000 -0.000000 0.000000
time 29
  0 -1.599601 -2.208250 -1.507164 0.000000 -0.000000 0.000000
  1 -1.599601 -2.208250 -1.507164 0.000000 -0.000000 0.000000
  2 -1.599601 -2.208250 -1.507164 0.000000 -0.000000 0.000000
  3 -3.569056 0.742170 154.046814 0.000000 -0.000000 0.000000
  4 -1.599601 -2.973366 70.701195 -0.069813 0.000000 0.000000
  5 0.000000 0.997964 -4.570213 0.069813 0.000000 0.000000
  6 7.871869 -0.111284 -8.230400 -0.052360 -0.000000 0.000000
  7 -0.323623 1.552324 -25.230556 -0.034906 0.000000 0.000000
  8 0.560739 0.886398 -24.252878 0.122173 0.000000 -0.000000
  9 0.679571 -3.325401 -5.467171 0.000000 -0.000000 0.000000
 10 -7.447134 -0.111284 -7.826904 -0.104720 0.000000 -0.000000
 11 0.142383 1.330254 -25.331699 0.017453 -0.000001 0.000000
 12 0.000000 1.108467 -24.713581 0.139626 -0.000000 0.000000
 13 -0.926665 -3.325402 -4.542753 0.000000 -0.000000 0.000000
 14 -0.000000 0.997965 2.443497 0.052370 0.017411 0.001218
 15 -7.644488 1.416841 21.161736 0.569183 -0.290068 0.149638
 16 -7.649449 1.255524 -12.312485 0.035432 0.256126 0.292125
 17 -8.349898 -1.164375 -15.877781 -0.464388 -0.137408 -0.687688
 18 -1.770460 2.678691 -5.392937 -0.294160 1.155384 2.767322
 19 1.182442 113.813698 -0.750156 0.000000 -0.000000 0.000000
 20 70.480568 51.905884 -5.027882 0.000000 -0.000000 0.000000
 21 70.480568 51.905884 -5.027882 0.000000 -0.000000 0.000000
 22 -1.910845 -0.214389 -4.090008 0.000000 -0.000000 0.000000
 23 8.642280 1.364211 21.248764 -0.044039 -0.093717 -0.173018
 24 6.836395 1.339849 -12.415375 -0.384231 0.338074 -0.343575
 25 8.517089 -2.122135 -15.745979 -0.288910 0.090829 0.172798
 26 2.098618 0.181797 -4.578857 0.000000 -0.000000 0.000000
 27 0.209704 0.337633 34.883240 0.188159 -0.000000 0.000000
 28 -0.898396 8.683956 38.469429 0.204290 0.000000 0.000000
 29 -0.692529 17.155756 -9.666893 0.139626 0.000000 0.000000
 30 -0.626335 -0.748377 3.824974 0.000000 -0.000000 0.000000
 31 0.186493 5.784156 14.068848 0.017451 -0.000008 0.000304
 32 0.255037 -0.604528 7.943764 0.000000 -0.000000 0.000000
time 30
  0 -1.599601 -2.208250 -1.507164 0.000000 -0.000000 0.000000
  1 -1.599601 -2.208250 -1.507164 0.000000 -0.000000 0.000000
  2 -1.599601 -2.208250 -1.507164 0.000000 -0.000000 0.000000
  3 -3.569056 0.742170 154.046814 0.000000 -0.000000 0.000000
  4 -1.599601 -2.973366 70.701195 -0.069813 0.000000 0.000000
  5 0.000000 0.997964 -4.570213 0.069813 0.000000 0.000000
  6 7.871869 -0.111284 -8.230400 -0.052360 -0.000000 0.000000
  7 -0.323623 1.552324 -25.230556 -0.034906 0.000000 0.000000
  8 0.560739 0.886398 -24.252878 0.122173 0.000000 -0.000000
  9 0.679571 -3.325401 -5.467171 0.000000 -0.000000 0.000000
 10 -7.447134 -0.111284 -7.826904 -0.104720 0.000000 -0.000000
 11 0.142383 1.330254 -25.331699 0.017453 -0.000001 0.000000
 12 0.000000 1.108467 -24.713581 0.139626 -0.000000 0.000000
 13 -0.926665 -3.325402 -4.542753 0.000000 -0.000000 0.000000
 14 -0.000000 0.997965 2.443497 0.052370 0.017411 0.001218
 15 -7.644489 1.416841 21.161736 0.569183 -0.290068 0.149638
 16 -7.649447 1.255524 -12.312485 0.034361 0.256598 0.291356
 17 -8.349895 -1.164383 -15.877785 -0.464388 -0.137408 -0.687688
 18 -1.770460 2.678691 -5.392929 -0.294160 1.155384 2.767322
 19 1.182426 113.813721 -0.750164 0.000000 -0.000000 0.000000
 20 70.480545 51.905884 -5.027882 0.000000 -0.000000 0.000000
 21 70.480545 51.905884 -5.027882 0.000000 -0.000000 0.000000
 22 -1.910847 -0.214389 -4.090004 0.000000 -0.000000 0.000000
 23 8.642280 1.364211 21.248764 -0.044039 -0.093717 -0.173018
 24 6.836391 1.339849 -12.415375 -0.390962 0.351346 -0.347064
 25 8.517094 -2.122135 -15.745979 -0.288910 0.090829 0.172798
 26 2.098621 0.181801 -4.578861 0.000000 -0.000000 0.000000
 27 0.209704 0.337634 34.883240 0.179900 -0.000000 0.000000
 28 -0.898396 8.683956 38.469437 0.204290 0.000000 0.000000
 29 -0.692529 17.155756 -9.666893 0.139626 0.000000 -0.000000
 30 -0.626336 -0.748379 3.824966 0.000000 -0.000000 0.000000
 31 0.186493 5.784158 14.068848 0.017451 -0.000008 0.000304
 32 0.255037 -0.604529 7.943764 0.000000 -0.000000 0.000000
time 31
  0 -1.599601 -2.208250 -1.507164 0.000000 -0.000000 0.000000
  1 -1.599601 -2.208250 -1.507164 0.000000 -0.000000 0.000000
  2 -1.599601 -2.208250 -1.507164 0.000000 -0.000000 0.000000
  3 -3.569056 0.742170 154.046814 0.000000 -0.000000 0.000000
  4 -1.599601 -2.973366 70.701195 -0.069813 0.000000 0.000000
  5 0.000000 0.997964 -4.570213 0.069813 0.000000 0.000000
  6 7.871869 -0.111284 -8.230400 -0.052360 -0.000000 0.000000
  7 -0.323623 1.552324 -25.230556 -0.034906 0.000000 0.000000
  8 0.560739 0.886398 -24.252878 0.122173 0.000000 -0.000000
  9 0.679571 -3.325401 -5.467171 0.000000 -0.000000 0.000000
 10 -7.447134 -0.111284 -7.826904 -0.104720 0.000000 -0.000000
 11 0.142383 1.330254 -25.331699 0.017453 -0.000001 0.000000
 12 0.000000 1.108467 -24.713581 0.139626 -0.000000 0.000000
 13 -0.926665 -3.325402 -4.542753 0.000000 -0.000000 0.000000
 14 -0.000000 0.997965 2.443497 0.052370 0.017411 0.001218
 15 -7.644490 1.416842 21.161728 0.569183 -0.290068 0.149638
 16 -7.649451 1.255531 -12.312485 0.033027 0.257162 0.290576
 17 -8.349897 -1.164379 -15.877785 -0.464388 -0.137408 -0.687688
 18 -1.770460 2.678691 -5.392929 -0.294160 1.155384 2.767322
 19 1.182426 113.813721 -0.750191 0.000000 -0.000000 0.000000
 20 70.480560 51.905884 -5.027878 0.000000 -0.000000 0.000000
 21 70.480560 51.905884 -5.027878 0.000000 -0.000000 0.000000
 22 -1.910845 -0.214389 -4.090004 0.000000 -0.000000 0.000000
 23 8.642281 1.364211 21.248764 -0.044039 -0.093717 -0.173019
 24 6.836395 1.339849 -12.415375 -0.398117 0.364950 -0.350778
 25 8.517092 -2.122135 -15.745983 -0.288910 0.090829 0.172798
 26 2.098618 0.181801 -4.578865 0.000000 -0.000000 0.000000
 27 0.209703 0.337634 34.883232 0.171519 -0.000000 0.000000
 28 -0.898396 8.683953 38.469414 0.204290 0.000000 0.000000
 29 -0.692529 17.155758 -9.666893 0.139626 0.000000 -0.000000
 30 -0.626336 -0.748379 3.824966 0.000000 -0.000000 0.000000
 31 0.186493 5.784158 14.068840 0.017451 -0.000008 0.000304
 32 0.255037 -0.604529 7.943764 0.000000 -0.000000 0.000000
time 32
  0 -1.599601 -2.208250 -1.507164 0.000000 -0.000000 0.000000
  1 -1.599601 -2.208250 -1.507164 0.000000 -0.000000 0.000000
  2 -1.599601 -2.208250 -1.507164 0.000000 -0.000000 0.000000
  3 -3.569056 0.742170 154.046814 0.000000 -0.000000 0.000000
  4 -1.599601 -2.973366 70.701195 -0.069813 0.000000 0.000000
  5 0.000000 0.997964 -4.570213 0.069813 0.000000 0.000000
  6 7.871869 -0.111284 -8.230400 -0.052360 -0.000000 0.000000
  7 -0.323623 1.552324 -25.230556 -0.034906 0.000000 0.000000
  8 0.560739 0.886398 -24.252878 0.122173 0.000000 -0.000000
  9 0.679571 -3.325401 -5.467171 0.000000 -0.000000 0.000000
 10 -7.447134 -0.111284 -7.826904 -0.104720 0.000000 -0.000000
 11 0.142383 1.330254 -25.331699 0.017453 -0.000001 0.000000
 12 0.000000 1.108467 -24.713581 0.139626 -0.000000 0.000000
 13 -0.926665 -3.325402 -4.542753 0.000000 -0.000000 0.000000
 14 -0.000000 0.997965 2.443497 0.052370 0.017411 0.001218
 15 -7.644489 1.416842 21.161736 0.569183 -0.290068 0.149638
 16 -7.649450 1.255527 -12.312485 0.031401 0.257826 0.289803
 17 -8.349896 -1.164383 -15.877789 -0.464388 -0.137408 -0.687688
 18 -1.770460 2.678691 -5.392921 -0.294160 1.155384 2.767322
 19 1.182434 113.813721 -0.750221 0.000000 -0.000000 0.000000
 20 70.480576 51.905891 -5.027908 0.000000 -0.000000 0.000000
 21 70.480576 51.905891 -5.027908 0.000000 -0.000000 0.000000
 22 -1.910843 -0.214389 -4.090000 0.000000 -0.000000 0.000000
 23 8.642280 1.364211 21.248764 -0.044039 -0.093717 -0.173018
 24 6.836395 1.339848 -12.415375 -0.405585 0.378548 -0.354661
 25 8.517092 -2.122135 -15.745991 -0.288910 0.090829 0.172798
 26 2.098619 0.181801 -4.578861 0.000000 -0.000000 0.000000
 27 0.209704 0.337634 34.883240 0.163206 -0.000000 0.000000
 28 -0.898396 8.683959 38.469444 0.204290 0.000000 0.000000
 29 -0.692529 17.155762 -9.666893 0.139626 0.000000 -0.000000
 30 -0.626335 -0.748378 3.824966 0.000000 -0.000000 0.000000
 31 0.186493 5.784158 14.068848 0.017451 -0.000008 0.000304
 32 0.255037 -0.604529 7.943764 0.000000 -0.000000 0.000000
time 33
  0 -1.599601 -2.208250 -1.507164 0.000000 -0.000000 0.000000
  1 -1.599601 -2.208250 -1.507164 0.000000 -0.000000 0.000000
  2 -1.599601 -2.208250 -1.507164 0.000000 -0.000000 0.000000
  3 -3.569056 0.742170 154.046814 0.000000 -0.000000 0.000000
  4 -1.599601 -2.973366 70.701195 -0.069813 0.000000 0.000000
  5 0.000000 0.997964 -4.570213 0.069813 0.000000 0.000000
  6 7.871869 -0.111284 -8.230400 -0.052360 -0.000000 0.000000
  7 -0.323623 1.552324 -25.230556 -0.034906 0.000000 0.000000
  8 0.560739 0.886398 -24.252878 0.122173 0.000000 -0.000000
  9 0.679571 -3.325401 -5.467171 0.000000 -0.000000 0.000000
 10 -7.447134 -0.111284 -7.826904 -0.104720 0.000000 -0.000000
 11 0.142383 1.330254 -25.331699 0.017453 -0.000001 0.000000
 12 0.000000 1.108467 -24.713581 0.139626 -0.000000 0.000000
 13 -0.926665 -3.325402 -4.542753 0.000000 -0.000000 0.000000
 14 -0.000000 0.997965 2.443497 0.052370 0.017411 0.001218
 15 -7.644489 1.416841 21.161736 0.569183 -0.290068 0.149638
 16 -7.649452 1.255524 -12.312485 0.029455 0.258598 0.289053
 17 -8.349898 -1.164383 -15.877789 -0.464388 -0.137408 -0.687688
 18 -1.770462 2.678690 -5.392929 -0.294160 1.155384 2.767322
 19 1.182449 113.813683 -0.750195 0.000000 -0.000000 0.000000
 20 70.480560 51.905891 -5.027878 0.000000 -0.000000 0.000000
 21 70.480560 51.905891 -5.027878 0.000000 -0.000000 0.000000
 22 -1.910847 -0.214388 -4.090004 0.000000 -0.000000 0.000000
 23 8.642280 1.364211 21.248764 -0.044039 -0.093717 -0.173019
 24 6.836395 1.339849 -12.415375 -0.413255 0.391805 -0.358656
 25 8.517095 -2.122131 -15.745983 -0.288910 0.090829 0.172798
 26 2.098621 0.181805 -4.578861 0.000000 -0.000000 0.000000
 27 0.209704 0.337634 34.883240 0.155153 -0.000000 0.000000
 28 -0.898396 8.683958 38.469421 0.204290 0.000000 0.000000
 29 -0.692529 17.155752 -9.666893 0.139626 0.000000 0.000000
 30 -0.626335 -0.748378 3.824974 0.000000 -0.000000 0.000000
 31 0.186493 5.784157 14.068848 0.017451 -0.000008 0.000304
 32 0.255037 -0.604529 7.943764 0.000000 -0.000000 0.000000
time 34
  0 -1.599601 -2.208250 -1.507164 0.000000 -0.000000 0.000000
  1 -1.599601 -2.208250 -1.507164 0.000000 -0.000000 0.000000
  2 -1.599601 -2.208250 -1.507164 0.000000 -0.000000 0.000000
  3 -3.569056 0.742170 154.046814 0.000000 -0.000000 0.000000
  4 -1.599601 -2.973366 70.701195 -0.069813 0.000000 0.000000
  5 0.000000 0.997964 -4.570213 0.069813 0.000000 0.000000
  6 7.871869 -0.111284 -8.230400 -0.052360 -0.000000 0.000000
  7 -0.323623 1.552324 -25.230556 -0.034906 0.000000 0.000000
  8 0.560739 0.886398 -24.252878 0.122173 0.000000 -0.000000
  9 0.679571 -3.325401 -5.467171 0.000000 -0.000000 0.000000
 10 -7.447134 -0.111284 -7.826904 -0.104720 0.000000 -0.000000
 11 0.142383 1.330254 -25.331699 0.017453 -0.000001 0.000000
 12 0.000000 1.108467 -24.713581 0.139626 -0.000000 0.000000
 13 -0.926665 -3.325402 -4.542753 0.000000 -0.000000 0.000000
 14 -0.000000 0.997965 2.443497 0.052370 0.017411 0.001218
 15 -7.644489 1.416841 21.161728 0.569183 -0.290068 0.149638
 16 -7.649451 1.255524 -12.312477 0.027159 0.259485 0.288346
 17 -8.349895 -1.164383 -15.877789 -0.464388 -0.137408 -0.687688
 18 -1.770462 2.678690 -5.392933 -0.294160 1.155384 2.767322
 19 1.182453 113.813721 -0.750168 0.000000 -0.000000 0.000000
 20 70.480576 51.905903 -5.027889 0.000000 -0.000000 0.000000
 21 70.480576 51.905903 -5.027889 0.000000 -0.000000 0.000000
 22 -1.910845 -0.214389 -4.090008 0.000000 -0.000000 0.000000
 23 8.642280 1.364211 21.248764 -0.044039 -0.093717 -0.173018
 24 6.836395 1.339849 -12.415375 -0.421018 0.404385 -0.362709
 25 8.517092 -2.122141 -15.745987 -0.288910 0.090829 0.172798
 26 2.098620 0.181801 -4.578857 0.000000 -0.000000 0.000000
 27 0.209703 0.337633 34.883232 0.147553 -0.000000 0.000000
 28 -0.898396 8.683957 38.469414 0.204290 0.000000 0.000000
 29 -0.692529 17.155758 -9.666893 0.139626 0.000000 0.000000
 30 -0.626336 -0.748376 3.824974 0.000000 -0.000000 0.000000
 31 0.186493 5.784158 14.068840 0.017451 -0.000008 0.000304
 32 0.255037 -0.604529 7.943764 0.000000 -0.000000 0.000000
time 35
  0 -1.599601 -2.208250 -1.507164 0.000000 -0.000000 0.000000
  1 -1.599601 -2.208250 -1.507164 0.000000 -0.000000 0.000000
  2 -1.599601 -2.208250 -1.507164 0.000000 -0.000000 0.000000
  3 -3.569056 0.742170 154.046814 0.000000 -0.000000 0.000000
  4 -1.599601 -2.973366 70.701195 -0.069813 0.000000 0.000000
  5 0.000000 0.997964 -4.570213 0.069813 0.000000 0.000000
  6 7.871869 -0.111284 -8.230400 -0.052360 -0.000000 0.000000
  7 -0.323623 1.552324 -25.230556 -0.034906 0.000000 0.000000
  8 0.560739 0.886398 -24.252878 0.122173 0.000000 -0.000000
  9 0.679571 -3.325401 -5.467171 0.000000 -0.000000 0.000000
 10 -7.447134 -0.111284 -7.826904 -0.104720 0.000000 -0.000000
 11 0.142383 1.330254 -25.331699 0.017453 -0.000001 0.000000
 12 0.000000 1.108467 -24.713581 0.139626 -0.000000 0.000000
 13 -0.926665 -3.325402 -4.542753 0.000000 -0.000000 0.000000
 14 -0.000000 0.997965 2.443497 0.052370 0.017411 0.001218
 15 -7.644488 1.416841 21.161728 0.569183 -0.290068 0.149638
 16 -7.649450 1.255524 -12.312492 0.024484 0.260494 0.287699
 17 -8.349892 -1.164383 -15.877781 -0.464388 -0.137408 -0.687688
 18 -1.770462 2.678692 -5.392937 -0.294160 1.155384 2.767322
 19 1.182419 113.813698 -0.750175 0.000000 -0.000000 0.000000
 20 70.480560 51.905872 -5.027885 0.000000 -0.000000 0.000000
 21 70.480560 51.905872 -5.027885 0.000000 -0.000000 0.000000
 22 -1.910843 -0.214388 -4.090012 0.000000 -0.000000 0.000000
 23 8.642280 1.364211 21.248756 -0.044039 -0.093717 -0.173019
 24 6.836395 1.339848 -12.415375 -0.428762 0.415951 -0.366762
 25 8.517091 -2.122137 -15.745983 -0.288911 0.090829 0.172798
 26 2.098621 0.181805 -4.578861 0.000000 -0.000000 0.000000
 27 0.209704 0.337634 34.883232 0.140596 -0.000000 0.000000
 28 -0.898396 8.683960 38.469429 0.204290 0.000000 0.000000
 29 -0.692529 17.155758 -9.666893 0.139626 0.000000 -0.000000
 30 -0.626335 -0.748378 3.824966 0.000000 -0.000000 0.000000
 31 0.186494 5.784158 14.068840 0.017451 -0.000008 0.000304
 32 0.255037 -0.604529 7.943756 0.000000 -0.000000 0.000000
time 36
  0 -1.599601 -2.208250 -1.507164 0.000000 -0.000000 0.000000
  1 -1.599601 -2.208250 -1.507164 0.000000 -0.000000 0.000000
  2 -1.599601 -2.208250 -1.507164 0.000000 -0.000000 0.000000
  3 -3.569056 0.742170 154.046814 0.000000 -0.000000 0.000000
  4 -1.599601 -2.973366 70.701195 -0.069813 0.000000 0.000000
  5 0.000000 0.997964 -4.570213 0.069813 0.000000 0.000000
  6 7.871869 -0.111284 -8.230400 -0.052360 -0.000000 0.000000
  7 -0.323623 1.552324 -25.230556 -0.034906 0.000000 0.000000
  8 0.560739 0.886398 -24.252878 0.122173 0.000000 -0.000000
  9 0.679571 -3.325401 -5.467171 0.000000 -0.000000 0.000000
 10 -7.447134 -0.111284 -7.826904 -0.104720 0.000000 -0.000000
 11 0.142383 1.330254 -25.331699 0.017453 -0.000001 0.000000
 12 0.000000 1.108467 -24.713581 0.139626 -0.000000 0.000000
 13 -0.926665 -3.325402 -4.542753 0.000000 -0.000000 0.000000
 14 -0.000000 0.997965 2.443497 0.052370 0.017411 0.001218
 15 -7.644489 1.416842 21.161728 0.569183 -0.290068 0.149638
 16 -7.649449 1.255527 -12.312477 0.021402 0.261634 0.287129
 17 -8.349893 -1.164379 -15.877781 -0.464388 -0.137408 -0.687688
 18 -1.770462 2.678692 -5.392929 -0.294160 1.155384 2.767322
 19 1.182415 113.813736 -0.750198 0.000000 -0.000000 0.000000
 20 70.480560 51.905884 -5.027897 0.000000 -0.000000 0.000000
 21 70.480560 51.905884 -5.027897 0.000000 -0.000000 0.000000
 22 -1.910845 -0.214388 -4.090000 0.000000 -0.000000 0.000000
 23 8.642280 1.364211 21.248764 -0.044039 -0.093717 -0.173019
 24 6.836395 1.339848 -12.415375 -0.436379 0.426168 -0.370760
 25 8.517091 -2.122139 -15.745987 -0.288910 0.090829 0.172798
 26 2.098620 0.181801 -4.578861 0.000000 -0.000000 0.000000
 27 0.209704 0.337634 34.883232 0.134475 -0.000000 0.000000
 28 -0.898396 8.683958 38.469437 0.204290 0.000000 0.000000
 29 -0.692529 17.155760 -9.666885 0.139626 0.000000 0.000000
 30 -0.626336 -0.748379 3.824966 0.000000 -0.000000 0.000000
 31 0.186494 5.784158 14.068840 0.017451 -0.000008 0.000304
 32 0.255037 -0.604529 7.943764 0.000000 -0.000000 0.000000
time 37
  0 -1.599601 -2.208250 -1.507164 0.000000 -0.000000 0.000000
  1 -1.599601 -2.208250 -1.507164 0.000000 -0.000000 0.000000
  2 -1.599601 -2.208250 -1.507164 0.000000 -0.000000 0.000000
  3 -3.569056 0.742170 154.046814 0.000000 -0.000000 0.000000
  4 -1.599601 -2.973366 70.701195 -0.069813 0.000000 0.000000
  5 0.000000 0.997964 -4.570213 0.069813 0.000000 0.000000
  6 7.871869 -0.111284 -8.230400 -0.052360 -0.000000 0.000000
  7 -0.323623 1.552324 -25.230556 -0.034906 0.000000 0.000000
  8 0.560739 0.886398 -24.252878 0.122173 0.000000 -0.000000
  9 0.679571 -3.325401 -5.467171 0.000000 -0.000000 0.000000
 10 -7.447134 -0.111284 -7.826904 -0.104720 0.000000 -0.000000
 11 0.142383 1.330254 -25.331699 0.017453 -0.000001 0.000000
 12 0.000000 1.108467 -24.713581 0.139626 -0.000000 0.000000
 13 -0.926665 -3.325402 -4.542753 0.000000 -0.000000 0.000000
 14 -0.000000 0.997965 2.443497 0.052370 0.017411 0.001218
 15 -7.644488 1.416841 21.161728 0.569183 -0.290068 0.149638
 16 -7.649448 1.255524 -12.312492 0.017884 0.262911 0.286655
 17 -8.349898 -1.164379 -15.877785 -0.464388 -0.137408 -0.687688
 18 -1.770460 2.678689 -5.392929 -0.294160 1.155384 2.767322
 19 1.182465 113.813667 -0.750164 0.000000 -0.000000 0.000000
 20 70.480568 51.905884 -5.027859 0.000000 -0.000000 0.000000
 21 70.480568 51.905884 -5.027859 0.000000 -0.000000 0.000000
 22 -1.910845 -0.214389 -4.090008 0.000000 -0.000000 0.000000
 23 8.642280 1.364211 21.248764 -0.044039 -0.093717 -0.173018
 24 6.836395 1.339849 -12.415375 -0.443756 0.434700 -0.374646
 25 8.517091 -2.122139 -15.745983 -0.288910 0.090829 0.172798
 26 2.098619 0.181801 -4.578865 0.000000 -0.000000 0.000000
 27 0.209704 0.337634 34.883232 0.129380 -0.000000 0.000000
 28 -0.898396 8.683961 38.469437 0.204290 0.000000 0.000000
 29 -0.692529 17.155758 -9.666901 0.139626 0.000000 -0.000000
 30 -0.626336 -0.748378 3.824959 0.000000 -0.000000 0.000000
 31 0.186493 5.784157 14.068840 0.017451 -0.000008 0.000304
 32 0.255037 -0.604529 7.943764 0.000000 -0.000000 0.000000
time 38
  0 -1.599601 -2.208250 -1.507164 0.000000 -0.000000 0.000000
  1 -1.599601 -2.208250 -1.507164 0.000000 -0.000000 0.000000
  2 -1.599601 -2.208250 -1.507164 0.000000 -0.000000 0.000000
  3 -3.569056 0.742170 154.046814 0.000000 -0.000000 0.000000
  4 -1.599601 -2.973366 70.701195 -0.069813 0.000000 0.000000
  5 0.000000 0.997964 -4.570213 0.069813 0.000000 0.000000
  6 7.871869 -0.111284 -8.230400 -0.052360 -0.000000 0.000000
  7 -0.323623 1.552324 -25.230556 -0.034906 0.000000 0.000000
  8 0.560739 0.886398 -24.252878 0.122173 0.000000 -0.000000
  9 0.679571 -3.325401 -5.467171 0.000000 -0.000000 0.000000
 10 -7.447134 -0.111284 -7.826904 -0.104720 0.000000 -0.000000
 11 0.142383 1.330254 -25.331699 0.017453 -0.000001 0.000000
 12 0.000000 1.108467 -24.713581 0.139626 -0.000000 0.000000
 13 -0.926665 -3.325402 -4.542753 0.000000 -0.000000 0.000000
 14 -0.000000 0.997965 2.443497 0.052370 0.017411 0.001218
 15 -7.644488 1.416841 21.161728 0.569183 -0.290068 0.149638
 16 -7.649450 1.255524 -12.312485 0.013902 0.264334 0.286295
 17 -8.349900 -1.164379 -15.877789 -0.464388 -0.137408 -0.687688
 18 -1.770464 2.678689 -5.392933 -0.294160 1.155384 2.767322
 19 1.182472 113.813690 -0.750175 0.000000 -0.000000 0.000000
 20 70.480591 51.905899 -5.027874 0.000000 -0.000000 0.000000
 21 70.480591 51.905899 -5.027874 0.000000 -0.000000 0.000000
 22 -1.910847 -0.214389 -4.090008 0.000000 -0.000000 0.000000
 23 8.642278 1.364211 21.248764 -0.044039 -0.093717 -0.173019
 24 6.836393 1.339848 -12.415375 -0.450783 0.441209 -0.378366
 25 8.517091 -2.122137 -15.745987 -0.288910 0.090829 0.172798
 26 2.098620 0.181801 -4.578861 0.000000 -0.000000 0.000000
 27 0.209703 0.337634 34.883232 0.125504 -0.000000 0.000000
 28 -0.898395 8.683959 38.469429 0.204290 0.000000 0.000000
 29 -0.692529 17.155754 -9.666885 0.139626 0.000000 -0.000000
 30 -0.626335 -0.748376 3.824974 0.000000 -0.000000 0.000000
 31 0.186493 5.784157 14.068840 0.017451 -0.000008 0.000304
 32 0.255036 -0.604529 7.943764 0.000000 -0.000000 0.000000
time 39
  0 -1.599601 -2.208250 -1.507164 0.000000 -0.000000 0.000000
  1 -1.599601 -2.208250 -1.507164 0.000000 -0.000000 0.000000
  2 -1.599601 -2.208250 -1.507164 0.000000 -0.000000 0.000000
  3 -3.569056 0.742170 154.046814 0.000000 -0.000000 0.000000
  4 -1.599601 -2.973366 70.701195 -0.069813 0.000000 0.000000
  5 0.000000 0.997964 -4.570213 0.069813 0.000000 0.000000
  6 7.871869 -0.111284 -8.230400 -0.052360 -0.000000 0.000000
  7 -0.323623 1.552324 -25.230556 -0.034906 0.000000 0.000000
  8 0.560739 0.886398 -24.252878 0.122173 0.000000 -0.000000
  9 0.679571 -3.325401 -5.467171 0.000000 -0.000000 0.000000
 10 -7.447134 -0.111284 -7.826904 -0.104720 0.000000 -0.000000
 11 0.142383 1.330254 -25.331699 0.017453 -0.000001 0.000000
 12 0.000000 1.108467 -24.713581 0.139626 -0.000000 0.000000
 13 -0.926665 -3.325402 -4.542753 0.000000 -0.000000 0.000000
 14 -0.000000 0.997965 2.443497 0.052370 0.017411 0.001218
 15 -7.644486 1.416841 21.161728 0.569183 -0.290068 0.149638
 16 -7.649448 1.255524 -12.312485 0.009426 0.265909 0.286065
 17 -8.349896 -1.164383 -15.877785 -0.464388 -0.137408 -0.687688
 18 -1.770462 2.678690 -5.392929 -0.294160 1.155384 2.767322
 19 1.182442 113.813690 -0.750183 0.000000 -0.000000 0.000000
 20 70.480560 51.905888 -5.027870 0.000000 -0.000000 0.000000
 21 70.480560 51.905888 -5.027870 0.000000 -0.000000 0.000000
 22 -1.910847 -0.214389 -4.090000 0.000000 -0.000000 0.000000
 23 8.642279 1.364211 21.248764 -0.044039 -0.093717 -0.173018
 24 6.836395 1.339849 -12.415375 -0.457351 0.445362 -0.381862
 25 8.517091 -2.122133 -15.745975 -0.288910 0.090829 0.172798
 26 2.098616 0.181801 -4.578857 0.000000 -0.000000 0.000000
 27 0.209703 0.337634 34.883232 0.123038 -0.000000 -0.000000
 28 -0.898395 8.683959 38.469414 0.204290 0.000000 0.000000
 29 -0.692529 17.155758 -9.666885 0.139626 0.000000 0.000000
 30 -0.626335 -0.748376 3.824974 0.000000 -0.000000 0.000000
 31 0.186493 5.784157 14.068840 0.017451 -0.000008 0.000304
 32 0.255036 -0.604529 7.943764 0.000000 -0.000000 0.000000
time 40
  0 -1.599601 -2.208250 -1.507164 0.000000 -0.000000 0.000000
  1 -1.599601 -2.208250 -1.507164 0.000000 -0.000000 0.000000
  2 -1.599601 -2.208250 -1.507164 0.000000 -0.000000 0.000000
  3 -3.569056 0.742170 154.046814 0.000000 -0.000000 0.000000
  4 -1.599601 -2.973366 70.701195 -0.069813 0.000000 0.000000
  5 0.000000 0.997964 -4.570213 0.069813 0.000000 0.000000
  6 7.871869 -0.111284 -8.230400 -0.052360 -0.000000 0.000000
  7 -0.323623 1.552324 -25.230556 -0.034906 0.000000 0.000000
  8 0.560739 0.886398 -24.252878 0.122173 0.000000 -0.000000
  9 0.679571 -3.325401 -5.467171 0.000000 -0.000000 0.000000
 10 -7.447134 -0.111284 -7.826904 -0.104720 0.000000 -0.000000
 11 0.142383 1.330254 -25.331699 0.017453 -0.000001 0.000000
 12 0.000000 1.108467 -24.713581 0.139626 -0.000000 0.000000
 13 -0.926665 -3.325402 -4.542753 0.000000 -0.000000 0.000000
 14 -0.000000 0.997965 2.443497 0.052370 0.017411 0.001218
 15 -7.644489 1.416841 21.161728 0.569183 -0.290068 0.149638
 16 -7.649450 1.255524 -12.312477 0.004427 0.267645 0.285985
 17 -8.349898 -1.164383 -15.877781 -0.464388 -0.137408 -0.687688
 18 -1.770464 2.678689 -5.392929 -0.294160 1.155384 2.767322
 19 1.182457 113.813705 -0.750191 0.000000 -0.000000 0.000000
 20 70.480568 51.905899 -5.027863 0.000000 -0.000000 0.000000
 21 70.480568 51.905899 -5.027863 0.000000 -0.000000 0.000000
 22 -1.910847 -0.214389 -4.090004 0.000000 -0.000000 0.000000
 23 8.642280 1.364211 21.248764 -0.044039 -0.093717 -0.173019
 24 6.836395 1.339849 -12.415382 -0.463349 0.446821 -0.385078
 25 8.517088 -2.122139 -15.745979 -0.288910 0.090829 0.172798
 26 2.098616 0.181797 -4.578861 0.000000 -0.000000 0.000000
 27 0.209704 0.337633 34.883232 0.122173 -0.000000 0.000000
 28 -0.898395 8.683959 38.469429 0.204290 0.000000 0.000000
 29 -0.692529 17.155758 -9.666901 0.139626 0.000000 -0.000000
 30 -0.626336 -0.748378 3.824966 0.000000 -0.000000 0.000000
 31 0.186494 5.784158 14.068840 0.017451 -0.000008 0.000304
 32 0.255037 -0.604529 7.943764 0.000000 -0.000000 0.000000
end
