version 1
nodes
  0 "bone38"  -1
  1 "bone36"  -1
  2 "bone34"  -1
  3 "bone33"  -1
  4 "bone01"  -1
  5 "bone19"   4
  6 "bone15"   5
  7 "bone16"   6
  8 "bone18"   7
  9 "bone21"   8
 10 "bone07"   5
 11 "bone20"  10
 12 "bone17"  11
 13 "bone22"  12
 14 "bone03"   4
 15 "bone08"  14
 16 "bone05"  15
 17 "bone09"  16
 18 "bone11"  17
 19 "bone23"  18
 20 "bone24"  18
 21 "bone27"  18
 22 "bone28"  17
 23 "bone02"  14
 24 "bone04"  23
 25 "bone10"  24
 26 "bone29"  25
 27 "bone06"  14
 28 "bone12"  27
 29 "bone14"  27
 30 "bone30"  27
 31 "bone13"  14
 32 "bone32"  14
end
skeleton
time 0
  0 -2.437624 -1.142060 2.887016 0.000000 -0.000000 0.000000
  1 -2.437624 -1.142060 2.887016 0.000000 -0.000000 0.000000
  2 -2.437624 -1.142060 2.887016 0.000000 -0.000000 0.000000
  3 -4.744596 2.314000 171.985855 0.000000 -0.000000 0.000000
  4 -2.437624 -2.038301 81.382927 -0.069813 0.000000 0.000000
  5 0.000000 1.168599 -4.970116 0.070005 0.000000 0.000000
  6 9.220941 -0.130356 -8.947067 -0.052505 -0.000000 0.000000
  7 -0.379086 1.818013 -27.433559 -0.035002 0.000000 -0.000000
  8 0.656837 1.037760 -26.380829 0.122505 -0.000000 -0.000000
  9 0.796035 -3.894976 -5.943809 -0.000000 0.000000 -0.000000
 10 -8.723413 -0.130356 -8.508430 -0.105003 -0.000000 -0.000000
 11 0.166782 1.557050 -27.561691 0.017500 -0.000001 0.000000
 12 -0.000001 1.297750 -26.881956 0.140003 0.000000 0.000000
 13 -1.085476 -3.894565 -4.939403 -0.000000 0.000000 -0.000000
 14 0.000000 1.168600 2.657310 0.052515 0.017459 0.001220
 15 -8.954397 1.659624 23.005516 0.569703 -0.290426 0.149489
 16 -8.916007 1.444210 -13.733971 0.004457 0.267956 0.286004
 17 -9.761703 -1.347534 -17.536961 -0.465126 -0.137548 -0.687617
 18 -2.073866 3.137639 -5.862808 -0.294266 1.154673 2.767225
 19 1.302422 133.237717 -0.869141 -0.000000 -0.000000 0.000000
 20 77.623306 60.764496 -5.825726 -0.000000 -0.000000 0.000000
 21 77.623306 60.764496 -5.825726 -0.000000 -0.000000 0.000000
 22 -2.238308 -0.251125 -4.446358 0.000000 -0.000000 0.000000
 23 10.123163 1.597975 23.100113 -0.044160 -0.093971 -0.173007
 24 8.004490 1.569026 -13.507736 -0.463876 0.447314 -0.385306
 25 9.895531 -2.451206 -17.547264 -0.288935 0.090852 0.172800
 26 2.417530 0.207771 -5.206406 0.000000 -0.000000 0.000000
 27 0.245637 0.395494 37.922539 0.122503 -0.000000 -0.000000
 28 -1.052340 10.160601 41.856941 0.204185 0.000000 0.000000
 29 -0.811197 20.080633 -10.518127 0.139958 0.000000 0.000000
 30 -0.733660 -0.875965 4.161781 0.000000 -0.000000 0.000000
 31 0.212571 6.769414 15.607124 0.034998 -0.000022 0.000609
 32 0.298738 -0.708115 8.635887 -0.000000 -0.000000 -0.000000
time 1
  0 -2.437624 -1.142060 2.887016 0.000000 -0.000000 0.000000
  1 -2.437624 -1.142060 2.887016 0.000000 -0.000000 0.000000
  2 -2.437624 -1.142060 2.887016 0.000000 -0.000000 0.000000
  3 -4.744596 2.314000 171.985855 0.000000 -0.000000 0.000000
  4 -2.437624 -2.038301 81.382927 -0.069813 0.000000 0.000000
  5 0.000000 1.168599 -4.970116 0.070005 0.000000 0.000000
  6 9.220941 -0.130356 -8.947067 -0.052505 -0.000000 0.000000
  7 -0.379086 1.818013 -27.433559 -0.035002 0.000000 -0.000000
  8 0.656837 1.037760 -26.380829 0.122505 -0.000000 -0.000000
  9 0.796035 -3.894976 -5.943809 -0.000000 0.000000 -0.000000
 10 -8.723413 -0.130356 -8.508430 -0.105003 -0.000000 -0.000000
 11 0.166782 1.557050 -27.561691 0.017500 -0.000001 0.000000
 12 -0.000001 1.297750 -26.881956 0.140003 0.000000 0.000000
 13 -1.085476 -3.894565 -4.939403 -0.000000 0.000000 -0.000000
 14 0.000000 1.168600 2.657310 0.052515 0.017459 0.001220
 15 -8.954397 1.659624 23.005516 0.569703 -0.290426 0.149489
 16 -8.916009 1.444214 -13.733978 0.005732 0.267636 0.288258
 17 -9.761432 -1.347519 -17.537785 -0.465125 -0.137548 -0.687617
 18 -2.073870 3.137649 -5.862778 -0.294266 1.154672 2.767225
 19 1.302399 133.235794 -0.869171 0.000000 -0.000000 -0.000000
 20 77.621735 60.763611 -5.825916 0.000000 -0.000000 -0.000000
 21 77.621735 60.763611 -5.825916 0.000000 -0.000000 -0.000000
 22 -2.238310 -0.251125 -4.446335 0.000000 0.000000 -0.000000
 23 10.123164 1.597975 23.100121 -0.043247 -0.093811 -0.173733
 24 8.004503 1.569038 -13.507607 -0.463877 0.447314 -0.385306
 25 9.895315 -2.451324 -17.546776 -0.288935 0.090852 0.172800
 26 2.417473 0.207787 -5.206203 0.000000 -0.000000 -0.000000
 27 0.245637 0.395493 37.922546 0.131195 -0.000000 0.000000
 28 -1.052339 10.341988 41.863251 0.229766 0.000000 0.000000
 29 -0.811196 20.078014 -10.519714 0.139954 0.000000 0.000000
 30 -0.733660 -0.875854 4.162407 0.000000 -0.000000 0.000000
 31 0.212572 6.769413 15.607132 0.034998 -0.000022 0.000609
 32 0.298738 -0.708115 8.635887 -0.000000 -0.000000 -0.000000
time 2
  0 -2.437624 -1.142060 2.887016 0.000000 -0.000000 0.000000
  1 -2.437624 -1.142060 2.887016 0.000000 -0.000000 0.000000
  2 -2.437624 -1.142060 2.887016 0.000000 -0.000000 0.000000
  3 -4.744596 2.314000 171.985855 0.000000 -0.000000 0.000000
  4 -2.437624 -2.038301 81.382927 -0.069813 0.000000 0.000000
  5 0.000000 1.168599 -4.970116 0.070005 0.000000 0.000000
  6 9.220941 -0.130356 -8.947067 -0.052505 -0.000000 0.000000
  7 -0.379086 1.818013 -27.433559 -0.035002 0.000000 -0.000000
  8 0.656837 1.037760 -26.380829 0.122505 -0.000000 -0.000000
  9 0.796035 -3.894976 -5.943809 -0.000000 0.000000 -0.000000
 10 -8.723413 -0.130356 -8.508430 -0.105003 -0.000000 -0.000000
 11 0.166782 1.557050 -27.561691 0.017500 -0.000001 0.000000
 12 -0.000001 1.297750 -26.881956 0.140003 0.000000 0.000000
 13 -1.085476 -3.894565 -4.939403 -0.000000 0.000000 -0.000000
 14 0.000000 1.168600 2.657310 0.052515 0.017459 0.001220
 15 -8.954397 1.659624 23.005516 0.569703 -0.290426 0.149489
 16 -8.916005 1.444210 -13.733978 0.008274 0.266763 0.290140
 17 -9.761080 -1.347397 -17.540218 -0.465122 -0.137547 -0.687618
 18 -2.073866 3.137670 -5.862732 -0.294266 1.154672 2.767226
 19 1.302437 133.231659 -0.869167 -0.000000 0.000000 0.000000
 20 77.624809 60.761734 -5.825897 -0.000000 0.000000 0.000000
 21 77.624809 60.761734 -5.825897 -0.000000 0.000000 0.000000
 22 -2.238310 -0.251127 -4.446297 0.000000 -0.000000 0.000000
 23 10.123164 1.597975 23.100121 -0.040713 -0.093366 -0.174359
 24 8.004543 1.569072 -13.507179 -0.463880 0.447314 -0.385308
 25 9.894697 -2.451660 -17.545441 -0.288937 0.090852 0.172799
 26 2.417311 0.207825 -5.205635 0.000000 0.000000 0.000000
 27 0.245637 0.395493 37.922546 0.142000 -0.000000 0.000000
 28 -1.052340 10.604879 41.871803 0.266820 0.000000 0.000000
 29 -0.811196 20.074472 -10.521858 0.139948 0.000000 0.000000
 30 -0.733660 -0.875698 4.163261 0.000000 0.000000 0.000000
 31 0.212572 6.769413 15.607132 0.034998 -0.000022 0.000609
 32 0.298738 -0.708115 8.635887 -0.000000 -0.000000 -0.000000
time 3
  0 -2.437624 -1.142060 2.887016 0.000000 -0.000000 0.000000
  1 -2.437624 -1.142060 2.887016 0.000000 -0.000000 0.000000
  2 -2.437624 -1.142060 2.887016 0.000000 -0.000000 0.000000
  3 -4.744596 2.314000 171.985855 0.000000 -0.000000 0.000000
  4 -2.437624 -2.038301 81.382927 -0.069813 0.000000 0.000000
  5 0.000000 1.168599 -4.970116 0.070005 0.000000 0.000000
  6 9.220941 -0.130356 -8.947067 -0.052505 -0.000000 0.000000
  7 -0.379086 1.818013 -27.433559 -0.035002 0.000000 -0.000000
  8 0.656837 1.037760 -26.380829 0.122505 -0.000000 -0.000000
  9 0.796035 -3.894976 -5.943809 -0.000000 0.000000 -0.000000
 10 -8.723413 -0.130356 -8.508430 -0.105003 -0.000000 -0.000000
 11 0.166782 1.557050 -27.561691 0.017500 -0.000001 0.000000
 12 -0.000001 1.297750 -26.881956 0.140003 0.000000 0.000000
 13 -1.085476 -3.894565 -4.939403 -0.000000 0.000000 -0.000000
 14 0.000000 1.168600 2.657310 0.052515 0.017459 0.001220
 15 -8.954397 1.659624 23.005524 0.569703 -0.290426 0.149489
 16 -8.916007 1.444206 -13.733978 0.011779 0.265463 0.291683
 17 -9.760667 -1.347198 -17.543926 -0.465117 -0.137545 -0.687619
 18 -2.073866 3.137695 -5.862671 -0.294266 1.154674 2.767226
 19 1.302555 133.225571 -0.869137 -0.000000 0.000000 0.000000
 20 77.631615 60.758957 -5.825706 -0.000000 0.000000 0.000000
 21 77.631615 60.758957 -5.825706 -0.000000 0.000000 0.000000
 22 -2.238308 -0.251129 -4.446251 0.000000 -0.000000 0.000000
 23 10.123163 1.597975 23.100121 -0.036859 -0.092689 -0.174892
 24 8.004597 1.569121 -13.506577 -0.463885 0.447314 -0.385310
 25 9.893751 -2.452152 -17.543427 -0.288939 0.090852 0.172799
 26 2.417067 0.207878 -5.204769 0.000000 -0.000000 0.000000
 27 0.245637 0.395493 37.922546 0.154267 -0.000000 0.000000
 28 -1.052340 10.840837 41.882401 0.300161 0.000000 0.000000
 29 -0.811197 20.070074 -10.524521 0.139941 0.000000 -0.000000
 30 -0.733660 -0.875505 4.164314 -0.000000 0.000000 -0.000000
 31 0.212572 6.769413 15.607140 0.034998 -0.000022 0.000609
 32 0.298738 -0.708115 8.635887 -0.000000 0.000000 -0.000000
time 4
  0 -2.437624 -1.142060 2.887016 0.000000 -0.000000 0.000000
  1 -2.437624 -1.142060 2.887016 0.000000 -0.000000 0.000000
  2 -2.437624 -1.142060 2.887016 0.000000 -0.000000 0.000000
  3 -4.744596 2.314000 171.985855 0.000000 -0.000000 0.000000
  4 -2.437624 -2.038301 81.382927 -0.069813 0.000000 0.000000
  5 0.000000 1.168599 -4.970116 0.070005 0.000000 0.000000
  6 9.220941 -0.130356 -8.947067 -0.052505 -0.000000 0.000000
  7 -0.379086 1.818013 -27.433559 -0.035002 0.000000 -0.000000
  8 0.656837 1.037760 -26.380829 0.122505 -0.000000 -0.000000
  9 0.796035 -3.894976 -5.943809 -0.000000 0.000000 -0.000000
 10 -8.723413 -0.130356 -8.508430 -0.105003 -0.000000 -0.000000
 11 0.166782 1.557050 -27.561691 0.017500 -0.000001 0.000000
 12 -0.000001 1.297750 -26.881956 0.140003 0.000000 0.000000
 13 -1.085476 -3.894565 -4.939403 -0.000000 0.000000 -0.000000
 14 0.000000 1.168600 2.657310 0.052515 0.017459 0.001220
 15 -8.954398 1.659624 23.005516 0.569703 -0.290426 0.149489
 16 -8.916010 1.444214 -13.733971 0.015943 0.263865 0.292920
 17 -9.760214 -1.346935 -17.548515 -0.465111 -0.137542 -0.687620
 18 -2.073864 3.137721 -5.862625 -0.294266 1.154677 2.767225
 19 1.302719 133.218018 -0.869095 -0.000000 -0.000000 0.000000
 20 77.641235 60.755516 -5.825394 -0.000000 -0.000000 0.000000
 21 77.641235 60.755516 -5.825394 -0.000000 -0.000000 0.000000
 22 -2.238308 -0.251131 -4.446220 0.000000 -0.000000 0.000000
 23 10.123164 1.597975 23.100113 -0.031988 -0.091834 -0.175340
 24 8.004671 1.569177 -13.505859 -0.463892 0.447313 -0.385312
 25 9.892553 -2.452778 -17.540932 -0.288943 0.090852 0.172798
 26 2.416754 0.207951 -5.203682 -0.000000 0.000000 -0.000000
 27 0.245637 0.395494 37.922539 0.167348 -0.000000 0.000000
 28 -1.052340 10.941551 41.894760 0.314628 0.000000 0.000000
 29 -0.811196 20.064934 -10.527641 0.139934 0.000000 -0.000000
 30 -0.733660 -0.875282 4.165550 0.000000 0.000000 -0.000000
 31 0.212572 6.769414 15.607124 0.034998 -0.000022 0.000609
 32 0.298738 -0.708115 8.635887 0.000000 0.000000 -0.000000
time 5
  0 -2.437624 -1.142060 2.887016 0.000000 -0.000000 0.000000
  1 -2.437624 -1.142060 2.887016 0.000000 -0.000000 0.000000
  2 -2.437624 -1.142060 2.887016 0.000000 -0.000000 0.000000
  3 -4.744596 2.314000 171.985855 0.000000 -0.000000 0.000000
  4 -2.437624 -2.038301 81.382927 -0.069813 0.000000 0.000000
  5 0.000000 1.168599 -4.970116 0.070005 0.000000 0.000000
  6 9.220941 -0.130356 -8.947067 -0.052505 -0.000000 0.000000
  7 -0.379086 1.818013 -27.433559 -0.035002 0.000000 -0.000000
  8 0.656837 1.037760 -26.380829 0.122505 -0.000000 -0.000000
  9 0.796035 -3.894976 -5.943809 -0.000000 0.000000 -0.000000
 10 -8.723413 -0.130356 -8.508430 -0.105003 -0.000000 -0.000000
 11 0.166782 1.557050 -27.561691 0.017500 -0.000001 0.000000
 12 -0.000001 1.297750 -26.881956 0.140003 0.000000 0.000000
 13 -1.085476 -3.894565 -4.939403 -0.000000 0.000000 -0.000000
 14 0.000000 1.168600 2.657310 0.052515 0.017459 0.001220
 15 -8.954397 1.659624 23.005516 0.569703 -0.290426 0.149489
 16 -8.916005 1.444210 -13.733978 0.020461 0.262097 0.293883
 17 -9.759747 -1.346642 -17.553665 -0.465104 -0.137539 -0.687621
 18 -2.073860 3.137738 -5.862595 -0.294266 1.154680 2.767225
 19 1.302910 133.209488 -0.869030 0.000000 -0.000000 0.000000
 20 77.652733 60.751625 -5.824989 0.000000 -0.000000 0.000000
 21 77.652733 60.751625 -5.824989 0.000000 -0.000000 0.000000
 22 -2.238302 -0.251133 -4.446205 -0.000000 0.000000 -0.000000
 23 10.123165 1.597976 23.100121 -0.026403 -0.090853 -0.175709
 24 8.004755 1.569237 -13.505119 -0.463899 0.447313 -0.385315
 25 9.891163 -2.453495 -17.538094 -0.288946 0.090852 0.172797
 26 2.416389 0.208023 -5.202431 0.000000 0.000000 0.000000
 27 0.245637 0.395494 37.922546 0.180593 -0.000000 0.000000
 28 -1.052339 10.935070 41.908409 0.314133 0.000000 0.000000
 29 -0.811197 20.059273 -10.531067 0.139926 0.000000 -0.000000
 30 -0.733660 -0.875034 4.166901 -0.000000 -0.000000 0.000000
 31 0.212572 6.769413 15.607132 0.034998 -0.000022 0.000609
 32 0.298738 -0.708115 8.635880 -0.000000 0.000000 0.000000
time 6
  0 -2.437624 -1.142060 2.887016 0.000000 -0.000000 0.000000
  1 -2.437624 -1.142060 2.887016 0.000000 -0.000000 0.000000
  2 -2.437624 -1.142060 2.887016 0.000000 -0.000000 0.000000
  3 -4.744596 2.314000 171.985855 0.000000 -0.000000 0.000000
  4 -2.437624 -2.038301 81.382927 -0.069813 0.000000 0.000000
  5 0.000000 1.168599 -4.970116 0.070005 0.000000 0.000000
  6 9.220941 -0.130356 -8.947067 -0.052505 -0.000000 0.000000
  7 -0.379086 1.818013 -27.433559 -0.035002 0.000000 -0.000000
  8 0.656837 1.037760 -26.380829 0.122505 -0.000000 -0.000000
  9 0.796035 -3.894976 -5.943809 -0.000000 0.000000 -0.000000
 10 -8.723413 -0.130356 -8.508430 -0.105003 -0.000000 -0.000000
 11 0.166782 1.557050 -27.561691 0.017500 -0.000001 0.000000
 12 -0.000001 1.297750 -26.881956 0.140003 0.000000 0.000000
 13 -1.085476 -3.894565 -4.939403 -0.000000 0.000000 -0.000000
 14 0.000000 1.168600 2.657310 0.052515 0.017459 0.001220
 15 -8.954398 1.659624 23.005516 0.569704 -0.290426 0.149489
 16 -8.916007 1.444210 -13.733971 0.025027 0.260287 0.294606
 17 -9.759289 -1.346336 -17.558979 -0.465097 -0.137536 -0.687623
 18 -2.073858 3.137749 -5.862587 -0.294266 1.154683 2.767225
 19 1.303116 133.200455 -0.868969 -0.000000 0.000000 -0.000000
 20 77.665161 60.747490 -5.824554 -0.000000 0.000000 -0.000000
 21 77.665161 60.747490 -5.824554 -0.000000 0.000000 -0.000000
 22 -2.238300 -0.251133 -4.446198 -0.000000 -0.000000 -0.000000
 23 10.123164 1.597975 23.100121 -0.020406 -0.089799 -0.176008
 24 8.004843 1.569293 -13.504379 -0.463907 0.447312 -0.385319
 25 9.889675 -2.454258 -17.535133 -0.288950 0.090852 0.172796
 26 2.416012 0.208115 -5.201099 -0.000000 -0.000000 -0.000000
 27 0.245637 0.395493 37.922546 0.193355 -0.000000 0.000000
 28 -1.052339 10.922031 41.922585 0.312737 0.000000 0.000000
 29 -0.811197 20.053368 -10.534630 0.139917 0.000000 0.000000
 30 -0.733660 -0.874775 4.168312 0.000000 -0.000000 0.000000
 31 0.212572 6.769412 15.607132 0.034998 -0.000022 0.000609
 32 0.298738 -0.708115 8.635880 -0.000000 0.000000 0.000000
time 7
  0 -2.437624 -1.142060 2.887016 0.000000 -0.000000 0.000000
  1 -2.437624 -1.142060 2.887016 0.000000 -0.000000 0.000000
  2 -2.437624 -1.142060 2.887016 0.000000 -0.000000 0.000000
  3 -4.744596 2.314000 171.985855 0.000000 -0.000000 0.000000
  4 -2.437624 -2.038301 81.382927 -0.069813 0.000000 0.000000
  5 0.000000 1.168599 -4.970116 0.070005 0.000000 0.000000
  6 9.220941 -0.130356 -8.947067 -0.052505 -0.000000 0.000000
  7 -0.379086 1.818013 -27.433559 -0.035002 0.000000 -0.000000
  8 0.656837 1.037760 -26.380829 0.122505 -0.000000 -0.000000
  9 0.796035 -3.894976 -5.943809 -0.000000 0.000000 -0.000000
 10 -8.723413 -0.130356 -8.508430 -0.105003 -0.000000 -0.000000
 11 0.166782 1.557050 -27.561691 0.017500 -0.000001 0.000000
 12 -0.000001 1.297750 -26.881956 0.140003 0.000000 0.000000
 13 -1.085476 -3.894565 -4.939403 -0.000000 0.000000 -0.000000
 14 0.000000 1.168600 2.657310 0.052515 0.017459 0.001220
 15 -8.954398 1.659624 23.005516 0.569703 -0.290426 0.149489
 16 -8.916005 1.444214 -13.733971 0.029338 0.258564 0.295121
 17 -9.758861 -1.346035 -17.564068 -0.465090 -0.137533 -0.687625
 18 -2.073853 3.137749 -5.862610 -0.294266 1.154686 2.767225
 19 1.303329 133.191559 -0.868904 -0.000000 -0.000000 -0.000000
 20 77.677513 60.743439 -5.824112 -0.000000 -0.000000 -0.000000
 21 77.677513 60.743439 -5.824112 -0.000000 -0.000000 -0.000000
 22 -2.238295 -0.251133 -4.446213 0.000000 -0.000000 0.000000
 23 10.123164 1.597975 23.100121 -0.014300 -0.088727 -0.176243
 24 8.004934 1.569343 -13.503708 -0.463914 0.447311 -0.385322
 25 9.888149 -2.455021 -17.532181 -0.288954 0.090852 0.172796
 26 2.415621 0.208199 -5.199749 0.000000 0.000000 -0.000000
 27 0.245636 0.395494 37.922546 0.204983 -0.000000 0.000000
 28 -1.052340 10.903198 41.936424 0.310519 0.000000 0.000000
 29 -0.811197 20.047630 -10.538101 0.139910 0.000000 -0.000000
 30 -0.733660 -0.874525 4.169685 0.000000 0.000000 -0.000000
 31 0.212571 6.769414 15.607132 0.034998 -0.000022 0.000609
 32 0.298738 -0.708115 8.635880 -0.000000 0.000000 -0.000000
time 8
  0 -2.437624 -1.142060 2.887016 0.000000 -0.000000 0.000000
  1 -2.437624 -1.142060 2.887016 0.000000 -0.000000 0.000000
  2 -2.437624 -1.142060 2.887016 0.000000 -0.000000 0.000000
  3 -4.744596 2.314000 171.985855 0.000000 -0.000000 0.000000
  4 -2.437624 -2.038301 81.382927 -0.069813 0.000000 0.000000
  5 0.000000 1.168599 -4.970116 0.070005 0.000000 0.000000
  6 9.220941 -0.130356 -8.947067 -0.052505 -0.000000 0.000000
  7 -0.379086 1.818013 -27.433559 -0.035002 0.000000 -0.000000
  8 0.656837 1.037760 -26.380829 0.122505 -0.000000 -0.000000
  9 0.796035 -3.894976 -5.943809 -0.000000 0.000000 -0.000000
 10 -8.723413 -0.130356 -8.508430 -0.105003 -0.000000 -0.000000
 11 0.166782 1.557050 -27.561691 0.017500 -0.000001 0.000000
 12 -0.000001 1.297750 -26.881956 0.140003 0.000000 0.000000
 13 -1.085476 -3.894565 -4.939403 -0.000000 0.000000 -0.000000
 14 0.000000 1.168600 2.657310 0.052515 0.017459 0.001220
 15 -8.954398 1.659624 23.005524 0.569703 -0.290426 0.149489
 16 -8.916004 1.444210 -13.733971 0.033090 0.257054 0.295460
 17 -9.758498 -1.345779 -17.568562 -0.465084 -0.137531 -0.687626
 18 -2.073849 3.137744 -5.862640 -0.294266 1.154689 2.767225
 19 1.303513 133.183533 -0.868843 0.000000 0.000000 -0.000000
 20 77.688614 60.739788 -5.823715 0.000000 0.000000 -0.000000
 21 77.688614 60.739788 -5.823715 0.000000 0.000000 -0.000000
 22 -2.238289 -0.251133 -4.446228 -0.000000 -0.000000 0.000000
 23 10.123163 1.597975 23.100121 -0.008388 -0.087689 -0.176421
 24 8.005016 1.569383 -13.503151 -0.463922 0.447310 -0.385325
 25 9.886671 -2.455750 -17.529366 -0.288958 0.090852 0.172795
 26 2.415249 0.208286 -5.198448 0.000000 -0.000000 0.000000
 27 0.245637 0.395494 37.922546 0.214830 -0.000000 0.000000
 28 -1.052340 10.879343 41.948792 0.307553 0.000000 0.000000
 29 -0.811197 20.042482 -10.541214 0.139903 0.000000 -0.000000
 30 -0.733660 -0.874302 4.170914 0.000000 -0.000000 0.000000
 31 0.212571 6.769413 15.607140 0.034998 -0.000022 0.000609
 32 0.298738 -0.708115 8.635887 -0.000000 0.000000 -0.000000
time 9
  0 -2.437624 -1.142060 2.887016 0.000000 -0.000000 0.000000
  1 -2.437624 -1.142060 2.887016 0.000000 -0.000000 0.000000
  2 -2.437624 -1.142060 2.887016 0.000000 -0.000000 0.000000
  3 -4.744596 2.314000 171.985855 0.000000 -0.000000 0.000000
  4 -2.437624 -2.038301 81.382927 -0.069813 0.000000 0.000000
  5 0.000000 1.168599 -4.970116 0.070005 0.000000 0.000000
  6 9.220941 -0.130356 -8.947067 -0.052505 -0.000000 0.000000
  7 -0.379086 1.818013 -27.433559 -0.035002 0.000000 -0.000000
  8 0.656837 1.037760 -26.380829 0.122505 -0.000000 -0.000000
  9 0.796035 -3.894976 -5.943809 -0.000000 0.000000 -0.000000
 10 -8.723413 -0.130356 -8.508430 -0.105003 -0.000000 -0.000000
 11 0.166782 1.557050 -27.561691 0.017500 -0.000001 0.000000
 12 -0.000001 1.297750 -26.881956 0.140003 0.000000 0.000000
 13 -1.085476 -3.894565 -4.939403 -0.000000 0.000000 -0.000000
 14 0.000000 1.168600 2.657310 0.052515 0.017459 0.001220
 15 -8.954398 1.659624 23.005516 0.569703 -0.290426 0.149489
 16 -8.916005 1.444210 -13.733971 0.035977 0.255886 0.295657
 17 -9.758220 -1.345570 -17.572052 -0.465079 -0.137529 -0.687627
 18 -2.073845 3.137735 -5.862671 -0.294266 1.154691 2.767225
 19 1.303658 133.177170 -0.868782 0.000000 -0.000000 0.000000
 20 77.697395 60.736885 -5.823395 0.000000 -0.000000 0.000000
 21 77.697395 60.736885 -5.823395 0.000000 -0.000000 0.000000
 22 -2.238287 -0.251132 -4.446251 0.000000 -0.000000 -0.000000
 23 10.123164 1.597975 23.100113 -0.002973 -0.086737 -0.176550
 24 8.005093 1.569413 -13.502686 -0.463928 0.447309 -0.385328
 25 9.885303 -2.456417 -17.526848 -0.288962 0.090852 0.172794
 26 2.414907 0.208359 -5.197266 0.000000 -0.000000 0.000000
 27 0.245637 0.395494 37.922539 0.222247 -0.000000 0.000000
 28 -1.052340 10.851278 41.958481 0.303916 0.000000 0.000000
 29 -0.811197 20.038443 -10.543640 0.139898 0.000000 -0.000000
 30 -0.733660 -0.874126 4.171883 0.000000 0.000000 0.000000
 31 0.212571 6.769412 15.607124 0.034998 -0.000022 0.000609
 32 0.298738 -0.708115 8.635887 -0.000000 0.000000 -0.000000
time 10
  0 -2.437624 -1.142060 2.887016 0.000000 -0.000000 0.000000
  1 -2.437624 -1.142060 2.887016 0.000000 -0.000000 0.000000
  2 -2.437624 -1.142060 2.887016 0.000000 -0.000000 0.000000
  3 -4.744596 2.314000 171.985855 0.000000 -0.000000 0.000000
  4 -2.437624 -2.038301 81.382927 -0.069813 0.000000 0.000000
  5 0.000000 1.168599 -4.970116 0.070005 0.000000 0.000000
  6 9.220941 -0.130356 -8.947067 -0.052505 -0.000000 0.000000
  7 -0.379086 1.818013 -27.433559 -0.035002 0.000000 -0.000000
  8 0.656837 1.037760 -26.380829 0.122505 -0.000000 -0.000000
  9 0.796035 -3.894976 -5.943809 0.000000 0.000000 -0.000000
 10 -8.723413 -0.130356 -8.508430 -0.105003 -0.000000 -0.000000
 11 0.166782 1.557050 -27.561691 0.017500 -0.000001 0.000000
 12 -0.000001 1.297750 -26.881956 0.140003 0.000000 0.000000
 13 -1.085476 -3.894565 -4.939403 -0.000000 0.000000 -0.000000
 14 0.000000 1.168600 2.657310 0.052515 0.017459 0.001220
 15 -8.954397 1.659624 23.005516 0.569703 -0.290426 0.149489
 16 -8.916007 1.444214 -13.733978 0.037695 0.255189 0.295745
 17 -9.758054 -1.345444 -17.574150 -0.465076 -0.137527 -0.687628
 18 -2.073841 3.137728 -5.862686 -0.294266 1.154693 2.767225
 19 1.303749 133.173309 -0.868763 -0.000000 -0.000000 -0.000000
 20 77.702736 60.735130 -5.823208 -0.000000 -0.000000 -0.000000
 21 77.702736 60.735130 -5.823208 -0.000000 -0.000000 -0.000000
 22 -2.238281 -0.251131 -4.446274 -0.000000 -0.000000 -0.000000
 23 10.123163 1.597975 23.100121 0.001643 -0.085927 -0.176637
 24 8.005157 1.569435 -13.502357 -0.463934 0.447309 -0.385330
 25 9.884132 -2.456985 -17.524742 -0.288965 0.090852 0.172794
 26 2.414621 0.208427 -5.196255 -0.000000 -0.000000 -0.000000
 27 0.245637 0.395493 37.922546 0.226587 -0.000000 0.000000
 28 -1.052340 10.819813 41.964317 0.299684 0.000000 0.000000
 29 -0.811197 20.036015 -10.545097 0.139895 0.000000 0.000000
 30 -0.733660 -0.874020 4.172462 -0.000000 0.000000 0.000000
 31 0.212571 6.769412 15.607132 0.034998 -0.000022 0.000609
 32 0.298738 -0.708115 8.635887 -0.000000 -0.000000 -0.000000
time 11
  0 -2.437624 -1.142060 2.887016 0.000000 -0.000000 0.000000
  1 -2.437624 -1.142060 2.887016 0.000000 -0.000000 0.000000
  2 -2.437624 -1.142060 2.887016 0.000000 -0.000000 0.000000
  3 -4.744596 2.314000 171.985855 0.000000 -0.000000 0.000000
  4 -2.437624 -2.038301 81.382927 -0.069813 0.000000 0.000000
  5 0.000000 1.168599 -4.970116 0.070005 0.000000 0.000000
  6 9.220941 -0.130356 -8.947067 -0.052505 -0.000000 0.000000
  7 -0.379086 1.818013 -27.433559 -0.035002 0.000000 -0.000000
  8 0.656837 1.037760 -26.380829 0.122505 -0.000000 -0.000000
  9 0.796035 -3.894976 -5.943809 -0.000000 0.000000 -0.000000
 10 -8.723413 -0.130356 -8.508430 -0.105003 -0.000000 -0.000000
 11 0.166782 1.557050 -27.561691 0.017500 -0.000001 0.000000
 12 -0.000001 1.297750 -26.881956 0.140003 0.000000 0.000000
 13 -1.085476 -3.894565 -4.939403 -0.000000 0.000000 -0.000000
 14 0.000000 1.168600 2.657310 0.052515 0.017459 0.001220
 15 -8.954397 1.659624 23.005516 0.569703 -0.290426 0.149489
 16 -8.916006 1.444214 -13.733971 0.038035 0.255050 0.295749
 17 -9.758023 -1.345417 -17.574570 -0.465076 -0.137527 -0.687628
 18 -2.073839 3.137725 -5.862694 -0.294266 1.154693 2.767225
 19 1.303772 133.172531 -0.868763 -0.000000 0.000000 -0.000000
 20 77.703850 60.734776 -5.823162 -0.000000 0.000000 -0.000000
 21 77.703850 60.734776 -5.823162 -0.000000 0.000000 -0.000000
 22 -2.238283 -0.251131 -4.446281 -0.000000 -0.000000 0.000000
 23 10.123163 1.597975 23.100121 0.005157 -0.085309 -0.176689
 24 8.005205 1.569448 -13.502129 -0.463938 0.447308 -0.385332
 25 9.883245 -2.457409 -17.523163 -0.288968 0.090853 0.172793
 26 2.414396 0.208477 -5.195492 0.000000 -0.000000 0.000000
 27 0.245637 0.395494 37.922539 0.227352 0.000000 0.000000
 28 -1.052340 10.785690 41.965355 0.294933 0.000000 0.000000
 29 -0.811197 20.035580 -10.545380 0.139895 0.000000 -0.000000
 30 -0.733660 -0.874001 4.172562 -0.000000 0.000000 -0.000000
 31 0.212572 6.769413 15.607132 0.034998 -0.000022 0.000609
 32 0.298738 -0.708115 8.635887 -0.000000 0.000000 -0.000000
time 12
  0 -2.437624 -1.142060 2.887016 0.000000 -0.000000 0.000000
  1 -2.437624 -1.142060 2.887016 0.000000 -0.000000 0.000000
  2 -2.437624 -1.142060 2.887016 0.000000 -0.000000 0.000000
  3 -4.744596 2.314000 171.985855 0.000000 -0.000000 0.000000
  4 -2.437624 -2.038301 81.382927 -0.069813 0.000000 0.000000
  5 0.000000 1.168599 -4.970116 0.070005 0.000000 0.000000
  6 9.220941 -0.130356 -8.947067 -0.052505 -0.000000 0.000000
  7 -0.379086 1.818013 -27.433559 -0.035002 0.000000 -0.000000
  8 0.656837 1.037760 -26.380829 0.122505 -0.000000 -0.000000
  9 0.796035 -3.894976 -5.943809 -0.000000 0.000000 -0.000000
 10 -8.723413 -0.130356 -8.508430 -0.105003 -0.000000 -0.000000
 11 0.166782 1.557050 -27.561691 0.017500 -0.000001 0.000000
 12 -0.000001 1.297750 -26.881956 0.140003 0.000000 0.000000
 13 -1.085476 -3.894565 -4.939403 -0.000000 0.000000 -0.000000
 14 0.000000 1.168600 2.657310 0.052515 0.017459 0.001220
 15 -8.954398 1.659624 23.005516 0.569703 -0.290426 0.149489
 16 -8.916009 1.444214 -13.733971 0.037947 0.255082 0.295624
 17 -9.758041 -1.345425 -17.574493 -0.465076 -0.137527 -0.687628
 18 -2.073839 3.137727 -5.862701 -0.294266 1.154693 2.767225
 19 1.303772 133.172745 -0.868759 -0.000000 -0.000000 -0.000000
 20 77.703873 60.734867 -5.823154 -0.000000 -0.000000 -0.000000
 21 77.703873 60.734867 -5.823154 -0.000000 -0.000000 -0.000000
 22 -2.238281 -0.251131 -4.446274 -0.000000 -0.000000 0.000000
 23 10.123164 1.597975 23.100121 0.007266 -0.084939 -0.176713
 24 8.005233 1.569454 -13.502022 -0.463940 0.447308 -0.385333
 25 9.882713 -2.457664 -17.522224 -0.288969 0.090853 0.172793
 26 2.414267 0.208504 -5.195030 -0.000000 -0.000000 -0.000000
 27 0.245637 0.395493 37.922546 0.226002 -0.000000 0.000000
 28 -1.052340 10.748987 41.963516 0.289734 0.000000 0.000000
 29 -0.811196 20.036337 -10.544914 0.139896 0.000000 0.000000
 30 -0.733660 -0.874035 4.172379 -0.000000 -0.000000 0.000000
 31 0.212572 6.769412 15.607132 0.034998 -0.000022 0.000609
 32 0.298738 -0.708115 8.635880 -0.000000 -0.000000 -0.000000
time 13
  0 -2.437624 -1.142060 2.887016 0.000000 -0.000000 0.000000
  1 -2.437624 -1.142060 2.887016 0.000000 -0.000000 0.000000
  2 -2.437624 -1.142060 2.887016 0.000000 -0.000000 0.000000
  3 -4.744596 2.314000 171.985855 0.000000 -0.000000 0.000000
  4 -2.437624 -2.038301 81.382927 -0.069813 0.000000 0.000000
  5 0.000000 1.168599 -4.970116 0.070005 0.000000 0.000000
  6 9.220941 -0.130356 -8.947067 -0.052505 -0.000000 0.000000
  7 -0.379086 1.818013 -27.433559 -0.035002 0.000000 -0.000000
  8 0.656837 1.037760 -26.380829 0.122505 -0.000000 -0.000000
  9 0.796035 -3.894976 -5.943809 -0.000000 0.000000 -0.000000
 10 -8.723413 -0.130356 -8.508430 -0.105003 -0.000000 -0.000000
 11 0.166782 1.557050 -27.561691 0.017500 -0.000001 0.000000
 12 -0.000001 1.297750 -26.881956 0.140003 0.000000 0.000000
 13 -1.085476 -3.894565 -4.939403 -0.000000 0.000000 -0.000000
 14 0.000000 1.168600 2.657310 0.052515 0.017459 0.001220
 15 -8.954395 1.659624 23.005516 0.569703 -0.290426 0.149489
 16 -8.916005 1.444210 -13.733978 0.037744 0.255155 0.295364
 17 -9.758081 -1.345428 -17.574326 -0.465076 -0.137527 -0.687628
 18 -2.073841 3.137728 -5.862694 -0.294266 1.154693 2.767225
 19 1.303768 133.173233 -0.868755 -0.000000 0.000000 -0.000000
 20 77.703857 60.735088 -5.823135 -0.000000 0.000000 -0.000000
 21 77.703857 60.735088 -5.823135 -0.000000 0.000000 -0.000000
 22 -2.238281 -0.251131 -4.446274 -0.000000 0.000000 0.000000
 23 10.123162 1.597975 23.100121 0.007737 -0.084862 -0.176717
 24 8.005239 1.569456 -13.501991 -0.463941 0.447308 -0.385333
 25 9.882599 -2.457722 -17.522003 -0.288969 0.090853 0.172793
 26 2.414236 0.208508 -5.194923 0.000000 -0.000000 0.000000
 27 0.245637 0.395493 37.922546 0.223203 -0.000000 0.000000
 28 -1.052339 10.710047 41.959755 0.284162 0.000000 0.000000
 29 -0.811197 20.037912 -10.543968 0.139898 0.000000 0.000000
 30 -0.733660 -0.874102 4.172005 0.000000 -0.000000 0.000000
 31 0.212572 6.769413 15.607132 0.034998 -0.000022 0.000609
 32 0.298738 -0.708115 8.635887 -0.000000 -0.000000 -0.000000
time 14
  0 -2.437624 -1.142060 2.887016 0.000000 -0.000000 0.000000
  1 -2.437624 -1.142060 2.887016 0.000000 -0.000000 0.000000
  2 -2.437624 -1.142060 2.887016 0.000000 -0.000000 0.000000
  3 -4.744596 2.314000 171.985855 0.000000 -0.000000 0.000000
  4 -2.437624 -2.038301 81.382927 -0.069813 0.000000 0.000000
  5 0.000000 1.168600 -4.970116 0.070005 0.000000 0.000000
  6 9.220941 -0.130356 -8.947067 -0.052505 -0.000000 0.000000
  7 -0.379086 1.818013 -27.433559 -0.035002 0.000000 -0.000000
  8 0.656837 1.037761 -26.380829 0.122505 -0.000000 -0.000000
  9 0.796035 -3.894976 -5.943809 -0.000000 0.000000 -0.000000
 10 -8.723413 -0.130356 -8.508430 -0.105003 -0.000000 -0.000000
 11 0.166782 1.557050 -27.561691 0.017500 -0.000001 0.000000
 12 -0.000001 1.297750 -26.881956 0.140003 0.000000 0.000000
 13 -1.085476 -3.894566 -4.939403 -0.000000 0.000000 -0.000000
 14 0.000000 1.168600 2.657310 0.052515 0.017459 0.001220
 15 -8.954397 1.659624 23.005516 0.569703 -0.290426 0.149489
 16 -8.916008 1.444214 -13.733971 0.037412 0.255276 0.294985
 17 -9.758148 -1.345436 -17.574032 -0.465076 -0.137527 -0.687627
 18 -2.073839 3.137730 -5.862686 -0.294266 1.154693 2.767225
 19 1.303768 133.173889 -0.868755 -0.000000 -0.000000 0.000000
 20 77.703728 60.735382 -5.823112 -0.000000 -0.000000 0.000000
 21 77.703728 60.735382 -5.823112 -0.000000 -0.000000 0.000000
 22 -2.238279 -0.251131 -4.446266 0.000000 -0.000000 0.000000
 23 10.123164 1.597975 23.100121 0.007587 -0.084998 -0.176705
 24 8.005228 1.569454 -13.502022 -0.463941 0.447308 -0.385333
 25 9.882683 -2.457706 -17.521965 -0.288969 0.090853 0.172793
 26 2.414265 0.208508 -5.194923 0.000000 -0.000000 -0.000000
 27 0.245637 0.395494 37.922539 0.219130 -0.000000 0.000000
 28 -1.052340 10.669315 41.954353 0.278291 0.000000 0.000000
 29 -0.811197 20.040157 -10.542610 0.139901 0.000000 -0.000000
 30 -0.733660 -0.874201 4.171463 -0.000000 -0.000000 -0.000000
 31 0.212571 6.769412 15.607132 0.034998 -0.000022 0.000609
 32 0.298738 -0.708115 8.635887 0.000000 -0.000000 0.000000
time 15
  0 -2.437624 -1.142060 2.887016 0.000000 -0.000000 0.000000
  1 -2.437624 -1.142060 2.887016 0.000000 -0.000000 0.000000
  2 -2.437624 -1.142060 2.887016 0.000000 -0.000000 0.000000
  3 -4.744596 2.314000 171.985855 0.000000 -0.000000 0.000000
  4 -2.437624 -2.038301 81.382927 -0.069813 0.000000 0.000000
  5 0.000000 1.168599 -4.970116 0.070005 0.000000 0.000000
  6 9.220941 -0.130356 -8.947067 -0.052505 -0.000000 0.000000
  7 -0.379086 1.818013 -27.433559 -0.035002 0.000000 -0.000000
  8 0.656837 1.037760 -26.380829 0.122505 -0.000000 -0.000000
  9 0.796035 -3.894976 -5.943809 -0.000000 0.000000 -0.000000
 10 -8.723413 -0.130356 -8.508430 -0.105003 -0.000000 -0.000000
 11 0.166782 1.557050 -27.561691 0.017500 -0.000001 0.000000
 12 -0.000001 1.297750 -26.881956 0.140003 0.000000 0.000000
 13 -1.085476 -3.894565 -4.939403 -0.000000 0.000000 -0.000000
 14 0.000000 1.168600 2.657310 0.052515 0.017459 0.001220
 15 -8.954397 1.659624 23.005516 0.569703 -0.290426 0.149489
 16 -8.916005 1.444210 -13.733971 0.036940 0.255450 0.294505
 17 -9.758235 -1.345459 -17.573597 -0.465077 -0.137528 -0.687628
 18 -2.073837 3.137732 -5.862686 -0.294267 1.154693 2.767225
 19 1.303761 133.174927 -0.868748 0.000000 0.000000 -0.000000
 20 77.703415 60.735867 -5.823097 0.000000 0.000000 -0.000000
 21 77.703415 60.735867 -5.823097 0.000000 0.000000 -0.000000
 22 -2.238277 -0.251132 -4.446266 0.000000 -0.000000 0.000000
 23 10.123163 1.597975 23.100121 0.007220 -0.085290 -0.176677
 24 8.005207 1.569455 -13.502075 -0.463940 0.447308 -0.385333
 25 9.882879 -2.457664 -17.521881 -0.288969 0.090853 0.172793
 26 2.414320 0.208500 -5.194946 -0.000000 0.000000 -0.000000
 27 0.245637 0.395493 37.922546 0.213955 -0.000000 0.000000
 28 -1.052340 10.627262 41.947662 0.272197 0.000000 0.000000
 29 -0.811196 20.042953 -10.540924 0.139904 0.000000 0.000000
 30 -0.733660 -0.874323 4.170799 -0.000000 -0.000000 0.000000
 31 0.212572 6.769413 15.607132 0.034998 -0.000022 0.000609
 32 0.298738 -0.708115 8.635887 -0.000000 -0.000000 -0.000000
time 16
  0 -2.437624 -1.142060 2.887016 0.000000 -0.000000 0.000000
  1 -2.437624 -1.142060 2.887016 0.000000 -0.000000 0.000000
  2 -2.437624 -1.142060 2.887016 0.000000 -0.000000 0.000000
  3 -4.744596 2.314000 171.985855 0.000000 -0.000000 0.000000
  4 -2.437624 -2.038301 81.382927 -0.069813 0.000000 0.000000
  5 0.000000 1.168599 -4.970116 0.070005 0.000000 0.000000
  6 9.220941 -0.130356 -8.947067 -0.052505 -0.000000 0.000000
  7 -0.379086 1.818013 -27.433559 -0.035002 0.000000 -0.000000
  8 0.656837 1.037760 -26.380829 0.122505 -0.000000 -0.000000
  9 0.796035 -3.894976 -5.943809 -0.000000 0.000000 -0.000000
 10 -8.723413 -0.130356 -8.508430 -0.105003 -0.000000 -0.000000
 11 0.166782 1.557050 -27.561691 0.017500 -0.000001 0.000000
 12 -0.000001 1.297750 -26.881956 0.140003 0.000000 0.000000
 13 -1.085476 -3.894565 -4.939403 -0.000000 0.000000 -0.000000
 14 0.000000 1.168600 2.657310 0.052515 0.017459 0.001220
 15 -8.954399 1.659624 23.005516 0.569703 -0.290426 0.149489
 16 -8.916006 1.444206 -13.733971 0.036314 0.255682 0.293938
 17 -9.758343 -1.345490 -17.572983 -0.465078 -0.137528 -0.687627
 18 -2.073837 3.137734 -5.862679 -0.294267 1.154693 2.767225
 19 1.303761 133.176300 -0.868744 -0.000000 0.000000 -0.000000
 20 77.702805 60.736496 -5.823071 -0.000000 0.000000 -0.000000
 21 77.702805 60.736496 -5.823071 -0.000000 0.000000 -0.000000
 22 -2.238279 -0.251130 -4.446266 0.000000 0.000000 -0.000000
 23 10.123166 1.597976 23.100113 0.006608 -0.085716 -0.176630
 24 8.005178 1.569453 -13.502159 -0.463940 0.447309 -0.385333
 25 9.883177 -2.457600 -17.521820 -0.288969 0.090853 0.172793
 26 2.414404 0.208488 -5.194992 -0.000000 -0.000000 -0.000000
 27 0.245637 0.395494 37.922539 0.207854 -0.000000 0.000000
 28 -1.052340 10.584337 41.939964 0.265952 0.000000 0.000000
 29 -0.811197 20.046156 -10.538986 0.139908 0.000000 0.000000
 30 -0.733660 -0.874460 4.170044 0.000000 0.000000 0.000000
 31 0.212572 6.769413 15.607132 0.034998 -0.000022 0.000609
 32 0.298738 -0.708115 8.635887 -0.000000 0.000000 -0.000000
time 17
  0 -2.437624 -1.142060 2.887016 0.000000 -0.000000 0.000000
  1 -2.437624 -1.142060 2.887016 0.000000 -0.000000 0.000000
  2 -2.437624 -1.142060 2.887016 0.000000 -0.000000 0.000000
  3 -4.744596 2.314000 171.985855 0.000000 -0.000000 0.000000
  4 -2.437624 -2.038301 81.382927 -0.069813 0.000000 0.000000
  5 0.000000 1.168599 -4.970116 0.070005 0.000000 0.000000
  6 9.220941 -0.130356 -8.947067 -0.052505 -0.000000 0.000000
  7 -0.379086 1.818013 -27.433559 -0.035002 0.000000 -0.000000
  8 0.656837 1.037760 -26.380829 0.122505 -0.000000 -0.000000
  9 0.796035 -3.894976 -5.943809 -0.000000 0.000000 -0.000000
 10 -8.723413 -0.130356 -8.508430 -0.105003 -0.000000 -0.000000
 11 0.166782 1.557050 -27.561691 0.017500 -0.000001 0.000000
 12 -0.000001 1.297750 -26.881956 0.140003 0.000000 0.000000
 13 -1.085476 -3.894565 -4.939403 -0.000000 0.000000 -0.000000
 14 0.000000 1.168600 2.657310 0.052515 0.017459 0.001220
 15 -8.954398 1.659624 23.005516 0.569703 -0.290426 0.149489
 16 -8.916005 1.444206 -13.733971 0.035524 0.255976 0.293301
 17 -9.758469 -1.345520 -17.572201 -0.465079 -0.137528 -0.687627
 18 -2.073839 3.137736 -5.862679 -0.294267 1.154693 2.767224
 19 1.303730 133.178009 -0.868744 0.000000 -0.000000 0.000000
 20 77.701843 60.737270 -5.823071 0.000000 -0.000000 0.000000
 21 77.701843 60.737270 -5.823071 0.000000 -0.000000 0.000000
 22 -2.238277 -0.251133 -4.446259 0.000000 -0.000000 -0.000000
 23 10.123165 1.597976 23.100113 0.005720 -0.086256 -0.176563
 24 8.005133 1.569450 -13.502266 -0.463939 0.447309 -0.385333
 25 9.883566 -2.457504 -17.521797 -0.288968 0.090853 0.172793
 26 2.414516 0.208477 -5.195080 0.000000 -0.000000 -0.000000
 27 0.245637 0.395494 37.922539 0.200999 -0.000000 0.000000
 28 -1.052340 10.541010 41.931602 0.259633 0.000000 0.000000
 29 -0.811197 20.049631 -10.536880 0.139913 0.000000 -0.000000
 30 -0.733661 -0.874613 4.169212 0.000000 0.000000 0.000000
 31 0.212572 6.769414 15.607124 0.034998 -0.000022 0.000609
 32 0.298738 -0.708115 8.635887 -0.000000 0.000000 -0.000000
time 18
  0 -2.437624 -1.142060 2.887016 0.000000 -0.000000 0.000000
  1 -2.437624 -1.142060 2.887016 0.000000 -0.000000 0.000000
  2 -2.437624 -1.142060 2.887016 0.000000 -0.000000 0.000000
  3 -4.744596 2.314000 171.985855 0.000000 -0.000000 0.000000
  4 -2.437624 -2.038301 81.382927 -0.069813 0.000000 0.000000
  5 0.000000 1.168599 -4.970116 0.070005 0.000000 0.000000
  6 9.220941 -0.130356 -8.947067 -0.052505 -0.000000 0.000000
  7 -0.379086 1.818013 -27.433559 -0.035002 0.000000 -0.000000
  8 0.656837 1.037760 -26.380829 0.122505 -0.000000 -0.000000
  9 0.796035 -3.894976 -5.943809 -0.000000 0.000000 -0.000000
 10 -8.723413 -0.130356 -8.508430 -0.105003 -0.000000 -0.000000
 11 0.166782 1.557050 -27.561691 0.017500 -0.000001 0.000000
 12 -0.000001 1.297750 -26.881956 0.140003 0.000000 0.000000
 13 -1.085476 -3.894565 -4.939403 -0.000000 0.000000 -0.000000
 14 0.000000 1.168600 2.657310 0.052515 0.017459 0.001220
 15 -8.954397 1.659624 23.005516 0.569704 -0.290426 0.149489
 16 -8.916006 1.444210 -13.733971 0.034554 0.256339 0.292610
 17 -9.758616 -1.345570 -17.571220 -0.465080 -0.137529 -0.687627
 18 -2.073835 3.137739 -5.862679 -0.294267 1.154693 2.767224
 19 1.303719 133.180054 -0.868752 -0.000000 0.000000 -0.000000
 20 77.700409 60.738201 -5.823071 -0.000000 0.000000 -0.000000
 21 77.700409 60.738201 -5.823071 -0.000000 0.000000 -0.000000
 22 -2.238276 -0.251133 -4.446259 -0.000000 -0.000000 0.000000
 23 10.123163 1.597975 23.100113 0.004529 -0.086889 -0.176473
 24 8.005079 1.569446 -13.502411 -0.463938 0.447310 -0.385332
 25 9.884050 -2.457378 -17.521896 -0.288968 0.090853 0.172793
 26 2.414660 0.208466 -5.195229 -0.000000 -0.000000 -0.000000
 27 0.245637 0.395494 37.922539 0.193566 -0.000000 0.000000
 28 -1.052340 10.497747 41.922836 0.253313 0.000000 0.000000
 29 -0.811197 20.053270 -10.534691 0.139917 0.000000 0.000000
 30 -0.733660 -0.874773 4.168335 0.000000 0.000000 0.000000
 31 0.212572 6.769414 15.607124 0.034998 -0.000022 0.000609
 32 0.298738 -0.708115 8.635887 -0.000000 -0.000000 0.000000
time 19
  0 -2.437624 -1.142060 2.887016 0.000000 -0.000000 0.000000
  1 -2.437624 -1.142060 2.887016 0.000000 -0.000000 0.000000
  2 -2.437624 -1.142060 2.887016 0.000000 -0.000000 0.000000
  3 -4.744596 2.314000 171.985855 0.000000 -0.000000 0.000000
  4 -2.437624 -2.038301 81.382927 -0.069813 0.000000 0.000000
  5 0.000000 1.168599 -4.970116 0.070005 0.000000 0.000000
  6 9.220941 -0.130356 -8.947067 -0.052505 -0.000000 0.000000
  7 -0.379086 1.818013 -27.433559 -0.035002 0.000000 -0.000000
  8 0.656837 1.037760 -26.380829 0.122505 -0.000000 -0.000000
  9 0.796035 -3.894976 -5.943809 -0.000000 0.000000 -0.000000
 10 -8.723413 -0.130356 -8.508430 -0.105003 -0.000000 -0.000000
 11 0.166782 1.557050 -27.561691 0.017500 -0.000001 0.000000
 12 -0.000001 1.297750 -26.881956 0.140003 0.000000 0.000000
 13 -1.085476 -3.894565 -4.939403 -0.000000 0.000000 -0.000000
 14 0.000000 1.168600 2.657310 0.052515 0.017459 0.001220
 15 -8.954397 1.659624 23.005516 0.569703 -0.290426 0.149489
 16 -8.916006 1.444206 -13.733971 0.033395 0.256776 0.291882
 17 -9.758787 -1.345634 -17.570007 -0.465082 -0.137529 -0.687627
 18 -2.073837 3.137743 -5.862671 -0.294267 1.154692 2.767224
 19 1.303680 133.182571 -0.868752 0.000000 -0.000000 -0.000000
 20 77.698471 60.739342 -5.823090 0.000000 -0.000000 -0.000000
 21 77.698471 60.739342 -5.823090 0.000000 -0.000000 -0.000000
 22 -2.238279 -0.251132 -4.446251 0.000000 -0.000000 0.000000
 23 10.123165 1.597975 23.100113 0.003003 -0.087593 -0.176360
 24 8.005024 1.569440 -13.502563 -0.463937 0.447311 -0.385332
 25 9.884632 -2.457199 -17.522125 -0.288967 0.090853 0.172794
 26 2.414814 0.208443 -5.195438 -0.000000 -0.000000 -0.000000
 27 0.245637 0.395493 37.922539 0.185726 -0.000000 0.000000
 28 -1.052340 10.455030 41.914017 0.247068 0.000000 0.000000
 29 -0.811197 20.056952 -10.532463 0.139922 0.000000 -0.000000
 30 -0.733661 -0.874933 4.167458 0.000000 0.000000 -0.000000
 31 0.212572 6.769413 15.607132 0.034998 -0.000022 0.000609
 32 0.298738 -0.708115 8.635887 0.000000 -0.000000 0.000000
time 20
  0 -2.437624 -1.142060 2.887016 0.000000 -0.000000 0.000000
  1 -2.437624 -1.142060 2.887016 0.000000 -0.000000 0.000000
  2 -2.437624 -1.142060 2.887016 0.000000 -0.000000 0.000000
  3 -4.744596 2.314000 171.985855 0.000000 -0.000000 0.000000
  4 -2.437624 -2.038301 81.382927 -0.069813 0.000000 0.000000
  5 0.000000 1.168599 -4.970116 0.070005 0.000000 0.000000
  6 9.220941 -0.130356 -8.947067 -0.052505 -0.000000 0.000000
  7 -0.379086 1.818013 -27.433559 -0.035002 0.000000 -0.000000
  8 0.656837 1.037760 -26.380829 0.122505 -0.000000 -0.000000
  9 0.796035 -3.894976 -5.943809 -0.000000 0.000000 -0.000000
 10 -8.723413 -0.130356 -8.508430 -0.105003 -0.000000 -0.000000
 11 0.166782 1.557050 -27.561691 0.017500 -0.000001 0.000000
 12 -0.000001 1.297750 -26.881956 0.140003 0.000000 0.000000
 13 -1.085476 -3.894565 -4.939403 -0.000000 0.000000 -0.000000
 14 0.000000 1.168600 2.657310 0.052515 0.017459 0.001220
 15 -8.954398 1.659624 23.005516 0.569703 -0.290426 0.149489
 16 -8.916006 1.444206 -13.733971 0.032031 0.257292 0.291132
 17 -9.758969 -1.345711 -17.568562 -0.465084 -0.137530 -0.687626
 18 -2.073841 3.137745 -5.862671 -0.294268 1.154692 2.767224
 19 1.303635 133.185455 -0.868752 -0.000000 -0.000000 0.000000
 20 77.695984 60.740654 -5.823124 -0.000000 -0.000000 0.000000
 21 77.695984 60.740654 -5.823124 -0.000000 -0.000000 0.000000
 22 -2.238279 -0.251132 -4.446259 -0.000000 0.000000 -0.000000
 23 10.123165 1.597976 23.100113 0.001115 -0.088347 -0.176221
 24 8.004965 1.569432 -13.502762 -0.463935 0.447311 -0.385331
 25 9.885288 -2.456982 -17.522545 -0.288965 0.090853 0.172794
 26 2.414988 0.208412 -5.195740 -0.000000 0.000000 -0.000000
 27 0.245637 0.395494 37.922539 0.177655 -0.000000 0.000000
 28 -1.052340 10.413334 41.905273 0.240972 0.000000 0.000000
 29 -0.811197 20.060568 -10.530281 0.139927 0.000000 -0.000000
 30 -0.733661 -0.875090 4.166595 0.000000 0.000000 -0.000000
 31 0.212572 6.769414 15.607124 0.034998 -0.000022 0.000609
 32 0.298738 -0.708115 8.635887 -0.000000 0.000000 -0.000000
time 21
  0 -2.437624 -1.142060 2.887016 0.000000 -0.000000 0.000000
  1 -2.437624 -1.142060 2.887016 0.000000 -0.000000 0.000000
  2 -2.437624 -1.142060 2.887016 0.000000 -0.000000 0.000000
  3 -4.744596 2.314000 171.985855 0.000000 -0.000000 0.000000
  4 -2.437624 -2.038301 81.382927 -0.069813 0.000000 0.000000
  5 0.000000 1.168599 -4.970116 0.070005 0.000000 0.000000
  6 9.220941 -0.130356 -8.947067 -0.052505 -0.000000 0.000000
  7 -0.379086 1.818013 -27.433559 -0.035002 0.000000 -0.000000
  8 0.656837 1.037760 -26.380829 0.122505 -0.000000 -0.000000
  9 0.796035 -3.894976 -5.943809 -0.000000 0.000000 -0.000000
 10 -8.723413 -0.130356 -8.508430 -0.105003 -0.000000 -0.000000
 11 0.166782 1.557050 -27.561691 0.017500 -0.000001 0.000000
 12 -0.000001 1.297750 -26.881956 0.140003 0.000000 0.000000
 13 -1.085476 -3.894565 -4.939403 -0.000000 0.000000 -0.000000
 14 0.000000 1.168600 2.657310 0.052515 0.017459 0.001220
 15 -8.954399 1.659624 23.005516 0.569703 -0.290426 0.149489
 16 -8.916006 1.444206 -13.733971 0.030452 0.257892 0.290377
 17 -9.759175 -1.345798 -17.566849 -0.465086 -0.137531 -0.687626
 18 -2.073839 3.137749 -5.862648 -0.294268 1.154691 2.767224
 19 1.303589 133.188766 -0.868771 -0.000000 -0.000000 -0.000000
 20 77.692780 60.742180 -5.823200 -0.000000 -0.000000 -0.000000
 21 77.692780 60.742180 -5.823200 -0.000000 -0.000000 -0.000000
 22 -2.238279 -0.251132 -4.446236 -0.000000 -0.000000 -0.000000
 23 10.123165 1.597976 23.100113 -0.001166 -0.089130 -0.176055
 24 8.004900 1.569423 -13.502983 -0.463933 0.447312 -0.385330
 25 9.886023 -2.456715 -17.523193 -0.288964 0.090853 0.172794
 26 2.415184 0.208378 -5.196129 0.000000 0.000000 0.000000
 27 0.245637 0.395494 37.922539 0.169527 -0.000000 0.000000
 28 -1.052340 10.373156 41.896927 0.235101 0.000000 0.000000
 29 -0.811196 20.064043 -10.528175 0.139932 0.000000 0.000000
 30 -0.733660 -0.875242 4.165756 0.000000 -0.000000 -0.000000
 31 0.212572 6.769414 15.607124 0.034998 -0.000022 0.000609
 32 0.298738 -0.708115 8.635880 -0.000000 -0.000000 -0.000000
time 22
  0 -2.437624 -1.142060 2.887016 0.000000 -0.000000 0.000000
  1 -2.437624 -1.142060 2.887016 0.000000 -0.000000 0.000000
  2 -2.437624 -1.142060 2.887016 0.000000 -0.000000 0.000000
  3 -4.744596 2.314000 171.985855 0.000000 -0.000000 0.000000
  4 -2.437624 -2.038301 81.382927 -0.069813 0.000000 0.000000
  5 0.000000 1.168599 -4.970116 0.070005 0.000000 0.000000
  6 9.220941 -0.130356 -8.947067 -0.052505 -0.000000 0.000000
  7 -0.379086 1.818013 -27.433559 -0.035002 0.000000 -0.000000
  8 0.656837 1.037760 -26.380829 0.122505 -0.000000 -0.000000
  9 0.796035 -3.894976 -5.943809 -0.000000 0.000000 -0.000000
 10 -8.723413 -0.130356 -8.508430 -0.105003 -0.000000 -0.000000
 11 0.166782 1.557050 -27.561691 0.017500 -0.000001 0.000000
 12 -0.000001 1.297750 -26.881956 0.140003 0.000000 0.000000
 13 -1.085476 -3.894565 -4.939403 -0.000000 0.000000 -0.000000
 14 0.000000 1.168600 2.657310 0.052515 0.017459 0.001220
 15 -8.954399 1.659624 23.005516 0.569703 -0.290426 0.149489
 16 -8.916006 1.444206 -13.733971 0.028645 0.258582 0.289633
 17 -9.759394 -1.345905 -17.564873 -0.465089 -0.137532 -0.687625
 18 -2.073839 3.137750 -5.862648 -0.294268 1.154690 2.767223
 19 1.303513 133.192520 -0.868782 -0.000000 -0.000000 -0.000000
 20 77.688858 60.743874 -5.823292 -0.000000 -0.000000 -0.000000
 21 77.688858 60.743874 -5.823292 -0.000000 -0.000000 -0.000000
 22 -2.238283 -0.251134 -4.446243 0.000000 0.000000 -0.000000
 23 10.123165 1.597976 23.100113 -0.003867 -0.089920 -0.175859
 24 8.004837 1.569409 -13.503242 -0.463930 0.447313 -0.385329
 25 9.886835 -2.456394 -17.524101 -0.288962 0.090853 0.172794
 26 2.415401 0.208340 -5.196640 0.000000 0.000000 0.000000
 27 0.245637 0.395494 37.922539 0.161515 -0.000000 0.000000
 28 -1.052340 10.334988 41.889107 0.229528 0.000000 0.000000
 29 -0.811197 20.067287 -10.526199 0.139937 0.000000 -0.000000
 30 -0.733660 -0.875383 4.164993 -0.000000 0.000000 -0.000000
 31 0.212571 6.769414 15.607124 0.034998 -0.000022 0.000609
 32 0.298738 -0.708115 8.635880 -0.000000 0.000000 0.000000
time 23
  0 -2.437624 -1.142060 2.887016 0.000000 -0.000000 0.000000
  1 -2.437624 -1.142060 2.887016 0.000000 -0.000000 0.000000
  2 -2.437624 -1.142060 2.887016 0.000000 -0.000000 0.000000
  3 -4.744596 2.314000 171.985855 0.000000 -0.000000 0.000000
  4 -2.437624 -2.038301 81.382927 -0.069813 0.000000 0.000000
  5 0.000000 1.168599 -4.970116 0.070005 0.000000 0.000000
  6 9.220941 -0.130356 -8.947067 -0.052505 -0.000000 0.000000
  7 -0.379086 1.818013 -27.433559 -0.035002 0.000000 -0.000000
  8 0.656837 1.037760 -26.380829 0.122505 -0.000000 -0.000000
  9 0.796035 -3.894976 -5.943809 -0.000000 0.000000 -0.000000
 10 -8.723413 -0.130356 -8.508430 -0.105003 -0.000000 -0.000000
 11 0.166782 1.557050 -27.561691 0.017500 -0.000001 0.000000
 12 -0.000001 1.297750 -26.881956 0.140003 0.000000 0.000000
 13 -1.085476 -3.894565 -4.939403 -0.000000 0.000000 -0.000000
 14 0.000000 1.168600 2.657310 0.052515 0.017459 0.001220
 15 -8.954398 1.659624 23.005516 0.569703 -0.290426 0.149489
 16 -8.916007 1.444206 -13.733971 0.026597 0.259367 0.288916
 17 -9.759627 -1.346035 -17.562572 -0.465092 -0.137533 -0.687624
 18 -2.073841 3.137750 -5.862633 -0.294268 1.154689 2.767223
 19 1.303440 133.196686 -0.868801 -0.000000 0.000000 0.000000
 20 77.684113 60.745789 -5.823425 -0.000000 0.000000 0.000000
 21 77.684113 60.745789 -5.823425 -0.000000 0.000000 0.000000
 22 -2.238279 -0.251133 -4.446228 0.000000 0.000000 -0.000000
 23 10.123164 1.597975 23.100113 -0.007020 -0.090697 -0.175631
 24 8.004770 1.569392 -13.503548 -0.463926 0.447314 -0.385327
 25 9.887720 -2.456009 -17.525352 -0.288960 0.090853 0.172795
 26 2.415630 0.208298 -5.197277 0.000000 0.000000 0.000000
 27 0.245637 0.395494 37.922539 0.153793 -0.000000 0.000000
 28 -1.052340 10.299345 41.881958 0.224330 0.000000 0.000000
 29 -0.811197 20.070248 -10.524414 0.139941 0.000000 -0.000000
 30 -0.733660 -0.875513 4.164268 -0.000000 0.000000 -0.000000
 31 0.212571 6.769414 15.607124 0.034998 -0.000022 0.000609
 32 0.298738 -0.708115 8.635880 -0.000000 0.000000 0.000000
time 24
  0 -2.437624 -1.142060 2.887016 0.000000 -0.000000 0.000000
  1 -2.437624 -1.142060 2.887016 0.000000 -0.000000 0.000000
  2 -2.437624 -1.142060 2.887016 0.000000 -0.000000 0.000000
  3 -4.744596 2.314000 171.985855 0.000000 -0.000000 0.000000
  4 -2.437624 -2.038301 81.382927 -0.069813 0.000000 0.000000
  5 0.000000 1.168599 -4.970116 0.070005 0.000000 0.000000
  6 9.220941 -0.130356 -8.947067 -0.052505 -0.000000 0.000000
  7 -0.379086 1.818013 -27.433559 -0.035002 0.000000 -0.000000
  8 0.656837 1.037760 -26.380829 0.122505 -0.000000 -0.000000
  9 0.796035 -3.894976 -5.943809 -0.000000 0.000000 -0.000000
 10 -8.723413 -0.130356 -8.508430 -0.105003 -0.000000 -0.000000
 11 0.166782 1.557050 -27.561691 0.017500 -0.000001 0.000000
 12 -0.000001 1.297750 -26.881956 0.140003 0.000000 0.000000
 13 -1.085476 -3.894565 -4.939403 -0.000000 0.000000 -0.000000
 14 0.000000 1.168600 2.657310 0.052515 0.017459 0.001220
 15 -8.954397 1.659624 23.005516 0.569703 -0.290426 0.149489
 16 -8.916006 1.444210 -13.733971 0.024295 0.260251 0.288241
 17 -9.759884 -1.346176 -17.559998 -0.465095 -0.137535 -0.687624
 18 -2.073845 3.137748 -5.862640 -0.294268 1.154687 2.767224
 19 1.303349 133.201340 -0.868824 0.000000 0.000000 0.000000
 20 77.678543 60.747906 -5.823601 0.000000 0.000000 0.000000
 21 77.678543 60.747906 -5.823601 0.000000 0.000000 0.000000
 22 -2.238287 -0.251133 -4.446236 -0.000000 0.000000 -0.000000
 23 10.123164 1.597975 23.100113 -0.010652 -0.091439 -0.175371
 24 8.004707 1.569369 -13.503891 -0.463922 0.447314 -0.385325
 25 9.888670 -2.455559 -17.526962 -0.288958 0.090853 0.172795
 26 2.415871 0.208241 -5.198051 -0.000000 -0.000000 -0.000000
 27 0.245637 0.395493 37.922539 0.146536 -0.000000 0.000000
 28 -1.052339 10.266745 41.875595 0.219581 0.000000 0.000000
 29 -0.811197 20.072897 -10.522812 0.139945 0.000000 0.000000
 30 -0.733660 -0.875628 4.163643 -0.000000 0.000000 -0.000000
 31 0.212572 6.769413 15.607132 0.034998 -0.000022 0.000609
 32 0.298738 -0.708116 8.635887 0.000000 -0.000000 0.000000
time 25
  0 -2.437624 -1.142060 2.887016 0.000000 -0.000000 0.000000
  1 -2.437624 -1.142060 2.887016 0.000000 -0.000000 0.000000
  2 -2.437624 -1.142060 2.887016 0.000000 -0.000000 0.000000
  3 -4.744596 2.314000 171.985855 0.000000 -0.000000 0.000000
  4 -2.437624 -2.038301 81.382927 -0.069813 0.000000 0.000000
  5 0.000000 1.168599 -4.970116 0.070005 0.000000 0.000000
  6 9.220941 -0.130356 -8.947067 -0.052505 -0.000000 0.000000
  7 -0.379086 1.818013 -27.433559 -0.035002 0.000000 -0.000000
  8 0.656837 1.037760 -26.380829 0.122505 -0.000000 -0.000000
  9 0.796035 -3.894976 -5.943809 -0.000000 0.000000 -0.000000
 10 -8.723413 -0.130356 -8.508430 -0.105003 -0.000000 -0.000000
 11 0.166782 1.557050 -27.561691 0.017500 -0.000001 0.000000
 12 -0.000001 1.297750 -26.881956 0.140003 0.000000 0.000000
 13 -1.085476 -3.894565 -4.939403 -0.000000 0.000000 -0.000000
 14 0.000000 1.168600 2.657310 0.052515 0.017459 0.001220
 15 -8.954397 1.659624 23.005516 0.569703 -0.290426 0.149489
 16 -8.916006 1.444206 -13.733978 0.021727 0.261241 0.287626
 17 -9.760155 -1.346344 -17.557083 -0.465099 -0.137536 -0.687623
 18 -2.073847 3.137745 -5.862633 -0.294268 1.154686 2.767224
 19 1.303230 133.206451 -0.868862 -0.000000 -0.000000 0.000000
 20 77.671997 60.750229 -5.823818 -0.000000 -0.000000 0.000000
 21 77.671997 60.750229 -5.823818 -0.000000 -0.000000 0.000000
 22 -2.238287 -0.251133 -4.446228 -0.000000 0.000000 -0.000000
 23 10.123164 1.597975 23.100121 -0.014793 -0.092124 -0.175075
 24 8.004652 1.569340 -13.504295 -0.463917 0.447315 -0.385323
 25 9.889681 -2.455048 -17.528984 -0.288955 0.090853 0.172796
 26 2.416130 0.208183 -5.198978 -0.000000 -0.000000 0.000000
 27 0.245637 0.395493 37.922546 0.139918 -0.000000 0.000000
 28 -1.052339 10.237705 41.870087 0.215357 0.000000 0.000000
 29 -0.811196 20.075178 -10.521431 0.139949 0.000000 0.000000
 30 -0.733660 -0.875730 4.163094 -0.000000 -0.000000 0.000000
 31 0.212571 6.769413 15.607132 0.034998 -0.000022 0.000609
 32 0.298738 -0.708115 8.635887 -0.000000 -0.000000 -0.000000
time 26
  0 -2.437624 -1.142060 2.887016 0.000000 -0.000000 0.000000
  1 -2.437624 -1.142060 2.887016 0.000000 -0.000000 0.000000
  2 -2.437624 -1.142060 2.887016 0.000000 -0.000000 0.000000
  3 -4.744596 2.314000 171.985855 0.000000 -0.000000 0.000000
  4 -2.437624 -2.038301 81.382927 -0.069813 0.000000 0.000000
  5 0.000000 1.168599 -4.970116 0.070005 0.000000 0.000000
  6 9.220941 -0.130356 -8.947067 -0.052505 -0.000000 0.000000
  7 -0.379086 1.818013 -27.433559 -0.035002 0.000000 -0.000000
  8 0.656837 1.037760 -26.380829 0.122505 -0.000000 -0.000000
  9 0.796035 -3.894976 -5.943809 -0.000000 0.000000 -0.000000
 10 -8.723413 -0.130356 -8.508430 -0.105003 -0.000000 -0.000000
 11 0.166782 1.557050 -27.561691 0.017500 -0.000001 0.000000
 12 -0.000001 1.297750 -26.881956 0.140003 0.000000 0.000000
 13 -1.085476 -3.894565 -4.939403 -0.000000 0.000000 -0.000000
 14 0.000000 1.168600 2.657310 0.052515 0.017459 0.001220
 15 -8.954397 1.659624 23.005516 0.569704 -0.290426 0.149489
 16 -8.916008 1.444206 -13.733971 0.018880 0.262342 0.287086
 17 -9.760439 -1.346535 -17.553795 -0.465104 -0.137538 -0.687622
 18 -2.073849 3.137736 -5.862640 -0.294268 1.154683 2.767224
 19 1.303104 133.211914 -0.868896 0.000000 -0.000000 0.000000
 20 77.664452 60.752724 -5.824081 0.000000 -0.000000 0.000000
 21 77.664452 60.752724 -5.824081 0.000000 -0.000000 0.000000
 22 -2.238293 -0.251131 -4.446236 0.000000 -0.000000 0.000000
 23 10.123165 1.597975 23.100113 -0.019473 -0.092733 -0.174742
 24 8.004599 1.569302 -13.504768 -0.463911 0.447315 -0.385320
 25 9.890749 -2.454456 -17.531487 -0.288951 0.090853 0.172796
 26 2.416397 0.208126 -5.200073 0.000000 -0.000000 -0.000000
 27 0.245637 0.395493 37.922539 0.134113 -0.000000 0.000000
 28 -1.052340 10.212762 41.865471 0.211732 0.000000 0.000000
 29 -0.811196 20.077095 -10.520279 0.139952 0.000000 0.000000
 30 -0.733660 -0.875812 4.162628 0.000000 0.000000 -0.000000
 31 0.212571 6.769413 15.607132 0.034998 -0.000022 0.000609
 32 0.298738 -0.708115 8.635887 0.000000 0.000000 -0.000000
time 27
  0 -2.437624 -1.142060 2.887016 0.000000 -0.000000 0.000000
  1 -2.437624 -1.142060 2.887016 0.000000 -0.000000 0.000000
  2 -2.437624 -1.142060 2.887016 0.000000 -0.000000 0.000000
  3 -4.744596 2.314000 171.985855 0.000000 -0.000000 0.000000
  4 -2.437624 -2.038301 81.382927 -0.069813 0.000000 0.000000
  5 0.000000 1.168599 -4.970116 0.070005 0.000000 0.000000
  6 9.220941 -0.130356 -8.947067 -0.052505 -0.000000 0.000000
  7 -0.379086 1.818013 -27.433559 -0.035002 0.000000 -0.000000
  8 0.656837 1.037760 -26.380829 0.122505 -0.000000 -0.000000
  9 0.796035 -3.894976 -5.943809 -0.000000 0.000000 -0.000000
 10 -8.723413 -0.130356 -8.508430 -0.105003 -0.000000 -0.000000
 11 0.166782 1.557050 -27.561691 0.017500 -0.000001 0.000000
 12 -0.000001 1.297750 -26.881956 0.140003 0.000000 0.000000
 13 -1.085476 -3.894565 -4.939403 -0.000000 0.000000 -0.000000
 14 0.000000 1.168600 2.657310 0.052515 0.017459 0.001220
 15 -8.954397 1.659624 23.005516 0.569703 -0.290426 0.149489
 16 -8.916006 1.444210 -13.733971 0.015743 0.263558 0.286638
 17 -9.760734 -1.346745 -17.550171 -0.465108 -0.137540 -0.687621
 18 -2.073853 3.137722 -5.862663 -0.294268 1.154681 2.767224
 19 1.302967 133.217804 -0.868938 0.000000 0.000000 -0.000000
 20 77.655869 60.755417 -5.824406 0.000000 0.000000 -0.000000
 21 77.655869 60.755417 -5.824406 0.000000 0.000000 -0.000000
 22 -2.238295 -0.251132 -4.446251 -0.000000 -0.000000 0.000000
 23 10.123165 1.597975 23.100113 -0.024720 -0.093243 -0.174371
 24 8.004555 1.569255 -13.505348 -0.463904 0.447315 -0.385317
 25 9.891869 -2.453785 -17.534508 -0.288948 0.090853 0.172797
 26 2.416666 0.208050 -5.201351 0.000000 -0.000000 0.000000
 27 0.245637 0.395493 37.922539 0.129295 -0.000000 0.000000
 28 -1.052340 10.192436 41.861832 0.208782 0.000000 0.000000
 29 -0.811197 20.078608 -10.519356 0.139954 0.000000 0.000000
 30 -0.733660 -0.875878 4.162270 0.000000 0.000000 0.000000
 31 0.212572 6.769413 15.607132 0.034998 -0.000022 0.000609
 32 0.298738 -0.708115 8.635887 0.000000 0.000000 -0.000000
time 28
  0 -2.437624 -1.142060 2.887016 0.000000 -0.000000 0.000000
  1 -2.437624 -1.142060 2.887016 0.000000 -0.000000 0.000000
  2 -2.437624 -1.142060 2.887016 0.000000 -0.000000 0.000000
  3 -4.744596 2.314000 171.985855 0.000000 -0.000000 0.000000
  4 -2.437624 -2.038301 81.382927 -0.069813 0.000000 0.000000
  5 0.000000 1.168599 -4.970116 0.070005 0.000000 0.000000
  6 9.220941 -0.130356 -8.947067 -0.052505 -0.000000 0.000000
  7 -0.379086 1.818013 -27.433559 -0.035002 0.000000 -0.000000
  8 0.656837 1.037760 -26.380829 0.122505 -0.000000 -0.000000
  9 0.796035 -3.894976 -5.943809 -0.000000 0.000000 -0.000000
 10 -8.723413 -0.130356 -8.508430 -0.105003 -0.000000 -0.000000
 11 0.166782 1.557050 -27.561691 0.017500 -0.000001 0.000000
 12 -0.000001 1.297750 -26.881956 0.140003 0.000000 0.000000
 13 -1.085476 -3.894565 -4.939403 -0.000000 0.000000 -0.000000
 14 0.000000 1.168600 2.657310 0.052515 0.017459 0.001220
 15 -8.954399 1.659624 23.005516 0.569703 -0.290426 0.149489
 16 -8.916006 1.444206 -13.733971 0.012301 0.264896 0.286298
 17 -9.761045 -1.346985 -17.546165 -0.465114 -0.137543 -0.687620
 18 -2.073858 3.137702 -5.862694 -0.294267 1.154679 2.767224
 19 1.302799 133.224106 -0.868999 -0.000000 -0.000000 -0.000000
 20 77.646179 60.758286 -5.824783 -0.000000 -0.000000 -0.000000
 21 77.646179 60.758286 -5.824783 -0.000000 -0.000000 -0.000000
 22 -2.238300 -0.251129 -4.446274 0.000000 0.000000 -0.000000
 23 10.123164 1.597975 23.100121 -0.030564 -0.093634 -0.173960
 24 8.004517 1.569194 -13.506004 -0.463896 0.447315 -0.385314
 25 9.893040 -2.453022 -17.538101 -0.288944 0.090852 0.172798
 26 2.416946 0.207966 -5.202824 -0.000000 -0.000000 0.000000
 27 0.245637 0.395493 37.922546 0.125638 -0.000000 0.000000
 28 -1.052339 10.177267 41.859146 0.206582 0.000000 0.000000
 29 -0.811197 20.079714 -10.518684 0.139956 0.000000 -0.000000
 30 -0.733660 -0.875927 4.162003 -0.000000 0.000000 -0.000000
 31 0.212571 6.769414 15.607132 0.034998 -0.000022 0.000609
 32 0.298738 -0.708115 8.635880 -0.000000 0.000000 0.000000
time 29
  0 -2.437624 -1.142060 2.887016 0.000000 -0.000000 0.000000
  1 -2.437624 -1.142060 2.887016 0.000000 -0.000000 0.000000
  2 -2.437624 -1.142060 2.887016 0.000000 -0.000000 0.000000
  3 -4.744596 2.314000 171.985855 0.000000 -0.000000 0.000000
  4 -2.437624 -2.038301 81.382927 -0.069813 0.000000 0.000000
  5 0.000000 1.168599 -4.970116 0.070005 0.000000 0.000000
  6 9.220941 -0.130356 -8.947067 -0.052505 -0.000000 0.000000
  7 -0.379086 1.818013 -27.433559 -0.035002 0.000000 -0.000000
  8 0.656837 1.037760 -26.380829 0.122505 -0.000000 -0.000000
  9 0.796035 -3.894976 -5.943809 -0.000000 0.000000 -0.000000
 10 -8.723413 -0.130356 -8.508430 -0.105003 -0.000000 -0.000000
 11 0.166782 1.557050 -27.561691 0.017500 -0.000001 0.000000
 12 -0.000001 1.297750 -26.881956 0.140003 0.000000 0.000000
 13 -1.085476 -3.894565 -4.939403 -0.000000 0.000000 -0.000000
 14 0.000000 1.168600 2.657310 0.052515 0.017459 0.001220
 15 -8.954397 1.659624 23.005516 0.569703 -0.290426 0.149489
 16 -8.916006 1.444206 -13.733971 0.008543 0.266360 0.286081
 17 -9.761368 -1.347248 -17.541759 -0.465120 -0.137545 -0.687619
 18 -2.073860 3.137675 -5.862732 -0.294267 1.154676 2.767225
 19 1.302624 133.230743 -0.869061 0.000000 -0.000000 -0.000000
 20 77.635307 60.761311 -5.825211 0.000000 -0.000000 -0.000000
 21 77.635307 60.761311 -5.825211 0.000000 -0.000000 -0.000000
 22 -2.238302 -0.251127 -4.446304 0.000000 -0.000000 -0.000000
 23 10.123165 1.597975 23.100113 -0.037034 -0.093884 -0.173505
 24 8.004499 1.569119 -13.506805 -0.463886 0.447315 -0.385310
 25 9.894266 -2.452168 -17.542336 -0.288940 0.090852 0.172799
 26 2.417238 0.207874 -5.204510 0.000000 -0.000000 -0.000000
 27 0.245637 0.395494 37.922539 0.123316 -0.000000 0.000000
 28 -1.052340 10.167780 41.857513 0.205206 0.000000 0.000000
 29 -0.811197 20.080395 -10.518272 0.139958 0.000000 0.000000
 30 -0.733660 -0.875956 4.161842 -0.000000 0.000000 0.000000
 31 0.212572 6.769414 15.607132 0.034998 -0.000022 0.000609
 32 0.298738 -0.708115 8.635887 0.000000 0.000000 -0.000000
time 30
  0 -2.437624 -1.142060 2.887016 0.000000 -0.000000 0.000000
  1 -2.437624 -1.142060 2.887016 0.000000 -0.000000 0.000000
  2 -2.437624 -1.142060 2.887016 0.000000 -0.000000 0.000000
  3 -4.744596 2.314000 171.985855 0.000000 -0.000000 0.000000
  4 -2.437624 -2.038301 81.382927 -0.069813 0.000000 0.000000
  5 0.000000 1.168599 -4.970116 0.070005 0.000000 0.000000
  6 9.220941 -0.130356 -8.947067 -0.052505 -0.000000 0.000000
  7 -0.379086 1.818013 -27.433559 -0.035002 0.000000 -0.000000
  8 0.656837 1.037760 -26.380829 0.122505 -0.000000 -0.000000
  9 0.796035 -3.894976 -5.943809 -0.000000 0.000000 -0.000000
 10 -8.723413 -0.130356 -8.508430 -0.105003 -0.000000 -0.000000
 11 0.166782 1.557050 -27.561691 0.017500 -0.000001 0.000000
 12 -0.000001 1.297750 -26.881956 0.140003 0.000000 0.000000
 13 -1.085476 -3.894565 -4.939403 -0.000000 0.000000 -0.000000
 14 0.000000 1.168600 2.657310 0.052515 0.017459 0.001220
 15 -8.954399 1.659624 23.005516 0.569703 -0.290426 0.149489
 16 -8.916006 1.444206 -13.733971 0.004457 0.267956 0.286004
 17 -9.761701 -1.347538 -17.536964 -0.465126 -0.137548 -0.687617
 18 -2.073866 3.137640 -5.862793 -0.294266 1.154673 2.767225
 19 1.302418 133.237701 -0.869144 -0.000000 -0.000000 -0.000000
 20 77.623306 60.764488 -5.825729 -0.000000 -0.000000 -0.000000
 21 77.623306 60.764488 -5.825729 -0.000000 -0.000000 -0.000000
 22 -2.238306 -0.251124 -4.446350 -0.000000 0.000000 0.000000
 23 10.123165 1.597976 23.100113 -0.044160 -0.093971 -0.173007
 24 8.004492 1.569026 -13.507736 -0.463876 0.447314 -0.385306
 25 9.895535 -2.451210 -17.547264 -0.288935 0.090852 0.172800
 26 2.417526 0.207767 -5.206409 0.000000 -0.000000 0.000000
 27 0.245637 0.395494 37.922539 0.122503 -0.000000 -0.000000
 28 -1.052339 10.164499 41.856918 0.204731 0.000000 0.000000
 29 -0.811197 20.080629 -10.518127 0.139958 0.000000 0.000000
 30 -0.733660 -0.875965 4.161781 0.000000 -0.000000 0.000000
 31 0.212571 6.769414 15.607124 0.034998 -0.000022 0.000609
 32 0.298738 -0.708115 8.635880 -0.000000 -0.000000 -0.000000
end
