version 1
nodes
  0 "bone38"  -1
  1 "bone36"  -1
  2 "bone34"  -1
  3 "bone33"  -1
  4 "bone01"  -1
  5 "bone19"   4
  6 "bone15"   5
  7 "bone16"   6
  8 "bone18"   7
  9 "bone21"   8
 10 "bone07"   5
 11 "bone20"  10
 12 "bone17"  11
 13 "bone22"  12
 14 "bone03"   4
 15 "bone08"  14
 16 "bone05"  15
 17 "bone09"  16
 18 "bone11"  17
 19 "bone23"  18
 20 "bone24"  18
 21 "bone27"  18
 22 "bone28"  17
 23 "bone02"  14
 24 "bone04"  23
 25 "bone10"  24
 26 "bone29"  25
 27 "bone06"  14
 28 "bone12"  27
 29 "bone14"  27
 30 "bone30"  27
 31 "bone13"  14
 32 "bone32"  14
end
skeleton
time 0
  0 -2.437624 -1.142060 2.887016 0.000000 -0.000000 0.000000
  1 -2.437624 -1.142060 2.887016 0.000000 -0.000000 0.000000
  2 -2.437624 -1.142060 2.887016 0.000000 -0.000000 0.000000
  3 -4.744596 2.314000 171.985855 0.000000 -0.000000 0.000000
  4 -2.437624 -2.038301 81.382927 -0.069813 0.000000 0.000000
  5 0.000000 1.168599 -4.970116 0.070005 0.000000 0.000000
  6 9.220941 -0.130356 -8.947067 -0.052505 -0.000000 0.000000
  7 -0.379086 1.818013 -27.433559 -0.035002 0.000000 -0.000000
  8 0.656837 1.037760 -26.380829 0.122505 -0.000000 -0.000000
  9 0.796035 -3.894976 -5.943809 -0.000000 0.000000 -0.000000
 10 -8.723413 -0.130356 -8.508430 -0.105003 -0.000000 -0.000000
 11 0.166782 1.557050 -27.561691 0.017500 -0.000001 0.000000
 12 -0.000001 1.297750 -26.881956 0.140003 0.000000 0.000000
 13 -1.085476 -3.894565 -4.939403 -0.000000 0.000000 -0.000000
 14 0.000000 1.168600 2.657310 0.052515 0.017459 0.001220
 15 -8.954399 1.659625 23.005516 -0.232255 0.139671 1.241455
 16 -8.944321 1.465903 -13.462563 -0.219019 0.343564 0.616341
 17 -9.561543 -1.357554 -17.790230 -0.464149 -0.137384 -0.687520
 18 -2.070084 2.970726 -6.216940 -0.294278 1.155330 2.767118
 19 1.360767 127.032753 -0.873508 0.000000 0.000000 0.000000
 20 81.101471 57.934654 -5.855026 0.000000 0.000000 0.000000
 21 81.101471 57.934654 -5.855026 0.000000 0.000000 0.000000
 22 -2.234230 -0.237762 -4.714935 -0.000000 -0.000000 0.000000
 23 10.123167 1.597976 23.100113 -0.459405 0.089633 -0.135530
 24 8.001968 1.546467 -13.734169 -0.630416 0.388552 -0.476947
 25 9.941501 -2.349907 -18.208984 -0.657409 0.391780 0.630563
 26 2.344059 0.208721 -5.340515 -0.000000 0.000000 0.000000
 27 0.245637 0.395494 37.922539 0.122503 -0.000000 -0.000000
 28 -1.052340 10.164503 41.856918 0.204731 0.000000 0.000000
 29 -0.811197 20.080641 -10.518127 0.139958 0.000000 0.000000
 30 -0.733661 -0.875966 4.161781 -0.000000 -0.000000 0.000000
 31 0.212572 6.769416 15.607132 0.034998 -0.000022 0.000609
 32 0.298738 -0.708116 8.635887 -0.000000 0.000000 -0.000000
time 1
  0 -2.437624 -1.142060 2.887016 0.000000 -0.000000 0.000000
  1 -2.437624 -1.142060 2.887016 0.000000 -0.000000 0.000000
  2 -2.437624 -1.142060 2.887016 0.000000 -0.000000 0.000000
  3 -4.744596 2.314000 171.985855 0.000000 -0.000000 0.000000
  4 -2.437624 -2.158840 81.382927 -0.069813 0.000000 -0.010514
  5 0.000000 1.168600 -4.970123 0.070005 0.000000 0.000000
  6 9.220940 -0.130356 -8.947067 -0.042313 0.004603 0.000548
  7 -0.379085 1.818134 -27.431488 -0.013158 -0.005898 -0.002703
  8 0.656837 1.038087 -26.371201 0.126141 -0.000353 0.000097
  9 0.796035 -3.893965 -5.945600 -0.000000 -0.000000 0.000000
 10 -8.723414 -0.130356 -8.508430 -0.110781 -0.001976 0.000180
 11 0.166784 1.556916 -27.564423 0.027340 -0.001212 -0.000560
 12 -0.000001 1.297812 -26.880482 0.136866 -0.001052 0.000420
 13 -1.085475 -3.894538 -4.939447 -0.000000 0.000000 0.000000
 14 0.000000 1.168601 2.657310 0.044592 0.004143 -0.035338
 15 -8.954585 1.659586 23.005577 -0.257426 0.152793 1.226641
 16 -8.941147 1.463928 -13.488647 -0.248631 0.346581 0.587948
 17 -9.538177 -1.354921 -17.872719 -0.442070 -0.142695 -0.693809
 18 -2.070580 2.961037 -6.234127 -0.310815 1.151454 2.750783
 19 1.363214 126.653259 -0.874382 0.000000 -0.000000 -0.000000
 20 81.246468 57.761597 -5.860832 0.000000 -0.000000 -0.000000
 21 81.246468 57.761597 -5.860832 0.000000 -0.000000 -0.000000
 22 -2.234760 -0.236992 -4.727970 0.000000 0.000000 0.000000
 23 10.123375 1.597939 23.100182 -0.476508 0.085403 -0.156675
 24 8.004189 1.544304 -13.750809 -0.634591 0.383678 -0.455651
 25 9.948842 -2.346329 -18.220734 -0.657412 0.391787 0.630583
 26 2.348793 0.208462 -5.336994 -0.000000 0.000000 -0.000000
 27 0.245642 0.395484 37.922653 0.131088 -0.006934 0.028583
 28 -1.052360 10.164390 41.856544 0.204731 0.000000 0.000000
 29 -0.811213 20.080410 -10.518021 0.139958 0.000000 0.000000
 30 -0.733675 -0.875957 4.161751 0.000000 -0.000000 0.000000
 31 0.212576 6.769258 15.607178 0.034998 -0.000022 0.000609
 32 0.298744 -0.708099 8.635902 -0.000000 -0.000000 0.000000
time 2
  0 -2.437624 -1.142060 2.887016 0.000000 -0.000000 0.000000
  1 -2.437624 -1.142060 2.887016 0.000000 -0.000000 0.000000
  2 -2.437624 -1.142060 2.887016 0.000000 -0.000000 0.000000
  3 -4.744596 2.314000 171.985855 0.000000 -0.000000 0.000000
  4 -2.437624 -2.483543 81.382927 -0.069813 0.000000 -0.038837
  5 0.000000 1.168600 -4.970116 0.070005 0.000000 0.000000
  6 9.220940 -0.130356 -8.947067 -0.014856 0.017003 0.002025
  7 -0.379078 1.818331 -27.428627 0.045689 -0.021787 -0.009989
  8 0.656836 1.038240 -26.366732 0.135920 -0.001304 0.000360
  9 0.796033 -3.887906 -5.956323 0.000000 -0.000000 0.000000
 10 -8.723413 -0.130356 -8.508430 -0.126344 -0.007300 0.000666
 11 0.166782 1.556521 -27.572582 0.053848 -0.004473 -0.002069
 12 -0.000001 1.297964 -26.877117 0.128415 -0.003884 0.001553
 13 -1.085457 -3.894464 -4.939646 -0.000000 -0.000000 0.000000
 14 0.000000 1.168600 2.657310 0.023251 -0.031725 -0.133814
 15 -8.953550 1.659416 23.011406 -0.325167 0.188118 1.186744
 16 -8.932108 1.457144 -13.574570 -0.328344 0.354753 0.511487
 17 -9.484230 -1.345949 -18.101089 -0.382667 -0.157024 -0.710767
 18 -2.071995 2.937927 -6.273970 -0.355405 1.140992 2.706740
 19 1.369246 125.705757 -0.876522 0.000000 -0.000000 0.000000
 20 81.605598 57.329475 -5.875231 0.000000 -0.000000 0.000000
 21 81.605598 57.329475 -5.875231 0.000000 -0.000000 0.000000
 22 -2.236290 -0.235138 -4.758184 0.000000 -0.000000 -0.000000
 23 10.122206 1.597775 23.106033 -0.522563 0.074009 -0.213634
 24 8.007677 1.538624 -13.798668 -0.645859 0.370546 -0.398280
 25 9.963878 -2.337578 -18.254498 -0.657408 0.391800 0.630655
 26 2.361397 0.207825 -5.326263 0.000000 -0.000000 -0.000000
 27 0.245614 0.395444 37.932251 0.154211 -0.025611 0.105579
 28 -1.052087 10.164687 41.867676 0.204729 0.000000 0.000000
 29 -0.811003 20.080997 -10.520828 0.139956 0.000000 -0.000000
 30 -0.733485 -0.875982 4.162849 0.000000 -0.000000 -0.000000
 31 0.212551 6.768564 15.611130 0.034998 -0.000022 0.000609
 32 0.298710 -0.708026 8.638100 -0.000000 0.000000 -0.000000
time 3
  0 -2.437624 -1.142060 2.887016 0.000000 -0.000000 0.000000
  1 -2.437624 -1.142060 2.887016 0.000000 -0.000000 0.000000
  2 -2.437624 -1.142060 2.887016 0.000000 -0.000000 0.000000
  3 -4.744596 2.314000 171.985855 0.000000 -0.000000 0.000000
  4 -2.437624 -2.957045 81.382927 -0.069813 0.000000 -0.080139
  5 0.000000 1.168600 -4.970123 0.070005 0.000000 0.000000
  6 9.220942 -0.130357 -8.947067 0.025184 0.035086 0.004182
  7 -0.379053 1.818279 -27.431610 0.131481 -0.044952 -0.020623
  8 0.656833 1.036578 -26.415775 0.150132 -0.002690 0.000744
  9 0.796027 -3.870811 -5.986394 0.000000 -0.000000 -0.000000
 10 -8.723415 -0.130357 -8.508430 -0.149036 -0.015062 0.001375
 11 0.166781 1.555860 -27.586563 0.092499 -0.009228 -0.004271
 12 0.000000 1.298149 -26.873709 0.116091 -0.008015 0.003204
 13 -1.085395 -3.894356 -4.940131 0.000000 -0.000000 -0.000000
 14 0.000000 1.168600 2.657310 -0.007869 -0.084025 -0.277410
 15 -8.948055 1.659014 23.034233 -0.423793 0.239584 1.128601
 16 -8.918865 1.444180 -13.729485 -0.444594 0.366836 0.400010
 17 -9.441200 -1.330139 -18.397427 -0.296067 -0.177995 -0.735600
 18 -2.073526 2.916214 -6.310211 -0.420455 1.125696 2.642497
 19 1.376635 124.644501 -0.878437 0.000000 0.000000 0.000000
 20 82.047020 56.845459 -5.888065 0.000000 0.000000 0.000000
 21 82.047020 56.845459 -5.888065 0.000000 0.000000 0.000000
 22 -2.237940 -0.233406 -4.785668 -0.000000 -0.000000 -0.000000
 23 10.115992 1.597388 23.128967 -0.589697 0.057395 -0.296695
 24 8.005804 1.531258 -13.872444 -0.662328 0.351391 -0.314601
 25 9.974987 -2.327469 -18.304873 -0.657380 0.391798 0.630790
 26 2.378769 0.207077 -5.307846 -0.000000 -0.000000 0.000000
 27 0.245463 0.395349 37.969887 0.187920 -0.052838 0.217856
 28 -1.051010 10.166479 41.908798 0.204725 0.000000 0.000000
 29 -0.810173 20.084539 -10.531151 0.139951 0.000000 -0.000000
 30 -0.732734 -0.876137 4.166946 -0.000000 0.000000 -0.000000
 31 0.212420 6.766926 15.626617 0.034995 -0.000022 0.000609
 32 0.298526 -0.707855 8.646667 0.000000 -0.000000 0.000000
time 4
  0 -2.437624 -1.142060 2.887016 0.000000 -0.000000 0.000000
  1 -2.437624 -1.142060 2.887016 0.000000 -0.000000 0.000000
  2 -2.437624 -1.142060 2.887016 0.000000 -0.000000 0.000000
  3 -4.744596 2.314000 171.985855 0.000000 -0.000000 0.000000
  4 -2.437624 -3.523979 81.382927 -0.069813 0.000000 -0.129590
  5 -0.000000 1.168600 -4.970123 0.070005 0.000000 0.000000
  6 9.220940 -0.130357 -8.947067 0.073122 0.056735 0.006770
  7 -0.379002 1.817691 -27.446259 0.234107 -0.072669 -0.033360
  8 0.656829 1.031814 -26.555246 0.167086 -0.004347 0.001204
  9 0.796018 -3.839190 -6.041260 -0.000000 -0.000000 -0.000000
 10 -8.723413 -0.130356 -8.508430 -0.176201 -0.024355 0.002225
 11 0.166777 1.554926 -27.606457 0.138772 -0.014921 -0.006909
 12 0.000000 1.298310 -26.871998 0.101333 -0.012960 0.005182
 13 -1.085266 -3.894217 -4.941026 0.000000 0.000000 -0.000000
 14 0.000000 1.168601 2.657303 -0.045124 -0.146623 -0.449330
 15 -8.935463 1.658341 23.082451 -0.541697 0.301175 1.059056
 16 -8.905350 1.426003 -13.933441 -0.584058 0.381506 0.266501
 17 -9.457504 -1.313457 -18.588953 -0.192128 -0.203143 -0.765522
 18 -2.073790 2.914772 -6.312128 -0.498149 1.107379 2.565804
 19 1.382931 124.047485 -0.878141 0.000000 -0.000000 -0.000000
 20 82.421783 56.573196 -5.886033 0.000000 -0.000000 -0.000000
 21 82.421783 56.573196 -5.886033 0.000000 -0.000000 -0.000000
 22 -2.238224 -0.233292 -4.787127 -0.000000 0.000000 0.000000
 23 10.101760 1.596741 23.177368 -0.670078 0.037511 -0.396148
 24 7.992628 1.524757 -13.958717 -0.682073 0.328469 -0.214385
 25 9.975662 -2.319550 -18.358896 -0.657315 0.391762 0.630961
 26 2.396957 0.206512 -5.282959 -0.000000 0.000000 -0.000000
 27 0.245118 0.395186 38.049362 0.228260 -0.085421 0.352284
 28 -1.049118 10.169596 41.980644 0.204719 0.000000 0.000000
 29 -0.808714 20.090696 -10.549202 0.139944 0.000000 0.000000
 30 -0.731417 -0.876405 4.174088 -0.000000 -0.000000 0.000000
 31 0.212122 6.764183 15.659325 0.034989 -0.000022 0.000609
 32 0.298107 -0.707569 8.664757 0.000000 0.000000 -0.000000
time 5
  0 -2.437624 -1.142060 2.887016 0.000000 -0.000000 0.000000
  1 -2.437624 -1.142060 2.887016 0.000000 -0.000000 0.000000
  2 -2.437624 -1.142060 2.887016 0.000000 -0.000000 0.000000
  3 -4.744596 2.314000 171.985855 0.000000 -0.000000 0.000000
  4 -2.437624 -4.128977 81.382927 -0.069813 0.000000 -0.182362
  5 0.000000 1.168600 -4.970116 0.070005 0.000000 0.000000
  6 9.220940 -0.130356 -8.947067 0.124269 0.079833 0.009537
  7 -0.378920 1.816441 -27.474998 0.343451 -0.102219 -0.046946
  8 0.656825 1.023865 -26.784796 0.185148 -0.006114 0.001696
  9 0.796008 -3.795694 -6.115178 0.000000 0.000000 -0.000000
 10 -8.723413 -0.130357 -8.508430 -0.205184 -0.034271 0.003134
 11 0.166769 1.553764 -27.631424 0.188140 -0.020995 -0.009725
 12 -0.000001 1.298409 -26.873068 0.085584 -0.018238 0.007293
 13 -1.085055 -3.894061 -4.942356 0.000000 0.000000 0.000000
 14 0.000000 1.168600 2.657310 -0.084868 -0.213385 -0.632782
 15 -8.915327 1.657475 23.155899 -0.667471 0.366930 0.984903
 16 -8.896114 1.406670 -14.136223 -0.733082 0.397146 0.123959
 17 -9.542656 -1.306747 -18.519333 -0.080978 -0.229900 -0.797458
 18 -2.072992 2.941917 -6.263313 -0.580635 1.087940 2.484424
 19 1.385216 124.230133 -0.875568 -0.000000 -0.000000 0.000000
 20 82.557892 56.656494 -5.868782 -0.000000 -0.000000 0.000000
 21 82.557892 56.656494 -5.868782 -0.000000 -0.000000 0.000000
 22 -2.237360 -0.235458 -4.750107 0.000000 -0.000000 0.000000
 23 10.078993 1.595904 23.251137 -0.755901 0.016304 -0.502283
 24 7.967159 1.521271 -14.039078 -0.703125 0.304029 -0.107430
 25 9.967590 -2.315475 -18.402096 -0.657222 0.391695 0.631116
 26 2.412380 0.206268 -5.255569 0.000000 0.000000 0.000000
 27 0.244562 0.394981 38.170441 0.271282 -0.120173 0.495739
 28 -1.047070 10.171997 42.062981 0.204715 0.000000 0.000000
 29 -0.807135 20.095442 -10.569893 0.139937 0.000000 -0.000000
 30 -0.729988 -0.876613 4.182266 -0.000000 0.000000 -0.000000
 31 0.211641 6.760642 15.709160 0.034981 -0.000022 0.000609
 32 0.297434 -0.707197 8.692329 0.000000 -0.000000 0.000000
time 6
  0 -2.437624 -1.142060 2.887016 0.000000 -0.000000 0.000000
  1 -2.437624 -1.142060 2.887016 0.000000 -0.000000 0.000000
  2 -2.437624 -1.142060 2.887016 0.000000 -0.000000 0.000000
  3 -4.744596 2.314000 171.985855 0.000000 -0.000000 0.000000
  4 -2.437624 -4.716673 81.382927 -0.069813 0.000000 -0.233625
  5 -0.000000 1.168600 -4.970116 0.070005 0.000000 0.000000
  6 9.220940 -0.130357 -8.947067 0.173939 0.102263 0.012229
  7 -0.378813 1.814634 -27.515438 0.449492 -0.130900 -0.060121
  8 0.656823 1.014036 -27.063334 0.202734 -0.007828 0.002174
  9 0.796003 -3.748680 -6.193115 -0.000000 -0.000000 -0.000000
 10 -8.723413 -0.130356 -8.508430 -0.233331 -0.043902 0.004017
 11 0.166759 1.552477 -27.659264 0.236085 -0.026894 -0.012462
 12 0.000000 1.298434 -26.876974 0.070285 -0.023364 0.009345
 13 -1.084782 -3.893904 -4.944030 0.000000 0.000000 -0.000000
 14 0.000000 1.168599 2.657310 -0.123462 -0.278190 -0.810981
 15 -8.889917 1.656567 23.245087 -0.789778 0.430862 0.912870
 16 -8.893280 1.390945 -14.289673 -0.877558 0.412226 -0.014542
 17 -9.651924 -1.314064 -18.215965 0.026907 -0.255892 -0.828254
 18 -2.072693 2.987038 -6.177109 -0.660457 1.069199 2.405692
 19 1.381561 125.029930 -0.872929 0.000000 -0.000000 0.000000
 20 82.340546 57.021263 -5.851139 0.000000 -0.000000 0.000000
 21 82.340546 57.021263 -5.851139 0.000000 -0.000000 0.000000
 22 -2.237036 -0.239075 -4.684731 -0.000000 -0.000000 -0.000000
 23 10.050261 1.595032 23.340683 -0.839335 -0.004284 -0.605389
 24 7.934837 1.521255 -14.099564 -0.723523 0.280296 -0.003545
 25 9.957092 -2.314522 -18.428110 -0.657125 0.391622 0.631225
 26 2.423250 0.206306 -5.230476 0.000000 -0.000000 -0.000000
 27 0.243868 0.394764 38.317467 0.313045 -0.153918 0.635091
 28 -1.045643 10.171503 42.130318 0.204714 0.000000 0.000000
 29 -0.806034 20.094465 -10.586815 0.139931 0.000000 0.000000
 30 -0.728992 -0.876570 4.188965 -0.000000 -0.000000 0.000000
 31 0.211037 6.756938 15.769661 0.034971 -0.000021 0.000609
 32 0.296585 -0.706808 8.725815 0.000000 -0.000000 0.000000
time 7
  0 -2.437624 -1.142060 2.887016 0.000000 -0.000000 0.000000
  1 -2.437624 -1.142060 2.887016 0.000000 -0.000000 0.000000
  2 -2.437624 -1.142060 2.887016 0.000000 -0.000000 0.000000
  3 -4.744596 2.314000 171.985855 0.000000 -0.000000 0.000000
  4 -2.437624 -5.231700 81.382927 -0.069813 -0.000000 -0.278549
  5 -0.000000 1.168600 -4.970123 0.070005 0.000000 0.000000
  6 9.220941 -0.130357 -8.947067 0.217452 0.121913 0.014590
  7 -0.378699 1.812592 -27.560547 0.542317 -0.156028 -0.071643
  8 0.656825 1.004427 -27.330149 0.218224 -0.009331 0.002594
  9 0.796002 -3.707909 -6.259117 0.000000 0.000000 0.000000
 10 -8.723413 -0.130356 -8.508430 -0.257992 -0.052341 0.004791
 11 0.166752 1.551226 -27.686466 0.278088 -0.032062 -0.014861
 12 0.000000 1.298398 -26.882708 0.056877 -0.027856 0.011142
 13 -1.084485 -3.893764 -4.945807 -0.000000 0.000000 -0.000000
 14 0.000000 1.168600 2.657310 -0.157270 -0.334938 -0.967143
 15 -8.863644 1.655781 23.334282 -0.897141 0.486922 0.849694
 16 -8.895477 1.381187 -14.376862 -1.003874 0.425462 -0.135983
 17 -9.732956 -1.328224 -17.865669 0.121396 -0.278811 -0.855121
 18 -2.073175 3.031456 -6.087212 -0.730396 1.052803 2.336707
 19 1.373249 126.040215 -0.871895 0.000000 -0.000000 0.000000
 20 81.845337 57.482002 -5.844200 0.000000 -0.000000 0.000000
 21 81.845337 57.482002 -5.844200 0.000000 -0.000000 0.000000
 22 -2.237564 -0.242630 -4.616547 0.000000 0.000000 -0.000000
 23 10.020565 1.594273 23.430244 -0.912499 -0.022318 -0.695752
 24 7.904308 1.523392 -14.136166 -0.741354 0.259493 0.087477
 25 9.949436 -2.314873 -18.439837 -0.657045 0.391563 0.631288
 26 2.429659 0.206520 -5.210953 -0.000000 0.000000 0.000000
 27 0.243149 0.394577 38.464485 0.349621 -0.183487 0.757213
 28 -1.045147 10.168091 42.169128 0.204715 0.000000 -0.000000
 29 -0.805649 20.087727 -10.596558 0.139928 0.000000 -0.000000
 30 -0.728645 -0.876276 4.192833 -0.000000 0.000000 -0.000000
 31 0.210419 6.753737 15.830177 0.034962 -0.000021 0.000609
 32 0.295712 -0.706476 8.759300 0.000000 -0.000000 0.000000
time 8
  0 -2.437624 -1.142060 2.887016 0.000000 -0.000000 0.000000
  1 -2.437624 -1.142060 2.887016 0.000000 -0.000000 0.000000
  2 -2.437624 -1.142060 2.887016 0.000000 -0.000000 0.000000
  3 -4.744596 2.314000 171.985855 0.000000 -0.000000 0.000000
  4 -2.437624 -5.618691 81.382927 -0.069813 -0.000000 -0.312305
  5 -0.000000 1.168600 -4.970123 0.070005 0.000000 0.000000
  6 9.220942 -0.130356 -8.947067 0.250137 0.136674 0.016365
  7 -0.378600 1.810790 -27.600086 0.612037 -0.174913 -0.080287
  8 0.656827 0.997025 -27.532227 0.229923 -0.010460 0.002910
  9 0.796006 -3.679832 -6.303711 -0.000000 0.000000 -0.000000
 10 -8.723413 -0.130356 -8.508430 -0.276519 -0.058681 0.005373
 11 0.166742 1.550217 -27.708580 0.309642 -0.035944 -0.016664
 12 0.000000 1.298336 -26.888420 0.046803 -0.031231 0.012494
 13 -1.084227 -3.893657 -4.947326 0.000000 -0.000000 -0.000000
 14 -0.000000 1.168600 2.657303 -0.182664 -0.377553 -1.084483
 15 -8.841885 1.655226 23.406212 -0.977922 0.529047 0.802180
 16 -8.899456 1.376694 -14.411926 -1.098788 0.435461 -0.227307
 17 -9.769974 -1.340199 -17.624710 0.192477 -0.296118 -0.875334
 18 -2.073668 3.062897 -6.021523 -0.783039 1.040426 2.284777
 19 1.364349 126.897911 -0.872108 0.000000 0.000000 0.000000
 20 81.314362 57.873146 -5.845695 0.000000 0.000000 0.000000
 21 81.314362 57.873146 -5.845695 0.000000 0.000000 0.000000
 22 -2.238092 -0.245140 -4.566734 -0.000000 -0.000000 0.000000
 23 9.995956 1.593739 23.502464 -0.967493 -0.035866 -0.763654
 24 7.882347 1.525909 -14.153332 -0.754730 0.243855 0.155862
 25 9.945984 -2.315247 -18.443619 -0.656990 0.391524 0.631319
 26 2.432768 0.206757 -5.198135 0.000000 0.000000 0.000000
 27 0.242546 0.394444 38.583054 0.377090 -0.205704 0.848973
 28 -1.045284 10.163868 42.182777 0.204717 0.000000 0.000000
 29 -0.805759 20.079386 -10.599998 0.139927 0.000000 0.000000
 30 -0.728745 -0.875912 4.194176 -0.000000 0.000000 0.000000
 31 0.209900 6.751472 15.878975 0.034955 -0.000021 0.000609
 32 0.294983 -0.706240 8.786293 0.000000 0.000000 -0.000000
time 9
  0 -2.437624 -1.142060 2.887016 0.000000 -0.000000 0.000000
  1 -2.437624 -1.142060 2.887016 0.000000 -0.000000 0.000000
  2 -2.437624 -1.142060 2.887016 0.000000 -0.000000 0.000000
  3 -4.744596 2.314000 171.985855 0.000000 -0.000000 0.000000
  4 -2.437624 -5.822280 81.382927 -0.069813 -0.000000 -0.330063
  5 0.000000 1.168600 -4.970116 0.070005 0.000000 0.000000
  6 9.220942 -0.130356 -8.947067 0.267327 0.144437 0.017299
  7 -0.378543 1.809756 -27.622715 0.648716 -0.184851 -0.084830
  8 0.656829 0.993176 -27.636017 0.236097 -0.011054 0.003076
  9 0.796007 -3.666500 -6.324656 0.000000 0.000000 0.000000
 10 -8.723414 -0.130356 -8.508430 -0.286264 -0.062016 0.005679
 11 0.166739 1.549658 -27.720783 0.326238 -0.037986 -0.017612
 12 -0.000000 1.298291 -26.891907 0.041503 -0.033006 0.013204
 13 -1.084078 -3.893597 -4.948192 -0.000000 -0.000000 0.000000
 14 0.000000 1.168600 2.657310 -0.196020 -0.399963 -1.146213
 15 -8.829849 1.654955 23.445290 -1.020449 0.551202 0.777168
 16 -8.902164 1.375298 -14.420403 -1.148772 0.440731 -0.275372
 17 -9.779049 -1.346081 -17.522827 0.229914 -0.305230 -0.885993
 18 -2.073833 3.077797 -5.990089 -0.810777 1.033881 2.257412
 19 1.358986 127.364296 -0.872532 -0.000000 -0.000000 0.000000
 20 80.995445 58.085869 -5.848434 -0.000000 -0.000000 0.000000
 21 80.995445 58.085869 -5.848434 -0.000000 -0.000000 0.000000
 22 -2.238274 -0.246330 -4.542885 -0.000000 -0.000000 -0.000000
 23 9.982361 1.593479 23.541702 -0.996428 -0.042992 -0.799377
 24 7.871716 1.527420 -14.158871 -0.761762 0.235626 0.191837
 25 9.945179 -2.315353 -18.444365 -0.656963 0.391506 0.631330
 26 2.433863 0.206902 -5.192070 -0.000000 0.000000 0.000000
 27 0.242226 0.394381 38.647476 0.391536 -0.217392 0.897246
 28 -1.045528 10.161229 42.184258 0.204719 0.000000 0.000000
 29 -0.805946 20.074173 -10.600380 0.139927 0.000000 0.000000
 30 -0.728912 -0.875686 4.194328 0.000000 0.000000 0.000000
 31 0.209618 6.750361 15.905487 0.034952 -0.000021 0.000609
 32 0.294586 -0.706123 8.800972 0.000000 0.000000 0.000000
time 10
  0 -2.437624 -1.142060 2.887016 0.000000 -0.000000 0.000000
  1 -2.437624 -1.142060 2.887016 0.000000 -0.000000 0.000000
  2 -2.437624 -1.142060 2.887016 0.000000 -0.000000 0.000000
  3 -4.744596 2.314000 171.985855 0.000000 -0.000000 0.000000
  4 -2.437624 -5.840042 81.382927 -0.069813 -0.000000 -0.331612
  5 0.000000 1.168600 -4.970116 0.070005 0.000000 0.000000
  6 9.220942 -0.130355 -8.947067 0.268827 0.145115 0.017380
  7 -0.378538 1.809663 -27.624752 0.651916 -0.185718 -0.085226
  8 0.656829 0.992847 -27.644930 0.236636 -0.011106 0.003090
  9 0.796008 -3.665390 -6.326391 -0.000000 0.000000 0.000000
 10 -8.723413 -0.130356 -8.508430 -0.287114 -0.062307 0.005706
 11 0.166738 1.549610 -27.721863 0.327686 -0.038165 -0.017695
 12 0.000001 1.298287 -26.892227 0.041041 -0.033161 0.013267
 13 -1.084064 -3.893595 -4.948266 -0.000000 -0.000000 -0.000000
 14 0.000000 1.168600 2.657310 -0.197185 -0.401918 -1.151599
 15 -8.828777 1.654930 23.448730 -1.024160 0.553135 0.774985
 16 -8.902412 1.375206 -14.420836 -1.153135 0.441191 -0.279565
 17 -9.779484 -1.346573 -17.514999 0.233181 -0.306024 -0.886924
 18 -2.073843 3.079048 -5.987480 -0.813198 1.033309 2.255023
 19 1.358521 127.405212 -0.872574 -0.000000 -0.000000 -0.000000
 20 80.966690 58.104538 -5.848713 -0.000000 -0.000000 -0.000000
 21 80.966690 58.104538 -5.848713 -0.000000 -0.000000 -0.000000
 22 -2.238285 -0.246437 -4.540916 0.000000 0.000000 0.000000
 23 9.981159 1.593456 23.545158 -0.998952 -0.043614 -0.802493
 24 7.870831 1.527557 -14.159233 -0.762376 0.234908 0.194975
 25 9.945145 -2.315353 -18.444391 -0.656960 0.391505 0.631331
 26 2.433943 0.206917 -5.191566 0.000000 0.000000 -0.000000
 27 0.242195 0.394375 38.653137 0.392796 -0.218412 0.901457
 28 -1.045551 10.160995 42.184189 0.204719 0.000000 0.000000
 29 -0.805965 20.073708 -10.600365 0.139927 0.000000 0.000000
 30 -0.728928 -0.875663 4.194313 0.000000 0.000000 0.000000
 31 0.209595 6.750269 15.907814 0.034951 -0.000021 0.000609
 32 0.294548 -0.706112 8.802254 -0.000000 0.000000 0.000000
time 11
  0 -2.437624 -1.142060 2.887016 0.000000 -0.000000 0.000000
  1 -2.437624 -1.142060 2.887016 0.000000 -0.000000 0.000000
  2 -2.437624 -1.142060 2.887016 0.000000 -0.000000 0.000000
  3 -4.744596 2.314000 171.985855 0.000000 -0.000000 0.000000
  4 -2.437624 -5.840042 81.382927 -0.069813 -0.000000 -0.331612
  5 0.000000 1.168600 -4.970116 0.070005 0.000000 0.000000
  6 9.220942 -0.130355 -8.947067 0.268827 0.145115 0.017380
  7 -0.378538 1.809664 -27.624756 0.651916 -0.185718 -0.085226
  8 0.656830 0.992844 -27.644934 0.236636 -0.011106 0.003090
  9 0.796008 -3.665394 -6.326390 -0.000000 0.000000 0.000000
 10 -8.723413 -0.130356 -8.508430 -0.287114 -0.062307 0.005706
 11 0.166738 1.549610 -27.721863 0.327686 -0.038165 -0.017695
 12 0.000001 1.298287 -26.892227 0.041041 -0.033161 0.013267
 13 -1.084064 -3.893595 -4.948266 -0.000000 -0.000000 -0.000000
 14 0.000000 1.168600 2.657310 -0.197185 -0.401918 -1.151599
 15 -8.828785 1.654930 23.448738 -1.024160 0.553135 0.774985
 16 -8.902412 1.375206 -14.420834 -1.153135 0.441191 -0.279565
 17 -9.779484 -1.346569 -17.514999 0.233181 -0.306024 -0.886924
 18 -2.073839 3.079048 -5.987488 -0.813198 1.033309 2.255023
 19 1.358513 127.405197 -0.872570 -0.000000 0.000000 0.000000
 20 80.966698 58.104523 -5.848724 -0.000000 0.000000 0.000000
 21 80.966698 58.104523 -5.848724 -0.000000 0.000000 0.000000
 22 -2.238283 -0.246429 -4.540916 -0.000000 -0.000000 -0.000000
 23 9.981155 1.593456 23.545158 -0.998952 -0.043614 -0.802494
 24 7.870834 1.527550 -14.159233 -0.762376 0.234907 0.194975
 25 9.945145 -2.315353 -18.444393 -0.656961 0.391505 0.631331
 26 2.433935 0.206924 -5.191566 0.000000 0.000000 0.000000
 27 0.242195 0.394373 38.653145 0.392796 -0.218412 0.901457
 28 -1.045551 10.160994 42.184189 0.204719 0.000000 0.000000
 29 -0.805965 20.073704 -10.600365 0.139927 0.000000 -0.000000
 30 -0.728928 -0.875665 4.194313 -0.000000 0.000000 0.000000
 31 0.209591 6.750269 15.907822 0.034951 -0.000021 0.000609
 32 0.294548 -0.706112 8.802261 0.000000 -0.000000 -0.000000
time 12
  0 -2.437624 -1.142060 2.887016 0.000000 -0.000000 0.000000
  1 -2.437624 -1.142060 2.887016 0.000000 -0.000000 0.000000
  2 -2.437624 -1.142060 2.887016 0.000000 -0.000000 0.000000
  3 -4.744596 2.314000 171.985855 0.000000 -0.000000 0.000000
  4 -2.437624 -5.840042 81.382927 -0.069813 -0.000000 -0.331612
  5 0.000000 1.168600 -4.970116 0.070005 0.000000 0.000000
  6 9.220942 -0.130355 -8.947067 0.268827 0.145115 0.017380
  7 -0.378538 1.809662 -27.624756 0.651916 -0.185718 -0.085226
  8 0.656831 0.992847 -27.644936 0.236636 -0.011106 0.003090
  9 0.796007 -3.665394 -6.326391 -0.000000 0.000000 -0.000000
 10 -8.723413 -0.130356 -8.508430 -0.287114 -0.062307 0.005706
 11 0.166738 1.549610 -27.721863 0.327686 -0.038165 -0.017695
 12 0.000001 1.298287 -26.892227 0.041041 -0.033161 0.013267
 13 -1.084064 -3.893595 -4.948266 -0.000000 -0.000000 -0.000000
 14 0.000000 1.168600 2.657310 -0.197186 -0.401918 -1.151599
 15 -8.828785 1.654932 23.448723 -1.024160 0.553135 0.774985
 16 -8.902416 1.375206 -14.420834 -1.153135 0.441191 -0.279565
 17 -9.779484 -1.346558 -17.514999 0.233181 -0.306024 -0.886924
 18 -2.073841 3.079048 -5.987480 -0.813198 1.033309 2.255023
 19 1.358505 127.405197 -0.872570 -0.000000 0.000000 -0.000000
 20 80.966675 58.104507 -5.848724 -0.000000 0.000000 -0.000000
 21 80.966675 58.104507 -5.848724 -0.000000 0.000000 -0.000000
 22 -2.238283 -0.246437 -4.540909 -0.000000 0.000000 -0.000000
 23 9.981155 1.593454 23.545158 -0.998952 -0.043614 -0.802494
 24 7.870831 1.527550 -14.159229 -0.762375 0.234907 0.194975
 25 9.945145 -2.315353 -18.444393 -0.656961 0.391505 0.631331
 26 2.433939 0.206924 -5.191559 -0.000000 0.000000 0.000000
 27 0.242195 0.394373 38.653145 0.392796 -0.218412 0.901457
 28 -1.045551 10.160994 42.184189 0.204719 0.000000 0.000000
 29 -0.805965 20.073704 -10.600365 0.139927 0.000000 0.000000
 30 -0.728928 -0.875663 4.194313 -0.000000 0.000000 0.000000
 31 0.209595 6.750269 15.907814 0.034951 -0.000021 0.000609
 32 0.294548 -0.706112 8.802254 0.000000 -0.000000 0.000000
time 13
  0 -2.437624 -1.142060 2.887016 0.000000 -0.000000 0.000000
  1 -2.437624 -1.142060 2.887016 0.000000 -0.000000 0.000000
  2 -2.437624 -1.142060 2.887016 0.000000 -0.000000 0.000000
  3 -4.744596 2.314000 171.985855 0.000000 -0.000000 0.000000
  4 -2.437624 -6.360852 81.382927 -0.069813 -0.000000 -0.323614
  5 0.000000 1.168600 -4.970123 0.070005 0.000000 0.000000
  6 9.220941 -0.130356 -8.947067 0.261366 0.144390 0.016733
  7 -0.378543 1.810125 -27.616245 0.657500 -0.186570 -0.086622
  8 0.656827 0.992985 -27.641298 0.237525 -0.011194 0.003106
  9 0.796002 -3.665627 -6.326068 -0.000000 -0.000000 -0.000000
 10 -8.723414 -0.130357 -8.508430 -0.282461 -0.062529 0.005417
 11 0.166737 1.549881 -27.716419 0.327329 -0.038120 -0.017675
 12 0.000000 1.298254 -26.893082 0.041155 -0.033122 0.013251
 13 -1.084061 -3.893401 -4.948569 0.000000 0.000000 -0.000000
 14 0.000000 1.168600 2.657310 -0.193151 -0.399821 -1.129459
 15 -8.830181 1.655016 23.443314 -1.038788 0.498987 0.758838
 16 -8.920189 1.372116 -14.420714 -1.147070 0.436351 -0.292000
 17 -9.780794 -1.343849 -17.551170 0.238922 -0.306244 -0.889039
 18 -2.072952 3.083389 -5.981262 -0.814674 1.032206 2.253599
 19 1.359268 127.749786 -0.869911 -0.000000 0.000000 -0.000000
 20 81.011444 58.261658 -5.830868 -0.000000 0.000000 -0.000000
 21 81.011444 58.261658 -5.830868 -0.000000 0.000000 -0.000000
 22 -2.237326 -0.246780 -4.536186 0.000000 -0.000000 -0.000000
 23 9.982727 1.593540 23.539719 -0.971318 -0.059138 -0.811637
 24 7.866047 1.530804 -14.137852 -0.757682 0.234408 0.191295
 25 9.941635 -2.316628 -18.442057 -0.657025 0.391545 0.631321
 26 2.433575 0.206421 -5.205032 0.000000 0.000000 0.000000
 27 0.242229 0.394394 38.644211 0.386073 -0.216433 0.881575
 28 -1.045197 10.160804 42.201370 0.204714 0.000000 0.000000
 29 -0.805691 20.073334 -10.604668 0.139923 0.000000 0.000000
 30 -0.728683 -0.875647 4.196030 0.000000 0.000000 -0.000000
 31 0.209621 6.750628 15.904137 0.034952 -0.000022 0.000609
 32 0.294594 -0.706152 8.800224 0.000000 -0.000000 -0.000000
time 14
  0 -2.437624 -1.142060 2.887016 0.000000 -0.000000 0.000000
  1 -2.437624 -1.142060 2.887016 0.000000 -0.000000 0.000000
  2 -2.437624 -1.142060 2.887016 0.000000 -0.000000 0.000000
  3 -4.744596 2.314000 171.985855 0.000000 -0.000000 0.000000
  4 -2.437624 -12.773718 81.382927 -0.069813 0.000000 -0.225131
  5 0.000000 1.168600 -4.970116 0.070005 0.000000 0.000000
  6 9.220940 -0.130357 -8.947060 0.169460 0.135283 0.008754
  7 -0.378610 1.814849 -27.528709 0.726268 -0.197054 -0.103810
  8 0.656753 0.994747 -27.597242 0.248464 -0.012282 0.003299
  9 0.795879 -3.668730 -6.322214 0.000000 0.000000 0.000000
 10 -8.723413 -0.130356 -8.508430 -0.225157 -0.065271 0.001859
 11 0.166733 1.552881 -27.656181 0.322428 -0.037515 -0.017393
 12 0.000000 1.297589 -26.909744 0.042726 -0.032592 0.013040
 13 -1.084027 -3.890204 -4.953440 0.000000 -0.000000 0.000000
 14 0.000000 1.168600 2.657310 -0.143467 -0.373479 -0.856846
 15 -8.848221 1.656130 23.373581 -1.165150 0.031250 0.619479
 16 -8.933935 1.369507 -14.422564 -1.071141 0.376588 -0.444197
 17 -9.563587 -1.331741 -18.145439 0.309142 -0.308748 -0.914865
 18 -2.023914 3.132380 -6.033691 -0.833972 1.017464 2.234924
 19 1.368042 132.047043 -0.835838 0.000000 0.000000 -0.000000
 20 81.534485 60.221481 -5.602486 0.000000 0.000000 -0.000000
 21 81.534485 60.221481 -5.602486 0.000000 0.000000 -0.000000
 22 -2.184395 -0.250706 -4.575951 0.000000 -0.000000 0.000000
 23 10.003136 1.594610 23.469696 -0.732870 -0.204822 -0.890490
 24 7.826019 1.554092 -13.992256 -0.700355 0.228306 0.145171
 25 9.901047 -2.348328 -18.295393 -0.657386 0.391807 0.631253
 26 2.435593 0.201988 -5.309490 -0.000000 0.000000 0.000000
 27 0.242729 0.394659 38.529266 0.303286 -0.191904 0.636757
 28 -1.040985 10.162097 42.385796 0.204659 0.000000 0.000000
 29 -0.802444 20.075886 -10.651009 0.139885 0.000000 0.000000
 30 -0.725746 -0.875759 4.214371 0.000000 -0.000000 -0.000000
 31 0.210052 6.755159 15.856827 0.034959 -0.000021 0.000609
 32 0.295200 -0.706623 8.774055 -0.000000 -0.000000 0.000000
time 15
  0 -2.437624 -1.142060 2.887016 0.000000 -0.000000 0.000000
  1 -2.437624 -1.142060 2.887016 0.000000 -0.000000 0.000000
  2 -2.437624 -1.142060 2.887016 0.000000 -0.000000 0.000000
  3 -4.744596 2.314000 171.985855 0.000000 -0.000000 0.000000
  4 -2.437624 -23.815842 81.382927 -0.069813 0.000000 -0.055556
  5 -0.000000 1.168600 -4.970123 0.070005 0.000000 0.000000
  6 9.220941 -0.130358 -8.947060 0.011088 0.118966 -0.004991
  7 -0.378718 1.818344 -27.458706 0.844723 -0.215090 -0.133416
  8 0.656420 0.997946 -27.525436 0.267299 -0.014155 0.003632
  9 0.795395 -3.675186 -6.316019 0.000000 0.000000 0.000000
 10 -8.723413 -0.130358 -8.508430 -0.126423 -0.069989 -0.004272
 11 0.166728 1.556526 -27.583118 0.312278 -0.036265 -0.016812
 12 0.000000 1.295380 -26.963741 0.045954 -0.031501 0.012605
 13 -1.083987 -3.881338 -4.966612 -0.000000 0.000000 -0.000000
 14 -0.000000 1.168602 2.657310 -0.057883 -0.326349 -0.387446
 15 -8.880686 1.658039 23.248657 -1.210686 -0.134436 0.573451
 16 -8.885059 1.378265 -14.420459 -0.935774 0.273895 -0.706372
 17 -9.304642 -1.338684 -18.533215 0.430378 -0.313741 -0.959818
 18 -1.983772 3.133310 -6.154236 -0.869752 0.988669 2.200065
 19 1.375587 133.317215 -0.821976 0.000000 -0.000000 -0.000000
 20 81.984291 60.800751 -5.509598 0.000000 -0.000000 -0.000000
 21 81.984291 60.800751 -5.509598 0.000000 -0.000000 -0.000000
 22 -2.141075 -0.250777 -4.667374 0.000000 0.000000 0.000000
 23 10.039825 1.596451 23.344269 -0.647145 -0.314344 -0.917357
 24 7.821251 1.558517 -13.958683 -0.602248 0.217881 0.063025
 25 9.876610 -2.379936 -18.114735 -0.657284 0.391836 0.631234
 26 2.439354 0.199982 -5.349442 -0.000000 -0.000000 -0.000000
 27 0.243614 0.395115 38.323349 0.160683 -0.149186 0.215159
 28 -1.037750 10.170650 42.490631 0.204617 0.000000 0.000000
 29 -0.799953 20.092781 -10.677361 0.139861 0.000000 0.000000
 30 -0.723492 -0.876495 4.224785 0.000000 -0.000000 -0.000000
 31 0.210819 6.762959 15.772087 0.034972 -0.000021 0.000609
 32 0.296276 -0.707439 8.727150 -0.000000 0.000000 0.000000
time 16
  0 -2.437624 -1.142060 2.887016 0.000000 -0.000000 0.000000
  1 -2.437624 -1.142060 2.887016 0.000000 -0.000000 0.000000
  2 -2.437624 -1.142060 2.887016 0.000000 -0.000000 0.000000
  3 -4.744596 2.314000 171.985855 0.000000 -0.000000 0.000000
  4 -2.437624 -36.081795 81.382927 -0.069814 -0.000000 0.132814
  5 0.000000 1.168598 -4.970123 0.070005 0.000000 0.000000
  6 9.220942 -0.130352 -8.947067 -0.164847 0.099569 -0.020245
  7 -0.378827 1.815010 -27.507721 0.976330 -0.235086 -0.166320
  8 0.655677 1.001820 -27.453207 0.288220 -0.016236 0.004001
  9 0.794371 -3.684458 -6.309757 0.000000 -0.000000 0.000000
 10 -8.723414 -0.130352 -8.508430 -0.016687 -0.075224 -0.011090
 11 0.166718 1.558201 -27.550526 0.297555 -0.034457 -0.015971
 12 -0.000000 1.291550 -27.055683 0.050613 -0.029924 0.011978
 13 -1.083973 -3.867115 -4.987349 0.000000 0.000000 0.000000
 14 0.000000 1.168598 2.657310 0.037236 -0.270373 0.133982
 15 -8.913505 1.659534 23.128372 -1.137742 0.171515 0.712178
 16 -8.960388 1.370934 -14.366877 -0.777486 0.159593 -0.998368
 17 -9.367504 -1.326309 -18.584145 0.565205 -0.319422 -1.009356
 18 -1.964531 3.137028 -6.203629 -0.917852 0.950336 2.153264
 19 1.382610 133.292572 -0.817406 0.000000 -0.000000 -0.000000
 20 82.402496 60.789513 -5.478928 0.000000 -0.000000 -0.000000
 21 82.402496 60.789513 -5.478928 0.000000 -0.000000 -0.000000
 22 -2.120300 -0.251072 -4.704834 0.000000 -0.000000 -0.000000
 23 10.076928 1.597893 23.223480 -0.786326 -0.373972 -0.844362
 24 7.847519 1.545692 -14.032364 -0.493203 0.206287 -0.033909
 25 9.868599 -2.380226 -18.127640 -0.657296 0.391826 0.631228
 26 2.441071 0.199875 -5.348206 0.000000 -0.000000 -0.000000
 27 0.244514 0.395473 38.125069 0.002183 -0.100742 -0.253188
 28 -1.043243 10.171396 42.239990 0.204658 0.000000 0.000000
 29 -0.804182 20.094255 -10.614380 0.139897 0.000000 -0.000000
 30 -0.727318 -0.876560 4.199875 -0.000000 -0.000000 0.000000
 31 0.211600 6.769043 15.690483 0.034985 -0.000022 0.000609
 32 0.297374 -0.708073 8.681999 -0.000000 0.000000 0.000000
time 17
  0 -2.437624 -1.142060 2.887016 0.000000 -0.000000 0.000000
  1 -2.437624 -1.142060 2.887016 0.000000 -0.000000 0.000000
  2 -2.437624 -1.142060 2.887016 0.000000 -0.000000 0.000000
  3 -4.744596 2.314000 171.985855 0.000000 -0.000000 0.000000
  4 -2.437624 -46.166130 81.382927 -0.069814 0.000000 0.287680
  5 0.000000 1.168602 -4.970116 0.070005 0.000000 0.000000
  6 9.220942 -0.130356 -8.947067 -0.309350 0.081278 -0.032760
  7 -0.378912 1.806755 -27.643764 1.084504 -0.251496 -0.193381
  8 0.654719 1.005289 -27.401001 0.305421 -0.017946 0.004304
  9 0.793081 -3.694106 -6.304996 0.000000 0.000000 -0.000000
 10 -8.723413 -0.130352 -8.508438 0.073540 -0.079520 -0.016698
 11 0.166712 1.557655 -27.563202 0.279009 -0.032180 -0.014914
 12 0.000000 1.287743 -27.146057 0.056481 -0.027942 0.011188
 13 -1.084003 -3.853043 -5.007479 -0.000000 0.000000 -0.000000
 14 0.000000 1.168602 2.657303 0.115456 -0.217555 0.562686
 15 -8.934782 1.659323 23.068748 -1.037881 0.591694 0.922268
 16 -8.848892 1.398468 -14.290539 -0.632346 0.065760 -1.238759
 17 -9.514221 -1.305191 -18.592602 0.676019 -0.324145 -1.049824
 18 -1.950417 3.134666 -6.249584 -0.972972 0.906605 2.099638
 19 1.385098 133.091568 -0.817123 0.000000 0.000000 0.000000
 20 82.551132 60.697861 -5.477066 0.000000 0.000000 0.000000
 21 82.551132 60.697861 -5.477066 0.000000 0.000000 0.000000
 22 -2.105072 -0.250893 -4.739689 0.000000 -0.000000 0.000000
 23 10.100986 1.597685 23.163620 -0.977562 -0.414473 -0.711570
 24 7.875237 1.526451 -14.161423 -0.403598 0.196734 -0.124429
 25 9.847733 -2.375015 -18.203789 -0.657368 0.391792 0.631213
 26 2.445246 0.199951 -5.337204 0.000000 0.000000 -0.000000
 27 0.245098 0.395420 38.026794 -0.128215 -0.058875 -0.638231
 28 -1.050287 10.171795 41.916649 0.204757 0.000000 0.000000
 29 -0.809616 20.095041 -10.533127 0.139968 0.000000 0.000000
 30 -0.732229 -0.876591 4.167717 -0.000000 0.000000 0.000000
 31 0.212105 6.768178 15.650032 0.034990 -0.000022 0.000609
 32 0.298086 -0.707985 8.659630 -0.000000 0.000000 -0.000000
time 18
  0 -2.437624 -1.142060 2.887016 0.000000 -0.000000 0.000000
  1 -2.437624 -1.142060 2.887016 0.000000 -0.000000 0.000000
  2 -2.437624 -1.142060 2.887016 0.000000 -0.000000 0.000000
  3 -4.744596 2.314000 171.985855 0.000000 -0.000000 0.000000
  4 -2.437624 -50.663448 81.382927 -0.069814 0.000000 0.356746
  5 0.000000 1.168594 -4.970123 0.070005 0.000000 0.000000
  6 9.220942 -0.130360 -8.947067 -0.373728 0.068279 -0.038330
  7 -0.378964 1.801605 -27.728207 1.132731 -0.258805 -0.205450
  8 0.654101 1.006959 -27.382698 0.313093 -0.018708 0.004439
  9 0.792263 -3.699396 -6.303288 -0.000000 0.000000 0.000000
 10 -8.723412 -0.130356 -8.508430 0.113772 -0.081433 -0.019199
 11 0.166708 1.556850 -27.580276 0.257423 -0.029526 -0.013682
 12 0.000000 1.286631 -27.171646 0.063346 -0.025636 0.010265
 13 -1.084078 -3.847874 -5.014486 -0.000000 0.000000 0.000000
 14 0.000002 1.168598 2.657310 0.150339 -0.179975 0.753888
 15 -8.943897 1.658563 23.053856 -0.983543 0.820261 1.087460
 16 -8.717392 1.421379 -14.282387 -0.536537 0.024003 -1.345759
 17 -9.592697 -1.293808 -18.594852 0.725430 -0.326241 -1.067833
 18 -1.946365 3.128174 -6.274441 -1.029914 0.861712 2.044247
 19 1.382797 132.966263 -0.819588 0.000000 0.000000 -0.000000
 20 82.413528 60.640671 -5.493538 0.000000 0.000000 -0.000000
 21 82.413528 60.640671 -5.493538 0.000000 0.000000 -0.000000
 22 -2.100700 -0.250359 -4.758543 0.000000 0.000000 0.000000
 23 10.111298 1.596954 23.148659 -1.081837 -0.430470 -0.553831
 24 7.886322 1.515480 -14.242043 -0.363655 0.192467 -0.187246
 25 9.820518 -2.375824 -18.248257 -0.657406 0.391747 0.631184
 26 2.449505 0.199867 -5.330086 0.000000 -0.000000 0.000000
 27 0.245346 0.395239 38.002228 -0.186379 -0.035992 -0.809961
 28 -1.052141 10.171860 41.831078 0.204804 0.000000 0.000000
 29 -0.811047 20.095161 -10.511620 0.139997 0.000000 -0.000000
 30 -0.733522 -0.876595 4.159218 -0.000000 -0.000000 0.000000
 31 0.212326 6.765083 15.639931 0.034990 -0.000022 0.000609
 32 0.298389 -0.707664 8.654030 0.000000 0.000000 0.000000
time 19
  0 -2.437624 -1.142060 2.887016 0.000000 -0.000000 0.000000
  1 -2.437624 -1.142060 2.887016 0.000000 -0.000000 0.000000
  2 -2.437624 -1.142060 2.887016 0.000000 -0.000000 0.000000
  3 -4.744596 2.314000 171.985855 0.000000 -0.000000 0.000000
  4 -2.437624 -49.828384 81.382927 -0.069814 -0.000000 0.350760
  5 0.000000 1.168598 -4.970116 0.070005 0.000000 0.000000
  6 9.220942 -0.130360 -8.947067 -0.368356 0.059892 -0.037675
  7 -0.378992 1.802040 -27.718285 1.112470 -0.254294 -0.201901
  8 0.654047 1.007927 -27.358261 0.309768 -0.018383 0.004361
  9 0.792201 -3.703490 -6.297287 0.000000 -0.000000 -0.000000
 10 -8.723412 -0.130360 -8.508430 0.110093 -0.080013 -0.018872
 11 0.166710 1.556938 -27.577995 0.233511 -0.026582 -0.012317
 12 0.000000 1.288256 -27.131474 0.070984 -0.023081 0.009241
 13 -1.084215 -3.851866 -5.008047 0.000000 -0.000000 -0.000000
 14 0.000002 1.168598 2.657310 0.148762 -0.155710 0.741444
 15 -8.947369 1.658602 23.042908 -1.011074 0.692155 1.166645
 16 -8.783493 1.412270 -14.264431 -0.484477 0.029409 -1.311795
 17 -9.553001 -1.299324 -18.597069 0.704771 -0.322958 -1.061298
 18 -1.938377 3.135536 -6.282520 -1.083036 0.819742 1.992565
 19 1.383774 133.239471 -0.816978 0.000000 -0.000000 -0.000000
 20 82.471870 60.765282 -5.476135 0.000000 -0.000000 -0.000000
 21 82.471870 60.765282 -5.476135 0.000000 -0.000000 -0.000000
 22 -2.092072 -0.250954 -4.764668 -0.000000 -0.000000 0.000000
 23 10.115215 1.596990 23.137665 -1.051983 -0.396237 -0.346043
 24 7.897097 1.514061 -14.235245 -0.368184 0.195879 -0.225656
 25 9.820084 -2.377014 -18.240440 -0.657402 0.391748 0.631181
 26 2.449497 0.199783 -5.331940 0.000000 -0.000000 0.000000
 27 0.245445 0.395248 37.984177 -0.181195 -0.029102 -0.796432
 28 -1.052270 10.171299 41.827759 0.204810 0.000000 0.000000
 29 -0.811143 20.094063 -10.510796 0.140001 0.000000 0.000000
 30 -0.733613 -0.876553 4.158875 -0.000000 -0.000000 -0.000000
 31 0.212402 6.765242 15.632507 0.034991 -0.000022 0.000609
 32 0.298500 -0.707681 8.649918 0.000000 0.000000 -0.000000
time 20
  0 -2.437624 -1.142060 2.887016 0.000000 -0.000000 0.000000
  1 -2.437624 -1.142060 2.887016 0.000000 -0.000000 0.000000
  2 -2.437624 -1.142060 2.887016 0.000000 -0.000000 0.000000
  3 -4.744596 2.314000 171.985855 0.000000 -0.000000 0.000000
  4 -2.437624 -47.253101 81.382927 -0.069814 -0.000000 0.331858
  5 -0.000002 1.168594 -4.970116 0.070005 0.000000 0.000000
  6 9.220942 -0.130356 -8.947060 -0.351359 0.051594 -0.035641
  7 -0.379017 1.803452 -27.692142 1.050728 -0.240593 -0.191043
  8 0.654262 1.010686 -27.272415 0.299643 -0.017394 0.004125
  9 0.792492 -3.714932 -6.276672 -0.000000 -0.000000 -0.000000
 10 -8.723412 -0.130356 -8.508430 0.098505 -0.075703 -0.017853
 11 0.166718 1.557198 -27.571281 0.207940 -0.023434 -0.010857
 12 -0.000002 1.290274 -27.080700 0.079156 -0.020348 0.008145
 13 -1.084406 -3.857420 -4.999094 -0.000000 -0.000000 -0.000000
 14 0.000000 1.168598 2.657310 0.143578 -0.131701 0.701563
 15 -8.949993 1.658743 23.032837 -1.077577 0.382704 1.214926
 16 -8.916763 1.390923 -14.251892 -0.437356 0.046288 -1.207800
 17 -9.441181 -1.317719 -18.562881 0.641878 -0.312870 -1.041510
 18 -1.937485 3.134377 -6.287407 -1.127188 0.784948 1.949623
 19 1.385216 133.255371 -0.815880 -0.000000 0.000000 -0.000000
 20 82.558052 60.772545 -5.468758 -0.000000 0.000000 -0.000000
 21 82.558052 60.772545 -5.468758 -0.000000 0.000000 -0.000000
 22 -2.091110 -0.250862 -4.768377 -0.000000 0.000000 0.000000
 23 10.118176 1.597127 23.127548 -0.974292 -0.309757 -0.084369
 24 7.928755 1.513863 -14.178944 -0.382324 0.206247 -0.262733
 25 9.857464 -2.371773 -18.209042 -0.657371 0.391802 0.631224
 26 2.443630 0.200180 -5.335373 0.000000 0.000000 0.000000
 27 0.245510 0.395285 37.967583 -0.164835 -0.023150 -0.753517
 28 -1.052318 10.171082 41.826576 0.204812 0.000000 0.000000
 29 -0.811180 20.093632 -10.510506 0.140001 0.000000 -0.000000
 30 -0.733644 -0.876530 4.158760 -0.000000 0.000000 0.000000
 31 0.212467 6.765821 15.625671 0.034993 -0.000022 0.000609
 32 0.298588 -0.707740 8.646141 -0.000000 0.000000 -0.000000
time 21
  0 -2.437624 -1.142060 2.887016 0.000000 -0.000000 0.000000
  1 -2.437624 -1.142060 2.887016 0.000000 -0.000000 0.000000
  2 -2.437624 -1.142060 2.887016 0.000000 -0.000000 0.000000
  3 -4.744596 2.314000 171.985855 0.000000 -0.000000 0.000000
  4 -2.437624 -43.294571 81.382927 -0.069814 0.000000 0.302804
  5 -0.000001 1.168602 -4.970123 0.070005 0.000000 0.000000
  6 9.220940 -0.130360 -8.947067 -0.325227 0.043490 -0.032518
  7 -0.379035 1.805508 -27.654987 0.955847 -0.219541 -0.174351
  8 0.654661 1.014878 -27.137497 0.284102 -0.015874 0.003763
  9 0.793033 -3.733718 -6.242020 0.000000 0.000000 0.000000
 10 -8.723413 -0.130360 -8.508430 0.080690 -0.069077 -0.016286
 11 0.166725 1.557529 -27.562222 0.181416 -0.020169 -0.009342
 12 0.000000 1.292410 -27.026142 0.087637 -0.017513 0.007009
 13 -1.084618 -3.863838 -4.988712 -0.000000 0.000000 -0.000000
 14 0.000000 1.168602 2.657310 0.135608 -0.108258 0.640254
 15 -8.951874 1.658942 23.024002 -1.144199 0.072577 1.238804
 16 -8.960052 1.380615 -14.277927 -0.395083 0.072326 -1.047812
 17 -9.354660 -1.332260 -18.528316 0.545149 -0.297447 -1.010814
 18 -1.944695 3.120029 -6.295696 -1.157087 0.761522 1.920555
 19 1.383957 132.902771 -0.819244 0.000000 0.000000 0.000000
 20 82.483078 60.611729 -5.491219 0.000000 0.000000 0.000000
 21 82.483078 60.611729 -5.491219 0.000000 0.000000 0.000000
 22 -2.098885 -0.249710 -4.774664 -0.000000 0.000000 -0.000000
 23 10.120312 1.597319 23.118690 -0.883191 -0.212005 0.136568
 24 7.963188 1.515923 -14.096107 -0.404049 0.222203 -0.298168
 25 9.906471 -2.364319 -18.171553 -0.657340 0.391857 0.631236
 26 2.432146 0.201080 -5.338959 0.000000 0.000000 0.000000
 27 0.245571 0.395330 37.953026 -0.139684 -0.018022 -0.687550
 28 -1.052336 10.171288 41.824753 0.204811 0.000000 0.000000
 29 -0.811193 20.094040 -10.510025 0.140001 0.000000 -0.000000
 30 -0.733658 -0.876553 4.158585 -0.000000 0.000000 -0.000000
 31 0.212513 6.766635 15.619675 0.034994 -0.000022 0.000609
 32 0.298656 -0.707825 8.642815 -0.000000 -0.000000 -0.000000
time 22
  0 -2.437624 -1.142060 2.887016 0.000000 -0.000000 0.000000
  1 -2.437624 -1.142060 2.887016 0.000000 -0.000000 0.000000
  2 -2.437624 -1.142060 2.887016 0.000000 -0.000000 0.000000
  3 -4.744596 2.314000 171.985855 0.000000 -0.000000 0.000000
  4 -2.437624 -38.295921 81.382927 -0.069814 0.000000 0.266116
  5 -0.000002 1.168602 -4.970123 0.070005 0.000000 0.000000
  6 9.220942 -0.130360 -8.947067 -0.292217 0.035706 -0.028575
  7 -0.379052 1.807915 -27.612038 0.836053 -0.192971 -0.153265
  8 0.655158 1.020037 -26.969910 0.264518 -0.013954 0.003306
  9 0.793706 -3.759285 -6.194832 -0.000000 0.000000 0.000000
 10 -8.723414 -0.130360 -8.508438 0.058192 -0.060709 -0.014310
 11 0.166740 1.557867 -27.553017 0.154649 -0.016875 -0.007815
 12 0.000000 1.294432 -26.974068 0.096197 -0.014653 0.005863
 13 -1.084834 -3.870497 -4.977942 -0.000000 0.000000 0.000000
 14 0.000000 1.168606 2.657310 0.125543 -0.085742 0.562834
 15 -8.953148 1.659161 23.016747 -1.171901 -0.056977 1.244862
 16 -8.949165 1.381096 -14.291161 -0.357535 0.105125 -0.846251
 17 -9.404289 -1.325500 -18.527592 0.422803 -0.278116 -0.971582
 18 -1.934608 3.127489 -6.309484 -1.166958 0.753595 1.910949
 19 1.385239 132.856674 -0.818695 -0.000000 -0.000000 -0.000000
 20 82.559364 60.590725 -5.487564 -0.000000 -0.000000 -0.000000
 21 82.559364 60.590725 -5.487564 -0.000000 -0.000000 -0.000000
 22 -2.088013 -0.250317 -4.785118 0.000000 0.000000 0.000000
 23 10.121750 1.597528 23.111389 -0.812625 -0.143991 0.222210
 24 7.984918 1.519379 -14.023384 -0.431485 0.242358 -0.331538
 25 9.940420 -2.358589 -18.149118 -0.657332 0.391877 0.631189
 26 2.419624 0.202118 -5.341057 0.000000 -0.000000 -0.000000
 27 0.245602 0.395384 37.941048 -0.107921 -0.013663 -0.604248
 28 -1.052344 10.171747 41.822220 0.204808 0.000000 0.000000
 29 -0.811201 20.094944 -10.509399 0.140000 0.000000 -0.000000
 30 -0.733664 -0.876587 4.158333 -0.000000 -0.000000 -0.000000
 31 0.212540 6.767517 15.614754 0.034995 -0.000022 0.000609
 32 0.298697 -0.707916 8.640099 -0.000000 0.000000 0.000000
time 23
  0 -2.437624 -1.142060 2.887016 0.000000 -0.000000 0.000000
  1 -2.437624 -1.142060 2.887016 0.000000 -0.000000 0.000000
  2 -2.437624 -1.142060 2.887016 0.000000 -0.000000 0.000000
  3 -4.744596 2.314000 171.985855 0.000000 -0.000000 0.000000
  4 -2.437624 -32.600288 81.382927 -0.069814 -0.000000 0.224313
  5 -0.000001 1.168598 -4.970123 0.070005 0.000000 0.000000
  6 9.220940 -0.130358 -8.947060 -0.254591 0.028366 -0.024084
  7 -0.379064 1.810383 -27.568310 0.699531 -0.162702 -0.129219
  8 0.655660 1.025504 -26.791243 0.242246 -0.011766 0.002785
  9 0.794393 -3.789563 -6.139013 0.000000 -0.000000 -0.000000
 10 -8.723415 -0.130356 -8.508430 0.032556 -0.051173 -0.012058
 11 0.166755 1.558117 -27.545563 0.128350 -0.013638 -0.006315
 12 -0.000001 1.296133 -26.929678 0.104607 -0.011843 0.004737
 13 -1.085030 -3.876825 -4.967704 -0.000000 -0.000000 -0.000000
 14 0.000000 1.168598 2.657303 0.114073 -0.064516 0.474615
 15 -8.953938 1.659353 23.011246 -1.127363 -0.047663 1.244709
 16 -8.953333 1.384705 -14.250717 -0.324698 0.142446 -0.616950
 17 -9.577168 -1.302139 -18.515322 0.283272 -0.256097 -0.926392
 18 -1.924911 3.137371 -6.317077 -1.125563 0.772579 1.951526
 19 1.376419 133.129120 -0.822746 0.000000 -0.000000 -0.000000
 20 82.033730 60.714966 -5.514725 0.000000 -0.000000 -0.000000
 21 82.033730 60.714966 -5.514725 0.000000 -0.000000 -0.000000
 22 -2.077545 -0.251106 -4.790880 -0.000000 -0.000000 -0.000000
 23 10.122646 1.597717 23.105881 -0.757211 -0.100585 0.205282
 24 7.996782 1.523178 -13.965618 -0.462749 0.265323 -0.362446
 25 9.960464 -2.354286 -18.142262 -0.657341 0.391875 0.631112
 26 2.407982 0.203133 -5.341705 0.000000 -0.000000 0.000000
 27 0.245626 0.395432 37.931999 -0.071725 -0.010020 -0.509329
 28 -1.052350 10.172136 41.820084 0.204803 0.000000 0.000000
 29 -0.811204 20.095715 -10.508858 0.139998 0.000000 0.000000
 30 -0.733668 -0.876629 4.158119 0.000000 0.000000 -0.000000
 31 0.212561 6.768311 15.611031 0.034996 -0.000022 0.000609
 32 0.298723 -0.707996 8.638039 0.000000 -0.000000 0.000000
time 24
  0 -2.437624 -1.142060 2.887016 0.000000 -0.000000 0.000000
  1 -2.437624 -1.142060 2.887016 0.000000 -0.000000 0.000000
  2 -2.437624 -1.142060 2.887016 0.000000 -0.000000 0.000000
  3 -4.744596 2.314000 171.985855 0.000000 -0.000000 0.000000
  4 -2.437624 -26.550802 81.382927 -0.069814 0.000000 0.179912
  5 0.000000 1.168602 -4.970123 0.070005 0.000000 0.000000
  6 9.220942 -0.130354 -8.947067 -0.214613 0.021596 -0.019314
  7 -0.379074 1.812656 -27.528030 0.554430 -0.130547 -0.103654
  8 0.656096 1.030548 -26.625849 0.218611 -0.009441 0.002232
  9 0.794996 -3.820921 -6.081133 0.000000 -0.000000 -0.000000
 10 -8.723415 -0.130356 -8.508430 0.005326 -0.041045 -0.009668
 11 0.166763 1.558226 -27.541237 0.103233 -0.010548 -0.004883
 12 0.000000 1.297380 -26.896513 0.112636 -0.009160 0.003663
 13 -1.085197 -3.882381 -4.958738 -0.000000 0.000000 -0.000000
 14 0.000000 1.168602 2.657310 0.101889 -0.044943 0.380914
 15 -8.954369 1.659505 23.007553 -1.018964 -0.024984 1.244339
 16 -8.957718 1.394424 -14.152046 -0.296361 0.182226 -0.373007
 17 -9.730642 -1.284035 -18.460958 0.135190 -0.232560 -0.878770
 18 -1.947578 3.111183 -6.305125 -1.025305 0.819065 2.049866
 19 1.347481 133.314667 -0.840527 -0.000000 0.000000 0.000000
 20 80.308968 60.799583 -5.633881 -0.000000 0.000000 0.000000
 21 80.308968 60.799583 -5.633881 -0.000000 0.000000 0.000000
 22 -2.102013 -0.249008 -4.781814 0.000000 0.000000 0.000000
 23 10.123131 1.597859 23.102165 -0.698331 -0.058459 0.164028
 24 8.004192 1.527779 -13.908394 -0.495945 0.289720 -0.390494
 25 9.972980 -2.350922 -18.142828 -0.657357 0.391859 0.631003
 26 2.394962 0.204269 -5.342026 0.000000 -0.000000 0.000000
 27 0.245636 0.395464 37.925888 -0.033279 -0.007037 -0.408512
 28 -1.052354 10.172175 41.819664 0.204795 0.000000 0.000000
 29 -0.811209 20.095791 -10.508751 0.139994 0.000000 -0.000000
 30 -0.733671 -0.876629 4.158073 -0.000000 0.000000 0.000000
 31 0.212572 6.768927 15.608513 0.034997 -0.000022 0.000609
 32 0.298738 -0.708065 8.636642 0.000000 -0.000000 -0.000000
time 25
  0 -2.437624 -1.142060 2.887016 0.000000 -0.000000 0.000000
  1 -2.437624 -1.142060 2.887016 0.000000 -0.000000 0.000000
  2 -2.437624 -1.142060 2.887016 0.000000 -0.000000 0.000000
  3 -4.744596 2.314000 171.985855 0.000000 -0.000000 0.000000
  4 -2.437624 -20.490593 81.382927 -0.069813 0.000000 0.135432
  5 0.000000 1.168598 -4.970123 0.070005 0.000000 0.000000
  6 9.220942 -0.130356 -8.947067 -0.174550 0.015522 -0.014538
  7 -0.379080 1.814573 -27.494240 0.408918 -0.098313 -0.078022
  8 0.656430 1.034512 -26.495100 0.194925 -0.007110 0.001679
  9 0.795463 -3.849131 -6.028878 -0.000000 0.000000 -0.000000
 10 -8.723415 -0.130356 -8.508430 -0.021953 -0.030897 -0.007276
 11 0.166772 1.558178 -27.540630 0.080016 -0.007691 -0.003560
 12 0.000002 1.298132 -26.875992 0.120055 -0.006679 0.002671
 13 -1.085320 -3.886873 -4.951513 0.000000 0.000000 0.000000
 14 -0.000000 1.168600 2.657310 0.089683 -0.027386 0.287044
 15 -8.954555 1.659601 23.005424 -0.868363 0.006542 1.243814
 16 -8.960224 1.409981 -13.998894 -0.272352 0.222174 -0.128167
 17 -9.780270 -1.284424 -18.360844 -0.013009 -0.208958 -0.831950
 18 -1.997494 3.048874 -6.283569 -0.885472 0.883792 2.187176
 19 1.321190 132.575256 -0.862103 0.000000 0.000000 -0.000000
 20 78.742256 60.462379 -5.778595 0.000000 0.000000 -0.000000
 21 78.742256 60.462379 -5.778595 0.000000 0.000000 -0.000000
 22 -2.155880 -0.244019 -4.765467 0.000000 -0.000000 0.000000
 23 10.123341 1.597954 23.100029 -0.639316 -0.019001 0.106638
 24 8.007540 1.532585 -13.856522 -0.529191 0.314161 -0.415290
 25 9.976704 -2.348770 -18.151167 -0.657378 0.391835 0.630880
 26 2.381687 0.205437 -5.341972 -0.000000 0.000000 -0.000000
 27 0.245641 0.395488 37.922394 0.005238 -0.004662 -0.307517
 28 -1.052361 10.171628 41.822021 0.204784 0.000000 0.000000
 29 -0.811213 20.094713 -10.509354 0.139988 0.000000 -0.000000
 30 -0.733675 -0.876580 4.158310 0.000000 -0.000000 -0.000000
 31 0.212575 6.769323 15.607071 0.034998 -0.000022 0.000609
 32 0.298742 -0.708105 8.635849 0.000000 0.000000 0.000000
time 26
  0 -2.437624 -1.142060 2.887016 0.000000 -0.000000 0.000000
  1 -2.437624 -1.142060 2.887016 0.000000 -0.000000 0.000000
  2 -2.437624 -1.142060 2.887016 0.000000 -0.000000 0.000000
  3 -4.744596 2.314000 171.985855 0.000000 -0.000000 0.000000
  4 -2.437624 -14.762789 81.382927 -0.069813 0.000000 0.093393
  5 -0.000000 1.168600 -4.970123 0.070005 0.000000 0.000000
  6 9.220941 -0.130357 -8.947067 -0.136674 0.010270 -0.010024
  7 -0.379083 1.816027 -27.468506 0.271231 -0.067819 -0.053790
  8 0.656649 1.037033 -26.410915 0.172500 -0.004905 0.001158
  9 0.795773 -3.870862 -5.988499 -0.000000 -0.000000 0.000000
 10 -8.723413 -0.130357 -8.508430 -0.047734 -0.021306 -0.005016
 11 0.166778 1.557987 -27.543480 0.059415 -0.005157 -0.002386
 12 -0.000002 1.298423 -26.867331 0.126634 -0.004478 0.001791
 13 -1.085402 -3.890195 -4.946201 0.000000 -0.000000 -0.000000
 14 -0.000000 1.168598 2.657303 0.078146 -0.012209 0.198322
 15 -8.954585 1.659649 23.004555 -0.697026 0.042422 1.243186
 16 -8.959690 1.428555 -13.817535 -0.252808 0.259871 0.103134
 17 -9.722229 -1.303459 -18.222450 -0.153077 -0.186763 -0.787601
 18 -2.045004 2.984940 -6.266180 -0.725826 0.957049 2.343893
 19 1.322453 130.453522 -0.875295 0.000000 0.000000 -0.000000
 20 78.817337 59.494743 -5.866967 0.000000 0.000000 -0.000000
 21 78.817337 59.494743 -5.866967 0.000000 0.000000 -0.000000
 22 -2.207153 -0.238914 -4.752275 -0.000000 -0.000000 0.000000
 23 10.123376 1.597999 23.099159 -0.583507 0.016399 0.041306
 24 8.007830 1.537102 -13.812958 -0.560610 0.337258 -0.436446
 25 9.972670 -2.347885 -18.165100 -0.657395 0.391813 0.630765
 26 2.369339 0.206520 -5.341644 -0.000000 0.000000 0.000000
 27 0.245642 0.395498 37.920967 0.041641 -0.002839 -0.212060
 28 -1.052362 10.170422 41.827698 0.204771 0.000000 0.000000
 29 -0.811213 20.092329 -10.510780 0.139981 0.000000 -0.000000
 30 -0.733676 -0.876477 4.158882 -0.000000 -0.000000 -0.000000
 31 0.212576 6.769516 15.606491 0.034998 -0.000022 0.000609
 32 0.298744 -0.708127 8.635521 0.000000 -0.000000 0.000000
time 27
  0 -2.437624 -1.142060 2.887016 0.000000 -0.000000 0.000000
  1 -2.437624 -1.142060 2.887016 0.000000 -0.000000 0.000000
  2 -2.437624 -1.142060 2.887016 0.000000 -0.000000 0.000000
  3 -4.744596 2.314000 171.985855 0.000000 -0.000000 0.000000
  4 -2.437624 -9.710527 81.382927 -0.069813 0.000000 0.056311
  5 0.000000 1.168601 -4.970116 0.070005 0.000000 0.000000
  6 9.220941 -0.130356 -8.947067 -0.103258 0.005965 -0.006043
  7 -0.379085 1.817024 -27.450920 0.149678 -0.040900 -0.032421
  8 0.656771 1.038155 -26.372255 0.152679 -0.002958 0.000698
  9 0.795944 -3.884813 -5.962557 0.000000 0.000000 -0.000000
 10 -8.723414 -0.130356 -8.508438 -0.070474 -0.012846 -0.003023
 11 0.166781 1.557698 -27.548759 0.042148 -0.003033 -0.001403
 12 0.000001 1.298364 -26.867786 0.132144 -0.002634 0.001053
 13 -1.085448 -3.892417 -4.942695 0.000000 0.000000 -0.000000
 14 -0.000000 1.168600 2.657310 0.067969 0.000227 0.120063
 15 -8.954544 1.659660 23.004532 -0.526239 0.078183 1.242536
 16 -8.956207 1.445618 -13.651741 -0.237851 0.293060 0.306912
 17 -9.631287 -1.327919 -18.067963 -0.276613 -0.167174 -0.747889
 18 -2.069284 2.953476 -6.252655 -0.567059 1.029877 2.499572
 19 1.339905 128.265259 -0.878651 0.000000 -0.000000 -0.000000
 20 79.857414 58.496750 -5.889494 0.000000 -0.000000 -0.000000
 21 79.857414 58.496750 -5.889494 0.000000 -0.000000 -0.000000
 22 -2.233364 -0.236382 -4.742020 -0.000000 0.000000 0.000000
 23 10.123328 1.598010 23.099129 -0.534253 0.046354 -0.023771
 24 8.006332 1.540958 -13.778893 -0.588324 0.357628 -0.453579
 25 9.963621 -2.348030 -18.181049 -0.657405 0.391796 0.630673
 26 2.358849 0.207443 -5.341198 0.000000 -0.000000 -0.000000
 27 0.245641 0.395502 37.920914 0.073749 -0.001516 -0.127862
 28 -1.052359 10.168669 41.836212 0.204757 0.000000 0.000000
 29 -0.811211 20.088863 -10.512917 0.139973 0.000000 0.000000
 30 -0.733674 -0.876326 4.159714 -0.000000 -0.000000 -0.000000
 31 0.212575 6.769558 15.606468 0.034998 -0.000022 0.000609
 32 0.298743 -0.708130 8.635513 -0.000000 -0.000000 -0.000000
time 28
  0 -2.437624 -1.142060 2.887016 0.000000 -0.000000 0.000000
  1 -2.437624 -1.142060 2.887016 0.000000 -0.000000 0.000000
  2 -2.437624 -1.142060 2.887016 0.000000 -0.000000 0.000000
  3 -4.744596 2.314000 171.985855 0.000000 -0.000000 0.000000
  4 -2.437624 -5.676934 81.382927 -0.069813 0.000000 0.026706
  5 0.000000 1.168599 -4.970116 0.070005 0.000000 0.000000
  6 9.220942 -0.130356 -8.947067 -0.076577 0.002735 -0.002866
  7 -0.379085 1.817624 -27.440388 0.052589 -0.019399 -0.015371
  8 0.656823 1.038266 -26.366585 0.136825 -0.001403 0.000331
  9 0.796016 -3.891898 -5.949428 0.000000 0.000000 -0.000000
 10 -8.723413 -0.130356 -8.508430 -0.088628 -0.006092 -0.001434
 11 0.166782 1.557388 -27.554821 0.028931 -0.001407 -0.000651
 12 -0.000001 1.298116 -26.873302 0.136359 -0.001221 0.000488
 13 -1.085469 -3.893726 -4.940663 -0.000000 0.000000 0.000000
 14 0.000000 1.168601 2.657318 0.059844 0.009559 0.057583
 15 -8.954475 1.659648 23.004906 -0.377400 0.109330 1.241974
 16 -8.951048 1.457676 -13.536720 -0.227337 0.319579 0.469573
 17 -9.575111 -1.345970 -17.926994 -0.375202 -0.151499 -0.716078
 18 -2.073828 2.953812 -6.237988 -0.428924 1.093405 2.635025
 19 1.353594 127.202576 -0.876934 0.000000 0.000000 0.000000
 20 80.673065 58.012100 -5.877895 0.000000 0.000000 0.000000
 21 80.673065 58.012100 -5.877895 0.000000 0.000000 0.000000
 22 -2.238268 -0.236412 -4.730900 -0.000000 0.000000 -0.000000
 23 10.123253 1.597998 23.099510 -0.494910 0.069471 -0.080398
 24 8.004272 1.543911 -13.754425 -0.610452 0.373887 -0.466300
 25 9.953125 -2.348763 -18.195412 -0.657410 0.391786 0.630609
 26 2.350876 0.208138 -5.340816 0.000000 -0.000000 0.000000
 27 0.245639 0.395499 37.921539 0.099382 -0.000638 -0.060640
 28 -1.052351 10.166725 41.845818 0.204744 0.000000 0.000000
 29 -0.811205 20.085026 -10.515335 0.139966 0.000000 -0.000000
 30 -0.733668 -0.876158 4.160683 -0.000000 0.000000 0.000000
 31 0.212574 6.769510 15.606720 0.034998 -0.000022 0.000609
 32 0.298741 -0.708126 8.635658 0.000000 0.000000 -0.000000
time 29
  0 -2.437624 -1.142060 2.887016 0.000000 -0.000000 0.000000
  1 -2.437624 -1.142060 2.887016 0.000000 -0.000000 0.000000
  2 -2.437624 -1.142060 2.887016 0.000000 -0.000000 0.000000
  3 -4.744596 2.314000 171.985855 0.000000 -0.000000 0.000000
  4 -2.437624 -3.005147 81.382927 -0.069813 0.000000 0.007096
  5 0.000000 1.168600 -4.970116 0.070005 0.000000 0.000000
  6 9.220940 -0.130357 -8.947067 -0.058901 0.000704 -0.000761
  7 -0.379086 1.817924 -27.435127 -0.011728 -0.005155 -0.004083
  8 0.656836 1.037950 -26.375257 0.126311 -0.000373 0.000088
  9 0.796033 -3.894471 -5.944711 -0.000000 0.000000 0.000000
 10 -8.723413 -0.130357 -8.508430 -0.100652 -0.001619 -0.000381
 11 0.166783 1.557146 -27.559727 0.020477 -0.000367 -0.000169
 12 0.000000 1.297860 -26.879332 0.139054 -0.000318 0.000127
 13 -1.085475 -3.894374 -4.939685 0.000000 0.000000 -0.000000
 14 0.000000 1.168600 2.657310 0.054462 0.015423 0.016197
 15 -8.954418 1.659632 23.005341 -0.272157 0.131334 1.241594
 16 -8.946323 1.464025 -13.478745 -0.221089 0.337183 0.577339
 17 -9.560921 -1.355017 -17.827381 -0.440509 -0.141129 -0.695093
 18 -2.071510 2.965027 -6.223579 -0.331286 1.138314 2.730807
 19 1.359442 127.008575 -0.874496 -0.000000 0.000000 -0.000000
 20 81.022438 57.923630 -5.861622 -0.000000 0.000000 -0.000000
 21 81.022438 57.923630 -5.861622 -0.000000 0.000000 -0.000000
 22 -2.235764 -0.237312 -4.719969 0.000000 0.000000 0.000000
 23 10.123188 1.597983 23.099930 -0.468841 0.084361 -0.120382
 24 8.002605 1.545799 -13.739410 -0.625111 0.384655 -0.474220
 25 9.944761 -2.349564 -18.205370 -0.657410 0.391782 0.630574
 26 2.345825 0.208569 -5.340584 -0.000000 -0.000000 -0.000000
 27 0.245638 0.395495 37.922241 0.116360 -0.000151 -0.016113
 28 -1.052343 10.165140 41.853745 0.204735 0.000000 0.000000
 29 -0.811199 20.081898 -10.517334 0.139960 0.000000 0.000000
 30 -0.733662 -0.876022 4.161469 0.000000 -0.000000 -0.000000
 31 0.212572 6.769447 15.607018 0.034998 -0.000022 0.000609
 32 0.298739 -0.708118 8.635818 0.000000 0.000000 0.000000
time 30
  0 -2.437624 -1.142060 2.887016 0.000000 -0.000000 0.000000
  1 -2.437624 -1.142060 2.887016 0.000000 -0.000000 0.000000
  2 -2.437624 -1.142060 2.887016 0.000000 -0.000000 0.000000
  3 -4.744596 2.314000 171.985855 0.000000 -0.000000 0.000000
  4 -2.437624 -2.038301 81.382927 -0.069813 0.000000 0.000000
  5 0.000000 1.168599 -4.970116 0.070005 0.000000 0.000000
  6 9.220941 -0.130356 -8.947067 -0.052505 -0.000000 0.000000
  7 -0.379086 1.818013 -27.433559 -0.035002 -0.000000 0.000000
  8 0.656838 1.037760 -26.380829 0.122505 -0.000000 -0.000000
  9 0.796035 -3.894976 -5.943809 -0.000000 0.000000 0.000000
 10 -8.723413 -0.130356 -8.508430 -0.105003 -0.000000 -0.000000
 11 0.166782 1.557050 -27.561691 0.017500 -0.000001 -0.000000
 12 -0.000001 1.297751 -26.881956 0.140003 0.000000 0.000000
 13 -1.085475 -3.894565 -4.939402 -0.000000 0.000000 0.000000
 14 0.000000 1.168600 2.657310 0.052515 0.017459 0.001220
 15 -8.954400 1.659625 23.005516 -0.232256 0.139671 1.241455
 16 -8.944321 1.465902 -13.462563 -0.219019 0.343564 0.616341
 17 -9.561543 -1.357554 -17.790218 -0.464149 -0.137384 -0.687520
 18 -2.070084 2.970741 -6.216942 -0.294278 1.155331 2.767118
 19 1.360777 127.032822 -0.873508 -0.000000 -0.000000 -0.000000
 20 81.101486 57.934692 -5.855022 -0.000000 -0.000000 -0.000000
 21 81.101486 57.934692 -5.855022 -0.000000 -0.000000 -0.000000
 22 -2.234222 -0.237762 -4.714937 -0.000000 0.000000 -0.000000
 23 10.123167 1.597976 23.100121 -0.459404 0.089633 -0.135530
 24 8.001967 1.546467 -13.734177 -0.630416 0.388552 -0.476947
 25 9.941499 -2.349907 -18.208990 -0.657409 0.391780 0.630563
 26 2.344063 0.208721 -5.340511 -0.000000 0.000000 0.000000
 27 0.245637 0.395494 37.922539 0.122503 -0.000000 -0.000000
 28 -1.052340 10.164506 41.856926 0.204731 0.000000 0.000000
 29 -0.811197 20.080643 -10.518135 0.139958 0.000000 0.000000
 30 -0.733660 -0.875967 4.161781 0.000000 -0.000000 0.000000
 31 0.212571 6.769418 15.607124 0.034998 -0.000022 0.000609
 32 0.298738 -0.708116 8.635887 0.000000 -0.000000 -0.000000
end
