version 1
nodes
  0 "bone38"  -1
  1 "bone36"  -1
  2 "bone34"  -1
  3 "bone33"  -1
  4 "bone01"  -1
  5 "bone19"   4
  6 "bone15"   5
  7 "bone16"   6
  8 "bone18"   7
  9 "bone21"   8
 10 "bone07"   5
 11 "bone20"  10
 12 "bone17"  11
 13 "bone22"  12
 14 "bone03"   4
 15 "bone08"  14
 16 "bone05"  15
 17 "bone09"  16
 18 "bone11"  17
 19 "bone23"  18
 20 "bone24"  18
 21 "bone27"  18
 22 "bone28"  17
 23 "bone02"  14
 24 "bone04"  23
 25 "bone10"  24
 26 "bone29"  25
 27 "bone06"  14
 28 "bone12"  27
 29 "bone14"  27
 30 "bone30"  27
 31 "bone13"  14
 32 "bone32"  14
end
skeleton
time 0
  0 -2.437624 -1.142060 2.887016 0.000000 -0.000000 0.000000
  1 -2.437624 -1.142060 2.887016 0.000000 -0.000000 0.000000
  2 -2.437624 -1.142060 2.887016 0.000000 -0.000000 0.000000
  3 -4.744596 2.314000 171.985855 0.000000 -0.000000 0.000000
  4 -2.437624 -2.038301 81.382927 -0.069813 0.000000 0.000000
  5 0.000000 1.168599 -4.970116 0.070005 0.000000 0.000000
  6 9.220941 -0.130356 -8.947067 -0.052505 -0.000000 0.000000
  7 -0.379086 1.818013 -27.433559 -0.035002 0.000000 -0.000000
  8 0.656837 1.037760 -26.380829 0.122505 -0.000000 -0.000000
  9 0.796035 -3.894976 -5.943809 -0.000000 0.000000 -0.000000
 10 -8.723413 -0.130356 -8.508430 -0.105003 -0.000000 -0.000000
 11 0.166782 1.557050 -27.561691 0.017500 -0.000001 0.000000
 12 -0.000001 1.297750 -26.881956 0.140003 0.000000 0.000000
 13 -1.085476 -3.894565 -4.939403 -0.000000 0.000000 -0.000000
 14 0.000000 1.168600 2.657310 0.052515 0.017459 0.001220
 15 -8.954401 1.659626 23.005516 0.569703 -0.290426 0.149489
 16 -8.916014 1.444210 -13.733994 0.004457 0.267956 0.286004
 17 -9.761709 -1.347534 -17.536968 -0.465126 -0.137548 -0.687617
 18 -2.073868 3.137644 -5.862801 -0.294266 1.154673 2.767225
 19 1.302414 133.237885 -0.869148 0.000000 -0.000000 0.000000
 20 77.623299 60.764580 -5.825733 0.000000 -0.000000 0.000000
 21 77.623299 60.764580 -5.825733 0.000000 -0.000000 0.000000
 22 -2.238308 -0.251125 -4.446358 -0.000000 0.000000 0.000000
 23 10.123167 1.597977 23.100121 -0.044160 -0.093971 -0.173007
 24 8.004499 1.569028 -13.507744 -0.463876 0.447314 -0.385306
 25 9.895542 -2.451218 -17.547279 -0.288935 0.090852 0.172800
 26 2.417534 0.207771 -5.206417 -0.000000 -0.000000 0.000000
 27 0.245637 0.395494 37.922546 0.122503 -0.000000 -0.000000
 28 -1.052340 10.164511 41.856949 0.204731 0.000000 0.000000
 29 -0.811197 20.080648 -10.518135 0.139958 0.000000 -0.000000
 30 -0.733660 -0.875967 4.161781 -0.000000 -0.000000 0.000000
 31 0.212571 6.769419 15.607132 0.034998 -0.000022 0.000609
 32 0.298738 -0.708116 8.635880 -0.000000 0.000000 0.000000
time 1
  0 -2.437624 -1.142060 2.887016 0.000000 -0.000000 0.000000
  1 -2.437624 -1.142060 2.887016 0.000000 -0.000000 0.000000
  2 -2.437624 -1.142060 2.887016 0.000000 -0.000000 0.000000
  3 -4.744596 2.314000 171.985855 0.000000 -0.000000 0.000000
  4 -2.437624 -1.023229 80.328651 -0.069813 0.000000 0.000000
  5 0.000000 1.168600 -4.970123 0.065538 0.000000 0.000000
  6 9.220941 -0.130356 -8.947075 -0.090478 -0.000000 0.000000
  7 -0.379086 1.817230 -27.447250 0.006883 0.000000 0.000000
  8 0.656837 1.037753 -26.381033 0.122505 -0.000000 -0.000000
  9 0.796035 -3.894988 -5.943790 0.000000 -0.000000 -0.000000
 10 -8.723413 -0.130356 -8.508453 -0.106678 -0.000000 0.000000
 11 0.166782 1.556908 -27.564587 0.072787 -0.000001 0.000000
 12 0.000000 1.298303 -26.868683 0.092540 0.000000 0.000000
 13 -1.085475 -3.894516 -4.939473 -0.000000 -0.000000 -0.000000
 14 0.000000 1.168601 2.657310 0.092725 0.017037 0.001723
 15 -8.954409 1.659601 23.005882 0.519174 -0.276680 0.153245
 16 -8.918348 1.444920 -13.722908 0.012048 0.263221 0.286187
 17 -9.763006 -1.347359 -17.536942 -0.465125 -0.137546 -0.687618
 18 -2.039543 2.839526 -5.858543 -0.294874 1.155494 2.774417
 19 1.302742 133.242249 -0.868919 -0.000000 0.000000 0.000000
 20 77.642776 60.766563 -5.824211 -0.000000 0.000000 0.000000
 21 77.642776 60.766563 -5.824211 -0.000000 0.000000 0.000000
 22 -2.238287 -0.251122 -4.446449 -0.000000 0.000000 0.000000
 23 10.123178 1.597954 23.100494 -0.080186 -0.097559 -0.167691
 24 8.004744 1.569080 -13.506744 -0.457288 0.450636 -0.382593
 25 9.892145 -2.452538 -17.543625 -0.288941 0.090851 0.172798
 26 2.416586 0.207928 -5.204510 -0.000000 0.000000 -0.000000
 27 0.245637 0.395488 37.923149 0.134218 -0.000041 0.000199
 28 -1.052341 10.155064 41.901878 0.204685 0.000000 0.000000
 29 -0.811198 20.061985 -10.529419 0.139929 0.000000 0.000000
 30 -0.733661 -0.875154 4.166245 0.000000 0.000000 -0.000000
 31 0.212458 6.767087 15.613403 0.034838 -0.000021 0.000608
 32 0.298739 -0.708106 8.636017 -0.000000 -0.000000 0.000000
time 2
  0 -2.437624 -1.142060 2.887016 0.000000 -0.000000 0.000000
  1 -2.437624 -1.142060 2.887016 0.000000 -0.000000 0.000000
  2 -2.437624 -1.142060 2.887016 0.000000 -0.000000 0.000000
  3 -4.744596 2.314000 171.985855 0.000000 -0.000000 0.000000
  4 -2.437624 1.729609 77.397095 -0.069813 0.000000 0.000000
  5 0.000000 1.168600 -4.970123 0.053507 0.000000 0.000000
  6 9.220940 -0.130354 -8.947266 -0.192687 -0.000000 -0.000000
  7 -0.379086 1.812936 -27.522156 0.119635 0.000000 0.000000
  8 0.656837 1.037735 -26.381590 0.122505 -0.000000 -0.000000
  9 0.796036 -3.895014 -5.943741 0.000000 -0.000000 0.000000
 10 -8.723413 -0.130354 -8.508625 -0.111186 -0.000000 -0.000000
 11 0.166782 1.556487 -27.573215 0.221624 -0.000001 -0.000000
 12 0.000000 1.297646 -26.884460 -0.035281 0.000000 0.000000
 13 -1.085476 -3.894380 -4.939672 0.000000 -0.000000 -0.000000
 14 0.000000 1.168600 2.657303 0.200969 0.015898 0.003078
 15 -8.954428 1.657707 23.036278 0.383060 -0.239650 0.163370
 16 -8.924471 1.446903 -13.692429 0.032491 0.250471 0.286680
 17 -9.766405 -1.346951 -17.535984 -0.465123 -0.137542 -0.687620
 18 -1.933960 2.036793 -5.843918 -0.296509 1.157707 2.793784
 19 1.303638 133.254578 -0.868301 0.000000 -0.000000 -0.000000
 20 77.695763 60.772190 -5.820065 0.000000 -0.000000 -0.000000
 21 77.695763 60.772190 -5.820065 0.000000 -0.000000 -0.000000
 22 -2.238174 -0.251116 -4.446854 0.000000 0.000000 0.000000
 23 10.123199 1.596129 23.131012 -0.177172 -0.107208 -0.153374
 24 8.005259 1.569207 -13.504471 -0.439547 0.459579 -0.375288
 25 9.883272 -2.456081 -17.533463 -0.288959 0.090851 0.172794
 26 2.414194 0.208351 -5.199127 0.000000 0.000000 0.000000
 27 0.245638 0.395037 37.973251 0.165718 -0.000150 0.000734
 28 -1.052344 10.112015 42.105560 0.204538 0.000000 0.000000
 29 -0.811200 19.976936 -10.580597 0.139831 0.000000 0.000000
 30 -0.733663 -0.871437 4.186501 0.000000 -0.000000 0.000000
 31 0.212127 6.752871 15.651566 0.034364 -0.000021 0.000607
 32 0.298739 -0.707296 8.647430 -0.000000 -0.000000 0.000000
time 3
  0 -2.437624 -1.142060 2.887016 0.000000 -0.000000 0.000000
  1 -2.437624 -1.142060 2.887016 0.000000 -0.000000 0.000000
  2 -2.437624 -1.142060 2.887016 0.000000 -0.000000 0.000000
  3 -4.744596 2.314000 171.985855 0.000000 -0.000000 0.000000
  4 -2.437624 5.781651 72.935150 -0.069813 0.000000 0.000000
  5 0.000000 1.168600 -4.970123 0.035974 0.000000 0.000000
  6 9.220941 -0.130346 -8.947891 -0.341474 -0.000000 -0.000000
  7 -0.379086 1.801373 -27.721998 0.283800 0.000000 0.000000
  8 0.656837 1.037706 -26.382423 0.122504 -0.000000 -0.000000
  9 0.796035 -3.895051 -5.943676 0.000000 0.000000 -0.000000
 10 -8.723413 -0.130345 -8.509220 -0.117756 0.000000 -0.000000
 11 0.166783 1.555770 -27.587864 0.438293 -0.000001 -0.000000
 12 -0.000001 1.291242 -27.037277 -0.221461 0.000000 0.000000
 13 -1.085475 -3.894160 -4.939995 0.000000 -0.000000 0.000000
 14 -0.000000 1.168600 2.657310 0.358576 0.014237 0.005049
 15 -8.954456 1.650349 23.153770 0.184571 -0.185632 0.178140
 16 -8.932402 1.449978 -13.647682 0.062291 0.231883 0.287397
 17 -9.770712 -1.346596 -17.532383 -0.465122 -0.137537 -0.687622
 18 -1.753258 0.866928 -5.816235 -0.298892 1.160931 2.822011
 19 1.304855 133.272141 -0.867443 -0.000000 0.000000 -0.000000
 20 77.768227 60.780197 -5.814350 -0.000000 0.000000 -0.000000
 21 77.768227 60.780197 -5.814350 -0.000000 0.000000 -0.000000
 22 -2.237907 -0.251100 -4.447796 0.000000 0.000000 -0.000000
 23 10.123232 1.589045 23.248978 -0.318394 -0.121239 -0.132513
 24 8.005717 1.569351 -13.502129 -0.413687 0.472616 -0.364639
 25 9.871141 -2.461079 -17.518188 -0.288988 0.090852 0.172791
 26 2.411173 0.208942 -5.190739 0.000000 -0.000000 0.000000
 27 0.245639 0.393282 38.166924 0.211505 -0.000309 0.001515
 28 -1.052348 10.009171 42.584877 0.204339 0.000000 0.000000
 29 -0.811203 19.773758 -10.701050 0.139686 0.000000 0.000000
 30 -0.733666 -0.862576 4.234161 -0.000000 0.000000 0.000000
 31 0.211595 6.712490 15.759758 0.033590 -0.000021 0.000605
 32 0.298740 -0.704155 8.691536 0.000000 0.000000 0.000000
time 4
  0 -2.437624 -1.142060 2.887016 0.000000 -0.000000 0.000000
  1 -2.437624 -1.142060 2.887016 0.000000 -0.000000 0.000000
  2 -2.437624 -1.142060 2.887016 0.000000 -0.000000 0.000000
  3 -4.744596 2.314000 171.985855 0.000000 -0.000000 0.000000
  4 -2.437624 10.694338 67.289703 -0.069813 0.000000 0.000000
  5 0.000000 1.168600 -4.970119 0.014998 0.000000 0.000000
  6 9.220941 -0.130330 -8.949230 -0.519134 -0.000000 -0.000000
  7 -0.379086 1.780832 -28.070427 0.479837 0.000000 0.000000
  8 0.656837 1.037671 -26.383451 0.122504 -0.000000 -0.000000
  9 0.796036 -3.895093 -5.943602 -0.000000 -0.000000 -0.000000
 10 -8.723413 -0.130330 -8.510494 -0.125613 0.000000 0.000000
 11 0.166783 1.554757 -27.608587 0.696965 -0.000001 -0.000000
 12 0.000000 1.276304 -27.387619 -0.443776 0.000000 0.000000
 13 -1.085475 -3.893873 -4.940424 0.000000 -0.000000 0.000000
 14 0.000000 1.168599 2.657310 0.546800 0.012250 0.007401
 15 -8.954490 1.635281 23.390911 -0.052931 -0.120958 0.195796
 16 -8.939517 1.453812 -13.596298 0.097953 0.209636 0.288253
 17 -9.774333 -1.346619 -17.524666 -0.465126 -0.137537 -0.687623
 18 -1.493679 -0.532464 -5.772289 -0.301739 1.164780 2.855784
 19 1.305916 133.289597 -0.866680 -0.000000 0.000000 -0.000000
 20 77.831841 60.788166 -5.809238 -0.000000 0.000000 -0.000000
 21 77.831841 60.788166 -5.809238 -0.000000 0.000000 -0.000000
 22 -2.237572 -0.251069 -4.449173 -0.000000 0.000000 -0.000000
 23 10.123268 1.574539 23.487103 -0.487053 -0.137980 -0.107578
 24 8.005954 1.569454 -13.500641 -0.382737 0.488215 -0.351895
 25 9.857862 -2.466700 -17.500240 -0.289027 0.090854 0.172790
 26 2.408192 0.209614 -5.180119 -0.000000 -0.000000 -0.000000
 27 0.245640 0.389690 38.557835 0.266184 -0.000499 0.002449
 28 -1.052353 9.844383 43.331932 0.204275 0.000000 0.000000
 29 -0.811207 19.448204 -10.888779 0.139620 0.000000 -0.000000
 30 -0.733670 -0.848373 4.308441 0.000000 0.000000 -0.000000
 31 0.210876 6.637310 15.959843 0.032542 -0.000020 0.000601
 32 0.298741 -0.697731 8.780560 -0.000000 -0.000000 0.000000
time 5
  0 -2.437624 -1.142060 2.887016 0.000000 -0.000000 0.000000
  1 -2.437624 -1.142060 2.887016 0.000000 -0.000000 0.000000
  2 -2.437624 -1.142060 2.887016 0.000000 -0.000000 0.000000
  3 -4.744596 2.314000 171.985855 0.000000 -0.000000 0.000000
  4 -2.437624 16.029118 60.807644 -0.069813 0.000000 0.000000
  5 0.000000 1.168600 -4.970119 -0.007362 0.000000 0.000000
  6 9.220942 -0.130302 -8.951347 -0.708186 -0.000000 -0.000000
  7 -0.379086 1.754156 -28.510742 0.688429 0.000000 0.000000
  8 0.656837 1.037632 -26.384579 0.122504 -0.000000 -0.000000
  9 0.796035 -3.895131 -5.943530 -0.000000 0.000000 -0.000000
 10 -8.723413 -0.130302 -8.512501 -0.133985 -0.000000 -0.000000
 11 0.166783 1.553491 -27.634422 0.972314 -0.000000 -0.000000
 12 0.000000 1.254816 -27.876791 -0.680219 0.000000 0.000000
 13 -1.085475 -3.893522 -4.940935 0.000000 -0.000000 -0.000000
 14 0.000000 1.168601 2.657307 0.747080 0.010137 0.009906
 15 -8.954517 1.613846 23.720604 -0.305867 -0.052044 0.214579
 16 -8.943854 1.457870 -13.547016 0.135981 0.185909 0.289164
 17 -9.776268 -1.347252 -17.511673 -0.465138 -0.137543 -0.687620
 18 -1.151577 -2.023729 -5.708225 -0.304765 1.168865 2.891792
 19 1.306206 133.302460 -0.866417 -0.000000 0.000000 0.000000
 20 77.848915 60.794018 -5.807495 -0.000000 0.000000 0.000000
 21 77.848915 60.794018 -5.807495 -0.000000 0.000000 0.000000
 22 -2.237427 -0.251029 -4.450352 -0.000000 0.000000 0.000000
 23 10.123300 1.553898 23.818146 -0.666491 -0.155800 -0.081040
 24 8.005997 1.569467 -13.500443 -0.349732 0.504843 -0.338303
 25 9.844799 -2.472071 -17.483631 -0.289070 0.090857 0.172791
 26 2.405613 0.210279 -5.168671 -0.000000 0.000000 -0.000000
 27 0.245640 0.384586 39.101303 0.324599 -0.000702 0.003447
 28 -1.052357 9.658493 44.145046 0.204463 0.000000 0.000000
 29 -0.811210 19.080978 -11.093102 0.139731 0.000000 -0.000000
 30 -0.733672 -0.832352 4.389290 -0.000000 -0.000000 -0.000000
 31 0.209986 6.533333 16.233326 0.031263 -0.000020 0.000596
 32 0.298742 -0.688583 8.904312 0.000000 0.000000 0.000000
time 6
  0 -2.437624 -1.142060 2.887016 0.000000 -0.000000 0.000000
  1 -2.437624 -1.142060 2.887016 0.000000 -0.000000 0.000000
  2 -2.437624 -1.142060 2.887016 0.000000 -0.000000 0.000000
  3 -4.744596 2.314000 171.985855 0.000000 -0.000000 0.000000
  4 -2.437624 21.347429 53.835861 -0.069813 0.000000 0.000000
  5 0.000000 1.168598 -4.970119 -0.029046 0.000000 0.000000
  6 9.220941 -0.130268 -8.954067 -0.891465 -0.000000 -0.000000
  7 -0.379086 1.727839 -28.932127 0.890631 0.000000 0.000000
  8 0.656837 1.037595 -26.385693 0.122504 -0.000000 -0.000000
  9 0.796035 -3.895167 -5.943468 -0.000000 0.000000 0.000000
 10 -8.723413 -0.130268 -8.515102 -0.142102 -0.000000 -0.000000
 11 0.166782 1.552083 -27.663071 1.239552 -0.000000 -0.000001
 12 -0.000001 1.233057 -28.355312 -0.909370 0.000000 0.000001
 13 -1.085476 -3.893154 -4.941483 0.000000 -0.000000 0.000000
 14 -0.000000 1.168598 2.657307 0.941189 0.008092 0.012335
 15 -8.954538 1.590786 24.065536 -0.550799 0.014688 0.232808
 16 -8.944822 1.461580 -13.506855 0.172874 0.162887 0.290045
 17 -9.776413 -1.348488 -17.493748 -0.465160 -0.137555 -0.687615
 18 -0.723083 -3.469425 -5.620255 -0.307691 1.172802 2.926721
 19 1.305309 133.310318 -0.866905 0.000000 -0.000000 0.000000
 20 77.795761 60.797600 -5.810768 0.000000 -0.000000 0.000000
 21 77.795761 60.797600 -5.810768 0.000000 -0.000000 0.000000
 22 -2.237644 -0.250987 -4.450718 0.000000 -0.000000 0.000000
 23 10.123325 1.531696 24.164501 -0.840345 -0.173095 -0.055332
 24 8.005981 1.569373 -13.501396 -0.317708 0.520965 -0.325115
 25 9.832413 -2.476529 -17.472710 -0.289111 0.090861 0.172793
 26 2.403414 0.210873 -5.158226 -0.000000 0.000000 0.000000
 27 0.245641 0.379082 39.669888 0.381563 -0.000900 0.004415
 28 -1.052361 9.514091 44.756069 0.204724 0.000000 0.000000
 29 -0.811213 18.795700 -11.246643 0.139916 0.000000 -0.000000
 30 -0.733675 -0.819916 4.450039 0.000000 -0.000000 -0.000000
 31 0.208941 6.420315 16.527199 0.029787 -0.000019 0.000590
 32 0.298743 -0.678745 9.033798 -0.000000 -0.000000 -0.000000
time 7
  0 -2.437624 -1.142060 2.887016 0.000000 -0.000000 0.000000
  1 -2.437624 -1.142060 2.887016 0.000000 -0.000000 0.000000
  2 -2.437624 -1.142060 2.887016 0.000000 -0.000000 0.000000
  3 -4.744596 2.314000 171.985855 0.000000 -0.000000 0.000000
  4 -2.437624 26.210724 46.721230 -0.069813 0.000000 0.000000
  5 0.000000 1.168600 -4.970123 -0.047993 0.000000 0.000000
  6 9.220941 -0.130230 -8.956993 -1.051813 -0.000000 -0.000000
  7 -0.379086 1.708033 -29.241196 1.067523 0.000000 0.000000
  8 0.656837 1.037561 -26.386694 0.122503 -0.000000 -0.000000
  9 0.796035 -3.895195 -5.943419 -0.000000 0.000000 0.000000
 10 -8.723413 -0.130232 -8.517879 -0.149192 0.000000 -0.000000
 11 0.166782 1.550714 -27.690916 1.473547 -0.000000 -0.000001
 12 0.000000 1.217201 -28.693802 -1.109890 0.000001 0.000001
 13 -1.085475 -3.892796 -4.942003 -0.000000 0.000000 -0.000000
 14 0.000000 1.168600 2.657307 1.110953 0.006306 0.014461
 15 -8.954556 1.571518 24.346292 -0.764682 0.072941 0.248803
 16 -8.942863 1.464506 -13.479713 0.205123 0.142760 0.290813
 17 -9.774988 -1.350052 -17.474194 -0.465188 -0.137571 -0.687608
 18 -0.204092 -4.732440 -5.505657 -0.310240 1.176221 2.957251
 19 1.303459 133.314743 -0.868000 -0.000000 0.000000 -0.000000
 20 77.685333 60.799629 -5.818081 -0.000000 0.000000 -0.000000
 21 77.685333 60.799629 -5.818081 -0.000000 0.000000 -0.000000
 22 -2.238039 -0.250954 -4.450476 -0.000000 0.000000 -0.000000
 23 10.123343 1.513138 24.446413 -0.992345 -0.188240 -0.032862
 24 8.006041 1.569201 -13.503014 -0.289711 0.535046 -0.313583
 25 9.820957 -2.479738 -17.469677 -0.289143 0.090864 0.172797
 26 2.401471 0.211340 -5.150354 0.000000 -0.000000 -0.000000
 27 0.245641 0.374496 40.132698 0.431536 -0.001073 0.005262
 28 -1.052361 9.447418 45.032295 0.204821 0.000000 0.000000
 29 -0.811214 18.663994 -11.316052 0.140002 0.000000 -0.000000
 30 -0.733676 -0.814171 4.477505 -0.000000 0.000000 -0.000000
 31 0.207756 6.320518 16.786324 0.028128 -0.000018 0.000583
 32 0.298743 -0.670521 9.139189 -0.000000 -0.000000 0.000000
time 8
  0 -2.437624 -1.142060 2.887016 0.000000 -0.000000 0.000000
  1 -2.437624 -1.142060 2.887016 0.000000 -0.000000 0.000000
  2 -2.437624 -1.142060 2.887016 0.000000 -0.000000 0.000000
  3 -4.744596 2.314000 171.985855 0.000000 -0.000000 0.000000
  4 -2.437624 30.180441 39.810646 -0.069813 0.000000 0.000000
  5 0.000000 1.168600 -4.970116 -0.062145 0.000000 0.000000
  6 9.220942 -0.130199 -8.959501 -1.171776 -0.000000 -0.000000
  7 -0.379085 1.696890 -29.412081 1.199863 0.000000 0.000000
  8 0.656837 1.037535 -26.387466 0.122503 -0.000000 -0.000000
  9 0.796035 -3.895213 -5.943388 -0.000000 -0.000000 0.000000
 10 -8.723413 -0.130201 -8.520264 -0.154486 -0.000000 -0.000000
 11 0.166782 1.549606 -27.713377 1.648563 -0.000000 -0.000001
 12 0.000000 1.209133 -28.862911 -1.259953 0.000001 0.000001
 13 -1.085475 -3.892513 -4.942418 -0.000000 0.000000 -0.000000
 14 0.000000 1.168602 2.657307 1.237941 0.004972 0.016050
 15 -8.954565 1.559109 24.523636 -0.924512 0.116458 0.260797
 16 -8.939339 1.466425 -13.465694 0.229218 0.127719 0.291385
 17 -9.772592 -1.351494 -17.458340 -0.465211 -0.137586 -0.687601
 18 0.409361 -5.675757 -5.362280 -0.312139 1.178764 2.980060
 19 1.301448 133.317062 -0.869202 -0.000000 0.000000 0.000000
 20 77.565514 60.800686 -5.826111 -0.000000 0.000000 0.000000
 21 77.565514 60.800686 -5.826111 -0.000000 0.000000 0.000000
 22 -2.238285 -0.250936 -4.450308 -0.000000 0.000000 0.000000
 23 10.123356 1.501190 24.624483 -1.106025 -0.199571 -0.016060
 24 8.006189 1.569012 -13.504589 -0.268791 0.545558 -0.304965
 25 9.811492 -2.481687 -17.472618 -0.289163 0.090866 0.172801
 26 2.399858 0.211658 -5.145657 0.000000 -0.000000 0.000000
 27 0.245641 0.371540 40.425034 0.468846 -0.001203 0.005894
 28 -1.052362 9.443436 45.048668 0.204761 0.000000 0.000000
 29 -0.811214 18.656120 -11.320166 0.139975 0.000000 -0.000000
 30 -0.733676 -0.813824 4.479134 0.000000 -0.000000 -0.000000
 31 0.206446 6.246468 16.982395 0.026288 -0.000017 0.000573
 32 0.298744 -0.665226 9.205759 -0.000000 -0.000000 -0.000000
time 9
  0 -2.437624 -1.142060 2.887016 0.000000 -0.000000 0.000000
  1 -2.437624 -1.142060 2.887016 0.000000 -0.000000 0.000000
  2 -2.437624 -1.142060 2.887016 0.000000 -0.000000 0.000000
  3 -4.744596 2.314000 171.985855 0.000000 -0.000000 0.000000
  4 -2.437624 32.818027 33.450989 -0.069813 0.000000 0.000000
  5 0.000000 1.168602 -4.970123 -0.069443 0.000000 0.000000
  6 9.220941 -0.130178 -8.960903 -1.233711 -0.000000 -0.000000
  7 -0.379086 1.692704 -29.475691 1.268188 0.000000 0.000000
  8 0.656837 1.037521 -26.387863 0.122503 -0.000000 -0.000000
  9 0.796035 -3.895221 -5.943373 -0.000000 -0.000000 0.000000
 10 -8.723413 -0.130178 -8.521593 -0.157216 -0.000000 -0.000000
 11 0.166782 1.549006 -27.725500 1.738852 -0.000000 -0.000001
 12 0.000000 1.206574 -28.916082 -1.337433 0.000001 0.000001
 13 -1.085475 -3.892361 -4.942642 -0.000000 0.000000 -0.000000
 14 0.000000 1.168600 2.657307 1.303501 0.004284 0.016870
 15 -8.954570 1.553692 24.600143 -1.007003 0.138915 0.266992
 16 -8.936676 1.467306 -13.461046 0.241645 0.119960 0.291679
 17 -9.770741 -1.352316 -17.450256 -0.465223 -0.137594 -0.687597
 18 1.121017 -6.162246 -5.187299 -0.313117 1.180073 2.991824
 19 1.300233 133.317902 -0.869925 -0.000000 -0.000000 -0.000000
 20 77.493019 60.801060 -5.830978 -0.000000 -0.000000 -0.000000
 21 77.493019 60.801060 -5.830978 -0.000000 -0.000000 -0.000000
 22 -2.238325 -0.250928 -4.450377 -0.000000 -0.000000 0.000000
 23 10.123360 1.495972 24.701303 -1.164713 -0.205420 -0.007387
 24 8.006311 1.568897 -13.505497 -0.258000 0.550976 -0.300518
 25 9.806168 -2.482539 -17.476166 -0.289172 0.090866 0.172803
 26 2.398936 0.211810 -5.143738 -0.000000 -0.000000 -0.000000
 27 0.245642 0.370247 40.551144 0.488041 -0.001269 0.006220
 28 -1.052362 9.457241 44.991814 0.204691 0.000000 0.000000
 29 -0.811214 18.683384 -11.305879 0.139933 0.000000 -0.000000
 30 -0.733676 -0.815018 4.473480 -0.000000 -0.000000 -0.000000
 31 0.205028 6.198738 17.115547 0.024280 -0.000016 0.000562
 32 0.298744 -0.662918 9.234479 0.000000 0.000000 0.000000
time 10
  0 -2.437624 -1.142060 2.887016 0.000000 -0.000000 0.000000
  1 -2.437624 -1.142060 2.887016 0.000000 -0.000000 0.000000
  2 -2.437624 -1.142060 2.887016 0.000000 -0.000000 0.000000
  3 -4.744596 2.314000 171.985855 0.000000 -0.000000 0.000000
  4 -2.437624 34.098660 27.631784 -0.069813 0.000000 0.000000
  5 0.000000 1.168604 -4.970119 -0.069997 0.000000 0.000000
  6 9.220941 -0.130180 -8.961012 -1.238418 0.000000 -0.000000
  7 -0.379086 1.692434 -29.479786 1.273380 0.000000 0.000000
  8 0.656837 1.037520 -26.387897 0.122503 -0.000000 -0.000000
  9 0.796035 -3.895223 -5.943373 -0.000000 -0.000000 0.000000
 10 -8.723413 -0.130180 -8.521700 -0.157423 -0.000000 0.000000
 11 0.166783 1.548962 -27.726439 1.745711 -0.000000 -0.000001
 12 0.000000 1.206429 -28.919121 -1.343321 0.000001 0.000001
 13 -1.085476 -3.892349 -4.942656 0.000000 0.000000 0.000000
 14 0.000000 1.168600 2.657309 1.308483 0.004232 0.016932
 15 -8.954570 1.553310 24.605482 -1.013272 0.140621 0.267462
 16 -8.936445 1.467371 -13.460768 0.242589 0.119371 0.291702
 17 -9.770576 -1.352377 -17.449656 -0.465224 -0.137595 -0.687597
 18 1.940157 -6.118886 -4.637680 -0.313191 1.180172 2.992718
 19 1.300135 133.317993 -0.869984 0.000000 0.000000 0.000000
 20 77.487244 60.801105 -5.831369 0.000000 0.000000 0.000000
 21 77.487244 60.801105 -5.831369 0.000000 0.000000 0.000000
 22 -2.238327 -0.250927 -4.450389 -0.000000 -0.000000 0.000000
 23 10.123360 1.495613 24.706669 -1.169173 -0.205864 -0.006728
 24 8.006322 1.568888 -13.505571 -0.257180 0.551388 -0.300181
 25 9.805749 -2.482599 -17.476492 -0.289172 0.090866 0.172803
 26 2.398861 0.211823 -5.143604 0.000000 0.000000 -0.000000
 27 0.245642 0.370155 40.559944 0.489498 -0.001275 0.006245
 28 -1.052362 9.458714 44.985718 0.204685 0.000000 0.000000
 29 -0.811214 18.686306 -11.304348 0.139929 0.000000 0.000000
 30 -0.733676 -0.815144 4.472873 0.000000 0.000000 0.000000
 31 0.203517 6.169472 17.204720 0.022125 -0.000015 0.000549
 32 0.298744 -0.662754 9.236484 -0.000000 -0.000000 -0.000000
time 11
  0 -2.437624 -1.142060 2.887016 0.000000 -0.000000 0.000000
  1 -2.437624 -1.142060 2.887016 0.000000 -0.000000 0.000000
  2 -2.437624 -1.142060 2.887016 0.000000 -0.000000 0.000000
  3 -4.744596 2.314000 171.985855 0.000000 -0.000000 0.000000
  4 -2.437624 35.180199 21.375050 -0.069813 0.000000 0.000000
  5 0.000000 1.168602 -4.970121 -0.069997 0.000000 0.000000
  6 9.220941 -0.130180 -8.961012 -1.238418 0.000000 -0.000000
  7 -0.379086 1.692434 -29.479784 1.273380 0.000000 0.000000
  8 0.656837 1.037520 -26.387897 0.122503 -0.000000 -0.000000
  9 0.796035 -3.895223 -5.943371 -0.000000 -0.000000 0.000000
 10 -8.723413 -0.130180 -8.521699 -0.157423 -0.000000 0.000000
 11 0.166782 1.548962 -27.726439 1.745711 -0.000000 -0.000001
 12 0.000001 1.206429 -28.919117 -1.343321 0.000001 0.000001
 13 -1.085476 -3.892345 -4.942657 0.000000 0.000000 0.000000
 14 -0.000000 1.168602 2.657307 1.308483 0.004232 0.016932
 15 -8.954569 1.553307 24.605480 -1.013272 0.140621 0.267462
 16 -8.936441 1.467369 -13.460772 0.242589 0.119371 0.291702
 17 -9.770574 -1.352377 -17.449659 -0.465224 -0.137595 -0.687597
 18 2.879728 -5.704463 -2.640763 -0.313191 1.180172 2.992718
 19 1.300136 133.317947 -0.869982 0.000000 0.000000 0.000000
 20 77.487244 60.801086 -5.831362 0.000000 0.000000 0.000000
 21 77.487244 60.801086 -5.831362 0.000000 0.000000 0.000000
 22 -2.238323 -0.250927 -4.450390 -0.000000 0.000000 0.000000
 23 10.123360 1.495609 24.706669 -1.169173 -0.205864 -0.006728
 24 8.006319 1.568888 -13.505573 -0.257180 0.551388 -0.300181
 25 9.805751 -2.482598 -17.476490 -0.289172 0.090866 0.172803
 26 2.398863 0.211821 -5.143604 -0.000000 0.000000 -0.000000
 27 0.245642 0.370159 40.559944 0.489498 -0.001275 0.006245
 28 -1.052362 9.458717 44.985725 0.204685 0.000000 0.000000
 29 -0.811214 18.686310 -11.304350 0.139929 0.000000 0.000000
 30 -0.733676 -0.815144 4.472874 -0.000000 0.000000 0.000000
 31 0.201928 6.140297 17.294565 0.019853 -0.000014 0.000534
 32 0.298744 -0.662754 9.236486 -0.000000 -0.000000 -0.000000
time 12
  0 -2.437624 -1.142060 2.887016 0.000000 -0.000000 0.000000
  1 -2.437624 -1.142060 2.887016 0.000000 -0.000000 0.000000
  2 -2.437624 -1.142060 2.887016 0.000000 -0.000000 0.000000
  3 -4.744596 2.314000 171.985855 0.000000 -0.000000 0.000000
  4 -2.437624 36.171246 14.670986 -0.069813 0.000000 0.000000
  5 0.000000 1.168602 -4.970122 -0.069997 0.000000 0.000000
  6 9.220942 -0.130180 -8.961012 -1.238418 0.000000 -0.000000
  7 -0.379085 1.692434 -29.479786 1.273380 0.000000 0.000000
  8 0.656837 1.037521 -26.387896 0.122503 -0.000000 -0.000000
  9 0.796035 -3.895223 -5.943371 -0.000000 -0.000000 0.000000
 10 -8.723413 -0.130180 -8.521698 -0.157423 -0.000000 0.000000
 11 0.166782 1.548962 -27.726440 1.745711 -0.000000 -0.000001
 12 0.000001 1.206429 -28.919117 -1.343321 0.000001 0.000001
 13 -1.085476 -3.892353 -4.942657 0.000000 0.000000 0.000000
 14 0.000000 1.168606 2.657305 1.308483 0.004232 0.016932
 15 -8.954570 1.553312 24.605480 -1.013272 0.140621 0.267462
 16 -8.936445 1.467369 -13.460770 0.242589 0.119371 0.291702
 17 -9.770574 -1.352377 -17.449659 -0.465224 -0.137595 -0.687597
 18 3.925005 -4.970073 0.739227 -0.313191 1.180172 2.992718
 19 1.300136 133.317932 -0.869982 -0.000000 0.000000 0.000000
 20 77.487259 60.801079 -5.831364 -0.000000 0.000000 0.000000
 21 77.487259 60.801079 -5.831364 -0.000000 0.000000 0.000000
 22 -2.238323 -0.250926 -4.450390 -0.000000 0.000000 0.000000
 23 10.123359 1.495611 24.706667 -1.169173 -0.205864 -0.006728
 24 8.006321 1.568890 -13.505573 -0.257180 0.551388 -0.300181
 25 9.805750 -2.482599 -17.476490 -0.289172 0.090866 0.172803
 26 2.398861 0.211823 -5.143604 0.000000 0.000000 0.000000
 27 0.245642 0.370157 40.559944 0.489498 -0.001275 0.006245
 28 -1.052362 9.458717 44.985718 0.204685 0.000000 0.000000
 29 -0.811214 18.686310 -11.304348 0.139929 0.000000 0.000000
 30 -0.733676 -0.815144 4.472874 -0.000000 0.000000 -0.000000
 31 0.200276 6.109985 17.387924 0.017486 -0.000013 0.000516
 32 0.298744 -0.662754 9.236485 -0.000000 -0.000000 0.000000
time 13
  0 -2.437624 -1.142060 2.887016 0.000000 -0.000000 0.000000
  1 -2.437624 -1.142060 2.887016 0.000000 -0.000000 0.000000
  2 -2.437624 -1.142060 2.887016 0.000000 -0.000000 0.000000
  3 -4.744596 2.314000 171.985855 0.000000 -0.000000 0.000000
  4 -2.437624 37.075592 7.602655 -0.069813 0.000000 0.000000
  5 0.000000 1.168602 -4.970121 -0.069997 0.000000 0.000000
  6 9.220942 -0.130180 -8.961012 -1.238418 0.000000 -0.000000
  7 -0.379086 1.692433 -29.479782 1.273380 0.000000 0.000000
  8 0.656837 1.037520 -26.387896 0.122503 -0.000000 -0.000000
  9 0.796035 -3.895223 -5.943371 0.000000 -0.000000 0.000000
 10 -8.723413 -0.130180 -8.521699 -0.157423 -0.000000 0.000000
 11 0.166782 1.548962 -27.726440 1.745711 -0.000000 -0.000001
 12 0.000000 1.206427 -28.919113 -1.343321 0.000001 0.000001
 13 -1.085475 -3.892349 -4.942657 0.000000 0.000000 0.000000
 14 -0.000000 1.168602 2.657306 1.308483 0.004232 0.016932
 15 -8.954570 1.553310 24.605482 -1.013272 0.140621 0.267463
 16 -8.936445 1.467369 -13.460773 0.242589 0.119371 0.291702
 17 -9.770576 -1.352375 -17.449659 -0.465224 -0.137595 -0.687597
 18 5.059343 -3.952612 5.341662 -0.313191 1.180172 2.992718
 19 1.300137 133.317978 -0.869986 0.000000 -0.000000 0.000000
 20 77.487259 60.801098 -5.831366 0.000000 -0.000000 0.000000
 21 77.487259 60.801098 -5.831366 0.000000 -0.000000 0.000000
 22 -2.238325 -0.250928 -4.450388 -0.000000 0.000000 0.000000
 23 10.123360 1.495611 24.706667 -1.169173 -0.205864 -0.006728
 24 8.006321 1.568888 -13.505573 -0.257180 0.551388 -0.300181
 25 9.805752 -2.482599 -17.476492 -0.289172 0.090866 0.172803
 26 2.398861 0.211823 -5.143604 0.000000 0.000000 -0.000000
 27 0.245642 0.370157 40.559944 0.489498 -0.001275 0.006245
 28 -1.052362 9.458717 44.985722 0.204685 0.000000 0.000000
 29 -0.811214 18.686310 -11.304349 0.139929 0.000000 0.000000
 30 -0.733676 -0.815144 4.472874 -0.000000 0.000000 -0.000000
 31 0.198578 6.078814 17.483917 0.015044 -0.000012 0.000497
 32 0.298744 -0.662756 9.236483 -0.000000 -0.000000 -0.000000
time 14
  0 -2.437624 -1.142060 2.887016 0.000000 -0.000000 0.000000
  1 -2.437624 -1.142060 2.887016 0.000000 -0.000000 0.000000
  2 -2.437624 -1.142060 2.887016 0.000000 -0.000000 0.000000
  3 -4.744596 2.314000 171.985855 0.000000 -0.000000 0.000000
  4 -2.437624 37.897018 0.253125 -0.069813 0.000000 0.000000
  5 0.000000 1.168602 -4.970120 -0.069997 0.000000 0.000000
  6 9.220942 -0.130180 -8.961012 -1.238418 0.000000 -0.000000
  7 -0.379086 1.692434 -29.479786 1.273380 0.000000 0.000000
  8 0.656837 1.037520 -26.387897 0.122503 -0.000000 -0.000000
  9 0.796035 -3.895224 -5.943371 -0.000000 -0.000000 0.000000
 10 -8.723413 -0.130180 -8.521700 -0.157423 -0.000000 0.000000
 11 0.166783 1.548962 -27.726440 1.745711 -0.000000 -0.000001
 12 0.000000 1.206429 -28.919121 -1.343321 0.000001 0.000001
 13 -1.085475 -3.892345 -4.942654 0.000000 0.000000 0.000000
 14 0.000000 1.168602 2.657306 1.308483 0.004232 0.016932
 15 -8.954570 1.553313 24.605482 -1.013272 0.140621 0.267462
 16 -8.936445 1.467369 -13.460771 0.242589 0.119371 0.291702
 17 -9.770575 -1.352377 -17.449659 -0.465224 -0.137595 -0.687597
 18 6.266102 -2.688973 11.005914 -0.313191 1.180172 2.992718
 19 1.300135 133.317963 -0.869984 -0.000000 0.000000 0.000000
 20 77.487244 60.801094 -5.831364 -0.000000 0.000000 0.000000
 21 77.487244 60.801094 -5.831364 -0.000000 0.000000 0.000000
 22 -2.238323 -0.250925 -4.450388 -0.000000 -0.000000 0.000000
 23 10.123361 1.495612 24.706667 -1.169173 -0.205864 -0.006728
 24 8.006323 1.568888 -13.505574 -0.257180 0.551388 -0.300180
 25 9.805752 -2.482599 -17.476490 -0.289172 0.090866 0.172803
 26 2.398861 0.211821 -5.143605 -0.000000 -0.000000 -0.000000
 27 0.245642 0.370160 40.559944 0.489498 -0.001275 0.006245
 28 -1.052362 9.458717 44.985722 0.204685 0.000000 0.000000
 29 -0.811214 18.686306 -11.304348 0.139929 0.000000 0.000000
 30 -0.733676 -0.815143 4.472874 -0.000000 -0.000000 0.000000
 31 0.196850 6.047074 17.581665 0.012548 -0.000011 0.000474
 32 0.298744 -0.662753 9.236485 -0.000000 -0.000000 -0.000000
time 15
  0 -2.437624 -1.142060 2.887016 0.000000 -0.000000 0.000000
  1 -2.437624 -1.142060 2.887016 0.000000 -0.000000 0.000000
  2 -2.437624 -1.142060 2.887016 0.000000 -0.000000 0.000000
  3 -4.744596 2.314000 171.985855 0.000000 -0.000000 0.000000
  4 -2.437624 38.639317 -7.294535 -0.069813 0.000000 0.000000
  5 0.000000 1.168602 -4.970121 -0.069997 0.000000 0.000000
  6 9.220941 -0.130177 -8.961013 -1.238418 0.000000 -0.000000
  7 -0.379086 1.692434 -29.479782 1.273380 0.000000 0.000000
  8 0.656837 1.037520 -26.387897 0.122503 -0.000000 -0.000000
  9 0.796035 -3.895223 -5.943371 0.000000 -0.000000 0.000000
 10 -8.723413 -0.130180 -8.521697 -0.157423 -0.000000 0.000000
 11 0.166782 1.548962 -27.726440 1.745711 -0.000000 -0.000001
 12 0.000000 1.206429 -28.919121 -1.343321 0.000001 0.000001
 13 -1.085475 -3.892345 -4.942654 0.000000 0.000000 0.000000
 14 0.000000 1.168602 2.657306 1.308483 0.004232 0.016932
 15 -8.954569 1.553311 24.605480 -1.013272 0.140621 0.267462
 16 -8.936443 1.467371 -13.460770 0.242590 0.119371 0.291702
 17 -9.770573 -1.352375 -17.449657 -0.465224 -0.137595 -0.687597
 18 7.528639 -1.216059 17.571354 -0.313191 1.180172 2.992718
 19 1.300135 133.317978 -0.869984 0.000000 0.000000 0.000000
 20 77.487236 60.801102 -5.831364 0.000000 0.000000 0.000000
 21 77.487236 60.801102 -5.831364 0.000000 0.000000 0.000000
 22 -2.238323 -0.250927 -4.450392 0.000000 0.000000 0.000000
 23 10.123359 1.495611 24.706665 -1.169173 -0.205864 -0.006728
 24 8.006318 1.568890 -13.505575 -0.257180 0.551388 -0.300181
 25 9.805747 -2.482599 -17.476494 -0.289172 0.090866 0.172803
 26 2.398861 0.211823 -5.143603 0.000000 0.000000 0.000000
 27 0.245642 0.370158 40.559940 0.489498 -0.001275 0.006245
 28 -1.052362 9.458717 44.985725 0.204685 0.000000 0.000000
 29 -0.811214 18.686310 -11.304348 0.139929 0.000000 0.000000
 30 -0.733676 -0.815142 4.472875 -0.000000 0.000000 0.000000
 31 0.195105 6.015049 17.680286 0.010021 -0.000009 0.000450
 32 0.298744 -0.662755 9.236483 -0.000000 -0.000000 0.000000
time 16
  0 -2.437624 -1.142060 2.887016 0.000000 -0.000000 0.000000
  1 -2.437624 -1.142060 2.887016 0.000000 -0.000000 0.000000
  2 -2.437624 -1.142060 2.887016 0.000000 -0.000000 0.000000
  3 -4.744596 2.314000 171.985855 0.000000 -0.000000 0.000000
  4 -2.437624 39.306274 -14.957262 -0.069813 0.000000 0.000000
  5 0.000000 1.168598 -4.970122 -0.069997 0.000000 0.000000
  6 9.220942 -0.130180 -8.961013 -1.238418 0.000000 -0.000000
  7 -0.379086 1.692436 -29.479786 1.273380 0.000000 0.000000
  8 0.656837 1.037520 -26.387897 0.122503 -0.000000 -0.000000
  9 0.796035 -3.895223 -5.943375 -0.000000 -0.000000 0.000000
 10 -8.723413 -0.130180 -8.521699 -0.157423 -0.000000 0.000000
 11 0.166783 1.548962 -27.726437 1.745711 -0.000000 -0.000001
 12 0.000000 1.206429 -28.919117 -1.343321 0.000001 0.000001
 13 -1.085475 -3.892353 -4.942657 0.000000 0.000000 0.000000
 14 -0.000000 1.168602 2.657306 1.308483 0.004232 0.016932
 15 -8.954571 1.553312 24.605480 -1.013272 0.140621 0.267462
 16 -8.936446 1.467369 -13.460769 0.242589 0.119371 0.291702
 17 -9.770575 -1.352375 -17.449657 -0.465224 -0.137595 -0.687597
 18 8.830326 0.429237 24.877350 -0.313191 1.180172 2.992718
 19 1.300135 133.317963 -0.869985 -0.000000 0.000000 0.000000
 20 77.487244 60.801086 -5.831364 -0.000000 0.000000 0.000000
 21 77.487244 60.801086 -5.831364 -0.000000 0.000000 0.000000
 22 -2.238321 -0.250925 -4.450390 -0.000000 -0.000000 0.000000
 23 10.123362 1.495611 24.706665 -1.169173 -0.205864 -0.006728
 24 8.006320 1.568888 -13.505575 -0.257180 0.551388 -0.300181
 25 9.805752 -2.482599 -17.476494 -0.289172 0.090866 0.172803
 26 2.398865 0.211824 -5.143604 -0.000000 0.000000 -0.000000
 27 0.245642 0.370158 40.559944 0.489498 -0.001275 0.006245
 28 -1.052362 9.458716 44.985718 0.204685 0.000000 0.000000
 29 -0.811214 18.686308 -11.304348 0.139929 0.000000 0.000000
 30 -0.733676 -0.815143 4.472874 0.000000 0.000000 0.000000
 31 0.193361 5.983026 17.778913 0.007482 -0.000008 0.000422
 32 0.298744 -0.662755 9.236481 -0.000000 -0.000000 0.000000
time 17
  0 -2.437624 -1.142060 2.887016 0.000000 -0.000000 0.000000
  1 -2.437624 -1.142060 2.887016 0.000000 -0.000000 0.000000
  2 -2.437624 -1.142060 2.887016 0.000000 -0.000000 0.000000
  3 -4.744596 2.314000 171.985855 0.000000 -0.000000 0.000000
  4 -2.437624 39.901676 -22.651987 -0.069813 0.000000 0.000000
  5 0.000000 1.168602 -4.970121 -0.069997 0.000000 0.000000
  6 9.220941 -0.130177 -8.961010 -1.238418 0.000000 -0.000000
  7 -0.379086 1.692432 -29.479786 1.273380 0.000000 0.000000
  8 0.656837 1.037519 -26.387901 0.122503 -0.000000 -0.000000
  9 0.796035 -3.895223 -5.943375 -0.000000 -0.000000 0.000000
 10 -8.723413 -0.130180 -8.521698 -0.157423 -0.000000 0.000000
 11 0.166783 1.548962 -27.726437 1.745711 -0.000000 -0.000001
 12 0.000000 1.206425 -28.919121 -1.343321 0.000001 0.000001
 13 -1.085475 -3.892345 -4.942657 0.000000 0.000000 0.000000
 14 0.000000 1.168598 2.657309 1.308483 0.004232 0.016932
 15 -8.954569 1.553312 24.605480 -1.013272 0.140621 0.267462
 16 -8.936445 1.467371 -13.460773 0.242589 0.119371 0.291702
 17 -9.770573 -1.352378 -17.449661 -0.465224 -0.137595 -0.687597
 18 10.154507 2.210012 32.763283 -0.313191 1.180172 2.992718
 19 1.300137 133.317947 -0.869983 0.000000 0.000000 0.000000
 20 77.487259 60.801079 -5.831368 0.000000 0.000000 0.000000
 21 77.487259 60.801079 -5.831368 0.000000 0.000000 0.000000
 22 -2.238325 -0.250927 -4.450386 -0.000000 -0.000000 0.000000
 23 10.123360 1.495613 24.706665 -1.169173 -0.205864 -0.006728
 24 8.006321 1.568888 -13.505575 -0.257180 0.551388 -0.300181
 25 9.805750 -2.482599 -17.476494 -0.289172 0.090866 0.172803
 26 2.398865 0.211823 -5.143608 -0.000000 0.000000 -0.000000
 27 0.245642 0.370160 40.559940 0.489498 -0.001275 0.006245
 28 -1.052362 9.458717 44.985710 0.204685 0.000000 0.000000
 29 -0.811214 18.686310 -11.304348 0.139929 0.000000 -0.000000
 30 -0.733676 -0.815143 4.472874 0.000000 -0.000000 0.000000
 31 0.191632 5.951284 17.876663 0.004952 -0.000007 0.000392
 32 0.298744 -0.662754 9.236485 -0.000000 -0.000000 -0.000000
time 18
  0 -2.437624 -1.142060 2.887016 0.000000 -0.000000 0.000000
  1 -2.437624 -1.142060 2.887016 0.000000 -0.000000 0.000000
  2 -2.437624 -1.142060 2.887016 0.000000 -0.000000 0.000000
  3 -4.744596 2.314000 171.985855 0.000000 -0.000000 0.000000
  4 -2.437624 40.429314 -30.295641 -0.069813 0.000000 0.000000
  5 0.000000 1.168602 -4.970123 -0.069997 0.000000 0.000000
  6 9.220942 -0.130180 -8.961014 -1.238418 0.000000 -0.000000
  7 -0.379086 1.692432 -29.479786 1.273380 0.000000 0.000000
  8 0.656837 1.037519 -26.387901 0.122503 -0.000000 -0.000000
  9 0.796035 -3.895223 -5.943382 -0.000000 -0.000000 0.000000
 10 -8.723413 -0.130180 -8.521698 -0.157423 -0.000000 0.000000
 11 0.166783 1.548965 -27.726433 1.745711 -0.000000 -0.000001
 12 0.000000 1.206429 -28.919125 -1.343321 0.000001 0.000001
 13 -1.085474 -3.892345 -4.942657 0.000000 0.000000 0.000000
 14 0.000000 1.168606 2.657307 1.308483 0.004232 0.016932
 15 -8.954571 1.553312 24.605480 -1.013272 0.140621 0.267462
 16 -8.936444 1.467371 -13.460772 0.242589 0.119371 0.291702
 17 -9.770575 -1.352379 -17.449665 -0.465224 -0.137595 -0.687597
 18 11.484560 4.089378 41.068497 -0.313191 1.180172 2.992718
 19 1.300136 133.317963 -0.869986 -0.000000 -0.000000 0.000000
 20 77.487244 60.801102 -5.831367 -0.000000 -0.000000 0.000000
 21 77.487244 60.801102 -5.831367 -0.000000 -0.000000 0.000000
 22 -2.238325 -0.250927 -4.450390 0.000000 0.000000 -0.000000
 23 10.123361 1.495613 24.706665 -1.169173 -0.205864 -0.006728
 24 8.006321 1.568890 -13.505573 -0.257180 0.551388 -0.300180
 25 9.805752 -2.482599 -17.476498 -0.289172 0.090866 0.172803
 26 2.398861 0.211823 -5.143606 0.000000 -0.000000 0.000000
 27 0.245642 0.370160 40.559944 0.489498 -0.001275 0.006245
 28 -1.052362 9.458717 44.985714 0.204685 0.000000 0.000000
 29 -0.811214 18.686310 -11.304348 0.139929 0.000000 -0.000000
 30 -0.733676 -0.815144 4.472874 -0.000000 0.000000 -0.000000
 31 0.189934 5.920115 17.972656 0.002453 -0.000006 0.000360
 32 0.298744 -0.662755 9.236481 -0.000000 -0.000000 -0.000000
time 19
  0 -2.437624 -1.142060 2.887016 0.000000 -0.000000 0.000000
  1 -2.437624 -1.142060 2.887016 0.000000 -0.000000 0.000000
  2 -2.437624 -1.142060 2.887016 0.000000 -0.000000 0.000000
  3 -4.744596 2.314000 171.985855 0.000000 -0.000000 0.000000
  4 -2.437624 40.892975 -37.805161 -0.069813 0.000000 0.000000
  5 0.000000 1.168602 -4.970119 -0.069997 0.000000 0.000000
  6 9.220942 -0.130177 -8.961014 -1.238418 0.000000 -0.000000
  7 -0.379086 1.692436 -29.479788 1.273380 0.000000 0.000000
  8 0.656837 1.037521 -26.387894 0.122503 -0.000000 -0.000000
  9 0.796035 -3.895223 -5.943375 0.000000 -0.000000 0.000000
 10 -8.723413 -0.130180 -8.521698 -0.157423 -0.000000 0.000000
 11 0.166783 1.548962 -27.726433 1.745711 -0.000000 -0.000001
 12 0.000000 1.206421 -28.919117 -1.343321 0.000001 0.000001
 13 -1.085474 -3.892349 -4.942657 0.000000 0.000000 0.000000
 14 0.000000 1.168598 2.657307 1.308483 0.004232 0.016932
 15 -8.954569 1.553310 24.605484 -1.013272 0.140621 0.267462
 16 -8.936441 1.467369 -13.460768 0.242589 0.119371 0.291702
 17 -9.770569 -1.352378 -17.449657 -0.465224 -0.137595 -0.687597
 18 12.803818 6.030430 49.632378 -0.313191 1.180172 2.992718
 19 1.300137 133.317993 -0.869983 0.000000 0.000000 0.000000
 20 77.487236 60.801105 -5.831363 0.000000 0.000000 0.000000
 21 77.487236 60.801105 -5.831363 0.000000 0.000000 0.000000
 22 -2.238321 -0.250925 -4.450394 0.000000 0.000000 0.000000
 23 10.123358 1.495611 24.706667 -1.169173 -0.205864 -0.006728
 24 8.006317 1.568886 -13.505577 -0.257180 0.551388 -0.300181
 25 9.805748 -2.482599 -17.476492 -0.289172 0.090866 0.172803
 26 2.398857 0.211823 -5.143604 0.000000 0.000000 -0.000000
 27 0.245642 0.370157 40.559948 0.489498 -0.001275 0.006245
 28 -1.052362 9.458717 44.985718 0.204685 0.000000 0.000000
 29 -0.811214 18.686310 -11.304348 0.139929 0.000000 -0.000000
 30 -0.733676 -0.815142 4.472874 -0.000000 0.000000 -0.000000
 31 0.188282 5.889798 18.066013 0.000006 -0.000005 0.000324
 32 0.298744 -0.662756 9.236485 0.000000 -0.000000 -0.000000
time 20
  0 -2.437624 -1.142060 2.887016 0.000000 -0.000000 0.000000
  1 -2.437624 -1.142060 2.887016 0.000000 -0.000000 0.000000
  2 -2.437624 -1.142060 2.887016 0.000000 -0.000000 0.000000
  3 -4.744596 2.314000 171.985855 0.000000 -0.000000 0.000000
  4 -2.437624 41.296444 -45.097481 -0.069813 0.000000 0.000000
  5 0.000000 1.168602 -4.970119 -0.069997 0.000000 0.000000
  6 9.220941 -0.130177 -8.961010 -1.238418 0.000000 -0.000000
  7 -0.379086 1.692436 -29.479786 1.273380 0.000000 0.000000
  8 0.656837 1.037521 -26.387894 0.122503 -0.000000 -0.000000
  9 0.796035 -3.895223 -5.943382 -0.000000 0.000000 0.000000
 10 -8.723413 -0.130180 -8.521698 -0.157423 -0.000000 0.000000
 11 0.166782 1.548965 -27.726440 1.745711 -0.000000 -0.000001
 12 0.000000 1.206421 -28.919125 -1.343321 0.000001 0.000001
 13 -1.085474 -3.892349 -4.942650 0.000000 0.000000 0.000000
 14 -0.000000 1.168602 2.657307 1.308483 0.004232 0.016932
 15 -8.954568 1.553310 24.605480 -1.013272 0.140621 0.267462
 16 -8.936442 1.467368 -13.460770 0.242589 0.119370 0.291702
 17 -9.770571 -1.352377 -17.449657 -0.465224 -0.137595 -0.687597
 18 14.095671 7.996269 58.294308 -0.313191 1.180172 2.992718
 19 1.300136 133.317993 -0.869983 0.000000 -0.000000 -0.000000
 20 77.487244 60.801109 -5.831362 0.000000 -0.000000 -0.000000
 21 77.487244 60.801109 -5.831362 0.000000 -0.000000 -0.000000
 22 -2.238321 -0.250927 -4.450394 -0.000000 0.000000 0.000000
 23 10.123359 1.495609 24.706667 -1.169173 -0.205864 -0.006728
 24 8.006321 1.568888 -13.505577 -0.257180 0.551388 -0.300181
 25 9.805752 -2.482601 -17.476490 -0.289172 0.090866 0.172803
 26 2.398865 0.211823 -5.143608 -0.000000 0.000000 -0.000000
 27 0.245642 0.370155 40.559944 0.489498 -0.001275 0.006245
 28 -1.052362 9.458717 44.985722 0.204685 0.000000 0.000000
 29 -0.811214 18.686310 -11.304348 0.139929 0.000000 0.000000
 30 -0.733676 -0.815144 4.472873 -0.000000 0.000000 -0.000000
 31 0.186693 5.860624 18.155861 -0.002368 -0.000003 0.000285
 32 0.298744 -0.662754 9.236485 -0.000000 -0.000000 0.000000
time 21
  0 -2.437624 -1.142060 2.887016 0.000000 -0.000000 0.000000
  1 -2.437624 -1.142060 2.887016 0.000000 -0.000000 0.000000
  2 -2.437624 -1.142060 2.887016 0.000000 -0.000000 0.000000
  3 -4.744596 2.314000 171.985855 0.000000 -0.000000 0.000000
  4 -2.437624 41.643509 -52.089523 -0.069813 0.000000 0.000000
  5 0.000000 1.168602 -4.970119 -0.069997 0.000000 0.000000
  6 9.220941 -0.130177 -8.961018 -1.238418 0.000000 -0.000000
  7 -0.379086 1.692429 -29.479786 1.273380 0.000000 0.000000
  8 0.656837 1.037521 -26.387894 0.122503 -0.000000 -0.000000
  9 0.796035 -3.895222 -5.943375 -0.000000 -0.000000 0.000000
 10 -8.723413 -0.130180 -8.521698 -0.157423 -0.000000 0.000000
 11 0.166782 1.548962 -27.726448 1.745711 -0.000000 -0.000001
 12 0.000000 1.206429 -28.919121 -1.343321 0.000001 0.000001
 13 -1.085475 -3.892349 -4.942657 0.000000 0.000000 0.000000
 14 -0.000000 1.168602 2.657307 1.308483 0.004232 0.016932
 15 -8.954570 1.553314 24.605476 -1.013272 0.140621 0.267462
 16 -8.936443 1.467369 -13.460773 0.242589 0.119371 0.291702
 17 -9.770573 -1.352373 -17.449657 -0.465224 -0.137595 -0.687597
 18 15.343461 9.950003 66.893661 -0.313191 1.180172 2.992718
 19 1.300137 133.317978 -0.869983 0.000000 0.000000 0.000000
 20 77.487259 60.801102 -5.831364 0.000000 0.000000 0.000000
 21 77.487259 60.801102 -5.831364 0.000000 0.000000 0.000000
 22 -2.238321 -0.250925 -4.450394 -0.000000 -0.000000 -0.000000
 23 10.123358 1.495613 24.706661 -1.169173 -0.205864 -0.006728
 24 8.006320 1.568890 -13.505573 -0.257180 0.551388 -0.300181
 25 9.805752 -2.482601 -17.476498 -0.289172 0.090866 0.172803
 26 2.398865 0.211823 -5.143604 0.000000 -0.000000 -0.000000
 27 0.245642 0.370163 40.559937 0.489498 -0.001275 0.006245
 28 -1.052362 9.458719 44.985722 0.204685 0.000000 0.000000
 29 -0.811214 18.686312 -11.304350 0.139929 0.000000 0.000000
 30 -0.733676 -0.815144 4.472875 -0.000000 0.000000 0.000000
 31 0.185181 5.832878 18.241310 -0.004648 -0.000002 0.000242
 32 0.298744 -0.662754 9.236481 0.000000 -0.000000 0.000000
time 22
  0 -2.437624 -1.142060 2.887016 0.000000 -0.000000 0.000000
  1 -2.437624 -1.142060 2.887016 0.000000 -0.000000 0.000000
  2 -2.437624 -1.142060 2.887016 0.000000 -0.000000 0.000000
  3 -4.744596 2.314000 171.985855 0.000000 -0.000000 0.000000
  4 -2.437624 41.937962 -58.698238 -0.069813 0.000000 0.000000
  5 0.000000 1.168598 -4.970127 -0.069997 0.000000 0.000000
  6 9.220942 -0.130177 -8.961014 -1.238418 0.000000 -0.000000
  7 -0.379086 1.692429 -29.479788 1.273380 0.000000 0.000000
  8 0.656837 1.037521 -26.387894 0.122503 -0.000000 -0.000000
  9 0.796035 -3.895223 -5.943375 0.000000 -0.000000 0.000000
 10 -8.723413 -0.130180 -8.521698 -0.157423 -0.000000 0.000000
 11 0.166782 1.548969 -27.726444 1.745711 -0.000000 -0.000001
 12 0.000000 1.206429 -28.919117 -1.343321 0.000001 0.000001
 13 -1.085475 -3.892345 -4.942657 0.000000 0.000000 0.000000
 14 0.000000 1.168602 2.657307 1.308483 0.004232 0.016932
 15 -8.954570 1.553310 24.605484 -1.013272 0.140621 0.267463
 16 -8.936445 1.467369 -13.460770 0.242589 0.119371 0.291702
 17 -9.770579 -1.352379 -17.449661 -0.465224 -0.137595 -0.687597
 18 16.530554 11.854733 75.269745 -0.313191 1.180172 2.992718
 19 1.300135 133.317978 -0.869983 0.000000 0.000000 0.000000
 20 77.487228 60.801094 -5.831360 0.000000 0.000000 0.000000
 21 77.487228 60.801094 -5.831360 0.000000 0.000000 0.000000
 22 -2.238321 -0.250927 -4.450386 0.000000 0.000000 0.000000
 23 10.123361 1.495613 24.706669 -1.169173 -0.205864 -0.006728
 24 8.006320 1.568890 -13.505573 -0.257180 0.551388 -0.300181
 25 9.805752 -2.482597 -17.476498 -0.289172 0.090866 0.172803
 26 2.398857 0.211819 -5.143604 0.000000 -0.000000 -0.000000
 27 0.245642 0.370159 40.559948 0.489498 -0.001275 0.006245
 28 -1.052363 9.458717 44.985718 0.204685 0.000000 0.000000
 29 -0.811214 18.686312 -11.304349 0.139929 0.000000 0.000000
 30 -0.733676 -0.815140 4.472873 0.000000 0.000000 0.000000
 31 0.183763 5.806843 18.321510 -0.006814 -0.000001 0.000197
 32 0.298744 -0.662754 9.236481 0.000000 -0.000000 -0.000000
time 23
  0 -2.437624 -1.142060 2.887016 0.000000 -0.000000 0.000000
  1 -2.437624 -1.142060 2.887016 0.000000 -0.000000 0.000000
  2 -2.437624 -1.142060 2.887016 0.000000 -0.000000 0.000000
  3 -4.744596 2.314000 171.985855 0.000000 -0.000000 0.000000
  4 -2.437624 42.183590 -64.840538 -0.069813 0.000000 0.000000
  5 0.000000 1.168602 -4.970119 -0.069997 0.000000 0.000000
  6 9.220942 -0.130180 -8.961002 -1.238418 0.000000 -0.000000
  7 -0.379086 1.692429 -29.479786 1.273380 0.000000 0.000000
  8 0.656837 1.037521 -26.387894 0.122503 -0.000000 -0.000000
  9 0.796035 -3.895223 -5.943375 -0.000000 0.000000 0.000000
 10 -8.723413 -0.130180 -8.521702 -0.157423 -0.000000 0.000000
 11 0.166782 1.548965 -27.726440 1.745711 -0.000000 -0.000001
 12 0.000000 1.206421 -28.919121 -1.343321 0.000001 0.000001
 13 -1.085475 -3.892353 -4.942657 0.000000 0.000000 0.000000
 14 0.000000 1.168602 2.657307 1.308483 0.004232 0.016932
 15 -8.954571 1.553310 24.605484 -1.013272 0.140621 0.267462
 16 -8.936445 1.467369 -13.460773 0.242589 0.119371 0.291702
 17 -9.770576 -1.352373 -17.449661 -0.465224 -0.137595 -0.687597
 18 17.640303 13.673555 83.262016 -0.313191 1.180172 2.992718
 19 1.300136 133.317993 -0.869984 0.000000 0.000000 0.000000
 20 77.487236 60.801109 -5.831362 0.000000 0.000000 0.000000
 21 77.487236 60.801109 -5.831362 0.000000 0.000000 0.000000
 22 -2.238323 -0.250925 -4.450386 0.000000 0.000000 0.000000
 23 10.123360 1.495609 24.706665 -1.169173 -0.205864 -0.006728
 24 8.006319 1.568893 -13.505573 -0.257180 0.551388 -0.300181
 25 9.805752 -2.482605 -17.476494 -0.289172 0.090866 0.172803
 26 2.398861 0.211823 -5.143608 -0.000000 0.000000 -0.000000
 27 0.245642 0.370159 40.559944 0.489498 -0.001275 0.006245
 28 -1.052362 9.458714 44.985725 0.204685 0.000000 0.000000
 29 -0.811214 18.686306 -11.304350 0.139929 0.000000 -0.000000
 30 -0.733676 -0.815144 4.472875 -0.000000 0.000000 -0.000000
 31 0.182454 5.782795 18.395546 -0.008843 -0.000000 0.000147
 32 0.298744 -0.662758 9.236481 -0.000000 -0.000000 -0.000000
time 24
  0 -2.437624 -1.142060 2.887016 0.000000 -0.000000 0.000000
  1 -2.437624 -1.142060 2.887016 0.000000 -0.000000 0.000000
  2 -2.437624 -1.142060 2.887016 0.000000 -0.000000 0.000000
  3 -4.744596 2.314000 171.985855 0.000000 -0.000000 0.000000
  4 -2.437624 42.384174 -70.433380 -0.069813 0.000000 0.000000
  5 0.000000 1.168602 -4.970116 -0.069997 0.000000 0.000000
  6 9.220942 -0.130177 -8.961006 -1.238418 0.000000 -0.000000
  7 -0.379085 1.692436 -29.479786 1.273380 0.000000 0.000000
  8 0.656837 1.037519 -26.387901 0.122503 -0.000000 -0.000000
  9 0.796035 -3.895224 -5.943382 -0.000000 -0.000000 0.000000
 10 -8.723413 -0.130180 -8.521690 -0.157423 -0.000000 0.000000
 11 0.166783 1.548958 -27.726440 1.745711 -0.000000 -0.000001
 12 0.000001 1.206421 -28.919121 -1.343321 0.000001 0.000001
 13 -1.085475 -3.892345 -4.942665 0.000000 0.000000 0.000000
 14 0.000000 1.168602 2.657310 1.308483 0.004232 0.016932
 15 -8.954571 1.553314 24.605484 -1.013272 0.140621 0.267462
 16 -8.936443 1.467370 -13.460773 0.242589 0.119371 0.291702
 17 -9.770573 -1.352373 -17.449661 -0.465224 -0.137595 -0.687597
 18 18.656071 15.369585 90.709785 -0.313191 1.180172 2.992718
 19 1.300136 133.317978 -0.869983 0.000000 0.000000 0.000000
 20 77.487244 60.801098 -5.831367 0.000000 0.000000 0.000000
 21 77.487244 60.801098 -5.831367 0.000000 0.000000 0.000000
 22 -2.238321 -0.250929 -4.450394 0.000000 0.000000 -0.000000
 23 10.123361 1.495613 24.706673 -1.169173 -0.205864 -0.006728
 24 8.006320 1.568886 -13.505577 -0.257180 0.551388 -0.300181
 25 9.805752 -2.482601 -17.476501 -0.289172 0.090866 0.172803
 26 2.398865 0.211823 -5.143597 0.000000 0.000000 -0.000000
 27 0.245642 0.370159 40.559952 0.489498 -0.001275 0.006245
 28 -1.052362 9.458717 44.985722 0.204685 0.000000 0.000000
 29 -0.811214 18.686306 -11.304348 0.139929 0.000000 0.000000
 30 -0.733676 -0.815144 4.472874 0.000000 0.000000 0.000000
 31 0.181268 5.761032 18.462570 -0.010716 0.000000 0.000095
 32 0.298744 -0.662754 9.236485 0.000000 -0.000000 -0.000000
time 25
  0 -2.437624 -1.142060 2.887016 0.000000 -0.000000 0.000000
  1 -2.437624 -1.142060 2.887016 0.000000 -0.000000 0.000000
  2 -2.437624 -1.142060 2.887016 0.000000 -0.000000 0.000000
  3 -4.744596 2.314000 171.985855 0.000000 -0.000000 0.000000
  4 -2.437624 42.543510 -75.393677 -0.069813 0.000000 0.000000
  5 0.000000 1.168598 -4.970123 -0.069997 0.000000 0.000000
  6 9.220941 -0.130180 -8.961021 -1.238418 0.000000 -0.000000
  7 -0.379086 1.692429 -29.479786 1.273380 0.000000 0.000000
  8 0.656837 1.037521 -26.387901 0.122503 -0.000000 -0.000000
  9 0.796035 -3.895223 -5.943367 -0.000000 -0.000000 0.000000
 10 -8.723413 -0.130180 -8.521698 -0.157423 -0.000000 0.000000
 11 0.166783 1.548965 -27.726440 1.745711 -0.000000 -0.000001
 12 0.000000 1.206421 -28.919125 -1.343321 0.000001 0.000001
 13 -1.085475 -3.892353 -4.942657 0.000000 0.000000 0.000000
 14 -0.000000 1.168602 2.657303 1.308483 0.004232 0.016932
 15 -8.954569 1.553307 24.605476 -1.013272 0.140621 0.267462
 16 -8.936445 1.467369 -13.460770 0.242589 0.119371 0.291702
 17 -9.770572 -1.352377 -17.449661 -0.465224 -0.137595 -0.687597
 18 19.561224 16.905924 97.452461 -0.313191 1.180172 2.992718
 19 1.300135 133.317978 -0.869983 0.000000 -0.000000 0.000000
 20 77.487228 60.801102 -5.831364 0.000000 -0.000000 0.000000
 21 77.487228 60.801102 -5.831364 0.000000 -0.000000 0.000000
 22 -2.238317 -0.250925 -4.450394 -0.000000 0.000000 -0.000000
 23 10.123360 1.495609 24.706665 -1.169173 -0.205864 -0.006728
 24 8.006318 1.568892 -13.505569 -0.257180 0.551388 -0.300181
 25 9.805748 -2.482601 -17.476494 -0.289172 0.090866 0.172803
 26 2.398857 0.211823 -5.143597 0.000000 0.000000 -0.000000
 27 0.245642 0.370159 40.559944 0.489498 -0.001275 0.006245
 28 -1.052362 9.458717 44.985722 0.204685 0.000000 0.000000
 29 -0.811214 18.686306 -11.304349 0.139929 0.000000 0.000000
 30 -0.733676 -0.815140 4.472875 -0.000000 0.000000 -0.000000
 31 0.180223 5.741837 18.521683 -0.012411 0.000001 0.000038
 32 0.298744 -0.662762 9.236481 -0.000000 0.000000 0.000000
time 26
  0 -2.437624 -1.142060 2.887016 0.000000 -0.000000 0.000000
  1 -2.437624 -1.142060 2.887016 0.000000 -0.000000 0.000000
  2 -2.437624 -1.142060 2.887016 0.000000 -0.000000 0.000000
  3 -4.744596 2.314000 171.985855 0.000000 -0.000000 0.000000
  4 -2.437624 42.665379 -79.638374 -0.069813 0.000000 0.000000
  5 0.000000 1.168602 -4.970116 -0.069997 0.000000 0.000000
  6 9.220941 -0.130184 -8.961006 -1.238418 0.000000 -0.000000
  7 -0.379085 1.692429 -29.479788 1.273380 0.000000 0.000000
  8 0.656837 1.037521 -26.387901 0.122503 -0.000000 -0.000000
  9 0.796035 -3.895223 -5.943359 -0.000000 -0.000000 0.000000
 10 -8.723413 -0.130180 -8.521690 -0.157423 -0.000000 0.000000
 11 0.166783 1.548965 -27.726448 1.745711 -0.000000 -0.000001
 12 0.000001 1.206429 -28.919117 -1.343321 0.000001 0.000001
 13 -1.085475 -3.892353 -4.942665 0.000000 0.000000 0.000000
 14 0.000000 1.168602 2.657310 1.308483 0.004232 0.016932
 15 -8.954569 1.553314 24.605484 -1.013272 0.140621 0.267462
 16 -8.936445 1.467371 -13.460770 0.242589 0.119370 0.291702
 17 -9.770576 -1.352379 -17.449669 -0.465224 -0.137595 -0.687597
 18 20.339121 18.245665 103.329391 -0.313191 1.180172 2.992718
 19 1.300135 133.317993 -0.869983 -0.000000 0.000000 -0.000000
 20 77.487251 60.801109 -5.831365 -0.000000 0.000000 -0.000000
 21 77.487251 60.801109 -5.831365 -0.000000 0.000000 -0.000000
 22 -2.238321 -0.250925 -4.450394 -0.000000 -0.000000 -0.000000
 23 10.123358 1.495617 24.706665 -1.169173 -0.205864 -0.006728
 24 8.006322 1.568892 -13.505577 -0.257180 0.551388 -0.300180
 25 9.805748 -2.482605 -17.476486 -0.289172 0.090866 0.172803
 26 2.398857 0.211823 -5.143608 -0.000000 -0.000000 -0.000000
 27 0.245642 0.370163 40.559944 0.489498 -0.001275 0.006245
 28 -1.052362 9.458717 44.985710 0.204685 0.000000 0.000000
 29 -0.811214 18.686310 -11.304348 0.139929 0.000000 0.000000
 30 -0.733676 -0.815140 4.472873 -0.000000 0.000000 0.000000
 31 0.179332 5.725494 18.572021 -0.013907 0.000002 -0.000022
 32 0.298744 -0.662754 9.236481 0.000000 -0.000000 -0.000000
time 27
  0 -2.437624 -1.142060 2.887016 0.000000 -0.000000 0.000000
  1 -2.437624 -1.142060 2.887016 0.000000 -0.000000 0.000000
  2 -2.437624 -1.142060 2.887016 0.000000 -0.000000 0.000000
  3 -4.744596 2.314000 171.985855 0.000000 -0.000000 0.000000
  4 -2.437624 42.753574 -83.084396 -0.069813 0.000000 0.000000
  5 0.000000 1.168602 -4.970116 -0.069997 0.000000 0.000000
  6 9.220941 -0.130180 -8.961021 -1.238418 0.000000 -0.000000
  7 -0.379085 1.692429 -29.479784 1.273380 0.000000 0.000000
  8 0.656837 1.037519 -26.387901 0.122503 -0.000000 -0.000000
  9 0.796035 -3.895223 -5.943375 0.000000 -0.000000 0.000000
 10 -8.723413 -0.130180 -8.521706 -0.157423 -0.000000 0.000000
 11 0.166783 1.548965 -27.726440 1.745711 -0.000000 -0.000001
 12 0.000000 1.206429 -28.919121 -1.343321 0.000001 0.000001
 13 -1.085475 -3.892353 -4.942657 0.000000 0.000000 0.000000
 14 0.000000 1.168602 2.657303 1.308483 0.004232 0.016932
 15 -8.954570 1.553307 24.605484 -1.013272 0.140621 0.267462
 16 -8.936445 1.467370 -13.460762 0.242589 0.119371 0.291702
 17 -9.770576 -1.352377 -17.449661 -0.465224 -0.137595 -0.687597
 18 20.973122 19.351902 108.179932 -0.313191 1.180172 2.992718
 19 1.300135 133.317993 -0.869984 0.000000 0.000000 0.000000
 20 77.487259 60.801109 -5.831366 0.000000 0.000000 0.000000
 21 77.487259 60.801109 -5.831366 0.000000 0.000000 0.000000
 22 -2.238327 -0.250931 -4.450386 -0.000000 -0.000000 -0.000000
 23 10.123360 1.495605 24.706669 -1.169173 -0.205864 -0.006728
 24 8.006321 1.568892 -13.505577 -0.257180 0.551388 -0.300181
 25 9.805752 -2.482605 -17.476494 -0.289172 0.090866 0.172803
 26 2.398865 0.211823 -5.143608 0.000000 0.000000 -0.000000
 27 0.245642 0.370159 40.559952 0.489498 -0.001275 0.006245
 28 -1.052362 9.458710 44.985718 0.204685 0.000000 0.000000
 29 -0.811214 18.686306 -11.304351 0.139929 0.000000 -0.000000
 30 -0.733676 -0.815140 4.472874 -0.000000 0.000000 -0.000000
 31 0.178613 5.712280 18.612701 -0.015183 0.000002 -0.000087
 32 0.298744 -0.662766 9.236481 -0.000000 -0.000000 -0.000000
time 28
  0 -2.437624 -1.142060 2.887016 0.000000 -0.000000 0.000000
  1 -2.437624 -1.142060 2.887016 0.000000 -0.000000 0.000000
  2 -2.437624 -1.142060 2.887016 0.000000 -0.000000 0.000000
  3 -4.744596 2.314000 171.985855 0.000000 -0.000000 0.000000
  4 -2.437624 42.811882 -85.648689 -0.069813 0.000000 0.000000
  5 0.000000 1.168602 -4.970123 -0.069997 0.000000 0.000000
  6 9.220941 -0.130180 -8.961014 -1.238418 0.000000 -0.000000
  7 -0.379085 1.692436 -29.479788 1.273380 0.000000 0.000000
  8 0.656837 1.037521 -26.387894 0.122503 -0.000000 -0.000000
  9 0.796035 -3.895224 -5.943375 0.000000 -0.000000 0.000000
 10 -8.723413 -0.130180 -8.521698 -0.157423 -0.000000 0.000000
 11 0.166783 1.548965 -27.726433 1.745711 -0.000000 -0.000001
 12 0.000001 1.206421 -28.919125 -1.343321 0.000001 0.000001
 13 -1.085475 -3.892349 -4.942657 0.000000 0.000000 0.000000
 14 0.000000 1.168602 2.657303 1.308483 0.004232 0.016932
 15 -8.954570 1.553314 24.605480 -1.013272 0.140621 0.267462
 16 -8.936445 1.467369 -13.460770 0.242589 0.119371 0.291702
 17 -9.770576 -1.352379 -17.449661 -0.465224 -0.137595 -0.687597
 18 21.446571 20.187756 111.843491 -0.313191 1.180172 2.992718
 19 1.300135 133.317963 -0.869983 0.000000 0.000000 0.000000
 20 77.487236 60.801098 -5.831361 0.000000 0.000000 0.000000
 21 77.487236 60.801098 -5.831361 0.000000 0.000000 0.000000
 22 -2.238325 -0.250927 -4.450386 -0.000000 -0.000000 -0.000000
 23 10.123359 1.495613 24.706665 -1.169173 -0.205864 -0.006728
 24 8.006323 1.568888 -13.505577 -0.257180 0.551388 -0.300181
 25 9.805752 -2.482597 -17.476494 -0.289172 0.090866 0.172803
 26 2.398865 0.211826 -5.143608 0.000000 0.000000 0.000000
 27 0.245642 0.370163 40.559944 0.489498 -0.001275 0.006245
 28 -1.052362 9.458721 44.985722 0.204685 0.000000 0.000000
 29 -0.811214 18.686314 -11.304350 0.139929 0.000000 0.000000
 30 -0.733676 -0.815140 4.472873 -0.000000 0.000000 0.000000
 31 0.178080 5.702496 18.642845 -0.016217 0.000003 -0.000155
 32 0.298744 -0.662750 9.236481 -0.000000 -0.000000 -0.000000
time 29
  0 -2.437624 -1.142060 2.887016 0.000000 -0.000000 0.000000
  1 -2.437624 -1.142060 2.887016 0.000000 -0.000000 0.000000
  2 -2.437624 -1.142060 2.887016 0.000000 -0.000000 0.000000
  3 -4.744596 2.314000 171.985855 0.000000 -0.000000 0.000000
  4 -2.437624 42.844086 -87.248184 -0.069813 0.000000 0.000000
  5 0.000000 1.168602 -4.970116 -0.069997 0.000000 0.000000
  6 9.220942 -0.130177 -8.961014 -1.238418 0.000000 -0.000000
  7 -0.379086 1.692429 -29.479784 1.273380 0.000000 0.000000
  8 0.656837 1.037521 -26.387901 0.122503 -0.000000 -0.000000
  9 0.796035 -3.895223 -5.943375 0.000000 -0.000000 0.000000
 10 -8.723413 -0.130180 -8.521698 -0.157423 -0.000000 0.000000
 11 0.166783 1.548965 -27.726440 1.745711 -0.000000 -0.000001
 12 0.000001 1.206429 -28.919117 -1.343321 0.000001 0.000001
 13 -1.085474 -3.892349 -4.942673 0.000000 0.000000 0.000000
 14 0.000000 1.168602 2.657310 1.308483 0.004232 0.016932
 15 -8.954569 1.553307 24.605480 -1.013272 0.140621 0.267462
 16 -8.936443 1.467370 -13.460770 0.242589 0.119370 0.291702
 17 -9.770573 -1.352379 -17.449661 -0.465224 -0.137595 -0.687597
 18 21.742855 20.716328 114.159409 -0.313191 1.180172 2.992718
 19 1.300135 133.317993 -0.869984 -0.000000 0.000000 0.000000
 20 77.487259 60.801109 -5.831364 -0.000000 0.000000 0.000000
 21 77.487259 60.801109 -5.831364 -0.000000 0.000000 0.000000
 22 -2.238319 -0.250931 -4.450394 -0.000000 0.000000 -0.000000
 23 10.123360 1.495605 24.706665 -1.169173 -0.205864 -0.006728
 24 8.006321 1.568890 -13.505585 -0.257180 0.551388 -0.300181
 25 9.805752 -2.482597 -17.476494 -0.289172 0.090866 0.172803
 26 2.398857 0.211819 -5.143608 -0.000000 0.000000 -0.000000
 27 0.245642 0.370155 40.559944 0.489498 -0.001275 0.006245
 28 -1.052362 9.458714 44.985722 0.204685 0.000000 0.000000
 29 -0.811214 18.686310 -11.304350 0.139929 0.000000 0.000000
 30 -0.733676 -0.815147 4.472874 0.000000 0.000000 -0.000000
 31 0.177748 5.696407 18.661575 -0.016990 0.000003 -0.000228
 32 0.298744 -0.662766 9.236481 -0.000000 0.000000 0.000000
time 30
  0 -2.437624 -1.142060 2.887016 0.000000 -0.000000 0.000000
  1 -2.437624 -1.142060 2.887016 0.000000 -0.000000 0.000000
  2 -2.437624 -1.142060 2.887016 0.000000 -0.000000 0.000000
  3 -4.744596 2.314000 171.985855 0.000000 -0.000000 0.000000
  4 -2.437624 42.853981 -87.799805 -0.069813 0.000000 0.000000
  5 0.000000 1.168602 -4.970123 -0.069997 0.000000 0.000000
  6 9.220941 -0.130184 -8.961014 -1.238418 0.000000 -0.000000
  7 -0.379086 1.692436 -29.479784 1.273380 0.000000 0.000000
  8 0.656837 1.037521 -26.387894 0.122503 -0.000000 -0.000000
  9 0.796035 -3.895223 -5.943375 0.000000 -0.000000 0.000000
 10 -8.723413 -0.130180 -8.521698 -0.157423 -0.000000 0.000000
 11 0.166783 1.548965 -27.726440 1.745711 -0.000000 -0.000001
 12 0.000000 1.206421 -28.919125 -1.343321 0.000001 0.000001
 13 -1.085475 -3.892353 -4.942657 0.000000 0.000000 0.000000
 14 0.000000 1.168598 2.657310 1.308483 0.004232 0.016932
 15 -8.954571 1.553314 24.605492 -1.013272 0.140621 0.267462
 16 -8.936443 1.467368 -13.460770 0.242589 0.119371 0.291702
 17 -9.770578 -1.352379 -17.449654 -0.465224 -0.137595 -0.687597
 18 21.845314 20.900726 114.967102 -0.313191 1.180172 2.992718
 19 1.300135 133.317993 -0.869983 -0.000000 0.000000 -0.000000
 20 77.487251 60.801109 -5.831364 -0.000000 0.000000 -0.000000
 21 77.487251 60.801109 -5.831364 -0.000000 0.000000 -0.000000
 22 -2.238323 -0.250927 -4.450386 -0.000000 -0.000000 -0.000000
 23 10.123362 1.495613 24.706673 -1.169173 -0.205864 -0.006728
 24 8.006319 1.568890 -13.505577 -0.257180 0.551388 -0.300181
 25 9.805752 -2.482601 -17.476494 -0.289172 0.090866 0.172803
 26 2.398857 0.211823 -5.143608 0.000000 0.000000 0.000000
 27 0.245642 0.370163 40.559952 0.489498 -0.001275 0.006245
 28 -1.052362 9.458717 44.985725 0.204685 0.000000 0.000000
 29 -0.811214 18.686306 -11.304352 0.139929 0.000000 0.000000
 30 -0.733676 -0.815140 4.472876 -0.000000 0.000000 0.000000
 31 0.177635 5.694324 18.668022 -0.017480 0.000003 -0.000305
 32 0.298744 -0.662758 9.236488 -0.000000 -0.000000 -0.000000
end
