version 1
nodes
  0 "bone34"  -1
  1 "bone31"  -1
  2 "bone17"  -1
  3 "bone16"   2
  4 "bone12"   3
  5 "bone13"   4
  6 "bone15"   5
  7 "bone19"   6
  8 "bone05"   3
  9 "bone18"   8
 10 "bone14"   9
 11 "bone20"  10
 12 "bone02"   2
 13 "bone01"  12
 14 "bone03"  13
 15 "bone10"  14
 16 "bone08"  15
 17 "bone22"  16
 18 "bone23"  16
 19 "bone25"  15
 20 "bone09"  12
 21 "bone04"  20
 22 "bone07"  21
 23 "bone26"  22
 24 "bone06"  12
 25 "bone27"  24
 26 "bone28"  12
end
skeleton
time 0
  0 -5.113562 -3.392895 0.796835 0.000000 -0.000000 0.000000
  1 -7.310884 -0.101110 174.348495 0.000000 -0.000000 0.000000
  2 -5.113562 -3.392895 79.577438 0.052360 -0.000000 0.000000
  3 0.325039 1.113430 -5.098999 -0.001867 0.000000 -0.000000
  4 6.206746 -0.124160 -11.733646 -0.436333 -0.000000 0.000000
  5 2.376919 1.428907 -19.463909 0.418879 0.000000 0.000000
  6 1.646507 1.612119 -34.692955 -0.003636 0.000000 -0.000000
  7 0.219322 -4.030298 -4.600570 0.000000 -0.000000 0.000000
  8 -6.833118 -0.124160 -11.733646 -0.440708 0.142515 -0.418574
  9 -2.998627 1.160219 -19.583820 0.346467 -0.175621 0.104926
 10 -1.356796 1.880806 -34.573051 0.097549 0.155153 -0.039225
 11 -0.258572 -4.030297 -4.908826 0.000000 -0.000000 0.000000
 12 0.325039 1.113430 0.809021 -0.052232 0.003652 0.069720
 13 7.054490 1.815096 15.713699 0.048885 -0.072318 -0.664994
 14 12.909765 -0.165815 -12.867271 0.032060 -0.047385 -0.001392
 15 11.504255 -9.735163 -11.778580 -0.114160 0.138026 -0.699164
 16 -4.990944 -20.855865 -11.972137 0.107342 -0.124349 -0.503130
 17 1.952644 -90.186760 -0.924713 0.000000 -0.000000 0.000000
 18 -35.001938 9.597219 -70.247452 0.000000 -0.000000 0.000000
 19 3.759453 -1.898643 -3.541321 0.000000 -0.000000 0.000000
 20 -7.698014 1.934285 15.877945 -0.431614 -0.136398 -0.316946
 21 -12.721177 -0.083347 -12.838242 0.350879 -0.485336 0.230535
 22 -9.167507 -10.101490 -11.648888 0.579793 0.809829 1.024413
 23 -3.642082 -2.032095 -4.543636 0.000000 -0.000000 0.000000
 24 -0.409780 2.428935 22.341385 -0.000001 0.000000 -0.122176
 25 -0.380095 -2.887195 20.845367 0.000000 -0.000000 0.000000
 26 -0.040494 -0.674471 8.862854 0.000000 -0.000000 0.000000
time 1
  0 -5.113562 -3.392895 0.796835 0.000000 -0.000000 0.000000
  1 -7.310884 -0.101110 174.348495 0.000000 -0.000000 0.000000
  2 -5.113562 -3.458048 79.577438 0.055830 0.000000 0.000000
  3 0.325039 1.113430 -5.098999 -0.001867 0.000000 0.000000
  4 6.206746 -0.124160 -11.733643 -0.436320 -0.000120 -0.001350
  5 2.376919 1.428907 -19.463913 0.418879 0.000000 -0.000000
  6 1.646508 1.612118 -34.692955 -0.003637 0.000000 0.000000
  7 0.219321 -4.030297 -4.600570 0.000000 -0.000000 0.000000
  8 -6.833118 -0.124160 -11.733643 -0.442410 0.148728 -0.408989
  9 -2.998629 1.160223 -19.583828 0.346467 -0.175621 0.104926
 10 -1.356791 1.880803 -34.573055 0.097549 0.155153 -0.039225
 11 -0.258572 -4.030297 -4.908826 0.000000 -0.000000 0.000000
 12 0.325039 1.114117 0.822128 -0.052232 0.003652 0.069720
 13 7.054490 1.815096 15.713707 0.047383 -0.070095 -0.664983
 14 12.909766 -0.165816 -12.867264 0.034154 -0.050479 -0.001483
 15 11.504265 -9.735165 -11.778580 -0.114160 0.138026 -0.699164
 16 -4.990950 -20.855865 -11.972137 0.107342 -0.124349 -0.503130
 17 1.952633 -90.186768 -0.924717 0.000000 -0.000000 0.000000
 18 -35.001934 9.597214 -70.247459 0.000000 -0.000000 0.000000
 19 3.759451 -1.898642 -3.541321 0.000000 -0.000000 0.000000
 20 -7.698013 1.934285 15.877953 -0.431394 -0.143594 -0.317570
 21 -12.721180 -0.083347 -12.838249 0.351310 -0.483580 0.240305
 22 -9.167507 -10.101490 -11.648895 0.579793 0.809829 1.024414
 23 -3.642086 -2.032093 -4.543636 0.000000 -0.000000 0.000000
 24 -0.409780 2.428935 22.341393 0.001653 0.000087 -0.122168
 25 -0.380096 -2.887195 20.845367 0.000000 -0.000000 0.000000
 26 -0.040494 -0.674471 8.862862 0.000000 -0.000000 0.000000
time 2
  0 -5.113562 -3.392895 0.796835 0.000000 -0.000000 0.000000
  1 -7.310884 -0.101110 174.348495 0.000000 -0.000000 0.000000
  2 -5.113562 -3.642617 79.577438 0.059576 0.000000 -0.000000
  3 0.325039 1.113430 -5.098999 -0.001868 0.000000 -0.000000
  4 6.206746 -0.124160 -11.733646 -0.436284 -0.000464 -0.005226
  5 2.376919 1.428905 -19.463913 0.418879 0.000000 0.000000
  6 1.646508 1.612117 -34.692959 -0.003637 0.000000 -0.000000
  7 0.219322 -4.030297 -4.600570 0.000000 -0.000000 0.000000
  8 -6.833118 -0.124160 -11.733646 -0.443800 0.153817 -0.383115
  9 -2.998627 1.160221 -19.583824 0.346467 -0.175621 0.104926
 10 -1.356792 1.880804 -34.573055 0.097549 0.155153 -0.039225
 11 -0.258572 -4.030297 -4.908826 0.000000 -0.000000 0.000000
 12 0.325039 1.116060 0.859207 -0.052232 0.003652 0.069720
 13 7.054491 1.815096 15.713699 0.043203 -0.063909 -0.664953
 14 12.909765 -0.165816 -12.867256 0.036413 -0.053818 -0.001581
 15 11.504261 -9.735165 -11.778572 -0.114160 0.138026 -0.699164
 16 -4.990946 -20.855862 -11.972141 0.107342 -0.124349 -0.503130
 17 1.952627 -90.186775 -0.924717 0.000000 -0.000000 0.000000
 18 -35.001930 9.597211 -70.247444 0.000000 -0.000000 0.000000
 19 3.759453 -1.898642 -3.541321 0.000000 -0.000000 0.000000
 20 -7.698014 1.934285 15.877945 -0.430764 -0.150963 -0.318140
 21 -12.721181 -0.083347 -12.838234 0.351709 -0.478560 0.249789
 22 -9.167507 -10.101487 -11.648888 0.579793 0.809829 1.024413
 23 -3.642082 -2.032094 -4.543640 0.000000 -0.000000 0.000000
 24 -0.409780 2.428935 22.341385 0.006352 0.000332 -0.122147
 25 -0.380096 -2.887195 20.845360 0.000000 -0.000000 0.000000
 26 -0.040494 -0.674471 8.862862 0.000000 -0.000000 0.000000
time 3
  0 -5.113562 -3.392895 0.796835 0.000000 -0.000000 0.000000
  1 -7.310884 -0.101110 174.348495 0.000000 -0.000000 0.000000
  2 -5.113562 -3.930274 79.577438 0.063532 0.000000 0.000000
  3 0.325039 1.113430 -5.098999 -0.001868 0.000000 -0.000000
  4 6.206746 -0.124160 -11.733654 -0.436227 -0.001008 -0.011363
  5 2.376919 1.428907 -19.463917 0.418879 0.000000 0.000000
  6 1.646507 1.612118 -34.692955 -0.003638 0.000000 -0.000000
  7 0.219323 -4.030298 -4.600570 0.000000 -0.000000 0.000000
  8 -6.833118 -0.124160 -11.733654 -0.444910 0.157889 -0.345279
  9 -2.998627 1.160223 -19.583824 0.346467 -0.175621 0.104926
 10 -1.356792 1.880805 -34.573059 0.097549 0.155153 -0.039225
 11 -0.258568 -4.030298 -4.908827 0.000000 -0.000000 0.000000
 12 0.325039 1.119084 0.916901 -0.052232 0.003652 0.069720
 13 7.054491 1.815096 15.713699 0.036836 -0.054487 -0.664906
 14 12.909767 -0.165816 -12.867264 0.038788 -0.057329 -0.001684
 15 11.504259 -9.735168 -11.778580 -0.114160 0.138026 -0.699164
 16 -4.990937 -20.855860 -11.972141 0.107342 -0.124349 -0.503130
 17 1.952654 -90.186745 -0.924713 0.000000 -0.000000 0.000000
 18 -35.001942 9.597223 -70.247452 0.000000 -0.000000 0.000000
 19 3.759455 -1.898643 -3.541328 0.000000 -0.000000 0.000000
 20 -7.698015 1.934285 15.877945 -0.429775 -0.158438 -0.318660
 21 -12.721182 -0.083347 -12.838242 0.352075 -0.470643 0.258964
 22 -9.167503 -10.101490 -11.648895 0.579793 0.809829 1.024414
 23 -3.642090 -2.032095 -4.543640 0.000000 -0.000000 0.000000
 24 -0.409780 2.428935 22.341385 0.013701 0.000715 -0.122113
 25 -0.380095 -2.887195 20.845367 0.000000 -0.000000 0.000000
 26 -0.040494 -0.674471 8.862854 0.000000 -0.000000 0.000000
time 4
  0 -5.113562 -3.392895 0.796835 0.000000 -0.000000 0.000000
  1 -7.310884 -0.101110 174.348495 0.000000 -0.000000 0.000000
  2 -5.113562 -4.304686 79.577438 0.067633 0.000000 0.000000
  3 0.325039 1.113430 -5.098999 -0.001868 0.000000 -0.000000
  4 6.206746 -0.124160 -11.733650 -0.436152 -0.001729 -0.019500
  5 2.376919 1.428907 -19.463909 0.418879 0.000000 0.000000
  6 1.646507 1.612121 -34.692955 -0.003638 0.000000 -0.000000
  7 0.219323 -4.030297 -4.600569 0.000000 -0.000000 0.000000
  8 -6.833118 -0.124160 -11.733650 -0.445769 0.161053 -0.299806
  9 -2.998627 1.160223 -19.583824 0.346467 -0.175621 0.104926
 10 -1.356792 1.880806 -34.573051 0.097549 0.155153 -0.039225
 11 -0.258568 -4.030296 -4.908827 0.000000 -0.000000 0.000000
 12 0.325039 1.123010 0.991798 -0.052232 0.003652 0.069720
 13 7.054490 1.815096 15.713699 0.028774 -0.042555 -0.664848
 14 12.909765 -0.165817 -12.867264 0.041232 -0.060941 -0.001791
 15 11.504261 -9.735168 -11.778580 -0.114160 0.138026 -0.699164
 16 -4.990943 -20.855862 -11.972137 0.107342 -0.124349 -0.503130
 17 1.952633 -90.186760 -0.924713 0.000000 -0.000000 0.000000
 18 -35.001930 9.597213 -70.247444 0.000000 -0.000000 0.000000
 19 3.759453 -1.898643 -3.541321 0.000000 -0.000000 0.000000
 20 -7.698012 1.934285 15.877945 -0.428475 -0.165952 -0.319132
 21 -12.721177 -0.083347 -12.838249 0.352410 -0.460198 0.267804
 22 -9.167501 -10.101494 -11.648888 0.579793 0.809829 1.024413
 23 -3.642086 -2.032095 -4.543640 0.000000 -0.000000 0.000000
 24 -0.409780 2.428936 22.341393 0.023306 0.001216 -0.122070
 25 -0.380096 -2.887195 20.845367 0.000000 -0.000000 0.000000
 26 -0.040494 -0.674471 8.862854 0.000000 -0.000000 0.000000
time 5
  0 -5.113562 -3.392895 0.796835 0.000000 -0.000000 0.000000
  1 -7.310884 -0.101110 174.348495 0.000000 -0.000000 0.000000
  2 -5.113562 -4.749525 79.577438 0.071815 0.000000 0.000000
  3 0.325039 1.113429 -5.098999 -0.001868 0.000000 0.000000
  4 6.206746 -0.124160 -11.733643 -0.436060 -0.002604 -0.029372
  5 2.376919 1.428907 -19.463913 0.418879 0.000000 0.000000
  6 1.646507 1.612117 -34.692963 -0.003639 0.000000 0.000000
  7 0.219322 -4.030297 -4.600570 0.000000 -0.000000 0.000000
  8 -6.833118 -0.124160 -11.733643 -0.446410 0.163420 -0.251021
  9 -2.998631 1.160221 -19.583828 0.346467 -0.175621 0.104926
 10 -1.356794 1.880807 -34.573059 0.097549 0.155153 -0.039225
 11 -0.258570 -4.030297 -4.908827 0.000000 -0.000000 0.000000
 12 0.325039 1.127662 1.080574 -0.052232 0.003652 0.069720
 13 7.054490 1.815096 15.713692 0.019507 -0.028842 -0.664781
 14 12.909768 -0.165816 -12.867264 0.043695 -0.064581 -0.001898
 15 11.504261 -9.735165 -11.778580 -0.114160 0.138026 -0.699164
 16 -4.990948 -20.855862 -11.972137 0.107342 -0.124349 -0.503130
 17 1.952635 -90.186768 -0.924709 0.000000 -0.000000 0.000000
 18 -35.001934 9.597218 -70.247452 0.000000 -0.000000 0.000000
 19 3.759453 -1.898643 -3.541321 0.000000 -0.000000 0.000000
 20 -7.698012 1.934285 15.877945 -0.426915 -0.173438 -0.319557
 21 -12.721179 -0.083347 -12.838242 0.352716 -0.447594 0.276286
 22 -9.167511 -10.101492 -11.648888 0.579793 0.809829 1.024413
 23 -3.642082 -2.032093 -4.543644 0.000000 -0.000000 0.000000
 24 -0.409780 2.428936 22.341377 0.034773 0.001814 -0.122017
 25 -0.380095 -2.887195 20.845367 0.000000 -0.000000 0.000000
 26 -0.040494 -0.674471 8.862854 0.000000 -0.000000 0.000000
time 6
  0 -5.113562 -3.392895 0.796835 0.000000 -0.000000 0.000000
  1 -7.310884 -0.101110 174.348495 0.000000 -0.000000 0.000000
  2 -5.113562 -5.248458 79.577438 0.076012 0.000000 0.000000
  3 0.325039 1.113430 -5.098991 -0.001868 0.000000 0.000000
  4 6.206746 -0.124160 -11.733646 -0.435955 -0.003610 -0.040717
  5 2.376919 1.428905 -19.463913 0.418879 0.000000 0.000000
  6 1.646508 1.612118 -34.692959 -0.003639 0.000000 -0.000000
  7 0.219322 -4.030297 -4.600569 0.000000 -0.000000 0.000000
  8 -6.833118 -0.124160 -11.733646 -0.446862 0.165098 -0.203250
  9 -2.998629 1.160223 -19.583824 0.346467 -0.175621 0.104926
 10 -1.356791 1.880805 -34.573059 0.097549 0.155153 -0.039225
 11 -0.258570 -4.030297 -4.908827 0.000000 -0.000000 0.000000
 12 0.325039 1.132864 1.179832 -0.052232 0.003652 0.069720
 13 7.054490 1.815096 15.713707 0.009527 -0.014072 -0.664708
 14 12.909765 -0.165813 -12.867256 0.046128 -0.068177 -0.002003
 15 11.504259 -9.735165 -11.778580 -0.114160 0.138026 -0.699164
 16 -4.990940 -20.855862 -11.972130 0.107342 -0.124349 -0.503130
 17 1.952650 -90.186752 -0.924709 0.000000 -0.000000 0.000000
 18 -35.001934 9.597223 -70.247444 0.000000 -0.000000 0.000000
 19 3.759453 -1.898643 -3.541313 0.000000 -0.000000 0.000000
 20 -7.698013 1.934285 15.877945 -0.425144 -0.180829 -0.319938
 21 -12.721177 -0.083347 -12.838249 0.352993 -0.433199 0.284385
 22 -9.167507 -10.101492 -11.648903 0.579793 0.809829 1.024413
 23 -3.642086 -2.032096 -4.543636 0.000000 -0.000000 0.000000
 24 -0.409780 2.428935 22.341385 0.047706 0.002488 -0.121958
 25 -0.380096 -2.887196 20.845367 0.000000 -0.000000 0.000000
 26 -0.040494 -0.674471 8.862854 0.000000 -0.000000 0.000000
time 7
  0 -5.113562 -3.392895 0.796835 0.000000 -0.000000 0.000000
  1 -7.310884 -0.101110 174.348495 0.000000 -0.000000 0.000000
  2 -5.113562 -5.785156 79.577438 0.080160 0.000000 0.000000
  3 0.325039 1.113430 -5.098999 -0.001868 0.000000 -0.000000
  4 6.206746 -0.124160 -11.733654 -0.435838 -0.004722 -0.053271
  5 2.376919 1.428907 -19.463917 0.418879 0.000000 -0.000000
  6 1.646508 1.612118 -34.692959 -0.003640 0.000000 -0.000000
  7 0.219322 -4.030299 -4.600571 0.000000 -0.000000 0.000000
  8 -6.833118 -0.124160 -11.733650 -0.447155 0.166195 -0.160818
  9 -2.998631 1.160223 -19.583824 0.346467 -0.175621 0.104926
 10 -1.356794 1.880805 -34.573051 0.097549 0.155153 -0.039225
 11 -0.258568 -4.030298 -4.908827 0.000000 -0.000000 0.000000
 12 0.325039 1.138438 1.286194 -0.052232 0.003652 0.069720
 13 7.054490 1.815096 15.713692 -0.000676 0.001027 -0.664635
 14 12.909767 -0.165814 -12.867256 0.048482 -0.071657 -0.002105
 15 11.504257 -9.735167 -11.778580 -0.114160 0.138026 -0.699164
 16 -4.990943 -20.855862 -11.972137 0.107342 -0.124349 -0.503130
 17 1.952629 -90.186760 -0.924717 0.000000 -0.000000 0.000000
 18 -35.001930 9.597212 -70.247452 0.000000 -0.000000 0.000000
 19 3.759457 -1.898640 -3.541321 0.000000 -0.000000 0.000000
 20 -7.698013 1.934284 15.877945 -0.423210 -0.188058 -0.320278
 21 -12.721176 -0.083344 -12.838242 0.353243 -0.417382 0.292076
 22 -9.167505 -10.101495 -11.648895 0.579793 0.809829 1.024414
 23 -3.642082 -2.032096 -4.543640 0.000000 -0.000000 0.000000
 24 -0.409780 2.428935 22.341385 0.061712 0.003218 -0.121895
 25 -0.380096 -2.887196 20.845367 0.000000 -0.000000 0.000000
 26 -0.040494 -0.674471 8.862846 0.000000 -0.000000 0.000000
time 8
  0 -5.113562 -3.392895 0.796835 0.000000 -0.000000 0.000000
  1 -7.310884 -0.101110 174.348495 0.000000 -0.000000 0.000000
  2 -5.113562 -6.343287 79.577438 0.084194 0.000000 0.000000
  3 0.325039 1.113430 -5.098999 -0.001868 0.000000 -0.000000
  4 6.206746 -0.124161 -11.733646 -0.435713 -0.005919 -0.066771
  5 2.376919 1.428905 -19.463917 0.418879 0.000000 -0.000000
  6 1.646507 1.612119 -34.692955 -0.003640 0.000000 -0.000000
  7 0.219322 -4.030298 -4.600570 0.000000 -0.000000 0.000000
  8 -6.833118 -0.124161 -11.733646 -0.447322 0.166821 -0.128050
  9 -2.998629 1.160221 -19.583824 0.346467 -0.175621 0.104926
 10 -1.356794 1.880808 -34.573059 0.097549 0.155153 -0.039225
 11 -0.258570 -4.030297 -4.908827 0.000000 -0.000000 0.000000
 12 0.325038 1.144208 1.396294 -0.052232 0.003652 0.069720
 13 7.054490 1.815096 15.713699 -0.010610 0.015729 -0.664563
 14 12.909767 -0.165814 -12.867271 0.050709 -0.074948 -0.002202
 15 11.504259 -9.735163 -11.778580 -0.114160 0.138026 -0.699164
 16 -4.990944 -20.855862 -11.972141 0.107342 -0.124349 -0.503130
 17 1.952635 -90.186768 -0.924713 0.000000 -0.000000 0.000000
 18 -35.001930 9.597217 -70.247452 0.000000 -0.000000 0.000000
 19 3.759451 -1.898643 -3.541321 0.000000 -0.000000 0.000000
 20 -7.698013 1.934285 15.877945 -0.421164 -0.195057 -0.320577
 21 -12.721180 -0.083347 -12.838249 0.353467 -0.400511 0.299335
 22 -9.167509 -10.101492 -11.648895 0.579793 0.809829 1.024414
 23 -3.642082 -2.032094 -4.543644 0.000000 -0.000000 0.000000
 24 -0.409780 2.428935 22.341377 0.076396 0.003984 -0.121828
 25 -0.380095 -2.887196 20.845367 0.000000 -0.000000 0.000000
 26 -0.040494 -0.674471 8.862854 0.000000 -0.000000 0.000000
time 9
  0 -5.113562 -3.392895 0.796835 0.000000 -0.000000 0.000000
  1 -7.310884 -0.101110 174.348495 0.000000 -0.000000 0.000000
  2 -5.113562 -6.906522 79.577438 0.088049 0.000000 0.000000
  3 0.325039 1.113429 -5.099007 -0.001868 0.000000 0.000000
  4 6.206746 -0.124160 -11.733643 -0.435581 -0.007176 -0.080953
  5 2.376919 1.428907 -19.463913 0.418879 0.000000 0.000000
  6 1.646507 1.612118 -34.692955 -0.003640 0.000000 0.000000
  7 0.219322 -4.030297 -4.600570 0.000000 -0.000000 0.000000
  8 -6.833118 -0.124160 -11.733643 -0.447391 0.167085 -0.109273
  9 -2.998629 1.160223 -19.583820 0.346467 -0.175621 0.104926
 10 -1.356794 1.880802 -34.573048 0.097549 0.155153 -0.039225
 11 -0.258572 -4.030299 -4.908827 0.000000 -0.000000 0.000000
 12 0.325039 1.149999 1.506775 -0.052232 0.003652 0.069720
 13 7.054490 1.815096 15.713692 -0.019784 0.029306 -0.664496
 14 12.909763 -0.165816 -12.867264 0.052760 -0.077979 -0.002291
 15 11.504259 -9.735167 -11.778580 -0.114160 0.138026 -0.699164
 16 -4.990942 -20.855858 -11.972137 0.107342 -0.124349 -0.503130
 17 1.952635 -90.186745 -0.924713 0.000000 -0.000000 0.000000
 18 -35.001938 9.597214 -70.247452 0.000000 -0.000000 0.000000
 19 3.759453 -1.898642 -3.541321 0.000000 -0.000000 0.000000
 20 -7.698013 1.934284 15.877937 -0.419055 -0.201761 -0.320839
 21 -12.721180 -0.083347 -12.838242 0.353665 -0.382954 0.306138
 22 -9.167507 -10.101492 -11.648895 0.579793 0.809829 1.024413
 23 -3.642082 -2.032095 -4.543640 0.000000 -0.000000 0.000000
 24 -0.409780 2.428935 22.341377 0.091364 0.004764 -0.121760
 25 -0.380096 -2.887195 20.845367 0.000000 -0.000000 0.000000
 26 -0.040494 -0.674471 8.862854 0.000000 -0.000000 0.000000
time 10
  0 -5.113562 -3.392895 0.796835 0.000000 -0.000000 0.000000
  1 -7.310884 -0.101110 174.348495 0.000000 -0.000000 0.000000
  2 -5.113562 -7.458530 79.577438 0.091661 0.000000 -0.000000
  3 0.325039 1.113430 -5.098999 -0.001868 0.000000 -0.000000
  4 6.206746 -0.124160 -11.733643 -0.435446 -0.008470 -0.095555
  5 2.376919 1.428907 -19.463909 0.418879 0.000000 0.000000
  6 1.646507 1.612121 -34.692951 -0.003640 0.000000 0.000000
  7 0.219322 -4.030297 -4.600570 0.000000 -0.000000 0.000000
  8 -6.833118 -0.124160 -11.733643 -0.447397 0.167077 -0.106956
  9 -2.998629 1.160219 -19.583820 0.346467 -0.175621 0.104926
 10 -1.356794 1.880808 -34.573059 0.097549 0.155153 -0.039225
 11 -0.258568 -4.030296 -4.908826 0.000000 -0.000000 0.000000
 12 0.325039 1.155631 1.614250 -0.052232 0.003652 0.069720
 13 7.054490 1.815096 15.713699 -0.027708 0.041033 -0.664439
 14 12.909765 -0.165816 -12.867256 0.054585 -0.080677 -0.002370
 15 11.504261 -9.735168 -11.778587 -0.114160 0.138026 -0.699164
 16 -4.990945 -20.855864 -11.972137 0.107342 -0.124349 -0.503130
 17 1.952644 -90.186768 -0.924709 0.000000 -0.000000 0.000000
 18 -35.001934 9.597219 -70.247437 0.000000 -0.000000 0.000000
 19 3.759451 -1.898643 -3.541321 0.000000 -0.000000 0.000000
 20 -7.698013 1.934285 15.877945 -0.416932 -0.208102 -0.321065
 21 -12.721180 -0.083347 -12.838249 0.353840 -0.365081 0.312459
 22 -9.167509 -10.101492 -11.648895 0.579793 0.809829 1.024413
 23 -3.642082 -2.032096 -4.543644 0.000000 -0.000000 0.000000
 24 -0.409780 2.428935 22.341393 0.106220 0.005539 -0.121692
 25 -0.380096 -2.887196 20.845360 0.000000 -0.000000 0.000000
 26 -0.040495 -0.674471 8.862854 0.000000 -0.000000 0.000000
time 11
  0 -5.113562 -3.392895 0.796835 0.000000 -0.000000 0.000000
  1 -7.310884 -0.101110 174.348495 0.000000 -0.000000 0.000000
  2 -5.113562 -7.982980 79.577438 0.094964 0.000000 0.000000
  3 0.325039 1.113430 -5.098999 -0.001868 0.000000 0.000000
  4 6.206746 -0.124161 -11.733646 -0.435309 -0.009778 -0.110314
  5 2.376919 1.428907 -19.463909 0.418879 0.000000 0.000000
  6 1.646507 1.612120 -34.692955 -0.003641 0.000000 0.000000
  7 0.219323 -4.030296 -4.600569 0.000000 -0.000000 0.000000
  8 -6.833118 -0.124161 -11.733646 -0.447382 0.166753 -0.111063
  9 -2.998627 1.160221 -19.583820 0.346467 -0.175621 0.104926
 10 -1.356794 1.880802 -34.573055 0.097549 0.155153 -0.039225
 11 -0.258568 -4.030298 -4.908827 0.000000 -0.000000 0.000000
 12 0.325039 1.160929 1.715340 -0.052232 0.003652 0.069720
 13 7.054490 1.815096 15.713692 -0.033891 0.050182 -0.664394
 14 12.909765 -0.165816 -12.867271 0.056137 -0.082970 -0.002438
 15 11.504261 -9.735166 -11.778580 -0.114160 0.138026 -0.699164
 16 -4.990947 -20.855862 -11.972130 0.107342 -0.124349 -0.503130
 17 1.952623 -90.186752 -0.924713 0.000000 -0.000000 0.000000
 18 -35.001930 9.597210 -70.247437 0.000000 -0.000000 0.000000
 19 3.759457 -1.898642 -3.541321 0.000000 -0.000000 0.000000
 20 -7.698012 1.934285 15.877945 -0.414844 -0.214012 -0.321258
 21 -12.721180 -0.083344 -12.838242 0.353993 -0.347260 0.318274
 22 -9.167511 -10.101488 -11.648888 0.579793 0.809829 1.024414
 23 -3.642082 -2.032096 -4.543636 0.000000 -0.000000 0.000000
 24 -0.409779 2.428935 22.341385 0.120572 0.006287 -0.121626
 25 -0.380095 -2.887197 20.845367 0.000000 -0.000000 0.000000
 26 -0.040494 -0.674471 8.862846 0.000000 -0.000000 0.000000
time 12
  0 -5.113562 -3.392895 0.796835 0.000000 -0.000000 0.000000
  1 -7.310884 -0.101110 174.348495 0.000000 -0.000000 0.000000
  2 -5.113562 -8.463541 79.577438 0.097893 0.000000 -0.000000
  3 0.325039 1.113430 -5.099007 -0.001869 0.000000 -0.000000
  4 6.206746 -0.124160 -11.733646 -0.435173 -0.011077 -0.124965
  5 2.376919 1.428907 -19.463917 0.418879 0.000000 0.000000
  6 1.646508 1.612118 -34.692955 -0.003641 0.000000 0.000000
  7 0.219323 -4.030297 -4.600569 0.000000 -0.000000 0.000000
  8 -6.833118 -0.124160 -11.733646 -0.447350 0.166128 -0.118998
  9 -2.998629 1.160221 -19.583824 0.346467 -0.175621 0.104926
 10 -1.356792 1.880809 -34.573059 0.097549 0.155153 -0.039225
 11 -0.258568 -4.030296 -4.908827 0.000000 -0.000000 0.000000
 12 0.325039 1.165716 1.806694 -0.052232 0.003652 0.069720
 13 7.054490 1.815096 15.713707 -0.037841 0.056028 -0.664365
 14 12.909765 -0.165814 -12.867271 0.057366 -0.084786 -0.002491
 15 11.504261 -9.735163 -11.778580 -0.114160 0.138026 -0.699164
 16 -4.990952 -20.855862 -11.972134 0.107342 -0.124349 -0.503130
 17 1.952618 -90.186768 -0.924713 0.000000 -0.000000 0.000000
 18 -35.001926 9.597209 -70.247452 0.000000 -0.000000 0.000000
 19 3.759449 -1.898641 -3.541313 0.000000 -0.000000 0.000000
 20 -7.698013 1.934284 15.877953 -0.412841 -0.219426 -0.321419
 21 -12.721178 -0.083344 -12.838242 0.354124 -0.329859 0.323560
 22 -9.167507 -10.101492 -11.648888 0.579793 0.809829 1.024413
 23 -3.642082 -2.032095 -4.543636 0.000000 -0.000000 0.000000
 24 -0.409780 2.428935 22.341393 0.134023 0.006989 -0.121565
 25 -0.380095 -2.887197 20.845375 0.000000 -0.000000 0.000000
 26 -0.040494 -0.674471 8.862862 0.000000 -0.000000 0.000000
time 13
  0 -5.113562 -3.392895 0.796835 0.000000 -0.000000 0.000000
  1 -7.310884 -0.101110 174.348495 0.000000 -0.000000 0.000000
  2 -5.113562 -8.883883 79.577438 0.100384 0.000000 -0.000000
  3 0.325039 1.113430 -5.098999 -0.001869 0.000000 0.000000
  4 6.206746 -0.124160 -11.733646 -0.435040 -0.012343 -0.139247
  5 2.376919 1.428907 -19.463913 0.418879 0.000000 0.000000
  6 1.646507 1.612116 -34.692963 -0.003641 0.000000 0.000000
  7 0.219323 -4.030298 -4.600570 0.000000 -0.000000 0.000000
  8 -6.833119 -0.124160 -11.733646 -0.447297 0.165235 -0.130324
  9 -2.998629 1.160221 -19.583824 0.346467 -0.175621 0.104926
 10 -1.356794 1.880806 -34.573051 0.097549 0.155153 -0.039225
 11 -0.258570 -4.030297 -4.908826 0.000000 -0.000000 0.000000
 12 0.325039 1.169816 1.884918 -0.052232 0.003652 0.069720
 13 7.054490 1.815096 15.713707 -0.039073 0.057852 -0.664356
 14 12.909766 -0.165815 -12.867271 0.058223 -0.086053 -0.002528
 15 11.504257 -9.735163 -11.778580 -0.114160 0.138026 -0.699164
 16 -4.990946 -20.855854 -11.972137 0.107342 -0.124349 -0.503130
 17 1.952623 -90.186745 -0.924702 0.000000 -0.000000 0.000000
 18 -35.001926 9.597213 -70.247452 0.000000 -0.000000 0.000000
 19 3.759455 -1.898641 -3.541328 0.000000 -0.000000 0.000000
 20 -7.698013 1.934285 15.877953 -0.410973 -0.224276 -0.321551
 21 -12.721180 -0.083344 -12.838249 0.354234 -0.313247 0.328290
 22 -9.167511 -10.101494 -11.648895 0.579793 0.809829 1.024413
 23 -3.642082 -2.032095 -4.543640 0.000000 -0.000000 0.000000
 24 -0.409780 2.428935 22.341393 0.146180 0.007623 -0.121510
 25 -0.380095 -2.887196 20.845360 0.000000 -0.000000 0.000000
 26 -0.040495 -0.674472 8.862854 0.000000 -0.000000 0.000000
time 14
  0 -5.113562 -3.392895 0.796835 0.000000 -0.000000 0.000000
  1 -7.310884 -0.101110 174.348495 0.000000 -0.000000 0.000000
  2 -5.113562 -9.227676 79.577438 0.102372 0.000000 -0.000000
  3 0.325039 1.113430 -5.098999 -0.001869 0.000000 -0.000000
  4 6.206746 -0.124160 -11.733643 -0.434913 -0.013552 -0.152894
  5 2.376919 1.428907 -19.463913 0.418879 0.000000 0.000000
  6 1.646508 1.612120 -34.692951 -0.003641 0.000000 -0.000000
  7 0.219322 -4.030297 -4.600569 0.000000 -0.000000 0.000000
  8 -6.833119 -0.124160 -11.733643 -0.447221 0.164109 -0.144605
  9 -2.998629 1.160221 -19.583824 0.346467 -0.175621 0.104926
 10 -1.356792 1.880806 -34.573051 0.097549 0.155153 -0.039225
 11 -0.258570 -4.030297 -4.908826 0.000000 -0.000000 0.000000
 12 0.325039 1.173052 1.946671 -0.052232 0.003652 0.069720
 13 7.054490 1.815095 15.713692 -0.038047 0.056333 -0.664364
 14 12.909765 -0.165815 -12.867264 0.058659 -0.086698 -0.002547
 15 11.504257 -9.735165 -11.778572 -0.114160 0.138026 -0.699164
 16 -4.990942 -20.855860 -11.972137 0.107342 -0.124349 -0.503130
 17 1.952631 -90.186745 -0.924709 0.000000 -0.000000 0.000000
 18 -35.001934 9.597216 -70.247437 0.000000 -0.000000 0.000000
 19 3.759457 -1.898643 -3.541321 0.000000 -0.000000 0.000000
 20 -7.698012 1.934285 15.877937 -0.409288 -0.228495 -0.321655
 21 -12.721178 -0.083347 -12.838242 0.354326 -0.297792 0.332442
 22 -9.167505 -10.101493 -11.648880 0.579793 0.809829 1.024413
 23 -3.642090 -2.032093 -4.543644 0.000000 -0.000000 0.000000
 24 -0.409779 2.428935 22.341377 0.156648 0.008168 -0.121462
 25 -0.380095 -2.887196 20.845360 0.000000 -0.000000 0.000000
 26 -0.040494 -0.674471 8.862846 0.000000 -0.000000 0.000000
time 15
  0 -5.113562 -3.392895 0.796835 0.000000 -0.000000 0.000000
  1 -7.310884 -0.101110 174.348495 0.000000 -0.000000 0.000000
  2 -5.113562 -9.478589 79.577438 0.103791 0.000000 0.000000
  3 0.325039 1.113431 -5.098999 -0.001869 0.000000 0.000000
  4 6.206746 -0.124160 -11.733643 -0.434795 -0.014683 -0.165646
  5 2.376920 1.428909 -19.463917 0.418879 0.000000 0.000000
  6 1.646507 1.612121 -34.692959 -0.003641 0.000000 -0.000000
  7 0.219323 -4.030298 -4.600570 0.000000 -0.000000 0.000000
  8 -6.833119 -0.124160 -11.733643 -0.447120 0.162785 -0.161404
  9 -2.998632 1.160221 -19.583820 0.346467 -0.175621 0.104926
 10 -1.356796 1.880808 -34.573055 0.097549 0.155153 -0.039225
 11 -0.258572 -4.030296 -4.908825 0.000000 -0.000000 0.000000
 12 0.325039 1.175245 1.988541 -0.052232 0.003652 0.069720
 13 7.054490 1.815096 15.713699 -0.035445 0.052482 -0.664383
 14 12.909767 -0.165816 -12.867264 0.058636 -0.086664 -0.002546
 15 11.504259 -9.735166 -11.778580 -0.114160 0.138026 -0.699164
 16 -4.990950 -20.855858 -11.972137 0.107342 -0.124349 -0.503130
 17 1.952618 -90.186745 -0.924709 0.000000 -0.000000 0.000000
 18 -35.001923 9.597212 -70.247444 0.000000 -0.000000 0.000000
 19 3.759451 -1.898642 -3.541321 0.000000 -0.000000 0.000000
 20 -7.698013 1.934284 15.877953 -0.407836 -0.232016 -0.321735
 21 -12.721180 -0.083347 -12.838242 0.354400 -0.283863 0.335989
 22 -9.167505 -10.101492 -11.648895 0.579793 0.809828 1.024413
 23 -3.642090 -2.032094 -4.543638 0.000000 -0.000000 0.000000
 24 -0.409780 2.428935 22.341385 0.165033 0.008606 -0.121424
 25 -0.380095 -2.887196 20.845367 0.000000 -0.000000 0.000000
 26 -0.040495 -0.674472 8.862846 0.000000 -0.000000 0.000000
time 16
  0 -5.113562 -3.392895 0.796835 0.000000 -0.000000 0.000000
  1 -7.310884 -0.101110 174.348495 0.000000 -0.000000 0.000000
  2 -5.113562 -9.620291 79.577438 0.104578 0.000000 0.000000
  3 0.325039 1.113430 -5.098999 -0.001869 0.000000 0.000000
  4 6.206746 -0.124160 -11.733646 -0.434687 -0.015710 -0.177237
  5 2.376919 1.428909 -19.463909 0.418879 0.000000 0.000000
  6 1.646507 1.612120 -34.692955 -0.003641 0.000000 -0.000000
  7 0.219323 -4.030297 -4.600570 0.000000 -0.000000 0.000000
  8 -6.833119 -0.124160 -11.733646 -0.446990 0.161297 -0.180284
  9 -2.998627 1.160221 -19.583820 0.346467 -0.175621 0.104926
 10 -1.356792 1.880805 -34.573051 0.097549 0.155153 -0.039225
 11 -0.258570 -4.030298 -4.908826 0.000000 -0.000000 0.000000
 12 0.325039 1.176224 2.007179 -0.052232 0.003652 0.069720
 13 7.054491 1.815096 15.713699 -0.031480 0.046614 -0.664411
 14 12.909766 -0.165813 -12.867264 0.058189 -0.086002 -0.002527
 15 11.504257 -9.735163 -11.778572 -0.114160 0.138026 -0.699164
 16 -4.990942 -20.855862 -11.972137 0.107342 -0.124349 -0.503130
 17 1.952656 -90.186768 -0.924713 0.000000 -0.000000 0.000000
 18 -35.001938 9.597225 -70.247467 0.000000 -0.000000 0.000000
 19 3.759455 -1.898642 -3.541321 0.000000 -0.000000 0.000000
 20 -7.698014 1.934284 15.877953 -0.406666 -0.234772 -0.321792
 21 -12.721182 -0.083344 -12.838242 0.354457 -0.271829 0.338909
 22 -9.167511 -10.101492 -11.648895 0.579793 0.809829 1.024413
 23 -3.642090 -2.032098 -4.543640 0.000000 -0.000000 0.000000
 24 -0.409779 2.428936 22.341393 0.170940 0.008913 -0.121397
 25 -0.380095 -2.887196 20.845383 0.000000 -0.000000 0.000000
 26 -0.040495 -0.674471 8.862854 0.000000 -0.000000 0.000000
time 17
  0 -5.113562 -3.392895 0.796835 0.000000 -0.000000 0.000000
  1 -7.310884 -0.101110 174.348495 0.000000 -0.000000 0.000000
  2 -5.113562 -9.631668 79.577438 0.104599 0.000000 0.000000
  3 0.325039 1.113431 -5.098991 -0.001869 0.000000 0.000000
  4 6.206746 -0.124160 -11.733646 -0.434593 -0.016611 -0.187406
  5 2.376919 1.428909 -19.463917 0.418879 0.000000 0.000000
  6 1.646508 1.612121 -34.692955 -0.003642 0.000000 -0.000000
  7 0.219322 -4.030296 -4.600570 0.000000 -0.000000 0.000000
  8 -6.833119 -0.124160 -11.733646 -0.446829 0.159679 -0.200809
  9 -2.998627 1.160223 -19.583824 0.346467 -0.175621 0.104926
 10 -1.356796 1.880807 -34.573059 0.097549 0.155153 -0.039225
 11 -0.258568 -4.030298 -4.908827 0.000000 -0.000000 0.000000
 12 0.325039 1.175675 1.996719 -0.052232 0.003652 0.069720
 13 7.054491 1.815096 15.713699 -0.026362 0.039040 -0.664448
 14 12.909767 -0.165814 -12.867256 0.057363 -0.084782 -0.002491
 15 11.504257 -9.735165 -11.778587 -0.114160 0.138026 -0.699164
 16 -4.990951 -20.855862 -11.972137 0.107342 -0.124349 -0.503130
 17 1.952633 -90.186760 -0.924709 0.000000 -0.000000 0.000000
 18 -35.001938 9.597218 -70.247467 0.000000 -0.000000 0.000000
 19 3.759453 -1.898641 -3.541321 0.000000 -0.000000 0.000000
 20 -7.698013 1.934284 15.877953 -0.405828 -0.236696 -0.321828
 21 -12.721178 -0.083351 -12.838234 0.354499 -0.262058 0.341175
 22 -9.167509 -10.101491 -11.648895 0.579793 0.809829 1.024413
 23 -3.642090 -2.032096 -4.543636 0.000000 -0.000000 0.000000
 24 -0.409780 2.428936 22.341385 0.173974 0.009072 -0.121383
 25 -0.380095 -2.887197 20.845367 0.000000 -0.000000 0.000000
 26 -0.040495 -0.674471 8.862854 0.000000 -0.000000 0.000000
time 18
  0 -5.113562 -3.392895 0.796835 0.000000 -0.000000 0.000000
  1 -7.310884 -0.101110 174.348495 0.000000 -0.000000 0.000000
  2 -5.113562 -9.461463 79.577438 0.103174 0.000000 0.000000
  3 0.325039 1.113430 -5.099007 -0.001869 0.000000 -0.000000
  4 6.206746 -0.124160 -11.733646 -0.434514 -0.017363 -0.195888
  5 2.376919 1.428909 -19.463913 0.418879 0.000000 0.000000
  6 1.646507 1.612120 -34.692959 -0.003642 0.000000 0.000000
  7 0.219322 -4.030297 -4.600570 0.000000 -0.000000 0.000000
  8 -6.833119 -0.124160 -11.733646 -0.446634 0.157966 -0.222541
  9 -2.998631 1.160221 -19.583824 0.346467 -0.175621 0.104926
 10 -1.356791 1.880807 -34.573051 0.097549 0.155153 -0.039225
 11 -0.258572 -4.030296 -4.908825 0.000000 -0.000000 0.000000
 12 0.325039 1.173381 1.952934 -0.052232 0.003652 0.069720
 13 7.054491 1.815096 15.713699 -0.020303 0.030073 -0.664492
 14 12.909766 -0.165812 -12.867264 0.056203 -0.083067 -0.002441
 15 11.504261 -9.735163 -11.778587 -0.114160 0.138026 -0.699164
 16 -4.990951 -20.855865 -11.972137 0.107342 -0.124349 -0.503130
 17 1.952642 -90.186790 -0.924713 0.000000 -0.000000 0.000000
 18 -35.001926 9.597222 -70.247452 0.000000 -0.000000 0.000000
 19 3.759457 -1.898641 -3.541321 0.000000 -0.000000 0.000000
 20 -7.698014 1.934285 15.877945 -0.405371 -0.237722 -0.321846
 21 -12.721180 -0.083347 -12.838242 0.354527 -0.254919 0.342765
 22 -9.167509 -10.101494 -11.648895 0.579793 0.809828 1.024413
 23 -3.642082 -2.032095 -4.543642 0.000000 -0.000000 0.000000
 24 -0.409780 2.428935 22.341377 0.173281 0.009036 -0.121382
 25 -0.380095 -2.887194 20.845367 0.000000 -0.000000 0.000000
 26 -0.040495 -0.674472 8.862846 0.000000 -0.000000 0.000000
time 19
  0 -5.113562 -3.392895 0.796835 0.000000 -0.000000 0.000000
  1 -7.310884 -0.101110 174.348495 0.000000 -0.000000 0.000000
  2 -5.113562 -9.124647 79.577438 0.100353 0.000000 -0.000000
  3 0.325039 1.113429 -5.099007 -0.001869 0.000000 0.000000
  4 6.206746 -0.124160 -11.733646 -0.434454 -0.017942 -0.202420
  5 2.376919 1.428907 -19.463909 0.418879 0.000000 -0.000000
  6 1.646507 1.612120 -34.692959 -0.003642 0.000000 -0.000000
  7 0.219322 -4.030297 -4.600569 0.000000 -0.000000 0.000000
  8 -6.833119 -0.124160 -11.733646 -0.446404 0.156193 -0.245045
  9 -2.998631 1.160223 -19.583824 0.346467 -0.175621 0.104926
 10 -1.356794 1.880805 -34.573055 0.097549 0.155153 -0.039225
 11 -0.258570 -4.030297 -4.908827 0.000000 -0.000000 0.000000
 12 0.325039 1.169614 1.881065 -0.052232 0.003652 0.069720
 13 7.054490 1.815096 15.713699 -0.013514 0.020027 -0.664541
 14 12.909769 -0.165812 -12.867256 0.054752 -0.080923 -0.002378
 15 11.504259 -9.735163 -11.778587 -0.114160 0.138026 -0.699164
 16 -4.990951 -20.855864 -11.972137 0.107342 -0.124349 -0.503130
 17 1.952642 -90.186768 -0.924717 0.000000 -0.000000 0.000000
 18 -35.001930 9.597220 -70.247459 0.000000 -0.000000 0.000000
 19 3.759449 -1.898642 -3.541321 0.000000 -0.000000 0.000000
 20 -7.698013 1.934284 15.877937 -0.405331 -0.237445 -0.321845
 21 -12.721180 -0.083347 -12.838242 0.354541 -0.250779 0.343652
 22 -9.167509 -10.101494 -11.648895 0.579793 0.809828 1.024413
 23 -3.642090 -2.032096 -4.543640 0.000000 -0.000000 0.000000
 24 -0.409779 2.428935 22.341385 0.166879 0.008702 -0.121387
 25 -0.380095 -2.887195 20.845367 0.000000 -0.000000 0.000000
 26 -0.040494 -0.674471 8.862854 0.000000 -0.000000 0.000000
time 20
  0 -5.113562 -3.392895 0.796835 0.000000 -0.000000 0.000000
  1 -7.310884 -0.101110 174.348495 0.000000 -0.000000 0.000000
  2 -5.113562 -8.652582 79.577438 0.096401 0.000000 0.000000
  3 0.325039 1.113431 -5.098999 -0.001869 0.000000 0.000000
  4 6.206746 -0.124160 -11.733646 -0.434413 -0.018325 -0.206740
  5 2.376919 1.428907 -19.463909 0.418879 0.000000 0.000000
  6 1.646508 1.612116 -34.692955 -0.003642 0.000000 0.000000
  7 0.219323 -4.030297 -4.600570 0.000000 -0.000000 0.000000
  8 -6.833118 -0.124160 -11.733646 -0.446134 0.154393 -0.267883
  9 -2.998627 1.160221 -19.583828 0.346467 -0.175621 0.104926
 10 -1.356796 1.880804 -34.573048 0.097549 0.155153 -0.039225
 11 -0.258572 -4.030296 -4.908826 0.000000 -0.000000 0.000000
 12 0.325039 1.164664 1.786606 -0.052232 0.003652 0.069720
 13 7.054491 1.815096 15.713699 -0.006207 0.009213 -0.664595
 14 12.909765 -0.165814 -12.867264 0.053054 -0.078414 -0.002304
 15 11.504259 -9.735165 -11.778580 -0.114160 0.138026 -0.699164
 16 -4.990946 -20.855860 -11.972137 0.107342 -0.124349 -0.503130
 17 1.952637 -90.186760 -0.924713 0.000000 -0.000000 0.000000
 18 -35.001930 9.597220 -70.247459 0.000000 -0.000000 0.000000
 19 3.759453 -1.898641 -3.541321 0.000000 -0.000000 0.000000
 20 -7.698014 1.934285 15.877945 -0.405637 -0.233473 -0.321813
 21 -12.721178 -0.083347 -12.838249 0.354536 -0.250383 0.343593
 22 -9.167505 -10.101490 -11.648895 0.579793 0.809828 1.024413
 23 -3.642082 -2.032095 -4.543636 0.000000 -0.000000 0.000000
 24 -0.409779 2.428935 22.341385 0.155500 0.008108 -0.121398
 25 -0.380096 -2.887195 20.845375 0.000000 -0.000000 0.000000
 26 -0.040494 -0.674472 8.862846 0.000000 -0.000000 0.000000
time 21
  0 -5.113562 -3.392895 0.796835 0.000000 -0.000000 0.000000
  1 -7.310884 -0.101110 174.348495 0.000000 -0.000000 0.000000
  2 -5.113562 -8.076631 79.577438 0.091578 0.000000 -0.000000
  3 0.325039 1.113430 -5.098999 -0.001869 0.000000 -0.000000
  4 6.206746 -0.124160 -11.733643 -0.434396 -0.018488 -0.208584
  5 2.376919 1.428909 -19.463909 0.418879 0.000000 -0.000000
  6 1.646507 1.612121 -34.692955 -0.003642 0.000000 -0.000000
  7 0.219323 -4.030298 -4.600570 0.000000 -0.000000 0.000000
  8 -6.833118 -0.124160 -11.733643 -0.445822 0.152600 -0.290619
  9 -2.998627 1.160221 -19.583820 0.346467 -0.175621 0.104926
 10 -1.356794 1.880804 -34.573059 0.097549 0.155153 -0.039225
 11 -0.258570 -4.030296 -4.908826 0.000000 -0.000000 0.000000
 12 0.325039 1.158818 1.675072 -0.052232 0.003652 0.069720
 13 7.054491 1.815096 15.713699 0.001408 -0.002056 -0.664650
 14 12.909767 -0.165812 -12.867256 0.051153 -0.075604 -0.002221
 15 11.504259 -9.735165 -11.778587 -0.114160 0.138026 -0.699164
 16 -4.990944 -20.855860 -11.972141 0.107342 -0.124349 -0.503130
 17 1.952648 -90.186745 -0.924713 0.000000 -0.000000 0.000000
 18 -35.001938 9.597219 -70.247452 0.000000 -0.000000 0.000000
 19 3.759451 -1.898643 -3.541321 0.000000 -0.000000 0.000000
 20 -7.698013 1.934284 15.877945 -0.406292 -0.226016 -0.321735
 21 -12.721178 -0.083347 -12.838242 0.354387 -0.259923 0.339002
 22 -9.167511 -10.101491 -11.648903 0.579793 0.809829 1.024413
 23 -3.642082 -2.032092 -4.543640 0.000000 -0.000000 0.000000
 24 -0.409779 2.428936 22.341385 0.140197 0.007311 -0.121417
 25 -0.380095 -2.887197 20.845360 0.000000 -0.000000 0.000000
 26 -0.040494 -0.674471 8.862854 0.000000 -0.000000 0.000000
time 22
  0 -5.113562 -3.392895 0.796835 0.000000 -0.000000 0.000000
  1 -7.310884 -0.101110 174.348495 0.000000 -0.000000 0.000000
  2 -5.113562 -7.428153 79.577438 0.086148 0.000000 0.000000
  3 0.325039 1.113430 -5.098999 -0.001869 0.000000 0.000000
  4 6.206746 -0.124160 -11.733646 -0.434404 -0.018050 -0.203639
  5 2.376919 1.428907 -19.463913 0.418879 0.000000 0.000000
  6 1.646507 1.612119 -34.692955 -0.003643 0.000000 0.000000
  7 0.219322 -4.030297 -4.600569 0.000000 -0.000000 0.000000
  8 -6.833118 -0.124160 -11.733646 -0.445467 0.150851 -0.312815
  9 -2.998629 1.160221 -19.583824 0.346467 -0.175621 0.104926
 10 -1.356794 1.880807 -34.573055 0.097549 0.155153 -0.039225
 11 -0.258570 -4.030297 -4.908826 0.000000 -0.000000 0.000000
 12 0.325039 1.152365 1.551933 -0.052232 0.003652 0.069720
 13 7.054490 1.815096 15.713707 0.009118 -0.013466 -0.664706
 14 12.909768 -0.165813 -12.867264 0.049093 -0.072560 -0.002132
 15 11.504257 -9.735160 -11.778587 -0.114160 0.138026 -0.699164
 16 -4.990947 -20.855865 -11.972137 0.107342 -0.124349 -0.503130
 17 1.952644 -90.186745 -0.924709 0.000000 -0.000000 0.000000
 18 -35.001926 9.597219 -70.247437 0.000000 -0.000000 0.000000
 19 3.759455 -1.898644 -3.541321 0.000000 -0.000000 0.000000
 20 -7.698013 1.934285 15.877945 -0.407318 -0.215889 -0.321600
 21 -12.721182 -0.083344 -12.838242 0.354083 -0.279498 0.329583
 22 -9.167509 -10.101491 -11.648888 0.579793 0.809828 1.024413
 23 -3.642090 -2.032094 -4.543640 0.000000 -0.000000 0.000000
 24 -0.409779 2.428935 22.341385 0.122026 0.006363 -0.121445
 25 -0.380095 -2.887197 20.845352 0.000000 -0.000000 0.000000
 26 -0.040495 -0.674471 8.862854 0.000000 -0.000000 0.000000
time 23
  0 -5.113562 -3.392895 0.796835 0.000000 -0.000000 0.000000
  1 -7.310884 -0.101110 174.348495 0.000000 -0.000000 0.000000
  2 -5.113562 -6.738513 79.577438 0.080374 0.000000 -0.000000
  3 0.325039 1.113431 -5.098991 -0.001869 0.000000 0.000000
  4 6.206746 -0.124160 -11.733643 -0.434443 -0.016468 -0.185787
  5 2.376919 1.428905 -19.463909 0.418879 0.000000 0.000000
  6 1.646508 1.612120 -34.692955 -0.003643 0.000000 0.000000
  7 0.219322 -4.030297 -4.600570 0.000000 -0.000000 0.000000
  8 -6.833118 -0.124160 -11.733643 -0.445064 0.149178 -0.334036
  9 -2.998629 1.160219 -19.583820 0.346467 -0.175621 0.104926
 10 -1.356798 1.880806 -34.573055 0.097549 0.155153 -0.039225
 11 -0.258572 -4.030297 -4.908826 0.000000 -0.000000 0.000000
 12 0.325039 1.145592 1.422691 -0.052232 0.003652 0.069720
 13 7.054490 1.815095 15.713699 0.016712 -0.024705 -0.664761
 14 12.909765 -0.165815 -12.867271 0.046917 -0.069344 -0.002037
 15 11.504257 -9.735164 -11.778587 -0.114160 0.138026 -0.699164
 16 -4.990943 -20.855862 -11.972137 0.107342 -0.124349 -0.503130
 17 1.952646 -90.186752 -0.924713 0.000000 -0.000000 0.000000
 18 -35.001934 9.597221 -70.247459 0.000000 -0.000000 0.000000
 19 3.759453 -1.898643 -3.541321 0.000000 -0.000000 0.000000
 20 -7.698013 1.934284 15.877945 -0.408738 -0.203905 -0.321393
 21 -12.721178 -0.083347 -12.838249 0.353662 -0.306507 0.316586
 22 -9.167511 -10.101490 -11.648895 0.579793 0.809829 1.024413
 23 -3.642090 -2.032095 -4.543640 0.000000 -0.000000 0.000000
 24 -0.409780 2.428935 22.341385 0.102042 0.005321 -0.121484
 25 -0.380095 -2.887194 20.845360 0.000000 -0.000000 0.000000
 26 -0.040494 -0.674472 8.862854 0.000000 -0.000000 0.000000
time 24
  0 -5.113562 -3.392895 0.796835 0.000000 -0.000000 0.000000
  1 -7.310884 -0.101110 174.348495 0.000000 -0.000000 0.000000
  2 -5.113562 -6.039073 79.577438 0.074517 0.000000 0.000000
  3 0.325039 1.113431 -5.098999 -0.001869 0.000000 0.000000
  4 6.206746 -0.124160 -11.733643 -0.434522 -0.014044 -0.158445
  5 2.376919 1.428909 -19.463913 0.418879 0.000000 -0.000000
  6 1.646508 1.612120 -34.692959 -0.003644 0.000000 -0.000000
  7 0.219322 -4.030297 -4.600570 0.000000 -0.000000 0.000000
  8 -6.833118 -0.124160 -11.733643 -0.444612 0.147617 -0.353844
  9 -2.998629 1.160221 -19.583824 0.346467 -0.175621 0.104926
 10 -1.356794 1.880809 -34.573051 0.097549 0.155153 -0.039225
 11 -0.258572 -4.030296 -4.908826 0.000000 -0.000000 0.000000
 12 0.325039 1.138788 1.292854 -0.052232 0.003652 0.069720
 13 7.054490 1.815096 15.713707 0.023980 -0.035461 -0.664813
 14 12.909767 -0.165813 -12.867264 0.044670 -0.066022 -0.001940
 15 11.504259 -9.735161 -11.778580 -0.114160 0.138026 -0.699164
 16 -4.990954 -20.855865 -11.972137 0.107342 -0.124349 -0.503130
 17 1.952629 -90.186775 -0.924709 0.000000 -0.000000 0.000000
 18 -35.001926 9.597218 -70.247452 0.000000 -0.000000 0.000000
 19 3.759453 -1.898643 -3.541321 0.000000 -0.000000 0.000000
 20 -7.698013 1.934284 15.877953 -0.410574 -0.190878 -0.321104
 21 -12.721177 -0.083347 -12.838249 0.353167 -0.338351 0.301263
 22 -9.167507 -10.101490 -11.648888 0.579793 0.809828 1.024414
 23 -3.642090 -2.032096 -4.543642 0.000000 -0.000000 0.000000
 24 -0.409780 2.428935 22.341385 0.081299 0.004239 -0.121534
 25 -0.380096 -2.887196 20.845367 0.000000 -0.000000 0.000000
 26 -0.040494 -0.674471 8.862862 0.000000 -0.000000 0.000000
time 25
  0 -5.113562 -3.392895 0.796835 0.000000 -0.000000 0.000000
  1 -7.310884 -0.101110 174.348495 0.000000 -0.000000 0.000000
  2 -5.113562 -5.361194 79.577438 0.068841 0.000000 -0.000000
  3 0.325039 1.113430 -5.099007 -0.001869 0.000000 0.000000
  4 6.206746 -0.124160 -11.733650 -0.434649 -0.011104 -0.125274
  5 2.376919 1.428909 -19.463909 0.418879 0.000000 0.000000
  6 1.646508 1.612118 -34.692955 -0.003644 0.000000 0.000000
  7 0.219322 -4.030297 -4.600571 0.000000 -0.000000 0.000000
  8 -6.833118 -0.124160 -11.733650 -0.444107 0.146201 -0.371803
  9 -2.998629 1.160223 -19.583828 0.346467 -0.175621 0.104926
 10 -1.356792 1.880805 -34.573059 0.097549 0.155153 -0.039225
 11 -0.258570 -4.030297 -4.908827 0.000000 -0.000000 0.000000
 12 0.325039 1.132239 1.167915 -0.052232 0.003652 0.069720
 13 7.054491 1.815096 15.713692 0.030709 -0.045419 -0.664862
 14 12.909767 -0.165810 -12.867264 0.042394 -0.062658 -0.001841
 15 11.504257 -9.735164 -11.778580 -0.114160 0.138026 -0.699164
 16 -4.990944 -20.855865 -11.972141 0.107342 -0.124349 -0.503130
 17 1.952663 -90.186775 -0.924713 0.000000 -0.000000 0.000000
 18 -35.001938 9.597229 -70.247467 0.000000 -0.000000 0.000000
 19 3.759449 -1.898642 -3.541321 0.000000 -0.000000 0.000000
 20 -7.698014 1.934285 15.877937 -0.412849 -0.177623 -0.320721
 21 -12.721180 -0.083347 -12.838249 0.352636 -0.372430 0.284865
 22 -9.167511 -10.101493 -11.648895 0.579793 0.809829 1.024413
 23 -3.642090 -2.032094 -4.543644 0.000000 -0.000000 0.000000
 24 -0.409780 2.428935 22.341377 0.060853 0.003173 -0.121598
 25 -0.380095 -2.887196 20.845367 0.000000 -0.000000 0.000000
 26 -0.040495 -0.674471 8.862854 0.000000 -0.000000 0.000000
time 26
  0 -5.113562 -3.392895 0.796835 0.000000 -0.000000 0.000000
  1 -7.310884 -0.101110 174.348495 0.000000 -0.000000 0.000000
  2 -5.113562 -4.736239 79.577438 0.063608 0.000000 0.000000
  3 0.325039 1.113430 -5.099007 -0.001869 0.000000 -0.000000
  4 6.206746 -0.124160 -11.733646 -0.434835 -0.007972 -0.089930
  5 2.376919 1.428907 -19.463913 0.418879 0.000000 -0.000000
  6 1.646508 1.612118 -34.692951 -0.003645 0.000000 0.000000
  7 0.219322 -4.030296 -4.600570 0.000000 -0.000000 0.000000
  8 -6.833118 -0.124160 -11.733646 -0.443548 0.144966 -0.387476
  9 -2.998631 1.160221 -19.583820 0.346467 -0.175621 0.104926
 10 -1.356794 1.880807 -34.573051 0.097549 0.155153 -0.039225
 11 -0.258570 -4.030296 -4.908826 0.000000 -0.000000 0.000000
 12 0.325039 1.126236 1.053368 -0.052232 0.003652 0.069720
 13 7.054491 1.815096 15.713692 0.036689 -0.054269 -0.664905
 14 12.909765 -0.165812 -12.867264 0.040133 -0.059317 -0.001743
 15 11.504257 -9.735161 -11.778580 -0.114160 0.138026 -0.699164
 16 -4.990950 -20.855865 -11.972141 0.107342 -0.124349 -0.503130
 17 1.952654 -90.186768 -0.924709 0.000000 -0.000000 0.000000
 18 -35.001934 9.597227 -70.247459 0.000000 -0.000000 0.000000
 19 3.759449 -1.898641 -3.541321 0.000000 -0.000000 0.000000
 20 -7.698013 1.934284 15.877937 -0.415587 -0.164952 -0.320230
 21 -12.721178 -0.083347 -12.838234 0.352111 -0.406142 0.268643
 22 -9.167511 -10.101494 -11.648895 0.579793 0.809828 1.024413
 23 -3.642082 -2.032095 -4.543644 0.000000 -0.000000 0.000000
 24 -0.409780 2.428935 22.341385 0.041759 0.002178 -0.121678
 25 -0.380095 -2.887196 20.845367 0.000000 -0.000000 0.000000
 26 -0.040494 -0.674471 8.862854 0.000000 -0.000000 0.000000
time 27
  0 -5.113562 -3.392895 0.796835 0.000000 -0.000000 0.000000
  1 -7.310884 -0.101110 174.348495 0.000000 -0.000000 0.000000
  2 -5.113562 -4.195570 79.577438 0.059081 0.000000 0.000000
  3 0.325039 1.113430 -5.098999 -0.001870 0.000000 0.000000
  4 6.206746 -0.124160 -11.733646 -0.435087 -0.004971 -0.056073
  5 2.376919 1.428909 -19.463913 0.418879 0.000000 -0.000000
  6 1.646507 1.612119 -34.692963 -0.003645 0.000000 0.000000
  7 0.219322 -4.030298 -4.600571 0.000000 -0.000000 0.000000
  8 -6.833118 -0.124160 -11.733646 -0.442931 0.143945 -0.400427
  9 -2.998631 1.160225 -19.583824 0.346467 -0.175621 0.104926
 10 -1.356792 1.880807 -34.573048 0.097549 0.155153 -0.039225
 11 -0.258568 -4.030295 -4.908825 0.000000 -0.000000 0.000000
 12 0.325039 1.121066 0.954712 -0.052232 0.003652 0.069720
 13 7.054490 1.815096 15.713707 0.041708 -0.061696 -0.664942
 14 12.909768 -0.165813 -12.867264 0.037933 -0.056064 -0.001647
 15 11.504263 -9.735167 -11.778580 -0.114160 0.138026 -0.699164
 16 -4.990948 -20.855865 -11.972141 0.107342 -0.124349 -0.503130
 17 1.952625 -90.186768 -0.924709 0.000000 -0.000000 0.000000
 18 -35.001934 9.597218 -70.247459 0.000000 -0.000000 0.000000
 19 3.759453 -1.898643 -3.541328 0.000000 -0.000000 0.000000
 20 -7.698012 1.934285 15.877945 -0.418809 -0.153681 -0.319619
 21 -12.721178 -0.083347 -12.838242 0.351633 -0.436889 0.253847
 22 -9.167511 -10.101487 -11.648888 0.579793 0.809828 1.024413
 23 -3.642090 -2.032093 -4.543644 0.000000 -0.000000 0.000000
 24 -0.409780 2.428936 22.341385 0.025071 0.001308 -0.121774
 25 -0.380095 -2.887195 20.845375 0.000000 -0.000000 0.000000
 26 -0.040495 -0.674471 8.862854 0.000000 -0.000000 0.000000
time 28
  0 -5.113562 -3.392895 0.796835 0.000000 -0.000000 0.000000
  1 -7.310884 -0.101110 174.348495 0.000000 -0.000000 0.000000
  2 -5.113562 -3.770547 79.577438 0.055522 0.000000 -0.000000
  3 0.325039 1.113430 -5.098999 -0.001870 0.000000 -0.000000
  4 6.206746 -0.124160 -11.733646 -0.435414 -0.002426 -0.027360
  5 2.376919 1.428907 -19.463913 0.418879 0.000000 -0.000000
  6 1.646507 1.612118 -34.692959 -0.003646 0.000000 -0.000000
  7 0.219322 -4.030297 -4.600571 0.000000 -0.000000 0.000000
  8 -6.833118 -0.124160 -11.733646 -0.442254 0.143174 -0.410218
  9 -2.998629 1.160223 -19.583828 0.346467 -0.175621 0.104926
 10 -1.356792 1.880809 -34.573055 0.097549 0.155153 -0.039225
 11 -0.258570 -4.030298 -4.908827 0.000000 -0.000000 0.000000
 12 0.325039 1.117015 0.877434 -0.052232 0.003652 0.069720
 13 7.054490 1.815096 15.713699 0.045555 -0.067389 -0.664970
 14 12.909767 -0.165812 -12.867264 0.035835 -0.052964 -0.001556
 15 11.504253 -9.735159 -11.778580 -0.114160 0.138026 -0.699164
 16 -4.990946 -20.855869 -11.972141 0.107342 -0.124349 -0.503130
 17 1.952658 -90.186768 -0.924713 0.000000 -0.000000 0.000000
 18 -35.001930 9.597227 -70.247452 0.000000 -0.000000 0.000000
 19 3.759451 -1.898644 -3.541328 0.000000 -0.000000 0.000000
 20 -7.698012 1.934285 15.877945 -0.422539 -0.144622 -0.318876
 21 -12.721178 -0.083347 -12.838242 0.351241 -0.462071 0.241730
 22 -9.167509 -10.101490 -11.648888 0.579793 0.809828 1.024413
 23 -3.642086 -2.032095 -4.543640 0.000000 -0.000000 0.000000
 24 -0.409780 2.428935 22.341385 0.011846 0.000618 -0.121888
 25 -0.380096 -2.887195 20.845367 0.000000 -0.000000 0.000000
 26 -0.040494 -0.674471 8.862854 0.000000 -0.000000 0.000000
time 29
  0 -5.113562 -3.392895 0.796835 0.000000 -0.000000 0.000000
  1 -7.310884 -0.101110 174.348495 0.000000 -0.000000 0.000000
  2 -5.113562 -3.492535 79.577438 0.053194 0.000000 0.000000
  3 0.325039 1.113431 -5.098984 -0.001870 0.000000 -0.000000
  4 6.206746 -0.124160 -11.733643 -0.435827 -0.000661 -0.007449
  5 2.376919 1.428907 -19.463917 0.418879 0.000000 0.000000
  6 1.646507 1.612120 -34.692955 -0.003646 0.000000 -0.000000
  7 0.219322 -4.030297 -4.600570 0.000000 -0.000000 0.000000
  8 -6.833118 -0.124160 -11.733643 -0.441514 0.142685 -0.416412
  9 -2.998629 1.160225 -19.583820 0.346467 -0.175621 0.104926
 10 -1.356794 1.880804 -34.573055 0.097549 0.155153 -0.039225
 11 -0.258568 -4.030297 -4.908827 0.000000 -0.000000 0.000000
 12 0.325039 1.114375 0.827042 -0.052232 0.003652 0.069720
 13 7.054490 1.815096 15.713699 0.048017 -0.071034 -0.664987
 14 12.909767 -0.165811 -12.867271 0.033883 -0.050080 -0.001472
 15 11.504253 -9.735159 -11.778595 -0.114160 0.138026 -0.699164
 16 -4.990948 -20.855869 -11.972145 0.107342 -0.124349 -0.503130
 17 1.952654 -90.186783 -0.924709 0.000000 -0.000000 0.000000
 18 -35.001934 9.597227 -70.247475 0.000000 -0.000000 0.000000
 19 3.759451 -1.898641 -3.541321 0.000000 -0.000000 0.000000
 20 -7.698012 1.934284 15.877945 -0.426800 -0.138589 -0.317990
 21 -12.721181 -0.083344 -12.838249 0.350976 -0.479086 0.233543
 22 -9.167509 -10.101493 -11.648903 0.579793 0.809829 1.024413
 23 -3.642086 -2.032095 -4.543640 0.000000 -0.000000 0.000000
 24 -0.409780 2.428935 22.341385 0.003137 0.000164 -0.122021
 25 -0.380095 -2.887195 20.845360 0.000000 -0.000000 0.000000
 26 -0.040494 -0.674471 8.862862 0.000000 -0.000000 0.000000
time 30
  0 -5.113562 -3.392895 0.796835 0.000000 -0.000000 0.000000
  1 -7.310884 -0.101110 174.348495 0.000000 -0.000000 0.000000
  2 -5.113562 -3.392895 79.577438 0.052360 -0.000000 0.000000
  3 0.325039 1.113430 -5.098999 -0.001870 0.000000 -0.000000
  4 6.206746 -0.124160 -11.733643 -0.436333 -0.000000 0.000000
  5 2.376919 1.428907 -19.463917 0.418879 0.000000 0.000000
  6 1.646507 1.612119 -34.692959 -0.003647 0.000000 0.000000
  7 0.219322 -4.030296 -4.600570 0.000000 -0.000000 0.000000
  8 -6.833118 -0.124160 -11.733643 -0.440708 0.142515 -0.418574
  9 -2.998631 1.160221 -19.583828 0.346467 -0.175621 0.104926
 10 -1.356794 1.880804 -34.573051 0.097549 0.155153 -0.039225
 11 -0.258568 -4.030297 -4.908826 0.000000 -0.000000 0.000000
 12 0.325039 1.113430 0.809021 -0.052232 0.003652 0.069720
 13 7.054490 1.815096 15.713699 0.048885 -0.072318 -0.664994
 14 12.909769 -0.165812 -12.867264 0.032123 -0.047478 -0.001395
 15 11.504259 -9.735163 -11.778580 -0.114160 0.138026 -0.699164
 16 -4.990946 -20.855864 -11.972145 0.107342 -0.124349 -0.503130
 17 1.952650 -90.186768 -0.924709 0.000000 -0.000000 0.000000
 18 -35.001930 9.597222 -70.247452 0.000000 -0.000000 0.000000
 19 3.759453 -1.898641 -3.541328 0.000000 -0.000000 0.000000
 20 -7.698013 1.934285 15.877945 -0.431614 -0.136398 -0.316947
 21 -12.721178 -0.083347 -12.838242 0.350879 -0.485336 0.230535
 22 -9.167501 -10.101488 -11.648888 0.579793 0.809829 1.024413
 23 -3.642086 -2.032092 -4.543636 0.000000 -0.000000 0.000000
 24 -0.409780 2.428935 22.341385 -0.000001 0.000000 -0.122176
 25 -0.380095 -2.887195 20.845367 0.000000 -0.000000 0.000000
 26 -0.040494 -0.674471 8.862854 0.000000 -0.000000 0.000000
end
