version 1
nodes
  0 "bone34"  -1
  1 "bone31"  -1
  2 "bone17"  -1
  3 "bone16"   2
  4 "bone12"   3
  5 "bone13"   4
  6 "bone15"   5
  7 "bone19"   6
  8 "bone05"   3
  9 "bone18"   8
 10 "bone14"   9
 11 "bone20"  10
 12 "bone02"   2
 13 "bone01"  12
 14 "bone03"  13
 15 "bone10"  14
 16 "bone08"  15
 17 "bone22"  16
 18 "bone24"  16
 19 "bone25"  15
 20 "bone09"  12
 21 "bone04"  20
 22 "bone07"  21
 23 "bone26"  22
 24 "bone06"  12
 25 "bone27"  24
 26 "bone28"  12
 27 "bone29"  12
 28 "bone30"  12
end
skeleton
time 0
  0 -5.113562 -3.392895 0.796835 0.000000 -0.000000 0.000000
  1 -7.310884 -0.101110 174.348495 0.000000 -0.000000 0.000000
  2 -5.113562 -3.392895 70.616058 0.052360 -0.000000 0.000000
  3 0.325039 1.113430 -5.099007 -0.004507 0.000000 0.000000
  4 6.206746 -0.124160 -11.733650 -0.925025 0.000000 0.000000
  5 2.376919 1.428909 -19.463915 0.959932 -0.000000 -0.000000
  6 1.646507 1.612119 -34.692959 -0.023271 0.000000 -0.000000
  7 0.219322 -4.030296 -4.600571 0.000000 -0.000000 0.000000
  8 -6.833118 -0.124160 -11.733650 -0.075879 0.286305 -0.339914
  9 -2.998631 1.160221 -19.583824 0.627330 -0.117532 0.150476
 10 -1.356798 1.880806 -34.573044 -0.318235 0.018242 -0.094814
 11 -0.258572 -4.030296 -4.908825 0.000000 -0.000000 0.000000
 12 0.325039 1.113430 0.809013 -0.022144 0.047451 1.133940
 13 7.054491 1.815097 15.713707 0.000000 0.000000 -0.000000
 14 12.909766 -0.165812 -12.867264 -0.000000 0.000000 0.000000
 15 11.504256 -9.735160 -11.778580 -0.114160 0.138026 -0.699164
 16 -4.990949 -20.855865 -11.972134 0.107342 -0.124349 -0.503130
 17 1.952646 -90.186768 -0.924717 0.000000 -0.000000 0.000000
 18 -35.001934 9.597219 -70.247459 0.000000 -0.000000 0.000000
 19 3.759452 -1.898643 -3.541317 0.000000 -0.000000 0.000000
 20 -7.698014 1.934284 15.877953 -0.565580 -0.403772 0.364940
 21 -12.721184 -0.083347 -12.838245 0.350879 -0.485336 0.230535
 22 -9.167511 -10.101490 -11.648895 0.579793 0.809829 1.024414
 23 -3.642090 -2.032095 -4.543636 0.000000 -0.000000 0.000000
 24 -0.409779 2.428935 22.341385 0.000000 0.000001 -1.169373
 25 -0.380095 -2.887196 20.845360 0.000000 -0.000000 0.000000
 26 -0.040494 -0.674471 8.862854 0.000000 -0.000000 0.000000
 27 -0.325039 -1.113431 -83.015953 0.000000 -0.000000 0.000000
 28 -0.325039 -1.113431 -83.015953 0.000000 -0.000000 0.000000
time 1
  0 -5.113562 -3.392895 0.796835 0.000000 -0.000000 0.000000
  1 -7.310884 -0.101110 174.348495 0.000000 -0.000000 0.000000
  2 -5.113562 -3.392895 70.616058 0.052360 -0.000000 0.000000
  3 0.325039 1.113430 -5.099007 -0.004507 0.000000 -0.000000
  4 6.206746 -0.124160 -11.733646 -0.925024 0.000000 0.000000
  5 2.376919 1.428909 -19.463913 0.959932 -0.000000 -0.000000
  6 1.646507 1.612119 -34.692955 -0.023271 0.000000 -0.000000
  7 0.219322 -4.030297 -4.600570 0.000000 -0.000000 0.000000
  8 -6.833118 -0.124160 -11.733646 -0.075879 0.286305 -0.339914
  9 -2.998631 1.160222 -19.583826 0.627330 -0.117532 0.150476
 10 -1.356800 1.880812 -34.573051 -0.318235 0.018242 -0.094814
 11 -0.258570 -4.030294 -4.908825 0.000000 -0.000000 0.000000
 12 0.325039 1.113430 0.809013 -0.022144 0.047451 1.133940
 13 7.054490 1.815096 15.713707 -0.000000 0.000000 0.000000
 14 12.909765 -0.165811 -12.867264 0.000000 -0.000000 0.000000
 15 11.504256 -9.735163 -11.778580 -0.114160 0.138026 -0.699164
 16 -4.990942 -20.855865 -11.972137 0.107342 -0.124349 -0.503130
 17 1.952654 -90.186775 -0.924713 0.000000 -0.000000 0.000000
 18 -35.001934 9.597225 -70.247467 0.000000 -0.000000 0.000000
 19 3.759453 -1.898642 -3.541317 0.000000 -0.000000 0.000000
 20 -7.698014 1.934285 15.877953 -0.565580 -0.403772 0.364941
 21 -12.721183 -0.083344 -12.838245 0.350879 -0.485336 0.230535
 22 -9.167503 -10.101486 -11.648891 0.579793 0.809829 1.024413
 23 -3.642090 -2.032094 -4.543636 0.000000 -0.000000 0.000000
 24 -0.409780 2.428935 22.341385 0.000000 0.000001 -1.169373
 25 -0.380095 -2.887195 20.845360 0.000000 -0.000000 0.000000
 26 -0.040494 -0.674471 8.862854 0.000000 -0.000000 0.000000
 27 -0.325039 -1.113430 -83.015953 0.000000 -0.000000 0.000000
 28 -0.325039 -1.113430 -83.015953 0.000000 -0.000000 0.000000
time 2
  0 -5.113562 -3.392895 0.796835 0.000000 -0.000000 0.000000
  1 -7.310884 -0.101110 174.348495 0.000000 -0.000000 0.000000
  2 -5.113562 -4.566366 70.616058 0.052360 -0.000000 0.000000
  3 0.325039 1.113430 -5.098999 -0.004508 0.000000 0.000000
  4 6.206746 -0.124160 -11.733643 -0.924352 0.000000 0.000000
  5 2.376919 1.428909 -19.463913 0.947362 0.000000 -0.000000
  6 1.646507 1.612119 -34.692955 -0.011008 0.000000 -0.000000
  7 0.219322 -4.030295 -4.600570 0.000000 -0.000000 0.000000
  8 -6.833118 -0.124160 -11.733643 -0.075879 0.286305 -0.339914
  9 -2.998631 1.160221 -19.583824 0.627330 -0.117532 0.150476
 10 -1.356792 1.880802 -34.573051 -0.318235 0.018242 -0.094814
 11 -0.258572 -4.030298 -4.908825 0.000000 -0.000000 0.000000
 12 0.325039 1.113430 0.809013 -0.024457 0.052325 1.133666
 13 7.054490 1.815096 15.713699 -0.000000 0.000000 0.000000
 14 12.909766 -0.165812 -12.867264 -0.000000 0.000000 -0.000000
 15 11.504257 -9.735160 -11.778580 -0.114160 0.138026 -0.699164
 16 -4.990947 -20.855865 -11.972141 0.107342 -0.124349 -0.503130
 17 1.952644 -90.186760 -0.924713 0.000000 -0.000000 0.000000
 18 -35.001934 9.597222 -70.247475 0.000000 -0.000000 0.000000
 19 3.759450 -1.898643 -3.541321 0.000000 -0.000000 0.000000
 20 -7.698014 1.934286 15.877937 -0.565580 -0.403772 0.364941
 21 -12.721184 -0.083347 -12.838242 0.350879 -0.485336 0.230535
 22 -9.167519 -10.101494 -11.648899 0.579793 0.809829 1.024413
 23 -3.642090 -2.032094 -4.543644 0.000000 -0.000000 0.000000
 24 -0.409780 2.428936 22.341385 0.000000 0.000001 -1.169373
 25 -0.380096 -2.887195 20.845375 0.000000 -0.000000 0.000000
 26 -0.040495 -0.674471 8.862854 0.000000 -0.000000 0.000000
 27 -0.325039 -1.113430 -83.015961 0.000000 -0.000000 0.000000
 28 -0.325039 -1.113430 -83.015961 0.000000 -0.000000 0.000000
time 3
  0 -5.113562 -3.392895 0.796835 0.000000 -0.000000 0.000000
  1 -7.310884 -0.101110 174.348495 0.000000 -0.000000 0.000000
  2 -5.113562 -6.584737 70.616058 0.052360 -0.000000 0.000000
  3 0.325039 1.113431 -5.098999 -0.004508 0.000000 0.000000
  4 6.206746 -0.124160 -11.733650 -0.922679 0.000000 0.000000
  5 2.376919 1.428909 -19.463911 0.913677 0.000000 -0.000000
  6 1.646507 1.612118 -34.692955 0.022912 0.000000 -0.000000
  7 0.219323 -4.030296 -4.600571 0.000000 -0.000000 0.000000
  8 -6.833118 -0.124160 -11.733650 -0.075879 0.286305 -0.339914
  9 -2.998632 1.160222 -19.583820 0.627330 -0.117532 0.150476
 10 -1.356798 1.880816 -34.573044 -0.318235 0.018242 -0.094814
 11 -0.258572 -4.030295 -4.908824 0.000000 -0.000000 0.000000
 12 0.325039 1.113430 0.809013 -0.030656 0.065386 1.132931
 13 7.054491 1.815095 15.713692 0.000000 0.000000 -0.000000
 14 12.909767 -0.165813 -12.867264 -0.000000 -0.000000 0.000000
 15 11.504260 -9.735163 -11.778580 -0.114160 0.138026 -0.699164
 16 -4.990951 -20.855867 -11.972137 0.107342 -0.124349 -0.503130
 17 1.952639 -90.186783 -0.924717 0.000000 -0.000000 0.000000
 18 -35.001938 9.597220 -70.247467 0.000000 -0.000000 0.000000
 19 3.759451 -1.898643 -3.541317 0.000000 -0.000000 0.000000
 20 -7.698015 1.934285 15.877945 -0.565580 -0.403772 0.364941
 21 -12.721182 -0.083347 -12.838242 0.350879 -0.485336 0.230535
 22 -9.167509 -10.101494 -11.648899 0.579793 0.809829 1.024413
 23 -3.642086 -2.032096 -4.543640 0.000000 -0.000000 0.000000
 24 -0.409780 2.428935 22.341385 0.000000 0.000001 -1.169373
 25 -0.380096 -2.887196 20.845360 0.000000 -0.000000 0.000000
 26 -0.040494 -0.674471 8.862846 0.000000 -0.000000 0.000000
 27 -0.325039 -1.113430 -83.015961 0.000000 -0.000000 0.000000
 28 -0.325039 -1.113430 -83.015961 0.000000 -0.000000 0.000000
time 4
  0 -5.113562 -3.392895 0.796835 0.000000 -0.000000 0.000000
  1 -7.310884 -0.101110 174.348495 0.000000 -0.000000 0.000000
  2 -5.113562 -6.866328 70.616058 0.052360 -0.000000 0.000000
  3 0.325039 1.113430 -5.098999 -0.004508 0.000000 0.000000
  4 6.206746 -0.124160 -11.733646 -0.920522 0.000000 0.000000
  5 2.376919 1.428909 -19.463913 0.864908 0.000000 -0.000000
  6 1.646507 1.612120 -34.692951 0.074182 0.000000 -0.000000
  7 0.219323 -4.030294 -4.600569 0.000000 -0.000000 0.000000
  8 -6.833118 -0.124160 -11.733646 -0.075879 0.286305 -0.339914
  9 -2.998631 1.160221 -19.583820 0.627330 -0.117532 0.150476
 10 -1.356798 1.880806 -34.573040 -0.318235 0.018242 -0.094814
 11 -0.258572 -4.030296 -4.908826 0.000000 -0.000000 0.000000
 12 0.325039 1.113430 0.809021 -0.039630 0.084296 1.131867
 13 7.054489 1.815096 15.713707 0.000000 -0.000000 -0.000000
 14 12.909764 -0.165810 -12.867271 0.000000 0.000000 -0.000000
 15 11.504251 -9.735159 -11.778587 -0.114160 0.138026 -0.699164
 16 -4.990939 -20.855864 -11.972141 0.107342 -0.124349 -0.503130
 17 1.952665 -90.186745 -0.924709 0.000000 -0.000000 0.000000
 18 -35.001930 9.597230 -70.247452 0.000000 -0.000000 0.000000
 19 3.759452 -1.898642 -3.541325 0.000000 -0.000000 0.000000
 20 -7.698012 1.934285 15.877953 -0.565580 -0.403772 0.364940
 21 -12.721182 -0.083344 -12.838249 0.350879 -0.485336 0.230535
 22 -9.167509 -10.101492 -11.648895 0.579793 0.809829 1.024413
 23 -3.642086 -2.032095 -4.543636 0.000000 -0.000000 0.000000
 24 -0.409780 2.428935 22.341393 0.000000 0.000001 -1.169374
 25 -0.380096 -2.887195 20.845375 0.000000 -0.000000 0.000000
 26 -0.040495 -0.674471 8.862854 0.000000 -0.000000 0.000000
 27 -0.325039 -1.113430 -83.015961 0.000000 -0.000000 0.000000
 28 -0.325039 -1.113430 -83.015961 0.000000 -0.000000 0.000000
time 5
  0 -5.113562 -3.392895 0.796835 0.000000 -0.000000 0.000000
  1 -7.310884 -0.101110 174.348495 0.000000 -0.000000 0.000000
  2 -5.113562 1.054877 70.616058 0.052360 -0.000000 0.000000
  3 0.325039 1.113430 -5.098999 -0.004509 0.000000 0.000000
  4 6.206746 -0.124160 -11.733643 -0.918398 0.000000 0.000000
  5 2.376919 1.428909 -19.463917 0.807090 0.000000 -0.000000
  6 1.646507 1.612119 -34.692955 0.138496 0.000000 -0.000000
  7 0.219323 -4.030297 -4.600570 0.000000 -0.000000 0.000000
  8 -6.833118 -0.124160 -11.733643 -0.075879 0.286305 -0.339914
  9 -2.998634 1.160220 -19.583822 0.627330 -0.117532 0.150476
 10 -1.356798 1.880806 -34.573048 -0.318235 0.018242 -0.094814
 11 -0.258570 -4.030298 -4.908826 0.000000 -0.000000 0.000000
 12 0.325039 1.113430 0.809013 -0.050269 0.106715 1.130605
 13 7.054490 1.815096 15.713699 -0.000000 -0.000000 -0.000000
 14 12.909767 -0.165810 -12.867264 -0.000000 0.000000 0.000000
 15 11.504252 -9.735162 -11.778584 -0.114160 0.138026 -0.699164
 16 -4.990944 -20.855864 -11.972137 0.107342 -0.124349 -0.503130
 17 1.952660 -90.186752 -0.924713 0.000000 -0.000000 0.000000
 18 -35.001934 9.597225 -70.247475 0.000000 -0.000000 0.000000
 19 3.759456 -1.898643 -3.541321 0.000000 -0.000000 0.000000
 20 -7.698013 1.934284 15.877945 -0.565580 -0.403772 0.364941
 21 -12.721180 -0.083344 -12.838238 0.350879 -0.485336 0.230535
 22 -9.167513 -10.101490 -11.648899 0.579793 0.809829 1.024413
 23 -3.642082 -2.032095 -4.543640 0.000000 -0.000000 0.000000
 24 -0.409780 2.428935 22.341377 0.000000 0.000001 -1.169374
 25 -0.380095 -2.887196 20.845375 0.000000 -0.000000 0.000000
 26 -0.040495 -0.674471 8.862846 0.000000 -0.000000 0.000000
 27 -0.325038 -1.113430 -83.015953 0.000000 -0.000000 0.000000
 28 -0.325038 -1.113430 -83.015953 0.000000 -0.000000 0.000000
time 6
  0 -5.113562 -3.392895 0.796835 0.000000 -0.000000 0.000000
  1 -7.310884 -0.101110 174.348495 0.000000 -0.000000 0.000000
  2 -5.113562 11.891870 70.616058 0.052360 -0.000000 0.000000
  3 0.325039 1.113428 -5.098999 -0.004509 0.000000 0.000000
  4 6.206746 -0.124159 -11.733643 -0.916821 0.000000 0.000000
  5 2.376919 1.428911 -19.463915 0.746254 0.000000 -0.000000
  6 1.646507 1.612119 -34.692955 0.211548 0.000000 -0.000000
  7 0.219323 -4.030296 -4.600570 0.000000 -0.000000 0.000000
  8 -6.833118 -0.124159 -11.733643 -0.075879 0.286305 -0.339914
  9 -2.998631 1.160223 -19.583828 0.627330 -0.117532 0.150476
 10 -1.356796 1.880814 -34.573044 -0.318235 0.018242 -0.094814
 11 -0.258572 -4.030298 -4.908822 0.000000 -0.000000 0.000000
 12 0.325039 1.113430 0.809013 -0.061464 0.130303 1.129278
 13 7.054489 1.815097 15.713692 -0.000000 -0.000000 -0.000000
 14 12.909766 -0.165810 -12.867264 -0.000000 -0.000000 0.000000
 15 11.504253 -9.735160 -11.778584 -0.114160 0.138026 -0.699164
 16 -4.990946 -20.855865 -11.972145 0.107342 -0.124349 -0.503130
 17 1.952660 -90.186768 -0.924713 0.000000 -0.000000 0.000000
 18 -35.001934 9.597226 -70.247482 0.000000 -0.000000 0.000000
 19 3.759449 -1.898639 -3.541321 0.000000 -0.000000 0.000000
 20 -7.698014 1.934284 15.877945 -0.565580 -0.403772 0.364941
 21 -12.721182 -0.083347 -12.838245 0.350879 -0.485336 0.230535
 22 -9.167511 -10.101490 -11.648891 0.579793 0.809829 1.024413
 23 -3.642082 -2.032093 -4.543640 0.000000 -0.000000 0.000000
 24 -0.409780 2.428935 22.341385 0.000000 0.000001 -1.169374
 25 -0.380095 -2.887197 20.845375 0.000000 -0.000000 0.000000
 26 -0.040495 -0.674471 8.862854 0.000000 -0.000000 0.000000
 27 -0.325037 -1.113430 -83.015961 0.000000 -0.000000 0.000000
 28 -0.325037 -1.113430 -83.015961 0.000000 -0.000000 0.000000
time 7
  0 -5.113562 -3.392895 0.796835 0.000000 -0.000000 0.000000
  1 -7.310884 -0.101110 174.348495 0.000000 -0.000000 0.000000
  2 -5.113562 16.428255 70.616058 0.052360 -0.000000 0.000000
  3 0.325039 1.113430 -5.098999 -0.004509 0.000000 0.000000
  4 6.206746 -0.124161 -11.733643 -0.916828 0.000000 0.000000
  5 2.376919 1.428909 -19.463909 0.688436 0.000000 -0.000000
  6 1.646507 1.612118 -34.692955 0.290139 0.000000 -0.000000
  7 0.219322 -4.030296 -4.600569 0.000000 -0.000000 0.000000
  8 -6.833118 -0.124161 -11.733643 -0.075879 0.286305 -0.339914
  9 -2.998631 1.160221 -19.583820 0.627330 -0.117532 0.150476
 10 -1.356800 1.880814 -34.573044 -0.318235 0.018242 -0.094814
 11 -0.258572 -4.030300 -4.908824 0.000000 -0.000000 0.000000
 12 0.325039 1.113428 0.809013 -0.072103 0.152722 1.128016
 13 7.054491 1.815095 15.713715 0.000000 0.000000 0.000000
 14 12.909769 -0.165809 -12.867271 0.000000 -0.000000 -0.000000
 15 11.504261 -9.735161 -11.778580 -0.114160 0.138026 -0.699164
 16 -4.990946 -20.855867 -11.972141 0.107342 -0.124349 -0.503130
 17 1.952658 -90.186790 -0.924717 0.000000 -0.000000 0.000000
 18 -35.001934 9.597223 -70.247475 0.000000 -0.000000 0.000000
 19 3.759453 -1.898641 -3.541321 0.000000 -0.000000 0.000000
 20 -7.698014 1.934284 15.877953 -0.565580 -0.403772 0.364941
 21 -12.721178 -0.083340 -12.838242 0.350879 -0.485336 0.230535
 22 -9.167507 -10.101492 -11.648899 0.579793 0.809828 1.024413
 23 -3.642082 -2.032097 -4.543644 0.000000 -0.000000 0.000000
 24 -0.409779 2.428935 22.341400 0.000000 0.000001 -1.169374
 25 -0.380095 -2.887197 20.845367 0.000000 -0.000000 0.000000
 26 -0.040493 -0.674473 8.862862 0.000000 -0.000000 0.000000
 27 -0.325042 -1.113432 -83.015961 0.000000 -0.000000 0.000000
 28 -0.325042 -1.113432 -83.015961 0.000000 -0.000000 0.000000
time 8
  0 -5.113562 -3.392895 0.796835 0.000000 -0.000000 0.000000
  1 -7.310884 -0.101110 174.348495 0.000000 -0.000000 0.000000
  2 -5.113562 16.211432 70.616058 0.052360 -0.000000 0.000000
  3 0.325039 1.113430 -5.098999 -0.004509 0.000000 0.000000
  4 6.206746 -0.124159 -11.733643 -0.949820 0.000000 0.000000
  5 2.376919 1.428911 -19.463913 0.639667 0.000000 -0.000000
  6 1.646507 1.612119 -34.692947 0.433911 0.000000 -0.000000
  7 0.219322 -4.030296 -4.600569 0.000000 -0.000000 0.000000
  8 -6.833118 -0.124159 -11.733643 -0.075879 0.286305 -0.339914
  9 -2.998631 1.160223 -19.583820 0.627330 -0.117532 0.150476
 10 -1.356796 1.880817 -34.573044 -0.318235 0.018242 -0.094814
 11 -0.258572 -4.030289 -4.908822 0.000000 -0.000000 0.000000
 12 0.325039 1.113428 0.809013 -0.081078 0.171631 1.126952
 13 7.054490 1.815096 15.713699 -0.000000 0.000000 -0.000000
 14 12.909770 -0.165812 -12.867271 0.000000 -0.000000 -0.000000
 15 11.504257 -9.735163 -11.778587 -0.114160 0.138026 -0.699164
 16 -4.990951 -20.855865 -11.972137 0.107342 -0.124349 -0.503130
 17 1.952639 -90.186768 -0.924713 0.000000 -0.000000 0.000000
 18 -35.001934 9.597223 -70.247475 0.000000 -0.000000 0.000000
 19 3.759449 -1.898643 -3.541321 0.000000 -0.000000 0.000000
 20 -7.698014 1.934285 15.877945 -0.565580 -0.403772 0.364941
 21 -12.721180 -0.083344 -12.838238 0.350879 -0.485336 0.230535
 22 -9.167507 -10.101492 -11.648899 0.579793 0.809828 1.024413
 23 -3.642086 -2.032095 -4.543636 0.000000 -0.000000 0.000000
 24 -0.409780 2.428935 22.341400 0.000001 0.000001 -1.169375
 25 -0.380095 -2.887197 20.845375 0.000000 -0.000000 0.000000
 26 -0.040494 -0.674472 8.862862 0.000000 -0.000000 0.000000
 27 -0.325037 -1.113431 -83.015961 0.000000 -0.000000 0.000000
 28 -0.325037 -1.113431 -83.015961 0.000000 -0.000000 0.000000
time 9
  0 -5.113562 -3.392895 0.796835 0.000000 -0.000000 0.000000
  1 -7.310884 -0.101110 174.348495 0.000000 -0.000000 0.000000
  2 -5.113562 15.677492 70.616058 0.052360 -0.000000 0.000000
  3 0.325039 1.113432 -5.098999 -0.004509 0.000000 0.000000
  4 6.206746 -0.124163 -11.733646 -1.002329 0.000000 0.000000
  5 2.376919 1.428909 -19.463913 0.605982 0.000000 -0.000000
  6 1.646507 1.612120 -34.692951 0.600689 0.000001 -0.000000
  7 0.219322 -4.030296 -4.600570 0.000000 -0.000000 0.000000
  8 -6.833118 -0.124163 -11.733646 -0.075879 0.286305 -0.339914
  9 -2.998632 1.160221 -19.583822 0.627330 -0.117532 0.150476
 10 -1.356798 1.880810 -34.573040 -0.318235 0.018242 -0.094814
 11 -0.258568 -4.030296 -4.908821 0.000000 -0.000000 0.000000
 12 0.325039 1.113430 0.809013 -0.087276 0.184693 1.126217
 13 7.054492 1.815095 15.713699 -0.000000 -0.000000 -0.000000
 14 12.909767 -0.165812 -12.867264 0.000000 0.000000 0.000000
 15 11.504253 -9.735162 -11.778587 -0.114160 0.138026 -0.699164
 16 -4.990945 -20.855865 -11.972137 0.107342 -0.124349 -0.503130
 17 1.952658 -90.186760 -0.924713 0.000000 -0.000000 0.000000
 18 -35.001930 9.597228 -70.247467 0.000000 -0.000000 0.000000
 19 3.759451 -1.898645 -3.541321 0.000000 -0.000000 0.000000
 20 -7.698013 1.934284 15.877945 -0.565580 -0.403772 0.364941
 21 -12.721180 -0.083347 -12.838238 0.350879 -0.485336 0.230535
 22 -9.167507 -10.101492 -11.648899 0.579793 0.809829 1.024413
 23 -3.642086 -2.032095 -4.543636 0.000000 -0.000000 0.000000
 24 -0.409781 2.428936 22.341385 0.000001 0.000001 -1.169375
 25 -0.380095 -2.887197 20.845367 0.000000 -0.000000 0.000000
 26 -0.040493 -0.674470 8.862846 0.000000 -0.000000 0.000000
 27 -0.325037 -1.113430 -83.015953 0.000000 -0.000000 0.000000
 28 -0.325037 -1.113430 -83.015953 0.000000 -0.000000 0.000000
time 10
  0 -5.113562 -3.392895 0.796835 0.000000 -0.000000 0.000000
  1 -7.310884 -0.101110 174.348495 0.000000 -0.000000 0.000000
  2 -5.113562 14.866385 70.616058 0.052360 -0.000000 0.000000
  3 0.325039 1.113430 -5.098999 -0.004509 0.000000 0.000000
  4 6.206746 -0.124159 -11.733643 -1.029745 0.000000 0.000000
  5 2.376919 1.428909 -19.463911 0.593412 0.000000 -0.000000
  6 1.646507 1.612119 -34.692951 0.680679 0.000001 -0.000000
  7 0.219322 -4.030296 -4.600570 0.000000 -0.000000 0.000000
  8 -6.833118 -0.124159 -11.733643 -0.075879 0.286305 -0.339914
  9 -2.998629 1.160218 -19.583817 0.627330 -0.117532 0.150476
 10 -1.356800 1.880810 -34.573048 -0.318235 0.018242 -0.094814
 11 -0.258568 -4.030298 -4.908824 0.000000 -0.000000 0.000000
 12 0.325039 1.113432 0.809013 -0.089589 0.189566 1.125943
 13 7.054492 1.815096 15.713699 -0.000000 0.000000 -0.000000
 14 12.909769 -0.165810 -12.867256 -0.000000 -0.000000 -0.000000
 15 11.504257 -9.735163 -11.778580 -0.114160 0.138026 -0.699164
 16 -4.990948 -20.855865 -11.972134 0.107342 -0.124349 -0.503130
 17 1.952656 -90.186790 -0.924717 0.000000 -0.000000 0.000000
 18 -35.001930 9.597224 -70.247452 0.000000 -0.000000 0.000000
 19 3.759451 -1.898642 -3.541313 0.000000 -0.000000 0.000000
 20 -7.698013 1.934287 15.877945 -0.565580 -0.403772 0.364941
 21 -12.721178 -0.083347 -12.838245 0.350879 -0.485336 0.230535
 22 -9.167503 -10.101494 -11.648891 0.579793 0.809829 1.024413
 23 -3.642086 -2.032097 -4.543636 0.000000 -0.000000 0.000000
 24 -0.409780 2.428936 22.341385 0.000001 0.000001 -1.169375
 25 -0.380095 -2.887195 20.845367 0.000000 -0.000000 0.000000
 26 -0.040495 -0.674470 8.862854 0.000000 -0.000000 0.000000
 27 -0.325041 -1.113429 -83.015953 0.000000 -0.000000 0.000000
 28 -0.325041 -1.113429 -83.015953 0.000000 -0.000000 0.000000
time 11
  0 -5.113562 -3.392895 0.796835 0.000000 -0.000000 0.000000
  1 -7.310884 -0.101110 174.348495 0.000000 -0.000000 0.000000
  2 -5.113562 13.818063 70.616058 0.052360 -0.000000 0.000000
  3 0.325039 1.113430 -5.098999 -0.004509 0.000000 0.000000
  4 6.206746 -0.124159 -11.733646 -1.028410 0.000000 0.000000
  5 2.376919 1.428909 -19.463913 0.598082 0.000000 -0.000000
  6 1.646507 1.612120 -34.692955 0.671710 0.000001 -0.000000
  7 0.219323 -4.030295 -4.600568 0.000000 -0.000000 0.000000
  8 -6.833118 -0.124159 -11.733646 -0.075879 0.286305 -0.339914
  9 -2.998632 1.160221 -19.583817 0.627330 -0.117532 0.150476
 10 -1.356798 1.880810 -34.573036 -0.318235 0.018242 -0.094814
 11 -0.258568 -4.030294 -4.908822 0.000000 -0.000000 0.000000
 12 0.325039 1.113430 0.809013 -0.088730 0.187756 1.126045
 13 7.054489 1.815096 15.713699 0.000000 -0.000000 -0.000000
 14 12.909766 -0.165811 -12.867264 -0.000000 -0.000000 -0.000000
 15 11.504257 -9.735163 -11.778584 -0.114160 0.138026 -0.699164
 16 -4.990948 -20.855864 -11.972137 0.107342 -0.124349 -0.503130
 17 1.952644 -90.186790 -0.924713 0.000000 -0.000000 0.000000
 18 -35.001930 9.597220 -70.247467 0.000000 -0.000000 0.000000
 19 3.759453 -1.898640 -3.541321 0.000000 -0.000000 0.000000
 20 -7.698014 1.934284 15.877945 -0.565580 -0.403772 0.364940
 21 -12.721182 -0.083340 -12.838249 0.350879 -0.485336 0.230535
 22 -9.167509 -10.101492 -11.648891 0.579793 0.809829 1.024413
 23 -3.642082 -2.032093 -4.543640 0.000000 -0.000000 0.000000
 24 -0.409781 2.428935 22.341385 0.000001 0.000001 -1.169375
 25 -0.380096 -2.887193 20.845360 0.000000 -0.000000 0.000000
 26 -0.040495 -0.674471 8.862854 0.000000 -0.000000 0.000000
 27 -0.325040 -1.113431 -83.015953 0.000000 -0.000000 0.000000
 28 -0.325040 -1.113431 -83.015953 0.000000 -0.000000 0.000000
time 12
  0 -5.113562 -3.392895 0.796835 0.000000 -0.000000 0.000000
  1 -7.310884 -0.101110 174.348495 0.000000 -0.000000 0.000000
  2 -5.113562 12.572478 70.616058 0.052360 -0.000000 0.000000
  3 0.325039 1.113430 -5.098999 -0.004509 0.000000 0.000000
  4 6.206746 -0.124161 -11.733643 -1.024656 0.000000 0.000000
  5 2.376919 1.428909 -19.463917 0.611223 0.000000 -0.000000
  6 1.646507 1.612117 -34.692955 0.646472 0.000001 -0.000000
  7 0.219322 -4.030297 -4.600570 0.000000 -0.000000 0.000000
  8 -6.833118 -0.124161 -11.733643 -0.075879 0.286305 -0.339914
  9 -2.998632 1.160219 -19.583820 0.627330 -0.117532 0.150476
 10 -1.356796 1.880817 -34.573044 -0.318235 0.018242 -0.094814
 11 -0.258572 -4.030294 -4.908822 0.000000 -0.000000 0.000000
 12 0.325039 1.113430 0.809013 -0.086312 0.182661 1.126331
 13 7.054490 1.815096 15.713707 -0.000000 -0.000000 -0.000000
 14 12.909768 -0.165812 -12.867271 -0.000000 0.000000 0.000000
 15 11.504257 -9.735161 -11.778584 -0.114160 0.138026 -0.699164
 16 -4.990949 -20.855869 -11.972134 0.107342 -0.124349 -0.503130
 17 1.952650 -90.186775 -0.924713 0.000000 -0.000000 0.000000
 18 -35.001938 9.597223 -70.247467 0.000000 -0.000000 0.000000
 19 3.759453 -1.898643 -3.541321 0.000000 -0.000000 0.000000
 20 -7.698013 1.934285 15.877945 -0.565580 -0.403772 0.364941
 21 -12.721182 -0.083344 -12.838242 0.350879 -0.485336 0.230535
 22 -9.167507 -10.101490 -11.648895 0.579793 0.809829 1.024413
 23 -3.642086 -2.032095 -4.543636 0.000000 -0.000000 0.000000
 24 -0.409779 2.428936 22.341393 0.000001 0.000001 -1.169375
 25 -0.380095 -2.887197 20.845367 0.000000 -0.000000 0.000000
 26 -0.040495 -0.674469 8.862862 0.000000 -0.000000 0.000000
 27 -0.325038 -1.113430 -83.015961 0.000000 -0.000000 0.000000
 28 -0.325038 -1.113430 -83.015961 0.000000 -0.000000 0.000000
time 13
  0 -5.113562 -3.392895 0.796835 0.000000 -0.000000 0.000000
  1 -7.310884 -0.101110 174.348495 0.000000 -0.000000 0.000000
  2 -5.113562 11.169583 70.616058 0.052360 -0.000000 0.000000
  3 0.325039 1.113430 -5.098999 -0.004509 0.000000 0.000000
  4 6.206746 -0.124160 -11.733639 -1.018854 0.000000 0.000000
  5 2.376919 1.428905 -19.463909 0.631531 0.000000 -0.000000
  6 1.646508 1.612118 -34.692951 0.607468 0.000001 -0.000000
  7 0.219322 -4.030297 -4.600570 0.000000 -0.000000 0.000000
  8 -6.833118 -0.124160 -11.733639 -0.075879 0.286305 -0.339914
  9 -2.998631 1.160222 -19.583826 0.627330 -0.117532 0.150476
 10 -1.356798 1.880810 -34.573044 -0.318235 0.018242 -0.094814
 11 -0.258568 -4.030296 -4.908827 0.000000 -0.000000 0.000000
 12 0.325039 1.113431 0.809013 -0.082575 0.174786 1.126775
 13 7.054493 1.815097 15.713707 -0.000000 -0.000000 -0.000000
 14 12.909767 -0.165813 -12.867264 -0.000000 0.000000 0.000000
 15 11.504259 -9.735164 -11.778587 -0.114160 0.138026 -0.699164
 16 -4.990948 -20.855864 -11.972137 0.107342 -0.124349 -0.503130
 17 1.952642 -90.186768 -0.924721 0.000000 -0.000000 0.000000
 18 -35.001930 9.597215 -70.247452 0.000000 -0.000000 0.000000
 19 3.759451 -1.898641 -3.541321 0.000000 -0.000000 0.000000
 20 -7.698013 1.934285 15.877953 -0.565580 -0.403772 0.364940
 21 -12.721180 -0.083347 -12.838238 0.350879 -0.485336 0.230535
 22 -9.167507 -10.101500 -11.648895 0.579793 0.809829 1.024413
 23 -3.642086 -2.032097 -4.543644 0.000000 -0.000000 0.000000
 24 -0.409779 2.428936 22.341393 0.000001 0.000001 -1.169375
 25 -0.380096 -2.887194 20.845375 0.000000 -0.000000 0.000000
 26 -0.040494 -0.674471 8.862862 0.000000 -0.000000 0.000000
 27 -0.325040 -1.113433 -83.015953 0.000000 -0.000000 0.000000
 28 -0.325040 -1.113433 -83.015953 0.000000 -0.000000 0.000000
time 14
  0 -5.113562 -3.392895 0.796835 0.000000 -0.000000 0.000000
  1 -7.310884 -0.101110 174.348495 0.000000 -0.000000 0.000000
  2 -5.113562 9.649329 70.616058 0.052360 -0.000000 0.000000
  3 0.325039 1.113431 -5.098999 -0.004509 0.000000 0.000000
  4 6.206746 -0.124161 -11.733646 -1.011376 0.000000 0.000000
  5 2.376919 1.428909 -19.463913 0.657703 0.000000 -0.000000
  6 1.646507 1.612120 -34.692963 0.557201 0.000001 -0.000000
  7 0.219322 -4.030297 -4.600571 0.000000 -0.000000 0.000000
  8 -6.833118 -0.124161 -11.733646 -0.075879 0.286305 -0.339914
  9 -2.998632 1.160221 -19.583817 0.627330 -0.117532 0.150476
 10 -1.356798 1.880816 -34.573044 -0.318235 0.018242 -0.094814
 11 -0.258570 -4.030294 -4.908825 0.000000 -0.000000 0.000000
 12 0.325039 1.113431 0.809013 -0.077759 0.164638 1.127346
 13 7.054487 1.815095 15.713699 -0.000000 -0.000000 0.000000
 14 12.909765 -0.165812 -12.867271 -0.000000 0.000000 -0.000000
 15 11.504259 -9.735161 -11.778576 -0.114160 0.138026 -0.699164
 16 -4.990941 -20.855860 -11.972137 0.107342 -0.124349 -0.503130
 17 1.952663 -90.186752 -0.924717 0.000000 -0.000000 0.000000
 18 -35.001930 9.597225 -70.247452 0.000000 -0.000000 0.000000
 19 3.759451 -1.898643 -3.541313 0.000000 -0.000000 0.000000
 20 -7.698012 1.934286 15.877937 -0.565580 -0.403772 0.364940
 21 -12.721176 -0.083340 -12.838242 0.350879 -0.485336 0.230535
 22 -9.167507 -10.101492 -11.648891 0.579793 0.809829 1.024413
 23 -3.642086 -2.032095 -4.543644 0.000000 -0.000000 0.000000
 24 -0.409781 2.428935 22.341385 0.000001 0.000001 -1.169375
 25 -0.380095 -2.887196 20.845375 0.000000 -0.000000 0.000000
 26 -0.040495 -0.674471 8.862846 0.000000 -0.000000 0.000000
 27 -0.325039 -1.113430 -83.015953 0.000000 -0.000000 0.000000
 28 -0.325039 -1.113430 -83.015953 0.000000 -0.000000 0.000000
time 15
  0 -5.113562 -3.392895 0.796835 0.000000 -0.000000 0.000000
  1 -7.310884 -0.101110 174.348495 0.000000 -0.000000 0.000000
  2 -5.113562 8.051667 70.616058 0.052360 -0.000000 0.000000
  3 0.325039 1.113431 -5.098999 -0.004509 0.000000 0.000000
  4 6.206746 -0.124159 -11.733650 -1.002595 0.000000 0.000000
  5 2.376919 1.428905 -19.463911 0.688436 0.000000 -0.000000
  6 1.646507 1.612118 -34.692955 0.498173 0.000001 -0.000000
  7 0.219323 -4.030297 -4.600570 0.000000 -0.000000 0.000000
  8 -6.833118 -0.124159 -11.733650 -0.075879 0.286305 -0.339914
  9 -2.998631 1.160222 -19.583817 0.627330 -0.117532 0.150476
 10 -1.356802 1.880819 -34.573044 -0.318235 0.018242 -0.094814
 11 -0.258570 -4.030300 -4.908823 0.000000 -0.000000 0.000000
 12 0.325039 1.113431 0.809013 -0.072103 0.152722 1.128016
 13 7.054489 1.815095 15.713707 -0.000000 0.000000 0.000000
 14 12.909766 -0.165812 -12.867264 -0.000000 0.000000 0.000000
 15 11.504261 -9.735163 -11.778584 -0.114160 0.138026 -0.699164
 16 -4.990945 -20.855865 -11.972137 0.107342 -0.124349 -0.503130
 17 1.952637 -90.186768 -0.924717 0.000000 -0.000000 0.000000
 18 -35.001930 9.597214 -70.247459 0.000000 -0.000000 0.000000
 19 3.759453 -1.898643 -3.541321 0.000000 -0.000000 0.000000
 20 -7.698014 1.934285 15.877945 -0.565580 -0.403772 0.364941
 21 -12.721182 -0.083347 -12.838242 0.350879 -0.485336 0.230535
 22 -9.167507 -10.101498 -11.648891 0.579793 0.809828 1.024413
 23 -3.642086 -2.032097 -4.543644 0.000000 -0.000000 0.000000
 24 -0.409781 2.428935 22.341393 0.000001 0.000001 -1.169375
 25 -0.380095 -2.887196 20.845360 0.000000 -0.000000 0.000000
 26 -0.040495 -0.674471 8.862854 0.000000 -0.000000 0.000000
 27 -0.325042 -1.113431 -83.015961 0.000000 -0.000000 0.000000
 28 -0.325042 -1.113431 -83.015961 0.000000 -0.000000 0.000000
time 16
  0 -5.113562 -3.392895 0.796835 0.000000 -0.000000 0.000000
  1 -7.310884 -0.101110 174.348495 0.000000 -0.000000 0.000000
  2 -5.113562 6.416552 70.616058 0.052360 -0.000000 0.000000
  3 0.325039 1.113430 -5.098999 -0.004510 0.000000 0.000000
  4 6.206746 -0.124160 -11.733654 -0.992883 0.000000 0.000000
  5 2.376919 1.428905 -19.463911 0.722427 0.000000 -0.000000
  6 1.646507 1.612120 -34.692963 0.432888 0.000001 -0.000000
  7 0.219323 -4.030296 -4.600569 0.000000 -0.000000 0.000000
  8 -6.833118 -0.124160 -11.733654 -0.075879 0.286305 -0.339914
  9 -2.998631 1.160219 -19.583826 0.627330 -0.117532 0.150476
 10 -1.356798 1.880817 -34.573048 -0.318236 0.018242 -0.094814
 11 -0.258570 -4.030296 -4.908825 0.000000 -0.000000 0.000000
 12 0.325039 1.113430 0.809013 -0.065849 0.139542 1.128758
 13 7.054490 1.815096 15.713699 0.000000 -0.000000 0.000000
 14 12.909768 -0.165812 -12.867264 -0.000000 -0.000000 -0.000000
 15 11.504261 -9.735163 -11.778580 -0.114160 0.138026 -0.699164
 16 -4.990943 -20.855865 -11.972137 0.107342 -0.124349 -0.503130
 17 1.952650 -90.186775 -0.924717 0.000000 -0.000000 0.000000
 18 -35.001938 9.597222 -70.247452 0.000000 -0.000000 0.000000
 19 3.759453 -1.898644 -3.541317 0.000000 -0.000000 0.000000
 20 -7.698015 1.934286 15.877945 -0.565580 -0.403772 0.364941
 21 -12.721178 -0.083347 -12.838245 0.350879 -0.485336 0.230535
 22 -9.167509 -10.101492 -11.648891 0.579793 0.809829 1.024413
 23 -3.642082 -2.032097 -4.543636 0.000000 -0.000000 0.000000
 24 -0.409780 2.428935 22.341385 0.000000 0.000001 -1.169374
 25 -0.380095 -2.887194 20.845367 0.000000 -0.000000 0.000000
 26 -0.040494 -0.674471 8.862846 0.000000 -0.000000 0.000000
 27 -0.325038 -1.113431 -83.015945 0.000000 -0.000000 0.000000
 28 -0.325038 -1.113431 -83.015945 0.000000 -0.000000 0.000000
time 17
  0 -5.113562 -3.392895 0.796835 0.000000 -0.000000 0.000000
  1 -7.310884 -0.101110 174.348495 0.000000 -0.000000 0.000000
  2 -5.113562 4.783933 70.616058 0.052360 -0.000000 0.000000
  3 0.325039 1.113431 -5.098999 -0.004510 0.000000 0.000000
  4 6.206746 -0.124160 -11.733650 -0.982613 0.000000 0.000000
  5 2.376919 1.428905 -19.463913 0.758373 0.000000 -0.000000
  6 1.646508 1.612119 -34.692951 0.363849 0.000001 -0.000000
  7 0.219322 -4.030297 -4.600570 0.000000 -0.000000 0.000000
  8 -6.833118 -0.124160 -11.733650 -0.075879 0.286305 -0.339914
  9 -2.998632 1.160221 -19.583830 0.627330 -0.117532 0.150476
 10 -1.356800 1.880816 -34.573044 -0.318235 0.018242 -0.094814
 11 -0.258570 -4.030296 -4.908826 0.000000 -0.000000 0.000000
 12 0.325039 1.113430 0.809013 -0.059234 0.125604 1.129542
 13 7.054489 1.815096 15.713699 0.000000 -0.000000 0.000000
 14 12.909762 -0.165812 -12.867264 -0.000000 0.000000 -0.000000
 15 11.504251 -9.735164 -11.778580 -0.114160 0.138026 -0.699164
 16 -4.990940 -20.855862 -11.972137 0.107342 -0.124349 -0.503130
 17 1.952662 -90.186760 -0.924721 0.000000 -0.000000 0.000000
 18 -35.001930 9.597225 -70.247467 0.000000 -0.000000 0.000000
 19 3.759454 -1.898643 -3.541321 0.000000 -0.000000 0.000000
 20 -7.698011 1.934285 15.877945 -0.565580 -0.403772 0.364940
 21 -12.721179 -0.083347 -12.838238 0.350879 -0.485336 0.230535
 22 -9.167515 -10.101490 -11.648891 0.579793 0.809829 1.024413
 23 -3.642082 -2.032093 -4.543636 0.000000 -0.000000 0.000000
 24 -0.409779 2.428935 22.341385 0.000000 0.000001 -1.169374
 25 -0.380095 -2.887195 20.845367 0.000000 -0.000000 0.000000
 26 -0.040494 -0.674471 8.862854 0.000000 -0.000000 0.000000
 27 -0.325039 -1.113430 -83.015961 0.000000 -0.000000 0.000000
 28 -0.325039 -1.113430 -83.015961 0.000000 -0.000000 0.000000
time 18
  0 -5.113562 -3.392895 0.796835 0.000000 -0.000000 0.000000
  1 -7.310884 -0.101110 174.348495 0.000000 -0.000000 0.000000
  2 -5.113562 3.193762 70.616058 0.052360 -0.000000 0.000000
  3 0.325039 1.113430 -5.098999 -0.004510 0.000000 0.000000
  4 6.206746 -0.124160 -11.733650 -0.972156 0.000000 0.000000
  5 2.376918 1.428909 -19.463913 0.794971 0.000000 -0.000000
  6 1.646507 1.612119 -34.692955 0.293558 0.000001 -0.000000
  7 0.219322 -4.030296 -4.600569 0.000000 -0.000000 0.000000
  8 -6.833118 -0.124160 -11.733650 -0.075879 0.286305 -0.339914
  9 -2.998634 1.160220 -19.583820 0.627330 -0.117532 0.150476
 10 -1.356798 1.880817 -34.573044 -0.318235 0.018242 -0.094814
 11 -0.258570 -4.030298 -4.908825 0.000000 -0.000000 0.000000
 12 0.325039 1.113430 0.809021 -0.052499 0.111413 1.130341
 13 7.054491 1.815097 15.713699 -0.000000 0.000000 0.000000
 14 12.909761 -0.165812 -12.867264 0.000000 -0.000000 0.000000
 15 11.504259 -9.735162 -11.778580 -0.114160 0.138026 -0.699164
 16 -4.990943 -20.855865 -11.972141 0.107342 -0.124349 -0.503130
 17 1.952663 -90.186752 -0.924709 0.000000 -0.000000 0.000000
 18 -35.001938 9.597228 -70.247452 0.000000 -0.000000 0.000000
 19 3.759451 -1.898644 -3.541325 0.000000 -0.000000 0.000000
 20 -7.698012 1.934284 15.877945 -0.565580 -0.403772 0.364940
 21 -12.721178 -0.083344 -12.838249 0.350879 -0.485336 0.230535
 22 -9.167509 -10.101492 -11.648891 0.579793 0.809829 1.024413
 23 -3.642090 -2.032096 -4.543636 0.000000 -0.000000 0.000000
 24 -0.409780 2.428935 22.341385 0.000000 0.000001 -1.169374
 25 -0.380095 -2.887196 20.845367 0.000000 -0.000000 0.000000
 26 -0.040495 -0.674471 8.862854 0.000000 -0.000000 0.000000
 27 -0.325040 -1.113431 -83.015945 0.000000 -0.000000 0.000000
 28 -0.325040 -1.113431 -83.015945 0.000000 -0.000000 0.000000
time 19
  0 -5.113562 -3.392895 0.796835 0.000000 -0.000000 0.000000
  1 -7.310884 -0.101110 174.348495 0.000000 -0.000000 0.000000
  2 -5.113562 1.685994 70.616058 0.052360 -0.000000 0.000000
  3 0.325039 1.113430 -5.098999 -0.004510 0.000000 -0.000000
  4 6.206746 -0.124160 -11.733654 -0.961886 0.000000 0.000000
  5 2.376919 1.428909 -19.463915 0.830917 0.000000 -0.000000
  6 1.646507 1.612120 -34.692955 0.224519 0.000000 -0.000000
  7 0.219323 -4.030298 -4.600571 0.000000 -0.000000 0.000000
  8 -6.833118 -0.124160 -11.733654 -0.075879 0.286305 -0.339914
  9 -2.998632 1.160220 -19.583828 0.627330 -0.117532 0.150476
 10 -1.356796 1.880814 -34.573044 -0.318235 0.018242 -0.094814
 11 -0.258570 -4.030294 -4.908824 0.000000 -0.000000 0.000000
 12 0.325039 1.113430 0.809013 -0.045885 0.097476 1.131125
 13 7.054490 1.815096 15.713699 -0.000000 -0.000000 0.000000
 14 12.909766 -0.165812 -12.867264 0.000000 -0.000000 0.000000
 15 11.504259 -9.735165 -11.778580 -0.114160 0.138026 -0.699164
 16 -4.990940 -20.855862 -11.972137 0.107342 -0.124349 -0.503130
 17 1.952658 -90.186768 -0.924713 0.000000 -0.000000 0.000000
 18 -35.001942 9.597227 -70.247467 0.000000 -0.000000 0.000000
 19 3.759451 -1.898644 -3.541317 0.000000 -0.000000 0.000000
 20 -7.698013 1.934286 15.877945 -0.565580 -0.403772 0.364940
 21 -12.721177 -0.083347 -12.838242 0.350879 -0.485336 0.230535
 22 -9.167511 -10.101494 -11.648895 0.579793 0.809829 1.024413
 23 -3.642082 -2.032096 -4.543636 0.000000 -0.000000 0.000000
 24 -0.409780 2.428936 22.341393 0.000000 0.000001 -1.169374
 25 -0.380096 -2.887196 20.845367 0.000000 -0.000000 0.000000
 26 -0.040495 -0.674471 8.862862 0.000000 -0.000000 0.000000
 27 -0.325039 -1.113430 -83.015953 0.000000 -0.000000 0.000000
 28 -0.325039 -1.113430 -83.015953 0.000000 -0.000000 0.000000
time 20
  0 -5.113562 -3.392895 0.796835 0.000000 -0.000000 0.000000
  1 -7.310884 -0.101110 174.348495 0.000000 -0.000000 0.000000
  2 -5.113562 0.300576 70.616058 0.052360 -0.000000 0.000000
  3 0.325039 1.113430 -5.098999 -0.004510 0.000000 0.000000
  4 6.206746 -0.124160 -11.733654 -0.952174 0.000000 0.000000
  5 2.376919 1.428909 -19.463913 0.864908 0.000000 -0.000000
  6 1.646507 1.612119 -34.692955 0.159234 0.000000 -0.000000
  7 0.219323 -4.030295 -4.600569 0.000000 -0.000000 0.000000
  8 -6.833118 -0.124160 -11.733654 -0.075879 0.286305 -0.339914
  9 -2.998631 1.160220 -19.583820 0.627330 -0.117532 0.150476
 10 -1.356798 1.880806 -34.573040 -0.318235 0.018242 -0.094814
 11 -0.258572 -4.030294 -4.908825 0.000000 -0.000000 0.000000
 12 0.325039 1.113430 0.809013 -0.039630 0.084296 1.131867
 13 7.054490 1.815096 15.713699 0.000000 0.000000 -0.000000
 14 12.909766 -0.165814 -12.867256 -0.000000 -0.000000 -0.000000
 15 11.504257 -9.735163 -11.778580 -0.114160 0.138026 -0.699164
 16 -4.990940 -20.855862 -11.972134 0.107342 -0.124349 -0.503130
 17 1.952654 -90.186745 -0.924717 0.000000 -0.000000 0.000000
 18 -35.001934 9.597223 -70.247459 0.000000 -0.000000 0.000000
 19 3.759451 -1.898642 -3.541321 0.000000 -0.000000 0.000000
 20 -7.698014 1.934286 15.877953 -0.565580 -0.403772 0.364940
 21 -12.721179 -0.083347 -12.838249 0.350879 -0.485336 0.230535
 22 -9.167515 -10.101492 -11.648895 0.579793 0.809829 1.024413
 23 -3.642086 -2.032097 -4.543640 0.000000 -0.000000 0.000000
 24 -0.409780 2.428936 22.341393 0.000000 0.000001 -1.169374
 25 -0.380095 -2.887195 20.845375 0.000000 -0.000000 0.000000
 26 -0.040494 -0.674472 8.862854 0.000000 -0.000000 0.000000
 27 -0.325038 -1.113431 -83.015961 0.000000 -0.000000 0.000000
 28 -0.325038 -1.113431 -83.015961 0.000000 -0.000000 0.000000
time 21
  0 -5.113562 -3.392895 0.796835 0.000000 -0.000000 0.000000
  1 -7.310884 -0.101110 174.348495 0.000000 -0.000000 0.000000
  2 -5.113562 -0.922536 70.616058 0.052360 -0.000000 0.000000
  3 0.325039 1.113430 -5.098999 -0.004510 0.000000 0.000000
  4 6.206746 -0.124160 -11.733654 -0.943393 0.000000 0.000000
  5 2.376919 1.428909 -19.463913 0.895641 0.000000 -0.000000
  6 1.646507 1.612118 -34.692951 0.100207 0.000000 -0.000000
  7 0.219323 -4.030298 -4.600570 0.000000 -0.000000 0.000000
  8 -6.833118 -0.124160 -11.733654 -0.075879 0.286305 -0.339914
  9 -2.998634 1.160220 -19.583820 0.627330 -0.117532 0.150476
 10 -1.356800 1.880816 -34.573040 -0.318235 0.018242 -0.094814
 11 -0.258568 -4.030296 -4.908824 0.000000 -0.000000 0.000000
 12 0.325039 1.113430 0.809013 -0.033975 0.072379 1.132537
 13 7.054490 1.815095 15.713707 0.000000 -0.000000 -0.000000
 14 12.909765 -0.165812 -12.867264 -0.000000 -0.000000 0.000000
 15 11.504259 -9.735166 -11.778580 -0.114160 0.138026 -0.699164
 16 -4.990940 -20.855864 -11.972134 0.107342 -0.124349 -0.503130
 17 1.952662 -90.186752 -0.924717 0.000000 -0.000000 0.000000
 18 -35.001942 9.597225 -70.247459 0.000000 -0.000000 0.000000
 19 3.759453 -1.898641 -3.541317 0.000000 -0.000000 0.000000
 20 -7.698013 1.934287 15.877953 -0.565580 -0.403772 0.364940
 21 -12.721180 -0.083347 -12.838242 0.350879 -0.485336 0.230535
 22 -9.167513 -10.101490 -11.648899 0.579793 0.809829 1.024413
 23 -3.642086 -2.032099 -4.543640 0.000000 -0.000000 0.000000
 24 -0.409780 2.428935 22.341393 0.000000 0.000001 -1.169374
 25 -0.380095 -2.887195 20.845367 0.000000 -0.000000 0.000000
 26 -0.040494 -0.674472 8.862862 0.000000 -0.000000 0.000000
 27 -0.325038 -1.113431 -83.015961 0.000000 -0.000000 0.000000
 28 -0.325038 -1.113431 -83.015961 0.000000 -0.000000 0.000000
time 22
  0 -5.113562 -3.392895 0.796835 0.000000 -0.000000 0.000000
  1 -7.310884 -0.101110 174.348495 0.000000 -0.000000 0.000000
  2 -5.113562 -1.943391 70.616058 0.052360 -0.000000 0.000000
  3 0.325039 1.113430 -5.098999 -0.004511 0.000000 0.000000
  4 6.206746 -0.124160 -11.733646 -0.935916 0.000000 0.000000
  5 2.376919 1.428909 -19.463911 0.921814 0.000000 -0.000000
  6 1.646507 1.612119 -34.692959 0.049940 0.000000 -0.000000
  7 0.219323 -4.030297 -4.600570 0.000000 -0.000000 0.000000
  8 -6.833118 -0.124160 -11.733646 -0.075879 0.286305 -0.339914
  9 -2.998634 1.160221 -19.583824 0.627330 -0.117532 0.150476
 10 -1.356798 1.880816 -34.573051 -0.318235 0.018242 -0.094814
 11 -0.258572 -4.030298 -4.908825 0.000000 -0.000000 0.000000
 12 0.325039 1.113430 0.809013 -0.029159 0.062231 1.133108
 13 7.054491 1.815096 15.713707 0.000000 -0.000000 -0.000000
 14 12.909764 -0.165811 -12.867271 0.000000 0.000000 -0.000000
 15 11.504255 -9.735159 -11.778580 -0.114160 0.138026 -0.699164
 16 -4.990952 -20.855869 -11.972141 0.107342 -0.124349 -0.503130
 17 1.952635 -90.186768 -0.924717 0.000000 -0.000000 0.000000
 18 -35.001926 9.597216 -70.247459 0.000000 -0.000000 0.000000
 19 3.759453 -1.898643 -3.541328 0.000000 -0.000000 0.000000
 20 -7.698013 1.934284 15.877945 -0.565580 -0.403772 0.364940
 21 -12.721175 -0.083344 -12.838238 0.350879 -0.485336 0.230535
 22 -9.167515 -10.101490 -11.648888 0.579793 0.809829 1.024413
 23 -3.642090 -2.032093 -4.543636 0.000000 -0.000000 0.000000
 24 -0.409780 2.428935 22.341393 0.000000 0.000001 -1.169373
 25 -0.380095 -2.887196 20.845375 0.000000 -0.000000 0.000000
 26 -0.040495 -0.674471 8.862862 0.000000 -0.000000 0.000000
 27 -0.325039 -1.113430 -83.015945 0.000000 -0.000000 0.000000
 28 -0.325039 -1.113430 -83.015945 0.000000 -0.000000 0.000000
time 23
  0 -5.113562 -3.392895 0.796835 0.000000 -0.000000 0.000000
  1 -7.310884 -0.101110 174.348495 0.000000 -0.000000 0.000000
  2 -5.113562 -2.722036 70.616058 0.052360 -0.000000 0.000000
  3 0.325039 1.113430 -5.098999 -0.004511 0.000000 -0.000000
  4 6.206746 -0.124160 -11.733643 -0.930113 0.000000 0.000000
  5 2.376919 1.428905 -19.463915 0.942121 0.000000 -0.000000
  6 1.646507 1.612119 -34.692959 0.010936 0.000000 -0.000000
  7 0.219322 -4.030297 -4.600570 0.000000 -0.000000 0.000000
  8 -6.833118 -0.124160 -11.733643 -0.075879 0.286305 -0.339914
  9 -2.998631 1.160221 -19.583817 0.627330 -0.117532 0.150476
 10 -1.356796 1.880808 -34.573048 -0.318235 0.018242 -0.094814
 11 -0.258572 -4.030296 -4.908827 0.000000 -0.000000 0.000000
 12 0.325039 1.113430 0.809013 -0.025422 0.054357 1.133552
 13 7.054490 1.815095 15.713707 -0.000000 0.000000 0.000000
 14 12.909765 -0.165813 -12.867264 0.000000 0.000000 0.000000
 15 11.504259 -9.735161 -11.778580 -0.114160 0.138026 -0.699164
 16 -4.990948 -20.855865 -11.972137 0.107342 -0.124349 -0.503130
 17 1.952642 -90.186775 -0.924709 0.000000 -0.000000 0.000000
 18 -35.001934 9.597221 -70.247459 0.000000 -0.000000 0.000000
 19 3.759453 -1.898642 -3.541321 0.000000 -0.000000 0.000000
 20 -7.698014 1.934285 15.877945 -0.565580 -0.403772 0.364940
 21 -12.721181 -0.083347 -12.838245 0.350879 -0.485336 0.230535
 22 -9.167507 -10.101494 -11.648895 0.579793 0.809829 1.024413
 23 -3.642086 -2.032093 -4.543644 0.000000 -0.000000 0.000000
 24 -0.409780 2.428935 22.341393 0.000000 0.000001 -1.169373
 25 -0.380095 -2.887196 20.845375 0.000000 -0.000000 0.000000
 26 -0.040494 -0.674471 8.862854 0.000000 -0.000000 0.000000
 27 -0.325039 -1.113430 -83.015961 0.000000 -0.000000 0.000000
 28 -0.325039 -1.113430 -83.015961 0.000000 -0.000000 0.000000
time 24
  0 -5.113562 -3.392895 0.796835 0.000000 -0.000000 0.000000
  1 -7.310884 -0.101110 174.348495 0.000000 -0.000000 0.000000
  2 -5.113562 -3.218522 70.616058 0.052360 -0.000000 0.000000
  3 0.325039 1.113430 -5.098999 -0.004511 0.000000 0.000000
  4 6.206746 -0.124160 -11.733646 -0.926359 0.000000 0.000000
  5 2.376919 1.428909 -19.463913 0.955262 0.000000 -0.000000
  6 1.646508 1.612119 -34.692959 -0.014302 0.000000 -0.000000
  7 0.219323 -4.030297 -4.600570 0.000000 -0.000000 0.000000
  8 -6.833118 -0.124160 -11.733646 -0.075879 0.286305 -0.339914
  9 -2.998632 1.160220 -19.583818 0.627330 -0.117532 0.150476
 10 -1.356798 1.880812 -34.573048 -0.318235 0.018242 -0.094814
 11 -0.258570 -4.030295 -4.908826 0.000000 -0.000000 0.000000
 12 0.325039 1.113430 0.809013 -0.023004 0.049262 1.133838
 13 7.054490 1.815096 15.713699 -0.000000 -0.000000 -0.000000
 14 12.909767 -0.165814 -12.867264 -0.000000 0.000000 -0.000000
 15 11.504257 -9.735167 -11.778572 -0.114160 0.138026 -0.699164
 16 -4.990947 -20.855862 -11.972134 0.107342 -0.124349 -0.503130
 17 1.952635 -90.186760 -0.924713 0.000000 -0.000000 0.000000
 18 -35.001938 9.597215 -70.247437 0.000000 -0.000000 0.000000
 19 3.759452 -1.898644 -3.541317 0.000000 -0.000000 0.000000
 20 -7.698013 1.934284 15.877953 -0.565580 -0.403772 0.364940
 21 -12.721182 -0.083347 -12.838245 0.350879 -0.485336 0.230535
 22 -9.167511 -10.101488 -11.648895 0.579793 0.809829 1.024413
 23 -3.642086 -2.032094 -4.543640 0.000000 -0.000000 0.000000
 24 -0.409780 2.428936 22.341393 0.000000 0.000001 -1.169373
 25 -0.380095 -2.887196 20.845360 0.000000 -0.000000 0.000000
 26 -0.040495 -0.674471 8.862862 0.000000 -0.000000 0.000000
 27 -0.325039 -1.113430 -83.015945 0.000000 -0.000000 0.000000
 28 -0.325039 -1.113430 -83.015945 0.000000 -0.000000 0.000000
time 25
  0 -5.113562 -3.392895 0.796835 0.000000 -0.000000 0.000000
  1 -7.310884 -0.101110 174.348495 0.000000 -0.000000 0.000000
  2 -5.113562 -3.392895 70.616058 0.052360 -0.000000 0.000000
  3 0.325039 1.113430 -5.099007 -0.004512 0.000000 0.000000
  4 6.206746 -0.124160 -11.733650 -0.925025 0.000000 0.000000
  5 2.376919 1.428913 -19.463917 0.959931 0.000000 -0.000000
  6 1.646508 1.612118 -34.692959 -0.023271 0.000000 -0.000000
  7 0.219323 -4.030296 -4.600570 0.000000 -0.000000 0.000000
  8 -6.833118 -0.124160 -11.733650 -0.075879 0.286305 -0.339914
  9 -2.998631 1.160221 -19.583820 0.627330 -0.117532 0.150476
 10 -1.356796 1.880816 -34.573051 -0.318235 0.018242 -0.094814
 11 -0.258572 -4.030296 -4.908825 0.000000 -0.000000 0.000000
 12 0.325039 1.113430 0.809013 -0.022144 0.047451 1.133940
 13 7.054490 1.815096 15.713707 -0.000000 0.000000 0.000000
 14 12.909765 -0.165812 -12.867271 0.000000 -0.000000 -0.000000
 15 11.504256 -9.735163 -11.778580 -0.114160 0.138026 -0.699164
 16 -4.990946 -20.855864 -11.972137 0.107342 -0.124349 -0.503130
 17 1.952650 -90.186760 -0.924709 0.000000 -0.000000 0.000000
 18 -35.001938 9.597225 -70.247482 0.000000 -0.000000 0.000000
 19 3.759449 -1.898642 -3.541321 0.000000 -0.000000 0.000000
 20 -7.698014 1.934285 15.877953 -0.565580 -0.403772 0.364940
 21 -12.721184 -0.083344 -12.838249 0.350879 -0.485336 0.230535
 22 -9.167515 -10.101494 -11.648895 0.579793 0.809828 1.024413
 23 -3.642086 -2.032097 -4.543640 0.000000 -0.000000 0.000000
 24 -0.409779 2.428935 22.341393 0.000000 0.000001 -1.169373
 25 -0.380095 -2.887195 20.845367 0.000000 -0.000000 0.000000
 26 -0.040494 -0.674471 8.862854 0.000000 -0.000000 0.000000
 27 -0.325039 -1.113430 -83.015968 0.000000 -0.000000 0.000000
 28 -0.325039 -1.113430 -83.015968 0.000000 -0.000000 0.000000
end
